G04*
G04 #@! TF.GenerationSoftware,Altium Limited,Altium Designer,23.3.1 (30)*
G04*
G04 Layer_Physical_Order=2*
G04 Layer_Color=65280*
%FSLAX44Y44*%
%MOMM*%
G71*
G04*
G04 #@! TF.SameCoordinates,837CF2E7-3A67-4F18-B0B9-64CBEB55FE63*
G04*
G04*
G04 #@! TF.FilePolarity,Positive*
G04*
G01*
G75*
%ADD10C,0.3810*%
%ADD13C,0.2540*%
%ADD72C,0.1270*%
%ADD73C,0.2032*%
%ADD74R,2.2000X1.1000*%
%ADD75C,0.4064*%
%ADD76C,0.5000*%
%ADD77C,0.3556*%
%ADD78C,0.7620*%
%ADD79C,0.5080*%
G36*
X83846Y228395D02*
X84053Y227354D01*
X84642Y226472D01*
X86013Y225101D01*
Y212989D01*
X82768Y209744D01*
X81742D01*
X80248Y209125D01*
X80060Y208937D01*
X78790Y209463D01*
Y229158D01*
X83846D01*
Y228395D01*
D02*
G37*
G36*
X91902Y241236D02*
X92905D01*
X94027Y239557D01*
X94236Y238505D01*
X94388Y237298D01*
X94388D01*
X94792Y235266D01*
X95943Y233544D01*
X95978Y233579D01*
X101616Y227941D01*
X102463Y226992D01*
X102463Y226992D01*
X106361Y223794D01*
X110808Y221417D01*
X115632Y219953D01*
X119480Y219574D01*
X126528Y212527D01*
X126626Y212461D01*
X129377Y209109D01*
X131476Y205182D01*
X132769Y200921D01*
X133194Y196605D01*
X133171Y196489D01*
Y183098D01*
X133136D01*
X133483Y179570D01*
X134391Y176576D01*
X133268Y175903D01*
X131466Y177705D01*
X130584Y178295D01*
X129544Y178502D01*
X125661D01*
X125409Y179772D01*
X126475Y180214D01*
X127618Y181357D01*
X128237Y182850D01*
Y184467D01*
X127618Y185961D01*
X126475Y187104D01*
X124981Y187723D01*
X123365D01*
X121871Y187104D01*
X120728Y185961D01*
X120109Y184467D01*
Y182850D01*
X120728Y181357D01*
X121871Y180214D01*
X122937Y179772D01*
X122684Y178502D01*
X106346D01*
X105820Y179772D01*
X106308Y180259D01*
X106926Y181753D01*
Y183370D01*
X106308Y184864D01*
X105165Y186007D01*
X103671Y186625D01*
X102054D01*
X100560Y186007D01*
X99417Y184864D01*
X98799Y183370D01*
Y181753D01*
X99417Y180259D01*
X99905Y179772D01*
X99379Y178502D01*
X91437D01*
X91437Y178502D01*
X90502Y178316D01*
X90334Y178335D01*
X89232Y179045D01*
Y193022D01*
X78790D01*
Y201897D01*
X80060Y202423D01*
X80248Y202235D01*
X81742Y201616D01*
X83358D01*
X84852Y202235D01*
X85995Y203378D01*
X86614Y204872D01*
Y205898D01*
X90655Y209940D01*
X90655Y209940D01*
X91245Y210822D01*
X91452Y211863D01*
X91452Y211863D01*
Y226227D01*
X91245Y227268D01*
X90655Y228150D01*
X90655Y228150D01*
X89284Y229521D01*
Y231825D01*
X89284Y231825D01*
X89232Y232088D01*
Y241234D01*
X90408Y241855D01*
X91902Y241236D01*
D02*
G37*
G36*
X303610Y244222D02*
X293038D01*
Y229158D01*
X303610D01*
Y187222D01*
X293038D01*
X292976Y188466D01*
Y223520D01*
X292523Y225799D01*
X291232Y227732D01*
X289299Y229023D01*
X287020Y229477D01*
X259007D01*
X241702Y246782D01*
X241465Y246940D01*
X241850Y248210D01*
X303610D01*
Y244222D01*
D02*
G37*
G36*
X129146Y172334D02*
Y166653D01*
X127876Y166127D01*
X127474Y166529D01*
X125980Y167148D01*
X124363D01*
X122870Y166529D01*
X121727Y165386D01*
X121108Y163892D01*
Y162275D01*
X121727Y160781D01*
X122309Y160199D01*
X121783Y158929D01*
X118554D01*
X118028Y160199D01*
X118610Y160781D01*
X119229Y162275D01*
Y163892D01*
X118610Y165386D01*
X117467Y166529D01*
X115973Y167148D01*
X114356D01*
X112863Y166529D01*
X111719Y165386D01*
X111101Y163892D01*
Y162275D01*
X111719Y160781D01*
X112302Y160199D01*
X111776Y158929D01*
X108720D01*
X108325Y159656D01*
X108131Y160199D01*
X108706Y161586D01*
Y163203D01*
X108087Y164697D01*
X106944Y165840D01*
X105450Y166459D01*
X103833D01*
X102340Y165840D01*
X101196Y164697D01*
X100578Y163203D01*
Y161586D01*
X101152Y160199D01*
X100959Y159656D01*
X100564Y158929D01*
X99382D01*
X99382Y158929D01*
X99219Y158897D01*
X98372Y159592D01*
X97753Y161086D01*
X96610Y162229D01*
X95116Y162848D01*
X93500D01*
X93321Y162774D01*
X92265Y163480D01*
Y172765D01*
X92563Y173063D01*
X128417D01*
X129146Y172334D01*
D02*
G37*
G36*
X303610Y155222D02*
X293038D01*
Y140158D01*
X303610D01*
Y119222D01*
X293038D01*
Y104158D01*
X303610D01*
Y99222D01*
X293038D01*
Y84158D01*
X303610D01*
Y67222D01*
X295571D01*
X295430Y67394D01*
X295430Y67394D01*
Y74320D01*
X295430Y74320D01*
X295223Y75360D01*
X294633Y76242D01*
X288469Y82406D01*
Y100674D01*
X288262Y101715D01*
X287673Y102597D01*
X287673Y102597D01*
X286087Y104183D01*
Y104512D01*
X285468Y106006D01*
X284325Y107149D01*
X282831Y107768D01*
X281215D01*
X279721Y107149D01*
X278578Y106006D01*
X278140Y104949D01*
X276833Y104495D01*
X276177Y104900D01*
X276173Y105933D01*
X276227Y106209D01*
X277244Y106889D01*
X278255Y108401D01*
X278609Y110185D01*
Y120887D01*
X288339Y130617D01*
X289350Y132129D01*
X289705Y133913D01*
Y148487D01*
X290546Y149746D01*
X291000Y152025D01*
X290546Y154305D01*
X289255Y156237D01*
X289221Y156271D01*
Y163005D01*
X290277Y163710D01*
X290602Y163576D01*
X292218D01*
X293712Y164195D01*
X294855Y165338D01*
X295474Y166832D01*
Y168448D01*
X294855Y169942D01*
X293909Y170888D01*
X294114Y171821D01*
X294299Y172158D01*
X303610D01*
Y155222D01*
D02*
G37*
G36*
X245686Y166588D02*
Y165562D01*
X246305Y164068D01*
X247031Y163342D01*
Y129983D01*
X245985Y129550D01*
X244842Y128407D01*
X244223Y126913D01*
Y125296D01*
X243244Y124342D01*
X242644Y124283D01*
X228932Y137995D01*
Y151730D01*
X228725Y152771D01*
X228136Y153653D01*
X226969Y154819D01*
X227217Y156065D01*
X227332Y156113D01*
X228475Y157256D01*
X229094Y158750D01*
Y160366D01*
X228817Y161036D01*
X228953Y162173D01*
X229474Y162515D01*
X230462Y162925D01*
X231605Y164068D01*
X231723Y164351D01*
X233097D01*
X233215Y164068D01*
X234358Y162925D01*
X235852Y162306D01*
X237468D01*
X238962Y162925D01*
X240105Y164068D01*
X240724Y165562D01*
Y167178D01*
X240105Y168672D01*
X238962Y169815D01*
X237468Y170434D01*
X236442D01*
X233184Y173691D01*
X233670Y174865D01*
X237410D01*
X245686Y166588D01*
D02*
G37*
G36*
X174907Y172067D02*
X175789Y171478D01*
X176830Y171271D01*
X182463D01*
X182716Y170001D01*
X182268Y169815D01*
X181125Y168672D01*
X180506Y167178D01*
Y165562D01*
X181125Y164068D01*
X182072Y163120D01*
X181871Y162196D01*
X181683Y161850D01*
X157702D01*
X156996Y162906D01*
X157044Y163022D01*
Y164638D01*
X156425Y166132D01*
X155282Y167275D01*
X153788Y167894D01*
X153242D01*
X152629Y168910D01*
X152629Y168910D01*
X152225Y170942D01*
X151189Y172492D01*
X151074Y172664D01*
X151074D01*
X150327Y173405D01*
D01*
X150173Y173524D01*
X147958Y175223D01*
X145200Y176365D01*
X143642Y176570D01*
X142516Y178037D01*
X141487Y180522D01*
X141141Y183148D01*
X141149Y183188D01*
Y196489D01*
X141192D01*
X140814Y201292D01*
X140245Y203660D01*
X141191Y204834D01*
X142126Y204848D01*
X174907Y172067D01*
D02*
G37*
G36*
X173015Y246940D02*
X172778Y246782D01*
X172778Y246782D01*
X168508Y242512D01*
X167217Y240579D01*
X166763Y238300D01*
X167217Y236021D01*
X168508Y234088D01*
X170441Y232797D01*
X172720Y232344D01*
X174999Y232797D01*
X176932Y234088D01*
X179457Y236614D01*
X203010D01*
X203536Y235343D01*
X202775Y234582D01*
X202156Y233088D01*
Y231472D01*
X202775Y229978D01*
X203918Y228835D01*
X205412Y228216D01*
X207028D01*
X208522Y228835D01*
X209665Y229978D01*
X210284Y231472D01*
Y233088D01*
X209665Y234582D01*
X208904Y235343D01*
X209430Y236614D01*
X235023D01*
X252328Y219308D01*
X254261Y218017D01*
X256540Y217563D01*
X281063D01*
Y180267D01*
X279053Y178257D01*
X277762Y176324D01*
X277309Y174045D01*
Y156438D01*
X276038Y155707D01*
X275128Y156084D01*
X273512D01*
X272018Y155465D01*
X270875Y154322D01*
X270256Y152828D01*
Y151212D01*
X270875Y149718D01*
X272018Y148575D01*
X273512Y147956D01*
X275128D01*
X276622Y148575D01*
X277571Y149524D01*
X279010Y149656D01*
X279053Y149592D01*
X280382Y148263D01*
Y135844D01*
X270689Y126152D01*
X270528Y126158D01*
X269419Y126556D01*
Y130954D01*
X271860Y133394D01*
X271860Y133394D01*
X272449Y134276D01*
X272656Y135317D01*
Y139700D01*
X272449Y140741D01*
X271860Y141623D01*
X265990Y147492D01*
Y172754D01*
X265783Y173795D01*
X265194Y174677D01*
X253668Y186203D01*
X252786Y186792D01*
X251745Y186999D01*
X224248D01*
X223522Y187725D01*
X222028Y188344D01*
X220412D01*
X218918Y187725D01*
X217775Y186582D01*
X217156Y185088D01*
Y183472D01*
X217775Y181978D01*
X218179Y181573D01*
X217653Y180303D01*
X209787D01*
X209261Y181573D01*
X209665Y181978D01*
X210284Y183472D01*
Y185088D01*
X209665Y186582D01*
X208522Y187725D01*
X207028Y188344D01*
X205412D01*
X203918Y187725D01*
X203192Y186999D01*
X202466D01*
X151384Y238082D01*
Y239108D01*
X150765Y240602D01*
X149622Y241745D01*
X148128Y242364D01*
X146512D01*
X145018Y241745D01*
X143875Y240602D01*
X143256Y239108D01*
Y237492D01*
X143875Y235998D01*
X145018Y234855D01*
X146512Y234236D01*
X147538D01*
X199417Y182357D01*
X200299Y181768D01*
X201340Y181561D01*
X201340Y181561D01*
X201310Y180303D01*
X187062D01*
X145334Y222032D01*
Y223058D01*
X144715Y224552D01*
X143572Y225695D01*
X142078Y226314D01*
X140462D01*
X138968Y225695D01*
X137825Y224552D01*
X137206Y223058D01*
Y221442D01*
X137825Y219948D01*
X138968Y218805D01*
X140462Y218186D01*
X141488D01*
X181792Y177883D01*
X181306Y176709D01*
X177956D01*
X145334Y209332D01*
Y210358D01*
X144715Y211852D01*
X143572Y212995D01*
X142078Y213614D01*
X140462D01*
X138968Y212995D01*
X138220Y212247D01*
X136723Y212259D01*
X135328Y214535D01*
X132199Y218198D01*
X132169Y218168D01*
X132169Y218168D01*
X124369Y225969D01*
X124404Y226004D01*
X122682Y227155D01*
X120650Y227559D01*
Y227559D01*
X119406Y227621D01*
X117201Y227839D01*
X113884Y228845D01*
X110828Y230478D01*
X108175Y232655D01*
X108156Y232685D01*
X102559Y238281D01*
X102673Y239144D01*
X103385Y240863D01*
X104078Y241766D01*
X104952D01*
X106445Y242385D01*
X107589Y243528D01*
X108207Y245022D01*
Y246639D01*
X108082Y246940D01*
X108931Y248210D01*
X172630D01*
X173015Y246940D01*
D02*
G37*
G36*
X211383Y160912D02*
X212876Y160293D01*
X213804D01*
X218267Y155830D01*
X217741Y154560D01*
X217343D01*
X215849Y153942D01*
X215123Y153216D01*
X212376D01*
X209998Y155593D01*
X209116Y156182D01*
X208076Y156389D01*
X193040D01*
X193040Y156389D01*
X192380Y156258D01*
X191754Y157428D01*
X195963Y161638D01*
X210656D01*
X211383Y160912D01*
D02*
G37*
G36*
X209326Y148574D02*
X209326Y148573D01*
X210209Y147984D01*
X210730Y147880D01*
X210605Y146610D01*
X200112D01*
X199406Y147666D01*
X199454Y147782D01*
Y149398D01*
X199337Y149681D01*
X200186Y150951D01*
X206949D01*
X209326Y148574D01*
D02*
G37*
G36*
X88496Y176688D02*
X87623Y175814D01*
X87033Y174932D01*
X86826Y173892D01*
Y128853D01*
X86799Y128830D01*
X83294D01*
X82135Y129990D01*
Y132167D01*
X83646Y133678D01*
X84235Y134560D01*
X84443Y135601D01*
Y177958D01*
X87970D01*
X88496Y176688D01*
D02*
G37*
G36*
X238846Y120390D02*
X238536Y118903D01*
X237798Y118598D01*
X236655Y117455D01*
X236140Y116212D01*
X234863Y115693D01*
X229253Y121303D01*
X228371Y121892D01*
X227330Y122099D01*
X223699D01*
Y133740D01*
X224969Y134266D01*
X238846Y120390D01*
D02*
G37*
G36*
X205276Y136272D02*
X205276Y136271D01*
X205341Y136271D01*
Y115784D01*
X204071Y115258D01*
X203809Y115520D01*
X202316Y116138D01*
X200699D01*
X199205Y115520D01*
X198062Y114376D01*
X197443Y112883D01*
Y111266D01*
X198062Y109772D01*
X199205Y108629D01*
X200699Y108011D01*
X202316D01*
X203809Y108629D01*
X204071Y108891D01*
X205341Y108365D01*
Y105410D01*
X210255D01*
X210826Y104555D01*
Y102938D01*
X211445Y101445D01*
X212588Y100301D01*
X214082Y99683D01*
X215698D01*
X217192Y100301D01*
X218335Y101445D01*
X218954Y102938D01*
Y104555D01*
X219493Y105361D01*
X221717D01*
X222256Y104555D01*
Y102938D01*
X222875Y101445D01*
X224018Y100301D01*
X225512Y99683D01*
X225922D01*
Y60096D01*
X210362D01*
X209876Y60582D01*
Y61515D01*
X209669Y62556D01*
X209079Y63438D01*
X208197Y64028D01*
X207157Y64235D01*
X205849D01*
X205144Y65291D01*
X205191Y65406D01*
Y67023D01*
X204573Y68517D01*
X203429Y69660D01*
X201936Y70279D01*
X200319D01*
X198825Y69660D01*
X197682Y68517D01*
X197063Y67023D01*
Y65406D01*
X197111Y65291D01*
X196406Y64235D01*
X194849D01*
X194144Y65291D01*
X194191Y65406D01*
Y67023D01*
X193573Y68517D01*
X192429Y69660D01*
X190936Y70279D01*
X189319D01*
X188139Y69790D01*
X186869Y70363D01*
Y74442D01*
X187595Y75168D01*
X188214Y76662D01*
Y78278D01*
X187595Y79772D01*
X186452Y80915D01*
X184958Y81534D01*
X183342D01*
X181848Y80915D01*
X180705Y79772D01*
X180086Y78278D01*
Y76662D01*
X180705Y75168D01*
X181431Y74442D01*
Y72049D01*
X180161Y71523D01*
X179733Y71951D01*
X178239Y72570D01*
X176622D01*
X175129Y71951D01*
X173985Y70808D01*
X173367Y69314D01*
Y67697D01*
X173985Y66204D01*
X175129Y65060D01*
X176622Y64442D01*
X178239D01*
X179733Y65060D01*
X180161Y65488D01*
X181431Y64962D01*
Y63301D01*
X181638Y62260D01*
X181506Y61958D01*
X180859Y61139D01*
X179532D01*
X178039Y60521D01*
X177614Y60096D01*
X163604D01*
Y79749D01*
X164819Y80963D01*
X168019D01*
X169060Y81170D01*
X169942Y81760D01*
X181064Y92881D01*
X182312Y92334D01*
X182856Y91021D01*
X183999Y89878D01*
X185493Y89259D01*
X187110D01*
X188603Y89878D01*
X189746Y91021D01*
X190365Y92515D01*
Y92637D01*
X191635Y93163D01*
X191733Y93066D01*
X193227Y92447D01*
X194843D01*
X196337Y93066D01*
X197293Y94021D01*
X198035Y94129D01*
X198777Y94021D01*
X199733Y93066D01*
X201227Y92447D01*
X202843D01*
X204337Y93066D01*
X205480Y94209D01*
X206099Y95702D01*
Y97319D01*
X205480Y98813D01*
X204337Y99956D01*
X202843Y100575D01*
X201227D01*
X199733Y99956D01*
X198777Y99001D01*
X198035Y98893D01*
X197293Y99001D01*
X196337Y99956D01*
X194843Y100575D01*
X193227D01*
X192687Y100936D01*
Y108273D01*
X192687Y108274D01*
X192480Y109314D01*
X191890Y110196D01*
X191890Y110196D01*
X186140Y115947D01*
X185258Y116536D01*
X184523Y116682D01*
Y137346D01*
X188086D01*
X189127Y137553D01*
X190009Y138143D01*
X193038Y141172D01*
X205276D01*
Y136272D01*
D02*
G37*
G36*
X256270Y121800D02*
Y114066D01*
X254029Y111824D01*
X244179D01*
X243646Y113094D01*
X244164Y114344D01*
Y115961D01*
X243841Y116740D01*
X244649Y118010D01*
X249557D01*
X250598Y118217D01*
X251480Y118807D01*
X255000Y122326D01*
X256270Y121800D01*
D02*
G37*
G36*
X202674Y113747D02*
X203279Y113344D01*
X204071Y113186D01*
X204864Y113344D01*
X205359Y113549D01*
X206753Y112883D01*
X206801Y112806D01*
X206932Y112148D01*
X208223Y110215D01*
X209384Y109055D01*
X209387Y109038D01*
X209578Y108752D01*
X208900Y107482D01*
X207413D01*
Y108365D01*
X207255Y109158D01*
X206806Y109830D01*
X206134Y110279D01*
X204864Y110805D01*
X204071Y110963D01*
X203639Y110877D01*
X203279Y110805D01*
X202674Y110401D01*
X201904Y110082D01*
X201111D01*
X200379Y110386D01*
X199818Y110946D01*
X199515Y111678D01*
Y112471D01*
X199818Y113203D01*
X200379Y113763D01*
X201111Y114067D01*
X201904D01*
X202674Y113747D01*
D02*
G37*
G36*
X214890Y105361D02*
X215749D01*
X215935Y105298D01*
X216103Y105205D01*
X216882Y104555D01*
Y103350D01*
X216579Y102618D01*
X216019Y102058D01*
X215286Y101755D01*
X214494D01*
X213762Y102058D01*
X213201Y102618D01*
X212898Y103350D01*
Y104463D01*
X212932Y104600D01*
X213365Y105157D01*
X213588Y105333D01*
X213979Y105533D01*
X213997Y105539D01*
X214890Y105361D01*
D02*
G37*
G36*
X203164Y98200D02*
X203724Y97639D01*
X204027Y96907D01*
Y96115D01*
X203724Y95382D01*
X203164Y94822D01*
X202431Y94519D01*
X201639D01*
X200907Y94822D01*
X200242Y95486D01*
X200028Y95630D01*
X199836Y95802D01*
X199736Y95837D01*
X199684Y95955D01*
X199628Y96511D01*
X199684Y97067D01*
X199736Y97184D01*
X199836Y97219D01*
X200028Y97392D01*
X200242Y97535D01*
X200907Y98200D01*
X201639Y98503D01*
X202431D01*
X203164Y98200D01*
D02*
G37*
G36*
X80816Y99489D02*
X81698Y98899D01*
X82739Y98692D01*
X82739Y98692D01*
X84400D01*
Y90804D01*
X83344Y90099D01*
X83228Y90146D01*
X81611D01*
X80118Y89528D01*
X80060Y89469D01*
X78790Y89996D01*
Y99719D01*
X80060Y100245D01*
X80816Y99489D01*
D02*
G37*
G36*
X100076Y151263D02*
Y150322D01*
X100695Y148828D01*
X101838Y147685D01*
X103332Y147066D01*
X104948D01*
X106442Y147685D01*
X107168Y148411D01*
X162760D01*
X173027Y138143D01*
X173027Y138143D01*
X173910Y137553D01*
X174950Y137346D01*
X174950Y137346D01*
X182451D01*
Y116743D01*
X181886D01*
X180846Y116536D01*
X179963Y115947D01*
X179963Y115947D01*
X171280Y107263D01*
X170690Y106381D01*
X170483Y105340D01*
Y95569D01*
X165519Y90605D01*
X161546D01*
X160505Y90398D01*
X159623Y89809D01*
X142397Y72583D01*
X141655Y72873D01*
X141224Y73206D01*
Y74658D01*
X140605Y76152D01*
X139462Y77295D01*
X137968Y77914D01*
X136352D01*
X134858Y77295D01*
X134227Y76664D01*
X132956Y77190D01*
Y78905D01*
X132503Y81184D01*
X131212Y83117D01*
X131212Y83117D01*
X116865Y97464D01*
Y112327D01*
X116412Y114606D01*
X115120Y116539D01*
X110657Y121002D01*
X108724Y122294D01*
X106445Y122747D01*
X105216Y122502D01*
X103322D01*
X101042Y122049D01*
X100684Y121810D01*
X99564Y122408D01*
Y136083D01*
X99357Y137124D01*
X98768Y138006D01*
X95617Y141156D01*
Y148600D01*
X98806Y151789D01*
X100076Y151263D01*
D02*
G37*
G36*
X95277Y61988D02*
X96159Y61398D01*
X97200Y61191D01*
X98809D01*
X99425Y60011D01*
X98806Y58517D01*
Y56900D01*
X99425Y55406D01*
X100171Y54660D01*
X99645Y53390D01*
X78790D01*
Y69222D01*
X79471Y69605D01*
X80060Y69819D01*
X81433Y69250D01*
X83049D01*
X84543Y69869D01*
X85686Y71012D01*
X86159Y71106D01*
X95277Y61988D01*
D02*
G37*
G36*
X235682Y107182D02*
X236564Y106593D01*
X237605Y106386D01*
X255155D01*
X256196Y106593D01*
X257078Y107182D01*
X258399Y108503D01*
X259572Y108017D01*
Y78813D01*
X259779Y77772D01*
X260369Y76890D01*
X263419Y73839D01*
X262893Y72569D01*
X234950D01*
X233909Y72362D01*
X233027Y71773D01*
X233027Y71773D01*
X229263Y68009D01*
X227994Y68528D01*
Y99683D01*
X227836Y100476D01*
X227387Y101148D01*
X226715Y101597D01*
X225926Y101754D01*
X225191Y102058D01*
X224631Y102618D01*
X224328Y103350D01*
Y104555D01*
X224946Y105712D01*
X225035Y105815D01*
X226968Y107106D01*
X227066Y107254D01*
X227128D01*
X228622Y107873D01*
X229765Y109016D01*
X230384Y110510D01*
Y110684D01*
X231654Y111210D01*
X235682Y107182D01*
D02*
G37*
G36*
X133780Y71482D02*
X134858Y70405D01*
X136352Y69786D01*
X137968D01*
X139462Y70405D01*
X140095Y71038D01*
X141266Y70412D01*
X141244Y70303D01*
Y66733D01*
X138210Y63699D01*
X125567D01*
X120657Y68608D01*
X120955Y70106D01*
X121302Y70250D01*
X122455Y70136D01*
X122788Y69638D01*
X124721Y68347D01*
X127000Y67894D01*
X129279Y68347D01*
X131212Y69638D01*
X132397Y71411D01*
X133235Y71520D01*
X133780Y71482D01*
D02*
G37*
G36*
X178559Y70195D02*
X178696Y70058D01*
X179368Y69609D01*
X180161Y69451D01*
X180374Y69294D01*
X180374Y67717D01*
X180161Y67560D01*
X179368Y67403D01*
X178696Y66953D01*
X178559Y66817D01*
X177827Y66514D01*
X177034D01*
X176302Y66817D01*
X175742Y67377D01*
X175438Y68109D01*
Y68902D01*
X175742Y69634D01*
X176302Y70195D01*
X177034Y70498D01*
X177827D01*
X178559Y70195D01*
D02*
G37*
G36*
X151807Y72642D02*
Y61296D01*
X150169Y59658D01*
X143519D01*
X143033Y60831D01*
X145886Y63684D01*
X146475Y64566D01*
X146683Y65607D01*
X146683Y65607D01*
Y69177D01*
X150634Y73128D01*
X151807Y72642D01*
D02*
G37*
G36*
X265251Y64415D02*
X265458Y63375D01*
X266047Y62493D01*
X267800Y60739D01*
Y56384D01*
X268007Y55343D01*
X268464Y54660D01*
X268088Y53390D01*
X231751D01*
X231225Y54660D01*
X232742Y56177D01*
X233332Y57059D01*
X233539Y58100D01*
Y64593D01*
X236076Y67131D01*
X265251D01*
Y64415D01*
D02*
G37*
G36*
X161532Y76017D02*
Y60096D01*
X161690Y59303D01*
X162139Y58631D01*
X162811Y58182D01*
X163604Y58024D01*
X177613D01*
X177614Y58024D01*
X178406Y58182D01*
X179079Y58631D01*
X179212Y58765D01*
X179944Y59068D01*
X180859D01*
X180979Y59092D01*
X181100Y59082D01*
X181372Y59170D01*
X181652Y59225D01*
X181753Y59293D01*
X181869Y59331D01*
X182087Y59516D01*
X182324Y59675D01*
X183310Y59903D01*
X183680Y59925D01*
X184013Y59593D01*
X184895Y59003D01*
X185935Y58796D01*
X204568D01*
X204644Y58415D01*
X205234Y57533D01*
X208107Y54660D01*
X207581Y53390D01*
X153070D01*
X152685Y54660D01*
X153218Y55016D01*
X156449Y58247D01*
X156449Y58247D01*
X157039Y59129D01*
X157246Y60170D01*
Y73390D01*
X160359Y76503D01*
X161532Y76017D01*
D02*
G37*
%LPC*%
G36*
X124965Y242122D02*
X123349D01*
X121855Y241503D01*
X120712Y240360D01*
X120093Y238866D01*
Y237250D01*
X120712Y235756D01*
X121855Y234613D01*
X123349Y233994D01*
X124965D01*
X126459Y234613D01*
X127602Y235756D01*
X128221Y237250D01*
Y238866D01*
X127602Y240360D01*
X126459Y241503D01*
X124965Y242122D01*
D02*
G37*
G36*
X218238Y88118D02*
X216622D01*
X215128Y87500D01*
X213985Y86356D01*
X213366Y84863D01*
Y83246D01*
X213985Y81752D01*
X215128Y80609D01*
X216622Y79990D01*
X218238D01*
X219732Y80609D01*
X220875Y81752D01*
X221494Y83246D01*
Y84863D01*
X220875Y86356D01*
X219732Y87500D01*
X218238Y88118D01*
D02*
G37*
%LPD*%
G36*
X218559Y85743D02*
X219119Y85183D01*
X219422Y84451D01*
Y83658D01*
X219119Y82926D01*
X218559Y82365D01*
X217826Y82062D01*
X217034D01*
X216301Y82365D01*
X215741Y82926D01*
X215438Y83658D01*
Y84451D01*
X215741Y85183D01*
X216301Y85743D01*
X217034Y86046D01*
X217826D01*
X218559Y85743D01*
D02*
G37*
%LPC*%
G36*
X244624Y63754D02*
X243007D01*
X241514Y63135D01*
X240370Y61992D01*
X239752Y60498D01*
Y58882D01*
X240370Y57388D01*
X241514Y56245D01*
X243007Y55626D01*
X244624D01*
X246118Y56245D01*
X247261Y57388D01*
X247880Y58882D01*
Y60498D01*
X247261Y61992D01*
X246118Y63135D01*
X244624Y63754D01*
D02*
G37*
%LPD*%
D10*
X267742Y90250D02*
Y103979D01*
Y90250D02*
X278104Y79889D01*
X267742Y103979D02*
X273948Y110185D01*
D13*
X106312Y189230D02*
Y189449D01*
D72*
X149860Y168910D02*
G03*
X151246Y165564I4732J0D01*
G01*
X145934D02*
G03*
X147320Y168910I-3346J3346D01*
G01*
X135890Y183098D02*
G03*
X140380Y172258I15330J0D01*
G01*
X140444Y172194D02*
G03*
X142240Y171450I1796J1796D01*
G01*
X146576Y169654D02*
G03*
X142240Y171450I-4336J-4336D01*
G01*
X135890Y196489D02*
G03*
X128450Y214450I-25400J0D01*
G01*
X97157Y237298D02*
G03*
X94643Y243367I-8583J0D01*
G01*
X104437Y228966D02*
G03*
X120650Y222250I16213J16213D01*
G01*
X97157Y237298D02*
G03*
X97901Y235502I2540J0D01*
G01*
X138430Y183188D02*
G03*
X142240Y173990I13008J0D01*
G01*
X148372Y171450D02*
G03*
X142240Y173990I-6132J-6132D01*
G01*
X149860Y168910D02*
G03*
X149116Y170706I-2540J0D01*
G01*
X138430Y196489D02*
G03*
X130247Y216245I-27940J0D01*
G01*
X102586Y244273D02*
G03*
X99697Y237298I6975J-6975D01*
G01*
X122446Y224046D02*
G03*
X120650Y224790I-1796J-1796D01*
G01*
X106233Y230762D02*
G03*
X120650Y224790I14417J14417D01*
G01*
X93426Y102957D02*
X94731Y101652D01*
Y95753D02*
Y101652D01*
X93426Y102957D02*
Y124752D01*
X94731Y95753D02*
X97790Y92694D01*
Y74930D02*
Y92694D01*
X96845Y109708D02*
Y136083D01*
Y109708D02*
X99580Y106972D01*
X189336Y99287D02*
X189967Y99918D01*
Y108274D01*
X184217Y114024D02*
X189967Y108274D01*
X189336Y96358D02*
Y99287D01*
X191912Y143891D02*
X216341D01*
X220980Y120368D02*
X221968Y119380D01*
X216341Y143891D02*
X220980Y139252D01*
Y120368D02*
Y139252D01*
X266700Y122920D02*
Y132080D01*
X262291Y78813D02*
X266089Y75015D01*
X267475D02*
X276860Y65630D01*
X262291Y78813D02*
Y118511D01*
X266089Y75015D02*
X267475D01*
X276860Y60248D02*
Y65630D01*
X262291Y118511D02*
X266700Y122920D01*
X104140Y151130D02*
X163886D01*
X174950Y140066D01*
X92898Y140030D02*
X96845Y136083D01*
X89545Y128632D02*
Y173892D01*
Y128632D02*
X93426Y124752D01*
X90124Y101589D02*
Y122786D01*
X79415Y128864D02*
Y133293D01*
X81723Y135601D02*
Y180625D01*
X86799Y126111D02*
X90124Y122786D01*
X82168Y126111D02*
X86799D01*
X79415Y128864D02*
X82168Y126111D01*
X79415Y133293D02*
X81723Y135601D01*
X188086Y140066D02*
X191912Y143891D01*
X174950Y140066D02*
X188086D01*
X182044Y143891D02*
X187242D01*
X211249Y150496D02*
X218151D01*
X190141Y150771D02*
X193040Y153670D01*
X190141Y146790D02*
Y150771D01*
X187242Y143891D02*
X190141Y146790D01*
X193040Y153670D02*
X208076D01*
X211249Y150496D01*
X230820Y65720D02*
X234950Y69850D01*
X228600Y55880D02*
X230820Y58100D01*
Y65720D01*
X210732Y55880D02*
X228600D01*
X207157Y59456D02*
X210732Y55880D01*
X207157Y59456D02*
Y61515D01*
X173203Y105340D02*
X181886Y114024D01*
X184217D01*
X180438Y96102D02*
Y102824D01*
X184605Y106991D01*
X151295Y56939D02*
X154526Y60170D01*
Y74516D01*
X163692Y83682D01*
X168019D01*
X180438Y96102D01*
X121715Y56939D02*
X151295D01*
X114743Y63911D02*
X121715Y56939D01*
X97200Y63911D02*
X114743D01*
X87119Y73992D02*
X97200Y63911D01*
X87119Y73992D02*
Y99925D01*
X91429Y74533D02*
Y100284D01*
X97382Y68580D02*
X116840D01*
X91429Y74533D02*
X97382Y68580D01*
X266700Y132080D02*
X269937Y135317D01*
X263271Y146366D02*
X269937Y139700D01*
X263271Y146366D02*
Y172754D01*
X269937Y135317D02*
Y139700D01*
X221220Y184280D02*
X251745D01*
X263271Y172754D01*
X81700Y236690D02*
X86565Y231825D01*
X88733Y211863D02*
Y226227D01*
X82550Y205680D02*
X88733Y211863D01*
X86565Y228395D02*
X88733Y226227D01*
X76200Y236690D02*
X81700D01*
X86565Y228395D02*
Y231825D01*
X186301Y93323D02*
X189336Y96358D01*
X173203Y94443D02*
Y105340D01*
X166645Y87886D02*
X173203Y94443D01*
X161546Y87886D02*
X166645D01*
X143963Y70303D02*
X161546Y87886D01*
X143963Y65607D02*
Y70303D01*
X139336Y60980D02*
X143963Y65607D01*
X124440Y60980D02*
X139336D01*
X116840Y68580D02*
X124440Y60980D01*
X90124Y101589D02*
X91429Y100284D01*
X76200Y185490D02*
X76858D01*
X81723Y180625D01*
X89545Y173892D02*
X91437Y175783D01*
X129544D01*
X85632Y101411D02*
X87119Y99925D01*
X82739Y101411D02*
X85632D01*
X81280Y102870D02*
X82739Y101411D01*
X81280Y102870D02*
Y104825D01*
X76415Y109690D02*
X81280Y104825D01*
X76200Y109690D02*
X76415D01*
X92898Y140030D02*
Y149726D01*
X131865Y161456D02*
X134191Y159131D01*
X129544Y175783D02*
X131865Y173461D01*
Y161456D02*
Y173461D01*
X92898Y149726D02*
X99382Y156210D01*
X132442D01*
X133523Y155129D02*
X170806D01*
X132442Y156210D02*
X133523Y155129D01*
X170806D02*
X182044Y143891D01*
X134191Y159131D02*
X184260D01*
X195309Y170180D01*
X214507D01*
X225030Y159558D02*
Y159657D01*
X214507Y170180D02*
X225030Y159657D01*
X255155Y109105D02*
X258989Y112939D01*
Y127209D01*
X237605Y109105D02*
X255155D01*
X227330Y119380D02*
X237605Y109105D01*
X221968Y119380D02*
X227330D01*
X194837Y164357D02*
X213685D01*
X185420Y154940D02*
X194837Y164357D01*
X185420Y149860D02*
Y154940D01*
X263293Y135362D02*
X263630Y135699D01*
X259693Y135362D02*
X263293D01*
X253460Y129129D02*
X259693Y135362D01*
X253460Y124632D02*
Y129129D01*
X249557Y120730D02*
X253460Y124632D01*
X242352Y120730D02*
X249557D01*
X226213Y136868D02*
X242352Y120730D01*
X226213Y136868D02*
Y151730D01*
X213685Y164258D02*
Y164357D01*
Y164258D02*
X226213Y151730D01*
X249750Y128323D02*
Y166370D01*
X248287Y126861D02*
X249750Y128323D01*
X248287Y126105D02*
Y126861D01*
X283210Y103215D02*
X285750Y100674D01*
X283210Y103215D02*
Y103702D01*
X285750Y81280D02*
Y100674D01*
Y81280D02*
X292710Y74320D01*
Y67394D02*
Y74320D01*
X279926Y54610D02*
X292710Y67394D01*
X272293Y54610D02*
X279926D01*
X270520Y56384D02*
X272293Y54610D01*
X270520Y56384D02*
Y61866D01*
X267970Y64415D02*
X270520Y61866D01*
X267970Y64415D02*
Y69850D01*
X234950D02*
X267970D01*
X185935Y61515D02*
X207157D01*
X184150Y63301D02*
X185935Y61515D01*
X184150Y63301D02*
Y77470D01*
X176830Y173990D02*
X229040D01*
X236660Y166370D01*
X141270Y209550D02*
X176830Y173990D01*
X185936Y177584D02*
X238536D01*
X249750Y166370D01*
X141270Y222250D02*
X185936Y177584D01*
X147320Y238300D02*
X201340Y184280D01*
X206220D01*
X151246Y165564D02*
X152980Y163830D01*
X144200D02*
X145934Y165564D01*
X140380Y172258D02*
X140444Y172194D01*
X146576Y169654D02*
X147320Y168910D01*
X135890Y183098D02*
Y196489D01*
X92710Y245300D02*
X94643Y243367D01*
X120650Y222250D02*
X128450Y214450D01*
X97901Y235502D02*
X104437Y228966D01*
X148372Y171450D02*
X149116Y170706D01*
X138430Y183188D02*
Y196489D01*
X102586Y244273D02*
X104143Y245830D01*
X122446Y224046D02*
X130247Y216245D01*
X99697Y237298D02*
X106233Y230762D01*
X262931Y135699D02*
X263630D01*
D73*
X102576Y116546D02*
X102910D01*
D74*
X306070Y147690D02*
D03*
Y111690D02*
D03*
Y236690D02*
D03*
Y199690D02*
D03*
Y91690D02*
D03*
Y179690D02*
D03*
X76200Y185490D02*
D03*
Y109690D02*
D03*
Y236690D02*
D03*
Y59690D02*
D03*
X306070Y59690D02*
D03*
D75*
X285043Y152025D02*
D03*
X111814Y188305D02*
D03*
X147896Y178507D02*
D03*
X208850Y70825D02*
D03*
X99580Y106972D02*
D03*
X104140Y151130D02*
D03*
X119000Y73695D02*
D03*
X184605Y106991D02*
D03*
X289523Y244999D02*
D03*
X130036Y226010D02*
D03*
X92710Y229870D02*
D03*
X106312Y189449D02*
D03*
X83461Y120225D02*
D03*
X97790Y74930D02*
D03*
X82241Y73314D02*
D03*
X248287Y126105D02*
D03*
X296466Y78233D02*
D03*
X152980Y163830D02*
D03*
X104143Y245830D02*
D03*
X92710Y245300D02*
D03*
X144200Y163830D02*
D03*
X190127Y66214D02*
D03*
X212435Y136616D02*
D03*
X218151Y150496D02*
D03*
X225030Y159558D02*
D03*
X201127Y66214D02*
D03*
X184150Y77470D02*
D03*
X110872Y76582D02*
D03*
X114300Y57709D02*
D03*
X102870D02*
D03*
X82420Y86082D02*
D03*
X102910Y116546D02*
D03*
X82331Y96712D02*
D03*
X206220Y232280D02*
D03*
X267970Y166370D02*
D03*
X221220Y184280D02*
D03*
X206220D02*
D03*
X249750Y166370D02*
D03*
X236660D02*
D03*
X228160D02*
D03*
X258250D02*
D03*
X291410Y167640D02*
D03*
X274320Y152020D02*
D03*
Y160020D02*
D03*
X263630Y135699D02*
D03*
X258989Y127209D02*
D03*
X282023Y103704D02*
D03*
X287600Y71120D02*
D03*
X84114Y130810D02*
D03*
X124173Y183659D02*
D03*
X116602D02*
D03*
X113847Y217418D02*
D03*
X102870Y207010D02*
D03*
X102863Y182561D02*
D03*
X82550Y205680D02*
D03*
Y224210D02*
D03*
X124157Y245629D02*
D03*
Y238058D02*
D03*
X141270Y209550D02*
D03*
Y222250D02*
D03*
X172720Y238300D02*
D03*
X147320D02*
D03*
X147196Y184454D02*
D03*
X94308Y158784D02*
D03*
Y166784D02*
D03*
X104642Y170395D02*
D03*
X115165Y171084D02*
D03*
X125172D02*
D03*
X115165Y163084D02*
D03*
X104642Y162395D02*
D03*
X125172Y163084D02*
D03*
X184570Y166370D02*
D03*
X213685Y164357D02*
D03*
X185420Y149860D02*
D03*
X195341Y138771D02*
D03*
X195390Y148590D02*
D03*
X213685Y156314D02*
D03*
X203580Y158750D02*
D03*
X203390Y148590D02*
D03*
X225766Y125730D02*
D03*
X193507Y112074D02*
D03*
X201507D02*
D03*
X194035Y96511D02*
D03*
X202035D02*
D03*
X214890Y111318D02*
D03*
Y103747D02*
D03*
X226320Y111318D02*
D03*
X240100Y115152D02*
D03*
X248100D02*
D03*
X226320Y103747D02*
D03*
X282023Y112704D02*
D03*
X273948Y110185D02*
D03*
Y101142D02*
D03*
X278104Y88932D02*
D03*
Y79889D02*
D03*
X276860Y60248D02*
D03*
X263940Y61800D02*
D03*
X246380Y85090D02*
D03*
X254662Y91436D02*
D03*
X254355Y84438D02*
D03*
X246380Y91440D02*
D03*
X243816Y59690D02*
D03*
X236244D02*
D03*
X217430Y84054D02*
D03*
Y67510D02*
D03*
X200038Y56415D02*
D03*
X169431Y68756D02*
D03*
X177431Y68506D02*
D03*
X180341Y57076D02*
D03*
X159390Y57664D02*
D03*
X148890Y65164D02*
D03*
X137160Y65850D02*
D03*
X127000D02*
D03*
X137160Y73850D02*
D03*
X127000D02*
D03*
X186301Y93323D02*
D03*
D76*
X240030Y147320D02*
D03*
X121510Y141380D02*
D03*
X132510D02*
D03*
X143510D02*
D03*
X154510D02*
D03*
X165510D02*
D03*
X121510Y130380D02*
D03*
X132510D02*
D03*
X143510D02*
D03*
X154510D02*
D03*
X165510D02*
D03*
X121510Y119380D02*
D03*
X132510D02*
D03*
X143510D02*
D03*
X154510D02*
D03*
X165510D02*
D03*
X121510Y108380D02*
D03*
X132510D02*
D03*
X143510D02*
D03*
X154510D02*
D03*
X165510D02*
D03*
X121510Y97380D02*
D03*
X132510D02*
D03*
X143510D02*
D03*
X154510D02*
D03*
X165510D02*
D03*
D77*
X300410Y167640D02*
D03*
D78*
X283265Y153804D02*
Y174045D01*
Y153804D02*
X285043Y152025D01*
X283265Y174045D02*
X287020Y177800D01*
Y223520D01*
X212435Y114427D02*
X214771Y112091D01*
X212435Y114427D02*
Y136616D01*
X214890Y111318D02*
X222756D01*
X256540Y223520D02*
X287020D01*
X110908Y94996D02*
X127000Y78905D01*
X106200Y116546D02*
X106445Y116791D01*
X103322Y116546D02*
X106200D01*
X110908Y94996D02*
Y112327D01*
X106445Y116791D02*
X110908Y112327D01*
X127000Y73850D02*
Y78905D01*
X176990Y242570D02*
X237490D01*
X172720Y238300D02*
X176990Y242570D01*
X237490D02*
X256540Y223520D01*
D79*
X273948Y122818D02*
X285043Y133913D01*
X273948Y110185D02*
Y122818D01*
X285043Y133913D02*
Y152025D01*
M02*
