M48
;Layer_Color=9474304
;FILE_FORMAT=4:4
METRIC,LZ
;TYPE=PLATED
T1F00S00C0.1499
T2F00S00C0.2000
T3F00S00C0.2000
T4F00S00C0.2540
T5F00S00C0.8000
%
T01
X0030041Y0016764
T02
X0012151Y0009738
Y0010838
Y0011938
Y0013038
Y0014138
X0013251
X0014351
X0015451
X0016551
Y0013038
X0015451
X0014351
X0013251
Y0011938
X0014351
X0015451
X0016551
Y0010838
X0015451
X0014351
X0013251
Y0009738
X0014351
X0015451
X0016551
T03
X0024003Y0014732
T04
X00082241Y00073314
X0008242Y00086082
X00082331Y00096712
X00083461Y00120225
X00084114Y0013081
X0010291Y00116546
X0009958Y00106972
X0009779Y0007493
X00110872Y00076582
X00119Y00073695
X00127Y0007385
Y0006585
X0013716
Y0007385
X0014889Y00065164
X0015939Y00057664
X00169431Y00068756
X00177431Y00068506
X00180341Y00057076
X00190127Y00066214
X00201127
X00200038Y00056415
X0020885Y00070825
X0021743Y0006751
Y00084054
X0021489Y00103747
Y00111318
X0022632
Y00103747
X00225766Y0012573
X00248287Y00126105
X002481Y00115152
X002401
X0024638Y0009144
Y0008509
X00254355Y00084438
X00254662Y00091436
X00278104Y00088932
Y00079889
X002876Y0007112
X00296466Y00078233
X0027686Y00060248
X0026394Y000618
X00243816Y0005969
X00236244
X0018415Y0007747
X00186301Y00093323
X00194035Y00096511
X00202035
X00201507Y00112074
X00193507
X00184605Y00106991
X00195341Y00138771
X0019539Y0014859
X0020339
X0020358Y0015875
X00213685Y00156314
Y00164357
X0022503Y00159558
X0022816Y0016637
X0023666
X0024975
X0025825
X0026797
X0027432Y0016002
Y0015202
X00285043Y00152025
X0029141Y0016764
X0026363Y00135699
X00258989Y00127209
X00273948Y00110185
Y00101142
X00282023Y00103704
Y00112704
X00212435Y00136616
X00218151Y00150496
X0018542Y0014986
X0018457Y0016637
X0015298Y0016383
X001442
X00147896Y00178507
X00147196Y00184454
X00124173Y00183659
X00116602
X00111814Y00188305
X00106312Y00189449
X00102863Y00182561
X00104642Y00170395
Y00162395
X00115165Y00163084
Y00171084
X00125172
Y00163084
X0010414Y0015113
X00094308Y00158784
Y00166784
X0010287Y0020701
X00113847Y00217418
X00130036Y0022601
X0014127Y0022225
Y0020955
X0014732Y002383
X00124157Y00238058
Y00245629
X00104143Y0024583
X0009271Y002453
Y0022987
X0008255Y0022421
Y0020568
X0017272Y002383
X0020622Y0023228
Y0018428
X0022122
X00289523Y00244999
X001143Y00057709
X0010287
T05
X000762Y0005969
Y0010969
Y0018549
Y0023669
X0030607
Y0019969
Y0017969
Y0014769
Y0011169
Y0009169
Y0005969
M30
