G04*
G04 #@! TF.GenerationSoftware,Altium Limited,Altium Designer,23.7.1 (13)*
G04*
G04 Layer_Color=128*
%FSLAX25Y25*%
%MOIN*%
G70*
G04*
G04 #@! TF.SameCoordinates,E44608C4-6370-4D0E-AFC6-BBC59DA78F3B*
G04*
G04*
G04 #@! TF.FilePolarity,Positive*
G04*
G01*
G75*
%ADD19R,0.01772X0.01772*%
%ADD20R,0.02559X0.02362*%
%ADD25R,0.02165X0.01968*%
%ADD26R,0.01772X0.01772*%
%ADD37R,0.02288X0.02016*%
%ADD38R,0.02016X0.02288*%
%ADD43R,0.02362X0.02559*%
%ADD49R,0.02657X0.01772*%
%ADD52R,0.02816X0.02648*%
%ADD53R,0.02756X0.02756*%
%ADD71R,0.02165X0.02165*%
%ADD78R,0.02756X0.02756*%
%ADD109R,0.02800X0.16500*%
%ADD110R,0.02800X0.12600*%
G04:AMPARAMS|DCode=201|XSize=61.02mil|YSize=23.62mil|CornerRadius=2.01mil|HoleSize=0mil|Usage=FLASHONLY|Rotation=180.000|XOffset=0mil|YOffset=0mil|HoleType=Round|Shape=RoundedRectangle|*
%AMROUNDEDRECTD201*
21,1,0.06102,0.01961,0,0,180.0*
21,1,0.05701,0.02362,0,0,180.0*
1,1,0.00402,-0.02850,0.00980*
1,1,0.00402,0.02850,0.00980*
1,1,0.00402,0.02850,-0.00980*
1,1,0.00402,-0.02850,-0.00980*
%
%ADD201ROUNDEDRECTD201*%
%ADD202R,0.02953X0.03543*%
%ADD203R,0.03543X0.02953*%
%ADD204R,0.03937X0.03543*%
%ADD205R,0.04355X0.03773*%
%ADD206R,0.02631X0.02648*%
%ADD207R,0.03543X0.03937*%
%ADD208R,0.02254X0.02237*%
%ADD209R,0.02237X0.02254*%
%ADD210R,0.01860X0.01843*%
G04:AMPARAMS|DCode=211|XSize=61.02mil|YSize=23.62mil|CornerRadius=2.01mil|HoleSize=0mil|Usage=FLASHONLY|Rotation=90.000|XOffset=0mil|YOffset=0mil|HoleType=Round|Shape=RoundedRectangle|*
%AMROUNDEDRECTD211*
21,1,0.06102,0.01961,0,0,90.0*
21,1,0.05701,0.02362,0,0,90.0*
1,1,0.00402,0.00980,0.02850*
1,1,0.00402,0.00980,-0.02850*
1,1,0.00402,-0.00980,-0.02850*
1,1,0.00402,-0.00980,0.02850*
%
%ADD211ROUNDEDRECTD211*%
%ADD212R,0.02520X0.02677*%
%ADD213R,0.01968X0.01575*%
%ADD214R,0.01575X0.01968*%
%ADD215R,0.02284X0.02126*%
%ADD216R,0.02677X0.02520*%
D19*
X151062Y-277736D02*
D03*
X154212D02*
D03*
X151062Y-273755D02*
D03*
X154212D02*
D03*
D20*
X104123Y-176772D02*
D03*
X100776D02*
D03*
X103442Y-232904D02*
D03*
X100096D02*
D03*
X100001Y-229397D02*
D03*
X103348D02*
D03*
X100489Y-225168D02*
D03*
X103836D02*
D03*
X99801Y-238583D02*
D03*
X103148D02*
D03*
X99702Y-242913D02*
D03*
X103049D02*
D03*
X99608Y-247638D02*
D03*
X102954D02*
D03*
X99801Y-251772D02*
D03*
X103148D02*
D03*
X100001Y-255921D02*
D03*
X103348D02*
D03*
X99801Y-199315D02*
D03*
X103148D02*
D03*
X99989Y-195079D02*
D03*
X103335D02*
D03*
X99989Y-190945D02*
D03*
X103335D02*
D03*
X100237Y-186221D02*
D03*
X103583D02*
D03*
X100001Y-181801D02*
D03*
X103348D02*
D03*
X100689Y-169286D02*
D03*
X104035D02*
D03*
X100395Y-173294D02*
D03*
X103741D02*
D03*
X308036Y-305243D02*
D03*
X311383D02*
D03*
X308036Y-301275D02*
D03*
X311383D02*
D03*
X308012Y-293023D02*
D03*
X311359D02*
D03*
X308036Y-297118D02*
D03*
X311383D02*
D03*
X220869Y-265626D02*
D03*
X224215D02*
D03*
X220848Y-269424D02*
D03*
X224195D02*
D03*
X220773Y-272881D02*
D03*
X224119D02*
D03*
X220869Y-276649D02*
D03*
X224215D02*
D03*
X247247Y-251059D02*
D03*
X243900D02*
D03*
X247247Y-254602D02*
D03*
X243900D02*
D03*
X220869Y-255390D02*
D03*
X224215D02*
D03*
X100489Y-120669D02*
D03*
X103836D02*
D03*
X100162Y-127234D02*
D03*
X103509D02*
D03*
X100195Y-131335D02*
D03*
X103541D02*
D03*
X100096Y-143307D02*
D03*
X103442D02*
D03*
X100001Y-138976D02*
D03*
X103348D02*
D03*
X100001Y-135352D02*
D03*
X103348D02*
D03*
X100383Y-112964D02*
D03*
X103729D02*
D03*
X103829Y-116854D02*
D03*
X100482D02*
D03*
X100682Y-56835D02*
D03*
X104028D02*
D03*
X100682Y-68744D02*
D03*
X104028D02*
D03*
X100689Y-72484D02*
D03*
X104035D02*
D03*
X100689Y-76618D02*
D03*
X104035D02*
D03*
X100682Y-80117D02*
D03*
X104028D02*
D03*
X100689Y-84075D02*
D03*
X104035D02*
D03*
Y-65177D02*
D03*
X100689D02*
D03*
X100682Y-61461D02*
D03*
X104028D02*
D03*
D25*
X115540Y-362612D02*
D03*
X118492D02*
D03*
X115318Y-358644D02*
D03*
X118271D02*
D03*
X115097Y-353919D02*
D03*
X118050D02*
D03*
X89263Y-331165D02*
D03*
X86310D02*
D03*
D26*
X374410Y-150975D02*
D03*
Y-147825D02*
D03*
X368504Y-144675D02*
D03*
Y-147825D02*
D03*
X363583Y-144675D02*
D03*
Y-147825D02*
D03*
X368307Y-155654D02*
D03*
Y-152505D02*
D03*
X221295Y-81693D02*
D03*
Y-78543D02*
D03*
X226364Y-81693D02*
D03*
Y-78543D02*
D03*
X262205Y-279342D02*
D03*
Y-282492D02*
D03*
X257330Y-279342D02*
D03*
Y-282492D02*
D03*
D37*
X134525Y-66571D02*
D03*
X131647D02*
D03*
X158147Y-67520D02*
D03*
X155269D02*
D03*
X18233Y-348924D02*
D03*
X15354D02*
D03*
X15619Y-302714D02*
D03*
X12740D02*
D03*
X146097Y-242509D02*
D03*
X143219D02*
D03*
X146341Y-237894D02*
D03*
X143463D02*
D03*
X147822Y-187205D02*
D03*
X144943D02*
D03*
X147617Y-183071D02*
D03*
X144738D02*
D03*
X244134Y-247417D02*
D03*
X247013D02*
D03*
X147033Y-124803D02*
D03*
X144155D02*
D03*
X146878Y-129134D02*
D03*
X143999D02*
D03*
X134717Y-78543D02*
D03*
X137595D02*
D03*
X161053Y-78936D02*
D03*
X158175D02*
D03*
X286414Y-304031D02*
D03*
X283536D02*
D03*
D38*
X128642Y-242369D02*
D03*
Y-245247D02*
D03*
X129368Y-229073D02*
D03*
Y-231951D02*
D03*
X134541Y-183329D02*
D03*
Y-186207D02*
D03*
X134525Y-179832D02*
D03*
Y-176953D02*
D03*
X381102Y-347266D02*
D03*
Y-344388D02*
D03*
X220420Y-379161D02*
D03*
Y-382039D02*
D03*
X216120Y-379161D02*
D03*
Y-382039D02*
D03*
X209455Y-379161D02*
D03*
Y-382039D02*
D03*
X205455Y-379161D02*
D03*
Y-382039D02*
D03*
X382480Y-130876D02*
D03*
Y-127997D02*
D03*
X387795Y-130876D02*
D03*
Y-127997D02*
D03*
X392717Y-130876D02*
D03*
Y-127997D02*
D03*
X322244Y-130876D02*
D03*
Y-127997D02*
D03*
X316492Y-130876D02*
D03*
Y-127997D02*
D03*
X129823Y-125763D02*
D03*
Y-122885D02*
D03*
X129823Y-128608D02*
D03*
Y-131486D02*
D03*
D43*
X200962Y-340434D02*
D03*
Y-337088D02*
D03*
X196012Y-328836D02*
D03*
Y-332182D02*
D03*
X199936Y-329028D02*
D03*
Y-332375D02*
D03*
X206043Y-338114D02*
D03*
Y-334768D02*
D03*
X381496Y-103061D02*
D03*
Y-99715D02*
D03*
X360433Y-158611D02*
D03*
Y-155265D02*
D03*
X355554Y-146227D02*
D03*
Y-142881D02*
D03*
X350000Y-141984D02*
D03*
Y-145330D02*
D03*
D49*
X217879Y-141302D02*
D03*
Y-137660D02*
D03*
D52*
X283091Y-299306D02*
D03*
X286859D02*
D03*
D53*
X211362Y-280425D02*
D03*
X205850D02*
D03*
D71*
X116526Y-320142D02*
D03*
X112983D02*
D03*
X224314Y-258736D02*
D03*
X220770D02*
D03*
X224314Y-248697D02*
D03*
X220770D02*
D03*
X224314Y-252043D02*
D03*
X220770D02*
D03*
X243802Y-257949D02*
D03*
X247345D02*
D03*
D78*
X206517Y-58169D02*
D03*
Y-52657D02*
D03*
X235688Y-297448D02*
D03*
Y-302960D02*
D03*
D109*
X161992Y-401427D02*
D03*
X224984D02*
D03*
X232858D02*
D03*
X260417D02*
D03*
X276165D02*
D03*
X244669D02*
D03*
X264354D02*
D03*
X248606D02*
D03*
X201362D02*
D03*
X213173D02*
D03*
X228921D02*
D03*
X177740D02*
D03*
X173803D02*
D03*
X169866D02*
D03*
X165929D02*
D03*
X189551D02*
D03*
X205299D02*
D03*
X209236D02*
D03*
X217110D02*
D03*
X221047D02*
D03*
X252543D02*
D03*
X236795D02*
D03*
X256480D02*
D03*
X268291D02*
D03*
X272228D02*
D03*
X240732D02*
D03*
X181677D02*
D03*
X185614D02*
D03*
X154118D02*
D03*
X158055D02*
D03*
X280102D02*
D03*
D110*
X150181Y-399477D02*
D03*
D201*
X268488Y-287724D02*
D03*
Y-292724D02*
D03*
Y-297724D02*
D03*
Y-302724D02*
D03*
X247228D02*
D03*
Y-297724D02*
D03*
Y-292724D02*
D03*
Y-287724D02*
D03*
X160403Y-282992D02*
D03*
Y-287992D02*
D03*
Y-292992D02*
D03*
Y-297992D02*
D03*
X139144D02*
D03*
Y-292992D02*
D03*
Y-287992D02*
D03*
Y-282992D02*
D03*
D202*
X123622Y-193307D02*
D03*
X128347D02*
D03*
X161451Y-62355D02*
D03*
X166175D02*
D03*
X136903Y-61461D02*
D03*
X132178D02*
D03*
X147492Y-247638D02*
D03*
X142768D02*
D03*
X120245Y-171919D02*
D03*
X124969D02*
D03*
X133794Y-83281D02*
D03*
X138518D02*
D03*
D203*
X124976Y-137119D02*
D03*
Y-141843D02*
D03*
X123073Y-255118D02*
D03*
Y-250394D02*
D03*
X136865Y-227035D02*
D03*
Y-231759D02*
D03*
X123204Y-230512D02*
D03*
Y-235236D02*
D03*
X151566Y-198106D02*
D03*
Y-193382D02*
D03*
X145326Y-167913D02*
D03*
Y-172638D02*
D03*
X144603Y-118898D02*
D03*
Y-114173D02*
D03*
X123622Y-113435D02*
D03*
Y-118159D02*
D03*
X149394Y-139764D02*
D03*
Y-135039D02*
D03*
X154936Y-87133D02*
D03*
Y-82409D02*
D03*
D204*
X148021Y-55512D02*
D03*
Y-60827D02*
D03*
X141732Y-55610D02*
D03*
Y-60925D02*
D03*
X144876Y-253248D02*
D03*
Y-258563D02*
D03*
X144080Y-232874D02*
D03*
Y-227559D02*
D03*
X116463Y-236122D02*
D03*
Y-230807D02*
D03*
X146095Y-193158D02*
D03*
Y-198473D02*
D03*
X143769Y-134744D02*
D03*
Y-140059D02*
D03*
X142913Y-81509D02*
D03*
Y-86824D02*
D03*
X148851Y-81791D02*
D03*
Y-87106D02*
D03*
D205*
X147997Y-66732D02*
D03*
X142673D02*
D03*
X134655Y-249303D02*
D03*
X129332D02*
D03*
X134687Y-236713D02*
D03*
X129364D02*
D03*
X140309Y-191454D02*
D03*
X134986D02*
D03*
X138818Y-172694D02*
D03*
X133494D02*
D03*
X136194Y-119150D02*
D03*
X130871D02*
D03*
X136194Y-135295D02*
D03*
X130871D02*
D03*
X142820Y-76181D02*
D03*
X148144D02*
D03*
D206*
X251091Y-236923D02*
D03*
X255045D02*
D03*
D207*
X122903Y-244478D02*
D03*
X117588D02*
D03*
X128513Y-186315D02*
D03*
X123198D02*
D03*
X146032Y-177756D02*
D03*
X151347D02*
D03*
X128347Y-178150D02*
D03*
X123032D02*
D03*
X124803Y-123892D02*
D03*
X119488D02*
D03*
X150492Y-119613D02*
D03*
X155807D02*
D03*
X123917Y-132139D02*
D03*
X118602D02*
D03*
D208*
X72244Y-312328D02*
D03*
Y-308768D02*
D03*
D209*
X126780Y-341992D02*
D03*
X123220D02*
D03*
X85381Y-282707D02*
D03*
X88941D02*
D03*
X88941Y-287706D02*
D03*
X85381D02*
D03*
X112861Y-289264D02*
D03*
X109300D02*
D03*
X85381Y-292707D02*
D03*
X88941D02*
D03*
X25779Y-285512D02*
D03*
X29339D02*
D03*
X62858Y-317681D02*
D03*
X66418D02*
D03*
X63888Y-312684D02*
D03*
X67449D02*
D03*
X62108Y-333925D02*
D03*
X65669D02*
D03*
X62196Y-323099D02*
D03*
X65756D02*
D03*
X65756Y-328248D02*
D03*
X62196D02*
D03*
D210*
X98908Y-342279D02*
D03*
Y-345445D02*
D03*
D211*
X226364Y-73130D02*
D03*
X221364D02*
D03*
X216364D02*
D03*
X211364D02*
D03*
Y-51870D02*
D03*
X216364D02*
D03*
X221364D02*
D03*
X226364D02*
D03*
D212*
X201827Y-54588D02*
D03*
Y-58053D02*
D03*
X240949Y-301936D02*
D03*
Y-298472D02*
D03*
D213*
X82798Y-350370D02*
D03*
Y-353519D02*
D03*
X91034Y-315319D02*
D03*
Y-318468D02*
D03*
X100483Y-315319D02*
D03*
Y-318468D02*
D03*
X109932Y-315319D02*
D03*
Y-318468D02*
D03*
X108357Y-345437D02*
D03*
Y-342287D02*
D03*
X103633Y-345437D02*
D03*
Y-342287D02*
D03*
X113475Y-313287D02*
D03*
Y-316437D02*
D03*
X95759Y-315319D02*
D03*
Y-318468D02*
D03*
X105127Y-315614D02*
D03*
Y-318764D02*
D03*
X76884Y-350369D02*
D03*
Y-353519D02*
D03*
X81014Y-311897D02*
D03*
Y-308747D02*
D03*
D214*
X86212Y-334315D02*
D03*
X89361D02*
D03*
X116330Y-326441D02*
D03*
X113180D02*
D03*
X85586Y-297707D02*
D03*
X88736D02*
D03*
X116330Y-334315D02*
D03*
X113180D02*
D03*
X116330Y-323291D02*
D03*
X113180D02*
D03*
X86212Y-327622D02*
D03*
X89361D02*
D03*
X86212Y-340614D02*
D03*
X89361D02*
D03*
X86212Y-323291D02*
D03*
X89361D02*
D03*
D215*
X208344Y-182117D02*
D03*
X205273D02*
D03*
D216*
X207604Y-285088D02*
D03*
X211069D02*
D03*
M02*
