M48
;Layer_Color=9474304
;FILE_FORMAT=2:5
INCH,LZ
;TYPE=PLATED
T01F00S00C0.01000
T02F00S00C0.01299
T03F00S00C0.03937
T04F00S00C0.04016
T05F00S00C0.04331
T06F00S00C0.05906
T07F00S00C0.06693
T08F00S00C0.07087
T09F00S00C0.12520
T10F00S00C0.16535
;TYPE=NON_PLATED
T11F00S00C0.03937
T12F00S00C0.04331
T13F00S00C0.06299
T14F00S00C0.06496
T15F00S00C0.11800
%
T01
X0310655Y-0341395
X0332912Y-0341881
X0338224Y-0341732
X0360482Y-0341432
X036916Y-0332006
X0369497Y-0321307
X0348295Y-0315226
X0338523Y-0315697
X0330069Y-031622
X0320276Y-0315711
X0301809Y-0314281
X03017Y-031798
X0301801Y-0321452
Y-0324859
X0302015Y-0304523
X03017Y-0301739
X0303975Y-029851
Y-0295158
X0279521Y-0298977
X0280008Y-0301744
X0280183Y-0305039
X0275762Y-0298639
X0281102Y-0315305
Y-0319499
X0280528Y-0323793
X0279736Y-0327669
X0279144Y-0332577
X0278565Y-0336441
X0249453Y-0325314
X0249606Y-0321292
X0249453Y-0317958
X0250279Y-0314382
X0250079Y-031074
X0240452Y-033246
X0233002Y-0326552
X0236716Y-0347292
X0213718Y-0363755
X0204862Y-0362861
X0203647Y-0359353
X0199213Y-0360542
X0196428Y-0361483
X0194943Y-0362968
X0192301Y-0364557
X017874Y-0363896
Y-0365997
X0180969Y-0368079
X0180698Y-0361459
X0187855Y-0374414
X0185001Y-0389254
X0181105
X0172285Y-0389897
X0165473Y-0388741
X0162141Y-0386167
X0157247Y-0383724
X0154169Y-0385305
X0171448Y-0372692
X0164966Y-0354306
X0173035Y-0330995
X0172832Y-0321047
X0173292Y-0311238
X0170196Y-0301366
X016818Y-0299057
X0167127Y-0296602
X0165267Y-0301413
X0162741Y-0301441
X0155138Y-0304548
X0196769Y-0307146
X0207802Y-0310153
X021026Y-0319234
X0200687Y-0317663
X0197616Y-0323266
X0197184Y-0336277
X0196933Y-0341178
X0180969Y-0335299
X0207974Y-0295971
X0210487Y-0297256
X0211641Y-0294586
X0214446Y-0374764
X0214068Y-0390403
X0216447Y-0390044
X0223889Y-0390071
X0227521Y-0390044
X0232782Y-0390403
X0236712Y-0390479
X0240732Y-0390403
X024475Y-0390357
X0248493Y-0390727
X0252543Y-0390403
X0256533Y-0390588
X0260416Y-0390551
X026425Y-0390634
X0268363Y-0390311
X0276165Y-038999
X0280053Y-038971
X0204447Y-038999
X0201884Y-0390017
X0153629Y-0383225
X0126464Y-0365017
X0126479Y-0345417
X0118659Y-0340836
X0119098Y-0334766
X0109932Y-0334709
Y-0330378
X0105601
Y-0334709
X010127
Y-0330378
X009694
Y-0334709
X0092609
Y-0330378
Y-0326047
X009694
Y-0321717
X0092609
X010127
Y-0326047
X0105601
Y-0321717
X0109932
Y-0326047
X0120461Y-0326319
X0123779Y-0324596
X0119358Y-0319201
X0125834Y-0313638
X013502Y-0310873
X0133957Y-0321047
X0135977Y-0327425
X0134068Y-0331045
X013461Y-0338203
X0109932Y-0339039
X0105601
X010127
X009694
X0092609
X0086024Y-0344663
X0082008Y-0345733
X0080757Y-0342693
X007823Y-0343146
X0077578Y-0345694
X0077549Y-0337753
X0077284Y-0334463
X0080435Y-0332347
X0083661Y-0332659
X00786Y-0329984
X0077549Y-0323099
X007823Y-032042
X0080313Y-0318468
X0082827Y-0316781
X0085677Y-0312888
X0086217Y-0309107
X0090242Y-031278
X0095748Y-0312812
X0100483Y-0312684
X0105127Y-0312894
X0109272Y-0313016
X0112757Y-0310786
X0114925Y-0302607
X0121641Y-0292641
X0131668Y-0290897
X0132248Y-0294633
X0134924Y-0298031
X0139144Y-0302378
X0148968Y-0303972
X00887Y-0301638
X0081233Y-029769
X0081263Y-0292671
X0069192Y-0318632
X0058132Y-03187
X0051493Y-0319201
X0048146Y-0322686
X0048158Y-0326072
X0048192Y-0330229
X0048146Y-0333925
X0042253Y-0336283
X0033995Y-0335947
X002912Y-0323277
X0026022Y-0318173
X0024936Y-0310548
X0022304Y-0302807
X0022396Y-0297832
X0033375Y-0296766
Y-0299683
X0037529Y-0317689
X0035866Y-0319748
X004073Y-0322812
X0054119Y-0328246
X0051493Y-0350168
X0052559Y-0360446
X0067464Y-0358728
X0065756Y-0356386
X0063362Y-0353178
X0063888Y-035045
X0086917Y-0351361
X0098515Y-0352871
X0098006Y-0355659
X0100211Y-0358385
X0098819Y-0348656
X0103625Y-0348161
X0109341Y-0350698
X0041428Y-0346844
X0018304Y-0353498
X0015354
X0018078Y-0338769
X0008819Y-0327767
X000941Y-0311387
X0012898Y-0306058
X00159Y-0306885
X0020196Y-0285744
X0012618Y-0281162
X0008672Y-0280734
X0029679Y-0281001
X0071236Y-0280694
X0076679Y-0281257
X007928Y-0279874
X0086974Y-0278282
X0091727Y-0277632
X0096743Y-0277891
X0116091
X0121555Y-0287494
X0131907Y-0278318
X0135977Y-0278472
X0138971Y-0278679
X0149144Y-0273755
X0144953Y-0262445
X0140551Y-0254921
X0139649Y-0242323
Y-0239485
X0140276Y-0235952
X01403Y-0226457
X0137648Y-0222643
X0144401Y-0222993
X0132936Y-0229066
X0123493Y-022694
X0116574Y-0224423
X010713Y-0224318
X010869Y-0228089
X0107721Y-0233551
X0106596Y-0237479
X0107815Y-0240712
X0107464Y-0244478
X0107721Y-0247991
X0108752Y-0253271
X010596Y-0252756
X010844Y-0256426
X0102749Y-0259353
X0122805Y-0258736
X0121721Y-0239567
X0125098Y-0239764
X0131641Y-0242509
X0152912Y-023621
X0143947Y-0205459
X0139405Y-0205758
X0140551Y-0198819
X0139649Y-0186221
Y-0183382
X0136865Y-0183263
X0137042Y-0179921
X0140276Y-017985
X0139807Y-0168747
X0149575Y-016657
X0153326Y-0181693
X0129823Y-0182219
X0127299
X0123622Y-018187
X0123329Y-0197306
X0108752Y-0197168
X010596Y-0196653
X010844Y-0200324
X0102749Y-0203251
X0107721Y-0191889
X0107464Y-0188375
X0107815Y-0184609
X0106596Y-0181377
X0107721Y-0177448
X010869Y-0171986
X010713Y-0168216
X0120849Y-0167642
X0123917Y-0145263
X010844Y-0144222
X0108752Y-0141066
X010596Y-0140551
X0107721Y-0135787
X0102749Y-0147149
X0099103Y-0147185
X009815Y-0176847
X0140551Y-0142717
X0081141Y-0287744
X0160541Y-027577
X0161091Y-0270744
X0161788Y-0268088
X0160335Y-0265672
X0160541Y-0261762
X0160702Y-0258711
X0160541Y-0255921
X0171665Y-0258809
X0170782Y-0261523
X0175151Y-0259674
X0186342Y-0266985
X0188824Y-0269595
X0193001Y-0265672
X0198319Y-0264202
X0197147Y-0258523
X0192678Y-0247882
X0179074Y-0243075
X0180957Y-0239567
X0180794Y-0236122
X0185042Y-0222924
X0189126Y-0211253
X0192434Y-0211203
X0203425Y-0211811
X0203574Y-0215901
X0203883Y-0220352
X0212871Y-0220321
X0213051Y-0227153
X0212408Y-0231564
X0218153Y-0227501
X0222814Y-0224013
X0227275Y-0220711
X0227342Y-0215511
X0223428Y-0215372
X0218635Y-0215187
X0215476Y-0215744
X0214728Y-0201711
X0223465Y-0201884
X0232382Y-0201215
X0229925Y-0192877
X0230193Y-0187956
X0231646Y-0185626
X0233131Y-0184142
X0235684Y-0185837
X0244438Y-0185034
Y-0182933
X0244426Y-0179976
X0244563Y-0187846
X0243732Y-019223
X0244236Y-0200546
X0250992Y-0205304
X0254577Y-0205045
X0266763Y-0205304
X0272118Y-0204718
X0275896Y-0198812
X0278596Y-0194887
X0275896Y-0190817
X0281324Y-019078
X0285249Y-0186017
X0284977Y-0181679
X0285799Y-0174129
X0292111Y-0176068
X029119Y-0184194
X0294757Y-0183842
X0305906Y-018279
Y-0187523
X0305189Y-0173754
X0304433Y-016198
X0305509Y-0156983
X0305768Y-0152874
X0305738Y-0148781
X0292328Y-0148291
X0292472Y-0153581
X0295031Y-0157883
X0280872Y-0161143
X0272282Y-0163338
X0268179Y-016407
X0264234Y-016442
X0257907Y-016451
X0255113Y-0164416
X0253628Y-0165901
X0254667Y-0168371
X0251509Y-0173415
X0248428Y-0174551
X0249224Y-0171205
X025037Y-0176823
X0262265Y-0177032
X0267791Y-0174642
X0277803Y-0176659
X0266433Y-0187956
X0266599Y-0191374
X0266519Y-0194331
X025422Y-0187846
X023579Y-0174461
X0235758Y-0168375
X0232175Y-0168304
X022955Y-0168588
X0226605Y-0168517
X0223589Y-0168588
X0220183Y-0168375
X0216919
X0218123Y-0170611
X0214886Y-017051
X0211515
X0208315Y-0170465
X0210072Y-0168446
X0213478Y-016834
X0214385Y-0162353
X0217689Y-0162269
X0220797Y-0162385
X0224161Y-0162242
X0227084Y-0162353
X0230101Y-0162385
X0231479Y-0159997
X0233891Y-0160204
X02361Y-0160081
X0235684Y-0162198
X0233631Y-0157401
X0236296Y-0155659
X0235801Y-0151184
X0235865Y-0148439
X0232383Y-014838
X0232888Y-0151387
X0229511Y-0151809
X0229334Y-0154513
X0226189Y-0155002
X0225811Y-0152123
X0222253Y-0152028
X0222801Y-0155073
X0219614Y-015511
X0216702
X0213332Y-0155029
X0211684Y-015258
X0215416Y-0152146
X0218716
X0219713Y-0148781
X0215832Y-0149175
X0211892Y-0148365
X0208957Y-0150042
X0208759Y-0146562
X0205736Y-014702
X0205984Y-0143415
X0213504Y-0143055
X0220485Y-0143142
X0224365Y-014312
X0228701Y-0143012
X0231934Y-0143027
X023579Y-014312
X0232524Y-0135295
X0243244Y-0134396
X0248324Y-0138254
X0247536Y-0141117
X0249021Y-0142602
X025157Y-0141404
X025495Y-0143657
X0267971Y-0143918
X026899Y-0151809
X0266333Y-0152757
X0259219
X0258875Y-0155328
X0275957Y-0141507
X0280872Y-0140975
X0284313Y-0134643
X0287354
X029426Y-013522
X0287377Y-0144554
X0287808Y-0201418
X0303411Y-0238057
X0303257Y-0243605
X0302897Y-0252043
X0277252Y-0255395
X026464Y-0250783
X0268055Y-0246625
X0267949Y-0240467
X0263935Y-0240326
X0260888Y-0242282
X0257011Y-0240687
X0257694Y-0245298
X0252531Y-0247061
X0252361Y-0243408
X0248156Y-0242869
X0244179Y-0243585
X0239803Y-0241739
X0235722Y-0241746
X0228535Y-0242957
X0224183Y-0243326
X0225238Y-0234482
X0228824
X0232048
X0241909Y-0235863
X0245573Y-0236381
X0264835Y-0233872
X0253345Y-0253126
X0253312Y-025622
X0251916Y-0259427
X0250807Y-0266332
X0251213Y-0270605
X0250956Y-0273252
X0254667Y-0265319
X0262727Y-0270605
X0248955Y-0283242
X0246132Y-028387
X0241909Y-0284173
X0227403Y-0283729
X0222586Y-0283834
X0223065Y-0287193
X0215585Y-0275862
X0215528Y-0273303
X0215692Y-0269854
X0215872Y-0266756
X021639Y-0253499
X0212422Y-0249783
X0215585Y-024592
X0205793Y-0276601
X0202663Y-0281606
X0199936Y-028232
Y-0285492
X019457Y-0273535
X0153868Y-0246429
X0169672Y-0215022
X0170196Y-0212073
Y-0209973
X0172573Y-0207562
X0164013Y-0207171
X0165953Y-0204843
Y-0202743
X016391Y-0200672
X0166229Y-0189051
X016972Y-0185934
X0172297Y-0185305
X0172832Y-0179212
X0172699Y-0176447
Y-0174347
X0172876Y-017158
X0178399Y-0170808
X018061Y-0167537
X0183493Y-0167584
X0176853Y-0162026
X0176324Y-0148034
X017963Y-0147964
X0177961Y-0141499
X0175528Y-0142717
X0166862Y-0143219
X0167627Y-015239
X0170465Y-0153135
X0197053Y-0160376
X0205631Y-0161056
X020568Y-0158249
X0205414Y-0154943
X0207859Y-0156682
X0208167Y-0160039
X0210291Y-0158738
X0210557Y-0162009
X0212889Y-0160128
X0215832Y-0160157
X0219089
X0222407Y-0160311
X0225538Y-0160204
X0228332Y-0160358
X0228396Y-0148258
X022452Y-0148781
X0217894Y-0134923
X0198266Y-0137783
X0205992Y-0168659
X0204882Y-0171133
X0221853Y-0170733
X0225255
X0221295Y-0185541
X0223836Y-0189622
X0215736Y-0189697
X0213671Y-0182219
X020423Y-0189832
X020418Y-0194379
X0203736Y-0198615
X0189372Y-0198106
X0185487Y-0200852
X0189872Y-0186379
X019518Y-0186084
X0165703Y-0182935
X0153868Y-0190326
X0242675Y-0213254
X0242378Y-0217564
X0235801Y-0220946
X0302908Y-028556
X0321654Y-0290433
X0319685Y-0252543
X0325469Y-0252781
X0313779Y-0237818
X0329764Y-0224885
X035763Y-0224656
X0348844Y-0174648
X0339721Y-0158772
X035028Y-0149867
X0355414Y-0150559
X0355554Y-0138875
X0351378Y-0138038
X034685Y-0136217
X0343307Y-0137152
X0359252Y-0140543
X0362511
X0365354Y-0138038
X0368965Y-0137396
X037441Y-0135603
X0376905Y-0138622
X0381499Y-0138906
X0384842Y-0135603
X0387623Y-0135776
X0390748Y-013522
X0395928Y-0135441
X0321418Y-013522
X0317323Y-0135295
X0309981Y-017896
X0313429Y-0184142
X0312395Y-0093633
X031233Y-0086432
Y-0083104
X0317595
X0317545Y-0086075
X0315158Y-0088595
X0319507Y-0093416
X0322382
X0326618Y-0093602
X0342696Y-0094189
X0347798Y-0093664
X0351756Y-0092582
X0354631Y-0094282
X0360259Y-0093973
X0366535Y-0093787
X0372534Y-0093571
X0381299Y-009296
X0385798Y-0093571
X038954Y-0093354
X0394783Y-0093948
X0308577Y-0107471
X0305906Y-0105642
X0296212Y-0108091
X0292985Y-0105891
X0293223Y-0101737
X0278647Y-009909
X0276348Y-00964
X0261609Y-0098451
X0260741Y-0101704
X0254042Y-0097345
X0250745
X0243328Y-0096334
X024036Y-0097427
X0233519Y-0100685
X0237143Y-0105164
X0239747Y-0114865
X0234071Y-0115122
X0233501Y-0127328
X0239605Y-0127185
X0238221Y-0133764
X0235612Y-0134221
X0245457Y-0132838
X0256699Y-0131175
X0261853Y-0130857
X0261105Y-0123366
X0265725Y-0120082
X0270803Y-0120461
X0270729Y-0124796
X0266519Y-0126117
X0275944Y-0130351
X0283897Y-0129209
X0291514Y-0133095
X029207Y-0121944
X0295703Y-0122882
X0293692Y-0118791
X0305906Y-0117861
Y-0122202
X0274896Y-0113835
X0258517Y-0115084
X0250745Y-0109146
X025242Y-0080512
X0248838
X0245783Y-008048
X0242732Y-0080512
X0239498
X02361
X0226224Y-0084478
X0221317Y-008414
X0217849Y-0095804
X0213263Y-0097504
X0212586Y-0100766
X0216007Y-0100807
X0215628Y-0114244
X0221295Y-0114808
X022138Y-0127385
X0215242Y-0127165
X0216503Y-0130725
X0212251Y-0130288
X0193846Y-013226
X0189232Y-012688
X0185761Y-0123038
X0185319Y-0118755
X0184998Y-0112855
X0181374Y-0103811
X0188709Y-0100857
X0191967Y-010049
X0202093Y-0101863
X020161Y-0098451
X0204531Y-0092163
X0205089Y-0076543
X0208657Y-0077091
X0201448
X0198144Y-0077264
X019135Y-0074524
X0179424Y-0065644
X0181374Y-0088225
X0172573Y-010136
X0168649Y-0103228
X0166818Y-0100807
X0164718
X0162262Y-0099154
X0160827Y-0091088
X0153752Y-007722
X0160433Y-0057382
X0201827Y-004852
X0204018Y-0045472
X0203365Y-0041463
X0199614
X0199491Y-0045075
X0233005Y-004
X0231328Y-0058637
X0256476Y-0080512
X0284966Y-005065
X0288165
X0291269
Y-0046768
Y-0043441
X0197692Y-011882
X0198144Y-0123317
X0178966Y-0130955
X0176491Y-0130047
X0173367Y-0132338
X017062Y-0132139
X0163936Y-0125147
X0153868Y-0134224
X0139649Y-0130118
Y-012728
X0140276Y-0123747
X0133499Y-0125763
X0133382Y-0128674
X0125098Y-0127953
X012208Y-0127835
X0107815Y-0128507
X0107464Y-0132273
X0106596Y-0125274
X0107721Y-0121346
X010869Y-0115884
X010713Y-0112113
X0108747Y-0107029
X010846Y-0089353
X0107957Y-0086199
X0107993Y-0082823
X0107886Y-0079594
X0107922Y-0075971
X0107455Y-0072527
X0107706Y-0069118
X0107886Y-0065746
X0107993Y-0058822
X0108282Y-0052913
X0100787Y-0052362
X0122903Y-005561
X0125394Y-0062093
X0128815Y-0061713
X0126575Y-0068619
X0130871Y-0069595
X0138189Y-007028
X0137874Y-0066622
X0138189Y-007565
X0131647Y-0078781
X0130377Y-0083465
X0124976Y-0082894
X0125394Y-0077658
X0139097Y-0087324
X0142717Y-0091024
X0148721Y-0091088
X0136451Y-0094445
X0135543Y-011438
X01403Y-0114252
X0137682Y-005733
X0141203Y-005187
X0151166Y-0052126
X0103851Y-008873
X0017223Y-0030892
X0017967Y-0024387
X-0001595Y-0032579
X-0018935Y-0020898
X-0023322Y-0000033
X-0017896Y0010514
T02
X0177899Y-0287494
X0182623
Y-028277
X0177899
T03
X0117323Y-0269567
X0137008
X014685Y-0157362
X010748
X006811
X002874
X0117323Y-010126
X0137008
T04
X0388189Y-0351496
Y-0341496
Y-0331496
Y-0321496
T05
X0187855Y-0341319
Y-0331319
Y-0321319
Y-0311319
X014685Y-0213465
X010748
X006811
Y-0200984
Y-0179724
Y-0144882
X0009055Y-0135039
Y-0191142
X002874Y-0213465
X0009055Y-0247244
Y-0269567
X0048425
X006811Y-0257087
Y-0235827
X0087795Y-0269567
X006811Y-0123622
Y-0088779
Y-006752
Y-0045158
X002874
X0009055Y-0078937
Y-010126
X0048425
X0087795
X010748Y-0045158
X014685
T06
X-0008661Y-0345118
Y-0299843
T07
X0001339Y-0355118
Y-0335118
Y-0309842
X-0018661
Y-0335118
Y-0355118
Y-0289843
X0001339
T08
X0316883Y-0065354
Y-0048854
X0338583
Y-0065354
T09
X-0Y-0378395
Y0
T10
X0354331Y-0279633
T11
X0098819Y-0269567
Y-0213465
X0155118Y-0222638
Y-0241535
Y-0185433
Y-0166535
Y-0129331
Y-0110433
Y-0073228
Y-0054331
X0098819Y-0045158
Y-010126
T12
X0314961Y-012048
T13
X0130709Y-0166535
X0393701Y-012048
T14
X0130709Y-0260433
Y-0222638
Y-0204331
Y-0148228
Y-0110433
Y-0092126
Y-0054331
T15
X0367283Y-0057104
M30
