G04*
G04 #@! TF.GenerationSoftware,Altium Limited,Altium Designer,24.4.1 (13)*
G04*
G04 Layer_Color=39423*
%FSLAX44Y44*%
%MOMM*%
G71*
G04*
G04 #@! TF.SameCoordinates,633DC115-074B-46AC-84AE-F624448C349B*
G04*
G04*
G04 #@! TF.FilePolarity,Positive*
G04*
G01*
G75*
%ADD41C,0.2540*%
%ADD46C,0.1000*%
%ADD47C,0.3810*%
%ADD48C,0.0254*%
G36*
X752373Y185952D02*
X752539Y185936D01*
X752739Y185919D01*
X752972Y185886D01*
X753222Y185836D01*
X753506Y185769D01*
X753805Y185669D01*
X754122Y185569D01*
X754455Y185436D01*
X754789Y185269D01*
X755122Y185086D01*
X755455Y184869D01*
X755788Y184603D01*
X756105Y184319D01*
X756122Y184303D01*
X756172Y184253D01*
X756255Y184153D01*
X756355Y184036D01*
X756488Y183870D01*
X756621Y183686D01*
X756771Y183470D01*
X756921Y183220D01*
X757071Y182953D01*
X757221Y182653D01*
X757355Y182320D01*
X757488Y181987D01*
X757588Y181620D01*
X757671Y181220D01*
X757721Y180820D01*
X757738Y180404D01*
Y175655D01*
X757721Y175572D01*
X757704Y175488D01*
X757671Y175372D01*
X757638Y175255D01*
X757571Y175138D01*
X757488Y175039D01*
X757471Y175022D01*
X757438Y175005D01*
X757371Y174972D01*
X757288Y174922D01*
X757188Y174872D01*
X757071Y174839D01*
X756938Y174822D01*
X756805Y174805D01*
X756788D01*
X756771D01*
X756721Y174822D01*
X756655Y174839D01*
X756572Y174855D01*
X756488Y174905D01*
X756372Y174955D01*
X756238Y175022D01*
X756222Y175039D01*
X756188Y175072D01*
X756122Y175122D01*
X756055Y175205D01*
X755988Y175288D01*
X755922Y175422D01*
X755888Y175555D01*
X755872Y175722D01*
Y180537D01*
X755855Y180654D01*
X755838Y180787D01*
X755822Y180937D01*
X755788Y181104D01*
X755738Y181304D01*
X755605Y181703D01*
X755522Y181937D01*
X755422Y182153D01*
X755305Y182370D01*
X755155Y182603D01*
X754988Y182820D01*
X754805Y183020D01*
X754789Y183036D01*
X754755Y183070D01*
X754689Y183120D01*
X754605Y183186D01*
X754505Y183270D01*
X754372Y183370D01*
X754239Y183453D01*
X754072Y183570D01*
X753889Y183670D01*
X753689Y183753D01*
X753222Y183936D01*
X752989Y184003D01*
X752722Y184053D01*
X752439Y184086D01*
X752156Y184103D01*
X748440D01*
X748423D01*
X748374D01*
X748290D01*
X748174Y184086D01*
X748040Y184069D01*
X747890Y184053D01*
X747724Y184020D01*
X747524Y183969D01*
X747124Y183836D01*
X746891Y183753D01*
X746674Y183653D01*
X746457Y183520D01*
X746224Y183370D01*
X746008Y183203D01*
X745808Y183020D01*
X745791Y183003D01*
X745758Y182970D01*
X745708Y182903D01*
X745641Y182820D01*
X745558Y182720D01*
X745458Y182603D01*
X745374Y182453D01*
X745258Y182287D01*
X745158Y182103D01*
X745074Y181903D01*
X744891Y181453D01*
X744825Y181204D01*
X744774Y180954D01*
X744741Y180670D01*
X744725Y180387D01*
Y175688D01*
X744708Y175572D01*
X744675Y175438D01*
X744608Y175272D01*
X744508Y175089D01*
X744341Y174955D01*
X744225Y174888D01*
X744108Y174839D01*
X743975Y174822D01*
X743808Y174805D01*
X732611D01*
X732594D01*
X732578D01*
X732461Y174822D01*
X732311Y174855D01*
X732144Y174922D01*
X731978Y175022D01*
X731828Y175188D01*
X731761Y175305D01*
X731711Y175422D01*
X731694Y175555D01*
X731678Y175722D01*
Y185086D01*
X731694Y185153D01*
X731711Y185236D01*
X731745Y185336D01*
X731811Y185452D01*
X731878Y185553D01*
X731978Y185669D01*
X731994Y185686D01*
X732028Y185719D01*
X732094Y185769D01*
X732161Y185819D01*
X732378Y185919D01*
X732494Y185952D01*
X732611Y185969D01*
X732628D01*
X732678D01*
X732744Y185952D01*
X732828Y185936D01*
X732927Y185902D01*
X733027Y185869D01*
X733144Y185802D01*
X733261Y185719D01*
X733277Y185702D01*
X733311Y185669D01*
X733344Y185619D01*
X733394Y185536D01*
X733461Y185436D01*
X733494Y185319D01*
X733527Y185186D01*
X733544Y185036D01*
Y176671D01*
X742858D01*
Y180504D01*
X742875Y180620D01*
X742892Y180787D01*
X742908Y180987D01*
X742942Y181220D01*
X742992Y181470D01*
X743058Y181753D01*
X743158Y182053D01*
X743258Y182370D01*
X743391Y182687D01*
X743558Y183020D01*
X743741Y183353D01*
X743958Y183686D01*
X744225Y184003D01*
X744508Y184319D01*
X744525Y184336D01*
X744575Y184386D01*
X744675Y184469D01*
X744791Y184586D01*
X744958Y184703D01*
X745141Y184836D01*
X745358Y184986D01*
X745608Y185153D01*
X745891Y185303D01*
X746191Y185452D01*
X746507Y185586D01*
X746857Y185719D01*
X747224Y185819D01*
X747607Y185902D01*
X748024Y185952D01*
X748440Y185969D01*
X752156D01*
X752189D01*
X752256D01*
X752373Y185952D01*
D02*
G37*
G36*
X732828Y171056D02*
X757021Y165458D01*
X757055Y165441D01*
X757088Y165424D01*
X757138Y165408D01*
X757205Y165358D01*
X757305Y165308D01*
X757421Y165224D01*
X757554Y165124D01*
X757738Y164558D01*
Y164508D01*
X757721Y164441D01*
X757704Y164358D01*
X757638Y164141D01*
X757588Y164008D01*
X757521Y163891D01*
X757505Y163875D01*
X757471Y163841D01*
X757421Y163791D01*
X757355Y163741D01*
X757255Y163691D01*
X757138Y163641D01*
X757005Y163608D01*
X756855Y163591D01*
X756605Y163641D01*
X733544Y168973D01*
Y159909D01*
X735394D01*
X735410D01*
X735460D01*
X735544Y159892D01*
X735643Y159876D01*
X735760Y159842D01*
X735877Y159792D01*
X735993Y159726D01*
X736093Y159642D01*
X736110Y159626D01*
X736127Y159592D01*
X736160Y159543D01*
X736193Y159459D01*
X736243Y159359D01*
X736277Y159242D01*
X736293Y159126D01*
X736310Y158976D01*
Y158943D01*
X736293Y158893D01*
X736277Y158826D01*
X736260Y158726D01*
X736210Y158626D01*
X736160Y158476D01*
X736093Y158309D01*
X736077Y158293D01*
X736043Y158276D01*
X735993Y158226D01*
X735927Y158176D01*
X735827Y158126D01*
X735710Y158093D01*
X735560Y158060D01*
X735394Y158043D01*
X732611D01*
X732594D01*
X732578D01*
X732461Y158060D01*
X732311Y158093D01*
X732144Y158160D01*
X731978Y158259D01*
X731828Y158426D01*
X731761Y158543D01*
X731711Y158659D01*
X731694Y158793D01*
X731678Y158959D01*
Y170223D01*
X731694Y170306D01*
X731711Y170390D01*
X731778Y170606D01*
X731828Y170723D01*
X731911Y170823D01*
X731928Y170840D01*
X731961Y170873D01*
X732011Y170906D01*
X732078Y170956D01*
X732161Y171006D01*
X732278Y171056D01*
X732394Y171073D01*
X732544Y171089D01*
X732828Y171056D01*
D02*
G37*
G36*
X757238Y154277D02*
X760920Y153344D01*
X761054Y153277D01*
X761170Y153211D01*
X761270Y153144D01*
X761337Y153077D01*
X761404Y153027D01*
X761437Y152978D01*
X761453Y152961D01*
X761470Y152944D01*
X761537Y152861D01*
X761570Y152778D01*
X761637Y152611D01*
Y152544D01*
X761654Y152494D01*
Y152444D01*
X761637Y152294D01*
X761603Y152178D01*
X761570Y152061D01*
X761504Y151961D01*
X761453Y151878D01*
X761420Y151811D01*
X761387Y151778D01*
X761370Y151761D01*
X761254Y151661D01*
X761154Y151594D01*
X761054Y151545D01*
X760954Y151511D01*
X760870Y151495D01*
X760804Y151478D01*
X760770D01*
X760754D01*
X760471Y151511D01*
X756788Y152444D01*
X756655Y152494D01*
X756555Y152544D01*
X756455Y152611D01*
X756372Y152661D01*
X756321Y152711D01*
X756272Y152761D01*
X756238Y152778D01*
Y152794D01*
X756172Y152878D01*
X756138Y152978D01*
X756072Y153161D01*
Y153227D01*
X756055Y153294D01*
Y153344D01*
X756072Y153477D01*
X756088Y153611D01*
X756138Y153711D01*
X756188Y153811D01*
X756238Y153894D01*
X756272Y153961D01*
X756305Y153994D01*
X756321Y154010D01*
X756422Y154110D01*
X756522Y154177D01*
X756638Y154244D01*
X756738Y154277D01*
X756821Y154294D01*
X756888Y154311D01*
X756938D01*
X756955D01*
X757238Y154277D01*
D02*
G37*
G36*
X756971Y148745D02*
X757071Y148729D01*
X757188Y148695D01*
X757305Y148645D01*
X757421Y148579D01*
X757521Y148495D01*
X757538Y148479D01*
X757554Y148445D01*
X757588Y148395D01*
X757621Y148312D01*
X757671Y148212D01*
X757704Y148095D01*
X757721Y147979D01*
X757738Y147829D01*
Y147795D01*
X757721Y147746D01*
X757704Y147679D01*
X757688Y147579D01*
X757638Y147479D01*
X757588Y147329D01*
X757521Y147162D01*
X757505Y147146D01*
X757471Y147129D01*
X757421Y147079D01*
X757355Y147029D01*
X757255Y146979D01*
X757138Y146946D01*
X756988Y146912D01*
X756821Y146896D01*
X734844D01*
X738859Y142897D01*
X738876Y142880D01*
X738893Y142847D01*
X738943Y142797D01*
X738993Y142713D01*
X739043Y142630D01*
X739076Y142514D01*
X739109Y142397D01*
X739126Y142263D01*
Y142197D01*
X739109Y142130D01*
X739093Y142030D01*
X739059Y141930D01*
X739009Y141814D01*
X738943Y141714D01*
X738859Y141597D01*
X738843Y141580D01*
X738809Y141564D01*
X738743Y141514D01*
X738659Y141464D01*
X738559Y141414D01*
X738443Y141380D01*
X738326Y141347D01*
X738176Y141330D01*
X738143D01*
X738110Y141347D01*
X738043Y141364D01*
X737960Y141397D01*
X737843Y141447D01*
X737710Y141514D01*
X737543Y141597D01*
X731944Y147162D01*
X731928Y147179D01*
X731894Y147212D01*
X731861Y147262D01*
X731811Y147346D01*
X731761Y147446D01*
X731711Y147545D01*
X731694Y147679D01*
X731678Y147812D01*
Y147879D01*
X731694Y147945D01*
X731711Y148029D01*
X731745Y148129D01*
X731778Y148245D01*
X731844Y148345D01*
X731928Y148462D01*
X731944Y148479D01*
X731978Y148512D01*
X732028Y148562D01*
X732111Y148612D01*
X732194Y148662D01*
X732311Y148712D01*
X732444Y148745D01*
X732594Y148762D01*
X756821D01*
X756838D01*
X756888D01*
X756971Y148745D01*
D02*
G37*
G36*
X752389Y137548D02*
X752539D01*
X752739Y137515D01*
X752972Y137481D01*
X753239Y137431D01*
X753522Y137365D01*
X753822Y137282D01*
X754155Y137165D01*
X754472Y137032D01*
X754805Y136882D01*
X755155Y136682D01*
X755488Y136465D01*
X755805Y136215D01*
X756122Y135932D01*
X756138Y135915D01*
X756188Y135865D01*
X756272Y135765D01*
X756372Y135649D01*
X756488Y135482D01*
X756638Y135299D01*
X756771Y135082D01*
X756921Y134832D01*
X757088Y134549D01*
X757221Y134249D01*
X757355Y133932D01*
X757488Y133582D01*
X757588Y133216D01*
X757671Y132816D01*
X757721Y132416D01*
X757738Y131983D01*
Y127251D01*
X757721Y127167D01*
X757704Y127084D01*
X757671Y126967D01*
X757638Y126851D01*
X757571Y126734D01*
X757488Y126634D01*
X757471Y126618D01*
X757438Y126601D01*
X757371Y126568D01*
X757288Y126518D01*
X757188Y126468D01*
X757071Y126434D01*
X756938Y126418D01*
X756805Y126401D01*
X756788D01*
X756771D01*
X756721Y126418D01*
X756655Y126434D01*
X756572Y126451D01*
X756488Y126501D01*
X756372Y126551D01*
X756238Y126618D01*
X756222Y126634D01*
X756188Y126667D01*
X756122Y126718D01*
X756055Y126801D01*
X755988Y126884D01*
X755922Y127017D01*
X755888Y127151D01*
X755872Y127317D01*
Y132116D01*
X755855Y132233D01*
X755838Y132366D01*
X755822Y132516D01*
X755788Y132699D01*
X755738Y132883D01*
X755605Y133299D01*
X755522Y133516D01*
X755422Y133749D01*
X755305Y133966D01*
X755155Y134199D01*
X754988Y134416D01*
X754805Y134615D01*
X754789Y134632D01*
X754755Y134665D01*
X754689Y134715D01*
X754605Y134782D01*
X754505Y134865D01*
X754372Y134965D01*
X754239Y135049D01*
X754072Y135165D01*
X753889Y135265D01*
X753689Y135349D01*
X753222Y135532D01*
X752989Y135599D01*
X752722Y135649D01*
X752439Y135682D01*
X752156Y135699D01*
X748440D01*
X748423D01*
X748374D01*
X748290D01*
X748174Y135682D01*
X748040Y135665D01*
X747890Y135649D01*
X747724Y135615D01*
X747524Y135565D01*
X747124Y135432D01*
X746891Y135349D01*
X746674Y135249D01*
X746457Y135115D01*
X746224Y134965D01*
X746008Y134799D01*
X745808Y134615D01*
X745791Y134599D01*
X745758Y134565D01*
X745708Y134499D01*
X745641Y134432D01*
X745558Y134316D01*
X745458Y134199D01*
X745358Y134049D01*
X745258Y133882D01*
X745158Y133699D01*
X745058Y133499D01*
X744958Y133282D01*
X744874Y133049D01*
X744808Y132799D01*
X744758Y132533D01*
X744725Y132249D01*
X744708Y131966D01*
Y130966D01*
X744691Y130883D01*
X744675Y130800D01*
X744641Y130683D01*
X744608Y130567D01*
X744541Y130450D01*
X744458Y130350D01*
X744441Y130333D01*
X744408Y130317D01*
X744341Y130283D01*
X744258Y130233D01*
X744158Y130183D01*
X744041Y130150D01*
X743908Y130133D01*
X743775Y130117D01*
X743758D01*
X743741D01*
X743691Y130133D01*
X743625Y130150D01*
X743541Y130167D01*
X743458Y130217D01*
X743342Y130267D01*
X743208Y130333D01*
X743192Y130350D01*
X743158Y130383D01*
X743092Y130433D01*
X743025Y130517D01*
X742958Y130600D01*
X742892Y130733D01*
X742858Y130866D01*
X742842Y131033D01*
Y131183D01*
X742825Y131300D01*
X742808Y131433D01*
X742792Y131583D01*
X742758Y131766D01*
X742708Y131950D01*
X742575Y132366D01*
X742492Y132583D01*
X742392Y132816D01*
X742275Y133033D01*
X742125Y133266D01*
X741958Y133483D01*
X741775Y133682D01*
X741759Y133699D01*
X741725Y133732D01*
X741659Y133782D01*
X741575Y133849D01*
X741475Y133932D01*
X741342Y134032D01*
X741209Y134116D01*
X741042Y134232D01*
X740859Y134332D01*
X740659Y134416D01*
X740192Y134599D01*
X739959Y134665D01*
X739693Y134715D01*
X739409Y134749D01*
X739126Y134766D01*
X737276D01*
X737260D01*
X737210D01*
X737126D01*
X737010Y134749D01*
X736877Y134732D01*
X736727Y134715D01*
X736560Y134682D01*
X736360Y134632D01*
X735960Y134499D01*
X735727Y134416D01*
X735510Y134316D01*
X735294Y134182D01*
X735060Y134032D01*
X734844Y133866D01*
X734644Y133682D01*
X734627Y133666D01*
X734594Y133632D01*
X734544Y133566D01*
X734477Y133499D01*
X734394Y133383D01*
X734294Y133266D01*
X734194Y133116D01*
X734094Y132949D01*
X733994Y132766D01*
X733894Y132566D01*
X733794Y132349D01*
X733711Y132116D01*
X733644Y131866D01*
X733594Y131600D01*
X733561Y131316D01*
X733544Y131033D01*
Y127251D01*
X733527Y127167D01*
X733511Y127084D01*
X733477Y126967D01*
X733444Y126851D01*
X733377Y126734D01*
X733294Y126634D01*
X733277Y126618D01*
X733244Y126601D01*
X733177Y126568D01*
X733094Y126518D01*
X732994Y126468D01*
X732878Y126434D01*
X732744Y126418D01*
X732611Y126401D01*
X732594D01*
X732578D01*
X732528Y126418D01*
X732461Y126434D01*
X732378Y126451D01*
X732294Y126501D01*
X732178Y126551D01*
X732044Y126618D01*
X732028Y126634D01*
X731994Y126667D01*
X731928Y126718D01*
X731861Y126801D01*
X731795Y126884D01*
X731728Y127017D01*
X731694Y127151D01*
X731678Y127317D01*
Y131133D01*
X731694Y131266D01*
Y131433D01*
X731728Y131633D01*
X731761Y131866D01*
X731811Y132133D01*
X731878Y132416D01*
X731961Y132716D01*
X732078Y133033D01*
X732211Y133366D01*
X732361Y133699D01*
X732561Y134032D01*
X732778Y134366D01*
X733027Y134682D01*
X733311Y134999D01*
X733327Y135015D01*
X733377Y135065D01*
X733477Y135149D01*
X733594Y135249D01*
X733761Y135382D01*
X733944Y135515D01*
X734161Y135665D01*
X734410Y135815D01*
X734694Y135965D01*
X734994Y136115D01*
X735310Y136248D01*
X735660Y136382D01*
X736043Y136482D01*
X736427Y136565D01*
X736843Y136615D01*
X737276Y136632D01*
X739126D01*
X739742D01*
X740109D01*
X740492Y136515D01*
X740509D01*
X740576Y136498D01*
X740676Y136482D01*
X740809Y136448D01*
X740975Y136382D01*
X741142Y136315D01*
X741342Y136232D01*
X741542Y136115D01*
X741559D01*
X741592Y136098D01*
X741642Y136065D01*
X741709Y136015D01*
X741809Y135965D01*
X741908Y135899D01*
X742159Y135732D01*
X742458Y135515D01*
X742792Y135249D01*
X743142Y134932D01*
X743492Y134565D01*
Y134582D01*
X743525Y134615D01*
X743558Y134682D01*
X743608Y134782D01*
X743675Y134882D01*
X743758Y135015D01*
X743958Y135315D01*
X744091Y135465D01*
X744241Y135649D01*
X744408Y135815D01*
X744591Y135998D01*
X744791Y136182D01*
X745008Y136365D01*
X745241Y136532D01*
X745491Y136698D01*
X745508Y136715D01*
X745558Y136732D01*
X745624Y136782D01*
X745724Y136832D01*
X745857Y136898D01*
X746008Y136965D01*
X746191Y137048D01*
X746374Y137132D01*
X746591Y137215D01*
X746824Y137298D01*
X747324Y137431D01*
X747857Y137531D01*
X748140Y137548D01*
X748440Y137565D01*
X752156D01*
X752189D01*
X752256D01*
X752389Y137548D01*
D02*
G37*
G36*
X358655Y394297D02*
X358805D01*
X359005Y394264D01*
X359238Y394230D01*
X359505Y394180D01*
X359788Y394114D01*
X360088Y394031D01*
X360421Y393914D01*
X360755Y393781D01*
X361088Y393631D01*
X361421Y393431D01*
X361771Y393214D01*
X362104Y392964D01*
X362421Y392681D01*
X362438Y392664D01*
X362454Y392648D01*
X362504Y392598D01*
X362554Y392548D01*
X362704Y392381D01*
X362887Y392164D01*
X363087Y391898D01*
X363287Y391598D01*
X363487Y391265D01*
X363654Y390898D01*
X363937Y389915D01*
X364037Y389315D01*
Y388732D01*
Y386849D01*
Y386832D01*
Y386782D01*
Y386716D01*
Y386616D01*
X364021Y386499D01*
X364004Y386366D01*
X363987Y386199D01*
X363970Y386033D01*
X363904Y385666D01*
X363820Y385249D01*
X363687Y384833D01*
X363521Y384433D01*
Y384416D01*
X363504Y384383D01*
X363471Y384333D01*
X363421Y384250D01*
X363371Y384166D01*
X363304Y384050D01*
X363137Y383800D01*
X362921Y383500D01*
X362654Y383183D01*
X362338Y382833D01*
X361971Y382500D01*
X361988D01*
X362021Y382467D01*
X362088Y382434D01*
X362188Y382384D01*
X362288Y382317D01*
X362421Y382234D01*
X362721Y382017D01*
X363054Y381734D01*
X363221Y381584D01*
X363404Y381400D01*
X363587Y381200D01*
X363770Y380984D01*
X363937Y380751D01*
X364104Y380501D01*
X364120Y380484D01*
X364137Y380434D01*
X364187Y380367D01*
X364237Y380267D01*
X364304Y380134D01*
X364370Y379984D01*
X364454Y379801D01*
X364537Y379618D01*
X364620Y379401D01*
X364704Y379168D01*
X364837Y378668D01*
X364937Y378135D01*
X364954Y377851D01*
X364970Y377551D01*
Y373836D01*
Y373802D01*
Y373736D01*
X364954Y373602D01*
Y373452D01*
X364920Y373253D01*
X364887Y373019D01*
X364837Y372753D01*
X364770Y372469D01*
X364687Y372169D01*
X364570Y371836D01*
X364437Y371520D01*
X364287Y371186D01*
X364087Y370836D01*
X363871Y370503D01*
X363621Y370187D01*
X363337Y369870D01*
X363321Y369853D01*
X363271Y369804D01*
X363171Y369720D01*
X363054Y369620D01*
X362887Y369504D01*
X362704Y369354D01*
X362471Y369220D01*
X362238Y369070D01*
X361954Y368904D01*
X361654Y368770D01*
X361321Y368637D01*
X360971Y368504D01*
X360605Y368404D01*
X360205Y368321D01*
X359805Y368270D01*
X359372Y368254D01*
X357422D01*
X357305Y368270D01*
X357156Y368287D01*
X356972Y368304D01*
X356756Y368337D01*
X356506Y368387D01*
X356239Y368454D01*
X355939Y368537D01*
X355639Y368654D01*
X355306Y368787D01*
X354990Y368937D01*
X354656Y369120D01*
X354323Y369337D01*
X353990Y369587D01*
X353657Y369870D01*
X353640Y369887D01*
X353590Y369937D01*
X353507Y370037D01*
X353390Y370153D01*
X353257Y370320D01*
X353107Y370503D01*
X352957Y370720D01*
X352807Y370970D01*
X352640Y371253D01*
X352490Y371553D01*
X352340Y371870D01*
X352207Y372220D01*
X352107Y372603D01*
X352007Y372986D01*
X351957Y373402D01*
X351940Y373836D01*
Y377551D01*
Y377568D01*
Y377618D01*
Y377685D01*
X351957Y377801D01*
Y377918D01*
X351974Y378068D01*
X352007Y378251D01*
X352040Y378435D01*
X352123Y378851D01*
X352257Y379318D01*
X352457Y379801D01*
X352573Y380034D01*
X352707Y380284D01*
X352723Y380301D01*
X352740Y380351D01*
X352790Y380417D01*
X352857Y380501D01*
X352940Y380617D01*
X353023Y380751D01*
X353140Y380901D01*
X353273Y381051D01*
X353423Y381234D01*
X353590Y381400D01*
X353973Y381767D01*
X354423Y382150D01*
X354939Y382500D01*
X354923Y382517D01*
X354906Y382533D01*
X354856Y382584D01*
X354790Y382634D01*
X354606Y382800D01*
X354390Y383033D01*
X354156Y383317D01*
X353906Y383633D01*
X353657Y384000D01*
X353423Y384400D01*
Y384416D01*
X353406Y384450D01*
X353373Y384516D01*
X353340Y384600D01*
X353290Y384700D01*
X353257Y384833D01*
X353207Y384966D01*
X353157Y385133D01*
X353040Y385499D01*
X352957Y385916D01*
X352890Y386366D01*
X352873Y386849D01*
Y388765D01*
Y388799D01*
Y388865D01*
X352890Y388982D01*
X352907Y389132D01*
X352923Y389315D01*
X352957Y389532D01*
X353007Y389782D01*
X353073Y390065D01*
X353157Y390365D01*
X353273Y390665D01*
X353406Y390998D01*
X353557Y391331D01*
X353740Y391681D01*
X353956Y392014D01*
X354206Y392364D01*
X354490Y392698D01*
X354506Y392714D01*
X354523Y392731D01*
X354573Y392781D01*
X354640Y392831D01*
X354806Y392981D01*
X355023Y393164D01*
X355289Y393364D01*
X355589Y393564D01*
X355923Y393764D01*
X356273Y393931D01*
X357256Y394214D01*
X357855Y394314D01*
X358522D01*
X358655Y394297D01*
D02*
G37*
G36*
X347425D02*
X347508Y394281D01*
X347608Y394247D01*
X347725Y394214D01*
X347825Y394147D01*
X347941Y394064D01*
X347958Y394047D01*
X347991Y394014D01*
X348041Y393964D01*
X348091Y393881D01*
X348141Y393797D01*
X348191Y393681D01*
X348224Y393547D01*
X348241Y393397D01*
Y369170D01*
Y369154D01*
Y369104D01*
X348224Y369020D01*
X348208Y368920D01*
X348175Y368804D01*
X348125Y368687D01*
X348058Y368570D01*
X347975Y368470D01*
X347958Y368454D01*
X347925Y368437D01*
X347875Y368404D01*
X347791Y368371D01*
X347691Y368321D01*
X347575Y368287D01*
X347458Y368270D01*
X347308Y368254D01*
X347275D01*
X347225Y368270D01*
X347158Y368287D01*
X347058Y368304D01*
X346958Y368354D01*
X346808Y368404D01*
X346642Y368470D01*
X346625Y368487D01*
X346608Y368520D01*
X346558Y368570D01*
X346508Y368637D01*
X346458Y368737D01*
X346425Y368854D01*
X346392Y369004D01*
X346375Y369170D01*
Y391148D01*
X342376Y387132D01*
X342359Y387116D01*
X342326Y387099D01*
X342276Y387049D01*
X342193Y386999D01*
X342109Y386949D01*
X341993Y386916D01*
X341876Y386882D01*
X341743Y386866D01*
X341676D01*
X341610Y386882D01*
X341510Y386899D01*
X341410Y386932D01*
X341293Y386982D01*
X341193Y387049D01*
X341076Y387132D01*
X341060Y387149D01*
X341043Y387182D01*
X340993Y387249D01*
X340943Y387332D01*
X340893Y387432D01*
X340860Y387549D01*
X340826Y387665D01*
X340810Y387816D01*
Y387849D01*
X340826Y387882D01*
X340843Y387949D01*
X340876Y388032D01*
X340926Y388149D01*
X340993Y388282D01*
X341076Y388449D01*
X346642Y394047D01*
X346658Y394064D01*
X346692Y394097D01*
X346742Y394131D01*
X346825Y394180D01*
X346925Y394230D01*
X347025Y394281D01*
X347158Y394297D01*
X347291Y394314D01*
X347358D01*
X347425Y394297D01*
D02*
G37*
G36*
X330696D02*
X330779Y394281D01*
X330996Y394214D01*
X331112Y394164D01*
X331212Y394081D01*
X331229Y394064D01*
X331262Y394031D01*
X331296Y393981D01*
X331345Y393914D01*
X331395Y393831D01*
X331446Y393714D01*
X331462Y393597D01*
X331479Y393447D01*
X331446Y393164D01*
X325847Y368970D01*
X325830Y368937D01*
X325814Y368904D01*
X325797Y368854D01*
X325747Y368787D01*
X325697Y368687D01*
X325614Y368570D01*
X325514Y368437D01*
X324947Y368254D01*
X324897D01*
X324831Y368270D01*
X324747Y368287D01*
X324531Y368354D01*
X324397Y368404D01*
X324281Y368470D01*
X324264Y368487D01*
X324231Y368520D01*
X324181Y368570D01*
X324131Y368637D01*
X324081Y368737D01*
X324031Y368854D01*
X323997Y368987D01*
X323981Y369137D01*
X324031Y369387D01*
X329363Y392448D01*
X320298D01*
Y390598D01*
Y390582D01*
Y390532D01*
X320282Y390448D01*
X320265Y390348D01*
X320232Y390232D01*
X320182Y390115D01*
X320115Y389998D01*
X320032Y389898D01*
X320015Y389882D01*
X319982Y389865D01*
X319932Y389832D01*
X319848Y389798D01*
X319748Y389748D01*
X319632Y389715D01*
X319515Y389698D01*
X319365Y389682D01*
X319332D01*
X319282Y389698D01*
X319215Y389715D01*
X319115Y389732D01*
X319015Y389782D01*
X318865Y389832D01*
X318699Y389898D01*
X318682Y389915D01*
X318665Y389948D01*
X318615Y389998D01*
X318566Y390065D01*
X318515Y390165D01*
X318482Y390281D01*
X318449Y390432D01*
X318432Y390598D01*
Y393381D01*
Y393397D01*
Y393414D01*
X318449Y393531D01*
X318482Y393681D01*
X318549Y393847D01*
X318649Y394014D01*
X318815Y394164D01*
X318932Y394230D01*
X319049Y394281D01*
X319182Y394297D01*
X319349Y394314D01*
X330612D01*
X330696Y394297D01*
D02*
G37*
G36*
X310234Y394314D02*
X310318Y394297D01*
X310417Y394264D01*
X310518Y394197D01*
X310618Y394131D01*
X310718Y394031D01*
X310734Y394014D01*
X310751Y393981D01*
X310801Y393914D01*
X310851Y393831D01*
X310884Y393731D01*
X310934Y393614D01*
X310951Y393481D01*
X310967Y393347D01*
Y393331D01*
Y393314D01*
X310951Y393198D01*
X310917Y393047D01*
X310851Y392897D01*
Y392881D01*
X310834Y392864D01*
X310801Y392831D01*
X310751Y392781D01*
X310684Y392714D01*
X310601Y392648D01*
X310501Y392581D01*
X310368Y392498D01*
X310018Y392364D01*
X309601Y392181D01*
X308818Y391781D01*
X308785Y391764D01*
X308701Y391698D01*
X308551Y391614D01*
X308368Y391498D01*
X308151Y391348D01*
X307918Y391181D01*
X307685Y390981D01*
X307435Y390781D01*
X307418Y390765D01*
X307385Y390748D01*
X307318Y390681D01*
X307235Y390615D01*
X307135Y390515D01*
X307018Y390415D01*
X306885Y390281D01*
X306735Y390132D01*
X306569Y389948D01*
X306385Y389765D01*
X306202Y389548D01*
X306019Y389332D01*
X305819Y389082D01*
X305619Y388815D01*
X305402Y388532D01*
X305202Y388232D01*
Y388215D01*
X305169Y388182D01*
X305136Y388115D01*
X305086Y388032D01*
X305036Y387932D01*
X304969Y387799D01*
X304886Y387665D01*
X304802Y387499D01*
X304619Y387132D01*
X304436Y386699D01*
X304236Y386233D01*
X304036Y385733D01*
Y385716D01*
X304019Y385666D01*
X303986Y385599D01*
X303953Y385499D01*
X303919Y385383D01*
X303886Y385233D01*
X303836Y385066D01*
X303786Y384900D01*
X303703Y384500D01*
X303619Y384067D01*
X303553Y383600D01*
X303536Y383150D01*
X309184D01*
X309318Y383133D01*
X309484D01*
X309684Y383100D01*
X309918Y383067D01*
X310184Y383017D01*
X310467Y382950D01*
X310784Y382867D01*
X311101Y382750D01*
X311434Y382617D01*
X311767Y382467D01*
X312100Y382267D01*
X312434Y382050D01*
X312750Y381800D01*
X313067Y381517D01*
X313083Y381501D01*
X313134Y381451D01*
X313217Y381351D01*
X313317Y381234D01*
X313450Y381067D01*
X313583Y380884D01*
X313733Y380667D01*
X313883Y380417D01*
X314033Y380134D01*
X314183Y379834D01*
X314317Y379518D01*
X314450Y379168D01*
X314550Y378784D01*
X314633Y378401D01*
X314683Y377985D01*
X314700Y377551D01*
Y373836D01*
Y373802D01*
Y373736D01*
X314683Y373602D01*
Y373452D01*
X314650Y373253D01*
X314617Y373019D01*
X314566Y372753D01*
X314500Y372469D01*
X314417Y372169D01*
X314300Y371836D01*
X314167Y371520D01*
X314017Y371186D01*
X313817Y370836D01*
X313600Y370503D01*
X313350Y370187D01*
X313067Y369870D01*
X313050Y369853D01*
X313000Y369804D01*
X312900Y369720D01*
X312784Y369620D01*
X312617Y369504D01*
X312434Y369354D01*
X312200Y369220D01*
X311967Y369070D01*
X311684Y368904D01*
X311384Y368770D01*
X311051Y368637D01*
X310701Y368504D01*
X310334Y368404D01*
X309934Y368321D01*
X309534Y368270D01*
X309101Y368254D01*
X307152D01*
X307035Y368270D01*
X306885Y368287D01*
X306702Y368304D01*
X306485Y368337D01*
X306235Y368387D01*
X305969Y368454D01*
X305669Y368537D01*
X305369Y368654D01*
X305036Y368787D01*
X304719Y368937D01*
X304386Y369120D01*
X304053Y369337D01*
X303719Y369587D01*
X303386Y369870D01*
X303369Y369887D01*
X303319Y369937D01*
X303236Y370037D01*
X303119Y370153D01*
X302986Y370320D01*
X302836Y370503D01*
X302686Y370720D01*
X302536Y370970D01*
X302370Y371253D01*
X302220Y371553D01*
X302070Y371870D01*
X301936Y372220D01*
X301836Y372603D01*
X301736Y372986D01*
X301686Y373402D01*
X301670Y373836D01*
Y382117D01*
Y382134D01*
Y382167D01*
Y382217D01*
Y382284D01*
Y382384D01*
X301686Y382500D01*
Y382634D01*
X301703Y382767D01*
X301736Y383117D01*
X301770Y383517D01*
X301836Y383966D01*
X301920Y384450D01*
X302020Y384983D01*
X302153Y385549D01*
X302320Y386133D01*
X302503Y386749D01*
X302736Y387366D01*
X303003Y387982D01*
X303303Y388599D01*
X303653Y389215D01*
Y389232D01*
X303686Y389249D01*
X303703Y389299D01*
X303753Y389365D01*
X303886Y389548D01*
X304053Y389782D01*
X304269Y390082D01*
X304552Y390398D01*
X304869Y390765D01*
X305236Y391165D01*
X305635Y391564D01*
X306085Y391981D01*
X306585Y392398D01*
X307118Y392814D01*
X307702Y393214D01*
X308335Y393597D01*
X309001Y393931D01*
X309701Y394247D01*
X310101Y394330D01*
X310168D01*
X310234Y394314D01*
D02*
G37*
G36*
X336211Y369920D02*
X336344Y369903D01*
X336444Y369853D01*
X336544Y369804D01*
X336628Y369753D01*
X336694Y369720D01*
X336727Y369687D01*
X336744Y369670D01*
X336844Y369570D01*
X336911Y369470D01*
X336977Y369354D01*
X337011Y369254D01*
X337027Y369170D01*
X337044Y369104D01*
Y369054D01*
Y369037D01*
X337011Y368754D01*
X336078Y365071D01*
X336011Y364938D01*
X335944Y364821D01*
X335878Y364721D01*
X335811Y364655D01*
X335761Y364588D01*
X335711Y364555D01*
X335694Y364538D01*
X335678Y364521D01*
X335594Y364455D01*
X335511Y364422D01*
X335345Y364355D01*
X335278D01*
X335228Y364338D01*
X335178D01*
X335028Y364355D01*
X334911Y364388D01*
X334795Y364422D01*
X334695Y364488D01*
X334611Y364538D01*
X334545Y364571D01*
X334511Y364605D01*
X334495Y364621D01*
X334395Y364738D01*
X334328Y364838D01*
X334278Y364938D01*
X334245Y365038D01*
X334228Y365121D01*
X334211Y365188D01*
Y365221D01*
Y365238D01*
X334245Y365521D01*
X335178Y369204D01*
X335228Y369337D01*
X335278Y369437D01*
X335345Y369537D01*
X335395Y369620D01*
X335444Y369670D01*
X335494Y369720D01*
X335511Y369753D01*
X335528D01*
X335611Y369820D01*
X335711Y369853D01*
X335894Y369920D01*
X335961D01*
X336028Y369937D01*
X336078D01*
X336211Y369920D01*
D02*
G37*
%LPC*%
G36*
X358472Y392448D02*
X358322D01*
X358205Y392431D01*
X358072Y392414D01*
X357922Y392398D01*
X357755Y392364D01*
X357556Y392314D01*
X357139Y392181D01*
X356922Y392098D01*
X356706Y391998D01*
X356472Y391865D01*
X356256Y391715D01*
X356039Y391548D01*
X355823Y391365D01*
X355806Y391348D01*
X355773Y391315D01*
X355723Y391265D01*
X355656Y391181D01*
X355573Y391065D01*
X355473Y390948D01*
X355389Y390798D01*
X355289Y390631D01*
X355173Y390448D01*
X355089Y390248D01*
X354990Y390032D01*
X354906Y389798D01*
X354840Y389565D01*
X354790Y389299D01*
X354756Y389015D01*
X354739Y388732D01*
Y386849D01*
Y386832D01*
Y386782D01*
Y386699D01*
X354756Y386582D01*
X354773Y386449D01*
X354790Y386299D01*
X354823Y386133D01*
X354873Y385933D01*
X355006Y385533D01*
X355089Y385299D01*
X355189Y385083D01*
X355306Y384866D01*
X355456Y384633D01*
X355623Y384433D01*
X355806Y384216D01*
X355823Y384200D01*
X355856Y384166D01*
X355923Y384117D01*
X356006Y384050D01*
X356106Y383966D01*
X356222Y383883D01*
X356372Y383783D01*
X356539Y383683D01*
X356722Y383583D01*
X356922Y383483D01*
X357372Y383317D01*
X357606Y383250D01*
X357872Y383200D01*
X358139Y383167D01*
X358422Y383150D01*
X358572D01*
X358672Y383167D01*
X358805Y383183D01*
X358955Y383200D01*
X359138Y383233D01*
X359322Y383283D01*
X359738Y383400D01*
X359955Y383500D01*
X360172Y383600D01*
X360405Y383717D01*
X360621Y383850D01*
X360838Y384016D01*
X361055Y384200D01*
X361071Y384216D01*
X361105Y384250D01*
X361155Y384316D01*
X361238Y384400D01*
X361321Y384500D01*
X361404Y384616D01*
X361505Y384766D01*
X361621Y384933D01*
X361721Y385116D01*
X361821Y385316D01*
X361904Y385533D01*
X362004Y385766D01*
X362071Y386016D01*
X362121Y386283D01*
X362154Y386566D01*
X362171Y386849D01*
Y388732D01*
Y388749D01*
Y388799D01*
Y388882D01*
X362154Y388998D01*
X362138Y389132D01*
X362121Y389282D01*
X362088Y389448D01*
X362038Y389648D01*
X361904Y390048D01*
X361821Y390281D01*
X361721Y390498D01*
X361588Y390715D01*
X361438Y390948D01*
X361271Y391165D01*
X361088Y391365D01*
X361071Y391381D01*
X361038Y391415D01*
X360971Y391465D01*
X360888Y391531D01*
X360788Y391614D01*
X360671Y391715D01*
X360521Y391798D01*
X360355Y391914D01*
X360172Y392014D01*
X359972Y392098D01*
X359522Y392281D01*
X359288Y392348D01*
X359022Y392398D01*
X358755Y392431D01*
X358472Y392448D01*
D02*
G37*
G36*
X359372Y381284D02*
X357372D01*
X357256Y381267D01*
X357122Y381250D01*
X356972Y381234D01*
X356806Y381200D01*
X356606Y381151D01*
X356206Y381017D01*
X355973Y380934D01*
X355756Y380817D01*
X355539Y380701D01*
X355306Y380551D01*
X355106Y380384D01*
X354889Y380184D01*
X354873Y380168D01*
X354840Y380134D01*
X354790Y380067D01*
X354723Y379984D01*
X354640Y379884D01*
X354540Y379768D01*
X354456Y379618D01*
X354356Y379451D01*
X354240Y379268D01*
X354156Y379068D01*
X353973Y378618D01*
X353906Y378368D01*
X353856Y378118D01*
X353823Y377835D01*
X353806Y377551D01*
Y373836D01*
Y373819D01*
Y373769D01*
Y373686D01*
X353823Y373586D01*
X353840Y373452D01*
X353873Y373303D01*
X353906Y373119D01*
X353940Y372936D01*
X354073Y372536D01*
X354173Y372319D01*
X354273Y372086D01*
X354406Y371870D01*
X354556Y371653D01*
X354723Y371436D01*
X354923Y371220D01*
X354939Y371203D01*
X354973Y371170D01*
X355039Y371120D01*
X355123Y371053D01*
X355223Y370970D01*
X355356Y370870D01*
X355506Y370770D01*
X355673Y370670D01*
X355856Y370570D01*
X356056Y370470D01*
X356506Y370287D01*
X356739Y370220D01*
X356989Y370170D01*
X357256Y370137D01*
X357522Y370120D01*
X359522D01*
X359638Y370137D01*
X359772Y370153D01*
X359921Y370170D01*
X360105Y370203D01*
X360288Y370253D01*
X360705Y370387D01*
X360921Y370470D01*
X361155Y370570D01*
X361371Y370687D01*
X361604Y370836D01*
X361821Y371003D01*
X362021Y371186D01*
X362038Y371203D01*
X362071Y371236D01*
X362121Y371303D01*
X362188Y371386D01*
X362271Y371486D01*
X362371Y371620D01*
X362454Y371753D01*
X362571Y371920D01*
X362671Y372103D01*
X362754Y372303D01*
X362937Y372769D01*
X363004Y373003D01*
X363054Y373269D01*
X363087Y373553D01*
X363104Y373836D01*
Y377551D01*
Y377568D01*
Y377618D01*
Y377701D01*
X363087Y377818D01*
X363071Y377951D01*
X363054Y378101D01*
X363021Y378268D01*
X362971Y378468D01*
X362837Y378868D01*
X362754Y379101D01*
X362654Y379318D01*
X362521Y379534D01*
X362371Y379768D01*
X362204Y379984D01*
X362021Y380184D01*
X362004Y380201D01*
X361971Y380234D01*
X361904Y380284D01*
X361838Y380351D01*
X361721Y380434D01*
X361604Y380534D01*
X361455Y380634D01*
X361288Y380734D01*
X361105Y380834D01*
X360905Y380934D01*
X360688Y381034D01*
X360455Y381117D01*
X360205Y381184D01*
X359938Y381234D01*
X359655Y381267D01*
X359372Y381284D01*
D02*
G37*
G36*
X309101D02*
X303536D01*
Y373836D01*
Y373819D01*
Y373769D01*
Y373686D01*
X303553Y373586D01*
X303569Y373452D01*
X303603Y373303D01*
X303636Y373119D01*
X303669Y372936D01*
X303803Y372536D01*
X303902Y372319D01*
X304002Y372086D01*
X304136Y371870D01*
X304286Y371653D01*
X304452Y371436D01*
X304652Y371220D01*
X304669Y371203D01*
X304702Y371170D01*
X304769Y371120D01*
X304852Y371053D01*
X304952Y370970D01*
X305086Y370870D01*
X305236Y370770D01*
X305402Y370670D01*
X305585Y370570D01*
X305785Y370470D01*
X306235Y370287D01*
X306469Y370220D01*
X306719Y370170D01*
X306985Y370137D01*
X307252Y370120D01*
X309251D01*
X309368Y370137D01*
X309501Y370153D01*
X309651Y370170D01*
X309834Y370203D01*
X310018Y370253D01*
X310434Y370387D01*
X310651Y370470D01*
X310884Y370570D01*
X311101Y370687D01*
X311334Y370836D01*
X311551Y371003D01*
X311751Y371186D01*
X311767Y371203D01*
X311800Y371236D01*
X311850Y371303D01*
X311917Y371386D01*
X312001Y371486D01*
X312100Y371620D01*
X312184Y371753D01*
X312300Y371920D01*
X312400Y372103D01*
X312484Y372303D01*
X312667Y372769D01*
X312734Y373003D01*
X312784Y373269D01*
X312817Y373553D01*
X312834Y373836D01*
Y377551D01*
Y377568D01*
Y377618D01*
Y377701D01*
X312817Y377818D01*
X312800Y377951D01*
X312784Y378101D01*
X312750Y378268D01*
X312700Y378468D01*
X312567Y378868D01*
X312484Y379101D01*
X312384Y379318D01*
X312250Y379534D01*
X312100Y379768D01*
X311934Y379984D01*
X311751Y380184D01*
X311734Y380201D01*
X311700Y380234D01*
X311634Y380284D01*
X311567Y380351D01*
X311451Y380434D01*
X311334Y380534D01*
X311184Y380634D01*
X311017Y380734D01*
X310834Y380834D01*
X310634Y380934D01*
X310417Y381034D01*
X310184Y381117D01*
X309934Y381184D01*
X309668Y381234D01*
X309384Y381267D01*
X309101Y381284D01*
D02*
G37*
%LPD*%
D41*
X19685Y780040D02*
Y764805D01*
X29842D01*
X37459Y774962D02*
X42538D01*
X45077Y772422D01*
Y764805D01*
X37459D01*
X34920Y767344D01*
X37459Y769883D01*
X45077D01*
X50155Y774962D02*
Y767344D01*
X52694Y764805D01*
X60312D01*
Y762266D01*
X57773Y759727D01*
X55233D01*
X60312Y764805D02*
Y774962D01*
X73008Y764805D02*
X67929D01*
X65390Y767344D01*
Y772422D01*
X67929Y774962D01*
X73008D01*
X75547Y772422D01*
Y769883D01*
X65390D01*
X80625Y774962D02*
Y764805D01*
Y769883D01*
X83165Y772422D01*
X85704Y774962D01*
X88243D01*
X27302Y490485D02*
Y505720D01*
X19685Y498102D01*
X29842D01*
X19685Y564141D02*
X22224Y566680D01*
X27302D01*
X29842Y564141D01*
Y561602D01*
X27302Y559062D01*
X24763D01*
X27302D01*
X29842Y556523D01*
Y553984D01*
X27302Y551445D01*
X22224D01*
X19685Y553984D01*
X29842Y612405D02*
X19685D01*
X29842Y622562D01*
Y625101D01*
X27302Y627640D01*
X22224D01*
X19685Y625101D01*
Y673365D02*
X24763D01*
X22224D01*
Y688600D01*
X19685Y686061D01*
X123803Y764805D02*
Y780040D01*
X133960Y764805D01*
Y780040D01*
X141577Y774962D02*
X146655D01*
X149195Y772422D01*
Y764805D01*
X141577D01*
X139038Y767344D01*
X141577Y769883D01*
X149195D01*
X154273Y764805D02*
Y774962D01*
X156812D01*
X159351Y772422D01*
Y764805D01*
Y772422D01*
X161891Y774962D01*
X164430Y772422D01*
Y764805D01*
X177126D02*
X172047D01*
X169508Y767344D01*
Y772422D01*
X172047Y774962D01*
X177126D01*
X179665Y772422D01*
Y769883D01*
X169508D01*
X123803Y444760D02*
Y429525D01*
X131420D01*
X133960Y432064D01*
Y434603D01*
X131420Y437142D01*
X123803D01*
X131420D01*
X133960Y439682D01*
Y442221D01*
X131420Y444760D01*
X123803D01*
X141577Y429525D02*
X146655D01*
X149195Y432064D01*
Y437142D01*
X146655Y439682D01*
X141577D01*
X139038Y437142D01*
Y432064D01*
X141577Y429525D01*
X156812Y442221D02*
Y439682D01*
X154273D01*
X159351D01*
X156812D01*
Y432064D01*
X159351Y429525D01*
X169508Y442221D02*
Y439682D01*
X166969D01*
X172047D01*
X169508D01*
Y432064D01*
X172047Y429525D01*
X182204D02*
X187282D01*
X189821Y432064D01*
Y437142D01*
X187282Y439682D01*
X182204D01*
X179665Y437142D01*
Y432064D01*
X182204Y429525D01*
X194900D02*
Y439682D01*
X197439D01*
X199978Y437142D01*
Y429525D01*
Y437142D01*
X202517Y439682D01*
X205056Y437142D01*
Y429525D01*
X232987Y444760D02*
X227909D01*
X225370Y442221D01*
Y432064D01*
X227909Y429525D01*
X232987D01*
X235527Y432064D01*
Y442221D01*
X232987Y444760D01*
X240605Y439682D02*
X245683Y429525D01*
X250762Y439682D01*
X263458Y429525D02*
X258379D01*
X255840Y432064D01*
Y437142D01*
X258379Y439682D01*
X263458D01*
X265997Y437142D01*
Y434603D01*
X255840D01*
X271075Y439682D02*
Y429525D01*
Y434603D01*
X273614Y437142D01*
X276154Y439682D01*
X278693D01*
X286310Y429525D02*
X291389D01*
X288849D01*
Y444760D01*
X286310D01*
X301545Y439682D02*
X306624D01*
X309163Y437142D01*
Y429525D01*
X301545D01*
X299006Y432064D01*
X301545Y434603D01*
X309163D01*
X314241Y439682D02*
Y432064D01*
X316780Y429525D01*
X324398D01*
Y426986D01*
X321859Y424447D01*
X319320D01*
X324398Y429525D02*
Y439682D01*
X123803Y475240D02*
Y460005D01*
X131420D01*
X133960Y462544D01*
Y465083D01*
X131420Y467622D01*
X123803D01*
X131420D01*
X133960Y470162D01*
Y472701D01*
X131420Y475240D01*
X123803D01*
X141577Y460005D02*
X146655D01*
X149195Y462544D01*
Y467622D01*
X146655Y470162D01*
X141577D01*
X139038Y467622D01*
Y462544D01*
X141577Y460005D01*
X156812Y472701D02*
Y470162D01*
X154273D01*
X159351D01*
X156812D01*
Y462544D01*
X159351Y460005D01*
X169508Y472701D02*
Y470162D01*
X166969D01*
X172047D01*
X169508D01*
Y462544D01*
X172047Y460005D01*
X182204D02*
X187282D01*
X189821Y462544D01*
Y467622D01*
X187282Y470162D01*
X182204D01*
X179665Y467622D01*
Y462544D01*
X182204Y460005D01*
X194900D02*
Y470162D01*
X197439D01*
X199978Y467622D01*
Y460005D01*
Y467622D01*
X202517Y470162D01*
X205056Y467622D01*
Y460005D01*
X235527Y472701D02*
X232987Y475240D01*
X227909D01*
X225370Y472701D01*
Y470162D01*
X227909Y467622D01*
X232987D01*
X235527Y465083D01*
Y462544D01*
X232987Y460005D01*
X227909D01*
X225370Y462544D01*
X243144Y460005D02*
X248223D01*
X250762Y462544D01*
Y467622D01*
X248223Y470162D01*
X243144D01*
X240605Y467622D01*
Y462544D01*
X243144Y460005D01*
X255840D02*
X260919D01*
X258379D01*
Y475240D01*
X255840D01*
X278693D02*
Y460005D01*
X271075D01*
X268536Y462544D01*
Y467622D01*
X271075Y470162D01*
X278693D01*
X291389Y460005D02*
X286310D01*
X283771Y462544D01*
Y467622D01*
X286310Y470162D01*
X291389D01*
X293928Y467622D01*
Y465083D01*
X283771D01*
X299006Y470162D02*
Y460005D01*
Y465083D01*
X301545Y467622D01*
X304084Y470162D01*
X306624D01*
X123803Y505720D02*
Y490485D01*
X133960D01*
X139038Y503181D02*
X141577Y505720D01*
X146655D01*
X149195Y503181D01*
Y493024D01*
X146655Y490485D01*
X141577D01*
X139038Y493024D01*
Y503181D01*
X161891Y490485D02*
Y505720D01*
X154273Y498102D01*
X164430D01*
X169508D02*
X179665D01*
X184743Y505720D02*
Y490485D01*
X192361D01*
X194900Y493024D01*
Y495563D01*
X192361Y498102D01*
X184743D01*
X192361D01*
X194900Y500642D01*
Y503181D01*
X192361Y505720D01*
X184743D01*
X202517Y490485D02*
X207596D01*
X210135Y493024D01*
Y498102D01*
X207596Y500642D01*
X202517D01*
X199978Y498102D01*
Y493024D01*
X202517Y490485D01*
X217752Y503181D02*
Y500642D01*
X215213D01*
X220292D01*
X217752D01*
Y493024D01*
X220292Y490485D01*
X230448Y503181D02*
Y500642D01*
X227909D01*
X232987D01*
X230448D01*
Y493024D01*
X232987Y490485D01*
X243144D02*
X248223D01*
X250762Y493024D01*
Y498102D01*
X248223Y500642D01*
X243144D01*
X240605Y498102D01*
Y493024D01*
X243144Y490485D01*
X255840D02*
Y500642D01*
X258379D01*
X260919Y498102D01*
Y490485D01*
Y498102D01*
X263458Y500642D01*
X265997Y498102D01*
Y490485D01*
X286310Y505720D02*
Y490485D01*
X296467D01*
X304084Y500642D02*
X309163D01*
X311702Y498102D01*
Y490485D01*
X304084D01*
X301545Y493024D01*
X304084Y495563D01*
X311702D01*
X316780Y500642D02*
Y493024D01*
X319320Y490485D01*
X326937D01*
Y487946D01*
X324398Y485407D01*
X321859D01*
X326937Y490485D02*
Y500642D01*
X339633Y490485D02*
X334555D01*
X332015Y493024D01*
Y498102D01*
X334555Y500642D01*
X339633D01*
X342172Y498102D01*
Y495563D01*
X332015D01*
X347251Y500642D02*
Y490485D01*
Y495563D01*
X349790Y498102D01*
X352329Y500642D01*
X354868D01*
X123803Y536200D02*
Y520965D01*
X131420D01*
X133960Y523504D01*
Y533661D01*
X131420Y536200D01*
X123803D01*
X139038Y520965D02*
X144116D01*
X141577D01*
Y531122D01*
X139038D01*
X159351Y520965D02*
X154273D01*
X151734Y523504D01*
Y528582D01*
X154273Y531122D01*
X159351D01*
X161891Y528582D01*
Y526043D01*
X151734D01*
X166969Y520965D02*
X172047D01*
X169508D01*
Y536200D01*
X166969D01*
X187282Y520965D02*
X182204D01*
X179665Y523504D01*
Y528582D01*
X182204Y531122D01*
X187282D01*
X189821Y528582D01*
Y526043D01*
X179665D01*
X205056Y531122D02*
X197439D01*
X194900Y528582D01*
Y523504D01*
X197439Y520965D01*
X205056D01*
X212674Y533661D02*
Y531122D01*
X210135D01*
X215213D01*
X212674D01*
Y523504D01*
X215213Y520965D01*
X222831Y531122D02*
Y520965D01*
Y526043D01*
X225370Y528582D01*
X227909Y531122D01*
X230448D01*
X238066Y520965D02*
X243144D01*
X240605D01*
Y531122D01*
X238066D01*
X260919D02*
X253301D01*
X250762Y528582D01*
Y523504D01*
X253301Y520965D01*
X260919D01*
X281232Y533661D02*
X283771Y536200D01*
X288849D01*
X291389Y533661D01*
Y531122D01*
X288849Y528582D01*
X286310D01*
X288849D01*
X291389Y526043D01*
Y523504D01*
X288849Y520965D01*
X283771D01*
X281232Y523504D01*
X123803Y566680D02*
Y551445D01*
X133960D01*
X139038Y564141D02*
X141577Y566680D01*
X146655D01*
X149195Y564141D01*
Y553984D01*
X146655Y551445D01*
X141577D01*
X139038Y553984D01*
Y564141D01*
X154273D02*
X156812Y566680D01*
X161891D01*
X164430Y564141D01*
Y561602D01*
X161891Y559062D01*
X159351D01*
X161891D01*
X164430Y556523D01*
Y553984D01*
X161891Y551445D01*
X156812D01*
X154273Y553984D01*
X169508Y559062D02*
X179665D01*
X184743Y566680D02*
X189821D01*
X187282D01*
Y551445D01*
X184743D01*
X189821D01*
X197439D02*
Y561602D01*
X205056D01*
X207596Y559062D01*
Y551445D01*
X212674D02*
Y561602D01*
X220292D01*
X222831Y559062D01*
Y551445D01*
X235527D02*
X230448D01*
X227909Y553984D01*
Y559062D01*
X230448Y561602D01*
X235527D01*
X238066Y559062D01*
Y556523D01*
X227909D01*
X243144Y561602D02*
Y551445D01*
Y556523D01*
X245683Y559062D01*
X248223Y561602D01*
X250762D01*
X273614Y566680D02*
Y551445D01*
X283771D01*
X291389Y561602D02*
X296467D01*
X299006Y559062D01*
Y551445D01*
X291389D01*
X288849Y553984D01*
X291389Y556523D01*
X299006D01*
X304084Y561602D02*
Y553984D01*
X306624Y551445D01*
X314241D01*
Y548906D01*
X311702Y546367D01*
X309163D01*
X314241Y551445D02*
Y561602D01*
X326937Y551445D02*
X321859D01*
X319320Y553984D01*
Y559062D01*
X321859Y561602D01*
X326937D01*
X329476Y559062D01*
Y556523D01*
X319320D01*
X334555Y561602D02*
Y551445D01*
Y556523D01*
X337094Y559062D01*
X339633Y561602D01*
X342172D01*
X123803Y597160D02*
Y581925D01*
X131420D01*
X133960Y584464D01*
Y594621D01*
X131420Y597160D01*
X123803D01*
X139038Y581925D02*
X144116D01*
X141577D01*
Y592082D01*
X139038D01*
X159351Y581925D02*
X154273D01*
X151734Y584464D01*
Y589543D01*
X154273Y592082D01*
X159351D01*
X161891Y589543D01*
Y587003D01*
X151734D01*
X166969Y581925D02*
X172047D01*
X169508D01*
Y597160D01*
X166969D01*
X187282Y581925D02*
X182204D01*
X179665Y584464D01*
Y589543D01*
X182204Y592082D01*
X187282D01*
X189821Y589543D01*
Y587003D01*
X179665D01*
X205056Y592082D02*
X197439D01*
X194900Y589543D01*
Y584464D01*
X197439Y581925D01*
X205056D01*
X212674Y594621D02*
Y592082D01*
X210135D01*
X215213D01*
X212674D01*
Y584464D01*
X215213Y581925D01*
X222831Y592082D02*
Y581925D01*
Y587003D01*
X225370Y589543D01*
X227909Y592082D01*
X230448D01*
X238066Y581925D02*
X243144D01*
X240605D01*
Y592082D01*
X238066D01*
X260919D02*
X253301D01*
X250762Y589543D01*
Y584464D01*
X253301Y581925D01*
X260919D01*
X291389D02*
X281232D01*
X291389Y592082D01*
Y594621D01*
X288849Y597160D01*
X283771D01*
X281232Y594621D01*
X123803Y627640D02*
Y612405D01*
X133960D01*
X139038Y625101D02*
X141577Y627640D01*
X146655D01*
X149195Y625101D01*
Y614944D01*
X146655Y612405D01*
X141577D01*
X139038Y614944D01*
Y625101D01*
X164430Y612405D02*
X154273D01*
X164430Y622562D01*
Y625101D01*
X161891Y627640D01*
X156812D01*
X154273Y625101D01*
X169508Y620023D02*
X179665D01*
X184743Y627640D02*
X189821D01*
X187282D01*
Y612405D01*
X184743D01*
X189821D01*
X197439D02*
Y622562D01*
X205056D01*
X207596Y620023D01*
Y612405D01*
X212674D02*
Y622562D01*
X220292D01*
X222831Y620023D01*
Y612405D01*
X235527D02*
X230448D01*
X227909Y614944D01*
Y620023D01*
X230448Y622562D01*
X235527D01*
X238066Y620023D01*
Y617483D01*
X227909D01*
X243144Y622562D02*
Y612405D01*
Y617483D01*
X245683Y620023D01*
X248223Y622562D01*
X250762D01*
X273614Y627640D02*
Y612405D01*
X283771D01*
X291389Y622562D02*
X296467D01*
X299006Y620023D01*
Y612405D01*
X291389D01*
X288849Y614944D01*
X291389Y617483D01*
X299006D01*
X304084Y622562D02*
Y614944D01*
X306624Y612405D01*
X314241D01*
Y609866D01*
X311702Y607327D01*
X309163D01*
X314241Y612405D02*
Y622562D01*
X326937Y612405D02*
X321859D01*
X319320Y614944D01*
Y620023D01*
X321859Y622562D01*
X326937D01*
X329476Y620023D01*
Y617483D01*
X319320D01*
X334555Y622562D02*
Y612405D01*
Y617483D01*
X337094Y620023D01*
X339633Y622562D01*
X342172D01*
X123803Y658120D02*
Y642885D01*
X131420D01*
X133960Y645424D01*
Y655581D01*
X131420Y658120D01*
X123803D01*
X139038Y642885D02*
X144116D01*
X141577D01*
Y653042D01*
X139038D01*
X159351Y642885D02*
X154273D01*
X151734Y645424D01*
Y650502D01*
X154273Y653042D01*
X159351D01*
X161891Y650502D01*
Y647963D01*
X151734D01*
X166969Y642885D02*
X172047D01*
X169508D01*
Y658120D01*
X166969D01*
X187282Y642885D02*
X182204D01*
X179665Y645424D01*
Y650502D01*
X182204Y653042D01*
X187282D01*
X189821Y650502D01*
Y647963D01*
X179665D01*
X205056Y653042D02*
X197439D01*
X194900Y650502D01*
Y645424D01*
X197439Y642885D01*
X205056D01*
X212674Y655581D02*
Y653042D01*
X210135D01*
X215213D01*
X212674D01*
Y645424D01*
X215213Y642885D01*
X222831Y653042D02*
Y642885D01*
Y647963D01*
X225370Y650502D01*
X227909Y653042D01*
X230448D01*
X238066Y642885D02*
X243144D01*
X240605D01*
Y653042D01*
X238066D01*
X260919D02*
X253301D01*
X250762Y650502D01*
Y645424D01*
X253301Y642885D01*
X260919D01*
X281232D02*
X286310D01*
X283771D01*
Y658120D01*
X281232Y655581D01*
X123803Y688600D02*
Y673365D01*
X133960D01*
X139038Y686061D02*
X141577Y688600D01*
X146655D01*
X149195Y686061D01*
Y675904D01*
X146655Y673365D01*
X141577D01*
X139038Y675904D01*
Y686061D01*
X154273Y673365D02*
X159351D01*
X156812D01*
Y688600D01*
X154273Y686061D01*
X166969Y680983D02*
X177126D01*
X182204Y688600D02*
X192361D01*
X187282D01*
Y673365D01*
X199978D02*
X205056D01*
X207596Y675904D01*
Y680983D01*
X205056Y683522D01*
X199978D01*
X197439Y680983D01*
Y675904D01*
X199978Y673365D01*
X212674Y668287D02*
Y683522D01*
X220292D01*
X222831Y680983D01*
Y675904D01*
X220292Y673365D01*
X212674D01*
X243144Y688600D02*
Y673365D01*
X253301D01*
X260919Y683522D02*
X265997D01*
X268536Y680983D01*
Y673365D01*
X260919D01*
X258379Y675904D01*
X260919Y678443D01*
X268536D01*
X273614Y683522D02*
Y675904D01*
X276154Y673365D01*
X283771D01*
Y670826D01*
X281232Y668287D01*
X278693D01*
X283771Y673365D02*
Y683522D01*
X296467Y673365D02*
X291389D01*
X288849Y675904D01*
Y680983D01*
X291389Y683522D01*
X296467D01*
X299006Y680983D01*
Y678443D01*
X288849D01*
X304084Y683522D02*
Y673365D01*
Y678443D01*
X306624Y680983D01*
X309163Y683522D01*
X311702D01*
X123803Y719080D02*
X133960D01*
X128881D01*
Y703845D01*
X141577D02*
X146655D01*
X149195Y706384D01*
Y711462D01*
X146655Y714002D01*
X141577D01*
X139038Y711462D01*
Y706384D01*
X141577Y703845D01*
X154273Y698767D02*
Y714002D01*
X161891D01*
X164430Y711462D01*
Y706384D01*
X161891Y703845D01*
X154273D01*
X194900Y716541D02*
X192361Y719080D01*
X187282D01*
X184743Y716541D01*
Y714002D01*
X187282Y711462D01*
X192361D01*
X194900Y708923D01*
Y706384D01*
X192361Y703845D01*
X187282D01*
X184743Y706384D01*
X202517Y703845D02*
X207596D01*
X210135Y706384D01*
Y711462D01*
X207596Y714002D01*
X202517D01*
X199978Y711462D01*
Y706384D01*
X202517Y703845D01*
X215213D02*
X220292D01*
X217752D01*
Y719080D01*
X215213D01*
X238066D02*
Y703845D01*
X230448D01*
X227909Y706384D01*
Y711462D01*
X230448Y714002D01*
X238066D01*
X250762Y703845D02*
X245683D01*
X243144Y706384D01*
Y711462D01*
X245683Y714002D01*
X250762D01*
X253301Y711462D01*
Y708923D01*
X243144D01*
X258379Y714002D02*
Y703845D01*
Y708923D01*
X260919Y711462D01*
X263458Y714002D01*
X265997D01*
X123803Y749560D02*
X133960D01*
X128881D01*
Y734325D01*
X141577D02*
X146655D01*
X149195Y736864D01*
Y741943D01*
X146655Y744482D01*
X141577D01*
X139038Y741943D01*
Y736864D01*
X141577Y734325D01*
X154273Y729247D02*
Y744482D01*
X161891D01*
X164430Y741943D01*
Y736864D01*
X161891Y734325D01*
X154273D01*
X192361Y749560D02*
X187282D01*
X184743Y747021D01*
Y736864D01*
X187282Y734325D01*
X192361D01*
X194900Y736864D01*
Y747021D01*
X192361Y749560D01*
X199978Y744482D02*
X205056Y734325D01*
X210135Y744482D01*
X222831Y734325D02*
X217752D01*
X215213Y736864D01*
Y741943D01*
X217752Y744482D01*
X222831D01*
X225370Y741943D01*
Y739403D01*
X215213D01*
X230448Y744482D02*
Y734325D01*
Y739403D01*
X232987Y741943D01*
X235527Y744482D01*
X238066D01*
X245683Y734325D02*
X250762D01*
X248223D01*
Y749560D01*
X245683D01*
X260919Y744482D02*
X265997D01*
X268536Y741943D01*
Y734325D01*
X260919D01*
X258379Y736864D01*
X260919Y739403D01*
X268536D01*
X273614Y744482D02*
Y736864D01*
X276154Y734325D01*
X283771D01*
Y731786D01*
X281232Y729247D01*
X278693D01*
X283771Y734325D02*
Y744482D01*
X390428Y764805D02*
Y780040D01*
X395506Y774962D01*
X400585Y780040D01*
Y764805D01*
X408202Y774962D02*
X413281D01*
X415820Y772422D01*
Y764805D01*
X408202D01*
X405663Y767344D01*
X408202Y769883D01*
X415820D01*
X423437Y777501D02*
Y774962D01*
X420898D01*
X425977D01*
X423437D01*
Y767344D01*
X425977Y764805D01*
X441212D02*
X436133D01*
X433594Y767344D01*
Y772422D01*
X436133Y774962D01*
X441212D01*
X443751Y772422D01*
Y769883D01*
X433594D01*
X448829Y774962D02*
Y764805D01*
Y769883D01*
X451368Y772422D01*
X453908Y774962D01*
X456447D01*
X464064Y764805D02*
X469143D01*
X466603D01*
Y774962D01*
X464064D01*
X479299D02*
X484378D01*
X486917Y772422D01*
Y764805D01*
X479299D01*
X476760Y767344D01*
X479299Y769883D01*
X486917D01*
X491995Y764805D02*
X497074D01*
X494534D01*
Y780040D01*
X491995D01*
X400585Y472701D02*
X398046Y475240D01*
X392967D01*
X390428Y472701D01*
Y470162D01*
X392967Y467622D01*
X398046D01*
X400585Y465083D01*
Y462544D01*
X398046Y460005D01*
X392967D01*
X390428Y462544D01*
X408202Y460005D02*
X413281D01*
X415820Y462544D01*
Y467622D01*
X413281Y470162D01*
X408202D01*
X405663Y467622D01*
Y462544D01*
X408202Y460005D01*
X420898D02*
X425977D01*
X423437D01*
Y475240D01*
X420898D01*
X443751D02*
Y460005D01*
X436133D01*
X433594Y462544D01*
Y467622D01*
X436133Y470162D01*
X443751D01*
X456447Y460005D02*
X451368D01*
X448829Y462544D01*
Y467622D01*
X451368Y470162D01*
X456447D01*
X458986Y467622D01*
Y465083D01*
X448829D01*
X464064Y470162D02*
Y460005D01*
Y465083D01*
X466603Y467622D01*
X469143Y470162D01*
X471682D01*
X494534Y460005D02*
Y475240D01*
X502152D01*
X504691Y472701D01*
Y467622D01*
X502152Y465083D01*
X494534D01*
X499613D02*
X504691Y460005D01*
X517387D02*
X512309D01*
X509770Y462544D01*
Y467622D01*
X512309Y470162D01*
X517387D01*
X519926Y467622D01*
Y465083D01*
X509770D01*
X525005Y460005D02*
X532622D01*
X535161Y462544D01*
X532622Y465083D01*
X527544D01*
X525005Y467622D01*
X527544Y470162D01*
X535161D01*
X540240Y460005D02*
X545318D01*
X542779D01*
Y470162D01*
X540240D01*
X552935Y460005D02*
X560553D01*
X563092Y462544D01*
X560553Y465083D01*
X555475D01*
X552935Y467622D01*
X555475Y470162D01*
X563092D01*
X570710Y472701D02*
Y470162D01*
X568171D01*
X573249D01*
X570710D01*
Y462544D01*
X573249Y460005D01*
X400585Y520965D02*
X390428D01*
X400585Y531122D01*
Y533661D01*
X398046Y536200D01*
X392967D01*
X390428Y533661D01*
X405663Y531122D02*
X415820Y520965D01*
X410742Y526043D01*
X415820Y531122D01*
X405663Y520965D01*
X420898D02*
X425977D01*
X423437D01*
Y536200D01*
X420898Y533661D01*
X433594D02*
X436133Y536200D01*
X441212D01*
X443751Y533661D01*
Y523504D01*
X441212Y520965D01*
X436133D01*
X433594Y523504D01*
Y533661D01*
X458986Y536200D02*
X453908Y533661D01*
X448829Y528582D01*
Y523504D01*
X451368Y520965D01*
X456447D01*
X458986Y523504D01*
Y526043D01*
X456447Y528582D01*
X448829D01*
X400585Y597160D02*
X390428D01*
Y589543D01*
X395506D01*
X390428D01*
Y581925D01*
X405663D02*
Y597160D01*
X413281D01*
X415820Y594621D01*
Y589543D01*
X413281Y587003D01*
X405663D01*
X410742D02*
X415820Y581925D01*
X428516D02*
Y597160D01*
X420898Y589543D01*
X431055D01*
X400585Y642885D02*
X390428D01*
X400585Y653042D01*
Y655581D01*
X398046Y658120D01*
X392967D01*
X390428Y655581D01*
X405663Y653042D02*
X415820Y642885D01*
X410742Y647963D01*
X415820Y653042D01*
X405663Y642885D01*
X420898D02*
X425977D01*
X423437D01*
Y658120D01*
X420898Y655581D01*
X433594D02*
X436133Y658120D01*
X441212D01*
X443751Y655581D01*
Y645424D01*
X441212Y642885D01*
X436133D01*
X433594Y645424D01*
Y655581D01*
X458986Y658120D02*
X453908Y655581D01*
X448829Y650502D01*
Y645424D01*
X451368Y642885D01*
X456447D01*
X458986Y645424D01*
Y647963D01*
X456447Y650502D01*
X448829D01*
X400585Y716541D02*
X398046Y719080D01*
X392967D01*
X390428Y716541D01*
Y714002D01*
X392967Y711462D01*
X398046D01*
X400585Y708923D01*
Y706384D01*
X398046Y703845D01*
X392967D01*
X390428Y706384D01*
X408202Y703845D02*
X413281D01*
X415820Y706384D01*
Y711462D01*
X413281Y714002D01*
X408202D01*
X405663Y711462D01*
Y706384D01*
X408202Y703845D01*
X420898D02*
X425977D01*
X423437D01*
Y719080D01*
X420898D01*
X443751D02*
Y703845D01*
X436133D01*
X433594Y706384D01*
Y711462D01*
X436133Y714002D01*
X443751D01*
X456447Y703845D02*
X451368D01*
X448829Y706384D01*
Y711462D01*
X451368Y714002D01*
X456447D01*
X458986Y711462D01*
Y708923D01*
X448829D01*
X464064Y714002D02*
Y703845D01*
Y708923D01*
X466603Y711462D01*
X469143Y714002D01*
X471682D01*
X494534Y703845D02*
Y719080D01*
X502152D01*
X504691Y716541D01*
Y711462D01*
X502152Y708923D01*
X494534D01*
X499613D02*
X504691Y703845D01*
X517387D02*
X512309D01*
X509770Y706384D01*
Y711462D01*
X512309Y714002D01*
X517387D01*
X519926Y711462D01*
Y708923D01*
X509770D01*
X525005Y703845D02*
X532622D01*
X535161Y706384D01*
X532622Y708923D01*
X527544D01*
X525005Y711462D01*
X527544Y714002D01*
X535161D01*
X540240Y703845D02*
X545318D01*
X542779D01*
Y714002D01*
X540240D01*
X552935Y703845D02*
X560553D01*
X563092Y706384D01*
X560553Y708923D01*
X555475D01*
X552935Y711462D01*
X555475Y714002D01*
X563092D01*
X570710Y716541D02*
Y714002D01*
X568171D01*
X573249D01*
X570710D01*
Y706384D01*
X573249Y703845D01*
X608809Y780040D02*
X618966D01*
X613887D01*
Y764805D01*
X624044Y780040D02*
Y764805D01*
Y772422D01*
X626583Y774962D01*
X631661D01*
X634201Y772422D01*
Y764805D01*
X639279D02*
X644357D01*
X641818D01*
Y774962D01*
X639279D01*
X662132D02*
X654514D01*
X651975Y772422D01*
Y767344D01*
X654514Y764805D01*
X662132D01*
X667210D02*
Y780040D01*
Y769883D02*
X674828Y774962D01*
X667210Y769883D02*
X674828Y764805D01*
X682445D02*
Y774962D01*
X690063D01*
X692602Y772422D01*
Y764805D01*
X705298D02*
X700219D01*
X697680Y767344D01*
Y772422D01*
X700219Y774962D01*
X705298D01*
X707837Y772422D01*
Y769883D01*
X697680D01*
X712915Y764805D02*
X720533D01*
X723072Y767344D01*
X720533Y769883D01*
X715454D01*
X712915Y772422D01*
X715454Y774962D01*
X723072D01*
X728150Y764805D02*
X735768D01*
X738307Y767344D01*
X735768Y769883D01*
X730689D01*
X728150Y772422D01*
X730689Y774962D01*
X738307D01*
X608809Y472701D02*
X611348Y475240D01*
X616427D01*
X618966Y472701D01*
Y462544D01*
X616427Y460005D01*
X611348D01*
X608809Y462544D01*
Y472701D01*
X626583Y457466D02*
X629122Y460005D01*
Y462544D01*
X626583D01*
Y460005D01*
X629122D01*
X626583Y457466D01*
X624044Y454927D01*
X639279Y472701D02*
X641818Y475240D01*
X646897D01*
X649436Y472701D01*
Y462544D01*
X646897Y460005D01*
X641818D01*
X639279Y462544D01*
Y472701D01*
X654514Y460005D02*
X659593D01*
X657053D01*
Y475240D01*
X654514Y472701D01*
X677367Y475240D02*
X667210D01*
Y467622D01*
X672288Y470162D01*
X674828D01*
X677367Y467622D01*
Y462544D01*
X674828Y460005D01*
X669749D01*
X667210Y462544D01*
X682445Y460005D02*
Y470162D01*
X684984D01*
X687523Y467622D01*
Y460005D01*
Y467622D01*
X690063Y470162D01*
X692602Y467622D01*
Y460005D01*
X697680D02*
Y470162D01*
X700219D01*
X702758Y467622D01*
Y460005D01*
Y467622D01*
X705298Y470162D01*
X707837Y467622D01*
Y460005D01*
X608809Y503181D02*
X611348Y505720D01*
X616427D01*
X618966Y503181D01*
Y493024D01*
X616427Y490485D01*
X611348D01*
X608809Y493024D01*
Y503181D01*
X626583Y487946D02*
X629122Y490485D01*
Y493024D01*
X626583D01*
Y490485D01*
X629122D01*
X626583Y487946D01*
X624044Y485407D01*
X639279Y503181D02*
X641818Y505720D01*
X646897D01*
X649436Y503181D01*
Y493024D01*
X646897Y490485D01*
X641818D01*
X639279Y493024D01*
Y503181D01*
X654514D02*
X657053Y505720D01*
X662132D01*
X664671Y503181D01*
Y500642D01*
X662132Y498102D01*
X659593D01*
X662132D01*
X664671Y495563D01*
Y493024D01*
X662132Y490485D01*
X657053D01*
X654514Y493024D01*
X679906Y505720D02*
X669749D01*
Y498102D01*
X674828Y500642D01*
X677367D01*
X679906Y498102D01*
Y493024D01*
X677367Y490485D01*
X672288D01*
X669749Y493024D01*
X684984Y490485D02*
Y500642D01*
X687523D01*
X690063Y498102D01*
Y490485D01*
Y498102D01*
X692602Y500642D01*
X695141Y498102D01*
Y490485D01*
X700219D02*
Y500642D01*
X702758D01*
X705298Y498102D01*
Y490485D01*
Y498102D01*
X707837Y500642D01*
X710376Y498102D01*
Y490485D01*
X608809Y533661D02*
X611348Y536200D01*
X616427D01*
X618966Y533661D01*
Y523504D01*
X616427Y520965D01*
X611348D01*
X608809Y523504D01*
Y533661D01*
X626583Y518426D02*
X629122Y520965D01*
Y523504D01*
X626583D01*
Y520965D01*
X629122D01*
X626583Y518426D01*
X624044Y515887D01*
X639279Y520965D02*
X644357D01*
X641818D01*
Y536200D01*
X639279Y533661D01*
X651975D02*
X654514Y536200D01*
X659593D01*
X662132Y533661D01*
Y523504D01*
X659593Y520965D01*
X654514D01*
X651975Y523504D01*
Y533661D01*
X677367Y536200D02*
X667210D01*
Y528582D01*
X672288Y531122D01*
X674828D01*
X677367Y528582D01*
Y523504D01*
X674828Y520965D01*
X669749D01*
X667210Y523504D01*
X682445Y520965D02*
Y531122D01*
X684984D01*
X687523Y528582D01*
Y520965D01*
Y528582D01*
X690063Y531122D01*
X692602Y528582D01*
Y520965D01*
X697680D02*
Y531122D01*
X700219D01*
X702758Y528582D01*
Y520965D01*
Y528582D01*
X705298Y531122D01*
X707837Y528582D01*
Y520965D01*
X608809Y564141D02*
X611348Y566680D01*
X616427D01*
X618966Y564141D01*
Y553984D01*
X616427Y551445D01*
X611348D01*
X608809Y553984D01*
Y564141D01*
X626583Y548906D02*
X629122Y551445D01*
Y553984D01*
X626583D01*
Y551445D01*
X629122D01*
X626583Y548906D01*
X624044Y546367D01*
X639279Y564141D02*
X641818Y566680D01*
X646897D01*
X649436Y564141D01*
Y553984D01*
X646897Y551445D01*
X641818D01*
X639279Y553984D01*
Y564141D01*
X654514D02*
X657053Y566680D01*
X662132D01*
X664671Y564141D01*
Y561602D01*
X662132Y559062D01*
X659593D01*
X662132D01*
X664671Y556523D01*
Y553984D01*
X662132Y551445D01*
X657053D01*
X654514Y553984D01*
X679906Y566680D02*
X669749D01*
Y559062D01*
X674828Y561602D01*
X677367D01*
X679906Y559062D01*
Y553984D01*
X677367Y551445D01*
X672288D01*
X669749Y553984D01*
X684984Y551445D02*
Y561602D01*
X687523D01*
X690063Y559062D01*
Y551445D01*
Y559062D01*
X692602Y561602D01*
X695141Y559062D01*
Y551445D01*
X700219D02*
Y561602D01*
X702758D01*
X705298Y559062D01*
Y551445D01*
Y559062D01*
X707837Y561602D01*
X710376Y559062D01*
Y551445D01*
X608809Y581925D02*
X613887D01*
X611348D01*
Y597160D01*
X608809Y594621D01*
X624044Y579386D02*
X626583Y581925D01*
Y584464D01*
X624044D01*
Y581925D01*
X626583D01*
X624044Y579386D01*
X621505Y576847D01*
X636740Y581925D02*
X641818D01*
X639279D01*
Y597160D01*
X636740Y594621D01*
X649436Y584464D02*
X651975Y581925D01*
X657053D01*
X659593Y584464D01*
Y594621D01*
X657053Y597160D01*
X651975D01*
X649436Y594621D01*
Y592082D01*
X651975Y589543D01*
X659593D01*
X672288Y581925D02*
Y597160D01*
X664671Y589543D01*
X674828D01*
X679906Y581925D02*
Y592082D01*
X682445D01*
X684984Y589543D01*
Y581925D01*
Y589543D01*
X687523Y592082D01*
X690063Y589543D01*
Y581925D01*
X695141D02*
Y592082D01*
X697680D01*
X700219Y589543D01*
Y581925D01*
Y589543D01*
X702758Y592082D01*
X705298Y589543D01*
Y581925D01*
X608809Y625101D02*
X611348Y627640D01*
X616427D01*
X618966Y625101D01*
Y614944D01*
X616427Y612405D01*
X611348D01*
X608809Y614944D01*
Y625101D01*
X626583Y609866D02*
X629122Y612405D01*
Y614944D01*
X626583D01*
Y612405D01*
X629122D01*
X626583Y609866D01*
X624044Y607327D01*
X639279Y625101D02*
X641818Y627640D01*
X646897D01*
X649436Y625101D01*
Y614944D01*
X646897Y612405D01*
X641818D01*
X639279Y614944D01*
Y625101D01*
X654514D02*
X657053Y627640D01*
X662132D01*
X664671Y625101D01*
Y622562D01*
X662132Y620023D01*
X659593D01*
X662132D01*
X664671Y617483D01*
Y614944D01*
X662132Y612405D01*
X657053D01*
X654514Y614944D01*
X679906Y627640D02*
X669749D01*
Y620023D01*
X674828Y622562D01*
X677367D01*
X679906Y620023D01*
Y614944D01*
X677367Y612405D01*
X672288D01*
X669749Y614944D01*
X684984Y612405D02*
Y622562D01*
X687523D01*
X690063Y620023D01*
Y612405D01*
Y620023D01*
X692602Y622562D01*
X695141Y620023D01*
Y612405D01*
X700219D02*
Y622562D01*
X702758D01*
X705298Y620023D01*
Y612405D01*
Y620023D01*
X707837Y622562D01*
X710376Y620023D01*
Y612405D01*
X608809Y655581D02*
X611348Y658120D01*
X616427D01*
X618966Y655581D01*
Y645424D01*
X616427Y642885D01*
X611348D01*
X608809Y645424D01*
Y655581D01*
X626583Y640346D02*
X629122Y642885D01*
Y645424D01*
X626583D01*
Y642885D01*
X629122D01*
X626583Y640346D01*
X624044Y637807D01*
X639279Y642885D02*
X644357D01*
X641818D01*
Y658120D01*
X639279Y655581D01*
X651975D02*
X654514Y658120D01*
X659593D01*
X662132Y655581D01*
Y645424D01*
X659593Y642885D01*
X654514D01*
X651975Y645424D01*
Y655581D01*
X677367Y658120D02*
X667210D01*
Y650502D01*
X672288Y653042D01*
X674828D01*
X677367Y650502D01*
Y645424D01*
X674828Y642885D01*
X669749D01*
X667210Y645424D01*
X682445Y642885D02*
Y653042D01*
X684984D01*
X687523Y650502D01*
Y642885D01*
Y650502D01*
X690063Y653042D01*
X692602Y650502D01*
Y642885D01*
X697680D02*
Y653042D01*
X700219D01*
X702758Y650502D01*
Y642885D01*
Y650502D01*
X705298Y653042D01*
X707837Y650502D01*
Y642885D01*
X608809Y686061D02*
X611348Y688600D01*
X616427D01*
X618966Y686061D01*
Y675904D01*
X616427Y673365D01*
X611348D01*
X608809Y675904D01*
Y686061D01*
X626583Y670826D02*
X629122Y673365D01*
Y675904D01*
X626583D01*
Y673365D01*
X629122D01*
X626583Y670826D01*
X624044Y668287D01*
X639279Y686061D02*
X641818Y688600D01*
X646897D01*
X649436Y686061D01*
Y675904D01*
X646897Y673365D01*
X641818D01*
X639279Y675904D01*
Y686061D01*
X654514D02*
X657053Y688600D01*
X662132D01*
X664671Y686061D01*
Y683522D01*
X662132Y680983D01*
X659593D01*
X662132D01*
X664671Y678443D01*
Y675904D01*
X662132Y673365D01*
X657053D01*
X654514Y675904D01*
X679906Y688600D02*
X669749D01*
Y680983D01*
X674828Y683522D01*
X677367D01*
X679906Y680983D01*
Y675904D01*
X677367Y673365D01*
X672288D01*
X669749Y675904D01*
X684984Y673365D02*
Y683522D01*
X687523D01*
X690063Y680983D01*
Y673365D01*
Y680983D01*
X692602Y683522D01*
X695141Y680983D01*
Y673365D01*
X700219D02*
Y683522D01*
X702758D01*
X705298Y680983D01*
Y673365D01*
Y680983D01*
X707837Y683522D01*
X710376Y680983D01*
Y673365D01*
X608809Y716541D02*
X611348Y719080D01*
X616427D01*
X618966Y716541D01*
Y706384D01*
X616427Y703845D01*
X611348D01*
X608809Y706384D01*
Y716541D01*
X626583Y701306D02*
X629122Y703845D01*
Y706384D01*
X626583D01*
Y703845D01*
X629122D01*
X626583Y701306D01*
X624044Y698767D01*
X639279Y716541D02*
X641818Y719080D01*
X646897D01*
X649436Y716541D01*
Y706384D01*
X646897Y703845D01*
X641818D01*
X639279Y706384D01*
Y716541D01*
X654514Y703845D02*
X659593D01*
X657053D01*
Y719080D01*
X654514Y716541D01*
X677367Y719080D02*
X667210D01*
Y711462D01*
X672288Y714002D01*
X674828D01*
X677367Y711462D01*
Y706384D01*
X674828Y703845D01*
X669749D01*
X667210Y706384D01*
X682445Y703845D02*
Y714002D01*
X684984D01*
X687523Y711462D01*
Y703845D01*
Y711462D01*
X690063Y714002D01*
X692602Y711462D01*
Y703845D01*
X697680D02*
Y714002D01*
X700219D01*
X702758Y711462D01*
Y703845D01*
Y711462D01*
X705298Y714002D01*
X707837Y711462D01*
Y703845D01*
X784024Y777501D02*
X781485Y780040D01*
X776406D01*
X773867Y777501D01*
Y767344D01*
X776406Y764805D01*
X781485D01*
X784024Y767344D01*
X791641Y764805D02*
X796720D01*
X799259Y767344D01*
Y772422D01*
X796720Y774962D01*
X791641D01*
X789102Y772422D01*
Y767344D01*
X791641Y764805D01*
X804337D02*
Y774962D01*
X811955D01*
X814494Y772422D01*
Y764805D01*
X819572D02*
X827190D01*
X829729Y767344D01*
X827190Y769883D01*
X822111D01*
X819572Y772422D01*
X822111Y774962D01*
X829729D01*
X837346Y777501D02*
Y774962D01*
X834807D01*
X839886D01*
X837346D01*
Y767344D01*
X839886Y764805D01*
X850042Y774962D02*
X855121D01*
X857660Y772422D01*
Y764805D01*
X850042D01*
X847503Y767344D01*
X850042Y769883D01*
X857660D01*
X862738Y764805D02*
Y774962D01*
X870356D01*
X872895Y772422D01*
Y764805D01*
X880512Y777501D02*
Y774962D01*
X877973D01*
X883052D01*
X880512D01*
Y767344D01*
X883052Y764805D01*
X773867Y472701D02*
X776406Y475240D01*
X781485D01*
X784024Y472701D01*
Y470162D01*
X781485Y467622D01*
X778945D01*
X781485D01*
X784024Y465083D01*
Y462544D01*
X781485Y460005D01*
X776406D01*
X773867Y462544D01*
X789102Y460005D02*
Y462544D01*
X791641D01*
Y460005D01*
X789102D01*
X801798Y462544D02*
X804337Y460005D01*
X809416D01*
X811955Y462544D01*
Y472701D01*
X809416Y475240D01*
X804337D01*
X801798Y472701D01*
Y470162D01*
X804337Y467622D01*
X811955D01*
X773867Y533661D02*
X776406Y536200D01*
X781485D01*
X784024Y533661D01*
Y531122D01*
X781485Y528582D01*
X778945D01*
X781485D01*
X784024Y526043D01*
Y523504D01*
X781485Y520965D01*
X776406D01*
X773867Y523504D01*
X789102Y520965D02*
Y523504D01*
X791641D01*
Y520965D01*
X789102D01*
X801798Y536200D02*
X811955D01*
Y533661D01*
X801798Y523504D01*
Y520965D01*
X781485Y581925D02*
Y597160D01*
X773867Y589543D01*
X784024D01*
X789102Y581925D02*
Y584464D01*
X791641D01*
Y581925D01*
X789102D01*
X801798Y594621D02*
X804337Y597160D01*
X809416D01*
X811955Y594621D01*
Y584464D01*
X809416Y581925D01*
X804337D01*
X801798Y584464D01*
Y594621D01*
X824651Y581925D02*
Y597160D01*
X817033Y589543D01*
X827190D01*
X773867Y655581D02*
X776406Y658120D01*
X781485D01*
X784024Y655581D01*
Y653042D01*
X781485Y650502D01*
X778945D01*
X781485D01*
X784024Y647963D01*
Y645424D01*
X781485Y642885D01*
X776406D01*
X773867Y645424D01*
X789102Y642885D02*
Y645424D01*
X791641D01*
Y642885D01*
X789102D01*
X801798Y658120D02*
X811955D01*
Y655581D01*
X801798Y645424D01*
Y642885D01*
X773867Y716541D02*
X776406Y719080D01*
X781485D01*
X784024Y716541D01*
Y714002D01*
X781485Y711462D01*
X778945D01*
X781485D01*
X784024Y708923D01*
Y706384D01*
X781485Y703845D01*
X776406D01*
X773867Y706384D01*
X789102Y703845D02*
Y706384D01*
X791641D01*
Y703845D01*
X789102D01*
X801798Y706384D02*
X804337Y703845D01*
X809416D01*
X811955Y706384D01*
Y716541D01*
X809416Y719080D01*
X804337D01*
X801798Y716541D01*
Y714002D01*
X804337Y711462D01*
X811955D01*
X918612Y780040D02*
Y764805D01*
X926229D01*
X928768Y767344D01*
Y769883D01*
X926229Y772422D01*
X918612D01*
X926229D01*
X928768Y774962D01*
Y777501D01*
X926229Y780040D01*
X918612D01*
X936386Y764805D02*
X941464D01*
X944004Y767344D01*
Y772422D01*
X941464Y774962D01*
X936386D01*
X933847Y772422D01*
Y767344D01*
X936386Y764805D01*
X951621Y774962D02*
X956699D01*
X959239Y772422D01*
Y764805D01*
X951621D01*
X949082Y767344D01*
X951621Y769883D01*
X959239D01*
X964317Y774962D02*
Y764805D01*
Y769883D01*
X966856Y772422D01*
X969395Y774962D01*
X971935D01*
X989709Y780040D02*
Y764805D01*
X982091D01*
X979552Y767344D01*
Y772422D01*
X982091Y774962D01*
X989709D01*
X1010022Y780040D02*
Y764805D01*
X1020179D01*
X1027796Y774962D02*
X1032875D01*
X1035414Y772422D01*
Y764805D01*
X1027796D01*
X1025257Y767344D01*
X1027796Y769883D01*
X1035414D01*
X1040492Y774962D02*
Y767344D01*
X1043031Y764805D01*
X1050649D01*
Y762266D01*
X1048110Y759727D01*
X1045571D01*
X1050649Y764805D02*
Y774962D01*
X1063345Y764805D02*
X1058267D01*
X1055727Y767344D01*
Y772422D01*
X1058267Y774962D01*
X1063345D01*
X1065884Y772422D01*
Y769883D01*
X1055727D01*
X1070962Y774962D02*
Y764805D01*
Y769883D01*
X1073502Y772422D01*
X1076041Y774962D01*
X1078580D01*
X1111589Y777501D02*
X1109050Y780040D01*
X1103972D01*
X1101433Y777501D01*
Y774962D01*
X1103972Y772422D01*
X1109050D01*
X1111589Y769883D01*
Y767344D01*
X1109050Y764805D01*
X1103972D01*
X1101433Y767344D01*
X1119207Y777501D02*
Y774962D01*
X1116668D01*
X1121746D01*
X1119207D01*
Y767344D01*
X1121746Y764805D01*
X1131903Y774962D02*
X1136981D01*
X1139520Y772422D01*
Y764805D01*
X1131903D01*
X1129363Y767344D01*
X1131903Y769883D01*
X1139520D01*
X1154755Y774962D02*
X1147138D01*
X1144599Y772422D01*
Y767344D01*
X1147138Y764805D01*
X1154755D01*
X1159834D02*
Y780040D01*
Y769883D02*
X1167451Y774962D01*
X1159834Y769883D02*
X1167451Y764805D01*
D46*
X742750Y317490D02*
X747830Y302250D01*
X737670D02*
X742750Y317490D01*
X737670Y15200D02*
X742750Y-40D01*
X747830Y15200D01*
X742750Y188509D02*
Y317490D01*
Y-40D02*
Y123861D01*
X663980Y317490D02*
X745290D01*
X664570Y-40D02*
X745290D01*
X-20Y383250D02*
X15220Y388330D01*
X-20Y383250D02*
X15220Y378170D01*
X656500D02*
X671740Y383250D01*
X656500Y388330D02*
X671740Y383250D01*
X-20D02*
X299130D01*
X367510D02*
X671740D01*
X-20Y309800D02*
Y385790D01*
X671740Y309740D02*
Y385790D01*
D47*
X1905Y757185D02*
X1185231D01*
X1905Y787665D02*
X1185231D01*
X1905Y421905D02*
Y787665D01*
Y421905D02*
X106023D01*
X1905Y452385D02*
X106023D01*
X1905Y482865D02*
X106023D01*
X1905Y513345D02*
X106023D01*
X1905Y543825D02*
X106023D01*
X1905Y574305D02*
X106023D01*
X1905Y604785D02*
X106023D01*
X1905Y635265D02*
X106023D01*
X1905Y665745D02*
X106023D01*
X1905Y696225D02*
X106023D01*
X1905Y726705D02*
X106023D01*
Y421905D02*
Y787665D01*
Y421905D02*
X372648D01*
X106023Y452385D02*
X372648D01*
X106023Y482865D02*
X372648D01*
X106023Y513345D02*
X372648D01*
X106023Y543825D02*
X372648D01*
X106023Y574305D02*
X372648D01*
X106023Y604785D02*
X372648D01*
X106023Y635265D02*
X372648D01*
X106023Y665745D02*
X372648D01*
X106023Y696225D02*
X372648D01*
X106023Y726705D02*
X372648D01*
Y421905D02*
Y787665D01*
Y421905D02*
X591029D01*
X372648Y452385D02*
X591029D01*
X372648Y482865D02*
X591029D01*
X372648Y513345D02*
X591029D01*
X372648Y543825D02*
X591029D01*
X372648Y574305D02*
X591029D01*
X372648Y604785D02*
X591029D01*
X372648Y635265D02*
X591029D01*
X372648Y665745D02*
X591029D01*
X372648Y696225D02*
X591029D01*
X372648Y726705D02*
X591029D01*
Y421905D02*
Y787665D01*
Y421905D02*
X756087D01*
X591029Y452385D02*
X756087D01*
X591029Y482865D02*
X756087D01*
X591029Y513345D02*
X756087D01*
X591029Y543825D02*
X756087D01*
X591029Y574305D02*
X756087D01*
X591029Y604785D02*
X756087D01*
X591029Y635265D02*
X756087D01*
X591029Y665745D02*
X756087D01*
X591029Y696225D02*
X756087D01*
X591029Y726705D02*
X756087D01*
Y421905D02*
Y787665D01*
Y421905D02*
X900832D01*
X756087Y452385D02*
X900832D01*
X756087Y482865D02*
X900832D01*
X756087Y513345D02*
X900832D01*
X756087Y543825D02*
X900832D01*
X756087Y574305D02*
X900832D01*
X756087Y604785D02*
X900832D01*
X756087Y635265D02*
X900832D01*
X756087Y665745D02*
X900832D01*
X756087Y696225D02*
X900832D01*
X756087Y726705D02*
X900832D01*
Y421905D02*
Y787665D01*
Y421905D02*
X1185231D01*
X900832Y452385D02*
X1185231D01*
X900832Y482865D02*
X1185231D01*
X900832Y513345D02*
X1185231D01*
X900832Y543825D02*
X1185231D01*
X900832Y574305D02*
X1185231D01*
X900832Y604785D02*
X1185231D01*
X900832Y635265D02*
X1185231D01*
X900832Y665745D02*
X1185231D01*
X900832Y696225D02*
X1185231D01*
X900832Y726705D02*
X1185231D01*
Y421905D02*
Y787665D01*
D48*
X1169991Y421905D02*
X1185231Y437145D01*
X1154751Y421905D02*
X1185231Y452385D01*
X1139511Y421905D02*
X1169991Y452385D01*
X1124271Y421905D02*
X1154751Y452385D01*
X1109031Y421905D02*
X1139511Y452385D01*
X1093791Y421905D02*
X1124271Y452385D01*
X1078551Y421905D02*
X1109031Y452385D01*
X1063311Y421905D02*
X1093791Y452385D01*
X1048071Y421905D02*
X1078551Y452385D01*
X1032831Y421905D02*
X1063311Y452385D01*
X1017591Y421905D02*
X1048071Y452385D01*
X1002351Y421905D02*
X1032831Y452385D01*
X987111Y421905D02*
X1017591Y452385D01*
X971871Y421905D02*
X1002351Y452385D01*
X956631Y421905D02*
X987111Y452385D01*
X941391Y421905D02*
X971871Y452385D01*
X926151Y421905D02*
X956631Y452385D01*
X910911Y421905D02*
X941391Y452385D01*
X900832Y427066D02*
X926151Y452385D01*
X900832Y442305D02*
X910911Y452385D01*
X1169991D02*
X1185231Y467625D01*
X1154751Y452385D02*
X1185231Y482865D01*
X1139511Y452385D02*
X1169991Y482865D01*
X1124271Y452385D02*
X1154751Y482865D01*
X1109031Y452385D02*
X1139511Y482865D01*
X1093791Y452385D02*
X1124271Y482865D01*
X1078551Y452385D02*
X1109031Y482865D01*
X1063311Y452385D02*
X1093791Y482865D01*
X1048071Y452385D02*
X1078551Y482865D01*
X1032831Y452385D02*
X1063311Y482865D01*
X1017591Y452385D02*
X1048071Y482865D01*
X1002351Y452385D02*
X1032831Y482865D01*
X987111Y452385D02*
X1017591Y482865D01*
X971871Y452385D02*
X1002351Y482865D01*
X956631Y452385D02*
X987111Y482865D01*
X941391Y452385D02*
X971871Y482865D01*
X926151Y452385D02*
X956631Y482865D01*
X910911Y452385D02*
X941391Y482865D01*
X900832Y457546D02*
X926151Y482865D01*
X900832Y472785D02*
X910911Y482865D01*
X1169991D02*
X1185231Y498105D01*
X1154751Y482865D02*
X1185231Y513345D01*
X1139511Y482865D02*
X1169991Y513345D01*
X1124271Y482865D02*
X1154751Y513345D01*
X1109031Y482865D02*
X1139511Y513345D01*
X1093791Y482865D02*
X1124271Y513345D01*
X1078551Y482865D02*
X1109031Y513345D01*
X1063311Y482865D02*
X1093791Y513345D01*
X1048071Y482865D02*
X1078551Y513345D01*
X1032831Y482865D02*
X1063311Y513345D01*
X1017591Y482865D02*
X1048071Y513345D01*
X1002351Y482865D02*
X1032831Y513345D01*
X987111Y482865D02*
X1017591Y513345D01*
X971871Y482865D02*
X1002351Y513345D01*
X956631Y482865D02*
X987111Y513345D01*
X941391Y482865D02*
X971871Y513345D01*
X926151Y482865D02*
X956631Y513345D01*
X910911Y482865D02*
X941391Y513345D01*
X900832Y488026D02*
X926151Y513345D01*
X900832Y503265D02*
X910911Y513345D01*
X1169991D02*
X1185231Y528585D01*
X1154751Y513345D02*
X1185231Y543825D01*
X1139511Y513345D02*
X1169991Y543825D01*
X1124271Y513345D02*
X1154751Y543825D01*
X1109031Y513345D02*
X1139511Y543825D01*
X1093791Y513345D02*
X1124271Y543825D01*
X1078551Y513345D02*
X1109031Y543825D01*
X1063311Y513345D02*
X1093791Y543825D01*
X1048071Y513345D02*
X1078551Y543825D01*
X1032831Y513345D02*
X1063311Y543825D01*
X1017591Y513345D02*
X1048071Y543825D01*
X1002351Y513345D02*
X1032831Y543825D01*
X987111Y513345D02*
X1017591Y543825D01*
X971871Y513345D02*
X1002351Y543825D01*
X956631Y513345D02*
X987111Y543825D01*
X941391Y513345D02*
X971871Y543825D01*
X926151Y513345D02*
X956631Y543825D01*
X910911Y513345D02*
X941391Y543825D01*
X900832Y518506D02*
X926151Y543825D01*
X900832Y533745D02*
X910911Y543825D01*
X1169991D02*
X1185231Y559065D01*
X1154751Y543825D02*
X1185231Y574305D01*
X1139511Y543825D02*
X1169991Y574305D01*
X1124271Y543825D02*
X1154751Y574305D01*
X1109031Y543825D02*
X1139511Y574305D01*
X1093791Y543825D02*
X1124271Y574305D01*
X1078551Y543825D02*
X1109031Y574305D01*
X1063311Y543825D02*
X1093791Y574305D01*
X1048071Y543825D02*
X1078551Y574305D01*
X1032831Y543825D02*
X1063311Y574305D01*
X1017591Y543825D02*
X1048071Y574305D01*
X1002351Y543825D02*
X1032831Y574305D01*
X987111Y543825D02*
X1017591Y574305D01*
X971871Y543825D02*
X1002351Y574305D01*
X956631Y543825D02*
X987111Y574305D01*
X941391Y543825D02*
X971871Y574305D01*
X926151Y543825D02*
X956631Y574305D01*
X910911Y543825D02*
X941391Y574305D01*
X900832Y548985D02*
X926151Y574305D01*
X900832Y564226D02*
X910911Y574305D01*
X1169991D02*
X1185231Y589545D01*
X1154751Y574305D02*
X1185231Y604785D01*
X1139511Y574305D02*
X1169991Y604785D01*
X1124271Y574305D02*
X1154751Y604785D01*
X1109031Y574305D02*
X1139511Y604785D01*
X1093791Y574305D02*
X1124271Y604785D01*
X1078551Y574305D02*
X1109031Y604785D01*
X1063311Y574305D02*
X1093791Y604785D01*
X1048071Y574305D02*
X1078551Y604785D01*
X1032831Y574305D02*
X1063311Y604785D01*
X1017591Y574305D02*
X1048071Y604785D01*
X1002351Y574305D02*
X1032831Y604785D01*
X987111Y574305D02*
X1017591Y604785D01*
X971871Y574305D02*
X1002351Y604785D01*
X956631Y574305D02*
X987111Y604785D01*
X941391Y574305D02*
X971871Y604785D01*
X926151Y574305D02*
X956631Y604785D01*
X910911Y574305D02*
X941391Y604785D01*
X900832Y579465D02*
X926151Y604785D01*
X900832Y594706D02*
X910911Y604785D01*
X1169991D02*
X1185231Y620025D01*
X1154751Y604785D02*
X1185231Y635265D01*
X1139511Y604785D02*
X1169991Y635265D01*
X1124271Y604785D02*
X1154751Y635265D01*
X1109031Y604785D02*
X1139511Y635265D01*
X1093791Y604785D02*
X1124271Y635265D01*
X1078551Y604785D02*
X1109031Y635265D01*
X1063311Y604785D02*
X1093791Y635265D01*
X1048071Y604785D02*
X1078551Y635265D01*
X1032831Y604785D02*
X1063311Y635265D01*
X1017591Y604785D02*
X1048071Y635265D01*
X1002351Y604785D02*
X1032831Y635265D01*
X987111Y604785D02*
X1017591Y635265D01*
X971871Y604785D02*
X1002351Y635265D01*
X956631Y604785D02*
X987111Y635265D01*
X941391Y604785D02*
X971871Y635265D01*
X926151Y604785D02*
X956631Y635265D01*
X910911Y604785D02*
X941391Y635265D01*
X900832Y609945D02*
X926151Y635265D01*
X900832Y625186D02*
X910911Y635265D01*
X1169991D02*
X1185231Y650505D01*
X1154751Y635265D02*
X1185231Y665745D01*
X1139511Y635265D02*
X1169991Y665745D01*
X1124271Y635265D02*
X1154751Y665745D01*
X1109031Y635265D02*
X1139511Y665745D01*
X1093791Y635265D02*
X1124271Y665745D01*
X1078551Y635265D02*
X1109031Y665745D01*
X1063311Y635265D02*
X1093791Y665745D01*
X1048071Y635265D02*
X1078551Y665745D01*
X1032831Y635265D02*
X1063311Y665745D01*
X1017591Y635265D02*
X1048071Y665745D01*
X1002351Y635265D02*
X1032831Y665745D01*
X987111Y635265D02*
X1017591Y665745D01*
X971871Y635265D02*
X1002351Y665745D01*
X956631Y635265D02*
X987111Y665745D01*
X941391Y635265D02*
X971871Y665745D01*
X926151Y635265D02*
X956631Y665745D01*
X910911Y635265D02*
X941391Y665745D01*
X900832Y640425D02*
X926151Y665745D01*
X900832Y655666D02*
X910911Y665745D01*
X1169991D02*
X1185231Y680985D01*
X1154751Y665745D02*
X1185231Y696225D01*
X1139511Y665745D02*
X1169991Y696225D01*
X1124271Y665745D02*
X1154751Y696225D01*
X1109031Y665745D02*
X1139511Y696225D01*
X1093791Y665745D02*
X1124271Y696225D01*
X1078551Y665745D02*
X1109031Y696225D01*
X1063311Y665745D02*
X1093791Y696225D01*
X1048071Y665745D02*
X1078551Y696225D01*
X1032831Y665745D02*
X1063311Y696225D01*
X1017591Y665745D02*
X1048071Y696225D01*
X1002351Y665745D02*
X1032831Y696225D01*
X987111Y665745D02*
X1017591Y696225D01*
X971871Y665745D02*
X1002351Y696225D01*
X956631Y665745D02*
X987111Y696225D01*
X941391Y665745D02*
X971871Y696225D01*
X926151Y665745D02*
X956631Y696225D01*
X910911Y665745D02*
X941391Y696225D01*
X900832Y670906D02*
X926151Y696225D01*
X900832Y686145D02*
X910911Y696225D01*
X1169991D02*
X1185231Y711465D01*
X1154751Y696225D02*
X1185231Y726705D01*
X1139511Y696225D02*
X1169991Y726705D01*
X1124271Y696225D02*
X1154751Y726705D01*
X1109031Y696225D02*
X1139511Y726705D01*
X1093791Y696225D02*
X1124271Y726705D01*
X1078551Y696225D02*
X1109031Y726705D01*
X1063311Y696225D02*
X1093791Y726705D01*
X1048071Y696225D02*
X1078551Y726705D01*
X1032831Y696225D02*
X1063311Y726705D01*
X1017591Y696225D02*
X1048071Y726705D01*
X1002351Y696225D02*
X1032831Y726705D01*
X987111Y696225D02*
X1017591Y726705D01*
X971871Y696225D02*
X1002351Y726705D01*
X956631Y696225D02*
X987111Y726705D01*
X941391Y696225D02*
X971871Y726705D01*
X926151Y696225D02*
X956631Y726705D01*
X910911Y696225D02*
X941391Y726705D01*
X900832Y701385D02*
X926151Y726705D01*
X900832Y716626D02*
X910911Y726705D01*
X1169991D02*
X1185231Y741945D01*
X1154751Y726705D02*
X1185231Y757185D01*
X1139511Y726705D02*
X1169991Y757185D01*
X1124271Y726705D02*
X1154751Y757185D01*
X1109031Y726705D02*
X1139511Y757185D01*
X1093791Y726705D02*
X1124271Y757185D01*
X1078551Y726705D02*
X1109031Y757185D01*
X1063311Y726705D02*
X1093791Y757185D01*
X1048071Y726705D02*
X1078551Y757185D01*
X1032831Y726705D02*
X1063311Y757185D01*
X1017591Y726705D02*
X1048071Y757185D01*
X1002351Y726705D02*
X1032831Y757185D01*
X987111Y726705D02*
X1017591Y757185D01*
X971871Y726705D02*
X1002351Y757185D01*
X956631Y726705D02*
X987111Y757185D01*
X941391Y726705D02*
X971871Y757185D01*
X926151Y726705D02*
X956631Y757185D01*
X910911Y726705D02*
X941391Y757185D01*
X900832Y731865D02*
X926151Y757185D01*
X900832Y747105D02*
X910911Y757185D01*
M02*
