G04*
G04 #@! TF.GenerationSoftware,Altium Limited,Altium Designer,24.2.2 (26)*
G04*
G04 Layer_Color=32768*
%FSLAX25Y25*%
%MOIN*%
G70*
G04*
G04 #@! TF.SameCoordinates,83FD6BF8-7FB9-4712-9294-79CC625926FD*
G04*
G04*
G04 #@! TF.FilePolarity,Positive*
G04*
G01*
G75*
%ADD185C,0.00394*%
D185*
X214265Y-315881D02*
X218202D01*
X216234Y-317850D02*
Y-313913D01*
X234471Y-238457D02*
Y-234520D01*
X232502Y-236488D02*
X236439D01*
X344442Y-274357D02*
Y-270420D01*
X342474Y-272389D02*
X346411D01*
X346903Y-200008D02*
Y-196071D01*
X344934Y-198040D02*
X348871D01*
X331738Y-199889D02*
X335675D01*
X333707Y-201857D02*
Y-197920D01*
X327848Y-206861D02*
Y-202924D01*
X325880Y-204892D02*
X329817D01*
X335517Y-218991D02*
X339454D01*
X337485Y-220960D02*
Y-217023D01*
X336941Y-200364D02*
X340878D01*
X338910Y-202333D02*
Y-198396D01*
X335879Y-252140D02*
Y-248203D01*
X333911Y-250171D02*
X337848D01*
X344934Y-252184D02*
Y-248247D01*
X342966Y-250215D02*
X346903D01*
X354596D02*
X358533D01*
X356565Y-252184D02*
Y-248247D01*
X365801Y-255548D02*
X369738D01*
X367769Y-257516D02*
Y-253579D01*
X353320Y-219108D02*
X357257D01*
X355288Y-221076D02*
Y-217139D01*
X333469Y-274098D02*
Y-270162D01*
X331500Y-272130D02*
X335437D01*
X330426Y-217593D02*
Y-213656D01*
X328458Y-215624D02*
X332395D01*
X355581Y-199062D02*
Y-195125D01*
X353612Y-197094D02*
X357549D01*
X325585Y-197094D02*
X329522D01*
X327553Y-199062D02*
Y-195125D01*
X327848Y-188649D02*
Y-184713D01*
X325880Y-186681D02*
X329817D01*
X344503Y-219108D02*
X348440D01*
X346472Y-221076D02*
Y-217139D01*
X325759Y-159276D02*
Y-151240D01*
X321741Y-155258D02*
X329777D01*
X289987Y-161460D02*
Y-157523D01*
X288018Y-159492D02*
X291955D01*
X290543Y-81662D02*
X294479D01*
X292511Y-83630D02*
Y-79693D01*
X302756Y-94572D02*
Y-90635D01*
X300788Y-92604D02*
X304725D01*
X208489Y-104592D02*
Y-100655D01*
X206520Y-102623D02*
X210457D01*
X282091Y-152007D02*
Y-148070D01*
X280122Y-150039D02*
X284060D01*
X272047Y-213779D02*
X275984D01*
X274016Y-215748D02*
Y-211811D01*
X257780Y-231936D02*
Y-227999D01*
X255812Y-229967D02*
X259749D01*
X262260Y-227858D02*
X266197D01*
X264228Y-229826D02*
Y-225889D01*
X259993Y-222257D02*
Y-218320D01*
X258025Y-220289D02*
X261962D01*
X208312Y-256680D02*
Y-252743D01*
X206343Y-254711D02*
X210280D01*
X190164Y-258437D02*
X194101D01*
X192132Y-260405D02*
Y-256469D01*
X265800Y-189627D02*
Y-181590D01*
X261782Y-185609D02*
X269818D01*
X283671Y-272560D02*
Y-264524D01*
X279653Y-268542D02*
X287689D01*
X300298Y-236125D02*
Y-228088D01*
X296280Y-232106D02*
X304316D01*
X341581Y-94250D02*
Y-86214D01*
X337563Y-90232D02*
X345600D01*
X248838Y-123251D02*
Y-115215D01*
X244820Y-119233D02*
X252856D01*
X188172Y-21903D02*
Y-17966D01*
X186204Y-19934D02*
X190141D01*
X248320Y-222257D02*
Y-218320D01*
X246352Y-220289D02*
X250289D01*
X127716Y-345359D02*
X131653D01*
X129684Y-347328D02*
Y-343391D01*
X127716Y-339307D02*
X131653D01*
X129684Y-341275D02*
Y-337338D01*
X127716Y-333394D02*
X131653D01*
X129684Y-335362D02*
Y-331425D01*
X79724Y-289101D02*
X83661D01*
X81692Y-291069D02*
Y-287132D01*
X71713Y-291681D02*
Y-287744D01*
X69744Y-289712D02*
X73681D01*
X79768Y-280507D02*
X83705D01*
X81737Y-282476D02*
Y-278539D01*
X117853Y-290421D02*
Y-286484D01*
X115885Y-288452D02*
X119822D01*
X112334Y-351828D02*
Y-347891D01*
X110365Y-349860D02*
X114302D01*
X86094Y-335177D02*
X90031D01*
X88062Y-337146D02*
Y-333209D01*
X80319Y-302507D02*
X84256D01*
X82288Y-304476D02*
Y-300539D01*
X373228Y-343760D02*
Y-339823D01*
X371260Y-341791D02*
X375197D01*
X364405Y-329638D02*
Y-325701D01*
X362436Y-327669D02*
X366373D01*
X265295Y-309061D02*
X269232D01*
X267264Y-311029D02*
Y-307092D01*
X368706Y-40011D02*
X372643D01*
X370675Y-41980D02*
Y-38043D01*
X242705Y-367930D02*
X246642D01*
X244673Y-369899D02*
Y-365962D01*
X242705Y-364039D02*
X246642D01*
X244673Y-366007D02*
Y-362070D01*
X296047Y-347986D02*
Y-344049D01*
X294079Y-346018D02*
X298016D01*
X268934Y-338695D02*
Y-334758D01*
X266966Y-336726D02*
X270903D01*
X268934Y-342516D02*
Y-338579D01*
X266966Y-340548D02*
X270903D01*
X268162Y-352907D02*
Y-348970D01*
X266194Y-350939D02*
X270131D01*
X268162Y-356885D02*
Y-352948D01*
X266194Y-354916D02*
X270131D01*
X210560Y-38001D02*
Y-34064D01*
X208591Y-36032D02*
X212528D01*
X217551Y-35639D02*
X221488D01*
X219519Y-37607D02*
Y-33670D01*
X199416Y-38380D02*
X203353D01*
X201384Y-40349D02*
Y-36412D01*
X244870Y-31108D02*
X248807D01*
X246838Y-33076D02*
Y-29139D01*
X227240Y-35639D02*
X231177D01*
X229208Y-37607D02*
Y-33670D01*
M02*
