G04*
G04 #@! TF.GenerationSoftware,Altium Limited,Altium Designer,24.4.1 (13)*
G04*
G04 Layer_Color=16711935*
%FSLAX44Y44*%
%MOMM*%
G71*
G04*
G04 #@! TF.SameCoordinates,4C71B1EA-8B2D-4D6B-BE61-BD09BBC4FFF0*
G04*
G04*
G04 #@! TF.FilePolarity,Negative*
G04*
G01*
G75*
%ADD48R,0.7200X0.6700*%
%ADD54R,1.0500X1.1000*%
%ADD55R,1.1000X1.0500*%
%ADD56R,0.7200X0.7000*%
%ADD58R,0.7000X0.7200*%
%ADD61C,2.0000*%
%ADD63R,2.1200X2.1200*%
%ADD64C,2.1200*%
%ADD65C,2.1900*%
%ADD66C,5.7000*%
%ADD67C,0.1000*%
%ADD92R,1.6000X0.5500*%
%ADD93R,1.6500X0.7000*%
%ADD94R,0.9500X0.4000*%
%ADD95R,1.7000X1.7000*%
%ADD96R,1.2000X0.4000*%
%ADD97R,0.9000X1.1000*%
%ADD98R,0.7000X0.6500*%
%ADD99C,6.3000*%
%ADD100R,0.6500X0.7000*%
D48*
X99000Y226250D02*
D03*
Y216650D02*
D03*
D54*
X374500Y389088D02*
D03*
X390500D02*
D03*
X331500Y412500D02*
D03*
X315500D02*
D03*
D55*
X200650Y174955D02*
D03*
Y190955D02*
D03*
X220624Y328550D02*
D03*
Y312550D02*
D03*
D56*
X193167D02*
D03*
Y321750D02*
D03*
X206778D02*
D03*
Y312550D02*
D03*
X184407Y191350D02*
D03*
Y182150D02*
D03*
X171518Y182500D02*
D03*
Y191700D02*
D03*
D58*
X113425Y358378D02*
D03*
X122625D02*
D03*
X306100Y349750D02*
D03*
X296900D02*
D03*
D61*
X16836Y491645D02*
D03*
X492909Y492701D02*
D03*
X492478Y15188D02*
D03*
D63*
X34250Y179000D02*
D03*
D64*
X59650D02*
D03*
D65*
X192000Y484000D02*
D03*
X51000Y457000D02*
D03*
X457000Y51000D02*
D03*
Y457000D02*
D03*
X132000Y484000D02*
D03*
X102000D02*
D03*
X72000D02*
D03*
X457000Y254000D02*
D03*
X51000Y51000D02*
D03*
X162000Y484000D02*
D03*
D66*
X465000Y138000D02*
D03*
Y349000D02*
D03*
D67*
X95000Y71000D02*
D03*
X406000Y41000D02*
D03*
X413000Y452000D02*
D03*
X95000Y437000D02*
D03*
D92*
X64618Y390689D02*
D03*
X122618D02*
D03*
Y377689D02*
D03*
X64618Y371189D02*
D03*
Y377689D02*
D03*
Y384189D02*
D03*
X122618D02*
D03*
Y371189D02*
D03*
D93*
X171500Y215250D02*
D03*
Y240650D02*
D03*
X117500D02*
D03*
Y227950D02*
D03*
Y215250D02*
D03*
X171500Y227950D02*
D03*
Y253350D02*
D03*
X117500D02*
D03*
X171250Y274450D02*
D03*
X117250D02*
D03*
Y299850D02*
D03*
X171250Y312550D02*
D03*
Y299850D02*
D03*
Y287150D02*
D03*
X117250D02*
D03*
Y312550D02*
D03*
D94*
X276914Y360775D02*
D03*
Y365775D02*
D03*
Y370775D02*
D03*
Y375775D02*
D03*
X305914Y370775D02*
D03*
Y375775D02*
D03*
Y365775D02*
D03*
Y360775D02*
D03*
D95*
X291414Y368275D02*
D03*
D96*
X71500Y266500D02*
D03*
Y261500D02*
D03*
Y256500D02*
D03*
Y251500D02*
D03*
Y231500D02*
D03*
Y236500D02*
D03*
Y241500D02*
D03*
Y246500D02*
D03*
Y276500D02*
D03*
Y271500D02*
D03*
X36500D02*
D03*
Y276500D02*
D03*
Y246500D02*
D03*
Y241500D02*
D03*
Y236500D02*
D03*
Y231500D02*
D03*
Y251500D02*
D03*
Y256500D02*
D03*
Y261500D02*
D03*
Y266500D02*
D03*
D97*
X279500Y339500D02*
D03*
X264500D02*
D03*
X122500Y343710D02*
D03*
X107500D02*
D03*
D98*
X421000Y193594D02*
D03*
X412500D02*
D03*
X279005Y198941D02*
D03*
X270505D02*
D03*
X224129Y199191D02*
D03*
X232629D02*
D03*
X27250Y357460D02*
D03*
X35750D02*
D03*
X27250Y367710D02*
D03*
X35750D02*
D03*
X27285Y397960D02*
D03*
X35785D02*
D03*
X35750Y347460D02*
D03*
X27250D02*
D03*
X35750Y377710D02*
D03*
X27250D02*
D03*
X35750Y387710D02*
D03*
X27250D02*
D03*
X334750Y343750D02*
D03*
X326250D02*
D03*
X334750Y354236D02*
D03*
X326250D02*
D03*
Y334250D02*
D03*
X334750D02*
D03*
X326000Y363750D02*
D03*
X334500D02*
D03*
X394750Y274431D02*
D03*
X386250D02*
D03*
D99*
X95000Y71000D02*
D03*
X406000Y41000D02*
D03*
X413000Y452000D02*
D03*
X95000Y437000D02*
D03*
D100*
X243755Y190711D02*
D03*
Y199211D02*
D03*
X258755Y190441D02*
D03*
Y198941D02*
D03*
X338500Y382750D02*
D03*
Y374250D02*
D03*
X327500Y374500D02*
D03*
Y383000D02*
D03*
X394750Y284000D02*
D03*
Y292500D02*
D03*
X403000Y202094D02*
D03*
Y193594D02*
D03*
M02*
