G04*
G04 #@! TF.GenerationSoftware,Altium Limited,Altium Designer,23.7.1 (13)*
G04*
G04 Layer_Color=16711935*
%FSLAX25Y25*%
%MOIN*%
G70*
G04*
G04 #@! TF.SameCoordinates,27D51526-8311-448D-B6E4-34D2AC34C314*
G04*
G04*
G04 #@! TF.FilePolarity,Negative*
G04*
G01*
G75*
%ADD25R,0.02123X0.01860*%
%ADD29R,0.03740X0.02756*%
%ADD30R,0.02423X0.02254*%
%ADD35R,0.01860X0.02123*%
%ADD38R,0.02016X0.02288*%
%ADD40R,0.02288X0.02016*%
%ADD41R,0.01772X0.02657*%
%ADD82R,0.02204X0.02382*%
%ADD95R,0.02911X0.02648*%
%ADD101R,0.02756X0.02756*%
%ADD119R,0.02029X0.01860*%
%ADD121C,0.02362*%
%ADD125R,0.31496X0.13583*%
%ADD126R,1.35433X0.23032*%
%ADD127R,0.03359X0.03162*%
%ADD129R,0.02572X0.02572*%
%ADD132R,0.02572X0.02572*%
%ADD135R,0.03556X0.04343*%
%ADD136R,0.06312X0.06312*%
%ADD137R,0.06312X0.04737*%
%ADD138R,0.03162X0.03359*%
%ADD139R,0.03556X0.03359*%
%ADD140R,0.03162X0.03458*%
%ADD141R,0.02965X0.02769*%
%ADD143R,0.02769X0.02965*%
G04:AMPARAMS|DCode=149|XSize=15.87mil|YSize=31.62mil|CornerRadius=5.97mil|HoleSize=0mil|Usage=FLASHONLY|Rotation=90.000|XOffset=0mil|YOffset=0mil|HoleType=Round|Shape=RoundedRectangle|*
%AMROUNDEDRECTD149*
21,1,0.01587,0.01968,0,0,90.0*
21,1,0.00394,0.03162,0,0,90.0*
1,1,0.01194,0.00984,0.00197*
1,1,0.01194,0.00984,-0.00197*
1,1,0.01194,-0.00984,-0.00197*
1,1,0.01194,-0.00984,0.00197*
%
%ADD149ROUNDEDRECTD149*%
G04:AMPARAMS|DCode=150|XSize=15.87mil|YSize=31.62mil|CornerRadius=5.97mil|HoleSize=0mil|Usage=FLASHONLY|Rotation=180.000|XOffset=0mil|YOffset=0mil|HoleType=Round|Shape=RoundedRectangle|*
%AMROUNDEDRECTD150*
21,1,0.01587,0.01968,0,0,180.0*
21,1,0.00394,0.03162,0,0,180.0*
1,1,0.01194,-0.00197,0.00984*
1,1,0.01194,0.00197,0.00984*
1,1,0.01194,0.00197,-0.00984*
1,1,0.01194,-0.00197,-0.00984*
%
%ADD150ROUNDEDRECTD150*%
%ADD153R,0.03359X0.03359*%
%ADD154R,0.03359X0.03359*%
%ADD155R,0.03556X0.03753*%
G04:AMPARAMS|DCode=164|XSize=15.87mil|YSize=35.56mil|CornerRadius=5.97mil|HoleSize=0mil|Usage=FLASHONLY|Rotation=180.000|XOffset=0mil|YOffset=0mil|HoleType=Round|Shape=RoundedRectangle|*
%AMROUNDEDRECTD164*
21,1,0.01587,0.02362,0,0,180.0*
21,1,0.00394,0.03556,0,0,180.0*
1,1,0.01194,-0.00197,0.01181*
1,1,0.01194,0.00197,0.01181*
1,1,0.01194,0.00197,-0.01181*
1,1,0.01194,-0.00197,-0.01181*
%
%ADD164ROUNDEDRECTD164*%
%ADD171R,0.03600X0.17300*%
%ADD172R,0.03600X0.13400*%
%ADD173R,0.04934X0.05131*%
%ADD183R,0.02965X0.02965*%
%ADD184C,0.07099*%
%ADD185R,0.07099X0.07099*%
%ADD186R,0.08674X0.08674*%
%ADD187C,0.00800*%
%ADD188C,0.14186*%
%ADD189C,0.05721*%
%ADD190C,0.10827*%
%ADD191R,0.10827X0.10827*%
%ADD192C,0.11800*%
%ADD193R,0.05472X0.05472*%
%ADD194C,0.05472*%
%ADD195R,0.02362X0.02362*%
G04:AMPARAMS|DCode=196|XSize=35.43mil|YSize=74.8mil|CornerRadius=17.72mil|HoleSize=0mil|Usage=FLASHONLY|Rotation=270.000|XOffset=0mil|YOffset=0mil|HoleType=Round|Shape=RoundedRectangle|*
%AMROUNDEDRECTD196*
21,1,0.03543,0.03937,0,0,270.0*
21,1,0.00000,0.07480,0,0,270.0*
1,1,0.03543,-0.01968,0.00000*
1,1,0.03543,-0.01968,0.00000*
1,1,0.03543,0.01968,0.00000*
1,1,0.03543,0.01968,0.00000*
%
%ADD196ROUNDEDRECTD196*%
%ADD197C,0.18300*%
%ADD198C,0.04540*%
%ADD199C,0.06312*%
%ADD200O,0.11824X0.05524*%
%ADD201O,0.09855X0.05524*%
%ADD202C,0.14383*%
%ADD203C,0.06391*%
%ADD204R,0.07099X0.07099*%
%ADD205C,0.25800*%
%ADD206C,0.06300*%
%ADD207C,0.07087*%
%ADD208C,0.06693*%
%ADD209C,0.09461*%
%ADD210R,0.08674X0.08674*%
%ADD211C,0.02400*%
%ADD212C,0.02769*%
%ADD213C,0.02600*%
%ADD214C,0.02800*%
%ADD265R,0.02657X0.01772*%
%ADD276R,0.01772X0.00787*%
%ADD277R,0.01772X0.02165*%
%ADD284R,0.02165X0.01772*%
%ADD285R,0.00787X0.01772*%
%ADD286R,0.05512X0.03937*%
%ADD287R,0.01575X0.01968*%
%ADD288R,0.02985X0.03197*%
%ADD291R,0.04331X0.03937*%
%ADD294R,0.03543X0.02953*%
%ADD296R,0.02953X0.03543*%
%ADD298R,0.02254X0.02423*%
%ADD299R,0.02756X0.02756*%
%ADD300R,0.04355X0.03773*%
G04:AMPARAMS|DCode=302|XSize=40.88mil|YSize=20.95mil|CornerRadius=10.48mil|HoleSize=0mil|Usage=FLASHONLY|Rotation=90.000|XOffset=0mil|YOffset=0mil|HoleType=Round|Shape=RoundedRectangle|*
%AMROUNDEDRECTD302*
21,1,0.04088,0.00000,0,0,90.0*
21,1,0.01993,0.02095,0,0,90.0*
1,1,0.02095,0.00000,0.00996*
1,1,0.02095,0.00000,-0.00996*
1,1,0.02095,0.00000,-0.00996*
1,1,0.02095,0.00000,0.00996*
%
%ADD302ROUNDEDRECTD302*%
%ADD303R,0.02095X0.04088*%
%ADD310R,0.02681X0.02410*%
%ADD311R,0.02410X0.02681*%
%ADD312R,0.04724X0.05512*%
%ADD313R,0.02047X0.02047*%
%ADD314R,0.02047X0.02047*%
G04:AMPARAMS|DCode=315|XSize=61.02mil|YSize=23.62mil|CornerRadius=2.01mil|HoleSize=0mil|Usage=FLASHONLY|Rotation=270.000|XOffset=0mil|YOffset=0mil|HoleType=Round|Shape=RoundedRectangle|*
%AMROUNDEDRECTD315*
21,1,0.06102,0.01961,0,0,270.0*
21,1,0.05701,0.02362,0,0,270.0*
1,1,0.00402,-0.00980,-0.02850*
1,1,0.00402,-0.00980,0.02850*
1,1,0.00402,0.00980,0.02850*
1,1,0.00402,0.00980,-0.02850*
%
%ADD315ROUNDEDRECTD315*%
G04:AMPARAMS|DCode=317|XSize=61.02mil|YSize=23.62mil|CornerRadius=2.01mil|HoleSize=0mil|Usage=FLASHONLY|Rotation=0.000|XOffset=0mil|YOffset=0mil|HoleType=Round|Shape=RoundedRectangle|*
%AMROUNDEDRECTD317*
21,1,0.06102,0.01961,0,0,0.0*
21,1,0.05701,0.02362,0,0,0.0*
1,1,0.00402,0.02850,-0.00980*
1,1,0.00402,-0.02850,-0.00980*
1,1,0.00402,-0.02850,0.00980*
1,1,0.00402,0.02850,0.00980*
%
%ADD317ROUNDEDRECTD317*%
%ADD319R,0.03359X0.03556*%
%ADD320O,0.03556X0.10642*%
%ADD321R,0.03084X0.02926*%
%ADD322R,0.03458X0.03162*%
%ADD323R,0.02965X0.02965*%
%ADD324R,0.13543X0.13543*%
%ADD325O,0.03268X0.01654*%
%ADD326O,0.01654X0.03268*%
%ADD327R,0.03400X0.08800*%
G04:AMPARAMS|DCode=328|XSize=25.72mil|YSize=63.12mil|CornerRadius=5.95mil|HoleSize=0mil|Usage=FLASHONLY|Rotation=90.000|XOffset=0mil|YOffset=0mil|HoleType=Round|Shape=RoundedRectangle|*
%AMROUNDEDRECTD328*
21,1,0.02572,0.05122,0,0,90.0*
21,1,0.01382,0.06312,0,0,90.0*
1,1,0.01190,0.02561,0.00691*
1,1,0.01190,0.02561,-0.00691*
1,1,0.01190,-0.02561,-0.00691*
1,1,0.01190,-0.02561,0.00691*
%
%ADD328ROUNDEDRECTD328*%
%ADD329R,0.07296X0.01981*%
%ADD330R,0.01981X0.07296*%
G04:AMPARAMS|DCode=331|XSize=25.72mil|YSize=53.28mil|CornerRadius=5.95mil|HoleSize=0mil|Usage=FLASHONLY|Rotation=0.000|XOffset=0mil|YOffset=0mil|HoleType=Round|Shape=RoundedRectangle|*
%AMROUNDEDRECTD331*
21,1,0.02572,0.04138,0,0,0.0*
21,1,0.01382,0.05328,0,0,0.0*
1,1,0.01190,0.00691,-0.02069*
1,1,0.01190,-0.00691,-0.02069*
1,1,0.01190,-0.00691,0.02069*
1,1,0.01190,0.00691,0.02069*
%
%ADD331ROUNDEDRECTD331*%
%ADD332R,0.03950X0.02965*%
%ADD333R,0.04737X0.04343*%
%ADD334R,0.03162X0.06902*%
%ADD335R,0.02769X0.02808*%
%ADD336R,0.02847X0.03005*%
%ADD337R,0.03556X0.01784*%
%ADD338R,0.07493X0.07099*%
%ADD339R,0.04343X0.04737*%
%ADD340R,0.04147X0.01981*%
%ADD341R,0.03753X0.04147*%
G04:AMPARAMS|DCode=342|XSize=90.68mil|YSize=90.68mil|CornerRadius=6.07mil|HoleSize=0mil|Usage=FLASHONLY|Rotation=180.000|XOffset=0mil|YOffset=0mil|HoleType=Round|Shape=RoundedRectangle|*
%AMROUNDEDRECTD342*
21,1,0.09068,0.07854,0,0,180.0*
21,1,0.07854,0.09068,0,0,180.0*
1,1,0.01213,-0.03927,0.03927*
1,1,0.01213,0.03927,0.03927*
1,1,0.01213,0.03927,-0.03927*
1,1,0.01213,-0.03927,-0.03927*
%
%ADD342ROUNDEDRECTD342*%
G04:AMPARAMS|DCode=343|XSize=19.81mil|YSize=37.53mil|CornerRadius=5.95mil|HoleSize=0mil|Usage=FLASHONLY|Rotation=180.000|XOffset=0mil|YOffset=0mil|HoleType=Round|Shape=RoundedRectangle|*
%AMROUNDEDRECTD343*
21,1,0.01981,0.02563,0,0,180.0*
21,1,0.00791,0.03753,0,0,180.0*
1,1,0.01190,-0.00396,0.01282*
1,1,0.01190,0.00396,0.01282*
1,1,0.01190,0.00396,-0.01282*
1,1,0.01190,-0.00396,-0.01282*
%
%ADD343ROUNDEDRECTD343*%
G04:AMPARAMS|DCode=344|XSize=19.81mil|YSize=37.53mil|CornerRadius=5.95mil|HoleSize=0mil|Usage=FLASHONLY|Rotation=90.000|XOffset=0mil|YOffset=0mil|HoleType=Round|Shape=RoundedRectangle|*
%AMROUNDEDRECTD344*
21,1,0.01981,0.02563,0,0,90.0*
21,1,0.00791,0.03753,0,0,90.0*
1,1,0.01190,0.01282,0.00396*
1,1,0.01190,0.01282,-0.00396*
1,1,0.01190,-0.01282,-0.00396*
1,1,0.01190,-0.01282,0.00396*
%
%ADD344ROUNDEDRECTD344*%
%ADD345R,0.04540X0.03950*%
%ADD346R,0.03320X0.03477*%
%ADD347R,0.05328X0.06509*%
G36*
X496328Y-219178D02*
X496383Y-219234D01*
X496413Y-219306D01*
Y-219345D01*
Y-219739D01*
Y-219778D01*
X496383Y-219850D01*
X496328Y-219906D01*
X496255Y-219936D01*
X495193D01*
X495120Y-219906D01*
X495065Y-219850D01*
X495035Y-219778D01*
Y-219739D01*
Y-219345D01*
Y-219306D01*
X495065Y-219234D01*
X495120Y-219178D01*
X495193Y-219148D01*
X496255D01*
X496328Y-219178D01*
D02*
G37*
G36*
X493965D02*
X494021Y-219234D01*
X494051Y-219306D01*
Y-219345D01*
Y-219739D01*
Y-219778D01*
X494021Y-219850D01*
X493965Y-219906D01*
X493893Y-219936D01*
X493027D01*
X492955Y-219906D01*
X492900Y-219850D01*
X492870Y-219778D01*
Y-219739D01*
Y-219345D01*
Y-219306D01*
X492900Y-219234D01*
X492955Y-219178D01*
X493027Y-219148D01*
X493893D01*
X493965Y-219178D01*
D02*
G37*
G36*
X496328Y-221147D02*
X496383Y-221202D01*
X496413Y-221274D01*
Y-221314D01*
Y-221707D01*
Y-221746D01*
X496383Y-221819D01*
X496328Y-221874D01*
X496255Y-221904D01*
X495390D01*
X495317Y-221874D01*
X495262Y-221819D01*
X495232Y-221746D01*
Y-221707D01*
Y-221314D01*
Y-221274D01*
X495262Y-221202D01*
X495317Y-221147D01*
X495390Y-221117D01*
X496255D01*
X496328Y-221147D01*
D02*
G37*
G36*
X493965D02*
X494021Y-221202D01*
X494051Y-221274D01*
Y-221314D01*
Y-221707D01*
Y-221746D01*
X494021Y-221819D01*
X493965Y-221874D01*
X493893Y-221904D01*
X493027D01*
X492955Y-221874D01*
X492900Y-221819D01*
X492870Y-221746D01*
Y-221707D01*
Y-221314D01*
Y-221274D01*
X492900Y-221202D01*
X492955Y-221147D01*
X493027Y-221117D01*
X493893D01*
X493965Y-221147D01*
D02*
G37*
G36*
X496328Y-223115D02*
X496383Y-223171D01*
X496413Y-223243D01*
Y-223282D01*
Y-223676D01*
Y-223715D01*
X496383Y-223787D01*
X496328Y-223843D01*
X496255Y-223873D01*
X495390D01*
X495317Y-223843D01*
X495262Y-223787D01*
X495232Y-223715D01*
Y-223676D01*
Y-223282D01*
Y-223243D01*
X495262Y-223171D01*
X495317Y-223115D01*
X495390Y-223085D01*
X496255D01*
X496328Y-223115D01*
D02*
G37*
G36*
X493965D02*
X494021Y-223171D01*
X494051Y-223243D01*
Y-223282D01*
Y-223676D01*
Y-223715D01*
X494021Y-223787D01*
X493965Y-223843D01*
X493893Y-223873D01*
X493027D01*
X492955Y-223843D01*
X492900Y-223787D01*
X492870Y-223715D01*
Y-223676D01*
Y-223282D01*
Y-223243D01*
X492900Y-223171D01*
X492955Y-223115D01*
X493027Y-223085D01*
X493893D01*
X493965Y-223115D01*
D02*
G37*
G36*
X493255Y-210225D02*
X493310Y-210280D01*
X493340Y-210352D01*
Y-210391D01*
Y-210785D01*
Y-210824D01*
X493310Y-210897D01*
X493255Y-210952D01*
X493183Y-210982D01*
X492120D01*
X492048Y-210952D01*
X491993Y-210897D01*
X491962Y-210824D01*
Y-210785D01*
Y-210391D01*
Y-210352D01*
X491993Y-210280D01*
X492048Y-210225D01*
X492120Y-210194D01*
X493183D01*
X493255Y-210225D01*
D02*
G37*
G36*
X490893D02*
X490948Y-210280D01*
X490978Y-210352D01*
Y-210391D01*
Y-210785D01*
Y-210824D01*
X490948Y-210897D01*
X490893Y-210952D01*
X490821Y-210982D01*
X489955D01*
X489883Y-210952D01*
X489827Y-210897D01*
X489797Y-210824D01*
Y-210785D01*
Y-210391D01*
Y-210352D01*
X489827Y-210280D01*
X489883Y-210225D01*
X489955Y-210194D01*
X490821D01*
X490893Y-210225D01*
D02*
G37*
G36*
X493255Y-212193D02*
X493310Y-212248D01*
X493340Y-212321D01*
Y-212360D01*
Y-212754D01*
Y-212793D01*
X493310Y-212865D01*
X493255Y-212920D01*
X493183Y-212950D01*
X492317D01*
X492245Y-212920D01*
X492189Y-212865D01*
X492159Y-212793D01*
Y-212754D01*
Y-212360D01*
Y-212321D01*
X492189Y-212248D01*
X492245Y-212193D01*
X492317Y-212163D01*
X493183D01*
X493255Y-212193D01*
D02*
G37*
G36*
X490893D02*
X490948Y-212248D01*
X490978Y-212321D01*
Y-212360D01*
Y-212754D01*
Y-212793D01*
X490948Y-212865D01*
X490893Y-212920D01*
X490821Y-212950D01*
X489955D01*
X489883Y-212920D01*
X489827Y-212865D01*
X489797Y-212793D01*
Y-212754D01*
Y-212360D01*
Y-212321D01*
X489827Y-212248D01*
X489883Y-212193D01*
X489955Y-212163D01*
X490821D01*
X490893Y-212193D01*
D02*
G37*
G36*
X493255Y-214161D02*
X493310Y-214217D01*
X493340Y-214289D01*
Y-214328D01*
Y-214722D01*
Y-214761D01*
X493310Y-214834D01*
X493255Y-214889D01*
X493183Y-214919D01*
X492317D01*
X492245Y-214889D01*
X492189Y-214834D01*
X492159Y-214761D01*
Y-214722D01*
Y-214328D01*
Y-214289D01*
X492189Y-214217D01*
X492245Y-214161D01*
X492317Y-214131D01*
X493183D01*
X493255Y-214161D01*
D02*
G37*
G36*
X490893D02*
X490948Y-214217D01*
X490978Y-214289D01*
Y-214328D01*
Y-214722D01*
Y-214761D01*
X490948Y-214834D01*
X490893Y-214889D01*
X490821Y-214919D01*
X489955D01*
X489883Y-214889D01*
X489827Y-214834D01*
X489797Y-214761D01*
Y-214722D01*
Y-214328D01*
Y-214289D01*
X489827Y-214217D01*
X489883Y-214161D01*
X489955Y-214131D01*
X490821D01*
X490893Y-214161D01*
D02*
G37*
D25*
X434045Y-273385D02*
D03*
X431159D02*
D03*
X434019Y-269416D02*
D03*
X431133D02*
D03*
X141915Y-288847D02*
D03*
X139028D02*
D03*
D29*
X111991Y-287291D02*
D03*
X118487D02*
D03*
Y-279631D02*
D03*
X111991D02*
D03*
X38032Y-342159D02*
D03*
X31536D02*
D03*
X39863Y-354991D02*
D03*
X33367D02*
D03*
D30*
X18906Y-320440D02*
D03*
X22281D02*
D03*
X39369Y-349357D02*
D03*
X35995D02*
D03*
D35*
X208202Y-126096D02*
D03*
Y-123209D02*
D03*
X212064Y-126166D02*
D03*
Y-123280D02*
D03*
X424631Y-204759D02*
D03*
Y-201873D02*
D03*
X420506Y-204857D02*
D03*
Y-201971D02*
D03*
X32836Y-316162D02*
D03*
Y-319048D02*
D03*
X38386Y-319146D02*
D03*
Y-316260D02*
D03*
D38*
X401889Y-299924D02*
D03*
Y-302802D02*
D03*
X339051Y-315700D02*
D03*
Y-312822D02*
D03*
X333010Y-315349D02*
D03*
Y-312471D02*
D03*
X344356Y-339618D02*
D03*
Y-336740D02*
D03*
X368747Y-270690D02*
D03*
Y-267812D02*
D03*
X363035Y-302107D02*
D03*
Y-304985D02*
D03*
X391718Y-298773D02*
D03*
Y-301651D02*
D03*
X381165Y-298773D02*
D03*
Y-301651D02*
D03*
X425604Y-299909D02*
D03*
Y-297031D02*
D03*
X448823Y-302165D02*
D03*
Y-305043D02*
D03*
X419198Y-320856D02*
D03*
Y-323735D02*
D03*
X423336Y-320919D02*
D03*
Y-323798D02*
D03*
X420158Y-333016D02*
D03*
Y-335894D02*
D03*
X431311Y-333016D02*
D03*
Y-335894D02*
D03*
X432074Y-343153D02*
D03*
Y-340274D02*
D03*
X452498Y-344438D02*
D03*
Y-341560D02*
D03*
X428149Y-356853D02*
D03*
Y-353974D02*
D03*
X440969Y-355032D02*
D03*
Y-352153D02*
D03*
X399669Y-359639D02*
D03*
Y-362517D02*
D03*
X385002Y-356992D02*
D03*
Y-359871D02*
D03*
X401716Y-336829D02*
D03*
Y-333951D02*
D03*
X355251Y-338672D02*
D03*
Y-335793D02*
D03*
X335938Y-354876D02*
D03*
Y-357754D02*
D03*
X357074Y-355171D02*
D03*
Y-358050D02*
D03*
X316629Y-185271D02*
D03*
Y-188149D02*
D03*
X338900Y-132012D02*
D03*
Y-134890D02*
D03*
X528165Y-178610D02*
D03*
Y-181488D02*
D03*
X540882Y-179391D02*
D03*
Y-182269D02*
D03*
X511094Y-178905D02*
D03*
Y-181783D02*
D03*
X41065Y-297396D02*
D03*
Y-300274D02*
D03*
X22748Y-284510D02*
D03*
Y-281632D02*
D03*
X109510Y-268246D02*
D03*
Y-271124D02*
D03*
X103211Y-268246D02*
D03*
Y-271124D02*
D03*
X84033Y-266868D02*
D03*
Y-269746D02*
D03*
X78718Y-266868D02*
D03*
Y-269746D02*
D03*
X38158Y-334583D02*
D03*
Y-337461D02*
D03*
X109524Y-226606D02*
D03*
Y-223728D02*
D03*
X109547Y-215100D02*
D03*
Y-217978D02*
D03*
X114469Y-226606D02*
D03*
Y-223728D02*
D03*
X114848Y-215100D02*
D03*
Y-217978D02*
D03*
X115945Y-58632D02*
D03*
Y-55754D02*
D03*
Y-49398D02*
D03*
Y-52276D02*
D03*
X114670Y-132394D02*
D03*
Y-135273D02*
D03*
X114848Y-141781D02*
D03*
Y-138903D02*
D03*
X109040Y-132134D02*
D03*
Y-135012D02*
D03*
Y-141902D02*
D03*
Y-139024D02*
D03*
X104834Y-39182D02*
D03*
Y-42060D02*
D03*
X109827Y-58632D02*
D03*
Y-55754D02*
D03*
X534252Y-212260D02*
D03*
Y-209382D02*
D03*
X529173Y-219315D02*
D03*
Y-216437D02*
D03*
D40*
X327726Y-314261D02*
D03*
X324848D02*
D03*
X278061Y-345307D02*
D03*
X275183D02*
D03*
X347927Y-300752D02*
D03*
X345049D02*
D03*
X352125Y-313248D02*
D03*
X349247D02*
D03*
X368321Y-283981D02*
D03*
X365443D02*
D03*
X370896Y-307656D02*
D03*
X373775D02*
D03*
X382454Y-280340D02*
D03*
X379576D02*
D03*
X378701Y-267264D02*
D03*
X375823D02*
D03*
X392985Y-275324D02*
D03*
X395864D02*
D03*
X397682Y-270454D02*
D03*
X400560D02*
D03*
X408211Y-296223D02*
D03*
X405333D02*
D03*
X428427Y-287222D02*
D03*
X431306D02*
D03*
X416959Y-314918D02*
D03*
X414081D02*
D03*
X430439Y-310000D02*
D03*
X433317D02*
D03*
X414193Y-323079D02*
D03*
X411315D02*
D03*
X404529Y-353241D02*
D03*
X407407D02*
D03*
X387739Y-347319D02*
D03*
X390618D02*
D03*
X384252Y-334147D02*
D03*
X387130D02*
D03*
X375527Y-336756D02*
D03*
X378406D02*
D03*
X375395Y-342722D02*
D03*
X378274D02*
D03*
X321018Y-210585D02*
D03*
X318140D02*
D03*
X146593Y-304870D02*
D03*
X143715D02*
D03*
X557833Y-186806D02*
D03*
X554955D02*
D03*
X35331Y-295474D02*
D03*
X32453D02*
D03*
X135153Y-272729D02*
D03*
X138031D02*
D03*
X149876Y-251301D02*
D03*
X152754D02*
D03*
X149876Y-256615D02*
D03*
X152754D02*
D03*
X406262Y-53007D02*
D03*
X403384D02*
D03*
X410962D02*
D03*
X413841D02*
D03*
X420209Y-68583D02*
D03*
X423087D02*
D03*
X415308D02*
D03*
X412430D02*
D03*
X394772Y-95374D02*
D03*
X391893D02*
D03*
X343213Y-212680D02*
D03*
X340335D02*
D03*
D41*
X328165Y-319044D02*
D03*
X324523D02*
D03*
X348165Y-305187D02*
D03*
X344523D02*
D03*
X370978Y-302524D02*
D03*
X374620D02*
D03*
X392870Y-280198D02*
D03*
X389228D02*
D03*
X397300Y-265717D02*
D03*
X400942D02*
D03*
X428187Y-282426D02*
D03*
X431828D02*
D03*
X430254Y-315019D02*
D03*
X433895D02*
D03*
X404443Y-359750D02*
D03*
X408084D02*
D03*
X400555Y-347080D02*
D03*
X404196D02*
D03*
X387407Y-341828D02*
D03*
X391049D02*
D03*
D82*
X124092Y-285349D02*
D03*
Y-288321D02*
D03*
Y-281527D02*
D03*
Y-278556D02*
D03*
D95*
X433665Y-169315D02*
D03*
X429991D02*
D03*
X433530Y-254897D02*
D03*
X429856D02*
D03*
D101*
X12277Y-340634D02*
D03*
Y-335122D02*
D03*
X333465Y-234834D02*
D03*
Y-240346D02*
D03*
X346695Y-240838D02*
D03*
Y-235326D02*
D03*
X340825Y-240897D02*
D03*
Y-235385D02*
D03*
X296556Y13637D02*
D03*
Y8125D02*
D03*
X187959Y9314D02*
D03*
Y3802D02*
D03*
X390190Y-18016D02*
D03*
Y-23528D02*
D03*
D119*
X45310Y-342159D02*
D03*
X42329D02*
D03*
D121*
X896Y-356916D02*
D03*
X4439D02*
D03*
X6211Y-353845D02*
D03*
X7982Y-356916D02*
D03*
X9754Y-353845D02*
D03*
X11526Y-356916D02*
D03*
X13297Y-353845D02*
D03*
X15069Y-356916D02*
D03*
X16841Y-353845D02*
D03*
X18612Y-356916D02*
D03*
X20384Y-353845D02*
D03*
X22155Y-356916D02*
D03*
X23927Y-353845D02*
D03*
D125*
X118504Y-390698D02*
D03*
D126*
X216142Y-404084D02*
D03*
D127*
X399939Y-319114D02*
D03*
X403285D02*
D03*
X304391Y-344299D02*
D03*
X307737D02*
D03*
X303997Y-338372D02*
D03*
X307343D02*
D03*
X288966Y-347036D02*
D03*
X285619D02*
D03*
X318302Y-143744D02*
D03*
X314956D02*
D03*
X371883Y-145076D02*
D03*
X375229D02*
D03*
X376713Y-168763D02*
D03*
X380060D02*
D03*
X376713Y-172725D02*
D03*
X380060D02*
D03*
X498253Y-178066D02*
D03*
X501599D02*
D03*
X493655Y-188218D02*
D03*
X497001D02*
D03*
X86003Y-136757D02*
D03*
X82657D02*
D03*
X80964Y-225723D02*
D03*
X84311D02*
D03*
X511412Y-65285D02*
D03*
X514759D02*
D03*
X29824Y-274659D02*
D03*
X33170D02*
D03*
X82657Y-129202D02*
D03*
X86003D02*
D03*
X82657Y-121927D02*
D03*
X86003D02*
D03*
X86212Y-125519D02*
D03*
X89559D02*
D03*
X82657Y-145634D02*
D03*
X86003D02*
D03*
X82657Y-150133D02*
D03*
X86003D02*
D03*
Y-140857D02*
D03*
X82657D02*
D03*
Y-133134D02*
D03*
X86003D02*
D03*
X84311Y-217514D02*
D03*
X80964D02*
D03*
X84311Y-204503D02*
D03*
X80964D02*
D03*
X84311Y-229794D02*
D03*
X80964D02*
D03*
X84311Y-233970D02*
D03*
X80964D02*
D03*
X84502Y-209039D02*
D03*
X87849D02*
D03*
X84311Y-213416D02*
D03*
X80964D02*
D03*
X84311Y-221638D02*
D03*
X80964D02*
D03*
X82775Y-68927D02*
D03*
X86122D02*
D03*
X82775Y-56722D02*
D03*
X86122D02*
D03*
X89743Y-43327D02*
D03*
X86397D02*
D03*
X82775Y-64451D02*
D03*
X86122D02*
D03*
X86122Y-60088D02*
D03*
X82776D02*
D03*
X82775Y-39508D02*
D03*
X86122D02*
D03*
X82776Y-52734D02*
D03*
X86122D02*
D03*
Y-48559D02*
D03*
X82776D02*
D03*
X284113Y-124801D02*
D03*
X287460D02*
D03*
X284507Y-120007D02*
D03*
X287854D02*
D03*
X323444Y-123420D02*
D03*
X320098D02*
D03*
X336295Y-115256D02*
D03*
X332948D02*
D03*
X336295Y-119079D02*
D03*
X332948D02*
D03*
X284901Y-111806D02*
D03*
X288247D02*
D03*
X322925Y-112402D02*
D03*
X319579D02*
D03*
X343447Y-208380D02*
D03*
X340100D02*
D03*
D129*
X250855Y-379480D02*
D03*
X254004D02*
D03*
X250814Y-375323D02*
D03*
X253963D02*
D03*
X361915Y-66369D02*
D03*
X358766D02*
D03*
X489994Y-183950D02*
D03*
X493144D02*
D03*
X490122Y-179079D02*
D03*
X493272D02*
D03*
X489809Y-169626D02*
D03*
X492959D02*
D03*
X489752Y-166173D02*
D03*
X492902D02*
D03*
X8113Y-324758D02*
D03*
X4963D02*
D03*
X46270Y12267D02*
D03*
X43121D02*
D03*
X255706Y-1115D02*
D03*
X258856D02*
D03*
X255706Y3007D02*
D03*
X258856D02*
D03*
X150898Y-673D02*
D03*
X147749D02*
D03*
Y-5185D02*
D03*
X150898D02*
D03*
D132*
X274048Y-366340D02*
D03*
Y-363190D02*
D03*
X257923Y-363494D02*
D03*
Y-360344D02*
D03*
X268610Y-354865D02*
D03*
Y-351716D02*
D03*
X270478Y-366340D02*
D03*
Y-363190D02*
D03*
X254258Y-363485D02*
D03*
Y-360336D02*
D03*
X265245Y-354964D02*
D03*
Y-351814D02*
D03*
X329999Y-133985D02*
D03*
Y-130835D02*
D03*
X318466Y-133858D02*
D03*
Y-130709D02*
D03*
X325911Y-133827D02*
D03*
Y-130677D02*
D03*
X322165Y-133985D02*
D03*
Y-130835D02*
D03*
X545882Y-269390D02*
D03*
Y-266241D02*
D03*
X540882Y-266079D02*
D03*
Y-269229D02*
D03*
X432763Y-27946D02*
D03*
Y-24797D02*
D03*
X428885Y-27946D02*
D03*
Y-24797D02*
D03*
D135*
X396358Y-70844D02*
D03*
X390846D02*
D03*
D136*
X369882Y-70498D02*
D03*
D137*
Y-63805D02*
D03*
X378543D02*
D03*
Y-71285D02*
D03*
D138*
X413236Y-333746D02*
D03*
Y-337092D02*
D03*
X276622Y-303248D02*
D03*
Y-306594D02*
D03*
X283000Y-307327D02*
D03*
Y-303980D02*
D03*
X358766Y-73628D02*
D03*
Y-70281D02*
D03*
X295187Y-163131D02*
D03*
Y-166478D02*
D03*
X301230Y-165297D02*
D03*
Y-168643D02*
D03*
X306563Y-166084D02*
D03*
Y-169431D02*
D03*
X334228Y-134083D02*
D03*
Y-130737D02*
D03*
X307492Y-220530D02*
D03*
Y-217184D02*
D03*
X313093Y-220530D02*
D03*
Y-217184D02*
D03*
X304933Y-183765D02*
D03*
Y-180418D02*
D03*
X322837Y-175875D02*
D03*
Y-179222D02*
D03*
X316984Y-175875D02*
D03*
Y-179222D02*
D03*
X312174Y-166272D02*
D03*
Y-169618D02*
D03*
X505158Y-165677D02*
D03*
Y-169024D02*
D03*
X498983Y-169403D02*
D03*
Y-172749D02*
D03*
X477662Y-79858D02*
D03*
Y-76512D02*
D03*
X18069Y-275732D02*
D03*
Y-279078D02*
D03*
X24903Y-291989D02*
D03*
Y-288642D02*
D03*
X379331Y-94094D02*
D03*
Y-97441D02*
D03*
X402461Y-89164D02*
D03*
Y-85818D02*
D03*
X302944Y-133957D02*
D03*
Y-130610D02*
D03*
X299023Y-133957D02*
D03*
Y-130610D02*
D03*
X309715Y-134350D02*
D03*
Y-131004D02*
D03*
X294385Y-100098D02*
D03*
Y-103445D02*
D03*
X498220Y-127771D02*
D03*
Y-124425D02*
D03*
X503177Y-127876D02*
D03*
Y-124530D02*
D03*
D139*
X208116Y-119133D02*
D03*
X211856D02*
D03*
X424325Y-197226D02*
D03*
X420585D02*
D03*
D140*
X400707Y-356266D02*
D03*
Y-351542D02*
D03*
X392807Y-270158D02*
D03*
Y-265434D02*
D03*
X423538Y-287720D02*
D03*
Y-282996D02*
D03*
X383821Y-343142D02*
D03*
Y-338418D02*
D03*
X377993Y-276207D02*
D03*
Y-271483D02*
D03*
X397131Y-342154D02*
D03*
Y-337430D02*
D03*
X367169Y-301526D02*
D03*
Y-306250D02*
D03*
X352169Y-304325D02*
D03*
Y-309049D02*
D03*
X368547Y-279636D02*
D03*
Y-274912D02*
D03*
D141*
X264294Y-348020D02*
D03*
X261341D02*
D03*
X254259Y-371516D02*
D03*
X251306D02*
D03*
X432509Y-321227D02*
D03*
X435462D02*
D03*
X135728Y-343537D02*
D03*
X132776D02*
D03*
D143*
X266660Y-363288D02*
D03*
Y-366241D02*
D03*
X250590Y-360434D02*
D03*
Y-363387D02*
D03*
X332025Y-320127D02*
D03*
Y-323079D02*
D03*
D149*
X420079Y-77792D02*
D03*
Y-76217D02*
D03*
Y-74642D02*
D03*
X413779Y-77792D02*
D03*
Y-76217D02*
D03*
Y-74642D02*
D03*
X410859Y-61628D02*
D03*
Y-60053D02*
D03*
Y-58478D02*
D03*
X404560Y-61628D02*
D03*
Y-60053D02*
D03*
Y-58478D02*
D03*
D150*
X417717Y-73855D02*
D03*
X416142Y-78579D02*
D03*
Y-73855D02*
D03*
X408497Y-57691D02*
D03*
X406922Y-62415D02*
D03*
Y-57691D02*
D03*
D153*
X115238Y-356249D02*
D03*
Y-352312D02*
D03*
X78325Y-256813D02*
D03*
Y-260750D02*
D03*
X63187Y-279767D02*
D03*
Y-275830D02*
D03*
X26084Y-343947D02*
D03*
Y-340010D02*
D03*
X13704Y-317933D02*
D03*
Y-321870D02*
D03*
D154*
X53622Y-269685D02*
D03*
X57559D02*
D03*
X131481Y-339787D02*
D03*
X127544D02*
D03*
X147813Y-344260D02*
D03*
X151750D02*
D03*
X151498Y-348952D02*
D03*
X147561D02*
D03*
D155*
X54478Y-334467D02*
D03*
Y-338208D02*
D03*
D164*
X417717Y-78382D02*
D03*
X408497Y-62218D02*
D03*
D171*
X162992Y-401427D02*
D03*
X225984D02*
D03*
X233858D02*
D03*
X261417D02*
D03*
X277165D02*
D03*
X245669D02*
D03*
X265354D02*
D03*
X249606D02*
D03*
X202362D02*
D03*
X214173D02*
D03*
X229921D02*
D03*
X178740D02*
D03*
X174803D02*
D03*
X170866D02*
D03*
X166929D02*
D03*
X190551D02*
D03*
X206299D02*
D03*
X210236D02*
D03*
X218110D02*
D03*
X222047D02*
D03*
X253543D02*
D03*
X237795D02*
D03*
X257480D02*
D03*
X269291D02*
D03*
X273228D02*
D03*
X241732D02*
D03*
X182677D02*
D03*
X186614D02*
D03*
X155118D02*
D03*
X159055D02*
D03*
X281102D02*
D03*
D172*
X151181Y-399477D02*
D03*
D173*
X276832Y-86846D02*
D03*
X271320D02*
D03*
X364939Y-3936D02*
D03*
X359427D02*
D03*
D183*
X310300Y-147748D02*
D03*
X313843D02*
D03*
X375086Y-136806D02*
D03*
X371543D02*
D03*
X375286Y-133099D02*
D03*
X371743D02*
D03*
X375418Y-140494D02*
D03*
X371875D02*
D03*
X22155Y-299918D02*
D03*
X25699D02*
D03*
X319480Y-108605D02*
D03*
X323024D02*
D03*
X287263Y-115556D02*
D03*
X283720D02*
D03*
D184*
X247881Y-309138D02*
D03*
Y-319138D02*
D03*
Y-329138D02*
D03*
X235881Y-309080D02*
D03*
Y-319079D02*
D03*
Y-329080D02*
D03*
X259807Y-309138D02*
D03*
Y-319138D02*
D03*
Y-329138D02*
D03*
X246049Y-44625D02*
D03*
X256049D02*
D03*
X266049D02*
D03*
D185*
X247881Y-339138D02*
D03*
X235881Y-339079D02*
D03*
X259807Y-339138D02*
D03*
D186*
X13583Y-166349D02*
D03*
X-6102Y-144026D02*
D03*
Y-110246D02*
D03*
X33268D02*
D03*
X52953Y-166349D02*
D03*
X72638Y-110246D02*
D03*
Y-132608D02*
D03*
Y-153868D02*
D03*
X92323Y-166349D02*
D03*
X112008Y-110246D02*
D03*
X131693Y-166349D02*
D03*
X14370Y-82215D02*
D03*
X-5315Y-59892D02*
D03*
Y-26112D02*
D03*
X34055D02*
D03*
X53740Y-82215D02*
D03*
X73425Y-26112D02*
D03*
Y-48474D02*
D03*
Y-69734D02*
D03*
X93110Y-82215D02*
D03*
X112795Y-26112D02*
D03*
X132480Y-82215D02*
D03*
X13583Y-249050D02*
D03*
X-6102Y-226727D02*
D03*
Y-192948D02*
D03*
X33268D02*
D03*
X52953Y-249050D02*
D03*
X72638Y-192948D02*
D03*
Y-215310D02*
D03*
Y-236570D02*
D03*
X92323Y-249050D02*
D03*
X112008Y-192948D02*
D03*
X131693Y-249050D02*
D03*
D187*
X83661Y-166368D02*
D03*
Y-110227D02*
D03*
X102165Y-166368D02*
D03*
Y-110227D02*
D03*
X121850D02*
D03*
Y-166368D02*
D03*
X139961Y-119400D02*
D03*
Y-138297D02*
D03*
Y-157195D02*
D03*
X84449Y-82234D02*
D03*
Y-26092D02*
D03*
X102953Y-82234D02*
D03*
Y-26092D02*
D03*
X122638D02*
D03*
Y-82234D02*
D03*
X140748Y-35266D02*
D03*
Y-54163D02*
D03*
Y-73061D02*
D03*
X83661Y-249070D02*
D03*
Y-192928D02*
D03*
X102165Y-249070D02*
D03*
Y-192928D02*
D03*
X121850D02*
D03*
Y-249070D02*
D03*
X139961Y-202101D02*
D03*
Y-220999D02*
D03*
Y-239897D02*
D03*
D188*
X457114Y-72760D02*
D03*
X178964Y-283981D02*
D03*
X457114D02*
D03*
X178964Y-72760D02*
D03*
D189*
X112008Y-120187D02*
D03*
Y-157983D02*
D03*
Y-202889D02*
D03*
Y-240684D02*
D03*
X112795Y-36053D02*
D03*
Y-73848D02*
D03*
D190*
X489757Y-9825D02*
D03*
Y6675D02*
D03*
X511457Y-9825D02*
D03*
D191*
Y6675D02*
D03*
D192*
X540158Y-1575D02*
D03*
D193*
X487112Y-59943D02*
D03*
D194*
Y-67817D02*
D03*
Y-75691D02*
D03*
Y-83565D02*
D03*
D195*
X2667Y-353845D02*
D03*
D196*
X2864Y-361010D02*
D03*
Y-349750D02*
D03*
X21762Y-361010D02*
D03*
Y-349750D02*
D03*
D197*
X281366Y-245753D02*
D03*
X281366Y-178784D02*
D03*
X401562Y-245753D02*
D03*
X401562Y-178784D02*
D03*
D198*
X449165Y-98784D02*
D03*
X444165Y-257327D02*
D03*
X186913Y-98784D02*
D03*
X181913Y-257327D02*
D03*
D199*
X553898Y-135356D02*
D03*
D200*
X523661Y-167836D02*
D03*
Y-102875D02*
D03*
D201*
X550354Y-167836D02*
D03*
Y-102875D02*
D03*
D202*
X530308Y-243937D02*
D03*
Y-192205D02*
D03*
X507946D02*
D03*
Y-243937D02*
D03*
D203*
X519639Y-231850D02*
D03*
Y-204291D02*
D03*
Y-222008D02*
D03*
Y-214134D02*
D03*
X509324Y-222008D02*
D03*
Y-214134D02*
D03*
Y-204291D02*
D03*
Y-231850D02*
D03*
D204*
X276049Y-44625D02*
D03*
D205*
X0Y0D02*
D03*
X0Y-378395D02*
D03*
D206*
X359022Y-48582D02*
D03*
X354023Y-43582D02*
D03*
Y-53582D02*
D03*
X364022D02*
D03*
Y-43582D02*
D03*
X379898Y-48591D02*
D03*
X374898Y-43591D02*
D03*
Y-53591D02*
D03*
X384898D02*
D03*
Y-43591D02*
D03*
D207*
X530315Y-53150D02*
D03*
D208*
X548032D02*
D03*
D209*
X-20039Y-314096D02*
D03*
X-39D02*
D03*
Y-334096D02*
D03*
X-20039D02*
D03*
X-19449Y-286455D02*
D03*
X551D02*
D03*
Y-266455D02*
D03*
X-19449D02*
D03*
D210*
X-10039Y-324096D02*
D03*
X-9449Y-276454D02*
D03*
D211*
X208856Y-103124D02*
D03*
X206756D02*
D03*
X166102Y-107019D02*
D03*
X164618Y-108504D02*
D03*
X188195Y-120556D02*
D03*
X191851D02*
D03*
X145183Y-42743D02*
D03*
X143083D02*
D03*
X181975Y-125556D02*
D03*
X185630D02*
D03*
X195630D02*
D03*
X148437Y-135654D02*
D03*
X191975Y-125556D02*
D03*
X148437Y-137754D02*
D03*
X-16778Y-383829D02*
D03*
X-16690Y-373766D02*
D03*
X-16602Y-370421D02*
D03*
X-16583Y-387396D02*
D03*
X-16426Y-377580D02*
D03*
X-16074Y-390871D02*
D03*
Y-366666D02*
D03*
X-14754Y-394568D02*
D03*
X153644Y-183874D02*
D03*
X155129Y-185359D02*
D03*
X157841Y-186310D02*
D03*
X150930Y-182937D02*
D03*
X155384Y-195525D02*
D03*
X153284D02*
D03*
X150560Y-195113D02*
D03*
X158327Y-195621D02*
D03*
X361232Y-360702D02*
D03*
X340156Y-341138D02*
D03*
X337376Y-340101D02*
D03*
X372888Y-186203D02*
D03*
X311033Y-304734D02*
D03*
X308051Y-304248D02*
D03*
X389142Y-283819D02*
D03*
X383516Y-283294D02*
D03*
X391934Y-283869D02*
D03*
X417921Y-339959D02*
D03*
X314502Y-307089D02*
D03*
X218295Y-134914D02*
D03*
X312402Y-307089D02*
D03*
X218295Y-132814D02*
D03*
X413337Y-345928D02*
D03*
X411852Y-344443D02*
D03*
X354522Y-296150D02*
D03*
X351925Y-298038D02*
D03*
X370529Y-262365D02*
D03*
X382454Y-260887D02*
D03*
X360911Y-294388D02*
D03*
X378326Y-260325D02*
D03*
X398745Y-112822D02*
D03*
X378432Y-249607D02*
D03*
X400230Y-114307D02*
D03*
X378432Y-247507D02*
D03*
X495879Y-210807D02*
D03*
X344775Y-285358D02*
D03*
X495879Y-212908D02*
D03*
X346875Y-285358D02*
D03*
X498793Y-219959D02*
D03*
X500278Y-221444D02*
D03*
X357014Y-284460D02*
D03*
X357074Y-282301D02*
D03*
X319402Y-279193D02*
D03*
X316545D02*
D03*
X313250Y-279240D02*
D03*
X329947Y-291199D02*
D03*
X415459Y-291708D02*
D03*
X240551Y-151181D02*
D03*
X329947Y-289099D02*
D03*
X415459Y-289608D02*
D03*
X242036Y-149696D02*
D03*
X298061Y-216729D02*
D03*
X485326Y-353297D02*
D03*
X490388Y-289608D02*
D03*
X446529Y-333682D02*
D03*
X451947Y-333465D02*
D03*
X372277Y-289630D02*
D03*
X352321Y-287442D02*
D03*
X187567Y-361027D02*
D03*
X189872Y-370435D02*
D03*
X349047Y-292438D02*
D03*
X300461Y-315525D02*
D03*
X306458Y-311859D02*
D03*
X300261Y-310378D02*
D03*
X283993Y-355050D02*
D03*
X453506Y-352192D02*
D03*
X426083Y-262919D02*
D03*
X432448Y-262112D02*
D03*
X338898Y-288115D02*
D03*
X503826Y-297535D02*
D03*
X459007Y-197790D02*
D03*
X449863Y-195007D02*
D03*
X459007Y-200476D02*
D03*
X454210Y-198126D02*
D03*
X366193Y-292131D02*
D03*
X327685Y-333046D02*
D03*
Y-335146D02*
D03*
X416356Y-354757D02*
D03*
Y-356857D02*
D03*
X455334Y-355757D02*
D03*
X489175Y-265143D02*
D03*
X490138Y-269068D02*
D03*
X530713Y-259427D02*
D03*
X532634Y-261366D02*
D03*
X537316Y-262347D02*
D03*
X424646Y-228321D02*
D03*
X425113Y-231776D02*
D03*
X449017Y-214698D02*
D03*
X444165Y-217995D02*
D03*
X444188Y-210575D02*
D03*
X444103Y-195699D02*
D03*
X434121Y-258580D02*
D03*
X296968Y-347979D02*
D03*
X249199Y-234387D02*
D03*
X223543Y-362187D02*
D03*
X219651Y-281295D02*
D03*
X220292Y-352390D02*
D03*
X211893Y-304475D02*
D03*
X200065Y-273575D02*
D03*
X208126Y-282969D02*
D03*
X237599Y-279268D02*
D03*
X245446Y-214451D02*
D03*
X247012Y-218210D02*
D03*
X270972Y-204206D02*
D03*
X267961Y-200549D02*
D03*
X370460Y-168605D02*
D03*
X368314Y-173039D02*
D03*
X355588Y-351389D02*
D03*
X298248Y-332521D02*
D03*
X285787Y-216364D02*
D03*
X283185Y-213838D02*
D03*
X372765Y-233335D02*
D03*
X168346Y-263535D02*
D03*
X165416Y-253807D02*
D03*
X164431Y-250349D02*
D03*
X450544Y-111606D02*
D03*
Y-109506D02*
D03*
X440776Y-332921D02*
D03*
Y-335021D02*
D03*
X443456Y-336768D02*
D03*
X443731Y-332441D02*
D03*
X443852Y-327242D02*
D03*
Y-325013D02*
D03*
X454103Y-133056D02*
D03*
X450447D02*
D03*
X402403Y-128753D02*
D03*
Y-126653D02*
D03*
X394652Y-289238D02*
D03*
X393167Y-287753D02*
D03*
X414794Y-279819D02*
D03*
X434536Y-287603D02*
D03*
X434614Y-283171D02*
D03*
X423473Y-279393D02*
D03*
X444227Y-225556D02*
D03*
X447882D02*
D03*
X383302Y-285962D02*
D03*
X380720Y-251806D02*
D03*
X380496Y-244801D02*
D03*
X330201Y-306129D02*
D03*
X399891Y-278931D02*
D03*
X404320Y-272338D02*
D03*
X404724Y-267677D02*
D03*
X299760Y-294703D02*
D03*
X316150Y-304921D02*
D03*
X310199Y-309094D02*
D03*
X337150Y-299973D02*
D03*
X200469Y-366038D02*
D03*
X337150Y-297873D02*
D03*
X200469Y-368138D02*
D03*
X415698Y-343433D02*
D03*
X319093Y-299442D02*
D03*
X287686Y-283354D02*
D03*
X287986Y-286649D02*
D03*
X441574Y-315135D02*
D03*
Y-317235D02*
D03*
X301190Y-282211D02*
D03*
Y-280111D02*
D03*
X218295Y-137683D02*
D03*
Y-130165D02*
D03*
X424849Y-303702D02*
D03*
X315155Y-296719D02*
D03*
X426334Y-305187D02*
D03*
X316640Y-295234D02*
D03*
X244552Y-206310D02*
D03*
Y-204210D02*
D03*
X325306Y-292438D02*
D03*
X312257Y-295916D02*
D03*
X319308Y-294163D02*
D03*
X332386Y-292699D02*
D03*
X331400Y-286766D02*
D03*
X303707Y-279074D02*
D03*
X303581Y-284232D02*
D03*
X197630Y-369873D02*
D03*
Y-364795D02*
D03*
X191902Y-113200D02*
D03*
X191851Y-110556D02*
D03*
X408434Y-300344D02*
D03*
X358901Y-301240D02*
D03*
X340393Y-303354D02*
D03*
X344288Y-297306D02*
D03*
X352048Y-323652D02*
D03*
X343753Y-311859D02*
D03*
X333325Y-326852D02*
D03*
X355251Y-331066D02*
D03*
X349546Y-331608D02*
D03*
X382250Y-354079D02*
D03*
X394608Y-347646D02*
D03*
X332521Y-358575D02*
D03*
X332959Y-354783D02*
D03*
X357058Y-360737D02*
D03*
X347469Y-358669D02*
D03*
X378148Y-360675D02*
D03*
X381940Y-360831D02*
D03*
X389837Y-362179D02*
D03*
X408044Y-340776D02*
D03*
X405673Y-343236D02*
D03*
X402724Y-343433D02*
D03*
X398004Y-351235D02*
D03*
X410542Y-353851D02*
D03*
X394905Y-361101D02*
D03*
X429726Y-346913D02*
D03*
X434210Y-350573D02*
D03*
X428053Y-350942D02*
D03*
X450391Y-351983D02*
D03*
X440126Y-348414D02*
D03*
X442778Y-341134D02*
D03*
X446706Y-347917D02*
D03*
X436108Y-340174D02*
D03*
X438703Y-338654D02*
D03*
X422147Y-338619D02*
D03*
X435591Y-329695D02*
D03*
X432576Y-323923D02*
D03*
X408073Y-323104D02*
D03*
X430563Y-306951D02*
D03*
X436836Y-311123D02*
D03*
X433158Y-307137D02*
D03*
X414834Y-303676D02*
D03*
X410560Y-312945D02*
D03*
X406477Y-312340D02*
D03*
X443140Y-308404D02*
D03*
X451947Y-305128D02*
D03*
X438660Y-304758D02*
D03*
X428802Y-293942D02*
D03*
X425388Y-294387D02*
D03*
X406059Y-293369D02*
D03*
X394987Y-292209D02*
D03*
X400425Y-274077D02*
D03*
X376766Y-280352D02*
D03*
X373060Y-273675D02*
D03*
X385863Y-273402D02*
D03*
X362894Y-283974D02*
D03*
X372218Y-283496D02*
D03*
X366500Y-262468D02*
D03*
X364430Y-273466D02*
D03*
X561903Y-358862D02*
D03*
X553150Y-358789D02*
D03*
X564612Y-324588D02*
D03*
X553286Y-324244D02*
D03*
X464394Y-303131D02*
D03*
X471139Y-303899D02*
D03*
X488479Y-314592D02*
D03*
X451374Y-348409D02*
D03*
X450641Y-316454D02*
D03*
X447892Y-330452D02*
D03*
X451088D02*
D03*
X489541Y-333080D02*
D03*
X479584Y-354539D02*
D03*
X459963Y-350845D02*
D03*
X340825Y-327965D02*
D03*
X340883Y-324506D02*
D03*
X324963Y-322874D02*
D03*
X327237Y-306752D02*
D03*
X313020Y-338188D02*
D03*
X327726Y-342731D02*
D03*
X325830Y-350458D02*
D03*
X311441Y-329082D02*
D03*
X327651Y-323798D02*
D03*
X330989Y-309247D02*
D03*
X304235Y-347684D02*
D03*
X259991Y-293885D02*
D03*
X281628Y-295873D02*
D03*
X311479Y-341590D02*
D03*
X306211Y-329483D02*
D03*
X292670Y-347755D02*
D03*
X270381Y-337067D02*
D03*
X250160Y-345970D02*
D03*
X248074Y-348594D02*
D03*
X244997Y-346514D02*
D03*
X248816Y-384113D02*
D03*
X253595Y-384246D02*
D03*
X278604Y-350833D02*
D03*
X275262Y-349974D02*
D03*
X306064Y-354250D02*
D03*
X297496Y-354422D02*
D03*
X327685Y-337359D02*
D03*
Y-330452D02*
D03*
X543086Y-350623D02*
D03*
X540852Y-347643D02*
D03*
X423113Y-342726D02*
D03*
X414205Y-329138D02*
D03*
X408764Y-328912D02*
D03*
X443731Y-329733D02*
D03*
X444718Y-322486D02*
D03*
X414502Y-319468D02*
D03*
X409688Y-319039D02*
D03*
X444361Y-317448D02*
D03*
X442875Y-312490D02*
D03*
X427090Y-307790D02*
D03*
X422140Y-303265D02*
D03*
X412754Y-299351D02*
D03*
X386221Y-353241D02*
D03*
X395386Y-357390D02*
D03*
X384567Y-349120D02*
D03*
X419198Y-358136D02*
D03*
X413236Y-354472D02*
D03*
X379749Y-347319D02*
D03*
X377865Y-350458D02*
D03*
X372469Y-356610D02*
D03*
X415923Y-347189D02*
D03*
X410877Y-341813D02*
D03*
X362170Y-353573D02*
D03*
X358080Y-348414D02*
D03*
X350202Y-345307D02*
D03*
X350133Y-349314D02*
D03*
X355526Y-323735D02*
D03*
X335938Y-319039D02*
D03*
X339884Y-296430D02*
D03*
X334526Y-300894D02*
D03*
X418584Y-293262D02*
D03*
X415520Y-286697D02*
D03*
X394424Y-284939D02*
D03*
X397901Y-288444D02*
D03*
X412254Y-295749D02*
D03*
X379555Y-286870D02*
D03*
X376653Y-290674D02*
D03*
X374595Y-293513D02*
D03*
X371441Y-293763D02*
D03*
X377287Y-326698D02*
D03*
Y-322486D02*
D03*
X380181D02*
D03*
Y-326698D02*
D03*
X384393D02*
D03*
Y-322486D02*
D03*
X384740Y-318493D02*
D03*
X381302Y-318638D02*
D03*
X377622D02*
D03*
X377001Y-329733D02*
D03*
X380181Y-329592D02*
D03*
X384393D02*
D03*
X388080Y-329733D02*
D03*
Y-326030D02*
D03*
Y-322376D02*
D03*
Y-318638D02*
D03*
X388041Y-314965D02*
D03*
X384592D02*
D03*
X381165Y-314918D02*
D03*
X377425D02*
D03*
X248936Y-263505D02*
D03*
X249984Y-254966D02*
D03*
X206704Y-257728D02*
D03*
X205957Y-263932D02*
D03*
X201996Y-261970D02*
D03*
X201893Y-265165D02*
D03*
X187429Y-210515D02*
D03*
X181956Y-210465D02*
D03*
X186705Y-226310D02*
D03*
X186184Y-228928D02*
D03*
X187136Y-231221D02*
D03*
X187909Y-222506D02*
D03*
X186949Y-218171D02*
D03*
X181942Y-213093D02*
D03*
X185889Y-215290D02*
D03*
X172965Y-215463D02*
D03*
X174366Y-219356D02*
D03*
X7221Y-343564D02*
D03*
X31247Y-261853D02*
D03*
X273255Y-384814D02*
D03*
X363369Y-193173D02*
D03*
X374614Y-196806D02*
D03*
X370747Y-226121D02*
D03*
X367747Y-227121D02*
D03*
X538591Y-317361D02*
D03*
X304893Y4881D02*
D03*
X377363Y-196806D02*
D03*
X349047Y-210121D02*
D03*
X375187Y-220604D02*
D03*
X362142Y-225109D02*
D03*
X365416Y-224424D02*
D03*
X348073Y-201505D02*
D03*
X361428Y-197208D02*
D03*
X359149Y-193621D02*
D03*
X368747Y-195621D02*
D03*
X380783Y-200476D02*
D03*
X376247Y-202621D02*
D03*
X375162Y-208152D02*
D03*
X382081Y-211105D02*
D03*
X375547Y-214058D02*
D03*
X378947Y-213121D02*
D03*
X378747Y-218121D02*
D03*
X497996Y-184399D02*
D03*
X494256Y-175344D02*
D03*
X173196Y-239483D02*
D03*
X151207Y-265737D02*
D03*
X154435Y-264862D02*
D03*
X102949Y-258871D02*
D03*
X34130Y-324206D02*
D03*
X44713Y-316315D02*
D03*
X44121Y-312679D02*
D03*
X41182Y-324758D02*
D03*
X37682Y-324781D02*
D03*
X30682Y-323758D02*
D03*
X26899Y-316424D02*
D03*
X32656Y-311630D02*
D03*
X37682Y-310258D02*
D03*
X35221Y-309708D02*
D03*
X274692Y-228654D02*
D03*
X274528Y-224803D02*
D03*
X319717Y-198050D02*
D03*
X319676Y-201548D02*
D03*
X329913Y-217591D02*
D03*
X330393Y-213309D02*
D03*
X303907Y-213566D02*
D03*
X318192Y-205991D02*
D03*
X301953Y-220621D02*
D03*
X313293Y-225855D02*
D03*
X327959Y-175369D02*
D03*
X290784Y-161958D02*
D03*
X305620Y-172428D02*
D03*
X306150Y-147160D02*
D03*
X342384Y-131417D02*
D03*
X336593Y-137381D02*
D03*
X380783Y-147748D02*
D03*
X378068Y-130625D02*
D03*
X383062Y-102728D02*
D03*
X400134Y-82330D02*
D03*
X164513Y-111439D02*
D03*
X167670Y-104487D02*
D03*
X195856Y-110558D02*
D03*
X188003Y-105477D02*
D03*
X177585Y-102335D02*
D03*
X153541Y-152568D02*
D03*
Y-150468D02*
D03*
X148437Y-140636D02*
D03*
Y-132589D02*
D03*
X177458Y-115754D02*
D03*
X185684Y-120693D02*
D03*
X188195Y-115607D02*
D03*
X187609Y-113200D02*
D03*
X174156Y-49311D02*
D03*
X179310Y-46036D02*
D03*
X94521Y-66708D02*
D03*
X88891Y-65988D02*
D03*
X94469Y-150896D02*
D03*
X198367Y-157825D02*
D03*
Y-162769D02*
D03*
X198460Y-166676D02*
D03*
X198922Y-171844D02*
D03*
X391759Y-127885D02*
D03*
X420389Y-130468D02*
D03*
X193483Y-318626D02*
D03*
X193718Y-310654D02*
D03*
X193016Y-315733D02*
D03*
X180724Y-314605D02*
D03*
X448685Y-153054D02*
D03*
X448856Y-148002D02*
D03*
X449978Y-136678D02*
D03*
X313563Y-262186D02*
D03*
X85135Y-283671D02*
D03*
X93267Y-258528D02*
D03*
X74548Y-256005D02*
D03*
X82725Y-275367D02*
D03*
X197865Y-345862D02*
D03*
X193016Y-321668D02*
D03*
X422096Y-95583D02*
D03*
X416194Y-119617D02*
D03*
X161408Y-252636D02*
D03*
X161004Y-291346D02*
D03*
X149563Y-290625D02*
D03*
X171460Y-352905D02*
D03*
X150888Y-355336D02*
D03*
X164407Y-361682D02*
D03*
X164392Y-357066D02*
D03*
X332460Y-125763D02*
D03*
X325990Y-128136D02*
D03*
X360346Y-129517D02*
D03*
X273147Y-110333D02*
D03*
X289212Y-104008D02*
D03*
X329688Y-239163D02*
D03*
X329576Y-242688D02*
D03*
X390190Y-30224D02*
D03*
X379923Y-20402D02*
D03*
X190607Y16299D02*
D03*
X185657D02*
D03*
X239993Y9915D02*
D03*
X239929Y13130D02*
D03*
X424673Y-23923D02*
D03*
X424755Y-19090D02*
D03*
X299815Y-173789D02*
D03*
X114569Y-18480D02*
D03*
X117179Y-15570D02*
D03*
X307860Y-185767D02*
D03*
X311239Y-182832D02*
D03*
X427090Y-225065D02*
D03*
X429443Y-220121D02*
D03*
X449305Y-208349D02*
D03*
X449017Y-210858D02*
D03*
X319800Y-185397D02*
D03*
X316789Y-191969D02*
D03*
X320318Y-216023D02*
D03*
X336723Y-195597D02*
D03*
X337150Y-198479D02*
D03*
X459030Y-205123D02*
D03*
X458852Y-208888D02*
D03*
X341153Y-101006D02*
D03*
X458270Y-132600D02*
D03*
X192890Y-344882D02*
D03*
X134048Y-290849D02*
D03*
X70548Y-291894D02*
D03*
X181362Y-319552D02*
D03*
X173579Y-306463D02*
D03*
X171158Y-304870D02*
D03*
X104068Y-354623D02*
D03*
X107148Y-353722D02*
D03*
X178574Y-303795D02*
D03*
X180190Y-307952D02*
D03*
X68071Y-270813D02*
D03*
X48593Y-320975D02*
D03*
X63119Y-265947D02*
D03*
X57468Y-266199D02*
D03*
X65564Y-265516D02*
D03*
X62262Y-262473D02*
D03*
X39206Y-332140D02*
D03*
X9086Y-333928D02*
D03*
X8900Y-336731D02*
D03*
X10304Y-276145D02*
D03*
X12500Y-291339D02*
D03*
X158969Y-259041D02*
D03*
X152277Y-244032D02*
D03*
X322500Y-170900D02*
D03*
X325306Y-166084D02*
D03*
X549902Y-257103D02*
D03*
X555882Y-261917D02*
D03*
X549902D02*
D03*
X555882Y-257103D02*
D03*
X309791Y-127818D02*
D03*
X302374Y-127384D02*
D03*
X298829Y-127132D02*
D03*
X291403Y-122125D02*
D03*
X291593Y-118581D02*
D03*
X327442Y-115840D02*
D03*
X328146Y-119132D02*
D03*
X315680Y-123804D02*
D03*
X353325Y-171806D02*
D03*
X367984Y-155638D02*
D03*
X373826Y-151806D02*
D03*
X368314Y-151265D02*
D03*
X370444Y-148862D02*
D03*
X321976Y-127675D02*
D03*
X315395Y-130604D02*
D03*
X299201Y-158485D02*
D03*
X302512Y-160474D02*
D03*
X312224Y-163292D02*
D03*
X306701Y-162073D02*
D03*
X127628Y-350049D02*
D03*
X126602Y-346144D02*
D03*
X127115Y-335023D02*
D03*
X124351Y-325656D02*
D03*
X127864Y-314116D02*
D03*
X129222Y-307639D02*
D03*
X129102Y-303220D02*
D03*
X166073Y-302138D02*
D03*
X170019Y-321322D02*
D03*
X174196Y-345197D02*
D03*
X166173Y-348824D02*
D03*
X181137Y-357434D02*
D03*
X155815Y-361919D02*
D03*
X197929Y-115556D02*
D03*
X179032Y-125426D02*
D03*
X466141Y-205281D02*
D03*
X479989Y-110321D02*
D03*
X395910Y-101909D02*
D03*
X450245Y-174226D02*
D03*
X448551Y-185120D02*
D03*
X454210Y-192315D02*
D03*
X458314Y-192038D02*
D03*
X444367Y-172833D02*
D03*
X444175Y-193396D02*
D03*
X444292Y-180749D02*
D03*
X444389Y-185159D02*
D03*
X502986Y-174958D02*
D03*
X490388Y-192205D02*
D03*
X484305Y-249589D02*
D03*
X480693Y-236918D02*
D03*
X481625Y-224694D02*
D03*
X493788Y-226121D02*
D03*
X488139Y-217270D02*
D03*
X503337Y-87793D02*
D03*
X424755Y-76217D02*
D03*
X423429Y-73717D02*
D03*
X204548Y-178944D02*
D03*
X448613Y-107966D02*
D03*
X501859Y-170377D02*
D03*
X486748Y-146115D02*
D03*
Y-149645D02*
D03*
X484286Y-193133D02*
D03*
X488046Y-191105D02*
D03*
X375524Y-5997D02*
D03*
X373551Y-3124D02*
D03*
X477994Y-84385D02*
D03*
X476298Y-72534D02*
D03*
X424123Y-109735D02*
D03*
Y-111835D02*
D03*
X402008Y-115789D02*
D03*
X395988Y-112506D02*
D03*
X424521Y-114075D02*
D03*
X424267Y-107505D02*
D03*
X439738Y-113565D02*
D03*
X492161Y-243937D02*
D03*
X485715Y-243810D02*
D03*
X485485Y-235556D02*
D03*
X560556Y-187107D02*
D03*
X561083Y-178770D02*
D03*
X560556Y-183950D02*
D03*
X537100Y-177216D02*
D03*
X536911Y-181728D02*
D03*
X532101Y-177381D02*
D03*
X532656Y-181358D02*
D03*
X507627Y-180715D02*
D03*
X508638Y-177566D02*
D03*
X561023Y-173157D02*
D03*
X537775Y-173033D02*
D03*
X46505Y-356890D02*
D03*
X37514Y-360586D02*
D03*
X8839Y5344D02*
D03*
X7147Y-370421D02*
D03*
X450482Y-225496D02*
D03*
X452654Y-225552D02*
D03*
X448952Y-230754D02*
D03*
X441928Y-235556D02*
D03*
X449229Y-245619D02*
D03*
X448822Y-240713D02*
D03*
X449137Y-235567D02*
D03*
X183256Y-110379D02*
D03*
X185400Y-110453D02*
D03*
X187575Y-127288D02*
D03*
X189340Y-125574D02*
D03*
X194955Y-120529D02*
D03*
X213745Y-149020D02*
D03*
Y-146920D02*
D03*
X196074Y-146202D02*
D03*
Y-148702D02*
D03*
X196111Y-151137D02*
D03*
X187811Y-149108D02*
D03*
X196388Y-143390D02*
D03*
X447906Y-201074D02*
D03*
X458330Y-188841D02*
D03*
X458476Y-140496D02*
D03*
X448076Y-133358D02*
D03*
X439601Y-147811D02*
D03*
X459221Y-243129D02*
D03*
X451928Y-245556D02*
D03*
X440737Y-225754D02*
D03*
X439659Y-223445D02*
D03*
X447837Y-218451D02*
D03*
X447840Y-220918D02*
D03*
X439676Y-217789D02*
D03*
X450030Y-217476D02*
D03*
X458974Y-219843D02*
D03*
X439957Y-210125D02*
D03*
X449966Y-200065D02*
D03*
X450391Y-203113D02*
D03*
X448144Y-203709D02*
D03*
X440127Y-194772D02*
D03*
X440178Y-185477D02*
D03*
X448026Y-188218D02*
D03*
X449660Y-180830D02*
D03*
X447855Y-178293D02*
D03*
X450256Y-178004D02*
D03*
X458137Y-178770D02*
D03*
X439293Y-172726D02*
D03*
X439923Y-162836D02*
D03*
X439855Y-165509D02*
D03*
X447703Y-173271D02*
D03*
X450256Y-164845D02*
D03*
X448468Y-166173D02*
D03*
X448826Y-162972D02*
D03*
X447617Y-160521D02*
D03*
X444230Y-155193D02*
D03*
X439821Y-154937D02*
D03*
X457899Y-158529D02*
D03*
X457933Y-148145D02*
D03*
X458637Y-143172D02*
D03*
X439664Y-103898D02*
D03*
X101978Y-11727D02*
D03*
X98901D02*
D03*
X95818Y-13476D02*
D03*
X54528Y-18289D02*
D03*
X51161D02*
D03*
X47156Y-18127D02*
D03*
X89289Y-136930D02*
D03*
X88069Y-224249D02*
D03*
X417196Y4925D02*
D03*
X226194Y5939D02*
D03*
X230789Y2184D02*
D03*
X227652Y63D02*
D03*
X230435Y5409D02*
D03*
X181007Y-28051D02*
D03*
X216920Y-313214D02*
D03*
X215535Y-304975D02*
D03*
X215025Y-343865D02*
D03*
X213745Y-339987D02*
D03*
X228521Y-367717D02*
D03*
X396044Y-233344D02*
D03*
X411090Y-255245D02*
D03*
X393931Y-257271D02*
D03*
X390226Y-170964D02*
D03*
X415191Y-180233D02*
D03*
X413236Y-171626D02*
D03*
X268929Y-184421D02*
D03*
X294994Y-179952D02*
D03*
X293889Y-173875D02*
D03*
X267933Y-248454D02*
D03*
X268414Y-241265D02*
D03*
X272528Y-235224D02*
D03*
X90487Y-39632D02*
D03*
X87729Y-72905D02*
D03*
X86144Y-155643D02*
D03*
X85590Y-239136D02*
D03*
X145620Y-256787D02*
D03*
X60222Y-318663D02*
D03*
X6097Y-330264D02*
D03*
X9999Y-319888D02*
D03*
X124531Y-300274D02*
D03*
X124092Y-278556D02*
D03*
X146755Y-279865D02*
D03*
X126959Y-281786D02*
D03*
X126889Y-285394D02*
D03*
X107541Y-282977D02*
D03*
X69225Y-288796D02*
D03*
X27358Y-303794D02*
D03*
X112468Y-272849D02*
D03*
X101159Y-274689D02*
D03*
X104921Y-274867D02*
D03*
X107972Y-275004D02*
D03*
X107779Y-264533D02*
D03*
X104505Y-264473D02*
D03*
X24062Y-271260D02*
D03*
X42739Y-329264D02*
D03*
X-9646Y-344825D02*
D03*
X32876Y-277157D02*
D03*
X29602Y-271818D02*
D03*
X106370Y-4148D02*
D03*
X85331Y-7422D02*
D03*
X-14542Y5390D02*
D03*
X-14712Y16451D02*
D03*
X-12320Y-92052D02*
D03*
X-13207Y-95460D02*
D03*
X-13114Y-98915D02*
D03*
X-12447Y-102700D02*
D03*
X-12573Y-173617D02*
D03*
X-14198Y-177349D02*
D03*
X-14173Y-181020D02*
D03*
X-12400Y-184641D02*
D03*
X496878Y-69323D02*
D03*
X504452Y-83167D02*
D03*
X501312Y-79115D02*
D03*
X374813Y-127818D02*
D03*
X365912Y-128043D02*
D03*
X172994Y-312551D02*
D03*
X172587Y-315602D02*
D03*
X55493Y-316030D02*
D03*
X23238Y-316817D02*
D03*
X120932Y-357382D02*
D03*
X117905Y-359025D02*
D03*
X128877Y-275540D02*
D03*
X133955Y-266508D02*
D03*
X145234Y-265782D02*
D03*
X146010Y-251259D02*
D03*
X154533Y-246820D02*
D03*
X157024Y-252076D02*
D03*
Y-255462D02*
D03*
X124821Y-339781D02*
D03*
X129811Y-282969D02*
D03*
X141316Y-278609D02*
D03*
X134048Y-287191D02*
D03*
X134215Y-283960D02*
D03*
X145784Y-283867D02*
D03*
X145431Y-287432D02*
D03*
X89793Y-279532D02*
D03*
X76118Y-273902D02*
D03*
X85468D02*
D03*
X82749Y-263313D02*
D03*
X50423Y-270417D02*
D03*
X68145Y-260419D02*
D03*
X25724Y-281488D02*
D03*
X38670Y-300081D02*
D03*
X29853Y-295656D02*
D03*
X29702Y-300410D02*
D03*
X21740Y-325455D02*
D03*
X32147Y-332086D02*
D03*
X21216Y-334785D02*
D03*
X24616Y-331680D02*
D03*
X53191Y-341301D02*
D03*
X25431Y-320270D02*
D03*
X50316Y-349978D02*
D03*
X48216D02*
D03*
X46624Y-338187D02*
D03*
X43021Y-338545D02*
D03*
X67989Y-349455D02*
D03*
X48950Y-355856D02*
D03*
X438224Y-107499D02*
D03*
X34930Y-334785D02*
D03*
X31513Y-342159D02*
D03*
X33413Y-354938D02*
D03*
X43855Y-354956D02*
D03*
X42712Y-349426D02*
D03*
X51130Y-332583D02*
D03*
X46012D02*
D03*
X53334Y-307971D02*
D03*
X48149Y-308017D02*
D03*
X56087Y-301774D02*
D03*
X47194Y-301955D02*
D03*
X45214Y-275934D02*
D03*
X58748Y-276108D02*
D03*
X37363Y-281385D02*
D03*
X38834Y-294513D02*
D03*
X42544Y-294351D02*
D03*
X41374Y-281385D02*
D03*
X32836Y-284252D02*
D03*
X121477Y-346644D02*
D03*
X125425Y-310166D02*
D03*
X119433Y-305282D02*
D03*
X62976Y-333209D02*
D03*
X58336Y-336022D02*
D03*
X62556Y-342159D02*
D03*
X57449Y-324096D02*
D03*
X60970Y-323181D02*
D03*
X61185Y-321039D02*
D03*
X63155Y-317343D02*
D03*
X60880Y-311686D02*
D03*
X82262Y-283307D02*
D03*
X79362Y-286307D02*
D03*
X92726Y-287679D02*
D03*
X96437Y-287007D02*
D03*
X99475Y-287652D02*
D03*
X104068Y-289257D02*
D03*
X119028Y-315389D02*
D03*
X119630Y-319376D02*
D03*
X118217Y-329219D02*
D03*
X118386Y-339131D02*
D03*
X100836Y-354563D02*
D03*
X97598Y-354403D02*
D03*
X91535Y-353845D02*
D03*
X85308Y-354980D02*
D03*
X81683Y-354403D02*
D03*
X79020Y-357066D02*
D03*
X76613Y-355943D02*
D03*
X74111Y-354403D02*
D03*
X21247Y-287665D02*
D03*
X12778Y-271260D02*
D03*
X22155Y-275295D02*
D03*
X10939Y-328717D02*
D03*
X23057Y-304996D02*
D03*
X22991Y-313845D02*
D03*
X166443Y-233740D02*
D03*
X104884Y-220137D02*
D03*
X104834Y-54275D02*
D03*
X103957Y-136930D02*
D03*
X109346Y-210566D02*
D03*
X121008Y-216840D02*
D03*
X120162Y-224936D02*
D03*
X109346Y-231000D02*
D03*
X104144Y-50837D02*
D03*
X121796Y-54831D02*
D03*
Y-49951D02*
D03*
X109827Y-64102D02*
D03*
X110312Y-45450D02*
D03*
X109524Y-145634D02*
D03*
X109346Y-128228D02*
D03*
X121008Y-139380D02*
D03*
X120162Y-134699D02*
D03*
X125271Y-206789D02*
D03*
X130880Y-206749D02*
D03*
X125389Y-216280D02*
D03*
X130841Y-216241D02*
D03*
X125663Y-225693D02*
D03*
X130958D02*
D03*
X125193Y-235184D02*
D03*
X130919Y-235224D02*
D03*
X93189Y-233694D02*
D03*
X93306Y-236793D02*
D03*
X98640Y-236832D02*
D03*
X98758Y-233576D02*
D03*
X93267Y-208397D02*
D03*
X98680Y-208475D02*
D03*
X134805Y-222571D02*
D03*
X134687Y-219431D02*
D03*
X134616Y-139879D02*
D03*
X134380Y-136757D02*
D03*
X135168Y-52467D02*
D03*
X135131Y-55690D02*
D03*
X87752Y-232345D02*
D03*
X87827Y-228614D02*
D03*
X87988Y-220529D02*
D03*
X88122Y-217562D02*
D03*
X88670Y-213567D02*
D03*
X89277Y-205349D02*
D03*
X89594Y-148266D02*
D03*
X89420Y-144654D02*
D03*
X89403Y-140708D02*
D03*
X89463Y-133470D02*
D03*
X89644Y-130384D02*
D03*
X89863Y-121927D02*
D03*
X89886Y-61606D02*
D03*
X89980Y-58338D02*
D03*
X90004Y-54647D02*
D03*
X90121Y-50956D02*
D03*
X90309Y-47125D02*
D03*
X94204Y-41503D02*
D03*
X99421Y-41551D02*
D03*
X99421Y-66751D02*
D03*
X93847Y-69919D02*
D03*
X99547Y-69911D02*
D03*
X126162Y-68373D02*
D03*
X131594Y-68289D02*
D03*
X126279Y-58888D02*
D03*
X131594Y-59040D02*
D03*
X126279Y-49498D02*
D03*
X131594D02*
D03*
X126279Y-39990D02*
D03*
X132042D02*
D03*
X93168Y-125699D02*
D03*
X98404D02*
D03*
Y-150896D02*
D03*
Y-154125D02*
D03*
X93168Y-153982D02*
D03*
X125276Y-152508D02*
D03*
X130688Y-152446D02*
D03*
X125547Y-143022D02*
D03*
X130688D02*
D03*
X125668Y-133573D02*
D03*
X130688D02*
D03*
X125373Y-124124D02*
D03*
X130688Y-124162D02*
D03*
X153353Y-147567D02*
D03*
X153530Y-155366D02*
D03*
X148324Y-42732D02*
D03*
X139877Y-42477D02*
D03*
X172574Y-30712D02*
D03*
X261649Y-53595D02*
D03*
X367686Y-115591D02*
D03*
X393037Y-150290D02*
D03*
X426555Y-149135D02*
D03*
X405968Y-286128D02*
D03*
X402375Y-286503D02*
D03*
Y-283336D02*
D03*
X405535D02*
D03*
X259199Y-70443D02*
D03*
X259674Y-73872D02*
D03*
X261864Y-68717D02*
D03*
X261937Y-71955D02*
D03*
X261864Y-79115D02*
D03*
Y-75610D02*
D03*
X197472Y-202301D02*
D03*
X185810Y-202619D02*
D03*
X197696Y10841D02*
D03*
X203326Y10567D02*
D03*
X166339Y-49311D02*
D03*
X514760Y-299870D02*
D03*
X519367Y-300596D02*
D03*
X293187Y-125006D02*
D03*
X294523Y-96172D02*
D03*
X334499Y-112133D02*
D03*
X365751Y-106679D02*
D03*
X371545Y-107052D02*
D03*
X425924Y-212730D02*
D03*
X432262Y-212601D02*
D03*
X439371Y-203483D02*
D03*
X187960Y-207904D02*
D03*
Y-205403D02*
D03*
X197167Y-211757D02*
D03*
X336086Y-54326D02*
D03*
X341153Y-49759D02*
D03*
Y-54326D02*
D03*
X335039Y-49759D02*
D03*
X325824Y-46852D02*
D03*
X321252Y-46898D02*
D03*
X315501Y-47012D02*
D03*
X311688Y-46852D02*
D03*
X430548Y-243354D02*
D03*
X435120Y-243467D02*
D03*
X429706Y-258990D02*
D03*
X195394Y-340134D02*
D03*
X191808Y-244468D02*
D03*
X450317Y-155414D02*
D03*
X191725Y-249362D02*
D03*
X196814Y-251806D02*
D03*
X196643Y-249306D02*
D03*
X185810Y-246699D02*
D03*
X196611Y-244662D02*
D03*
X196436Y-247150D02*
D03*
X433239Y-138426D02*
D03*
X457305Y-249306D02*
D03*
Y-251806D02*
D03*
X454201Y-110692D02*
D03*
X453976Y-104306D02*
D03*
Y-106717D02*
D03*
X451024Y-249306D02*
D03*
Y-251806D02*
D03*
X444401Y-249306D02*
D03*
X444301Y-251806D02*
D03*
X441024Y-249306D02*
D03*
Y-251806D02*
D03*
X465973Y-171552D02*
D03*
X465641Y-164204D02*
D03*
X472835Y-175383D02*
D03*
X502885Y-100306D02*
D03*
X367539Y-90439D02*
D03*
X375787Y-95374D02*
D03*
X365450Y-120907D02*
D03*
X178322Y-245622D02*
D03*
X182142Y-245690D02*
D03*
X178083Y-243093D02*
D03*
X185532Y-243503D02*
D03*
X178151Y-235285D02*
D03*
X195527Y-238429D02*
D03*
X188128Y-235336D02*
D03*
X188316Y-237933D02*
D03*
X185258Y-238235D02*
D03*
X188217Y-215705D02*
D03*
X185466Y-208259D02*
D03*
X191916Y-208279D02*
D03*
X195893Y-208042D02*
D03*
X196019Y-231008D02*
D03*
X195593Y-228132D02*
D03*
X197092Y-214306D02*
D03*
X197108Y-216806D02*
D03*
X185665Y-223143D02*
D03*
X185869Y-220867D02*
D03*
X177981Y-215167D02*
D03*
X178005Y-212594D02*
D03*
X178382Y-222301D02*
D03*
X477374Y-186878D02*
D03*
X472835Y-178810D02*
D03*
X473217Y-152301D02*
D03*
X478765Y-149801D02*
D03*
X186154Y-386262D02*
D03*
X182879Y-386228D02*
D03*
X180576Y-386013D02*
D03*
X164392Y-387645D02*
D03*
X166929D02*
D03*
X156802Y-386270D02*
D03*
X159451D02*
D03*
X160455Y-383646D02*
D03*
X157517D02*
D03*
X154644Y-383631D02*
D03*
X277283Y-387393D02*
D03*
X225984Y-387645D02*
D03*
X204193D02*
D03*
X215206Y-387836D02*
D03*
X280710Y-386591D02*
D03*
X266346Y-387788D02*
D03*
X259117D02*
D03*
X250977Y-387980D02*
D03*
X244561Y-387836D02*
D03*
X235703Y-387645D02*
D03*
X174801Y-387980D02*
D03*
X477559Y-160190D02*
D03*
X283667Y19685D02*
D03*
X419470Y-36834D02*
D03*
X421384Y-42808D02*
D03*
X115551Y2531D02*
D03*
X226361Y-207540D02*
D03*
Y-205440D02*
D03*
X226314Y-209842D02*
D03*
X226361Y-203121D02*
D03*
X244476Y-209217D02*
D03*
X244500Y-201310D02*
D03*
X41778Y-12340D02*
D03*
X67323Y-11678D02*
D03*
X75691Y-9829D02*
D03*
X19337Y14780D02*
D03*
X24987Y6072D02*
D03*
X23760Y12279D02*
D03*
X21622Y11085D02*
D03*
X17126Y10396D02*
D03*
X464442Y-49982D02*
D03*
X461861Y-29629D02*
D03*
X424499Y-101183D02*
D03*
X499634Y-106994D02*
D03*
X469148Y-141919D02*
D03*
X470036Y-136589D02*
D03*
X470214Y-122410D02*
D03*
X498682Y-162301D02*
D03*
X503870Y-135636D02*
D03*
X470135Y-40722D02*
D03*
Y-38622D02*
D03*
X503815Y-140170D02*
D03*
Y-138070D02*
D03*
X491962Y-130555D02*
D03*
X492214Y-134466D02*
D03*
X493153Y-125899D02*
D03*
X492004Y-123027D02*
D03*
X444103Y-220556D02*
D03*
X440447D02*
D03*
X468154Y-112886D02*
D03*
Y-117088D02*
D03*
X491327Y-162506D02*
D03*
X481431Y-168491D02*
D03*
X481326Y-184196D02*
D03*
X493499Y-192347D02*
D03*
X494895Y-154923D02*
D03*
X494946Y-150136D02*
D03*
X495328Y-146051D02*
D03*
X501107Y-146105D02*
D03*
X504378Y-143155D02*
D03*
X503187Y-121445D02*
D03*
X495493Y-124376D02*
D03*
X498220Y-127771D02*
D03*
X503218Y-127887D02*
D03*
X494616Y-141461D02*
D03*
X497314Y-132600D02*
D03*
X408523Y-46898D02*
D03*
X145901Y-28900D02*
D03*
X148634Y-19796D02*
D03*
X145736Y-34646D02*
D03*
X172669Y-35957D02*
D03*
X167354D02*
D03*
X155715Y-58809D02*
D03*
X160773Y-59392D02*
D03*
X161020Y-43843D02*
D03*
X172495Y-44513D02*
D03*
X444154Y-207976D02*
D03*
X435250Y-177260D02*
D03*
X426314Y-182572D02*
D03*
X426449Y-177216D02*
D03*
X426003Y-173605D02*
D03*
X425934Y-169529D02*
D03*
X434716Y-162876D02*
D03*
X433776Y-152875D02*
D03*
X402403Y-131004D02*
D03*
X402240Y-124096D02*
D03*
X178195Y-120556D02*
D03*
X181851D02*
D03*
X213745Y-151806D02*
D03*
Y-144079D02*
D03*
X244500Y-148471D02*
D03*
X239208Y-153235D02*
D03*
X230648Y-121824D02*
D03*
Y-114665D02*
D03*
Y-117255D02*
D03*
Y-119355D02*
D03*
X496574Y-208559D02*
D03*
X496034Y-215376D02*
D03*
X501251Y-223810D02*
D03*
X498525Y-217224D02*
D03*
X491697Y-224704D02*
D03*
X480351Y-204995D02*
D03*
X479787Y-197506D02*
D03*
X524016Y-30709D02*
D03*
X548032D02*
D03*
X544685Y-32866D02*
D03*
X551401D02*
D03*
Y-27946D02*
D03*
X544329D02*
D03*
X520383Y-32472D02*
D03*
X526772D02*
D03*
X526811Y-27946D02*
D03*
X520512D02*
D03*
X391743Y-12786D02*
D03*
X353527Y-30047D02*
D03*
X357078Y-29681D02*
D03*
Y-24557D02*
D03*
X352933Y-24490D02*
D03*
X374213Y-13919D02*
D03*
Y-9807D02*
D03*
X370866Y-13719D02*
D03*
Y-9388D02*
D03*
Y-5529D02*
D03*
Y-2096D02*
D03*
X388202Y11472D02*
D03*
X388211Y3691D02*
D03*
X393247D02*
D03*
X393320Y12519D02*
D03*
X453509Y-28723D02*
D03*
X459964Y-18498D02*
D03*
X475530Y-15632D02*
D03*
X463138Y-18498D02*
D03*
X466042Y-18719D02*
D03*
X468994Y-18498D02*
D03*
X471844D02*
D03*
X474868D02*
D03*
X352933Y-14253D02*
D03*
X353527Y-10709D02*
D03*
Y-5197D02*
D03*
Y-1644D02*
D03*
X351464Y9400D02*
D03*
X355892Y9136D02*
D03*
X356009Y14135D02*
D03*
X351464Y13948D02*
D03*
X336580Y-4875D02*
D03*
X339731Y-2850D02*
D03*
X340226Y571D02*
D03*
X336985Y976D02*
D03*
X280315Y19685D02*
D03*
X292094Y-15953D02*
D03*
X281890Y-16147D02*
D03*
X281994Y5566D02*
D03*
X293415Y8730D02*
D03*
X300154Y5405D02*
D03*
X305558Y9503D02*
D03*
X293701Y13952D02*
D03*
X241732Y-1115D02*
D03*
X244934Y-24543D02*
D03*
X283072Y-30247D02*
D03*
X277022Y-30991D02*
D03*
X269830Y-31140D02*
D03*
X262639Y-31983D02*
D03*
X274076Y-12661D02*
D03*
X269199Y-12868D02*
D03*
X269253Y-9431D02*
D03*
X274076D02*
D03*
Y-6569D02*
D03*
X269253Y-6415D02*
D03*
X246049Y-11697D02*
D03*
X250579Y-11568D02*
D03*
Y-6415D02*
D03*
X246049Y-6121D02*
D03*
Y6952D02*
D03*
X250579Y7260D02*
D03*
Y15219D02*
D03*
X246049D02*
D03*
X294791Y-31375D02*
D03*
X295479Y-27832D02*
D03*
Y-24557D02*
D03*
X295358Y-48930D02*
D03*
X305558Y-44312D02*
D03*
X324160Y-11104D02*
D03*
Y-7247D02*
D03*
X322252Y-4707D02*
D03*
X319252D02*
D03*
X315915D02*
D03*
X313002Y-4660D02*
D03*
X316829Y4806D02*
D03*
X324106Y-30224D02*
D03*
Y-26783D02*
D03*
X327165Y-26879D02*
D03*
Y-30224D02*
D03*
X172052Y-9068D02*
D03*
X182485D02*
D03*
X176647Y13270D02*
D03*
X173566Y15219D02*
D03*
X141431Y-10352D02*
D03*
X137554D02*
D03*
X134076Y-10430D02*
D03*
X169121Y-15367D02*
D03*
X160599Y-11347D02*
D03*
X157879Y-10430D02*
D03*
X154551Y-10826D02*
D03*
X166902Y-17592D02*
D03*
X163588D02*
D03*
X160599Y-17530D02*
D03*
X195029Y-37259D02*
D03*
X185495Y-22105D02*
D03*
X185833Y-19167D02*
D03*
X226861Y-48720D02*
D03*
X231890Y-48343D02*
D03*
Y-44128D02*
D03*
X226314Y-43843D02*
D03*
X214961Y-38229D02*
D03*
X211560D02*
D03*
X205393Y-38287D02*
D03*
X202243Y-38229D02*
D03*
X213824Y-4299D02*
D03*
Y-673D02*
D03*
X212769Y1777D02*
D03*
X209990Y2121D02*
D03*
X207027D02*
D03*
X204385D02*
D03*
X194232Y-18517D02*
D03*
Y-15604D02*
D03*
X200935Y-11697D02*
D03*
X205393Y-11347D02*
D03*
Y-6415D02*
D03*
X200682D02*
D03*
X214754Y-23618D02*
D03*
Y-20189D02*
D03*
X217323Y-23618D02*
D03*
Y-20189D02*
D03*
X184256Y4125D02*
D03*
X183908Y9095D02*
D03*
X123000Y-10430D02*
D03*
X157879Y13270D02*
D03*
X160599Y15626D02*
D03*
X154871Y15587D02*
D03*
X134076Y15050D02*
D03*
X141315D02*
D03*
X141443Y10954D02*
D03*
X133867D02*
D03*
X530134Y-293237D02*
D03*
X539701Y-303316D02*
D03*
X545882Y-306623D02*
D03*
X548382Y-305053D02*
D03*
X560209Y-318428D02*
D03*
X553491Y-309438D02*
D03*
X529173Y-261917D02*
D03*
X515090Y-257103D02*
D03*
X507109Y-269989D02*
D03*
X502702Y-278594D02*
D03*
X523592Y-292083D02*
D03*
X520892Y-292166D02*
D03*
X517741Y-292083D02*
D03*
X523934Y-289226D02*
D03*
X520691D02*
D03*
X517662Y-289196D02*
D03*
X517624Y-285897D02*
D03*
X520292D02*
D03*
X523665D02*
D03*
X547849Y-317179D02*
D03*
X547784Y-321158D02*
D03*
X535416Y-334195D02*
D03*
X531965Y-334096D02*
D03*
X538823Y-332901D02*
D03*
Y-329901D02*
D03*
Y-327229D02*
D03*
Y-324083D02*
D03*
X525873Y-326150D02*
D03*
X530665D02*
D03*
Y-321691D02*
D03*
X525506D02*
D03*
X515616Y-306859D02*
D03*
X518717Y-307612D02*
D03*
X521867Y-314989D02*
D03*
X519141D02*
D03*
X504763Y-305270D02*
D03*
X498438Y-316739D02*
D03*
X496610Y-322915D02*
D03*
X496706Y-326800D02*
D03*
Y-331635D02*
D03*
Y-335419D02*
D03*
X490945Y-351958D02*
D03*
X495879Y-352075D02*
D03*
Y-346063D02*
D03*
X490945D02*
D03*
X546768Y-345571D02*
D03*
Y-352000D02*
D03*
X515616Y-338419D02*
D03*
X511868D02*
D03*
X515616Y-334997D02*
D03*
X511868Y-334896D02*
D03*
X118580Y16510D02*
D03*
X111420Y16238D02*
D03*
X103443Y16329D02*
D03*
X95720Y16007D02*
D03*
X123475Y12839D02*
D03*
X89764Y12745D02*
D03*
X111374Y2460D02*
D03*
X103217Y2687D02*
D03*
X95654Y2424D02*
D03*
X65348Y15295D02*
D03*
X68876Y16966D02*
D03*
X75375Y16432D02*
D03*
X77953Y14530D02*
D03*
X81314Y10349D02*
D03*
X82940Y7486D02*
D03*
X84449Y4570D02*
D03*
X78525Y2708D02*
D03*
X85705Y-3526D02*
D03*
X81194Y-7528D02*
D03*
X63386Y-12805D02*
D03*
X65354Y-10352D02*
D03*
X49538Y-5185D02*
D03*
X52559Y-7418D02*
D03*
X29434Y12396D02*
D03*
X43130Y18458D02*
D03*
X46302Y12279D02*
D03*
X40828Y10047D02*
D03*
X44281Y4856D02*
D03*
X35330Y-4776D02*
D03*
X48622Y1144D02*
D03*
X48829Y4885D02*
D03*
X469820Y-43066D02*
D03*
X469914Y-35783D02*
D03*
X470646Y-49900D02*
D03*
X470095Y-29889D02*
D03*
X425946Y-68604D02*
D03*
X409404Y-68704D02*
D03*
X420073Y-68583D02*
D03*
X415376D02*
D03*
X411320Y-80277D02*
D03*
X423112Y-80317D02*
D03*
X418762Y-81534D02*
D03*
X415308Y-81825D02*
D03*
X401398Y-64056D02*
D03*
X414099Y-64091D02*
D03*
X416622Y-53102D02*
D03*
X400021Y-53162D02*
D03*
X406262Y-53007D02*
D03*
X410827D02*
D03*
X409425Y-65864D02*
D03*
X406247Y-65572D02*
D03*
X365204Y-100389D02*
D03*
X376147Y-90605D02*
D03*
X388261Y-95471D02*
D03*
X398703Y-94980D02*
D03*
X383071Y-82603D02*
D03*
X369821Y-75705D02*
D03*
X383906Y-71066D02*
D03*
X290297Y-86930D02*
D03*
X271266Y-86958D02*
D03*
X276832Y-86846D02*
D03*
X281300Y-105171D02*
D03*
X281027Y-115559D02*
D03*
X281681Y-111932D02*
D03*
X301994Y-103780D02*
D03*
X301230Y-98218D02*
D03*
X312109Y-98191D02*
D03*
X327023Y-108524D02*
D03*
X326369Y-112369D02*
D03*
X326343Y-123488D02*
D03*
X305948Y-127855D02*
D03*
X309820Y-137125D02*
D03*
X303003Y-137343D02*
D03*
X298913Y-137452D02*
D03*
X328505Y-202445D02*
D03*
X332359Y-186710D02*
D03*
X348073Y-192507D02*
D03*
X341774Y-183768D02*
D03*
X338561Y-177712D02*
D03*
X340199Y-202244D02*
D03*
X337824Y-216763D02*
D03*
X336667Y-212727D02*
D03*
X359692Y-281581D02*
D03*
X355683Y-286679D02*
D03*
X348947Y-286830D02*
D03*
X344690Y-288096D02*
D03*
X328810Y-235950D02*
D03*
X322025Y-239265D02*
D03*
X333430Y-240381D02*
D03*
X333678Y-231392D02*
D03*
X346764Y-231588D02*
D03*
X340973Y-231776D02*
D03*
X338381Y-244254D02*
D03*
X370201Y-236575D02*
D03*
X354363Y-240368D02*
D03*
X364969Y-232689D02*
D03*
X362247Y-230007D02*
D03*
X99860Y-267185D02*
D03*
X98534Y-269685D02*
D03*
X468137Y-120061D02*
D03*
X468368Y-109864D02*
D03*
X203775Y-102335D02*
D03*
X211560Y-102685D02*
D03*
X213413Y-140636D02*
D03*
X209985Y-133693D02*
D03*
X176936Y-113220D02*
D03*
X177048Y-108102D02*
D03*
X175265Y-120560D02*
D03*
X198553Y-125667D02*
D03*
X197929Y-105556D02*
D03*
X437568Y-240554D02*
D03*
X437521Y-230540D02*
D03*
X437671Y-220537D02*
D03*
X460613Y-245538D02*
D03*
X460677Y-235563D02*
D03*
Y-225621D02*
D03*
X300108Y-116535D02*
D03*
X306407D02*
D03*
X303258Y-119685D02*
D03*
Y-113386D02*
D03*
X415536Y-60053D02*
D03*
X414210Y-57553D02*
D03*
X191923Y-223136D02*
D03*
X191902Y-220476D02*
D03*
Y-167976D02*
D03*
X191923Y-178136D02*
D03*
X191902Y-175476D02*
D03*
X191923Y-170636D02*
D03*
Y-200636D02*
D03*
X191902Y-197976D02*
D03*
Y-205476D02*
D03*
X191923Y-185636D02*
D03*
Y-193136D02*
D03*
X191902Y-190476D02*
D03*
Y-182976D02*
D03*
X444154Y-200476D02*
D03*
Y-177976D02*
D03*
Y-170476D02*
D03*
X444175Y-165636D02*
D03*
X191923Y-238136D02*
D03*
X187964Y-275666D02*
D03*
X456402Y-240556D02*
D03*
Y-230556D02*
D03*
X181923Y-230636D02*
D03*
X185053Y-249306D02*
D03*
X181902Y-235476D02*
D03*
X185053Y-251806D02*
D03*
X448614Y-275166D02*
D03*
X446402Y-230556D02*
D03*
X451928Y-235556D02*
D03*
X441928Y-245556D02*
D03*
X446402Y-240556D02*
D03*
X191923Y-230636D02*
D03*
X448614Y-292166D02*
D03*
X187464D02*
D03*
X465614D02*
D03*
X466114Y-275666D02*
D03*
X170464Y-292166D02*
D03*
Y-275166D02*
D03*
Y-80945D02*
D03*
Y-63946D02*
D03*
X187964Y-64446D02*
D03*
X454175Y-120636D02*
D03*
X454154Y-125476D02*
D03*
Y-140476D02*
D03*
X444154D02*
D03*
X444175Y-135636D02*
D03*
X447397Y-135735D02*
D03*
X454175Y-135636D02*
D03*
X444154Y-117976D02*
D03*
X444175Y-120636D02*
D03*
X448614Y-63946D02*
D03*
X466114Y-64446D02*
D03*
X465614Y-80945D02*
D03*
X448614D02*
D03*
X454175Y-143136D02*
D03*
Y-113136D02*
D03*
X457629Y-103071D02*
D03*
X454154Y-117976D02*
D03*
X457629Y-105571D02*
D03*
X454175Y-128136D02*
D03*
X444175D02*
D03*
X444154Y-125476D02*
D03*
Y-132976D02*
D03*
Y-162976D02*
D03*
X454175Y-203136D02*
D03*
X444175Y-150636D02*
D03*
Y-158136D02*
D03*
X454175Y-180636D02*
D03*
X454154Y-177976D02*
D03*
X454175Y-173136D02*
D03*
X454154Y-170476D02*
D03*
X440933Y-215376D02*
D03*
X181923Y-133136D02*
D03*
X181902Y-130476D02*
D03*
X187464Y-80945D02*
D03*
X191923Y-155636D02*
D03*
Y-140636D02*
D03*
X191902Y-137976D02*
D03*
X191923Y-133136D02*
D03*
X191902Y-130476D02*
D03*
X191923Y-163136D02*
D03*
X191902Y-160476D02*
D03*
X181902Y-137976D02*
D03*
X181923Y-140636D02*
D03*
X181902Y-145476D02*
D03*
Y-167976D02*
D03*
Y-190476D02*
D03*
Y-182976D02*
D03*
Y-175476D02*
D03*
Y-160476D02*
D03*
X181923Y-163136D02*
D03*
Y-170636D02*
D03*
X181902Y-152976D02*
D03*
X181923Y-155636D02*
D03*
Y-148136D02*
D03*
Y-185636D02*
D03*
Y-178136D02*
D03*
X181902Y-197976D02*
D03*
X181923Y-193136D02*
D03*
Y-200636D02*
D03*
X181902Y-205476D02*
D03*
X181923Y-208136D02*
D03*
Y-223136D02*
D03*
X181902Y-220476D02*
D03*
X189988Y-59706D02*
D03*
X468137D02*
D03*
X69685Y-1730D02*
D03*
X65354D02*
D03*
X61024D02*
D03*
X69685Y2601D02*
D03*
X65354D02*
D03*
X61024D02*
D03*
X69685Y6932D02*
D03*
X65354D02*
D03*
X61024D02*
D03*
X48377Y-287795D02*
D03*
X47051Y-290295D02*
D03*
X73057Y-268701D02*
D03*
X74383Y-266201D02*
D03*
D212*
X367562Y-205790D02*
D03*
X364019D02*
D03*
X360476D02*
D03*
X356932D02*
D03*
X367562Y-209333D02*
D03*
X364019D02*
D03*
X360476D02*
D03*
X356932D02*
D03*
X367562Y-212877D02*
D03*
X364019D02*
D03*
X360476D02*
D03*
X356932D02*
D03*
X367562Y-216420D02*
D03*
X364019D02*
D03*
X360476D02*
D03*
X356932D02*
D03*
D213*
X181975Y-105556D02*
D03*
X185630D02*
D03*
Y-115556D02*
D03*
X181975D02*
D03*
X410429Y-73717D02*
D03*
X409214Y-76217D02*
D03*
X457114Y-62524D02*
D03*
Y-82997D02*
D03*
X446877Y-72760D02*
D03*
X467350D02*
D03*
X149209Y-246966D02*
D03*
X127666Y-269082D02*
D03*
X453277Y-32043D02*
D03*
X444272Y-37161D02*
D03*
X444572Y-47397D02*
D03*
X114076Y-269685D02*
D03*
X112860Y-267185D02*
D03*
X401210Y-57553D02*
D03*
X399994Y-60053D02*
D03*
X178964Y-273745D02*
D03*
Y-294217D02*
D03*
X168728Y-283981D02*
D03*
X189200D02*
D03*
X467350D02*
D03*
X446877D02*
D03*
X457114Y-294217D02*
D03*
Y-273745D02*
D03*
X178964Y-62524D02*
D03*
Y-82997D02*
D03*
X168728Y-72760D02*
D03*
X189200D02*
D03*
X34051Y-290295D02*
D03*
X32836Y-287795D02*
D03*
X88598Y-268701D02*
D03*
D214*
X490492Y-120652D02*
D03*
Y-126558D02*
D03*
X474499Y-129511D02*
D03*
X490492Y-132463D02*
D03*
Y-114747D02*
D03*
X474499Y-117699D02*
D03*
X430385Y-47397D02*
D03*
X126320Y-272517D02*
D03*
X520240Y-121576D02*
D03*
Y-127482D02*
D03*
X519766Y-133387D02*
D03*
X519650Y-143074D02*
D03*
X520240Y-115671D02*
D03*
X491393Y-90523D02*
D03*
X145238Y-272561D02*
D03*
D265*
X396647Y-299374D02*
D03*
Y-303016D02*
D03*
X350133Y-340193D02*
D03*
Y-336551D02*
D03*
X373050Y-279566D02*
D03*
Y-275924D02*
D03*
X382787Y-276388D02*
D03*
Y-272747D02*
D03*
X385671Y-298265D02*
D03*
Y-301907D02*
D03*
X418559Y-283415D02*
D03*
Y-279774D02*
D03*
X430500Y-300291D02*
D03*
Y-296649D02*
D03*
X444295Y-301444D02*
D03*
Y-305086D02*
D03*
X415520Y-310246D02*
D03*
Y-306604D02*
D03*
X428098Y-320538D02*
D03*
Y-324179D02*
D03*
X426003Y-332634D02*
D03*
Y-336276D02*
D03*
X435564Y-332669D02*
D03*
Y-336311D02*
D03*
X427141Y-343381D02*
D03*
Y-339739D02*
D03*
X447209Y-344542D02*
D03*
Y-340901D02*
D03*
X434536Y-357005D02*
D03*
Y-353364D02*
D03*
X446067Y-355413D02*
D03*
Y-351772D02*
D03*
X389825Y-356315D02*
D03*
Y-359957D02*
D03*
X370957Y-342237D02*
D03*
Y-338595D02*
D03*
X351462Y-354790D02*
D03*
Y-358431D02*
D03*
X375395Y-286995D02*
D03*
Y-283354D02*
D03*
D276*
X70647Y-260455D02*
D03*
Y-261833D02*
D03*
X118865Y-353085D02*
D03*
Y-351708D02*
D03*
D277*
X73600Y-261144D02*
D03*
X121818Y-352397D02*
D03*
D284*
X64855Y-271555D02*
D03*
D285*
X64166Y-268602D02*
D03*
X65544D02*
D03*
D286*
X510046Y-71063D02*
D03*
Y-78543D02*
D03*
X501385Y-74803D02*
D03*
D287*
X8113Y-328424D02*
D03*
X4963D02*
D03*
X343349Y-216806D02*
D03*
X340199D02*
D03*
D288*
X26396Y-325656D02*
D03*
X21459D02*
D03*
D291*
X63127Y-354857D02*
D03*
X56631D02*
D03*
Y-349936D02*
D03*
X63127D02*
D03*
X360830Y-235621D02*
D03*
X354334D02*
D03*
Y-240543D02*
D03*
X360830D02*
D03*
D294*
X104144Y-50837D02*
D03*
Y-46112D02*
D03*
X104922Y-235480D02*
D03*
Y-240205D02*
D03*
X121008Y-216840D02*
D03*
Y-212115D02*
D03*
X120162Y-229660D02*
D03*
Y-224936D02*
D03*
X120008Y-150480D02*
D03*
Y-155204D02*
D03*
X121796Y-59555D02*
D03*
Y-54831D02*
D03*
X119859Y-123346D02*
D03*
Y-118622D02*
D03*
X121796Y-45226D02*
D03*
Y-49951D02*
D03*
X103703Y-151034D02*
D03*
Y-155759D02*
D03*
X104113Y-64402D02*
D03*
Y-69126D02*
D03*
D296*
X104293Y-212842D02*
D03*
X99569D02*
D03*
X44105Y4885D02*
D03*
X48829D02*
D03*
X103408Y-131014D02*
D03*
X98683D02*
D03*
D298*
X502986Y-103477D02*
D03*
Y-106851D02*
D03*
D299*
X435827Y-248038D02*
D03*
X430315D02*
D03*
X557658Y-305481D02*
D03*
X552146D02*
D03*
D300*
X114670Y-210566D02*
D03*
X109346D02*
D03*
Y-231000D02*
D03*
X114670D02*
D03*
X109346Y-128228D02*
D03*
X114670D02*
D03*
X109524Y-145634D02*
D03*
X114848D02*
D03*
X110312Y-45450D02*
D03*
X115635D02*
D03*
X109827Y-64102D02*
D03*
X115151D02*
D03*
D302*
X285106Y-92716D02*
D03*
X277625D02*
D03*
Y-101112D02*
D03*
X281366D02*
D03*
D303*
X285106D02*
D03*
D310*
X343287Y-177641D02*
D03*
X346559D02*
D03*
D311*
X335827Y-189881D02*
D03*
Y-186609D02*
D03*
D312*
X341774Y-183605D02*
D03*
Y-192266D02*
D03*
X348073D02*
D03*
Y-183605D02*
D03*
D313*
X356008Y-230007D02*
D03*
X359157D02*
D03*
D314*
X367523Y-236567D02*
D03*
Y-239716D02*
D03*
D315*
X540882Y-297859D02*
D03*
X545882D02*
D03*
X550882D02*
D03*
X555882D02*
D03*
Y-276599D02*
D03*
X550882D02*
D03*
X545882D02*
D03*
X540882D02*
D03*
D317*
X267427Y-1115D02*
D03*
Y3884D02*
D03*
Y8884D02*
D03*
Y13884D02*
D03*
X288687D02*
D03*
Y8884D02*
D03*
Y3884D02*
D03*
Y-1115D02*
D03*
X157922Y-5871D02*
D03*
Y-871D02*
D03*
Y4129D02*
D03*
Y9129D02*
D03*
X179182D02*
D03*
Y4129D02*
D03*
Y-871D02*
D03*
Y-5871D02*
D03*
X418504Y-7738D02*
D03*
Y-12738D02*
D03*
X397244Y-22738D02*
D03*
Y-17738D02*
D03*
Y-12738D02*
D03*
Y-7738D02*
D03*
X418504Y-17738D02*
D03*
Y-22738D02*
D03*
D319*
X426392Y-273307D02*
D03*
Y-269567D02*
D03*
D320*
X293000Y-336344D02*
D03*
X288000D02*
D03*
X283000D02*
D03*
X278000D02*
D03*
X293000Y-317053D02*
D03*
X288000D02*
D03*
X283000D02*
D03*
X278000D02*
D03*
D321*
X379400Y-357390D02*
D03*
X376329D02*
D03*
D322*
X426181Y-328983D02*
D03*
X430905D02*
D03*
X437213Y-344417D02*
D03*
X441938D02*
D03*
X440776Y-358926D02*
D03*
X445500D02*
D03*
X435206Y-300596D02*
D03*
X439930D02*
D03*
X421341Y-312492D02*
D03*
X426065D02*
D03*
X386047Y-294810D02*
D03*
X390771D02*
D03*
X345274Y-354472D02*
D03*
X340550D02*
D03*
X365314Y-337359D02*
D03*
X360590D02*
D03*
D323*
X354545Y-73575D02*
D03*
Y-70031D02*
D03*
X499574Y-86213D02*
D03*
Y-82670D02*
D03*
X309202Y-101772D02*
D03*
Y-98228D02*
D03*
X304537D02*
D03*
Y-101772D02*
D03*
D324*
X362247Y-211105D02*
D03*
D325*
X372562Y-204215D02*
D03*
Y-206184D02*
D03*
Y-208152D02*
D03*
Y-210121D02*
D03*
Y-212089D02*
D03*
Y-214058D02*
D03*
Y-216026D02*
D03*
Y-217995D02*
D03*
X351933Y-217995D02*
D03*
Y-216026D02*
D03*
Y-214058D02*
D03*
Y-212089D02*
D03*
Y-210121D02*
D03*
Y-208152D02*
D03*
Y-206184D02*
D03*
Y-204215D02*
D03*
D326*
X369137Y-221420D02*
D03*
X367169D02*
D03*
X365200D02*
D03*
X363232D02*
D03*
X361263D02*
D03*
X359295D02*
D03*
X357326D02*
D03*
X355358D02*
D03*
X355358Y-200790D02*
D03*
X357326D02*
D03*
X359295D02*
D03*
X361263D02*
D03*
X363232D02*
D03*
X365200D02*
D03*
X367169D02*
D03*
X369137D02*
D03*
D327*
X358325Y-274568D02*
D03*
X353325D02*
D03*
X348325D02*
D03*
X343325D02*
D03*
X338325D02*
D03*
X333325D02*
D03*
X328325D02*
D03*
X323325D02*
D03*
X358325Y-250367D02*
D03*
X353325D02*
D03*
X348325D02*
D03*
X343325D02*
D03*
X338325D02*
D03*
X333325D02*
D03*
X328325D02*
D03*
X323325D02*
D03*
D328*
X335756Y-168643D02*
D03*
Y-166084D02*
D03*
Y-163525D02*
D03*
Y-160966D02*
D03*
Y-158407D02*
D03*
Y-155848D02*
D03*
Y-153289D02*
D03*
Y-150730D02*
D03*
Y-148171D02*
D03*
Y-145612D02*
D03*
Y-143053D02*
D03*
Y-140494D02*
D03*
X358984Y-168643D02*
D03*
Y-166084D02*
D03*
Y-163525D02*
D03*
Y-160966D02*
D03*
Y-158407D02*
D03*
Y-155848D02*
D03*
Y-153289D02*
D03*
Y-150730D02*
D03*
Y-148171D02*
D03*
Y-145612D02*
D03*
Y-143053D02*
D03*
Y-140494D02*
D03*
D329*
X112795Y-341030D02*
D03*
Y-339061D02*
D03*
Y-337093D02*
D03*
Y-335124D02*
D03*
Y-333156D02*
D03*
Y-331187D02*
D03*
Y-329219D02*
D03*
Y-327250D02*
D03*
Y-325282D02*
D03*
Y-323313D02*
D03*
Y-321345D02*
D03*
Y-319376D02*
D03*
Y-317408D02*
D03*
Y-315439D02*
D03*
Y-313471D02*
D03*
Y-311502D02*
D03*
X68307Y-341030D02*
D03*
Y-339061D02*
D03*
Y-337093D02*
D03*
Y-335124D02*
D03*
Y-333156D02*
D03*
Y-331187D02*
D03*
Y-329219D02*
D03*
Y-327250D02*
D03*
Y-325282D02*
D03*
Y-323313D02*
D03*
Y-321345D02*
D03*
Y-319376D02*
D03*
Y-317408D02*
D03*
Y-315439D02*
D03*
Y-313471D02*
D03*
Y-311502D02*
D03*
D330*
X105315Y-348510D02*
D03*
Y-304022D02*
D03*
X103346Y-348510D02*
D03*
Y-304022D02*
D03*
X101378Y-348510D02*
D03*
Y-304022D02*
D03*
X99409Y-348510D02*
D03*
Y-304022D02*
D03*
X97441Y-348510D02*
D03*
Y-304022D02*
D03*
X95472Y-348510D02*
D03*
Y-304022D02*
D03*
X93504Y-348510D02*
D03*
Y-304022D02*
D03*
X91535Y-348510D02*
D03*
Y-304022D02*
D03*
X89567Y-348510D02*
D03*
Y-304022D02*
D03*
X87598Y-348510D02*
D03*
Y-304022D02*
D03*
X85630Y-348510D02*
D03*
Y-304022D02*
D03*
X83661Y-348510D02*
D03*
Y-304022D02*
D03*
X81693Y-348510D02*
D03*
Y-304022D02*
D03*
X79724Y-348510D02*
D03*
Y-304022D02*
D03*
X77756Y-348510D02*
D03*
Y-304022D02*
D03*
X75787Y-348510D02*
D03*
Y-304022D02*
D03*
D331*
X313041Y-208748D02*
D03*
X310482D02*
D03*
X307923D02*
D03*
X305363D02*
D03*
X313041Y-192016D02*
D03*
X310482D02*
D03*
X307923D02*
D03*
X305363D02*
D03*
D332*
X545630Y-182550D02*
D03*
Y-178810D02*
D03*
Y-175070D02*
D03*
X555079D02*
D03*
Y-182550D02*
D03*
X515042Y-182240D02*
D03*
Y-178499D02*
D03*
Y-174759D02*
D03*
X524491D02*
D03*
Y-182240D02*
D03*
D333*
X119040Y-236071D02*
D03*
Y-241386D02*
D03*
X105097Y-200664D02*
D03*
Y-205979D02*
D03*
X119040D02*
D03*
Y-200664D02*
D03*
X121796Y-70716D02*
D03*
Y-65401D02*
D03*
X120949Y-39400D02*
D03*
Y-34085D02*
D03*
X120162Y-134699D02*
D03*
Y-129384D02*
D03*
X121008Y-139380D02*
D03*
Y-144695D02*
D03*
X105097Y-118676D02*
D03*
Y-123991D02*
D03*
D334*
X131870Y-312551D02*
D03*
X146870D02*
D03*
X136870D02*
D03*
X141870D02*
D03*
X131870Y-333811D02*
D03*
X146870D02*
D03*
X136870D02*
D03*
X141870D02*
D03*
D335*
X142185Y-283671D02*
D03*
X138642D02*
D03*
D336*
X52137Y-352856D02*
D03*
Y-355927D02*
D03*
X67323Y-351798D02*
D03*
Y-354869D02*
D03*
D337*
X17282Y-334140D02*
D03*
Y-336109D02*
D03*
Y-330203D02*
D03*
Y-332172D02*
D03*
X28699Y-334140D02*
D03*
Y-336109D02*
D03*
Y-330203D02*
D03*
Y-332172D02*
D03*
D338*
X22991Y-333156D02*
D03*
D339*
X98918Y-228454D02*
D03*
X104233D02*
D03*
X99274Y-145035D02*
D03*
X104589D02*
D03*
X99836Y-46409D02*
D03*
X94521D02*
D03*
X98829Y-58588D02*
D03*
X104144D02*
D03*
D340*
X383268Y-91472D02*
D03*
Y-89504D02*
D03*
Y-87535D02*
D03*
Y-85567D02*
D03*
X395669D02*
D03*
Y-87535D02*
D03*
Y-89504D02*
D03*
Y-91472D02*
D03*
D341*
X285736Y-86846D02*
D03*
X290263D02*
D03*
D342*
X303258Y-116535D02*
D03*
D343*
X307096Y-109350D02*
D03*
X304537D02*
D03*
X301978D02*
D03*
X299419D02*
D03*
Y-123721D02*
D03*
X301978D02*
D03*
X304537D02*
D03*
X307096D02*
D03*
D344*
X296073Y-112697D02*
D03*
Y-115256D02*
D03*
Y-117815D02*
D03*
Y-120374D02*
D03*
X310443D02*
D03*
Y-117815D02*
D03*
Y-115256D02*
D03*
Y-112697D02*
D03*
D345*
X111303Y7214D02*
D03*
Y12529D02*
D03*
X103347Y7345D02*
D03*
Y12660D02*
D03*
X95654Y7214D02*
D03*
Y12529D02*
D03*
X118685Y12745D02*
D03*
Y7430D02*
D03*
D346*
X560217Y-315284D02*
D03*
Y-311819D02*
D03*
X302088Y12613D02*
D03*
Y9149D02*
D03*
X193163Y5219D02*
D03*
Y8684D02*
D03*
X384898Y-22695D02*
D03*
Y-19230D02*
D03*
X241941Y-378907D02*
D03*
Y-382293D02*
D03*
X237941Y-378907D02*
D03*
Y-382293D02*
D03*
X222641Y-378907D02*
D03*
Y-382293D02*
D03*
X218341D02*
D03*
Y-378907D02*
D03*
X210441D02*
D03*
Y-382293D02*
D03*
X206441D02*
D03*
Y-378907D02*
D03*
D347*
X358535Y-12661D02*
D03*
X365621D02*
D03*
M02*
