G04*
G04 #@! TF.GenerationSoftware,Altium Limited,Altium Designer,24.9.1 (31)*
G04*
G04 Layer_Color=8388736*
%FSLAX25Y25*%
%MOIN*%
G70*
G04*
G04 #@! TF.SameCoordinates,8C3FED30-37FA-4A54-8C90-A1F039295453*
G04*
G04*
G04 #@! TF.FilePolarity,Negative*
G04*
G01*
G75*
%ADD17R,0.07700X0.02800*%
%ADD18R,0.04600X0.02700*%
%ADD19R,0.01400X0.02800*%
%ADD24R,0.05315X0.02362*%
%ADD25R,0.05315X0.01575*%
%ADD29R,0.07505X0.05924*%
%ADD30R,0.06717X0.04349*%
%ADD31R,0.02648X0.02816*%
%ADD32R,0.02288X0.02016*%
%ADD33R,0.02756X0.02756*%
%ADD34R,0.06717X0.04546*%
%ADD35R,0.01378X0.02362*%
%ADD36R,0.05512X0.01378*%
%ADD37R,0.02362X0.01378*%
%ADD40R,0.05315X0.04331*%
%ADD41R,0.02648X0.02911*%
%ADD42R,0.03150X0.03150*%
%ADD43R,0.02648X0.02631*%
%ADD45R,0.07000X0.07000*%
%ADD46C,0.06000*%
%ADD47R,0.02423X0.02254*%
%ADD52R,0.01000X0.03200*%
%ADD53R,0.03200X0.01000*%
%ADD56R,0.02016X0.02288*%
%ADD58R,0.19291X0.04331*%
%ADD59R,0.02254X0.02423*%
%ADD60R,0.01788X0.01428*%
%ADD65R,0.07835X0.09173*%
%ADD68R,0.03563X0.03568*%
%ADD71R,0.05512X0.04724*%
%ADD72R,0.02047X0.02047*%
%ADD73R,0.02047X0.02047*%
%ADD74R,0.03568X0.03563*%
%ADD75R,0.07301X0.09000*%
%ADD77R,0.02953X0.03543*%
%ADD78R,0.01575X0.01968*%
%ADD79R,0.09800X0.03700*%
%ADD80R,0.23300X0.21700*%
%ADD82R,0.04088X0.02095*%
G04:AMPARAMS|DCode=83|XSize=40.88mil|YSize=20.95mil|CornerRadius=10.48mil|HoleSize=0mil|Usage=FLASHONLY|Rotation=0.000|XOffset=0mil|YOffset=0mil|HoleType=Round|Shape=RoundedRectangle|*
%AMROUNDEDRECTD83*
21,1,0.04088,0.00000,0,0,0.0*
21,1,0.01993,0.02095,0,0,0.0*
1,1,0.02095,0.00996,0.00000*
1,1,0.02095,-0.00996,0.00000*
1,1,0.02095,-0.00996,0.00000*
1,1,0.02095,0.00996,0.00000*
%
%ADD83ROUNDEDRECTD83*%
G04:AMPARAMS|DCode=84|XSize=9.45mil|YSize=23.62mil|CornerRadius=1.98mil|HoleSize=0mil|Usage=FLASHONLY|Rotation=0.000|XOffset=0mil|YOffset=0mil|HoleType=Round|Shape=RoundedRectangle|*
%AMROUNDEDRECTD84*
21,1,0.00945,0.01965,0,0,0.0*
21,1,0.00548,0.02362,0,0,0.0*
1,1,0.00397,0.00274,-0.00983*
1,1,0.00397,-0.00274,-0.00983*
1,1,0.00397,-0.00274,0.00983*
1,1,0.00397,0.00274,0.00983*
%
%ADD84ROUNDEDRECTD84*%
G04:AMPARAMS|DCode=85|XSize=23.62mil|YSize=9.45mil|CornerRadius=1.98mil|HoleSize=0mil|Usage=FLASHONLY|Rotation=0.000|XOffset=0mil|YOffset=0mil|HoleType=Round|Shape=RoundedRectangle|*
%AMROUNDEDRECTD85*
21,1,0.02362,0.00548,0,0,0.0*
21,1,0.01965,0.00945,0,0,0.0*
1,1,0.00397,0.00983,-0.00274*
1,1,0.00397,-0.00983,-0.00274*
1,1,0.00397,-0.00983,0.00274*
1,1,0.00397,0.00983,0.00274*
%
%ADD85ROUNDEDRECTD85*%
%ADD86R,0.06299X0.04921*%
%ADD87R,0.12992X0.09449*%
%ADD94R,0.31496X0.13583*%
%ADD95R,1.35433X0.23032*%
%ADD96O,0.02769X0.01587*%
%ADD97R,0.21272X0.21272*%
%ADD98O,0.01587X0.02769*%
%ADD99R,0.08674X0.02769*%
%ADD100R,0.00984X0.00984*%
%ADD101R,0.00900X0.01200*%
%ADD102R,0.03162X0.03359*%
%ADD103R,0.03359X0.03162*%
%ADD104R,0.06706X0.08083*%
%ADD105R,0.03556X0.03359*%
%ADD106R,0.14580X0.12611*%
%ADD107R,0.06312X0.04737*%
%ADD108R,0.06312X0.06312*%
%ADD109R,0.04934X0.02572*%
%ADD110R,0.03792X0.03635*%
%ADD111R,0.04737X0.06312*%
%ADD112R,0.06312X0.06312*%
%ADD113R,0.03635X0.03792*%
G04:AMPARAMS|DCode=114|XSize=15.87mil|YSize=31.62mil|CornerRadius=5.97mil|HoleSize=0mil|Usage=FLASHONLY|Rotation=0.000|XOffset=0mil|YOffset=0mil|HoleType=Round|Shape=RoundedRectangle|*
%AMROUNDEDRECTD114*
21,1,0.01587,0.01968,0,0,0.0*
21,1,0.00394,0.03162,0,0,0.0*
1,1,0.01194,0.00197,-0.00984*
1,1,0.01194,-0.00197,-0.00984*
1,1,0.01194,-0.00197,0.00984*
1,1,0.01194,0.00197,0.00984*
%
%ADD114ROUNDEDRECTD114*%
G04:AMPARAMS|DCode=115|XSize=15.87mil|YSize=31.62mil|CornerRadius=5.97mil|HoleSize=0mil|Usage=FLASHONLY|Rotation=90.000|XOffset=0mil|YOffset=0mil|HoleType=Round|Shape=RoundedRectangle|*
%AMROUNDEDRECTD115*
21,1,0.01587,0.01968,0,0,90.0*
21,1,0.00394,0.03162,0,0,90.0*
1,1,0.01194,0.00984,0.00197*
1,1,0.01194,0.00984,-0.00197*
1,1,0.01194,-0.00984,-0.00197*
1,1,0.01194,-0.00984,0.00197*
%
%ADD115ROUNDEDRECTD115*%
G04:AMPARAMS|DCode=116|XSize=15.87mil|YSize=35.56mil|CornerRadius=5.97mil|HoleSize=0mil|Usage=FLASHONLY|Rotation=90.000|XOffset=0mil|YOffset=0mil|HoleType=Round|Shape=RoundedRectangle|*
%AMROUNDEDRECTD116*
21,1,0.01587,0.02362,0,0,90.0*
21,1,0.00394,0.03556,0,0,90.0*
1,1,0.01194,0.01181,0.00197*
1,1,0.01194,0.01181,-0.00197*
1,1,0.01194,-0.01181,-0.00197*
1,1,0.01194,-0.01181,0.00197*
%
%ADD116ROUNDEDRECTD116*%
%ADD117R,0.02965X0.02965*%
%ADD118R,0.03600X0.17300*%
%ADD119O,0.03556X0.08674*%
%ADD120R,0.02965X0.02769*%
%ADD121R,0.02769X0.02965*%
G04:AMPARAMS|DCode=122|XSize=19.81mil|YSize=47.37mil|CornerRadius=5.95mil|HoleSize=0mil|Usage=FLASHONLY|Rotation=90.000|XOffset=0mil|YOffset=0mil|HoleType=Round|Shape=RoundedRectangle|*
%AMROUNDEDRECTD122*
21,1,0.01981,0.03547,0,0,90.0*
21,1,0.00791,0.04737,0,0,90.0*
1,1,0.01190,0.01774,0.00396*
1,1,0.01190,0.01774,-0.00396*
1,1,0.01190,-0.01774,-0.00396*
1,1,0.01190,-0.01774,0.00396*
%
%ADD122ROUNDEDRECTD122*%
%ADD123R,0.02965X0.02965*%
G04:AMPARAMS|DCode=124|XSize=122.05mil|YSize=122.05mil|CornerRadius=1.83mil|HoleSize=0mil|Usage=FLASHONLY|Rotation=0.000|XOffset=0mil|YOffset=0mil|HoleType=Round|Shape=RoundedRectangle|*
%AMROUNDEDRECTD124*
21,1,0.12205,0.11839,0,0,0.0*
21,1,0.11839,0.12205,0,0,0.0*
1,1,0.00366,0.05919,-0.05919*
1,1,0.00366,-0.05919,-0.05919*
1,1,0.00366,-0.05919,0.05919*
1,1,0.00366,0.05919,0.05919*
%
%ADD124ROUNDEDRECTD124*%
%ADD125R,0.06509X0.08280*%
%ADD126R,0.04737X0.03635*%
%ADD127R,0.05131X0.04934*%
%ADD128R,0.03753X0.04147*%
%ADD129R,0.04934X0.05131*%
%ADD130R,0.03600X0.13400*%
%ADD131R,0.06902X0.06902*%
%ADD132C,0.06902*%
%ADD133C,0.05721*%
%ADD134R,0.08674X0.08674*%
%ADD135C,0.00800*%
%ADD136C,0.12414*%
%ADD137C,0.07887*%
%ADD138C,0.09068*%
%ADD139C,0.06312*%
%ADD140C,0.25800*%
%ADD141R,0.10827X0.10827*%
%ADD142C,0.10827*%
%ADD143C,0.02400*%
G36*
X355670Y-337687D02*
X355784D01*
Y-337700D01*
X355847D01*
Y-337713D01*
X355885D01*
Y-337725D01*
X355936D01*
Y-337738D01*
X355987D01*
Y-337751D01*
X356012D01*
Y-337764D01*
X356050D01*
Y-337776D01*
X356076D01*
Y-337789D01*
X356101D01*
Y-337802D01*
X356139D01*
Y-337814D01*
X356152D01*
Y-337827D01*
X356177D01*
Y-337840D01*
X356203D01*
Y-337852D01*
X356228D01*
Y-337865D01*
X356253D01*
Y-337878D01*
X356266D01*
Y-337890D01*
X356291D01*
Y-337903D01*
X356304D01*
Y-337916D01*
X356317D01*
Y-337929D01*
X356342D01*
Y-337941D01*
X356355D01*
Y-337954D01*
X356380D01*
Y-337966D01*
X356393D01*
Y-337979D01*
X356405D01*
Y-337992D01*
X356418D01*
Y-338005D01*
X356431D01*
Y-338017D01*
X356444D01*
Y-338030D01*
X356469D01*
Y-338043D01*
X356482D01*
Y-338068D01*
X356507D01*
Y-338081D01*
X356520D01*
Y-338106D01*
X356532D01*
Y-338119D01*
X356545D01*
Y-338131D01*
X356558D01*
Y-338144D01*
X356570D01*
Y-338157D01*
X356583D01*
Y-338170D01*
X356596D01*
Y-338195D01*
X356609D01*
Y-338208D01*
X356621D01*
Y-338220D01*
X356634D01*
Y-338246D01*
X356646D01*
Y-338258D01*
X356659D01*
Y-338284D01*
X356672D01*
Y-338296D01*
X356685D01*
Y-338322D01*
X356697D01*
Y-338347D01*
X356710D01*
Y-338360D01*
X356723D01*
Y-338398D01*
X356735D01*
Y-338410D01*
X356748D01*
Y-338436D01*
X356761D01*
Y-338474D01*
X356773D01*
Y-338499D01*
X356786D01*
Y-338537D01*
X356799D01*
Y-338563D01*
X356811D01*
Y-338601D01*
X356824D01*
Y-338651D01*
X356837D01*
Y-338690D01*
X356850D01*
Y-338766D01*
X356862D01*
Y-338867D01*
X356875D01*
Y-339134D01*
X356862D01*
Y-339235D01*
X356850D01*
Y-339299D01*
X356837D01*
Y-339336D01*
X356824D01*
Y-339387D01*
X356811D01*
Y-339438D01*
X356799D01*
Y-339463D01*
X356786D01*
Y-339502D01*
X356773D01*
Y-339527D01*
X356761D01*
Y-339552D01*
X356748D01*
Y-339590D01*
X356735D01*
Y-339603D01*
X356723D01*
Y-339628D01*
X356710D01*
Y-339654D01*
X356697D01*
Y-339679D01*
X356685D01*
Y-339704D01*
X356672D01*
Y-339717D01*
X356659D01*
Y-339730D01*
X356646D01*
Y-339755D01*
X356634D01*
Y-339768D01*
X356621D01*
Y-339793D01*
X356609D01*
Y-339806D01*
X356596D01*
Y-339819D01*
X356583D01*
Y-339844D01*
X356570D01*
Y-339857D01*
X356558D01*
Y-339869D01*
X356545D01*
Y-339882D01*
X356532D01*
Y-339895D01*
X356520D01*
Y-339907D01*
X356507D01*
Y-339920D01*
X356494D01*
Y-339933D01*
X356482D01*
Y-339946D01*
X356469D01*
Y-339958D01*
X356456D01*
Y-339971D01*
X356444D01*
Y-339984D01*
X356431D01*
Y-339996D01*
X356418D01*
Y-340009D01*
X356405D01*
Y-340022D01*
X356393D01*
Y-340034D01*
X356367D01*
Y-340047D01*
X356355D01*
Y-340060D01*
X356342D01*
Y-340072D01*
X356317D01*
Y-340085D01*
X356304D01*
Y-340098D01*
X356279D01*
Y-340110D01*
X356266D01*
Y-340123D01*
X356241D01*
Y-340136D01*
X356215D01*
Y-340148D01*
X356203D01*
Y-340161D01*
X356177D01*
Y-340174D01*
X356152D01*
Y-340187D01*
X356126D01*
Y-340199D01*
X356101D01*
Y-340212D01*
X356076D01*
Y-340225D01*
X356050D01*
Y-340237D01*
X356000D01*
Y-340250D01*
X355974D01*
Y-340263D01*
X355936D01*
Y-340275D01*
X355885D01*
Y-340288D01*
X355835D01*
Y-340301D01*
X355771D01*
Y-340313D01*
X355682D01*
Y-340326D01*
X355657D01*
Y-340313D01*
X355644D01*
Y-340326D01*
X353906D01*
Y-340313D01*
X353894D01*
Y-340326D01*
X353868D01*
Y-340313D01*
X353780D01*
Y-340301D01*
X353703D01*
Y-340288D01*
X353665D01*
Y-340275D01*
X353615D01*
Y-340263D01*
X353564D01*
Y-340250D01*
X353539D01*
Y-340237D01*
X353501D01*
Y-340225D01*
X353475D01*
Y-340212D01*
X353450D01*
Y-340199D01*
X353412D01*
Y-340187D01*
X353399D01*
Y-340174D01*
X353374D01*
Y-340161D01*
X353348D01*
Y-340148D01*
X353323D01*
Y-340136D01*
X353298D01*
Y-340123D01*
X353285D01*
Y-340110D01*
X353259D01*
Y-340098D01*
X353247D01*
Y-340085D01*
X353222D01*
Y-340072D01*
X353209D01*
Y-340060D01*
X353196D01*
Y-340047D01*
X353171D01*
Y-340034D01*
X353158D01*
Y-340022D01*
X353145D01*
Y-340009D01*
X353133D01*
Y-339996D01*
X353120D01*
Y-339984D01*
X353107D01*
Y-339971D01*
X353095D01*
Y-339958D01*
X353069D01*
Y-339946D01*
X353057D01*
Y-339933D01*
X353044D01*
Y-339920D01*
X353031D01*
Y-339895D01*
X353018D01*
Y-339882D01*
X353006D01*
Y-339869D01*
X352993D01*
Y-339857D01*
X352980D01*
Y-339844D01*
X352968D01*
Y-339831D01*
X352955D01*
Y-339806D01*
X352942D01*
Y-339793D01*
X352930D01*
Y-339780D01*
X352917D01*
Y-339768D01*
X352904D01*
Y-339742D01*
X352892D01*
Y-339717D01*
X352879D01*
Y-339704D01*
X352866D01*
Y-339679D01*
X352854D01*
Y-339654D01*
X352841D01*
Y-339641D01*
X352828D01*
Y-339616D01*
X352816D01*
Y-339590D01*
X352803D01*
Y-339565D01*
X352790D01*
Y-339527D01*
X352778D01*
Y-339514D01*
X352765D01*
Y-339476D01*
X352752D01*
Y-339438D01*
X352739D01*
Y-339400D01*
X352727D01*
Y-339349D01*
X352714D01*
Y-339311D01*
X352701D01*
Y-339248D01*
X352689D01*
Y-339146D01*
X352676D01*
Y-339070D01*
X352663D01*
Y-339057D01*
X352676D01*
Y-338943D01*
X352663D01*
Y-338931D01*
X352676D01*
Y-338842D01*
X352689D01*
Y-338740D01*
X352701D01*
Y-338690D01*
X352714D01*
Y-338639D01*
X352727D01*
Y-338588D01*
X352739D01*
Y-338563D01*
X352752D01*
Y-338525D01*
X352765D01*
Y-338487D01*
X352778D01*
Y-338461D01*
X352790D01*
Y-338436D01*
X352803D01*
Y-338410D01*
X352816D01*
Y-338385D01*
X352828D01*
Y-338360D01*
X352841D01*
Y-338334D01*
X352854D01*
Y-338322D01*
X352866D01*
Y-338296D01*
X352879D01*
Y-338284D01*
X352892D01*
Y-338258D01*
X352904D01*
Y-338233D01*
X352917D01*
Y-338220D01*
X352930D01*
Y-338208D01*
X352942D01*
Y-338182D01*
X352955D01*
Y-338170D01*
X352968D01*
Y-338157D01*
X352980D01*
Y-338144D01*
X352993D01*
Y-338131D01*
X353006D01*
Y-338106D01*
X353018D01*
Y-338093D01*
X353031D01*
Y-338081D01*
X353044D01*
Y-338068D01*
X353057D01*
Y-338055D01*
X353069D01*
Y-338043D01*
X353082D01*
Y-338030D01*
X353095D01*
Y-338017D01*
X353107D01*
Y-338005D01*
X353133D01*
Y-337992D01*
X353145D01*
Y-337979D01*
X353158D01*
Y-337966D01*
X353171D01*
Y-337954D01*
X353183D01*
Y-337941D01*
X353209D01*
Y-337929D01*
X353222D01*
Y-337916D01*
X353234D01*
Y-337903D01*
X353259D01*
Y-337890D01*
X353285D01*
Y-337878D01*
X353298D01*
Y-337865D01*
X353323D01*
Y-337852D01*
X353336D01*
Y-337840D01*
X353361D01*
Y-337827D01*
X353399D01*
Y-337814D01*
X353412D01*
Y-337802D01*
X353437D01*
Y-337789D01*
X353475D01*
Y-337776D01*
X353501D01*
Y-337764D01*
X353539D01*
Y-337751D01*
X353564D01*
Y-337738D01*
X353602D01*
Y-337725D01*
X353653D01*
Y-337713D01*
X353691D01*
Y-337700D01*
X353767D01*
Y-337687D01*
X353881D01*
Y-337675D01*
X355670D01*
Y-337687D01*
D02*
G37*
G36*
X349568D02*
X349682D01*
Y-337700D01*
X349746D01*
Y-337713D01*
X349784D01*
Y-337725D01*
X349847D01*
Y-337738D01*
X349885D01*
Y-337751D01*
X349910D01*
Y-337764D01*
X349949D01*
Y-337776D01*
X349974D01*
Y-337789D01*
X350012D01*
Y-337802D01*
X350037D01*
Y-337814D01*
X350063D01*
Y-337827D01*
X350088D01*
Y-337840D01*
X350114D01*
Y-337852D01*
X350126D01*
Y-337865D01*
X350151D01*
Y-337878D01*
X350177D01*
Y-337890D01*
X350190D01*
Y-337903D01*
X350215D01*
Y-337916D01*
X350228D01*
Y-337929D01*
X350253D01*
Y-337941D01*
X350266D01*
Y-337954D01*
X350278D01*
Y-337966D01*
X350304D01*
Y-337979D01*
X350317D01*
Y-337992D01*
X350329D01*
Y-338005D01*
X350342D01*
Y-338017D01*
X350355D01*
Y-338030D01*
X350367D01*
Y-338043D01*
X350393D01*
Y-338068D01*
X350418D01*
Y-338081D01*
X350431D01*
Y-338106D01*
X350443D01*
Y-338119D01*
X350456D01*
Y-338131D01*
X350469D01*
Y-338144D01*
X350481D01*
Y-338157D01*
X350494D01*
Y-338170D01*
X350507D01*
Y-338195D01*
X350519D01*
Y-338208D01*
X350532D01*
Y-338220D01*
X350545D01*
Y-338233D01*
X350557D01*
Y-338258D01*
X350570D01*
Y-338271D01*
X350583D01*
Y-338296D01*
X350596D01*
Y-338322D01*
X350608D01*
Y-338334D01*
X350621D01*
Y-338360D01*
X350634D01*
Y-338385D01*
X350646D01*
Y-338410D01*
X350659D01*
Y-338436D01*
X350672D01*
Y-338461D01*
X350684D01*
Y-338487D01*
X350697D01*
Y-338525D01*
X350710D01*
Y-338550D01*
X350722D01*
Y-338588D01*
X350735D01*
Y-338639D01*
X350748D01*
Y-338677D01*
X350761D01*
Y-338740D01*
X350773D01*
Y-338816D01*
X350786D01*
Y-338918D01*
X350799D01*
Y-339070D01*
X350786D01*
Y-339184D01*
X350773D01*
Y-339260D01*
X350761D01*
Y-339324D01*
X350748D01*
Y-339362D01*
X350735D01*
Y-339413D01*
X350722D01*
Y-339451D01*
X350710D01*
Y-339476D01*
X350697D01*
Y-339514D01*
X350684D01*
Y-339540D01*
X350672D01*
Y-339565D01*
X350659D01*
Y-339603D01*
X350646D01*
Y-339616D01*
X350634D01*
Y-339641D01*
X350621D01*
Y-339666D01*
X350608D01*
Y-339679D01*
X350596D01*
Y-339704D01*
X350583D01*
Y-339717D01*
X350570D01*
Y-339742D01*
X350557D01*
Y-339768D01*
X350545D01*
Y-339780D01*
X350532D01*
Y-339793D01*
X350519D01*
Y-339806D01*
X350507D01*
Y-339819D01*
X350494D01*
Y-339844D01*
X350481D01*
Y-339857D01*
X350469D01*
Y-339869D01*
X350456D01*
Y-339882D01*
X350443D01*
Y-339895D01*
X350431D01*
Y-339907D01*
X350418D01*
Y-339920D01*
X350405D01*
Y-339933D01*
X350393D01*
Y-339946D01*
X350380D01*
Y-339958D01*
X350367D01*
Y-339971D01*
X350355D01*
Y-339984D01*
X350342D01*
Y-339996D01*
X350329D01*
Y-340009D01*
X350317D01*
Y-340022D01*
X350291D01*
Y-340034D01*
X350278D01*
Y-340047D01*
X350266D01*
Y-340060D01*
X350253D01*
Y-340072D01*
X350228D01*
Y-340085D01*
X350215D01*
Y-340098D01*
X350190D01*
Y-340110D01*
X350177D01*
Y-340123D01*
X350151D01*
Y-340136D01*
X350126D01*
Y-340148D01*
X350114D01*
Y-340161D01*
X350088D01*
Y-340174D01*
X350050D01*
Y-340187D01*
X350037D01*
Y-340199D01*
X349999D01*
Y-340212D01*
X349974D01*
Y-340225D01*
X349949D01*
Y-340237D01*
X349910D01*
Y-340250D01*
X349885D01*
Y-340263D01*
X349834D01*
Y-340275D01*
X349784D01*
Y-340288D01*
X349746D01*
Y-340301D01*
X349657D01*
Y-340313D01*
X349568D01*
Y-340326D01*
X349543D01*
Y-340313D01*
X349530D01*
Y-340326D01*
X346536D01*
Y-340339D01*
X346435D01*
Y-340351D01*
X346384D01*
Y-340364D01*
X346333D01*
Y-340377D01*
X346283D01*
Y-340389D01*
X346257D01*
Y-340402D01*
X346206D01*
Y-340415D01*
X346181D01*
Y-340427D01*
X346156D01*
Y-340440D01*
X346117D01*
Y-340453D01*
X346092D01*
Y-340466D01*
X346067D01*
Y-340478D01*
X346041D01*
Y-340491D01*
X346029D01*
Y-340504D01*
X345991D01*
Y-340516D01*
X345978D01*
Y-340529D01*
X345953D01*
Y-340542D01*
X345927D01*
Y-340554D01*
X345915D01*
Y-340567D01*
X345902D01*
Y-340580D01*
X345877D01*
Y-340592D01*
X345864D01*
Y-340605D01*
X345851D01*
Y-340618D01*
X345826D01*
Y-340631D01*
X345813D01*
Y-340643D01*
X345800D01*
Y-340656D01*
X345788D01*
Y-340669D01*
X345775D01*
Y-340681D01*
X345750D01*
Y-340707D01*
X345724D01*
Y-340719D01*
X345712D01*
Y-340732D01*
X345699D01*
Y-340745D01*
X345686D01*
Y-340770D01*
X345674D01*
Y-340783D01*
X345661D01*
Y-340795D01*
X345648D01*
Y-340808D01*
X345636D01*
Y-340821D01*
X345623D01*
Y-340846D01*
X345610D01*
Y-340859D01*
X345597D01*
Y-340872D01*
X345585D01*
Y-340897D01*
X345572D01*
Y-340910D01*
X345559D01*
Y-340922D01*
X345547D01*
Y-340948D01*
X345534D01*
Y-340973D01*
X345521D01*
Y-340998D01*
X345509D01*
Y-341011D01*
X345496D01*
Y-341036D01*
X345483D01*
Y-341062D01*
X345471D01*
Y-341087D01*
X345458D01*
Y-341112D01*
X345445D01*
Y-341151D01*
X345432D01*
Y-341176D01*
X345420D01*
Y-341214D01*
X345407D01*
Y-341252D01*
X345394D01*
Y-341290D01*
X345382D01*
Y-341341D01*
X345369D01*
Y-341379D01*
X345356D01*
Y-341468D01*
X345344D01*
Y-341810D01*
X345356D01*
Y-341899D01*
X345369D01*
Y-341950D01*
X345382D01*
Y-342001D01*
X345394D01*
Y-342039D01*
X345407D01*
Y-342077D01*
X345420D01*
Y-342115D01*
X345432D01*
Y-342140D01*
X345445D01*
Y-342178D01*
X345458D01*
Y-342203D01*
X345471D01*
Y-342229D01*
X345483D01*
Y-342254D01*
X345496D01*
Y-342280D01*
X345509D01*
Y-342292D01*
X345521D01*
Y-342318D01*
X345534D01*
Y-342330D01*
X345547D01*
Y-342356D01*
X345559D01*
Y-342381D01*
X345572D01*
Y-342394D01*
X345585D01*
Y-342419D01*
X345597D01*
Y-342432D01*
X345610D01*
Y-342444D01*
X345623D01*
Y-342470D01*
X345636D01*
Y-342483D01*
X345648D01*
Y-342495D01*
X345661D01*
Y-342508D01*
X345674D01*
Y-342521D01*
X345686D01*
Y-342533D01*
X345699D01*
Y-342546D01*
X345712D01*
Y-342559D01*
X345724D01*
Y-342571D01*
X345737D01*
Y-342584D01*
X345750D01*
Y-342597D01*
X345762D01*
Y-342609D01*
X345775D01*
Y-342622D01*
X345788D01*
Y-342635D01*
X345800D01*
Y-342648D01*
X345826D01*
Y-342673D01*
X345851D01*
Y-342686D01*
X345864D01*
Y-342698D01*
X345889D01*
Y-342711D01*
X345902D01*
Y-342724D01*
X345915D01*
Y-342736D01*
X345940D01*
Y-342749D01*
X345965D01*
Y-342762D01*
X345978D01*
Y-342774D01*
X346003D01*
Y-342787D01*
X346016D01*
Y-342800D01*
X346041D01*
Y-342812D01*
X346079D01*
Y-342825D01*
X346092D01*
Y-342838D01*
X346130D01*
Y-342850D01*
X346156D01*
Y-342863D01*
X346181D01*
Y-342876D01*
X346219D01*
Y-342888D01*
X346257D01*
Y-342901D01*
X346295D01*
Y-342914D01*
X346346D01*
Y-342927D01*
X346384D01*
Y-342939D01*
X346460D01*
Y-342952D01*
X346574D01*
Y-342965D01*
X362571D01*
Y-342977D01*
X362685D01*
Y-342990D01*
X362736D01*
Y-343003D01*
X362786D01*
Y-343015D01*
X362850D01*
Y-343028D01*
X362875D01*
Y-343041D01*
X362913D01*
Y-343053D01*
X362951D01*
Y-343066D01*
X362977D01*
Y-343079D01*
X363015D01*
Y-343092D01*
X363027D01*
Y-343104D01*
X363065D01*
Y-343117D01*
X363091D01*
Y-343129D01*
X363104D01*
Y-343142D01*
X363129D01*
Y-343155D01*
X363154D01*
Y-343168D01*
X363167D01*
Y-343180D01*
X363192D01*
Y-343193D01*
X363205D01*
Y-343206D01*
X363230D01*
Y-343218D01*
X363243D01*
Y-343231D01*
X363268D01*
Y-343244D01*
X363281D01*
Y-343256D01*
X363294D01*
Y-343269D01*
X363306D01*
Y-343282D01*
X363332D01*
Y-343294D01*
X363345D01*
Y-343307D01*
X363357D01*
Y-343320D01*
X363370D01*
Y-343333D01*
X363383D01*
Y-343345D01*
X363395D01*
Y-343358D01*
X363408D01*
Y-343371D01*
X363421D01*
Y-343383D01*
X363433D01*
Y-343396D01*
X363446D01*
Y-343409D01*
X363459D01*
Y-343421D01*
X363471D01*
Y-343434D01*
X363484D01*
Y-343459D01*
X363497D01*
Y-343472D01*
X363509D01*
Y-343485D01*
X363522D01*
Y-343510D01*
X363535D01*
Y-343523D01*
X363547D01*
Y-343535D01*
X363560D01*
Y-343561D01*
X363573D01*
Y-343573D01*
X363585D01*
Y-343599D01*
X363598D01*
Y-343612D01*
X363611D01*
Y-343637D01*
X363624D01*
Y-343662D01*
X363636D01*
Y-343688D01*
X363649D01*
Y-343713D01*
X363662D01*
Y-343738D01*
X363674D01*
Y-343764D01*
X363687D01*
Y-343802D01*
X363700D01*
Y-343815D01*
X363712D01*
Y-343853D01*
X363725D01*
Y-343903D01*
X363738D01*
Y-343941D01*
X363751D01*
Y-343992D01*
X363763D01*
Y-344056D01*
X363776D01*
Y-344132D01*
X363789D01*
Y-344461D01*
X363776D01*
Y-344512D01*
X363763D01*
Y-344588D01*
X363751D01*
Y-344639D01*
X363738D01*
Y-344677D01*
X363725D01*
Y-344715D01*
X363712D01*
Y-344753D01*
X363700D01*
Y-344779D01*
X363687D01*
Y-344817D01*
X363674D01*
Y-344842D01*
X363662D01*
Y-344867D01*
X363649D01*
Y-344893D01*
X363636D01*
Y-344918D01*
X363624D01*
Y-344944D01*
X363611D01*
Y-344956D01*
X363598D01*
Y-344982D01*
X363585D01*
Y-345007D01*
X363573D01*
Y-345020D01*
X363560D01*
Y-345032D01*
X363547D01*
Y-345058D01*
X363535D01*
Y-345070D01*
X363522D01*
Y-345096D01*
X363509D01*
Y-345109D01*
X363497D01*
Y-345121D01*
X363484D01*
Y-345134D01*
X363471D01*
Y-345146D01*
X363459D01*
Y-345172D01*
X363446D01*
Y-345185D01*
X363433D01*
Y-345197D01*
X363421D01*
Y-345210D01*
X363408D01*
Y-345223D01*
X363395D01*
Y-345235D01*
X363383D01*
Y-345248D01*
X363370D01*
Y-345261D01*
X363357D01*
Y-345273D01*
X363332D01*
Y-345286D01*
X363319D01*
Y-345299D01*
X363306D01*
Y-345311D01*
X363294D01*
Y-345324D01*
X363281D01*
Y-345337D01*
X363256D01*
Y-345350D01*
X363243D01*
Y-345362D01*
X363230D01*
Y-345375D01*
X363205D01*
Y-345388D01*
X363180D01*
Y-345400D01*
X363167D01*
Y-345413D01*
X363142D01*
Y-345426D01*
X363129D01*
Y-345438D01*
X363104D01*
Y-345451D01*
X363078D01*
Y-345464D01*
X363053D01*
Y-345476D01*
X363027D01*
Y-345489D01*
X362989D01*
Y-345502D01*
X362977D01*
Y-345514D01*
X362939D01*
Y-345527D01*
X362900D01*
Y-345540D01*
X362875D01*
Y-345552D01*
X362824D01*
Y-345565D01*
X362786D01*
Y-345578D01*
X362723D01*
Y-345590D01*
X362647D01*
Y-345603D01*
X362571D01*
Y-345616D01*
X352080D01*
Y-345629D01*
X352004D01*
Y-345641D01*
X351940D01*
Y-345654D01*
X351877D01*
Y-345667D01*
X351851D01*
Y-345679D01*
X351801D01*
Y-345692D01*
X351763D01*
Y-345705D01*
X351737D01*
Y-345717D01*
X351699D01*
Y-345730D01*
X351674D01*
Y-345743D01*
X351648D01*
Y-345755D01*
X351623D01*
Y-345768D01*
X351598D01*
Y-345781D01*
X351572D01*
Y-345794D01*
X351547D01*
Y-345806D01*
X351534D01*
Y-345819D01*
X351509D01*
Y-345832D01*
X351496D01*
Y-345844D01*
X351471D01*
Y-345857D01*
X351458D01*
Y-345870D01*
X351446D01*
Y-345882D01*
X351420D01*
Y-345895D01*
X351407D01*
Y-345908D01*
X351395D01*
Y-345920D01*
X351369D01*
Y-345933D01*
X351357D01*
Y-345946D01*
X351344D01*
Y-345958D01*
X351331D01*
Y-345971D01*
X351319D01*
Y-345984D01*
X351306D01*
Y-345996D01*
X351293D01*
Y-346009D01*
X351281D01*
Y-346022D01*
X351268D01*
Y-346035D01*
X351255D01*
Y-346047D01*
X351242D01*
Y-346060D01*
X351230D01*
Y-346073D01*
X351217D01*
Y-346085D01*
X351204D01*
Y-346098D01*
X351192D01*
Y-346123D01*
X351179D01*
Y-346136D01*
X351166D01*
Y-346149D01*
X351154D01*
Y-346161D01*
X351141D01*
Y-346187D01*
X351128D01*
Y-346199D01*
X351116D01*
Y-346225D01*
X351103D01*
Y-346250D01*
X351090D01*
Y-346263D01*
X351078D01*
Y-346288D01*
X351065D01*
Y-346314D01*
X351052D01*
Y-346326D01*
X351040D01*
Y-346364D01*
X351027D01*
Y-346390D01*
X351014D01*
Y-346402D01*
X351002D01*
Y-346441D01*
X350989D01*
Y-346466D01*
X350976D01*
Y-346504D01*
X350963D01*
Y-346555D01*
X350951D01*
Y-346580D01*
X350938D01*
Y-346643D01*
X350925D01*
Y-346720D01*
X350913D01*
Y-346770D01*
X350900D01*
Y-347100D01*
X350913D01*
Y-347151D01*
X350925D01*
Y-347227D01*
X350938D01*
Y-347278D01*
X350951D01*
Y-347316D01*
X350963D01*
Y-347354D01*
X350976D01*
Y-347392D01*
X350989D01*
Y-347417D01*
X351002D01*
Y-347455D01*
X351014D01*
Y-347481D01*
X351027D01*
Y-347506D01*
X351040D01*
Y-347531D01*
X351052D01*
Y-347557D01*
X351065D01*
Y-347582D01*
X351078D01*
Y-347607D01*
X351090D01*
Y-347620D01*
X351103D01*
Y-347646D01*
X351116D01*
Y-347658D01*
X351128D01*
Y-347684D01*
X351141D01*
Y-347696D01*
X351154D01*
Y-347709D01*
X351166D01*
Y-347734D01*
X351179D01*
Y-347747D01*
X351192D01*
Y-347760D01*
X351204D01*
Y-347785D01*
X351230D01*
Y-347811D01*
X351242D01*
Y-347823D01*
X351255D01*
Y-347836D01*
X351268D01*
Y-347849D01*
X351281D01*
Y-347861D01*
X351293D01*
Y-347874D01*
X351306D01*
Y-347887D01*
X351319D01*
Y-347899D01*
X351331D01*
Y-347912D01*
X351344D01*
Y-347925D01*
X351369D01*
Y-347937D01*
X351382D01*
Y-347950D01*
X351395D01*
Y-347963D01*
X351407D01*
Y-347975D01*
X351433D01*
Y-347988D01*
X351446D01*
Y-348001D01*
X351458D01*
Y-348013D01*
X351483D01*
Y-348026D01*
X351509D01*
Y-348039D01*
X351522D01*
Y-348052D01*
X351547D01*
Y-348064D01*
X351560D01*
Y-348077D01*
X351585D01*
Y-348090D01*
X351610D01*
Y-348102D01*
X351636D01*
Y-348115D01*
X351661D01*
Y-348128D01*
X351687D01*
Y-348140D01*
X351712D01*
Y-348153D01*
X351750D01*
Y-348166D01*
X351788D01*
Y-348178D01*
X351813D01*
Y-348191D01*
X351864D01*
Y-348204D01*
X351902D01*
Y-348216D01*
X351953D01*
Y-348229D01*
X352042D01*
Y-348242D01*
X352105D01*
Y-348254D01*
X355961D01*
Y-348267D01*
X356050D01*
Y-348280D01*
X356114D01*
Y-348292D01*
X356165D01*
Y-348305D01*
X356203D01*
Y-348318D01*
X356241D01*
Y-348331D01*
X356291D01*
Y-348343D01*
X356317D01*
Y-348356D01*
X356355D01*
Y-348369D01*
X356380D01*
Y-348381D01*
X356405D01*
Y-348394D01*
X356431D01*
Y-348407D01*
X356456D01*
Y-348419D01*
X356482D01*
Y-348432D01*
X356507D01*
Y-348445D01*
X356520D01*
Y-348458D01*
X356545D01*
Y-348470D01*
X356558D01*
Y-348483D01*
X356583D01*
Y-348496D01*
X356596D01*
Y-348508D01*
X356609D01*
Y-348521D01*
X356634D01*
Y-348534D01*
X356646D01*
Y-348546D01*
X356659D01*
Y-348559D01*
X356685D01*
Y-348572D01*
X356697D01*
Y-348584D01*
X356710D01*
Y-348597D01*
X356723D01*
Y-348610D01*
X356735D01*
Y-348622D01*
X356748D01*
Y-348635D01*
X356761D01*
Y-348648D01*
X356773D01*
Y-348660D01*
X356786D01*
Y-348673D01*
X356799D01*
Y-348686D01*
X356811D01*
Y-348698D01*
X356824D01*
Y-348711D01*
X356837D01*
Y-348724D01*
X356850D01*
Y-348737D01*
X356862D01*
Y-348762D01*
X356875D01*
Y-348775D01*
X356888D01*
Y-348787D01*
X356900D01*
Y-348800D01*
X356913D01*
Y-348825D01*
X356926D01*
Y-348838D01*
X356938D01*
Y-348863D01*
X356951D01*
Y-348876D01*
X356964D01*
Y-348902D01*
X356976D01*
Y-348914D01*
X356989D01*
Y-348952D01*
X357002D01*
Y-348965D01*
X357014D01*
Y-348990D01*
X357027D01*
Y-349028D01*
X357040D01*
Y-349041D01*
X357052D01*
Y-349079D01*
X357065D01*
Y-349117D01*
X357078D01*
Y-349143D01*
X357090D01*
Y-349181D01*
X357103D01*
Y-349219D01*
X357116D01*
Y-349269D01*
X357129D01*
Y-349333D01*
X357141D01*
Y-349396D01*
X357154D01*
Y-349751D01*
X357141D01*
Y-349815D01*
X357129D01*
Y-349878D01*
X357116D01*
Y-349929D01*
X357103D01*
Y-349967D01*
X357090D01*
Y-350018D01*
X357078D01*
Y-350043D01*
X357065D01*
Y-350081D01*
X357052D01*
Y-350107D01*
X357040D01*
Y-350132D01*
X357027D01*
Y-350170D01*
X357014D01*
Y-350183D01*
X357002D01*
Y-350208D01*
X356989D01*
Y-350233D01*
X356976D01*
Y-350259D01*
X356964D01*
Y-350272D01*
X356951D01*
Y-350297D01*
X356938D01*
Y-350309D01*
X356926D01*
Y-350335D01*
X356913D01*
Y-350348D01*
X356900D01*
Y-350360D01*
X356888D01*
Y-350386D01*
X356875D01*
Y-350398D01*
X356862D01*
Y-350411D01*
X356850D01*
Y-350436D01*
X356837D01*
Y-350449D01*
X356824D01*
Y-350462D01*
X356811D01*
Y-350475D01*
X356799D01*
Y-350487D01*
X356786D01*
Y-350500D01*
X356773D01*
Y-350513D01*
X356761D01*
Y-350525D01*
X356748D01*
Y-350538D01*
X356735D01*
Y-350551D01*
X356723D01*
Y-350563D01*
X356710D01*
Y-350576D01*
X356697D01*
Y-350589D01*
X356672D01*
Y-350601D01*
X356659D01*
Y-350614D01*
X356646D01*
Y-350627D01*
X356621D01*
Y-350639D01*
X356609D01*
Y-350652D01*
X356596D01*
Y-350665D01*
X356570D01*
Y-350677D01*
X356558D01*
Y-350690D01*
X356532D01*
Y-350703D01*
X356507D01*
Y-350715D01*
X356494D01*
Y-350728D01*
X356469D01*
Y-350741D01*
X356444D01*
Y-350753D01*
X356418D01*
Y-350766D01*
X356393D01*
Y-350779D01*
X356367D01*
Y-350792D01*
X356329D01*
Y-350804D01*
X356304D01*
Y-350817D01*
X356266D01*
Y-350830D01*
X356228D01*
Y-350842D01*
X356190D01*
Y-350855D01*
X356152D01*
Y-350868D01*
X356088D01*
Y-350880D01*
X356025D01*
Y-350893D01*
X355911D01*
Y-350906D01*
X349746D01*
Y-350893D01*
X349733D01*
Y-350906D01*
X349581D01*
Y-350918D01*
X349517D01*
Y-350931D01*
X349441D01*
Y-350944D01*
X349403D01*
Y-350957D01*
X349365D01*
Y-350969D01*
X349314D01*
Y-350982D01*
X349289D01*
Y-350995D01*
X349251D01*
Y-351007D01*
X349213D01*
Y-351020D01*
X349200D01*
Y-351033D01*
X349162D01*
Y-351045D01*
X349137D01*
Y-351058D01*
X349124D01*
Y-351071D01*
X349086D01*
Y-351083D01*
X349073D01*
Y-351096D01*
X349048D01*
Y-351109D01*
X349023D01*
Y-351121D01*
X349010D01*
Y-351134D01*
X348997D01*
Y-351147D01*
X348972D01*
Y-351160D01*
X348959D01*
Y-351172D01*
X348934D01*
Y-351185D01*
X348921D01*
Y-351198D01*
X348908D01*
Y-351210D01*
X348896D01*
Y-351223D01*
X348883D01*
Y-351236D01*
X348858D01*
Y-351248D01*
X348845D01*
Y-351261D01*
X348832D01*
Y-351274D01*
X348820D01*
Y-351286D01*
X348807D01*
Y-351299D01*
X348794D01*
Y-351312D01*
X348781D01*
Y-351324D01*
X348769D01*
Y-351337D01*
X348756D01*
Y-351350D01*
X348744D01*
Y-351375D01*
X348731D01*
Y-351388D01*
X348718D01*
Y-351400D01*
X348705D01*
Y-351413D01*
X348693D01*
Y-351439D01*
X348680D01*
Y-351451D01*
X348667D01*
Y-351464D01*
X348655D01*
Y-351477D01*
X348642D01*
Y-351502D01*
X348629D01*
Y-351527D01*
X348617D01*
Y-351540D01*
X348604D01*
Y-351565D01*
X348591D01*
Y-351591D01*
X348579D01*
Y-351604D01*
X348566D01*
Y-351629D01*
X348553D01*
Y-351654D01*
X348540D01*
Y-351680D01*
X348528D01*
Y-351718D01*
X348515D01*
Y-351743D01*
X348502D01*
Y-351781D01*
X348490D01*
Y-351819D01*
X348477D01*
Y-351857D01*
X348464D01*
Y-351908D01*
X348452D01*
Y-351946D01*
X348439D01*
Y-352022D01*
X348426D01*
Y-352415D01*
X348439D01*
Y-352491D01*
X348452D01*
Y-352542D01*
X348464D01*
Y-352593D01*
X348477D01*
Y-352631D01*
X348490D01*
Y-352669D01*
X348502D01*
Y-352707D01*
X348515D01*
Y-352720D01*
X348528D01*
Y-352758D01*
X348540D01*
Y-352783D01*
X348553D01*
Y-352809D01*
X348566D01*
Y-352834D01*
X348579D01*
Y-352859D01*
X348591D01*
Y-352885D01*
X348604D01*
Y-352897D01*
X348617D01*
Y-352923D01*
X348629D01*
Y-352935D01*
X348642D01*
Y-352961D01*
X348655D01*
Y-352974D01*
X348667D01*
Y-352999D01*
X348680D01*
Y-353012D01*
X348693D01*
Y-353024D01*
X348705D01*
Y-353050D01*
X348718D01*
Y-353062D01*
X348731D01*
Y-353075D01*
X348744D01*
Y-353088D01*
X348756D01*
Y-353100D01*
X348769D01*
Y-353113D01*
X348781D01*
Y-353126D01*
X348794D01*
Y-353138D01*
X348807D01*
Y-353151D01*
X348820D01*
Y-353164D01*
X348832D01*
Y-353176D01*
X348845D01*
Y-353189D01*
X348858D01*
Y-353202D01*
X348870D01*
Y-353215D01*
X348883D01*
Y-353227D01*
X348896D01*
Y-353240D01*
X348921D01*
Y-353253D01*
X348934D01*
Y-353265D01*
X348946D01*
Y-353278D01*
X348972D01*
Y-353291D01*
X348985D01*
Y-353303D01*
X349010D01*
Y-353316D01*
X349023D01*
Y-353329D01*
X349048D01*
Y-353341D01*
X349061D01*
Y-353354D01*
X349086D01*
Y-353367D01*
X349111D01*
Y-353379D01*
X349137D01*
Y-353392D01*
X349149D01*
Y-353405D01*
X349187D01*
Y-353417D01*
X349200D01*
Y-353430D01*
X349238D01*
Y-353443D01*
X349276D01*
Y-353456D01*
X349302D01*
Y-353468D01*
X349340D01*
Y-353481D01*
X349378D01*
Y-353494D01*
X349429D01*
Y-353506D01*
X349492D01*
Y-353519D01*
X349543D01*
Y-353532D01*
X349695D01*
Y-353544D01*
X353856D01*
Y-353557D01*
X353919D01*
Y-353570D01*
X353995D01*
Y-353582D01*
X354046D01*
Y-353595D01*
X354084D01*
Y-353608D01*
X354122D01*
Y-353621D01*
X354160D01*
Y-353633D01*
X354198D01*
Y-353646D01*
X354224D01*
Y-353659D01*
X354249D01*
Y-353671D01*
X354274D01*
Y-353684D01*
X354300D01*
Y-353697D01*
X354325D01*
Y-353709D01*
X354350D01*
Y-353722D01*
X354376D01*
Y-353735D01*
X354388D01*
Y-353747D01*
X354414D01*
Y-353760D01*
X354427D01*
Y-353773D01*
X354452D01*
Y-353785D01*
X354465D01*
Y-353798D01*
X354490D01*
Y-353811D01*
X354503D01*
Y-353823D01*
X354515D01*
Y-353836D01*
X354541D01*
Y-353849D01*
X354553D01*
Y-353861D01*
X354566D01*
Y-353874D01*
X354579D01*
Y-353887D01*
X354591D01*
Y-353900D01*
X354617D01*
Y-353912D01*
X354630D01*
Y-353925D01*
X354642D01*
Y-353938D01*
X354655D01*
Y-353950D01*
X354668D01*
Y-353963D01*
X354680D01*
Y-353976D01*
X354693D01*
Y-354001D01*
X354706D01*
Y-354014D01*
X354718D01*
Y-354026D01*
X354731D01*
Y-354039D01*
X354744D01*
Y-354052D01*
X354756D01*
Y-354077D01*
X354769D01*
Y-354090D01*
X354782D01*
Y-354102D01*
X354795D01*
Y-354128D01*
X354807D01*
Y-354141D01*
X354820D01*
Y-354166D01*
X354833D01*
Y-354191D01*
X354845D01*
Y-354204D01*
X354858D01*
Y-354229D01*
X354871D01*
Y-354255D01*
X354883D01*
Y-354280D01*
X354896D01*
Y-354306D01*
X354909D01*
Y-354331D01*
X354921D01*
Y-354356D01*
X354934D01*
Y-354394D01*
X354947D01*
Y-354420D01*
X354959D01*
Y-354470D01*
X354972D01*
Y-354496D01*
X354985D01*
Y-354546D01*
X354997D01*
Y-354610D01*
X355010D01*
Y-354673D01*
X355023D01*
Y-354838D01*
X355035D01*
Y-354889D01*
X355023D01*
Y-355067D01*
X355010D01*
Y-355117D01*
X354997D01*
Y-355181D01*
X354985D01*
Y-355244D01*
X354972D01*
Y-355270D01*
X354959D01*
Y-355320D01*
X354947D01*
Y-355346D01*
X354934D01*
Y-355384D01*
X354921D01*
Y-355422D01*
X354909D01*
Y-355434D01*
X354896D01*
Y-355473D01*
X354883D01*
Y-355498D01*
X354871D01*
Y-355511D01*
X354858D01*
Y-355536D01*
X354845D01*
Y-355561D01*
X354833D01*
Y-355587D01*
X354820D01*
Y-355612D01*
X354807D01*
Y-355625D01*
X354795D01*
Y-355650D01*
X354782D01*
Y-355663D01*
X354769D01*
Y-355676D01*
X354756D01*
Y-355701D01*
X354744D01*
Y-355714D01*
X354731D01*
Y-355726D01*
X354718D01*
Y-355752D01*
X354706D01*
Y-355764D01*
X354693D01*
Y-355777D01*
X354680D01*
Y-355790D01*
X354668D01*
Y-355802D01*
X354655D01*
Y-355815D01*
X354642D01*
Y-355828D01*
X354630D01*
Y-355840D01*
X354617D01*
Y-355853D01*
X354604D01*
Y-355866D01*
X354591D01*
Y-355878D01*
X354579D01*
Y-355891D01*
X354566D01*
Y-355904D01*
X354553D01*
Y-355917D01*
X354541D01*
Y-355929D01*
X354528D01*
Y-355942D01*
X354515D01*
Y-355955D01*
X354490D01*
Y-355967D01*
X354477D01*
Y-355980D01*
X354465D01*
Y-355993D01*
X354452D01*
Y-356005D01*
X354427D01*
Y-356018D01*
X354414D01*
Y-356031D01*
X354388D01*
Y-356043D01*
X354363D01*
Y-356056D01*
X354350D01*
Y-356069D01*
X354325D01*
Y-356082D01*
X354300D01*
Y-356094D01*
X354274D01*
Y-356107D01*
X354249D01*
Y-356119D01*
X354224D01*
Y-356132D01*
X354198D01*
Y-356145D01*
X354148D01*
Y-356158D01*
X354109D01*
Y-356170D01*
X354046D01*
Y-356183D01*
X339470D01*
Y-356196D01*
X339445D01*
Y-356208D01*
X339420D01*
Y-356221D01*
X339394D01*
Y-356234D01*
X339382D01*
Y-356246D01*
X339369D01*
Y-356272D01*
X339356D01*
Y-356284D01*
X339344D01*
Y-356310D01*
X339331D01*
Y-358301D01*
X339318D01*
Y-358340D01*
X339305D01*
Y-358365D01*
X339293D01*
Y-358390D01*
X339280D01*
Y-358403D01*
X339267D01*
Y-358416D01*
X339242D01*
Y-358428D01*
X339229D01*
Y-358441D01*
X339179D01*
Y-358454D01*
X335310D01*
Y-358441D01*
X335271D01*
Y-358428D01*
X335246D01*
Y-358416D01*
X335233D01*
Y-358403D01*
X335221D01*
Y-358390D01*
X335208D01*
Y-358378D01*
X335195D01*
Y-358352D01*
X335183D01*
Y-358340D01*
X335170D01*
Y-357096D01*
X335157D01*
Y-357058D01*
X335145D01*
Y-357033D01*
X335132D01*
Y-357008D01*
X335119D01*
Y-356995D01*
X335106D01*
Y-356982D01*
X335081D01*
Y-356969D01*
X335068D01*
Y-356957D01*
X335030D01*
Y-356944D01*
X334929D01*
Y-356957D01*
X334891D01*
Y-356969D01*
X334878D01*
Y-356982D01*
X334853D01*
Y-356995D01*
X334840D01*
Y-357008D01*
X334827D01*
Y-357033D01*
X334815D01*
Y-357046D01*
X334802D01*
Y-357109D01*
X334789D01*
Y-358340D01*
X334777D01*
Y-358352D01*
X334764D01*
Y-358378D01*
X334751D01*
Y-358390D01*
X334739D01*
Y-358403D01*
X334726D01*
Y-358416D01*
X334713D01*
Y-358428D01*
X334688D01*
Y-358441D01*
X334650D01*
Y-358454D01*
X332671D01*
Y-358441D01*
X332620D01*
Y-358428D01*
X332608D01*
Y-358416D01*
X332582D01*
Y-358403D01*
X332569D01*
Y-358390D01*
X332557D01*
Y-358365D01*
X332544D01*
Y-358352D01*
X332531D01*
Y-358301D01*
X332519D01*
Y-356475D01*
X332506D01*
Y-356437D01*
X332493D01*
Y-356399D01*
X332481D01*
Y-356386D01*
X332468D01*
Y-356361D01*
X332455D01*
Y-356335D01*
X332442D01*
Y-356323D01*
X332430D01*
Y-356310D01*
X332417D01*
Y-356297D01*
X332404D01*
Y-356284D01*
X332392D01*
Y-356272D01*
X332379D01*
Y-356259D01*
X332354D01*
Y-356246D01*
X332341D01*
Y-356234D01*
X332316D01*
Y-356221D01*
X332290D01*
Y-356208D01*
X332252D01*
Y-356196D01*
X332202D01*
Y-356183D01*
X332087D01*
Y-356196D01*
X332049D01*
Y-356208D01*
X331998D01*
Y-356221D01*
X331973D01*
Y-356234D01*
X331961D01*
Y-356246D01*
X331935D01*
Y-356259D01*
X331910D01*
Y-356272D01*
X331897D01*
Y-356284D01*
X331884D01*
Y-356297D01*
X331872D01*
Y-356310D01*
X331859D01*
Y-356323D01*
X331846D01*
Y-356348D01*
X331834D01*
Y-356361D01*
X331821D01*
Y-356386D01*
X331808D01*
Y-356411D01*
X331796D01*
Y-356437D01*
X331783D01*
Y-356500D01*
X331770D01*
Y-357540D01*
X331757D01*
Y-357578D01*
X331745D01*
Y-357604D01*
X331732D01*
Y-357616D01*
X331719D01*
Y-357629D01*
X331707D01*
Y-357642D01*
X331694D01*
Y-357655D01*
X331669D01*
Y-357667D01*
X331631D01*
Y-357680D01*
X330387D01*
Y-357667D01*
X330349D01*
Y-357655D01*
X330337D01*
Y-357642D01*
X330311D01*
Y-357629D01*
X330299D01*
Y-357616D01*
X330286D01*
Y-357591D01*
X330273D01*
Y-357578D01*
X330261D01*
Y-357528D01*
X330248D01*
Y-356323D01*
X330235D01*
Y-356284D01*
X330223D01*
Y-356259D01*
X330210D01*
Y-356246D01*
X330197D01*
Y-356234D01*
X330185D01*
Y-356221D01*
X330172D01*
Y-356208D01*
X330134D01*
Y-356196D01*
X330108D01*
Y-356183D01*
X326988D01*
Y-356196D01*
X326962D01*
Y-356208D01*
X326937D01*
Y-356221D01*
X326912D01*
Y-356246D01*
X326886D01*
Y-356272D01*
X326874D01*
Y-356297D01*
X326861D01*
Y-356323D01*
X326848D01*
Y-358073D01*
X323829D01*
Y-356246D01*
X325783D01*
Y-356234D01*
X325795D01*
Y-354026D01*
X325783D01*
Y-354014D01*
X323829D01*
Y-353506D01*
X325783D01*
Y-353494D01*
X325795D01*
Y-351274D01*
X325783D01*
Y-351261D01*
X325770D01*
Y-351274D01*
X323842D01*
Y-351261D01*
X323829D01*
Y-350766D01*
X325783D01*
Y-350753D01*
X325795D01*
Y-348521D01*
X323829D01*
Y-348026D01*
X323842D01*
Y-348013D01*
X325795D01*
Y-345781D01*
X323829D01*
Y-337675D01*
X349568D01*
Y-337687D01*
D02*
G37*
G36*
X324793Y-346149D02*
X324831D01*
Y-346161D01*
X324895D01*
Y-346174D01*
X324933D01*
Y-346187D01*
X324958D01*
Y-346199D01*
X324996D01*
Y-346212D01*
X325022D01*
Y-346225D01*
X325034D01*
Y-346237D01*
X325060D01*
Y-346250D01*
X325072D01*
Y-346263D01*
X325098D01*
Y-346275D01*
X325123D01*
Y-346288D01*
X325136D01*
Y-346301D01*
X325148D01*
Y-346314D01*
X325161D01*
Y-346326D01*
X325186D01*
Y-346339D01*
X325199D01*
Y-346352D01*
X325212D01*
Y-346364D01*
X325224D01*
Y-346377D01*
X325237D01*
Y-346390D01*
X325250D01*
Y-346415D01*
X325262D01*
Y-346428D01*
X325275D01*
Y-346441D01*
X325288D01*
Y-346466D01*
X325301D01*
Y-346479D01*
X325313D01*
Y-346504D01*
X325326D01*
Y-346517D01*
X325339D01*
Y-346542D01*
X325351D01*
Y-346567D01*
X325364D01*
Y-346593D01*
X325377D01*
Y-346631D01*
X325389D01*
Y-346669D01*
X325402D01*
Y-346694D01*
X325415D01*
Y-346770D01*
X325427D01*
Y-346859D01*
X325440D01*
Y-346948D01*
X325427D01*
Y-347024D01*
X325415D01*
Y-347100D01*
X325402D01*
Y-347126D01*
X325389D01*
Y-347176D01*
X325377D01*
Y-347202D01*
X325364D01*
Y-347227D01*
X325351D01*
Y-347252D01*
X325339D01*
Y-347278D01*
X325326D01*
Y-347290D01*
X325313D01*
Y-347316D01*
X325301D01*
Y-347328D01*
X325288D01*
Y-347341D01*
Y-347354D01*
X325275D01*
Y-347366D01*
X325262D01*
Y-347379D01*
X325250D01*
Y-347405D01*
X325237D01*
Y-347417D01*
X325224D01*
Y-347430D01*
X325212D01*
Y-347443D01*
X325199D01*
Y-347455D01*
X325186D01*
Y-347468D01*
X325174D01*
Y-347481D01*
X325148D01*
Y-347493D01*
X325136D01*
Y-347506D01*
X325123D01*
Y-347519D01*
X325110D01*
Y-347531D01*
X325085D01*
Y-347544D01*
X325060D01*
Y-347557D01*
X325047D01*
Y-347569D01*
X325009D01*
Y-347582D01*
X324996D01*
Y-347595D01*
X324971D01*
Y-347607D01*
X324920D01*
Y-347620D01*
X324907D01*
Y-347633D01*
X324844D01*
Y-347646D01*
X324755D01*
Y-347658D01*
X324590D01*
Y-347646D01*
X324489D01*
Y-347633D01*
X324438D01*
Y-347620D01*
X324413D01*
Y-347607D01*
X324375D01*
Y-347595D01*
X324349D01*
Y-347582D01*
X324324D01*
Y-347569D01*
X324298D01*
Y-347557D01*
X324286D01*
Y-347544D01*
X324260D01*
Y-347531D01*
X324235D01*
Y-347519D01*
X324222D01*
Y-347506D01*
X324197D01*
Y-347493D01*
X324184D01*
Y-347481D01*
X324172D01*
Y-347468D01*
X324159D01*
Y-347455D01*
X324146D01*
Y-347443D01*
X324133D01*
Y-347430D01*
X324121D01*
Y-347417D01*
X324108D01*
Y-347405D01*
X324095D01*
Y-347392D01*
X324083D01*
Y-347379D01*
X324070D01*
Y-347354D01*
X324057D01*
Y-347341D01*
X324045D01*
Y-347316D01*
X324032D01*
Y-347303D01*
X324019D01*
Y-347278D01*
X324007D01*
Y-347252D01*
X323994D01*
Y-347240D01*
X323981D01*
Y-347214D01*
X323969D01*
Y-347176D01*
X323956D01*
Y-347151D01*
X323943D01*
Y-347100D01*
X323931D01*
Y-347062D01*
X323918D01*
Y-346973D01*
X323905D01*
Y-346834D01*
X323918D01*
Y-346732D01*
X323931D01*
Y-346694D01*
X323943D01*
Y-346643D01*
X323956D01*
Y-346618D01*
X323969D01*
Y-346593D01*
X323981D01*
Y-346555D01*
X323994D01*
Y-346542D01*
X324007D01*
Y-346517D01*
X324019D01*
Y-346491D01*
X324032D01*
Y-346479D01*
X324045D01*
Y-346453D01*
X324057D01*
Y-346441D01*
X324070D01*
Y-346428D01*
X324083D01*
Y-346402D01*
X324095D01*
Y-346390D01*
X324108D01*
Y-346377D01*
X324121D01*
Y-346364D01*
X324133D01*
Y-346352D01*
X324146D01*
Y-346339D01*
X324159D01*
Y-346326D01*
X324172D01*
Y-346314D01*
X324184D01*
Y-346301D01*
X324210D01*
Y-346288D01*
X324222D01*
Y-346275D01*
X324235D01*
Y-346263D01*
X324260D01*
Y-346250D01*
X324273D01*
Y-346237D01*
X324298D01*
Y-346225D01*
X324324D01*
Y-346212D01*
X324349D01*
Y-346199D01*
X324387D01*
Y-346187D01*
X324413D01*
Y-346174D01*
X324451D01*
Y-346161D01*
X324514D01*
Y-346149D01*
X324552D01*
Y-346136D01*
X324793D01*
Y-346149D01*
D02*
G37*
G36*
X324755Y-348889D02*
X324806D01*
Y-348902D01*
X324882D01*
Y-348914D01*
X324933D01*
Y-348927D01*
X324945D01*
Y-348939D01*
X324983D01*
Y-348952D01*
X325009D01*
Y-348965D01*
X325034D01*
Y-348978D01*
X325060D01*
Y-348990D01*
X325072D01*
Y-349003D01*
X325098D01*
Y-349016D01*
X325110D01*
Y-349028D01*
X325123D01*
Y-349041D01*
X325148D01*
Y-349054D01*
X325161D01*
Y-349066D01*
X325174D01*
Y-349079D01*
X325186D01*
Y-349092D01*
X325199D01*
Y-349104D01*
X325212D01*
Y-349117D01*
X325224D01*
Y-349130D01*
X325237D01*
Y-349143D01*
X325250D01*
Y-349155D01*
X325262D01*
Y-349168D01*
X325275D01*
Y-349181D01*
X325288D01*
Y-349206D01*
X325301D01*
Y-349219D01*
X325313D01*
Y-349244D01*
X325326D01*
Y-349257D01*
X325339D01*
Y-349282D01*
X325351D01*
Y-349320D01*
X325364D01*
Y-349333D01*
X325377D01*
Y-349371D01*
X325389D01*
Y-349409D01*
X325402D01*
Y-349434D01*
X325415D01*
Y-349510D01*
X325427D01*
Y-349599D01*
X325440D01*
Y-349688D01*
X325427D01*
Y-349764D01*
X325415D01*
Y-349840D01*
X325402D01*
Y-349866D01*
X325389D01*
Y-349916D01*
X325377D01*
Y-349954D01*
X325364D01*
Y-349967D01*
X325351D01*
Y-350005D01*
X325339D01*
Y-350018D01*
X325326D01*
Y-350043D01*
X325313D01*
Y-350068D01*
X325301D01*
Y-350081D01*
X325288D01*
Y-350094D01*
X325275D01*
Y-350119D01*
X325262D01*
Y-350132D01*
X325250D01*
Y-350145D01*
X325237D01*
Y-350157D01*
X325224D01*
Y-350170D01*
X325212D01*
Y-350183D01*
X325199D01*
Y-350195D01*
X325186D01*
Y-350208D01*
X325174D01*
Y-350221D01*
X325161D01*
Y-350233D01*
X325148D01*
Y-350246D01*
X325123D01*
Y-350259D01*
X325110D01*
Y-350272D01*
X325085D01*
Y-350284D01*
X325072D01*
Y-350297D01*
X325060D01*
Y-350309D01*
X325022D01*
Y-350322D01*
X324996D01*
Y-350335D01*
X324983D01*
Y-350348D01*
X324945D01*
Y-350360D01*
X324907D01*
Y-350373D01*
X324869D01*
Y-350386D01*
X324793D01*
Y-350398D01*
X324730D01*
Y-350411D01*
X324603D01*
Y-350398D01*
X324552D01*
Y-350386D01*
X324476D01*
Y-350373D01*
X324425D01*
Y-350360D01*
X324400D01*
Y-350348D01*
X324362D01*
Y-350335D01*
X324349D01*
Y-350322D01*
X324311D01*
Y-350309D01*
X324286D01*
Y-350297D01*
X324273D01*
Y-350284D01*
X324248D01*
Y-350272D01*
X324235D01*
Y-350259D01*
X324222D01*
Y-350246D01*
X324197D01*
Y-350233D01*
X324184D01*
Y-350221D01*
X324172D01*
Y-350208D01*
X324159D01*
Y-350195D01*
X324146D01*
Y-350183D01*
X324133D01*
Y-350170D01*
X324121D01*
Y-350157D01*
X324108D01*
Y-350145D01*
X324095D01*
Y-350132D01*
X324083D01*
Y-350119D01*
X324070D01*
Y-350107D01*
X324057D01*
Y-350081D01*
X324045D01*
Y-350068D01*
X324032D01*
Y-350056D01*
X324019D01*
Y-350030D01*
X324007D01*
Y-350005D01*
X323994D01*
Y-349980D01*
X323981D01*
Y-349954D01*
X323969D01*
Y-349916D01*
X323956D01*
Y-349891D01*
X323943D01*
Y-349840D01*
X323931D01*
Y-349815D01*
X323918D01*
Y-349713D01*
X323905D01*
Y-349574D01*
X323918D01*
Y-349472D01*
X323931D01*
Y-349447D01*
X323943D01*
Y-349383D01*
X323956D01*
Y-349358D01*
X323969D01*
Y-349333D01*
X323981D01*
Y-349295D01*
X323994D01*
Y-349282D01*
X324007D01*
Y-349257D01*
X324019D01*
Y-349231D01*
X324032D01*
Y-349219D01*
X324045D01*
Y-349193D01*
X324057D01*
Y-349181D01*
X324070D01*
Y-349168D01*
X324083D01*
Y-349143D01*
X324108D01*
Y-349117D01*
X324121D01*
Y-349104D01*
X324133D01*
Y-349092D01*
X324146D01*
Y-349079D01*
X324159D01*
Y-349066D01*
X324184D01*
Y-349054D01*
X324197D01*
Y-349041D01*
X324210D01*
Y-349028D01*
X324222D01*
Y-349016D01*
X324248D01*
Y-349003D01*
X324260D01*
Y-348990D01*
X324286D01*
Y-348978D01*
X324311D01*
Y-348965D01*
X324324D01*
Y-348952D01*
X324362D01*
Y-348939D01*
X324400D01*
Y-348927D01*
X324413D01*
Y-348914D01*
X324463D01*
Y-348902D01*
X324527D01*
Y-348889D01*
X324577D01*
Y-348876D01*
X324755D01*
Y-348889D01*
D02*
G37*
G36*
X360224Y-348267D02*
X360313D01*
Y-348280D01*
X360363D01*
Y-348292D01*
X360427D01*
Y-348305D01*
X360465D01*
Y-348318D01*
X360503D01*
Y-348331D01*
X360541D01*
Y-348343D01*
X360566D01*
Y-348356D01*
X360604D01*
Y-348369D01*
X360630D01*
Y-348381D01*
X360655D01*
Y-348394D01*
X360693D01*
Y-348407D01*
X360706D01*
Y-348419D01*
X360731D01*
Y-348432D01*
X360757D01*
Y-348445D01*
X360769D01*
Y-348458D01*
X360795D01*
Y-348470D01*
X360820D01*
Y-348483D01*
X360833D01*
Y-348496D01*
X360858D01*
Y-348508D01*
X360871D01*
Y-348521D01*
X360883D01*
Y-348534D01*
X360909D01*
Y-348546D01*
X360922D01*
Y-348559D01*
X360934D01*
Y-348572D01*
X360947D01*
Y-348584D01*
X360960D01*
Y-348597D01*
X360985D01*
Y-348610D01*
X360998D01*
Y-348622D01*
X361010D01*
Y-348635D01*
X361023D01*
Y-348648D01*
X361036D01*
Y-348660D01*
X361048D01*
Y-348673D01*
X361061D01*
Y-348686D01*
X361074D01*
Y-348711D01*
X361087D01*
Y-348724D01*
X361099D01*
Y-348737D01*
X361112D01*
Y-348749D01*
X361124D01*
Y-348775D01*
X361137D01*
Y-348787D01*
X361150D01*
Y-348800D01*
X361163D01*
Y-348813D01*
X361175D01*
Y-348838D01*
X361188D01*
Y-348851D01*
X361201D01*
Y-348876D01*
X361213D01*
Y-348902D01*
X361226D01*
Y-348914D01*
X361239D01*
Y-348939D01*
X361251D01*
Y-348965D01*
X361264D01*
Y-348978D01*
X361277D01*
Y-349016D01*
X361290D01*
Y-349041D01*
X361302D01*
Y-349066D01*
X361315D01*
Y-349104D01*
X361328D01*
Y-349130D01*
X361340D01*
Y-349168D01*
X361353D01*
Y-349219D01*
X361366D01*
Y-349257D01*
X361378D01*
Y-349307D01*
X361391D01*
Y-349396D01*
X361404D01*
Y-349472D01*
X361416D01*
Y-349688D01*
X361404D01*
Y-349764D01*
X361391D01*
Y-349840D01*
X361378D01*
Y-349866D01*
Y-349878D01*
Y-349904D01*
X361366D01*
Y-349942D01*
X361353D01*
Y-349992D01*
X361340D01*
Y-350018D01*
X361328D01*
Y-350056D01*
X361315D01*
Y-350094D01*
X361302D01*
Y-350119D01*
X361290D01*
Y-350145D01*
X361277D01*
Y-350170D01*
X361264D01*
Y-350195D01*
X361251D01*
Y-350221D01*
X361239D01*
Y-350233D01*
X361226D01*
Y-350259D01*
X361213D01*
Y-350284D01*
X361201D01*
Y-350297D01*
X361188D01*
Y-350322D01*
X361175D01*
Y-350335D01*
X361163D01*
Y-350348D01*
X361150D01*
Y-350373D01*
X361137D01*
Y-350386D01*
X361124D01*
Y-350398D01*
X361112D01*
Y-350424D01*
X361099D01*
Y-350436D01*
X361087D01*
Y-350449D01*
X361074D01*
Y-350462D01*
X361061D01*
Y-350475D01*
X361048D01*
Y-350487D01*
X361036D01*
Y-350500D01*
X361023D01*
Y-350513D01*
X361010D01*
Y-350525D01*
X360998D01*
Y-350538D01*
X360985D01*
Y-350551D01*
X360972D01*
Y-350563D01*
X360960D01*
Y-350576D01*
X360947D01*
Y-350589D01*
X360922D01*
Y-350601D01*
X360909D01*
Y-350614D01*
X360896D01*
Y-350627D01*
X360883D01*
Y-350639D01*
X360858D01*
Y-350652D01*
X360845D01*
Y-350665D01*
X360820D01*
Y-350677D01*
X360807D01*
Y-350690D01*
X360782D01*
Y-350703D01*
X360757D01*
Y-350715D01*
X360744D01*
Y-350728D01*
X360719D01*
Y-350741D01*
X360693D01*
Y-350753D01*
X360681D01*
Y-350766D01*
X360643D01*
Y-350779D01*
X360617D01*
Y-350792D01*
X360592D01*
Y-350804D01*
X360554D01*
Y-350817D01*
X360528D01*
Y-350830D01*
X360478D01*
Y-350842D01*
X360439D01*
Y-350855D01*
X360402D01*
Y-350868D01*
X360325D01*
Y-350880D01*
X360287D01*
Y-350893D01*
X360173D01*
Y-350906D01*
X359958D01*
Y-350893D01*
X359843D01*
Y-350880D01*
X359793D01*
Y-350868D01*
X359729D01*
Y-350855D01*
X359678D01*
Y-350842D01*
X359640D01*
Y-350830D01*
X359602D01*
Y-350817D01*
X359564D01*
Y-350804D01*
X359539D01*
Y-350792D01*
X359501D01*
Y-350779D01*
X359488D01*
Y-350766D01*
X359450D01*
Y-350753D01*
X359425D01*
Y-350741D01*
X359412D01*
Y-350728D01*
X359374D01*
Y-350715D01*
X359361D01*
Y-350703D01*
X359336D01*
Y-350690D01*
X359311D01*
Y-350677D01*
X359298D01*
Y-350665D01*
X359285D01*
Y-350652D01*
X359260D01*
Y-350639D01*
X359247D01*
Y-350627D01*
X359222D01*
Y-350614D01*
X359209D01*
Y-350601D01*
X359196D01*
Y-350589D01*
X359184D01*
Y-350576D01*
X359171D01*
Y-350563D01*
X359146D01*
Y-350551D01*
X359133D01*
Y-350538D01*
X359120D01*
Y-350525D01*
X359107D01*
Y-350513D01*
X359095D01*
Y-350500D01*
X359082D01*
Y-350487D01*
X359069D01*
Y-350475D01*
X359057D01*
Y-350462D01*
X359044D01*
Y-350436D01*
X359031D01*
Y-350424D01*
X359019D01*
Y-350411D01*
X359006D01*
Y-350398D01*
X358993D01*
Y-350386D01*
X358981D01*
Y-350360D01*
X358968D01*
Y-350348D01*
X358955D01*
Y-350322D01*
X358943D01*
Y-350309D01*
X358930D01*
Y-350297D01*
X358917D01*
Y-350272D01*
X358905D01*
Y-350246D01*
X358892D01*
Y-350233D01*
X358879D01*
Y-350208D01*
X358867D01*
Y-350183D01*
X358854D01*
Y-350157D01*
X358841D01*
Y-350132D01*
X358828D01*
Y-350107D01*
X358816D01*
Y-350068D01*
X358803D01*
Y-350043D01*
X358790D01*
Y-350005D01*
X358778D01*
Y-349967D01*
X358765D01*
Y-349929D01*
X358752D01*
Y-349878D01*
X358740D01*
Y-349815D01*
X358727D01*
Y-349739D01*
X358714D01*
Y-349409D01*
X358727D01*
Y-349345D01*
X358740D01*
Y-349282D01*
X358752D01*
Y-349219D01*
X358765D01*
Y-349193D01*
X358778D01*
Y-349143D01*
X358790D01*
Y-349104D01*
X358803D01*
Y-349079D01*
X358816D01*
Y-349041D01*
X358828D01*
Y-349028D01*
X358841D01*
Y-348990D01*
X358854D01*
Y-348965D01*
X358867D01*
Y-348952D01*
X358879D01*
Y-348927D01*
X358892D01*
Y-348902D01*
X358905D01*
Y-348889D01*
X358917D01*
Y-348863D01*
X358930D01*
Y-348851D01*
X358943D01*
Y-348825D01*
X358955D01*
Y-348800D01*
X358968D01*
Y-348787D01*
X358981D01*
Y-348775D01*
X358993D01*
Y-348762D01*
X359006D01*
Y-348737D01*
X359019D01*
Y-348724D01*
X359031D01*
Y-348711D01*
X359044D01*
Y-348698D01*
X359057D01*
Y-348686D01*
X359069D01*
Y-348673D01*
X359082D01*
Y-348660D01*
X359095D01*
Y-348648D01*
X359107D01*
Y-348635D01*
X359120D01*
Y-348622D01*
X359133D01*
Y-348610D01*
X359146D01*
Y-348597D01*
X359158D01*
Y-348584D01*
X359171D01*
Y-348572D01*
X359184D01*
Y-348559D01*
X359209D01*
Y-348546D01*
X359222D01*
Y-348534D01*
X359234D01*
Y-348521D01*
X359260D01*
Y-348508D01*
X359273D01*
Y-348496D01*
X359285D01*
Y-348483D01*
X359311D01*
Y-348470D01*
X359323D01*
Y-348458D01*
X359349D01*
Y-348445D01*
X359361D01*
Y-348432D01*
X359399D01*
Y-348419D01*
X359412D01*
Y-348407D01*
X359437D01*
Y-348394D01*
X359463D01*
Y-348381D01*
X359488D01*
Y-348369D01*
X359513D01*
Y-348356D01*
X359552D01*
Y-348343D01*
X359577D01*
Y-348331D01*
X359615D01*
Y-348318D01*
X359666D01*
Y-348305D01*
X359704D01*
Y-348292D01*
X359754D01*
Y-348280D01*
X359818D01*
Y-348267D01*
X359907D01*
Y-348254D01*
X360224D01*
Y-348267D01*
D02*
G37*
G36*
X324806Y-351642D02*
X324857D01*
Y-351654D01*
X324907D01*
Y-351667D01*
X324945D01*
Y-351680D01*
X324971D01*
Y-351692D01*
X325009D01*
Y-351705D01*
X325022D01*
Y-351718D01*
X325047D01*
Y-351730D01*
X325072D01*
Y-351743D01*
X325085D01*
Y-351756D01*
X325110D01*
Y-351768D01*
X325123D01*
Y-351781D01*
X325148D01*
Y-351794D01*
X325161D01*
Y-351806D01*
X325174D01*
Y-351819D01*
X325186D01*
Y-351832D01*
X325199D01*
Y-351845D01*
X325212D01*
Y-351857D01*
X325224D01*
Y-351870D01*
X325237D01*
Y-351883D01*
X325250D01*
Y-351895D01*
X325262D01*
Y-351908D01*
X325275D01*
Y-351933D01*
X325288D01*
Y-351946D01*
X325301D01*
Y-351959D01*
X325313D01*
Y-351984D01*
X325326D01*
Y-352009D01*
X325339D01*
Y-352035D01*
X325351D01*
Y-352060D01*
X325364D01*
Y-352073D01*
X325377D01*
Y-352111D01*
X325389D01*
Y-352162D01*
X325402D01*
Y-352187D01*
X325415D01*
Y-352263D01*
X325427D01*
Y-352339D01*
X325440D01*
Y-352428D01*
X325427D01*
Y-352504D01*
X325415D01*
Y-352593D01*
X325402D01*
Y-352618D01*
X325389D01*
Y-352656D01*
X325377D01*
Y-352694D01*
X325364D01*
Y-352720D01*
X325351D01*
Y-352745D01*
X325339D01*
Y-352770D01*
X325326D01*
Y-352783D01*
X325313D01*
Y-352809D01*
X325301D01*
Y-352821D01*
X325288D01*
Y-352847D01*
X325275D01*
Y-352859D01*
X325262D01*
Y-352872D01*
X325250D01*
Y-352885D01*
X325237D01*
Y-352897D01*
X325224D01*
Y-352910D01*
X325212D01*
Y-352923D01*
X325199D01*
Y-352935D01*
X325186D01*
Y-352948D01*
X325174D01*
Y-352961D01*
X325161D01*
Y-352974D01*
X325148D01*
Y-352986D01*
X325136D01*
Y-352999D01*
X325110D01*
Y-353012D01*
X325098D01*
Y-353024D01*
X325072D01*
Y-353037D01*
X325060D01*
Y-353050D01*
X325034D01*
Y-353062D01*
X325009D01*
Y-353075D01*
X324983D01*
Y-353088D01*
X324945D01*
Y-353100D01*
X324920D01*
Y-353113D01*
X324882D01*
Y-353126D01*
X324818D01*
Y-353138D01*
X324768D01*
Y-353151D01*
X324577D01*
Y-353138D01*
X324527D01*
Y-353126D01*
X324463D01*
Y-353113D01*
X324425D01*
Y-353100D01*
X324387D01*
Y-353088D01*
X324362D01*
Y-353075D01*
X324337D01*
Y-353062D01*
X324311D01*
Y-353050D01*
X324286D01*
Y-353037D01*
X324273D01*
Y-353024D01*
X324248D01*
Y-353012D01*
X324222D01*
Y-352999D01*
X324210D01*
Y-352986D01*
X324197D01*
Y-352974D01*
X324184D01*
Y-352961D01*
X324159D01*
Y-352948D01*
X324146D01*
Y-352935D01*
X324133D01*
Y-352923D01*
X324121D01*
Y-352910D01*
X324108D01*
Y-352897D01*
X324095D01*
Y-352872D01*
X324083D01*
Y-352859D01*
X324070D01*
Y-352847D01*
X324057D01*
Y-352834D01*
X324045D01*
Y-352809D01*
X324032D01*
Y-352796D01*
X324019D01*
Y-352770D01*
X324007D01*
Y-352745D01*
X323994D01*
Y-352732D01*
X323981D01*
Y-352694D01*
X323969D01*
Y-352669D01*
X323956D01*
Y-352644D01*
X323943D01*
Y-352580D01*
X323931D01*
Y-352555D01*
X323918D01*
Y-352453D01*
X323905D01*
Y-352314D01*
X323918D01*
Y-352225D01*
X323931D01*
Y-352187D01*
X323943D01*
Y-352136D01*
X323956D01*
Y-352098D01*
X323969D01*
Y-352073D01*
X323981D01*
Y-352047D01*
X323994D01*
Y-352022D01*
X324007D01*
Y-351997D01*
X324019D01*
Y-351984D01*
X324032D01*
Y-351959D01*
X324045D01*
Y-351946D01*
X324057D01*
Y-351921D01*
X324070D01*
Y-351908D01*
X324083D01*
Y-351895D01*
X324095D01*
Y-351883D01*
X324108D01*
Y-351870D01*
X324121D01*
Y-351857D01*
X324133D01*
Y-351845D01*
X324146D01*
Y-351832D01*
X324159D01*
Y-351819D01*
X324172D01*
Y-351806D01*
X324184D01*
Y-351794D01*
X324197D01*
Y-351781D01*
X324222D01*
Y-351768D01*
X324235D01*
Y-351756D01*
X324248D01*
Y-351743D01*
X324273D01*
Y-351730D01*
X324286D01*
Y-351718D01*
X324324D01*
Y-351705D01*
X324337D01*
Y-351692D01*
X324375D01*
Y-351680D01*
X324400D01*
Y-351667D01*
X324425D01*
Y-351654D01*
X324489D01*
Y-351642D01*
X324527D01*
Y-351629D01*
X324806D01*
Y-351642D01*
D02*
G37*
G36*
Y-354382D02*
X324831D01*
Y-354394D01*
X324907D01*
Y-354407D01*
X324933D01*
Y-354420D01*
X324958D01*
Y-354432D01*
X324996D01*
Y-354445D01*
X325009D01*
Y-354458D01*
X325047D01*
Y-354470D01*
X325060D01*
Y-354483D01*
X325085D01*
Y-354496D01*
X325110D01*
Y-354508D01*
X325123D01*
Y-354521D01*
X325136D01*
Y-354534D01*
X325148D01*
Y-354546D01*
X325174D01*
Y-354559D01*
X325186D01*
Y-354572D01*
X325199D01*
Y-354585D01*
X325212D01*
Y-354597D01*
X325224D01*
Y-354610D01*
X325237D01*
Y-354623D01*
X325250D01*
Y-354648D01*
X325262D01*
Y-354661D01*
X325275D01*
Y-354673D01*
X325288D01*
Y-354686D01*
X325301D01*
Y-354711D01*
X325313D01*
Y-354737D01*
X325326D01*
Y-354749D01*
X325339D01*
Y-354775D01*
X325351D01*
Y-354800D01*
X325364D01*
Y-354826D01*
X325377D01*
Y-354864D01*
X325389D01*
Y-354902D01*
X325402D01*
Y-354927D01*
X325415D01*
Y-355016D01*
X325427D01*
Y-355092D01*
X325440D01*
Y-355168D01*
X325427D01*
Y-355244D01*
X325415D01*
Y-355333D01*
X325402D01*
Y-355358D01*
X325389D01*
Y-355397D01*
X325377D01*
Y-355434D01*
X325364D01*
Y-355460D01*
X325351D01*
Y-355485D01*
X325339D01*
Y-355511D01*
X325326D01*
Y-355523D01*
X325313D01*
Y-355549D01*
X325301D01*
Y-355561D01*
X325288D01*
Y-355587D01*
X325275D01*
Y-355599D01*
X325262D01*
Y-355612D01*
X325250D01*
Y-355638D01*
X325237D01*
Y-355650D01*
X325224D01*
Y-355663D01*
X325212D01*
Y-355676D01*
X325199D01*
Y-355688D01*
X325186D01*
Y-355701D01*
X325161D01*
Y-355714D01*
X325148D01*
Y-355726D01*
X325136D01*
Y-355739D01*
X325123D01*
Y-355752D01*
X325098D01*
Y-355764D01*
X325085D01*
Y-355777D01*
X325060D01*
Y-355790D01*
X325047D01*
Y-355802D01*
X325009D01*
Y-355815D01*
X324996D01*
Y-355828D01*
X324958D01*
Y-355840D01*
X324920D01*
Y-355853D01*
X324895D01*
Y-355866D01*
X324831D01*
Y-355878D01*
X324793D01*
Y-355891D01*
X324552D01*
Y-355878D01*
X324501D01*
Y-355866D01*
X324451D01*
Y-355853D01*
X324413D01*
Y-355840D01*
X324387D01*
Y-355828D01*
X324349D01*
Y-355815D01*
X324337D01*
Y-355802D01*
X324298D01*
Y-355790D01*
X324273D01*
Y-355777D01*
X324260D01*
Y-355764D01*
X324235D01*
Y-355752D01*
X324222D01*
Y-355739D01*
X324210D01*
Y-355726D01*
X324184D01*
Y-355701D01*
X324159D01*
Y-355688D01*
X324146D01*
Y-355676D01*
X324133D01*
Y-355663D01*
X324121D01*
Y-355650D01*
X324108D01*
Y-355638D01*
X324095D01*
Y-355625D01*
X324083D01*
Y-355599D01*
X324070D01*
Y-355587D01*
X324057D01*
Y-355574D01*
X324045D01*
Y-355549D01*
X324032D01*
Y-355536D01*
X324019D01*
Y-355511D01*
X324007D01*
Y-355485D01*
X323994D01*
Y-355473D01*
X323981D01*
Y-355434D01*
X323969D01*
Y-355409D01*
X323956D01*
Y-355384D01*
X323943D01*
Y-355333D01*
X323931D01*
Y-355295D01*
X323918D01*
Y-355193D01*
X323905D01*
Y-355067D01*
X323918D01*
Y-354965D01*
X323931D01*
Y-354927D01*
X323943D01*
Y-354876D01*
X323956D01*
Y-354851D01*
X323969D01*
Y-354826D01*
X323981D01*
Y-354787D01*
X323994D01*
Y-354775D01*
X324007D01*
Y-354749D01*
X324019D01*
Y-354737D01*
Y-354724D01*
X324032D01*
Y-354711D01*
X324045D01*
Y-354686D01*
X324057D01*
Y-354673D01*
X324070D01*
Y-354661D01*
X324083D01*
Y-354635D01*
X324095D01*
Y-354623D01*
X324108D01*
Y-354610D01*
X324121D01*
Y-354597D01*
X324133D01*
Y-354585D01*
X324146D01*
Y-354572D01*
X324159D01*
Y-354559D01*
X324172D01*
Y-354546D01*
X324184D01*
Y-354534D01*
X324210D01*
Y-354521D01*
X324222D01*
Y-354508D01*
X324235D01*
Y-354496D01*
X324260D01*
Y-354483D01*
X324273D01*
Y-354470D01*
X324298D01*
Y-354458D01*
X324324D01*
Y-354445D01*
X324337D01*
Y-354432D01*
X324375D01*
Y-354420D01*
X324413D01*
Y-354407D01*
X324438D01*
Y-354394D01*
X324501D01*
Y-354382D01*
X324552D01*
Y-354369D01*
X324806D01*
Y-354382D01*
D02*
G37*
G36*
X321977Y-337687D02*
X322078D01*
Y-337700D01*
X322142D01*
Y-337713D01*
X322180D01*
Y-337725D01*
X322231D01*
Y-337738D01*
X322269D01*
Y-337751D01*
X322294D01*
Y-337764D01*
X322332D01*
Y-337776D01*
X322358D01*
Y-337789D01*
X322396D01*
Y-337802D01*
X322421D01*
Y-337814D01*
X322446D01*
Y-337827D01*
X322459D01*
Y-337840D01*
X322484D01*
Y-337852D01*
X322510D01*
Y-337865D01*
X322522D01*
Y-337878D01*
X322548D01*
Y-337890D01*
X322561D01*
Y-337903D01*
X322586D01*
Y-337916D01*
X322599D01*
Y-337929D01*
X322611D01*
Y-337941D01*
X322637D01*
Y-337954D01*
X322649D01*
Y-337966D01*
X322662D01*
Y-337979D01*
X322675D01*
Y-337992D01*
X322687D01*
Y-338005D01*
X322700D01*
Y-338017D01*
X322713D01*
Y-338030D01*
X322725D01*
Y-338043D01*
X322738D01*
Y-338055D01*
X322751D01*
Y-338068D01*
X322763D01*
Y-338081D01*
X322776D01*
Y-338093D01*
X322789D01*
Y-338106D01*
X322801D01*
Y-338119D01*
X322814D01*
Y-338144D01*
X322827D01*
Y-338157D01*
X322840D01*
Y-338170D01*
X322852D01*
Y-338195D01*
X322865D01*
Y-338208D01*
X322878D01*
Y-338233D01*
X322890D01*
Y-338246D01*
X322903D01*
Y-338271D01*
X322916D01*
Y-338296D01*
X322928D01*
Y-338322D01*
X322941D01*
Y-338334D01*
X322954D01*
Y-338360D01*
X322966D01*
Y-338385D01*
X322979D01*
Y-338423D01*
X322992D01*
Y-338461D01*
X323005D01*
Y-338474D01*
X323017D01*
Y-338525D01*
X323030D01*
Y-338563D01*
X323042D01*
Y-338601D01*
X323055D01*
Y-338677D01*
X323068D01*
Y-338753D01*
X323081D01*
Y-345273D01*
Y-345286D01*
Y-360851D01*
X322320D01*
Y-338880D01*
X322307D01*
Y-338816D01*
X322294D01*
Y-338791D01*
X322281D01*
Y-338753D01*
X322269D01*
Y-338728D01*
X322256D01*
Y-338702D01*
X322243D01*
Y-338677D01*
X322231D01*
Y-338664D01*
X322218D01*
Y-338651D01*
X322205D01*
Y-338626D01*
X322193D01*
Y-338614D01*
X322180D01*
Y-338601D01*
X322167D01*
Y-338588D01*
X322155D01*
Y-338575D01*
X322142D01*
Y-338563D01*
X322129D01*
Y-338550D01*
X322104D01*
Y-338537D01*
X322091D01*
Y-338525D01*
X322078D01*
Y-338512D01*
X322053D01*
Y-338499D01*
X322028D01*
Y-338487D01*
X322002D01*
Y-338474D01*
X321964D01*
Y-338461D01*
X321939D01*
Y-338449D01*
X321876D01*
Y-338436D01*
X319300D01*
Y-337675D01*
X321977D01*
Y-337687D01*
D02*
G37*
%LPC*%
G36*
X340561Y-342622D02*
X338062D01*
Y-342635D01*
X337999D01*
Y-342648D01*
X337948D01*
Y-342660D01*
X337923D01*
Y-342673D01*
X337897D01*
Y-342686D01*
X337885D01*
Y-342698D01*
X337872D01*
Y-342711D01*
X337859D01*
Y-342724D01*
X337847D01*
Y-342736D01*
X337834D01*
Y-342749D01*
X337821D01*
Y-342762D01*
X337808D01*
Y-342774D01*
X337796D01*
Y-342787D01*
X337783D01*
Y-342800D01*
X337771D01*
Y-342812D01*
X337758D01*
Y-342825D01*
X337745D01*
Y-342838D01*
X337732D01*
Y-342850D01*
X337720D01*
Y-342863D01*
X337707D01*
Y-342876D01*
X337694D01*
Y-342888D01*
X337682D01*
Y-342901D01*
X337669D01*
Y-342914D01*
X337656D01*
Y-342927D01*
X337644D01*
Y-342939D01*
X337631D01*
Y-342952D01*
X337618D01*
Y-342965D01*
X337606D01*
Y-342977D01*
X337593D01*
Y-342990D01*
X337580D01*
Y-343003D01*
X337567D01*
Y-343015D01*
X337555D01*
Y-343028D01*
X337542D01*
Y-343041D01*
X337529D01*
Y-343053D01*
X337517D01*
Y-343066D01*
X337504D01*
Y-343079D01*
X337491D01*
Y-343092D01*
X337479D01*
Y-343104D01*
X337466D01*
Y-343117D01*
X337453D01*
Y-343129D01*
X337441D01*
Y-343142D01*
X337428D01*
Y-343155D01*
X337415D01*
Y-343168D01*
X337403D01*
Y-343180D01*
X337390D01*
Y-343193D01*
X337377D01*
Y-343206D01*
X337365D01*
Y-343218D01*
X337352D01*
Y-343231D01*
X337339D01*
Y-343244D01*
X337327D01*
Y-343256D01*
X337314D01*
Y-343269D01*
X337301D01*
Y-343320D01*
X337288D01*
Y-343371D01*
X337276D01*
Y-346288D01*
X337288D01*
Y-346339D01*
X337301D01*
Y-346377D01*
X337314D01*
Y-346402D01*
X337327D01*
Y-346415D01*
X337339D01*
Y-346428D01*
X337352D01*
Y-346441D01*
X337365D01*
Y-346453D01*
X337377D01*
Y-346466D01*
X337390D01*
Y-346479D01*
X337403D01*
Y-346491D01*
X337415D01*
Y-346504D01*
X337428D01*
Y-346517D01*
X337441D01*
Y-346529D01*
X337453D01*
Y-346542D01*
X337466D01*
Y-346555D01*
X337479D01*
Y-346567D01*
X337491D01*
Y-346580D01*
X337504D01*
Y-346593D01*
X337517D01*
Y-346605D01*
X337529D01*
Y-346618D01*
X337542D01*
Y-346631D01*
X337555D01*
Y-346643D01*
X337567D01*
Y-346656D01*
X337580D01*
Y-346669D01*
X337593D01*
Y-346681D01*
X337606D01*
Y-346694D01*
X337618D01*
Y-346707D01*
X337631D01*
Y-346720D01*
X337644D01*
Y-346732D01*
X337656D01*
Y-346745D01*
X337669D01*
Y-346758D01*
X337682D01*
Y-346770D01*
X337694D01*
Y-346783D01*
X337707D01*
Y-346796D01*
X337720D01*
Y-346808D01*
X337732D01*
Y-346821D01*
X337745D01*
Y-346834D01*
X337758D01*
Y-346846D01*
X337771D01*
Y-346859D01*
X337783D01*
Y-346872D01*
X337796D01*
Y-346884D01*
X337808D01*
Y-346897D01*
X337821D01*
Y-346910D01*
X337834D01*
Y-346922D01*
X337847D01*
Y-346935D01*
X337859D01*
Y-346948D01*
X337872D01*
Y-346961D01*
X337885D01*
Y-346973D01*
X337897D01*
Y-346986D01*
X337910D01*
Y-346999D01*
X337948D01*
Y-347011D01*
X337986D01*
Y-347024D01*
X338037D01*
Y-347037D01*
X340574D01*
Y-347024D01*
X340587D01*
Y-347011D01*
X340612D01*
Y-346999D01*
X340625D01*
Y-346973D01*
X340637D01*
Y-346948D01*
X340650D01*
Y-346098D01*
X340637D01*
Y-346060D01*
X340625D01*
Y-346047D01*
X340612D01*
Y-346035D01*
X340599D01*
Y-346022D01*
X340574D01*
Y-346009D01*
X338405D01*
Y-345996D01*
X338392D01*
Y-345984D01*
X338379D01*
Y-345286D01*
X338392D01*
Y-345273D01*
X338417D01*
Y-345261D01*
X340269D01*
Y-345248D01*
X340295D01*
Y-345235D01*
X340308D01*
Y-345223D01*
X340320D01*
Y-345197D01*
X340333D01*
Y-344474D01*
X340320D01*
Y-344449D01*
X340308D01*
Y-344424D01*
X340282D01*
Y-344411D01*
X340269D01*
Y-344398D01*
X338405D01*
Y-344385D01*
X338392D01*
Y-344373D01*
X338379D01*
Y-343675D01*
X338392D01*
Y-343662D01*
X338405D01*
Y-343650D01*
X340587D01*
Y-343637D01*
X340599D01*
Y-343624D01*
X340612D01*
Y-343612D01*
X340625D01*
Y-343599D01*
X340637D01*
Y-343573D01*
X340650D01*
Y-342711D01*
X340637D01*
Y-342686D01*
X340625D01*
Y-342660D01*
X340612D01*
Y-342648D01*
X340599D01*
Y-342635D01*
X340561D01*
Y-342622D01*
D02*
G37*
G36*
X335335D02*
X332214D01*
Y-342635D01*
X332176D01*
Y-342648D01*
X332164D01*
Y-342660D01*
X332151D01*
Y-342673D01*
X332138D01*
Y-342698D01*
X332125D01*
Y-346973D01*
X332138D01*
Y-346986D01*
X332151D01*
Y-347011D01*
X332176D01*
Y-347024D01*
X332189D01*
Y-347037D01*
X333166D01*
Y-347024D01*
X333191D01*
Y-347011D01*
X333204D01*
Y-346999D01*
X333216D01*
Y-346986D01*
X333229D01*
Y-346961D01*
X333242D01*
Y-344056D01*
Y-344043D01*
Y-343700D01*
X333939D01*
Y-346948D01*
X333952D01*
Y-346986D01*
X333965D01*
Y-346999D01*
X333978D01*
Y-347011D01*
X334003D01*
Y-347024D01*
X334015D01*
Y-347037D01*
X334904D01*
Y-347024D01*
X334916D01*
Y-347011D01*
X334929D01*
Y-346999D01*
X334942D01*
Y-346986D01*
X334954D01*
Y-346973D01*
X334967D01*
Y-343713D01*
X334980D01*
Y-343700D01*
X335322D01*
Y-343688D01*
X335335D01*
Y-342622D01*
D02*
G37*
G36*
X331555D02*
X330591D01*
Y-342635D01*
X330552D01*
Y-342648D01*
X330540D01*
Y-342660D01*
X330527D01*
Y-342698D01*
X330514D01*
Y-346961D01*
X330527D01*
Y-346999D01*
X330540D01*
Y-347011D01*
X330565D01*
Y-347024D01*
X330578D01*
Y-347037D01*
X331555D01*
Y-347024D01*
X331580D01*
Y-347011D01*
X331593D01*
Y-346999D01*
X331605D01*
Y-346986D01*
X331618D01*
Y-346897D01*
Y-346884D01*
Y-342673D01*
X331605D01*
Y-342660D01*
X331593D01*
Y-342648D01*
X331580D01*
Y-342635D01*
X331555D01*
Y-342622D01*
D02*
G37*
G36*
X330159D02*
X326950D01*
Y-342635D01*
X326912D01*
Y-342648D01*
X326899D01*
Y-342660D01*
X326886D01*
Y-342686D01*
X326874D01*
Y-343624D01*
X326886D01*
Y-343650D01*
X326899D01*
Y-343662D01*
X326912D01*
Y-343675D01*
X326924D01*
Y-343688D01*
X326962D01*
Y-343700D01*
X327926D01*
Y-343713D01*
X327952D01*
Y-343726D01*
X327964D01*
Y-343738D01*
X327977D01*
Y-343751D01*
X327990D01*
Y-343776D01*
X328003D01*
Y-346961D01*
X328015D01*
Y-346986D01*
X328028D01*
Y-346999D01*
X328041D01*
Y-347011D01*
X328053D01*
Y-347024D01*
X328079D01*
Y-347037D01*
X329043D01*
Y-347024D01*
X329068D01*
Y-347011D01*
X329081D01*
Y-346999D01*
X329094D01*
Y-346973D01*
X329106D01*
Y-346935D01*
X329119D01*
Y-343764D01*
X329132D01*
Y-343738D01*
X329144D01*
Y-343726D01*
X329170D01*
Y-343713D01*
X329195D01*
Y-343700D01*
X330159D01*
Y-343688D01*
X330197D01*
Y-343675D01*
X330210D01*
Y-343662D01*
X330223D01*
Y-343650D01*
X330235D01*
Y-343612D01*
X330248D01*
Y-342711D01*
X330235D01*
Y-342673D01*
X330223D01*
Y-342660D01*
X330210D01*
Y-342648D01*
X330197D01*
Y-342635D01*
X330159D01*
Y-342622D01*
D02*
G37*
G36*
X336629Y-339349D02*
X336083D01*
Y-339362D01*
X335804D01*
Y-339375D01*
X335665D01*
Y-339387D01*
X335512D01*
Y-339400D01*
X335411D01*
Y-339413D01*
X335310D01*
Y-339425D01*
X335195D01*
Y-339438D01*
X335132D01*
Y-339451D01*
X335056D01*
Y-339463D01*
X334967D01*
Y-339476D01*
X334916D01*
Y-339489D01*
X334840D01*
Y-339502D01*
X334777D01*
Y-339514D01*
X334726D01*
Y-339527D01*
X334650D01*
Y-339540D01*
X334612D01*
Y-339552D01*
X334548D01*
Y-339565D01*
X334485D01*
Y-339578D01*
X334447D01*
Y-339590D01*
X334383D01*
Y-339603D01*
X334345D01*
Y-339616D01*
X334295D01*
Y-339628D01*
X334244D01*
Y-339641D01*
X334219D01*
Y-339654D01*
X334168D01*
Y-339666D01*
X334117D01*
Y-339679D01*
X334079D01*
Y-339692D01*
X334028D01*
Y-339704D01*
X333990D01*
Y-339717D01*
X333952D01*
Y-339730D01*
X333914D01*
Y-339742D01*
X333889D01*
Y-339755D01*
X333838D01*
Y-339768D01*
X333800D01*
Y-339780D01*
X333774D01*
Y-339793D01*
X333724D01*
Y-339806D01*
X333698D01*
Y-339819D01*
X333660D01*
Y-339831D01*
X333622D01*
Y-339844D01*
X333597D01*
Y-339857D01*
X333559D01*
Y-339869D01*
X333521D01*
Y-339882D01*
X333495D01*
Y-339895D01*
X333457D01*
Y-339907D01*
X333432D01*
Y-339920D01*
X333394D01*
Y-339933D01*
X333356D01*
Y-339946D01*
X333343D01*
Y-339958D01*
X333305D01*
Y-339971D01*
X333267D01*
Y-339984D01*
X333254D01*
Y-339996D01*
X333216D01*
Y-340009D01*
X333191D01*
Y-340022D01*
X333166D01*
Y-340034D01*
X333128D01*
Y-340047D01*
X333102D01*
Y-340060D01*
X333077D01*
Y-340072D01*
X333039D01*
Y-340085D01*
X333026D01*
Y-340098D01*
X332988D01*
Y-340110D01*
X332963D01*
Y-340123D01*
X332937D01*
Y-340136D01*
X332912D01*
Y-340148D01*
X332887D01*
Y-340161D01*
X332861D01*
Y-340174D01*
X332836D01*
Y-340187D01*
X332810D01*
Y-340199D01*
X332785D01*
Y-340212D01*
X332760D01*
Y-340225D01*
X332747D01*
Y-340237D01*
X332709D01*
Y-340250D01*
X332696D01*
Y-340263D01*
X332671D01*
Y-340275D01*
X332646D01*
Y-340288D01*
X332620D01*
Y-340301D01*
X332595D01*
Y-340313D01*
X332569D01*
Y-340326D01*
X332557D01*
Y-340339D01*
X332531D01*
Y-340351D01*
X332506D01*
Y-340364D01*
X332481D01*
Y-340377D01*
X332455D01*
Y-340389D01*
X332442D01*
Y-340402D01*
X332417D01*
Y-340415D01*
X332392D01*
Y-340427D01*
X332379D01*
Y-340440D01*
X332354D01*
Y-340453D01*
X332328D01*
Y-340466D01*
X332303D01*
Y-340478D01*
X332290D01*
Y-340491D01*
X332265D01*
Y-340504D01*
X332240D01*
Y-340516D01*
X332227D01*
Y-340529D01*
X332214D01*
Y-340542D01*
X332189D01*
Y-340554D01*
X332164D01*
Y-340567D01*
X332151D01*
Y-340580D01*
X332125D01*
Y-340592D01*
X332113D01*
Y-340605D01*
X332087D01*
Y-340618D01*
X332062D01*
Y-340631D01*
X332049D01*
Y-340643D01*
X332024D01*
Y-340656D01*
X332011D01*
Y-340669D01*
X331986D01*
Y-340681D01*
X331973D01*
Y-340694D01*
X331961D01*
Y-340707D01*
X331935D01*
Y-340719D01*
X331910D01*
Y-340732D01*
X331897D01*
Y-340745D01*
X331872D01*
Y-340757D01*
X331859D01*
Y-340770D01*
X331846D01*
Y-340783D01*
X331821D01*
Y-340795D01*
X331808D01*
Y-340808D01*
X331783D01*
Y-340821D01*
X331770D01*
Y-340833D01*
X331757D01*
Y-340846D01*
X331732D01*
Y-340859D01*
X331719D01*
Y-340872D01*
X331707D01*
Y-340884D01*
X331681D01*
Y-340897D01*
X331669D01*
Y-340910D01*
X331656D01*
Y-340922D01*
X331631D01*
Y-340935D01*
X331618D01*
Y-340948D01*
X331605D01*
Y-340960D01*
X331580D01*
Y-340973D01*
X331567D01*
Y-340986D01*
X331555D01*
Y-340998D01*
X331542D01*
Y-341011D01*
X331517D01*
Y-341024D01*
X331504D01*
Y-341036D01*
X331491D01*
Y-341049D01*
X331466D01*
Y-341062D01*
X331453D01*
Y-341074D01*
X331440D01*
Y-341087D01*
X331428D01*
Y-341100D01*
X331415D01*
Y-341112D01*
X331390D01*
Y-341125D01*
X331377D01*
Y-341138D01*
X331364D01*
Y-341151D01*
X331339D01*
Y-341163D01*
X331326D01*
Y-341176D01*
X331313D01*
Y-341189D01*
X331301D01*
Y-341201D01*
X331288D01*
Y-341214D01*
X331276D01*
Y-341227D01*
X331250D01*
Y-341239D01*
X331237D01*
Y-341252D01*
X331225D01*
Y-341265D01*
X331212D01*
Y-341277D01*
X331199D01*
Y-341290D01*
X331187D01*
Y-341303D01*
X331174D01*
Y-341316D01*
X331149D01*
Y-341328D01*
X331136D01*
Y-341341D01*
X331123D01*
Y-341354D01*
X331111D01*
Y-341366D01*
X331098D01*
Y-341379D01*
X331085D01*
Y-341392D01*
X331072D01*
Y-341404D01*
X331060D01*
Y-341417D01*
X331034D01*
Y-341430D01*
X331022D01*
Y-341442D01*
X331009D01*
Y-341455D01*
X330996D01*
Y-341468D01*
X330984D01*
Y-341480D01*
X330971D01*
Y-341493D01*
X330958D01*
Y-341506D01*
X330946D01*
Y-341518D01*
X330933D01*
Y-341531D01*
X330920D01*
Y-341544D01*
X330908D01*
Y-341557D01*
X330895D01*
Y-341569D01*
X330882D01*
Y-341582D01*
X330870D01*
Y-341595D01*
X330857D01*
Y-341607D01*
X330844D01*
Y-341620D01*
X330832D01*
Y-341633D01*
X330819D01*
Y-341645D01*
X330806D01*
Y-341658D01*
X330793D01*
Y-341671D01*
X330781D01*
Y-341683D01*
X330768D01*
Y-341696D01*
X330755D01*
Y-341709D01*
X330743D01*
Y-341721D01*
X330730D01*
Y-341734D01*
X330717D01*
Y-341747D01*
X330705D01*
Y-341759D01*
X330692D01*
Y-341772D01*
X330679D01*
Y-341785D01*
X330667D01*
Y-341798D01*
X330654D01*
Y-341810D01*
X330641D01*
Y-341823D01*
X330628D01*
Y-341836D01*
X330616D01*
Y-341848D01*
X330603D01*
Y-341861D01*
X330591D01*
Y-341886D01*
X330578D01*
Y-341899D01*
X330565D01*
Y-341912D01*
X330552D01*
Y-341924D01*
X330540D01*
Y-341937D01*
X330527D01*
Y-341950D01*
X330514D01*
Y-341963D01*
X330502D01*
Y-341975D01*
X330489D01*
Y-341988D01*
X330476D01*
Y-342013D01*
X330464D01*
Y-342026D01*
X330451D01*
Y-342039D01*
X330438D01*
Y-342051D01*
X330426D01*
Y-342064D01*
X330413D01*
Y-342077D01*
X330400D01*
Y-342102D01*
X330387D01*
Y-342115D01*
X330375D01*
Y-342127D01*
X330362D01*
Y-342140D01*
X330349D01*
Y-342153D01*
X330337D01*
Y-342165D01*
X330324D01*
Y-342191D01*
X330311D01*
Y-342203D01*
X330299D01*
Y-342216D01*
X330286D01*
Y-342229D01*
X330273D01*
Y-342242D01*
X330261D01*
Y-342267D01*
X330248D01*
Y-342280D01*
X330565D01*
Y-342267D01*
X330578D01*
Y-342254D01*
X330591D01*
Y-342242D01*
X330603D01*
Y-342216D01*
X330616D01*
Y-342203D01*
X330628D01*
Y-342191D01*
X330641D01*
Y-342178D01*
X330654D01*
Y-342165D01*
X330667D01*
Y-342153D01*
X330679D01*
Y-342140D01*
X330692D01*
Y-342127D01*
X330705D01*
Y-342102D01*
X330717D01*
Y-342089D01*
X330730D01*
Y-342077D01*
X330743D01*
Y-342064D01*
X330755D01*
Y-342051D01*
X330768D01*
Y-342039D01*
X330781D01*
Y-342026D01*
X330793D01*
Y-342013D01*
X330806D01*
Y-342001D01*
X330819D01*
Y-341988D01*
X330832D01*
Y-341975D01*
X330844D01*
Y-341950D01*
X330857D01*
Y-341937D01*
X330870D01*
Y-341924D01*
X330882D01*
Y-341912D01*
X330895D01*
Y-341899D01*
X330908D01*
Y-341886D01*
X330920D01*
Y-341874D01*
X330933D01*
Y-341861D01*
X330946D01*
Y-341848D01*
X330958D01*
Y-341836D01*
X330971D01*
Y-341823D01*
X330984D01*
Y-341810D01*
X330996D01*
Y-341798D01*
X331009D01*
Y-341785D01*
X331022D01*
Y-341772D01*
X331034D01*
Y-341759D01*
X331047D01*
Y-341747D01*
X331060D01*
Y-341734D01*
X331072D01*
Y-341721D01*
X331085D01*
Y-341709D01*
X331098D01*
Y-341696D01*
X331111D01*
Y-341683D01*
X331136D01*
Y-341671D01*
X331149D01*
Y-341658D01*
X331161D01*
Y-341645D01*
X331174D01*
Y-341633D01*
X331187D01*
Y-341620D01*
X331199D01*
Y-341607D01*
X331212D01*
Y-341595D01*
X331225D01*
Y-341582D01*
X331237D01*
Y-341569D01*
X331250D01*
Y-341557D01*
X331276D01*
Y-341544D01*
X331288D01*
Y-341531D01*
X331301D01*
Y-341518D01*
X331313D01*
Y-341506D01*
X331326D01*
Y-341493D01*
X331339D01*
Y-341480D01*
X331352D01*
Y-341468D01*
X331364D01*
Y-341455D01*
X331377D01*
Y-341442D01*
X331402D01*
Y-341430D01*
X331415D01*
Y-341417D01*
X331428D01*
Y-341404D01*
X331440D01*
Y-341392D01*
X331453D01*
Y-341379D01*
X331478D01*
Y-341354D01*
X331504D01*
Y-341341D01*
X331517D01*
Y-341328D01*
X331529D01*
Y-341316D01*
X331555D01*
Y-341303D01*
X331567D01*
Y-341290D01*
X331580D01*
Y-341277D01*
X331593D01*
Y-341265D01*
X331605D01*
Y-341252D01*
X331631D01*
Y-341239D01*
X331643D01*
Y-341227D01*
X331656D01*
Y-341214D01*
X331669D01*
Y-341201D01*
X331694D01*
Y-341189D01*
X331707D01*
Y-341176D01*
X331719D01*
Y-341163D01*
X331745D01*
Y-341151D01*
X331757D01*
Y-341138D01*
X331770D01*
Y-341125D01*
X331783D01*
Y-341112D01*
X331808D01*
Y-341100D01*
X331821D01*
Y-341087D01*
X331846D01*
Y-341074D01*
X331859D01*
Y-341062D01*
X331872D01*
Y-341049D01*
X331897D01*
Y-341036D01*
X331910D01*
Y-341024D01*
X331922D01*
Y-341011D01*
X331948D01*
Y-340998D01*
X331961D01*
Y-340986D01*
X331986D01*
Y-340973D01*
X331998D01*
Y-340960D01*
X332011D01*
Y-340948D01*
X332037D01*
Y-340935D01*
X332049D01*
Y-340922D01*
X332075D01*
Y-340910D01*
X332087D01*
Y-340897D01*
X332113D01*
Y-340884D01*
X332125D01*
Y-340872D01*
X332151D01*
Y-340859D01*
X332164D01*
Y-340846D01*
X332189D01*
Y-340833D01*
X332202D01*
Y-340821D01*
X332227D01*
Y-340808D01*
X332240D01*
Y-340795D01*
X332265D01*
Y-340783D01*
X332290D01*
Y-340770D01*
X332303D01*
Y-340757D01*
X332316D01*
Y-340745D01*
X332341D01*
Y-340732D01*
X332366D01*
Y-340719D01*
X332379D01*
Y-340707D01*
X332404D01*
Y-340694D01*
X332417D01*
Y-340681D01*
X332442D01*
Y-340669D01*
X332468D01*
Y-340656D01*
X332493D01*
Y-340643D01*
X332519D01*
Y-340631D01*
X332531D01*
Y-340618D01*
X332557D01*
Y-340605D01*
X332582D01*
Y-340592D01*
X332595D01*
Y-340580D01*
X332620D01*
Y-340567D01*
X332646D01*
Y-340554D01*
X332671D01*
Y-340542D01*
X332696D01*
Y-340529D01*
X332709D01*
Y-340516D01*
X332734D01*
Y-340504D01*
X332760D01*
Y-340491D01*
X332785D01*
Y-340478D01*
X332810D01*
Y-340466D01*
X332836D01*
Y-340453D01*
X332849D01*
Y-340440D01*
X332887D01*
Y-340427D01*
X332899D01*
Y-340415D01*
X332925D01*
Y-340402D01*
X332963D01*
Y-340389D01*
X332975D01*
Y-340377D01*
X333001D01*
Y-340364D01*
X333039D01*
Y-340351D01*
X333051D01*
Y-340339D01*
X333089D01*
Y-340326D01*
X333115D01*
Y-340313D01*
X333140D01*
Y-340301D01*
X333166D01*
Y-340288D01*
X333191D01*
Y-340275D01*
X333216D01*
Y-340263D01*
X333254D01*
Y-340250D01*
X333280D01*
Y-340237D01*
X333305D01*
Y-340225D01*
X333330D01*
Y-340212D01*
X333356D01*
Y-340199D01*
X333394D01*
Y-340187D01*
X333419D01*
Y-340174D01*
X333457D01*
Y-340161D01*
X333495D01*
Y-340148D01*
X333508D01*
Y-340136D01*
X333546D01*
Y-340123D01*
X333584D01*
Y-340110D01*
X333610D01*
Y-340098D01*
X333648D01*
Y-340085D01*
X333673D01*
Y-340072D01*
X333711D01*
Y-340060D01*
X333749D01*
Y-340047D01*
X333787D01*
Y-340034D01*
X333825D01*
Y-340022D01*
X333851D01*
Y-340009D01*
X333889D01*
Y-339996D01*
X333927D01*
Y-339984D01*
X333965D01*
Y-339971D01*
X334003D01*
Y-339958D01*
X334054D01*
Y-339946D01*
X334079D01*
Y-339933D01*
X334130D01*
Y-339920D01*
X334168D01*
Y-339907D01*
X334206D01*
Y-339895D01*
X334257D01*
Y-339882D01*
X334295D01*
Y-339869D01*
X334345D01*
Y-339857D01*
X334396D01*
Y-339844D01*
X334434D01*
Y-339831D01*
X334485D01*
Y-339819D01*
X334536D01*
Y-339806D01*
X334586D01*
Y-339793D01*
X334650D01*
Y-339780D01*
X334701D01*
Y-339768D01*
X334751D01*
Y-339755D01*
X334827D01*
Y-339742D01*
X334878D01*
Y-339730D01*
X334954D01*
Y-339717D01*
X335018D01*
Y-339704D01*
X335094D01*
Y-339692D01*
X335170D01*
Y-339679D01*
X335246D01*
Y-339666D01*
X335348D01*
Y-339654D01*
X335449D01*
Y-339641D01*
X335538D01*
Y-339628D01*
X335690D01*
Y-339616D01*
X335880D01*
Y-339603D01*
X336109D01*
Y-339590D01*
X336616D01*
Y-339603D01*
X336832D01*
Y-339616D01*
X337022D01*
Y-339628D01*
X337174D01*
Y-339641D01*
X337263D01*
Y-339654D01*
X337377D01*
Y-339666D01*
X337466D01*
Y-339679D01*
X337529D01*
Y-339692D01*
X337631D01*
Y-339704D01*
X337694D01*
Y-339717D01*
X337771D01*
Y-339730D01*
X337834D01*
Y-339742D01*
X337885D01*
Y-339755D01*
X337961D01*
Y-339768D01*
X338012D01*
Y-339780D01*
X338062D01*
Y-339793D01*
X338126D01*
Y-339806D01*
X338176D01*
Y-339819D01*
X338227D01*
Y-339831D01*
X338278D01*
Y-339844D01*
X338316D01*
Y-339857D01*
X338379D01*
Y-339869D01*
X338417D01*
Y-339882D01*
X338456D01*
Y-339895D01*
X338506D01*
Y-339907D01*
X338544D01*
Y-339920D01*
X338582D01*
Y-339933D01*
X338633D01*
Y-339946D01*
X338671D01*
Y-339958D01*
X338709D01*
Y-339971D01*
X338747D01*
Y-339984D01*
X338785D01*
Y-339996D01*
X338823D01*
Y-340009D01*
X338861D01*
Y-340022D01*
X338899D01*
Y-340034D01*
X338937D01*
Y-340047D01*
X338963D01*
Y-340060D01*
X339001D01*
Y-340072D01*
X339039D01*
Y-340085D01*
X339064D01*
Y-340098D01*
X339102D01*
Y-340110D01*
X339128D01*
Y-340123D01*
X339166D01*
Y-340136D01*
X339204D01*
Y-340148D01*
X339229D01*
Y-340161D01*
X339255D01*
Y-340174D01*
X339293D01*
Y-340187D01*
X339318D01*
Y-340199D01*
X339356D01*
Y-340212D01*
X339382D01*
Y-340225D01*
X339407D01*
Y-340237D01*
X339445D01*
Y-340250D01*
X339458D01*
Y-340263D01*
X339496D01*
Y-340275D01*
X339534D01*
Y-340288D01*
X339546D01*
Y-340301D01*
X339572D01*
Y-340313D01*
X339610D01*
Y-340326D01*
X339635D01*
Y-340339D01*
X339661D01*
Y-340351D01*
X339673D01*
Y-340364D01*
X339711D01*
Y-340377D01*
X339737D01*
Y-340389D01*
X339749D01*
Y-340402D01*
X339788D01*
Y-340415D01*
X339813D01*
Y-340427D01*
X339838D01*
Y-340440D01*
X339864D01*
Y-340453D01*
X339876D01*
Y-340466D01*
X339914D01*
Y-340478D01*
X339940D01*
Y-340491D01*
X339952D01*
Y-340504D01*
X339978D01*
Y-340516D01*
X340003D01*
Y-340529D01*
X340029D01*
Y-340542D01*
X340054D01*
Y-340554D01*
X340067D01*
Y-340567D01*
X340092D01*
Y-340580D01*
X340117D01*
Y-340592D01*
X340130D01*
Y-340605D01*
X340155D01*
Y-340618D01*
X340181D01*
Y-340631D01*
X340206D01*
Y-340643D01*
X340231D01*
Y-340656D01*
X340244D01*
Y-340669D01*
X340269D01*
Y-340681D01*
X340295D01*
Y-340694D01*
X340308D01*
Y-340707D01*
X340333D01*
Y-340719D01*
X340346D01*
Y-340732D01*
X340371D01*
Y-340745D01*
X340396D01*
Y-340757D01*
X340409D01*
Y-340770D01*
X340434D01*
Y-340783D01*
X340460D01*
Y-340795D01*
X340473D01*
Y-340808D01*
X340485D01*
Y-340821D01*
X340511D01*
Y-340833D01*
X340523D01*
Y-340846D01*
X340549D01*
Y-340859D01*
X340561D01*
Y-340872D01*
X340587D01*
Y-340884D01*
X340612D01*
Y-340897D01*
X340625D01*
Y-340910D01*
X340650D01*
Y-340922D01*
X340663D01*
Y-340935D01*
X340675D01*
Y-340948D01*
X340701D01*
Y-340960D01*
X340714D01*
Y-340973D01*
X340739D01*
Y-340986D01*
X340752D01*
Y-340998D01*
X340764D01*
Y-341011D01*
X340790D01*
Y-341024D01*
X340802D01*
Y-341036D01*
X340815D01*
Y-341049D01*
X340840D01*
Y-341062D01*
X340853D01*
Y-341074D01*
X340878D01*
Y-341087D01*
X340891D01*
Y-341100D01*
X340904D01*
Y-341112D01*
X340929D01*
Y-341125D01*
X340942D01*
Y-341138D01*
X340954D01*
Y-341151D01*
X340980D01*
Y-341163D01*
X340993D01*
Y-341176D01*
X341005D01*
Y-341189D01*
X341031D01*
Y-341201D01*
X341043D01*
Y-341214D01*
X341056D01*
Y-341227D01*
X341069D01*
Y-341239D01*
X341094D01*
Y-341252D01*
X341107D01*
Y-341265D01*
X341120D01*
Y-341277D01*
X341132D01*
Y-341290D01*
X341158D01*
Y-341303D01*
X341170D01*
Y-341316D01*
X341183D01*
Y-341328D01*
X341196D01*
Y-341341D01*
X341208D01*
Y-341354D01*
X341234D01*
Y-341366D01*
X341246D01*
Y-341379D01*
X341259D01*
Y-341392D01*
X341272D01*
Y-341404D01*
X341284D01*
Y-341417D01*
X341310D01*
Y-341430D01*
X341322D01*
Y-341442D01*
X341335D01*
Y-341455D01*
X341348D01*
Y-341468D01*
X341360D01*
Y-341480D01*
X341373D01*
Y-341493D01*
X341399D01*
Y-341518D01*
X341424D01*
Y-341531D01*
X341437D01*
Y-341544D01*
X341449D01*
Y-341557D01*
X341462D01*
Y-341569D01*
X341475D01*
Y-341582D01*
X341487D01*
Y-341595D01*
X341500D01*
Y-341607D01*
X341513D01*
Y-341620D01*
X341525D01*
Y-341633D01*
X341551D01*
Y-341645D01*
X341563D01*
Y-341658D01*
X341576D01*
Y-341671D01*
X341589D01*
Y-341683D01*
X341601D01*
Y-341696D01*
X341614D01*
Y-341709D01*
X341627D01*
Y-341721D01*
X341640D01*
Y-341734D01*
X341652D01*
Y-341747D01*
X341665D01*
Y-341759D01*
X341678D01*
Y-341772D01*
X341690D01*
Y-341785D01*
X341703D01*
Y-341798D01*
X341716D01*
Y-341810D01*
X341728D01*
Y-341823D01*
X341741D01*
Y-341836D01*
X341754D01*
Y-341848D01*
X341766D01*
Y-341861D01*
X341779D01*
Y-341874D01*
X341792D01*
Y-341886D01*
X341805D01*
Y-341899D01*
X341817D01*
Y-341912D01*
X341830D01*
Y-341924D01*
X341843D01*
Y-341937D01*
X341855D01*
Y-341950D01*
X341868D01*
Y-341963D01*
X341881D01*
Y-341975D01*
X341893D01*
Y-341988D01*
X341906D01*
Y-342001D01*
X341919D01*
Y-342026D01*
X341931D01*
Y-342039D01*
X341944D01*
Y-342051D01*
X341957D01*
Y-342064D01*
X341969D01*
Y-342077D01*
X341982D01*
Y-342089D01*
X341995D01*
Y-342102D01*
X342007D01*
Y-342115D01*
X342020D01*
Y-342127D01*
X342033D01*
Y-342140D01*
X342045D01*
Y-342153D01*
X342058D01*
Y-342178D01*
X342071D01*
Y-342191D01*
X342084D01*
Y-342203D01*
X342096D01*
Y-342216D01*
X342109D01*
Y-342229D01*
X342122D01*
Y-342242D01*
X342134D01*
Y-342267D01*
X342147D01*
Y-342280D01*
X342160D01*
Y-342292D01*
X342172D01*
Y-342305D01*
X342185D01*
Y-342318D01*
X342198D01*
Y-342330D01*
X342210D01*
Y-342356D01*
X342223D01*
Y-342368D01*
X342236D01*
Y-342381D01*
X342249D01*
Y-342394D01*
X342261D01*
Y-342406D01*
X342274D01*
Y-342432D01*
X342286D01*
Y-342444D01*
X342299D01*
Y-342457D01*
X342312D01*
Y-342483D01*
X342325D01*
Y-342495D01*
X342337D01*
Y-342508D01*
X342350D01*
Y-342521D01*
X342363D01*
Y-342546D01*
X342375D01*
Y-342559D01*
X342388D01*
Y-342571D01*
X342401D01*
Y-342597D01*
X342413D01*
Y-342609D01*
X342426D01*
Y-342622D01*
X342439D01*
Y-342648D01*
X342451D01*
Y-342660D01*
X342464D01*
Y-342673D01*
X342477D01*
Y-342698D01*
X342490D01*
Y-342711D01*
X342502D01*
Y-342724D01*
X342515D01*
Y-342749D01*
X342528D01*
Y-342762D01*
X342540D01*
Y-342787D01*
X342553D01*
Y-342800D01*
X342566D01*
Y-342812D01*
X342578D01*
Y-342838D01*
X342591D01*
Y-342850D01*
X342604D01*
Y-342876D01*
X342616D01*
Y-342888D01*
X342629D01*
Y-342901D01*
X342642D01*
Y-342927D01*
X342654D01*
Y-342939D01*
X342667D01*
Y-342965D01*
X342680D01*
Y-342990D01*
X342692D01*
Y-343003D01*
X342705D01*
Y-343015D01*
X342718D01*
Y-343041D01*
X342730D01*
Y-343053D01*
X342743D01*
Y-343079D01*
X342756D01*
Y-343104D01*
X342769D01*
Y-343117D01*
X342781D01*
Y-343142D01*
X342794D01*
Y-343155D01*
X342807D01*
Y-343180D01*
X342819D01*
Y-343206D01*
X342832D01*
Y-343218D01*
X342845D01*
Y-343244D01*
X342857D01*
Y-343269D01*
X342870D01*
Y-343282D01*
X342883D01*
Y-343307D01*
X342895D01*
Y-343320D01*
X342908D01*
Y-343345D01*
X342921D01*
Y-343371D01*
X342934D01*
Y-343383D01*
X342946D01*
Y-343421D01*
X342959D01*
Y-343434D01*
X342971D01*
Y-343459D01*
X342984D01*
Y-343485D01*
X342997D01*
Y-343497D01*
X343010D01*
Y-343523D01*
X343022D01*
Y-343548D01*
X343035D01*
Y-343573D01*
X343048D01*
Y-343599D01*
X343060D01*
Y-343612D01*
X343073D01*
Y-343637D01*
X343086D01*
Y-343675D01*
X343098D01*
Y-343688D01*
X343111D01*
Y-343713D01*
X343124D01*
Y-343738D01*
X343137D01*
Y-343764D01*
X343149D01*
Y-343789D01*
X343162D01*
Y-343815D01*
X343175D01*
Y-343840D01*
X343187D01*
Y-343865D01*
X343200D01*
Y-343891D01*
X343213D01*
Y-343916D01*
X343225D01*
Y-343954D01*
X343238D01*
Y-343967D01*
X343251D01*
Y-344005D01*
X343263D01*
Y-344030D01*
X343276D01*
Y-344056D01*
X343289D01*
Y-344081D01*
X343301D01*
Y-344106D01*
X343314D01*
Y-344144D01*
X343327D01*
Y-344170D01*
X343339D01*
Y-344195D01*
X343352D01*
Y-344233D01*
X343365D01*
Y-344258D01*
X343377D01*
Y-344284D01*
X343390D01*
Y-344322D01*
X343403D01*
Y-344347D01*
X343415D01*
Y-344385D01*
X343428D01*
Y-344424D01*
X343441D01*
Y-344449D01*
X343454D01*
Y-344487D01*
X343466D01*
Y-344512D01*
X343479D01*
Y-344550D01*
X343492D01*
Y-344588D01*
X343504D01*
Y-344614D01*
X343517D01*
Y-344652D01*
X343530D01*
Y-344690D01*
X343542D01*
Y-344715D01*
X343555D01*
Y-344766D01*
X343568D01*
Y-344804D01*
X343580D01*
Y-344829D01*
X343593D01*
Y-344893D01*
X343606D01*
Y-344918D01*
X343618D01*
Y-344956D01*
X343631D01*
Y-345007D01*
X343644D01*
Y-345045D01*
X343657D01*
Y-345096D01*
X343669D01*
Y-345134D01*
X343682D01*
Y-345172D01*
X343695D01*
Y-345235D01*
X343707D01*
Y-345273D01*
X343720D01*
Y-345324D01*
X343733D01*
Y-345375D01*
X343745D01*
Y-345426D01*
X343758D01*
Y-345476D01*
X343771D01*
Y-345540D01*
X343783D01*
Y-345590D01*
X343796D01*
Y-345654D01*
X343809D01*
Y-345717D01*
X343822D01*
Y-345794D01*
X343834D01*
Y-345870D01*
X343847D01*
Y-345920D01*
X343860D01*
Y-346009D01*
X343872D01*
Y-346098D01*
X343885D01*
Y-346174D01*
X343898D01*
Y-346301D01*
X343910D01*
Y-346390D01*
X343923D01*
Y-346542D01*
X343936D01*
Y-346707D01*
X343948D01*
Y-346897D01*
X343961D01*
Y-347100D01*
X343974D01*
Y-347113D01*
X343986D01*
Y-347100D01*
X344177D01*
Y-347113D01*
X344189D01*
Y-347100D01*
X344202D01*
Y-346872D01*
X344189D01*
Y-346669D01*
X344177D01*
Y-346631D01*
X344189D01*
Y-346618D01*
X344177D01*
Y-346491D01*
X344164D01*
Y-346339D01*
X344151D01*
Y-346250D01*
X344139D01*
Y-346136D01*
X344126D01*
Y-346035D01*
X344113D01*
Y-345971D01*
X344101D01*
Y-345882D01*
X344088D01*
Y-345806D01*
X344075D01*
Y-345743D01*
X344062D01*
Y-345667D01*
X344050D01*
Y-345616D01*
X344037D01*
Y-345552D01*
X344024D01*
Y-345489D01*
X344012D01*
Y-345438D01*
X343999D01*
Y-345375D01*
X343986D01*
Y-345337D01*
X343974D01*
Y-345286D01*
X343961D01*
Y-345223D01*
X343948D01*
Y-345185D01*
X343936D01*
Y-345134D01*
X343923D01*
Y-345083D01*
X343910D01*
Y-345045D01*
X343898D01*
Y-344994D01*
X343885D01*
Y-344956D01*
X343872D01*
Y-344918D01*
X343860D01*
Y-344867D01*
X343847D01*
Y-344829D01*
X343834D01*
Y-344791D01*
X343822D01*
Y-344741D01*
X343809D01*
Y-344715D01*
X343796D01*
Y-344665D01*
X343783D01*
Y-344639D01*
X343771D01*
Y-344601D01*
X343758D01*
Y-344563D01*
X343745D01*
Y-344538D01*
X343733D01*
Y-344500D01*
X343720D01*
Y-344461D01*
X343707D01*
Y-344424D01*
X343695D01*
Y-344385D01*
X343682D01*
Y-344360D01*
X343669D01*
Y-344335D01*
X343657D01*
Y-344284D01*
X343644D01*
Y-344271D01*
X343631D01*
Y-344233D01*
X343618D01*
Y-344195D01*
X343606D01*
Y-344170D01*
X343593D01*
Y-344144D01*
X343580D01*
Y-344106D01*
X343568D01*
Y-344081D01*
X343555D01*
Y-344043D01*
X343542D01*
Y-344030D01*
X343530D01*
Y-343992D01*
X343517D01*
Y-343967D01*
X343504D01*
Y-343941D01*
X343492D01*
Y-343903D01*
X343479D01*
Y-343878D01*
X343466D01*
Y-343853D01*
X343454D01*
Y-343827D01*
X343441D01*
Y-343802D01*
X343428D01*
Y-343776D01*
X343415D01*
Y-343751D01*
X343403D01*
Y-343726D01*
X343390D01*
Y-343700D01*
X343377D01*
Y-343675D01*
X343365D01*
Y-343650D01*
X343352D01*
Y-343624D01*
X343339D01*
Y-343599D01*
X343327D01*
Y-343573D01*
X343314D01*
Y-343548D01*
X343301D01*
Y-343523D01*
X343289D01*
Y-343497D01*
X343276D01*
Y-343485D01*
X343263D01*
Y-343459D01*
X343251D01*
Y-343434D01*
X343238D01*
Y-343409D01*
X343225D01*
Y-343383D01*
X343213D01*
Y-343358D01*
X343200D01*
Y-343345D01*
X343187D01*
Y-343320D01*
X343175D01*
Y-343294D01*
X343162D01*
Y-343282D01*
X343149D01*
Y-343244D01*
X343137D01*
Y-343231D01*
X343124D01*
Y-343206D01*
X343111D01*
Y-343180D01*
X343098D01*
Y-343168D01*
X343086D01*
Y-343142D01*
X343073D01*
Y-343129D01*
X343060D01*
Y-343104D01*
X343048D01*
Y-343079D01*
X343035D01*
Y-343066D01*
X343022D01*
Y-343041D01*
X343010D01*
Y-343015D01*
X342997D01*
Y-343003D01*
X342984D01*
Y-342977D01*
X342971D01*
Y-342965D01*
X342959D01*
Y-342939D01*
X342946D01*
Y-342914D01*
X342934D01*
Y-342901D01*
X342921D01*
Y-342888D01*
X342908D01*
Y-342863D01*
X342895D01*
Y-342850D01*
X342883D01*
Y-342825D01*
X342870D01*
Y-342812D01*
X342857D01*
Y-342787D01*
X342845D01*
Y-342774D01*
X342832D01*
Y-342749D01*
X342819D01*
Y-342736D01*
X342807D01*
Y-342711D01*
X342794D01*
Y-342698D01*
X342781D01*
Y-342673D01*
X342769D01*
Y-342660D01*
X342756D01*
Y-342648D01*
X342743D01*
Y-342622D01*
X342730D01*
Y-342609D01*
X342718D01*
Y-342584D01*
X342705D01*
Y-342571D01*
X342692D01*
Y-342559D01*
X342680D01*
Y-342533D01*
X342667D01*
Y-342521D01*
X342654D01*
Y-342508D01*
X342642D01*
Y-342483D01*
X342629D01*
Y-342470D01*
X342616D01*
Y-342457D01*
X342604D01*
Y-342432D01*
X342591D01*
Y-342419D01*
X342578D01*
Y-342406D01*
X342566D01*
Y-342381D01*
X342553D01*
Y-342368D01*
X342540D01*
Y-342356D01*
X342528D01*
Y-342343D01*
X342515D01*
Y-342318D01*
X342502D01*
Y-342305D01*
X342490D01*
Y-342292D01*
X342477D01*
Y-342267D01*
X342464D01*
Y-342254D01*
X342451D01*
Y-342242D01*
X342439D01*
Y-342229D01*
X342426D01*
Y-342216D01*
X342413D01*
Y-342203D01*
X342401D01*
Y-342178D01*
X342388D01*
Y-342165D01*
X342375D01*
Y-342153D01*
X342363D01*
Y-342140D01*
X342350D01*
Y-342127D01*
X342337D01*
Y-342102D01*
X342325D01*
Y-342089D01*
X342312D01*
Y-342077D01*
X342299D01*
Y-342064D01*
X342286D01*
Y-342051D01*
X342274D01*
Y-342039D01*
X342261D01*
Y-342013D01*
X342249D01*
Y-342001D01*
X342236D01*
Y-341988D01*
X342223D01*
Y-341975D01*
X342210D01*
Y-341963D01*
X342198D01*
Y-341950D01*
X342185D01*
Y-341937D01*
X342172D01*
Y-341924D01*
X342160D01*
Y-341899D01*
X342134D01*
Y-341874D01*
X342122D01*
Y-341861D01*
X342109D01*
Y-341848D01*
X342096D01*
Y-341836D01*
X342084D01*
Y-341823D01*
X342071D01*
Y-341810D01*
X342058D01*
Y-341798D01*
X342045D01*
Y-341785D01*
X342033D01*
Y-341772D01*
X342020D01*
Y-341759D01*
X342007D01*
Y-341747D01*
X341995D01*
Y-341734D01*
X341982D01*
Y-341721D01*
X341969D01*
Y-341709D01*
X341957D01*
Y-341696D01*
X341944D01*
Y-341683D01*
X341931D01*
Y-341671D01*
X341919D01*
Y-341658D01*
X341906D01*
Y-341645D01*
X341893D01*
Y-341633D01*
X341881D01*
Y-341620D01*
X341868D01*
Y-341607D01*
X341855D01*
Y-341595D01*
X341843D01*
Y-341582D01*
X341830D01*
Y-341569D01*
X341817D01*
Y-341557D01*
X341805D01*
Y-341544D01*
X341792D01*
Y-341531D01*
X341779D01*
Y-341518D01*
X341766D01*
Y-341506D01*
X341754D01*
Y-341493D01*
X341741D01*
Y-341480D01*
X341728D01*
Y-341468D01*
X341716D01*
Y-341455D01*
X341703D01*
Y-341442D01*
X341690D01*
Y-341430D01*
X341678D01*
Y-341417D01*
X341652D01*
Y-341404D01*
X341640D01*
Y-341392D01*
X341627D01*
Y-341379D01*
X341614D01*
Y-341366D01*
X341601D01*
Y-341354D01*
X341589D01*
Y-341341D01*
X341576D01*
Y-341328D01*
X341563D01*
Y-341316D01*
X341551D01*
Y-341303D01*
X341538D01*
Y-341290D01*
X341513D01*
Y-341277D01*
X341500D01*
Y-341265D01*
X341487D01*
Y-341252D01*
X341475D01*
Y-341239D01*
X341462D01*
Y-341227D01*
X341449D01*
Y-341214D01*
X341424D01*
Y-341201D01*
X341411D01*
Y-341189D01*
X341399D01*
Y-341176D01*
X341386D01*
Y-341163D01*
X341373D01*
Y-341151D01*
X341348D01*
Y-341138D01*
X341335D01*
Y-341125D01*
X341322D01*
Y-341112D01*
X341310D01*
Y-341100D01*
X341297D01*
Y-341087D01*
X341272D01*
Y-341074D01*
X341259D01*
Y-341062D01*
X341246D01*
Y-341049D01*
X341221D01*
Y-341036D01*
X341208D01*
Y-341024D01*
X341196D01*
Y-341011D01*
X341183D01*
Y-340998D01*
X341170D01*
Y-340986D01*
X341145D01*
Y-340973D01*
X341132D01*
Y-340960D01*
X341120D01*
Y-340948D01*
X341094D01*
Y-340935D01*
X341081D01*
Y-340922D01*
X341069D01*
Y-340910D01*
X341043D01*
Y-340897D01*
X341031D01*
Y-340884D01*
X341018D01*
Y-340872D01*
X340993D01*
Y-340859D01*
X340980D01*
Y-340846D01*
X340954D01*
Y-340833D01*
X340942D01*
Y-340821D01*
X340929D01*
Y-340808D01*
X340904D01*
Y-340795D01*
X340891D01*
Y-340783D01*
X340878D01*
Y-340770D01*
X340853D01*
Y-340757D01*
X340840D01*
Y-340745D01*
X340815D01*
Y-340732D01*
X340802D01*
Y-340719D01*
X340777D01*
Y-340707D01*
X340764D01*
Y-340694D01*
X340752D01*
Y-340681D01*
X340726D01*
Y-340669D01*
X340701D01*
Y-340656D01*
X340688D01*
Y-340643D01*
X340663D01*
Y-340631D01*
X340650D01*
Y-340618D01*
X340625D01*
Y-340605D01*
X340612D01*
Y-340592D01*
X340587D01*
Y-340580D01*
X340574D01*
Y-340567D01*
X340549D01*
Y-340554D01*
X340536D01*
Y-340542D01*
X340511D01*
Y-340529D01*
X340485D01*
Y-340516D01*
X340473D01*
Y-340504D01*
X340447D01*
Y-340491D01*
X340422D01*
Y-340478D01*
X340409D01*
Y-340466D01*
X340384D01*
Y-340453D01*
X340371D01*
Y-340440D01*
X340346D01*
Y-340427D01*
X340320D01*
Y-340415D01*
X340308D01*
Y-340402D01*
X340269D01*
Y-340389D01*
X340257D01*
Y-340377D01*
X340231D01*
Y-340364D01*
X340206D01*
Y-340351D01*
X340193D01*
Y-340339D01*
X340168D01*
Y-340326D01*
X340143D01*
Y-340313D01*
X340117D01*
Y-340301D01*
X340092D01*
Y-340288D01*
X340079D01*
Y-340275D01*
X340054D01*
Y-340263D01*
X340029D01*
Y-340250D01*
X340003D01*
Y-340237D01*
X339978D01*
Y-340225D01*
X339952D01*
Y-340212D01*
X339927D01*
Y-340199D01*
X339902D01*
Y-340187D01*
X339876D01*
Y-340174D01*
X339851D01*
Y-340161D01*
X339826D01*
Y-340148D01*
X339800D01*
Y-340136D01*
X339775D01*
Y-340123D01*
X339749D01*
Y-340110D01*
X339724D01*
Y-340098D01*
X339686D01*
Y-340085D01*
X339673D01*
Y-340072D01*
X339648D01*
Y-340060D01*
X339610D01*
Y-340047D01*
X339584D01*
Y-340034D01*
X339559D01*
Y-340022D01*
X339534D01*
Y-340009D01*
X339496D01*
Y-339996D01*
X339470D01*
Y-339984D01*
X339445D01*
Y-339971D01*
X339407D01*
Y-339958D01*
X339382D01*
Y-339946D01*
X339356D01*
Y-339933D01*
X339318D01*
Y-339920D01*
X339293D01*
Y-339907D01*
X339255D01*
Y-339895D01*
X339217D01*
Y-339882D01*
X339191D01*
Y-339869D01*
X339153D01*
Y-339857D01*
X339115D01*
Y-339844D01*
X339090D01*
Y-339831D01*
X339052D01*
Y-339819D01*
X339014D01*
Y-339806D01*
X338988D01*
Y-339793D01*
X338950D01*
Y-339780D01*
X338925D01*
Y-339768D01*
X338874D01*
Y-339755D01*
X338836D01*
Y-339742D01*
X338811D01*
Y-339730D01*
X338760D01*
Y-339717D01*
X338722D01*
Y-339704D01*
X338684D01*
Y-339692D01*
X338633D01*
Y-339679D01*
X338595D01*
Y-339666D01*
X338557D01*
Y-339654D01*
X338506D01*
Y-339641D01*
X338468D01*
Y-339628D01*
X338417D01*
Y-339616D01*
X338367D01*
Y-339603D01*
X338329D01*
Y-339590D01*
X338265D01*
Y-339578D01*
X338227D01*
Y-339565D01*
X338176D01*
Y-339552D01*
X338100D01*
Y-339540D01*
X338062D01*
Y-339527D01*
X337999D01*
Y-339514D01*
X337935D01*
Y-339502D01*
X337872D01*
Y-339489D01*
X337796D01*
Y-339476D01*
X337745D01*
Y-339463D01*
X337669D01*
Y-339451D01*
X337580D01*
Y-339438D01*
X337517D01*
Y-339425D01*
X337403D01*
Y-339413D01*
X337301D01*
Y-339400D01*
X337200D01*
Y-339387D01*
X337047D01*
Y-339375D01*
X336920D01*
Y-339362D01*
X336629D01*
Y-339349D01*
D02*
G37*
G36*
X337441Y-347405D02*
X337162D01*
Y-347417D01*
X337149D01*
Y-347430D01*
X337136D01*
Y-347443D01*
X337123D01*
Y-347455D01*
X337111D01*
Y-347468D01*
X337098D01*
Y-347481D01*
X337085D01*
Y-347493D01*
X337073D01*
Y-347506D01*
X337060D01*
Y-347519D01*
X337047D01*
Y-347531D01*
X337035D01*
Y-347544D01*
X337022D01*
Y-347557D01*
X337009D01*
Y-347569D01*
X336997D01*
Y-347582D01*
X336984D01*
Y-347595D01*
X336971D01*
Y-347607D01*
X336959D01*
Y-347620D01*
X336946D01*
Y-347633D01*
X336933D01*
Y-347646D01*
X336920D01*
Y-347658D01*
X336908D01*
Y-347671D01*
X336895D01*
Y-347684D01*
X336882D01*
Y-347696D01*
X336870D01*
Y-347709D01*
X336857D01*
Y-347722D01*
X336844D01*
Y-347734D01*
X336832D01*
Y-347747D01*
X336819D01*
Y-347760D01*
X336806D01*
Y-347772D01*
X336794D01*
Y-347785D01*
X336781D01*
Y-347798D01*
X336768D01*
Y-347811D01*
X336756D01*
Y-347823D01*
X336743D01*
Y-347836D01*
X336730D01*
Y-347849D01*
X336705D01*
Y-347861D01*
X336692D01*
Y-347874D01*
X336680D01*
Y-347887D01*
X336667D01*
Y-347899D01*
X336654D01*
Y-347912D01*
X336641D01*
Y-347925D01*
X336629D01*
Y-347937D01*
X336616D01*
Y-347950D01*
X336603D01*
Y-347963D01*
X336591D01*
Y-347975D01*
X336578D01*
Y-347988D01*
X336565D01*
Y-348001D01*
X336553D01*
Y-348013D01*
X336540D01*
Y-348026D01*
X336527D01*
Y-348039D01*
X336515D01*
Y-348052D01*
X336502D01*
Y-348064D01*
X336489D01*
Y-348077D01*
X336476D01*
Y-348090D01*
X336464D01*
Y-348102D01*
X336451D01*
Y-348115D01*
X336438D01*
Y-348128D01*
X336426D01*
Y-348140D01*
X336413D01*
Y-348153D01*
X336400D01*
Y-348166D01*
X336388D01*
Y-348178D01*
X336375D01*
Y-348191D01*
X336362D01*
Y-348204D01*
X336350D01*
Y-348216D01*
X336337D01*
Y-348229D01*
X336324D01*
Y-348242D01*
X336312D01*
Y-348254D01*
X336299D01*
Y-348267D01*
X336286D01*
Y-348280D01*
X336274D01*
Y-348292D01*
X336261D01*
Y-348305D01*
X336248D01*
Y-348318D01*
X336235D01*
Y-348331D01*
X336223D01*
Y-348343D01*
X336210D01*
Y-348356D01*
X336197D01*
Y-348369D01*
X336185D01*
Y-348394D01*
X337098D01*
Y-349510D01*
X335627D01*
Y-349498D01*
X335614D01*
Y-349066D01*
X335601D01*
Y-349079D01*
X335589D01*
Y-349092D01*
X335576D01*
Y-349104D01*
X335563D01*
Y-349117D01*
X335550D01*
Y-349130D01*
X335538D01*
Y-349143D01*
X335525D01*
Y-349155D01*
X335512D01*
Y-349168D01*
X335500D01*
Y-349181D01*
X335487D01*
Y-349193D01*
X335474D01*
Y-349206D01*
X335462D01*
Y-349219D01*
X335449D01*
Y-349231D01*
X335436D01*
Y-349244D01*
X335424D01*
Y-349257D01*
X335411D01*
Y-349269D01*
X335398D01*
Y-349282D01*
X335386D01*
Y-349295D01*
X335373D01*
Y-349307D01*
X335360D01*
Y-349320D01*
X335348D01*
Y-349333D01*
X335335D01*
Y-349345D01*
X335322D01*
Y-349358D01*
X335310D01*
Y-349371D01*
X335297D01*
Y-349383D01*
X335284D01*
Y-349396D01*
X335271D01*
Y-349409D01*
X335259D01*
Y-349422D01*
X335246D01*
Y-349434D01*
X335233D01*
Y-349447D01*
X335221D01*
Y-349460D01*
X335208D01*
Y-349472D01*
X335183D01*
Y-349485D01*
X335170D01*
Y-349498D01*
X335157D01*
Y-349510D01*
X335145D01*
Y-349523D01*
X335132D01*
Y-349536D01*
X335119D01*
Y-349548D01*
X335106D01*
Y-349561D01*
X335094D01*
Y-349574D01*
X335081D01*
Y-349587D01*
X335068D01*
Y-349599D01*
X335056D01*
Y-349612D01*
X335043D01*
Y-349624D01*
X335030D01*
Y-349637D01*
X335018D01*
Y-349650D01*
X335005D01*
Y-349663D01*
X334992D01*
Y-349675D01*
X334980D01*
Y-349688D01*
X334967D01*
Y-349701D01*
X334954D01*
Y-349713D01*
X334942D01*
Y-349726D01*
X334929D01*
Y-349739D01*
X334916D01*
Y-349751D01*
X334904D01*
Y-349764D01*
X334891D01*
Y-349777D01*
X334878D01*
Y-349789D01*
X334865D01*
Y-349802D01*
X334853D01*
Y-349815D01*
X334840D01*
Y-349828D01*
X334827D01*
Y-349840D01*
X334815D01*
Y-349853D01*
X334802D01*
Y-349866D01*
X334789D01*
Y-349878D01*
X334777D01*
Y-349891D01*
X334764D01*
Y-349904D01*
X334751D01*
Y-349916D01*
X334739D01*
Y-349929D01*
X334726D01*
Y-349942D01*
X334713D01*
Y-349954D01*
X334701D01*
Y-349967D01*
X334688D01*
Y-349980D01*
X334675D01*
Y-349992D01*
X334663D01*
Y-350005D01*
X334650D01*
Y-350018D01*
X334637D01*
Y-350030D01*
X334624D01*
Y-350043D01*
X334612D01*
Y-350056D01*
X334599D01*
Y-350068D01*
X334586D01*
Y-350081D01*
X334574D01*
Y-350094D01*
X334561D01*
Y-350107D01*
X334548D01*
Y-350119D01*
X334536D01*
Y-350132D01*
X334523D01*
Y-350145D01*
X334510D01*
Y-350157D01*
X334498D01*
Y-351730D01*
X334510D01*
Y-351756D01*
X334523D01*
Y-351781D01*
X334536D01*
Y-351794D01*
X334548D01*
Y-351806D01*
X334586D01*
Y-351819D01*
X335538D01*
Y-351806D01*
X335576D01*
Y-351794D01*
X335589D01*
Y-351781D01*
X335601D01*
Y-351756D01*
X335614D01*
Y-350538D01*
X335627D01*
Y-350513D01*
X335639D01*
Y-350487D01*
X335665D01*
Y-350475D01*
X335677D01*
Y-350462D01*
X337035D01*
Y-350475D01*
X337047D01*
Y-350487D01*
X337073D01*
Y-350513D01*
X337085D01*
Y-350525D01*
X337098D01*
Y-351756D01*
X337111D01*
Y-351768D01*
X337123D01*
Y-351781D01*
X337136D01*
Y-351794D01*
X337149D01*
Y-351806D01*
X337174D01*
Y-351819D01*
X338126D01*
Y-351806D01*
X338164D01*
Y-351794D01*
X338176D01*
Y-351781D01*
X338189D01*
Y-351768D01*
X338202D01*
Y-351743D01*
X338214D01*
Y-348191D01*
X338202D01*
Y-348140D01*
X338189D01*
Y-348090D01*
X338176D01*
Y-348052D01*
X338164D01*
Y-348026D01*
X338151D01*
Y-348013D01*
X338138D01*
Y-348001D01*
X338126D01*
Y-347988D01*
X338113D01*
Y-347975D01*
X338100D01*
Y-347963D01*
X338088D01*
Y-347950D01*
X338075D01*
Y-347937D01*
X338062D01*
Y-347925D01*
X338050D01*
Y-347912D01*
X338037D01*
Y-347899D01*
X338024D01*
Y-347887D01*
X338012D01*
Y-347874D01*
X337999D01*
Y-347861D01*
X337986D01*
Y-347849D01*
X337973D01*
Y-347836D01*
X337961D01*
Y-347823D01*
X337948D01*
Y-347811D01*
X337935D01*
Y-347798D01*
X337923D01*
Y-347785D01*
X337910D01*
Y-347772D01*
X337897D01*
Y-347760D01*
X337885D01*
Y-347747D01*
X337872D01*
Y-347734D01*
X337859D01*
Y-347722D01*
X337847D01*
Y-347709D01*
X337834D01*
Y-347696D01*
X337821D01*
Y-347684D01*
X337808D01*
Y-347671D01*
X337796D01*
Y-347658D01*
X337783D01*
Y-347646D01*
X337771D01*
Y-347633D01*
X337758D01*
Y-347620D01*
X337745D01*
Y-347607D01*
X337732D01*
Y-347595D01*
X337720D01*
Y-347582D01*
X337707D01*
Y-347569D01*
X337694D01*
Y-347557D01*
X337682D01*
Y-347544D01*
X337669D01*
Y-347531D01*
X337656D01*
Y-347519D01*
X337644D01*
Y-347506D01*
X337631D01*
Y-347493D01*
X337618D01*
Y-347481D01*
X337606D01*
Y-347468D01*
X337593D01*
Y-347455D01*
X337580D01*
Y-347443D01*
X337529D01*
Y-347430D01*
X337491D01*
Y-347417D01*
X337441D01*
Y-347405D01*
D02*
G37*
G36*
X336033Y-340199D02*
X335690D01*
Y-340212D01*
X335677D01*
Y-340225D01*
X335690D01*
Y-346453D01*
Y-346466D01*
Y-346884D01*
X335677D01*
Y-346910D01*
X335665D01*
Y-346922D01*
X335652D01*
Y-346935D01*
X335627D01*
Y-346961D01*
X335601D01*
Y-346986D01*
X335589D01*
Y-346999D01*
X335563D01*
Y-347024D01*
X335550D01*
Y-347037D01*
X335525D01*
Y-347062D01*
X335500D01*
Y-347087D01*
X335487D01*
Y-347100D01*
X335462D01*
Y-347126D01*
X335436D01*
Y-347138D01*
X335424D01*
Y-347164D01*
X335398D01*
Y-347189D01*
X335386D01*
Y-347202D01*
X335360D01*
Y-347227D01*
X335335D01*
Y-347252D01*
X335310D01*
Y-347265D01*
X335297D01*
Y-347278D01*
X335284D01*
Y-347290D01*
X335271D01*
Y-347303D01*
X335259D01*
Y-347316D01*
X335246D01*
Y-347328D01*
X335233D01*
Y-347341D01*
X335221D01*
Y-347354D01*
X335208D01*
Y-347366D01*
X335195D01*
Y-347379D01*
X335183D01*
Y-347392D01*
X335170D01*
Y-347405D01*
X335157D01*
Y-347417D01*
X335145D01*
Y-347430D01*
X335132D01*
Y-347443D01*
X335119D01*
Y-347455D01*
X335106D01*
Y-347468D01*
X335094D01*
Y-347481D01*
X335081D01*
Y-347493D01*
X335068D01*
Y-347506D01*
X335056D01*
Y-347519D01*
X335043D01*
Y-347531D01*
X335030D01*
Y-347544D01*
X335018D01*
Y-347557D01*
X335005D01*
Y-347569D01*
X334992D01*
Y-347582D01*
X334980D01*
Y-347595D01*
X334967D01*
Y-347607D01*
X334954D01*
Y-347620D01*
X334942D01*
Y-347633D01*
X334929D01*
Y-347646D01*
X334916D01*
Y-347658D01*
X334904D01*
Y-347671D01*
X334891D01*
Y-347684D01*
X334878D01*
Y-347696D01*
X334865D01*
Y-347709D01*
X334853D01*
Y-347722D01*
X334840D01*
Y-347734D01*
X334827D01*
Y-347747D01*
X334815D01*
Y-347760D01*
X334802D01*
Y-347772D01*
X334789D01*
Y-347785D01*
X334777D01*
Y-347798D01*
X334764D01*
Y-347811D01*
X334751D01*
Y-347823D01*
X334739D01*
Y-347836D01*
X334726D01*
Y-347849D01*
X334713D01*
Y-347861D01*
X334701D01*
Y-347874D01*
X334688D01*
Y-347887D01*
X334675D01*
Y-347899D01*
X334663D01*
Y-347912D01*
X334650D01*
Y-347925D01*
X334637D01*
Y-347937D01*
X334624D01*
Y-347950D01*
X334599D01*
Y-347963D01*
X334586D01*
Y-347975D01*
X334574D01*
Y-347988D01*
X334561D01*
Y-348001D01*
X334548D01*
Y-348013D01*
X334536D01*
Y-348026D01*
X334523D01*
Y-348039D01*
X334510D01*
Y-348052D01*
X334498D01*
Y-348064D01*
X334485D01*
Y-348077D01*
X334472D01*
Y-348090D01*
X334459D01*
Y-348102D01*
X334447D01*
Y-348115D01*
X334434D01*
Y-348128D01*
X334421D01*
Y-348140D01*
X334409D01*
Y-348153D01*
X334396D01*
Y-348166D01*
X334383D01*
Y-348178D01*
X334371D01*
Y-348191D01*
X334358D01*
Y-348204D01*
X334345D01*
Y-348216D01*
X334333D01*
Y-348229D01*
X334320D01*
Y-348242D01*
X334307D01*
Y-348254D01*
X334295D01*
Y-348267D01*
X334282D01*
Y-348280D01*
X334269D01*
Y-348292D01*
X334257D01*
Y-348305D01*
X334244D01*
Y-348318D01*
X334231D01*
Y-348331D01*
X334219D01*
Y-348343D01*
X334206D01*
Y-348356D01*
X334193D01*
Y-348369D01*
X334180D01*
Y-348381D01*
X334168D01*
Y-348394D01*
X334155D01*
Y-348407D01*
X334142D01*
Y-348419D01*
X334130D01*
Y-348432D01*
X334117D01*
Y-348445D01*
X334104D01*
Y-348458D01*
X334092D01*
Y-348470D01*
X334079D01*
Y-348483D01*
X334066D01*
Y-348496D01*
X334054D01*
Y-348508D01*
X334041D01*
Y-348521D01*
X334028D01*
Y-348534D01*
X334015D01*
Y-348546D01*
X334003D01*
Y-348559D01*
X333990D01*
Y-348572D01*
X333978D01*
Y-348584D01*
X333965D01*
Y-348597D01*
X333952D01*
Y-348610D01*
X333939D01*
Y-348622D01*
X333914D01*
Y-348648D01*
X333901D01*
Y-348660D01*
X333876D01*
Y-348686D01*
X333851D01*
Y-348698D01*
X333838D01*
Y-348724D01*
X333813D01*
Y-348749D01*
X333800D01*
Y-348762D01*
X333774D01*
Y-348787D01*
X333749D01*
Y-348800D01*
X333736D01*
Y-348825D01*
X333711D01*
Y-348851D01*
X333698D01*
Y-348863D01*
X333673D01*
Y-348889D01*
X333648D01*
Y-348902D01*
X333635D01*
Y-348927D01*
X333610D01*
Y-348952D01*
X333597D01*
Y-348965D01*
X333584D01*
Y-348978D01*
X333572D01*
Y-349003D01*
X333559D01*
Y-349016D01*
X333546D01*
Y-349041D01*
X333534D01*
Y-349066D01*
X333521D01*
Y-349092D01*
X333508D01*
Y-349117D01*
X333495D01*
Y-349942D01*
X333508D01*
Y-349980D01*
X333521D01*
Y-349992D01*
X333534D01*
Y-350030D01*
X333546D01*
Y-350043D01*
X333559D01*
Y-350068D01*
X333572D01*
Y-350081D01*
X333584D01*
Y-350094D01*
X333597D01*
Y-350119D01*
X333610D01*
Y-350132D01*
X333622D01*
Y-350145D01*
X333635D01*
Y-350157D01*
X333648D01*
Y-350170D01*
X333660D01*
Y-350183D01*
X333673D01*
Y-350195D01*
X333686D01*
Y-350208D01*
X333698D01*
Y-350221D01*
X333711D01*
Y-350233D01*
X333724D01*
Y-350246D01*
X333736D01*
Y-350259D01*
X333749D01*
Y-350272D01*
X333762D01*
Y-350284D01*
X333774D01*
Y-350297D01*
X333813D01*
Y-350284D01*
X333825D01*
Y-350272D01*
X333838D01*
Y-350259D01*
X333851D01*
Y-350246D01*
X333863D01*
Y-350233D01*
X333889D01*
Y-350221D01*
X333901D01*
Y-350208D01*
X333914D01*
Y-350195D01*
X333927D01*
Y-350183D01*
X333939D01*
Y-350170D01*
X333952D01*
Y-350157D01*
X333965D01*
Y-350145D01*
X333978D01*
Y-350132D01*
X333990D01*
Y-350119D01*
X334003D01*
Y-350107D01*
X334015D01*
Y-350094D01*
X334028D01*
Y-350081D01*
X334041D01*
Y-350068D01*
X334054D01*
Y-350056D01*
X334066D01*
Y-350043D01*
X334079D01*
Y-350030D01*
X334092D01*
Y-350018D01*
X334104D01*
Y-350005D01*
X334117D01*
Y-349992D01*
X334130D01*
Y-349980D01*
X334142D01*
Y-349967D01*
X334155D01*
Y-349954D01*
X334168D01*
Y-349942D01*
X334180D01*
Y-349929D01*
X334193D01*
Y-349916D01*
X334206D01*
Y-349904D01*
X334219D01*
Y-349891D01*
X334231D01*
Y-349878D01*
X334244D01*
Y-349866D01*
X334257D01*
Y-349853D01*
X334269D01*
Y-349840D01*
X334282D01*
Y-349828D01*
X334295D01*
Y-349815D01*
X334307D01*
Y-349802D01*
X334320D01*
Y-349789D01*
X334333D01*
Y-349777D01*
X334345D01*
Y-349764D01*
X334358D01*
Y-349751D01*
X334371D01*
Y-349739D01*
X334383D01*
Y-349726D01*
X334396D01*
Y-349713D01*
X334409D01*
Y-349701D01*
X334421D01*
Y-349688D01*
X334434D01*
Y-349675D01*
X334447D01*
Y-349663D01*
X334459D01*
Y-349650D01*
X334472D01*
Y-349637D01*
X334485D01*
Y-349624D01*
X334498D01*
Y-349612D01*
X334510D01*
Y-349599D01*
X334523D01*
Y-349587D01*
X334536D01*
Y-349574D01*
X334548D01*
Y-349561D01*
X334561D01*
Y-349548D01*
X334574D01*
Y-349536D01*
X334586D01*
Y-349523D01*
X334599D01*
Y-349510D01*
X334612D01*
Y-349498D01*
X334624D01*
Y-349485D01*
X334637D01*
Y-349472D01*
X334650D01*
Y-349460D01*
X334663D01*
Y-349447D01*
X334675D01*
Y-349434D01*
X334688D01*
Y-349422D01*
X334701D01*
Y-349409D01*
X334713D01*
Y-349396D01*
X334726D01*
Y-349383D01*
X334739D01*
Y-349371D01*
X334751D01*
Y-349358D01*
X334764D01*
Y-349345D01*
X334777D01*
Y-349333D01*
X334789D01*
Y-349320D01*
X334802D01*
Y-349307D01*
X334815D01*
Y-349295D01*
X334827D01*
Y-349282D01*
X334840D01*
Y-349269D01*
X334853D01*
Y-349257D01*
X334865D01*
Y-349244D01*
X334878D01*
Y-349231D01*
X334891D01*
Y-349219D01*
X334904D01*
Y-349206D01*
X334916D01*
Y-349193D01*
X334929D01*
Y-349181D01*
X334942D01*
Y-349168D01*
X334954D01*
Y-349155D01*
X334967D01*
Y-349143D01*
X334980D01*
Y-349130D01*
X334992D01*
Y-349117D01*
X335005D01*
Y-349104D01*
X335018D01*
Y-349092D01*
X335030D01*
Y-349079D01*
X335043D01*
Y-349066D01*
X335056D01*
Y-349054D01*
X335068D01*
Y-349041D01*
X335081D01*
Y-349028D01*
X335094D01*
Y-349016D01*
X335106D01*
Y-349003D01*
X335119D01*
Y-348990D01*
X335132D01*
Y-348978D01*
X335145D01*
Y-348965D01*
X335157D01*
Y-348952D01*
X335183D01*
Y-348939D01*
X335195D01*
Y-348927D01*
X335208D01*
Y-348914D01*
X335221D01*
Y-348902D01*
X335233D01*
Y-348889D01*
X335246D01*
Y-348876D01*
X335259D01*
Y-348863D01*
X335271D01*
Y-348851D01*
X335284D01*
Y-348838D01*
X335297D01*
Y-348825D01*
X335310D01*
Y-348813D01*
X335322D01*
Y-348800D01*
X335335D01*
Y-348787D01*
X335348D01*
Y-348775D01*
X335360D01*
Y-348762D01*
X335373D01*
Y-348749D01*
X335386D01*
Y-348737D01*
X335398D01*
Y-348724D01*
X335411D01*
Y-348711D01*
X335424D01*
Y-348698D01*
X335436D01*
Y-348686D01*
X335449D01*
Y-348673D01*
X335462D01*
Y-348660D01*
X335474D01*
Y-348648D01*
X335487D01*
Y-348635D01*
X335500D01*
Y-348622D01*
X335512D01*
Y-348610D01*
X335525D01*
Y-348597D01*
X335538D01*
Y-348584D01*
X335550D01*
Y-348572D01*
X335563D01*
Y-348559D01*
X335576D01*
Y-348546D01*
X335589D01*
Y-348534D01*
X335601D01*
Y-348521D01*
X335614D01*
Y-348508D01*
X335627D01*
Y-348496D01*
X335639D01*
Y-348483D01*
X335652D01*
Y-348470D01*
X335665D01*
Y-348458D01*
X335677D01*
Y-348445D01*
X335690D01*
Y-348432D01*
X335703D01*
Y-348419D01*
X335715D01*
Y-348407D01*
X335728D01*
Y-348394D01*
X335741D01*
Y-348381D01*
X335753D01*
Y-348369D01*
X335766D01*
Y-348356D01*
X335779D01*
Y-348343D01*
X335791D01*
Y-348331D01*
X335804D01*
Y-348318D01*
X335817D01*
Y-348305D01*
X335830D01*
Y-348292D01*
X335842D01*
Y-348280D01*
X335855D01*
Y-348267D01*
X335868D01*
Y-348254D01*
X335880D01*
Y-348242D01*
X335893D01*
Y-348229D01*
X335906D01*
Y-348216D01*
X335918D01*
Y-348204D01*
X335931D01*
Y-348191D01*
X335944D01*
Y-348178D01*
X335956D01*
Y-348166D01*
X335969D01*
Y-348153D01*
X335982D01*
Y-348140D01*
X335995D01*
Y-348128D01*
X336007D01*
Y-348115D01*
X336020D01*
Y-348102D01*
X336045D01*
Y-348090D01*
X336058D01*
Y-348077D01*
X336071D01*
Y-348064D01*
X336083D01*
Y-348052D01*
X336096D01*
Y-348039D01*
X336109D01*
Y-348026D01*
X336121D01*
Y-348013D01*
X336134D01*
Y-348001D01*
X336147D01*
Y-347988D01*
X336159D01*
Y-347975D01*
X336172D01*
Y-347963D01*
X336185D01*
Y-347950D01*
X336197D01*
Y-347937D01*
X336210D01*
Y-347925D01*
X336223D01*
Y-347912D01*
X336235D01*
Y-347899D01*
X336248D01*
Y-347887D01*
X336261D01*
Y-347874D01*
X336274D01*
Y-347861D01*
X336286D01*
Y-347849D01*
X336299D01*
Y-347836D01*
X336312D01*
Y-347823D01*
X336324D01*
Y-347811D01*
X336337D01*
Y-347798D01*
X336350D01*
Y-347785D01*
X336362D01*
Y-347772D01*
X336375D01*
Y-347760D01*
X336388D01*
Y-347747D01*
X336400D01*
Y-347734D01*
X336413D01*
Y-347722D01*
X336426D01*
Y-347709D01*
X336438D01*
Y-347696D01*
X336451D01*
Y-347684D01*
X336464D01*
Y-347671D01*
X336476D01*
Y-347658D01*
X336489D01*
Y-347646D01*
X336502D01*
Y-347633D01*
X336515D01*
Y-347620D01*
X336527D01*
Y-347607D01*
X336540D01*
Y-347595D01*
X336553D01*
Y-347582D01*
X336565D01*
Y-347569D01*
X336578D01*
Y-347557D01*
X336591D01*
Y-347544D01*
X336603D01*
Y-347531D01*
X336616D01*
Y-347519D01*
X336629D01*
Y-347506D01*
X336641D01*
Y-347493D01*
X336654D01*
Y-347468D01*
X336667D01*
Y-347443D01*
X336680D01*
Y-347430D01*
X336692D01*
Y-347405D01*
X336705D01*
Y-347379D01*
X336718D01*
Y-347354D01*
X336730D01*
Y-347328D01*
X336743D01*
Y-347290D01*
X336756D01*
Y-347240D01*
X336768D01*
Y-340922D01*
X336756D01*
Y-340884D01*
X336743D01*
Y-340846D01*
X336730D01*
Y-340808D01*
X336705D01*
Y-340795D01*
X336692D01*
Y-340770D01*
X336667D01*
Y-340745D01*
X336654D01*
Y-340732D01*
X336629D01*
Y-340707D01*
X336603D01*
Y-340694D01*
X336591D01*
Y-340669D01*
X336565D01*
Y-340643D01*
X336553D01*
Y-340631D01*
X336527D01*
Y-340605D01*
X336502D01*
Y-340592D01*
X336489D01*
Y-340567D01*
X336464D01*
Y-340542D01*
X336451D01*
Y-340529D01*
X336426D01*
Y-340504D01*
X336400D01*
Y-340491D01*
X336388D01*
Y-340466D01*
X336362D01*
Y-340453D01*
X336350D01*
Y-340427D01*
X336324D01*
Y-340402D01*
X336299D01*
Y-340389D01*
X336286D01*
Y-340364D01*
X336261D01*
Y-340351D01*
X336248D01*
Y-340326D01*
X336223D01*
Y-340301D01*
X336197D01*
Y-340288D01*
X336185D01*
Y-340263D01*
X336159D01*
Y-340250D01*
X336147D01*
Y-340237D01*
X336121D01*
Y-340225D01*
X336058D01*
Y-340212D01*
X336033D01*
Y-340199D01*
D02*
G37*
G36*
X345864Y-347405D02*
X343073D01*
Y-347417D01*
X343035D01*
Y-347430D01*
X343010D01*
Y-347443D01*
X342997D01*
Y-347455D01*
X342984D01*
Y-347481D01*
X342971D01*
Y-348318D01*
Y-348331D01*
Y-351756D01*
X342984D01*
Y-351781D01*
X342997D01*
Y-351794D01*
X343010D01*
Y-351806D01*
X343022D01*
Y-351819D01*
X345927D01*
Y-351806D01*
X345991D01*
Y-351794D01*
X346016D01*
Y-351781D01*
X346041D01*
Y-351768D01*
X346054D01*
Y-351756D01*
X346067D01*
Y-351743D01*
X346079D01*
Y-351730D01*
X346092D01*
Y-351718D01*
X346105D01*
Y-351705D01*
X346117D01*
Y-351692D01*
X346130D01*
Y-351680D01*
X346143D01*
Y-351667D01*
X346156D01*
Y-351654D01*
X346168D01*
Y-351642D01*
X346181D01*
Y-351629D01*
X346194D01*
Y-351616D01*
X346206D01*
Y-351604D01*
X346219D01*
Y-351591D01*
X346232D01*
Y-351578D01*
X346244D01*
Y-351565D01*
X346257D01*
Y-351553D01*
X346270D01*
Y-351540D01*
X346283D01*
Y-351527D01*
X346295D01*
Y-351515D01*
X346308D01*
Y-351502D01*
X346321D01*
Y-351489D01*
X346333D01*
Y-351477D01*
X346346D01*
Y-351464D01*
X346359D01*
Y-351451D01*
X346371D01*
Y-351439D01*
X346384D01*
Y-351426D01*
X346397D01*
Y-351413D01*
X346409D01*
Y-351400D01*
X346422D01*
Y-351388D01*
X346435D01*
Y-351375D01*
X346447D01*
Y-351362D01*
X346460D01*
Y-351350D01*
X346473D01*
Y-351337D01*
X346485D01*
Y-351324D01*
X346498D01*
Y-351312D01*
X346511D01*
Y-351299D01*
X346523D01*
Y-351286D01*
X346536D01*
Y-351274D01*
X346549D01*
Y-351261D01*
X346562D01*
Y-351248D01*
X346574D01*
Y-351236D01*
X346587D01*
Y-351223D01*
X346600D01*
Y-351210D01*
X346612D01*
Y-351198D01*
X346625D01*
Y-351185D01*
X346638D01*
Y-351147D01*
X346650D01*
Y-351109D01*
X346663D01*
Y-351058D01*
X346676D01*
Y-348178D01*
X346663D01*
Y-348115D01*
X346650D01*
Y-348090D01*
X346638D01*
Y-348052D01*
X346625D01*
Y-348039D01*
X346612D01*
Y-348026D01*
X346600D01*
Y-348013D01*
X346587D01*
Y-348001D01*
X346574D01*
Y-347988D01*
X346562D01*
Y-347963D01*
X346536D01*
Y-347950D01*
X346523D01*
Y-347925D01*
X346498D01*
Y-347912D01*
X346485D01*
Y-347899D01*
X346473D01*
Y-347887D01*
X346460D01*
Y-347861D01*
X346435D01*
Y-347849D01*
X346422D01*
Y-347823D01*
X346397D01*
Y-347811D01*
X346384D01*
Y-347798D01*
X346371D01*
Y-347785D01*
X346359D01*
Y-347760D01*
X346333D01*
Y-347747D01*
X346321D01*
Y-347734D01*
X346308D01*
Y-347722D01*
X346295D01*
Y-347709D01*
X346283D01*
Y-347696D01*
X346270D01*
Y-347684D01*
X346257D01*
Y-347671D01*
X346244D01*
Y-347658D01*
X346232D01*
Y-347646D01*
X346219D01*
Y-347633D01*
X346206D01*
Y-347620D01*
X346194D01*
Y-347607D01*
X346181D01*
Y-347595D01*
X346168D01*
Y-347582D01*
X346156D01*
Y-347569D01*
X346143D01*
Y-347557D01*
X346130D01*
Y-347544D01*
X346117D01*
Y-347531D01*
X346105D01*
Y-347519D01*
X346092D01*
Y-347506D01*
X346079D01*
Y-347493D01*
X346067D01*
Y-347481D01*
X346054D01*
Y-347468D01*
X346041D01*
Y-347455D01*
X346029D01*
Y-347443D01*
X345965D01*
Y-347430D01*
X345940D01*
Y-347417D01*
X345864D01*
Y-347405D01*
D02*
G37*
G36*
X341538D02*
X338747D01*
Y-347417D01*
X338709D01*
Y-347430D01*
X338697D01*
Y-347443D01*
X338684D01*
Y-347455D01*
X338671D01*
Y-347468D01*
X338658D01*
Y-351692D01*
X338646D01*
Y-351705D01*
X338658D01*
Y-351768D01*
X338671D01*
Y-351781D01*
X338684D01*
Y-351806D01*
X338709D01*
Y-351819D01*
X339711D01*
Y-351806D01*
X339737D01*
Y-351781D01*
X339749D01*
Y-351768D01*
X339762D01*
Y-351718D01*
X339775D01*
Y-351692D01*
X339762D01*
Y-351680D01*
X339775D01*
Y-350551D01*
X339762D01*
Y-350538D01*
X339775D01*
Y-350513D01*
X339788D01*
Y-350500D01*
X340523D01*
Y-350513D01*
X340549D01*
Y-350538D01*
X340561D01*
Y-350551D01*
X340574D01*
Y-350576D01*
X340587D01*
Y-350601D01*
X340599D01*
Y-350614D01*
X340612D01*
Y-350639D01*
X340625D01*
Y-350665D01*
X340637D01*
Y-350677D01*
X340650D01*
Y-350703D01*
X340663D01*
Y-350728D01*
X340675D01*
Y-350753D01*
X340688D01*
Y-350779D01*
X340701D01*
Y-350792D01*
X340714D01*
Y-350817D01*
X340726D01*
Y-350830D01*
X340739D01*
Y-350855D01*
X340752D01*
Y-350880D01*
X340764D01*
Y-350893D01*
X340777D01*
Y-350918D01*
X340790D01*
Y-350944D01*
X340802D01*
Y-350957D01*
X340815D01*
Y-350982D01*
X340828D01*
Y-351007D01*
X340840D01*
Y-351033D01*
X340853D01*
Y-351058D01*
X340866D01*
Y-351071D01*
X340878D01*
Y-351096D01*
X340891D01*
Y-351121D01*
X340904D01*
Y-351134D01*
X340916D01*
Y-351160D01*
X340929D01*
Y-351185D01*
X340942D01*
Y-351198D01*
X340954D01*
Y-351223D01*
X340967D01*
Y-351248D01*
X340980D01*
Y-351261D01*
X340993D01*
Y-351286D01*
X341005D01*
Y-351299D01*
X341018D01*
Y-351337D01*
X341031D01*
Y-351350D01*
X341043D01*
Y-351375D01*
X341056D01*
Y-351400D01*
X341069D01*
Y-351413D01*
X341081D01*
Y-351439D01*
X341094D01*
Y-351464D01*
X341107D01*
Y-351477D01*
X341120D01*
Y-351502D01*
X341132D01*
Y-351527D01*
X341145D01*
Y-351540D01*
X341158D01*
Y-351565D01*
X341170D01*
Y-351591D01*
X341183D01*
Y-351616D01*
X341196D01*
Y-351629D01*
X341208D01*
Y-351654D01*
X341221D01*
Y-351680D01*
X341234D01*
Y-351692D01*
X341246D01*
Y-351718D01*
X341259D01*
Y-351743D01*
X341272D01*
Y-351756D01*
X341284D01*
Y-351768D01*
X341297D01*
Y-351781D01*
X341322D01*
Y-351794D01*
X341335D01*
Y-351806D01*
X341373D01*
Y-351819D01*
X342490D01*
Y-351806D01*
X342502D01*
Y-351794D01*
X342515D01*
Y-351730D01*
X342502D01*
Y-351705D01*
X342490D01*
Y-351692D01*
X342477D01*
Y-351667D01*
X342464D01*
Y-351642D01*
X342451D01*
Y-351629D01*
X342439D01*
Y-351604D01*
X342426D01*
Y-351578D01*
X342413D01*
Y-351553D01*
X342401D01*
Y-351540D01*
X342388D01*
Y-351515D01*
X342375D01*
Y-351489D01*
X342363D01*
Y-351477D01*
X342350D01*
Y-351451D01*
X342337D01*
Y-351426D01*
X342325D01*
Y-351413D01*
X342312D01*
Y-351388D01*
X342299D01*
Y-351362D01*
X342286D01*
Y-351350D01*
X342274D01*
Y-351324D01*
X342261D01*
Y-351312D01*
X342249D01*
Y-351286D01*
X342236D01*
Y-351261D01*
X342223D01*
Y-351248D01*
X342210D01*
Y-351223D01*
X342198D01*
Y-351198D01*
X342185D01*
Y-351185D01*
X342172D01*
Y-351160D01*
X342160D01*
Y-351134D01*
X342147D01*
Y-351121D01*
X342134D01*
Y-351096D01*
X342122D01*
Y-351071D01*
X342109D01*
Y-351045D01*
X342096D01*
Y-351033D01*
X342084D01*
Y-351007D01*
X342071D01*
Y-350982D01*
X342058D01*
Y-350969D01*
X342045D01*
Y-350944D01*
X342033D01*
Y-350918D01*
X342020D01*
Y-350906D01*
X342007D01*
Y-350880D01*
X341995D01*
Y-350855D01*
X341982D01*
Y-350842D01*
X341969D01*
Y-350817D01*
X341957D01*
Y-350804D01*
X341944D01*
Y-350779D01*
X341931D01*
Y-350753D01*
X341919D01*
Y-350741D01*
X341906D01*
Y-350715D01*
X341893D01*
Y-350690D01*
X341881D01*
Y-350677D01*
X341868D01*
Y-350652D01*
X341855D01*
Y-350627D01*
X341843D01*
Y-350601D01*
X341830D01*
Y-350576D01*
X341817D01*
Y-350563D01*
X341805D01*
Y-350538D01*
X341792D01*
Y-350525D01*
X341779D01*
Y-350500D01*
X341766D01*
Y-350475D01*
X341754D01*
Y-350462D01*
X341741D01*
Y-350436D01*
X341728D01*
Y-350398D01*
X341741D01*
Y-350386D01*
X341754D01*
Y-350373D01*
X341766D01*
Y-350360D01*
X341779D01*
Y-350348D01*
X341792D01*
Y-350335D01*
X341805D01*
Y-350322D01*
X341817D01*
Y-350309D01*
X341830D01*
Y-350297D01*
X341843D01*
Y-350284D01*
X341855D01*
Y-350272D01*
X341868D01*
Y-350259D01*
X341881D01*
Y-350246D01*
X341893D01*
Y-350233D01*
X341906D01*
Y-350221D01*
X341919D01*
Y-350208D01*
X341931D01*
Y-350195D01*
X341944D01*
Y-350183D01*
X341957D01*
Y-350170D01*
X341969D01*
Y-350157D01*
X341982D01*
Y-350145D01*
X341995D01*
Y-350132D01*
X342007D01*
Y-350119D01*
X342020D01*
Y-350107D01*
X342033D01*
Y-350094D01*
X342045D01*
Y-350081D01*
X342058D01*
Y-350068D01*
X342071D01*
Y-350056D01*
X342084D01*
Y-350043D01*
X342096D01*
Y-350030D01*
X342109D01*
Y-350018D01*
X342122D01*
Y-350005D01*
X342134D01*
Y-349992D01*
X342147D01*
Y-349980D01*
X342160D01*
Y-349967D01*
X342172D01*
Y-349954D01*
X342185D01*
Y-349942D01*
X342198D01*
Y-349916D01*
X342223D01*
Y-349904D01*
X342236D01*
Y-349878D01*
X342261D01*
Y-349866D01*
X342274D01*
Y-349840D01*
X342299D01*
Y-349815D01*
X342312D01*
Y-349789D01*
X342325D01*
Y-349764D01*
X342337D01*
Y-349726D01*
X342350D01*
Y-349688D01*
X342363D01*
Y-348178D01*
X342350D01*
Y-348140D01*
X342337D01*
Y-348077D01*
X342325D01*
Y-348052D01*
X342312D01*
Y-348026D01*
X342299D01*
Y-348013D01*
X342286D01*
Y-348001D01*
X342274D01*
Y-347988D01*
X342261D01*
Y-347975D01*
X342249D01*
Y-347963D01*
X342236D01*
Y-347950D01*
X342223D01*
Y-347937D01*
X342210D01*
Y-347925D01*
X342198D01*
Y-347912D01*
X342185D01*
Y-347899D01*
X342172D01*
Y-347887D01*
X342160D01*
Y-347874D01*
X342147D01*
Y-347861D01*
X342134D01*
Y-347849D01*
X342122D01*
Y-347836D01*
X342109D01*
Y-347823D01*
X342096D01*
Y-347811D01*
X342084D01*
Y-347798D01*
X342071D01*
Y-347785D01*
X342058D01*
Y-347772D01*
X342045D01*
Y-347760D01*
X342033D01*
Y-347747D01*
X342020D01*
Y-347734D01*
X342007D01*
Y-347722D01*
X341995D01*
Y-347709D01*
X341982D01*
Y-347696D01*
X341969D01*
Y-347684D01*
X341957D01*
Y-347671D01*
X341944D01*
Y-347658D01*
X341931D01*
Y-347646D01*
X341919D01*
Y-347633D01*
X341906D01*
Y-347620D01*
X341893D01*
Y-347607D01*
X341881D01*
Y-347595D01*
X341868D01*
Y-347582D01*
X341855D01*
Y-347569D01*
X341843D01*
Y-347557D01*
X341830D01*
Y-347544D01*
X341817D01*
Y-347531D01*
X341805D01*
Y-347519D01*
X341792D01*
Y-347506D01*
X341779D01*
Y-347493D01*
X341766D01*
Y-347481D01*
X341754D01*
Y-347468D01*
X341728D01*
Y-347455D01*
X341703D01*
Y-347443D01*
X341652D01*
Y-347430D01*
X341614D01*
Y-347417D01*
X341538D01*
Y-347405D01*
D02*
G37*
G36*
X333901D02*
X331402D01*
Y-347417D01*
X331339D01*
Y-347430D01*
X331313D01*
Y-347443D01*
X331276D01*
Y-347455D01*
X331250D01*
Y-347468D01*
X331237D01*
Y-347481D01*
X331225D01*
Y-347493D01*
X331212D01*
Y-347506D01*
X331199D01*
Y-347519D01*
X331187D01*
Y-347531D01*
X331174D01*
Y-347544D01*
X331161D01*
Y-347557D01*
X331149D01*
Y-347569D01*
X331136D01*
Y-347582D01*
X331123D01*
Y-347595D01*
X331111D01*
Y-347607D01*
X331098D01*
Y-347620D01*
X331085D01*
Y-347633D01*
X331072D01*
Y-347646D01*
X331060D01*
Y-347658D01*
X331047D01*
Y-347671D01*
X331034D01*
Y-347684D01*
X331022D01*
Y-347696D01*
X331009D01*
Y-347709D01*
X330996D01*
Y-347722D01*
X330984D01*
Y-347734D01*
X330971D01*
Y-347747D01*
X330958D01*
Y-347760D01*
X330946D01*
Y-347772D01*
X330933D01*
Y-347785D01*
X330920D01*
Y-347798D01*
X330908D01*
Y-347811D01*
X330895D01*
Y-347823D01*
X330882D01*
Y-347836D01*
X330870D01*
Y-347849D01*
X330857D01*
Y-347861D01*
X330844D01*
Y-347874D01*
X330832D01*
Y-347887D01*
X330819D01*
Y-347899D01*
X330806D01*
Y-347912D01*
X330793D01*
Y-347925D01*
X330781D01*
Y-347937D01*
X330768D01*
Y-347950D01*
X330755D01*
Y-347963D01*
X330743D01*
Y-347975D01*
X330730D01*
Y-347988D01*
X330717D01*
Y-348001D01*
X330705D01*
Y-348013D01*
X330692D01*
Y-348026D01*
X330679D01*
Y-348039D01*
X330667D01*
Y-348077D01*
X330654D01*
Y-348090D01*
X330641D01*
Y-348153D01*
X330628D01*
Y-349104D01*
Y-349117D01*
Y-351083D01*
X330641D01*
Y-351134D01*
X330654D01*
Y-351160D01*
X330667D01*
Y-351198D01*
X330679D01*
Y-351210D01*
X330692D01*
Y-351223D01*
X330705D01*
Y-351236D01*
X330717D01*
Y-351248D01*
X330730D01*
Y-351261D01*
X330743D01*
Y-351274D01*
X330755D01*
Y-351286D01*
X330768D01*
Y-351299D01*
X330781D01*
Y-351312D01*
X330793D01*
Y-351324D01*
X330806D01*
Y-351337D01*
X330819D01*
Y-351350D01*
X330832D01*
Y-351362D01*
X330844D01*
Y-351375D01*
X330857D01*
Y-351388D01*
X330870D01*
Y-351400D01*
X330882D01*
Y-351413D01*
X330895D01*
Y-351426D01*
X330908D01*
Y-351439D01*
X330920D01*
Y-351451D01*
X330933D01*
Y-351464D01*
X330946D01*
Y-351477D01*
X330958D01*
Y-351489D01*
X330971D01*
Y-351502D01*
X330984D01*
Y-351515D01*
X330996D01*
Y-351527D01*
X331009D01*
Y-351540D01*
X331022D01*
Y-351553D01*
X331034D01*
Y-351565D01*
X331047D01*
Y-351578D01*
X331060D01*
Y-351591D01*
X331072D01*
Y-351604D01*
X331085D01*
Y-351616D01*
X331098D01*
Y-351629D01*
X331111D01*
Y-351642D01*
X331123D01*
Y-351654D01*
X331136D01*
Y-351667D01*
X331149D01*
Y-351680D01*
X331161D01*
Y-351692D01*
X331174D01*
Y-351705D01*
X331187D01*
Y-351718D01*
X331199D01*
Y-351730D01*
X331212D01*
Y-351743D01*
X331225D01*
Y-351756D01*
X331237D01*
Y-351768D01*
X331250D01*
Y-351781D01*
X331288D01*
Y-351794D01*
X331313D01*
Y-351806D01*
X331364D01*
Y-351819D01*
X333927D01*
Y-351806D01*
X333952D01*
Y-351794D01*
X333965D01*
Y-351781D01*
X333978D01*
Y-351756D01*
X333990D01*
Y-351718D01*
X334003D01*
Y-350855D01*
X333990D01*
Y-350804D01*
X333978D01*
Y-350792D01*
X333965D01*
Y-350779D01*
X333952D01*
Y-350766D01*
X333914D01*
Y-350753D01*
X331808D01*
Y-350741D01*
X331796D01*
Y-350728D01*
X331770D01*
Y-350715D01*
X331757D01*
Y-350690D01*
X331745D01*
Y-350639D01*
X331732D01*
Y-348584D01*
X331745D01*
Y-348546D01*
X331757D01*
Y-348521D01*
X331783D01*
Y-348508D01*
X331796D01*
Y-348496D01*
X331834D01*
Y-348483D01*
X333927D01*
Y-348470D01*
X333952D01*
Y-348458D01*
X333965D01*
Y-348445D01*
X333978D01*
Y-348419D01*
X333990D01*
Y-348381D01*
X334003D01*
Y-347506D01*
X333990D01*
Y-347468D01*
X333978D01*
Y-347455D01*
X333965D01*
Y-347443D01*
X333952D01*
Y-347430D01*
X333939D01*
Y-347417D01*
X333901D01*
Y-347405D01*
D02*
G37*
G36*
X328764Y-347417D02*
X328523D01*
Y-347658D01*
X328535D01*
Y-347874D01*
X328548D01*
Y-347988D01*
X328561D01*
Y-348102D01*
X328573D01*
Y-348229D01*
X328586D01*
Y-348305D01*
X328599D01*
Y-348407D01*
X328611D01*
Y-348483D01*
X328624D01*
Y-348534D01*
X328637D01*
Y-348622D01*
X328650D01*
Y-348686D01*
X328662D01*
Y-348749D01*
X328675D01*
Y-348813D01*
X328688D01*
Y-348863D01*
X328700D01*
Y-348927D01*
X328713D01*
Y-348990D01*
X328726D01*
Y-349028D01*
X328738D01*
Y-349092D01*
X328751D01*
Y-349130D01*
X328764D01*
Y-349181D01*
X328776D01*
Y-349244D01*
X328789D01*
Y-349269D01*
X328802D01*
Y-349333D01*
X328815D01*
Y-349371D01*
X328827D01*
Y-349409D01*
X328840D01*
Y-349460D01*
X328853D01*
Y-349498D01*
X328865D01*
Y-349536D01*
X328878D01*
Y-349587D01*
X328891D01*
Y-349612D01*
X328903D01*
Y-349663D01*
X328916D01*
Y-349701D01*
X328929D01*
Y-349726D01*
X328941D01*
Y-349777D01*
X328954D01*
Y-349802D01*
X328967D01*
Y-349840D01*
X328979D01*
Y-349878D01*
X328992D01*
Y-349904D01*
X329005D01*
Y-349954D01*
X329017D01*
Y-349980D01*
X329030D01*
Y-350005D01*
X329043D01*
Y-350043D01*
X329056D01*
Y-350081D01*
X329068D01*
Y-350107D01*
X329081D01*
Y-350145D01*
X329094D01*
Y-350170D01*
X329106D01*
Y-350208D01*
X329119D01*
Y-350233D01*
X329132D01*
Y-350259D01*
X329144D01*
Y-350297D01*
X329157D01*
Y-350322D01*
X329170D01*
Y-350348D01*
X329182D01*
Y-350386D01*
X329195D01*
Y-350398D01*
X329208D01*
Y-350436D01*
X329220D01*
Y-350462D01*
X329233D01*
Y-350487D01*
X329246D01*
Y-350525D01*
X329258D01*
Y-350538D01*
X329271D01*
Y-350563D01*
X329284D01*
Y-350601D01*
X329296D01*
Y-350627D01*
X329309D01*
Y-350652D01*
X329322D01*
Y-350677D01*
X329335D01*
Y-350703D01*
X329347D01*
Y-350728D01*
X329360D01*
Y-350753D01*
X329373D01*
Y-350779D01*
X329385D01*
Y-350804D01*
X329398D01*
Y-350817D01*
X329411D01*
Y-350842D01*
X329423D01*
Y-350880D01*
X329436D01*
Y-350893D01*
X329449D01*
Y-350918D01*
X329461D01*
Y-350944D01*
X329474D01*
Y-350969D01*
X329487D01*
Y-350995D01*
X329500D01*
Y-351007D01*
X329512D01*
Y-351033D01*
X329525D01*
Y-351058D01*
X329538D01*
Y-351071D01*
X329550D01*
Y-351109D01*
X329563D01*
Y-351121D01*
X329576D01*
Y-351147D01*
X329588D01*
Y-351172D01*
X329601D01*
Y-351185D01*
X329614D01*
Y-351210D01*
X329626D01*
Y-351236D01*
X329639D01*
Y-351248D01*
X329652D01*
Y-351274D01*
X329664D01*
Y-351286D01*
X329677D01*
Y-351312D01*
X329690D01*
Y-351337D01*
X329702D01*
Y-351350D01*
X329715D01*
Y-351375D01*
X329728D01*
Y-351400D01*
X329741D01*
Y-351413D01*
X329753D01*
Y-351439D01*
X329766D01*
Y-351451D01*
X329779D01*
Y-351477D01*
X329791D01*
Y-351489D01*
X329804D01*
Y-351515D01*
X329817D01*
Y-351527D01*
X329829D01*
Y-351553D01*
X329842D01*
Y-351565D01*
X329855D01*
Y-351591D01*
X329867D01*
Y-351604D01*
X329880D01*
Y-351616D01*
X329893D01*
Y-351642D01*
X329905D01*
Y-351654D01*
X329918D01*
Y-351680D01*
X329931D01*
Y-351692D01*
X329943D01*
Y-351718D01*
X329956D01*
Y-351730D01*
X329969D01*
Y-351756D01*
X329981D01*
Y-351768D01*
X329994D01*
Y-351794D01*
X330007D01*
Y-351806D01*
X330020D01*
Y-351819D01*
X330032D01*
Y-351832D01*
X330045D01*
Y-351857D01*
X330058D01*
Y-351870D01*
X330070D01*
Y-351895D01*
X330083D01*
Y-351908D01*
X330096D01*
Y-351921D01*
X330108D01*
Y-351933D01*
X330121D01*
Y-351959D01*
X330134D01*
Y-351971D01*
X330147D01*
Y-351984D01*
X330159D01*
Y-352009D01*
X330172D01*
Y-352022D01*
X330185D01*
Y-352035D01*
X330197D01*
Y-352060D01*
X330210D01*
Y-352073D01*
X330223D01*
Y-352085D01*
X330235D01*
Y-352098D01*
X330248D01*
Y-352111D01*
X330261D01*
Y-352136D01*
X330273D01*
Y-352149D01*
X330286D01*
Y-352162D01*
X330299D01*
Y-352187D01*
X330324D01*
Y-352212D01*
X330337D01*
Y-352225D01*
X330349D01*
Y-352238D01*
X330362D01*
Y-352250D01*
X330375D01*
Y-352276D01*
X330387D01*
Y-352289D01*
X330400D01*
Y-352301D01*
X330413D01*
Y-352314D01*
X330426D01*
Y-352326D01*
X330438D01*
Y-352339D01*
X330451D01*
Y-352352D01*
X330464D01*
Y-352377D01*
X330476D01*
Y-352390D01*
X330489D01*
Y-352403D01*
X330502D01*
Y-352415D01*
X330514D01*
Y-352428D01*
X330527D01*
Y-352441D01*
X330540D01*
Y-352453D01*
X330552D01*
Y-352466D01*
X330565D01*
Y-352491D01*
X330578D01*
Y-352504D01*
X330591D01*
Y-352517D01*
X330603D01*
Y-352530D01*
X330616D01*
Y-352542D01*
X330628D01*
Y-352555D01*
X330641D01*
Y-352568D01*
X330654D01*
Y-352580D01*
X330667D01*
Y-352593D01*
X330679D01*
Y-352606D01*
X330692D01*
Y-352618D01*
X330705D01*
Y-352631D01*
X330717D01*
Y-352644D01*
X330730D01*
Y-352656D01*
X330743D01*
Y-352669D01*
X330755D01*
Y-352682D01*
X330768D01*
Y-352694D01*
X330781D01*
Y-352707D01*
X330793D01*
Y-352720D01*
X330806D01*
Y-352732D01*
X330819D01*
Y-352745D01*
X330832D01*
Y-352758D01*
X330844D01*
Y-352770D01*
X330857D01*
Y-352783D01*
X330870D01*
Y-352796D01*
X330882D01*
Y-352809D01*
X330895D01*
Y-352821D01*
X330908D01*
Y-352834D01*
X330920D01*
Y-352847D01*
X330933D01*
Y-352859D01*
X330946D01*
Y-352872D01*
X330958D01*
Y-352885D01*
X330971D01*
Y-352897D01*
X330984D01*
Y-352910D01*
X330996D01*
Y-352923D01*
X331009D01*
Y-352935D01*
X331022D01*
Y-352948D01*
X331034D01*
Y-352961D01*
X331047D01*
Y-352974D01*
X331060D01*
Y-352986D01*
X331085D01*
Y-352999D01*
X331098D01*
Y-353012D01*
X331111D01*
Y-353024D01*
X331123D01*
Y-353037D01*
X331136D01*
Y-353050D01*
X331149D01*
Y-353062D01*
X331161D01*
Y-353075D01*
X331187D01*
Y-353088D01*
X331199D01*
Y-353100D01*
X331212D01*
Y-353113D01*
X331225D01*
Y-353126D01*
X331237D01*
Y-353138D01*
X331250D01*
Y-353151D01*
X331263D01*
Y-353164D01*
X331288D01*
Y-353176D01*
X331301D01*
Y-353189D01*
X331313D01*
Y-353202D01*
X331326D01*
Y-353215D01*
X331339D01*
Y-353227D01*
X331364D01*
Y-353240D01*
X331377D01*
Y-353253D01*
X331390D01*
Y-353265D01*
X331402D01*
Y-353278D01*
X331415D01*
Y-353291D01*
X331440D01*
Y-353303D01*
X331453D01*
Y-353316D01*
X331466D01*
Y-353329D01*
X331478D01*
Y-353341D01*
X331504D01*
Y-353354D01*
X331517D01*
Y-353367D01*
X331529D01*
Y-353379D01*
X331555D01*
Y-353392D01*
X331567D01*
Y-353405D01*
X331580D01*
Y-353417D01*
X331593D01*
Y-353430D01*
X331618D01*
Y-353443D01*
X331631D01*
Y-353456D01*
X331643D01*
Y-353468D01*
X331669D01*
Y-353481D01*
X331681D01*
Y-353494D01*
X331694D01*
Y-353506D01*
X331719D01*
Y-353519D01*
X331732D01*
Y-353532D01*
X331745D01*
Y-353544D01*
X331770D01*
Y-353557D01*
X331783D01*
Y-353570D01*
X331808D01*
Y-353582D01*
X331821D01*
Y-353595D01*
X331834D01*
Y-353608D01*
X331859D01*
Y-353621D01*
X331872D01*
Y-353633D01*
X331897D01*
Y-353646D01*
X331910D01*
Y-353659D01*
X331922D01*
Y-353671D01*
X331948D01*
Y-353684D01*
X331973D01*
Y-353697D01*
X331986D01*
Y-353709D01*
X332011D01*
Y-353722D01*
X332024D01*
Y-353735D01*
X332049D01*
Y-353747D01*
X332062D01*
Y-353760D01*
X332087D01*
Y-353773D01*
X332100D01*
Y-353785D01*
X332125D01*
Y-353798D01*
X332138D01*
Y-353811D01*
X332164D01*
Y-353823D01*
X332176D01*
Y-353836D01*
X332202D01*
Y-353849D01*
X332227D01*
Y-353861D01*
X332240D01*
Y-353874D01*
X332265D01*
Y-353887D01*
X332290D01*
Y-353900D01*
X332303D01*
Y-353912D01*
X332328D01*
Y-353925D01*
X332341D01*
Y-353938D01*
X332366D01*
Y-353950D01*
X332392D01*
Y-353963D01*
X332404D01*
Y-353976D01*
X332430D01*
Y-353988D01*
X332455D01*
Y-354001D01*
X332481D01*
Y-354014D01*
X332506D01*
Y-354026D01*
X332519D01*
Y-354039D01*
X332544D01*
Y-354052D01*
X332569D01*
Y-354064D01*
X332582D01*
Y-354077D01*
X332620D01*
Y-354090D01*
X332633D01*
Y-354102D01*
X332658D01*
Y-354115D01*
X332684D01*
Y-354128D01*
X332709D01*
Y-354141D01*
X332734D01*
Y-354153D01*
X332760D01*
Y-354166D01*
X332785D01*
Y-354179D01*
X332810D01*
Y-354191D01*
X332836D01*
Y-354204D01*
X332861D01*
Y-354217D01*
X332887D01*
Y-354229D01*
X332912D01*
Y-354242D01*
X332937D01*
Y-354255D01*
X332963D01*
Y-354267D01*
X332988D01*
Y-354280D01*
X333013D01*
Y-354293D01*
X333039D01*
Y-354306D01*
X333064D01*
Y-354318D01*
X333102D01*
Y-354331D01*
X333115D01*
Y-354344D01*
X333153D01*
Y-354356D01*
X333191D01*
Y-354369D01*
X333204D01*
Y-354382D01*
X333242D01*
Y-354394D01*
X333267D01*
Y-354407D01*
X333293D01*
Y-354420D01*
X333330D01*
Y-354432D01*
X333356D01*
Y-354445D01*
X333394D01*
Y-354458D01*
X333432D01*
Y-354470D01*
X333445D01*
Y-354483D01*
X333483D01*
Y-354496D01*
X333521D01*
Y-354508D01*
X333546D01*
Y-354521D01*
X333584D01*
Y-354534D01*
X333610D01*
Y-354546D01*
X333648D01*
Y-354559D01*
X333698D01*
Y-354572D01*
X333711D01*
Y-354585D01*
X333762D01*
Y-354597D01*
X333800D01*
Y-354610D01*
X333825D01*
Y-354623D01*
X333876D01*
Y-354635D01*
X333901D01*
Y-354648D01*
X333939D01*
Y-354661D01*
X333990D01*
Y-354673D01*
X334015D01*
Y-354686D01*
X334066D01*
Y-354699D01*
X334117D01*
Y-354711D01*
X334155D01*
Y-354724D01*
X334206D01*
Y-354737D01*
X334244D01*
Y-354749D01*
X334282D01*
Y-354762D01*
X334345D01*
Y-354775D01*
X334383D01*
Y-354787D01*
X334434D01*
Y-354800D01*
X334485D01*
Y-354813D01*
X334536D01*
Y-354826D01*
X334599D01*
Y-354838D01*
X334650D01*
Y-354851D01*
X334701D01*
Y-354864D01*
X334777D01*
Y-354876D01*
X334827D01*
Y-354889D01*
X334891D01*
Y-354902D01*
X334967D01*
Y-354914D01*
X335030D01*
Y-354927D01*
X335119D01*
Y-354940D01*
X335195D01*
Y-354952D01*
X335284D01*
Y-354965D01*
X335411D01*
Y-354978D01*
X335474D01*
Y-354991D01*
X335614D01*
Y-355003D01*
X335779D01*
Y-355016D01*
X335956D01*
Y-355029D01*
X336756D01*
Y-355016D01*
X336933D01*
Y-355003D01*
X337098D01*
Y-354991D01*
X337238D01*
Y-354978D01*
X337314D01*
Y-354965D01*
X337428D01*
Y-354952D01*
X337529D01*
Y-354940D01*
X337593D01*
Y-354927D01*
X337694D01*
Y-354914D01*
X337745D01*
Y-354902D01*
X337821D01*
Y-354889D01*
X337897D01*
Y-354876D01*
X337935D01*
Y-354864D01*
X338012D01*
Y-354851D01*
X338075D01*
Y-354838D01*
X338113D01*
Y-354826D01*
X338189D01*
Y-354813D01*
X338227D01*
Y-354800D01*
X338278D01*
Y-354787D01*
X338341D01*
Y-354775D01*
X338367D01*
Y-354762D01*
X338430D01*
Y-354749D01*
X338481D01*
Y-354737D01*
X338519D01*
Y-354724D01*
X338570D01*
Y-354711D01*
X338608D01*
Y-354699D01*
X338646D01*
Y-354686D01*
X338697D01*
Y-354673D01*
X338722D01*
Y-354661D01*
X338773D01*
Y-354648D01*
X338811D01*
Y-354635D01*
X338836D01*
Y-354623D01*
X338887D01*
Y-354610D01*
X338925D01*
Y-354597D01*
X338950D01*
Y-354585D01*
X339001D01*
Y-354572D01*
X339026D01*
Y-354559D01*
X339064D01*
Y-354546D01*
X339102D01*
Y-354534D01*
X339128D01*
Y-354521D01*
X339166D01*
Y-354508D01*
X339191D01*
Y-354496D01*
X339229D01*
Y-354483D01*
X339267D01*
Y-354470D01*
X339293D01*
Y-354458D01*
X339331D01*
Y-354445D01*
X339356D01*
Y-354432D01*
X339382D01*
Y-354420D01*
X339420D01*
Y-354407D01*
X339445D01*
Y-354394D01*
X339470D01*
Y-354382D01*
X339508D01*
Y-354369D01*
X339534D01*
Y-354356D01*
X339559D01*
Y-354344D01*
X339597D01*
Y-354331D01*
X339623D01*
Y-354318D01*
X339648D01*
Y-354306D01*
X339673D01*
Y-354293D01*
X339699D01*
Y-354280D01*
X339724D01*
Y-354267D01*
X339749D01*
Y-354255D01*
X339788D01*
Y-354242D01*
X339813D01*
Y-354229D01*
X339826D01*
Y-354217D01*
X339864D01*
Y-354204D01*
X339876D01*
Y-354191D01*
X339902D01*
Y-354179D01*
X339940D01*
Y-354166D01*
X339952D01*
Y-354153D01*
X339978D01*
Y-354141D01*
X340003D01*
Y-354128D01*
X340029D01*
Y-354115D01*
X340054D01*
Y-354102D01*
X340079D01*
Y-354090D01*
X340105D01*
Y-354077D01*
X340130D01*
Y-354064D01*
X340143D01*
Y-354052D01*
X340168D01*
Y-354039D01*
X340193D01*
Y-354026D01*
X340206D01*
Y-354014D01*
X340244D01*
Y-354001D01*
X340257D01*
Y-353988D01*
X340282D01*
Y-353976D01*
X340308D01*
Y-353963D01*
X340320D01*
Y-353950D01*
X340346D01*
Y-353938D01*
X340371D01*
Y-353925D01*
X340384D01*
Y-353912D01*
X340409D01*
Y-353900D01*
X340434D01*
Y-353887D01*
X340447D01*
Y-353874D01*
X340473D01*
Y-353861D01*
X340485D01*
Y-353849D01*
X340511D01*
Y-353836D01*
X340536D01*
Y-353823D01*
X340549D01*
Y-353811D01*
X340574D01*
Y-353798D01*
X340599D01*
Y-353785D01*
X340612D01*
Y-353773D01*
X340637D01*
Y-353760D01*
X340650D01*
Y-353747D01*
X340675D01*
Y-353735D01*
X340688D01*
Y-353722D01*
X340701D01*
Y-353709D01*
X340726D01*
Y-353697D01*
X340752D01*
Y-353684D01*
X340764D01*
Y-353671D01*
X340790D01*
Y-353659D01*
X340802D01*
Y-353646D01*
X340815D01*
Y-353633D01*
X340840D01*
Y-353621D01*
X340853D01*
Y-353608D01*
X340878D01*
Y-353595D01*
X340891D01*
Y-353582D01*
X340916D01*
Y-353570D01*
X340929D01*
Y-353557D01*
X340942D01*
Y-353544D01*
X340967D01*
Y-353532D01*
X340980D01*
Y-353519D01*
X340993D01*
Y-353506D01*
X341018D01*
Y-353494D01*
X341031D01*
Y-353481D01*
X341056D01*
Y-353468D01*
X341069D01*
Y-353456D01*
X341081D01*
Y-353443D01*
X341094D01*
Y-353430D01*
X341120D01*
Y-353417D01*
X341132D01*
Y-353405D01*
X341158D01*
Y-353392D01*
X341170D01*
Y-353379D01*
X341183D01*
Y-353367D01*
X341196D01*
Y-353354D01*
X341208D01*
Y-353341D01*
X341234D01*
Y-353329D01*
X341246D01*
Y-353316D01*
X341259D01*
Y-353303D01*
X341284D01*
Y-353291D01*
X341297D01*
Y-353278D01*
X341310D01*
Y-353265D01*
X341335D01*
Y-353253D01*
X341348D01*
Y-353240D01*
X341360D01*
Y-353227D01*
X341373D01*
Y-353215D01*
X341386D01*
Y-353202D01*
X341399D01*
Y-353189D01*
X341411D01*
Y-353176D01*
X341437D01*
Y-353164D01*
X341449D01*
Y-353151D01*
X341462D01*
Y-353138D01*
X341475D01*
Y-353126D01*
X341500D01*
Y-353100D01*
X341525D01*
Y-353088D01*
X341538D01*
Y-353075D01*
X341551D01*
Y-353062D01*
X341563D01*
Y-353050D01*
X341576D01*
Y-353037D01*
X341589D01*
Y-353024D01*
X341614D01*
Y-353012D01*
X341627D01*
Y-352999D01*
X341640D01*
Y-352986D01*
X341652D01*
Y-352974D01*
X341665D01*
Y-352961D01*
X341678D01*
Y-352948D01*
X341690D01*
Y-352935D01*
X341703D01*
Y-352923D01*
X341716D01*
Y-352910D01*
X341728D01*
Y-352897D01*
X341741D01*
Y-352885D01*
X341754D01*
Y-352872D01*
X341766D01*
Y-352859D01*
X341792D01*
Y-352834D01*
X341805D01*
Y-352821D01*
X341830D01*
Y-352796D01*
X341843D01*
Y-352783D01*
X341855D01*
Y-352770D01*
X341868D01*
Y-352758D01*
X341893D01*
Y-352732D01*
X341906D01*
Y-352720D01*
X341931D01*
Y-352694D01*
X341944D01*
Y-352682D01*
X341957D01*
Y-352669D01*
X341969D01*
Y-352656D01*
X341995D01*
Y-352631D01*
X342007D01*
Y-352618D01*
X342033D01*
Y-352593D01*
X342045D01*
Y-352580D01*
X342058D01*
Y-352568D01*
X342071D01*
Y-352555D01*
X342084D01*
Y-352542D01*
X342096D01*
Y-352530D01*
X342109D01*
Y-352517D01*
X342122D01*
Y-352504D01*
X342134D01*
Y-352491D01*
X342147D01*
Y-352479D01*
X342160D01*
Y-352466D01*
X342172D01*
Y-352453D01*
X342185D01*
Y-352428D01*
X342198D01*
Y-352415D01*
X342210D01*
Y-352403D01*
X342223D01*
Y-352390D01*
X342236D01*
Y-352377D01*
X342249D01*
Y-352365D01*
X342261D01*
Y-352352D01*
X342274D01*
Y-352326D01*
X342299D01*
Y-352301D01*
X342312D01*
Y-352289D01*
X342325D01*
Y-352276D01*
X342337D01*
Y-352263D01*
X342350D01*
Y-352225D01*
X342337D01*
Y-352238D01*
X342033D01*
Y-352250D01*
X342020D01*
Y-352263D01*
X342007D01*
Y-352276D01*
X341995D01*
Y-352289D01*
X341982D01*
Y-352301D01*
X341969D01*
Y-352326D01*
X341957D01*
Y-352339D01*
X341944D01*
Y-352352D01*
X341931D01*
Y-352365D01*
X341919D01*
Y-352377D01*
X341906D01*
Y-352390D01*
X341893D01*
Y-352403D01*
X341881D01*
Y-352415D01*
X341868D01*
Y-352428D01*
X341855D01*
Y-352441D01*
X341843D01*
Y-352453D01*
X341830D01*
Y-352466D01*
X341817D01*
Y-352479D01*
X341805D01*
Y-352491D01*
X341792D01*
Y-352504D01*
X341779D01*
Y-352517D01*
X341766D01*
Y-352530D01*
X341754D01*
Y-352542D01*
X341741D01*
Y-352555D01*
X341728D01*
Y-352568D01*
X341716D01*
Y-352580D01*
X341703D01*
Y-352593D01*
X341690D01*
Y-352606D01*
X341678D01*
Y-352618D01*
X341665D01*
Y-352631D01*
X341652D01*
Y-352644D01*
X341640D01*
Y-352656D01*
X341627D01*
Y-352669D01*
X341614D01*
Y-352682D01*
X341601D01*
Y-352694D01*
X341589D01*
Y-352707D01*
X341576D01*
Y-352720D01*
X341563D01*
Y-352732D01*
X341551D01*
Y-352745D01*
X341538D01*
Y-352758D01*
X341525D01*
Y-352770D01*
X341513D01*
Y-352783D01*
X341500D01*
Y-352796D01*
X341475D01*
Y-352809D01*
X341462D01*
Y-352821D01*
X341449D01*
Y-352834D01*
X341437D01*
Y-352847D01*
X341424D01*
Y-352859D01*
X341411D01*
Y-352872D01*
X341399D01*
Y-352885D01*
X341386D01*
Y-352897D01*
X341360D01*
Y-352910D01*
X341348D01*
Y-352923D01*
X341335D01*
Y-352935D01*
X341322D01*
Y-352948D01*
X341310D01*
Y-352961D01*
X341297D01*
Y-352974D01*
X341272D01*
Y-352986D01*
X341259D01*
Y-352999D01*
X341246D01*
Y-353012D01*
X341234D01*
Y-353024D01*
X341221D01*
Y-353037D01*
X341208D01*
Y-353050D01*
X341183D01*
Y-353062D01*
X341170D01*
Y-353075D01*
X341158D01*
Y-353088D01*
X341145D01*
Y-353100D01*
X341120D01*
Y-353113D01*
X341107D01*
Y-353126D01*
X341094D01*
Y-353138D01*
X341081D01*
Y-353151D01*
X341056D01*
Y-353164D01*
X341043D01*
Y-353176D01*
X341031D01*
Y-353189D01*
X341018D01*
Y-353202D01*
X340993D01*
Y-353215D01*
X340980D01*
Y-353227D01*
X340967D01*
Y-353240D01*
X340942D01*
Y-353253D01*
X340929D01*
Y-353265D01*
X340916D01*
Y-353278D01*
X340891D01*
Y-353291D01*
X340878D01*
Y-353303D01*
X340853D01*
Y-353316D01*
X340840D01*
Y-353329D01*
X340828D01*
Y-353341D01*
X340802D01*
Y-353354D01*
X340790D01*
Y-353367D01*
X340777D01*
Y-353379D01*
X340752D01*
Y-353392D01*
X340739D01*
Y-353405D01*
X340714D01*
Y-353417D01*
X340701D01*
Y-353430D01*
X340688D01*
Y-353443D01*
X340663D01*
Y-353456D01*
X340650D01*
Y-353468D01*
X340625D01*
Y-353481D01*
X340612D01*
Y-353494D01*
X340587D01*
Y-353506D01*
X340574D01*
Y-353519D01*
X340549D01*
Y-353532D01*
X340536D01*
Y-353544D01*
X340511D01*
Y-353557D01*
X340498D01*
Y-353570D01*
X340473D01*
Y-353582D01*
X340460D01*
Y-353595D01*
X340434D01*
Y-353608D01*
X340409D01*
Y-353621D01*
X340396D01*
Y-353633D01*
X340371D01*
Y-353646D01*
X340358D01*
Y-353659D01*
X340333D01*
Y-353671D01*
X340308D01*
Y-353684D01*
X340295D01*
Y-353697D01*
X340269D01*
Y-353709D01*
X340244D01*
Y-353722D01*
X340231D01*
Y-353735D01*
X340206D01*
Y-353747D01*
X340181D01*
Y-353760D01*
X340168D01*
Y-353773D01*
X340143D01*
Y-353785D01*
X340117D01*
Y-353798D01*
X340105D01*
Y-353811D01*
X340079D01*
Y-353823D01*
X340054D01*
Y-353836D01*
X340029D01*
Y-353849D01*
X340003D01*
Y-353861D01*
X339990D01*
Y-353874D01*
X339952D01*
Y-353887D01*
X339940D01*
Y-353900D01*
X339914D01*
Y-353912D01*
X339889D01*
Y-353925D01*
X339864D01*
Y-353938D01*
X339838D01*
Y-353950D01*
X339813D01*
Y-353963D01*
X339800D01*
Y-353976D01*
X339762D01*
Y-353988D01*
X339737D01*
Y-354001D01*
X339724D01*
Y-354014D01*
X339686D01*
Y-354026D01*
X339661D01*
Y-354039D01*
X339635D01*
Y-354052D01*
X339610D01*
Y-354064D01*
X339584D01*
Y-354077D01*
X339559D01*
Y-354090D01*
X339521D01*
Y-354102D01*
X339508D01*
Y-354115D01*
X339470D01*
Y-354128D01*
X339445D01*
Y-354141D01*
X339420D01*
Y-354153D01*
X339382D01*
Y-354166D01*
X339356D01*
Y-354179D01*
X339318D01*
Y-354191D01*
X339293D01*
Y-354204D01*
X339267D01*
Y-354217D01*
X339229D01*
Y-354229D01*
X339204D01*
Y-354242D01*
X339179D01*
Y-354255D01*
X339141D01*
Y-354267D01*
X339115D01*
Y-354280D01*
X339077D01*
Y-354293D01*
X339039D01*
Y-354306D01*
X339014D01*
Y-354318D01*
X338976D01*
Y-354331D01*
X338937D01*
Y-354344D01*
X338912D01*
Y-354356D01*
X338861D01*
Y-354369D01*
X338836D01*
Y-354382D01*
X338798D01*
Y-354394D01*
X338760D01*
Y-354407D01*
X338722D01*
Y-354420D01*
X338671D01*
Y-354432D01*
X338646D01*
Y-354445D01*
X338595D01*
Y-354458D01*
X338557D01*
Y-354470D01*
X338519D01*
Y-354483D01*
X338468D01*
Y-354496D01*
X338417D01*
Y-354508D01*
X338379D01*
Y-354521D01*
X338329D01*
Y-354534D01*
X338291D01*
Y-354546D01*
X338240D01*
Y-354559D01*
X338176D01*
Y-354572D01*
X338138D01*
Y-354585D01*
X338075D01*
Y-354597D01*
X338024D01*
Y-354610D01*
X337973D01*
Y-354623D01*
X337897D01*
Y-354635D01*
X337847D01*
Y-354648D01*
X337783D01*
Y-354661D01*
X337694D01*
Y-354673D01*
X337644D01*
Y-354686D01*
X337567D01*
Y-354699D01*
X337466D01*
Y-354711D01*
X337403D01*
Y-354724D01*
X337288D01*
Y-354737D01*
X337187D01*
Y-354749D01*
X337047D01*
Y-354762D01*
X336857D01*
Y-354775D01*
X336743D01*
Y-354787D01*
X336654D01*
Y-354775D01*
X336641D01*
Y-354787D01*
X335969D01*
Y-354775D01*
X335855D01*
Y-354762D01*
X335830D01*
Y-354775D01*
X335817D01*
Y-354762D01*
X335665D01*
Y-354749D01*
X335525D01*
Y-354737D01*
X335436D01*
Y-354724D01*
X335310D01*
Y-354711D01*
X335246D01*
Y-354699D01*
X335157D01*
Y-354686D01*
X335068D01*
Y-354673D01*
X335018D01*
Y-354661D01*
X334929D01*
Y-354648D01*
X334865D01*
Y-354635D01*
X334815D01*
Y-354623D01*
X334739D01*
Y-354610D01*
X334688D01*
Y-354597D01*
X334637D01*
Y-354585D01*
X334574D01*
Y-354572D01*
X334536D01*
Y-354559D01*
X334472D01*
Y-354546D01*
X334421D01*
Y-354534D01*
X334383D01*
Y-354521D01*
X334333D01*
Y-354508D01*
X334295D01*
Y-354496D01*
X334244D01*
Y-354483D01*
X334193D01*
Y-354470D01*
X334168D01*
Y-354458D01*
X334117D01*
Y-354445D01*
X334066D01*
Y-354432D01*
X334041D01*
Y-354420D01*
X333990D01*
Y-354407D01*
X333965D01*
Y-354394D01*
X333927D01*
Y-354382D01*
X333876D01*
Y-354369D01*
X333851D01*
Y-354356D01*
X333813D01*
Y-354344D01*
X333774D01*
Y-354331D01*
X333749D01*
Y-354318D01*
X333698D01*
Y-354306D01*
X333673D01*
Y-354293D01*
X333648D01*
Y-354280D01*
X333597D01*
Y-354267D01*
X333584D01*
Y-354255D01*
X333546D01*
Y-354242D01*
X333508D01*
Y-354229D01*
X333483D01*
Y-354217D01*
X333445D01*
Y-354204D01*
X333419D01*
Y-354191D01*
X333394D01*
Y-354179D01*
X333356D01*
Y-354166D01*
X333330D01*
Y-354153D01*
X333305D01*
Y-354141D01*
X333267D01*
Y-354128D01*
X333242D01*
Y-354115D01*
X333216D01*
Y-354102D01*
X333191D01*
Y-354090D01*
X333166D01*
Y-354077D01*
X333128D01*
Y-354064D01*
X333115D01*
Y-354052D01*
X333077D01*
Y-354039D01*
X333051D01*
Y-354026D01*
X333026D01*
Y-354014D01*
X333001D01*
Y-354001D01*
X332975D01*
Y-353988D01*
X332950D01*
Y-353976D01*
X332925D01*
Y-353963D01*
X332899D01*
Y-353950D01*
X332874D01*
Y-353938D01*
X332849D01*
Y-353925D01*
X332823D01*
Y-353912D01*
X332798D01*
Y-353900D01*
X332772D01*
Y-353887D01*
X332760D01*
Y-353874D01*
X332734D01*
Y-353861D01*
X332709D01*
Y-353849D01*
X332684D01*
Y-353836D01*
X332658D01*
Y-353823D01*
X332646D01*
Y-353811D01*
X332620D01*
Y-353798D01*
X332595D01*
Y-353785D01*
X332569D01*
Y-353773D01*
X332544D01*
Y-353760D01*
X332531D01*
Y-353747D01*
X332506D01*
Y-353735D01*
X332481D01*
Y-353722D01*
X332468D01*
Y-353709D01*
X332442D01*
Y-353697D01*
X332417D01*
Y-353684D01*
X332404D01*
Y-353671D01*
X332379D01*
Y-353659D01*
X332366D01*
Y-353646D01*
X332341D01*
Y-353633D01*
X332316D01*
Y-353621D01*
X332303D01*
Y-353608D01*
X332278D01*
Y-353595D01*
X332265D01*
Y-353582D01*
X332240D01*
Y-353570D01*
X332214D01*
Y-353557D01*
X332202D01*
Y-353544D01*
X332176D01*
Y-353532D01*
X332164D01*
Y-353519D01*
X332151D01*
Y-353506D01*
X332125D01*
Y-353494D01*
X332100D01*
Y-353481D01*
X332087D01*
Y-353468D01*
X332062D01*
Y-353456D01*
X332049D01*
Y-353443D01*
X332037D01*
Y-353430D01*
X332011D01*
Y-353417D01*
X331998D01*
Y-353405D01*
X331973D01*
Y-353392D01*
X331961D01*
Y-353379D01*
X331948D01*
Y-353367D01*
X331922D01*
Y-353354D01*
X331910D01*
Y-353341D01*
X331884D01*
Y-353329D01*
X331872D01*
Y-353316D01*
X331859D01*
Y-353303D01*
X331834D01*
Y-353291D01*
X331821D01*
Y-353278D01*
X331808D01*
Y-353265D01*
X331783D01*
Y-353253D01*
X331770D01*
Y-353240D01*
X331757D01*
Y-353227D01*
X331732D01*
Y-353215D01*
X331719D01*
Y-353202D01*
X331707D01*
Y-353189D01*
X331694D01*
Y-353176D01*
X331669D01*
Y-353164D01*
X331656D01*
Y-353151D01*
X331643D01*
Y-353138D01*
X331618D01*
Y-353126D01*
X331605D01*
Y-353113D01*
X331593D01*
Y-353100D01*
X331580D01*
Y-353088D01*
X331555D01*
Y-353075D01*
X331542D01*
Y-353062D01*
X331529D01*
Y-353050D01*
X331517D01*
Y-353037D01*
X331504D01*
Y-353024D01*
X331478D01*
Y-353012D01*
X331466D01*
Y-352999D01*
X331453D01*
Y-352986D01*
X331440D01*
Y-352974D01*
X331428D01*
Y-352961D01*
X331402D01*
Y-352948D01*
X331390D01*
Y-352935D01*
X331377D01*
Y-352923D01*
X331364D01*
Y-352910D01*
X331352D01*
Y-352897D01*
X331339D01*
Y-352885D01*
X331326D01*
Y-352872D01*
X331301D01*
Y-352859D01*
X331288D01*
Y-352847D01*
X331276D01*
Y-352834D01*
X331263D01*
Y-352821D01*
X331250D01*
Y-352809D01*
X331237D01*
Y-352796D01*
X331225D01*
Y-352783D01*
X331212D01*
Y-352770D01*
X331199D01*
Y-352758D01*
X331174D01*
Y-352732D01*
X331161D01*
Y-352720D01*
X331136D01*
Y-352707D01*
X331123D01*
Y-352694D01*
X331111D01*
Y-352682D01*
X331098D01*
Y-352669D01*
X331085D01*
Y-352656D01*
X331072D01*
Y-352644D01*
X331060D01*
Y-352631D01*
X331047D01*
Y-352618D01*
X331034D01*
Y-352606D01*
X331022D01*
Y-352593D01*
X331009D01*
Y-352580D01*
X330996D01*
Y-352568D01*
X330984D01*
Y-352555D01*
X330971D01*
Y-352542D01*
X330958D01*
Y-352530D01*
X330946D01*
Y-352517D01*
X330933D01*
Y-352504D01*
X330920D01*
Y-352491D01*
X330908D01*
Y-352479D01*
X330895D01*
Y-352466D01*
X330882D01*
Y-352453D01*
X330870D01*
Y-352441D01*
X330857D01*
Y-352428D01*
X330844D01*
Y-352415D01*
X330832D01*
Y-352390D01*
X330806D01*
Y-352365D01*
X330793D01*
Y-352352D01*
X330768D01*
Y-352326D01*
X330755D01*
Y-352314D01*
X330743D01*
Y-352301D01*
X330730D01*
Y-352289D01*
X330717D01*
Y-352276D01*
X330705D01*
Y-352263D01*
X330692D01*
Y-352250D01*
X330679D01*
Y-352238D01*
X330667D01*
Y-352212D01*
X330654D01*
Y-352200D01*
X330641D01*
Y-352187D01*
X330628D01*
Y-352174D01*
X330616D01*
Y-352162D01*
X330603D01*
Y-352149D01*
X330591D01*
Y-352124D01*
X330578D01*
Y-352111D01*
X330565D01*
Y-352098D01*
X330552D01*
Y-352085D01*
X330540D01*
Y-352073D01*
X330527D01*
Y-352060D01*
X330514D01*
Y-352035D01*
X330502D01*
Y-352022D01*
X330489D01*
Y-352009D01*
X330476D01*
Y-351997D01*
X330464D01*
Y-351971D01*
X330451D01*
Y-351959D01*
X330438D01*
Y-351946D01*
X330426D01*
Y-351933D01*
X330413D01*
Y-351921D01*
X330400D01*
Y-351895D01*
X330387D01*
Y-351883D01*
X330375D01*
Y-351870D01*
X330362D01*
Y-351845D01*
X330349D01*
Y-351832D01*
X330337D01*
Y-351819D01*
X330324D01*
Y-351794D01*
X330311D01*
Y-351781D01*
X330299D01*
Y-351768D01*
X330286D01*
Y-351756D01*
X330273D01*
Y-351730D01*
X330261D01*
Y-351718D01*
X330248D01*
Y-351705D01*
X330235D01*
Y-351680D01*
X330223D01*
Y-351667D01*
X330210D01*
Y-351654D01*
X330197D01*
Y-351629D01*
X330185D01*
Y-351616D01*
X330172D01*
Y-351591D01*
X330159D01*
Y-351578D01*
X330147D01*
Y-351565D01*
X330134D01*
Y-351540D01*
X330121D01*
Y-351527D01*
X330108D01*
Y-351502D01*
X330096D01*
Y-351489D01*
X330083D01*
Y-351464D01*
X330070D01*
Y-351451D01*
X330058D01*
Y-351426D01*
X330045D01*
Y-351413D01*
X330032D01*
Y-351388D01*
X330020D01*
Y-351375D01*
X330007D01*
Y-351350D01*
X329994D01*
Y-351337D01*
X329981D01*
Y-351312D01*
X329969D01*
Y-351299D01*
X329956D01*
Y-351274D01*
X329943D01*
Y-351261D01*
X329931D01*
Y-351236D01*
X329918D01*
Y-351210D01*
X329905D01*
Y-351198D01*
X329893D01*
Y-351172D01*
X329880D01*
Y-351147D01*
X329867D01*
Y-351134D01*
X329855D01*
Y-351109D01*
X329842D01*
Y-351096D01*
X329829D01*
Y-351071D01*
X329817D01*
Y-351045D01*
X329804D01*
Y-351033D01*
X329791D01*
Y-351007D01*
X329779D01*
Y-350982D01*
X329766D01*
Y-350969D01*
X329753D01*
Y-350931D01*
X329741D01*
Y-350918D01*
X329728D01*
Y-350893D01*
X329715D01*
Y-350868D01*
X329702D01*
Y-350855D01*
X329690D01*
Y-350830D01*
X329677D01*
Y-350804D01*
X329664D01*
Y-350779D01*
X329652D01*
Y-350753D01*
X329639D01*
Y-350728D01*
X329626D01*
Y-350703D01*
X329614D01*
Y-350677D01*
X329601D01*
Y-350665D01*
X329588D01*
Y-350639D01*
X329576D01*
Y-350614D01*
X329563D01*
Y-350589D01*
X329550D01*
Y-350551D01*
X329538D01*
Y-350538D01*
X329525D01*
Y-350513D01*
X329512D01*
Y-350475D01*
X329500D01*
Y-350462D01*
X329487D01*
Y-350424D01*
X329474D01*
Y-350398D01*
X329461D01*
Y-350373D01*
X329449D01*
Y-350348D01*
X329436D01*
Y-350322D01*
X329423D01*
Y-350284D01*
X329411D01*
Y-350259D01*
X329398D01*
Y-350233D01*
X329385D01*
Y-350195D01*
X329373D01*
Y-350170D01*
X329360D01*
Y-350145D01*
X329347D01*
Y-350107D01*
X329335D01*
Y-350081D01*
X329322D01*
Y-350056D01*
X329309D01*
Y-350018D01*
X329296D01*
Y-349992D01*
X329284D01*
Y-349954D01*
X329271D01*
Y-349916D01*
X329258D01*
Y-349891D01*
X329246D01*
Y-349853D01*
X329233D01*
Y-349828D01*
X329220D01*
Y-349789D01*
X329208D01*
Y-349751D01*
X329195D01*
Y-349726D01*
X329182D01*
Y-349675D01*
X329170D01*
Y-349637D01*
X329157D01*
Y-349612D01*
X329144D01*
Y-349561D01*
X329132D01*
Y-349536D01*
X329119D01*
Y-349485D01*
X329106D01*
Y-349447D01*
X329094D01*
Y-349409D01*
X329081D01*
Y-349371D01*
X329068D01*
Y-349320D01*
X329056D01*
Y-349282D01*
X329043D01*
Y-349231D01*
X329030D01*
Y-349193D01*
X329017D01*
Y-349143D01*
X329005D01*
Y-349079D01*
X328992D01*
Y-349054D01*
X328979D01*
Y-348990D01*
X328967D01*
Y-348939D01*
X328954D01*
Y-348889D01*
X328941D01*
Y-348825D01*
X328929D01*
Y-348775D01*
X328916D01*
Y-348711D01*
X328903D01*
Y-348635D01*
X328891D01*
Y-348597D01*
X328878D01*
Y-348508D01*
X328865D01*
Y-348419D01*
X328853D01*
Y-348356D01*
X328840D01*
Y-348254D01*
X328827D01*
Y-348178D01*
X328815D01*
Y-348077D01*
X328802D01*
Y-347925D01*
X328789D01*
Y-347849D01*
X328776D01*
Y-347633D01*
X328764D01*
Y-347417D01*
D02*
G37*
%LPD*%
G36*
X345547Y-348496D02*
X345559D01*
Y-350753D01*
X344088D01*
Y-350741D01*
X344075D01*
Y-350715D01*
X344088D01*
Y-350703D01*
X344075D01*
Y-349028D01*
Y-349016D01*
Y-348508D01*
X344088D01*
Y-348483D01*
X345547D01*
Y-348496D01*
D02*
G37*
G36*
X341234Y-348445D02*
X341246D01*
Y-349498D01*
X341234D01*
Y-349510D01*
X339724D01*
Y-348711D01*
Y-348698D01*
Y-348445D01*
X339749D01*
Y-348432D01*
X339762D01*
Y-348445D01*
X341208D01*
Y-348432D01*
X341234D01*
Y-348445D01*
D02*
G37*
D17*
X205137Y-171912D02*
D03*
X235552Y-245696D02*
D03*
X206599Y-177018D02*
D03*
X208312Y-234394D02*
D03*
D18*
X206687Y-167187D02*
D03*
Y-162463D02*
D03*
X196687D02*
D03*
Y-167187D02*
D03*
Y-171912D02*
D03*
X244002Y-245696D02*
D03*
Y-250420D02*
D03*
Y-255145D02*
D03*
X234002D02*
D03*
Y-250420D02*
D03*
X215049Y-177018D02*
D03*
Y-181743D02*
D03*
Y-186467D02*
D03*
X205049D02*
D03*
Y-181743D02*
D03*
X199861Y-234394D02*
D03*
Y-229669D02*
D03*
Y-224945D02*
D03*
X209861D02*
D03*
Y-229669D02*
D03*
D19*
X192141Y-100781D02*
D03*
X189582D02*
D03*
X187023D02*
D03*
Y-95881D02*
D03*
X189582D02*
D03*
X192141D02*
D03*
X190240Y-170654D02*
D03*
X187681D02*
D03*
X185122D02*
D03*
Y-165754D02*
D03*
X187681D02*
D03*
X190240D02*
D03*
X191486Y-234037D02*
D03*
X188927D02*
D03*
X186368D02*
D03*
Y-229137D02*
D03*
X188927D02*
D03*
X191486D02*
D03*
X185992Y-253311D02*
D03*
X183432D02*
D03*
X180874D02*
D03*
Y-248411D02*
D03*
X183432D02*
D03*
X185992D02*
D03*
X187477Y-119919D02*
D03*
X184918D02*
D03*
X182359D02*
D03*
Y-115019D02*
D03*
X184918D02*
D03*
X187477D02*
D03*
X188719Y-186918D02*
D03*
X186160D02*
D03*
X183601D02*
D03*
Y-182018D02*
D03*
X186160D02*
D03*
X188719D02*
D03*
D24*
X204718Y-301413D02*
D03*
Y-330350D02*
D03*
X227749D02*
D03*
Y-301413D02*
D03*
D25*
X204718Y-304365D02*
D03*
Y-306925D02*
D03*
Y-309484D02*
D03*
Y-312043D02*
D03*
Y-314602D02*
D03*
Y-317161D02*
D03*
Y-319720D02*
D03*
Y-322279D02*
D03*
Y-324838D02*
D03*
Y-327397D02*
D03*
X227749D02*
D03*
Y-324838D02*
D03*
Y-322279D02*
D03*
Y-319720D02*
D03*
Y-317161D02*
D03*
Y-314602D02*
D03*
Y-312043D02*
D03*
Y-309484D02*
D03*
Y-306925D02*
D03*
Y-304365D02*
D03*
D29*
X344442Y-266480D02*
D03*
Y-278297D02*
D03*
D30*
X346903Y-203161D02*
D03*
Y-192919D02*
D03*
X337485Y-224112D02*
D03*
Y-213870D02*
D03*
X355288Y-224229D02*
D03*
Y-213987D02*
D03*
X346472Y-224229D02*
D03*
Y-213987D02*
D03*
D31*
X333707Y-198004D02*
D03*
Y-201773D02*
D03*
D32*
X326409Y-204892D02*
D03*
X329287D02*
D03*
X369208Y-255548D02*
D03*
X366330D02*
D03*
X207050Y-102623D02*
D03*
X209928D02*
D03*
X297871Y-150013D02*
D03*
X294992D02*
D03*
X246881Y-220289D02*
D03*
X249759D02*
D03*
X243234Y-367930D02*
D03*
X246112D02*
D03*
X243234Y-364039D02*
D03*
X246112D02*
D03*
X267495Y-336726D02*
D03*
X270373D02*
D03*
X267495Y-340548D02*
D03*
X270373D02*
D03*
X266723Y-350939D02*
D03*
X269601D02*
D03*
X266723Y-354916D02*
D03*
X269601D02*
D03*
D33*
X338910Y-197609D02*
D03*
Y-203120D02*
D03*
D34*
X335879Y-255194D02*
D03*
Y-245149D02*
D03*
X344934Y-255238D02*
D03*
Y-245192D02*
D03*
X201384Y-43403D02*
D03*
Y-33358D02*
D03*
X229208Y-40661D02*
D03*
Y-30616D02*
D03*
D35*
X353612Y-255530D02*
D03*
X355581D02*
D03*
X357549D02*
D03*
X359518D02*
D03*
Y-244900D02*
D03*
X357549D02*
D03*
X355581D02*
D03*
X353612D02*
D03*
D36*
X354793Y-248247D02*
D03*
Y-252184D02*
D03*
X358336Y-250215D02*
D03*
D37*
X359911Y-252184D02*
D03*
D40*
X333469Y-265634D02*
D03*
Y-278626D02*
D03*
X355581Y-203590D02*
D03*
Y-190597D02*
D03*
X219519Y-42135D02*
D03*
Y-29143D02*
D03*
D41*
X330426Y-213787D02*
D03*
Y-217461D02*
D03*
D42*
X327553Y-200046D02*
D03*
Y-194141D02*
D03*
D43*
X327848Y-184704D02*
D03*
Y-188658D02*
D03*
D45*
X349599Y-164733D02*
D03*
X330599D02*
D03*
X349599Y-145733D02*
D03*
X330599D02*
D03*
X241711Y-150013D02*
D03*
X269143Y-150090D02*
D03*
X260388Y-84114D02*
D03*
X231461Y-84154D02*
D03*
X275300Y-195109D02*
D03*
X256300D02*
D03*
X275300Y-176109D02*
D03*
X256300D02*
D03*
X293171Y-278042D02*
D03*
X274171D02*
D03*
X293171Y-259042D02*
D03*
X274171D02*
D03*
X309798Y-241606D02*
D03*
X290798D02*
D03*
X309798Y-222606D02*
D03*
X290798D02*
D03*
X351081Y-99732D02*
D03*
X332081D02*
D03*
X351081Y-80732D02*
D03*
X332081D02*
D03*
X258338Y-128733D02*
D03*
X239338D02*
D03*
X258338Y-109733D02*
D03*
X239338D02*
D03*
D46*
X340099Y-155233D02*
D03*
X265800Y-185609D02*
D03*
X283671Y-268542D02*
D03*
X300298Y-232106D02*
D03*
X341581Y-90232D02*
D03*
X248838Y-119233D02*
D03*
D47*
X302640Y-159466D02*
D03*
X306015D02*
D03*
X301069Y-92604D02*
D03*
X304444D02*
D03*
X259468Y-229967D02*
D03*
X256093D02*
D03*
D52*
X244664Y-155513D02*
D03*
X242695D02*
D03*
X240727D02*
D03*
X238758D02*
D03*
Y-144513D02*
D03*
X240727D02*
D03*
X242695D02*
D03*
X244664D02*
D03*
X272096Y-155589D02*
D03*
X270127D02*
D03*
X268159D02*
D03*
X266190D02*
D03*
Y-144589D02*
D03*
X268159D02*
D03*
X270127D02*
D03*
X272096D02*
D03*
X263341Y-89614D02*
D03*
X261372D02*
D03*
X259404D02*
D03*
X257435D02*
D03*
Y-78614D02*
D03*
X259404D02*
D03*
X261372D02*
D03*
X263341D02*
D03*
X234413Y-89654D02*
D03*
X232445D02*
D03*
X230476D02*
D03*
X228508D02*
D03*
Y-78654D02*
D03*
X230476D02*
D03*
X232445D02*
D03*
X234413D02*
D03*
D53*
X236211Y-152966D02*
D03*
Y-150998D02*
D03*
Y-149029D02*
D03*
Y-147061D02*
D03*
X247211D02*
D03*
Y-149029D02*
D03*
Y-150998D02*
D03*
Y-152966D02*
D03*
X263643Y-153042D02*
D03*
Y-151074D02*
D03*
Y-149105D02*
D03*
Y-147137D02*
D03*
X274643D02*
D03*
Y-149105D02*
D03*
Y-151074D02*
D03*
Y-153042D02*
D03*
X254888Y-87067D02*
D03*
Y-85099D02*
D03*
Y-83130D02*
D03*
Y-81162D02*
D03*
X265888D02*
D03*
Y-83130D02*
D03*
Y-85099D02*
D03*
Y-87067D02*
D03*
X225961Y-87107D02*
D03*
Y-85138D02*
D03*
Y-83170D02*
D03*
Y-81201D02*
D03*
X236961D02*
D03*
Y-83170D02*
D03*
Y-85138D02*
D03*
Y-87107D02*
D03*
D56*
X292511Y-80223D02*
D03*
Y-83101D02*
D03*
X192132Y-256998D02*
D03*
Y-259876D02*
D03*
D58*
X274016Y-208268D02*
D03*
Y-219291D02*
D03*
D59*
X264228Y-229545D02*
D03*
Y-226170D02*
D03*
D60*
X258795Y-220289D02*
D03*
X261191D02*
D03*
D65*
X200023Y-19934D02*
D03*
X176322D02*
D03*
D68*
X127320Y-345359D02*
D03*
X132049D02*
D03*
X127320Y-339307D02*
D03*
X132049D02*
D03*
X127320Y-333394D02*
D03*
X132049D02*
D03*
X90427Y-335177D02*
D03*
X85698D02*
D03*
X84652Y-302507D02*
D03*
X79924D02*
D03*
D71*
X77362Y-292447D02*
D03*
X86023D02*
D03*
Y-285754D02*
D03*
X77362D02*
D03*
D72*
X71713Y-288138D02*
D03*
Y-291287D02*
D03*
D73*
X80162Y-280507D02*
D03*
X83311D02*
D03*
D74*
X117853Y-290816D02*
D03*
Y-286087D02*
D03*
D75*
X119783Y-349860D02*
D03*
X104884D02*
D03*
D77*
X375590Y-341791D02*
D03*
X370866D02*
D03*
D78*
X362830Y-327669D02*
D03*
X365980D02*
D03*
D79*
X303153Y-56265D02*
D03*
Y-38265D02*
D03*
D80*
X275903Y-47265D02*
D03*
D82*
X263066Y-305321D02*
D03*
D83*
Y-309061D02*
D03*
Y-312801D02*
D03*
X271461D02*
D03*
Y-305321D02*
D03*
D84*
X289158Y-336569D02*
D03*
X291126D02*
D03*
X293095D02*
D03*
X295063D02*
D03*
X297032D02*
D03*
X299000D02*
D03*
X300969D02*
D03*
X302937D02*
D03*
Y-355466D02*
D03*
X300969D02*
D03*
X299000D02*
D03*
X297032D02*
D03*
X295063D02*
D03*
X293095D02*
D03*
X291126D02*
D03*
X289158D02*
D03*
D85*
X305496Y-339128D02*
D03*
Y-341096D02*
D03*
Y-343065D02*
D03*
Y-345033D02*
D03*
Y-347002D02*
D03*
Y-348970D02*
D03*
Y-350939D02*
D03*
Y-352907D02*
D03*
X286599D02*
D03*
Y-350939D02*
D03*
Y-348970D02*
D03*
Y-347002D02*
D03*
Y-345033D02*
D03*
Y-343065D02*
D03*
Y-341096D02*
D03*
Y-339128D02*
D03*
D86*
X210560Y-29340D02*
D03*
Y-42725D02*
D03*
D87*
X246838Y-44100D02*
D03*
Y-18116D02*
D03*
D94*
X118504Y-390698D02*
D03*
D95*
X216142Y-404084D02*
D03*
D96*
X121602Y-304685D02*
D03*
Y-306259D02*
D03*
Y-325157D02*
D03*
Y-323582D02*
D03*
Y-322007D02*
D03*
Y-320433D02*
D03*
Y-318858D02*
D03*
Y-317283D02*
D03*
Y-315708D02*
D03*
Y-314133D02*
D03*
Y-312559D02*
D03*
Y-310984D02*
D03*
Y-309409D02*
D03*
Y-307834D02*
D03*
X94634Y-304685D02*
D03*
Y-306259D02*
D03*
Y-307834D02*
D03*
Y-309409D02*
D03*
Y-310984D02*
D03*
Y-312559D02*
D03*
Y-314133D02*
D03*
Y-315708D02*
D03*
Y-317283D02*
D03*
Y-318858D02*
D03*
Y-320433D02*
D03*
Y-322007D02*
D03*
Y-323582D02*
D03*
Y-325157D02*
D03*
D97*
X108118Y-314921D02*
D03*
D98*
X118354Y-301437D02*
D03*
X116780D02*
D03*
X115205D02*
D03*
X113630D02*
D03*
X112055D02*
D03*
X110480D02*
D03*
X108906D02*
D03*
X107331D02*
D03*
X105756D02*
D03*
X104181D02*
D03*
X102606D02*
D03*
X101032D02*
D03*
X99457D02*
D03*
X97882D02*
D03*
Y-328405D02*
D03*
X99457D02*
D03*
X101032D02*
D03*
X102606D02*
D03*
X104181D02*
D03*
X105756D02*
D03*
X107331D02*
D03*
X108906D02*
D03*
X110480D02*
D03*
X112055D02*
D03*
X113630D02*
D03*
X115205D02*
D03*
X116780D02*
D03*
X118354D02*
D03*
D99*
X117527Y-190244D02*
D03*
Y-187094D02*
D03*
Y-183945D02*
D03*
Y-180795D02*
D03*
Y-177646D02*
D03*
Y-174496D02*
D03*
Y-171346D02*
D03*
Y-168197D02*
D03*
Y-165047D02*
D03*
Y-161898D02*
D03*
X149810Y-188669D02*
D03*
Y-185520D02*
D03*
Y-182370D02*
D03*
Y-179220D02*
D03*
Y-176071D02*
D03*
Y-172921D02*
D03*
Y-169772D02*
D03*
Y-166622D02*
D03*
Y-163472D02*
D03*
Y-160323D02*
D03*
X117527Y-123527D02*
D03*
Y-120378D02*
D03*
Y-117228D02*
D03*
Y-114079D02*
D03*
Y-110929D02*
D03*
Y-107779D02*
D03*
Y-104630D02*
D03*
Y-101480D02*
D03*
Y-98331D02*
D03*
Y-95181D02*
D03*
X149810Y-121953D02*
D03*
Y-118803D02*
D03*
Y-115653D02*
D03*
Y-112504D02*
D03*
Y-109354D02*
D03*
Y-106205D02*
D03*
Y-103055D02*
D03*
Y-99905D02*
D03*
Y-96756D02*
D03*
Y-93606D02*
D03*
Y-227039D02*
D03*
Y-230189D02*
D03*
Y-233339D02*
D03*
Y-236488D02*
D03*
Y-239638D02*
D03*
Y-242787D02*
D03*
Y-245937D02*
D03*
Y-249087D02*
D03*
Y-252236D02*
D03*
Y-255386D02*
D03*
X117527Y-228614D02*
D03*
Y-231764D02*
D03*
Y-234913D02*
D03*
Y-238063D02*
D03*
Y-241213D02*
D03*
Y-244362D02*
D03*
Y-247512D02*
D03*
Y-250661D02*
D03*
Y-253811D02*
D03*
Y-256961D02*
D03*
D100*
X235258Y-234913D02*
D03*
Y-236488D02*
D03*
Y-238063D02*
D03*
X233683D02*
D03*
Y-236488D02*
D03*
Y-234913D02*
D03*
X207524Y-256286D02*
D03*
Y-254711D02*
D03*
Y-253137D02*
D03*
X209099D02*
D03*
Y-254711D02*
D03*
Y-256286D02*
D03*
D101*
X204492Y-115685D02*
D03*
X206008Y-116669D02*
D03*
Y-114701D02*
D03*
X207523Y-116669D02*
D03*
Y-114701D02*
D03*
X199451Y-94877D02*
D03*
X197935Y-93893D02*
D03*
Y-95861D02*
D03*
X196419Y-93893D02*
D03*
Y-95861D02*
D03*
D102*
X174722Y-100791D02*
D03*
Y-104138D02*
D03*
Y-95279D02*
D03*
Y-91933D02*
D03*
X172851Y-167801D02*
D03*
Y-171147D02*
D03*
Y-162849D02*
D03*
Y-159502D02*
D03*
X173557Y-234132D02*
D03*
Y-237479D02*
D03*
Y-229226D02*
D03*
Y-225879D02*
D03*
X174722Y-114995D02*
D03*
Y-111648D02*
D03*
X174583Y-119792D02*
D03*
Y-123138D02*
D03*
X175777Y-256202D02*
D03*
Y-252856D02*
D03*
X175841Y-248824D02*
D03*
Y-245477D02*
D03*
X175460Y-186280D02*
D03*
Y-189626D02*
D03*
X175380Y-182164D02*
D03*
Y-178818D02*
D03*
X275809Y-358263D02*
D03*
Y-354916D02*
D03*
Y-348142D02*
D03*
Y-351489D02*
D03*
X275785Y-344266D02*
D03*
Y-340919D02*
D03*
Y-333361D02*
D03*
Y-336708D02*
D03*
D103*
X327858Y-329339D02*
D03*
X331205D02*
D03*
X352519Y-235039D02*
D03*
X355865D02*
D03*
X310377Y-298120D02*
D03*
X307030D02*
D03*
X324535Y-306683D02*
D03*
X327881D02*
D03*
X371734Y-336314D02*
D03*
X375081D02*
D03*
X270736Y-332718D02*
D03*
X267390D02*
D03*
D104*
X364521Y-213028D02*
D03*
X374954D02*
D03*
X228257Y-20605D02*
D03*
X217824D02*
D03*
D105*
X356364Y-230857D02*
D03*
X352623D02*
D03*
D106*
X378399Y-247083D02*
D03*
Y-225429D02*
D03*
D107*
X312841Y-168470D02*
D03*
Y-160990D02*
D03*
X321502D02*
D03*
X319339Y-97441D02*
D03*
X310678D02*
D03*
Y-104921D02*
D03*
X228082Y-125496D02*
D03*
X219421D02*
D03*
Y-132976D02*
D03*
D108*
X321502Y-167683D02*
D03*
X319339Y-104134D02*
D03*
X228082Y-132189D02*
D03*
D109*
X294365Y-156907D02*
D03*
Y-159466D02*
D03*
Y-162025D02*
D03*
X284916D02*
D03*
Y-159466D02*
D03*
Y-156907D02*
D03*
X205167Y-96836D02*
D03*
Y-94277D02*
D03*
Y-91718D02*
D03*
X214615D02*
D03*
Y-94277D02*
D03*
Y-96836D02*
D03*
X292055Y-90045D02*
D03*
Y-92604D02*
D03*
Y-95163D02*
D03*
X282607D02*
D03*
Y-92604D02*
D03*
Y-90045D02*
D03*
X216689Y-168485D02*
D03*
Y-165927D02*
D03*
Y-163367D02*
D03*
X226138D02*
D03*
Y-165927D02*
D03*
Y-168485D02*
D03*
X219165Y-232228D02*
D03*
Y-229669D02*
D03*
Y-227110D02*
D03*
X228614D02*
D03*
Y-229669D02*
D03*
Y-232228D02*
D03*
X250387Y-227346D02*
D03*
Y-229905D02*
D03*
Y-232464D02*
D03*
X240938D02*
D03*
Y-229905D02*
D03*
Y-227346D02*
D03*
X192307Y-251083D02*
D03*
Y-248524D02*
D03*
Y-245965D02*
D03*
X201755D02*
D03*
Y-248524D02*
D03*
Y-251083D02*
D03*
X225040Y-247185D02*
D03*
Y-249745D02*
D03*
Y-252304D02*
D03*
X215591D02*
D03*
Y-249745D02*
D03*
Y-247185D02*
D03*
D110*
X252958Y-151115D02*
D03*
X256816D02*
D03*
X225870Y-150998D02*
D03*
X229729D02*
D03*
X281190Y-151115D02*
D03*
X285048D02*
D03*
X272610Y-85062D02*
D03*
X276468D02*
D03*
X244042Y-85083D02*
D03*
X247901D02*
D03*
X214860Y-85571D02*
D03*
X218719D02*
D03*
X197772Y-115606D02*
D03*
X193914D02*
D03*
X226975Y-181872D02*
D03*
X223116D02*
D03*
X198046Y-181743D02*
D03*
X194188D02*
D03*
D111*
X270864Y-234547D02*
D03*
X278344D02*
D03*
Y-243208D02*
D03*
X260679Y-269973D02*
D03*
Y-261312D02*
D03*
X253199D02*
D03*
X242838Y-198098D02*
D03*
Y-189437D02*
D03*
X235358D02*
D03*
D112*
X271651Y-243208D02*
D03*
X253986Y-269973D02*
D03*
X236145Y-198098D02*
D03*
X61395Y-307281D02*
D03*
D113*
X214079Y-118997D02*
D03*
Y-115138D02*
D03*
D114*
X312147Y-302746D02*
D03*
X313722D02*
D03*
X315297D02*
D03*
X316872D02*
D03*
Y-312195D02*
D03*
X315297D02*
D03*
X313722D02*
D03*
X312147D02*
D03*
D115*
X317659Y-305108D02*
D03*
Y-306683D02*
D03*
Y-308258D02*
D03*
Y-309833D02*
D03*
X311360D02*
D03*
Y-308258D02*
D03*
Y-306683D02*
D03*
D116*
X311557Y-305108D02*
D03*
D117*
X303568Y-304442D02*
D03*
X307112D02*
D03*
D118*
X150181Y-401427D02*
D03*
X154118D02*
D03*
X158055D02*
D03*
X161992D02*
D03*
X165929D02*
D03*
X169866D02*
D03*
X173803D02*
D03*
X177740D02*
D03*
X181677D02*
D03*
X185614D02*
D03*
X189551D02*
D03*
X201362D02*
D03*
X205299D02*
D03*
X209236D02*
D03*
X213173D02*
D03*
X217110D02*
D03*
X221047D02*
D03*
X224984D02*
D03*
X228921D02*
D03*
X232858D02*
D03*
X236795D02*
D03*
X240732D02*
D03*
X244669D02*
D03*
X248606D02*
D03*
X252543D02*
D03*
X256480D02*
D03*
X260417D02*
D03*
X264354D02*
D03*
X268291D02*
D03*
X272228D02*
D03*
X280102D02*
D03*
D119*
X156615Y-341304D02*
D03*
X161615D02*
D03*
X166615D02*
D03*
X171615D02*
D03*
X156615Y-312761D02*
D03*
X161615D02*
D03*
X166615D02*
D03*
X171615D02*
D03*
D120*
X128791Y-360539D02*
D03*
X131744D02*
D03*
X95126Y-293118D02*
D03*
X92173D02*
D03*
X95126Y-286541D02*
D03*
X92173D02*
D03*
X184215Y-374572D02*
D03*
X181262D02*
D03*
X171616Y-363224D02*
D03*
X174569D02*
D03*
Y-366670D02*
D03*
X171616D02*
D03*
D121*
X112324Y-286000D02*
D03*
Y-283047D02*
D03*
X108627Y-288018D02*
D03*
Y-285065D02*
D03*
X101616Y-286000D02*
D03*
Y-283047D02*
D03*
X105214Y-286000D02*
D03*
Y-283047D02*
D03*
X334656Y-329795D02*
D03*
Y-332747D02*
D03*
X211641Y-374971D02*
D03*
X207555D02*
D03*
Y-377924D02*
D03*
X227627Y-362732D02*
D03*
Y-365684D02*
D03*
X231458Y-373448D02*
D03*
Y-376401D02*
D03*
X211641Y-377924D02*
D03*
D122*
X356680Y-333462D02*
D03*
Y-331493D02*
D03*
Y-329525D02*
D03*
Y-327556D02*
D03*
X343294Y-333462D02*
D03*
Y-331493D02*
D03*
Y-329525D02*
D03*
Y-327556D02*
D03*
D123*
X259634Y-350829D02*
D03*
Y-347286D02*
D03*
X259978Y-355258D02*
D03*
Y-358801D02*
D03*
X263185Y-358801D02*
D03*
Y-355258D02*
D03*
X263071Y-347308D02*
D03*
Y-350852D02*
D03*
D124*
X296047Y-346018D02*
D03*
D125*
X285215Y-15966D02*
D03*
X273601D02*
D03*
D126*
X273404Y-24899D02*
D03*
Y-30332D02*
D03*
D127*
X193623Y-34019D02*
D03*
Y-39530D02*
D03*
D128*
X277068Y-305234D02*
D03*
X281596D02*
D03*
D129*
X279405Y-313848D02*
D03*
X284917D02*
D03*
D130*
X276165Y-399477D02*
D03*
D131*
X246193Y-329586D02*
D03*
X388189Y-351496D02*
D03*
D132*
X246193Y-319586D02*
D03*
Y-309586D02*
D03*
Y-299586D02*
D03*
X388189Y-321496D02*
D03*
Y-331496D02*
D03*
Y-341496D02*
D03*
D133*
X133669Y-156386D02*
D03*
Y-194181D02*
D03*
Y-89669D02*
D03*
Y-127464D02*
D03*
Y-260898D02*
D03*
Y-223102D02*
D03*
D134*
X153354Y-135831D02*
D03*
X133668Y-79728D02*
D03*
X113984Y-135831D02*
D03*
X94298Y-123350D02*
D03*
Y-102090D02*
D03*
Y-79728D02*
D03*
X74613Y-135831D02*
D03*
X54928Y-79728D02*
D03*
X15558D02*
D03*
Y-113508D02*
D03*
X35243Y-135831D02*
D03*
X153354Y-202547D02*
D03*
X133669Y-146445D02*
D03*
X113984Y-202547D02*
D03*
X94298Y-190067D02*
D03*
Y-168807D02*
D03*
Y-146445D02*
D03*
X74613Y-202547D02*
D03*
X54928Y-146445D02*
D03*
X15558D02*
D03*
Y-180224D02*
D03*
X35243Y-202547D02*
D03*
X153354Y-269264D02*
D03*
X133668Y-213161D02*
D03*
X113984Y-269264D02*
D03*
X94298Y-256784D02*
D03*
Y-235524D02*
D03*
Y-213161D02*
D03*
X74613Y-269264D02*
D03*
X54928Y-213161D02*
D03*
X15558D02*
D03*
Y-246941D02*
D03*
X35243Y-269264D02*
D03*
D135*
X161621Y-126677D02*
D03*
Y-107779D02*
D03*
Y-88882D02*
D03*
X143511Y-135850D02*
D03*
Y-79708D02*
D03*
X123826D02*
D03*
Y-135850D02*
D03*
X105322Y-79708D02*
D03*
Y-135850D02*
D03*
X161621Y-193394D02*
D03*
Y-174496D02*
D03*
Y-155598D02*
D03*
X143511Y-202567D02*
D03*
Y-146425D02*
D03*
X123826D02*
D03*
Y-202567D02*
D03*
X105322Y-146425D02*
D03*
Y-202567D02*
D03*
X161621Y-260110D02*
D03*
Y-241213D02*
D03*
Y-222315D02*
D03*
X143511Y-269284D02*
D03*
Y-213142D02*
D03*
X123826D02*
D03*
Y-269284D02*
D03*
X105322Y-213142D02*
D03*
Y-269284D02*
D03*
D136*
X25395Y-304281D02*
D03*
Y-342281D02*
D03*
D137*
X10395Y-293681D02*
D03*
X-9605D02*
D03*
X395D02*
D03*
Y-352881D02*
D03*
X-9605D02*
D03*
D138*
X25395Y-288681D02*
D03*
Y-357881D02*
D03*
D139*
X61395Y-347281D02*
D03*
X51395Y-343281D02*
D03*
X61395Y-339281D02*
D03*
Y-331281D02*
D03*
Y-299281D02*
D03*
X51395Y-335281D02*
D03*
Y-327281D02*
D03*
Y-319281D02*
D03*
Y-311281D02*
D03*
Y-303281D02*
D03*
X61395Y-315281D02*
D03*
D140*
X21610Y3543D02*
D03*
X24548Y-376772D02*
D03*
D141*
X340754Y-23476D02*
D03*
D142*
Y-40011D02*
D03*
Y-56547D02*
D03*
X319100Y-23476D02*
D03*
Y-40011D02*
D03*
Y-56547D02*
D03*
D143*
X217878Y-173799D02*
D03*
X203100Y-174496D02*
D03*
X184918Y-174342D02*
D03*
X182325Y-175157D02*
D03*
X179177Y-173262D02*
D03*
X193140Y-158490D02*
D03*
X188927Y-158746D02*
D03*
X184607Y-157998D02*
D03*
X181677Y-157190D02*
D03*
X172851Y-173905D02*
D03*
X170237Y-156258D02*
D03*
X356879Y-149233D02*
D03*
X187836Y-239332D02*
D03*
X268080Y-253194D02*
D03*
X213563Y-341488D02*
D03*
X208102Y-296001D02*
D03*
X205750Y-335087D02*
D03*
X226464Y-337836D02*
D03*
X219272Y-296001D02*
D03*
X330922Y-306591D02*
D03*
X291676Y-189499D02*
D03*
X316240Y-183897D02*
D03*
X272069Y-122202D02*
D03*
X324621Y-125234D02*
D03*
X354465Y-116849D02*
D03*
X324869Y-328523D02*
D03*
X106708Y-261484D02*
D03*
X106491Y-223570D02*
D03*
X106203Y-158000D02*
D03*
X106465Y-195108D02*
D03*
X107012Y-88139D02*
D03*
X111913Y-95190D02*
D03*
X223512Y-257570D02*
D03*
X219402Y-257912D02*
D03*
X205729Y-275563D02*
D03*
X211798D02*
D03*
X220319D02*
D03*
X229542Y-273409D02*
D03*
X232710Y-272989D02*
D03*
X225326Y-260740D02*
D03*
X211530Y-240611D02*
D03*
X168898Y-104243D02*
D03*
X166615Y-104031D02*
D03*
X170237Y-93615D02*
D03*
X166615Y-93785D02*
D03*
X199213Y-331370D02*
D03*
X168898Y-127724D02*
D03*
X167323Y-122543D02*
D03*
X168898Y-124512D02*
D03*
X172375Y-125973D02*
D03*
X175765Y-127287D02*
D03*
X178563Y-123772D02*
D03*
X182359Y-125776D02*
D03*
X191457Y-121424D02*
D03*
X196117Y-121248D02*
D03*
X199542Y-121109D02*
D03*
X203100Y-121319D02*
D03*
X209731Y-122937D02*
D03*
X210560Y-125973D02*
D03*
X213364Y-129236D02*
D03*
X225111Y-122038D02*
D03*
X228869Y-121997D02*
D03*
X232871Y-123772D02*
D03*
X232945Y-127464D02*
D03*
X233145Y-131008D02*
D03*
X235258Y-134945D02*
D03*
X239682D02*
D03*
X244042D02*
D03*
X248838D02*
D03*
X252800D02*
D03*
X256935D02*
D03*
X261902Y-136949D02*
D03*
X265355Y-132626D02*
D03*
X265800Y-129236D02*
D03*
X265353Y-125776D02*
D03*
X265587Y-122175D02*
D03*
Y-118766D02*
D03*
Y-114701D02*
D03*
X265888Y-111015D02*
D03*
X266092Y-106233D02*
D03*
X263888Y-103842D02*
D03*
X259800Y-103456D02*
D03*
X256287Y-103626D02*
D03*
X252800Y-103456D02*
D03*
X248838D02*
D03*
X244807D02*
D03*
X240993Y-103626D02*
D03*
X237496Y-103456D02*
D03*
X233474Y-104994D02*
D03*
X232871Y-108294D02*
D03*
Y-111648D02*
D03*
X232617Y-114534D02*
D03*
X229008Y-114303D02*
D03*
X226386Y-114669D02*
D03*
X222676Y-114534D02*
D03*
X220143Y-116013D02*
D03*
X219519Y-113959D02*
D03*
X219997Y-110929D02*
D03*
X214871Y-108878D02*
D03*
X211890Y-108983D02*
D03*
X208442D02*
D03*
X203100Y-109821D02*
D03*
X200134Y-109945D02*
D03*
X196679Y-109733D02*
D03*
X193010Y-109821D02*
D03*
X189419Y-108983D02*
D03*
X181869Y-109405D02*
D03*
X178702Y-112346D02*
D03*
X177061Y-109354D02*
D03*
X172011Y-109405D02*
D03*
X168898Y-111520D02*
D03*
X166615D02*
D03*
X175024Y-107301D02*
D03*
X171569Y-106233D02*
D03*
X180874Y-105873D02*
D03*
X184301Y-105529D02*
D03*
X188019Y-105614D02*
D03*
X191457Y-104994D02*
D03*
X194647Y-103758D02*
D03*
X197571Y-101907D02*
D03*
X201790Y-99905D02*
D03*
X215631Y-102464D02*
D03*
X223116Y-93917D02*
D03*
X226386Y-93892D02*
D03*
X218702Y-101907D02*
D03*
X221797D02*
D03*
X224922Y-101378D02*
D03*
X228508Y-101678D02*
D03*
X232317Y-101635D02*
D03*
X235838Y-101378D02*
D03*
X239501Y-101678D02*
D03*
X242976Y-101615D02*
D03*
X238335Y-93490D02*
D03*
X241702Y-93731D02*
D03*
X244807Y-93606D02*
D03*
X247901Y-93615D02*
D03*
X251654Y-93731D02*
D03*
X254802D02*
D03*
X246942Y-101678D02*
D03*
X250479Y-101545D02*
D03*
X254422D02*
D03*
X258039Y-101678D02*
D03*
X261591D02*
D03*
X265023D02*
D03*
X268903D02*
D03*
X272642Y-101378D02*
D03*
X270172Y-92128D02*
D03*
X265800D02*
D03*
X273369Y-91899D02*
D03*
X276050Y-91744D02*
D03*
X275914Y-101378D02*
D03*
X279508Y-101181D02*
D03*
X283837Y-99410D02*
D03*
X295548Y-98169D02*
D03*
X298894Y-98146D02*
D03*
X302280D02*
D03*
X305572Y-98972D02*
D03*
X308721Y-109438D02*
D03*
X315008Y-110630D02*
D03*
X326034Y-101378D02*
D03*
X325907Y-98106D02*
D03*
X318808Y-93731D02*
D03*
X322095Y-93892D02*
D03*
X326269Y-94277D02*
D03*
X327880Y-106233D02*
D03*
X332081D02*
D03*
X335033D02*
D03*
X339153D02*
D03*
X343091D02*
D03*
X347267D02*
D03*
X351644D02*
D03*
X355105D02*
D03*
X357742Y-103626D02*
D03*
Y-99732D02*
D03*
Y-96836D02*
D03*
Y-93232D02*
D03*
Y-87615D02*
D03*
X357874Y-83630D02*
D03*
Y-79079D02*
D03*
Y-74803D02*
D03*
X354581Y-74098D02*
D03*
X351474D02*
D03*
X347636D02*
D03*
X344616D02*
D03*
X341028Y-74115D02*
D03*
X337485Y-74098D02*
D03*
X334282D02*
D03*
X330082Y-74155D02*
D03*
X326034Y-74878D02*
D03*
X324513Y-78597D02*
D03*
X323779Y-81957D02*
D03*
Y-85638D02*
D03*
X319921Y-85535D02*
D03*
X316110Y-86051D02*
D03*
X313078Y-86918D02*
D03*
X309918Y-89261D02*
D03*
X308053Y-86607D02*
D03*
X303850Y-86501D02*
D03*
X300197Y-86567D02*
D03*
X296827Y-86501D02*
D03*
X287149Y-86480D02*
D03*
X285956Y-83670D02*
D03*
X283238Y-81162D02*
D03*
X279408Y-79079D02*
D03*
X275914Y-78597D02*
D03*
X271554Y-77948D02*
D03*
X251792Y-76838D02*
D03*
X249759Y-79079D02*
D03*
X246942D02*
D03*
X243972Y-78597D02*
D03*
X240980D02*
D03*
X221710Y-79079D02*
D03*
X217824Y-79728D02*
D03*
X213709Y-79708D02*
D03*
X208784Y-81992D02*
D03*
X208694Y-85571D02*
D03*
X203100Y-85815D02*
D03*
X200282Y-88252D02*
D03*
X195684Y-88646D02*
D03*
X178702Y-91473D02*
D03*
X178563Y-88646D02*
D03*
X174653Y-88882D02*
D03*
X171655Y-90514D02*
D03*
X166577Y-170559D02*
D03*
X169721Y-170845D02*
D03*
X210760Y-173418D02*
D03*
X213341Y-172686D02*
D03*
X248025Y-173337D02*
D03*
X245486Y-173806D02*
D03*
X240512D02*
D03*
X236441D02*
D03*
X232087Y-173507D02*
D03*
X227997Y-173476D02*
D03*
X223258Y-173287D02*
D03*
X236050Y-163901D02*
D03*
X238854Y-163968D02*
D03*
X242954Y-163778D02*
D03*
X247141D02*
D03*
X251837D02*
D03*
X256301D02*
D03*
X261316Y-163840D02*
D03*
X265829Y-163778D02*
D03*
X270543Y-163843D02*
D03*
X274988Y-163778D02*
D03*
X278019Y-161739D02*
D03*
X271678Y-168258D02*
D03*
X274998Y-167484D02*
D03*
X299578Y-165174D02*
D03*
X303458Y-165557D02*
D03*
X307860Y-165433D02*
D03*
X308638Y-168327D02*
D03*
X315410Y-173880D02*
D03*
X319933D02*
D03*
X324139Y-173826D02*
D03*
X327418Y-171783D02*
D03*
X331212D02*
D03*
X335600D02*
D03*
X339606D02*
D03*
X343181D02*
D03*
X347138D02*
D03*
X351260D02*
D03*
X355737Y-170365D02*
D03*
X356873Y-165557D02*
D03*
X356899Y-161233D02*
D03*
X356873Y-157924D02*
D03*
X356879Y-153589D02*
D03*
X356694Y-144589D02*
D03*
X356341Y-140811D02*
D03*
X351266Y-139739D02*
D03*
X347313D02*
D03*
X343628Y-139997D02*
D03*
X339606D02*
D03*
X335600Y-139739D02*
D03*
X330498Y-139997D02*
D03*
X325902Y-140090D02*
D03*
X325018Y-144496D02*
D03*
X324869Y-148216D02*
D03*
X322196Y-150975D02*
D03*
X317740D02*
D03*
X313959Y-151645D02*
D03*
X310536Y-153417D02*
D03*
X306585Y-153542D02*
D03*
X302393Y-153589D02*
D03*
X298502Y-153913D02*
D03*
X301893Y-149233D02*
D03*
X280140Y-159021D02*
D03*
X280229Y-155615D02*
D03*
X297871Y-147061D02*
D03*
X292684Y-147137D02*
D03*
X288446Y-147561D02*
D03*
X284658Y-145733D02*
D03*
X280749D02*
D03*
X259647Y-144404D02*
D03*
X256030D02*
D03*
X252644D02*
D03*
X234611Y-141506D02*
D03*
X230697Y-144589D02*
D03*
X225551Y-144675D02*
D03*
X219898Y-149233D02*
D03*
X219719Y-153417D02*
D03*
X221690Y-157793D02*
D03*
X214029Y-158518D02*
D03*
X210891Y-158746D02*
D03*
X208254Y-156258D02*
D03*
X178563Y-155640D02*
D03*
X175837Y-156100D02*
D03*
X167323Y-160126D02*
D03*
X178176Y-192222D02*
D03*
X166677Y-189732D02*
D03*
X169721Y-189712D02*
D03*
X172364Y-192181D02*
D03*
X175219Y-193394D02*
D03*
X181573Y-192693D02*
D03*
X183758Y-190906D02*
D03*
X191316Y-187559D02*
D03*
X194647Y-187685D02*
D03*
X197772Y-187559D02*
D03*
X200703Y-187817D02*
D03*
X218881Y-188347D02*
D03*
X222177Y-187953D02*
D03*
X226547Y-187817D02*
D03*
X229483Y-187906D02*
D03*
X231849Y-187947D02*
D03*
X249759Y-190647D02*
D03*
Y-195109D02*
D03*
Y-199413D02*
D03*
X251230Y-202124D02*
D03*
X255287Y-202737D02*
D03*
X259468D02*
D03*
X262647Y-202124D02*
D03*
X267044D02*
D03*
X271800D02*
D03*
X275300Y-201773D02*
D03*
X278800Y-201205D02*
D03*
X282091Y-199231D02*
D03*
X282386Y-195491D02*
D03*
X282607Y-191609D02*
D03*
Y-188294D02*
D03*
Y-185117D02*
D03*
Y-180618D02*
D03*
Y-176109D02*
D03*
X282386Y-172609D02*
D03*
X279508Y-170587D02*
D03*
X275300Y-170537D02*
D03*
X270864Y-170464D02*
D03*
X267614Y-171342D02*
D03*
X264008Y-172609D02*
D03*
X250375Y-174569D02*
D03*
X249759Y-177722D02*
D03*
X247702Y-180205D02*
D03*
X243972D02*
D03*
X240114Y-178205D02*
D03*
X236537Y-177188D02*
D03*
X232579Y-176965D02*
D03*
X229358Y-175867D02*
D03*
X225326Y-176080D02*
D03*
X221871Y-175420D02*
D03*
X220119Y-173979D02*
D03*
X199910Y-176109D02*
D03*
X193784Y-175618D02*
D03*
X190341Y-175867D02*
D03*
X183601Y-178205D02*
D03*
X180687Y-178565D02*
D03*
X178563Y-176668D02*
D03*
X175460Y-175827D02*
D03*
X172375Y-176109D02*
D03*
X169721Y-178241D02*
D03*
X166615Y-178433D02*
D03*
X198742Y-255542D02*
D03*
X201755Y-257945D02*
D03*
X203647Y-261312D02*
D03*
X207348Y-261991D02*
D03*
X211110Y-260898D02*
D03*
X227613Y-254996D02*
D03*
X230012Y-256407D02*
D03*
X241702Y-262542D02*
D03*
X245737Y-265269D02*
D03*
X249211Y-261559D02*
D03*
X246987Y-270663D02*
D03*
X248807Y-274542D02*
D03*
X253855D02*
D03*
X258071Y-275335D02*
D03*
X262069Y-274542D02*
D03*
X265254Y-272391D02*
D03*
X267264Y-274542D02*
D03*
Y-278626D02*
D03*
X267390Y-281542D02*
D03*
X269601Y-284810D02*
D03*
X273499D02*
D03*
X277364D02*
D03*
X281887D02*
D03*
X285793D02*
D03*
X290521D02*
D03*
X294298D02*
D03*
X298671D02*
D03*
X300636Y-280791D02*
D03*
X300507Y-276185D02*
D03*
X300454Y-273152D02*
D03*
Y-269407D02*
D03*
Y-265269D02*
D03*
X300636Y-260386D02*
D03*
X300198Y-256252D02*
D03*
X296932Y-253413D02*
D03*
X292995D02*
D03*
X288784Y-253315D02*
D03*
X284996D02*
D03*
X281020Y-253135D02*
D03*
X276866Y-253315D02*
D03*
X271951Y-253277D02*
D03*
X264653Y-256754D02*
D03*
X261440Y-254185D02*
D03*
X258807Y-250967D02*
D03*
X255891Y-248499D02*
D03*
X252454Y-246751D02*
D03*
X248515Y-246265D02*
D03*
X227755Y-244163D02*
D03*
X215296Y-243568D02*
D03*
X211752Y-243157D02*
D03*
X207484Y-242438D02*
D03*
X204470Y-241787D02*
D03*
X200703Y-242061D02*
D03*
X190047Y-241820D02*
D03*
X186691Y-242718D02*
D03*
X179810Y-259179D02*
D03*
X175557Y-259876D02*
D03*
X172881Y-258822D02*
D03*
X170229Y-255972D02*
D03*
X166319Y-256286D02*
D03*
X179773Y-242787D02*
D03*
X172892Y-243291D02*
D03*
X169700Y-245221D02*
D03*
X166577Y-245446D02*
D03*
X288300Y-213779D02*
D03*
X292885D02*
D03*
X295744D02*
D03*
X299858D02*
D03*
X304784D02*
D03*
X311104Y-213987D02*
D03*
X316872Y-216161D02*
D03*
X317666Y-221457D02*
D03*
X318176Y-226107D02*
D03*
Y-230756D02*
D03*
Y-235252D02*
D03*
Y-239104D02*
D03*
X317208Y-243719D02*
D03*
X314903Y-247558D02*
D03*
X311811Y-248085D02*
D03*
X306677D02*
D03*
X301428D02*
D03*
X297032Y-248247D02*
D03*
X292622Y-248524D02*
D03*
X288205Y-248200D02*
D03*
X285476Y-245079D02*
D03*
X284983Y-240449D02*
D03*
X282296Y-241787D02*
D03*
X261744Y-235371D02*
D03*
X256939Y-235437D02*
D03*
X253318Y-236604D02*
D03*
X244704Y-238969D02*
D03*
X240012Y-241580D02*
D03*
X230706Y-243328D02*
D03*
X214293Y-235670D02*
D03*
X194647Y-235831D02*
D03*
X191124Y-237958D02*
D03*
X180174Y-239874D02*
D03*
X176430Y-240311D02*
D03*
X169875Y-237276D02*
D03*
X167314Y-237559D02*
D03*
X283530Y-228232D02*
D03*
X280156Y-226107D02*
D03*
X276375Y-224959D02*
D03*
X272832Y-224814D02*
D03*
X268779Y-224769D02*
D03*
X259468Y-223595D02*
D03*
X255287D02*
D03*
X253318Y-220289D02*
D03*
X241702Y-221850D02*
D03*
X237392D02*
D03*
X233191D02*
D03*
X228855D02*
D03*
X225092Y-220642D02*
D03*
X221226D02*
D03*
X217349Y-219575D02*
D03*
X213524Y-218350D02*
D03*
X209099D02*
D03*
X204718D02*
D03*
X200282D02*
D03*
X195684Y-222315D02*
D03*
X192692Y-224959D02*
D03*
X188019Y-225143D02*
D03*
X184133Y-224769D02*
D03*
X180874Y-226843D02*
D03*
X179773Y-223595D02*
D03*
X176430Y-222315D02*
D03*
X170237Y-227039D02*
D03*
X166615D02*
D03*
X168898Y-26845D02*
D03*
Y-23544D02*
D03*
Y-19774D02*
D03*
Y-16273D02*
D03*
X132797Y-120678D02*
D03*
X139640Y-121137D02*
D03*
X143183D02*
D03*
X138397Y-253221D02*
D03*
X142212Y-253524D02*
D03*
X143188Y-230091D02*
D03*
X138909Y-230199D02*
D03*
Y-187980D02*
D03*
X143183Y-188079D02*
D03*
X142212Y-161802D02*
D03*
X138909Y-161700D02*
D03*
X143183Y-95910D02*
D03*
X139640Y-95950D02*
D03*
X114039Y-156386D02*
D03*
X111026Y-158126D02*
D03*
X108785Y-176661D02*
D03*
X108627Y-173905D02*
D03*
X108785Y-243017D02*
D03*
X108627Y-240311D02*
D03*
X132797Y-95302D02*
D03*
X113984Y-88882D02*
D03*
X112601Y-91718D02*
D03*
X109634Y-97862D02*
D03*
X109430Y-94590D02*
D03*
X109371Y-236932D02*
D03*
Y-234617D02*
D03*
X109378Y-231764D02*
D03*
X108906Y-228234D02*
D03*
X109568Y-166233D02*
D03*
Y-163043D02*
D03*
X111388Y-169805D02*
D03*
X109241Y-170362D02*
D03*
X111608Y-102964D02*
D03*
X109430Y-102872D02*
D03*
X111106Y-105873D02*
D03*
X111761Y-108764D02*
D03*
X114811Y-221894D02*
D03*
X111777Y-223038D02*
D03*
X240727Y-162157D02*
D03*
X300332Y-304345D02*
D03*
X303896Y-298120D02*
D03*
X288791Y-314098D02*
D03*
X281574Y-301488D02*
D03*
X246717Y-217126D02*
D03*
X258302Y-217461D02*
D03*
X261838Y-208268D02*
D03*
X305207Y-105335D02*
D03*
X319339Y-109438D02*
D03*
X185632Y-111106D02*
D03*
X185120Y-123868D02*
D03*
X205193Y-111038D02*
D03*
X208021Y-119821D02*
D03*
X205249Y-119447D02*
D03*
X227952Y-137079D02*
D03*
X213765Y-133231D02*
D03*
X231690Y-164200D02*
D03*
X206746Y-158688D02*
D03*
X196472Y-158403D02*
D03*
X196907Y-174938D02*
D03*
X186111Y-190696D02*
D03*
X186160Y-176965D02*
D03*
X206578Y-174449D02*
D03*
X215433Y-173851D02*
D03*
X204993Y-190099D02*
D03*
X215127Y-189894D02*
D03*
X231300Y-190680D02*
D03*
X236252Y-203884D02*
D03*
X266408Y-236221D02*
D03*
Y-243347D02*
D03*
X199910Y-221664D02*
D03*
X209731Y-221850D02*
D03*
X211161Y-238106D02*
D03*
X198742Y-237922D02*
D03*
X235525Y-242860D02*
D03*
X244058Y-242115D02*
D03*
X233974Y-258095D02*
D03*
X244058Y-259087D02*
D03*
X267140Y-151588D02*
D03*
X271227Y-151574D02*
D03*
Y-148216D02*
D03*
X267140D02*
D03*
X239819Y-151645D02*
D03*
X243649D02*
D03*
X243725Y-148216D02*
D03*
X239667D02*
D03*
X258609Y-85638D02*
D03*
X262402Y-85599D02*
D03*
Y-81957D02*
D03*
X258302D02*
D03*
X229823Y-85815D02*
D03*
X233474D02*
D03*
Y-81957D02*
D03*
X229823D02*
D03*
X212749Y-102464D02*
D03*
X198780Y-99014D02*
D03*
X198437Y-91126D02*
D03*
X195788Y-91473D02*
D03*
X183439Y-256652D02*
D03*
X183439Y-244302D02*
D03*
X192373Y-242462D02*
D03*
X192132Y-253937D02*
D03*
X205183Y-248681D02*
D03*
X250375Y-235379D02*
D03*
Y-223459D02*
D03*
X219109Y-234909D02*
D03*
X219109Y-223357D02*
D03*
X237238Y-230060D02*
D03*
X232579Y-229669D02*
D03*
X278606Y-92721D02*
D03*
X292095Y-98146D02*
D03*
X291868Y-85815D02*
D03*
X216650Y-171073D02*
D03*
X216687Y-159737D02*
D03*
X219152Y-93591D02*
D03*
X205120Y-99990D02*
D03*
X205174Y-87675D02*
D03*
X294496Y-165174D02*
D03*
X294295Y-153299D02*
D03*
X224954Y-255366D02*
D03*
X225005Y-244517D02*
D03*
X205407Y-258437D02*
D03*
X211798Y-256354D02*
D03*
X209055Y-258583D02*
D03*
X207523Y-250895D02*
D03*
X236302Y-240453D02*
D03*
X236009Y-232320D02*
D03*
X233669Y-232371D02*
D03*
X231300Y-235246D02*
D03*
X111952Y-111005D02*
D03*
Y-114155D02*
D03*
Y-117304D02*
D03*
X111913Y-120387D02*
D03*
Y-123536D02*
D03*
X155424Y-121962D02*
D03*
Y-112513D02*
D03*
Y-103064D02*
D03*
Y-93615D02*
D03*
Y-106214D02*
D03*
Y-109363D02*
D03*
X111913Y-228623D02*
D03*
X111952Y-244438D02*
D03*
Y-247588D02*
D03*
Y-250737D02*
D03*
X111913Y-253820D02*
D03*
Y-256970D02*
D03*
X155424Y-255395D02*
D03*
Y-245946D02*
D03*
Y-236497D02*
D03*
Y-227048D02*
D03*
Y-239647D02*
D03*
Y-242796D02*
D03*
Y-176080D02*
D03*
Y-172930D02*
D03*
Y-160332D02*
D03*
Y-169781D02*
D03*
Y-179229D02*
D03*
Y-188678D02*
D03*
X111913Y-190253D02*
D03*
Y-187103D02*
D03*
X111952Y-184021D02*
D03*
Y-180871D02*
D03*
Y-177722D02*
D03*
X111913Y-161907D02*
D03*
X332040Y-184651D02*
D03*
X328144Y-221457D02*
D03*
X331596Y-221593D02*
D03*
X322759Y-204892D02*
D03*
X332081Y-193768D02*
D03*
X335259D02*
D03*
X337879D02*
D03*
X340844Y-193502D02*
D03*
X343194Y-188596D02*
D03*
X345572D02*
D03*
X348871Y-188294D02*
D03*
X352262Y-186262D02*
D03*
X355105Y-185932D02*
D03*
X357742Y-186262D02*
D03*
X333548Y-209386D02*
D03*
X336362D02*
D03*
X339153D02*
D03*
X339238Y-206467D02*
D03*
X336362D02*
D03*
X333548Y-206149D02*
D03*
X335031Y-228840D02*
D03*
X337532D02*
D03*
X340288Y-228526D02*
D03*
X344442Y-228334D02*
D03*
X346903D02*
D03*
X350409Y-228232D02*
D03*
X354493Y-228250D02*
D03*
X357549Y-228277D02*
D03*
X348033Y-284810D02*
D03*
X343929D02*
D03*
X340815D02*
D03*
X336610Y-283228D02*
D03*
X333749Y-283109D02*
D03*
X331053D02*
D03*
X348033Y-259750D02*
D03*
X344202Y-259717D02*
D03*
X341601Y-259750D02*
D03*
X338709Y-259997D02*
D03*
X335906D02*
D03*
X333070Y-259750D02*
D03*
X332798Y-240453D02*
D03*
X336548D02*
D03*
X339946D02*
D03*
X344442D02*
D03*
X348033D02*
D03*
X359200Y-235161D02*
D03*
X355498Y-241467D02*
D03*
X357518Y-238878D02*
D03*
X359518Y-238106D02*
D03*
X359486Y-259750D02*
D03*
X357533Y-258007D02*
D03*
X355580Y-259369D02*
D03*
X353475Y-258556D02*
D03*
X275089Y-312770D02*
D03*
X259119Y-312652D02*
D03*
X258895Y-308960D02*
D03*
X258071Y-305282D02*
D03*
X232496Y-330350D02*
D03*
Y-324816D02*
D03*
X232485Y-327386D02*
D03*
X232496Y-319698D02*
D03*
X232485Y-322268D02*
D03*
X232496Y-314580D02*
D03*
X232485Y-317150D02*
D03*
X232496Y-309462D02*
D03*
X232485Y-312032D02*
D03*
Y-306914D02*
D03*
X232496Y-304344D02*
D03*
X233128Y-301512D02*
D03*
X199962Y-319720D02*
D03*
Y-322279D02*
D03*
Y-324838D02*
D03*
Y-327397D02*
D03*
Y-312043D02*
D03*
Y-314602D02*
D03*
Y-317161D02*
D03*
Y-309484D02*
D03*
Y-306925D02*
D03*
Y-304365D02*
D03*
Y-301413D02*
D03*
X304749Y-309707D02*
D03*
X306619Y-311649D02*
D03*
X308704Y-313179D02*
D03*
X315493Y-317161D02*
D03*
X312147Y-316373D02*
D03*
X313790Y-314799D02*
D03*
X319300Y-315280D02*
D03*
X322376Y-310958D02*
D03*
X320008Y-312801D02*
D03*
X321876Y-303869D02*
D03*
X318176Y-299312D02*
D03*
X314485Y-299312D02*
D03*
X305593Y-187850D02*
D03*
X307934Y-204262D02*
D03*
X306334Y-202749D02*
D03*
X304784Y-204262D02*
D03*
X303013Y-202737D02*
D03*
X311104Y-200223D02*
D03*
X313065Y-197964D02*
D03*
X313078Y-195491D02*
D03*
X300196Y-200223D02*
D03*
X297910Y-199231D02*
D03*
X302469Y-187856D02*
D03*
X299219Y-190927D02*
D03*
X334282Y-121299D02*
D03*
X337532Y-118227D02*
D03*
X332973Y-129603D02*
D03*
X335259Y-130594D02*
D03*
X348141Y-125862D02*
D03*
X348128Y-128335D02*
D03*
X346167Y-130594D02*
D03*
X338076Y-133108D02*
D03*
X339847Y-134634D02*
D03*
X341397Y-133121D02*
D03*
X342997Y-134634D02*
D03*
X340655Y-118222D02*
D03*
X289905Y-114562D02*
D03*
X299858Y-123808D02*
D03*
X296750Y-124385D02*
D03*
X290336Y-129416D02*
D03*
X285956Y-114714D02*
D03*
X283661Y-119233D02*
D03*
X268687Y-90514D02*
D03*
X239759Y-90554D02*
D03*
X250010Y-156413D02*
D03*
X277442Y-156490D02*
D03*
X266185Y-140811D02*
D03*
X270085Y-141464D02*
D03*
X272130Y-140073D02*
D03*
X278025Y-147137D02*
D03*
X238753Y-140735D02*
D03*
X242653Y-141388D02*
D03*
X244698Y-139997D02*
D03*
X250593Y-147061D02*
D03*
X257430Y-74836D02*
D03*
X261330Y-75489D02*
D03*
X263375Y-74098D02*
D03*
X269270Y-81162D02*
D03*
X240342Y-81201D02*
D03*
X234448Y-74137D02*
D03*
X232403Y-75529D02*
D03*
X228503Y-74875D02*
D03*
X257378Y-92681D02*
D03*
X259404Y-94604D02*
D03*
X261372Y-92681D02*
D03*
X263290Y-94367D02*
D03*
X228451Y-92721D02*
D03*
X230476Y-94644D02*
D03*
X232445Y-92721D02*
D03*
X234363Y-94406D02*
D03*
X266133Y-158657D02*
D03*
X268159Y-160579D02*
D03*
X270127Y-158657D02*
D03*
X272045Y-160342D02*
D03*
X244614Y-160265D02*
D03*
X242695Y-158580D02*
D03*
X238701D02*
D03*
X276022Y-330701D02*
D03*
X251694Y-343352D02*
D03*
X266752Y-347308D02*
D03*
X256817Y-349821D02*
D03*
M02*
