M48
;Layer_Color=9474304
;FILE_FORMAT=4:4
METRIC,LZ
;TYPE=PLATED
T01F00S00C0.2000
T03F00S00C0.9000
T04F00S00C0.9800
T05F00S00C1.0000
T06F00S00C1.0200
T07F00S00C1.5000
T08F00S00C1.7000
;TYPE=NON_PLATED
T09F00S00C3.2000
%
T01
X01199Y00499
Y0052
Y00551
X01195Y0068
Y0072
X01175Y0074
X01157
X01137Y00741
X01139502Y0072767
Y0071517
X01127002
X01117002Y0069517
X01137002
X01139502Y0068517
Y0067267
X01127002
X01097002Y0067217
Y0068317
Y0070017
X01097Y00716
X01097002Y0072567
X01095Y00745
X01117Y00741
X01057502Y0073817
X01072002Y0072017
X01074502Y0067767
X01098Y00655
X01101Y00632
X01118Y00641
X0113Y006347
Y00629
X01122Y00625
X01115Y00619
X01115Y006
X01117Y00577
X011113
X01117Y00567
X01098Y0057
X01079Y00568
X01075Y00582
X01063Y00580384
Y00589616
X01072Y00605
X01064Y00615
X01073Y00625
X01066Y00639
X01022
X01025Y00658
X01035092Y00657977
X01013Y00658
X01019Y00666
X00998Y00667
X00982Y00664
X00988Y00678
X00998Y00688
X00997Y00703
X00988Y00712
X00996Y00723
X01007502Y0073817
X01024502Y0074517
X01019502Y0075517
X01012Y00765
X01008Y00774
X00994Y00756
X009625Y0077
X009525
Y0078
Y0079
X009625
Y0078
X009425
Y0079
Y0077
X009145Y00766
X00923Y00748
X00912Y00734
Y00712
X00902Y00702
X00891Y00692
X00884Y00673
X00863Y00684
X00863558Y00702
X00864808Y0071675
X00865Y00738
X00869Y00754
X008875Y007625
X00888942Y00777
X008785Y00778
X00887942Y00792
X008975Y00753
X00840558Y0075425
X00841408Y00739
X00840308Y00723
X00840558Y00716
X00839558Y00709
X0084Y00695
X00839558Y00684
Y00673
X00846558Y00664
X00839558Y00657
X00846558Y00649
X00815Y00659
X00806Y00652
X00806Y00686
X00807Y00694
X008Y00691
X00811558Y00714
X00816558Y00723
X00816658Y007385
X00815558Y00753
Y0077075
X00795Y00765
X00795Y0078
X008325Y0079
X00841Y00784
X00841558Y0077175
X0095Y0074
X00952Y00694
X0094Y00684
X0093Y00674
X00934Y00648
X00952Y0063
X00963Y00641
X00973Y00651
X00966Y006
X00957
X00947
X00937
Y00589
X00947
X00957
X00966
Y0058
X00967Y0057
Y0056
Y00551
Y0054
Y00528
Y00516
Y00504
Y00491
X00982
Y00504
Y00516
Y00528
Y00539
X00983Y0056
Y0057
X00984Y0058
Y0059
X00998Y00606
X0102Y00615
X01025Y00567
X01035Y00557
X01058Y00568
X01059Y00534
X01052Y00515
X01037
X01045Y00507
X01058Y00504
X01025Y00505
X0105Y00475
X01085Y0046
X01125Y0048
X01145Y0049
X01165
X0117Y00505
Y00517
X01185Y00525
Y00535
Y00545
X01179Y00576
Y005817
X01180031Y0059097
X01176Y00595
X01177Y00604
X01174Y00613
X01168Y00612
X0117Y00622
X01174Y00638
X01167Y00644
X01154Y0064
X01139Y00642
Y00625
Y00618
X01140085Y00612362
X01153Y0061
X01169Y00598
X0117Y00571
X01153Y00578
X0113925Y0058
X01131Y005843
Y0059
X01139Y00595
X01145Y0054
X01145Y00527
X01134Y00513
X01103Y00504
Y00529
X01185Y0048
X01012Y0045
X00974Y00409
X00928
X00923Y00422
X00929Y00432
X00936Y00443
X00938Y00455
X00926Y00456
X00921Y00445
X00913Y00436
X00895Y00445
X00887Y00439
X00871Y00445
X00878Y00456
X00859Y00455
X00843Y00454
X0085Y00446
X00865Y00432
X00855Y00471
X00839Y00467
X0081Y00465
X00811Y00475
Y005
X008175Y005175
X00828Y00518
X0082Y00527
X00812Y00534
X00802Y0054
Y00552
X00815Y00549
X00825Y00541
X00834Y00532
X00843Y00523
X0085Y00513
X00849909Y00500862
X00836Y00508
X00866Y00507
X00891
X00902Y00531
X00929
X00932Y00493
X00928Y00476
X00897Y00458
X00899Y00569
X00877
X00867Y00562
X00849Y00566
X00822
X008225Y006175
X00807149Y00618
X00794649
X00809Y00607
X0086Y0061
X00877Y00596
X00897Y00595
X00901Y00606
X0093Y00605
X00928Y00583
X00912Y00625
X00893Y00644
X01014502Y0070017
X01022502Y0069417
X01022002Y0070767
X01046502Y0070017
X00995Y00567
X00789Y00552
Y0054
X00775Y00539
X00781Y00531
X007669Y0052
Y00505
X00777
X0075Y004975
X00741Y00498
Y00487
X00729
Y00498
X00722Y00517
X00729Y00536
X00734Y00545
X00743Y00535
X00745Y005275
X007525
X00758Y00534
X00761Y0054
Y00552
X0075
Y00539
X00747Y00518
X00748Y00512
X00715Y00537
X00708Y00545
X00701Y00534
X00694Y00539
X00684Y0054
X0067Y00534
X00675Y00528
X00663Y00527
X00643Y00532
X00628Y00525
X00633Y00517
X00643Y00507
X00635Y00494
X00617Y0049
X00606Y00507
X006075Y0054
X00605Y0055
X00585Y00533
X005875Y00525
X00573Y00518
Y005325
X00565Y0054
X005425Y00535
X00535Y005525
X005225
Y0056
X00515Y00535
Y005025
X00539Y00509
X005475Y004875
X00573Y00488
X00576Y00495
X00573Y00502
X00576Y00478
X00524Y00469
X00485Y005525
X004725Y005625
X00555Y00569
X00574Y00587
X00567Y00612
X00588Y00626
X00574Y00641
X00573Y00668
X00571Y00693
X00569Y00719
X0059Y00712
X00609Y00704
X00607Y00729
X00605Y00753
X00595Y0077
X00624Y00765
X00626Y00746
X00646Y00749
X00648808Y0073225
X00676Y00733
X00676Y00749
X00701558
X00700558Y00732
X00704591Y00708644
X00675558Y00709
X00675Y0069
X006625
X00666Y00678
X00678442Y00677
X0069Y00666
X00705
X00717Y00686
X00724Y00683
X00737558Y00709
Y00722
Y00736
Y00749
X00752558
Y00736
Y00722
Y00709
X00767558
X00767558Y00722
Y00736
Y00749
X00782558
Y00736
Y00722
Y00709
X0078Y00671
X0077Y00673
X00761
X00765Y00645
X007725
X007825
X00792558Y00646
X00785Y00635
X00774942Y006185
X00782Y00605
X0077Y00593
X00761Y00582
X00745Y00595
X00735Y00602
X00724442Y00617
X00703Y00618
X00691Y00606
X006725Y006175
X00661Y0063
X00647Y00629
X00659Y00646
X00662Y00666
X006475Y00685
X00653058Y007085
X00633Y007
X00629Y00723
X0063Y00669
X00613Y0068
X00591Y00684
X00595Y00663
X00607Y00648
X00601Y006
X00638
X00643Y00557
X0068925Y0055825
X00698Y00558
X00703Y00567
X00711Y00585
X00677Y00578
X00687Y00518
Y00508
X0068Y00476
X00782Y00465
X00777Y00557
X00769
X00723Y00554
X00716Y00635
X00752Y00615
X00750558Y00787
X00759Y00786
X00768
X00740558
X00730558Y00787
X00720558Y00786
X00708558Y007815
X00700558Y007735
X00685Y0077
X006675Y0079
X00645Y0077
X007225Y007675
X00714Y00757
X005775Y007525
X00588Y00738
X0055Y00745
X0053Y0074
X0052Y007525
X00516Y00717
X00515Y00683
Y00658
Y00632
X00595Y0081
X00645
X00675Y008
X006875
X007
X0072Y008125
X0073
X0074
X0075
X0076
X0077
X00780558Y00803
X008Y00815
X0083
X0086
X00867Y00807
X0089Y00815
X009425Y008
X009525
X009625
X00991942Y00804
X010025Y00799
X01015Y0081
T03
X005241Y005942
Y006196
Y00645
Y006704
Y006958
X005495Y006831
Y006577
Y006323
Y006069
Y007085
T04
X006123Y0058
X006377
X007223
X007477
T05
X008042Y004175
X008296
X00855
X008804
X009058
X004754Y00505
X0045
Y005304
X004754
T06
X0042Y005846
Y0061
Y006927
Y007181
T07
X00975Y0045
X00735
X00625
T08
X009496Y004246
X010004
Y004754
X009496
X007604
X007096
Y004246
X007604
X006504
Y004754
X005996
Y004246
X004911Y0057285
Y0072985
T09
X0105Y00435
Y00785
X0055
X004606Y007085
Y005942
X0055Y00435
M30
