<?xml version="1.0" encoding="UTF-8"?>
<!DOCTYPE svg PUBLIC "-//W3C//DTD SVG 1.1//EN" "http://www.w3.org/Graphics/SVG/1.1/DTD/svg11.dtd">
<!-- Creator: CorelDRAW X5 -->
<svg xmlns="http://www.w3.org/2000/svg" xml:space="preserve" width="103.973mm" height="22.191mm" style="shape-rendering:geometricPrecision; text-rendering:geometricPrecision; image-rendering:optimizeQuality; fill-rule:evenodd; clip-rule:evenodd"
viewBox="0 0 10397 2219"
 xmlns:xlink="http://www.w3.org/1999/xlink">
 <defs>
  <style type="text/css">
   <![CDATA[
    .fil0 {fill:black}
    .fil1 {fill:#EB0045}
   ]]>
  </style>
 </defs>
 <g id="Слой_x0020_1">
  <metadata id="CorelCorpID_0Corel-Layer"/>
  <path class="fil0" d="M2959 1444c445,0 477,107 979,107l0 238c-502,0 -534,-107 -979,-107l0 -238zm1303 594c0,29 -11,52 -33,69 -24,19 -58,29 -103,29 -16,0 -32,-1 -47,-4 -15,-3 -30,-7 -46,-13l8 -59c14,6 29,11 45,15 16,4 30,6 43,6 18,0 32,-4 42,-12 10,-8 15,-18 15,-28 0,-17 -12,-32 -35,-43 -17,-7 -29,-13 -37,-17 -30,-14 -50,-27 -61,-38 -14,-15 -21,-33 -21,-56 0,-23 7,-43 21,-60 20,-23 50,-35 91,-35 19,0 36,1 53,3 17,2 33,6 49,11l-8 54c-11,-4 -24,-8 -38,-11 -14,-3 -28,-5 -40,-5 -20,0 -34,4 -43,13 -7,6 -10,14 -10,23 0,12 5,22 15,31 6,5 17,11 32,17 38,15 64,28 76,39 21,17 32,41 32,72zm471 -243l-128 200 0 137 -72 0 0 -138 -132 -199 84 0 73 118 11 23 14 -23 74 -118 76 0zm457 337l-94 0 -124 -221 -18 -38 0 60 0 198 -72 0 0 -337 94 0 123 212 19 46 0 -60 0 -198 72 0 0 337zm449 -11c-16,5 -31,9 -47,11 -15,2 -31,3 -46,3 -50,0 -92,-13 -126,-39 -40,-31 -60,-74 -60,-131 0,-56 19,-99 57,-131 36,-29 83,-44 142,-44 15,0 29,1 40,2 11,2 24,5 39,9l-3 58c-11,-4 -22,-7 -34,-9 -12,-2 -24,-3 -37,-3 -39,0 -71,11 -93,32 -23,21 -34,49 -34,85 0,39 12,68 37,88 22,18 51,27 86,27 15,0 28,-1 40,-4 12,-3 23,-6 34,-11l5 57zm458 11l-72 0 0 -146 -145 0 0 146 -72 0 0 -337 72 0 0 136 145 0 0 -136 72 0 0 337zm472 0l-81 0 -46 -107c-5,-11 -11,-19 -18,-24 -7,-5 -16,-8 -28,-8l-28 0 0 139 -72 0 0 -337 126 0c44,0 76,9 95,28 16,15 24,36 24,63 0,24 -8,44 -25,58 -12,10 -26,17 -44,21 16,5 28,17 37,37l58 131zm-101 -238c0,-11 -3,-20 -9,-27 -10,-13 -27,-19 -52,-19l-39 0 0 92 39 0c21,0 37,-5 47,-16 9,-9 13,-19 13,-31zm617 70c0,57 -18,101 -54,132 -32,27 -72,40 -121,40 -49,0 -89,-13 -120,-40 -36,-31 -55,-75 -55,-132 0,-57 18,-101 54,-132 32,-27 72,-40 121,-40 49,0 89,13 120,40 36,31 55,75 55,132zm-76 0c0,-49 -13,-84 -39,-105 -16,-13 -36,-19 -60,-19 -23,0 -43,6 -59,19 -26,21 -39,56 -39,105 0,49 13,84 39,105 16,13 36,19 60,19 23,0 43,-6 59,-19 26,-21 39,-56 39,-105zm556 169l-94 0 -124 -221 -18 -38 0 60 0 198 -72 0 0 -337 94 0 123 212 19 46 0 -60 0 -198 72 0 0 337zm256 0l-72 0 0 -337 72 0 0 337zm424 0l-250 0 0 -57 166 -221 -41 1 -120 0 0 -60 240 0 0 59 -165 219 170 0 0 60zm512 0l-82 0 -30 -76 -147 0 -30 76 -78 0 142 -337 83 0 142 337zm-133 -131l-53 -138 -50 138 103 0zm539 -146l-103 0 0 277 -72 0 0 -277 -103 0 0 -60 278 0 0 60zm228 277l-72 0 0 -337 72 0 0 337zm521 -169c0,57 -18,101 -54,132 -32,27 -72,40 -121,40 -49,0 -89,-13 -120,-40 -36,-31 -55,-75 -55,-132 0,-57 18,-101 54,-132 32,-27 72,-40 121,-40 49,0 89,13 120,40 36,31 55,75 55,132zm-76 0c0,-49 -13,-84 -39,-105 -16,-13 -36,-19 -60,-19 -23,0 -43,6 -59,19 -26,21 -39,56 -39,105 0,49 13,84 39,105 16,13 36,19 60,19 23,0 43,-6 59,-19 26,-21 39,-56 39,-105zm556 169l-94 0 -124 -221 -18 -38 0 60 0 198 -72 0 0 -337 94 0 123 212 19 46 0 -60 0 -198 72 0 0 337zm-6577 -1865c252,252 252,704 -1,956 -251,251 -741,251 -993,0 -252,-251 -251,-704 0,-956 253,-254 741,-255 994,-1zm-214 794c158,-166 157,-466 0,-633 -154,-163 -413,-163 -567,0 -157,166 -155,467 1,633 153,162 412,161 566,0zm1370 320l-103 -267 -484 0 -106 267c-99,0 -198,0 -298,0l542 -1300c72,0 145,0 217,0l527 1300c-98,0 -196,0 -295,0zm-182 -470l-161 -417 -165 417 326 0zm589 470l0 -1302c67,0 135,0 202,0l728 847 0 -819 277 0 0 1298 -202 0 -728 -847 0 823 -277 0zm1639 0l0 -1060 -281 0 0 -214 839 0 0 214 -281 0 0 1060c-92,0 -185,0 -277,0zm721 -1273c92,0 185,0 277,0l0 800c-1,41 3,77 14,108 76,222 378,224 454,0 11,-31 16,-67 16,-108l0 -800c92,0 185,0 277,0l0 779c0,208 -65,389 -271,475 -150,63 -348,65 -498,1 -203,-87 -272,-269 -269,-476l0 -779zm1154 1273l232 -1296c67,0 134,0 201,0l324 793 334 -793c69,0 137,0 206,0l210 1296c-94,0 -187,0 -281,0l-104 -733 -318 750c-34,0 -67,0 -101,0l-304 -743 -118 726c-94,0 -187,0 -281,0z"/>
  <path class="fil1" d="M1926 813c162,0 293,133 293,297 0,160 -126,291 -283,296l0 0c-370,17 -504,137 -534,512 0,2 0,3 0,5 0,164 -131,297 -293,297 -162,0 -293,-133 -293,-297 0,-164 131,-297 293,-297l2 0c363,-19 493,-144 522,-513 0,-1 0,-3 0,-4 0,-164 131,-297 293,-297zm-806 593l0 0c-370,17 -504,137 -534,512 0,2 0,3 0,5 0,164 -131,297 -293,297 -162,0 -293,-133 -293,-297 0,-164 131,-297 293,-297l2 0c363,-19 493,-144 522,-513 0,-1 0,-3 0,-4 0,-164 131,-297 293,-297 162,0 293,133 293,297 0,160 -126,291 -283,296zm0 -813l0 0c-370,17 -504,137 -534,512 0,2 0,3 0,5 0,164 -131,297 -293,297 -162,0 -293,-133 -293,-297 0,-164 131,-297 293,-297l2 0c363,-19 493,-144 522,-513 0,-1 0,-3 0,-4 0,-164 131,-297 293,-297 162,0 293,133 293,297 0,160 -126,291 -283,296zm806 1033c162,0 293,133 293,297 0,164 -131,297 -293,297 -162,0 -293,-133 -293,-297 0,-164 131,-297 293,-297zm0 -1626c162,0 293,133 293,297 0,164 -131,297 -293,297 -162,0 -293,-133 -293,-297 0,-164 131,-297 293,-297zm-1633 0c162,0 293,133 293,297 0,164 -131,297 -293,297 -162,0 -293,-133 -293,-297 0,-164 131,-297 293,-297z"/>
 </g>
</svg>
