M48
;Layer_Color=9474304
;FILE_FORMAT=4:4
METRIC,TZ
;TYPE=PLATED
T1F00S00C0.1524
T2F00S00C0.2000
T3F00S00C0.2032
T4F00S00C0.2540
T5F00S00C0.3048
T6F00S00C0.4000
T7F00S00C0.4064
T11F00S00C0.7000
T12F00S00C0.8900
T13F00S00C1.0160
T14F00S00C1.0200
T15F00S00C1.0201
T16F00S00C1.6300
T17F00S00C2.7000
T18F00S00C3.1800
;TYPE=NON_PLATED
T19F00S00C2.3000
T20F00S00C3.2500
%
T01
X361000Y293000
X369000
Y285000
X377000
X384810
X385000Y293000
X393000
Y301000
X385000
Y309000
X385000Y316368
X393000
Y309000
X401004Y309012
X401000Y300492
Y293000
X393000Y285000
X377000Y293000
Y301000
X361000Y309000
X361335Y333335
X369000Y333000
X377000
X385000
Y341000
X377000Y341000
Y349000
Y356948
X369000
Y349000
Y341000
X361000Y341000
X361000Y349000
Y356948
Y365000
X369000
Y373000
X377000Y365000
X385000
Y373000
X393000Y373000
X393000Y365000
Y357000
X401000Y357000
Y349000
X393000
X395000Y337500
X385000Y356948
X401000Y365000
X417000Y365000
X425000
X431706Y365047
X435716Y364385
X433000Y357000
X441000
X449000
Y349000
X441000
X433000
Y341000
X425000Y341000
Y333000
X425000Y349000
X417000Y349000
X425000Y357000
Y373000
X417000Y373000
X433000Y373000
Y317000
Y309000
X441000
X448698
Y317000
Y301000
X441000
Y293000
X448698
X433000
Y301000
X425000
Y309000
X425000Y316368
X417000Y309064
X417000Y300936
Y293000
X425000
Y285000
X417000Y285000
X441000Y284030
T02
X39500Y302000
X46500
Y314000
X39500
Y326000
X46500
X230250Y329000
X237250
Y317000
X230250
Y305000
X237250
X341250Y501500
Y512500
Y523500
X352250
Y534500
X363250
Y545500
X374250
X385250
X396250
Y556500
X385250
X374250
X363250
X352250
Y545500
X341250
Y556500
Y534500
X374250
X385250
X396250
Y523500
Y512500
Y501500
X385250
Y512500
Y523500
X374250
Y512500
Y501500
X363250
Y512500
Y523500
X352250Y512500
Y501500
T03
X645000Y45000
X700000Y120000
Y140000
X747500Y120000
X777500
X790000
X802500
X815000
X827500
X840000
X852500
Y180000
X840000
X827500
X815000
X790000
X777500
X747500Y167500
X584000Y234000
Y244000
Y256000
Y266000
X596000Y261000
X602000Y263000
X607000Y269000
X499000Y243000
X453000Y256000
X440000
X427000
X415000
X403000
X390000
X370907Y254093
X360000Y249750
X359500Y240000
Y227500
X369000Y233000
X390000Y232000
X360000Y270250
X318250Y255000
X317750Y243500
X305000Y240000
Y253000
Y265000
Y227000
X305750Y180000
X306000Y174500
X311500
Y180000
X259752Y190998
X253000Y191250
X241000Y189000
X238000Y192500
X237750Y185750
X234500Y189000
X262000Y156000
X266000Y263000
X70250Y233500
X83000Y187000
Y181000
Y175000
X82750Y167080
Y162000
X83000Y154253
Y149000
Y142000
X89000Y158000
Y171000
X93750Y119500
X459000Y62000
X57750Y119000
X51000Y149000
Y155000
Y161000
Y168620
X50830Y174630
X47110Y179395
X46000Y164000
X30250Y183000
X40500Y250000
X31250Y263750
X22000
X13500Y264250
X65000Y270250
X41750Y279250
X30920Y285500
X23500Y294920
Y300000
Y308000
X24750Y323670
Y328750
Y333830
X35250Y342500
X13500Y285750
X74750Y281000
X75750Y321250
Y326500
X100000Y319000
X98000Y314000
X96250Y308750
Y303670
X97500Y347000
X182750Y354000
Y318000
Y312920
Y307750
X183000Y282000
X205250Y327000
Y332250
X242000Y345750
Y367250
X218000Y389000
Y394872
X252000Y327000
X252500Y315000
Y309920
X252750Y304500
Y294000
X268000Y305000
X278500Y300000
Y288000
X266000Y278000
X306000Y280000
X315000Y282000
X312000Y300000
X303500Y300000
X310000Y321000
X315000
X320000
X326000Y319000
Y324000
X348500Y331000
X303250Y340750
X297500
X302000Y349250
X304000Y359000
X277000Y349000
X274000Y330000
X275000Y320000
X282000Y317000
X341885Y282115
X393446Y277368
X398780
X402590Y285000
X458000Y306000
Y319000
Y332000
X457000Y343000
X455000Y365000
Y379650
X413000Y377000
X406318Y376702
X391891Y377435
X377000Y377000
X371000Y390000
X364000Y392000
X394000Y395000
X394999Y402499
X400000Y399000
X410000
X404000Y433000
X392000
X380000
Y415056
X372000Y418000
X417000Y433000
X428000
X441000
X446264Y501847
X454014Y508997
X433000Y525182
X427000Y523000
Y531000
X422000Y538000
X419000Y554000
Y560610
X407000Y575000
X392763Y573951
X380936Y578269
X381343Y584364
X375941Y586185
X368433Y576396
X356750Y577000
X344922Y582178
X339945Y577929
X333632
X321750Y552750
Y541000
X322000Y528750
Y517000
X308000Y505000
X313750Y491250
X319000
X336000Y475000
X356616Y472948
X388403Y471256
X397000Y469000
Y475000
X405257Y476800
X421000Y517000
X457000Y550000
X238000Y563000
X239250Y569500
X222500Y587500
X195000Y585000
X185000
X170000
X252500Y597500
X260000
X263000Y616500
X238250Y616250
X465000Y542500
X537500Y470250
X622076Y465536
X625000Y461382
X625694Y472694
X625000Y484000
X650289Y488289
X649694Y470694
X647306Y462306
X652819Y445569
X649971Y437641
X625000Y436000
Y425192
X615000Y425000
Y431000
Y449000
Y454380
X625000Y449190
Y414350
Y399000
Y385618
Y375310
Y363000
Y352000
Y342000
X650000Y328000
Y315000
X659000Y303000
X682000Y301000
Y294000
Y287000
Y309000
Y316000
Y339000
Y352000
Y364192
X682473Y398473
X679997Y407615
X682000Y424000
X683694Y436694
X684099Y451289
X682000Y461382
X681214Y471214
X684695Y485694
X682000Y490000
X771750Y500000
X761500Y557000
X759000Y630000
X783500Y634064
X813000Y622000
X824000
X835000
X846000
X857000
X703000Y390000
X658000Y390920
Y396000
X625000Y301000
Y291000
X521000Y285000
X513000
X505000Y291000
X507000Y302000
Y313000
X501000
Y319000
X507000Y324000
X505000Y335000
Y346000
Y358350
Y368000
X491000Y366650
Y359000
X482000Y345000
X480000Y320000
Y306477
X467000Y291650
X464000Y397690
X477000
X481767Y394767
X494000Y379650
X521000Y374000
X960000Y377000
Y384000
Y391000
Y400000
Y406000
Y411872
X960426Y420426
X960000Y435000
X969250Y457500
Y465750
X960000Y483781
X959866Y489712
X998000Y461000
Y446858
X997000Y431000
X996306Y418690
X997000Y407650
X1000194Y399806
X997500Y392500
X992500Y397500
X985000Y400000
X989000Y383690
Y377000
Y367000
Y359000
X997000Y358000
X997050Y364950
X997000Y372570
Y380190
X1025000Y378380
Y372000
Y365000
Y355000
Y349000
Y343170
X1025017Y335550
X1017000Y320000
X1021884Y312000
X1023000Y306000
X1024000Y300000
Y294000
Y287000
X997000Y304000
X989000
Y315000
X997000
Y321000
Y340000
X996510Y346510
X989000Y347000
Y340000
Y333000
X960000Y334190
Y342000
Y349000
Y356000
Y363620
Y370000
Y325000
Y319000
Y313000
Y307000
Y301000
Y295000
Y288810
X1025000Y386000
Y393620
Y403780
X1031000Y409000
Y416000
X1025000Y422500
X1031000Y430000
Y440000
X1015750Y475750
X901750Y500750
X890000Y622000
X879000
X868000
X911250Y632500
T04
X891500Y112750
X923250
X955000
X970875Y144500
X1002625
X1034375
X1050250Y112750
X1018500
Y176250
X986750
X1002625Y208000
X1034375
X1050250Y239750
X907375Y208000
X875625
X923250Y176250
X939125Y144500
X764500Y176250
X748625Y208000
X685125Y144500
X701000Y112750
X621625Y208000
X637500Y239750
X574000Y49250
X542250
X335875Y208000
X97750Y239750
X34250Y112750
Y430250
X50125Y462000
X34250Y493750
Y557250
X66000Y493750
X113625Y462000
X145375Y589000
X351750Y620750
X494625Y525500
X526375
X558125
X542250Y493750
X621625Y525500
X653375
X685125
X716875
X748625
X732750Y493750
X764500
X780375Y462000
X812125
X843875
Y398500
X812125
X777498Y402499
X748625Y398500
X764500Y430250
X732750
X748625Y462000
X716875
X701000Y493750
Y557250
X669250
X637500
X605750
X621625Y589000
X637500Y620750
X701000
X716875Y589000
X685125
X812125
Y525500
X796250Y366750
X748625Y335000
X732750Y303250
X716875Y271500
X923250Y303250
X970875Y271500
X955000Y493750
X970875Y525500
X939125
X955000Y557250
X986750
X1034375Y589000
X1050250Y620750
X1018500
X955000
X939125Y589000
X875625Y462000
X859750Y432365
T05
X467000Y31000
X474500
Y41000
X467000
Y51000
X474500
X487000Y18000
X516000
X527000
X592000Y17000
X622000
X646000
X527684Y136744
X526000Y167000
Y174000
Y181000
X533000
Y174000
Y167000
X513000Y206000
X506000
X499000
Y214000
X506000
X513000
X472000Y156000
X457500Y195000
X447500
X452500Y207500
X447500Y220000
X457500
X412000Y172000
X412508Y144403
X412449Y136206
X412508Y126487
X412420Y117851
X369000Y203000
X379000Y247000
X289000Y197000
X254720Y175575
X257500Y122500
X248356Y121644
X275000Y121000
X283000
X295000Y132000
X219000Y131000
Y123000
Y139000
X207000Y153000
X133000Y148000
X126000
X119000
X112000
Y193000
X119000
X126000
X133000
X203000Y233000
X211000
Y241000
X203000
X220000
X228000
Y233000
X220000
X166000Y107000
X728000Y558000
X740000Y622000
X751000Y630000
T06
X115000Y267000
X125000
X135000
X147000
X157000
X167000
Y281500
X157000
X147000
Y293000
X157000
X167000
Y307500
X157000
X147000
X135000
X125000
X115000
Y322000
X125000
X135000
X147000
X157000
X167000
Y336500
X157000
X147000
Y348000
X157000
X167000
Y362500
X157000
X147000
X135000
X125000
X115000
Y348000
X125000
X135000
Y336500
X125000
X115000
Y293000
X125000
X135000
Y281500
X125000
X115000
T07
X276000Y370000
Y386000
X306000Y388000
Y379000
X337500Y375000
X347500
X337500Y365000
X362500Y380000
X362429Y420429
X337000Y421000
X340000Y445000
X326750Y467500
Y479500
X293250Y497000
X287868Y501119
X289500Y457500
X303000Y449000
X278000Y436000
X277777Y421223
T11
X495000Y590000
X520000
X540000
X565000
X570000Y615000
X550000
X530000
X510000
X490000
T12
X173000Y430950
Y456350
Y481750
Y507150
Y532550
X198400Y519950
Y494550
Y469150
Y443750
Y545350
T13
X100000Y628808
T14
X60500Y421900
Y447300
Y529000
Y554400
T15
X1067600Y126000
Y151400
Y176800
Y202200
Y227600
Y253000
X1093000
Y227600
Y202200
Y176800
Y151400
Y126000
Y278400
Y303800
Y329200
Y354600
Y380000
Y405400
Y430800
Y456200
Y481600
Y507000
Y532400
Y557800
Y583200
Y608600
X1067600
Y583200
Y557800
Y532400
Y507000
Y481600
Y456200
Y430800
Y405400
Y380000
Y354600
Y329200
Y303800
Y278400
T16
X140000Y410700
Y565600
T17
X988011Y123808
X658011
X657975Y603808
X988011
T18
X48018Y48500
X48018Y605540
T19
X466000Y580000
Y620000
X594000
Y580000
T20
X109500Y431000
Y545300
M30
