G04*
G04 #@! TF.GenerationSoftware,Altium Limited,Altium Designer,24.4.1 (13)*
G04*
G04 Layer_Physical_Order=4*
G04 Layer_Color=16737945*
%FSLAX44Y44*%
%MOMM*%
G71*
G04*
G04 #@! TF.SameCoordinates,5C204048-AA91-41EF-A6A1-2F145A8F5129*
G04*
G04*
G04 #@! TF.FilePolarity,Positive*
G04*
G01*
G75*
%ADD77R,2.0200X2.0200*%
%ADD78C,2.0200*%
%ADD79C,2.0900*%
%ADD80C,5.3000*%
%ADD81C,0.6000*%
G36*
X503922Y502958D02*
X503922Y5000D01*
X503921Y4999D01*
X503290Y4368D01*
X502957Y4078D01*
X5000Y4078D01*
X4919D01*
X4078Y5042D01*
X4078Y350700D01*
X5348Y351226D01*
X5912Y350662D01*
X7750Y349901D01*
X9739D01*
X11577Y350662D01*
X12983Y352069D01*
X13744Y353906D01*
Y355895D01*
X12983Y357733D01*
X11577Y359140D01*
X9739Y359901D01*
X7750D01*
X5912Y359140D01*
X5348Y358576D01*
X4078Y359102D01*
Y502953D01*
X4746Y503699D01*
X5000Y503921D01*
X503000Y503922D01*
X503081D01*
X503922Y502958D01*
D02*
G37*
%LPC*%
G36*
X193522Y499450D02*
X190478D01*
X187493Y498856D01*
X184682Y497692D01*
X182348Y496132D01*
X181239Y495582D01*
X179832Y496989D01*
X177995Y497750D01*
X176005D01*
X174168Y496989D01*
X172761Y495582D01*
X171652Y496132D01*
X169318Y497692D01*
X166507Y498856D01*
X163522Y499450D01*
X160478D01*
X157493Y498856D01*
X154682Y497692D01*
X152151Y496001D01*
X149999Y493849D01*
X148308Y491318D01*
X147144Y488507D01*
X146550Y485522D01*
Y482478D01*
X147144Y479493D01*
X148308Y476682D01*
X149999Y474151D01*
X152151Y471999D01*
X154682Y470308D01*
X157493Y469144D01*
X160478Y468550D01*
X163522D01*
X166507Y469144D01*
X169318Y470308D01*
X171849Y471999D01*
X174001Y474151D01*
X175692Y476682D01*
X176313Y478181D01*
X177687D01*
X178308Y476682D01*
X179999Y474151D01*
X182151Y471999D01*
X184682Y470308D01*
X187493Y469144D01*
X190478Y468550D01*
X193522D01*
X196507Y469144D01*
X199318Y470308D01*
X201849Y471999D01*
X204001Y474151D01*
X205692Y476682D01*
X206856Y479493D01*
X207450Y482478D01*
Y484045D01*
X208505Y484750D01*
X210494D01*
X212332Y485511D01*
X213739Y486918D01*
X214500Y488755D01*
Y490745D01*
X213739Y492582D01*
X212332Y493989D01*
X210494Y494750D01*
X208505D01*
X206668Y493989D01*
X205928Y493250D01*
X204319Y493373D01*
X204001Y493849D01*
X201849Y496001D01*
X199318Y497692D01*
X196507Y498856D01*
X193522Y499450D01*
D02*
G37*
G36*
X118075Y498963D02*
X116086D01*
X114248Y498201D01*
X112842Y496795D01*
X112080Y494957D01*
Y493323D01*
X111022Y492726D01*
X110907Y492700D01*
X109644Y493963D01*
X106805Y495602D01*
X103639Y496450D01*
X100361D01*
X97194Y495602D01*
X94355Y493963D01*
X92037Y491645D01*
X90398Y488806D01*
X89550Y485639D01*
Y482361D01*
X89966Y480808D01*
X88902Y479874D01*
X87995Y480250D01*
X86005D01*
X85098Y479874D01*
X84034Y480808D01*
X84450Y482361D01*
Y485639D01*
X83602Y488806D01*
X81962Y491645D01*
X79644Y493963D01*
X76806Y495602D01*
X73639Y496450D01*
X70361D01*
X67194Y495602D01*
X64356Y493963D01*
X62038Y491645D01*
X60399Y488806D01*
X59550Y485639D01*
Y482361D01*
X60399Y479194D01*
X62038Y476356D01*
X64356Y474038D01*
X67194Y472398D01*
X70361Y471550D01*
X73639D01*
X76806Y472398D01*
X79644Y474038D01*
X80730Y475123D01*
X82000Y474597D01*
Y474255D01*
X82761Y472418D01*
X84168Y471011D01*
X86005Y470250D01*
X87995D01*
X89832Y471011D01*
X91239Y472418D01*
X92000Y474255D01*
Y474597D01*
X93270Y475123D01*
X94355Y474038D01*
X97194Y472398D01*
X100361Y471550D01*
X103639D01*
X106805Y472398D01*
X109644Y474038D01*
X111962Y476356D01*
X113602Y479194D01*
X114450Y482361D01*
Y485639D01*
X113636Y488676D01*
X113963Y489073D01*
X114629Y489566D01*
X116086Y488963D01*
X118075D01*
X119320Y489478D01*
X119775Y489194D01*
X120322Y488518D01*
X119550Y485639D01*
Y482361D01*
X120398Y479194D01*
X122037Y476356D01*
X124355Y474038D01*
X127194Y472398D01*
X130361Y471550D01*
X133639D01*
X136805Y472398D01*
X139644Y474038D01*
X141962Y476356D01*
X143602Y479194D01*
X144450Y482361D01*
Y485639D01*
X143602Y488806D01*
X141962Y491645D01*
X139644Y493963D01*
X136805Y495602D01*
X133639Y496450D01*
X130361D01*
X127194Y495602D01*
X124355Y493963D01*
X123343Y492950D01*
X122080Y493484D01*
Y494957D01*
X121319Y496795D01*
X119913Y498201D01*
X118075Y498963D01*
D02*
G37*
G36*
X299709Y494190D02*
X297720D01*
X295882Y493429D01*
X294476Y492022D01*
X293715Y490185D01*
Y488195D01*
X294476Y486358D01*
X295882Y484951D01*
X297720Y484190D01*
X299709D01*
X301547Y484951D01*
X302954Y486358D01*
X303715Y488195D01*
Y490185D01*
X302954Y492022D01*
X301547Y493429D01*
X299709Y494190D01*
D02*
G37*
G36*
X352495Y493750D02*
X350505D01*
X348668Y492989D01*
X347261Y491582D01*
X346500Y489745D01*
Y487755D01*
X347261Y485918D01*
X348668Y484511D01*
X350505Y483750D01*
X352495D01*
X354332Y484511D01*
X355739Y485918D01*
X356500Y487755D01*
Y489745D01*
X355739Y491582D01*
X354332Y492989D01*
X352495Y493750D01*
D02*
G37*
G36*
X295495Y459750D02*
X293505D01*
X291668Y458989D01*
X290261Y457582D01*
X289500Y455745D01*
Y453755D01*
X290261Y451918D01*
X291668Y450511D01*
X293505Y449750D01*
X295495D01*
X297332Y450511D01*
X298739Y451918D01*
X299500Y453755D01*
Y455745D01*
X298739Y457582D01*
X297332Y458989D01*
X295495Y459750D01*
D02*
G37*
G36*
X364495Y454682D02*
X362505D01*
X360668Y453921D01*
X359261Y452514D01*
X358500Y450676D01*
Y448687D01*
X359261Y446849D01*
X360668Y445443D01*
X362505Y444682D01*
X364495D01*
X366332Y445443D01*
X367739Y446849D01*
X368500Y448687D01*
Y450676D01*
X367739Y452514D01*
X366332Y453921D01*
X364495Y454682D01*
D02*
G37*
G36*
X52639Y469450D02*
X49361D01*
X46195Y468602D01*
X43355Y466963D01*
X41038Y464645D01*
X39398Y461805D01*
X38550Y458639D01*
Y455361D01*
X39398Y452195D01*
X41038Y449356D01*
X43355Y447038D01*
X46195Y445398D01*
X49361Y444550D01*
X52639D01*
X55806Y445398D01*
X58644Y447038D01*
X60963Y449356D01*
X62602Y452195D01*
X63450Y455361D01*
Y458639D01*
X62602Y461805D01*
X60963Y464645D01*
X58644Y466963D01*
X55806Y468602D01*
X52639Y469450D01*
D02*
G37*
G36*
X446108Y477750D02*
X444118D01*
X442281Y476989D01*
X440874Y475582D01*
X440113Y473745D01*
Y471755D01*
X440874Y469918D01*
X442281Y468511D01*
X444118Y467750D01*
X444236D01*
X444753Y466480D01*
X443308Y464318D01*
X442144Y461507D01*
X441550Y458522D01*
Y455478D01*
X442144Y452493D01*
X443308Y449682D01*
X444999Y447151D01*
X447151Y444999D01*
X449682Y443308D01*
X452493Y442144D01*
X455478Y441550D01*
X458522D01*
X461507Y442144D01*
X464318Y443308D01*
X466849Y444999D01*
X468730Y446880D01*
X469393Y446815D01*
X469759Y446711D01*
X470101Y446512D01*
X470761Y444918D01*
X472168Y443511D01*
X474005Y442750D01*
X475995D01*
X477832Y443511D01*
X479239Y444918D01*
X480000Y446755D01*
Y448745D01*
X479239Y450582D01*
X477832Y451989D01*
X475995Y452750D01*
X474005D01*
X473130Y452387D01*
X472017Y453301D01*
X472450Y455478D01*
Y458522D01*
X471856Y461507D01*
X470692Y464318D01*
X469001Y466849D01*
X466849Y469001D01*
X464318Y470692D01*
X461507Y471856D01*
X458522Y472450D01*
X455478D01*
X452493Y471856D01*
X451286Y471356D01*
X451080Y471427D01*
X450113Y472245D01*
Y473745D01*
X449352Y475582D01*
X447945Y476989D01*
X446108Y477750D01*
D02*
G37*
G36*
X286245Y451030D02*
X284255D01*
X282418Y450269D01*
X281011Y448862D01*
X280250Y447025D01*
Y445035D01*
X281011Y443198D01*
X282418Y441791D01*
X284255Y441030D01*
X286245D01*
X288082Y441791D01*
X289489Y443198D01*
X290250Y445035D01*
Y447025D01*
X289489Y448862D01*
X288082Y450269D01*
X286245Y451030D01*
D02*
G37*
G36*
X373495Y445000D02*
X371505D01*
X369668Y444239D01*
X368261Y442832D01*
X367500Y440995D01*
Y439005D01*
X368261Y437168D01*
X369668Y435761D01*
X371505Y435000D01*
X373495D01*
X375332Y435761D01*
X376739Y437168D01*
X377500Y439005D01*
Y440995D01*
X376739Y442832D01*
X375332Y444239D01*
X373495Y445000D01*
D02*
G37*
G36*
X271915Y442500D02*
X269926D01*
X268088Y441739D01*
X266682Y440332D01*
X265921Y438495D01*
Y436505D01*
X266682Y434668D01*
X268088Y433261D01*
X269926Y432500D01*
X271915D01*
X273753Y433261D01*
X275159Y434668D01*
X275921Y436505D01*
Y438495D01*
X275159Y440332D01*
X273753Y441739D01*
X271915Y442500D01*
D02*
G37*
G36*
X415019Y472500D02*
X410981D01*
X407020Y471712D01*
X403290Y470167D01*
X399932Y467923D01*
X397077Y465068D01*
X394833Y461710D01*
X393288Y457980D01*
X392500Y454019D01*
Y449981D01*
X393288Y446020D01*
X394833Y442290D01*
X397077Y438932D01*
X399932Y436077D01*
X403290Y433833D01*
X407020Y432288D01*
X410981Y431500D01*
X415019D01*
X418980Y432288D01*
X422710Y433833D01*
X426068Y436077D01*
X428923Y438932D01*
X431167Y442290D01*
X432712Y446020D01*
X433500Y449981D01*
Y454019D01*
X432712Y457980D01*
X431167Y461710D01*
X428923Y465068D01*
X426068Y467923D01*
X422710Y470167D01*
X418980Y471712D01*
X415019Y472500D01*
D02*
G37*
G36*
X208700Y437800D02*
X206711D01*
X204874Y437039D01*
X203467Y435632D01*
X202706Y433794D01*
Y431805D01*
X203467Y429967D01*
X204874Y428561D01*
X206711Y427800D01*
X208700D01*
X210538Y428561D01*
X211945Y429967D01*
X212706Y431805D01*
Y433794D01*
X211945Y435632D01*
X210538Y437039D01*
X208700Y437800D01*
D02*
G37*
G36*
X176745D02*
X174755D01*
X172918Y437039D01*
X171511Y435632D01*
X170750Y433794D01*
Y431805D01*
X171511Y429967D01*
X172918Y428561D01*
X174755Y427800D01*
X176745D01*
X178582Y428561D01*
X179989Y429967D01*
X180750Y431805D01*
Y433794D01*
X179989Y435632D01*
X178582Y437039D01*
X176745Y437800D01*
D02*
G37*
G36*
X235392Y427690D02*
X233403D01*
X231566Y426929D01*
X230159Y425522D01*
X229398Y423685D01*
Y421696D01*
X230159Y419858D01*
X231566Y418451D01*
X233403Y417690D01*
X235392D01*
X237230Y418451D01*
X238637Y419858D01*
X239398Y421696D01*
Y423685D01*
X238637Y425522D01*
X237230Y426929D01*
X235392Y427690D01*
D02*
G37*
G36*
X97019Y457500D02*
X92981D01*
X89020Y456712D01*
X85289Y455167D01*
X81932Y452923D01*
X79077Y450068D01*
X76833Y446710D01*
X75288Y442980D01*
X74500Y439019D01*
Y434981D01*
X75288Y431020D01*
X76833Y427290D01*
X79077Y423932D01*
X81932Y421077D01*
X85289Y418833D01*
X89020Y417288D01*
X92981Y416500D01*
X97019D01*
X100980Y417288D01*
X104710Y418833D01*
X108068Y421077D01*
X110923Y423932D01*
X113167Y427290D01*
X114712Y431020D01*
X115500Y434981D01*
Y439019D01*
X114712Y442980D01*
X113167Y446710D01*
X110923Y450068D01*
X108068Y452923D01*
X104710Y455167D01*
X100980Y456712D01*
X97019Y457500D01*
D02*
G37*
G36*
X445994Y426418D02*
X444005D01*
X442167Y425657D01*
X440760Y424250D01*
X439999Y422412D01*
Y420423D01*
X440760Y418585D01*
X442167Y417179D01*
X444005Y416418D01*
X445994D01*
X447831Y417179D01*
X449238Y418585D01*
X449999Y420423D01*
Y422412D01*
X449238Y424250D01*
X447831Y425657D01*
X445994Y426418D01*
D02*
G37*
G36*
X224367Y420288D02*
X222378D01*
X220540Y419527D01*
X219134Y418120D01*
X218373Y416283D01*
Y414294D01*
X219134Y412456D01*
X220540Y411049D01*
X222378Y410288D01*
X224367D01*
X226205Y411049D01*
X227611Y412456D01*
X228373Y414294D01*
Y416283D01*
X227611Y418120D01*
X226205Y419527D01*
X224367Y420288D01*
D02*
G37*
G36*
X343698Y411495D02*
X341709D01*
X339871Y410734D01*
X338465Y409328D01*
X337703Y407490D01*
Y405501D01*
X338465Y403663D01*
X339871Y402257D01*
X341709Y401495D01*
X343698D01*
X345536Y402257D01*
X346942Y403663D01*
X347703Y405501D01*
Y407490D01*
X346942Y409328D01*
X345536Y410734D01*
X343698Y411495D01*
D02*
G37*
G36*
X315995Y410000D02*
X314005D01*
X312168Y409239D01*
X310761Y407832D01*
X310000Y405995D01*
Y404005D01*
X310761Y402168D01*
X312168Y400761D01*
X314005Y400000D01*
X315995D01*
X317832Y400761D01*
X319239Y402168D01*
X320000Y404005D01*
Y405995D01*
X319239Y407832D01*
X317832Y409239D01*
X315995Y410000D01*
D02*
G37*
G36*
X207950Y402805D02*
X205961D01*
X204124Y402044D01*
X202717Y400638D01*
X201956Y398800D01*
Y396811D01*
X202717Y394973D01*
X204124Y393567D01*
X205961Y392805D01*
X207950D01*
X209788Y393567D01*
X211195Y394973D01*
X211956Y396811D01*
Y398800D01*
X211195Y400638D01*
X209788Y402044D01*
X207950Y402805D01*
D02*
G37*
G36*
X328495Y400000D02*
X326505D01*
X324668Y399239D01*
X323261Y397832D01*
X322500Y395995D01*
Y394005D01*
X323261Y392168D01*
X324668Y390761D01*
X326505Y390000D01*
X328495D01*
X330332Y390761D01*
X331739Y392168D01*
X332500Y394005D01*
Y395995D01*
X331739Y397832D01*
X330332Y399239D01*
X328495Y400000D01*
D02*
G37*
G36*
X52495Y395689D02*
X50505D01*
X48668Y394928D01*
X47261Y393521D01*
X46500Y391684D01*
Y389695D01*
X47261Y387857D01*
X48668Y386450D01*
X50505Y385689D01*
X52495D01*
X54332Y386450D01*
X55739Y387857D01*
X56500Y389695D01*
Y391684D01*
X55739Y393521D01*
X54332Y394928D01*
X52495Y395689D01*
D02*
G37*
G36*
X364278Y394088D02*
X362289D01*
X360452Y393327D01*
X359045Y391920D01*
X358284Y390083D01*
Y388093D01*
X359045Y386256D01*
X360452Y384849D01*
X362289Y384088D01*
X364278D01*
X366116Y384849D01*
X367523Y386256D01*
X368284Y388093D01*
Y390083D01*
X367523Y391920D01*
X366116Y393327D01*
X364278Y394088D01*
D02*
G37*
G36*
X298245Y390500D02*
X296255D01*
X294418Y389739D01*
X293011Y388332D01*
X292250Y386495D01*
Y384505D01*
X293011Y382668D01*
X294418Y381261D01*
X296255Y380500D01*
X298245D01*
X300082Y381261D01*
X301489Y382668D01*
X302250Y384505D01*
Y386495D01*
X301489Y388332D01*
X300082Y389739D01*
X298245Y390500D01*
D02*
G37*
G36*
X18495Y393019D02*
X16505D01*
X14668Y392258D01*
X13261Y390851D01*
X12500Y389014D01*
Y387025D01*
X13261Y385187D01*
X14668Y383780D01*
X15219Y383552D01*
Y382177D01*
X14668Y381949D01*
X13261Y380542D01*
X12500Y378705D01*
Y376715D01*
X13261Y374878D01*
X14668Y373471D01*
X16505Y372710D01*
X18495D01*
X20332Y373471D01*
X21739Y374878D01*
X22500Y376715D01*
Y378705D01*
X21739Y380542D01*
X20332Y381949D01*
X19781Y382177D01*
Y383552D01*
X20332Y383780D01*
X21739Y385187D01*
X22500Y387025D01*
Y389014D01*
X21739Y390851D01*
X20332Y392258D01*
X18495Y393019D01*
D02*
G37*
G36*
X110245Y382668D02*
X108255D01*
X106418Y381907D01*
X105011Y380501D01*
X104250Y378663D01*
Y376674D01*
X105011Y374836D01*
X106418Y373430D01*
X108255Y372668D01*
X110245D01*
X112082Y373430D01*
X113489Y374836D01*
X114250Y376674D01*
Y378663D01*
X113489Y380501D01*
X112082Y381907D01*
X110245Y382668D01*
D02*
G37*
G36*
X265495Y380775D02*
X263505D01*
X261668Y380014D01*
X260261Y378608D01*
X259500Y376770D01*
Y374781D01*
X260261Y372943D01*
X261668Y371536D01*
X263505Y370775D01*
X265495D01*
X267332Y371536D01*
X268739Y372943D01*
X269500Y374781D01*
Y376770D01*
X268739Y378608D01*
X267332Y380014D01*
X265495Y380775D01*
D02*
G37*
G36*
X441346Y379949D02*
X439357D01*
X437519Y379188D01*
X436113Y377782D01*
X435352Y375944D01*
Y373955D01*
X436113Y372117D01*
X437519Y370711D01*
X439357Y369949D01*
X441346D01*
X443184Y370711D01*
X444590Y372117D01*
X445352Y373955D01*
Y375944D01*
X444590Y377782D01*
X443184Y379188D01*
X441346Y379949D01*
D02*
G37*
G36*
X344671Y365775D02*
X342682D01*
X340844Y365014D01*
X339438Y363608D01*
X338677Y361770D01*
Y359781D01*
X339438Y357943D01*
X340844Y356536D01*
X342682Y355775D01*
X344671D01*
X346509Y356536D01*
X347915Y357943D01*
X348676Y359781D01*
Y361770D01*
X347915Y363608D01*
X346509Y365014D01*
X344671Y365775D01*
D02*
G37*
G36*
X142995Y364750D02*
X141005D01*
X139168Y363989D01*
X137761Y362582D01*
X137000Y360745D01*
Y358755D01*
X137761Y356918D01*
X139168Y355511D01*
X141005Y354750D01*
X142995D01*
X144832Y355511D01*
X146239Y356918D01*
X147000Y358755D01*
Y360745D01*
X146239Y362582D01*
X144832Y363989D01*
X142995Y364750D01*
D02*
G37*
G36*
X104745Y363378D02*
X102755D01*
X100918Y362617D01*
X99511Y361210D01*
X98750Y359372D01*
Y357383D01*
X99511Y355545D01*
X100918Y354139D01*
X102755Y353378D01*
X104745D01*
X106582Y354139D01*
X107989Y355545D01*
X108750Y357383D01*
Y359372D01*
X107989Y361210D01*
X106582Y362617D01*
X104745Y363378D01*
D02*
G37*
G36*
X56961Y359628D02*
X54972D01*
X53135Y358867D01*
X51728Y357460D01*
X50967Y355622D01*
Y353633D01*
X51728Y351795D01*
X53135Y350389D01*
X54972Y349628D01*
X56961D01*
X58799Y350389D01*
X60206Y351795D01*
X60967Y353633D01*
Y355622D01*
X60206Y357460D01*
X58799Y358867D01*
X56961Y359628D01*
D02*
G37*
G36*
X260487Y358693D02*
X258498D01*
X256660Y357932D01*
X255254Y356526D01*
X254492Y354688D01*
Y352699D01*
X255254Y350861D01*
X256660Y349454D01*
X258498Y348693D01*
X260487D01*
X262325Y349454D01*
X263731Y350861D01*
X264492Y352699D01*
Y354688D01*
X263731Y356526D01*
X262325Y357932D01*
X260487Y358693D01*
D02*
G37*
G36*
X275408Y357344D02*
X273419D01*
X271581Y356583D01*
X270175Y355176D01*
X269414Y353338D01*
Y351349D01*
X270175Y349512D01*
X271581Y348105D01*
X273419Y347344D01*
X275408D01*
X277246Y348105D01*
X278653Y349512D01*
X279414Y351349D01*
Y353338D01*
X278653Y355176D01*
X277246Y356583D01*
X275408Y357344D01*
D02*
G37*
G36*
X18456Y352587D02*
X16467D01*
X14629Y351826D01*
X13223Y350419D01*
X12462Y348582D01*
Y346593D01*
X13223Y344755D01*
X14629Y343348D01*
X16467Y342587D01*
X18456D01*
X20294Y343348D01*
X21701Y344755D01*
X22462Y346593D01*
Y348582D01*
X21701Y350419D01*
X20294Y351826D01*
X18456Y352587D01*
D02*
G37*
G36*
X207536Y337843D02*
X205547D01*
X203710Y337082D01*
X202303Y335676D01*
X201542Y333838D01*
Y331849D01*
X202303Y330011D01*
X203710Y328605D01*
X205547Y327843D01*
X207536D01*
X209374Y328605D01*
X210781Y330011D01*
X211542Y331849D01*
Y333838D01*
X210781Y335676D01*
X209374Y337082D01*
X207536Y337843D01*
D02*
G37*
G36*
X194286Y335805D02*
X192297D01*
X190460Y335044D01*
X189053Y333638D01*
X188292Y331800D01*
Y329811D01*
X189053Y327973D01*
X190460Y326567D01*
X192297Y325805D01*
X194286D01*
X196124Y326567D01*
X197531Y327973D01*
X198292Y329811D01*
Y331800D01*
X197531Y333638D01*
X196124Y335044D01*
X194286Y335805D01*
D02*
G37*
G36*
X335745Y331000D02*
X333755D01*
X331918Y330239D01*
X330511Y328832D01*
X329750Y326995D01*
Y325005D01*
X330511Y323168D01*
X331918Y321761D01*
X333755Y321000D01*
X335745D01*
X337582Y321761D01*
X338989Y323168D01*
X339750Y325005D01*
Y326995D01*
X338989Y328832D01*
X337582Y330239D01*
X335745Y331000D01*
D02*
G37*
G36*
X467243Y377500D02*
X462757D01*
X458326Y376798D01*
X454060Y375412D01*
X450063Y373375D01*
X446433Y370739D01*
X443261Y367566D01*
X440625Y363937D01*
X438588Y359940D01*
X437202Y355674D01*
X436500Y351243D01*
Y346757D01*
X437202Y342326D01*
X438588Y338060D01*
X440625Y334063D01*
X443261Y330434D01*
X446433Y327261D01*
X450063Y324625D01*
X454060Y322588D01*
X458326Y321202D01*
X462757Y320500D01*
X467243D01*
X471674Y321202D01*
X475940Y322588D01*
X479937Y324625D01*
X483567Y327261D01*
X486739Y330434D01*
X489375Y334063D01*
X491412Y338060D01*
X492798Y342326D01*
X493500Y346757D01*
Y351243D01*
X492798Y355674D01*
X491412Y359940D01*
X489375Y363937D01*
X486739Y367566D01*
X483567Y370739D01*
X479937Y373375D01*
X475940Y375412D01*
X471674Y376798D01*
X467243Y377500D01*
D02*
G37*
G36*
X376745Y327588D02*
X374755D01*
X372918Y326827D01*
X371511Y325420D01*
X370750Y323583D01*
Y321593D01*
X371511Y319756D01*
X372918Y318349D01*
X374755Y317588D01*
X376745D01*
X378582Y318349D01*
X379989Y319756D01*
X380750Y321593D01*
Y323583D01*
X379989Y325420D01*
X378582Y326827D01*
X376745Y327588D01*
D02*
G37*
G36*
X268756Y324250D02*
X266767D01*
X264929Y323489D01*
X263522Y322082D01*
X262761Y320245D01*
Y318256D01*
X263522Y316418D01*
X264929Y315011D01*
X266767Y314250D01*
X268756D01*
X270593Y315011D01*
X272000Y316418D01*
X272761Y318256D01*
Y320245D01*
X272000Y322082D01*
X270593Y323489D01*
X268756Y324250D01*
D02*
G37*
G36*
X242192Y313750D02*
X240203D01*
X238365Y312989D01*
X236958Y311582D01*
X236197Y309745D01*
Y307755D01*
X236958Y305918D01*
X238365Y304511D01*
X240203Y303750D01*
X242192D01*
X244029Y304511D01*
X245436Y305918D01*
X246197Y307755D01*
Y309745D01*
X245436Y311582D01*
X244029Y312989D01*
X242192Y313750D01*
D02*
G37*
G36*
X364957Y302432D02*
X362967D01*
X361130Y301671D01*
X359723Y300264D01*
X358962Y298427D01*
Y296438D01*
X359723Y294600D01*
X361130Y293193D01*
X362967Y292432D01*
X364957D01*
X366794Y293193D01*
X368201Y294600D01*
X368962Y296438D01*
Y298427D01*
X368201Y300264D01*
X366794Y301671D01*
X364957Y302432D01*
D02*
G37*
G36*
X273887Y299750D02*
X271897D01*
X270060Y298989D01*
X268653Y297582D01*
X267892Y295745D01*
Y293755D01*
X268653Y291918D01*
X270060Y290511D01*
X271897Y289750D01*
X273887D01*
X275724Y290511D01*
X277131Y291918D01*
X277892Y293755D01*
Y295745D01*
X277131Y297582D01*
X275724Y298989D01*
X273887Y299750D01*
D02*
G37*
G36*
X258995Y297250D02*
X257005D01*
X255168Y296489D01*
X253761Y295082D01*
X253000Y293245D01*
Y291255D01*
X253761Y289418D01*
X255168Y288011D01*
X257005Y287250D01*
X258995D01*
X260832Y288011D01*
X262239Y289418D01*
X263000Y291255D01*
Y293245D01*
X262239Y295082D01*
X260832Y296489D01*
X258995Y297250D01*
D02*
G37*
G36*
X233244Y296385D02*
X231255D01*
X229418Y295624D01*
X228011Y294217D01*
X227250Y292380D01*
Y290391D01*
X228011Y288553D01*
X229418Y287146D01*
X231255Y286385D01*
X233244D01*
X235082Y287146D01*
X236489Y288553D01*
X237250Y290391D01*
Y292380D01*
X236489Y294217D01*
X235082Y295624D01*
X233244Y296385D01*
D02*
G37*
G36*
X157747Y281869D02*
X155758D01*
X153920Y281108D01*
X152514Y279701D01*
X151752Y277864D01*
Y275875D01*
X152514Y274037D01*
X153920Y272630D01*
X155758Y271869D01*
X157747D01*
X159585Y272630D01*
X160991Y274037D01*
X161752Y275875D01*
Y277864D01*
X160991Y279701D01*
X159585Y281108D01*
X157747Y281869D01*
D02*
G37*
G36*
X404053Y282430D02*
X401947D01*
X399912Y281885D01*
X398088Y280832D01*
X396599Y279343D01*
X395545Y277518D01*
X395000Y275484D01*
Y273377D01*
X395545Y271343D01*
X396599Y269518D01*
X398088Y268029D01*
X398687Y267683D01*
X398853Y266424D01*
X398761Y266332D01*
X398000Y264495D01*
Y262505D01*
X398761Y260668D01*
X400168Y259261D01*
X402005Y258500D01*
X403995D01*
X405832Y259261D01*
X407239Y260668D01*
X408000Y262505D01*
Y264495D01*
X407239Y266332D01*
X407147Y266424D01*
X407313Y267683D01*
X407912Y268029D01*
X409402Y269518D01*
X409814Y270232D01*
X411401Y270441D01*
X411650Y270192D01*
X413488Y269431D01*
X415477D01*
X417314Y270192D01*
X418721Y271598D01*
X419482Y273436D01*
Y275425D01*
X418721Y277263D01*
X417314Y278669D01*
X415477Y279431D01*
X413488D01*
X411650Y278669D01*
X411401Y278420D01*
X409814Y278629D01*
X409402Y279343D01*
X407912Y280832D01*
X406088Y281885D01*
X404053Y282430D01*
D02*
G37*
G36*
X290245Y274500D02*
X288255D01*
X286418Y273739D01*
X285011Y272332D01*
X284250Y270495D01*
Y268505D01*
X285011Y266668D01*
X286418Y265261D01*
X288255Y264500D01*
X290245D01*
X292082Y265261D01*
X293489Y266668D01*
X294250Y268505D01*
Y270495D01*
X293489Y272332D01*
X292082Y273739D01*
X290245Y274500D01*
D02*
G37*
G36*
X145995Y269000D02*
X144005D01*
X142168Y268239D01*
X140761Y266832D01*
X140000Y264995D01*
Y263005D01*
X140761Y261168D01*
X142168Y259761D01*
X144005Y259000D01*
X145995D01*
X147832Y259761D01*
X149239Y261168D01*
X150000Y263005D01*
Y264995D01*
X149239Y266832D01*
X147832Y268239D01*
X145995Y269000D01*
D02*
G37*
G36*
X53103Y259060D02*
X51114D01*
X49276Y258298D01*
X47869Y256892D01*
X47108Y255054D01*
Y253065D01*
X47869Y251227D01*
X49276Y249821D01*
X51114Y249060D01*
X53103D01*
X54941Y249821D01*
X56347Y251227D01*
X57108Y253065D01*
Y255054D01*
X56347Y256892D01*
X54941Y258298D01*
X53103Y259060D01*
D02*
G37*
G36*
X84947Y267552D02*
X82957D01*
X81120Y266790D01*
X79713Y265384D01*
X78952Y263546D01*
Y261557D01*
X79713Y259719D01*
X81120Y258313D01*
X82774Y257628D01*
X82931Y256978D01*
X82900Y256305D01*
X81532Y255739D01*
X80126Y254332D01*
X79365Y252495D01*
Y250505D01*
X80126Y248668D01*
X81532Y247261D01*
X83370Y246500D01*
X85359D01*
X87197Y247261D01*
X88604Y248668D01*
X89365Y250505D01*
Y252495D01*
X88604Y254332D01*
X87197Y255739D01*
X85543Y256424D01*
X85386Y257073D01*
X85417Y257746D01*
X86784Y258313D01*
X88191Y259719D01*
X88952Y261557D01*
Y263546D01*
X88191Y265384D01*
X86784Y266790D01*
X84947Y267552D01*
D02*
G37*
G36*
X146314Y254000D02*
X144325D01*
X142487Y253239D01*
X141080Y251832D01*
X140319Y249995D01*
Y248005D01*
X141080Y246168D01*
X142487Y244761D01*
X144325Y244000D01*
X146314D01*
X148151Y244761D01*
X149558Y246168D01*
X150319Y248005D01*
Y249995D01*
X149558Y251832D01*
X148151Y253239D01*
X146314Y254000D01*
D02*
G37*
G36*
X458639Y266450D02*
X455361D01*
X452195Y265602D01*
X449356Y263962D01*
X447038Y261644D01*
X445398Y258806D01*
X444550Y255639D01*
Y252361D01*
X445398Y249195D01*
X447038Y246355D01*
X449356Y244037D01*
X452195Y242398D01*
X455361Y241550D01*
X458639D01*
X461805Y242398D01*
X464645Y244037D01*
X466963Y246355D01*
X468602Y249195D01*
X469450Y252361D01*
Y255639D01*
X468602Y258806D01*
X466963Y261644D01*
X464645Y263962D01*
X461805Y265602D01*
X458639Y266450D01*
D02*
G37*
G36*
X23696Y251500D02*
X21707D01*
X19869Y250739D01*
X18463Y249332D01*
X17702Y247495D01*
Y245505D01*
X18463Y243668D01*
X19869Y242261D01*
X21707Y241500D01*
X23696D01*
X25534Y242261D01*
X26941Y243668D01*
X27702Y245505D01*
Y247495D01*
X26941Y249332D01*
X25534Y250739D01*
X23696Y251500D01*
D02*
G37*
G36*
X294669Y249381D02*
X292679D01*
X290842Y248620D01*
X289435Y247213D01*
X288674Y245375D01*
Y243386D01*
X289435Y241549D01*
X290842Y240142D01*
X292679Y239381D01*
X294669D01*
X296506Y240142D01*
X297913Y241549D01*
X298674Y243386D01*
Y245375D01*
X297913Y247213D01*
X296506Y248620D01*
X294669Y249381D01*
D02*
G37*
G36*
X274495D02*
X272505D01*
X270668Y248620D01*
X269261Y247213D01*
X268500Y245375D01*
Y243386D01*
X269261Y241549D01*
X270668Y240142D01*
X272505Y239381D01*
X274495D01*
X276332Y240142D01*
X277739Y241549D01*
X278500Y243386D01*
Y245375D01*
X277739Y247213D01*
X276332Y248620D01*
X274495Y249381D01*
D02*
G37*
G36*
X258995D02*
X257005D01*
X255168Y248620D01*
X253761Y247213D01*
X253000Y245375D01*
Y243386D01*
X253761Y241549D01*
X255168Y240142D01*
X257005Y239381D01*
X258995D01*
X260832Y240142D01*
X262239Y241549D01*
X263000Y243386D01*
Y245375D01*
X262239Y247213D01*
X260832Y248620D01*
X258995Y249381D01*
D02*
G37*
G36*
X244495D02*
X242505D01*
X240668Y248620D01*
X239261Y247213D01*
X238500Y245375D01*
Y243386D01*
X239261Y241549D01*
X240668Y240142D01*
X242505Y239381D01*
X244495D01*
X246332Y240142D01*
X247739Y241549D01*
X248500Y243386D01*
Y245375D01*
X247739Y247213D01*
X246332Y248620D01*
X244495Y249381D01*
D02*
G37*
G36*
X345745Y248000D02*
X343755D01*
X341918Y247239D01*
X340511Y245832D01*
X339750Y243995D01*
Y242005D01*
X340511Y240168D01*
X341918Y238761D01*
X343755Y238000D01*
X345745D01*
X347582Y238761D01*
X348989Y240168D01*
X349750Y242005D01*
Y243995D01*
X348989Y245832D01*
X347582Y247239D01*
X345745Y248000D01*
D02*
G37*
G36*
X332995D02*
X331005D01*
X329168Y247239D01*
X327761Y245832D01*
X327000Y243995D01*
Y242005D01*
X327761Y240168D01*
X329168Y238761D01*
X331005Y238000D01*
X332995D01*
X334832Y238761D01*
X336239Y240168D01*
X337000Y242005D01*
Y243995D01*
X336239Y245832D01*
X334832Y247239D01*
X332995Y248000D01*
D02*
G37*
G36*
X394245Y247500D02*
X392255D01*
X390418Y246739D01*
X389011Y245332D01*
X388250Y243495D01*
Y241505D01*
X389011Y239668D01*
X390418Y238261D01*
X392255Y237500D01*
X394245D01*
X396082Y238261D01*
X397489Y239668D01*
X398250Y241505D01*
Y243495D01*
X397489Y245332D01*
X396082Y246739D01*
X394245Y247500D01*
D02*
G37*
G36*
X147745Y235310D02*
X145756D01*
X143918Y234549D01*
X142511Y233142D01*
X141750Y231305D01*
Y229315D01*
X142511Y227478D01*
X143918Y226071D01*
X145756Y225310D01*
X147745D01*
X149582Y226071D01*
X150989Y227478D01*
X151750Y229315D01*
Y231305D01*
X150989Y233142D01*
X149582Y234549D01*
X147745Y235310D01*
D02*
G37*
G36*
X67653Y229000D02*
X65664D01*
X63826Y228239D01*
X62420Y226832D01*
X61659Y224995D01*
Y223005D01*
X62420Y221168D01*
X62640Y220948D01*
X62567Y219519D01*
X61380Y218332D01*
X60619Y216495D01*
Y214505D01*
X61380Y212668D01*
X62786Y211261D01*
X64624Y210500D01*
X66613D01*
X68451Y211261D01*
X69858Y212668D01*
X70619Y214505D01*
Y216495D01*
X69858Y218332D01*
X69638Y218552D01*
X69711Y219981D01*
X70898Y221168D01*
X71659Y223005D01*
Y224995D01*
X70898Y226832D01*
X69491Y228239D01*
X67653Y229000D01*
D02*
G37*
G36*
X351245Y216521D02*
X349255D01*
X347418Y215760D01*
X346011Y214353D01*
X345250Y212516D01*
Y210526D01*
X346011Y208689D01*
X347418Y207282D01*
X349255Y206521D01*
X351245D01*
X353082Y207282D01*
X354489Y208689D01*
X355250Y210526D01*
Y212516D01*
X354489Y214353D01*
X353082Y215760D01*
X351245Y216521D01*
D02*
G37*
G36*
X259933Y214744D02*
X257944D01*
X256106Y213983D01*
X254700Y212576D01*
X253939Y210738D01*
Y208749D01*
X254700Y206912D01*
X256106Y205505D01*
X257944Y204744D01*
X259933D01*
X261771Y205505D01*
X263178Y206912D01*
X263939Y208749D01*
Y210738D01*
X263178Y212576D01*
X261771Y213983D01*
X259933Y214744D01*
D02*
G37*
G36*
X244933D02*
X242944D01*
X241106Y213983D01*
X239700Y212576D01*
X238939Y210738D01*
Y208749D01*
X239700Y206912D01*
X241106Y205505D01*
X242944Y204744D01*
X244933D01*
X246771Y205505D01*
X248178Y206912D01*
X248939Y208749D01*
Y210738D01*
X248178Y212576D01*
X246771Y213983D01*
X244933Y214744D01*
D02*
G37*
G36*
X66468Y203873D02*
X64479D01*
X62641Y203112D01*
X61234Y201705D01*
X60473Y199867D01*
Y197878D01*
X61234Y196041D01*
X62641Y194634D01*
X64479Y193873D01*
X66468D01*
X68305Y194634D01*
X69712Y196041D01*
X70473Y197878D01*
Y199867D01*
X69712Y201705D01*
X68305Y203112D01*
X66468Y203873D01*
D02*
G37*
G36*
X53113Y202290D02*
X51124D01*
X49286Y201529D01*
X47880Y200123D01*
X47118Y198285D01*
Y196296D01*
X47880Y194458D01*
X49286Y193052D01*
X51124Y192290D01*
X53113D01*
X54951Y193052D01*
X56357Y194458D01*
X57118Y196296D01*
Y198285D01*
X56357Y200123D01*
X54951Y201529D01*
X53113Y202290D01*
D02*
G37*
G36*
X404053Y193091D02*
X401947D01*
X399912Y192545D01*
X398088Y191492D01*
X396599Y190003D01*
X396073Y189092D01*
X394814Y188927D01*
X394411Y189329D01*
X392573Y190091D01*
X390584D01*
X388746Y189329D01*
X387340Y187923D01*
X386579Y186085D01*
Y184096D01*
X387340Y182258D01*
X388746Y180852D01*
X390584Y180091D01*
X392573D01*
X394411Y180852D01*
X394814Y181255D01*
X396073Y181089D01*
X396599Y180179D01*
X398088Y178689D01*
X398947Y178193D01*
X399113Y176934D01*
X398761Y176582D01*
X398000Y174745D01*
Y172755D01*
X398761Y170918D01*
X400168Y169511D01*
X402005Y168750D01*
X403995D01*
X405832Y169511D01*
X407239Y170918D01*
X408000Y172755D01*
Y174745D01*
X407239Y176582D01*
X406887Y176934D01*
X407053Y178193D01*
X407912Y178689D01*
X409402Y180179D01*
X410455Y182003D01*
X411000Y184037D01*
Y186144D01*
X410455Y188179D01*
X409402Y190003D01*
X407912Y191492D01*
X406088Y192545D01*
X404053Y193091D01*
D02*
G37*
G36*
X271183Y192644D02*
X269194D01*
X267356Y191882D01*
X265950Y190476D01*
X265189Y188638D01*
Y186649D01*
X265950Y184811D01*
X267356Y183405D01*
X269194Y182644D01*
X271183D01*
X273021Y183405D01*
X274428Y184811D01*
X275189Y186649D01*
Y188638D01*
X274428Y190476D01*
X273021Y191882D01*
X271183Y192644D01*
D02*
G37*
G36*
X61243Y191100D02*
X58057D01*
X54980Y190275D01*
X52220Y188682D01*
X49967Y186430D01*
X48375Y183670D01*
X47620Y180854D01*
X46350Y181021D01*
Y191100D01*
X22150D01*
Y166900D01*
X46350D01*
Y176978D01*
X47620Y177146D01*
X48375Y174330D01*
X49967Y171570D01*
X52220Y169318D01*
X54980Y167725D01*
X58057Y166900D01*
X61243D01*
X62285Y167179D01*
X62942Y166040D01*
X62261Y165360D01*
X61500Y163522D01*
Y161533D01*
X62261Y159695D01*
X63668Y158288D01*
X65505Y157527D01*
X67495D01*
X69332Y158288D01*
X70739Y159695D01*
X71500Y161533D01*
X72704D01*
X73465Y159695D01*
X74872Y158288D01*
X76710Y157527D01*
X78699D01*
X80536Y158288D01*
X81943Y159695D01*
X82704Y161533D01*
Y163522D01*
X81943Y165360D01*
X80536Y166766D01*
X78699Y167527D01*
X76710D01*
X74872Y166766D01*
X73465Y165360D01*
X72704Y163522D01*
X71500D01*
X70739Y165360D01*
X69332Y166766D01*
X67495Y167527D01*
X66519D01*
X66178Y168797D01*
X67080Y169318D01*
X69332Y171570D01*
X70925Y174330D01*
X71750Y177407D01*
Y180593D01*
X70925Y183670D01*
X69332Y186430D01*
X67080Y188682D01*
X64320Y190275D01*
X61243Y191100D01*
D02*
G37*
G36*
X244933Y187955D02*
X242944D01*
X241106Y187194D01*
X239700Y185787D01*
X238939Y183950D01*
Y181961D01*
X239700Y180123D01*
X241106Y178716D01*
X242944Y177955D01*
X244933D01*
X246771Y178716D01*
X248178Y180123D01*
X248939Y181961D01*
Y183950D01*
X248178Y185787D01*
X246771Y187194D01*
X244933Y187955D01*
D02*
G37*
G36*
X259933Y187705D02*
X257944D01*
X256106Y186944D01*
X254700Y185537D01*
X253939Y183700D01*
Y181710D01*
X254700Y179873D01*
X256106Y178466D01*
X257944Y177705D01*
X259933D01*
X261771Y178466D01*
X263178Y179873D01*
X263939Y181710D01*
Y183700D01*
X263178Y185537D01*
X261771Y186944D01*
X259933Y187705D01*
D02*
G37*
G36*
X131423Y186250D02*
X129434D01*
X127597Y185489D01*
X126190Y184082D01*
X125429Y182245D01*
Y180255D01*
X126190Y178418D01*
X127597Y177011D01*
X129434Y176250D01*
X131423D01*
X133261Y177011D01*
X134668Y178418D01*
X135429Y180255D01*
Y182245D01*
X134668Y184082D01*
X133261Y185489D01*
X131423Y186250D01*
D02*
G37*
G36*
X142995Y183086D02*
X141005D01*
X139168Y182325D01*
X137761Y180918D01*
X137000Y179081D01*
Y177092D01*
X137761Y175254D01*
X139168Y173847D01*
X141005Y173086D01*
X142995D01*
X144832Y173847D01*
X146239Y175254D01*
X147000Y177092D01*
Y179081D01*
X146239Y180918D01*
X144832Y182325D01*
X142995Y183086D01*
D02*
G37*
G36*
X160995Y191500D02*
X159005D01*
X157168Y190739D01*
X155761Y189332D01*
X155000Y187495D01*
Y185505D01*
X155761Y183668D01*
X156331Y183098D01*
X156918Y182026D01*
X155511Y180620D01*
X154750Y178782D01*
Y176793D01*
X155511Y174955D01*
X156918Y173549D01*
X158755Y172787D01*
X160745D01*
X162582Y173549D01*
X163989Y174955D01*
X164750Y176793D01*
Y178782D01*
X163989Y180620D01*
X163419Y181189D01*
X162832Y182261D01*
X164239Y183668D01*
X165000Y185505D01*
Y187495D01*
X164239Y189332D01*
X162832Y190739D01*
X160995Y191500D01*
D02*
G37*
G36*
X185402Y178689D02*
X183413D01*
X181575Y177928D01*
X180168Y176521D01*
X179407Y174684D01*
Y172695D01*
X180168Y170857D01*
X181575Y169450D01*
X183413Y168689D01*
X185402D01*
X187239Y169450D01*
X188646Y170857D01*
X189407Y172695D01*
Y174684D01*
X188646Y176521D01*
X187239Y177928D01*
X185402Y178689D01*
D02*
G37*
G36*
X172395Y178000D02*
X170406D01*
X168568Y177239D01*
X167161Y175832D01*
X166400Y173995D01*
Y172005D01*
X167161Y170168D01*
X168568Y168761D01*
X170406Y168000D01*
X172395D01*
X174232Y168761D01*
X175639Y170168D01*
X176400Y172005D01*
Y173995D01*
X175639Y175832D01*
X174232Y177239D01*
X172395Y178000D01*
D02*
G37*
G36*
X116245Y167527D02*
X114255D01*
X112418Y166766D01*
X111011Y165360D01*
X110250Y163522D01*
Y161533D01*
X111011Y159695D01*
X112418Y158288D01*
X114255Y157527D01*
X116245D01*
X118082Y158288D01*
X119489Y159695D01*
X120250Y161533D01*
Y163522D01*
X119489Y165360D01*
X118082Y166766D01*
X116245Y167527D01*
D02*
G37*
G36*
X103722D02*
X101733D01*
X99895Y166766D01*
X98489Y165360D01*
X97727Y163522D01*
Y161533D01*
X98489Y159695D01*
X99895Y158288D01*
X101733Y157527D01*
X103722D01*
X105560Y158288D01*
X106966Y159695D01*
X107727Y161533D01*
Y163522D01*
X106966Y165360D01*
X105560Y166766D01*
X103722Y167527D01*
D02*
G37*
G36*
X172995Y152750D02*
X171005D01*
X169168Y151989D01*
X167761Y150582D01*
X167000Y148745D01*
Y146755D01*
X167761Y144918D01*
X169168Y143511D01*
X171005Y142750D01*
X172995D01*
X174832Y143511D01*
X176239Y144918D01*
X177000Y146755D01*
Y148745D01*
X176239Y150582D01*
X174832Y151989D01*
X172995Y152750D01*
D02*
G37*
G36*
X159745Y137850D02*
X157755D01*
X155918Y137089D01*
X154511Y135682D01*
X153750Y133844D01*
Y131855D01*
X154511Y130018D01*
X155918Y128611D01*
X157755Y127850D01*
X159745D01*
X161582Y128611D01*
X162989Y130018D01*
X163750Y131855D01*
Y133844D01*
X162989Y135682D01*
X161582Y137089D01*
X159745Y137850D01*
D02*
G37*
G36*
X467243Y166500D02*
X462757D01*
X458326Y165798D01*
X454060Y164412D01*
X450063Y162375D01*
X446433Y159739D01*
X443261Y156566D01*
X440625Y152937D01*
X438588Y148940D01*
X437202Y144674D01*
X436500Y140243D01*
Y135757D01*
X437202Y131326D01*
X438588Y127060D01*
X440625Y123063D01*
X443261Y119433D01*
X446433Y116261D01*
X450063Y113625D01*
X454060Y111588D01*
X458326Y110202D01*
X462757Y109500D01*
X467243D01*
X471674Y110202D01*
X475940Y111588D01*
X479937Y113625D01*
X483567Y116261D01*
X486739Y119433D01*
X489375Y123063D01*
X491412Y127060D01*
X492798Y131326D01*
X493500Y135757D01*
Y140243D01*
X492798Y144674D01*
X491412Y148940D01*
X489375Y152937D01*
X486739Y156566D01*
X483567Y159739D01*
X479937Y162375D01*
X475940Y164412D01*
X471674Y165798D01*
X467243Y166500D01*
D02*
G37*
G36*
X173493Y118250D02*
X171503D01*
X169666Y117489D01*
X168259Y116082D01*
X167498Y114245D01*
Y112255D01*
X168259Y110418D01*
X169666Y109011D01*
X171503Y108250D01*
X173493D01*
X175330Y109011D01*
X176737Y110418D01*
X177498Y112255D01*
Y114245D01*
X176737Y116082D01*
X175330Y117489D01*
X173493Y118250D01*
D02*
G37*
G36*
X184133Y107103D02*
X182144D01*
X180306Y106342D01*
X178900Y104935D01*
X178138Y103098D01*
Y101109D01*
X178900Y99271D01*
X180306Y97864D01*
X182144Y97103D01*
X184133D01*
X185971Y97864D01*
X187377Y99271D01*
X188138Y101109D01*
Y103098D01*
X187377Y104935D01*
X185971Y106342D01*
X184133Y107103D01*
D02*
G37*
G36*
X170155D02*
X168166D01*
X166328Y106342D01*
X164922Y104935D01*
X164161Y103098D01*
Y101109D01*
X164922Y99271D01*
X166328Y97864D01*
X168166Y97103D01*
X170155D01*
X171993Y97864D01*
X173400Y99271D01*
X174161Y101109D01*
Y103098D01*
X173400Y104935D01*
X171993Y106342D01*
X170155Y107103D01*
D02*
G37*
G36*
X193900Y74250D02*
X191911D01*
X190073Y73489D01*
X188666Y72082D01*
X188616Y71960D01*
X187259Y72003D01*
X185971Y73291D01*
X184133Y74052D01*
X182144D01*
X180306Y73291D01*
X178900Y71885D01*
X178138Y70047D01*
Y68999D01*
X176868Y68473D01*
X176082Y69259D01*
X174245Y70020D01*
X172255D01*
X170418Y69259D01*
X169011Y67853D01*
X168250Y66015D01*
Y64026D01*
X169011Y62188D01*
X170418Y60782D01*
X172255Y60020D01*
X174245D01*
X176082Y60782D01*
X177489Y62188D01*
X178250Y64026D01*
Y65074D01*
X179520Y65600D01*
X180306Y64814D01*
X182144Y64052D01*
X184133D01*
X185971Y64814D01*
X187377Y66220D01*
X187428Y66342D01*
X188785Y66300D01*
X190073Y65011D01*
X191911Y64250D01*
X193900D01*
X195738Y65011D01*
X197144Y66418D01*
X197905Y68255D01*
Y70245D01*
X197144Y72082D01*
X195738Y73489D01*
X193900Y74250D01*
D02*
G37*
G36*
X162745Y69750D02*
X160755D01*
X158918Y68989D01*
X157511Y67582D01*
X156750Y65745D01*
Y63755D01*
X157511Y61918D01*
X158918Y60511D01*
X160755Y59750D01*
X162745D01*
X164582Y60511D01*
X165989Y61918D01*
X166750Y63755D01*
Y65745D01*
X165989Y67582D01*
X164582Y68989D01*
X162745Y69750D01*
D02*
G37*
G36*
X150495Y68250D02*
X148505D01*
X146668Y67489D01*
X145261Y66082D01*
X144500Y64245D01*
Y62255D01*
X145261Y60418D01*
X146668Y59011D01*
X148505Y58250D01*
X150495D01*
X152332Y59011D01*
X153739Y60418D01*
X154500Y62255D01*
Y64245D01*
X153739Y66082D01*
X152332Y67489D01*
X150495Y68250D01*
D02*
G37*
G36*
X97019Y91500D02*
X92981D01*
X89020Y90712D01*
X85289Y89167D01*
X81932Y86923D01*
X79077Y84068D01*
X76833Y80710D01*
X75288Y76980D01*
X74500Y73019D01*
Y68981D01*
X75288Y65020D01*
X76833Y61290D01*
X79077Y57932D01*
X81932Y55077D01*
X85289Y52833D01*
X89020Y51288D01*
X92981Y50500D01*
X97019D01*
X100980Y51288D01*
X104710Y52833D01*
X108068Y55077D01*
X110923Y57932D01*
X113167Y61290D01*
X114712Y65020D01*
X115500Y68981D01*
Y73019D01*
X114712Y76980D01*
X113167Y80710D01*
X110923Y84068D01*
X108068Y86923D01*
X104710Y89167D01*
X100980Y90712D01*
X97019Y91500D01*
D02*
G37*
G36*
X458639Y63450D02*
X455361D01*
X452195Y62602D01*
X449356Y60963D01*
X447038Y58644D01*
X445398Y55806D01*
X444550Y52639D01*
Y49361D01*
X445398Y46195D01*
X447038Y43355D01*
X449356Y41038D01*
X452195Y39398D01*
X455361Y38550D01*
X458639D01*
X461805Y39398D01*
X464645Y41038D01*
X466963Y43355D01*
X468602Y46195D01*
X469450Y49361D01*
Y52639D01*
X468602Y55806D01*
X466963Y58644D01*
X464645Y60963D01*
X461805Y62602D01*
X458639Y63450D01*
D02*
G37*
G36*
X52639D02*
X49361D01*
X46195Y62602D01*
X43355Y60963D01*
X41038Y58644D01*
X39398Y55806D01*
X38550Y52639D01*
Y49361D01*
X39398Y46195D01*
X41038Y43355D01*
X43355Y41038D01*
X46195Y39398D01*
X49361Y38550D01*
X52639D01*
X55806Y39398D01*
X58644Y41038D01*
X60963Y43355D01*
X62602Y46195D01*
X63450Y49361D01*
Y52639D01*
X62602Y55806D01*
X60963Y58644D01*
X58644Y60963D01*
X55806Y62602D01*
X52639Y63450D01*
D02*
G37*
G36*
X408019Y61500D02*
X403981D01*
X400020Y60712D01*
X396290Y59167D01*
X392932Y56923D01*
X390077Y54068D01*
X387833Y50710D01*
X386288Y46980D01*
X385500Y43019D01*
Y38981D01*
X386288Y35020D01*
X387833Y31290D01*
X390077Y27932D01*
X392932Y25077D01*
X396290Y22833D01*
X400020Y21288D01*
X403981Y20500D01*
X408019D01*
X411980Y21288D01*
X415710Y22833D01*
X419068Y25077D01*
X421923Y27932D01*
X424167Y31290D01*
X425712Y35020D01*
X426500Y38981D01*
Y43019D01*
X425712Y46980D01*
X424167Y50710D01*
X421923Y54068D01*
X419068Y56923D01*
X415710Y59167D01*
X411980Y60712D01*
X408019Y61500D01*
D02*
G37*
%LPD*%
D77*
X34250Y179000D02*
D03*
D78*
X59650D02*
D03*
D79*
X192000Y484000D02*
D03*
X51000Y457000D02*
D03*
X457000Y51000D02*
D03*
Y457000D02*
D03*
X132000Y484000D02*
D03*
X102000D02*
D03*
X72000D02*
D03*
X457000Y254000D02*
D03*
X51000Y51000D02*
D03*
X162000Y484000D02*
D03*
D80*
X465000Y138000D02*
D03*
Y349000D02*
D03*
D81*
X340000Y395000D02*
D03*
X315000Y203311D02*
D03*
X241500Y478750D02*
D03*
X220968Y339000D02*
D03*
X349911Y39320D02*
D03*
X350161Y52070D02*
D03*
X350607Y63513D02*
D03*
X350161Y75070D02*
D03*
X360411Y74570D02*
D03*
X360857Y63014D02*
D03*
X360411Y51570D02*
D03*
X360161Y38820D02*
D03*
X350911Y90320D02*
D03*
X351161Y103070D02*
D03*
X351607Y114514D02*
D03*
X351161Y126070D02*
D03*
X361411Y125570D02*
D03*
X361857Y114014D02*
D03*
X361411Y102570D02*
D03*
X361161Y89820D02*
D03*
X308000Y46100D02*
D03*
X320750Y45850D02*
D03*
X332193Y45405D02*
D03*
X343750Y45850D02*
D03*
X343250Y35600D02*
D03*
X331693Y35155D02*
D03*
X320250Y35600D02*
D03*
X307500Y35850D02*
D03*
Y84500D02*
D03*
X320250Y84250D02*
D03*
X331693Y83804D02*
D03*
X343250Y84250D02*
D03*
X342750Y74000D02*
D03*
X331194Y73554D02*
D03*
X319750Y74000D02*
D03*
X307000Y74250D02*
D03*
X306320Y53339D02*
D03*
X319070Y53089D02*
D03*
X330513Y52643D02*
D03*
X342070Y53089D02*
D03*
X342570Y63339D02*
D03*
X331013Y62893D02*
D03*
X319570Y63339D02*
D03*
X306820Y63589D02*
D03*
Y105339D02*
D03*
X319570Y105089D02*
D03*
X331013Y104643D02*
D03*
X342570Y105089D02*
D03*
X342070Y94839D02*
D03*
X330513Y94393D02*
D03*
X319070Y94839D02*
D03*
X306320Y95089D02*
D03*
X307000Y116000D02*
D03*
X319750Y115750D02*
D03*
X331194Y115304D02*
D03*
X342750Y115750D02*
D03*
X343250Y126000D02*
D03*
X331693Y125554D02*
D03*
X320250Y126000D02*
D03*
X307500Y126250D02*
D03*
X192905Y69250D02*
D03*
X183138Y69052D02*
D03*
X173250Y65020D02*
D03*
X161750Y64750D02*
D03*
X149500Y63250D02*
D03*
X234398Y422690D02*
D03*
X223373Y415288D02*
D03*
X298715Y489190D02*
D03*
X351500Y488750D02*
D03*
X445113Y472750D02*
D03*
X475000Y447750D02*
D03*
X315000Y405000D02*
D03*
X327500Y395000D02*
D03*
X342703Y406495D02*
D03*
X206542Y332843D02*
D03*
X193292Y330805D02*
D03*
X145000Y264000D02*
D03*
X156752Y276869D02*
D03*
X83952Y262552D02*
D03*
X17462Y347587D02*
D03*
X363500Y449682D02*
D03*
X241197Y308750D02*
D03*
X285250Y446030D02*
D03*
X372500Y440000D02*
D03*
X440352Y374949D02*
D03*
X294500Y454750D02*
D03*
X270921Y437500D02*
D03*
X267761Y319250D02*
D03*
X172000Y147750D02*
D03*
X158750Y132850D02*
D03*
X52118Y197290D02*
D03*
X65473Y198873D02*
D03*
X65619Y215500D02*
D03*
X66659Y224000D02*
D03*
X87000Y475250D02*
D03*
X117080Y493963D02*
D03*
X177000Y492750D02*
D03*
X209500Y489750D02*
D03*
X444999Y421418D02*
D03*
X69000Y463250D02*
D03*
X289250Y269500D02*
D03*
X343677Y360775D02*
D03*
X391028Y361264D02*
D03*
X354750Y339500D02*
D03*
X363284Y389088D02*
D03*
X259492Y353693D02*
D03*
X274414Y352344D02*
D03*
X334750Y326000D02*
D03*
X297250Y385500D02*
D03*
X228424Y209744D02*
D03*
X224129Y188721D02*
D03*
X243500Y244381D02*
D03*
X212000Y174955D02*
D03*
X159750Y177787D02*
D03*
X171400Y173000D02*
D03*
X258939Y182705D02*
D03*
X243939Y182955D02*
D03*
X270189Y187644D02*
D03*
X258939Y209744D02*
D03*
X243939D02*
D03*
X279206Y190705D02*
D03*
X169161Y102103D02*
D03*
X183138D02*
D03*
X172498Y113250D02*
D03*
X95610Y353378D02*
D03*
X184407Y173689D02*
D03*
X146750Y230310D02*
D03*
X350250Y211521D02*
D03*
X344750Y243000D02*
D03*
X332000D02*
D03*
X243500Y257561D02*
D03*
X293674Y244381D02*
D03*
X206956Y397805D02*
D03*
X207706Y432800D02*
D03*
X175750D02*
D03*
X51500Y390689D02*
D03*
X103750Y358378D02*
D03*
X142000Y359750D02*
D03*
X109250Y377668D02*
D03*
X139750Y463508D02*
D03*
X17785Y397960D02*
D03*
X17500Y388019D02*
D03*
Y377710D02*
D03*
Y367710D02*
D03*
Y357460D02*
D03*
X8744Y354901D02*
D03*
X244245Y292311D02*
D03*
X393250Y242500D02*
D03*
X272892Y294750D02*
D03*
X55967Y354628D02*
D03*
X27078Y93504D02*
D03*
X129610Y95565D02*
D03*
X55090Y93504D02*
D03*
X91000Y108500D02*
D03*
X391579Y185091D02*
D03*
X403000Y173750D02*
D03*
Y263500D02*
D03*
X414482Y274431D02*
D03*
X273500Y244381D02*
D03*
X258000D02*
D03*
Y292250D02*
D03*
X363962Y297432D02*
D03*
X232250Y291385D02*
D03*
X264500Y375775D02*
D03*
X375750Y322588D02*
D03*
X145319Y249000D02*
D03*
X160000Y186500D02*
D03*
X84365Y251500D02*
D03*
X22702Y246500D02*
D03*
X52108Y254060D02*
D03*
X102727Y162527D02*
D03*
X66500D02*
D03*
X77704D02*
D03*
X115250D02*
D03*
X142000Y178086D02*
D03*
X130429Y181250D02*
D03*
X114250Y104000D02*
D03*
X72036Y102261D02*
D03*
X41916Y93504D02*
D03*
X55090Y106500D02*
D03*
X91005Y119250D02*
D03*
X129500Y106500D02*
D03*
X403000Y185091D02*
D03*
X403000Y274431D02*
D03*
M02*
