G04*
G04 #@! TF.GenerationSoftware,Altium Limited,Altium Designer,24.9.1 (31)*
G04*
G04 Layer_Color=16711935*
%FSLAX44Y44*%
%MOMM*%
G71*
G04*
G04 #@! TF.SameCoordinates,5CB356DA-BA5B-4781-A63E-117D8A58D640*
G04*
G04*
G04 #@! TF.FilePolarity,Negative*
G04*
G01*
G75*
%ADD30R,0.9000X0.7500*%
G04:AMPARAMS|DCode=31|XSize=0.565mm|YSize=0.2mm|CornerRadius=0.05mm|HoleSize=0mm|Usage=FLASHONLY|Rotation=90.000|XOffset=0mm|YOffset=0mm|HoleType=Round|Shape=RoundedRectangle|*
%AMROUNDEDRECTD31*
21,1,0.5650,0.1000,0,0,90.0*
21,1,0.4650,0.2000,0,0,90.0*
1,1,0.1000,0.0500,0.2325*
1,1,0.1000,0.0500,-0.2325*
1,1,0.1000,-0.0500,-0.2325*
1,1,0.1000,-0.0500,0.2325*
%
%ADD31ROUNDEDRECTD31*%
%ADD38R,0.7500X0.9000*%
%ADD42R,0.5811X0.5121*%
%ADD43R,0.4000X0.5000*%
%ADD44R,0.5200X0.5200*%
%ADD46R,0.5121X0.5811*%
%ADD53R,0.5200X0.5200*%
%ADD55R,0.9582X1.1061*%
%ADD61R,0.4500X0.6750*%
%ADD68R,0.6750X0.4500*%
%ADD80R,0.6725X0.7154*%
%ADD83R,0.7154X0.6725*%
%ADD93R,0.5153X0.4725*%
G04:AMPARAMS|DCode=100|XSize=0.565mm|YSize=0.4mm|CornerRadius=0.05mm|HoleSize=0mm|Usage=FLASHONLY|Rotation=90.000|XOffset=0mm|YOffset=0mm|HoleType=Round|Shape=RoundedRectangle|*
%AMROUNDEDRECTD100*
21,1,0.5650,0.3000,0,0,90.0*
21,1,0.4650,0.4000,0,0,90.0*
1,1,0.1000,0.1500,0.2325*
1,1,0.1000,0.1500,-0.2325*
1,1,0.1000,-0.1500,-0.2325*
1,1,0.1000,-0.1500,0.2325*
%
%ADD100ROUNDEDRECTD100*%
%ADD108R,1.1032X1.2032*%
%ADD109R,1.2032X1.1032*%
%ADD114R,0.8032X0.7532*%
%ADD115R,0.7532X0.8032*%
%ADD117R,0.8032X0.8532*%
%ADD124R,0.8532X0.8032*%
%ADD126R,0.9032X0.8532*%
%ADD136O,1.7032X2.9032*%
%ADD137O,1.7032X3.5032*%
%ADD138C,3.2512*%
%ADD139C,2.4248*%
%ADD140C,1.5660*%
%ADD141R,1.3890X1.3890*%
%ADD142C,1.3890*%
%ADD143R,2.2032X2.2032*%
%ADD144C,0.2032*%
%ADD145C,2.9032*%
%ADD146C,1.6232*%
G04:AMPARAMS|DCode=147|XSize=1.6232mm|YSize=1.6232mm|CornerRadius=0.4566mm|HoleSize=0mm|Usage=FLASHONLY|Rotation=180.000|XOffset=0mm|YOffset=0mm|HoleType=Round|Shape=RoundedRectangle|*
%AMROUNDEDRECTD147*
21,1,1.6232,0.7100,0,0,180.0*
21,1,0.7100,1.6232,0,0,180.0*
1,1,0.9132,-0.3550,0.3550*
1,1,0.9132,0.3550,0.3550*
1,1,0.9132,0.3550,-0.3550*
1,1,0.9132,-0.3550,-0.3550*
%
%ADD147ROUNDEDRECTD147*%
%ADD148C,3.6532*%
G04:AMPARAMS|DCode=149|XSize=0.8mm|YSize=1.4mm|CornerRadius=0.4mm|HoleSize=0mm|Usage=FLASHONLY|Rotation=180.000|XOffset=0mm|YOffset=0mm|HoleType=Round|Shape=RoundedRectangle|*
%AMROUNDEDRECTD149*
21,1,0.8000,0.6000,0,0,180.0*
21,1,0.0000,1.4000,0,0,180.0*
1,1,0.8000,0.0000,0.3000*
1,1,0.8000,0.0000,0.3000*
1,1,0.8000,0.0000,-0.3000*
1,1,0.8000,0.0000,-0.3000*
%
%ADD149ROUNDEDRECTD149*%
G04:AMPARAMS|DCode=150|XSize=0.95mm|YSize=0.65mm|CornerRadius=0.325mm|HoleSize=0mm|Usage=FLASHONLY|Rotation=180.000|XOffset=0mm|YOffset=0mm|HoleType=Round|Shape=RoundedRectangle|*
%AMROUNDEDRECTD150*
21,1,0.9500,0.0000,0,0,180.0*
21,1,0.3000,0.6500,0,0,180.0*
1,1,0.6500,-0.1500,0.0000*
1,1,0.6500,0.1500,0.0000*
1,1,0.6500,0.1500,0.0000*
1,1,0.6500,-0.1500,0.0000*
%
%ADD150ROUNDEDRECTD150*%
%ADD151C,0.6500*%
%ADD152C,1.6032*%
%ADD153R,1.6032X1.6032*%
%ADD154C,2.3032*%
%ADD155C,2.0032*%
%ADD156C,3.1532*%
%ADD157C,1.4532*%
%ADD158C,0.6096*%
%ADD159C,0.5032*%
%ADD160C,0.5000*%
%ADD161C,0.7032*%
G04:AMPARAMS|DCode=195|XSize=0.565mm|YSize=0.2mm|CornerRadius=0.05mm|HoleSize=0mm|Usage=FLASHONLY|Rotation=180.000|XOffset=0mm|YOffset=0mm|HoleType=Round|Shape=RoundedRectangle|*
%AMROUNDEDRECTD195*
21,1,0.5650,0.1000,0,0,180.0*
21,1,0.4650,0.2000,0,0,180.0*
1,1,0.1000,-0.2325,0.0500*
1,1,0.1000,0.2325,0.0500*
1,1,0.1000,0.2325,-0.0500*
1,1,0.1000,-0.2325,-0.0500*
%
%ADD195ROUNDEDRECTD195*%
G04:AMPARAMS|DCode=196|XSize=0.565mm|YSize=0.4mm|CornerRadius=0.05mm|HoleSize=0mm|Usage=FLASHONLY|Rotation=180.000|XOffset=0mm|YOffset=0mm|HoleType=Round|Shape=RoundedRectangle|*
%AMROUNDEDRECTD196*
21,1,0.5650,0.3000,0,0,180.0*
21,1,0.4650,0.4000,0,0,180.0*
1,1,0.1000,-0.2325,0.1500*
1,1,0.1000,0.2325,0.1500*
1,1,0.1000,0.2325,-0.1500*
1,1,0.1000,-0.2325,-0.1500*
%
%ADD196ROUNDEDRECTD196*%
%ADD197R,0.5000X0.4000*%
%ADD200R,0.7532X0.7032*%
%ADD201R,1.1532X1.2532*%
%ADD202R,1.2532X1.1532*%
%ADD203R,1.0032X1.4032*%
D30*
X186690Y407320D02*
D03*
Y395320D02*
D03*
X152730Y407320D02*
D03*
Y395320D02*
D03*
D31*
X840900Y382270D02*
D03*
X845900D02*
D03*
X855900D02*
D03*
X860900D02*
D03*
Y373920D02*
D03*
X855900D02*
D03*
X845900D02*
D03*
X840900D02*
D03*
X536100Y361045D02*
D03*
X541100D02*
D03*
X551100D02*
D03*
X556100D02*
D03*
Y352695D02*
D03*
X551100D02*
D03*
X541100D02*
D03*
X536100D02*
D03*
X350360Y220075D02*
D03*
X345360D02*
D03*
X335360D02*
D03*
X330360D02*
D03*
Y211725D02*
D03*
X335360D02*
D03*
X345360D02*
D03*
X350360D02*
D03*
D38*
X175668Y461963D02*
D03*
X187668D02*
D03*
X136931Y444901D02*
D03*
X124931D02*
D03*
D42*
X365677Y633588D02*
D03*
X372987D02*
D03*
X411635Y655320D02*
D03*
X418945D02*
D03*
X484025Y594360D02*
D03*
X491335D02*
D03*
X426565Y633730D02*
D03*
X419255D02*
D03*
X406245Y635000D02*
D03*
X398935D02*
D03*
X366776Y655647D02*
D03*
X374086D02*
D03*
X435765Y652780D02*
D03*
X443075D02*
D03*
X264005Y580390D02*
D03*
X256695D02*
D03*
X435765Y633730D02*
D03*
X443075D02*
D03*
X477675Y515620D02*
D03*
X484985D02*
D03*
X471269Y504688D02*
D03*
X478579D02*
D03*
X320195Y439420D02*
D03*
X327505D02*
D03*
X273468Y518501D02*
D03*
X266157D02*
D03*
X289385Y541300D02*
D03*
X296695D02*
D03*
X478945Y481330D02*
D03*
X486255D02*
D03*
X349095Y438150D02*
D03*
X341785D02*
D03*
X279709Y511810D02*
D03*
X287020D02*
D03*
X558755Y440955D02*
D03*
X551445D02*
D03*
X557695Y460979D02*
D03*
X550384D02*
D03*
X628805Y490220D02*
D03*
X636115D02*
D03*
X646585Y458470D02*
D03*
X653895D02*
D03*
X646585Y433070D02*
D03*
X653895D02*
D03*
X645315Y419100D02*
D03*
X652625D02*
D03*
X646585Y474980D02*
D03*
X653895D02*
D03*
X565305Y427990D02*
D03*
X572615D02*
D03*
X190655Y433070D02*
D03*
X197965D02*
D03*
X139038Y432509D02*
D03*
X131728D02*
D03*
X190655Y422910D02*
D03*
X197965D02*
D03*
X139391Y421640D02*
D03*
X132080D02*
D03*
D43*
X35750Y713740D02*
D03*
X27750D02*
D03*
X35750Y702310D02*
D03*
X27750D02*
D03*
D44*
X87630Y590360D02*
D03*
Y598360D02*
D03*
D46*
X262890Y599595D02*
D03*
Y606905D02*
D03*
X347980Y655475D02*
D03*
Y662785D02*
D03*
X460782Y578333D02*
D03*
Y585644D02*
D03*
X460691Y534135D02*
D03*
Y541446D02*
D03*
X406911Y443145D02*
D03*
Y435834D02*
D03*
X356870Y440535D02*
D03*
Y433225D02*
D03*
X266068Y557833D02*
D03*
Y565144D02*
D03*
X427990Y444345D02*
D03*
Y437035D02*
D03*
X384810Y445615D02*
D03*
Y438305D02*
D03*
X364490Y444345D02*
D03*
Y437035D02*
D03*
X285370Y499145D02*
D03*
Y491835D02*
D03*
X482600Y529745D02*
D03*
Y537055D02*
D03*
X396240Y439265D02*
D03*
Y431955D02*
D03*
X287020Y483715D02*
D03*
Y476405D02*
D03*
X286393Y553715D02*
D03*
Y561025D02*
D03*
X583092Y486809D02*
D03*
Y494119D02*
D03*
X599440Y478635D02*
D03*
Y471325D02*
D03*
X574040Y410365D02*
D03*
Y417675D02*
D03*
X610870Y478635D02*
D03*
Y471325D02*
D03*
X588010Y421485D02*
D03*
Y414175D02*
D03*
X605790Y412905D02*
D03*
Y420215D02*
D03*
D53*
X34480Y726440D02*
D03*
X26480D02*
D03*
X51880Y844550D02*
D03*
X59880D02*
D03*
D55*
X176860Y423769D02*
D03*
Y437291D02*
D03*
X152730Y423769D02*
D03*
Y437291D02*
D03*
D61*
X63045Y612140D02*
D03*
X53795D02*
D03*
X33835Y770890D02*
D03*
X24585D02*
D03*
X33835Y756920D02*
D03*
X24585D02*
D03*
X36375Y619760D02*
D03*
X27125D02*
D03*
D68*
X69850Y806685D02*
D03*
Y815935D02*
D03*
D80*
X102870Y589574D02*
D03*
Y599146D02*
D03*
D83*
X37806Y607060D02*
D03*
X28234D02*
D03*
D93*
X50824Y834390D02*
D03*
X58396D02*
D03*
D100*
X850900Y382270D02*
D03*
Y373920D02*
D03*
X546100Y361045D02*
D03*
Y352695D02*
D03*
X340360Y220075D02*
D03*
Y211725D02*
D03*
D108*
X206140Y447040D02*
D03*
X192640D02*
D03*
X134220Y459740D02*
D03*
X147720D02*
D03*
D109*
X171099Y393931D02*
D03*
Y407431D02*
D03*
X137160Y393300D02*
D03*
Y406800D02*
D03*
D114*
X1039690Y633730D02*
D03*
X1048190D02*
D03*
X1025720Y647700D02*
D03*
X1034220D02*
D03*
X1110374Y626034D02*
D03*
X1118874D02*
D03*
X1032070Y621030D02*
D03*
X1040570D02*
D03*
X202370Y899160D02*
D03*
X193870D02*
D03*
X352230Y924560D02*
D03*
X343730D02*
D03*
X349690Y869950D02*
D03*
X341190D02*
D03*
X85920Y721360D02*
D03*
X94420D02*
D03*
D115*
X748030Y353890D02*
D03*
Y362390D02*
D03*
X664210Y353890D02*
D03*
Y362390D02*
D03*
X419220Y343931D02*
D03*
Y352431D02*
D03*
X313690Y350080D02*
D03*
Y358580D02*
D03*
X722630Y108390D02*
D03*
Y99890D02*
D03*
X913130Y112200D02*
D03*
Y103700D02*
D03*
X273050Y101160D02*
D03*
Y109660D02*
D03*
X468850Y102026D02*
D03*
Y110526D02*
D03*
X500380Y98620D02*
D03*
Y107120D02*
D03*
X688340Y98620D02*
D03*
Y107120D02*
D03*
X87630Y903800D02*
D03*
Y912300D02*
D03*
X76200Y903800D02*
D03*
Y912300D02*
D03*
D117*
X292100Y442840D02*
D03*
Y434340D02*
D03*
X64770Y698940D02*
D03*
Y690440D02*
D03*
X617220Y414020D02*
D03*
Y422520D02*
D03*
X147320Y376360D02*
D03*
Y367860D02*
D03*
X191770Y348420D02*
D03*
Y339920D02*
D03*
X140970Y347590D02*
D03*
Y339090D02*
D03*
X130810Y347150D02*
D03*
Y338650D02*
D03*
X151130Y347150D02*
D03*
Y338650D02*
D03*
X161290Y348420D02*
D03*
Y339920D02*
D03*
X171488Y348642D02*
D03*
Y340142D02*
D03*
X181610Y348420D02*
D03*
Y339920D02*
D03*
X48920Y559230D02*
D03*
Y550730D02*
D03*
X68580Y558800D02*
D03*
Y550300D02*
D03*
Y583760D02*
D03*
Y592260D02*
D03*
X58420D02*
D03*
Y583760D02*
D03*
D124*
X85920Y711200D02*
D03*
X94420D02*
D03*
X437320Y662940D02*
D03*
X428820D02*
D03*
X801810Y553720D02*
D03*
X793310D02*
D03*
X1119310Y641350D02*
D03*
X1110810D02*
D03*
X777680Y314960D02*
D03*
X769180D02*
D03*
X633290Y313690D02*
D03*
X641790D02*
D03*
X416120Y63500D02*
D03*
X424620D02*
D03*
X556700Y313690D02*
D03*
X548200D02*
D03*
X854710D02*
D03*
X863210D02*
D03*
X409770Y314960D02*
D03*
X418270D02*
D03*
X639458Y65279D02*
D03*
X647958D02*
D03*
D126*
X1037920Y670560D02*
D03*
X1047420D02*
D03*
X1109740Y654034D02*
D03*
X1119240D02*
D03*
X1036650Y657860D02*
D03*
X1046150D02*
D03*
D136*
X552260Y922710D02*
D03*
X697260D02*
D03*
D137*
X552260Y862710D02*
D03*
X697260D02*
D03*
D138*
X436372Y109982D02*
D03*
X305308D02*
D03*
X750824D02*
D03*
X881888D02*
D03*
X528574D02*
D03*
X659638D02*
D03*
D139*
X286893Y227838D02*
D03*
X454787D02*
D03*
X286893Y64262D02*
D03*
X454787D02*
D03*
X900303D02*
D03*
X732409D02*
D03*
X900303Y227838D02*
D03*
X732409D02*
D03*
X678053Y64262D02*
D03*
X510159D02*
D03*
X678053Y227838D02*
D03*
X510159D02*
D03*
D140*
X316230Y330200D02*
D03*
X341630D02*
D03*
X400050D02*
D03*
X425450D02*
D03*
X311404Y81534D02*
D03*
X331724D02*
D03*
X409956D02*
D03*
X430276D02*
D03*
X875792D02*
D03*
X855472D02*
D03*
X777240D02*
D03*
X756920D02*
D03*
X870966Y330200D02*
D03*
X845566D02*
D03*
X787146D02*
D03*
X761746D02*
D03*
X653542Y81534D02*
D03*
X633222D02*
D03*
X554990D02*
D03*
X534670D02*
D03*
X648716Y330200D02*
D03*
X623316D02*
D03*
X564896D02*
D03*
X539496D02*
D03*
D141*
X310642Y162560D02*
D03*
X756158D02*
D03*
X533908D02*
D03*
D142*
X330708D02*
D03*
X350774D02*
D03*
X370840D02*
D03*
X390906D02*
D03*
X410972D02*
D03*
X431038D02*
D03*
X320802Y187960D02*
D03*
X340868D02*
D03*
X360934D02*
D03*
X381000D02*
D03*
X401066D02*
D03*
X421132D02*
D03*
X310642Y266700D02*
D03*
X330708D02*
D03*
X350774D02*
D03*
X370840D02*
D03*
X390906D02*
D03*
X410972D02*
D03*
X431038D02*
D03*
X320802Y292100D02*
D03*
X340868D02*
D03*
X360934D02*
D03*
X381000D02*
D03*
X401066D02*
D03*
X421132D02*
D03*
X866648D02*
D03*
X846582D02*
D03*
X826516D02*
D03*
X806450D02*
D03*
X786384D02*
D03*
X766318D02*
D03*
X876554Y266700D02*
D03*
X856488D02*
D03*
X836422D02*
D03*
X816356D02*
D03*
X796290D02*
D03*
X776224D02*
D03*
X756158D02*
D03*
X866648Y187960D02*
D03*
X846582D02*
D03*
X826516D02*
D03*
X806450D02*
D03*
X786384D02*
D03*
X766318D02*
D03*
X876554Y162560D02*
D03*
X856488D02*
D03*
X836422D02*
D03*
X816356D02*
D03*
X796290D02*
D03*
X776224D02*
D03*
X644398Y292100D02*
D03*
X624332D02*
D03*
X604266D02*
D03*
X584200D02*
D03*
X564134D02*
D03*
X544068D02*
D03*
X654304Y266700D02*
D03*
X634238D02*
D03*
X614172D02*
D03*
X594106D02*
D03*
X574040D02*
D03*
X553974D02*
D03*
X533908D02*
D03*
X644398Y187960D02*
D03*
X624332D02*
D03*
X604266D02*
D03*
X584200D02*
D03*
X564134D02*
D03*
X544068D02*
D03*
X654304Y162560D02*
D03*
X634238D02*
D03*
X614172D02*
D03*
X594106D02*
D03*
X574040D02*
D03*
X553974D02*
D03*
D143*
X234312Y167442D02*
D03*
X177612Y117442D02*
D03*
X91812D02*
D03*
Y217442D02*
D03*
X234312Y267442D02*
D03*
X91812Y317442D02*
D03*
X148612D02*
D03*
X202612D02*
D03*
X234312Y367442D02*
D03*
X91812Y417442D02*
D03*
X234312Y467442D02*
D03*
D144*
X234362Y345442D02*
D03*
X91762D02*
D03*
X234362Y392442D02*
D03*
X91762D02*
D03*
Y442442D02*
D03*
X234362D02*
D03*
X115062Y488442D02*
D03*
X163062D02*
D03*
X211062D02*
D03*
D145*
X1091222Y392034D02*
D03*
X761186D02*
D03*
Y872034D02*
D03*
X1091186D02*
D03*
D146*
X435770Y841800D02*
D03*
X455770D02*
D03*
X410770D02*
D03*
D147*
X480770D02*
D03*
D148*
X511470Y868900D02*
D03*
X380070D02*
D03*
D149*
X36700Y941710D02*
D03*
X126500D02*
D03*
X40300Y882210D02*
D03*
X122900D02*
D03*
D150*
X45600Y869710D02*
D03*
D151*
X117600D02*
D03*
D152*
X269240Y744220D02*
D03*
X299720Y769620D02*
D03*
X279400D02*
D03*
X259080D02*
D03*
X238760D02*
D03*
X218440D02*
D03*
X309880Y744220D02*
D03*
X228600D02*
D03*
X208280D02*
D03*
X198120Y769620D02*
D03*
X187960Y744220D02*
D03*
D153*
X289560D02*
D03*
D154*
X161036Y835660D02*
D03*
X336804D02*
D03*
D155*
X173736Y924560D02*
D03*
Y899160D02*
D03*
X324104D02*
D03*
Y924560D02*
D03*
Y873760D02*
D03*
D156*
X200660Y835660D02*
D03*
X297180D02*
D03*
D157*
X117062Y417442D02*
D03*
X213062D02*
D03*
D158*
X1023620Y599440D02*
D03*
X1005840Y603250D02*
D03*
X1052830Y680720D02*
D03*
X1103630Y683260D02*
D03*
X1093576Y678180D02*
D03*
X1101090Y579120D02*
D03*
X1099737Y566814D02*
D03*
X1062239Y583043D02*
D03*
X765048Y581914D02*
D03*
X764794Y629920D02*
D03*
Y606044D02*
D03*
X765491Y571723D02*
D03*
X764148Y713612D02*
D03*
X764695Y665902D02*
D03*
X764415Y678306D02*
D03*
Y689735D02*
D03*
X764286Y702056D02*
D03*
X784606Y579374D02*
D03*
X1062736Y694944D02*
D03*
X1069086Y700024D02*
D03*
Y710184D02*
D03*
X1062736Y705104D02*
D03*
Y713954D02*
D03*
X1056640Y569468D02*
D03*
X1054608Y601980D02*
D03*
X784606Y664114D02*
D03*
X790956Y659384D02*
D03*
X1062736Y661924D02*
D03*
Y641223D02*
D03*
X1069086Y646684D02*
D03*
Y656844D02*
D03*
Y636114D02*
D03*
X1062736Y630174D02*
D03*
X750316Y568452D02*
D03*
X1069086Y762254D02*
D03*
X1100763Y741934D02*
D03*
X1094614Y630046D02*
D03*
Y640462D02*
D03*
X1100836Y647954D02*
D03*
Y672114D02*
D03*
X1094592Y692404D02*
D03*
Y703834D02*
D03*
X1100836Y697484D02*
D03*
Y625094D02*
D03*
X1094199Y591957D02*
D03*
X1100836Y584454D02*
D03*
X1101069Y594614D02*
D03*
X1094486Y599694D02*
D03*
X1089406Y614934D02*
D03*
X1094614Y620143D02*
D03*
X1100836Y614934D02*
D03*
X1089406Y635254D02*
D03*
X1100836D02*
D03*
Y752114D02*
D03*
X1094486Y651764D02*
D03*
X1089406Y657943D02*
D03*
X1069340Y678722D02*
D03*
X1100836Y759714D02*
D03*
X1100846Y731774D02*
D03*
X1094466Y738112D02*
D03*
X1094486Y748284D02*
D03*
X1069086Y738124D02*
D03*
X1060958Y756412D02*
D03*
X782828Y556834D02*
D03*
X752856Y559054D02*
D03*
X788416Y755904D02*
D03*
X1100836Y561594D02*
D03*
Y573024D02*
D03*
X754126Y760984D02*
D03*
X764000Y724667D02*
D03*
X761746Y753110D02*
D03*
X763778Y736346D02*
D03*
D159*
X603170Y440770D02*
D03*
X593170D02*
D03*
Y450770D02*
D03*
X603170D02*
D03*
D160*
X92710Y842430D02*
D03*
Y831430D02*
D03*
D161*
X63920Y570230D02*
D03*
X52920D02*
D03*
D195*
X814975Y468470D02*
D03*
Y463470D02*
D03*
Y453470D02*
D03*
Y448470D02*
D03*
X823325D02*
D03*
Y453470D02*
D03*
Y463470D02*
D03*
Y468470D02*
D03*
X377555Y122080D02*
D03*
Y127080D02*
D03*
Y137080D02*
D03*
Y142080D02*
D03*
X369205D02*
D03*
Y137080D02*
D03*
Y127080D02*
D03*
Y122080D02*
D03*
D196*
X814975Y458470D02*
D03*
X823325D02*
D03*
X377555Y132080D02*
D03*
X369205D02*
D03*
D197*
X85090Y804770D02*
D03*
Y812770D02*
D03*
D200*
X398720Y656590D02*
D03*
X391220D02*
D03*
D201*
X674740Y161290D02*
D03*
X689240D02*
D03*
X406770Y214630D02*
D03*
X421270D02*
D03*
X899530Y161290D02*
D03*
X914030D02*
D03*
X512710Y267970D02*
D03*
X498210D02*
D03*
X442330Y289560D02*
D03*
X456830D02*
D03*
X332740Y744220D02*
D03*
X347240D02*
D03*
D202*
X740006Y281651D02*
D03*
Y296151D02*
D03*
D203*
X374760Y820420D02*
D03*
X356760D02*
D03*
X941180Y44450D02*
D03*
X923180D02*
D03*
M02*
