G04*
G04 #@! TF.GenerationSoftware,Altium Limited,Altium Designer,24.4.1 (13)*
G04*
G04 Layer_Color=128*
%FSLAX44Y44*%
%MOMM*%
G71*
G04*
G04 #@! TF.SameCoordinates,04CD6EF2-C197-4A20-A1F8-E206C623F04C*
G04*
G04*
G04 #@! TF.FilePolarity,Positive*
G04*
G01*
G75*
%ADD44R,0.2000X0.7000*%
%ADD94R,0.3000X0.7000*%
D44*
X348000Y385750D02*
D03*
Y354950D02*
D03*
X344000Y385750D02*
D03*
Y354950D02*
D03*
X340000Y385750D02*
D03*
Y354950D02*
D03*
X336000Y385750D02*
D03*
Y354950D02*
D03*
X332000Y385750D02*
D03*
Y354950D02*
D03*
X328000Y385750D02*
D03*
Y354950D02*
D03*
X324000Y385750D02*
D03*
Y354950D02*
D03*
X320000Y385750D02*
D03*
Y354950D02*
D03*
X316000Y385750D02*
D03*
X312000D02*
D03*
Y354950D02*
D03*
X308000Y385750D02*
D03*
Y354950D02*
D03*
X304000Y385750D02*
D03*
Y354950D02*
D03*
X300000Y385750D02*
D03*
Y354950D02*
D03*
X296000Y385750D02*
D03*
Y354950D02*
D03*
X292000Y385750D02*
D03*
Y354950D02*
D03*
X288000Y385750D02*
D03*
Y354950D02*
D03*
X284000Y385750D02*
D03*
Y354950D02*
D03*
X280000Y385750D02*
D03*
Y354950D02*
D03*
X276000Y385750D02*
D03*
Y354950D02*
D03*
X272000Y385750D02*
D03*
Y354950D02*
D03*
X268000Y385750D02*
D03*
Y354950D02*
D03*
X264000Y385750D02*
D03*
Y354950D02*
D03*
X260000Y385750D02*
D03*
Y354950D02*
D03*
X256000Y385750D02*
D03*
Y354950D02*
D03*
X252000Y385750D02*
D03*
Y354950D02*
D03*
X248000Y385750D02*
D03*
Y354950D02*
D03*
X244000Y385750D02*
D03*
Y354950D02*
D03*
X240000Y385750D02*
D03*
Y354950D02*
D03*
X236000Y385750D02*
D03*
Y354950D02*
D03*
X232000Y385750D02*
D03*
Y354950D02*
D03*
X228000Y385750D02*
D03*
Y354950D02*
D03*
X224000Y385750D02*
D03*
Y354950D02*
D03*
X220000Y385750D02*
D03*
Y354950D02*
D03*
X216000Y385750D02*
D03*
Y354950D02*
D03*
X212000Y385750D02*
D03*
Y354950D02*
D03*
X208000Y385750D02*
D03*
Y354950D02*
D03*
X204000Y385750D02*
D03*
Y354950D02*
D03*
X200000Y385750D02*
D03*
Y354950D02*
D03*
X196000Y385750D02*
D03*
Y354950D02*
D03*
X192000Y385750D02*
D03*
Y354950D02*
D03*
X188000Y385750D02*
D03*
Y354950D02*
D03*
X184000Y385750D02*
D03*
Y354950D02*
D03*
X180000Y385750D02*
D03*
Y354950D02*
D03*
X176000Y385750D02*
D03*
Y354950D02*
D03*
X172000Y385750D02*
D03*
Y354950D02*
D03*
X168000Y385750D02*
D03*
Y354950D02*
D03*
X164000Y385750D02*
D03*
Y354950D02*
D03*
X160000Y385750D02*
D03*
Y354950D02*
D03*
X156000Y385750D02*
D03*
Y354950D02*
D03*
X152000Y385750D02*
D03*
Y354950D02*
D03*
X348000Y46550D02*
D03*
Y15750D02*
D03*
X344000Y46550D02*
D03*
Y15750D02*
D03*
X340000Y46550D02*
D03*
Y15750D02*
D03*
X336000Y46550D02*
D03*
Y15750D02*
D03*
X332000Y46550D02*
D03*
Y15750D02*
D03*
X328000Y46550D02*
D03*
Y15750D02*
D03*
X324000Y46550D02*
D03*
Y15750D02*
D03*
X320000Y46550D02*
D03*
Y15750D02*
D03*
X316000Y46550D02*
D03*
Y15750D02*
D03*
X312000Y46550D02*
D03*
Y15750D02*
D03*
X308000Y46550D02*
D03*
Y15750D02*
D03*
X304000Y46550D02*
D03*
Y15750D02*
D03*
X300000Y46550D02*
D03*
Y15750D02*
D03*
X296000Y46550D02*
D03*
Y15750D02*
D03*
X292000Y46550D02*
D03*
Y15750D02*
D03*
X288000Y46550D02*
D03*
Y15750D02*
D03*
X284000Y46550D02*
D03*
Y15750D02*
D03*
X280000Y46550D02*
D03*
Y15750D02*
D03*
X276000Y46550D02*
D03*
Y15750D02*
D03*
X272000Y46550D02*
D03*
Y15750D02*
D03*
X268000Y46550D02*
D03*
Y15750D02*
D03*
X264000Y46550D02*
D03*
Y15750D02*
D03*
X260000Y46550D02*
D03*
Y15750D02*
D03*
X256000Y46550D02*
D03*
Y15750D02*
D03*
X252000Y46550D02*
D03*
Y15750D02*
D03*
X248000Y46550D02*
D03*
Y15750D02*
D03*
X244000Y46550D02*
D03*
Y15750D02*
D03*
X240000Y46550D02*
D03*
Y15750D02*
D03*
X236000Y46550D02*
D03*
Y15750D02*
D03*
X232000Y46550D02*
D03*
Y15750D02*
D03*
X228000Y46550D02*
D03*
Y15750D02*
D03*
X224000Y46550D02*
D03*
Y15750D02*
D03*
X220000Y46550D02*
D03*
Y15750D02*
D03*
X216000Y46550D02*
D03*
Y15750D02*
D03*
X212000Y46550D02*
D03*
Y15750D02*
D03*
X208000Y46550D02*
D03*
Y15750D02*
D03*
X204000Y46550D02*
D03*
Y15750D02*
D03*
X200000Y46550D02*
D03*
Y15750D02*
D03*
X196000Y46550D02*
D03*
Y15750D02*
D03*
X192000Y46550D02*
D03*
Y15750D02*
D03*
X188000Y46550D02*
D03*
Y15750D02*
D03*
X184000Y46550D02*
D03*
Y15750D02*
D03*
X180000Y46550D02*
D03*
Y15750D02*
D03*
X176000Y46550D02*
D03*
Y15750D02*
D03*
X172000Y46550D02*
D03*
Y15750D02*
D03*
X168000Y46550D02*
D03*
Y15750D02*
D03*
X164000Y46550D02*
D03*
Y15750D02*
D03*
X160000Y46550D02*
D03*
Y15750D02*
D03*
X156000Y46550D02*
D03*
Y15750D02*
D03*
X152000Y46550D02*
D03*
Y15750D02*
D03*
X316000Y354950D02*
D03*
D94*
X147447Y15750D02*
D03*
Y46550D02*
D03*
X352552D02*
D03*
Y15748D02*
D03*
Y354950D02*
D03*
Y385750D02*
D03*
X147447D02*
D03*
Y354950D02*
D03*
M02*
