G04*
G04 #@! TF.GenerationSoftware,Altium Limited,Altium Designer,24.4.1 (13)*
G04*
G04 Layer_Color=16776960*
%FSLAX44Y44*%
%MOMM*%
G71*
G04*
G04 #@! TF.SameCoordinates,04CD6EF2-C197-4A20-A1F8-E206C623F04C*
G04*
G04*
G04 #@! TF.FilePolarity,Positive*
G04*
G01*
G75*
%ADD13C,0.2540*%
%ADD15C,0.1200*%
%ADD17C,0.1200*%
%ADD97R,5.0000X14.1000*%
G36*
X306617Y224060D02*
X307138Y223930D01*
X310785Y222888D01*
X311306Y222758D01*
X315865Y221455D01*
X316386Y221325D01*
X320033Y220283D01*
X320555Y220153D01*
X324202Y219111D01*
X324723Y218981D01*
X328370Y217938D01*
X328891Y217808D01*
X332538Y216766D01*
X333059Y216636D01*
X335794Y215854D01*
X336381Y215659D01*
X336446Y215594D01*
X337422Y215399D01*
X338139Y215203D01*
X340874Y214422D01*
X341395Y214291D01*
X345042Y213249D01*
X345498Y213054D01*
X343349Y208821D01*
X342828Y208690D01*
X337813Y208495D01*
X318666Y207583D01*
X310590Y207192D01*
X307594Y207062D01*
X299388Y206672D01*
X297239Y206606D01*
X297174Y206802D01*
X297434Y207453D01*
X297630Y208169D01*
X298086Y209667D01*
X302645Y224256D01*
X302970Y225103D01*
X306617Y224060D01*
D02*
G37*
G36*
X355398Y225428D02*
X355528Y225168D01*
X356570Y224126D01*
X356700Y223865D01*
X357873Y222693D01*
X358003Y222432D01*
X359175Y221260D01*
X359305Y221000D01*
X360477Y219827D01*
X360608Y219567D01*
X361780Y218394D01*
X361910Y218134D01*
X362952Y217092D01*
X363083Y216831D01*
X364255Y215659D01*
X364385Y215399D01*
X365558Y214226D01*
X365688Y213966D01*
X366860Y212794D01*
X367121Y212272D01*
X365492Y210644D01*
X365232Y210514D01*
X362757Y208039D01*
X362496Y207909D01*
X360022Y205434D01*
X359761Y205304D01*
X357156Y202699D01*
X356896Y202568D01*
X354421Y200094D01*
X354160Y199963D01*
X351555Y197358D01*
X351295Y197228D01*
X348820Y194753D01*
X348559Y194623D01*
X346084Y192148D01*
X345824Y192018D01*
X343219Y189413D01*
X342958Y189282D01*
X340484Y186808D01*
X340223Y186677D01*
X337618Y184072D01*
X337357Y183942D01*
X335404Y181988D01*
X335143Y182118D01*
X334948Y182314D01*
X334817Y182574D01*
X333515Y184398D01*
X333385Y184659D01*
X333124Y184919D01*
X332994Y185180D01*
X332603Y185831D01*
X338855Y197684D01*
X346410Y212012D01*
X352662Y223865D01*
X353053Y224516D01*
Y224647D01*
X353834Y226079D01*
X354160Y226666D01*
X355398Y225428D01*
D02*
G37*
G36*
X317493Y205630D02*
X317624Y205369D01*
X318275Y204457D01*
X318405Y204197D01*
X318926Y203415D01*
X319057Y203155D01*
X319708Y202243D01*
X319838Y201982D01*
X320489Y201071D01*
X320620Y200810D01*
X321271Y199898D01*
X321401Y199638D01*
X321792Y199117D01*
Y198986D01*
X322443Y198075D01*
X322573Y197814D01*
X323225Y196902D01*
X323355Y196642D01*
X324006Y195730D01*
X324137Y195470D01*
X324658Y194688D01*
X324788Y194428D01*
X325439Y193516D01*
X325569Y193255D01*
X326221Y192344D01*
X326351Y192083D01*
X327002Y191171D01*
X327132Y190911D01*
X328891Y188241D01*
X329933Y186677D01*
X330845Y185245D01*
X332929Y182118D01*
X333580Y181077D01*
X335143Y178732D01*
X336055Y177299D01*
X338139Y174173D01*
X338790Y173131D01*
X340874Y170005D01*
X341786Y168572D01*
X342307Y167791D01*
X342633Y167204D01*
X342047Y167009D01*
X341200Y166814D01*
X340158Y166553D01*
X339507Y166423D01*
X338465Y166162D01*
X337813Y166032D01*
X336250Y165641D01*
X335599Y165511D01*
X334036Y165120D01*
X333385Y164990D01*
X331822Y164599D01*
X331170Y164469D01*
X330128Y164209D01*
X329477Y164078D01*
X327914Y163687D01*
X327263Y163557D01*
X325700Y163167D01*
X325048Y163036D01*
X324006Y162776D01*
X323811Y162711D01*
X323615Y163297D01*
X323355Y164209D01*
X322964Y165772D01*
X322704Y166683D01*
X322313Y168246D01*
X322052Y169158D01*
X321662Y170721D01*
X321401Y171633D01*
X321010Y173196D01*
X320750Y174108D01*
X320359Y175671D01*
X320099Y176583D01*
X319838Y177625D01*
X319578Y178536D01*
X319187Y180100D01*
X318926Y181011D01*
X318536Y182574D01*
X318275Y183486D01*
X317884Y185049D01*
X317624Y185961D01*
X317233Y187524D01*
X316973Y188436D01*
X316582Y189999D01*
X316321Y190911D01*
X315931Y192474D01*
X315670Y193386D01*
X315279Y194949D01*
X315019Y195860D01*
X314628Y197423D01*
X314367Y198335D01*
X313977Y199898D01*
X313716Y200810D01*
X313325Y202373D01*
X313065Y203285D01*
X312544Y205369D01*
X313065Y205499D01*
X314498Y205630D01*
X315800Y205760D01*
X317298Y205825D01*
X317493Y205630D01*
D02*
G37*
G36*
X148588Y108130D02*
X98588D01*
Y159130D01*
X148588D01*
Y108130D01*
D02*
G37*
G36*
X243799Y258020D02*
X252956Y265327D01*
Y260362D01*
X244198Y253574D01*
X252956D01*
Y249235D01*
X234256D01*
Y253574D01*
X243293D01*
X234256Y260109D01*
Y265393D01*
X243799Y258020D01*
D02*
G37*
G36*
X241936Y242847D02*
X242015Y243180D01*
X242122Y243499D01*
X242242Y243792D01*
X242388Y244058D01*
X242548Y244324D01*
X242721Y244550D01*
X242894Y244777D01*
X243093Y244976D01*
X243293Y245163D01*
X243506Y245336D01*
X243732Y245495D01*
X243959Y245629D01*
X244185Y245762D01*
X244411Y245881D01*
X244877Y246068D01*
X245329Y246227D01*
X245755Y246334D01*
X246155Y246427D01*
X246341Y246454D01*
X246501Y246480D01*
X246660Y246494D01*
X246794Y246507D01*
X246927Y246520D01*
X247020D01*
X247113Y246534D01*
X247166D01*
X247206D01*
X247220D01*
X247579Y246520D01*
X247938Y246480D01*
X248271Y246427D01*
X248590Y246361D01*
X248883Y246281D01*
X249163Y246187D01*
X249416Y246081D01*
X249655Y245988D01*
X249868Y245881D01*
X250054Y245775D01*
X250214Y245682D01*
X250347Y245602D01*
X250454Y245535D01*
X250534Y245482D01*
X250587Y245442D01*
X250600Y245429D01*
X250813Y245322D01*
X251013Y245189D01*
X251199Y245056D01*
X251372Y244897D01*
X251545Y244710D01*
X251691Y244524D01*
X251958Y244125D01*
X252197Y243685D01*
X252384Y243220D01*
X252543Y242740D01*
X252663Y242274D01*
X252756Y241809D01*
X252836Y241383D01*
X252889Y240970D01*
X252903Y240797D01*
X252916Y240624D01*
X252929Y240464D01*
X252943Y240331D01*
Y240198D01*
X252956Y240105D01*
Y230229D01*
X234256D01*
Y234568D01*
X241403D01*
Y238654D01*
X234256Y242661D01*
Y247372D01*
X241936Y242847D01*
D02*
G37*
G36*
X244464Y228100D02*
X244877Y228073D01*
X245290Y228033D01*
X245676Y227980D01*
X246048Y227927D01*
X246408Y227860D01*
X246754Y227780D01*
X247086Y227701D01*
X247406Y227607D01*
X247712Y227514D01*
X247992Y227421D01*
X248271Y227328D01*
X248537Y227221D01*
X248777Y227115D01*
X249016Y227022D01*
X249229Y226915D01*
X249429Y226809D01*
X249629Y226702D01*
X249802Y226609D01*
X249961Y226516D01*
X250108Y226423D01*
X250241Y226330D01*
X250361Y226250D01*
X250467Y226183D01*
X250560Y226103D01*
X250640Y226050D01*
X250707Y225997D01*
X250746Y225957D01*
X250786Y225930D01*
X250813Y225917D01*
Y225904D01*
X251039Y225678D01*
X251252Y225451D01*
X251452Y225198D01*
X251638Y224932D01*
X251971Y224400D01*
X252250Y223827D01*
X252490Y223242D01*
X252690Y222643D01*
X252863Y222057D01*
X252996Y221485D01*
X253089Y220939D01*
X253169Y220434D01*
X253195Y220207D01*
X253222Y219981D01*
X253249Y219768D01*
X253262Y219582D01*
X253275Y219409D01*
X253289Y219249D01*
Y219116D01*
X253302Y219009D01*
Y218370D01*
X253275Y217945D01*
X253195Y217159D01*
X253062Y216414D01*
X252889Y215722D01*
X252676Y215083D01*
X252423Y214471D01*
X252131Y213925D01*
X251811Y213406D01*
X251465Y212940D01*
X251093Y212501D01*
X250693Y212115D01*
X250281Y211756D01*
X249868Y211436D01*
X249429Y211143D01*
X248990Y210877D01*
X248537Y210651D01*
X248098Y210438D01*
X247645Y210265D01*
X247220Y210105D01*
X246794Y209972D01*
X246381Y209852D01*
X245982Y209759D01*
X245609Y209693D01*
X245263Y209626D01*
X244944Y209573D01*
X244651Y209546D01*
X244398Y209520D01*
X244185Y209493D01*
X244012D01*
X243879Y209480D01*
X243799D01*
X243786D01*
X243772D01*
X243320D01*
X242881Y209506D01*
X242455Y209533D01*
X242042Y209573D01*
X241643Y209626D01*
X241270Y209679D01*
X240897Y209746D01*
X240551Y209812D01*
X240219Y209892D01*
X239886Y209972D01*
X239580Y210065D01*
X239287Y210159D01*
X239007Y210252D01*
X238741Y210358D01*
X238488Y210451D01*
X238262Y210558D01*
X238036Y210651D01*
X237836Y210757D01*
X237637Y210851D01*
X237464Y210944D01*
X237304Y211037D01*
X237144Y211130D01*
X237011Y211210D01*
X236891Y211290D01*
X236785Y211356D01*
X236692Y211423D01*
X236612Y211476D01*
X236558Y211529D01*
X236505Y211569D01*
X236465Y211596D01*
X236452Y211623D01*
X236439D01*
X236199Y211849D01*
X235986Y212075D01*
X235786Y212328D01*
X235587Y212581D01*
X235254Y213127D01*
X234948Y213699D01*
X234708Y214298D01*
X234496Y214897D01*
X234322Y215482D01*
X234189Y216068D01*
X234083Y216614D01*
X234003Y217133D01*
X233976Y217372D01*
X233950Y217585D01*
X233923Y217798D01*
X233910Y217998D01*
X233897Y218171D01*
X233883Y218331D01*
Y218464D01*
X233870Y218583D01*
Y218796D01*
X233883Y219222D01*
X233897Y219648D01*
X233937Y220047D01*
X233976Y220434D01*
X234109Y221179D01*
X234283Y221871D01*
X234509Y222523D01*
X234762Y223122D01*
X235068Y223681D01*
X235387Y224187D01*
X235747Y224666D01*
X236119Y225092D01*
X236532Y225491D01*
X236945Y225851D01*
X237384Y226170D01*
X237823Y226463D01*
X238275Y226729D01*
X238728Y226955D01*
X239181Y227168D01*
X239633Y227341D01*
X240072Y227501D01*
X240511Y227634D01*
X240937Y227754D01*
X241337Y227847D01*
X241709Y227913D01*
X242069Y227980D01*
X242401Y228033D01*
X242694Y228060D01*
X242947Y228086D01*
X243173Y228113D01*
X243346D01*
X243479Y228126D01*
X243519D01*
X243559D01*
X243586D01*
X244039D01*
X244464Y228100D01*
D02*
G37*
G36*
X252956Y204994D02*
X238954Y201254D01*
X252956Y197381D01*
Y192470D01*
X238954Y189103D01*
X252956Y185110D01*
Y180571D01*
X252929Y180580D01*
Y165012D01*
X249256D01*
Y170882D01*
X234256D01*
Y175354D01*
X249256D01*
Y181250D01*
X250878D01*
X234256Y186680D01*
Y191738D01*
X247832Y194959D01*
X234256Y198606D01*
Y203690D01*
X252956Y209373D01*
Y204994D01*
D02*
G37*
G36*
Y157466D02*
X252943Y156920D01*
X252916Y156401D01*
X252863Y155908D01*
X252796Y155443D01*
X252716Y155003D01*
X252623Y154591D01*
X252530Y154218D01*
X252437Y153885D01*
X252330Y153579D01*
X252237Y153300D01*
X252144Y153074D01*
X252064Y152887D01*
X251998Y152727D01*
X251944Y152621D01*
X251918Y152555D01*
X251905Y152528D01*
X251691Y152182D01*
X251465Y151849D01*
X251212Y151543D01*
X250933Y151250D01*
X250640Y150984D01*
X250334Y150731D01*
X250014Y150505D01*
X249682Y150292D01*
X249336Y150092D01*
X248976Y149919D01*
X248617Y149746D01*
X248258Y149600D01*
X247898Y149467D01*
X247526Y149347D01*
X246807Y149134D01*
X246115Y148974D01*
X245769Y148921D01*
X245449Y148854D01*
X245143Y148814D01*
X244850Y148775D01*
X244584Y148748D01*
X244331Y148721D01*
X244092Y148695D01*
X243892Y148681D01*
X243706Y148668D01*
X243559D01*
X243426Y148655D01*
X243346D01*
X243280D01*
X243267D01*
X242801Y148668D01*
X242348Y148695D01*
X241909Y148735D01*
X241483Y148788D01*
X241084Y148854D01*
X240698Y148934D01*
X240325Y149028D01*
X239966Y149121D01*
X239620Y149240D01*
X239287Y149347D01*
X238981Y149480D01*
X238688Y149613D01*
X238395Y149746D01*
X238129Y149879D01*
X237889Y150012D01*
X237650Y150159D01*
X237424Y150305D01*
X237224Y150438D01*
X237024Y150571D01*
X236851Y150718D01*
X236692Y150838D01*
X236545Y150971D01*
X236399Y151077D01*
X236292Y151197D01*
X236186Y151290D01*
X236093Y151383D01*
X236013Y151463D01*
X235946Y151530D01*
X235906Y151583D01*
X235866Y151623D01*
X235853Y151650D01*
X235840Y151663D01*
X235667Y151889D01*
X235494Y152115D01*
X235347Y152342D01*
X235214Y152568D01*
X234988Y153007D01*
X234895Y153220D01*
X234802Y153420D01*
X234735Y153606D01*
X234669Y153766D01*
X234615Y153925D01*
X234575Y154045D01*
X234549Y154152D01*
X234522Y154232D01*
X234509Y154285D01*
Y154298D01*
X234469Y154511D01*
X234429Y154751D01*
X234362Y155243D01*
X234322Y155762D01*
X234283Y156255D01*
Y156481D01*
X234269Y156680D01*
Y156880D01*
X234256Y157040D01*
Y164081D01*
X237929D01*
Y157532D01*
X237943Y157027D01*
X237969Y156787D01*
X237996Y156561D01*
X238023Y156361D01*
X238062Y156161D01*
X238102Y155988D01*
X238142Y155815D01*
X238169Y155669D01*
X238209Y155549D01*
X238249Y155443D01*
X238275Y155350D01*
X238302Y155270D01*
X238329Y155216D01*
X238342Y155190D01*
Y155176D01*
X238515Y154884D01*
X238715Y154618D01*
X238954Y154391D01*
X239220Y154192D01*
X239513Y154032D01*
X239806Y153885D01*
X240112Y153779D01*
X240405Y153686D01*
X240698Y153619D01*
X240964Y153566D01*
X241217Y153526D01*
X241443Y153499D01*
X241630Y153486D01*
X241763Y153473D01*
X241816D01*
X241856D01*
X241869D01*
X241882D01*
Y164081D01*
X245556D01*
Y153473D01*
X245835Y153486D01*
X246115Y153513D01*
X246368Y153566D01*
X246594Y153619D01*
X246780Y153659D01*
X246927Y153712D01*
X246980Y153726D01*
X247033Y153739D01*
X247047Y153752D01*
X247060D01*
X247446Y153939D01*
X247792Y154165D01*
X248085Y154418D01*
X248351Y154711D01*
X248564Y155003D01*
X248737Y155323D01*
X248883Y155642D01*
X249003Y155962D01*
X249096Y156268D01*
X249163Y156561D01*
X249216Y156814D01*
X249243Y157053D01*
X249269Y157240D01*
Y157319D01*
X249282Y157399D01*
Y164081D01*
X252956D01*
Y157466D01*
D02*
G37*
G36*
Y142146D02*
X239873Y142319D01*
X252956Y135279D01*
Y130048D01*
X234256D01*
Y134480D01*
X248005Y134307D01*
X234256Y141721D01*
Y146565D01*
X252956D01*
Y142146D01*
D02*
G37*
G36*
X281130Y231931D02*
Y227553D01*
X262430Y219766D01*
Y224252D01*
X266756Y225875D01*
Y233422D01*
X262430Y235086D01*
Y239784D01*
X281130Y231931D01*
D02*
G37*
G36*
Y216599D02*
X267128Y212859D01*
X281130Y208986D01*
Y204074D01*
X267128Y200707D01*
X281130Y196714D01*
Y192176D01*
X262430Y198285D01*
Y203342D01*
X276006Y206563D01*
X262430Y210210D01*
Y215294D01*
X281130Y220977D01*
Y216599D01*
D02*
G37*
G36*
Y186426D02*
X262430D01*
Y190938D01*
X281130D01*
Y186426D01*
D02*
G37*
G36*
Y178799D02*
X273757D01*
Y172304D01*
X281130D01*
Y167965D01*
X262430D01*
Y172304D01*
X270030D01*
Y178799D01*
X262430D01*
Y183152D01*
X281130D01*
Y178799D01*
D02*
G37*
G36*
X268486Y165610D02*
X268819Y165596D01*
X269138Y165570D01*
X269431Y165516D01*
X269710Y165476D01*
X269963Y165423D01*
X270203Y165357D01*
X270416Y165303D01*
X270602Y165237D01*
X270775Y165184D01*
X270921Y165117D01*
X271041Y165077D01*
X271134Y165037D01*
X271201Y164997D01*
X271241Y164984D01*
X271254Y164971D01*
X271467Y164851D01*
X271653Y164718D01*
X271840Y164558D01*
X272000Y164398D01*
X272306Y164026D01*
X272572Y163613D01*
X272785Y163187D01*
X272971Y162735D01*
X273131Y162269D01*
X273251Y161816D01*
X273344Y161377D01*
X273410Y160951D01*
X273464Y160565D01*
X273477Y160392D01*
X273490Y160233D01*
X273504Y160086D01*
X273517Y159953D01*
Y159833D01*
X273530Y159740D01*
Y154483D01*
X273543Y154110D01*
X273610Y153777D01*
X273690Y153485D01*
X273796Y153245D01*
X273930Y153032D01*
X274076Y152859D01*
X274236Y152726D01*
X274395Y152606D01*
X274555Y152526D01*
X274701Y152460D01*
X274848Y152407D01*
X274981Y152380D01*
X275087Y152353D01*
X275167Y152340D01*
X275234D01*
X275247D01*
X275447Y152353D01*
X275620Y152367D01*
X275793Y152407D01*
X275952Y152460D01*
X276245Y152593D01*
X276485Y152753D01*
X276698Y152965D01*
X276871Y153192D01*
X277004Y153431D01*
X277124Y153684D01*
X277217Y153924D01*
X277283Y154163D01*
X277323Y154390D01*
X277363Y154603D01*
X277377Y154762D01*
X277390Y154895D01*
Y164731D01*
X281130D01*
Y154456D01*
X281117Y153857D01*
X281103Y153578D01*
X281077Y153312D01*
X281050Y153045D01*
X281024Y152806D01*
X280984Y152579D01*
X280957Y152380D01*
X280930Y152193D01*
X280890Y152034D01*
X280864Y151887D01*
X280837Y151768D01*
X280811Y151674D01*
X280797Y151595D01*
X280784Y151555D01*
Y151541D01*
X280677Y151209D01*
X280558Y150889D01*
X280425Y150596D01*
X280265Y150317D01*
X280092Y150064D01*
X279919Y149824D01*
X279719Y149598D01*
X279506Y149398D01*
X279293Y149212D01*
X279080Y149039D01*
X278854Y148879D01*
X278615Y148733D01*
X278375Y148600D01*
X278149Y148493D01*
X277670Y148294D01*
X277217Y148134D01*
X276778Y148028D01*
X276378Y147948D01*
X276192Y147908D01*
X276019Y147881D01*
X275859Y147868D01*
X275726Y147855D01*
X275593Y147841D01*
X275500D01*
X275407Y147828D01*
X275354D01*
X275314D01*
X275300D01*
X274755Y147855D01*
X274249Y147908D01*
X273783Y147988D01*
X273357Y148108D01*
X272971Y148227D01*
X272612Y148374D01*
X272292Y148533D01*
X272013Y148706D01*
X271773Y148866D01*
X271560Y149026D01*
X271374Y149172D01*
X271228Y149305D01*
X271121Y149412D01*
X271041Y149492D01*
X270988Y149558D01*
X270975Y149572D01*
X270775Y149864D01*
X270602Y150197D01*
X270442Y150556D01*
X270309Y150916D01*
X270203Y151288D01*
X270110Y151674D01*
X270030Y152047D01*
X269977Y152407D01*
X269923Y152753D01*
X269897Y153085D01*
X269870Y153365D01*
X269843Y153618D01*
Y153831D01*
X269830Y153924D01*
Y158862D01*
X269817Y159075D01*
X269804Y159274D01*
X269777Y159447D01*
X269750Y159620D01*
X269724Y159767D01*
X269684Y159900D01*
X269657Y160020D01*
X269631Y160113D01*
X269590Y160206D01*
X269564Y160286D01*
X269537Y160339D01*
X269511Y160392D01*
X269497Y160419D01*
X269484Y160445D01*
X269404Y160565D01*
X269311Y160658D01*
X269191Y160752D01*
X269085Y160818D01*
X268832Y160938D01*
X268579Y161018D01*
X268339Y161058D01*
X268233Y161084D01*
X268153D01*
X268073Y161098D01*
X268020D01*
X267980D01*
X267967D01*
X267767Y161084D01*
X267581Y161071D01*
X267421Y161031D01*
X267261Y160978D01*
X267128Y160925D01*
X267008Y160858D01*
X266902Y160778D01*
X266796Y160712D01*
X266649Y160565D01*
X266543Y160445D01*
X266503Y160392D01*
X266476Y160366D01*
X266463Y160339D01*
Y160326D01*
X266410Y160206D01*
X266370Y160073D01*
X266290Y159767D01*
X266236Y159447D01*
X266210Y159128D01*
X266183Y158835D01*
Y158715D01*
X266170Y158609D01*
Y148547D01*
X262430D01*
Y158995D01*
X262443Y159594D01*
X262496Y160166D01*
X262576Y160685D01*
X262670Y161178D01*
X262803Y161643D01*
X262962Y162069D01*
X263135Y162468D01*
X263322Y162828D01*
X263535Y163161D01*
X263761Y163467D01*
X263987Y163746D01*
X264240Y163999D01*
X264493Y164239D01*
X264759Y164438D01*
X265012Y164625D01*
X265292Y164798D01*
X265558Y164944D01*
X265824Y165064D01*
X266077Y165184D01*
X266330Y165277D01*
X266583Y165357D01*
X266822Y165423D01*
X267035Y165476D01*
X267248Y165516D01*
X267434Y165556D01*
X267607Y165583D01*
X267767Y165596D01*
X267900Y165610D01*
X267993Y165623D01*
X268073D01*
X268127D01*
X268140D01*
X268486Y165610D01*
D02*
G37*
G36*
X181976Y305679D02*
X182443Y305596D01*
X182876Y305496D01*
X183293Y305362D01*
X183659Y305196D01*
X183992Y305012D01*
X184292Y304813D01*
X184559Y304613D01*
X184809Y304413D01*
X185009Y304213D01*
X185175Y304029D01*
X185325Y303863D01*
X185442Y303729D01*
X185509Y303629D01*
X185559Y303546D01*
X185575Y303530D01*
X186025Y303096D01*
X186425Y302647D01*
X186758Y302213D01*
X187041Y301763D01*
X187291Y301347D01*
X187508Y300930D01*
X187675Y300514D01*
X187808Y300147D01*
X187908Y299797D01*
X187991Y299481D01*
X188041Y299197D01*
X188091Y298947D01*
X188108Y298748D01*
X188125Y298598D01*
Y298481D01*
X188108Y298114D01*
X188075Y297748D01*
X188025Y297398D01*
X187958Y297081D01*
X187875Y296765D01*
X187775Y296465D01*
X187691Y296198D01*
X187591Y295948D01*
X187475Y295715D01*
X187391Y295515D01*
X187291Y295332D01*
X187208Y295182D01*
X187141Y295065D01*
X187092Y294982D01*
X187058Y294932D01*
X187041Y294915D01*
X186808Y294599D01*
X186542Y294315D01*
X186275Y294032D01*
X185992Y293782D01*
X185692Y293549D01*
X185392Y293349D01*
X185109Y293166D01*
X184809Y292999D01*
X184542Y292849D01*
X184292Y292716D01*
X184059Y292616D01*
X183859Y292516D01*
X183709Y292449D01*
X183576Y292399D01*
X183509Y292382D01*
X183476Y292366D01*
X183143Y292316D01*
X182909Y292332D01*
X182709Y292382D01*
X182543Y292432D01*
X182393Y292516D01*
X182293Y292582D01*
X182209Y292632D01*
X182159Y292682D01*
X182143Y292699D01*
X182026Y292866D01*
X181943Y293032D01*
X181893Y293199D01*
X181859Y293365D01*
X181826Y293499D01*
X181810Y293615D01*
Y293715D01*
X181876Y293965D01*
X181943Y294149D01*
X181959Y294232D01*
X181993Y294282D01*
X182010Y294315D01*
Y294332D01*
X182109Y294449D01*
X182193Y294548D01*
X182293Y294615D01*
X182376Y294682D01*
X182443Y294732D01*
X182493Y294765D01*
X182526Y294782D01*
X182543D01*
X182843Y294915D01*
X183126Y295048D01*
X183376Y295182D01*
X183609Y295315D01*
X183826Y295465D01*
X184009Y295598D01*
X184192Y295732D01*
X184326Y295865D01*
X184459Y295982D01*
X184576Y296082D01*
X184659Y296181D01*
X184742Y296265D01*
X184792Y296331D01*
X184825Y296381D01*
X184859Y296415D01*
Y296431D01*
X185075Y296798D01*
X185242Y297181D01*
X185359Y297531D01*
X185425Y297864D01*
X185475Y298148D01*
X185492Y298264D01*
Y298364D01*
X185509Y298447D01*
Y298564D01*
X185492Y298881D01*
X185459Y299181D01*
X185409Y299464D01*
X185342Y299714D01*
X185275Y299930D01*
X185225Y300081D01*
X185209Y300147D01*
X185192Y300197D01*
X185175Y300214D01*
Y300230D01*
X185042Y300530D01*
X184892Y300814D01*
X184742Y301063D01*
X184609Y301280D01*
X184475Y301447D01*
X184375Y301580D01*
X184309Y301663D01*
X184276Y301697D01*
X184059Y301930D01*
X183826Y302147D01*
X183592Y302330D01*
X183359Y302480D01*
X183109Y302613D01*
X182893Y302713D01*
X182659Y302813D01*
X182443Y302880D01*
X182243Y302930D01*
X182059Y302980D01*
X181893Y303013D01*
X181759Y303030D01*
X181643D01*
X181543Y303046D01*
X181493D01*
X181476D01*
X181243D01*
X181010Y303013D01*
X180810Y302980D01*
X180627Y302946D01*
X180460Y302913D01*
X180343Y302880D01*
X180277Y302863D01*
X180243Y302846D01*
X179660Y302596D01*
X178944Y302213D01*
X163764Y292166D01*
X163581Y292083D01*
X163398Y292033D01*
X163314D01*
X163248Y292016D01*
X163198D01*
X163181D01*
X162981Y292033D01*
X162814Y292066D01*
X162648Y292132D01*
X162514Y292199D01*
X162398Y292249D01*
X162298Y292316D01*
X162248Y292349D01*
X162231Y292366D01*
X162098Y292532D01*
X161998Y292699D01*
X161915Y292866D01*
X161865Y292999D01*
X161831Y293116D01*
X161815Y293216D01*
Y304213D01*
X161831Y304429D01*
X161881Y304629D01*
X161948Y304779D01*
X162031Y304912D01*
X162098Y305029D01*
X162164Y305096D01*
X162215Y305146D01*
X162231Y305163D01*
X162381Y305279D01*
X162548Y305362D01*
X162698Y305412D01*
X162831Y305462D01*
X162948Y305479D01*
X163031Y305496D01*
X163098D01*
X163114D01*
X163281Y305479D01*
X163448Y305429D01*
X163598Y305362D01*
X163731Y305296D01*
X163831Y305229D01*
X163914Y305163D01*
X163964Y305112D01*
X163981Y305096D01*
X164114Y304946D01*
X164214Y304796D01*
X164297Y304646D01*
X164347Y304513D01*
X164381Y304379D01*
X164397Y304296D01*
Y295398D01*
X177511Y304379D01*
X177944Y304629D01*
X178344Y304846D01*
X178694Y305012D01*
X179010Y305163D01*
X179260Y305263D01*
X179360Y305312D01*
X179443Y305346D01*
X179510Y305362D01*
X179577Y305379D01*
X179593Y305396D01*
X179610D01*
X179960Y305496D01*
X180293Y305562D01*
X180610Y305629D01*
X180893Y305662D01*
X181126Y305679D01*
X181310Y305696D01*
X181376D01*
X181443D01*
X181460D01*
X181476D01*
X181976Y305679D01*
D02*
G37*
G36*
X182709Y288783D02*
X183126Y288733D01*
X183542Y288633D01*
X183926Y288533D01*
X184292Y288400D01*
X184625Y288250D01*
X184942Y288083D01*
X185225Y287934D01*
X185492Y287767D01*
X185725Y287600D01*
X185925Y287450D01*
X186092Y287317D01*
X186225Y287217D01*
X186308Y287134D01*
X186375Y287067D01*
X186392Y287050D01*
X186692Y286717D01*
X186958Y286384D01*
X187192Y286034D01*
X187391Y285667D01*
X187558Y285318D01*
X187691Y284984D01*
X187808Y284651D01*
X187891Y284335D01*
X187958Y284035D01*
X188025Y283768D01*
X188058Y283535D01*
X188075Y283318D01*
X188091Y283151D01*
X188108Y283018D01*
Y281085D01*
X188091Y280635D01*
X188025Y280202D01*
X187941Y279786D01*
X187825Y279402D01*
X187691Y279019D01*
X187541Y278686D01*
X187391Y278369D01*
X187225Y278086D01*
X187058Y277819D01*
X186908Y277586D01*
X186758Y277386D01*
X186625Y277220D01*
X186508Y277086D01*
X186425Y277003D01*
X186358Y276936D01*
X186342Y276920D01*
X186008Y276620D01*
X185658Y276370D01*
X185309Y276137D01*
X184959Y275953D01*
X184625Y275787D01*
X184276Y275653D01*
X183959Y275537D01*
X183642Y275453D01*
X183359Y275370D01*
X183092Y275320D01*
X182859Y275287D01*
X182659Y275270D01*
X182493Y275254D01*
X182359Y275237D01*
X182293D01*
X182259D01*
X167663D01*
X167213Y275254D01*
X166780Y275320D01*
X166364Y275403D01*
X165980Y275520D01*
X165597Y275653D01*
X165264Y275803D01*
X164947Y275970D01*
X164664Y276137D01*
X164397Y276303D01*
X164164Y276470D01*
X163964Y276620D01*
X163797Y276753D01*
X163664Y276870D01*
X163581Y276953D01*
X163514Y277020D01*
X163498Y277036D01*
X163198Y277386D01*
X162948Y277719D01*
X162714Y278086D01*
X162531Y278436D01*
X162365Y278769D01*
X162231Y279102D01*
X162115Y279436D01*
X162031Y279736D01*
X161948Y280019D01*
X161898Y280285D01*
X161865Y280502D01*
X161848Y280702D01*
X161831Y280869D01*
X161815Y280985D01*
Y282918D01*
X161831Y283368D01*
X161881Y283801D01*
X161981Y284201D01*
X162081Y284601D01*
X162215Y284951D01*
X162365Y285301D01*
X162514Y285618D01*
X162681Y285901D01*
X162831Y286167D01*
X162981Y286401D01*
X163131Y286601D01*
X163264Y286767D01*
X163381Y286901D01*
X163464Y286984D01*
X163514Y287050D01*
X163531Y287067D01*
X163864Y287367D01*
X164214Y287634D01*
X164564Y287867D01*
X164914Y288067D01*
X165264Y288234D01*
X165597Y288383D01*
X165930Y288500D01*
X166247Y288583D01*
X166547Y288650D01*
X166813Y288717D01*
X167047Y288750D01*
X167263Y288767D01*
X167430Y288783D01*
X167563Y288800D01*
X167630D01*
X167663D01*
X182259D01*
X182709Y288783D01*
D02*
G37*
G36*
X163797Y273154D02*
X164014Y273087D01*
X164214Y273004D01*
X164397Y272904D01*
X164547Y272787D01*
X164647Y272704D01*
X164731Y272638D01*
X164747Y272621D01*
X164930Y272404D01*
X165064Y272204D01*
X165164Y271988D01*
X165230Y271804D01*
X165264Y271638D01*
X165297Y271521D01*
Y271404D01*
X165264Y271088D01*
X165197Y270821D01*
X165081Y270605D01*
X164964Y270421D01*
X164847Y270271D01*
X164731Y270171D01*
X164664Y270105D01*
X164631Y270088D01*
X164397Y269938D01*
X164197Y269838D01*
X164014Y269755D01*
X163847Y269705D01*
X163731Y269672D01*
X163647Y269655D01*
X163581D01*
X163564D01*
X163314Y269672D01*
X163064Y269738D01*
X162848Y269805D01*
X162664Y269905D01*
X162498Y269988D01*
X162381Y270072D01*
X162314Y270121D01*
X162281Y270138D01*
X162131Y270321D01*
X162015Y270538D01*
X161931Y270738D01*
X161881Y270955D01*
X161848Y271121D01*
X161815Y271271D01*
Y271404D01*
X161831Y271704D01*
X161898Y271971D01*
X161981Y272188D01*
X162098Y272371D01*
X162198Y272521D01*
X162281Y272621D01*
X162348Y272687D01*
X162365Y272704D01*
X162581Y272854D01*
X162798Y272971D01*
X162998Y273054D01*
X163181Y273121D01*
X163331Y273154D01*
X163464Y273171D01*
X163531D01*
X163564D01*
X163797Y273154D01*
D02*
G37*
G36*
X183476Y267239D02*
X184509Y266939D01*
X184892Y266756D01*
X185259Y266522D01*
X185609Y266289D01*
X185909Y266039D01*
X186158Y265823D01*
X186258Y265723D01*
X186342Y265639D01*
X186408Y265573D01*
X186458Y265523D01*
X186492Y265489D01*
X186508Y265473D01*
X186792Y265173D01*
X187041Y264839D01*
X187258Y264523D01*
X187441Y264190D01*
X187591Y263856D01*
X187725Y263523D01*
X187825Y263190D01*
X187908Y262890D01*
X187975Y262607D01*
X188025Y262340D01*
X188058Y262090D01*
X188091Y261890D01*
Y261724D01*
X188108Y261590D01*
Y259657D01*
X188091Y259208D01*
X188025Y258774D01*
X187941Y258358D01*
X187825Y257975D01*
X187691Y257591D01*
X187541Y257258D01*
X187391Y256942D01*
X187225Y256658D01*
X187058Y256392D01*
X186908Y256158D01*
X186758Y255958D01*
X186625Y255792D01*
X186508Y255658D01*
X186425Y255575D01*
X186358Y255508D01*
X186342Y255492D01*
X186008Y255192D01*
X185658Y254925D01*
X185309Y254709D01*
X184959Y254509D01*
X184625Y254342D01*
X184276Y254209D01*
X183959Y254092D01*
X183642Y254009D01*
X183359Y253942D01*
X183092Y253876D01*
X182859Y253842D01*
X182659Y253826D01*
X182493Y253809D01*
X182359Y253792D01*
X182293D01*
X182259D01*
X178610D01*
X178160Y253809D01*
X177727Y253859D01*
X177311Y253942D01*
X176927Y254059D01*
X176544Y254192D01*
X176211Y254326D01*
X175894Y254492D01*
X175611Y254642D01*
X175345Y254809D01*
X175111Y254959D01*
X174911Y255092D01*
X174745Y255225D01*
X174611Y255342D01*
X174528Y255425D01*
X174461Y255475D01*
X174445Y255492D01*
X174145Y255825D01*
X173895Y256158D01*
X173662Y256508D01*
X173478Y256858D01*
X173312Y257208D01*
X173178Y257558D01*
X173062Y257891D01*
X172978Y258208D01*
X172895Y258508D01*
X172845Y258791D01*
X172812Y259041D01*
X172795Y259241D01*
X172778Y259424D01*
X172762Y259541D01*
Y264739D01*
X172462Y264723D01*
X172129Y264673D01*
X171795Y264590D01*
X171462Y264506D01*
X171162Y264406D01*
X171046Y264373D01*
X170929Y264340D01*
X170846Y264306D01*
X170779Y264273D01*
X170729Y264256D01*
X170712D01*
X170229Y264073D01*
X169796Y263873D01*
X169379Y263690D01*
X169030Y263507D01*
X168863Y263423D01*
X168729Y263356D01*
X168613Y263290D01*
X168513Y263240D01*
X168430Y263190D01*
X168363Y263157D01*
X168330Y263123D01*
X168313D01*
X167763Y262740D01*
X167263Y262340D01*
X167047Y262157D01*
X166830Y261973D01*
X166647Y261790D01*
X166463Y261624D01*
X166313Y261474D01*
X166180Y261340D01*
X166063Y261207D01*
X165964Y261107D01*
X165880Y261024D01*
X165830Y260957D01*
X165797Y260924D01*
X165780Y260907D01*
X165564Y260607D01*
X165447Y260441D01*
X164930Y259624D01*
X164647Y259058D01*
X164514Y258791D01*
X164414Y258541D01*
X164331Y258341D01*
X164264Y258174D01*
X164247Y258108D01*
X164231Y258058D01*
X164214Y258041D01*
Y258025D01*
X164181Y257925D01*
X164114Y257841D01*
X163981Y257708D01*
X163914Y257658D01*
X163847Y257625D01*
X163814Y257591D01*
X163797D01*
X163564Y257508D01*
X163331Y257458D01*
X163248D01*
X163181Y257441D01*
X163131D01*
X163114D01*
X162931Y257458D01*
X162748Y257491D01*
X162581Y257558D01*
X162431Y257625D01*
X162314Y257675D01*
X162231Y257741D01*
X162164Y257775D01*
X162148Y257791D01*
X162031Y257991D01*
X161948Y258174D01*
X161881Y258341D01*
X161848Y258474D01*
X161815Y258574D01*
X161798Y258641D01*
Y258708D01*
X161881Y259174D01*
X162198Y259891D01*
X162548Y260574D01*
X162931Y261207D01*
X163331Y261790D01*
X163748Y262340D01*
X164164Y262840D01*
X164597Y263307D01*
X164997Y263723D01*
X165397Y264090D01*
X165764Y264423D01*
X166097Y264690D01*
X166380Y264923D01*
X166630Y265089D01*
X166730Y265156D01*
X166813Y265223D01*
X166880Y265273D01*
X166930Y265289D01*
X166947Y265323D01*
X166963D01*
X167580Y265673D01*
X168213Y265989D01*
X168846Y266256D01*
X169463Y266489D01*
X170079Y266689D01*
X170679Y266839D01*
X171246Y266972D01*
X171779Y267089D01*
X172279Y267172D01*
X172745Y267239D01*
X173145Y267272D01*
X173478Y267306D01*
X173628Y267322D01*
X173762D01*
X173878Y267339D01*
X173978D01*
X174045D01*
X174095D01*
X174128D01*
X174145D01*
X182259D01*
X182843D01*
X183476Y267239D01*
D02*
G37*
G36*
X187075Y250560D02*
X187241Y250510D01*
X187391Y250460D01*
X187525Y250393D01*
X187625Y250310D01*
X187691Y250260D01*
X187741Y250210D01*
X187758Y250193D01*
X187875Y250043D01*
X187958Y249893D01*
X188025Y249743D01*
X188058Y249593D01*
X188091Y249460D01*
X188108Y249360D01*
Y238296D01*
X188091Y238063D01*
X188058Y237880D01*
X187991Y237696D01*
X187908Y237563D01*
X187808Y237430D01*
X187708Y237330D01*
X187591Y237246D01*
X187475Y237180D01*
X187225Y237080D01*
X187025Y237030D01*
X186942D01*
X186875Y237013D01*
X186842D01*
X186825D01*
X184092D01*
X183859Y237030D01*
X183659Y237080D01*
X183476Y237163D01*
X183342Y237246D01*
X183226Y237313D01*
X183143Y237397D01*
X183092Y237446D01*
X183076Y237463D01*
X182992Y237663D01*
X182926Y237846D01*
X182876Y237996D01*
X182843Y238113D01*
X182826Y238196D01*
X182809Y238263D01*
Y238313D01*
X182826Y238513D01*
X182859Y238680D01*
X182909Y238846D01*
X182976Y238979D01*
X183043Y239096D01*
X183092Y239179D01*
X183126Y239229D01*
X183143Y239246D01*
X183293Y239363D01*
X183442Y239463D01*
X183592Y239529D01*
X183742Y239563D01*
X183892Y239596D01*
X183992Y239613D01*
X184059D01*
X184092D01*
X185525D01*
Y247727D01*
X163364Y242495D01*
X163114Y242445D01*
X162881Y242462D01*
X162681Y242512D01*
X162498Y242595D01*
X162348Y242679D01*
X162231Y242762D01*
X162148Y242845D01*
X162098Y242895D01*
X162081Y242912D01*
X161998Y243078D01*
X161931Y243228D01*
X161881Y243395D01*
X161848Y243528D01*
X161831Y243662D01*
X161815Y243762D01*
Y243845D01*
X162048Y244561D01*
X162248Y244695D01*
X162398Y244811D01*
X162531Y244895D01*
X162648Y244961D01*
X162731Y244995D01*
X162781Y245028D01*
X162814Y245044D01*
X162831D01*
X186542Y250527D01*
X186875Y250576D01*
X187075Y250560D01*
D02*
G37*
G36*
X171612Y233764D02*
X171912Y233747D01*
X172479Y233631D01*
X173012Y233498D01*
X173245Y233414D01*
X173462Y233331D01*
X173662Y233231D01*
X173845Y233148D01*
X174011Y233081D01*
X174145Y233014D01*
X174245Y232948D01*
X174328Y232898D01*
X174378Y232881D01*
X174395Y232864D01*
X174661Y232698D01*
X174895Y232514D01*
X175111Y232331D01*
X175294Y232164D01*
X175461Y231981D01*
X175611Y231815D01*
X175744Y231665D01*
X175861Y231498D01*
X175961Y231365D01*
X176044Y231231D01*
X176111Y231115D01*
X176161Y231015D01*
X176194Y230948D01*
X176228Y230882D01*
X176244Y230848D01*
Y230832D01*
X176461Y231165D01*
X176728Y231465D01*
X176994Y231715D01*
X177261Y231931D01*
X177494Y232098D01*
X177694Y232215D01*
X177777Y232264D01*
X177827Y232298D01*
X177861Y232314D01*
X177877D01*
X178310Y232498D01*
X178744Y232631D01*
X179177Y232731D01*
X179560Y232798D01*
X179743Y232814D01*
X179910Y232831D01*
X180043Y232848D01*
X180177Y232864D01*
X180277D01*
X180343D01*
X180393D01*
X180410D01*
X182276D01*
X182859D01*
X183492Y232764D01*
X184526Y232464D01*
X184909Y232281D01*
X185275Y232081D01*
X185592Y231865D01*
X185875Y231648D01*
X186092Y231448D01*
X186258Y231298D01*
X186325Y231231D01*
X186375Y231181D01*
X186392Y231165D01*
X186408Y231148D01*
X186708Y230815D01*
X186975Y230465D01*
X187192Y230115D01*
X187391Y229765D01*
X187558Y229399D01*
X187691Y229049D01*
X187808Y228715D01*
X187891Y228399D01*
X187958Y228099D01*
X188025Y227832D01*
X188058Y227582D01*
X188075Y227366D01*
X188091Y227199D01*
X188108Y227083D01*
Y226383D01*
X188008Y225749D01*
X187708Y224733D01*
X187525Y224350D01*
X187325Y224000D01*
X187108Y223683D01*
X186908Y223400D01*
X186742Y223183D01*
X186592Y223017D01*
X186542Y222950D01*
X186492Y222900D01*
X186475Y222884D01*
X186458Y222867D01*
X186092Y222567D01*
X185725Y222300D01*
X185359Y222067D01*
X184992Y221867D01*
X184642Y221717D01*
X184292Y221567D01*
X183976Y221451D01*
X183659Y221367D01*
X183376Y221301D01*
X183109Y221234D01*
X182876Y221201D01*
X182676Y221184D01*
X182509Y221167D01*
X182393Y221151D01*
X182326D01*
X182293D01*
X180427D01*
X179910Y221167D01*
X179443Y221234D01*
X178994Y221334D01*
X178627Y221434D01*
X178460Y221484D01*
X178310Y221534D01*
X178177Y221584D01*
X178060Y221634D01*
X177977Y221667D01*
X177910Y221700D01*
X177877Y221717D01*
X177861D01*
X177461Y221950D01*
X177111Y222184D01*
X176828Y222434D01*
X176594Y222667D01*
X176411Y222867D01*
X176294Y223017D01*
X176244Y223083D01*
X176211Y223134D01*
X176194Y223150D01*
Y223167D01*
X175911Y222700D01*
X175594Y222284D01*
X175261Y221917D01*
X174928Y221600D01*
X174628Y221367D01*
X174495Y221267D01*
X174378Y221184D01*
X174295Y221117D01*
X174228Y221067D01*
X174178Y221051D01*
X174161Y221034D01*
X173911Y220901D01*
X173645Y220767D01*
X173145Y220567D01*
X172662Y220434D01*
X172229Y220334D01*
X172029Y220301D01*
X171862Y220284D01*
X171695Y220251D01*
X171562D01*
X171462Y220234D01*
X171379D01*
X171329D01*
X171312D01*
X167663D01*
X167213Y220251D01*
X166780Y220317D01*
X166364Y220401D01*
X165980Y220518D01*
X165597Y220651D01*
X165264Y220801D01*
X164947Y220967D01*
X164664Y221134D01*
X164397Y221301D01*
X164164Y221467D01*
X163964Y221617D01*
X163797Y221751D01*
X163664Y221867D01*
X163581Y221950D01*
X163514Y222017D01*
X163498Y222034D01*
X163198Y222384D01*
X162948Y222717D01*
X162714Y223083D01*
X162531Y223433D01*
X162365Y223767D01*
X162231Y224100D01*
X162115Y224433D01*
X162031Y224733D01*
X161948Y225016D01*
X161898Y225283D01*
X161865Y225499D01*
X161848Y225700D01*
X161831Y225866D01*
X161815Y225983D01*
Y227916D01*
X161831Y228365D01*
X161881Y228799D01*
X161965Y229199D01*
X162081Y229599D01*
X162215Y229948D01*
X162348Y230298D01*
X162514Y230615D01*
X162664Y230898D01*
X162831Y231165D01*
X162981Y231398D01*
X163114Y231598D01*
X163248Y231765D01*
X163364Y231898D01*
X163448Y231981D01*
X163498Y232048D01*
X163514Y232064D01*
X163847Y232365D01*
X164181Y232631D01*
X164531Y232864D01*
X164881Y233064D01*
X165230Y233231D01*
X165580Y233364D01*
X165914Y233481D01*
X166230Y233564D01*
X166530Y233631D01*
X166797Y233697D01*
X167047Y233731D01*
X167247Y233747D01*
X167430Y233764D01*
X167563Y233781D01*
X167630D01*
X167663D01*
X171312D01*
X171612Y233764D01*
D02*
G37*
G36*
X187075Y217002D02*
X187241Y216952D01*
X187391Y216902D01*
X187525Y216835D01*
X187625Y216752D01*
X187691Y216702D01*
X187741Y216652D01*
X187758Y216635D01*
X187875Y216485D01*
X187958Y216335D01*
X188025Y216185D01*
X188058Y216035D01*
X188091Y215902D01*
X188108Y215802D01*
Y204738D01*
X188091Y204505D01*
X188058Y204322D01*
X187991Y204138D01*
X187908Y204005D01*
X187808Y203872D01*
X187708Y203772D01*
X187591Y203689D01*
X187475Y203622D01*
X187225Y203522D01*
X187025Y203472D01*
X186942D01*
X186875Y203455D01*
X186842D01*
X186825D01*
X184092D01*
X183859Y203472D01*
X183659Y203522D01*
X183476Y203605D01*
X183342Y203689D01*
X183226Y203755D01*
X183143Y203838D01*
X183092Y203888D01*
X183076Y203905D01*
X182992Y204105D01*
X182926Y204288D01*
X182876Y204438D01*
X182843Y204555D01*
X182826Y204638D01*
X182809Y204705D01*
Y204755D01*
X182826Y204955D01*
X182859Y205121D01*
X182909Y205288D01*
X182976Y205421D01*
X183043Y205538D01*
X183092Y205621D01*
X183126Y205671D01*
X183143Y205688D01*
X183293Y205805D01*
X183442Y205905D01*
X183592Y205971D01*
X183742Y206005D01*
X183892Y206038D01*
X183992Y206054D01*
X184059D01*
X184092D01*
X185525D01*
Y214169D01*
X163364Y208937D01*
X163114Y208887D01*
X162881Y208904D01*
X162681Y208954D01*
X162498Y209037D01*
X162348Y209120D01*
X162231Y209204D01*
X162148Y209287D01*
X162098Y209337D01*
X162081Y209354D01*
X161998Y209520D01*
X161931Y209670D01*
X161881Y209837D01*
X161848Y209970D01*
X161831Y210103D01*
X161815Y210203D01*
Y210287D01*
X162048Y211003D01*
X162248Y211137D01*
X162398Y211253D01*
X162531Y211336D01*
X162648Y211403D01*
X162731Y211437D01*
X162781Y211470D01*
X162814Y211486D01*
X162831D01*
X186542Y216968D01*
X186875Y217018D01*
X187075Y217002D01*
D02*
G37*
G36*
X171762Y200206D02*
X172195Y200156D01*
X172612Y200073D01*
X172995Y199956D01*
X173362Y199823D01*
X173695Y199673D01*
X174011Y199523D01*
X174311Y199373D01*
X174561Y199206D01*
X174795Y199056D01*
X174995Y198906D01*
X175161Y198773D01*
X175294Y198673D01*
X175378Y198573D01*
X175445Y198523D01*
X175461Y198507D01*
X175761Y198173D01*
X176028Y197840D01*
X176244Y197490D01*
X176444Y197140D01*
X176611Y196790D01*
X176744Y196440D01*
X176861Y196107D01*
X176944Y195791D01*
X177011Y195491D01*
X177077Y195207D01*
X177111Y194957D01*
X177127Y194757D01*
X177144Y194574D01*
X177161Y194457D01*
Y189275D01*
X177461Y189292D01*
X177794Y189342D01*
X178144Y189426D01*
X178460Y189509D01*
X178760Y189592D01*
X178894Y189642D01*
X178994Y189675D01*
X179093Y189692D01*
X179160Y189725D01*
X179193Y189742D01*
X179210D01*
X179693Y189925D01*
X180127Y190125D01*
X180527Y190309D01*
X180876Y190475D01*
X181026Y190558D01*
X181160Y190625D01*
X181260Y190692D01*
X181360Y190742D01*
X181443Y190775D01*
X181493Y190808D01*
X181526Y190842D01*
X181543D01*
X181843Y191042D01*
X182109Y191242D01*
X182376Y191442D01*
X182609Y191625D01*
X182826Y191808D01*
X183043Y191992D01*
X183226Y192158D01*
X183392Y192325D01*
X183542Y192475D01*
X183676Y192608D01*
X183792Y192725D01*
X183876Y192825D01*
X183942Y192908D01*
X184009Y192974D01*
X184026Y193008D01*
X184042Y193025D01*
X184209Y193241D01*
X184375Y193458D01*
X184526Y193658D01*
X184675Y193874D01*
X184775Y194041D01*
X184875Y194191D01*
X184925Y194274D01*
X184942Y194307D01*
X185275Y194957D01*
X185459Y195357D01*
X185592Y195724D01*
X185692Y195891D01*
X185809Y196024D01*
X185892Y196140D01*
X185975Y196224D01*
X186058Y196290D01*
X186108Y196340D01*
X186142Y196374D01*
X186158D01*
X186275Y196440D01*
X186375Y196474D01*
X186592Y196540D01*
X186675D01*
X186742Y196557D01*
X186792D01*
X186808D01*
X186992Y196540D01*
X187158Y196507D01*
X187308Y196440D01*
X187441Y196390D01*
X187558Y196324D01*
X187641Y196257D01*
X187691Y196224D01*
X187708Y196207D01*
X187841Y196074D01*
X187941Y195924D01*
X188025Y195774D01*
X188075Y195624D01*
X188108Y195507D01*
X188125Y195407D01*
Y195307D01*
X188025Y194807D01*
X187708Y194091D01*
X187358Y193408D01*
X186975Y192775D01*
X186575Y192191D01*
X186158Y191642D01*
X185742Y191142D01*
X185309Y190675D01*
X184909Y190275D01*
X184509Y189892D01*
X184142Y189575D01*
X183809Y189309D01*
X183526Y189076D01*
X183276Y188909D01*
X183176Y188842D01*
X183092Y188776D01*
X183026Y188726D01*
X182976Y188709D01*
X182959Y188676D01*
X182943D01*
X182326Y188326D01*
X181693Y188009D01*
X181076Y187743D01*
X180443Y187526D01*
X179827Y187326D01*
X179244Y187159D01*
X178677Y187026D01*
X178144Y186926D01*
X177644Y186843D01*
X177177Y186776D01*
X176777Y186743D01*
X176444Y186709D01*
X176294Y186693D01*
X176161D01*
X176044Y186676D01*
X175944D01*
X175878D01*
X175828D01*
X175794D01*
X175778D01*
X167663D01*
X167213Y186693D01*
X166780Y186759D01*
X166364Y186843D01*
X165980Y186959D01*
X165597Y187093D01*
X165264Y187243D01*
X164947Y187409D01*
X164664Y187576D01*
X164397Y187743D01*
X164164Y187909D01*
X163964Y188059D01*
X163797Y188192D01*
X163664Y188309D01*
X163581Y188392D01*
X163514Y188459D01*
X163498Y188476D01*
X163198Y188826D01*
X162948Y189159D01*
X162714Y189525D01*
X162531Y189875D01*
X162365Y190209D01*
X162231Y190542D01*
X162115Y190875D01*
X162031Y191175D01*
X161948Y191458D01*
X161898Y191725D01*
X161865Y191942D01*
X161848Y192141D01*
X161831Y192308D01*
X161815Y192425D01*
Y194357D01*
X161831Y194807D01*
X161881Y195241D01*
X161965Y195641D01*
X162081Y196040D01*
X162215Y196390D01*
X162348Y196740D01*
X162514Y197057D01*
X162664Y197340D01*
X162831Y197607D01*
X162981Y197840D01*
X163114Y198040D01*
X163248Y198207D01*
X163364Y198340D01*
X163448Y198423D01*
X163498Y198490D01*
X163514Y198507D01*
X163847Y198806D01*
X164181Y199073D01*
X164531Y199306D01*
X164881Y199506D01*
X165230Y199673D01*
X165580Y199806D01*
X165914Y199923D01*
X166230Y200006D01*
X166530Y200073D01*
X166797Y200139D01*
X167047Y200173D01*
X167247Y200189D01*
X167430Y200206D01*
X167563Y200223D01*
X167630D01*
X167663D01*
X171312D01*
X171762Y200206D01*
D02*
G37*
G36*
X168763Y183427D02*
X168930Y183377D01*
X169079Y183310D01*
X169213Y183244D01*
X169313Y183160D01*
X169396Y183094D01*
X169446Y183044D01*
X169463Y183027D01*
X169596Y182877D01*
X169696Y182727D01*
X169779Y182577D01*
X169829Y182444D01*
X169863Y182311D01*
X169879Y182227D01*
Y179778D01*
X174095D01*
X174311Y179761D01*
X174495Y179711D01*
X174661Y179645D01*
X174795Y179561D01*
X174895Y179478D01*
X174961Y179411D01*
X175011Y179361D01*
X175028Y179345D01*
X175145Y179195D01*
X175228Y179028D01*
X175294Y178895D01*
X175328Y178762D01*
X175361Y178645D01*
X175378Y178562D01*
Y178478D01*
X175361Y178278D01*
X175311Y178095D01*
X175245Y177945D01*
X175161Y177812D01*
X175078Y177695D01*
X175011Y177612D01*
X174961Y177562D01*
X174945Y177545D01*
X174778Y177428D01*
X174628Y177329D01*
X174478Y177262D01*
X174361Y177229D01*
X174245Y177195D01*
X174161Y177179D01*
X174111D01*
X174095D01*
X169879D01*
Y172680D01*
X186575Y176096D01*
X186875Y176129D01*
X187058Y176112D01*
X187241Y176062D01*
X187391Y175996D01*
X187525Y175929D01*
X187625Y175846D01*
X187691Y175779D01*
X187741Y175729D01*
X187758Y175712D01*
X187875Y175562D01*
X187958Y175396D01*
X188025Y175229D01*
X188058Y175096D01*
X188091Y174963D01*
X188108Y174862D01*
Y174762D01*
X187875Y174046D01*
X187758Y173913D01*
X187608Y173796D01*
X187475Y173713D01*
X187325Y173646D01*
X187208Y173596D01*
X187108Y173563D01*
X187041Y173546D01*
X187008D01*
X168813Y169897D01*
X168580Y169881D01*
X168380Y169897D01*
X168196Y169930D01*
X168030Y169997D01*
X167896Y170064D01*
X167796Y170130D01*
X167713Y170197D01*
X167663Y170230D01*
X167647Y170247D01*
X167530Y170397D01*
X167446Y170547D01*
X167380Y170697D01*
X167347Y170847D01*
X167313Y170980D01*
X167297Y171080D01*
Y177179D01*
X163098D01*
X162864Y177195D01*
X162648Y177245D01*
X162481Y177329D01*
X162331Y177412D01*
X162215Y177479D01*
X162131Y177562D01*
X162081Y177612D01*
X162065Y177628D01*
X161981Y177828D01*
X161915Y178012D01*
X161881Y178162D01*
X161848Y178278D01*
X161831Y178362D01*
X161815Y178428D01*
Y178478D01*
X161831Y178678D01*
X161865Y178845D01*
X161915Y179011D01*
X161981Y179145D01*
X162048Y179261D01*
X162098Y179345D01*
X162131Y179395D01*
X162148Y179411D01*
X162298Y179528D01*
X162448Y179628D01*
X162598Y179695D01*
X162748Y179728D01*
X162898Y179761D01*
X162998Y179778D01*
X163064D01*
X163098D01*
X167297D01*
Y182144D01*
X167313Y182361D01*
X167363Y182561D01*
X167430Y182710D01*
X167513Y182844D01*
X167580Y182960D01*
X167647Y183027D01*
X167696Y183077D01*
X167713Y183094D01*
X167863Y183210D01*
X168030Y183294D01*
X168180Y183360D01*
X168313Y183394D01*
X168430Y183427D01*
X168513Y183444D01*
X168580D01*
X168596D01*
X168763Y183427D01*
D02*
G37*
G36*
X163797Y167814D02*
X164014Y167748D01*
X164214Y167664D01*
X164397Y167564D01*
X164547Y167448D01*
X164647Y167364D01*
X164731Y167298D01*
X164747Y167281D01*
X164930Y167064D01*
X165064Y166865D01*
X165164Y166648D01*
X165230Y166465D01*
X165264Y166298D01*
X165297Y166181D01*
Y166065D01*
X165264Y165748D01*
X165197Y165482D01*
X165081Y165265D01*
X164964Y165082D01*
X164847Y164932D01*
X164731Y164832D01*
X164664Y164765D01*
X164631Y164748D01*
X164397Y164599D01*
X164197Y164499D01*
X164014Y164415D01*
X163847Y164365D01*
X163731Y164332D01*
X163647Y164315D01*
X163581D01*
X163564D01*
X163314Y164332D01*
X163064Y164398D01*
X162848Y164465D01*
X162664Y164565D01*
X162498Y164648D01*
X162381Y164732D01*
X162314Y164782D01*
X162281Y164798D01*
X162131Y164982D01*
X162015Y165198D01*
X161931Y165398D01*
X161881Y165615D01*
X161848Y165781D01*
X161815Y165931D01*
Y166065D01*
X161831Y166365D01*
X161898Y166631D01*
X161981Y166848D01*
X162098Y167031D01*
X162198Y167181D01*
X162281Y167281D01*
X162348Y167348D01*
X162365Y167364D01*
X162581Y167514D01*
X162798Y167631D01*
X162998Y167714D01*
X163181Y167781D01*
X163331Y167814D01*
X163464Y167831D01*
X163531D01*
X163564D01*
X163797Y167814D01*
D02*
G37*
G36*
X187041Y161916D02*
X187225Y161866D01*
X187391Y161799D01*
X187525Y161716D01*
X187625Y161633D01*
X187691Y161566D01*
X187741Y161516D01*
X187758Y161499D01*
X187875Y161349D01*
X187958Y161183D01*
X188025Y161049D01*
X188058Y160916D01*
X188091Y160799D01*
X188108Y160716D01*
Y160633D01*
X188091Y160433D01*
X188041Y160250D01*
X187975Y160100D01*
X187891Y159966D01*
X187808Y159850D01*
X187741Y159766D01*
X187691Y159716D01*
X187675Y159700D01*
X187508Y159583D01*
X187358Y159483D01*
X187208Y159417D01*
X187092Y159383D01*
X186975Y159350D01*
X186891Y159333D01*
X186842D01*
X186825D01*
X164397D01*
Y154618D01*
X186825D01*
X187041Y154601D01*
X187225Y154551D01*
X187391Y154484D01*
X187525Y154401D01*
X187625Y154318D01*
X187691Y154251D01*
X187741Y154201D01*
X187758Y154185D01*
X187875Y154035D01*
X187958Y153868D01*
X188025Y153735D01*
X188058Y153601D01*
X188091Y153485D01*
X188108Y153401D01*
Y153318D01*
X188091Y153118D01*
X188041Y152935D01*
X187975Y152785D01*
X187891Y152652D01*
X187808Y152535D01*
X187741Y152452D01*
X187691Y152402D01*
X187675Y152385D01*
X187508Y152268D01*
X187358Y152168D01*
X187208Y152102D01*
X187092Y152068D01*
X186975Y152035D01*
X186891Y152018D01*
X186842D01*
X186825D01*
X164397D01*
Y147336D01*
X186825D01*
X187041Y147320D01*
X187225Y147270D01*
X187391Y147203D01*
X187525Y147120D01*
X187625Y147036D01*
X187691Y146970D01*
X187741Y146920D01*
X187758Y146903D01*
X187875Y146753D01*
X187958Y146586D01*
X188025Y146453D01*
X188058Y146320D01*
X188091Y146203D01*
X188108Y146120D01*
Y146037D01*
X188091Y145837D01*
X188041Y145653D01*
X187975Y145503D01*
X187891Y145370D01*
X187808Y145253D01*
X187741Y145170D01*
X187691Y145120D01*
X187675Y145104D01*
X187508Y144987D01*
X187358Y144887D01*
X187208Y144820D01*
X187092Y144787D01*
X186975Y144754D01*
X186891Y144737D01*
X186842D01*
X186825D01*
X163098D01*
X162864Y144754D01*
X162681Y144787D01*
X162498Y144853D01*
X162365Y144937D01*
X162231Y145037D01*
X162131Y145137D01*
X162048Y145253D01*
X161981Y145387D01*
X161881Y145620D01*
X161831Y145820D01*
Y145903D01*
X161815Y145970D01*
Y160633D01*
X161831Y160866D01*
X161865Y161066D01*
X161931Y161233D01*
X162015Y161383D01*
X162115Y161516D01*
X162215Y161616D01*
X162331Y161699D01*
X162465Y161766D01*
X162698Y161866D01*
X162898Y161916D01*
X162981Y161933D01*
X163048D01*
X163081D01*
X163098D01*
X186825D01*
X187041Y161916D01*
D02*
G37*
G36*
Y141504D02*
X187225Y141454D01*
X187391Y141388D01*
X187525Y141304D01*
X187625Y141221D01*
X187691Y141154D01*
X187741Y141104D01*
X187758Y141088D01*
X187875Y140938D01*
X187958Y140771D01*
X188025Y140638D01*
X188058Y140505D01*
X188091Y140388D01*
X188108Y140305D01*
Y140221D01*
X188091Y140021D01*
X188041Y139838D01*
X187975Y139688D01*
X187891Y139555D01*
X187808Y139438D01*
X187741Y139355D01*
X187691Y139305D01*
X187675Y139288D01*
X187508Y139172D01*
X187358Y139072D01*
X187208Y139005D01*
X187092Y138972D01*
X186975Y138938D01*
X186891Y138922D01*
X186842D01*
X186825D01*
X177144D01*
Y130557D01*
X186825D01*
X187041Y130541D01*
X187225Y130491D01*
X187391Y130424D01*
X187525Y130341D01*
X187625Y130257D01*
X187691Y130191D01*
X187741Y130141D01*
X187758Y130124D01*
X187875Y129974D01*
X187958Y129807D01*
X188025Y129674D01*
X188058Y129541D01*
X188091Y129424D01*
X188108Y129341D01*
Y129257D01*
X188091Y129058D01*
X188041Y128874D01*
X187975Y128724D01*
X187891Y128591D01*
X187808Y128474D01*
X187741Y128391D01*
X187691Y128341D01*
X187675Y128324D01*
X187508Y128208D01*
X187358Y128108D01*
X187208Y128041D01*
X187092Y128008D01*
X186975Y127975D01*
X186891Y127958D01*
X186842D01*
X186825D01*
X163098D01*
X162864Y127975D01*
X162648Y128025D01*
X162481Y128108D01*
X162331Y128191D01*
X162215Y128258D01*
X162131Y128341D01*
X162081Y128391D01*
X162065Y128408D01*
X161981Y128608D01*
X161915Y128791D01*
X161881Y128941D01*
X161848Y129058D01*
X161831Y129141D01*
X161815Y129207D01*
Y129257D01*
X161831Y129458D01*
X161865Y129624D01*
X161915Y129791D01*
X161981Y129924D01*
X162048Y130041D01*
X162098Y130124D01*
X162131Y130174D01*
X162148Y130191D01*
X162298Y130307D01*
X162448Y130407D01*
X162598Y130474D01*
X162748Y130507D01*
X162898Y130541D01*
X162998Y130557D01*
X163064D01*
X163098D01*
X174561D01*
Y138922D01*
X163098D01*
X162864Y138938D01*
X162648Y138988D01*
X162481Y139072D01*
X162331Y139155D01*
X162215Y139222D01*
X162131Y139305D01*
X162081Y139355D01*
X162065Y139372D01*
X161981Y139572D01*
X161915Y139755D01*
X161881Y139905D01*
X161848Y140021D01*
X161831Y140105D01*
X161815Y140171D01*
Y140221D01*
X161831Y140421D01*
X161865Y140588D01*
X161915Y140755D01*
X161981Y140888D01*
X162048Y141004D01*
X162098Y141088D01*
X162131Y141138D01*
X162148Y141154D01*
X162298Y141271D01*
X162448Y141371D01*
X162598Y141438D01*
X162748Y141471D01*
X162898Y141504D01*
X162998Y141521D01*
X163064D01*
X163098D01*
X186825D01*
X187041Y141504D01*
D02*
G37*
G36*
X186992Y124759D02*
X187158Y124709D01*
X187308Y124642D01*
X187441Y124575D01*
X187541Y124492D01*
X187625Y124425D01*
X187675Y124375D01*
X187691Y124359D01*
X187825Y124209D01*
X187925Y124059D01*
X188008Y123909D01*
X188058Y123776D01*
X188091Y123642D01*
X188108Y123559D01*
Y114345D01*
X188091Y114111D01*
X188058Y113928D01*
X187991Y113745D01*
X187908Y113611D01*
X187808Y113478D01*
X187708Y113378D01*
X187591Y113295D01*
X187475Y113228D01*
X187225Y113128D01*
X187025Y113078D01*
X186942D01*
X186875Y113062D01*
X186842D01*
X186825D01*
X163098D01*
X162864Y113078D01*
X162681Y113112D01*
X162498Y113178D01*
X162365Y113262D01*
X162231Y113362D01*
X162131Y113462D01*
X162048Y113578D01*
X161981Y113712D01*
X161881Y113945D01*
X161831Y114145D01*
Y114228D01*
X161815Y114295D01*
Y123476D01*
X161831Y123692D01*
X161881Y123892D01*
X161948Y124042D01*
X162031Y124176D01*
X162098Y124292D01*
X162164Y124359D01*
X162215Y124409D01*
X162231Y124425D01*
X162381Y124542D01*
X162548Y124625D01*
X162698Y124692D01*
X162831Y124725D01*
X162948Y124759D01*
X163031Y124775D01*
X163098D01*
X163114D01*
X163281Y124759D01*
X163448Y124709D01*
X163598Y124642D01*
X163731Y124575D01*
X163831Y124492D01*
X163914Y124425D01*
X163964Y124375D01*
X163981Y124359D01*
X164114Y124209D01*
X164214Y124059D01*
X164297Y123909D01*
X164347Y123776D01*
X164381Y123642D01*
X164397Y123559D01*
Y115661D01*
X174561D01*
Y119827D01*
X174578Y120043D01*
X174628Y120243D01*
X174695Y120393D01*
X174778Y120526D01*
X174845Y120643D01*
X174911Y120710D01*
X174961Y120760D01*
X174978Y120776D01*
X175128Y120893D01*
X175294Y120976D01*
X175445Y121043D01*
X175578Y121076D01*
X175694Y121110D01*
X175778Y121126D01*
X175844D01*
X175861D01*
X176028Y121110D01*
X176194Y121060D01*
X176344Y120993D01*
X176478Y120926D01*
X176577Y120843D01*
X176661Y120776D01*
X176711Y120726D01*
X176728Y120710D01*
X176861Y120560D01*
X176961Y120410D01*
X177044Y120260D01*
X177094Y120126D01*
X177127Y119993D01*
X177144Y119910D01*
Y115661D01*
X185525D01*
Y123476D01*
X185542Y123692D01*
X185592Y123892D01*
X185658Y124042D01*
X185742Y124176D01*
X185809Y124292D01*
X185875Y124359D01*
X185925Y124409D01*
X185942Y124425D01*
X186092Y124542D01*
X186258Y124625D01*
X186408Y124692D01*
X186542Y124725D01*
X186658Y124759D01*
X186742Y124775D01*
X186808D01*
X186825D01*
X186992Y124759D01*
D02*
G37*
G36*
Y109829D02*
X187158Y109779D01*
X187308Y109712D01*
X187441Y109646D01*
X187541Y109563D01*
X187625Y109496D01*
X187675Y109446D01*
X187691Y109429D01*
X187825Y109279D01*
X187925Y109129D01*
X188008Y108979D01*
X188058Y108846D01*
X188091Y108713D01*
X188108Y108630D01*
Y97549D01*
X188091Y97316D01*
X188025Y97116D01*
X187958Y96949D01*
X187858Y96816D01*
X187775Y96699D01*
X187691Y96632D01*
X187625Y96583D01*
X187608Y96566D01*
X187441Y96466D01*
X187275Y96399D01*
X187141Y96333D01*
X187041Y96299D01*
X186942Y96283D01*
X186875Y96266D01*
X186842D01*
X186825D01*
X186642Y96283D01*
X186458Y96316D01*
X186292Y96366D01*
X186158Y96433D01*
X186042Y96499D01*
X185958Y96549D01*
X185892Y96583D01*
X185875Y96599D01*
X185758Y96749D01*
X185675Y96899D01*
X185609Y97066D01*
X185575Y97216D01*
X185542Y97349D01*
X185525Y97449D01*
Y101748D01*
X163098D01*
X162864Y101765D01*
X162648Y101815D01*
X162481Y101898D01*
X162331Y101981D01*
X162215Y102048D01*
X162131Y102131D01*
X162081Y102181D01*
X162065Y102198D01*
X161981Y102398D01*
X161915Y102581D01*
X161881Y102731D01*
X161848Y102848D01*
X161831Y102931D01*
X161815Y102998D01*
Y103048D01*
X161831Y103247D01*
X161865Y103414D01*
X161915Y103581D01*
X161981Y103714D01*
X162048Y103831D01*
X162098Y103914D01*
X162131Y103964D01*
X162148Y103981D01*
X162298Y104097D01*
X162448Y104197D01*
X162598Y104264D01*
X162748Y104297D01*
X162898Y104331D01*
X162998Y104347D01*
X163064D01*
X163098D01*
X185525D01*
Y108546D01*
X185542Y108763D01*
X185592Y108963D01*
X185658Y109113D01*
X185742Y109246D01*
X185809Y109363D01*
X185875Y109429D01*
X185925Y109479D01*
X185942Y109496D01*
X186092Y109613D01*
X186258Y109696D01*
X186408Y109762D01*
X186542Y109796D01*
X186658Y109829D01*
X186742Y109846D01*
X186808D01*
X186825D01*
X186992Y109829D01*
D02*
G37*
%LPC*%
G36*
X118206Y151700D02*
X118123D01*
X117956Y151684D01*
X117789Y151650D01*
X117640Y151584D01*
X117506Y151534D01*
X117390Y151467D01*
X117306Y151400D01*
X117256Y151367D01*
X117240Y151350D01*
X117106Y151217D01*
X117006Y151067D01*
X116923Y150901D01*
X116873Y150751D01*
X116840Y150617D01*
X116823Y150501D01*
D01*
Y150401D01*
X116840Y150184D01*
X116873Y150001D01*
X116940Y149834D01*
X117006Y149701D01*
X117056Y149584D01*
X117123Y149501D01*
X117156Y149451D01*
X117173Y149434D01*
X117340Y149318D01*
X117506Y149234D01*
X117656Y149184D01*
X117806Y149151D01*
X117939Y149118D01*
X118039Y149101D01*
X118123D01*
X118256Y149118D01*
X118406Y149151D01*
X118656Y149251D01*
X118773Y149301D01*
X118856Y149351D01*
X118923Y149384D01*
X118939Y149401D01*
X119089Y149534D01*
X119206Y149684D01*
X119289Y149851D01*
X119356Y150017D01*
X119389Y150167D01*
X119406Y150284D01*
Y150401D01*
X119389Y150584D01*
X119339Y150751D01*
X119272Y150901D01*
X119206Y151017D01*
X119122Y151134D01*
X119056Y151217D01*
X119006Y151267D01*
X118989Y151284D01*
X118839Y151417D01*
X118689Y151517D01*
X118539Y151600D01*
X118406Y151650D01*
X118289Y151684D01*
X118206Y151700D01*
D02*
G37*
G36*
X127320D02*
X127237D01*
X127070Y151684D01*
X126904Y151650D01*
X126754Y151584D01*
X126621Y151534D01*
X126504Y151467D01*
X126421Y151400D01*
X126371Y151367D01*
X126354Y151350D01*
X126221Y151217D01*
X126121Y151067D01*
X126054Y150901D01*
X126004Y150751D01*
X125971Y150617D01*
X125954Y150501D01*
Y150401D01*
X125971Y150184D01*
X126004Y150001D01*
X126071Y149834D01*
X126137Y149701D01*
X126187Y149584D01*
X126254Y149501D01*
X126287Y149451D01*
X126304Y149434D01*
X126471Y149318D01*
X126637Y149234D01*
X126787Y149184D01*
X126937Y149151D01*
X127054Y149118D01*
X127154Y149101D01*
X128520D01*
Y150401D01*
X128503Y150584D01*
X128453Y150751D01*
X128387Y150901D01*
X128320Y151017D01*
X128237Y151134D01*
X128170Y151217D01*
X128120Y151267D01*
X128104Y151284D01*
X127954Y151417D01*
X127804Y151517D01*
X127654Y151600D01*
X127520Y151650D01*
X127404Y151684D01*
X127320Y151700D01*
D02*
G37*
G36*
X136735Y145902D02*
X135452D01*
D01*
X136735D01*
D02*
G37*
G36*
X135452D02*
X111658D01*
X111591Y145885D01*
X111474Y145852D01*
X111341Y145819D01*
X111191Y145752D01*
X110991Y145652D01*
X110791Y145535D01*
X110775Y145519D01*
X110741Y145452D01*
X110675Y145369D01*
X110625Y145235D01*
X110558Y145102D01*
X110491Y144919D01*
X110458Y144735D01*
X110441Y144536D01*
X110575Y143936D01*
X111141Y143436D01*
X130919Y134938D01*
X111724D01*
X111691D01*
X111624D01*
X111524Y134921D01*
X111375Y134888D01*
X111224Y134855D01*
X111074Y134788D01*
X110925Y134688D01*
X110775Y134571D01*
X110758Y134555D01*
X110725Y134505D01*
X110675Y134422D01*
X110608Y134305D01*
X110541Y134171D01*
X110491Y134005D01*
X110458Y133838D01*
X110441Y133638D01*
Y144536D01*
Y132339D01*
X136735D01*
D01*
X135518D01*
X135602Y132355D01*
X135718Y132389D01*
X135835Y132422D01*
X135985Y132489D01*
X136135Y132589D01*
X136301Y132705D01*
X136318Y132722D01*
X136368Y132772D01*
X136435Y132855D01*
X136518Y132972D01*
X136601Y133105D01*
X136668Y133255D01*
X136718Y133422D01*
X136735Y133622D01*
Y133738D01*
X136718Y133822D01*
X136668Y134022D01*
X136568Y134255D01*
Y134271D01*
X136535Y134305D01*
X136485Y134372D01*
X136385Y134455D01*
X136268Y134538D01*
X136085Y134638D01*
X135868Y134738D01*
X135585Y134838D01*
X116257Y143302D01*
X135452D01*
X135468D01*
X135518D01*
X135602Y143319D01*
X135718Y143352D01*
X135835Y143386D01*
X135985Y143453D01*
X136135Y143553D01*
X136301Y143669D01*
X136318Y143686D01*
X136368Y143736D01*
X136435Y143819D01*
X136518Y143936D01*
X136601Y144069D01*
X136668Y144219D01*
X136718Y144402D01*
X136735Y144602D01*
Y144685D01*
X136718Y144769D01*
X136685Y144886D01*
X136651Y145019D01*
X136585Y145152D01*
X136501Y145319D01*
X136385Y145469D01*
X136368Y145485D01*
X136318Y145535D01*
X136251Y145602D01*
X136151Y145685D01*
X136018Y145769D01*
X135851Y145835D01*
X135668Y145885D01*
X135452Y145902D01*
D02*
G37*
G36*
X134369Y129089D02*
X134285D01*
X134185Y129073D01*
X134052Y129039D01*
X133902Y128989D01*
X133735Y128923D01*
X133585Y128823D01*
X133419Y128690D01*
X133402Y128673D01*
X133352Y128623D01*
X133286Y128540D01*
X133219Y128423D01*
X133135Y128273D01*
X133069Y128106D01*
X133019Y127923D01*
X133002Y127723D01*
X133202Y127090D01*
X133219Y127073D01*
X133236Y127023D01*
X133286Y126957D01*
X133352Y126857D01*
X133419Y126723D01*
X133502Y126573D01*
X133585Y126407D01*
X133685Y126207D01*
X133769Y126007D01*
X133852Y125774D01*
X134002Y125257D01*
X134069Y124991D01*
X134119Y124707D01*
X134135Y124407D01*
X134152Y124107D01*
Y121292D01*
X134135Y121192D01*
X134119Y121058D01*
X134102Y120925D01*
X134035Y120592D01*
X133919Y120225D01*
X133835Y120025D01*
X133735Y119825D01*
X133619Y119625D01*
X133502Y119442D01*
X133336Y119259D01*
X133169Y119075D01*
X133152Y119059D01*
X133119Y119042D01*
X133069Y118992D01*
X133002Y118925D01*
X132902Y118859D01*
X132786Y118792D01*
X132652Y118709D01*
X132519Y118625D01*
X132169Y118442D01*
X131769Y118309D01*
X131319Y118192D01*
X131069Y118176D01*
X130820Y118159D01*
X130203Y118192D01*
X129903Y118259D01*
X129636Y118376D01*
X129620Y118392D01*
X129553Y118426D01*
X129453Y118476D01*
X129337Y118559D01*
X129170Y118659D01*
X128987Y118792D01*
X128787Y118942D01*
X128553Y119125D01*
X120172Y127373D01*
Y127390D01*
X120139Y127407D01*
X120056Y127490D01*
X119922Y127640D01*
X119722Y127807D01*
X119472Y127990D01*
X119172Y128190D01*
X118822Y128390D01*
X118439Y128556D01*
X118073Y128690D01*
X117256Y128906D01*
X116840Y128989D01*
X116290D01*
X116257D01*
X116190D01*
X116057Y128973D01*
X115890Y128956D01*
X115690Y128940D01*
X115440Y128890D01*
X115174Y128823D01*
X114890Y128756D01*
X114574Y128656D01*
X114240Y128523D01*
X113890Y128373D01*
X113541Y128190D01*
X113174Y127956D01*
X112824Y127706D01*
X112474Y127407D01*
X112124Y127073D01*
X112108Y127057D01*
X112058Y127007D01*
X111974Y126923D01*
X111858Y126823D01*
X111741Y126673D01*
X111591Y126507D01*
X111441Y126290D01*
X111291Y126057D01*
X111124Y125790D01*
X110975Y125507D01*
X110825Y125174D01*
X110708Y124824D01*
X110591Y124441D01*
X110508Y124024D01*
X110458Y123591D01*
X110441Y123124D01*
Y115560D01*
X136735D01*
Y124274D01*
X136718Y124374D01*
Y124491D01*
X136685Y124757D01*
X136651Y125074D01*
X136585Y125457D01*
X136501Y125857D01*
X136385Y126307D01*
Y126323D01*
X136368Y126357D01*
X136351Y126424D01*
X136318Y126507D01*
X136285Y126623D01*
X136235Y126740D01*
X136135Y127040D01*
X135985Y127390D01*
X135818Y127757D01*
X135618Y128123D01*
X135385Y128490D01*
Y128506D01*
X135368Y128523D01*
X135318Y128606D01*
X135218Y128706D01*
X135068Y128823D01*
X135052D01*
X135018Y128856D01*
X134968Y128873D01*
X134902Y128906D01*
X134802Y128956D01*
X134669Y129006D01*
X134535Y129039D01*
X134369Y129089D01*
D02*
G37*
%LPD*%
G36*
X128520Y149101D02*
X127237D01*
X127370Y149118D01*
X127520Y149151D01*
X127770Y149268D01*
X127887Y149318D01*
X127970Y149368D01*
X128037Y149401D01*
X128054Y149418D01*
X128203Y149551D01*
X128320Y149701D01*
X128403Y149867D01*
X128470Y150034D01*
X128503Y150167D01*
X128520Y150284D01*
Y149101D01*
D02*
G37*
G36*
X110458Y133522D02*
X110475Y133438D01*
X110508Y133322D01*
X110558Y133172D01*
X110625Y132989D01*
X110708Y132789D01*
X110725Y132772D01*
X110775Y132722D01*
X110858Y132639D01*
X110975Y132572D01*
X111108Y132489D01*
X111291Y132405D01*
X111491Y132355D01*
X111724Y132339D01*
X110441D01*
Y133588D01*
X110458Y133522D01*
D02*
G37*
G36*
X136735Y115560D02*
X130986D01*
X131119Y115576D01*
X131286Y115593D01*
X131486Y115610D01*
X131719Y115660D01*
X132002Y115710D01*
X132286Y115793D01*
X132602Y115893D01*
X132936Y116026D01*
X133286Y116176D01*
X133635Y116359D01*
X133985Y116576D01*
X134352Y116826D01*
X134702Y117109D01*
X135052Y117443D01*
X135068Y117459D01*
X135118Y117509D01*
X135202Y117592D01*
X135318Y117709D01*
X135435Y117842D01*
X135585Y118026D01*
X135735Y118242D01*
X135901Y118476D01*
X136052Y118742D01*
X136201Y119042D01*
X136351Y119359D01*
X136468Y119725D01*
X136585Y120108D01*
X136668Y120525D01*
X136718Y120958D01*
X136735Y121425D01*
Y115560D01*
D02*
G37*
G36*
X116840Y126374D02*
X116856D01*
X116923Y126357D01*
X117023Y126323D01*
X117140Y126290D01*
X117173D01*
X117240Y126257D01*
X117323Y126224D01*
X117423Y126190D01*
X117456Y126174D01*
X117523Y126157D01*
X117640Y126107D01*
X117789Y126024D01*
X117973Y125924D01*
X118173Y125790D01*
X118389Y125640D01*
X118623Y125440D01*
X126770Y117292D01*
X126804Y117259D01*
X126887Y117176D01*
X127054Y117043D01*
X127254Y116876D01*
X127520Y116659D01*
X127854Y116443D01*
X128237Y116209D01*
X128670Y115960D01*
X128687D01*
X128720Y115943D01*
X128770Y115926D01*
X128853Y115893D01*
X128953Y115860D01*
X129070Y115826D01*
X129353Y115760D01*
X129686Y115693D01*
X130053Y115626D01*
X130470Y115576D01*
X130886Y115560D01*
X112857D01*
X112941Y115576D01*
X113057Y115610D01*
X113207Y115643D01*
X113357Y115710D01*
X113524Y115793D01*
X113691Y115910D01*
X113707Y115926D01*
X113757Y115976D01*
X113841Y116060D01*
X113924Y116159D01*
X113990Y116293D01*
X114074Y116459D01*
X114124Y116643D01*
X114140Y116843D01*
X113940Y117493D01*
X113924Y117509D01*
X113907Y117559D01*
X113857Y117626D01*
X113791Y117726D01*
X113724Y117859D01*
X113657Y118009D01*
X113574Y118192D01*
X113491Y118376D01*
X113391Y118592D01*
X113307Y118826D01*
X113174Y119325D01*
X113057Y119875D01*
X113041Y120159D01*
X113024Y120458D01*
Y123258D01*
X113041Y123341D01*
X113057Y123458D01*
X113074Y123591D01*
X113141Y123907D01*
X113257Y124257D01*
X113341Y124457D01*
X113441Y124657D01*
X113557Y124841D01*
X113691Y125041D01*
X113841Y125240D01*
X114007Y125424D01*
X114024Y125440D01*
X114057Y125474D01*
X114107Y125524D01*
X114174Y125574D01*
X114274Y125657D01*
X114390Y125740D01*
X114507Y125824D01*
X114657Y125924D01*
X114990Y126107D01*
X115373Y126274D01*
X115590Y126323D01*
X115807Y126374D01*
X116040Y126407D01*
X116273Y126424D01*
X116840Y126374D01*
D02*
G37*
G36*
X110458Y120242D02*
Y120058D01*
X110491Y119859D01*
X110508Y119609D01*
X110558Y119325D01*
X110608Y119009D01*
X110691Y118692D01*
X110775Y118342D01*
X110891Y117976D01*
X111025Y117592D01*
X111174Y117226D01*
X111358Y116843D01*
X111574Y116459D01*
X111808Y116093D01*
X112258Y115676D01*
X112774Y115560D01*
X110441D01*
Y120375D01*
X110458Y120242D01*
D02*
G37*
%LPC*%
G36*
X247286Y242141D02*
X247220D01*
X247180D01*
X247166D01*
X246873Y242128D01*
X246621Y242088D01*
X246408Y242035D01*
X246221Y241982D01*
X246088Y241929D01*
X245982Y241875D01*
X245928Y241835D01*
X245902Y241822D01*
X245769Y241702D01*
X245649Y241542D01*
X245543Y241343D01*
X245463Y241143D01*
X245383Y240917D01*
X245316Y240677D01*
X245223Y240185D01*
X245196Y239959D01*
X245170Y239732D01*
X245156Y239533D01*
X245143Y239346D01*
X245130Y239200D01*
Y234568D01*
X249216D01*
Y239533D01*
X249203Y239772D01*
X249189Y239985D01*
X249176Y240172D01*
X249163Y240345D01*
X249149Y240504D01*
X249136Y240637D01*
X249123Y240744D01*
X249109Y240837D01*
X249096Y240917D01*
X249083Y240984D01*
X249069Y241037D01*
Y241063D01*
X249056Y241090D01*
X248936Y241276D01*
X248803Y241436D01*
X248657Y241582D01*
X248497Y241702D01*
X248351Y241795D01*
X248191Y241889D01*
X248031Y241955D01*
X247885Y242008D01*
X247605Y242088D01*
X247486Y242115D01*
X247379Y242128D01*
X247286Y242141D01*
D02*
G37*
G36*
X243746Y223455D02*
X243666D01*
X243613D01*
X243599D01*
X243054Y223441D01*
X242535Y223402D01*
X242042Y223335D01*
X241590Y223255D01*
X241177Y223149D01*
X240778Y223029D01*
X240418Y222882D01*
X240086Y222723D01*
X239779Y222563D01*
X239500Y222377D01*
X239234Y222177D01*
X239007Y221977D01*
X238794Y221778D01*
X238595Y221565D01*
X238435Y221339D01*
X238275Y221126D01*
X238142Y220913D01*
X238023Y220686D01*
X237929Y220473D01*
X237836Y220274D01*
X237770Y220074D01*
X237703Y219874D01*
X237650Y219701D01*
X237610Y219528D01*
X237583Y219369D01*
X237557Y219222D01*
X237543Y219102D01*
X237530Y218996D01*
X237517Y218916D01*
Y218796D01*
X237530Y218504D01*
X237543Y218224D01*
X237583Y217958D01*
X237623Y217705D01*
X237663Y217465D01*
X237730Y217253D01*
X237783Y217053D01*
X237850Y216866D01*
X237903Y216707D01*
X237969Y216560D01*
X238023Y216441D01*
X238062Y216334D01*
X238116Y216254D01*
X238142Y216201D01*
X238156Y216161D01*
X238169Y216148D01*
X238302Y215975D01*
X238449Y215802D01*
X238608Y215642D01*
X238781Y215496D01*
X239154Y215229D01*
X239580Y215003D01*
X240032Y214817D01*
X240498Y214657D01*
X240977Y214524D01*
X241443Y214431D01*
X241896Y214338D01*
X242322Y214284D01*
X242721Y214244D01*
X242894Y214218D01*
X243067Y214205D01*
X243213D01*
X243346Y214191D01*
X243466D01*
X243573Y214178D01*
X243652D01*
X243706D01*
X243746D01*
X243759D01*
X244291Y214191D01*
X244797Y214231D01*
X245276Y214298D01*
X245716Y214378D01*
X246128Y214484D01*
X246501Y214604D01*
X246860Y214750D01*
X247180Y214897D01*
X247486Y215070D01*
X247752Y215256D01*
X248005Y215442D01*
X248231Y215642D01*
X248444Y215842D01*
X248630Y216055D01*
X248790Y216268D01*
X248936Y216494D01*
X249069Y216707D01*
X249189Y216920D01*
X249282Y217133D01*
X249376Y217332D01*
X249495Y217732D01*
X249549Y217905D01*
X249589Y218078D01*
X249615Y218224D01*
X249642Y218370D01*
X249655Y218490D01*
X249669Y218597D01*
X249682Y218677D01*
Y218796D01*
X249669Y219222D01*
X249615Y219622D01*
X249535Y219994D01*
X249416Y220340D01*
X249282Y220660D01*
X249123Y220952D01*
X248936Y221232D01*
X248737Y221485D01*
X248510Y221724D01*
X248271Y221938D01*
X248018Y222137D01*
X247752Y222323D01*
X247486Y222483D01*
X247206Y222630D01*
X246927Y222763D01*
X246647Y222869D01*
X246354Y222976D01*
X246075Y223069D01*
X245529Y223215D01*
X245263Y223268D01*
X245010Y223308D01*
X244771Y223348D01*
X244544Y223388D01*
X244345Y223402D01*
X244158Y223428D01*
X243999Y223441D01*
X243866D01*
X243746Y223455D01*
D02*
G37*
G36*
X270509Y232091D02*
Y227193D01*
X276991Y229589D01*
X270509Y232091D01*
D02*
G37*
G36*
X182393Y286201D02*
X182326D01*
X182276D01*
X182259D01*
X167663D01*
X167413Y286184D01*
X167163Y286151D01*
X166930Y286117D01*
X166713Y286051D01*
X166313Y285884D01*
X165980Y285718D01*
X165830Y285618D01*
X165697Y285534D01*
X165597Y285451D01*
X165497Y285368D01*
X165430Y285301D01*
X165380Y285268D01*
X165347Y285234D01*
X165330Y285218D01*
X165164Y285034D01*
X165030Y284834D01*
X164897Y284634D01*
X164797Y284451D01*
X164631Y284051D01*
X164514Y283701D01*
X164447Y283385D01*
X164431Y283251D01*
X164414Y283135D01*
X164397Y283051D01*
Y281085D01*
X164414Y280852D01*
X164447Y280619D01*
X164481Y280402D01*
X164547Y280186D01*
X164697Y279802D01*
X164881Y279469D01*
X164964Y279319D01*
X165064Y279202D01*
X165147Y279086D01*
X165214Y278986D01*
X165280Y278919D01*
X165330Y278869D01*
X165347Y278836D01*
X165364Y278819D01*
X165547Y278653D01*
X165747Y278503D01*
X165930Y278369D01*
X166130Y278253D01*
X166330Y278153D01*
X166513Y278069D01*
X166880Y277953D01*
X167197Y277886D01*
X167330Y277869D01*
X167446Y277853D01*
X167530Y277836D01*
X167596D01*
X167647D01*
X167663D01*
X182259D01*
X182509Y277853D01*
X182743Y277869D01*
X182976Y277920D01*
X183193Y277986D01*
X183576Y278136D01*
X183909Y278319D01*
X184059Y278403D01*
X184192Y278486D01*
X184292Y278569D01*
X184392Y278636D01*
X184459Y278703D01*
X184509Y278753D01*
X184542Y278769D01*
X184559Y278786D01*
X184725Y278969D01*
X184875Y279153D01*
X185009Y279352D01*
X185125Y279552D01*
X185209Y279736D01*
X185292Y279936D01*
X185409Y280285D01*
X185475Y280602D01*
X185492Y280752D01*
X185509Y280852D01*
X185525Y280952D01*
Y282918D01*
X185509Y283168D01*
X185475Y283401D01*
X185442Y283618D01*
X185375Y283835D01*
X185209Y284235D01*
X185042Y284568D01*
X184942Y284718D01*
X184859Y284834D01*
X184775Y284951D01*
X184692Y285051D01*
X184625Y285118D01*
X184592Y285168D01*
X184559Y285201D01*
X184542Y285218D01*
X184359Y285384D01*
X184159Y285551D01*
X183976Y285667D01*
X183776Y285784D01*
X183592Y285884D01*
X183392Y285967D01*
X183043Y286084D01*
X182726Y286151D01*
X182593Y286167D01*
X182476Y286184D01*
X182393Y286201D01*
D02*
G37*
G36*
Y264739D02*
X182326D01*
X182276D01*
X182259D01*
X175345D01*
Y259641D01*
X175361Y259408D01*
X175394Y259174D01*
X175428Y258958D01*
X175494Y258741D01*
X175644Y258358D01*
X175828Y258025D01*
X175911Y257875D01*
X176011Y257758D01*
X176094Y257641D01*
X176161Y257541D01*
X176228Y257475D01*
X176278Y257425D01*
X176294Y257391D01*
X176311Y257375D01*
X176494Y257208D01*
X176694Y257058D01*
X176877Y256925D01*
X177077Y256808D01*
X177277Y256708D01*
X177461Y256625D01*
X177827Y256508D01*
X178144Y256442D01*
X178277Y256425D01*
X178394Y256408D01*
X178477Y256392D01*
X178544D01*
X178594D01*
X178610D01*
X182259D01*
X182509Y256408D01*
X182759Y256425D01*
X183193Y256542D01*
X183592Y256692D01*
X183926Y256858D01*
X184076Y256942D01*
X184209Y257025D01*
X184309Y257108D01*
X184409Y257175D01*
X184475Y257241D01*
X184526Y257291D01*
X184559Y257308D01*
X184576Y257325D01*
X184742Y257508D01*
X184892Y257691D01*
X185009Y257891D01*
X185125Y258091D01*
X185225Y258291D01*
X185292Y258474D01*
X185409Y258841D01*
X185475Y259158D01*
X185492Y259291D01*
X185509Y259408D01*
X185525Y259508D01*
Y261474D01*
X185509Y261724D01*
X185492Y261973D01*
X185442Y262207D01*
X185375Y262423D01*
X185225Y262807D01*
X185042Y263157D01*
X184959Y263290D01*
X184859Y263423D01*
X184775Y263540D01*
X184709Y263623D01*
X184642Y263690D01*
X184609Y263740D01*
X184576Y263773D01*
X184559Y263790D01*
X184375Y263956D01*
X184192Y264106D01*
X183992Y264223D01*
X183792Y264340D01*
X183609Y264440D01*
X183409Y264506D01*
X183059Y264623D01*
X182743Y264690D01*
X182609Y264706D01*
X182493Y264723D01*
X182393Y264739D01*
D02*
G37*
G36*
X182409Y230265D02*
X182343D01*
X182293D01*
X182276D01*
X180410D01*
X180160Y230248D01*
X179910Y230215D01*
X179677Y230182D01*
X179460Y230115D01*
X179077Y229948D01*
X178727Y229782D01*
X178594Y229682D01*
X178460Y229599D01*
X178360Y229515D01*
X178260Y229432D01*
X178194Y229365D01*
X178144Y229332D01*
X178111Y229299D01*
X178094Y229282D01*
X177927Y229099D01*
X177794Y228899D01*
X177661Y228699D01*
X177561Y228515D01*
X177394Y228116D01*
X177277Y227766D01*
X177211Y227449D01*
X177194Y227316D01*
X177177Y227199D01*
X177161Y227116D01*
Y226982D01*
X177177Y226733D01*
X177194Y226499D01*
X177311Y226049D01*
X177461Y225666D01*
X177627Y225333D01*
X177711Y225183D01*
X177794Y225050D01*
X177877Y224950D01*
X177944Y224850D01*
X178011Y224783D01*
X178060Y224733D01*
X178077Y224700D01*
X178094Y224683D01*
X178277Y224517D01*
X178460Y224383D01*
X178660Y224250D01*
X178860Y224150D01*
X179244Y223983D01*
X179610Y223867D01*
X179927Y223800D01*
X180060Y223783D01*
X180177Y223767D01*
X180277Y223750D01*
X180343D01*
X180393D01*
X180410D01*
X182276D01*
X182526Y223767D01*
X182776Y223783D01*
X182992Y223833D01*
X183209Y223900D01*
X183609Y224050D01*
X183942Y224233D01*
X184076Y224317D01*
X184209Y224400D01*
X184326Y224483D01*
X184409Y224550D01*
X184475Y224616D01*
X184526Y224666D01*
X184559Y224683D01*
X184576Y224700D01*
X184742Y224883D01*
X184892Y225083D01*
X185009Y225266D01*
X185125Y225466D01*
X185225Y225666D01*
X185292Y225866D01*
X185409Y226216D01*
X185475Y226533D01*
X185492Y226666D01*
X185509Y226783D01*
X185525Y226882D01*
Y227016D01*
X185509Y227266D01*
X185492Y227499D01*
X185442Y227732D01*
X185375Y227949D01*
X185225Y228332D01*
X185059Y228665D01*
X184959Y228815D01*
X184875Y228949D01*
X184792Y229049D01*
X184725Y229149D01*
X184659Y229215D01*
X184609Y229265D01*
X184592Y229299D01*
X184576Y229315D01*
X184392Y229482D01*
X184209Y229632D01*
X184009Y229748D01*
X183809Y229865D01*
X183626Y229965D01*
X183426Y230032D01*
X183076Y230148D01*
X182759Y230215D01*
X182626Y230232D01*
X182509Y230248D01*
X182409Y230265D01*
D02*
G37*
G36*
X171446Y231181D02*
X171379D01*
X171329D01*
X171312D01*
X167663D01*
X167413Y231165D01*
X167163Y231148D01*
X166930Y231098D01*
X166713Y231031D01*
X166313Y230882D01*
X165980Y230715D01*
X165830Y230615D01*
X165697Y230532D01*
X165597Y230448D01*
X165497Y230382D01*
X165430Y230315D01*
X165380Y230265D01*
X165347Y230248D01*
X165330Y230232D01*
X165164Y230048D01*
X165030Y229865D01*
X164897Y229665D01*
X164797Y229465D01*
X164631Y229082D01*
X164514Y228715D01*
X164447Y228399D01*
X164431Y228265D01*
X164414Y228149D01*
X164397Y228049D01*
Y226083D01*
X164414Y225849D01*
X164447Y225616D01*
X164481Y225400D01*
X164547Y225183D01*
X164697Y224800D01*
X164881Y224466D01*
X164964Y224317D01*
X165064Y224200D01*
X165147Y224083D01*
X165214Y223983D01*
X165280Y223917D01*
X165330Y223867D01*
X165347Y223833D01*
X165364Y223817D01*
X165547Y223650D01*
X165747Y223500D01*
X165930Y223367D01*
X166130Y223250D01*
X166330Y223150D01*
X166513Y223067D01*
X166880Y222950D01*
X167197Y222884D01*
X167330Y222867D01*
X167446Y222850D01*
X167530Y222834D01*
X167596D01*
X167647D01*
X167663D01*
X171312D01*
X171562Y222850D01*
X171795Y222867D01*
X172029Y222917D01*
X172245Y222983D01*
X172628Y223134D01*
X172962Y223317D01*
X173112Y223400D01*
X173245Y223483D01*
X173345Y223567D01*
X173445Y223633D01*
X173512Y223700D01*
X173562Y223750D01*
X173595Y223767D01*
X173612Y223783D01*
X173778Y223967D01*
X173928Y224150D01*
X174062Y224350D01*
X174178Y224550D01*
X174261Y224733D01*
X174345Y224933D01*
X174461Y225283D01*
X174528Y225599D01*
X174545Y225749D01*
X174561Y225849D01*
X174578Y225949D01*
Y227916D01*
X174561Y228165D01*
X174545Y228416D01*
X174495Y228649D01*
X174428Y228865D01*
X174278Y229249D01*
X174095Y229599D01*
X174011Y229732D01*
X173911Y229865D01*
X173828Y229982D01*
X173762Y230065D01*
X173695Y230132D01*
X173662Y230182D01*
X173628Y230215D01*
X173612Y230232D01*
X173428Y230398D01*
X173245Y230548D01*
X173045Y230665D01*
X172845Y230781D01*
X172662Y230882D01*
X172462Y230948D01*
X172112Y231065D01*
X171795Y231131D01*
X171662Y231148D01*
X171546Y231165D01*
X171446Y231181D01*
D02*
G37*
G36*
Y197623D02*
X171379D01*
X171329D01*
X171312D01*
X167663D01*
X167413Y197607D01*
X167163Y197590D01*
X166930Y197540D01*
X166713Y197473D01*
X166313Y197323D01*
X165980Y197157D01*
X165830Y197057D01*
X165697Y196973D01*
X165597Y196890D01*
X165497Y196824D01*
X165430Y196757D01*
X165380Y196707D01*
X165347Y196690D01*
X165330Y196674D01*
X165164Y196490D01*
X165030Y196307D01*
X164897Y196107D01*
X164797Y195907D01*
X164631Y195524D01*
X164514Y195157D01*
X164447Y194841D01*
X164431Y194707D01*
X164414Y194591D01*
X164397Y194491D01*
Y192525D01*
X164414Y192291D01*
X164447Y192058D01*
X164481Y191842D01*
X164547Y191625D01*
X164697Y191242D01*
X164881Y190908D01*
X164964Y190758D01*
X165064Y190642D01*
X165147Y190525D01*
X165214Y190425D01*
X165280Y190359D01*
X165330Y190309D01*
X165347Y190275D01*
X165364Y190259D01*
X165547Y190092D01*
X165747Y189942D01*
X165930Y189809D01*
X166130Y189692D01*
X166330Y189592D01*
X166513Y189509D01*
X166880Y189392D01*
X167197Y189326D01*
X167330Y189309D01*
X167446Y189292D01*
X167530Y189275D01*
X167596D01*
X167647D01*
X167663D01*
X174578D01*
Y194357D01*
X174561Y194608D01*
X174545Y194857D01*
X174495Y195091D01*
X174428Y195307D01*
X174278Y195690D01*
X174095Y196040D01*
X174011Y196174D01*
X173911Y196307D01*
X173828Y196424D01*
X173762Y196507D01*
X173695Y196574D01*
X173662Y196624D01*
X173628Y196657D01*
X173612Y196674D01*
X173428Y196840D01*
X173245Y196990D01*
X173045Y197107D01*
X172845Y197223D01*
X172662Y197323D01*
X172462Y197390D01*
X172112Y197507D01*
X171795Y197573D01*
X171662Y197590D01*
X171546Y197607D01*
X171446Y197623D01*
D02*
G37*
%LPD*%
D13*
X43602Y365000D02*
G03*
X43602Y365000I-8602J0D01*
G01*
D15*
X356188Y351282D02*
X364000Y351282D01*
X356188Y389128D02*
X364000Y389128D01*
D17*
X136000Y351450D02*
X143714D01*
X136000Y50050D02*
X143714D01*
X356286D02*
X364000D01*
X550000Y35750D02*
Y365750D01*
X364000Y351282D02*
Y389128D01*
X136000Y351450D02*
Y389250D01*
Y12250D02*
Y50050D01*
X364000Y12250D02*
Y50050D01*
X356286Y12250D02*
X364000D01*
X356286Y50050D02*
X364000D01*
X136000Y12250D02*
X143714D01*
X136000Y389250D02*
X143714D01*
D97*
X123588Y229130D02*
D03*
M02*
