G04*
G04 #@! TF.GenerationSoftware,Altium Limited,Altium Designer,21.6.4 (81)*
G04*
G04 Layer_Physical_Order=3*
G04 Layer_Color=16440176*
%FSLAX25Y25*%
%MOIN*%
G70*
G04*
G04 #@! TF.SameCoordinates,EC57A691-81B7-4C8C-A3E3-72FCA770F10A*
G04*
G04*
G04 #@! TF.FilePolarity,Positive*
G04*
G01*
G75*
%ADD45C,0.02165*%
%ADD46C,0.02200*%
G36*
X260984Y123289D02*
X261465Y123090D01*
X261899Y122800D01*
X262267Y122432D01*
X262557Y121999D01*
X262757Y121518D01*
X262859Y121007D01*
X262859Y120747D01*
X262847Y3996D01*
X262847Y3996D01*
X262847Y3996D01*
X262847Y3759D01*
X262755Y3295D01*
X262574Y2857D01*
X262311Y2463D01*
X261976Y2128D01*
X261582Y1864D01*
X261145Y1683D01*
X260680Y1590D01*
X260443Y1590D01*
X4114Y1606D01*
X4114Y1606D01*
X4114Y1606D01*
X3867D01*
X3382Y1702D01*
X2926Y1891D01*
X2515Y2166D01*
X2166Y2515D01*
X1891Y2926D01*
X1702Y3382D01*
X1606Y3867D01*
X1606Y4114D01*
X1606Y4114D01*
X1606Y4114D01*
X1598Y120772D01*
D01*
X1598Y121029D01*
X1698Y121533D01*
X1894Y122008D01*
X2180Y122435D01*
X2543Y122799D01*
X2970Y123085D01*
X3445Y123282D01*
X3949Y123382D01*
X4206Y123383D01*
D01*
X260213Y123390D01*
X260473D01*
X260984Y123289D01*
D02*
G37*
%LPC*%
G36*
X250014Y121472D02*
X248812D01*
X248657Y121441D01*
X248499D01*
X247320Y121206D01*
X247174Y121146D01*
X247019Y121115D01*
X245908Y120655D01*
X245777Y120567D01*
X245631Y120507D01*
X244631Y119839D01*
X244519Y119727D01*
X244388Y119639D01*
X243538Y118789D01*
X243450Y118658D01*
X243338Y118546D01*
X242670Y117546D01*
X242610Y117400D01*
X242522Y117269D01*
X242062Y116158D01*
X242031Y116003D01*
X241971Y115857D01*
X241736Y114678D01*
Y114520D01*
X241705Y114365D01*
Y113764D01*
Y113163D01*
X241736Y113008D01*
Y112849D01*
X241971Y111670D01*
X242031Y111524D01*
X242062Y111369D01*
X242522Y110259D01*
X242610Y110127D01*
X242670Y109981D01*
X243338Y108982D01*
X243450Y108870D01*
X243538Y108738D01*
X244388Y107888D01*
X244519Y107800D01*
X244631Y107689D01*
X245631Y107021D01*
X245777Y106960D01*
X245908Y106872D01*
X247019Y106412D01*
X247174Y106382D01*
X247320Y106321D01*
X248499Y106087D01*
X248657D01*
X248812Y106056D01*
X250014D01*
X250169Y106087D01*
X250328D01*
X251507Y106321D01*
X251653Y106382D01*
X251808Y106412D01*
X252918Y106872D01*
X253050Y106960D01*
X253196Y107021D01*
X254195Y107689D01*
X254307Y107800D01*
X254439Y107888D01*
X255289Y108738D01*
X255377Y108870D01*
X255488Y108982D01*
X256156Y109981D01*
X256217Y110127D01*
X256305Y110259D01*
X256765Y111369D01*
X256796Y111524D01*
X256856Y111670D01*
X257090Y112849D01*
Y113008D01*
X257121Y113163D01*
Y113764D01*
Y114365D01*
X257090Y114520D01*
Y114678D01*
X256856Y115857D01*
X256796Y116003D01*
X256765Y116158D01*
X256305Y117269D01*
X256217Y117400D01*
X256156Y117546D01*
X255488Y118546D01*
X255377Y118658D01*
X255289Y118789D01*
X254439Y119639D01*
X254307Y119727D01*
X254195Y119839D01*
X253196Y120507D01*
X253050Y120567D01*
X252918Y120655D01*
X251808Y121115D01*
X251653Y121146D01*
X251507Y121206D01*
X250328Y121441D01*
X250169D01*
X250014Y121472D01*
D02*
G37*
G36*
X11825D02*
X10623D01*
X10468Y121441D01*
X10310D01*
X9131Y121206D01*
X8985Y121146D01*
X8830Y121115D01*
X7719Y120655D01*
X7588Y120567D01*
X7442Y120507D01*
X6442Y119839D01*
X6330Y119727D01*
X6199Y119639D01*
X5349Y118789D01*
X5261Y118658D01*
X5149Y118546D01*
X4482Y117546D01*
X4421Y117400D01*
X4333Y117269D01*
X3873Y116158D01*
X3842Y116003D01*
X3782Y115857D01*
X3547Y114678D01*
Y114520D01*
X3516Y114365D01*
Y113764D01*
Y113163D01*
X3547Y113008D01*
Y112849D01*
X3782Y111670D01*
X3842Y111524D01*
X3873Y111369D01*
X4333Y110259D01*
X4421Y110127D01*
X4482Y109981D01*
X5149Y108982D01*
X5261Y108870D01*
X5349Y108738D01*
X6199Y107888D01*
X6330Y107800D01*
X6442Y107689D01*
X7442Y107021D01*
X7588Y106960D01*
X7719Y106872D01*
X8830Y106412D01*
X8985Y106382D01*
X9131Y106321D01*
X10310Y106087D01*
X10468D01*
X10623Y106056D01*
X11825D01*
X11981Y106087D01*
X12139D01*
X13318Y106321D01*
X13464Y106382D01*
X13619Y106412D01*
X14729Y106872D01*
X14861Y106960D01*
X15007Y107021D01*
X16006Y107689D01*
X16118Y107800D01*
X16250Y107888D01*
X17100Y108738D01*
X17188Y108870D01*
X17300Y108982D01*
X17967Y109981D01*
X18028Y110127D01*
X18116Y110259D01*
X18576Y111369D01*
X18607Y111524D01*
X18667Y111670D01*
X18902Y112849D01*
Y113008D01*
X18932Y113163D01*
Y113764D01*
Y114365D01*
X18902Y114520D01*
Y114678D01*
X18667Y115857D01*
X18607Y116003D01*
X18576Y116158D01*
X18116Y117269D01*
X18028Y117400D01*
X17967Y117546D01*
X17300Y118546D01*
X17188Y118658D01*
X17100Y118789D01*
X16250Y119639D01*
X16118Y119727D01*
X16006Y119839D01*
X15007Y120507D01*
X14861Y120567D01*
X14729Y120655D01*
X13619Y121115D01*
X13464Y121146D01*
X13318Y121206D01*
X12139Y121441D01*
X11981D01*
X11825Y121472D01*
D02*
G37*
G36*
X206264Y97146D02*
X205520D01*
X204833Y96861D01*
X204306Y96335D01*
X204022Y95648D01*
Y94904D01*
X204306Y94216D01*
X204833Y93690D01*
X205520Y93405D01*
X206264D01*
X206951Y93690D01*
X207477Y94216D01*
X207762Y94904D01*
Y95648D01*
X207477Y96335D01*
X206951Y96861D01*
X206264Y97146D01*
D02*
G37*
G36*
X211396Y93481D02*
X210652D01*
X209964Y93196D01*
X209438Y92670D01*
X209154Y91983D01*
Y91238D01*
X209438Y90551D01*
X209964Y90025D01*
X210652Y89740D01*
X211396D01*
X212083Y90025D01*
X212609Y90551D01*
X212894Y91238D01*
Y91983D01*
X212609Y92670D01*
X212083Y93196D01*
X211396Y93481D01*
D02*
G37*
G36*
X206277Y83775D02*
X205534D01*
X204846Y83491D01*
X204320Y82965D01*
X204035Y82277D01*
Y81533D01*
X204320Y80846D01*
X204846Y80320D01*
X205534Y80035D01*
X206277D01*
X206965Y80320D01*
X207491Y80846D01*
X207776Y81533D01*
Y82277D01*
X207491Y82965D01*
X206965Y83491D01*
X206277Y83775D01*
D02*
G37*
G36*
X211396Y83760D02*
X210652D01*
X209964Y83475D01*
X209438Y82949D01*
X209154Y82262D01*
Y81518D01*
X209438Y80830D01*
X209964Y80304D01*
X210652Y80020D01*
X211396D01*
X212083Y80304D01*
X212609Y80830D01*
X212894Y81518D01*
Y82262D01*
X212609Y82949D01*
X212083Y83475D01*
X211396Y83760D01*
D02*
G37*
G36*
X221238Y50295D02*
X220494D01*
X219807Y50011D01*
X219281Y49485D01*
X218996Y48797D01*
Y48053D01*
X219281Y47366D01*
X219807Y46840D01*
X220494Y46555D01*
X221238D01*
X221925Y46840D01*
X222451Y47366D01*
X222736Y48053D01*
Y48797D01*
X222451Y49485D01*
X221925Y50011D01*
X221238Y50295D01*
D02*
G37*
G36*
Y42421D02*
X220494D01*
X219807Y42136D01*
X219281Y41611D01*
X218996Y40923D01*
Y40179D01*
X219281Y39492D01*
X219807Y38966D01*
X220494Y38681D01*
X221238D01*
X221925Y38966D01*
X222451Y39492D01*
X222736Y40179D01*
Y40923D01*
X222451Y41611D01*
X221925Y42136D01*
X221238Y42421D01*
D02*
G37*
G36*
X250014Y19110D02*
X248812D01*
X248657Y19079D01*
X248499D01*
X247320Y18844D01*
X247174Y18784D01*
X247019Y18753D01*
X245908Y18293D01*
X245777Y18205D01*
X245631Y18145D01*
X244631Y17477D01*
X244519Y17365D01*
X244388Y17277D01*
X243538Y16427D01*
X243450Y16296D01*
X243338Y16184D01*
X242670Y15184D01*
X242610Y15038D01*
X242522Y14907D01*
X242062Y13796D01*
X242031Y13641D01*
X241971Y13495D01*
X241736Y12316D01*
Y12158D01*
X241705Y12003D01*
Y11402D01*
Y10801D01*
X241736Y10645D01*
Y10487D01*
X241971Y9308D01*
X242031Y9162D01*
X242062Y9007D01*
X242522Y7897D01*
X242610Y7765D01*
X242670Y7619D01*
X243338Y6620D01*
X243450Y6508D01*
X243538Y6376D01*
X244388Y5526D01*
X244519Y5438D01*
X244631Y5327D01*
X245631Y4659D01*
X245777Y4598D01*
X245908Y4510D01*
X247019Y4050D01*
X247174Y4019D01*
X247320Y3959D01*
X248499Y3724D01*
X248657D01*
X248812Y3694D01*
X250014D01*
X250169Y3724D01*
X250328D01*
X251507Y3959D01*
X251653Y4019D01*
X251808Y4050D01*
X252918Y4510D01*
X253050Y4598D01*
X253196Y4659D01*
X254195Y5327D01*
X254307Y5438D01*
X254439Y5526D01*
X255289Y6376D01*
X255377Y6508D01*
X255488Y6620D01*
X256156Y7619D01*
X256217Y7765D01*
X256305Y7897D01*
X256765Y9007D01*
X256796Y9162D01*
X256856Y9308D01*
X257090Y10487D01*
Y10645D01*
X257121Y10801D01*
Y11402D01*
Y12003D01*
X257090Y12158D01*
Y12316D01*
X256856Y13495D01*
X256796Y13641D01*
X256765Y13796D01*
X256305Y14907D01*
X256217Y15038D01*
X256156Y15184D01*
X255488Y16184D01*
X255377Y16296D01*
X255289Y16427D01*
X254439Y17277D01*
X254307Y17365D01*
X254195Y17477D01*
X253196Y18145D01*
X253050Y18205D01*
X252918Y18293D01*
X251808Y18753D01*
X251653Y18784D01*
X251507Y18844D01*
X250328Y19079D01*
X250169D01*
X250014Y19110D01*
D02*
G37*
G36*
X11825D02*
X10623D01*
X10468Y19079D01*
X10310D01*
X9131Y18844D01*
X8985Y18784D01*
X8830Y18753D01*
X7719Y18293D01*
X7588Y18205D01*
X7442Y18145D01*
X6442Y17477D01*
X6330Y17365D01*
X6199Y17277D01*
X5349Y16427D01*
X5261Y16296D01*
X5149Y16184D01*
X4482Y15184D01*
X4421Y15038D01*
X4333Y14907D01*
X3873Y13796D01*
X3842Y13641D01*
X3782Y13495D01*
X3547Y12316D01*
Y12158D01*
X3516Y12003D01*
Y11402D01*
Y10801D01*
X3547Y10645D01*
Y10487D01*
X3782Y9308D01*
X3842Y9162D01*
X3873Y9007D01*
X4333Y7897D01*
X4421Y7765D01*
X4482Y7619D01*
X5149Y6620D01*
X5261Y6508D01*
X5349Y6376D01*
X6199Y5526D01*
X6330Y5438D01*
X6442Y5327D01*
X7442Y4659D01*
X7588Y4598D01*
X7719Y4510D01*
X8830Y4050D01*
X8985Y4019D01*
X9131Y3959D01*
X10310Y3724D01*
X10468D01*
X10623Y3694D01*
X11825D01*
X11981Y3724D01*
X12139D01*
X13318Y3959D01*
X13464Y4019D01*
X13619Y4050D01*
X14729Y4510D01*
X14861Y4598D01*
X15007Y4659D01*
X16006Y5327D01*
X16118Y5438D01*
X16250Y5526D01*
X17100Y6376D01*
X17188Y6508D01*
X17300Y6620D01*
X17967Y7619D01*
X18028Y7765D01*
X18116Y7897D01*
X18576Y9007D01*
X18607Y9162D01*
X18667Y9308D01*
X18902Y10487D01*
Y10645D01*
X18932Y10801D01*
Y11402D01*
Y12003D01*
X18902Y12158D01*
Y12316D01*
X18667Y13495D01*
X18607Y13641D01*
X18576Y13796D01*
X18116Y14907D01*
X18028Y15038D01*
X17967Y15184D01*
X17300Y16184D01*
X17188Y16296D01*
X17100Y16427D01*
X16250Y17277D01*
X16118Y17365D01*
X16006Y17477D01*
X15007Y18145D01*
X14861Y18205D01*
X14729Y18293D01*
X13619Y18753D01*
X13464Y18784D01*
X13318Y18844D01*
X12139Y19079D01*
X11981D01*
X11825Y19110D01*
D02*
G37*
%LPD*%
G54D45*
X95225Y100317D02*
D03*
X91059D02*
D03*
X86894D02*
D03*
X82729D02*
D03*
X78596Y99796D02*
D03*
X74866Y97941D02*
D03*
X71807Y95114D02*
D03*
X68862Y92169D02*
D03*
X65916Y89224D02*
D03*
X62971Y86278D02*
D03*
X60026Y83333D02*
D03*
X56706Y80817D02*
D03*
X52581Y80238D02*
D03*
X48415D02*
D03*
X44256Y80454D02*
D03*
X40096Y80238D02*
D03*
X35931D02*
D03*
X31765D02*
D03*
X27600Y80286D02*
D03*
X24467Y83031D02*
D03*
X20316Y82690D02*
D03*
X17676Y79468D02*
D03*
X18153Y75330D02*
D03*
X21456Y72792D02*
D03*
X25577Y73395D02*
D03*
X29068Y75667D02*
D03*
X33234D02*
D03*
X37399D02*
D03*
X45690D02*
D03*
X49855D02*
D03*
X54020Y75681D02*
D03*
X58105Y76496D02*
D03*
X61686Y78624D02*
D03*
X64678Y81522D02*
D03*
X67624Y84467D02*
D03*
X70569Y87412D02*
D03*
X73514Y90358D02*
D03*
X76460Y93303D02*
D03*
X80033Y95444D02*
D03*
X84187Y95746D02*
D03*
X88352D02*
D03*
X92518D02*
D03*
X100476Y96766D02*
D03*
X99355Y100777D02*
D03*
X220472Y56299D02*
D03*
G54D46*
X69150Y50630D02*
D03*
X49150Y60630D02*
D03*
X59150Y40630D02*
D03*
X159066Y40713D02*
D03*
X179150Y50630D02*
D03*
X169150D02*
D03*
X159150D02*
D03*
X119150Y90630D02*
D03*
X249150Y100630D02*
D03*
Y90630D02*
D03*
Y80630D02*
D03*
Y60630D02*
D03*
Y20630D02*
D03*
X239150Y110630D02*
D03*
Y100630D02*
D03*
Y90630D02*
D03*
Y70630D02*
D03*
Y20630D02*
D03*
Y10630D02*
D03*
X229150Y110630D02*
D03*
Y100630D02*
D03*
Y60630D02*
D03*
Y20630D02*
D03*
X219150Y110630D02*
D03*
Y100630D02*
D03*
Y80630D02*
D03*
Y70630D02*
D03*
Y60630D02*
D03*
Y20630D02*
D03*
X209150Y110630D02*
D03*
Y100630D02*
D03*
Y20630D02*
D03*
X199150Y110630D02*
D03*
Y80630D02*
D03*
Y70630D02*
D03*
Y60630D02*
D03*
Y50630D02*
D03*
Y20630D02*
D03*
X189150Y110630D02*
D03*
Y100630D02*
D03*
Y80630D02*
D03*
Y70630D02*
D03*
Y60630D02*
D03*
Y50630D02*
D03*
Y40630D02*
D03*
Y20630D02*
D03*
X179150Y110630D02*
D03*
Y100630D02*
D03*
Y70630D02*
D03*
Y60630D02*
D03*
Y20630D02*
D03*
X169150Y110630D02*
D03*
Y100630D02*
D03*
Y90630D02*
D03*
Y60630D02*
D03*
Y40630D02*
D03*
Y30630D02*
D03*
Y20630D02*
D03*
X159150Y110630D02*
D03*
Y100630D02*
D03*
Y90630D02*
D03*
Y80630D02*
D03*
Y30630D02*
D03*
Y20630D02*
D03*
X149150Y110630D02*
D03*
Y70630D02*
D03*
Y20630D02*
D03*
X139150Y110630D02*
D03*
Y100630D02*
D03*
Y70630D02*
D03*
Y60630D02*
D03*
Y20630D02*
D03*
X129150Y110630D02*
D03*
Y70630D02*
D03*
Y60630D02*
D03*
Y50630D02*
D03*
Y20630D02*
D03*
X119150Y110630D02*
D03*
Y70630D02*
D03*
Y60630D02*
D03*
Y50630D02*
D03*
Y20630D02*
D03*
X109150Y110630D02*
D03*
Y70630D02*
D03*
Y60630D02*
D03*
Y50630D02*
D03*
Y30630D02*
D03*
Y20630D02*
D03*
X99150Y110630D02*
D03*
Y70630D02*
D03*
Y60630D02*
D03*
Y50630D02*
D03*
Y20630D02*
D03*
X89150Y110630D02*
D03*
Y90630D02*
D03*
Y80630D02*
D03*
Y70630D02*
D03*
Y60630D02*
D03*
Y50630D02*
D03*
Y40630D02*
D03*
Y10630D02*
D03*
X79150Y110630D02*
D03*
Y90630D02*
D03*
Y80630D02*
D03*
Y70630D02*
D03*
Y60630D02*
D03*
Y50630D02*
D03*
Y40630D02*
D03*
Y20630D02*
D03*
Y10630D02*
D03*
X69150Y110630D02*
D03*
Y100630D02*
D03*
Y80630D02*
D03*
Y70630D02*
D03*
Y60630D02*
D03*
Y30630D02*
D03*
Y20630D02*
D03*
Y10630D02*
D03*
X59150Y110630D02*
D03*
Y100630D02*
D03*
Y90630D02*
D03*
Y70630D02*
D03*
Y60630D02*
D03*
Y30630D02*
D03*
Y20630D02*
D03*
Y10630D02*
D03*
X49150Y110630D02*
D03*
Y100630D02*
D03*
Y90630D02*
D03*
Y30630D02*
D03*
Y20630D02*
D03*
Y10630D02*
D03*
X39150Y110630D02*
D03*
Y100630D02*
D03*
Y60630D02*
D03*
Y30630D02*
D03*
Y20630D02*
D03*
Y10630D02*
D03*
X29150Y110630D02*
D03*
Y100630D02*
D03*
Y90630D02*
D03*
Y70630D02*
D03*
Y60630D02*
D03*
Y50630D02*
D03*
Y40630D02*
D03*
Y30630D02*
D03*
Y20630D02*
D03*
Y10630D02*
D03*
X19150Y100630D02*
D03*
Y60630D02*
D03*
Y50630D02*
D03*
Y40630D02*
D03*
Y30630D02*
D03*
Y20630D02*
D03*
X9150Y100630D02*
D03*
Y60630D02*
D03*
Y50630D02*
D03*
Y40630D02*
D03*
Y30630D02*
D03*
Y20630D02*
D03*
M02*
