G04*
G04 #@! TF.GenerationSoftware,Altium Limited,Altium Designer,21.6.4 (81)*
G04*
G04 Layer_Color=8388736*
%FSLAX44Y44*%
%MOMM*%
G71*
G04*
G04 #@! TF.SameCoordinates,E15A89DD-22D2-431C-B3A5-9EEC7F9F13BC*
G04*
G04*
G04 #@! TF.FilePolarity,Negative*
G04*
G01*
G75*
%ADD25R,0.5000X0.4000*%
%ADD26R,0.7500X1.0000*%
%ADD27R,0.9000X0.8000*%
%ADD30R,1.4000X0.9500*%
%ADD33R,0.9582X1.0061*%
%ADD34R,1.4562X1.3781*%
%ADD35R,1.3781X1.4562*%
%ADD36C,0.1800*%
G04:AMPARAMS|DCode=37|XSize=0.2mm|YSize=0.5mm|CornerRadius=0.05mm|HoleSize=0mm|Usage=FLASHONLY|Rotation=180.000|XOffset=0mm|YOffset=0mm|HoleType=Round|Shape=RoundedRectangle|*
%AMROUNDEDRECTD37*
21,1,0.2000,0.4000,0,0,180.0*
21,1,0.1000,0.5000,0,0,180.0*
1,1,0.1000,-0.0500,0.2000*
1,1,0.1000,0.0500,0.2000*
1,1,0.1000,0.0500,-0.2000*
1,1,0.1000,-0.0500,-0.2000*
%
%ADD37ROUNDEDRECTD37*%
G04:AMPARAMS|DCode=38|XSize=0.5mm|YSize=0.2mm|CornerRadius=0.05mm|HoleSize=0mm|Usage=FLASHONLY|Rotation=180.000|XOffset=0mm|YOffset=0mm|HoleType=Round|Shape=RoundedRectangle|*
%AMROUNDEDRECTD38*
21,1,0.5000,0.1000,0,0,180.0*
21,1,0.4000,0.2000,0,0,180.0*
1,1,0.1000,-0.2000,0.0500*
1,1,0.1000,0.2000,0.0500*
1,1,0.1000,0.2000,-0.0500*
1,1,0.1000,-0.2000,-0.0500*
%
%ADD38ROUNDEDRECTD38*%
G04:AMPARAMS|DCode=39|XSize=0.565mm|YSize=0.2mm|CornerRadius=0.05mm|HoleSize=0mm|Usage=FLASHONLY|Rotation=0.000|XOffset=0mm|YOffset=0mm|HoleType=Round|Shape=RoundedRectangle|*
%AMROUNDEDRECTD39*
21,1,0.5650,0.1000,0,0,0.0*
21,1,0.4650,0.2000,0,0,0.0*
1,1,0.1000,0.2325,-0.0500*
1,1,0.1000,-0.2325,-0.0500*
1,1,0.1000,-0.2325,0.0500*
1,1,0.1000,0.2325,0.0500*
%
%ADD39ROUNDEDRECTD39*%
%ADD40R,1.0000X0.2300*%
%ADD41R,0.8500X0.2300*%
%ADD43R,1.5500X0.6000*%
%ADD52R,0.8000X0.5500*%
G04:AMPARAMS|DCode=53|XSize=1.2196mm|YSize=0.5885mm|CornerRadius=0.2942mm|HoleSize=0mm|Usage=FLASHONLY|Rotation=90.000|XOffset=0mm|YOffset=0mm|HoleType=Round|Shape=RoundedRectangle|*
%AMROUNDEDRECTD53*
21,1,1.2196,0.0000,0,0,90.0*
21,1,0.6311,0.5885,0,0,90.0*
1,1,0.5885,0.0000,0.3156*
1,1,0.5885,0.0000,-0.3156*
1,1,0.5885,0.0000,-0.3156*
1,1,0.5885,0.0000,0.3156*
%
%ADD53ROUNDEDRECTD53*%
%ADD54R,0.5885X1.2196*%
%ADD55R,0.5153X0.4725*%
%ADD56R,0.9051X0.9062*%
%ADD58R,2.7000X0.8000*%
%ADD62R,0.4000X0.5000*%
%ADD63R,0.9500X1.4500*%
%ADD66R,0.2925X0.5561*%
G04:AMPARAMS|DCode=69|XSize=0.5561mm|YSize=0.2925mm|CornerRadius=0.1462mm|HoleSize=0mm|Usage=FLASHONLY|Rotation=270.000|XOffset=0mm|YOffset=0mm|HoleType=Round|Shape=RoundedRectangle|*
%AMROUNDEDRECTD69*
21,1,0.5561,0.0000,0,0,270.0*
21,1,0.2636,0.2925,0,0,270.0*
1,1,0.2925,0.0000,-0.1318*
1,1,0.2925,0.0000,0.1318*
1,1,0.2925,0.0000,0.1318*
1,1,0.2925,0.0000,-0.1318*
%
%ADD69ROUNDEDRECTD69*%
%ADD70R,7.5000X1.8000*%
%ADD71R,0.7000X1.3000*%
%ADD72R,0.9062X0.9051*%
G04:AMPARAMS|DCode=73|XSize=1.9296mm|YSize=0.6121mm|CornerRadius=0.3061mm|HoleSize=0mm|Usage=FLASHONLY|Rotation=180.000|XOffset=0mm|YOffset=0mm|HoleType=Round|Shape=RoundedRectangle|*
%AMROUNDEDRECTD73*
21,1,1.9296,0.0000,0,0,180.0*
21,1,1.3175,0.6121,0,0,180.0*
1,1,0.6121,-0.6588,0.0000*
1,1,0.6121,0.6588,0.0000*
1,1,0.6121,0.6588,0.0000*
1,1,0.6121,-0.6588,0.0000*
%
%ADD73ROUNDEDRECTD73*%
%ADD76R,0.8000X0.9000*%
%ADD77R,0.5200X0.5200*%
%ADD79R,0.6682X0.6725*%
%ADD82R,0.7581X0.8121*%
%ADD83R,0.7121X0.7811*%
%ADD84R,0.8065X1.3082*%
%ADD85R,1.9296X0.6121*%
%ADD86R,0.4725X0.4682*%
%ADD87R,0.7500X0.9000*%
%ADD88R,1.2000X3.7000*%
%ADD90C,0.0000*%
%ADD91R,8.0000X3.4500*%
%ADD92R,21.7000X5.8500*%
%ADD93R,0.9632X1.4532*%
%ADD94R,0.7132X0.6032*%
%ADD95R,1.3532X0.8032*%
%ADD96R,0.7532X0.7532*%
%ADD97R,3.0532X1.6032*%
G04:AMPARAMS|DCode=98|XSize=1.2mm|YSize=3.2mm|CornerRadius=0.048mm|HoleSize=0mm|Usage=FLASHONLY|Rotation=180.000|XOffset=0mm|YOffset=0mm|HoleType=Round|Shape=RoundedRectangle|*
%AMROUNDEDRECTD98*
21,1,1.2000,3.1040,0,0,180.0*
21,1,1.1040,3.2000,0,0,180.0*
1,1,0.0960,-0.5520,1.5520*
1,1,0.0960,0.5520,1.5520*
1,1,0.0960,0.5520,-1.5520*
1,1,0.0960,-0.5520,-1.5520*
%
%ADD98ROUNDEDRECTD98*%
G04:AMPARAMS|DCode=99|XSize=0.565mm|YSize=0.4mm|CornerRadius=0.05mm|HoleSize=0mm|Usage=FLASHONLY|Rotation=0.000|XOffset=0mm|YOffset=0mm|HoleType=Round|Shape=RoundedRectangle|*
%AMROUNDEDRECTD99*
21,1,0.5650,0.3000,0,0,0.0*
21,1,0.4650,0.4000,0,0,0.0*
1,1,0.1000,0.2325,-0.1500*
1,1,0.1000,-0.2325,-0.1500*
1,1,0.1000,-0.2325,0.1500*
1,1,0.1000,0.2325,0.1500*
%
%ADD99ROUNDEDRECTD99*%
%ADD100R,0.9032X0.8532*%
%ADD101R,0.9032X0.4032*%
G04:AMPARAMS|DCode=102|XSize=0.9652mm|YSize=1.4732mm|CornerRadius=0.2921mm|HoleSize=0mm|Usage=FLASHONLY|Rotation=90.000|XOffset=0mm|YOffset=0mm|HoleType=Round|Shape=RoundedRectangle|*
%AMROUNDEDRECTD102*
21,1,0.9652,0.8890,0,0,90.0*
21,1,0.3810,1.4732,0,0,90.0*
1,1,0.5842,0.4445,0.1905*
1,1,0.5842,0.4445,-0.1905*
1,1,0.5842,-0.4445,-0.1905*
1,1,0.5842,-0.4445,0.1905*
%
%ADD102ROUNDEDRECTD102*%
%ADD103R,1.1032X1.1332*%
%ADD104R,1.2532X0.9832*%
%ADD105R,1.3432X2.0332*%
%ADD106R,0.9032X3.5032*%
%ADD107R,1.0632X3.0032*%
%ADD108R,0.9032X1.3032*%
%ADD109C,0.6532*%
%ADD110O,0.4032X1.1532*%
%ADD111O,1.1532X0.4032*%
%ADD112R,0.6532X0.6532*%
%ADD113R,0.6532X0.6532*%
%ADD114R,0.9232X0.9232*%
%ADD115R,0.9144X4.3942*%
%ADD116R,0.8532X0.8532*%
%ADD117R,0.6032X1.7032*%
%ADD118R,0.8532X0.9032*%
G04:AMPARAMS|DCode=119|XSize=0.7532mm|YSize=0.7032mm|CornerRadius=0.1641mm|HoleSize=0mm|Usage=FLASHONLY|Rotation=270.000|XOffset=0mm|YOffset=0mm|HoleType=Round|Shape=RoundedRectangle|*
%AMROUNDEDRECTD119*
21,1,0.7532,0.3750,0,0,270.0*
21,1,0.4250,0.7032,0,0,270.0*
1,1,0.3282,-0.1875,-0.2125*
1,1,0.3282,-0.1875,0.2125*
1,1,0.3282,0.1875,0.2125*
1,1,0.3282,0.1875,-0.2125*
%
%ADD119ROUNDEDRECTD119*%
%ADD120R,2.7100X3.3500*%
%ADD121R,6.4032X6.4032*%
%ADD122R,0.8032X0.7532*%
%ADD123R,1.7000X1.1000*%
%ADD124R,0.9144X3.5032*%
%ADD125O,2.2032X1.1176*%
%ADD126C,1.4112*%
%ADD127C,2.5032*%
%ADD128C,6.5532*%
G04:AMPARAMS|DCode=129|XSize=1.5mm|YSize=2.55mm|CornerRadius=0.75mm|HoleSize=0mm|Usage=FLASHONLY|Rotation=270.000|XOffset=0mm|YOffset=0mm|HoleType=Round|Shape=RoundedRectangle|*
%AMROUNDEDRECTD129*
21,1,1.5000,1.0500,0,0,270.0*
21,1,0.0000,2.5500,0,0,270.0*
1,1,1.5000,-0.5250,0.0000*
1,1,1.5000,-0.5250,0.0000*
1,1,1.5000,0.5250,0.0000*
1,1,1.5000,0.5250,0.0000*
%
%ADD129ROUNDEDRECTD129*%
%ADD130C,0.9032*%
%ADD131C,1.8232*%
%ADD132C,1.7332*%
%ADD133C,1.6012*%
%ADD134O,1.6032X2.1532*%
%ADD135R,1.6012X1.6012*%
%ADD136C,2.6482*%
%ADD137C,3.4532*%
%ADD138C,2.9032*%
%ADD139C,0.5000*%
G36*
X226250Y297500D02*
X226349D01*
X226533Y297424D01*
X226674Y297283D01*
X226750Y297099D01*
Y297000D01*
X226750D01*
Y293000D01*
X226750Y292901D01*
X226674Y292717D01*
X226533Y292576D01*
X226349Y292500D01*
X226250D01*
X225250Y292500D01*
X225151Y292500D01*
X224967Y292576D01*
X224826Y292717D01*
X224750Y292901D01*
X224750Y293000D01*
Y296600D01*
X225650Y297500D01*
X226250Y297500D01*
D02*
G37*
G36*
X223750Y300000D02*
X223849D01*
X224033Y299924D01*
X224174Y299783D01*
X224250Y299599D01*
Y299500D01*
X224250Y298900D01*
X223350Y298000D01*
X219750D01*
Y298000D01*
X219650Y298000D01*
X219467Y298076D01*
X219326Y298217D01*
X219250Y298400D01*
X219250Y298500D01*
X219250Y299500D01*
Y299599D01*
X219326Y299783D01*
X219467Y299924D01*
X219651Y300000D01*
X219750Y300000D01*
X223750Y300000D01*
Y300000D01*
D02*
G37*
G36*
X242750Y296600D02*
Y293000D01*
X242750D01*
X242750Y292901D01*
X242674Y292717D01*
X242533Y292576D01*
X242349Y292500D01*
X242250Y292500D01*
X241250Y292500D01*
X241250Y292500D01*
X241151D01*
X240967Y292576D01*
X240826Y292717D01*
X240750Y292901D01*
X240750Y293000D01*
X240750Y297000D01*
Y297099D01*
X240826Y297283D01*
X240967Y297424D01*
X241150Y297500D01*
X241250D01*
X241850Y297500D01*
X242750Y296600D01*
D02*
G37*
G36*
X247750Y300000D02*
X247849Y300000D01*
X248033Y299924D01*
X248174Y299783D01*
X248250Y299599D01*
Y299500D01*
X248250D01*
X248250Y298500D01*
X248250Y298400D01*
X248174Y298217D01*
X248033Y298076D01*
X247849Y298000D01*
X247750Y298000D01*
X247750Y298000D01*
X244150D01*
X243250Y298900D01*
Y299500D01*
Y299599D01*
X243326Y299783D01*
X243467Y299924D01*
X243650Y300000D01*
X243750D01*
X243750Y300000D01*
X247750Y300000D01*
D02*
G37*
G36*
X219750Y336000D02*
X223350D01*
X224250Y335100D01*
X224250Y334500D01*
Y334401D01*
X224174Y334217D01*
X224033Y334076D01*
X223849Y334000D01*
X223750D01*
Y334000D01*
X219750D01*
X219651Y334000D01*
X219467Y334076D01*
X219326Y334217D01*
X219250Y334401D01*
Y334500D01*
Y334500D01*
X219250Y335500D01*
X219250Y335600D01*
X219326Y335783D01*
X219467Y335924D01*
X219650Y336000D01*
X219750Y336000D01*
D02*
G37*
G36*
X225250Y341500D02*
X226250Y341500D01*
Y341500D01*
X226349D01*
X226533Y341424D01*
X226674Y341283D01*
X226750Y341099D01*
X226750Y341000D01*
Y337000D01*
X226750Y337000D01*
Y336900D01*
X226674Y336717D01*
X226533Y336576D01*
X226349Y336500D01*
X225650D01*
X224750Y337400D01*
Y341000D01*
X224750Y341099D01*
X224826Y341283D01*
X224967Y341424D01*
X225151Y341500D01*
X225250Y341500D01*
D02*
G37*
G36*
X242533Y341424D02*
X242674Y341283D01*
X242750Y341099D01*
X242750Y341000D01*
X242750Y341000D01*
Y337400D01*
X241850Y336500D01*
X241150D01*
X240967Y336576D01*
X240826Y336717D01*
X240750Y336900D01*
Y337000D01*
Y337000D01*
X240750Y341000D01*
X240750Y341099D01*
X240826Y341283D01*
X240967Y341424D01*
X241151Y341500D01*
X241250D01*
X241250Y341500D01*
X242250Y341500D01*
X242349Y341500D01*
X242533Y341424D01*
D02*
G37*
G36*
X248033Y335924D02*
X248174Y335783D01*
X248250Y335600D01*
X248250Y335500D01*
X248250Y334500D01*
X248250Y334500D01*
Y334401D01*
X248174Y334217D01*
X248033Y334076D01*
X247849Y334000D01*
X247750Y334000D01*
X243750D01*
X243750Y334000D01*
X243650D01*
X243467Y334076D01*
X243326Y334217D01*
X243250Y334401D01*
Y334500D01*
Y335100D01*
X244150Y336000D01*
X247750D01*
X247849Y336000D01*
X248033Y335924D01*
D02*
G37*
G54D25*
X358885Y594000D02*
D03*
Y586000D02*
D03*
X366614Y594000D02*
D03*
Y586000D02*
D03*
X402500Y586000D02*
D03*
Y594000D02*
D03*
X395000Y586000D02*
D03*
Y594000D02*
D03*
X464000Y380000D02*
D03*
X360000Y265000D02*
D03*
X464000Y388000D02*
D03*
X360000Y257000D02*
D03*
X379000Y461250D02*
D03*
Y469250D02*
D03*
X370750Y461250D02*
D03*
Y469250D02*
D03*
G54D26*
X926250Y470250D02*
D03*
X911250D02*
D03*
X926250Y454250D02*
D03*
X911250D02*
D03*
G54D27*
X308750Y149750D02*
D03*
Y164750D02*
D03*
G54D30*
X712000Y120750D02*
D03*
Y139250D02*
D03*
X734000Y120750D02*
D03*
Y139250D02*
D03*
X308000Y113750D02*
D03*
Y132250D02*
D03*
G54D33*
X225000Y219261D02*
D03*
Y204739D02*
D03*
X209000Y219261D02*
D03*
Y204739D02*
D03*
G54D34*
X246750Y262609D02*
D03*
Y277891D02*
D03*
X293250Y314859D02*
D03*
Y330141D02*
D03*
G54D35*
X56031Y233500D02*
D03*
X40750D02*
D03*
G54D36*
X221750Y335000D02*
D03*
Y299000D02*
D03*
X245750Y335000D02*
D03*
Y299000D02*
D03*
X225750Y339000D02*
D03*
X241750D02*
D03*
X225750Y295000D02*
D03*
X241750D02*
D03*
G54D37*
X237750D02*
D03*
X233750D02*
D03*
X229750D02*
D03*
Y339000D02*
D03*
X233750D02*
D03*
X237750D02*
D03*
G54D38*
X221750Y303000D02*
D03*
Y307000D02*
D03*
Y311000D02*
D03*
Y315000D02*
D03*
Y319000D02*
D03*
Y323000D02*
D03*
Y327000D02*
D03*
Y331000D02*
D03*
X245750D02*
D03*
Y327000D02*
D03*
Y323000D02*
D03*
Y319000D02*
D03*
Y315000D02*
D03*
Y311000D02*
D03*
Y307000D02*
D03*
Y303000D02*
D03*
G54D39*
X189825Y323000D02*
D03*
X198175D02*
D03*
X189825Y328000D02*
D03*
X198175D02*
D03*
X189825Y308000D02*
D03*
X198175D02*
D03*
X189825Y313000D02*
D03*
X198175D02*
D03*
X189825Y344000D02*
D03*
X198175D02*
D03*
Y349000D02*
D03*
X189825D02*
D03*
X198175Y292000D02*
D03*
X189825D02*
D03*
X198175Y287000D02*
D03*
X189825D02*
D03*
Y364000D02*
D03*
X198175D02*
D03*
Y359000D02*
D03*
X189825D02*
D03*
X198175Y272000D02*
D03*
X189825D02*
D03*
X198175Y277000D02*
D03*
X189825D02*
D03*
G54D40*
X61000Y181000D02*
D03*
Y177000D02*
D03*
Y173000D02*
D03*
Y169000D02*
D03*
Y165000D02*
D03*
Y161000D02*
D03*
Y157000D02*
D03*
Y153000D02*
D03*
Y149000D02*
D03*
G54D41*
X73250Y183000D02*
D03*
Y179000D02*
D03*
Y175000D02*
D03*
Y171000D02*
D03*
Y167000D02*
D03*
Y163000D02*
D03*
Y159000D02*
D03*
Y155000D02*
D03*
Y151000D02*
D03*
Y147000D02*
D03*
G54D43*
X345000Y252700D02*
D03*
Y227300D02*
D03*
Y240000D02*
D03*
X291000Y227300D02*
D03*
Y240000D02*
D03*
Y265400D02*
D03*
Y252700D02*
D03*
X345000Y265400D02*
D03*
G54D52*
X231000Y122500D02*
D03*
Y132000D02*
D03*
Y141500D02*
D03*
X207000D02*
D03*
Y132000D02*
D03*
Y122500D02*
D03*
G54D53*
X740210Y603865D02*
D03*
X759000D02*
D03*
Y583000D02*
D03*
X749605D02*
D03*
G54D54*
X740210D02*
D03*
G54D55*
X751214Y621000D02*
D03*
X758786D02*
D03*
G54D56*
X739994Y558000D02*
D03*
X752006D02*
D03*
X465994Y366000D02*
D03*
X337989Y387500D02*
D03*
X230006Y103000D02*
D03*
X206006Y107000D02*
D03*
X478006Y366000D02*
D03*
X350000Y387500D02*
D03*
X193994Y107000D02*
D03*
X217994Y103000D02*
D03*
G54D58*
X320250Y311500D02*
D03*
Y333500D02*
D03*
G54D62*
X463000Y351000D02*
D03*
X471000D02*
D03*
X312500Y519000D02*
D03*
Y527000D02*
D03*
X304500Y519000D02*
D03*
Y527000D02*
D03*
G54D63*
X291750Y150000D02*
D03*
X272250D02*
D03*
G54D66*
X285500Y131000D02*
D03*
G54D69*
Y111439D02*
D03*
X272500D02*
D03*
Y131000D02*
D03*
X279000Y111439D02*
D03*
Y131000D02*
D03*
G54D70*
X364000Y114000D02*
D03*
Y170000D02*
D03*
G54D71*
X424246Y108769D02*
D03*
Y148769D02*
D03*
Y128769D02*
D03*
X443246Y148769D02*
D03*
Y108769D02*
D03*
Y128769D02*
D03*
X307500Y403000D02*
D03*
Y419000D02*
D03*
X288500Y403000D02*
D03*
Y419000D02*
D03*
G54D72*
X514000Y196512D02*
D03*
Y184500D02*
D03*
G54D73*
X479000Y199700D02*
D03*
Y212400D02*
D03*
X426175Y199700D02*
D03*
X479000Y225100D02*
D03*
X426175Y187000D02*
D03*
Y212400D02*
D03*
Y225100D02*
D03*
G54D76*
X441514Y523776D02*
D03*
X454014Y540276D02*
D03*
X441514D02*
D03*
X454014Y523776D02*
D03*
G54D77*
X446764Y554776D02*
D03*
X446264Y509026D02*
D03*
X229750Y563000D02*
D03*
X221750D02*
D03*
X438764Y554776D02*
D03*
X438264Y509026D02*
D03*
G54D79*
X429022Y247000D02*
D03*
X418979D02*
D03*
G54D82*
X397770Y202000D02*
D03*
X385230D02*
D03*
G54D83*
X369000Y212345D02*
D03*
Y221655D02*
D03*
G54D84*
X288509Y184000D02*
D03*
X271491D02*
D03*
G54D85*
X479000Y187000D02*
D03*
G54D86*
X384000Y223521D02*
D03*
Y215479D02*
D03*
G54D87*
X290000Y435000D02*
D03*
X302000D02*
D03*
G54D88*
X292000Y373000D02*
D03*
X320000D02*
D03*
G54D90*
X1076211Y608600D02*
X1075828Y611138D01*
X1074714Y613451D01*
X1072969Y615332D01*
X1070746Y616615D01*
X1068243Y617187D01*
X1065684Y616995D01*
X1063295Y616057D01*
X1061288Y614457D01*
X1059842Y612336D01*
X1059086Y609883D01*
Y607317D01*
X1059842Y604864D01*
X1061288Y602743D01*
X1063295Y601143D01*
X1065684Y600205D01*
X1068243Y600014D01*
X1070746Y600585D01*
X1072969Y601868D01*
X1074714Y603750D01*
X1075828Y606062D01*
X1076211Y608600D01*
X1101611D02*
X1101228Y611138D01*
X1100114Y613451D01*
X1098369Y615332D01*
X1096146Y616615D01*
X1093643Y617187D01*
X1091084Y616995D01*
X1088695Y616057D01*
X1086688Y614457D01*
X1085242Y612336D01*
X1084486Y609883D01*
Y607317D01*
X1085242Y604864D01*
X1086688Y602743D01*
X1088695Y601143D01*
X1091084Y600205D01*
X1093643Y600014D01*
X1096146Y600585D01*
X1098369Y601868D01*
X1100114Y603750D01*
X1101228Y606062D01*
X1101611Y608600D01*
X1076211Y583200D02*
X1075828Y585738D01*
X1074714Y588050D01*
X1072969Y589932D01*
X1070746Y591215D01*
X1068243Y591786D01*
X1065684Y591595D01*
X1063295Y590657D01*
X1061288Y589057D01*
X1059842Y586936D01*
X1059086Y584483D01*
Y581917D01*
X1059842Y579464D01*
X1061288Y577343D01*
X1063295Y575743D01*
X1065684Y574805D01*
X1068243Y574613D01*
X1070746Y575185D01*
X1072969Y576468D01*
X1074714Y578349D01*
X1075828Y580662D01*
X1076211Y583200D01*
X1101611D02*
X1101228Y585738D01*
X1100114Y588050D01*
X1098369Y589932D01*
X1096146Y591215D01*
X1093643Y591786D01*
X1091084Y591595D01*
X1088695Y590657D01*
X1086688Y589057D01*
X1085242Y586936D01*
X1084486Y584483D01*
Y581917D01*
X1085242Y579464D01*
X1086688Y577343D01*
X1088695Y575743D01*
X1091084Y574805D01*
X1093643Y574613D01*
X1096146Y575185D01*
X1098369Y576468D01*
X1100114Y578349D01*
X1101228Y580662D01*
X1101611Y583200D01*
X1076211Y557800D02*
X1075828Y560338D01*
X1074714Y562650D01*
X1072969Y564532D01*
X1070746Y565815D01*
X1068243Y566386D01*
X1065684Y566195D01*
X1063295Y565257D01*
X1061288Y563657D01*
X1059842Y561536D01*
X1059086Y559083D01*
Y556517D01*
X1059842Y554064D01*
X1061288Y551943D01*
X1063295Y550343D01*
X1065684Y549405D01*
X1068243Y549213D01*
X1070746Y549785D01*
X1072969Y551068D01*
X1074714Y552949D01*
X1075828Y555262D01*
X1076211Y557800D01*
X1101611D02*
X1101228Y560338D01*
X1100114Y562650D01*
X1098369Y564532D01*
X1096146Y565815D01*
X1093643Y566386D01*
X1091084Y566195D01*
X1088695Y565257D01*
X1086688Y563657D01*
X1085242Y561536D01*
X1084486Y559083D01*
Y556517D01*
X1085242Y554064D01*
X1086688Y551943D01*
X1088695Y550343D01*
X1091084Y549405D01*
X1093643Y549213D01*
X1096146Y549785D01*
X1098369Y551068D01*
X1100114Y552949D01*
X1101228Y555262D01*
X1101611Y557800D01*
X1076211Y532400D02*
X1075828Y534938D01*
X1074714Y537251D01*
X1072969Y539132D01*
X1070746Y540415D01*
X1068243Y540987D01*
X1065684Y540795D01*
X1063295Y539857D01*
X1061288Y538257D01*
X1059842Y536136D01*
X1059086Y533683D01*
Y531117D01*
X1059842Y528664D01*
X1061288Y526543D01*
X1063295Y524943D01*
X1065684Y524005D01*
X1068243Y523814D01*
X1070746Y524385D01*
X1072969Y525668D01*
X1074714Y527550D01*
X1075828Y529862D01*
X1076211Y532400D01*
X1101611D02*
X1101228Y534938D01*
X1100114Y537251D01*
X1098369Y539132D01*
X1096146Y540415D01*
X1093643Y540987D01*
X1091084Y540795D01*
X1088695Y539857D01*
X1086688Y538257D01*
X1085242Y536136D01*
X1084486Y533683D01*
Y531117D01*
X1085242Y528664D01*
X1086688Y526543D01*
X1088695Y524943D01*
X1091084Y524005D01*
X1093643Y523814D01*
X1096146Y524385D01*
X1098369Y525668D01*
X1100114Y527550D01*
X1101228Y529862D01*
X1101611Y532400D01*
X1076211Y507000D02*
X1075828Y509538D01*
X1074714Y511851D01*
X1072969Y513732D01*
X1070746Y515015D01*
X1068243Y515587D01*
X1065684Y515395D01*
X1063295Y514457D01*
X1061288Y512857D01*
X1059842Y510736D01*
X1059086Y508283D01*
Y505717D01*
X1059842Y503264D01*
X1061288Y501143D01*
X1063295Y499543D01*
X1065684Y498605D01*
X1068243Y498414D01*
X1070746Y498985D01*
X1072969Y500268D01*
X1074714Y502150D01*
X1075828Y504462D01*
X1076211Y507000D01*
X1101611D02*
X1101228Y509538D01*
X1100114Y511851D01*
X1098369Y513732D01*
X1096146Y515015D01*
X1093643Y515587D01*
X1091084Y515395D01*
X1088695Y514457D01*
X1086688Y512857D01*
X1085242Y510736D01*
X1084486Y508283D01*
Y505717D01*
X1085242Y503264D01*
X1086688Y501143D01*
X1088695Y499543D01*
X1091084Y498605D01*
X1093643Y498414D01*
X1096146Y498985D01*
X1098369Y500268D01*
X1100114Y502150D01*
X1101228Y504462D01*
X1101611Y507000D01*
X1076211Y481600D02*
X1075828Y484138D01*
X1074714Y486451D01*
X1072969Y488332D01*
X1070746Y489615D01*
X1068243Y490187D01*
X1065684Y489995D01*
X1063295Y489057D01*
X1061288Y487457D01*
X1059842Y485336D01*
X1059086Y482883D01*
Y480317D01*
X1059842Y477864D01*
X1061288Y475743D01*
X1063295Y474143D01*
X1065684Y473205D01*
X1068243Y473013D01*
X1070746Y473585D01*
X1072969Y474868D01*
X1074714Y476749D01*
X1075828Y479062D01*
X1076211Y481600D01*
X1101611D02*
X1101228Y484138D01*
X1100114Y486451D01*
X1098369Y488332D01*
X1096146Y489615D01*
X1093643Y490187D01*
X1091084Y489995D01*
X1088695Y489057D01*
X1086688Y487457D01*
X1085242Y485336D01*
X1084486Y482883D01*
Y480317D01*
X1085242Y477864D01*
X1086688Y475743D01*
X1088695Y474143D01*
X1091084Y473205D01*
X1093643Y473013D01*
X1096146Y473585D01*
X1098369Y474868D01*
X1100114Y476749D01*
X1101228Y479062D01*
X1101611Y481600D01*
X1076211Y456200D02*
X1075828Y458738D01*
X1074714Y461050D01*
X1072969Y462932D01*
X1070746Y464215D01*
X1068243Y464786D01*
X1065684Y464595D01*
X1063295Y463657D01*
X1061288Y462057D01*
X1059842Y459936D01*
X1059086Y457483D01*
Y454917D01*
X1059842Y452464D01*
X1061288Y450343D01*
X1063295Y448743D01*
X1065684Y447805D01*
X1068243Y447613D01*
X1070746Y448185D01*
X1072969Y449468D01*
X1074714Y451349D01*
X1075828Y453662D01*
X1076211Y456200D01*
X1101611D02*
X1101228Y458738D01*
X1100114Y461050D01*
X1098369Y462932D01*
X1096146Y464215D01*
X1093643Y464786D01*
X1091084Y464595D01*
X1088695Y463657D01*
X1086688Y462057D01*
X1085242Y459936D01*
X1084486Y457483D01*
Y454917D01*
X1085242Y452464D01*
X1086688Y450343D01*
X1088695Y448743D01*
X1091084Y447805D01*
X1093643Y447613D01*
X1096146Y448185D01*
X1098369Y449468D01*
X1100114Y451349D01*
X1101228Y453662D01*
X1101611Y456200D01*
X1076211Y430800D02*
X1075828Y433338D01*
X1074714Y435650D01*
X1072969Y437532D01*
X1070746Y438815D01*
X1068243Y439386D01*
X1065684Y439195D01*
X1063295Y438257D01*
X1061288Y436657D01*
X1059842Y434536D01*
X1059086Y432083D01*
Y429517D01*
X1059842Y427064D01*
X1061288Y424943D01*
X1063295Y423343D01*
X1065684Y422405D01*
X1068243Y422214D01*
X1070746Y422785D01*
X1072969Y424068D01*
X1074714Y425950D01*
X1075828Y428262D01*
X1076211Y430800D01*
X1101611D02*
X1101228Y433338D01*
X1100114Y435650D01*
X1098369Y437532D01*
X1096146Y438815D01*
X1093643Y439386D01*
X1091084Y439195D01*
X1088695Y438257D01*
X1086688Y436657D01*
X1085242Y434536D01*
X1084486Y432083D01*
Y429517D01*
X1085242Y427064D01*
X1086688Y424943D01*
X1088695Y423343D01*
X1091084Y422405D01*
X1093643Y422214D01*
X1096146Y422785D01*
X1098369Y424068D01*
X1100114Y425950D01*
X1101228Y428262D01*
X1101611Y430800D01*
X1076211Y405400D02*
X1075828Y407938D01*
X1074714Y410251D01*
X1072969Y412132D01*
X1070746Y413415D01*
X1068243Y413987D01*
X1065684Y413795D01*
X1063295Y412857D01*
X1061288Y411257D01*
X1059842Y409136D01*
X1059086Y406683D01*
Y404117D01*
X1059842Y401664D01*
X1061288Y399543D01*
X1063295Y397943D01*
X1065684Y397005D01*
X1068243Y396814D01*
X1070746Y397385D01*
X1072969Y398668D01*
X1074714Y400550D01*
X1075828Y402862D01*
X1076211Y405400D01*
X1101611D02*
X1101228Y407938D01*
X1100114Y410251D01*
X1098369Y412132D01*
X1096146Y413415D01*
X1093643Y413987D01*
X1091084Y413795D01*
X1088695Y412857D01*
X1086688Y411257D01*
X1085242Y409136D01*
X1084486Y406683D01*
Y404117D01*
X1085242Y401664D01*
X1086688Y399543D01*
X1088695Y397943D01*
X1091084Y397005D01*
X1093643Y396814D01*
X1096146Y397385D01*
X1098369Y398668D01*
X1100114Y400550D01*
X1101228Y402862D01*
X1101611Y405400D01*
X1076211Y380000D02*
X1075828Y382538D01*
X1074714Y384851D01*
X1072969Y386732D01*
X1070746Y388015D01*
X1068243Y388587D01*
X1065684Y388395D01*
X1063295Y387457D01*
X1061288Y385857D01*
X1059842Y383736D01*
X1059086Y381283D01*
Y378717D01*
X1059842Y376264D01*
X1061288Y374143D01*
X1063295Y372543D01*
X1065684Y371605D01*
X1068243Y371413D01*
X1070746Y371985D01*
X1072969Y373268D01*
X1074714Y375149D01*
X1075828Y377462D01*
X1076211Y380000D01*
X1101611D02*
X1101228Y382538D01*
X1100114Y384851D01*
X1098369Y386732D01*
X1096146Y388015D01*
X1093643Y388587D01*
X1091084Y388395D01*
X1088695Y387457D01*
X1086688Y385857D01*
X1085242Y383736D01*
X1084486Y381283D01*
Y378717D01*
X1085242Y376264D01*
X1086688Y374143D01*
X1088695Y372543D01*
X1091084Y371605D01*
X1093643Y371413D01*
X1096146Y371985D01*
X1098369Y373268D01*
X1100114Y375149D01*
X1101228Y377462D01*
X1101611Y380000D01*
X1076211Y354600D02*
X1075828Y357138D01*
X1074714Y359450D01*
X1072969Y361332D01*
X1070746Y362615D01*
X1068243Y363186D01*
X1065684Y362995D01*
X1063295Y362057D01*
X1061288Y360457D01*
X1059842Y358336D01*
X1059086Y355883D01*
Y353317D01*
X1059842Y350864D01*
X1061288Y348743D01*
X1063295Y347143D01*
X1065684Y346205D01*
X1068243Y346013D01*
X1070746Y346585D01*
X1072969Y347868D01*
X1074714Y349749D01*
X1075828Y352062D01*
X1076211Y354600D01*
X1101611D02*
X1101228Y357138D01*
X1100114Y359450D01*
X1098369Y361332D01*
X1096146Y362615D01*
X1093643Y363186D01*
X1091084Y362995D01*
X1088695Y362057D01*
X1086688Y360457D01*
X1085242Y358336D01*
X1084486Y355883D01*
Y353317D01*
X1085242Y350864D01*
X1086688Y348743D01*
X1088695Y347143D01*
X1091084Y346205D01*
X1093643Y346013D01*
X1096146Y346585D01*
X1098369Y347868D01*
X1100114Y349749D01*
X1101228Y352062D01*
X1101611Y354600D01*
X1076211Y329200D02*
X1075828Y331738D01*
X1074714Y334050D01*
X1072969Y335932D01*
X1070746Y337215D01*
X1068243Y337786D01*
X1065684Y337595D01*
X1063295Y336657D01*
X1061288Y335057D01*
X1059842Y332936D01*
X1059086Y330483D01*
Y327917D01*
X1059842Y325464D01*
X1061288Y323343D01*
X1063295Y321743D01*
X1065684Y320805D01*
X1068243Y320614D01*
X1070746Y321185D01*
X1072969Y322468D01*
X1074714Y324350D01*
X1075828Y326662D01*
X1076211Y329200D01*
X1101611D02*
X1101228Y331738D01*
X1100114Y334050D01*
X1098369Y335932D01*
X1096146Y337215D01*
X1093643Y337786D01*
X1091084Y337595D01*
X1088695Y336657D01*
X1086688Y335057D01*
X1085242Y332936D01*
X1084486Y330483D01*
Y327917D01*
X1085242Y325464D01*
X1086688Y323343D01*
X1088695Y321743D01*
X1091084Y320805D01*
X1093643Y320614D01*
X1096146Y321185D01*
X1098369Y322468D01*
X1100114Y324350D01*
X1101228Y326662D01*
X1101611Y329200D01*
X1076211Y303800D02*
X1075828Y306338D01*
X1074714Y308650D01*
X1072969Y310532D01*
X1070746Y311815D01*
X1068243Y312386D01*
X1065684Y312195D01*
X1063295Y311257D01*
X1061288Y309657D01*
X1059842Y307536D01*
X1059086Y305083D01*
Y302517D01*
X1059842Y300064D01*
X1061288Y297943D01*
X1063295Y296343D01*
X1065684Y295405D01*
X1068243Y295214D01*
X1070746Y295785D01*
X1072969Y297068D01*
X1074714Y298950D01*
X1075828Y301262D01*
X1076211Y303800D01*
X1101611D02*
X1101228Y306338D01*
X1100114Y308650D01*
X1098369Y310532D01*
X1096146Y311815D01*
X1093643Y312386D01*
X1091084Y312195D01*
X1088695Y311257D01*
X1086688Y309657D01*
X1085242Y307536D01*
X1084486Y305083D01*
Y302517D01*
X1085242Y300064D01*
X1086688Y297943D01*
X1088695Y296343D01*
X1091084Y295405D01*
X1093643Y295214D01*
X1096146Y295785D01*
X1098369Y297068D01*
X1100114Y298950D01*
X1101228Y301262D01*
X1101611Y303800D01*
X1076211Y278400D02*
X1075828Y280938D01*
X1074714Y283251D01*
X1072969Y285132D01*
X1070746Y286415D01*
X1068243Y286987D01*
X1065684Y286795D01*
X1063295Y285857D01*
X1061288Y284257D01*
X1059842Y282136D01*
X1059086Y279683D01*
Y277117D01*
X1059842Y274664D01*
X1061288Y272543D01*
X1063295Y270943D01*
X1065684Y270005D01*
X1068243Y269813D01*
X1070746Y270385D01*
X1072969Y271668D01*
X1074714Y273549D01*
X1075828Y275862D01*
X1076211Y278400D01*
X1101611D02*
X1101228Y280938D01*
X1100114Y283251D01*
X1098369Y285132D01*
X1096146Y286415D01*
X1093643Y286987D01*
X1091084Y286795D01*
X1088695Y285857D01*
X1086688Y284257D01*
X1085242Y282136D01*
X1084486Y279683D01*
Y277117D01*
X1085242Y274664D01*
X1086688Y272543D01*
X1088695Y270943D01*
X1091084Y270005D01*
X1093643Y269813D01*
X1096146Y270385D01*
X1098369Y271668D01*
X1100114Y273549D01*
X1101228Y275862D01*
X1101611Y278400D01*
X1076211Y253000D02*
X1075828Y255538D01*
X1074714Y257850D01*
X1072969Y259732D01*
X1070746Y261015D01*
X1068243Y261586D01*
X1065684Y261395D01*
X1063295Y260457D01*
X1061288Y258857D01*
X1059842Y256736D01*
X1059086Y254283D01*
Y251717D01*
X1059842Y249264D01*
X1061288Y247143D01*
X1063295Y245543D01*
X1065684Y244605D01*
X1068243Y244414D01*
X1070746Y244985D01*
X1072969Y246268D01*
X1074714Y248150D01*
X1075828Y250462D01*
X1076211Y253000D01*
X1101611D02*
X1101228Y255538D01*
X1100114Y257850D01*
X1098369Y259732D01*
X1096146Y261015D01*
X1093643Y261586D01*
X1091084Y261395D01*
X1088695Y260457D01*
X1086688Y258857D01*
X1085242Y256736D01*
X1084486Y254283D01*
Y251717D01*
X1085242Y249264D01*
X1086688Y247143D01*
X1088695Y245543D01*
X1091084Y244605D01*
X1093643Y244414D01*
X1096146Y244985D01*
X1098369Y246268D01*
X1100114Y248150D01*
X1101228Y250462D01*
X1101611Y253000D01*
X1076211Y227600D02*
X1075828Y230138D01*
X1074714Y232451D01*
X1072969Y234332D01*
X1070746Y235615D01*
X1068243Y236187D01*
X1065684Y235995D01*
X1063295Y235057D01*
X1061288Y233457D01*
X1059842Y231336D01*
X1059086Y228883D01*
Y226317D01*
X1059842Y223864D01*
X1061288Y221743D01*
X1063295Y220143D01*
X1065684Y219205D01*
X1068243Y219014D01*
X1070746Y219585D01*
X1072969Y220868D01*
X1074714Y222750D01*
X1075828Y225062D01*
X1076211Y227600D01*
X1101611D02*
X1101228Y230138D01*
X1100114Y232451D01*
X1098369Y234332D01*
X1096146Y235615D01*
X1093643Y236187D01*
X1091084Y235995D01*
X1088695Y235057D01*
X1086688Y233457D01*
X1085242Y231336D01*
X1084486Y228883D01*
Y226317D01*
X1085242Y223864D01*
X1086688Y221743D01*
X1088695Y220143D01*
X1091084Y219205D01*
X1093643Y219014D01*
X1096146Y219585D01*
X1098369Y220868D01*
X1100114Y222750D01*
X1101228Y225062D01*
X1101611Y227600D01*
X1076211Y202200D02*
X1075828Y204738D01*
X1074714Y207050D01*
X1072969Y208932D01*
X1070746Y210215D01*
X1068243Y210786D01*
X1065684Y210595D01*
X1063295Y209657D01*
X1061288Y208057D01*
X1059842Y205936D01*
X1059086Y203483D01*
Y200917D01*
X1059842Y198464D01*
X1061288Y196343D01*
X1063295Y194743D01*
X1065684Y193805D01*
X1068243Y193613D01*
X1070746Y194185D01*
X1072969Y195468D01*
X1074714Y197349D01*
X1075828Y199662D01*
X1076211Y202200D01*
X1101611D02*
X1101228Y204738D01*
X1100114Y207050D01*
X1098369Y208932D01*
X1096146Y210215D01*
X1093643Y210786D01*
X1091084Y210595D01*
X1088695Y209657D01*
X1086688Y208057D01*
X1085242Y205936D01*
X1084486Y203483D01*
Y200917D01*
X1085242Y198464D01*
X1086688Y196343D01*
X1088695Y194743D01*
X1091084Y193805D01*
X1093643Y193613D01*
X1096146Y194185D01*
X1098369Y195468D01*
X1100114Y197349D01*
X1101228Y199662D01*
X1101611Y202200D01*
X1076211Y176800D02*
X1075828Y179338D01*
X1074714Y181651D01*
X1072969Y183532D01*
X1070746Y184815D01*
X1068243Y185387D01*
X1065684Y185195D01*
X1063295Y184257D01*
X1061288Y182657D01*
X1059842Y180536D01*
X1059086Y178083D01*
Y175517D01*
X1059842Y173064D01*
X1061288Y170943D01*
X1063295Y169343D01*
X1065684Y168405D01*
X1068243Y168214D01*
X1070746Y168785D01*
X1072969Y170068D01*
X1074714Y171950D01*
X1075828Y174262D01*
X1076211Y176800D01*
X1101611D02*
X1101228Y179338D01*
X1100114Y181651D01*
X1098369Y183532D01*
X1096146Y184815D01*
X1093643Y185387D01*
X1091084Y185195D01*
X1088695Y184257D01*
X1086688Y182657D01*
X1085242Y180536D01*
X1084486Y178083D01*
Y175517D01*
X1085242Y173064D01*
X1086688Y170943D01*
X1088695Y169343D01*
X1091084Y168405D01*
X1093643Y168214D01*
X1096146Y168785D01*
X1098369Y170068D01*
X1100114Y171950D01*
X1101228Y174262D01*
X1101611Y176800D01*
X1076211Y151400D02*
X1075828Y153938D01*
X1074714Y156250D01*
X1072969Y158132D01*
X1070746Y159415D01*
X1068243Y159986D01*
X1065684Y159795D01*
X1063295Y158857D01*
X1061288Y157257D01*
X1059842Y155136D01*
X1059086Y152683D01*
Y150117D01*
X1059842Y147664D01*
X1061288Y145543D01*
X1063295Y143943D01*
X1065684Y143005D01*
X1068243Y142814D01*
X1070746Y143385D01*
X1072969Y144668D01*
X1074714Y146550D01*
X1075828Y148862D01*
X1076211Y151400D01*
X1101611D02*
X1101228Y153938D01*
X1100114Y156250D01*
X1098369Y158132D01*
X1096146Y159415D01*
X1093643Y159986D01*
X1091084Y159795D01*
X1088695Y158857D01*
X1086688Y157257D01*
X1085242Y155136D01*
X1084486Y152683D01*
Y150117D01*
X1085242Y147664D01*
X1086688Y145543D01*
X1088695Y143943D01*
X1091084Y143005D01*
X1093643Y142814D01*
X1096146Y143385D01*
X1098369Y144668D01*
X1100114Y146550D01*
X1101228Y148862D01*
X1101611Y151400D01*
X1076211Y126000D02*
X1075828Y128538D01*
X1074714Y130850D01*
X1072969Y132732D01*
X1070746Y134015D01*
X1068243Y134586D01*
X1065684Y134395D01*
X1063295Y133457D01*
X1061288Y131857D01*
X1059842Y129736D01*
X1059086Y127283D01*
Y124717D01*
X1059842Y122264D01*
X1061288Y120143D01*
X1063295Y118543D01*
X1065684Y117605D01*
X1068243Y117414D01*
X1070746Y117985D01*
X1072969Y119268D01*
X1074714Y121150D01*
X1075828Y123462D01*
X1076211Y126000D01*
X1101611D02*
X1101228Y128538D01*
X1100114Y130850D01*
X1098369Y132732D01*
X1096146Y134015D01*
X1093643Y134586D01*
X1091084Y134395D01*
X1088695Y133457D01*
X1086688Y131857D01*
X1085242Y129736D01*
X1084486Y127283D01*
Y124717D01*
X1085242Y122264D01*
X1086688Y120143D01*
X1088695Y118543D01*
X1091084Y117605D01*
X1093643Y117414D01*
X1096146Y117985D01*
X1098369Y119268D01*
X1100114Y121150D01*
X1101228Y123462D01*
X1101611Y126000D01*
G54D91*
X373500Y17250D02*
D03*
G54D92*
X552500Y-16750D02*
D03*
G54D93*
X866450Y107250D02*
D03*
X853750D02*
D03*
X841050D02*
D03*
X828350D02*
D03*
X815650D02*
D03*
X802950D02*
D03*
X790250D02*
D03*
X777550D02*
D03*
Y168750D02*
D03*
X790250D02*
D03*
X802950D02*
D03*
X815650D02*
D03*
X828350D02*
D03*
X841050D02*
D03*
X853750D02*
D03*
X866450D02*
D03*
G54D94*
X254500Y156000D02*
D03*
X241500Y161000D02*
D03*
X254500Y166000D02*
D03*
G54D95*
X737000Y157500D02*
D03*
Y167000D02*
D03*
Y176500D02*
D03*
X711000D02*
D03*
Y157500D02*
D03*
X350500Y400500D02*
D03*
Y410000D02*
D03*
X324500D02*
D03*
X350500Y419500D02*
D03*
X324500Y400500D02*
D03*
Y419500D02*
D03*
G54D96*
X229750Y281500D02*
D03*
Y272500D02*
D03*
G54D97*
X179500Y136000D02*
D03*
X122500D02*
D03*
Y205000D02*
D03*
X179500D02*
D03*
G54D98*
X233750Y317000D02*
D03*
G54D99*
X198175Y318000D02*
D03*
X189825D02*
D03*
Y354000D02*
D03*
X198175D02*
D03*
Y282000D02*
D03*
X189825D02*
D03*
G54D100*
X228750Y158000D02*
D03*
X219250D02*
D03*
X327250Y445000D02*
D03*
Y435000D02*
D03*
X317750D02*
D03*
Y445000D02*
D03*
G54D101*
X1008115Y291591D02*
D03*
X977315D02*
D03*
X1008115Y295591D02*
D03*
X977315D02*
D03*
X1008115Y299591D02*
D03*
X977315D02*
D03*
X1008115Y303591D02*
D03*
X977315D02*
D03*
X1008115Y307591D02*
D03*
X977315D02*
D03*
X1008115Y311591D02*
D03*
X977315D02*
D03*
X1008115Y315591D02*
D03*
X977315D02*
D03*
X1008115Y319591D02*
D03*
X977315D02*
D03*
X1008115Y323591D02*
D03*
X977315D02*
D03*
X1008115Y327591D02*
D03*
X977315D02*
D03*
X1008115Y331591D02*
D03*
X977315D02*
D03*
X1008115Y335591D02*
D03*
X977315D02*
D03*
X1008115Y339591D02*
D03*
X977315D02*
D03*
X1008115Y343591D02*
D03*
X977315D02*
D03*
X1008115Y347591D02*
D03*
X977315D02*
D03*
X1008115Y351591D02*
D03*
X977315D02*
D03*
X1008115Y355591D02*
D03*
X977315D02*
D03*
X1008115Y359591D02*
D03*
X977315D02*
D03*
X1008115Y363591D02*
D03*
X977315D02*
D03*
X1008115Y367591D02*
D03*
X977315D02*
D03*
X1008115Y371591D02*
D03*
X977315D02*
D03*
X1008115Y375591D02*
D03*
X977315D02*
D03*
X1008115Y379591D02*
D03*
X977315D02*
D03*
X1008115Y383591D02*
D03*
X977315D02*
D03*
X1008115Y387591D02*
D03*
X977315D02*
D03*
X1008115Y391591D02*
D03*
X977315D02*
D03*
X1008115Y395591D02*
D03*
X977315D02*
D03*
X1008115Y399591D02*
D03*
X977315D02*
D03*
X1008115Y403591D02*
D03*
X977315D02*
D03*
X1008115Y407591D02*
D03*
X977315D02*
D03*
X1008115Y411591D02*
D03*
X977315D02*
D03*
X1008115Y415591D02*
D03*
X977315D02*
D03*
X1008115Y419591D02*
D03*
X977315D02*
D03*
X1008115Y423591D02*
D03*
X977315D02*
D03*
X1008115Y427591D02*
D03*
X977315D02*
D03*
X1008115Y431591D02*
D03*
X977315D02*
D03*
X1008115Y435591D02*
D03*
X977315D02*
D03*
X1008115Y439591D02*
D03*
X977315D02*
D03*
X1008115Y443591D02*
D03*
X977315D02*
D03*
X1008115Y447591D02*
D03*
X977315D02*
D03*
X1008115Y451591D02*
D03*
X977315D02*
D03*
X1008115Y455591D02*
D03*
X977315D02*
D03*
X1008115Y459591D02*
D03*
X977315D02*
D03*
X1008115Y463591D02*
D03*
X977315D02*
D03*
X1008115Y467591D02*
D03*
X977315D02*
D03*
X1008115Y471591D02*
D03*
X977315D02*
D03*
X1008115Y475591D02*
D03*
X977315D02*
D03*
X1008115Y479591D02*
D03*
X977315D02*
D03*
X1008115Y483591D02*
D03*
X977315D02*
D03*
X1008115Y487591D02*
D03*
X977315D02*
D03*
X668915Y291591D02*
D03*
X638115D02*
D03*
X668915Y295591D02*
D03*
X638115D02*
D03*
X668915Y299591D02*
D03*
X638115D02*
D03*
X668915Y303591D02*
D03*
X638115D02*
D03*
X668915Y307591D02*
D03*
X638115D02*
D03*
X668915Y311591D02*
D03*
X638115D02*
D03*
X668915Y315591D02*
D03*
X638115D02*
D03*
X668915Y319591D02*
D03*
X638115D02*
D03*
X668915Y323591D02*
D03*
X638115D02*
D03*
X668915Y327591D02*
D03*
X638115D02*
D03*
X668915Y331591D02*
D03*
X638115D02*
D03*
X668915Y335591D02*
D03*
X638115D02*
D03*
X668915Y339591D02*
D03*
X638115D02*
D03*
X668915Y343591D02*
D03*
X638115D02*
D03*
X668915Y347591D02*
D03*
X638115D02*
D03*
X668915Y351591D02*
D03*
X638115D02*
D03*
X668915Y355591D02*
D03*
X638115D02*
D03*
X668915Y359591D02*
D03*
X638115D02*
D03*
X668915Y363591D02*
D03*
X638115D02*
D03*
X668915Y367591D02*
D03*
X638115D02*
D03*
X668915Y371591D02*
D03*
X638115D02*
D03*
X668915Y375591D02*
D03*
X638115D02*
D03*
X668915Y379591D02*
D03*
X638115D02*
D03*
X668915Y383591D02*
D03*
X638115D02*
D03*
X668915Y387591D02*
D03*
X638115D02*
D03*
X668915Y391591D02*
D03*
X638115D02*
D03*
X668915Y395591D02*
D03*
X638115D02*
D03*
X668915Y399591D02*
D03*
X638115D02*
D03*
X668915Y403591D02*
D03*
X638115D02*
D03*
X668915Y407591D02*
D03*
X638115D02*
D03*
X668915Y411591D02*
D03*
X638115D02*
D03*
X668915Y415591D02*
D03*
X638115D02*
D03*
X668915Y419591D02*
D03*
X638115D02*
D03*
X668915Y423591D02*
D03*
X638115D02*
D03*
X668915Y427591D02*
D03*
X638115D02*
D03*
X668915Y431591D02*
D03*
X638115D02*
D03*
X668915Y435591D02*
D03*
X638115D02*
D03*
X668915Y439591D02*
D03*
X638115D02*
D03*
X668915Y443591D02*
D03*
X638115D02*
D03*
X668915Y447591D02*
D03*
X638115D02*
D03*
X668915Y451591D02*
D03*
X638115D02*
D03*
X668915Y455591D02*
D03*
X638115D02*
D03*
X668915Y459591D02*
D03*
X638115D02*
D03*
X668915Y463591D02*
D03*
X638115D02*
D03*
X668915Y467591D02*
D03*
X638115D02*
D03*
X668915Y471591D02*
D03*
X638115D02*
D03*
X668915Y475591D02*
D03*
X638115D02*
D03*
X668915Y479591D02*
D03*
X638115D02*
D03*
X668915Y483591D02*
D03*
X638115D02*
D03*
X668915Y487591D02*
D03*
X638115D02*
D03*
G54D102*
X574000Y234000D02*
D03*
Y244000D02*
D03*
Y256000D02*
D03*
Y266000D02*
D03*
G54D103*
X795100Y509350D02*
D03*
G54D104*
X837750Y508600D02*
D03*
G54D105*
X774200Y633850D02*
D03*
G54D106*
X772000Y521200D02*
D03*
X901600D02*
D03*
G54D107*
X900800Y629000D02*
D03*
G54D108*
X813000Y634000D02*
D03*
X824000D02*
D03*
X835000D02*
D03*
X846000D02*
D03*
X857000D02*
D03*
X868000D02*
D03*
X879000D02*
D03*
X890000D02*
D03*
G54D109*
X381000Y337000D02*
D03*
X397000Y345000D02*
D03*
X421000Y337000D02*
D03*
X389000Y321000D02*
D03*
X373000Y369000D02*
D03*
Y353000D02*
D03*
X381000D02*
D03*
X373000Y361000D02*
D03*
X429000Y337000D02*
D03*
X437000Y345000D02*
D03*
X429000D02*
D03*
X445000Y353000D02*
D03*
X381000Y329000D02*
D03*
X373000D02*
D03*
X445000Y345000D02*
D03*
Y313000D02*
D03*
X421000Y369000D02*
D03*
X389000D02*
D03*
X397000Y353000D02*
D03*
X389000Y361000D02*
D03*
X421000Y345000D02*
D03*
X405000Y345000D02*
D03*
X421000Y329000D02*
D03*
X397000Y321000D02*
D03*
X389000Y345000D02*
D03*
X389000Y329000D02*
D03*
X421000Y313000D02*
D03*
X413000Y313000D02*
D03*
X413000Y305000D02*
D03*
X389000Y313000D02*
D03*
X397000Y305000D02*
D03*
X381000Y345000D02*
D03*
X373000D02*
D03*
Y337000D02*
D03*
X365000Y345000D02*
D03*
Y313000D02*
D03*
X365000Y337000D02*
D03*
X405000Y297000D02*
D03*
X421000Y289000D02*
D03*
X405000Y289000D02*
D03*
X389000Y297000D02*
D03*
Y289000D02*
D03*
X421000Y305000D02*
D03*
X389000Y337000D02*
D03*
X413000Y345000D02*
D03*
X421000Y321000D02*
D03*
X365000Y361000D02*
D03*
Y353000D02*
D03*
X445000Y305000D02*
D03*
X429000Y313000D02*
D03*
X437000D02*
D03*
X405000Y305000D02*
D03*
X437000Y361000D02*
D03*
X429000D02*
D03*
X381000D02*
D03*
X429000Y369000D02*
D03*
X421000Y353000D02*
D03*
X413000Y369000D02*
D03*
X405000Y361000D02*
D03*
Y353000D02*
D03*
X397000Y369000D02*
D03*
X365000Y329000D02*
D03*
X429000Y321000D02*
D03*
X397000Y361000D02*
D03*
X365000Y297000D02*
D03*
X381000Y305000D02*
D03*
X373000Y297000D02*
D03*
Y289000D02*
D03*
X381000Y297000D02*
D03*
X389000Y305000D02*
D03*
X381000Y289000D02*
D03*
X437000D02*
D03*
Y297000D02*
D03*
X429000Y305000D02*
D03*
X445000Y297000D02*
D03*
X437000Y305000D02*
D03*
X445000Y321000D02*
D03*
X413000Y361000D02*
D03*
X421000D02*
D03*
X429000Y353000D02*
D03*
X437000D02*
D03*
X405000Y313000D02*
D03*
X397000D02*
D03*
X429000Y297000D02*
D03*
X397000D02*
D03*
X397000Y289000D02*
D03*
X413000Y297000D02*
D03*
X413000Y289000D02*
D03*
X389000Y353000D02*
D03*
X421000Y297000D02*
D03*
X445000Y369000D02*
D03*
X445000Y361000D02*
D03*
X445000Y337000D02*
D03*
Y329000D02*
D03*
Y289000D02*
D03*
X437000Y369000D02*
D03*
Y337000D02*
D03*
X437000Y329000D02*
D03*
X437000Y321000D02*
D03*
X429000Y329000D02*
D03*
X429000Y289000D02*
D03*
X413000Y353000D02*
D03*
X405000Y369000D02*
D03*
X381000Y369000D02*
D03*
Y321000D02*
D03*
Y313000D02*
D03*
X373000Y321000D02*
D03*
Y313000D02*
D03*
Y305000D02*
D03*
X365000Y369000D02*
D03*
Y321000D02*
D03*
X365000Y305000D02*
D03*
X365000Y289000D02*
D03*
G54D110*
X392750Y567750D02*
D03*
X368750D02*
D03*
X380750Y490250D02*
D03*
X356750Y567750D02*
D03*
X352750Y490250D02*
D03*
X348750D02*
D03*
X364750D02*
D03*
X360750D02*
D03*
X388750D02*
D03*
X380750Y567750D02*
D03*
X392750Y490250D02*
D03*
X344750Y567750D02*
D03*
X356750Y490250D02*
D03*
X372750Y567750D02*
D03*
X376750D02*
D03*
X340750D02*
D03*
X384750D02*
D03*
X388750D02*
D03*
X348750D02*
D03*
X352750D02*
D03*
X396750D02*
D03*
X400750D02*
D03*
X360750D02*
D03*
X364750D02*
D03*
X384750Y490250D02*
D03*
X340750D02*
D03*
X372750D02*
D03*
X376750D02*
D03*
X336750D02*
D03*
X344750D02*
D03*
X368750D02*
D03*
X396750D02*
D03*
X400750D02*
D03*
X336750Y567750D02*
D03*
G54D111*
X407500Y537000D02*
D03*
X330000Y529000D02*
D03*
Y553000D02*
D03*
Y517000D02*
D03*
X407500Y549000D02*
D03*
Y545000D02*
D03*
Y557000D02*
D03*
Y553000D02*
D03*
Y541000D02*
D03*
X330000Y505000D02*
D03*
Y541000D02*
D03*
X407500Y521000D02*
D03*
Y529000D02*
D03*
Y513000D02*
D03*
Y505000D02*
D03*
Y533000D02*
D03*
X330000Y561000D02*
D03*
Y557000D02*
D03*
Y549000D02*
D03*
Y545000D02*
D03*
Y537000D02*
D03*
Y533000D02*
D03*
Y525000D02*
D03*
Y521000D02*
D03*
Y513000D02*
D03*
Y509000D02*
D03*
Y501000D02*
D03*
Y497000D02*
D03*
X407500D02*
D03*
Y501000D02*
D03*
Y509000D02*
D03*
Y517000D02*
D03*
Y525000D02*
D03*
Y561000D02*
D03*
G54D112*
X485000Y389000D02*
D03*
X395000Y390000D02*
D03*
X377000D02*
D03*
X404000Y382000D02*
D03*
X395000Y382000D02*
D03*
X377000D02*
D03*
X386000Y382000D02*
D03*
X477000Y389000D02*
D03*
X404000Y390000D02*
D03*
X386000D02*
D03*
X485000Y381000D02*
D03*
X477000Y381000D02*
D03*
G54D113*
X298000Y280000D02*
D03*
X239000Y587500D02*
D03*
X239000Y577500D02*
D03*
X290000Y280000D02*
D03*
X231000Y587500D02*
D03*
X231000Y577500D02*
D03*
G54D114*
X292100Y167250D02*
D03*
X281900D02*
D03*
G54D115*
X526514Y-9906D02*
D03*
X476514D02*
D03*
X466514D02*
D03*
X456514D02*
D03*
X646514D02*
D03*
X596514D02*
D03*
X626514D02*
D03*
X516514D02*
D03*
X486514D02*
D03*
X616514D02*
D03*
X606514D02*
D03*
X556514D02*
D03*
X506514D02*
D03*
X496514D02*
D03*
X586514D02*
D03*
X536514D02*
D03*
X546514D02*
D03*
G54D116*
X391500Y247000D02*
D03*
X374000Y400000D02*
D03*
X364000D02*
D03*
X401500Y247000D02*
D03*
G54D117*
X196500Y603050D02*
D03*
X190000D02*
D03*
X177000D02*
D03*
X203000D02*
D03*
X183500D02*
D03*
G54D118*
X245000Y607000D02*
D03*
X256500D02*
D03*
X245000Y616500D02*
D03*
X256500D02*
D03*
X645000Y27750D02*
D03*
X243000Y135250D02*
D03*
Y144750D02*
D03*
X645000Y37250D02*
D03*
X254000Y135250D02*
D03*
Y144750D02*
D03*
G54D119*
X472500Y244500D02*
D03*
X481500D02*
D03*
X481000Y167000D02*
D03*
X472000D02*
D03*
G54D120*
X452588Y206050D02*
D03*
G54D121*
X368750Y529000D02*
D03*
G54D122*
X371750Y409750D02*
D03*
X363250D02*
D03*
G54D123*
X279000Y121220D02*
D03*
G54D124*
X636514Y-5406D02*
D03*
G54D125*
X156800Y378500D02*
D03*
X100000Y251000D02*
D03*
X156800D02*
D03*
X100000Y378500D02*
D03*
G54D126*
X530000Y615000D02*
D03*
X510000D02*
D03*
X490000D02*
D03*
X550000D02*
D03*
X570000D02*
D03*
X565000Y590000D02*
D03*
X520000D02*
D03*
X540000D02*
D03*
X495000D02*
D03*
G54D127*
X594000Y580000D02*
D03*
Y620000D02*
D03*
X466000Y580000D02*
D03*
Y620000D02*
D03*
G54D128*
X48018Y605540D02*
D03*
X48018Y48500D02*
D03*
G54D129*
X59100Y134000D02*
D03*
Y196000D02*
D03*
X25500Y134000D02*
D03*
Y196000D02*
D03*
G54D130*
X167000Y362500D02*
D03*
Y348000D02*
D03*
Y336500D02*
D03*
Y322000D02*
D03*
Y307500D02*
D03*
Y293000D02*
D03*
Y281500D02*
D03*
Y267000D02*
D03*
X157000Y362500D02*
D03*
Y348000D02*
D03*
Y336500D02*
D03*
Y322000D02*
D03*
Y307500D02*
D03*
Y293000D02*
D03*
Y281500D02*
D03*
Y267000D02*
D03*
X147000Y362500D02*
D03*
Y348000D02*
D03*
Y336500D02*
D03*
Y322000D02*
D03*
Y307500D02*
D03*
Y293000D02*
D03*
Y281500D02*
D03*
Y267000D02*
D03*
X135000Y362500D02*
D03*
Y348000D02*
D03*
Y336500D02*
D03*
Y322000D02*
D03*
Y307500D02*
D03*
Y293000D02*
D03*
Y281500D02*
D03*
Y267000D02*
D03*
X125000Y362500D02*
D03*
Y348000D02*
D03*
Y336500D02*
D03*
Y322000D02*
D03*
Y307500D02*
D03*
Y293000D02*
D03*
Y281500D02*
D03*
Y267000D02*
D03*
X115000Y362500D02*
D03*
Y348000D02*
D03*
Y336500D02*
D03*
Y322000D02*
D03*
Y307500D02*
D03*
Y293000D02*
D03*
Y281500D02*
D03*
Y267000D02*
D03*
G54D131*
X1067600Y608600D02*
D03*
X1093000D02*
D03*
X1067600Y583200D02*
D03*
X1093000D02*
D03*
X1067600Y557800D02*
D03*
X1093000D02*
D03*
X1067600Y532400D02*
D03*
X1093000D02*
D03*
X1067600Y507000D02*
D03*
X1093000D02*
D03*
X1067600Y481600D02*
D03*
X1093000D02*
D03*
X1067600Y456200D02*
D03*
X1093000D02*
D03*
X1067600Y430800D02*
D03*
X1093000D02*
D03*
X1067600Y405400D02*
D03*
X1093000D02*
D03*
X1067600Y380000D02*
D03*
X1093000D02*
D03*
X1067600Y354600D02*
D03*
X1093000D02*
D03*
X1067600Y329200D02*
D03*
X1093000D02*
D03*
X1067600Y303800D02*
D03*
X1093000D02*
D03*
X1067600Y278400D02*
D03*
X1093000D02*
D03*
X1067600Y253000D02*
D03*
X1093000D02*
D03*
X1067600Y227600D02*
D03*
X1093000D02*
D03*
X1067600Y202200D02*
D03*
X1093000D02*
D03*
X1067600Y176800D02*
D03*
X1093000D02*
D03*
X1067600Y151400D02*
D03*
X1093000D02*
D03*
X1067600Y126000D02*
D03*
X1093000D02*
D03*
G54D132*
X60500Y421900D02*
D03*
Y554400D02*
D03*
Y529000D02*
D03*
Y447300D02*
D03*
G54D133*
X198400Y519950D02*
D03*
X173000Y532550D02*
D03*
X198400Y469150D02*
D03*
X173000Y507150D02*
D03*
Y481750D02*
D03*
X198400Y494550D02*
D03*
Y443750D02*
D03*
X173000Y456350D02*
D03*
Y430950D02*
D03*
G54D134*
X225750Y611950D02*
D03*
X154250D02*
D03*
G54D135*
X198400Y545350D02*
D03*
G54D136*
X140000Y565600D02*
D03*
Y410700D02*
D03*
G54D137*
X109500Y545300D02*
D03*
Y431000D02*
D03*
G54D138*
X988011Y123808D02*
D03*
Y603808D02*
D03*
X658011Y123808D02*
D03*
X657975Y603808D02*
D03*
G54D139*
X230250Y329000D02*
D03*
Y317000D02*
D03*
Y305000D02*
D03*
X237250Y329000D02*
D03*
Y317000D02*
D03*
Y305000D02*
D03*
X39500Y302000D02*
D03*
Y314000D02*
D03*
Y326000D02*
D03*
X46500Y302000D02*
D03*
Y314000D02*
D03*
Y326000D02*
D03*
M02*
