G04*
G04 #@! TF.GenerationSoftware,Altium Limited,Altium Designer,24.4.1 (13)*
G04*
G04 Layer_Physical_Order=3*
G04 Layer_Color=16440176*
%FSLAX44Y44*%
%MOMM*%
G71*
G04*
G04 #@! TF.SameCoordinates,6542FF27-95F4-46AC-8F84-F2986E28DBEB*
G04*
G04*
G04 #@! TF.FilePolarity,Positive*
G04*
G01*
G75*
%ADD13C,0.2000*%
%ADD32C,0.4200*%
%ADD68C,0.1250*%
%ADD70C,0.5000*%
%ADD73C,0.4000*%
%ADD74C,0.6000*%
%ADD75C,1.5000*%
%ADD76R,1.5000X1.5000*%
G36*
X915000Y680000D02*
Y365000D01*
X875000Y325000D01*
X840000Y325000D01*
X832500Y317500D01*
Y312278D01*
X832147Y311667D01*
X831657Y309838D01*
X830343D01*
X829853Y311667D01*
X828602Y313833D01*
X826833Y315602D01*
X824667Y316853D01*
X823500Y317165D01*
Y308000D01*
X818500D01*
Y317165D01*
X817333Y316853D01*
X815167Y315602D01*
X813398Y313833D01*
X812147Y311667D01*
X812041Y311268D01*
X812419Y311360D01*
X813037Y311562D01*
X813623Y311810D01*
X814176Y312103D01*
X814697Y312440D01*
X815187Y312822D01*
X815644Y313250D01*
Y302750D01*
X815187Y303178D01*
X814697Y303560D01*
X814176Y303897D01*
X813623Y304190D01*
X813037Y304438D01*
X812419Y304640D01*
X811769Y304797D01*
X811087Y304910D01*
X811000Y304918D01*
X810913Y304910D01*
X810231Y304797D01*
X809581Y304640D01*
X808963Y304438D01*
X808378Y304190D01*
X807824Y303897D01*
X807302Y303560D01*
X806813Y303178D01*
X806356Y302750D01*
Y313250D01*
X806813Y312822D01*
X807302Y312440D01*
X807824Y312103D01*
X808378Y311810D01*
X808963Y311562D01*
X809581Y311360D01*
X809959Y311268D01*
X809853Y311667D01*
X808602Y313833D01*
X806833Y315602D01*
X804667Y316853D01*
X803500Y317165D01*
Y308000D01*
X798500D01*
Y317165D01*
X797333Y316853D01*
X795167Y315602D01*
X793398Y313833D01*
X793148Y313400D01*
X793414Y313666D01*
X793679Y313417D01*
X793931Y313210D01*
X794171Y313047D01*
X794399Y312926D01*
X794614Y312848D01*
X794817Y312814D01*
X795007Y312822D01*
X795186Y312873D01*
X795351Y312967D01*
X795505Y313104D01*
X793542Y307206D01*
X793498Y307379D01*
X793398Y307593D01*
X793242Y307850D01*
X793030Y308150D01*
X792439Y308876D01*
X791624Y309772D01*
X791560Y309838D01*
X790343D01*
X790000Y311117D01*
Y319616D01*
X822884Y352500D01*
X855736D01*
X857185Y351900D01*
X858816D01*
X860264Y352500D01*
X862500D01*
X870960Y360960D01*
X872322Y361524D01*
X873476Y362678D01*
X874040Y364040D01*
X892500Y382500D01*
Y386702D01*
X893476Y387678D01*
X894100Y389184D01*
Y390816D01*
X893476Y392323D01*
X892500Y393298D01*
Y426702D01*
X893476Y427678D01*
X894100Y429184D01*
Y430816D01*
X893476Y432323D01*
X892500Y433298D01*
Y465900D01*
X893816D01*
X895322Y466524D01*
X896476Y467678D01*
X897100Y469184D01*
Y470816D01*
X896476Y472322D01*
X895322Y473476D01*
X893816Y474100D01*
X892500D01*
Y665000D01*
X872500Y685000D01*
X520000D01*
X515000Y690000D01*
Y707500D01*
X517500Y710000D01*
X535202D01*
X535677Y709524D01*
X537184Y708900D01*
X538815D01*
X540322Y709524D01*
X540798Y710000D01*
X591202D01*
X591678Y709524D01*
X593185Y708900D01*
X594815D01*
X596323Y709524D01*
X596798Y710000D01*
X651202D01*
X651677Y709524D01*
X653184Y708900D01*
X654816D01*
X656322Y709524D01*
X656798Y710000D01*
X694202D01*
X695178Y709024D01*
X696684Y708400D01*
X698316D01*
X699822Y709024D01*
X700798Y710000D01*
X754202D01*
X755178Y709024D01*
X756684Y708400D01*
X758316D01*
X759822Y709024D01*
X760798Y710000D01*
X805900D01*
Y709184D01*
X806524Y707678D01*
X807678Y706524D01*
X809184Y705900D01*
X810816D01*
X812322Y706524D01*
X812500Y706702D01*
X813476Y707678D01*
X814100Y709184D01*
Y710000D01*
X859202D01*
X860178Y709024D01*
X861684Y708400D01*
X863316D01*
X864822Y709024D01*
X865798Y710000D01*
X885000D01*
X915000Y680000D01*
D02*
G37*
G36*
X887500Y660000D02*
Y527541D01*
X884500Y526298D01*
X884322Y526476D01*
X882815Y527100D01*
X881184D01*
X879678Y526476D01*
X878524Y525322D01*
X877900Y523815D01*
Y522184D01*
X878524Y520677D01*
X879678Y519524D01*
X881184Y518900D01*
X882815D01*
X884322Y519524D01*
X884500Y519702D01*
X887500Y518459D01*
Y510861D01*
X884500Y510264D01*
X884476Y510322D01*
X883322Y511476D01*
X881815Y512100D01*
X880184D01*
X878678Y511476D01*
X877524Y510322D01*
X876900Y508815D01*
Y507184D01*
X877524Y505678D01*
X878678Y504524D01*
X880184Y503900D01*
Y501100D01*
X878678Y500476D01*
X877524Y499322D01*
X876900Y497816D01*
Y496185D01*
X877524Y494678D01*
X878678Y493524D01*
X879391Y493229D01*
X879496Y492202D01*
X879149Y490128D01*
X878177Y489726D01*
X877024Y488573D01*
X876400Y487066D01*
Y485434D01*
X877024Y483928D01*
X878177Y482774D01*
X879684Y482150D01*
X881316D01*
X882822Y482774D01*
X883976Y483928D01*
X884600Y485434D01*
X887500Y485193D01*
Y433298D01*
X886524Y432323D01*
X885900Y430816D01*
Y429184D01*
X886524Y427678D01*
X887500Y426702D01*
Y393298D01*
X886524Y392323D01*
X885900Y390816D01*
Y389184D01*
X886524Y387678D01*
X887500Y386702D01*
Y382500D01*
X872899Y367899D01*
X872322Y368476D01*
X870816Y369100D01*
X869184D01*
X867678Y368476D01*
X866524Y367323D01*
X864816Y366100D01*
X863185D01*
X861678Y365476D01*
X860524Y364323D01*
X859900Y362816D01*
X859125Y360875D01*
X857184Y360100D01*
X855678Y359476D01*
X854524Y358322D01*
X853900Y356815D01*
Y355185D01*
X853777Y355000D01*
X822500D01*
X784419Y316919D01*
X783500Y317165D01*
Y308000D01*
X778500D01*
Y317165D01*
X777333Y316853D01*
X775167Y315602D01*
X773398Y313833D01*
X772662Y312558D01*
X772078Y312373D01*
X769922D01*
X769338Y312558D01*
X768602Y313833D01*
X766833Y315602D01*
X764667Y316853D01*
X762251Y317500D01*
X759749D01*
X757333Y316853D01*
X755167Y315602D01*
X753398Y313833D01*
X752147Y311667D01*
X751500Y309251D01*
Y306749D01*
X752147Y304333D01*
X753398Y302167D01*
X755065Y300500D01*
X755042Y300030D01*
X754187Y297500D01*
X751500D01*
Y284000D01*
X715559Y248059D01*
X665598D01*
X664983Y248673D01*
X663841Y251059D01*
X664100Y251684D01*
Y253316D01*
X663476Y254823D01*
X662322Y255976D01*
X660816Y256600D01*
X659184D01*
X657678Y255976D01*
X656524Y254823D01*
X655900Y253316D01*
Y251684D01*
X656159Y251059D01*
X655017Y248673D01*
X654402Y248059D01*
X592352D01*
X591600Y249184D01*
Y250816D01*
X590976Y252323D01*
X589822Y253476D01*
X588316Y254100D01*
X586684D01*
X585177Y253476D01*
X584024Y252323D01*
X583400Y250816D01*
Y249184D01*
X582671Y248094D01*
X581648D01*
X579100Y250792D01*
Y250816D01*
X578476Y252323D01*
X577322Y253476D01*
X575816Y254100D01*
X574184D01*
X572677Y253476D01*
X571524Y252323D01*
X570900Y250816D01*
Y249184D01*
X570148Y248059D01*
X559805D01*
X559758Y248092D01*
X558048Y251059D01*
X558100Y251185D01*
Y252815D01*
X557476Y254322D01*
X556323Y255476D01*
X554816Y256100D01*
X553185D01*
X551678Y255476D01*
X550524Y254322D01*
X547378Y254282D01*
X546905Y254562D01*
X546438Y255357D01*
X546476Y256678D01*
X547100Y258184D01*
Y259816D01*
X546476Y261322D01*
X545322Y262476D01*
X543815Y263100D01*
X542184D01*
X540678Y262476D01*
X539524Y261322D01*
X539483Y261224D01*
X538171Y260826D01*
X537000Y261059D01*
X537000Y261059D01*
X529852D01*
X529100Y262185D01*
Y263816D01*
X528476Y265322D01*
X527322Y266476D01*
X525816Y267100D01*
X524184D01*
X522677Y266476D01*
X521524Y265322D01*
X520900Y263816D01*
Y262185D01*
X520509Y261599D01*
X517391Y261407D01*
X517322Y261476D01*
X515816Y262100D01*
X514184D01*
X512677Y261476D01*
X511524Y260322D01*
X510900Y258815D01*
Y257184D01*
X511524Y255678D01*
X512677Y254524D01*
X514184Y253900D01*
X515848Y253848D01*
X516900Y252184D01*
X517524Y250678D01*
X518678Y249524D01*
X520185Y248900D01*
X521819Y248820D01*
X521900Y247185D01*
Y247185D01*
X522524Y245678D01*
X523677Y244524D01*
X524600Y244142D01*
X525135Y242761D01*
X524293Y241248D01*
X522826Y240000D01*
X462100D01*
Y240816D01*
X461476Y242323D01*
X460322Y243476D01*
X458815Y244100D01*
X457184D01*
X455677Y243476D01*
X454524Y242323D01*
X453900Y240816D01*
Y240000D01*
X410000D01*
X390000Y260000D01*
Y308226D01*
X391323Y308774D01*
X392476Y309928D01*
X393100Y311434D01*
Y313066D01*
X392476Y314573D01*
X391323Y315726D01*
X390000Y316274D01*
Y408954D01*
X391935Y411400D01*
X393566D01*
X395073Y412024D01*
X396226Y413178D01*
X396850Y414684D01*
Y416316D01*
X396226Y417822D01*
X395073Y418976D01*
X393566Y419600D01*
X391935D01*
X390000Y422046D01*
Y476282D01*
X390751Y476697D01*
X393000Y477202D01*
X393677Y476524D01*
X395185Y475900D01*
X395185D01*
X396819Y475820D01*
X396900Y474184D01*
X397524Y472677D01*
X398678Y471524D01*
X399247Y471288D01*
X400297Y468850D01*
X400349Y467900D01*
X399900Y466816D01*
Y465185D01*
X400524Y463678D01*
X401678Y462524D01*
X403185Y461900D01*
X404815D01*
X406323Y462524D01*
X407476Y463678D01*
X408100Y465185D01*
Y466816D01*
X407476Y468322D01*
X406323Y469476D01*
X405753Y469712D01*
X404703Y472150D01*
X404651Y473100D01*
X405100Y474184D01*
Y475816D01*
X404476Y477322D01*
X403322Y478476D01*
X401816Y479100D01*
X401815D01*
X400181Y479180D01*
X400100Y480816D01*
X399476Y482323D01*
X398322Y483476D01*
X396815Y484100D01*
X396815D01*
X395181Y484180D01*
X395100Y485816D01*
X394476Y487322D01*
X393322Y488476D01*
X391815Y489100D01*
X390185D01*
X390000Y489223D01*
Y622777D01*
X390185Y622900D01*
X391815D01*
X393322Y623524D01*
X394476Y624678D01*
X395012Y625971D01*
X395185Y625900D01*
X396815D01*
X398322Y626524D01*
X399476Y627678D01*
X400100Y629184D01*
X401816Y629900D01*
X403322Y630524D01*
X404476Y631678D01*
X405100Y633185D01*
Y634815D01*
X404476Y636323D01*
X403322Y637476D01*
X401816Y638100D01*
X400185D01*
X398678Y637476D01*
X397524Y636323D01*
X396900Y634816D01*
X395184Y634100D01*
X393677Y633476D01*
X393000Y632798D01*
X390751Y633303D01*
X390000Y633718D01*
Y660000D01*
X392960Y662960D01*
X394323Y663524D01*
X395476Y664678D01*
X396040Y666040D01*
X400960Y670960D01*
X402322Y671524D01*
X403476Y672678D01*
X404040Y674040D01*
X410000Y680000D01*
X465851D01*
X468400Y678316D01*
Y676684D01*
X469024Y675178D01*
X470177Y674024D01*
X471684Y673400D01*
X473316D01*
X474822Y674024D01*
X475976Y675178D01*
X476600Y676684D01*
Y678316D01*
X479149Y680000D01*
X495851D01*
X498400Y678316D01*
Y676684D01*
X499024Y675178D01*
X500178Y674024D01*
X501684Y673400D01*
X503316D01*
X504823Y674024D01*
X505976Y675178D01*
X506600Y676684D01*
Y678316D01*
X509150Y680000D01*
X518351D01*
X520900Y678316D01*
Y676684D01*
X521524Y675178D01*
X522677Y674024D01*
X524184Y673400D01*
X525816D01*
X527322Y674024D01*
X528476Y675178D01*
X529100Y676684D01*
Y678316D01*
X531649Y680000D01*
X538400D01*
Y679184D01*
X539024Y677678D01*
X540178Y676524D01*
X541684Y675900D01*
X543316D01*
X544823Y676524D01*
X545976Y677678D01*
X546600Y679184D01*
Y680000D01*
X596219D01*
X596326Y679922D01*
X597976Y677000D01*
X597900Y676815D01*
Y675184D01*
X598524Y673678D01*
X599678Y672524D01*
X601184Y671900D01*
X602816D01*
X604322Y672524D01*
X604388Y672589D01*
X606931Y670890D01*
X606900Y670816D01*
Y669184D01*
X607524Y667678D01*
X608122Y666536D01*
X606946Y663605D01*
X604850Y662703D01*
X603900Y662651D01*
X602816Y663100D01*
X601184D01*
X599678Y662476D01*
X598524Y661322D01*
X597900Y659816D01*
Y658185D01*
X598524Y656678D01*
X599678Y655524D01*
X601184Y654900D01*
X602816D01*
X604128Y655444D01*
X604269Y655412D01*
X605091Y655028D01*
X606900Y653859D01*
Y653184D01*
X607524Y651677D01*
Y649323D01*
X606900Y647815D01*
Y646184D01*
X607524Y644678D01*
X608677Y643524D01*
X610185Y642900D01*
X611815D01*
X613322Y643524D01*
X614476Y644678D01*
X615100Y646184D01*
Y647815D01*
X614476Y649323D01*
Y651677D01*
X615100Y653184D01*
Y653859D01*
X616909Y655028D01*
X617731Y655412D01*
X617872Y655444D01*
X619184Y654900D01*
X620816D01*
X622323Y655524D01*
X623476Y656678D01*
X623583Y656938D01*
X624912Y657272D01*
X626872Y657330D01*
X627678Y656524D01*
X629184Y655900D01*
X630816D01*
X632323Y656524D01*
X633476Y657678D01*
X634100Y659184D01*
Y660816D01*
X633476Y662322D01*
X632323Y663476D01*
X630816Y664100D01*
X629184D01*
X627678Y663476D01*
X626524Y662322D01*
X626417Y662062D01*
X625088Y661728D01*
X623128Y661670D01*
X622323Y662476D01*
X620816Y663100D01*
X619184D01*
X618100Y662651D01*
X617150Y662703D01*
X615054Y663605D01*
X613878Y666536D01*
X614476Y667678D01*
X615100Y669184D01*
Y670816D01*
X615069Y670890D01*
X617612Y672589D01*
X617678Y672524D01*
X619184Y671900D01*
X620816D01*
X622323Y672524D01*
X623476Y673678D01*
X624100Y675184D01*
Y676815D01*
X624024Y677000D01*
X625400Y679437D01*
X627350Y679400D01*
X628453Y679057D01*
X629024Y677678D01*
X630178Y676524D01*
X631684Y675900D01*
X633316D01*
X634823Y676524D01*
X635976Y677678D01*
X636600Y679184D01*
Y680000D01*
X640900D01*
Y679184D01*
X641524Y677678D01*
X642678Y676524D01*
X644184Y675900D01*
X645816D01*
X647322Y676524D01*
X648476Y677678D01*
X649100Y679184D01*
Y680000D01*
X653400D01*
Y679184D01*
X654024Y677678D01*
X655178Y676524D01*
X656684Y675900D01*
X658316D01*
X659822Y676524D01*
X660976Y677678D01*
X661600Y679184D01*
Y680000D01*
X711282D01*
X711697Y679249D01*
X712202Y677000D01*
X711524Y676322D01*
X710900Y674816D01*
Y673185D01*
X711524Y671677D01*
X712678Y670524D01*
X714184Y669900D01*
X715816D01*
X716900Y670349D01*
X719025Y669524D01*
X719995Y668954D01*
X720524Y667678D01*
X721403Y666000D01*
X720524Y664322D01*
X719900Y662815D01*
Y662641D01*
X718621Y661814D01*
X716917Y661144D01*
X715816Y661600D01*
X714184D01*
X712678Y660976D01*
X711524Y659822D01*
X710900Y658316D01*
Y656684D01*
X711524Y655178D01*
X712678Y654024D01*
X714184Y653400D01*
X715816D01*
X717128Y653944D01*
X718512Y653381D01*
X719900Y652359D01*
Y651184D01*
X720524Y649678D01*
Y647322D01*
X719900Y645816D01*
Y644184D01*
X720524Y642678D01*
X721678Y641524D01*
X723185Y640900D01*
X724816D01*
X726322Y641524D01*
X727476Y642678D01*
X728100Y644184D01*
Y645816D01*
X727476Y647322D01*
Y649678D01*
X728100Y651184D01*
Y652815D01*
X728069Y652890D01*
X730612Y654589D01*
X730678Y654524D01*
X732185Y653900D01*
X733816D01*
X735322Y654524D01*
X735835Y655037D01*
X738294Y655145D01*
X739372Y654830D01*
X740178Y654024D01*
X741684Y653400D01*
X743316D01*
X744822Y654024D01*
X745976Y655178D01*
X746600Y656684D01*
Y658316D01*
X745976Y659822D01*
X744822Y660976D01*
X743316Y661600D01*
X741684D01*
X740178Y660976D01*
X739665Y660463D01*
X737206Y660355D01*
X736128Y660670D01*
X735322Y661476D01*
X733816Y662100D01*
X732185D01*
X731100Y661651D01*
X728975Y662476D01*
X728005Y663046D01*
X727476Y664322D01*
X726597Y666000D01*
X727476Y667678D01*
X728005Y668954D01*
X728975Y669524D01*
X731100Y670349D01*
X732185Y669900D01*
X733816D01*
X735322Y670524D01*
X736476Y671677D01*
X737100Y673185D01*
Y674816D01*
X736476Y676322D01*
X735798Y677000D01*
X736303Y679249D01*
X736718Y680000D01*
X740900D01*
Y679184D01*
X741524Y677678D01*
X742678Y676524D01*
X744184Y675900D01*
X745816D01*
X747322Y676524D01*
X748476Y677678D01*
X751524D01*
X752678Y676524D01*
X754184Y675900D01*
X755816D01*
X757322Y676524D01*
X758476Y677678D01*
X761524D01*
X762678Y676524D01*
X764184Y675900D01*
X765816D01*
X767322Y676524D01*
X768476Y677678D01*
X769100Y679184D01*
Y680000D01*
X845851D01*
X848400Y678316D01*
Y676684D01*
X849024Y675178D01*
X850178Y674024D01*
X851684Y673400D01*
X853316D01*
X854822Y674024D01*
X855976Y675178D01*
X856600Y676684D01*
Y678316D01*
X859149Y680000D01*
X867500D01*
X887500Y660000D01*
D02*
G37*
G36*
X889247Y508038D02*
X890068Y507404D01*
X890461Y506826D01*
Y489228D01*
X890456Y489221D01*
X889715Y488410D01*
X889198Y488033D01*
X887771Y487279D01*
X887461Y487243D01*
X884769Y487467D01*
X884684Y487457D01*
X884600Y487474D01*
X884291Y487412D01*
X883979Y487377D01*
X883904Y487335D01*
X883820Y487318D01*
X883558Y487144D01*
X883283Y486991D01*
X883229Y486924D01*
X883158Y486876D01*
X882983Y486615D01*
X882787Y486368D01*
X882764Y486286D01*
X882716Y486215D01*
X882685Y486141D01*
X881429Y485987D01*
X880773Y486059D01*
X880200Y487544D01*
X880334Y488469D01*
X880450Y488592D01*
X880591Y488686D01*
X880720Y488879D01*
X880879Y489048D01*
X880939Y489207D01*
X881033Y489348D01*
X881079Y489576D01*
X881161Y489792D01*
X881507Y491866D01*
X881499Y492138D01*
X881525Y492409D01*
X881420Y493435D01*
X881333Y493718D01*
X881275Y494009D01*
X881217Y494096D01*
X881187Y494196D01*
X880998Y494424D01*
X880833Y494670D01*
X880746Y494729D01*
X880680Y494809D01*
X880418Y494948D01*
X880172Y495112D01*
X879833Y495253D01*
X879253Y495833D01*
X878939Y496590D01*
Y497410D01*
X879253Y498167D01*
X879833Y498747D01*
X880965Y499216D01*
X880965Y499216D01*
X881626Y499658D01*
X882068Y500320D01*
X882224Y501100D01*
X882224Y503900D01*
X882224Y503900D01*
X882224Y503900D01*
X882068Y504680D01*
X882068Y504680D01*
X881626Y505342D01*
X881306Y505556D01*
X881013Y507037D01*
X881250Y508255D01*
X881646Y508408D01*
X883367Y508568D01*
X883553Y508492D01*
X883720Y508380D01*
X883917Y508341D01*
X884102Y508264D01*
X884303D01*
X884500Y508225D01*
X884697Y508264D01*
X884898D01*
X887461Y508774D01*
X889247Y508038D01*
D02*
G37*
G36*
X926626Y715844D02*
X926704Y714451D01*
X925430Y713177D01*
X925291Y712968D01*
X925113Y712791D01*
X924019Y711153D01*
X923923Y710921D01*
X923783Y710712D01*
X923029Y708892D01*
X922980Y708646D01*
X922884Y708414D01*
X922500Y706482D01*
Y706231D01*
X922451Y705985D01*
Y704015D01*
X922500Y703769D01*
Y703518D01*
X922884Y701586D01*
X922980Y701354D01*
X923029Y701108D01*
X923783Y699288D01*
X923923Y699079D01*
X924019Y698847D01*
X925113Y697209D01*
X925291Y697032D01*
X925430Y696823D01*
X926823Y695430D01*
X927032Y695291D01*
X927209Y695113D01*
X928847Y694019D01*
X929079Y693923D01*
X929288Y693783D01*
X931108Y693029D01*
X931354Y692980D01*
X931586Y692884D01*
X933518Y692500D01*
X933769D01*
X934015Y692451D01*
X935985D01*
X936231Y692500D01*
X936482D01*
X938414Y692884D01*
X938646Y692980D01*
X938892Y693029D01*
X940712Y693783D01*
X940921Y693923D01*
X941153Y694019D01*
X942791Y695113D01*
X942968Y695291D01*
X943177Y695430D01*
X944451Y696704D01*
X945844Y696626D01*
X947451Y695647D01*
X947451Y497549D01*
X930979D01*
X930349Y500405D01*
X930347Y500549D01*
X931476Y501678D01*
X932100Y503185D01*
Y504816D01*
X931476Y506323D01*
X930322Y507476D01*
X928816Y508100D01*
X927185D01*
X925677Y507476D01*
X924524Y506323D01*
X923900Y504816D01*
Y503185D01*
X924524Y501678D01*
X925653Y500549D01*
X925651Y500405D01*
X925021Y497549D01*
X920039D01*
X920000Y497549D01*
X917551Y499048D01*
X917039Y499636D01*
Y520500D01*
X934500D01*
Y539500D01*
X931813D01*
X930957Y542030D01*
X930935Y542500D01*
X932602Y544167D01*
X933853Y546333D01*
X934500Y548749D01*
Y551251D01*
X933853Y553667D01*
X932602Y555833D01*
X930833Y557602D01*
X929558Y558338D01*
X929373Y558922D01*
Y561078D01*
X929558Y561662D01*
X930833Y562398D01*
X932602Y564167D01*
X933853Y566333D01*
X934165Y567500D01*
X925000D01*
Y572500D01*
X934165D01*
X933853Y573667D01*
X932602Y575833D01*
X930833Y577602D01*
X929558Y578338D01*
X929373Y578922D01*
Y581078D01*
X929558Y581662D01*
X930833Y582398D01*
X932602Y584167D01*
X933853Y586333D01*
X934500Y588749D01*
Y591251D01*
X933853Y593667D01*
X932602Y595833D01*
X930833Y597602D01*
X929558Y598338D01*
X929373Y598922D01*
Y601078D01*
X929558Y601662D01*
X930833Y602398D01*
X932602Y604167D01*
X933853Y606333D01*
X934500Y608749D01*
Y611251D01*
X933853Y613667D01*
X932602Y615833D01*
X930833Y617602D01*
X929558Y618338D01*
X929373Y618922D01*
Y621078D01*
X929558Y621662D01*
X930833Y622398D01*
X932602Y624167D01*
X933853Y626333D01*
X934500Y628749D01*
Y631251D01*
X933853Y633667D01*
X932602Y635833D01*
X930833Y637602D01*
X929558Y638338D01*
X929373Y638922D01*
Y641078D01*
X929558Y641662D01*
X930833Y642398D01*
X932602Y644167D01*
X933853Y646333D01*
X934500Y648749D01*
Y651251D01*
X933853Y653667D01*
X932602Y655833D01*
X930833Y657602D01*
X928667Y658853D01*
X926251Y659500D01*
X923749D01*
X921333Y658853D01*
X920039Y658105D01*
X917628Y659131D01*
X917039Y659717D01*
Y680000D01*
X916884Y680780D01*
X916442Y681442D01*
X916442Y681442D01*
X886442Y711442D01*
X885780Y711884D01*
X885000Y712039D01*
X865798D01*
X865798Y712039D01*
X865018Y711884D01*
X864356Y711442D01*
X863667Y710753D01*
X862910Y710439D01*
X862090D01*
X861333Y710753D01*
X860644Y711442D01*
X859982Y711884D01*
X859202Y712039D01*
X814100D01*
X813320Y711884D01*
X812658Y711442D01*
X812216Y710780D01*
X810939Y709879D01*
X810177Y709910D01*
X808067Y710677D01*
X807684Y710930D01*
X807342Y711442D01*
X806680Y711884D01*
X805900Y712039D01*
X760798D01*
X760798Y712039D01*
X760018Y711884D01*
X759356Y711442D01*
X758667Y710753D01*
X757910Y710439D01*
X757090D01*
X756333Y710753D01*
X755644Y711442D01*
X754982Y711884D01*
X754202Y712039D01*
X700798D01*
X700798Y712039D01*
X700018Y711884D01*
X699356Y711442D01*
X698667Y710753D01*
X697910Y710439D01*
X697090D01*
X696333Y710753D01*
X695644Y711442D01*
X694982Y711884D01*
X694202Y712039D01*
X656798D01*
X656018Y711884D01*
X655356Y711442D01*
X655167Y711253D01*
X654410Y710939D01*
X653590D01*
X652833Y711253D01*
X652644Y711442D01*
X651982Y711884D01*
X651202Y712039D01*
X596798D01*
X596018Y711884D01*
X595356Y711442D01*
X595167Y711253D01*
X594410Y710939D01*
X593590D01*
X592833Y711253D01*
X592644Y711442D01*
X591982Y711884D01*
X591202Y712039D01*
X540798D01*
X540018Y711884D01*
X539356Y711442D01*
X539167Y711253D01*
X538410Y710939D01*
X537590D01*
X536833Y711253D01*
X536644Y711442D01*
X535982Y711884D01*
X535202Y712039D01*
X517500D01*
X517500Y712039D01*
X516720Y711884D01*
X516058Y711442D01*
X513558Y708942D01*
X513116Y708280D01*
X512961Y707500D01*
Y690000D01*
X512961Y690000D01*
X513116Y689220D01*
X513558Y688558D01*
X517077Y685039D01*
X515834Y682039D01*
X509150D01*
X508958Y682001D01*
X508762Y682002D01*
X508571Y681924D01*
X508369Y681884D01*
X508206Y681775D01*
X508025Y681701D01*
X505476Y680017D01*
X505330Y679872D01*
X505158Y679757D01*
X505049Y679595D01*
X504910Y679457D01*
X504831Y679267D01*
X504716Y679096D01*
X504678Y678904D01*
X504602Y678724D01*
X504601Y678518D01*
X504561Y678316D01*
Y677090D01*
X504247Y676333D01*
X503667Y675753D01*
X502910Y675439D01*
X502090D01*
X501333Y675753D01*
X500753Y676333D01*
X500439Y677090D01*
Y678316D01*
X500399Y678518D01*
X500398Y678724D01*
X500322Y678904D01*
X500284Y679096D01*
X500169Y679267D01*
X500090Y679457D01*
X499951Y679595D01*
X499842Y679757D01*
X499671Y679872D01*
X499524Y680017D01*
X496975Y681701D01*
X496794Y681775D01*
X496631Y681884D01*
X496429Y681924D01*
X496238Y682002D01*
X496042Y682001D01*
X495851Y682039D01*
X479149D01*
X478958Y682001D01*
X478762Y682002D01*
X478571Y681924D01*
X478369Y681884D01*
X478206Y681775D01*
X478025Y681701D01*
X475476Y680017D01*
X475330Y679872D01*
X475158Y679757D01*
X475049Y679595D01*
X474910Y679457D01*
X474831Y679267D01*
X474716Y679096D01*
X474678Y678904D01*
X474602Y678724D01*
X474601Y678518D01*
X474561Y678316D01*
Y677090D01*
X474247Y676333D01*
X473667Y675753D01*
X472910Y675439D01*
X472090D01*
X471333Y675753D01*
X470753Y676333D01*
X470439Y677090D01*
Y678316D01*
X470399Y678518D01*
X470398Y678724D01*
X470322Y678904D01*
X470284Y679096D01*
X470169Y679267D01*
X470090Y679457D01*
X469951Y679595D01*
X469842Y679757D01*
X469671Y679872D01*
X469524Y680017D01*
X466975Y681701D01*
X466794Y681775D01*
X466631Y681884D01*
X466429Y681924D01*
X466238Y682002D01*
X466042Y682001D01*
X465851Y682039D01*
X410000D01*
X410000Y682039D01*
X409220Y681884D01*
X408558Y681442D01*
X402598Y675482D01*
X402156Y674821D01*
X402156Y674820D01*
X401747Y673833D01*
X401167Y673253D01*
X400179Y672844D01*
X400179Y672844D01*
X399518Y672402D01*
X399518Y672402D01*
X394598Y667482D01*
X394156Y666821D01*
X394156Y666821D01*
X393747Y665833D01*
X393167Y665253D01*
X392179Y664844D01*
X392179Y664844D01*
X391518Y664402D01*
X391518Y664402D01*
X388558Y661442D01*
X388116Y660780D01*
X387961Y660000D01*
Y633718D01*
X388016Y633438D01*
X388040Y633154D01*
X388317Y631991D01*
X388052Y630625D01*
X387796Y629790D01*
X387539Y629337D01*
X387524Y629322D01*
X386900Y627816D01*
Y626184D01*
X387524Y624678D01*
X388301Y623901D01*
X388228Y623724D01*
X388116Y623557D01*
X388077Y623360D01*
X388000Y623175D01*
Y622974D01*
X387961Y622777D01*
Y489223D01*
X388000Y489026D01*
Y488825D01*
X388077Y488640D01*
X388116Y488443D01*
X388228Y488276D01*
X388301Y488099D01*
X387524Y487322D01*
X386900Y485816D01*
Y484184D01*
X387524Y482677D01*
X388678Y481524D01*
X389001Y481390D01*
X389014Y481353D01*
X389305Y480239D01*
X389125Y478128D01*
X389013Y478067D01*
X388795Y477883D01*
X388558Y477724D01*
X388494Y477628D01*
X388405Y477553D01*
X388275Y477300D01*
X388116Y477062D01*
X388093Y476949D01*
X388040Y476846D01*
X388017Y476562D01*
X387961Y476282D01*
Y422046D01*
X388016Y421770D01*
X388038Y421489D01*
X388093Y421383D01*
X388116Y421265D01*
X388272Y421031D01*
X388401Y420781D01*
X390335Y418335D01*
X390426Y418257D01*
X390493Y418158D01*
X390727Y418002D01*
X390941Y417819D01*
X391055Y417783D01*
X391154Y417716D01*
X391430Y417661D01*
X391698Y417575D01*
X391817Y417584D01*
X391935Y417561D01*
X393160D01*
X393917Y417247D01*
X394497Y416667D01*
X394811Y415910D01*
Y415090D01*
X394497Y414333D01*
X393917Y413753D01*
X393160Y413439D01*
X391935D01*
X391817Y413416D01*
X391698Y413425D01*
X391430Y413339D01*
X391154Y413284D01*
X391055Y413218D01*
X390941Y413181D01*
X390727Y412998D01*
X390493Y412842D01*
X390426Y412743D01*
X390335Y412665D01*
X388401Y410219D01*
X388272Y409968D01*
X388116Y409734D01*
X388093Y409617D01*
X388038Y409511D01*
X388016Y409230D01*
X387961Y408954D01*
Y316274D01*
X388116Y315493D01*
X388558Y314832D01*
X389220Y314390D01*
X389220Y314390D01*
X390167Y313997D01*
X390747Y313417D01*
X391061Y312660D01*
Y311840D01*
X390747Y311083D01*
X390167Y310503D01*
X389220Y310110D01*
X389220Y310110D01*
X388558Y309668D01*
X388116Y309007D01*
X387961Y308226D01*
Y260000D01*
X388116Y259220D01*
X388558Y258558D01*
X408558Y238558D01*
X409220Y238116D01*
X410000Y237961D01*
X453900D01*
X454680Y238116D01*
X455342Y238558D01*
X455684Y239070D01*
X456067Y239323D01*
X458177Y240090D01*
X458939Y240121D01*
X460216Y239220D01*
X460658Y238558D01*
X461320Y238116D01*
X462100Y237961D01*
X522826D01*
X523138Y238023D01*
X523453Y238059D01*
X523525Y238100D01*
X523607Y238116D01*
X523871Y238292D01*
X524148Y238447D01*
X525060Y239222D01*
X525845Y239686D01*
X528167Y239606D01*
X528678Y239524D01*
X530185Y238900D01*
X530758D01*
X530761Y238898D01*
X530783Y238883D01*
X530830Y238844D01*
X538837Y230837D01*
X538837Y230837D01*
X539829Y230174D01*
X541000Y229941D01*
X755000D01*
X755000Y229941D01*
X756171Y230174D01*
X757163Y230837D01*
X799267Y272941D01*
X830000D01*
X830000Y272941D01*
X831171Y273174D01*
X832163Y273837D01*
X835415Y277089D01*
X835419Y277092D01*
X835649Y277235D01*
X836011Y277408D01*
X836501Y277591D01*
X837111Y277774D01*
X837799Y277939D01*
X840690Y278387D01*
X841828Y278497D01*
X841838Y278500D01*
X842251D01*
X844667Y279147D01*
X846833Y280398D01*
X848602Y282167D01*
X849853Y284333D01*
X850500Y286749D01*
Y289251D01*
X849853Y291667D01*
X848602Y293833D01*
X846833Y295602D01*
X845558Y296338D01*
X845373Y296922D01*
Y299078D01*
X845558Y299662D01*
X846833Y300398D01*
X848602Y302167D01*
X849853Y304333D01*
X850165Y305500D01*
X841000D01*
Y308000D01*
X838500D01*
Y319328D01*
X838029Y320145D01*
X840845Y322961D01*
X875000Y322961D01*
X875780Y323116D01*
X876442Y323558D01*
X876442Y323558D01*
X916442Y363558D01*
X916884Y364220D01*
X917039Y365000D01*
Y460364D01*
X917551Y460952D01*
X920000Y462451D01*
X920039Y462451D01*
X947451D01*
Y222549D01*
X232549D01*
Y250000D01*
X232355Y250975D01*
X231802Y251802D01*
X230975Y252355D01*
X230000Y252549D01*
X202549D01*
Y687451D01*
X230000D01*
X230975Y687645D01*
X231802Y688198D01*
X232355Y689025D01*
X232549Y690000D01*
Y717451D01*
X925647Y717451D01*
X926626Y715844D01*
D02*
G37*
G36*
X800925Y280500D02*
X799777Y280495D01*
X797737Y280377D01*
X796844Y280266D01*
X796036Y280119D01*
X795312Y279937D01*
X794674Y279719D01*
X794121Y279466D01*
X793653Y279178D01*
X793269Y278855D01*
X791855Y280269D01*
X792178Y280653D01*
X792466Y281121D01*
X792719Y281674D01*
X792937Y282313D01*
X793119Y283036D01*
X793266Y283844D01*
X793377Y284737D01*
X793495Y286777D01*
X793500Y287925D01*
X800925Y280500D01*
D02*
G37*
G36*
X762810Y280511D02*
X762640Y280450D01*
X762490Y280350D01*
X762360Y280210D01*
X762250Y280030D01*
X762160Y279811D01*
X762090Y279550D01*
X762040Y279251D01*
X762010Y278911D01*
X762000Y278531D01*
X760000D01*
X759990Y278911D01*
X759960Y279251D01*
X759910Y279550D01*
X759840Y279811D01*
X759750Y280030D01*
X759640Y280210D01*
X759510Y280350D01*
X759360Y280450D01*
X759190Y280511D01*
X759000Y280530D01*
X763000D01*
X762810Y280511D01*
D02*
G37*
G36*
X841632Y280527D02*
X840435Y280411D01*
X837404Y279941D01*
X836581Y279744D01*
X835850Y279525D01*
X835213Y279287D01*
X834669Y279027D01*
X834218Y278747D01*
X833861Y278447D01*
X832312Y279726D01*
X832652Y280129D01*
X832944Y280609D01*
X833188Y281166D01*
X833383Y281800D01*
X833531Y282511D01*
X833629Y283298D01*
X833680Y284163D01*
X833682Y285105D01*
X833541Y287218D01*
X841632Y280527D01*
D02*
G37*
G36*
X784498Y281302D02*
X783973Y280880D01*
X783511Y280445D01*
X783110Y279995D01*
X782771Y279531D01*
X782493Y279053D01*
X782278Y278561D01*
X782123Y278055D01*
X782031Y277535D01*
X782000Y277000D01*
X780000D01*
X779969Y277535D01*
X779877Y278055D01*
X779723Y278561D01*
X779507Y279053D01*
X779229Y279531D01*
X778890Y279995D01*
X778489Y280445D01*
X778027Y280880D01*
X777503Y281302D01*
X776917Y281709D01*
X785083D01*
X784498Y281302D01*
D02*
G37*
G36*
X516599Y259381D02*
X516711Y259301D01*
X516838Y259230D01*
X516978Y259169D01*
X517132Y259118D01*
X517299Y259075D01*
X517481Y259042D01*
X517676Y259019D01*
X517884Y259005D01*
X518107Y259000D01*
Y257000D01*
X517884Y256995D01*
X517481Y256958D01*
X517299Y256925D01*
X517132Y256882D01*
X516978Y256831D01*
X516838Y256770D01*
X516711Y256699D01*
X516599Y256619D01*
X516500Y256530D01*
Y259470D01*
X516599Y259381D01*
D02*
G37*
G36*
X522599Y254381D02*
X522711Y254301D01*
X522838Y254230D01*
X522978Y254169D01*
X523132Y254118D01*
X523299Y254075D01*
X523481Y254042D01*
X523675Y254019D01*
X523884Y254005D01*
X524107Y254000D01*
Y252000D01*
X523884Y251995D01*
X523481Y251958D01*
X523299Y251925D01*
X523132Y251882D01*
X522978Y251831D01*
X522838Y251770D01*
X522711Y251699D01*
X522599Y251619D01*
X522500Y251530D01*
Y254470D01*
X522599Y254381D01*
D02*
G37*
G36*
X527599Y249381D02*
X527711Y249301D01*
X527838Y249230D01*
X527978Y249169D01*
X528132Y249118D01*
X528299Y249075D01*
X528481Y249042D01*
X528675Y249019D01*
X528884Y249005D01*
X529107Y249000D01*
Y247000D01*
X528884Y246995D01*
X528481Y246958D01*
X528299Y246925D01*
X528132Y246882D01*
X527978Y246831D01*
X527838Y246770D01*
X527711Y246699D01*
X527599Y246619D01*
X527500Y246530D01*
Y249470D01*
X527599Y249381D01*
D02*
G37*
G36*
X533107Y242846D02*
X533130Y242710D01*
X533170Y242570D01*
X533225Y242428D01*
X533298Y242283D01*
X533386Y242134D01*
X533491Y241983D01*
X533612Y241828D01*
X533750Y241671D01*
X533904Y241510D01*
X532490Y240096D01*
X532329Y240250D01*
X532017Y240509D01*
X531866Y240614D01*
X531717Y240702D01*
X531572Y240775D01*
X531430Y240830D01*
X531290Y240870D01*
X531154Y240893D01*
X531021Y240900D01*
X533100Y242979D01*
X533107Y242846D01*
D02*
G37*
%LPC*%
G36*
X593316Y696600D02*
X591684D01*
X590178Y695976D01*
X589024Y694822D01*
X588400Y693316D01*
Y691684D01*
X589024Y690178D01*
X590178Y689024D01*
X591684Y688400D01*
X593316D01*
X594823Y689024D01*
X595976Y690178D01*
X596600Y691684D01*
Y693316D01*
X595976Y694822D01*
X594823Y695976D01*
X593316Y696600D01*
D02*
G37*
G36*
X900816Y674100D02*
X899184D01*
X897678Y673476D01*
X896524Y672322D01*
X895900Y670816D01*
Y669184D01*
X896524Y667678D01*
X897678Y666524D01*
X899184Y665900D01*
X900816D01*
X902322Y666524D01*
X903476Y667678D01*
X904100Y669184D01*
Y670816D01*
X903476Y672322D01*
X902322Y673476D01*
X900816Y674100D01*
D02*
G37*
G36*
X904816Y458100D02*
X903185D01*
X901677Y457476D01*
X900524Y456323D01*
X899900Y454815D01*
Y453185D01*
X900524Y451678D01*
X901677Y450524D01*
X903185Y449900D01*
X904816D01*
X906322Y450524D01*
X907476Y451678D01*
X908100Y453185D01*
Y454815D01*
X907476Y456323D01*
X906322Y457476D01*
X904816Y458100D01*
D02*
G37*
G36*
X833316Y349100D02*
X831684D01*
X830178Y348476D01*
X829024Y347322D01*
X828400Y345816D01*
Y344184D01*
X829024Y342677D01*
X830178Y341524D01*
X831684Y340900D01*
X833316D01*
X834822Y341524D01*
X835976Y342677D01*
X836600Y344184D01*
Y345816D01*
X835976Y347322D01*
X834822Y348476D01*
X833316Y349100D01*
D02*
G37*
G36*
X698316Y676600D02*
X696684D01*
X695178Y675976D01*
X694024Y674822D01*
X693400Y673316D01*
Y671684D01*
X694024Y670178D01*
X695178Y669024D01*
X696684Y668400D01*
X698316D01*
X699822Y669024D01*
X700976Y670178D01*
X701600Y671684D01*
Y673316D01*
X700976Y674822D01*
X699822Y675976D01*
X698316Y676600D01*
D02*
G37*
G36*
X583316Y674100D02*
X581684D01*
X580178Y673476D01*
X579024Y672322D01*
X578400Y670816D01*
Y669184D01*
X579024Y667678D01*
X580178Y666524D01*
X581684Y665900D01*
X583316D01*
X584823Y666524D01*
X585976Y667678D01*
X586600Y669184D01*
Y670816D01*
X585976Y672322D01*
X584823Y673476D01*
X583316Y674100D01*
D02*
G37*
G36*
X803316Y671600D02*
X801684D01*
X800178Y670976D01*
X799024Y669822D01*
X798400Y668316D01*
Y666684D01*
X799024Y665178D01*
X800178Y664024D01*
X801684Y663400D01*
X803316D01*
X804822Y664024D01*
X805976Y665178D01*
X806600Y666684D01*
Y668316D01*
X805976Y669822D01*
X804822Y670976D01*
X803316Y671600D01*
D02*
G37*
G36*
X454815Y670100D02*
X453185D01*
X451678Y669476D01*
X450524Y668322D01*
X449900Y666815D01*
Y665184D01*
X450524Y663678D01*
X451678Y662524D01*
X453185Y661900D01*
X454815D01*
X456323Y662524D01*
X457476Y663678D01*
X458100Y665184D01*
Y666815D01*
X457476Y668322D01*
X456323Y669476D01*
X454815Y670100D01*
D02*
G37*
G36*
X863316Y669100D02*
X861684D01*
X860178Y668476D01*
X859024Y667322D01*
X858400Y665816D01*
Y664184D01*
X859024Y662678D01*
X860178Y661524D01*
X861684Y660900D01*
X863316D01*
X864822Y661524D01*
X865976Y662678D01*
X866600Y664184D01*
Y665816D01*
X865976Y667322D01*
X864822Y668476D01*
X863316Y669100D01*
D02*
G37*
G36*
X488316D02*
X486684D01*
X485177Y668476D01*
X484024Y667322D01*
X483400Y665816D01*
Y664184D01*
X484024Y662678D01*
X485177Y661524D01*
X486684Y660900D01*
X488316D01*
X489822Y661524D01*
X490976Y662678D01*
X491600Y664184D01*
Y665816D01*
X490976Y667322D01*
X489822Y668476D01*
X488316Y669100D01*
D02*
G37*
G36*
X520816Y666600D02*
X519184D01*
X517678Y665976D01*
X516524Y664822D01*
X515900Y663316D01*
Y661684D01*
X516524Y660178D01*
X517678Y659024D01*
X519184Y658400D01*
X520816D01*
X522323Y659024D01*
X523476Y660178D01*
X524100Y661684D01*
Y663316D01*
X523476Y664822D01*
X522323Y665976D01*
X520816Y666600D01*
D02*
G37*
G36*
X411815Y662100D02*
X410184D01*
X408677Y661476D01*
X407524Y660322D01*
X406900Y658816D01*
Y657185D01*
X407524Y655678D01*
X408677Y654524D01*
X410184Y653900D01*
X411815D01*
X413322Y654524D01*
X414476Y655678D01*
X415100Y657185D01*
Y658816D01*
X414476Y660322D01*
X413322Y661476D01*
X411815Y662100D01*
D02*
G37*
G36*
X661815Y655100D02*
X660184D01*
X658678Y654476D01*
X657524Y653322D01*
X656900Y651815D01*
Y650184D01*
X657524Y648678D01*
X658678Y647524D01*
X660184Y646900D01*
X661815D01*
X663322Y647524D01*
X664476Y648678D01*
X665100Y650184D01*
Y651815D01*
X664476Y653322D01*
X663322Y654476D01*
X661815Y655100D01*
D02*
G37*
G36*
X545816D02*
X544184D01*
X542678Y654476D01*
X541524Y653322D01*
X540900Y651815D01*
Y650184D01*
X541524Y648678D01*
X542678Y647524D01*
X544184Y646900D01*
X545816D01*
X547323Y647524D01*
X548476Y648678D01*
X549100Y650184D01*
Y651815D01*
X548476Y653322D01*
X547323Y654476D01*
X545816Y655100D01*
D02*
G37*
G36*
X863316Y654100D02*
X861684D01*
X860178Y653476D01*
X859024Y652322D01*
X858400Y650816D01*
Y649184D01*
X859024Y647678D01*
X860178Y646524D01*
X861684Y645900D01*
X863316D01*
X864822Y646524D01*
X865976Y647678D01*
X866600Y649184D01*
Y650816D01*
X865976Y652322D01*
X864822Y653476D01*
X863316Y654100D01*
D02*
G37*
G36*
X766815D02*
X765184D01*
X763678Y653476D01*
X762524Y652322D01*
X761900Y650816D01*
Y649184D01*
X762524Y647678D01*
X763678Y646524D01*
X765184Y645900D01*
X766815D01*
X768322Y646524D01*
X769476Y647678D01*
X770100Y649184D01*
Y650816D01*
X769476Y652322D01*
X768322Y653476D01*
X766815Y654100D01*
D02*
G37*
G36*
X470816Y650100D02*
X469184D01*
X467678Y649476D01*
X466524Y648323D01*
X465900Y646815D01*
Y645184D01*
X466524Y643678D01*
X467678Y642524D01*
X469184Y641900D01*
X470816D01*
X472322Y642524D01*
X473476Y643678D01*
X474100Y645184D01*
Y646815D01*
X473476Y648323D01*
X472322Y649476D01*
X470816Y650100D01*
D02*
G37*
G36*
X755816Y649100D02*
X754184D01*
X752678Y648476D01*
X751524Y647322D01*
X750900Y645816D01*
Y644184D01*
X751524Y642678D01*
X752678Y641524D01*
X754184Y640900D01*
X755816D01*
X757322Y641524D01*
X758476Y642678D01*
X759100Y644184D01*
Y645816D01*
X758476Y647322D01*
X757322Y648476D01*
X755816Y649100D01*
D02*
G37*
G36*
X648316D02*
X646684D01*
X645178Y648476D01*
X644024Y647322D01*
X643400Y645816D01*
Y644184D01*
X644024Y642678D01*
X645178Y641524D01*
X646684Y640900D01*
X648316D01*
X649822Y641524D01*
X650976Y642678D01*
X651600Y644184D01*
Y645816D01*
X650976Y647322D01*
X649822Y648476D01*
X648316Y649100D01*
D02*
G37*
G36*
X580816D02*
X579184D01*
X577678Y648476D01*
X576524Y647322D01*
X575900Y645816D01*
Y644184D01*
X576524Y642678D01*
X577678Y641524D01*
X579184Y640900D01*
X580816D01*
X582323Y641524D01*
X583476Y642678D01*
X584100Y644184D01*
Y645816D01*
X583476Y647322D01*
X582323Y648476D01*
X580816Y649100D01*
D02*
G37*
G36*
X533316D02*
X531684D01*
X530178Y648476D01*
X529024Y647322D01*
X528400Y645816D01*
Y644184D01*
X529024Y642678D01*
X530178Y641524D01*
X531684Y640900D01*
X533316D01*
X534823Y641524D01*
X535976Y642678D01*
X536600Y644184D01*
Y645816D01*
X535976Y647322D01*
X534823Y648476D01*
X533316Y649100D01*
D02*
G37*
G36*
X510816D02*
X509184D01*
X507677Y648476D01*
X506524Y647322D01*
X505900Y645816D01*
Y644184D01*
X506524Y642678D01*
X507677Y641524D01*
X509184Y640900D01*
X510816D01*
X512322Y641524D01*
X513476Y642678D01*
X514100Y644184D01*
Y645816D01*
X513476Y647322D01*
X512322Y648476D01*
X510816Y649100D01*
D02*
G37*
G36*
X491816D02*
X490185D01*
X488678Y648476D01*
X487524Y647322D01*
X486900Y645816D01*
Y644184D01*
X487524Y642678D01*
X488678Y641524D01*
X490185Y640900D01*
X491816D01*
X493322Y641524D01*
X494476Y642678D01*
X495100Y644184D01*
Y645816D01*
X494476Y647322D01*
X493322Y648476D01*
X491816Y649100D01*
D02*
G37*
G36*
X802815Y648100D02*
X801184D01*
X799678Y647476D01*
X798524Y646322D01*
X797900Y644816D01*
Y643185D01*
X798524Y641678D01*
X799678Y640524D01*
X801184Y639900D01*
X802815D01*
X804322Y640524D01*
X805476Y641678D01*
X806100Y643185D01*
Y644816D01*
X805476Y646322D01*
X804322Y647476D01*
X802815Y648100D01*
D02*
G37*
G36*
X695816Y646600D02*
X694184D01*
X692678Y645976D01*
X691524Y644822D01*
X690900Y643316D01*
Y641684D01*
X691524Y640178D01*
X692678Y639024D01*
X694184Y638400D01*
X695816D01*
X697322Y639024D01*
X698476Y640178D01*
X699100Y641684D01*
Y643316D01*
X698476Y644822D01*
X697322Y645976D01*
X695816Y646600D01*
D02*
G37*
G36*
X758316Y636600D02*
X756684D01*
X755178Y635976D01*
X754024Y634823D01*
X753400Y633316D01*
Y631684D01*
X754024Y630178D01*
X755178Y629024D01*
X756684Y628400D01*
X758316D01*
X759822Y629024D01*
X760976Y630178D01*
X761600Y631684D01*
Y633316D01*
X760976Y634823D01*
X759822Y635976D01*
X758316Y636600D01*
D02*
G37*
G36*
X648316Y634100D02*
X646684D01*
X645178Y633476D01*
X644024Y632323D01*
X643400Y630816D01*
Y629184D01*
X644024Y627678D01*
X645178Y626524D01*
X646684Y625900D01*
X648316D01*
X649822Y626524D01*
X650976Y627678D01*
X651600Y629184D01*
Y630816D01*
X650976Y632323D01*
X649822Y633476D01*
X648316Y634100D01*
D02*
G37*
G36*
X506566Y633600D02*
X504935D01*
X503428Y632976D01*
X502274Y631823D01*
X501650Y630316D01*
Y628685D01*
X502274Y627178D01*
X503428Y626024D01*
X504935Y625400D01*
X506566D01*
X508073Y626024D01*
X509226Y627178D01*
X509850Y628685D01*
Y630316D01*
X509226Y631823D01*
X508073Y632976D01*
X506566Y633600D01*
D02*
G37*
G36*
X775816Y629100D02*
X774184D01*
X772678Y628476D01*
X771524Y627322D01*
X770900Y625816D01*
Y624184D01*
X771524Y622677D01*
X772678Y621524D01*
X774184Y620900D01*
X775816D01*
X777322Y621524D01*
X778476Y622677D01*
X779100Y624184D01*
Y625816D01*
X778476Y627322D01*
X777322Y628476D01*
X775816Y629100D01*
D02*
G37*
G36*
X668316D02*
X666684D01*
X665178Y628476D01*
X664024Y627322D01*
X663400Y625816D01*
Y624184D01*
X664024Y622677D01*
X665178Y621524D01*
X666684Y620900D01*
X668316D01*
X669822Y621524D01*
X670976Y622677D01*
X671600Y624184D01*
Y625816D01*
X670976Y627322D01*
X669822Y628476D01*
X668316Y629100D01*
D02*
G37*
G36*
X553316D02*
X551684D01*
X550178Y628476D01*
X549024Y627322D01*
X548400Y625816D01*
Y624184D01*
X549024Y622677D01*
X550178Y621524D01*
X551684Y620900D01*
X553316D01*
X554823Y621524D01*
X555976Y622677D01*
X556600Y624184D01*
Y625816D01*
X555976Y627322D01*
X554823Y628476D01*
X553316Y629100D01*
D02*
G37*
G36*
X868816Y625100D02*
X867184D01*
X865677Y624476D01*
X864524Y623322D01*
X863900Y621815D01*
Y620185D01*
X864524Y618678D01*
X865677Y617524D01*
X867184Y616900D01*
X868816D01*
X870322Y617524D01*
X871476Y618678D01*
X872100Y620185D01*
Y621815D01*
X871476Y623322D01*
X870322Y624476D01*
X868816Y625100D01*
D02*
G37*
G36*
X533815D02*
X532184D01*
X530678Y624476D01*
X529524Y623322D01*
X528900Y621815D01*
Y620185D01*
X529524Y618678D01*
X530678Y617524D01*
X532184Y616900D01*
X533815D01*
X535322Y617524D01*
X536476Y618678D01*
X537100Y620185D01*
Y621815D01*
X536476Y623322D01*
X535322Y624476D01*
X533815Y625100D01*
D02*
G37*
G36*
X648316Y619100D02*
X646684D01*
X645178Y618476D01*
X644024Y617322D01*
X643400Y615816D01*
Y614184D01*
X644024Y612677D01*
X645178Y611524D01*
X646684Y610900D01*
X648316D01*
X649822Y611524D01*
X650976Y612677D01*
X651600Y614184D01*
Y615816D01*
X650976Y617322D01*
X649822Y618476D01*
X648316Y619100D01*
D02*
G37*
G36*
X496815Y626100D02*
X495185D01*
X493677Y625476D01*
X492524Y624322D01*
X491900Y622816D01*
Y621185D01*
X492524Y619678D01*
X493677Y618524D01*
X495185Y617900D01*
X496819Y617820D01*
X496900Y616184D01*
X497524Y614678D01*
X498677Y613524D01*
X500184Y612900D01*
X500900Y611184D01*
X501524Y609678D01*
X502678Y608524D01*
X504184Y607900D01*
X505816D01*
X507323Y608524D01*
X508476Y609678D01*
X509100Y611185D01*
Y612816D01*
X508476Y614322D01*
X507323Y615476D01*
X505816Y616100D01*
X505100Y617816D01*
X504476Y619323D01*
X503322Y620476D01*
X501815Y621100D01*
X500181Y621180D01*
X500100Y622816D01*
X499476Y624322D01*
X498322Y625476D01*
X496815Y626100D01*
D02*
G37*
G36*
X552816Y608100D02*
X551184D01*
X549678Y607476D01*
X548524Y606323D01*
X547900Y604816D01*
Y603185D01*
X548524Y601678D01*
X549678Y600524D01*
X551184Y599900D01*
X552816D01*
X554322Y600524D01*
X555476Y601678D01*
X556100Y603185D01*
Y604816D01*
X555476Y606323D01*
X554322Y607476D01*
X552816Y608100D01*
D02*
G37*
G36*
X855816Y604100D02*
X854184D01*
X852678Y603476D01*
X851524Y602322D01*
X850900Y600816D01*
Y599184D01*
X851524Y597677D01*
X852678Y596524D01*
X854184Y595900D01*
X855816D01*
X857322Y596524D01*
X858476Y597677D01*
X859100Y599184D01*
Y600816D01*
X858476Y602322D01*
X857322Y603476D01*
X855816Y604100D01*
D02*
G37*
G36*
X775816D02*
X774184D01*
X772678Y603476D01*
X771524Y602322D01*
X770900Y600816D01*
Y599184D01*
X771524Y597677D01*
X772678Y596524D01*
X774184Y595900D01*
X775816D01*
X777322Y596524D01*
X778476Y597677D01*
X779100Y599184D01*
Y600816D01*
X778476Y602322D01*
X777322Y603476D01*
X775816Y604100D01*
D02*
G37*
G36*
X748316D02*
X746684D01*
X745178Y603476D01*
X744024Y602322D01*
X743400Y600816D01*
Y599184D01*
X744024Y597677D01*
X745178Y596524D01*
X746684Y595900D01*
X748316D01*
X749822Y596524D01*
X750976Y597677D01*
X751600Y599184D01*
Y600816D01*
X750976Y602322D01*
X749822Y603476D01*
X748316Y604100D01*
D02*
G37*
G36*
X668316D02*
X666684D01*
X665178Y603476D01*
X664024Y602322D01*
X663400Y600816D01*
Y599184D01*
X664024Y597677D01*
X665178Y596524D01*
X666684Y595900D01*
X668316D01*
X669822Y596524D01*
X670976Y597677D01*
X671600Y599184D01*
Y600816D01*
X670976Y602322D01*
X669822Y603476D01*
X668316Y604100D01*
D02*
G37*
G36*
X633316D02*
X631684D01*
X630178Y603476D01*
X629024Y602322D01*
X628400Y600816D01*
Y599184D01*
X629024Y597677D01*
X630178Y596524D01*
X631684Y595900D01*
X633316D01*
X634823Y596524D01*
X635976Y597677D01*
X636600Y599184D01*
Y600816D01*
X635976Y602322D01*
X634823Y603476D01*
X633316Y604100D01*
D02*
G37*
G36*
X447566Y601600D02*
X445934D01*
X444428Y600976D01*
X443274Y599822D01*
X442650Y598316D01*
Y596684D01*
X443274Y595177D01*
X444428Y594024D01*
X445934Y593400D01*
X447566D01*
X449072Y594024D01*
X450226Y595177D01*
X450850Y596684D01*
Y598316D01*
X450226Y599822D01*
X449072Y600976D01*
X447566Y601600D01*
D02*
G37*
G36*
X597816Y601100D02*
X596185D01*
X594678Y600476D01*
X593524Y599322D01*
X592900Y597816D01*
Y596185D01*
X593524Y594678D01*
X594678Y593524D01*
X596185Y592900D01*
X597816D01*
X599322Y593524D01*
X600476Y594678D01*
X601100Y596185D01*
Y597816D01*
X600476Y599322D01*
X599322Y600476D01*
X597816Y601100D01*
D02*
G37*
G36*
X412816Y600100D02*
X411184D01*
X409678Y599476D01*
X408524Y598322D01*
X407900Y596815D01*
Y595185D01*
X408524Y593678D01*
X409678Y592524D01*
X411184Y591900D01*
X412816D01*
X414322Y592524D01*
X415476Y593678D01*
X416100Y595185D01*
Y596815D01*
X415476Y598322D01*
X414322Y599476D01*
X412816Y600100D01*
D02*
G37*
G36*
X813316Y599100D02*
X811684D01*
X810178Y598476D01*
X809024Y597323D01*
X808400Y595816D01*
Y594184D01*
X809024Y592678D01*
X810178Y591524D01*
X811684Y590900D01*
X813316D01*
X814822Y591524D01*
X815976Y592678D01*
X816600Y594184D01*
Y595816D01*
X815976Y597323D01*
X814822Y598476D01*
X813316Y599100D01*
D02*
G37*
G36*
X705816D02*
X704184D01*
X702678Y598476D01*
X701524Y597323D01*
X700900Y595816D01*
Y594184D01*
X701524Y592678D01*
X702678Y591524D01*
X704184Y590900D01*
X705816D01*
X707322Y591524D01*
X708476Y592678D01*
X709100Y594184D01*
Y595816D01*
X708476Y597323D01*
X707322Y598476D01*
X705816Y599100D01*
D02*
G37*
G36*
X557551Y589889D02*
X555920D01*
X554413Y589264D01*
X553260Y588111D01*
X552635Y586604D01*
Y584973D01*
X553260Y583466D01*
X554413Y582313D01*
X555920Y581689D01*
X557551D01*
X559058Y582313D01*
X560211Y583466D01*
X560835Y584973D01*
Y586604D01*
X560211Y588111D01*
X559058Y589264D01*
X557551Y589889D01*
D02*
G37*
G36*
X467566Y587600D02*
X465934D01*
X464428Y586976D01*
X463274Y585822D01*
X462650Y584315D01*
Y582685D01*
X463274Y581178D01*
X464428Y580024D01*
X465934Y579400D01*
X467566D01*
X469072Y580024D01*
X470226Y581178D01*
X470850Y582685D01*
Y584315D01*
X470226Y585822D01*
X469072Y586976D01*
X467566Y587600D01*
D02*
G37*
G36*
X875816Y584100D02*
X874184D01*
X872678Y583476D01*
X871524Y582323D01*
X870900Y580816D01*
Y579184D01*
X871524Y577678D01*
X872678Y576524D01*
X874184Y575900D01*
X875816D01*
X877322Y576524D01*
X878476Y577678D01*
X879100Y579184D01*
Y580816D01*
X878476Y582323D01*
X877322Y583476D01*
X875816Y584100D01*
D02*
G37*
G36*
X661815D02*
X660184D01*
X658678Y583476D01*
X657524Y582323D01*
X656900Y580816D01*
Y579184D01*
X657524Y577678D01*
X658678Y576524D01*
X660184Y575900D01*
X661815D01*
X663322Y576524D01*
X664476Y577678D01*
X665100Y579184D01*
Y580816D01*
X664476Y582323D01*
X663322Y583476D01*
X661815Y584100D01*
D02*
G37*
G36*
X452816Y583100D02*
X451185D01*
X449678Y582476D01*
X448524Y581323D01*
X447900Y579816D01*
Y578185D01*
X448524Y576678D01*
X449678Y575524D01*
X451185Y574900D01*
X452816D01*
X454323Y575524D01*
X455476Y576678D01*
X456100Y578185D01*
Y579816D01*
X455476Y581323D01*
X454323Y582476D01*
X452816Y583100D01*
D02*
G37*
G36*
X622066Y580850D02*
X620434D01*
X618927Y580226D01*
X617774Y579072D01*
X617150Y577565D01*
Y575934D01*
X617774Y574428D01*
X618927Y573274D01*
X620434Y572650D01*
X622066D01*
X623572Y573274D01*
X624726Y574428D01*
X625350Y575934D01*
Y577565D01*
X624726Y579072D01*
X623572Y580226D01*
X622066Y580850D01*
D02*
G37*
G36*
X407816Y580100D02*
X406185D01*
X404678Y579476D01*
X403524Y578322D01*
X402900Y576815D01*
Y575184D01*
X403524Y573677D01*
X404678Y572524D01*
X406185Y571900D01*
X407816D01*
X409322Y572524D01*
X410476Y573677D01*
X411100Y575184D01*
Y576815D01*
X410476Y578322D01*
X409322Y579476D01*
X407816Y580100D01*
D02*
G37*
G36*
X852815Y578100D02*
X851184D01*
X849678Y577476D01*
X848524Y576322D01*
X847900Y574815D01*
Y573185D01*
X848524Y571678D01*
X849678Y570524D01*
X851184Y569900D01*
X852815D01*
X854322Y570524D01*
X855476Y571678D01*
X856100Y573185D01*
Y574815D01*
X855476Y576322D01*
X854322Y577476D01*
X852815Y578100D01*
D02*
G37*
G36*
X599566Y573600D02*
X597934D01*
X596428Y572976D01*
X595274Y571823D01*
X594650Y570316D01*
Y568685D01*
X595274Y567178D01*
X596428Y566024D01*
X597934Y565400D01*
X599566D01*
X601073Y566024D01*
X602226Y567178D01*
X602850Y568685D01*
Y570316D01*
X602226Y571823D01*
X601073Y572976D01*
X599566Y573600D01*
D02*
G37*
G36*
X573566D02*
X571935D01*
X570428Y572976D01*
X569274Y571823D01*
X568650Y570316D01*
Y568685D01*
X569274Y567178D01*
X570428Y566024D01*
X571935Y565400D01*
X573566D01*
X575073Y566024D01*
X576226Y567178D01*
X576850Y568685D01*
Y570316D01*
X576226Y571823D01*
X575073Y572976D01*
X573566Y573600D01*
D02*
G37*
G36*
X790816Y567100D02*
X789184D01*
X787678Y566476D01*
X786524Y565322D01*
X785900Y563815D01*
Y562184D01*
X786524Y560677D01*
X787678Y559524D01*
X789184Y558900D01*
X790816D01*
X792322Y559524D01*
X793476Y560677D01*
X794100Y562184D01*
Y563815D01*
X793476Y565322D01*
X792322Y566476D01*
X790816Y567100D01*
D02*
G37*
G36*
X453816Y569100D02*
X452184D01*
X450678Y568476D01*
X449524Y567322D01*
X448900Y565816D01*
Y565815D01*
X448820Y564180D01*
X447184Y564100D01*
X445677Y563476D01*
X444524Y562322D01*
X443900Y560816D01*
Y559184D01*
X443931Y559110D01*
X441387Y557411D01*
X441323Y557476D01*
X439816Y558100D01*
X438185D01*
X436678Y557476D01*
X435524Y556323D01*
X434900Y554816D01*
Y553185D01*
X435524Y551678D01*
X436678Y550524D01*
X438185Y549900D01*
X439816D01*
X441323Y550524D01*
X442476Y551678D01*
X443100Y553185D01*
Y554816D01*
X443069Y554890D01*
X445612Y556589D01*
X445677Y556524D01*
X447184Y555900D01*
X448815D01*
X450322Y556524D01*
X451476Y557677D01*
X452100Y559184D01*
Y559185D01*
X452180Y560820D01*
X453816Y560900D01*
X455322Y561524D01*
X456476Y562677D01*
X457100Y564184D01*
Y565816D01*
X456476Y567322D01*
X455322Y568476D01*
X453816Y569100D01*
D02*
G37*
G36*
X836815Y571100D02*
X835184D01*
X833678Y570476D01*
X832524Y569323D01*
X831900Y567816D01*
Y566185D01*
X832472Y564805D01*
X831678Y564476D01*
X830524Y563322D01*
X829900Y561815D01*
Y560185D01*
X830524Y558677D01*
X831678Y557524D01*
X833185Y556900D01*
X834816D01*
X836322Y557524D01*
X837476Y558677D01*
X838100Y560185D01*
Y561815D01*
X837528Y563195D01*
X838323Y563524D01*
X839476Y564678D01*
X840100Y566185D01*
Y567816D01*
X839476Y569323D01*
X838323Y570476D01*
X836815Y571100D01*
D02*
G37*
G36*
X615316Y563100D02*
X613684D01*
X612178Y562476D01*
X611024Y561322D01*
X610400Y559815D01*
Y558185D01*
X611024Y556678D01*
X612178Y555524D01*
X613684Y554900D01*
X615316D01*
X616822Y555524D01*
X617976Y556678D01*
X618600Y558185D01*
Y559815D01*
X617976Y561322D01*
X616822Y562476D01*
X615316Y563100D01*
D02*
G37*
G36*
X820816Y556600D02*
X819184D01*
X817678Y555976D01*
X816524Y554823D01*
X815900Y553316D01*
Y551684D01*
X816524Y550178D01*
X817678Y549024D01*
X819184Y548400D01*
X820816D01*
X822322Y549024D01*
X823476Y550178D01*
X824100Y551684D01*
Y553316D01*
X823476Y554823D01*
X822322Y555976D01*
X820816Y556600D01*
D02*
G37*
G36*
X465816Y569100D02*
X464184D01*
X462678Y568476D01*
X461524Y567322D01*
X460900Y565816D01*
Y564184D01*
X461524Y562677D01*
X461830Y562372D01*
X462378Y560500D01*
X461830Y558628D01*
X461524Y558322D01*
X460900Y556815D01*
Y555185D01*
X461524Y553678D01*
X462654Y552500D01*
X461524Y551322D01*
X460900Y549815D01*
Y548185D01*
X461524Y546678D01*
X462678Y545524D01*
X464184Y544900D01*
X465816D01*
X467323Y545524D01*
X468476Y546678D01*
X468818Y547504D01*
X470782Y548481D01*
X472988Y548214D01*
X473677Y547524D01*
X475184Y546900D01*
X476815D01*
X478322Y547524D01*
X479476Y548677D01*
X480100Y550184D01*
Y551815D01*
X479476Y553322D01*
X478322Y554476D01*
X476815Y555100D01*
X475184D01*
X473677Y554476D01*
X472524Y553322D01*
X472181Y552494D01*
X470209Y551513D01*
X469327Y551629D01*
X468476Y553678D01*
X469100Y555185D01*
Y556815D01*
X468476Y558322D01*
X468170Y558628D01*
X467622Y560500D01*
X468170Y562372D01*
X468476Y562677D01*
X469100Y564184D01*
Y565816D01*
X468476Y567322D01*
X467323Y568476D01*
X465816Y569100D01*
D02*
G37*
G36*
X624318Y554308D02*
X622686D01*
X621180Y553684D01*
X620026Y552531D01*
X619402Y551024D01*
Y549393D01*
X620026Y547886D01*
X621180Y546732D01*
X622686Y546108D01*
X624318D01*
X625824Y546732D01*
X626978Y547886D01*
X627602Y549393D01*
Y551024D01*
X626978Y552531D01*
X625824Y553684D01*
X624318Y554308D01*
D02*
G37*
G36*
X810816Y549100D02*
X809184D01*
X807678Y548476D01*
X806524Y547323D01*
X805900Y545816D01*
Y544184D01*
X806524Y542678D01*
X807678Y541524D01*
X809184Y540900D01*
X810816D01*
X812322Y541524D01*
X813476Y542678D01*
X814100Y544184D01*
Y545816D01*
X813476Y547323D01*
X812322Y548476D01*
X810816Y549100D01*
D02*
G37*
G36*
X743566Y542600D02*
X741935D01*
X740428Y541976D01*
X739274Y540822D01*
X738650Y539315D01*
Y537684D01*
X739274Y536177D01*
X740428Y535024D01*
X741935Y534400D01*
X743566D01*
X745072Y535024D01*
X746226Y536177D01*
X746850Y537684D01*
Y539315D01*
X746226Y540822D01*
X745072Y541976D01*
X743566Y542600D01*
D02*
G37*
G36*
X848816Y539100D02*
X847185D01*
X845678Y538476D01*
X844524Y537322D01*
X843900Y535816D01*
Y534184D01*
X844524Y532677D01*
X845678Y531524D01*
X847185Y530900D01*
X848816D01*
X850322Y531524D01*
X851476Y532677D01*
X852100Y534184D01*
Y535816D01*
X851476Y537322D01*
X850322Y538476D01*
X848816Y539100D01*
D02*
G37*
G36*
X772815D02*
X771184D01*
X769678Y538476D01*
X768524Y537322D01*
X767900Y535816D01*
Y534184D01*
X768524Y532677D01*
X769678Y531524D01*
X771184Y530900D01*
X772815D01*
X774323Y531524D01*
X775476Y532677D01*
X776100Y534184D01*
Y535816D01*
X775476Y537322D01*
X774323Y538476D01*
X772815Y539100D01*
D02*
G37*
G36*
X873816Y537100D02*
X872185D01*
X870678Y536476D01*
X869524Y535322D01*
X868900Y533815D01*
Y532184D01*
X869524Y530678D01*
X870678Y529524D01*
X872185Y528900D01*
X873816D01*
X875322Y529524D01*
X876476Y530678D01*
X877100Y532184D01*
Y533815D01*
X876476Y535322D01*
X875322Y536476D01*
X873816Y537100D01*
D02*
G37*
G36*
X795816Y535600D02*
X794184D01*
X792678Y534976D01*
X791524Y533823D01*
X790900Y532315D01*
Y530685D01*
X791524Y529178D01*
X792678Y528024D01*
X794184Y527400D01*
X795816D01*
X797322Y528024D01*
X798476Y529178D01*
X799100Y530685D01*
Y532315D01*
X798476Y533823D01*
X797322Y534976D01*
X795816Y535600D01*
D02*
G37*
G36*
X517816Y535100D02*
X516185D01*
X514678Y534476D01*
X513524Y533322D01*
X512900Y531815D01*
Y530185D01*
X513524Y528678D01*
X514678Y527524D01*
X516185Y526900D01*
X517816D01*
X519323Y527524D01*
X520476Y528678D01*
X521100Y530185D01*
Y531815D01*
X520476Y533322D01*
X519323Y534476D01*
X517816Y535100D01*
D02*
G37*
G36*
X450816Y531600D02*
X449184D01*
X447677Y530976D01*
X446524Y529823D01*
X445900Y528316D01*
Y526684D01*
X446524Y525178D01*
X447677Y524024D01*
X449184Y523400D01*
X450816D01*
X452322Y524024D01*
X453476Y525178D01*
X454100Y526684D01*
Y528316D01*
X453476Y529823D01*
X452322Y530976D01*
X450816Y531600D01*
D02*
G37*
G36*
X407816Y529100D02*
X406185D01*
X404678Y528476D01*
X403524Y527322D01*
X402900Y525816D01*
Y524184D01*
X403524Y522677D01*
X404678Y521524D01*
X406185Y520900D01*
X407816D01*
X409322Y521524D01*
X410476Y522677D01*
X411100Y524184D01*
Y525816D01*
X410476Y527322D01*
X409322Y528476D01*
X407816Y529100D01*
D02*
G37*
G36*
X745316Y526100D02*
X743684D01*
X742178Y525476D01*
X741024Y524322D01*
X740400Y522816D01*
Y521185D01*
X741024Y519678D01*
X742178Y518524D01*
X743684Y517900D01*
X745316D01*
X746823Y518524D01*
X747976Y519678D01*
X748600Y521185D01*
Y522816D01*
X747976Y524322D01*
X746823Y525476D01*
X745316Y526100D01*
D02*
G37*
G36*
X702566Y523600D02*
X700935D01*
X699428Y522976D01*
X698274Y521823D01*
X697650Y520316D01*
Y518685D01*
X698274Y517178D01*
X699428Y516024D01*
X700935Y515400D01*
X702566D01*
X704072Y516024D01*
X705226Y517178D01*
X705850Y518685D01*
Y520316D01*
X705226Y521823D01*
X704072Y522976D01*
X702566Y523600D01*
D02*
G37*
G36*
X625316Y520600D02*
X623685D01*
X622178Y519976D01*
X621024Y518823D01*
X620400Y517316D01*
Y515685D01*
X621024Y514178D01*
X622178Y513024D01*
X623685Y512400D01*
X625316D01*
X626822Y513024D01*
X627976Y514178D01*
X628600Y515685D01*
Y517316D01*
X627976Y518823D01*
X626822Y519976D01*
X625316Y520600D01*
D02*
G37*
G36*
X529316Y519850D02*
X527685D01*
X526178Y519226D01*
X525024Y518072D01*
X524400Y516566D01*
Y514935D01*
X525024Y513428D01*
X526178Y512274D01*
X527685Y511650D01*
X529316D01*
X530822Y512274D01*
X531976Y513428D01*
X532600Y514935D01*
Y516566D01*
X531976Y518072D01*
X530822Y519226D01*
X529316Y519850D01*
D02*
G37*
G36*
X517816Y515100D02*
X516185D01*
X514678Y514476D01*
X513524Y513322D01*
X512900Y511815D01*
Y510185D01*
X513524Y508677D01*
X514678Y507524D01*
X516185Y506900D01*
X517816D01*
X519323Y507524D01*
X520476Y508677D01*
X521100Y510185D01*
Y511815D01*
X520476Y513322D01*
X519323Y514476D01*
X517816Y515100D01*
D02*
G37*
G36*
X690565Y513600D02*
X688934D01*
X687428Y512976D01*
X686274Y511822D01*
X685650Y510316D01*
Y508685D01*
X686274Y507178D01*
X687428Y506024D01*
X688934Y505400D01*
X690565D01*
X692073Y506024D01*
X693226Y507178D01*
X693850Y508685D01*
Y510316D01*
X693226Y511822D01*
X692073Y512976D01*
X690565Y513600D01*
D02*
G37*
G36*
X648816Y519100D02*
X647185D01*
X645678Y518476D01*
X644524Y517323D01*
X643900Y515816D01*
Y514184D01*
X644524Y512678D01*
X645678Y511524D01*
X647128Y510923D01*
X647185Y510900D01*
X649125Y510125D01*
X649900Y508185D01*
X649923Y508128D01*
X650524Y506678D01*
X651677Y505524D01*
X653184Y504900D01*
X654816D01*
X656322Y505524D01*
X657476Y506678D01*
X658100Y508185D01*
Y509815D01*
X657476Y511322D01*
X656322Y512476D01*
X654872Y513077D01*
X654816Y513100D01*
X652875Y513875D01*
X652100Y515816D01*
X652077Y515872D01*
X651476Y517323D01*
X650322Y518476D01*
X648816Y519100D01*
D02*
G37*
G36*
X422066Y511350D02*
X420434D01*
X418928Y510726D01*
X417774Y509572D01*
X417150Y508066D01*
Y506435D01*
X417774Y504928D01*
X418928Y503774D01*
X420434Y503150D01*
X422066D01*
X423573Y503774D01*
X424726Y504928D01*
X425350Y506435D01*
Y508066D01*
X424726Y509572D01*
X423573Y510726D01*
X422066Y511350D01*
D02*
G37*
G36*
X605316Y508600D02*
X603685D01*
X602178Y507976D01*
X601024Y506823D01*
X600400Y505316D01*
Y503685D01*
X601024Y502178D01*
X602178Y501024D01*
X603685Y500400D01*
X605316D01*
X606823Y501024D01*
X607976Y502178D01*
X608600Y503685D01*
Y505316D01*
X607976Y506823D01*
X606823Y507976D01*
X605316Y508600D01*
D02*
G37*
G36*
X456065Y512850D02*
X454434D01*
X452928Y512226D01*
X451774Y511073D01*
X451150Y509566D01*
Y507934D01*
X451774Y506428D01*
X452928Y505274D01*
X454434Y504650D01*
X456065D01*
X456149Y504685D01*
X457619Y503223D01*
X458147Y502265D01*
X457650Y501065D01*
Y499435D01*
X458274Y497928D01*
X459428Y496774D01*
X460934Y496150D01*
X462565D01*
X464072Y496774D01*
X465226Y497928D01*
X465850Y499435D01*
Y501065D01*
X465226Y502573D01*
X464072Y503726D01*
X462565Y504350D01*
X460934D01*
X460851Y504315D01*
X459381Y505777D01*
X458853Y506735D01*
X459350Y507934D01*
Y509566D01*
X458726Y511073D01*
X457572Y512226D01*
X456065Y512850D01*
D02*
G37*
G36*
X524566Y500100D02*
X522934D01*
X521428Y499476D01*
X520274Y498322D01*
X519650Y496815D01*
Y495185D01*
X520274Y493677D01*
X521428Y492524D01*
X522934Y491900D01*
X524566D01*
X526073Y492524D01*
X527226Y493677D01*
X527850Y495185D01*
Y496815D01*
X527226Y498322D01*
X526073Y499476D01*
X524566Y500100D01*
D02*
G37*
G36*
X701566Y498600D02*
X699934D01*
X698428Y497976D01*
X697274Y496823D01*
X696650Y495316D01*
Y493685D01*
X697274Y492178D01*
X698428Y491024D01*
X699934Y490400D01*
X701566D01*
X703073Y491024D01*
X704226Y492178D01*
X704850Y493685D01*
Y495316D01*
X704226Y496823D01*
X703073Y497976D01*
X701566Y498600D01*
D02*
G37*
G36*
X486566Y496100D02*
X484935D01*
X483428Y495476D01*
X482274Y494323D01*
X481650Y492816D01*
Y491185D01*
X482274Y489678D01*
X483428Y488524D01*
X484935Y487900D01*
X486566D01*
X488073Y488524D01*
X489226Y489678D01*
X489850Y491185D01*
Y492816D01*
X489226Y494323D01*
X488073Y495476D01*
X486566Y496100D01*
D02*
G37*
G36*
X654816Y494100D02*
X653184D01*
X651677Y493476D01*
X650524Y492323D01*
X649900Y490816D01*
Y489184D01*
X650524Y487678D01*
X651677Y486524D01*
X653184Y485900D01*
X654816D01*
X656322Y486524D01*
X657476Y487678D01*
X658100Y489184D01*
Y490816D01*
X657476Y492323D01*
X656322Y493476D01*
X654816Y494100D01*
D02*
G37*
G36*
X765316Y530600D02*
X763684D01*
X762178Y529976D01*
X761024Y528823D01*
X760400Y527316D01*
Y525685D01*
X760932Y524400D01*
X761024Y524178D01*
X761566Y522375D01*
X761024Y520572D01*
X760999Y520512D01*
X760554Y519438D01*
X736457Y495341D01*
X736015Y494679D01*
X735999Y494600D01*
X734684D01*
X733177Y493976D01*
X732024Y492822D01*
X731400Y491316D01*
Y490001D01*
X731320Y489985D01*
X730659Y489543D01*
X699558Y458442D01*
X699116Y457780D01*
X698961Y457000D01*
Y455962D01*
X698900Y455816D01*
Y454184D01*
X698961Y454038D01*
Y444752D01*
X699000Y444555D01*
Y444355D01*
X699077Y444169D01*
X699116Y443972D01*
X699228Y443805D01*
X699305Y443619D01*
X699446Y443477D01*
X699558Y443310D01*
X699524Y442322D01*
X698900Y440816D01*
Y439184D01*
X699524Y437678D01*
X699558Y436690D01*
X699446Y436523D01*
X699305Y436381D01*
X699228Y436195D01*
X699116Y436028D01*
X699077Y435831D01*
X699000Y435645D01*
Y435445D01*
X698961Y435248D01*
Y429000D01*
X698961Y429000D01*
X699116Y428220D01*
X699558Y427558D01*
X699558Y427558D01*
X708159Y418957D01*
X707524Y418322D01*
X706900Y416815D01*
Y415185D01*
X707524Y413678D01*
X708678Y412524D01*
X710184Y411900D01*
X711815D01*
X713322Y412524D01*
X713957Y413159D01*
X738558Y388558D01*
X739220Y388116D01*
X740000Y387961D01*
X809900D01*
Y387184D01*
X810677Y384476D01*
X809524Y383322D01*
X808900Y381815D01*
Y380185D01*
X809524Y378678D01*
X810678Y377524D01*
X812185Y376900D01*
X813816D01*
X815322Y377524D01*
X816476Y378678D01*
X817100Y380185D01*
Y381815D01*
X816322Y384524D01*
X817476Y385677D01*
X819678Y386524D01*
X821184Y385900D01*
X822816D01*
X824323Y386524D01*
X825476Y387678D01*
X825632Y388054D01*
X826100Y387961D01*
X840000D01*
X840000Y387961D01*
X840780Y388116D01*
X841442Y388558D01*
X851442Y398558D01*
X851884Y399220D01*
X852039Y400000D01*
Y475243D01*
X852611Y475573D01*
X855039Y476163D01*
X855678Y475524D01*
X857185Y474900D01*
X858816D01*
X860322Y475524D01*
X861476Y476678D01*
X862100Y478185D01*
Y479816D01*
X861476Y481323D01*
X860322Y482476D01*
X858816Y483100D01*
X857185D01*
X855678Y482476D01*
X855039Y481837D01*
X852611Y482427D01*
X852039Y482757D01*
Y500000D01*
X852039Y500000D01*
X851884Y500780D01*
X851442Y501442D01*
X851442Y501442D01*
X848100Y504784D01*
Y504816D01*
X847476Y506323D01*
X846322Y507476D01*
X844816Y508100D01*
X844784D01*
X831442Y521442D01*
X830780Y521884D01*
X830000Y522039D01*
X823531D01*
X823100Y522685D01*
Y524315D01*
X822476Y525822D01*
X821322Y526976D01*
X819816Y527600D01*
X818184D01*
X816677Y526976D01*
X815524Y525822D01*
X814900Y524315D01*
Y522685D01*
X814469Y522039D01*
X770080D01*
X769456Y522673D01*
X768333Y525039D01*
X768600Y525685D01*
Y527316D01*
X767976Y528823D01*
X766823Y529976D01*
X765316Y530600D01*
D02*
G37*
G36*
X691565Y481600D02*
X689934D01*
X688428Y480976D01*
X687274Y479823D01*
X686650Y478316D01*
Y476684D01*
X687274Y475178D01*
X688428Y474024D01*
X689934Y473400D01*
X691565D01*
X693073Y474024D01*
X694226Y475178D01*
X694850Y476684D01*
Y478316D01*
X694226Y479823D01*
X693073Y480976D01*
X691565Y481600D01*
D02*
G37*
G36*
X465565Y477850D02*
X463935D01*
X462427Y477226D01*
X461274Y476073D01*
X460650Y474566D01*
Y472934D01*
X461274Y471428D01*
X462427Y470274D01*
X463935Y469650D01*
X465565D01*
X467072Y470274D01*
X468226Y471428D01*
X468850Y472934D01*
Y474566D01*
X468226Y476073D01*
X467072Y477226D01*
X465565Y477850D01*
D02*
G37*
G36*
X590000Y557039D02*
X580000D01*
X579220Y556884D01*
X578558Y556442D01*
X568558Y546442D01*
X538558Y516442D01*
X538116Y515780D01*
X537961Y515000D01*
Y484595D01*
X538101Y483890D01*
X537029Y482818D01*
X536405Y481311D01*
Y479680D01*
X537029Y478173D01*
X537906Y476495D01*
X537024Y474822D01*
X536400Y473316D01*
Y471684D01*
X537024Y470178D01*
X537903Y468500D01*
X537024Y466823D01*
X536400Y465316D01*
Y463685D01*
X537024Y462178D01*
X537903Y460500D01*
X537024Y458823D01*
X536400Y457315D01*
Y455685D01*
X537024Y454178D01*
X538178Y453024D01*
X539684Y452400D01*
X541316D01*
X542019Y452691D01*
X542207Y452409D01*
X553558Y441058D01*
X554220Y440616D01*
X555000Y440461D01*
X560891D01*
X561671Y440616D01*
X562332Y441058D01*
X562333Y441058D01*
X562713Y441627D01*
X562862Y441777D01*
X566138Y441777D01*
X566303Y441611D01*
X566485Y441490D01*
X566643Y441338D01*
X566813Y441271D01*
X566965Y441169D01*
X567179Y441126D01*
X567383Y441046D01*
X568138Y440910D01*
X568500Y440917D01*
X568862Y440910D01*
X569617Y441046D01*
X569821Y441126D01*
X570035Y441169D01*
X570187Y441271D01*
X570357Y441338D01*
X570515Y441490D01*
X570697Y441611D01*
X571333Y442247D01*
X571349Y442254D01*
X574113Y440664D01*
X574369Y439315D01*
X573204Y437559D01*
X572235Y436600D01*
X571684D01*
X570178Y435976D01*
X568500Y435097D01*
X566822Y435976D01*
X565316Y436600D01*
X563684D01*
X562178Y435976D01*
X561024Y434822D01*
X560400Y433316D01*
Y431684D01*
X561024Y430177D01*
X562178Y429024D01*
X563684Y428400D01*
X565316D01*
X566782Y429007D01*
X566881Y428966D01*
X568966Y426881D01*
X569007Y426782D01*
X568400Y425316D01*
Y423684D01*
X569024Y422178D01*
X569903Y420500D01*
X569024Y418823D01*
X568400Y417315D01*
Y415685D01*
X568794Y414734D01*
X568619Y414121D01*
X567858Y413436D01*
X567645Y413274D01*
X565847Y412380D01*
X565316Y412600D01*
X563684D01*
X562178Y411976D01*
X561024Y410822D01*
X560400Y409315D01*
Y407685D01*
X558551Y405230D01*
X557672Y404892D01*
X556566Y405350D01*
X554935D01*
X553428Y404726D01*
X550822Y403976D01*
X549315Y404600D01*
X547685D01*
X546177Y403976D01*
X545024Y402822D01*
X544400Y401316D01*
Y399684D01*
X545024Y398178D01*
X546177Y397024D01*
X547685Y396400D01*
X549315D01*
X550822Y397024D01*
X552601Y397536D01*
X555441Y395835D01*
Y390750D01*
X555441Y390750D01*
X555674Y389580D01*
X556337Y388587D01*
X557767Y387157D01*
X557818Y386153D01*
X557317Y383365D01*
X556774Y382822D01*
X556150Y381315D01*
Y379684D01*
X556774Y378178D01*
X557928Y377024D01*
X559435Y376400D01*
X561065D01*
X561941Y375815D01*
Y370740D01*
X561524Y370322D01*
X560900Y368815D01*
Y367184D01*
X561295Y366231D01*
X561504Y365613D01*
X560677Y362976D01*
X559524Y361822D01*
X558900Y360316D01*
Y358684D01*
X559524Y357178D01*
X560677Y356024D01*
X562184Y355400D01*
X563815D01*
X565322Y356024D01*
X566476Y357178D01*
X567100Y358684D01*
Y359274D01*
X574017Y366191D01*
X584637D01*
X586900Y363815D01*
Y362184D01*
X587524Y360678D01*
X588678Y359524D01*
X590185Y358900D01*
X591816D01*
X593322Y359524D01*
X594040Y360242D01*
X594992Y360655D01*
X597665Y360537D01*
X597928Y360274D01*
X599435Y359650D01*
X601065D01*
X601900Y359092D01*
Y358935D01*
X602524Y357428D01*
X603678Y356274D01*
X605185Y355650D01*
X606816D01*
X608322Y356274D01*
X609476Y357428D01*
X610100Y358935D01*
Y360565D01*
X609476Y362072D01*
X608357Y363191D01*
X608360Y363391D01*
X609003Y366191D01*
X612048D01*
X612702Y365537D01*
X613695Y364874D01*
X614865Y364641D01*
X614865Y364641D01*
X621450D01*
X621450Y364641D01*
X622621Y364874D01*
X623613Y365537D01*
X624726Y366650D01*
X625316D01*
X626822Y367274D01*
X627976Y368428D01*
X628600Y369935D01*
Y371566D01*
X627976Y373073D01*
X626822Y374226D01*
X625316Y374850D01*
X623685D01*
X622178Y374226D01*
X620208Y376410D01*
X620226Y376427D01*
X620850Y377934D01*
Y379566D01*
X623018Y382172D01*
X626000D01*
X626000Y382172D01*
X627561Y382482D01*
X628884Y383366D01*
X639384Y393866D01*
X640268Y395189D01*
X640578Y396750D01*
X640578Y396750D01*
Y407632D01*
X640600Y407685D01*
Y409315D01*
X639976Y410822D01*
X639097Y412500D01*
X639976Y414178D01*
X640600Y415684D01*
Y417315D01*
X639976Y418822D01*
X638822Y419976D01*
X637315Y420600D01*
X635685D01*
X634178Y419976D01*
X633024Y418822D01*
X632400Y417315D01*
Y415684D01*
X633010Y414212D01*
X632975Y414128D01*
X630862Y412015D01*
X630787Y411984D01*
X629311Y412595D01*
X627680D01*
X626173Y411971D01*
X624490Y411099D01*
X622822Y411986D01*
X621315Y412610D01*
X619684D01*
X618177Y411986D01*
X617024Y410832D01*
X616400Y409325D01*
Y407694D01*
X617024Y406187D01*
X618177Y405034D01*
X619684Y404410D01*
X621315D01*
X622822Y405034D01*
X624505Y405906D01*
X626173Y405019D01*
X627680Y404395D01*
X629311D01*
X629422Y404441D01*
X632399Y402717D01*
X632422Y402684D01*
Y398439D01*
X624311Y390328D01*
X573439D01*
X568828Y394939D01*
Y402454D01*
X571684Y404400D01*
X573316D01*
X574822Y405024D01*
X575040Y405242D01*
X576457Y406061D01*
X578678Y405524D01*
X580185Y404900D01*
X581815D01*
X583322Y405524D01*
X584476Y406678D01*
X585100Y408185D01*
Y409815D01*
X584476Y411322D01*
X583332Y412500D01*
X583976Y414178D01*
X584600Y415685D01*
Y417315D01*
X585031Y417961D01*
X594236D01*
X595016Y418116D01*
X595016Y418116D01*
X596090Y418561D01*
X596910D01*
X597984Y418116D01*
X597984Y418116D01*
X598764Y417961D01*
X605000D01*
X605000Y417961D01*
X605780Y418116D01*
X606442Y418558D01*
X608942Y421058D01*
X609384Y421720D01*
X609539Y422500D01*
Y427500D01*
X609384Y428280D01*
X608942Y428942D01*
X607841Y430043D01*
X607976Y430177D01*
X608600Y431684D01*
Y433316D01*
X607976Y434822D01*
X607097Y436500D01*
X607976Y438178D01*
X608600Y439684D01*
Y441316D01*
X607976Y442822D01*
X606986Y444375D01*
X607726Y446177D01*
X608350Y447684D01*
Y449315D01*
X607726Y450822D01*
X606986Y452625D01*
X607976Y454178D01*
X608600Y455684D01*
Y457315D01*
X607990Y458788D01*
X608025Y458872D01*
X610138Y460985D01*
X610213Y461016D01*
X611689Y460405D01*
X613320D01*
X614827Y461029D01*
X615981Y462182D01*
X616605Y463689D01*
Y465320D01*
X615981Y466827D01*
X614827Y467981D01*
X613320Y468605D01*
X611689D01*
X610182Y467981D01*
X608505Y467100D01*
X606822Y467976D01*
X605316Y468600D01*
X603684D01*
X602569Y468138D01*
X601427Y468720D01*
X600377Y471146D01*
X600600Y471684D01*
Y473316D01*
X599976Y474822D01*
X598822Y475976D01*
X597315Y476600D01*
X595684D01*
X594178Y475976D01*
X590631Y476288D01*
X587033Y479886D01*
Y482045D01*
X586723Y483606D01*
X585839Y484929D01*
X585839Y484929D01*
X576826Y493942D01*
X581442Y498558D01*
X591072Y508188D01*
X591262Y508473D01*
X591468Y508747D01*
X591482Y508802D01*
X591514Y508850D01*
X591581Y509185D01*
X591666Y509517D01*
X591658Y509574D01*
X591669Y509630D01*
X591602Y509966D01*
X591554Y510305D01*
X591278Y511092D01*
X592322Y511524D01*
X593476Y512678D01*
X594100Y514184D01*
Y514709D01*
X594128D01*
X595398Y514961D01*
X595583Y515038D01*
X595780Y515077D01*
X595947Y515189D01*
X596133Y515266D01*
X596275Y515408D01*
X596442Y515519D01*
X596553Y515686D01*
X596696Y515829D01*
X596772Y516014D01*
X596884Y516181D01*
X596923Y516378D01*
X597000Y516564D01*
Y516764D01*
X597039Y516961D01*
Y520900D01*
X596946Y521368D01*
X597323Y521524D01*
X598476Y522677D01*
X599100Y524184D01*
Y525816D01*
X598476Y527322D01*
X597323Y528476D01*
X596946Y528632D01*
X597039Y529100D01*
X597039Y550000D01*
X597039Y550000D01*
X596884Y550780D01*
X596442Y551442D01*
X596442Y551442D01*
X591442Y556442D01*
X591442Y556442D01*
X590780Y556884D01*
X590000Y557039D01*
D02*
G37*
G36*
X866815Y463100D02*
X865184D01*
X863678Y462476D01*
X862524Y461322D01*
X861900Y459815D01*
Y458185D01*
X862524Y456678D01*
X863678Y455524D01*
X865184Y454900D01*
X866815D01*
X868322Y455524D01*
X869476Y456678D01*
X870100Y458185D01*
Y459815D01*
X869476Y461322D01*
X868322Y462476D01*
X866815Y463100D01*
D02*
G37*
G36*
X521065Y456850D02*
X519434D01*
X517928Y456226D01*
X516774Y455072D01*
X516150Y453565D01*
Y451935D01*
X516774Y450428D01*
X517928Y449274D01*
X519434Y448650D01*
X521065D01*
X522572Y449274D01*
X523726Y450428D01*
X524350Y451935D01*
Y453565D01*
X523726Y455072D01*
X522572Y456226D01*
X521065Y456850D01*
D02*
G37*
G36*
X657815Y455100D02*
X656184D01*
X654678Y454476D01*
X653524Y453322D01*
X652900Y451816D01*
Y450185D01*
X653524Y448678D01*
X654678Y447524D01*
X656184Y446900D01*
X657815D01*
X659323Y447524D01*
X660476Y448678D01*
X661100Y450185D01*
Y451816D01*
X660476Y453322D01*
X659323Y454476D01*
X657815Y455100D01*
D02*
G37*
G36*
X489315Y454350D02*
X487684D01*
X486177Y453726D01*
X485024Y452573D01*
X484400Y451065D01*
Y449435D01*
X485024Y447928D01*
X486177Y446774D01*
X487684Y446150D01*
X489315D01*
X490822Y446774D01*
X491976Y447928D01*
X492600Y449435D01*
Y451065D01*
X491976Y452573D01*
X490822Y453726D01*
X489315Y454350D01*
D02*
G37*
G36*
X637311Y476605D02*
X635680D01*
X634173Y475981D01*
X633019Y474827D01*
X632395Y473320D01*
Y471689D01*
X633019Y470182D01*
X633900Y468505D01*
X633024Y466823D01*
X632400Y465316D01*
Y463685D01*
X633024Y462178D01*
X633902Y460495D01*
X633024Y458813D01*
X632400Y457306D01*
Y455675D01*
X633024Y454168D01*
X633903Y452490D01*
X633024Y450813D01*
X632400Y449306D01*
Y447675D01*
X633024Y446168D01*
X634178Y445014D01*
X635684Y444390D01*
X637315D01*
X638774Y444995D01*
X638894Y444943D01*
X640960Y442896D01*
X641009Y442779D01*
X640405Y441320D01*
Y439689D01*
X641029Y438182D01*
X642182Y437029D01*
X643689Y436405D01*
X645320D01*
X646827Y437029D01*
X647981Y438182D01*
X648605Y439689D01*
Y441320D01*
X647981Y442827D01*
X647097Y444500D01*
X647971Y446182D01*
X648595Y447689D01*
Y449320D01*
X647971Y450827D01*
X646818Y451981D01*
X645311Y452605D01*
X643680D01*
X642229Y452004D01*
X642089Y452064D01*
X640055Y454089D01*
X639998Y454222D01*
X640600Y455675D01*
Y457306D01*
X639976Y458813D01*
X639098Y460495D01*
X639976Y462178D01*
X640600Y463685D01*
Y465316D01*
X639976Y466822D01*
X639095Y468500D01*
X639971Y470182D01*
X640595Y471689D01*
Y473320D01*
X639971Y474827D01*
X638818Y475981D01*
X637311Y476605D01*
D02*
G37*
G36*
X493065Y441350D02*
X491435D01*
X489927Y440726D01*
X488774Y439572D01*
X488150Y438065D01*
Y436435D01*
X488774Y434928D01*
X489927Y433774D01*
X491435Y433150D01*
X493065D01*
X494572Y433774D01*
X495726Y434928D01*
X496350Y436435D01*
Y438065D01*
X495726Y439572D01*
X494572Y440726D01*
X493065Y441350D01*
D02*
G37*
G36*
X637325Y436600D02*
X635694D01*
X634187Y435976D01*
X633034Y434822D01*
X632410Y433316D01*
Y431684D01*
X633034Y430177D01*
X634187Y429024D01*
X635694Y428400D01*
X637325D01*
X638832Y429024D01*
X639986Y430177D01*
X640610Y431684D01*
Y433316D01*
X639986Y434822D01*
X638832Y435976D01*
X637325Y436600D01*
D02*
G37*
G36*
X541311Y436605D02*
X539680D01*
X538173Y435981D01*
X537019Y434827D01*
X536395Y433320D01*
Y431689D01*
X537004Y430219D01*
X536967Y430130D01*
X534850Y428013D01*
X534786Y427987D01*
X533306Y428600D01*
X531675D01*
X530168Y427976D01*
X529015Y426822D01*
X528390Y425316D01*
Y423684D01*
X529015Y422178D01*
X530168Y421024D01*
X531675Y420400D01*
X533306D01*
X534788Y421014D01*
X534848Y420989D01*
X536975Y418881D01*
X537013Y418789D01*
X536405Y417320D01*
Y415689D01*
X537029Y414182D01*
X537905Y412500D01*
X537024Y410822D01*
X536400Y409315D01*
Y407684D01*
X537024Y406177D01*
X538177Y405024D01*
X539684Y404400D01*
X541315D01*
X542822Y405024D01*
X543976Y406177D01*
X544600Y407684D01*
Y409315D01*
X543976Y410822D01*
X543100Y412505D01*
X543981Y414182D01*
X544605Y415689D01*
Y417320D01*
X543981Y418827D01*
X543102Y420505D01*
X543981Y422182D01*
X544605Y423689D01*
Y425320D01*
X543981Y426827D01*
X543097Y428500D01*
X543971Y430182D01*
X544595Y431689D01*
Y433320D01*
X543971Y434827D01*
X542818Y435981D01*
X541311Y436605D01*
D02*
G37*
G36*
X873316Y434100D02*
X871684D01*
X870178Y433476D01*
X869024Y432323D01*
X868400Y430816D01*
Y429184D01*
X869024Y427678D01*
X870178Y426524D01*
X871684Y425900D01*
X873316D01*
X874822Y426524D01*
X875976Y427678D01*
X876600Y429184D01*
Y430816D01*
X875976Y432323D01*
X874822Y433476D01*
X873316Y434100D01*
D02*
G37*
G36*
X671566Y433600D02*
X669934D01*
X668428Y432976D01*
X667274Y431823D01*
X666650Y430316D01*
Y428685D01*
X667274Y427178D01*
X668428Y426024D01*
X669934Y425400D01*
X671566D01*
X673073Y426024D01*
X674226Y427178D01*
X674850Y428685D01*
Y430316D01*
X674226Y431823D01*
X673073Y432976D01*
X671566Y433600D01*
D02*
G37*
G36*
X520816Y431600D02*
X519184D01*
X517678Y430976D01*
X516524Y429823D01*
X515900Y428316D01*
Y426684D01*
X516524Y425178D01*
X517678Y424024D01*
X519184Y423400D01*
X520816D01*
X522323Y424024D01*
X523476Y425178D01*
X524100Y426684D01*
Y428316D01*
X523476Y429823D01*
X522323Y430976D01*
X520816Y431600D01*
D02*
G37*
G36*
X645315Y428610D02*
X643684D01*
X642178Y427985D01*
X641024Y426832D01*
X640400Y425325D01*
Y423694D01*
X641024Y422187D01*
X642178Y421034D01*
X643684Y420410D01*
X645315D01*
X646822Y421034D01*
X647976Y422187D01*
X648600Y423694D01*
Y425325D01*
X647976Y426832D01*
X646822Y427985D01*
X645315Y428610D01*
D02*
G37*
G36*
X493815Y425100D02*
X492184D01*
X490678Y424476D01*
X489524Y423322D01*
X488900Y421815D01*
Y420185D01*
X489524Y418677D01*
X490677Y417524D01*
X490860Y414202D01*
X490567Y413806D01*
X490081Y413576D01*
X488815Y414100D01*
X487184D01*
X485677Y413476D01*
X484524Y412322D01*
X483900Y410816D01*
X482184Y410100D01*
X480678Y409476D01*
X479524Y408322D01*
X478900Y406815D01*
Y405185D01*
X479524Y403678D01*
X480678Y402524D01*
X482184Y401900D01*
X483815D01*
X485322Y402524D01*
X486476Y403678D01*
X487100Y405184D01*
X488816Y405900D01*
X490322Y406524D01*
X490540Y406742D01*
X491498Y407676D01*
X493678Y407524D01*
X495185Y406900D01*
X496815D01*
X498322Y407524D01*
X499476Y408677D01*
X500100Y410184D01*
Y411815D01*
X499476Y413322D01*
X498322Y414476D01*
X496817Y415099D01*
X496630Y415402D01*
X495898Y418100D01*
X496476Y418677D01*
X497100Y420185D01*
Y421815D01*
X496476Y423322D01*
X495322Y424476D01*
X493815Y425100D01*
D02*
G37*
G36*
X451566Y420600D02*
X449935D01*
X448428Y419976D01*
X447274Y418823D01*
X446650Y417315D01*
Y415685D01*
X447274Y414178D01*
X448428Y413024D01*
X449935Y412400D01*
X451566D01*
X453073Y413024D01*
X454226Y414178D01*
X454850Y415685D01*
Y417315D01*
X454226Y418823D01*
X453073Y419976D01*
X451566Y420600D01*
D02*
G37*
G36*
X658566Y423600D02*
X656934D01*
X655427Y422976D01*
X654274Y421822D01*
X653650Y420316D01*
Y418685D01*
X652178Y417226D01*
X651024Y416072D01*
X650400Y414566D01*
Y412934D01*
X651024Y411427D01*
X652178Y410274D01*
X653684Y409650D01*
X655316D01*
X656823Y410274D01*
X657976Y411427D01*
X658150Y411848D01*
X661150Y411251D01*
Y411184D01*
X661774Y409678D01*
X662928Y408524D01*
X664435Y407900D01*
X666066D01*
X667572Y408524D01*
X668726Y409678D01*
X669290Y411041D01*
X669350Y411185D01*
X671264Y413219D01*
X672122Y413400D01*
X673065D01*
X674572Y414024D01*
X675726Y415178D01*
X676350Y416684D01*
Y418316D01*
X675726Y419823D01*
X674572Y420976D01*
X673065Y421600D01*
X671434D01*
X669928Y420976D01*
X668774Y419823D01*
X668210Y418459D01*
X668150Y418316D01*
X666507Y416569D01*
X663840Y416388D01*
X661998Y418514D01*
X661850Y418727D01*
Y420316D01*
X661226Y421822D01*
X660072Y422976D01*
X658566Y423600D01*
D02*
G37*
G36*
X458815Y410100D02*
X457184D01*
X455677Y409476D01*
X454524Y408322D01*
X453900Y406815D01*
Y405185D01*
X454524Y403678D01*
X455677Y402524D01*
X457184Y401900D01*
X458815D01*
X460322Y402524D01*
X461476Y403678D01*
X462100Y405185D01*
Y406815D01*
X461476Y408322D01*
X460322Y409476D01*
X458815Y410100D01*
D02*
G37*
G36*
X685566Y408600D02*
X683934D01*
X682428Y407976D01*
X681274Y406823D01*
X680650Y405316D01*
Y403685D01*
X681274Y402178D01*
X682428Y401024D01*
X683934Y400400D01*
X685566D01*
X687073Y401024D01*
X688226Y402178D01*
X688850Y403685D01*
Y405316D01*
X688226Y406823D01*
X687073Y407976D01*
X685566Y408600D01*
D02*
G37*
G36*
X597066Y412850D02*
X595434D01*
X593927Y412226D01*
X592774Y411073D01*
X592150Y409566D01*
Y407934D01*
X592774Y406428D01*
X593927Y405274D01*
X595434Y404650D01*
X597066D01*
X598424Y405213D01*
X598612Y405283D01*
X598678Y405297D01*
X599896Y404004D01*
X600592Y402634D01*
X600150Y401566D01*
Y399935D01*
X600774Y398428D01*
X601927Y397274D01*
X603434Y396650D01*
X605065D01*
X606424Y397213D01*
X606612Y397283D01*
X608889Y397762D01*
X610177Y397024D01*
X610223Y397005D01*
X611684Y396400D01*
X613316D01*
X614822Y397024D01*
X615976Y398178D01*
X616600Y399684D01*
Y401316D01*
X615976Y402822D01*
X614822Y403976D01*
X613316Y404600D01*
X611684D01*
X610326Y404037D01*
X610138Y403967D01*
X610072Y403954D01*
X608854Y405246D01*
X608158Y406616D01*
X608600Y407685D01*
Y409315D01*
X607976Y410822D01*
X606822Y411976D01*
X605316Y412600D01*
X603684D01*
X602326Y412037D01*
X602138Y411967D01*
X599861Y411488D01*
X598572Y412226D01*
X598527Y412245D01*
X597066Y412850D01*
D02*
G37*
G36*
X589320Y404595D02*
X587689D01*
X586182Y403971D01*
X585029Y402818D01*
X584405Y401311D01*
Y399680D01*
X585029Y398173D01*
X586182Y397019D01*
X587689Y396395D01*
X589320D01*
X590827Y397019D01*
X591981Y398173D01*
X592605Y399680D01*
Y401311D01*
X591981Y402818D01*
X590827Y403971D01*
X589320Y404595D01*
D02*
G37*
G36*
X880816Y413100D02*
X879184D01*
X877678Y412476D01*
X876524Y411322D01*
X875900Y409815D01*
Y408185D01*
X876524Y406678D01*
X877678Y405524D01*
Y402476D01*
X876524Y401322D01*
X875900Y399815D01*
Y398184D01*
X876524Y396678D01*
X877678Y395524D01*
X879184Y394900D01*
X880816D01*
X882322Y395524D01*
X883476Y396678D01*
X884100Y398184D01*
Y399815D01*
X883476Y401322D01*
X882322Y402476D01*
Y405524D01*
X883476Y406678D01*
X884100Y408185D01*
Y409815D01*
X883476Y411322D01*
X882322Y412476D01*
X880816Y413100D01*
D02*
G37*
G36*
X451065Y401350D02*
X449435D01*
X447928Y400726D01*
X446774Y399572D01*
X446150Y398065D01*
Y396435D01*
X446774Y394928D01*
X447928Y393774D01*
X449435Y393150D01*
X451065D01*
X452573Y393774D01*
X453726Y394928D01*
X454350Y396435D01*
Y398065D01*
X453726Y399572D01*
X452573Y400726D01*
X451065Y401350D01*
D02*
G37*
G36*
X492566Y400600D02*
X490934D01*
X489428Y399976D01*
X488274Y398822D01*
X487650Y397315D01*
Y395685D01*
X488274Y394178D01*
X489428Y393024D01*
X490934Y392400D01*
X492566D01*
X494072Y393024D01*
X495226Y394178D01*
X495850Y395685D01*
Y397315D01*
X495226Y398822D01*
X494072Y399976D01*
X492566Y400600D01*
D02*
G37*
G36*
X657316Y392350D02*
X655685D01*
X654178Y391726D01*
X653024Y390572D01*
X652400Y389066D01*
Y387435D01*
X653024Y385928D01*
X654178Y384774D01*
X655685Y384150D01*
X657316D01*
X658822Y384774D01*
X659976Y385928D01*
X660600Y387435D01*
Y389066D01*
X659976Y390572D01*
X658822Y391726D01*
X657316Y392350D01*
D02*
G37*
G36*
X522566Y392600D02*
X520934D01*
X519428Y391976D01*
X518274Y390822D01*
X517650Y389316D01*
Y387685D01*
X518274Y386178D01*
X519428Y385024D01*
X520934Y384400D01*
X521650Y382816D01*
Y381185D01*
X522274Y379678D01*
X523428Y378524D01*
X524935Y377900D01*
X526566D01*
X528073Y378524D01*
X529226Y379678D01*
X529850Y381185D01*
Y382816D01*
X529226Y384322D01*
X528073Y385476D01*
X526566Y386100D01*
X525850Y387685D01*
Y389316D01*
X525226Y390822D01*
X524072Y391976D01*
X522566Y392600D01*
D02*
G37*
G36*
X498816Y381850D02*
X497184D01*
X495678Y381226D01*
X494524Y380072D01*
X493900Y378565D01*
Y376935D01*
X494524Y375428D01*
X495678Y374274D01*
X497184Y373650D01*
X498816D01*
X500322Y374274D01*
X501476Y375428D01*
X502100Y376935D01*
Y378565D01*
X501476Y380072D01*
X500322Y381226D01*
X498816Y381850D01*
D02*
G37*
G36*
X459566Y383600D02*
X457934D01*
X456428Y382976D01*
X455274Y381823D01*
X454650Y380316D01*
Y378685D01*
X455274Y377178D01*
X456428Y376024D01*
X457934Y375400D01*
X459309D01*
X459995Y374981D01*
X461900Y373120D01*
Y372184D01*
X462524Y370677D01*
X463678Y369524D01*
X465185Y368900D01*
X466816D01*
X468322Y369524D01*
X469476Y370677D01*
X470100Y372184D01*
Y372877D01*
X470100Y373182D01*
X470516Y373438D01*
X472898Y374304D01*
X473142Y374059D01*
X473677Y373524D01*
X475184Y372900D01*
X476815D01*
X478322Y373524D01*
X480000Y374403D01*
X481678Y373524D01*
X483185Y372900D01*
X484815D01*
X486322Y373524D01*
X487476Y374678D01*
X488100Y376185D01*
Y377816D01*
X487476Y379323D01*
X486322Y380476D01*
X484815Y381100D01*
X483185D01*
X481678Y380476D01*
X480000Y379597D01*
X478322Y380476D01*
X476815Y381100D01*
X475184D01*
X473677Y380476D01*
X472524Y379323D01*
X471900Y377816D01*
Y377123D01*
X471900Y376818D01*
X471484Y376562D01*
X469102Y375696D01*
X468858Y375941D01*
X468322Y376476D01*
X466816Y377100D01*
X465441D01*
X464755Y377519D01*
X462850Y379380D01*
Y380316D01*
X462226Y381823D01*
X461073Y382976D01*
X459566Y383600D01*
D02*
G37*
G36*
X453816Y373100D02*
X452184D01*
X450678Y372476D01*
X449524Y371322D01*
X448900Y369815D01*
Y369123D01*
X448900Y368818D01*
X448484Y368561D01*
X446102Y367696D01*
X445858Y367941D01*
X445322Y368476D01*
X443815Y369100D01*
X442184D01*
X440678Y368476D01*
X439524Y367323D01*
X438900Y365816D01*
Y364184D01*
X439524Y362678D01*
X440678Y361524D01*
X442184Y360900D01*
X443815D01*
X445322Y361524D01*
X446476Y362678D01*
X447100Y364184D01*
Y364877D01*
X447100Y365182D01*
X447516Y365439D01*
X449898Y366304D01*
X450142Y366059D01*
X450678Y365524D01*
X452184Y364900D01*
X453816D01*
X455322Y365524D01*
X456476Y366678D01*
X457100Y368185D01*
Y369815D01*
X456476Y371322D01*
X455322Y372476D01*
X453816Y373100D01*
D02*
G37*
G36*
X818316Y374100D02*
X816684D01*
X815178Y373476D01*
X814024Y372322D01*
X813400Y370816D01*
Y369184D01*
X814024Y367677D01*
X815178Y366524D01*
X816684Y365900D01*
X818316D01*
X819822Y366524D01*
X820976Y367677D01*
X821600Y369184D01*
Y370816D01*
X820976Y372322D01*
X819822Y373476D01*
X818316Y374100D01*
D02*
G37*
G36*
X663316Y364100D02*
X661684D01*
X660178Y363476D01*
X658750Y362508D01*
X657322Y363476D01*
X655816Y364100D01*
X654184D01*
X652678Y363476D01*
X651524Y362322D01*
X650900Y360816D01*
Y359184D01*
X651524Y357677D01*
X652678Y356524D01*
X654184Y355900D01*
X655816D01*
X657322Y356524D01*
X658750Y357492D01*
X660178Y356524D01*
X661684Y355900D01*
X663316D01*
X664822Y356524D01*
X665976Y357677D01*
X666600Y359184D01*
Y360816D01*
X665976Y362322D01*
X664822Y363476D01*
X663316Y364100D01*
D02*
G37*
G36*
X406566Y363600D02*
X404935D01*
X403428Y362976D01*
X402274Y361822D01*
X401650Y360316D01*
Y358684D01*
X402274Y357178D01*
X403428Y356024D01*
X404935Y355400D01*
X406566D01*
X408073Y356024D01*
X409226Y357178D01*
X409850Y358684D01*
Y360316D01*
X409226Y361822D01*
X408073Y362976D01*
X406566Y363600D01*
D02*
G37*
G36*
X636066Y364100D02*
X634435D01*
X632928Y363476D01*
X631774Y362322D01*
X631150Y360816D01*
Y359184D01*
X631774Y357677D01*
X632928Y356524D01*
X634435Y355900D01*
X636066D01*
X637572Y356524D01*
X639678Y355524D01*
X641184Y354900D01*
X642816D01*
X644323Y355524D01*
X645476Y356678D01*
X646100Y358185D01*
Y359815D01*
X645476Y361322D01*
X644323Y362476D01*
X642816Y363100D01*
X641184D01*
X639678Y362476D01*
X637573Y363476D01*
X636066Y364100D01*
D02*
G37*
G36*
X618816Y354100D02*
X617184D01*
X615678Y353476D01*
X614524Y352323D01*
X613900Y350816D01*
Y349184D01*
X614524Y347678D01*
X615678Y346524D01*
X617184Y345900D01*
X618816D01*
X620322Y346524D01*
X621476Y347678D01*
X622100Y349184D01*
Y350816D01*
X621476Y352323D01*
X620322Y353476D01*
X618816Y354100D01*
D02*
G37*
G36*
X663316Y349100D02*
X661684D01*
X660178Y348476D01*
X659024Y347322D01*
X658400Y345816D01*
Y344184D01*
X659024Y342677D01*
X660178Y341524D01*
X661684Y340900D01*
X663316D01*
X664822Y341524D01*
X665976Y342677D01*
X666600Y344184D01*
Y345816D01*
X665976Y347322D01*
X664822Y348476D01*
X663316Y349100D01*
D02*
G37*
G36*
X630816Y344100D02*
X629184D01*
X627678Y343476D01*
X626524Y342323D01*
X625900Y340816D01*
Y339184D01*
X626524Y337678D01*
X627678Y336524D01*
X629184Y335900D01*
X630816D01*
X632323Y336524D01*
X633476Y337678D01*
X634100Y339184D01*
Y340816D01*
X633476Y342323D01*
X632323Y343476D01*
X630816Y344100D01*
D02*
G37*
G36*
X546815Y342100D02*
X545185D01*
X543678Y341476D01*
X542524Y340322D01*
X541900Y338816D01*
Y337184D01*
X542524Y335678D01*
X543678Y334524D01*
X545185Y333900D01*
X546815D01*
X548322Y334524D01*
X549476Y335678D01*
X550100Y337184D01*
Y338816D01*
X549476Y340322D01*
X548322Y341476D01*
X546815Y342100D01*
D02*
G37*
G36*
X570816Y336100D02*
X569184D01*
X567678Y335476D01*
X566524Y334322D01*
X565900Y332816D01*
Y331185D01*
X566524Y329678D01*
X567678Y328524D01*
X569184Y327900D01*
X570816D01*
X572323Y328524D01*
X573476Y329678D01*
X574100Y331185D01*
Y332816D01*
X573476Y334322D01*
X572323Y335476D01*
X570816Y336100D01*
D02*
G37*
G36*
X600816Y331100D02*
X599184D01*
X597677Y330476D01*
X596524Y329323D01*
X595900Y327816D01*
Y326185D01*
X596524Y324678D01*
X597677Y323524D01*
X599184Y322900D01*
X600816D01*
X602322Y323524D01*
X603476Y324678D01*
X604100Y326185D01*
Y327816D01*
X603476Y329323D01*
X602322Y330476D01*
X600816Y331100D01*
D02*
G37*
G36*
X708316Y329100D02*
X706684D01*
X705178Y328476D01*
X704024Y327323D01*
X703400Y325816D01*
Y324184D01*
X704024Y322678D01*
X705178Y321524D01*
X706684Y320900D01*
X708316D01*
X709822Y321524D01*
X710976Y322678D01*
X711600Y324184D01*
Y325816D01*
X710976Y327323D01*
X709822Y328476D01*
X708316Y329100D01*
D02*
G37*
G36*
X501815D02*
X500184D01*
X498677Y328476D01*
X497524Y327323D01*
X496900Y325816D01*
Y324184D01*
X497524Y322678D01*
X498677Y321524D01*
X500184Y320900D01*
X501815D01*
X503322Y321524D01*
X504476Y322678D01*
X505100Y324184D01*
Y325816D01*
X504476Y327323D01*
X503322Y328476D01*
X501815Y329100D01*
D02*
G37*
G36*
X469815Y328100D02*
X468185D01*
X466678Y327476D01*
X465524Y326323D01*
X464900Y324816D01*
Y323185D01*
X465524Y321678D01*
X466678Y320524D01*
X468185Y319900D01*
X469815D01*
X471323Y320524D01*
X472476Y321678D01*
X473100Y323185D01*
Y324816D01*
X472476Y326323D01*
X471323Y327476D01*
X469815Y328100D01*
D02*
G37*
G36*
X440816D02*
X439184D01*
X437678Y327476D01*
X436524Y326323D01*
X435900Y324816D01*
Y323185D01*
X436524Y321678D01*
X437678Y320524D01*
X439184Y319900D01*
X440816D01*
X442323Y320524D01*
X443476Y321678D01*
X444100Y323185D01*
Y324816D01*
X443476Y326323D01*
X442323Y327476D01*
X440816Y328100D01*
D02*
G37*
G36*
X594815Y320100D02*
X593185D01*
X591678Y319476D01*
X590524Y318323D01*
X589900Y316815D01*
Y315184D01*
X590524Y313678D01*
X591678Y312524D01*
X593185Y311900D01*
X594815D01*
X596323Y312524D01*
X597476Y313678D01*
X598100Y315184D01*
Y316815D01*
X597476Y318323D01*
X596323Y319476D01*
X594815Y320100D01*
D02*
G37*
G36*
X564815Y313100D02*
X563184D01*
X561678Y312476D01*
X560524Y311322D01*
X559900Y309816D01*
X559900Y308465D01*
X559736Y308113D01*
X556565Y307301D01*
X556382Y307430D01*
X556323Y307476D01*
X556051Y307588D01*
X554816Y308100D01*
X553185D01*
X551678Y307476D01*
X550524Y306322D01*
X549900Y304816D01*
Y303185D01*
X550524Y301678D01*
X551678Y300524D01*
X553185Y299900D01*
X554816D01*
X556323Y300524D01*
X557476Y301678D01*
X558100Y303185D01*
X558100Y304535D01*
X558264Y304887D01*
X561435Y305699D01*
X561618Y305571D01*
X561678Y305524D01*
X561949Y305412D01*
X563184Y304900D01*
X564815D01*
X566322Y305524D01*
X567476Y306677D01*
X568100Y308184D01*
Y309816D01*
X567476Y311322D01*
X566322Y312476D01*
X564815Y313100D01*
D02*
G37*
G36*
X511815Y315100D02*
X510185D01*
X508677Y314476D01*
X507524Y313322D01*
X506900Y311815D01*
Y310184D01*
X507524Y308678D01*
X508677Y307524D01*
X510185Y306900D01*
X511815D01*
X513322Y307524D01*
X514476Y308678D01*
X515100Y310184D01*
Y311815D01*
X514476Y313322D01*
X513322Y314476D01*
X511815Y315100D01*
D02*
G37*
G36*
X588815Y309100D02*
X587184D01*
X585677Y308476D01*
X584524Y307322D01*
X583900Y305816D01*
Y304184D01*
X584524Y302678D01*
X585677Y301524D01*
X587184Y300900D01*
X588815D01*
X590322Y301524D01*
X591476Y302678D01*
X592100Y304184D01*
Y305816D01*
X591476Y307322D01*
X590322Y308476D01*
X588815Y309100D01*
D02*
G37*
G36*
X670816Y306600D02*
X669184D01*
X667678Y305976D01*
X666524Y304823D01*
X665900Y303316D01*
Y301684D01*
X666524Y300178D01*
X667678Y299024D01*
X669184Y298400D01*
X670816D01*
X672322Y299024D01*
X673476Y300178D01*
X674100Y301684D01*
Y303316D01*
X673476Y304823D01*
X672322Y305976D01*
X670816Y306600D01*
D02*
G37*
G36*
X734816Y305100D02*
X733185D01*
X731678Y304476D01*
X730524Y303323D01*
X729900Y301816D01*
Y300184D01*
X730524Y298678D01*
X731678Y297524D01*
X733185Y296900D01*
X734816D01*
X736322Y297524D01*
X737476Y298678D01*
X738100Y300184D01*
Y301816D01*
X737476Y303323D01*
X736322Y304476D01*
X734816Y305100D01*
D02*
G37*
G36*
X651316D02*
X649685D01*
X648177Y304476D01*
X647024Y303323D01*
X646400Y301816D01*
Y300184D01*
X647024Y298678D01*
X648177Y297524D01*
X649685Y296900D01*
X651316D01*
X652822Y297524D01*
X653976Y298678D01*
X654600Y300184D01*
Y301816D01*
X653976Y303323D01*
X652822Y304476D01*
X651316Y305100D01*
D02*
G37*
G36*
X514815Y302100D02*
X513184D01*
X511678Y301476D01*
X510524Y300322D01*
X509900Y298815D01*
Y297184D01*
X510524Y295678D01*
X511678Y294524D01*
X513184Y293900D01*
X514815D01*
X516322Y294524D01*
X517476Y295678D01*
X518100Y297184D01*
Y298815D01*
X517476Y300322D01*
X516322Y301476D01*
X514815Y302100D01*
D02*
G37*
G36*
X408815Y301350D02*
X407184D01*
X405677Y300726D01*
X404524Y299573D01*
X403900Y298065D01*
Y296434D01*
X404524Y294928D01*
X405677Y293774D01*
X407184Y293150D01*
X408815D01*
X410322Y293774D01*
X411476Y294928D01*
X412100Y296434D01*
Y298065D01*
X411476Y299573D01*
X410322Y300726D01*
X408815Y301350D01*
D02*
G37*
G36*
X678316Y291600D02*
X676684D01*
X675178Y290976D01*
X674024Y289823D01*
X673400Y288316D01*
Y286684D01*
X674024Y285178D01*
X675178Y284024D01*
X676684Y283400D01*
X678316D01*
X679822Y284024D01*
X680976Y285178D01*
X681600Y286684D01*
Y288316D01*
X680976Y289823D01*
X679822Y290976D01*
X678316Y291600D01*
D02*
G37*
G36*
X572315Y289100D02*
X570685D01*
X569178Y288476D01*
X568024Y287323D01*
X567400Y285816D01*
Y284184D01*
X568024Y282678D01*
X569178Y281524D01*
X570685Y280900D01*
X572315D01*
X573822Y281524D01*
X574976Y282678D01*
X575600Y284184D01*
Y285816D01*
X574976Y287323D01*
X573822Y288476D01*
X572315Y289100D01*
D02*
G37*
G36*
X543316Y289100D02*
X541684D01*
X540178Y288476D01*
X539024Y287322D01*
X538400Y285816D01*
Y284184D01*
X539024Y282677D01*
X540178Y281524D01*
X541684Y280900D01*
X543316D01*
X544823Y281524D01*
X545976Y282677D01*
X546600Y284184D01*
Y285816D01*
X545976Y287322D01*
X544823Y288476D01*
X543316Y289100D01*
D02*
G37*
G36*
X653816Y284100D02*
X652184D01*
X650677Y283476D01*
X649524Y282322D01*
X648900Y280816D01*
Y279184D01*
X649524Y277677D01*
X650677Y276524D01*
X652184Y275900D01*
X653816D01*
X655322Y276524D01*
X656476Y277677D01*
X657100Y279184D01*
Y280816D01*
X656476Y282322D01*
X655322Y283476D01*
X653816Y284100D01*
D02*
G37*
G36*
X620816Y290100D02*
X619184D01*
X617678Y289476D01*
X616524Y288323D01*
X615900Y286816D01*
Y285184D01*
X616524Y283678D01*
X617654Y282500D01*
X616524Y281322D01*
X615900Y279816D01*
Y278185D01*
X616524Y276678D01*
X617678Y275524D01*
X619184Y274900D01*
X620816D01*
X622323Y275524D01*
X623476Y276678D01*
X624100Y278185D01*
Y279816D01*
X623476Y281322D01*
X622346Y282500D01*
X623476Y283678D01*
X624100Y285184D01*
Y286816D01*
X623476Y288323D01*
X622323Y289476D01*
X620816Y290100D01*
D02*
G37*
G36*
X557816Y282100D02*
X556185D01*
X554678Y281476D01*
X553524Y280322D01*
X552900Y278815D01*
Y277185D01*
X553524Y275678D01*
X554678Y274524D01*
X556185Y273900D01*
X557816D01*
X559323Y274524D01*
X560476Y275678D01*
X561100Y277185D01*
Y278815D01*
X560476Y280322D01*
X559323Y281476D01*
X557816Y282100D01*
D02*
G37*
G36*
X544815Y276100D02*
X543185D01*
X541678Y275476D01*
X540524Y274322D01*
X539900Y272815D01*
Y271184D01*
X540524Y269678D01*
X541678Y268524D01*
X543185Y267900D01*
X544815D01*
X546323Y268524D01*
X547476Y269678D01*
X548100Y271184D01*
Y272815D01*
X547476Y274322D01*
X546323Y275476D01*
X544815Y276100D01*
D02*
G37*
G36*
X585066Y274350D02*
X583434D01*
X581928Y273726D01*
X580774Y272572D01*
X580150Y271066D01*
Y269435D01*
X580774Y267928D01*
X581928Y266774D01*
X583434Y266150D01*
X585066D01*
X586572Y266774D01*
X587726Y267928D01*
X588350Y269435D01*
Y271066D01*
X587726Y272572D01*
X586572Y273726D01*
X585066Y274350D01*
D02*
G37*
G36*
X455816Y270100D02*
X454184D01*
X452678Y269476D01*
X451524Y268323D01*
X450900Y266815D01*
Y265184D01*
X451524Y263678D01*
X452678Y262524D01*
X454184Y261900D01*
X455816D01*
X457323Y262524D01*
X458476Y263678D01*
X459100Y265184D01*
Y266815D01*
X458476Y268323D01*
X457323Y269476D01*
X455816Y270100D01*
D02*
G37*
G36*
X698316Y266600D02*
X696684D01*
X695178Y265976D01*
X694024Y264823D01*
X693400Y263316D01*
Y261684D01*
X694024Y260178D01*
X695178Y259024D01*
X696684Y258400D01*
X698316D01*
X699822Y259024D01*
X700976Y260178D01*
X701600Y261684D01*
Y263316D01*
X700976Y264823D01*
X699822Y265976D01*
X698316Y266600D01*
D02*
G37*
G36*
X407816Y263350D02*
X406185D01*
X404678Y262726D01*
X403524Y261572D01*
X402900Y260065D01*
Y258435D01*
X403524Y256928D01*
X404678Y255774D01*
X406185Y255150D01*
X407816D01*
X409322Y255774D01*
X410476Y256928D01*
X411100Y258435D01*
Y260065D01*
X410476Y261572D01*
X409322Y262726D01*
X407816Y263350D01*
D02*
G37*
G36*
X619815Y263100D02*
X618185D01*
X616678Y262476D01*
X615524Y261322D01*
X614900Y259816D01*
Y258184D01*
X615524Y256677D01*
X616678Y255524D01*
X618185Y254900D01*
X619815D01*
X621323Y255524D01*
X622476Y256677D01*
X623100Y258184D01*
Y259816D01*
X622476Y261322D01*
X621323Y262476D01*
X619815Y263100D01*
D02*
G37*
%LPD*%
G36*
X850000Y500000D02*
Y400000D01*
X840000Y390000D01*
X826100D01*
Y390816D01*
X825476Y392323D01*
X824323Y393476D01*
X822816Y394100D01*
X821184D01*
X819678Y393476D01*
X819359Y393157D01*
X818100Y393694D01*
Y394815D01*
X817476Y396322D01*
X816798Y397000D01*
X817476Y397677D01*
X818100Y399184D01*
Y400816D01*
X817476Y402322D01*
X816322Y403476D01*
X814816Y404100D01*
X813185D01*
X811677Y403476D01*
X810524Y402322D01*
X809900Y400816D01*
Y399184D01*
X810524Y397677D01*
X811202Y397000D01*
X810524Y396322D01*
X809900Y394815D01*
Y393185D01*
X810524Y391678D01*
X811202Y391000D01*
X810524Y390322D01*
X810391Y390000D01*
X740000D01*
X715017Y414983D01*
X715100Y415185D01*
Y416815D01*
X714476Y418322D01*
X713322Y419476D01*
X711815Y420100D01*
X710184D01*
X709983Y420017D01*
X701000Y429000D01*
Y435248D01*
X702056Y435953D01*
X702184Y435900D01*
X703816D01*
X705322Y436524D01*
X706476Y437678D01*
X707100Y439184D01*
Y440816D01*
X706476Y442323D01*
X705322Y443476D01*
X703816Y444100D01*
X702184D01*
X702056Y444047D01*
X701000Y444752D01*
Y457000D01*
X732101Y488101D01*
X733177Y487024D01*
X734684Y486400D01*
X736316D01*
X737822Y487024D01*
X738976Y488178D01*
X739600Y489684D01*
Y491316D01*
X738976Y492822D01*
X737899Y493899D01*
X764000Y520000D01*
X816736D01*
X818184Y519400D01*
X819816D01*
X821264Y520000D01*
X830000D01*
X850000Y500000D01*
D02*
G37*
%LPC*%
G36*
X810816Y517100D02*
X809184D01*
X807678Y516476D01*
X806524Y515322D01*
X805900Y513815D01*
Y512184D01*
X806524Y510677D01*
X807678Y509524D01*
X809184Y508900D01*
X810816D01*
X812322Y509524D01*
X813476Y510677D01*
X814100Y512184D01*
Y513815D01*
X813476Y515322D01*
X812322Y516476D01*
X810816Y517100D01*
D02*
G37*
G36*
X780565Y515350D02*
X778934D01*
X777428Y514726D01*
X776274Y513573D01*
X775650Y512066D01*
Y510434D01*
X776274Y508928D01*
X777428Y507774D01*
X778934Y507150D01*
X780565D01*
X782073Y507774D01*
X783226Y508928D01*
X783850Y510434D01*
Y512066D01*
X783226Y513573D01*
X782073Y514726D01*
X780565Y515350D01*
D02*
G37*
G36*
X768816Y508100D02*
X767184D01*
X765677Y507476D01*
X764524Y506323D01*
X763900Y504816D01*
Y503185D01*
X764524Y501678D01*
X765677Y500524D01*
X767184Y499900D01*
X768816D01*
X770322Y500524D01*
X771476Y501678D01*
X772100Y503185D01*
Y504816D01*
X771476Y506323D01*
X770322Y507476D01*
X768816Y508100D01*
D02*
G37*
G36*
X781565Y491600D02*
X779934D01*
X778428Y490976D01*
X777274Y489822D01*
X776650Y488316D01*
Y486684D01*
X777274Y485177D01*
X778428Y484024D01*
X779934Y483400D01*
X781565D01*
X783072Y484024D01*
X784226Y485177D01*
X784850Y486684D01*
Y488316D01*
X784226Y489822D01*
X783072Y490976D01*
X781565Y491600D01*
D02*
G37*
G36*
X803816Y490100D02*
X802185D01*
X800677Y489476D01*
X799524Y488322D01*
X798900Y486815D01*
Y485184D01*
X799524Y483677D01*
X800677Y482524D01*
X802185Y481900D01*
X803816D01*
X805322Y482524D01*
X806476Y483677D01*
X807100Y485184D01*
Y486815D01*
X806476Y488322D01*
X805322Y489476D01*
X803816Y490100D01*
D02*
G37*
G36*
X833065Y480100D02*
X831434D01*
X829928Y479476D01*
X828774Y478322D01*
X828150Y476815D01*
Y475184D01*
X828774Y473677D01*
X829928Y472524D01*
X831434Y471900D01*
X833065D01*
X834572Y472524D01*
X835726Y473677D01*
X836350Y475184D01*
Y476815D01*
X835726Y478322D01*
X834572Y479476D01*
X833065Y480100D01*
D02*
G37*
G36*
X773816Y476100D02*
X772185D01*
X770678Y475476D01*
X769524Y474322D01*
X768900Y472816D01*
Y471185D01*
X769524Y469678D01*
X770678Y468524D01*
X772185Y467900D01*
X773816D01*
X775322Y468524D01*
X776476Y469678D01*
X777100Y471185D01*
Y472816D01*
X776476Y474322D01*
X775322Y475476D01*
X773816Y476100D01*
D02*
G37*
G36*
X793816Y473600D02*
X792184D01*
X790677Y472976D01*
X789524Y471822D01*
X788900Y470316D01*
Y468685D01*
X789524Y467178D01*
X790677Y466024D01*
X792184Y465400D01*
X793816D01*
X794965Y465876D01*
X795985Y465036D01*
X795989Y465030D01*
X795900Y464816D01*
Y463185D01*
X796524Y461678D01*
X797678Y460524D01*
X799184Y459900D01*
X800816D01*
X802322Y460524D01*
X803476Y461678D01*
X804100Y463185D01*
Y464816D01*
X803476Y466323D01*
X802322Y467476D01*
X800816Y468100D01*
X799184D01*
X798035Y467624D01*
X797015Y468464D01*
X797011Y468470D01*
X797100Y468685D01*
Y470316D01*
X796476Y471822D01*
X795322Y472976D01*
X793816Y473600D01*
D02*
G37*
G36*
Y458100D02*
X792184D01*
X790677Y457476D01*
X789524Y456323D01*
X788900Y454815D01*
Y453185D01*
X789524Y451678D01*
X790677Y450524D01*
X792184Y449900D01*
X793816D01*
X795322Y450524D01*
X796476Y451678D01*
X797100Y453185D01*
Y454815D01*
X796476Y456323D01*
X795322Y457476D01*
X793816Y458100D01*
D02*
G37*
G36*
X831815Y457100D02*
X830184D01*
X828678Y456476D01*
X827524Y455322D01*
X826900Y453816D01*
Y452184D01*
X827524Y450678D01*
X828678Y449524D01*
X830184Y448900D01*
X831815D01*
X833322Y449524D01*
X834476Y450678D01*
X835100Y452184D01*
Y453816D01*
X834476Y455322D01*
X833322Y456476D01*
X831815Y457100D01*
D02*
G37*
G36*
X735816Y456100D02*
X734184D01*
X732678Y455476D01*
X731524Y454323D01*
X730900Y452816D01*
Y451185D01*
X731524Y449678D01*
X732678Y448524D01*
X734184Y447900D01*
X735816D01*
X737322Y448524D01*
X738476Y449678D01*
X739100Y451185D01*
Y452816D01*
X738476Y454323D01*
X737322Y455476D01*
X735816Y456100D01*
D02*
G37*
G36*
X772815Y452100D02*
X771184D01*
X769678Y451476D01*
X768524Y450322D01*
X767900Y448815D01*
Y447184D01*
X768524Y445677D01*
X769678Y444524D01*
X771184Y443900D01*
X772815D01*
X774323Y444524D01*
X775476Y445677D01*
X776100Y447184D01*
Y448815D01*
X775476Y450322D01*
X774323Y451476D01*
X772815Y452100D01*
D02*
G37*
G36*
X727815Y448100D02*
X726184D01*
X724678Y447476D01*
X723524Y446322D01*
X722900Y444815D01*
Y443185D01*
X723524Y441678D01*
X724678Y440524D01*
X726184Y439900D01*
X727815D01*
X729322Y440524D01*
X730476Y441678D01*
X731100Y443185D01*
Y444815D01*
X730476Y446322D01*
X729322Y447476D01*
X727815Y448100D01*
D02*
G37*
G36*
X823816Y445100D02*
X822185D01*
X820678Y444476D01*
X819524Y443322D01*
X818900Y441816D01*
Y441100D01*
X818184D01*
X816677Y440476D01*
X815524Y439322D01*
X814900Y437816D01*
Y436184D01*
X815524Y434678D01*
X816677Y433524D01*
X818184Y432900D01*
X819816D01*
X821322Y433524D01*
X822476Y434678D01*
X823100Y436184D01*
Y436900D01*
X823816D01*
X825322Y437524D01*
X826476Y438678D01*
X827100Y440185D01*
Y441816D01*
X826476Y443322D01*
X825322Y444476D01*
X823816Y445100D01*
D02*
G37*
G36*
X726815Y437100D02*
X725184D01*
X723678Y436476D01*
X722524Y435322D01*
X721900Y433815D01*
Y432184D01*
X722524Y430677D01*
X723678Y429524D01*
X725184Y428900D01*
X726815D01*
X728322Y429524D01*
X729476Y430677D01*
X730100Y432184D01*
Y433815D01*
X729476Y435322D01*
X728322Y436476D01*
X726815Y437100D01*
D02*
G37*
G36*
X711815Y436100D02*
X710184D01*
X708678Y435476D01*
X707524Y434322D01*
X706900Y432816D01*
Y431185D01*
X707524Y429678D01*
X708678Y428524D01*
X710184Y427900D01*
X711815D01*
X713322Y428524D01*
X714476Y429678D01*
X715100Y431185D01*
Y432816D01*
X714476Y434322D01*
X713322Y435476D01*
X711815Y436100D01*
D02*
G37*
G36*
X826815Y430100D02*
X825184D01*
X823678Y429476D01*
X822524Y428322D01*
X821900Y426816D01*
Y425185D01*
X822524Y423678D01*
X823678Y422524D01*
X825184Y421900D01*
X826815D01*
X828322Y422524D01*
X829476Y423678D01*
X830100Y425185D01*
Y426816D01*
X829476Y428322D01*
X828322Y429476D01*
X826815Y430100D01*
D02*
G37*
G36*
X790816Y433100D02*
X789184D01*
X787678Y432476D01*
X786524Y431323D01*
X785900Y429815D01*
Y428185D01*
X786524Y426678D01*
X787678Y425524D01*
X789184Y424900D01*
X790816D01*
X790988Y424972D01*
X791524Y423678D01*
X792678Y422524D01*
X794184Y421900D01*
X795816D01*
X797322Y422524D01*
X798476Y423677D01*
X798516Y423686D01*
X798678Y423524D01*
X800184Y422900D01*
X801815D01*
X803322Y423524D01*
X804370Y422832D01*
X804678Y422524D01*
X806184Y421900D01*
X807816D01*
X809323Y422524D01*
X810476Y423678D01*
X811100Y425185D01*
Y426816D01*
X810476Y428322D01*
X809323Y429476D01*
X807816Y430100D01*
X806184D01*
X804678Y429476D01*
X803630Y430168D01*
X803322Y430476D01*
X801815Y431100D01*
X800184D01*
X798678Y430476D01*
X797524Y429323D01*
X797484Y429314D01*
X797322Y429476D01*
X795816Y430100D01*
X794184D01*
X794012Y430028D01*
X793476Y431323D01*
X792322Y432476D01*
X790816Y433100D01*
D02*
G37*
G36*
X844816Y421100D02*
X843184D01*
X841677Y420476D01*
X840524Y419323D01*
X839900Y417816D01*
Y416185D01*
X840524Y414678D01*
X841677Y413524D01*
X843184Y412900D01*
X844816D01*
X846322Y413524D01*
X847476Y414678D01*
X848100Y416185D01*
Y417816D01*
X847476Y419323D01*
X846322Y420476D01*
X844816Y421100D01*
D02*
G37*
G36*
X767815Y417100D02*
X766184D01*
X764678Y416476D01*
X763524Y415322D01*
X762900Y413816D01*
Y412184D01*
X763524Y410678D01*
X764678Y409524D01*
X766184Y408900D01*
X767815D01*
X769322Y409524D01*
X770476Y410678D01*
X771100Y412184D01*
Y413816D01*
X770476Y415322D01*
X769322Y416476D01*
X767815Y417100D01*
D02*
G37*
G36*
X751815Y412100D02*
X750184D01*
X748678Y411476D01*
X747524Y410322D01*
X746900Y408815D01*
Y407184D01*
X747524Y405677D01*
X748678Y404524D01*
X750184Y403900D01*
X751815D01*
X753322Y404524D01*
X754476Y405677D01*
X755100Y407184D01*
Y408815D01*
X754476Y410322D01*
X753322Y411476D01*
X751815Y412100D01*
D02*
G37*
G36*
X824816Y406100D02*
X823185D01*
X821678Y405476D01*
X820524Y404323D01*
X819900Y402816D01*
Y401185D01*
X820524Y399678D01*
X821678Y398524D01*
X823185Y397900D01*
X824816D01*
X826322Y398524D01*
X827476Y399678D01*
X828100Y401185D01*
Y402816D01*
X827476Y404323D01*
X826322Y405476D01*
X824816Y406100D01*
D02*
G37*
%LPD*%
G36*
X595000Y550000D02*
X595000Y529100D01*
X594184D01*
X592678Y528476D01*
X591524Y527322D01*
X590900Y525816D01*
Y524184D01*
X591524Y522677D01*
X592678Y521524D01*
X594184Y520900D01*
X595000D01*
Y516961D01*
X593730Y516709D01*
X593476Y517323D01*
X592322Y518476D01*
X590816Y519100D01*
X589184D01*
X587677Y518476D01*
X586524Y517323D01*
X585900Y515816D01*
Y514184D01*
X586524Y512678D01*
X587677Y511524D01*
X589184Y510900D01*
X589630Y509630D01*
X580000Y500000D01*
X560000Y480000D01*
Y470000D01*
X561000Y469000D01*
X562236D01*
X563684Y468400D01*
X565316D01*
X566764Y469000D01*
X570236D01*
X571684Y468400D01*
X573316D01*
X573870Y468630D01*
X576630Y465870D01*
X576400Y465316D01*
Y463684D01*
X577024Y462178D01*
X577101Y462101D01*
X575000Y460000D01*
X574764D01*
X573316Y460600D01*
X571684D01*
X570236Y460000D01*
X566764D01*
X565316Y460600D01*
X563684D01*
X562178Y459976D01*
X561024Y458822D01*
X560813Y458313D01*
X560000Y457500D01*
Y455000D01*
X562500Y452500D01*
X563443D01*
X563684Y452400D01*
X565316D01*
X565557Y452500D01*
X571443D01*
X571684Y452400D01*
X573316D01*
X573557Y452500D01*
X579443D01*
X579684Y452400D01*
X581316D01*
X581557Y452500D01*
X582500D01*
X584776Y450224D01*
X584400Y449315D01*
Y447684D01*
X585024Y446177D01*
X586177Y445024D01*
X587684Y444400D01*
X589315D01*
X590224Y444776D01*
X592500Y442500D01*
Y441557D01*
X592400Y441316D01*
Y439684D01*
X592500Y439443D01*
Y433557D01*
X592400Y433316D01*
Y431684D01*
X593024Y430177D01*
X594178Y429024D01*
X595684Y428400D01*
X597315D01*
X598822Y429024D01*
X599798Y430000D01*
X601202D01*
X602178Y429024D01*
X603684Y428400D01*
X605316D01*
X606224Y428776D01*
X607500Y427500D01*
Y422500D01*
X605000Y420000D01*
X598764D01*
X597315Y420600D01*
X595684D01*
X594236Y420000D01*
X582764D01*
X581316Y420600D01*
X579684D01*
X579483Y420517D01*
X577500Y422500D01*
Y428042D01*
X578770Y428779D01*
X579684Y428400D01*
X581316D01*
X582822Y429024D01*
X583976Y430177D01*
X584600Y431684D01*
Y433316D01*
X583976Y434822D01*
X582822Y435976D01*
X581316Y436600D01*
X579684D01*
X578770Y436221D01*
X577500Y436958D01*
Y440000D01*
X576600Y440900D01*
Y441316D01*
X575976Y442822D01*
X574822Y443976D01*
X573316Y444600D01*
X571684D01*
X570177Y443976D01*
X569255Y443053D01*
X568500Y442917D01*
X567745Y443053D01*
X566822Y443976D01*
X565316Y444600D01*
X563684D01*
X562178Y443976D01*
X561024Y442822D01*
X560891Y442500D01*
X555000D01*
X543649Y453851D01*
X543976Y454178D01*
X544600Y455685D01*
Y457315D01*
X543976Y458823D01*
X543053Y459745D01*
X542917Y460500D01*
X543053Y461255D01*
X543976Y462178D01*
X544600Y463685D01*
Y465316D01*
X543976Y466823D01*
X543053Y467745D01*
X542917Y468500D01*
X543053Y469255D01*
X543976Y470177D01*
X544600Y471684D01*
Y473316D01*
X543976Y474822D01*
X543058Y475740D01*
X542920Y476503D01*
X543060Y477252D01*
X543981Y478173D01*
X544605Y479680D01*
Y481311D01*
X543981Y482818D01*
X542827Y483971D01*
X541320Y484595D01*
X540000D01*
Y515000D01*
X570000Y545000D01*
X580000Y555000D01*
X590000D01*
X595000Y550000D01*
D02*
G37*
G36*
X578876Y480356D02*
Y478196D01*
X578876Y478196D01*
X579187Y476636D01*
X579103Y476359D01*
X578178Y475976D01*
X577024Y474822D01*
X576400Y473316D01*
Y472953D01*
X575942Y472315D01*
X573979Y470755D01*
X573628Y470621D01*
X573090Y470514D01*
X573090Y470514D01*
X572910Y470439D01*
X572090D01*
X571017Y470884D01*
X571016Y470884D01*
X570236Y471039D01*
X566764D01*
X565984Y470884D01*
X564967Y470463D01*
X562195Y471644D01*
X562039Y473958D01*
Y479155D01*
X571058Y488174D01*
X578876Y480356D01*
D02*
G37*
G36*
X592896Y462488D02*
X593024Y462178D01*
X594178Y461024D01*
X595684Y460400D01*
X597315D01*
X598822Y461024D01*
X599976Y462178D01*
X600592Y463666D01*
X600662Y463818D01*
X600928Y464255D01*
X601561Y465046D01*
X602407Y465929D01*
X603198Y466198D01*
X603217Y466209D01*
X603349Y466254D01*
X604090Y466561D01*
X604910D01*
X605960Y466126D01*
X607563Y465291D01*
X607738Y465240D01*
X607863Y465172D01*
X608380Y463470D01*
X608423Y462154D01*
X606583Y460313D01*
X606366Y459988D01*
X606144Y459660D01*
X606109Y459576D01*
X606109Y459572D01*
X606106Y459568D01*
X606029Y459180D01*
X605951Y458797D01*
X605952Y458792D01*
X605951Y458788D01*
X606027Y458404D01*
X606103Y458016D01*
X606105Y458012D01*
X606106Y458008D01*
X606561Y456910D01*
Y456090D01*
X606160Y455123D01*
X605267Y453721D01*
X605203Y453557D01*
X605105Y453412D01*
X605060Y453190D01*
X604978Y452980D01*
X604982Y452804D01*
X604947Y452632D01*
X604990Y452410D01*
X604995Y452184D01*
X605066Y452023D01*
X605100Y451851D01*
X605839Y450048D01*
X605841Y450046D01*
X605842Y450042D01*
X606311Y448910D01*
Y448090D01*
X605842Y446958D01*
X605841Y446955D01*
X605839Y446952D01*
X605100Y445149D01*
X605066Y444977D01*
X604995Y444816D01*
X604990Y444590D01*
X604947Y444368D01*
X604982Y444196D01*
X604978Y444021D01*
X605060Y443810D01*
X605105Y443588D01*
X605203Y443443D01*
X605267Y443279D01*
X606160Y441877D01*
X606561Y440910D01*
Y440090D01*
X606127Y439043D01*
X605291Y437446D01*
X605239Y437270D01*
X605151Y437108D01*
X605127Y436892D01*
X605066Y436683D01*
X605086Y436500D01*
X605066Y436317D01*
X605127Y436108D01*
X605151Y435892D01*
X605239Y435730D01*
X605291Y435554D01*
X605885Y434420D01*
X605351Y432674D01*
X604124Y432116D01*
X602067Y431827D01*
X601982Y431884D01*
X601202Y432039D01*
X599798D01*
X599798Y432039D01*
X599018Y431884D01*
X598356Y431442D01*
X597667Y430753D01*
X596910Y430439D01*
X596090D01*
X595333Y430753D01*
X594753Y431333D01*
X594439Y432090D01*
Y433054D01*
X594539Y433557D01*
Y439443D01*
X594439Y439946D01*
Y441054D01*
X594539Y441557D01*
Y442500D01*
X594539Y442500D01*
X594384Y443280D01*
X593942Y443942D01*
X593942Y443942D01*
X591666Y446218D01*
X591004Y446660D01*
X590224Y446815D01*
X589443Y446660D01*
X587315Y447315D01*
X586660Y449443D01*
X586815Y450224D01*
X586660Y451004D01*
X586218Y451666D01*
X583942Y453942D01*
X583280Y454384D01*
X582500Y454539D01*
X581557D01*
X581054Y454439D01*
X579946D01*
X579443Y454539D01*
X577365D01*
X576631Y455639D01*
X576600Y455879D01*
Y457315D01*
X576336Y457953D01*
X576273Y458445D01*
X576442Y458558D01*
X576442Y458558D01*
X578543Y460659D01*
X578985Y461320D01*
X579140Y462101D01*
X578985Y462881D01*
X578867Y463058D01*
X578439Y464090D01*
Y464910D01*
X578514Y465090D01*
X578514Y465090D01*
X578669Y465870D01*
X578514Y466651D01*
X578072Y467312D01*
X578072Y467312D01*
X577407Y467977D01*
X577599Y471126D01*
X578057Y471764D01*
X578154Y471978D01*
X578284Y472172D01*
X578317Y472337D01*
X578386Y472489D01*
X578394Y472723D01*
X578397Y472743D01*
X578734Y472969D01*
X581525Y473859D01*
X592896Y462488D01*
D02*
G37*
G36*
X612650Y379566D02*
Y377934D01*
X613274Y376427D01*
X614202Y375500D01*
X613274Y374572D01*
X612650Y373065D01*
Y372309D01*
X584277D01*
X583991Y372793D01*
X583357Y375309D01*
X583976Y375928D01*
X584600Y377434D01*
Y379066D01*
X584556Y379172D01*
X586285Y382152D01*
X586313Y382172D01*
X589568D01*
X592150Y380565D01*
Y378934D01*
X592774Y377427D01*
X593927Y376274D01*
X595434Y375650D01*
X597066D01*
X598572Y376274D01*
X599726Y377427D01*
X600350Y378934D01*
Y380565D01*
X602932Y382172D01*
X610482D01*
X612650Y379566D01*
D02*
G37*
%LPC*%
G36*
X565316Y508600D02*
X563684D01*
X562178Y507976D01*
X561024Y506823D01*
X560400Y505316D01*
Y503685D01*
X561024Y502178D01*
X562178Y501024D01*
X563684Y500400D01*
X565316D01*
X566822Y501024D01*
X567976Y502178D01*
X568600Y503685D01*
Y505316D01*
X567976Y506823D01*
X566822Y507976D01*
X565316Y508600D01*
D02*
G37*
G36*
X557315Y500600D02*
X555685D01*
X554178Y499976D01*
X553252Y499050D01*
X552510Y498912D01*
X551742Y499046D01*
X550822Y499966D01*
X549315Y500590D01*
X547685D01*
X546177Y499966D01*
X545024Y498813D01*
X544400Y497306D01*
Y495675D01*
X545024Y494168D01*
X546177Y493014D01*
X547685Y492390D01*
X549315D01*
X550822Y493014D01*
X551748Y493940D01*
X552490Y494078D01*
X553258Y493944D01*
X554178Y493024D01*
X555685Y492400D01*
X557315D01*
X558823Y493024D01*
X559976Y494178D01*
X560600Y495685D01*
Y497315D01*
X559976Y498822D01*
X558823Y499976D01*
X557315Y500600D01*
D02*
G37*
G36*
X350816Y699100D02*
X349184D01*
X347678Y698476D01*
X346524Y697322D01*
X345900Y695816D01*
Y694184D01*
X346524Y692678D01*
X347678Y691524D01*
X349184Y690900D01*
X350816D01*
X352323Y691524D01*
X353476Y692678D01*
X354100Y694184D01*
Y695816D01*
X353476Y697322D01*
X352323Y698476D01*
X350816Y699100D01*
D02*
G37*
G36*
X338316D02*
X336684D01*
X335178Y698476D01*
X334024Y697322D01*
X333400Y695816D01*
Y694184D01*
X334024Y692678D01*
X335178Y691524D01*
X336684Y690900D01*
X338316D01*
X339823Y691524D01*
X340976Y692678D01*
X341600Y694184D01*
Y695816D01*
X340976Y697322D01*
X339823Y698476D01*
X338316Y699100D01*
D02*
G37*
G36*
X294816Y689100D02*
X293185D01*
X291677Y688476D01*
X290524Y687322D01*
X289900Y685816D01*
Y684184D01*
X290524Y682678D01*
X291677Y681524D01*
X293185Y680900D01*
X294816D01*
X296322Y681524D01*
X297476Y682678D01*
X298100Y684184D01*
Y685816D01*
X297476Y687322D01*
X296322Y688476D01*
X294816Y689100D01*
D02*
G37*
G36*
Y674100D02*
X293185D01*
X291677Y673476D01*
X290524Y672322D01*
X289900Y670816D01*
Y669184D01*
X290524Y667678D01*
X291677Y666524D01*
X293185Y665900D01*
X294816D01*
X296322Y666524D01*
X297476Y667678D01*
X298100Y669184D01*
Y670816D01*
X297476Y672322D01*
X296322Y673476D01*
X294816Y674100D01*
D02*
G37*
G36*
Y658100D02*
X293185D01*
X291677Y657476D01*
X290524Y656322D01*
X289900Y654816D01*
Y653184D01*
X290524Y651677D01*
X291677Y650524D01*
X293185Y649900D01*
X294816D01*
X296322Y650524D01*
X297476Y651677D01*
X298100Y653184D01*
Y654816D01*
X297476Y656322D01*
X296322Y657476D01*
X294816Y658100D01*
D02*
G37*
G36*
X323815Y648100D02*
X322184D01*
X320677Y647476D01*
X319524Y646322D01*
X318900Y644816D01*
Y643185D01*
X319524Y641678D01*
X320677Y640524D01*
X322184Y639900D01*
X323815D01*
X325322Y640524D01*
X326476Y641678D01*
X327100Y643185D01*
Y644816D01*
X326476Y646322D01*
X325322Y647476D01*
X323815Y648100D01*
D02*
G37*
G36*
X294816Y641100D02*
X293185D01*
X291677Y640476D01*
X290524Y639322D01*
X289900Y637816D01*
Y636185D01*
X290524Y634678D01*
X291677Y633524D01*
X293185Y632900D01*
X294816D01*
X296322Y633524D01*
X297476Y634678D01*
X298100Y636185D01*
Y637816D01*
X297476Y639322D01*
X296322Y640476D01*
X294816Y641100D01*
D02*
G37*
G36*
X333815Y600100D02*
X332184D01*
X330677Y599476D01*
X329524Y598322D01*
X328900Y596815D01*
Y595185D01*
X329524Y593678D01*
X330677Y592524D01*
X332184Y591900D01*
X333815D01*
X335322Y592524D01*
X336476Y593678D01*
X337100Y595185D01*
Y596815D01*
X336476Y598322D01*
X335322Y599476D01*
X333815Y600100D01*
D02*
G37*
G36*
X318815Y556100D02*
X317185D01*
X315678Y555476D01*
X314524Y554322D01*
X313900Y552816D01*
Y551184D01*
X314524Y549678D01*
X315678Y548524D01*
X317185Y547900D01*
X318815D01*
X320322Y548524D01*
X321476Y549678D01*
X322100Y551184D01*
Y552816D01*
X321476Y554322D01*
X320322Y555476D01*
X318815Y556100D01*
D02*
G37*
G36*
X295816Y517100D02*
X294184D01*
X292677Y516476D01*
X291524Y515322D01*
X290900Y513815D01*
Y512184D01*
X291524Y510677D01*
X292677Y509524D01*
X294184Y508900D01*
X295816D01*
X297322Y509524D01*
X298476Y510677D01*
X299100Y512184D01*
Y513815D01*
X298476Y515322D01*
X297322Y516476D01*
X295816Y517100D01*
D02*
G37*
G36*
X285065Y475100D02*
X283435D01*
X281928Y474476D01*
X280774Y473322D01*
X280150Y471815D01*
Y470185D01*
X280774Y468677D01*
X281928Y467524D01*
X283435Y466900D01*
X285065D01*
X286572Y467524D01*
X287726Y468677D01*
X288350Y470185D01*
Y471815D01*
X287726Y473322D01*
X286572Y474476D01*
X285065Y475100D01*
D02*
G37*
G36*
X233316Y474100D02*
X231684D01*
X230177Y473476D01*
X229024Y472322D01*
X228400Y470816D01*
Y469184D01*
X229024Y467678D01*
X229992Y466250D01*
X229024Y464822D01*
X228400Y463316D01*
Y461684D01*
X229024Y460177D01*
X230177Y459024D01*
X231684Y458400D01*
X233316D01*
X234822Y459024D01*
X235976Y460177D01*
X236524Y461502D01*
X236611Y461692D01*
X239175Y463394D01*
X239372Y463400D01*
X240816D01*
X242323Y464024D01*
X243476Y465178D01*
X244100Y466684D01*
Y468316D01*
X243476Y469823D01*
X242323Y470976D01*
X240816Y471600D01*
X239184D01*
X237525Y471096D01*
X235976Y472322D01*
X234822Y473476D01*
X233316Y474100D01*
D02*
G37*
G36*
X294816Y442100D02*
X293185D01*
X291677Y441476D01*
X290524Y440322D01*
X289900Y438815D01*
Y437184D01*
X290524Y435677D01*
X291677Y434524D01*
X293185Y433900D01*
X294816D01*
X296322Y434524D01*
X297476Y435677D01*
X298100Y437184D01*
Y438815D01*
X297476Y440322D01*
X296322Y441476D01*
X294816Y442100D01*
D02*
G37*
G36*
Y426100D02*
X293185D01*
X291677Y425476D01*
X290524Y424322D01*
X289900Y422816D01*
Y421185D01*
X290524Y419678D01*
X291677Y418524D01*
X293185Y417900D01*
X294816D01*
X296322Y418524D01*
X297476Y419678D01*
X298100Y421185D01*
Y422816D01*
X297476Y424322D01*
X296322Y425476D01*
X294816Y426100D01*
D02*
G37*
G36*
Y410100D02*
X293185D01*
X291677Y409476D01*
X290524Y408322D01*
X289900Y406815D01*
Y405185D01*
X290524Y403678D01*
X291677Y402524D01*
X293185Y401900D01*
X294816D01*
X296322Y402524D01*
X297476Y403678D01*
X298100Y405185D01*
Y406815D01*
X297476Y408322D01*
X296322Y409476D01*
X294816Y410100D01*
D02*
G37*
G36*
Y394100D02*
X293185D01*
X291677Y393476D01*
X290524Y392323D01*
X289900Y390816D01*
Y389184D01*
X290524Y387678D01*
X291677Y386524D01*
X293185Y385900D01*
X294816D01*
X296322Y386524D01*
X297476Y387678D01*
X298100Y389184D01*
Y390816D01*
X297476Y392323D01*
X296322Y393476D01*
X294816Y394100D01*
D02*
G37*
G36*
X328815Y377100D02*
X327184D01*
X325678Y376476D01*
X324524Y375322D01*
X323900Y373815D01*
Y372184D01*
X324524Y370677D01*
X325678Y369524D01*
X327184Y368900D01*
X328815D01*
X330322Y369524D01*
X331476Y370677D01*
X332100Y372184D01*
Y373815D01*
X331476Y375322D01*
X330322Y376476D01*
X328815Y377100D01*
D02*
G37*
G36*
X329815Y363100D02*
X328185D01*
X326678Y362476D01*
X325524Y361322D01*
X324900Y359815D01*
Y358185D01*
X325524Y356678D01*
X326678Y355524D01*
X328185Y354900D01*
X329815D01*
X331323Y355524D01*
X332476Y356678D01*
X333100Y358185D01*
Y359815D01*
X332476Y361322D01*
X331323Y362476D01*
X329815Y363100D01*
D02*
G37*
G36*
X310816Y353100D02*
X309184D01*
X307677Y352476D01*
X306524Y351322D01*
X305900Y349815D01*
Y348184D01*
X306524Y346678D01*
X307677Y345524D01*
X309184Y344900D01*
X310816D01*
X312322Y345524D01*
X313476Y346678D01*
X314100Y348184D01*
Y349815D01*
X313476Y351322D01*
X312322Y352476D01*
X310816Y353100D01*
D02*
G37*
G36*
X326816Y337100D02*
X325185D01*
X323678Y336476D01*
X322524Y335322D01*
X321900Y333815D01*
Y332184D01*
X322524Y330677D01*
X323678Y329524D01*
X325185Y328900D01*
X326816D01*
X328322Y329524D01*
X329476Y330677D01*
X330100Y332184D01*
Y333815D01*
X329476Y335322D01*
X328322Y336476D01*
X326816Y337100D01*
D02*
G37*
G36*
X843500Y317165D02*
Y310500D01*
X850165D01*
X849853Y311667D01*
X848602Y313833D01*
X846833Y315602D01*
X844667Y316853D01*
X843500Y317165D01*
D02*
G37*
G36*
X332816Y320100D02*
X331185D01*
X329678Y319476D01*
X328524Y318323D01*
X327900Y316815D01*
Y315184D01*
X328524Y313678D01*
X329678Y312524D01*
X331185Y311900D01*
X332178D01*
X332187Y311894D01*
X333593Y310165D01*
X334043Y309161D01*
X333900Y308815D01*
Y307185D01*
X334524Y305678D01*
X335678Y304524D01*
X337184Y303900D01*
X337859D01*
X339028Y302091D01*
X339412Y301269D01*
X339444Y301128D01*
X338900Y299816D01*
Y298185D01*
X339524Y296678D01*
X340678Y295524D01*
X342184Y294900D01*
X343815D01*
X345322Y295524D01*
X346476Y296678D01*
X347100Y298185D01*
Y299816D01*
X346476Y301322D01*
X345322Y302476D01*
X343815Y303100D01*
X343141D01*
X341972Y304909D01*
X341588Y305731D01*
X341556Y305872D01*
X342100Y307185D01*
Y308815D01*
X341476Y310322D01*
X340322Y311476D01*
X338816Y312100D01*
X337822D01*
X337813Y312106D01*
X336407Y313835D01*
X335957Y314839D01*
X336100Y315184D01*
Y316815D01*
X335476Y318323D01*
X334322Y319476D01*
X332816Y320100D01*
D02*
G37*
G36*
X377816Y310100D02*
X376185D01*
X374678Y309476D01*
X373524Y308322D01*
X372900Y306815D01*
Y305184D01*
X373524Y303678D01*
X374654Y302500D01*
X373524Y301322D01*
X372900Y299816D01*
Y298185D01*
X373524Y296678D01*
X374678Y295524D01*
X373900Y292815D01*
Y291185D01*
X374524Y289678D01*
X375677Y288524D01*
X375686Y288484D01*
X375524Y288323D01*
X374900Y286816D01*
Y285184D01*
X375524Y283678D01*
X376678Y282524D01*
X376686Y282484D01*
X376524Y282322D01*
X375900Y280816D01*
Y279184D01*
X376140Y277427D01*
X374678Y276476D01*
X373524Y275322D01*
X372900Y273815D01*
Y272184D01*
X373524Y270678D01*
X373686Y270516D01*
X373677Y270476D01*
X372524Y269322D01*
X371900Y267815D01*
Y266185D01*
X372524Y264678D01*
X373678Y263524D01*
X375185Y262900D01*
X376816D01*
X378322Y263524D01*
X379476Y264678D01*
X380100Y266185D01*
Y267815D01*
X379476Y269322D01*
X379314Y269484D01*
X379323Y269524D01*
X380476Y270678D01*
X381100Y272184D01*
Y273815D01*
X380860Y275573D01*
X382323Y276524D01*
X383476Y277677D01*
X384100Y279184D01*
Y280816D01*
X383476Y282322D01*
X382323Y283476D01*
X382314Y283516D01*
X382476Y283678D01*
X383100Y285184D01*
Y286816D01*
X382476Y288323D01*
X381323Y289476D01*
X381314Y289516D01*
X381476Y289678D01*
X382100Y291185D01*
Y292815D01*
X381476Y294322D01*
X380322Y295476D01*
X381100Y298185D01*
Y299816D01*
X380476Y301322D01*
X379346Y302500D01*
X380476Y303678D01*
X381100Y305184D01*
Y306815D01*
X380476Y308322D01*
X379323Y309476D01*
X377816Y310100D01*
D02*
G37*
%LPD*%
D13*
X550000Y245000D02*
X740000D01*
X544000Y237000D02*
X750000D01*
X547000Y241000D02*
X745000D01*
X558500Y390750D02*
Y398500D01*
X555750Y401250D02*
X558500Y398500D01*
Y390750D02*
X565000Y384250D01*
Y368000D02*
Y384250D01*
X572750Y369250D02*
X613315D01*
X563000Y359500D02*
X572750Y369250D01*
X613315D02*
X614865Y367700D01*
X618635D02*
X621450D01*
X624500Y370750D01*
X614865Y367700D02*
X618635D01*
X541000Y233000D02*
X755000D01*
X798000Y276000D01*
X830000D01*
X839075Y285075D01*
Y286075D02*
X841000Y288000D01*
X839075Y285075D02*
Y286075D01*
X781000Y277000D02*
Y288000D01*
X745000Y241000D02*
X781000Y277000D01*
X750000Y237000D02*
X801000Y288000D01*
X740000Y245000D02*
X761000Y266000D01*
Y288000D01*
X533000Y248000D02*
X544000Y237000D01*
X535000Y253000D02*
X547000Y241000D01*
X537000Y258000D02*
X550000Y245000D01*
X531000Y243000D02*
X541000Y233000D01*
X521000Y253000D02*
X535000D01*
X515000Y258000D02*
X537000D01*
X526000Y248000D02*
X533000D01*
D32*
X575000Y250000D02*
D03*
X587500D02*
D03*
X660000Y252500D02*
D03*
X450250Y397250D02*
D03*
X498000Y377750D02*
D03*
X560250Y380500D02*
D03*
X556500Y408500D02*
D03*
X616750Y372250D02*
D03*
X600250Y363750D02*
D03*
X596250Y379750D02*
D03*
X555750Y401250D02*
D03*
X564500Y408500D02*
D03*
X565000Y368000D02*
D03*
X735000Y452000D02*
D03*
X772000Y535000D02*
D03*
X819000Y523500D02*
D03*
X648000Y258000D02*
D03*
X570000Y332000D02*
D03*
X564000Y309000D02*
D03*
X525000Y302000D02*
D03*
Y263000D02*
D03*
X648000Y270000D02*
D03*
X653000Y280000D02*
D03*
X844000Y497000D02*
D03*
Y504000D02*
D03*
X822000Y390000D02*
D03*
X767000Y413000D02*
D03*
X826000Y426000D02*
D03*
X831000Y453000D02*
D03*
X793000Y454000D02*
D03*
X773000Y472000D02*
D03*
X661000Y580000D02*
D03*
X814000Y394000D02*
D03*
X873000Y553000D02*
D03*
X879000Y547000D02*
D03*
X858000Y479000D02*
D03*
X838000Y398000D02*
D03*
X813000Y381000D02*
D03*
X823000Y441000D02*
D03*
X800000Y464000D02*
D03*
X819000Y437000D02*
D03*
X807000Y426000D02*
D03*
X801000Y427000D02*
D03*
X795000Y426000D02*
D03*
X790000Y429000D02*
D03*
X814000Y388000D02*
D03*
Y400000D02*
D03*
X780750Y487500D02*
D03*
X793000Y469500D02*
D03*
X803000Y486000D02*
D03*
X824000Y402000D02*
D03*
X882000Y523000D02*
D03*
X873000Y533000D02*
D03*
X904000Y454000D02*
D03*
X836000Y567000D02*
D03*
X848000Y535000D02*
D03*
X834000Y561000D02*
D03*
X810000Y513000D02*
D03*
X880000Y409000D02*
D03*
X872500Y430000D02*
D03*
X832500Y345000D02*
D03*
X870000Y365000D02*
D03*
X864000Y362000D02*
D03*
X772000Y448000D02*
D03*
X779750Y511250D02*
D03*
X832250Y476000D02*
D03*
X880500Y486250D02*
D03*
X742750Y538500D02*
D03*
X469000Y324000D02*
D03*
X662500Y360000D02*
D03*
X670000Y302500D02*
D03*
X655000Y360000D02*
D03*
X662500Y345000D02*
D03*
X715000Y255000D02*
D03*
X705000D02*
D03*
X421250Y507250D02*
D03*
X455250Y508750D02*
D03*
X461750Y500250D02*
D03*
X339000Y396000D02*
D03*
X310000Y390000D02*
D03*
X476000Y551000D02*
D03*
X517000Y531000D02*
D03*
X378000Y669000D02*
D03*
X411000Y658000D02*
D03*
X412000Y596000D02*
D03*
X407000Y525000D02*
D03*
Y576000D02*
D03*
X306000Y514000D02*
D03*
X352000Y546750D02*
D03*
X379000Y561000D02*
D03*
X768000Y504000D02*
D03*
X795000Y531500D02*
D03*
X505750Y629500D02*
D03*
X556735Y585789D02*
D03*
X598750Y569500D02*
D03*
X572750D02*
D03*
X670750Y429500D02*
D03*
X684750Y404500D02*
D03*
X726000Y433000D02*
D03*
X727000Y444000D02*
D03*
X701750Y519500D02*
D03*
X689750Y509500D02*
D03*
X700750Y494500D02*
D03*
X690750Y477500D02*
D03*
X623502Y550208D02*
D03*
X466750Y583500D02*
D03*
X446750Y597500D02*
D03*
X404000Y466000D02*
D03*
X392750Y415500D02*
D03*
X405750Y359500D02*
D03*
X450750Y416500D02*
D03*
X458750Y379500D02*
D03*
X491750Y396500D02*
D03*
X458000Y406000D02*
D03*
X256000Y315500D02*
D03*
X407000Y259250D02*
D03*
X408000Y297250D02*
D03*
X389000Y312250D02*
D03*
X378000Y332000D02*
D03*
X365000Y327750D02*
D03*
X377500Y387750D02*
D03*
X365000Y417750D02*
D03*
X377500Y427750D02*
D03*
X350000D02*
D03*
X557000Y278000D02*
D03*
X584250Y270250D02*
D03*
X571500Y285000D02*
D03*
X563000Y359500D02*
D03*
X580500Y378250D02*
D03*
X624500Y516500D02*
D03*
X604500Y504500D02*
D03*
X548500Y496490D02*
D03*
X564500Y504500D02*
D03*
X595000Y525000D02*
D03*
X590000Y515000D02*
D03*
X858000Y286000D02*
D03*
X880000Y315000D02*
D03*
X812500Y269750D02*
D03*
X440000Y324000D02*
D03*
X460000Y305000D02*
D03*
X501000Y325000D02*
D03*
X514000Y298000D02*
D03*
X542500Y285000D02*
D03*
X345000Y242500D02*
D03*
X380000Y240000D02*
D03*
X543000Y259000D02*
D03*
X554000Y252000D02*
D03*
X521000Y253000D02*
D03*
X526000Y248000D02*
D03*
X515000Y258000D02*
D03*
X531000Y243000D02*
D03*
X620000Y279000D02*
D03*
X554000Y304000D02*
D03*
X546000Y338000D02*
D03*
X544000Y272000D02*
D03*
X619000Y259000D02*
D03*
X620000Y286000D02*
D03*
X588000Y305000D02*
D03*
X594000Y316000D02*
D03*
X642000D02*
D03*
X630000D02*
D03*
X618000D02*
D03*
X606000D02*
D03*
X622000Y299000D02*
D03*
X455000Y266000D02*
D03*
X575000Y226000D02*
D03*
X591000Y363000D02*
D03*
X380000Y280000D02*
D03*
X376000Y267000D02*
D03*
X377000Y273000D02*
D03*
X379000Y286000D02*
D03*
X378000Y292000D02*
D03*
X377000Y306000D02*
D03*
Y299000D02*
D03*
X329000Y359000D02*
D03*
X328000Y373000D02*
D03*
X294000Y390000D02*
D03*
Y406000D02*
D03*
Y422000D02*
D03*
Y438000D02*
D03*
X295000Y513000D02*
D03*
X703000Y455000D02*
D03*
X556500Y488500D02*
D03*
X580000Y537500D02*
D03*
X585000Y542500D02*
D03*
X590000Y547500D02*
D03*
X614500Y559000D02*
D03*
X465000Y565000D02*
D03*
Y556000D02*
D03*
Y549000D02*
D03*
X483000Y406000D02*
D03*
X488000Y410000D02*
D03*
X496000Y411000D02*
D03*
X484000Y377000D02*
D03*
X476000D02*
D03*
X443000Y365000D02*
D03*
X466000Y373000D02*
D03*
X453000Y369000D02*
D03*
X764500Y518250D02*
D03*
X744750Y490750D02*
D03*
X735500Y490500D02*
D03*
X654500Y413750D02*
D03*
X657750Y419500D02*
D03*
X672250Y417500D02*
D03*
X665250Y412000D02*
D03*
X656500Y388250D02*
D03*
X523750Y496000D02*
D03*
X378250Y515000D02*
D03*
X284250Y471000D02*
D03*
X485750Y492000D02*
D03*
X488500Y450250D02*
D03*
X520250Y452750D02*
D03*
X464750Y473750D02*
D03*
X532490Y424500D02*
D03*
X520000Y427500D02*
D03*
X493000Y421000D02*
D03*
X492250Y437250D02*
D03*
X525750Y382000D02*
D03*
X521750Y388500D02*
D03*
X616750Y378750D02*
D03*
X624500Y370750D02*
D03*
X628495Y408495D02*
D03*
X528500Y515750D02*
D03*
X517000Y511000D02*
D03*
X453000Y565000D02*
D03*
X448000Y560000D02*
D03*
X452000Y579000D02*
D03*
X439000Y554000D02*
D03*
X505000Y612000D02*
D03*
X391000Y485000D02*
D03*
X396000Y480000D02*
D03*
X401000Y475000D02*
D03*
X391000Y627000D02*
D03*
X396000Y630000D02*
D03*
X401000Y634000D02*
D03*
X439000Y314000D02*
D03*
X478000Y293000D02*
D03*
X751000Y408000D02*
D03*
X732000Y410000D02*
D03*
X723000Y419000D02*
D03*
X548500Y400500D02*
D03*
X450000Y527500D02*
D03*
X332000Y316000D02*
D03*
X338000Y308000D02*
D03*
X343000Y299000D02*
D03*
X435000Y405000D02*
D03*
X436000Y500000D02*
D03*
Y587000D02*
D03*
Y677000D02*
D03*
X310000Y349000D02*
D03*
X326000Y333000D02*
D03*
X318000Y552000D02*
D03*
X333000Y596000D02*
D03*
X501000Y617000D02*
D03*
X496000Y622000D02*
D03*
X323000Y644000D02*
D03*
X359062Y595241D02*
D03*
X928000Y504000D02*
D03*
X881000Y497000D02*
D03*
X893000Y470000D02*
D03*
X868000Y621000D02*
D03*
X644500Y424510D02*
D03*
X711000Y432000D02*
D03*
Y416000D02*
D03*
X635250Y360000D02*
D03*
X620500Y408510D02*
D03*
X612500Y400500D02*
D03*
X636500Y408500D02*
D03*
X636500Y448490D02*
D03*
X636510Y432500D02*
D03*
X697500Y262500D02*
D03*
X734000Y301000D02*
D03*
X910000Y335000D02*
D03*
X930000Y315000D02*
D03*
X910000Y295000D02*
D03*
X880000Y399000D02*
D03*
X858000Y356000D02*
D03*
X695000Y642500D02*
D03*
X697500Y672500D02*
D03*
X582500Y670000D02*
D03*
X592500Y692500D02*
D03*
X458000Y240000D02*
D03*
X511000Y311000D02*
D03*
X604500Y408500D02*
D03*
X596250Y408750D02*
D03*
X612505Y464505D02*
D03*
X621250Y576750D02*
D03*
X790000Y563000D02*
D03*
X810000Y545000D02*
D03*
X744500Y522000D02*
D03*
X703000Y440000D02*
D03*
X707500Y325000D02*
D03*
X650500Y301000D02*
D03*
X677500Y287500D02*
D03*
X392000Y667000D02*
D03*
X377000Y605000D02*
D03*
X339000Y677000D02*
D03*
X245000Y683000D02*
D03*
X400000Y675000D02*
D03*
X472500Y677500D02*
D03*
X502500D02*
D03*
X487500Y665000D02*
D03*
X525000Y677500D02*
D03*
X542500Y680000D02*
D03*
X520000Y662500D02*
D03*
X532500Y645000D02*
D03*
X533000Y621000D02*
D03*
X510000Y645000D02*
D03*
X491000D02*
D03*
X454000Y666000D02*
D03*
X470000Y646000D02*
D03*
X552500Y625000D02*
D03*
X552000Y604000D02*
D03*
X597000Y597000D02*
D03*
X765000Y680000D02*
D03*
X755000D02*
D03*
X745000D02*
D03*
X757500Y632500D02*
D03*
X705000Y595000D02*
D03*
X667500Y625000D02*
D03*
Y600000D02*
D03*
X632500D02*
D03*
X647500Y615000D02*
D03*
Y630000D02*
D03*
Y645000D02*
D03*
X630000Y660000D02*
D03*
X657500Y680000D02*
D03*
X645000D02*
D03*
X632500D02*
D03*
X697500Y712500D02*
D03*
X757500D02*
D03*
X810000Y710000D02*
D03*
X802500Y667500D02*
D03*
X900000Y670000D02*
D03*
X862500Y650000D02*
D03*
Y665000D02*
D03*
X852500Y677500D02*
D03*
X812500Y595000D02*
D03*
X775000Y625000D02*
D03*
Y600000D02*
D03*
X747500D02*
D03*
X742500Y657500D02*
D03*
X755000Y645000D02*
D03*
X855000Y600000D02*
D03*
X862500Y712500D02*
D03*
X917500D02*
D03*
X940000Y652500D02*
D03*
X942000Y609000D02*
D03*
X875000Y580000D02*
D03*
X852000Y574000D02*
D03*
X940000Y506000D02*
D03*
X881000Y508000D02*
D03*
X866000Y459000D02*
D03*
X817500Y370000D02*
D03*
X844000Y417000D02*
D03*
X890000Y390000D02*
D03*
Y430000D02*
D03*
X922500Y452500D02*
D03*
X940000Y452000D02*
D03*
Y399000D02*
D03*
Y345000D02*
D03*
Y285000D02*
D03*
X942500Y227500D02*
D03*
X880000D02*
D03*
X807000Y226000D02*
D03*
X737000D02*
D03*
X647000D02*
D03*
X484000Y227000D02*
D03*
X427500Y227500D02*
D03*
X347500D02*
D03*
X292500D02*
D03*
X366250Y507000D02*
D03*
X644495Y448505D02*
D03*
X657000Y451000D02*
D03*
X654000Y509000D02*
D03*
Y490000D02*
D03*
X294000Y637000D02*
D03*
Y654000D02*
D03*
Y670000D02*
D03*
Y685000D02*
D03*
X877000Y517000D02*
D03*
X869000Y526000D02*
D03*
X820000Y552500D02*
D03*
X648000Y515000D02*
D03*
X604250Y400750D02*
D03*
X654000Y317000D02*
D03*
X520000Y275000D02*
D03*
X520000Y285000D02*
D03*
X540495Y432505D02*
D03*
X540505Y424505D02*
D03*
Y416505D02*
D03*
X540500Y456500D02*
D03*
X636495Y472505D02*
D03*
X600000Y327000D02*
D03*
X588000Y343000D02*
D03*
X588500Y456250D02*
D03*
Y448500D02*
D03*
X604250D02*
D03*
X596500D02*
D03*
X602000Y676000D02*
D03*
X620000D02*
D03*
X715000Y674000D02*
D03*
X733000D02*
D03*
X840000D02*
D03*
X822000D02*
D03*
X831000Y668000D02*
D03*
Y660000D02*
D03*
Y653000D02*
D03*
Y646000D02*
D03*
X840000Y657500D02*
D03*
X822500D02*
D03*
X724000Y670000D02*
D03*
Y662000D02*
D03*
X715000Y657500D02*
D03*
X733000Y658000D02*
D03*
X724000Y652000D02*
D03*
Y645000D02*
D03*
X602000Y659000D02*
D03*
X620000D02*
D03*
X611000Y647000D02*
D03*
Y654000D02*
D03*
Y662000D02*
D03*
Y670000D02*
D03*
X687500Y700000D02*
D03*
X677500Y707500D02*
D03*
X667500Y700000D02*
D03*
X588505Y400495D02*
D03*
X580495Y400495D02*
D03*
X580500Y392490D02*
D03*
X644505Y440505D02*
D03*
X636500Y456490D02*
D03*
X636500Y464500D02*
D03*
X540500D02*
D03*
Y472500D02*
D03*
X556500Y496500D02*
D03*
X588495Y424495D02*
D03*
X612505Y448505D02*
D03*
X620495Y448505D02*
D03*
Y432505D02*
D03*
X604500Y480490D02*
D03*
X572495Y480495D02*
D03*
X588505Y480505D02*
D03*
X606000Y359750D02*
D03*
X581000Y409000D02*
D03*
X587450Y332000D02*
D03*
X630000Y340000D02*
D03*
X618000Y350000D02*
D03*
X735000Y522000D02*
D03*
X642000Y359000D02*
D03*
X540505Y480495D02*
D03*
X802000Y644000D02*
D03*
X766000Y650000D02*
D03*
X661000Y651000D02*
D03*
X580000Y645000D02*
D03*
X545000Y651000D02*
D03*
X532500Y702500D02*
D03*
Y687500D02*
D03*
Y695000D02*
D03*
X522500Y690000D02*
D03*
Y697500D02*
D03*
Y705000D02*
D03*
X562500Y707500D02*
D03*
X572500Y700000D02*
D03*
X552500D02*
D03*
X795000Y697500D02*
D03*
X785000Y707500D02*
D03*
X775000Y697500D02*
D03*
X649000Y290000D02*
D03*
X764500Y526500D02*
D03*
X232500Y470000D02*
D03*
Y462500D02*
D03*
X240000Y467500D02*
D03*
X350000Y695000D02*
D03*
X337500D02*
D03*
X636500Y416500D02*
D03*
X564500Y440500D02*
D03*
X540500Y408500D02*
D03*
X596500Y440500D02*
D03*
X580500Y456500D02*
D03*
X596500D02*
D03*
X580500Y432500D02*
D03*
X596500D02*
D03*
X572500Y440500D02*
D03*
X604500D02*
D03*
X572500Y456500D02*
D03*
X604500D02*
D03*
X580500Y464500D02*
D03*
X596500D02*
D03*
X572500Y432500D02*
D03*
X604500D02*
D03*
X572500Y464500D02*
D03*
X604500D02*
D03*
X580500Y424500D02*
D03*
X596500D02*
D03*
X612500Y440500D02*
D03*
X564500Y456500D02*
D03*
X612500D02*
D03*
X580500Y472500D02*
D03*
X596500D02*
D03*
X572500Y424500D02*
D03*
X604500D02*
D03*
X564500Y432500D02*
D03*
X612500D02*
D03*
X564500Y464500D02*
D03*
X572500Y472500D02*
D03*
X604500D02*
D03*
X580500Y416500D02*
D03*
X596500D02*
D03*
X564500Y424500D02*
D03*
X612500D02*
D03*
X564500Y472500D02*
D03*
X612500D02*
D03*
X572500Y416500D02*
D03*
Y408500D02*
D03*
X654000Y713000D02*
D03*
X594000D02*
D03*
X538000D02*
D03*
X490000Y712500D02*
D03*
X445000D02*
D03*
X390000D02*
D03*
X340000D02*
D03*
X295000D02*
D03*
X260000Y710000D02*
D03*
X239000D02*
D03*
X237000Y696000D02*
D03*
X245000Y477500D02*
D03*
Y227000D02*
D03*
X235000Y252500D02*
D03*
Y262500D02*
D03*
X233000Y676000D02*
D03*
X232000Y276000D02*
D03*
D68*
X485847Y492000D02*
X485957D01*
D70*
X829914Y332414D02*
X830000Y332500D01*
X829914Y309914D02*
Y332414D01*
X825000Y307500D02*
X827500D01*
X821500D02*
X825000D01*
X827500D02*
X829914Y309914D01*
X821000Y308000D02*
X821500Y307500D01*
D73*
X626000Y386250D02*
X636500Y396750D01*
X564750Y393250D02*
X571750Y386250D01*
X626000D01*
X564750Y393250D02*
Y408500D01*
X794147Y310105D02*
X798895D01*
X801000Y308000D01*
X792000Y312252D02*
X794147Y310105D01*
X636500Y396750D02*
Y408500D01*
X582955Y478196D02*
Y482045D01*
X596462Y464538D02*
Y464689D01*
Y464538D02*
X596500Y464500D01*
X582955Y478196D02*
X596462Y464689D01*
X570000Y495000D02*
X582955Y482045D01*
X570000Y495000D02*
Y499038D01*
D74*
X821000Y308000D02*
X824500D01*
X801000D02*
X821000D01*
X824500D02*
X825000Y307500D01*
D75*
X925000Y590000D02*
D03*
Y610000D02*
D03*
Y630000D02*
D03*
Y550000D02*
D03*
Y570000D02*
D03*
Y650000D02*
D03*
X761000Y308000D02*
D03*
X781000Y288000D02*
D03*
Y308000D02*
D03*
X801000Y288000D02*
D03*
Y308000D02*
D03*
X821000Y288000D02*
D03*
Y308000D02*
D03*
X841000Y288000D02*
D03*
Y308000D02*
D03*
D76*
X925000Y530000D02*
D03*
X761000Y288000D02*
D03*
M02*
