G04*
G04 #@! TF.GenerationSoftware,Altium Limited,Altium Designer,24.4.1 (13)*
G04*
G04 Layer_Color=128*
%FSLAX44Y44*%
%MOMM*%
G71*
G04*
G04 #@! TF.SameCoordinates,C8449213-8EB4-48FE-A7C1-A76CF94B410D*
G04*
G04*
G04 #@! TF.FilePolarity,Positive*
G04*
G01*
G75*
%ADD25R,0.6000X0.6500*%
%ADD26R,0.6500X0.6000*%
%ADD29R,0.6725X0.7154*%
%ADD30R,0.5811X0.5121*%
%ADD54R,0.5121X0.5811*%
G04:AMPARAMS|DCode=59|XSize=0.2mm|YSize=0.6mm|CornerRadius=0.05mm|HoleSize=0mm|Usage=FLASHONLY|Rotation=0.000|XOffset=0mm|YOffset=0mm|HoleType=Round|Shape=RoundedRectangle|*
%AMROUNDEDRECTD59*
21,1,0.2000,0.5000,0,0,0.0*
21,1,0.1000,0.6000,0,0,0.0*
1,1,0.1000,0.0500,-0.2500*
1,1,0.1000,-0.0500,-0.2500*
1,1,0.1000,-0.0500,0.2500*
1,1,0.1000,0.0500,0.2500*
%
%ADD59ROUNDEDRECTD59*%
G04:AMPARAMS|DCode=60|XSize=0.2mm|YSize=0.6mm|CornerRadius=0.05mm|HoleSize=0mm|Usage=FLASHONLY|Rotation=90.000|XOffset=0mm|YOffset=0mm|HoleType=Round|Shape=RoundedRectangle|*
%AMROUNDEDRECTD60*
21,1,0.2000,0.5000,0,0,90.0*
21,1,0.1000,0.6000,0,0,90.0*
1,1,0.1000,0.2500,0.0500*
1,1,0.1000,0.2500,-0.0500*
1,1,0.1000,-0.2500,-0.0500*
1,1,0.1000,-0.2500,0.0500*
%
%ADD60ROUNDEDRECTD60*%
G04:AMPARAMS|DCode=61|XSize=0.2mm|YSize=0.7mm|CornerRadius=0.05mm|HoleSize=0mm|Usage=FLASHONLY|Rotation=90.000|XOffset=0mm|YOffset=0mm|HoleType=Round|Shape=RoundedRectangle|*
%AMROUNDEDRECTD61*
21,1,0.2000,0.6000,0,0,90.0*
21,1,0.1000,0.7000,0,0,90.0*
1,1,0.1000,0.3000,0.0500*
1,1,0.1000,0.3000,-0.0500*
1,1,0.1000,-0.3000,-0.0500*
1,1,0.1000,-0.3000,0.0500*
%
%ADD61ROUNDEDRECTD61*%
%ADD62R,0.5500X0.5500*%
%ADD64R,0.7112X4.1910*%
%ADD67R,0.5500X0.5000*%
%ADD68R,0.5000X0.5500*%
%ADD75R,0.7500X0.9000*%
%ADD76R,0.4000X0.5000*%
%ADD79R,0.5500X0.5500*%
%ADD91R,0.7112X3.2004*%
%ADD164R,0.9000X0.7500*%
%ADD165R,1.0000X0.9000*%
%ADD166R,1.1061X0.9582*%
%ADD167R,0.9000X1.0000*%
%ADD168R,0.4500X0.4500*%
%ADD169R,0.5682X0.5725*%
%ADD170R,0.8500X0.9000*%
G04:AMPARAMS|DCode=171|XSize=0.2mm|YSize=0.565mm|CornerRadius=0.05mm|HoleSize=0mm|Usage=FLASHONLY|Rotation=270.000|XOffset=0mm|YOffset=0mm|HoleType=Round|Shape=RoundedRectangle|*
%AMROUNDEDRECTD171*
21,1,0.2000,0.4650,0,0,270.0*
21,1,0.1000,0.5650,0,0,270.0*
1,1,0.1000,-0.2325,-0.0500*
1,1,0.1000,-0.2325,0.0500*
1,1,0.1000,0.2325,0.0500*
1,1,0.1000,0.2325,-0.0500*
%
%ADD171ROUNDEDRECTD171*%
%ADD173R,0.5725X0.5682*%
%ADD174R,0.5000X0.4000*%
%ADD175R,0.4682X0.4725*%
G04:AMPARAMS|DCode=181|XSize=0.565mm|YSize=0.36mm|CornerRadius=0.0504mm|HoleSize=0mm|Usage=FLASHONLY|Rotation=180.000|XOffset=0mm|YOffset=0mm|HoleType=Round|Shape=RoundedRectangle|*
%AMROUNDEDRECTD181*
21,1,0.5650,0.2592,0,0,180.0*
21,1,0.4642,0.3600,0,0,180.0*
1,1,0.1008,-0.2321,0.1296*
1,1,0.1008,0.2321,0.1296*
1,1,0.1008,0.2321,-0.1296*
1,1,0.1008,-0.2321,-0.1296*
%
%ADD181ROUNDEDRECTD181*%
D25*
X982826Y377017D02*
D03*
Y385517D02*
D03*
X993227Y377078D02*
D03*
Y385578D02*
D03*
X972268Y377017D02*
D03*
Y385517D02*
D03*
X962188Y377017D02*
D03*
Y385517D02*
D03*
X910973Y193838D02*
D03*
Y202338D02*
D03*
X845960Y147865D02*
D03*
Y156365D02*
D03*
X823260Y145369D02*
D03*
Y153869D02*
D03*
X790850Y151521D02*
D03*
Y160021D02*
D03*
D26*
X1035105Y213000D02*
D03*
X1026605D02*
D03*
X331986Y809416D02*
D03*
X340486D02*
D03*
X332104Y819787D02*
D03*
X340604D02*
D03*
X332785Y787762D02*
D03*
X341285D02*
D03*
X332607Y777112D02*
D03*
X341107D02*
D03*
X332696Y766640D02*
D03*
X341196D02*
D03*
X332518Y756168D02*
D03*
X341018D02*
D03*
X332377Y745479D02*
D03*
X340877D02*
D03*
X954245Y756589D02*
D03*
X962745D02*
D03*
X912658Y737529D02*
D03*
X904158D02*
D03*
X823941Y766349D02*
D03*
X832441D02*
D03*
X781908Y745997D02*
D03*
X773408D02*
D03*
X822387Y560672D02*
D03*
X813887D02*
D03*
X865000Y579732D02*
D03*
X873500D02*
D03*
X652733Y251412D02*
D03*
X644233D02*
D03*
X652733Y240912D02*
D03*
X644233D02*
D03*
X652733Y209436D02*
D03*
X644233D02*
D03*
X594335Y212912D02*
D03*
X585835D02*
D03*
X1028479Y238400D02*
D03*
X1036979D02*
D03*
X652733Y223412D02*
D03*
X644233D02*
D03*
X339045Y576700D02*
D03*
X330545D02*
D03*
X339268Y566199D02*
D03*
X330768D02*
D03*
X339268Y587230D02*
D03*
X330768D02*
D03*
X338561Y611418D02*
D03*
X330061D02*
D03*
X339561Y598380D02*
D03*
X331061D02*
D03*
X339875Y621450D02*
D03*
X331375D02*
D03*
X338841Y424035D02*
D03*
X330341D02*
D03*
X339377Y434738D02*
D03*
X330877D02*
D03*
X338895Y444609D02*
D03*
X330395D02*
D03*
X338163Y464185D02*
D03*
X329663D02*
D03*
X338045Y475286D02*
D03*
X329545D02*
D03*
X339604Y641023D02*
D03*
X331104D02*
D03*
X338560Y414049D02*
D03*
X330061D02*
D03*
X338561Y402770D02*
D03*
X330060D02*
D03*
X750170Y209897D02*
D03*
X758670D02*
D03*
X586473Y244060D02*
D03*
X594973D02*
D03*
X586421Y234412D02*
D03*
X594921D02*
D03*
X585733Y223412D02*
D03*
X594234D02*
D03*
X652733Y286412D02*
D03*
X644233D02*
D03*
X652733Y277412D02*
D03*
X644233D02*
D03*
X585734Y275412D02*
D03*
X594234D02*
D03*
D29*
X993227Y459225D02*
D03*
Y449654D02*
D03*
D30*
X618947Y466392D02*
D03*
X626258D02*
D03*
X635942Y620099D02*
D03*
X628631D02*
D03*
X670335Y827279D02*
D03*
X663025D02*
D03*
X743811Y827379D02*
D03*
X736501D02*
D03*
X696372Y662193D02*
D03*
X689061D02*
D03*
X767696Y662559D02*
D03*
X760386D02*
D03*
X592605Y407574D02*
D03*
X599915D02*
D03*
X661083Y446764D02*
D03*
X653772D02*
D03*
X877509Y286025D02*
D03*
X870198D02*
D03*
X842305Y188615D02*
D03*
X849616D02*
D03*
X844801Y169815D02*
D03*
X852112D02*
D03*
X798616Y172919D02*
D03*
X791305D02*
D03*
X798616Y187919D02*
D03*
X791305D02*
D03*
X644828Y295662D02*
D03*
X652138D02*
D03*
X366965Y434128D02*
D03*
X374276D02*
D03*
D54*
X629163Y430472D02*
D03*
Y437783D02*
D03*
X631929Y363860D02*
D03*
Y371171D02*
D03*
X614579Y453493D02*
D03*
Y446182D02*
D03*
X397632Y813544D02*
D03*
Y806234D02*
D03*
X454615Y793393D02*
D03*
Y786083D02*
D03*
X398070Y752906D02*
D03*
Y760217D02*
D03*
X455517Y765071D02*
D03*
Y772382D02*
D03*
X934854Y768419D02*
D03*
Y761108D02*
D03*
X806571Y779934D02*
D03*
Y772623D02*
D03*
X845349Y592111D02*
D03*
Y584800D02*
D03*
X973897Y457345D02*
D03*
Y464655D02*
D03*
X393399Y582606D02*
D03*
Y575295D02*
D03*
X392044Y643211D02*
D03*
Y650522D02*
D03*
X457311Y437978D02*
D03*
Y430667D02*
D03*
X457324Y455142D02*
D03*
Y447832D02*
D03*
X454615Y603436D02*
D03*
Y596125D02*
D03*
X454395Y617799D02*
D03*
Y625110D02*
D03*
X393399Y466164D02*
D03*
Y473475D02*
D03*
X833346Y200993D02*
D03*
Y193683D02*
D03*
X618944Y84621D02*
D03*
Y91931D02*
D03*
X808260Y155771D02*
D03*
Y148460D02*
D03*
X799104Y199220D02*
D03*
Y206531D02*
D03*
X813260Y198956D02*
D03*
Y206267D02*
D03*
X1038000Y172945D02*
D03*
Y180255D02*
D03*
X629866Y91931D02*
D03*
Y84621D02*
D03*
D59*
X941212Y747529D02*
D03*
X937212D02*
D03*
X933212D02*
D03*
X929212D02*
D03*
Y723529D02*
D03*
X933212D02*
D03*
X937212D02*
D03*
X941212D02*
D03*
X811358Y756529D02*
D03*
X807358D02*
D03*
X803358D02*
D03*
X799358D02*
D03*
Y732529D02*
D03*
X803358D02*
D03*
X807358D02*
D03*
X811358D02*
D03*
X852152Y570672D02*
D03*
X848152D02*
D03*
X844152D02*
D03*
X840152D02*
D03*
Y546672D02*
D03*
X844152D02*
D03*
X848152D02*
D03*
X852152D02*
D03*
D60*
X927212Y741529D02*
D03*
Y737529D02*
D03*
Y733529D02*
D03*
Y729529D02*
D03*
X943212D02*
D03*
Y733529D02*
D03*
Y737529D02*
D03*
X797358Y750529D02*
D03*
Y746529D02*
D03*
Y742529D02*
D03*
Y738529D02*
D03*
X813358D02*
D03*
Y742529D02*
D03*
Y746529D02*
D03*
X838152Y564672D02*
D03*
Y560672D02*
D03*
Y556672D02*
D03*
Y552672D02*
D03*
X854152D02*
D03*
Y556672D02*
D03*
Y560672D02*
D03*
D61*
X942712Y741529D02*
D03*
X812858Y750529D02*
D03*
X853652Y564672D02*
D03*
D62*
X341268Y799259D02*
D03*
X332268D02*
D03*
X964745Y743769D02*
D03*
X955745D02*
D03*
X835495Y751225D02*
D03*
X826495D02*
D03*
X875500Y567672D02*
D03*
X866500D02*
D03*
X339145Y454297D02*
D03*
X330145D02*
D03*
X339377Y631141D02*
D03*
X330377D02*
D03*
X594483Y266912D02*
D03*
X585483D02*
D03*
X594483Y292412D02*
D03*
X585483D02*
D03*
X594483Y283912D02*
D03*
X585483D02*
D03*
X643983Y268912D02*
D03*
X652983D02*
D03*
D64*
X471460Y35376D02*
D03*
X461460D02*
D03*
X481460D02*
D03*
X641460D02*
D03*
X661459D02*
D03*
X731459D02*
D03*
X771459D02*
D03*
X691459D02*
D03*
X741459D02*
D03*
X701459D02*
D03*
X581460D02*
D03*
X611460D02*
D03*
X651460D02*
D03*
X521460D02*
D03*
X511460D02*
D03*
X501460D02*
D03*
X491460D02*
D03*
X551460D02*
D03*
X591460D02*
D03*
X601460D02*
D03*
X621460D02*
D03*
X631460D02*
D03*
X711459D02*
D03*
X671459D02*
D03*
X721459D02*
D03*
X751459D02*
D03*
X761459D02*
D03*
X681459D02*
D03*
X531460D02*
D03*
X541460D02*
D03*
X781459D02*
D03*
D67*
X892941Y203625D02*
D03*
X900441D02*
D03*
D68*
X96403Y338935D02*
D03*
Y331435D02*
D03*
X41000Y339392D02*
D03*
Y331892D02*
D03*
X69000Y131732D02*
D03*
Y139232D02*
D03*
X362620Y151173D02*
D03*
Y158673D02*
D03*
X353310Y150943D02*
D03*
Y158443D02*
D03*
X346620Y217101D02*
D03*
Y224601D02*
D03*
X427304Y309361D02*
D03*
Y301861D02*
D03*
X417225Y308799D02*
D03*
Y301299D02*
D03*
X405224Y308237D02*
D03*
Y300737D02*
D03*
D75*
X628896Y400202D02*
D03*
X616896D02*
D03*
X618350Y424899D02*
D03*
X606351D02*
D03*
D76*
X403399Y208180D02*
D03*
X395399D02*
D03*
X403398Y193160D02*
D03*
X395398D02*
D03*
X314370Y229101D02*
D03*
X306370D02*
D03*
X314370Y241101D02*
D03*
X306370D02*
D03*
X289678Y203649D02*
D03*
X297678D02*
D03*
X374870Y261101D02*
D03*
X382870D02*
D03*
X374870Y273101D02*
D03*
X382870D02*
D03*
X315120Y264895D02*
D03*
X307120D02*
D03*
X314370Y253101D02*
D03*
X306370D02*
D03*
X314370Y277101D02*
D03*
X306370D02*
D03*
X309209Y286101D02*
D03*
X301209D02*
D03*
D79*
X318620Y284851D02*
D03*
Y293851D02*
D03*
D91*
X451460Y40329D02*
D03*
D164*
X660657Y370042D02*
D03*
Y382042D02*
D03*
X638242Y478950D02*
D03*
Y466950D02*
D03*
X369061Y813740D02*
D03*
Y801740D02*
D03*
X429185Y801239D02*
D03*
Y789239D02*
D03*
X371539Y756740D02*
D03*
Y768740D02*
D03*
X431219Y757293D02*
D03*
Y769293D02*
D03*
X365318Y635076D02*
D03*
Y647076D02*
D03*
X429198Y433237D02*
D03*
Y421237D02*
D03*
X429198Y460751D02*
D03*
Y448751D02*
D03*
X443586Y632035D02*
D03*
Y620035D02*
D03*
X440518Y600280D02*
D03*
Y588280D02*
D03*
X371258Y423770D02*
D03*
Y411770D02*
D03*
X381581Y573541D02*
D03*
Y585541D02*
D03*
X378518Y469820D02*
D03*
Y457820D02*
D03*
D165*
X646733Y382792D02*
D03*
Y369292D02*
D03*
X602289Y378375D02*
D03*
Y364875D02*
D03*
X652448Y467140D02*
D03*
Y480640D02*
D03*
X383518Y802389D02*
D03*
Y815889D02*
D03*
X443433Y786956D02*
D03*
Y800456D02*
D03*
X384518Y770390D02*
D03*
Y756890D02*
D03*
X442802Y770490D02*
D03*
Y756990D02*
D03*
X367041Y573030D02*
D03*
Y586530D02*
D03*
X379823Y647936D02*
D03*
Y634436D02*
D03*
X424199Y586469D02*
D03*
Y599970D02*
D03*
X386382Y412034D02*
D03*
Y425535D02*
D03*
X444773Y418070D02*
D03*
Y431570D02*
D03*
X427829Y634522D02*
D03*
Y621023D02*
D03*
X444717Y447964D02*
D03*
Y461464D02*
D03*
X365620Y459570D02*
D03*
Y473070D02*
D03*
D166*
X616090Y384267D02*
D03*
X629611D02*
D03*
X640312Y448251D02*
D03*
X626791D02*
D03*
X415295Y794337D02*
D03*
X401774D02*
D03*
X416016Y772333D02*
D03*
X402495D02*
D03*
X395258Y594156D02*
D03*
X408780D02*
D03*
X396252Y631140D02*
D03*
X409774D02*
D03*
X400532Y427149D02*
D03*
X414053D02*
D03*
X412643Y455820D02*
D03*
X399121D02*
D03*
D167*
X597421Y451601D02*
D03*
X583921D02*
D03*
D168*
X352559Y186554D02*
D03*
X344559D02*
D03*
X362981D02*
D03*
X370981D02*
D03*
D169*
X390255Y235950D02*
D03*
X381212D02*
D03*
X289731Y181374D02*
D03*
X298773D02*
D03*
X385733Y172034D02*
D03*
X376690D02*
D03*
D170*
X191103Y160653D02*
D03*
X178103D02*
D03*
D171*
X246873Y203546D02*
D03*
Y208546D02*
D03*
Y218546D02*
D03*
Y223546D02*
D03*
X255224D02*
D03*
Y218546D02*
D03*
Y208546D02*
D03*
Y203546D02*
D03*
X246873Y236785D02*
D03*
Y241785D02*
D03*
Y251785D02*
D03*
Y256785D02*
D03*
X255224D02*
D03*
Y251785D02*
D03*
Y241785D02*
D03*
Y236785D02*
D03*
D173*
X505902Y256066D02*
D03*
Y265109D02*
D03*
X489247Y204354D02*
D03*
Y195311D02*
D03*
X480502Y256066D02*
D03*
Y265109D02*
D03*
X493202Y265109D02*
D03*
Y256066D02*
D03*
X339210Y155852D02*
D03*
Y164895D02*
D03*
X326133Y164895D02*
D03*
Y155853D02*
D03*
X312370Y166576D02*
D03*
Y157533D02*
D03*
X299678Y169194D02*
D03*
Y160151D02*
D03*
X374121Y310853D02*
D03*
Y319895D02*
D03*
D174*
X467802Y256588D02*
D03*
Y264588D02*
D03*
X370620Y224851D02*
D03*
Y216851D02*
D03*
X354620Y224851D02*
D03*
Y216851D02*
D03*
X337621Y224851D02*
D03*
Y216851D02*
D03*
X326620Y224851D02*
D03*
Y216851D02*
D03*
X354620Y285351D02*
D03*
Y293351D02*
D03*
X334620Y285351D02*
D03*
Y293351D02*
D03*
X326620Y285351D02*
D03*
Y293351D02*
D03*
D175*
X382892Y249101D02*
D03*
X374849D02*
D03*
D181*
X246873Y213546D02*
D03*
X255224D02*
D03*
X246873Y246785D02*
D03*
X255224D02*
D03*
M02*
