G04*
G04 #@! TF.GenerationSoftware,Altium Limited,Altium Designer,24.6.1 (21)*
G04*
G04 Layer_Color=0*
%FSLAX44Y44*%
%MOMM*%
G71*
G04*
G04 #@! TF.SameCoordinates,8A5C2320-89B1-46AE-BF24-1CDB1CC95B2A*
G04*
G04*
G04 #@! TF.FilePolarity,Positive*
G04*
G01*
G75*
%ADD190C,0.1001*%
G36*
X1068595Y639485D02*
X1068609Y639471D01*
X1068623Y639429D01*
X1068637Y639372D01*
X1068707Y639231D01*
X1068792Y639034D01*
X1068905Y638794D01*
X1069060Y638526D01*
X1069257Y638230D01*
X1069483Y637920D01*
X1069497Y637906D01*
X1069511Y637878D01*
X1069553Y637836D01*
X1069610Y637779D01*
X1069751Y637624D01*
X1069934Y637455D01*
X1070159Y637258D01*
X1070441Y637060D01*
X1070737Y636877D01*
X1071061Y636736D01*
Y635214D01*
X1061250D01*
Y637089D01*
X1068313D01*
X1068298Y637103D01*
X1068270Y637131D01*
X1068228Y637187D01*
X1068158Y637272D01*
X1068073Y637370D01*
X1067988Y637483D01*
X1067890Y637624D01*
X1067777Y637779D01*
X1067664Y637948D01*
X1067551Y638132D01*
X1067424Y638329D01*
X1067312Y638540D01*
X1067100Y638992D01*
X1066903Y639499D01*
X1068595D01*
Y639485D01*
D02*
G37*
G36*
X1086749D02*
X1086819Y639471D01*
X1086904Y639457D01*
X1087002Y639443D01*
X1087256Y639386D01*
X1087538Y639302D01*
X1087848Y639189D01*
X1088187Y639048D01*
X1088511Y638865D01*
X1088525D01*
X1088553Y638837D01*
X1088609Y638808D01*
X1088666Y638752D01*
X1088764Y638696D01*
X1088863Y638611D01*
X1088990Y638512D01*
X1089131Y638400D01*
X1089300Y638273D01*
X1089469Y638118D01*
X1089667Y637948D01*
X1089878Y637751D01*
X1090090Y637540D01*
X1090329Y637300D01*
X1090583Y637046D01*
X1090851Y636764D01*
X1090865Y636750D01*
X1090907Y636708D01*
X1090964Y636651D01*
X1091048Y636567D01*
X1091133Y636454D01*
X1091246Y636341D01*
X1091499Y636088D01*
X1091767Y635834D01*
X1092035Y635580D01*
X1092148Y635467D01*
X1092275Y635355D01*
X1092373Y635270D01*
X1092458Y635214D01*
X1092486Y635200D01*
X1092557Y635157D01*
X1092669Y635087D01*
X1092824Y635016D01*
X1092994Y634946D01*
X1093191Y634875D01*
X1093388Y634833D01*
X1093600Y634819D01*
X1093614D01*
X1093628D01*
X1093699D01*
X1093825Y634833D01*
X1093966Y634861D01*
X1094121Y634903D01*
X1094277Y634960D01*
X1094432Y635044D01*
X1094573Y635157D01*
X1094587Y635171D01*
X1094629Y635214D01*
X1094685Y635298D01*
X1094742Y635397D01*
X1094798Y635538D01*
X1094855Y635693D01*
X1094897Y635876D01*
X1094911Y636088D01*
Y636186D01*
X1094897Y636299D01*
X1094868Y636426D01*
X1094826Y636581D01*
X1094756Y636736D01*
X1094671Y636891D01*
X1094558Y637032D01*
X1094544Y637046D01*
X1094488Y637089D01*
X1094403Y637145D01*
X1094277Y637201D01*
X1094121Y637272D01*
X1093910Y637328D01*
X1093670Y637385D01*
X1093388Y637413D01*
X1093572Y639273D01*
X1093586D01*
X1093642Y639259D01*
X1093713D01*
X1093825Y639231D01*
X1093952Y639217D01*
X1094093Y639175D01*
X1094248Y639133D01*
X1094432Y639090D01*
X1094784Y638949D01*
X1095151Y638780D01*
X1095334Y638667D01*
X1095503Y638540D01*
X1095644Y638400D01*
X1095785Y638245D01*
X1095799Y638230D01*
X1095813Y638202D01*
X1095841Y638160D01*
X1095898Y638089D01*
X1095940Y638005D01*
X1095996Y637892D01*
X1096067Y637779D01*
X1096123Y637638D01*
X1096194Y637483D01*
X1096250Y637314D01*
X1096363Y636948D01*
X1096433Y636511D01*
X1096447Y636285D01*
X1096461Y636045D01*
Y635904D01*
X1096447Y635806D01*
X1096433Y635679D01*
X1096419Y635538D01*
X1096391Y635383D01*
X1096363Y635214D01*
X1096264Y634847D01*
X1096123Y634481D01*
X1096039Y634283D01*
X1095940Y634114D01*
X1095813Y633931D01*
X1095672Y633776D01*
X1095658Y633762D01*
X1095644Y633733D01*
X1095587Y633705D01*
X1095531Y633649D01*
X1095461Y633578D01*
X1095362Y633508D01*
X1095263Y633437D01*
X1095136Y633353D01*
X1094855Y633212D01*
X1094530Y633071D01*
X1094347Y633014D01*
X1094150Y632986D01*
X1093938Y632958D01*
X1093727Y632944D01*
X1093699D01*
X1093614D01*
X1093487Y632958D01*
X1093332Y632972D01*
X1093135Y633000D01*
X1092923Y633043D01*
X1092698Y633099D01*
X1092472Y633184D01*
X1092444Y633198D01*
X1092373Y633226D01*
X1092246Y633282D01*
X1092091Y633367D01*
X1091908Y633466D01*
X1091697Y633592D01*
X1091471Y633747D01*
X1091232Y633931D01*
X1091217Y633945D01*
X1091147Y634001D01*
X1091048Y634086D01*
X1090907Y634213D01*
X1090738Y634382D01*
X1090513Y634593D01*
X1090273Y634847D01*
X1089977Y635157D01*
X1089963Y635171D01*
X1089949Y635200D01*
X1089906Y635242D01*
X1089850Y635298D01*
X1089709Y635453D01*
X1089540Y635636D01*
X1089357Y635820D01*
X1089173Y636003D01*
X1089018Y636172D01*
X1088948Y636229D01*
X1088891Y636285D01*
X1088877Y636299D01*
X1088849Y636327D01*
X1088793Y636370D01*
X1088722Y636426D01*
X1088567Y636553D01*
X1088384Y636666D01*
Y632944D01*
X1086650D01*
Y639499D01*
X1086664D01*
X1086692D01*
X1086749Y639485D01*
D02*
G37*
G36*
X1064041Y103586D02*
X1064027D01*
X1064013D01*
X1063928Y103572D01*
X1063802Y103544D01*
X1063646Y103501D01*
X1063477Y103431D01*
X1063294Y103361D01*
X1063125Y103248D01*
X1062970Y103121D01*
X1062956Y103107D01*
X1062913Y103050D01*
X1062857Y102966D01*
X1062801Y102867D01*
X1062730Y102726D01*
X1062674Y102571D01*
X1062632Y102402D01*
X1062617Y102205D01*
Y102176D01*
X1062632Y102106D01*
X1062646Y102007D01*
X1062674Y101866D01*
X1062730Y101711D01*
X1062801Y101556D01*
X1062913Y101387D01*
X1063054Y101232D01*
X1063068Y101218D01*
X1063139Y101161D01*
X1063238Y101105D01*
X1063364Y101020D01*
X1063534Y100950D01*
X1063745Y100879D01*
X1063985Y100837D01*
X1064253Y100823D01*
X1064267D01*
X1064281D01*
X1064365D01*
X1064492Y100837D01*
X1064661Y100865D01*
X1064845Y100922D01*
X1065028Y100992D01*
X1065211Y101091D01*
X1065380Y101218D01*
X1065395Y101232D01*
X1065451Y101288D01*
X1065521Y101373D01*
X1065592Y101472D01*
X1065676Y101612D01*
X1065733Y101768D01*
X1065789Y101937D01*
X1065803Y102134D01*
Y102275D01*
X1065789Y102374D01*
X1065775Y102501D01*
X1065747Y102656D01*
X1065705Y102811D01*
X1065662Y102994D01*
X1067171Y102797D01*
Y102670D01*
X1067185Y102529D01*
X1067199Y102360D01*
X1067241Y102176D01*
X1067298Y101979D01*
X1067382Y101796D01*
X1067495Y101627D01*
X1067509Y101612D01*
X1067566Y101556D01*
X1067636Y101500D01*
X1067749Y101415D01*
X1067876Y101345D01*
X1068031Y101274D01*
X1068214Y101232D01*
X1068425Y101218D01*
X1068454D01*
X1068510D01*
X1068595Y101232D01*
X1068707Y101260D01*
X1068834Y101288D01*
X1068961Y101345D01*
X1069102Y101415D01*
X1069215Y101514D01*
X1069229Y101528D01*
X1069257Y101570D01*
X1069314Y101627D01*
X1069370Y101725D01*
X1069412Y101838D01*
X1069469Y101965D01*
X1069497Y102134D01*
X1069511Y102303D01*
Y102388D01*
X1069497Y102472D01*
X1069469Y102585D01*
X1069426Y102712D01*
X1069370Y102853D01*
X1069285Y102994D01*
X1069173Y103121D01*
X1069158Y103135D01*
X1069116Y103177D01*
X1069032Y103234D01*
X1068919Y103304D01*
X1068792Y103375D01*
X1068623Y103431D01*
X1068425Y103487D01*
X1068200Y103530D01*
X1068482Y105250D01*
X1068496D01*
X1068524Y105235D01*
X1068566D01*
X1068637Y105221D01*
X1068792Y105179D01*
X1069003Y105123D01*
X1069229Y105038D01*
X1069469Y104953D01*
X1069694Y104841D01*
X1069906Y104714D01*
X1069934Y104700D01*
X1069990Y104643D01*
X1070089Y104559D01*
X1070216Y104446D01*
X1070343Y104305D01*
X1070483Y104136D01*
X1070624Y103924D01*
X1070751Y103699D01*
Y103685D01*
X1070766Y103671D01*
X1070794Y103586D01*
X1070850Y103445D01*
X1070906Y103276D01*
X1070963Y103064D01*
X1071019Y102811D01*
X1071047Y102543D01*
X1071061Y102247D01*
Y102120D01*
X1071047Y102021D01*
X1071033Y101894D01*
X1071019Y101768D01*
X1070991Y101612D01*
X1070949Y101457D01*
X1070850Y101105D01*
X1070780Y100922D01*
X1070681Y100724D01*
X1070582Y100541D01*
X1070469Y100372D01*
X1070329Y100189D01*
X1070173Y100034D01*
X1070159Y100020D01*
X1070145Y100005D01*
X1070103Y99963D01*
X1070046Y99921D01*
X1069906Y99808D01*
X1069708Y99681D01*
X1069469Y99554D01*
X1069187Y99456D01*
X1068876Y99371D01*
X1068721Y99357D01*
X1068552Y99343D01*
X1068538D01*
X1068496D01*
X1068425Y99357D01*
X1068341Y99371D01*
X1068228Y99385D01*
X1068101Y99413D01*
X1067960Y99456D01*
X1067805Y99512D01*
X1067650Y99597D01*
X1067481Y99681D01*
X1067312Y99794D01*
X1067142Y99935D01*
X1066973Y100104D01*
X1066804Y100287D01*
X1066649Y100499D01*
X1066494Y100752D01*
Y100738D01*
X1066480Y100710D01*
Y100668D01*
X1066452Y100612D01*
X1066410Y100456D01*
X1066325Y100273D01*
X1066212Y100062D01*
X1066071Y99836D01*
X1065888Y99611D01*
X1065676Y99413D01*
X1065648Y99385D01*
X1065564Y99329D01*
X1065437Y99258D01*
X1065254Y99160D01*
X1065042Y99061D01*
X1064774Y98990D01*
X1064492Y98934D01*
X1064168Y98906D01*
X1064154D01*
X1064112D01*
X1064041D01*
X1063957Y98920D01*
X1063844Y98934D01*
X1063717Y98962D01*
X1063562Y98990D01*
X1063407Y99019D01*
X1063068Y99131D01*
X1062885Y99216D01*
X1062688Y99300D01*
X1062505Y99413D01*
X1062321Y99540D01*
X1062138Y99681D01*
X1061969Y99850D01*
X1061955Y99864D01*
X1061927Y99893D01*
X1061884Y99949D01*
X1061828Y100020D01*
X1061758Y100118D01*
X1061687Y100217D01*
X1061602Y100358D01*
X1061518Y100499D01*
X1061433Y100654D01*
X1061349Y100837D01*
X1061278Y101034D01*
X1061208Y101232D01*
X1061151Y101457D01*
X1061109Y101683D01*
X1061081Y101937D01*
X1061067Y102190D01*
Y102317D01*
X1061081Y102416D01*
X1061095Y102529D01*
X1061109Y102656D01*
X1061137Y102797D01*
X1061165Y102966D01*
X1061250Y103304D01*
X1061391Y103671D01*
X1061476Y103868D01*
X1061574Y104037D01*
X1061701Y104220D01*
X1061828Y104390D01*
X1061842Y104404D01*
X1061870Y104432D01*
X1061913Y104474D01*
X1061969Y104530D01*
X1062039Y104601D01*
X1062138Y104671D01*
X1062237Y104756D01*
X1062364Y104841D01*
X1062505Y104925D01*
X1062646Y105024D01*
X1062984Y105179D01*
X1063379Y105306D01*
X1063590Y105362D01*
X1063816Y105390D01*
X1064041Y103586D01*
D02*
G37*
G36*
X1067988Y97863D02*
X1068115Y97849D01*
X1068256Y97835D01*
X1068425Y97806D01*
X1068595Y97764D01*
X1068975Y97665D01*
X1069187Y97595D01*
X1069384Y97510D01*
X1069581Y97411D01*
X1069779Y97285D01*
X1069962Y97158D01*
X1070145Y97003D01*
X1070159Y96989D01*
X1070188Y96960D01*
X1070230Y96918D01*
X1070286Y96848D01*
X1070357Y96749D01*
X1070441Y96650D01*
X1070512Y96523D01*
X1070610Y96383D01*
X1070695Y96242D01*
X1070766Y96058D01*
X1070850Y95875D01*
X1070920Y95678D01*
X1070977Y95466D01*
X1071019Y95241D01*
X1071047Y95015D01*
X1071061Y94761D01*
Y94691D01*
X1071047Y94620D01*
Y94508D01*
X1071033Y94381D01*
X1071005Y94240D01*
X1070963Y94071D01*
X1070920Y93901D01*
X1070850Y93704D01*
X1070780Y93507D01*
X1070681Y93309D01*
X1070568Y93098D01*
X1070441Y92900D01*
X1070286Y92703D01*
X1070103Y92506D01*
X1069906Y92323D01*
X1069892Y92308D01*
X1069849Y92280D01*
X1069779Y92238D01*
X1069680Y92168D01*
X1069553Y92097D01*
X1069398Y92012D01*
X1069215Y91928D01*
X1069003Y91843D01*
X1068750Y91759D01*
X1068468Y91660D01*
X1068158Y91589D01*
X1067819Y91519D01*
X1067439Y91448D01*
X1067030Y91406D01*
X1066593Y91378D01*
X1066114Y91364D01*
X1066099D01*
X1066085D01*
X1066043D01*
X1066001D01*
X1065860D01*
X1065676Y91378D01*
X1065451Y91392D01*
X1065197Y91420D01*
X1064929Y91448D01*
X1064633Y91491D01*
X1064309Y91547D01*
X1063999Y91604D01*
X1063675Y91688D01*
X1063351Y91787D01*
X1063054Y91900D01*
X1062758Y92041D01*
X1062490Y92182D01*
X1062251Y92365D01*
X1062237Y92379D01*
X1062195Y92407D01*
X1062138Y92464D01*
X1062068Y92548D01*
X1061983Y92647D01*
X1061870Y92760D01*
X1061772Y92900D01*
X1061659Y93056D01*
X1061546Y93225D01*
X1061447Y93422D01*
X1061349Y93633D01*
X1061250Y93859D01*
X1061180Y94113D01*
X1061123Y94367D01*
X1061081Y94634D01*
X1061067Y94930D01*
Y95043D01*
X1061081Y95114D01*
Y95212D01*
X1061095Y95325D01*
X1061137Y95593D01*
X1061222Y95889D01*
X1061320Y96185D01*
X1061476Y96495D01*
X1061560Y96636D01*
X1061673Y96777D01*
X1061687Y96791D01*
X1061701Y96805D01*
X1061743Y96848D01*
X1061786Y96890D01*
X1061856Y96946D01*
X1061927Y97017D01*
X1062025Y97073D01*
X1062124Y97158D01*
X1062251Y97228D01*
X1062378Y97313D01*
X1062533Y97383D01*
X1062702Y97454D01*
X1062871Y97524D01*
X1063068Y97581D01*
X1063266Y97637D01*
X1063491Y97679D01*
X1063703Y95875D01*
X1063675D01*
X1063604Y95861D01*
X1063505Y95847D01*
X1063393Y95805D01*
X1063252Y95762D01*
X1063111Y95706D01*
X1062984Y95635D01*
X1062871Y95537D01*
X1062857Y95522D01*
X1062829Y95480D01*
X1062787Y95424D01*
X1062744Y95339D01*
X1062702Y95226D01*
X1062660Y95114D01*
X1062632Y94959D01*
X1062617Y94804D01*
Y94775D01*
X1062632Y94705D01*
X1062646Y94606D01*
X1062688Y94465D01*
X1062744Y94310D01*
X1062843Y94155D01*
X1062970Y93986D01*
X1063139Y93831D01*
X1063167Y93817D01*
X1063195Y93789D01*
X1063252Y93760D01*
X1063308Y93732D01*
X1063393Y93690D01*
X1063491Y93662D01*
X1063618Y93605D01*
X1063759Y93563D01*
X1063914Y93521D01*
X1064098Y93478D01*
X1064295Y93436D01*
X1064520Y93394D01*
X1064774Y93366D01*
X1065056Y93337D01*
X1065352Y93309D01*
X1065338Y93323D01*
X1065324Y93337D01*
X1065282Y93380D01*
X1065225Y93436D01*
X1065169Y93507D01*
X1065098Y93591D01*
X1064943Y93789D01*
X1064788Y94042D01*
X1064661Y94353D01*
X1064605Y94522D01*
X1064577Y94691D01*
X1064549Y94874D01*
X1064535Y95071D01*
Y95184D01*
X1064549Y95269D01*
X1064563Y95367D01*
X1064577Y95480D01*
X1064647Y95748D01*
X1064746Y96058D01*
X1064831Y96213D01*
X1064915Y96383D01*
X1065014Y96552D01*
X1065127Y96721D01*
X1065268Y96890D01*
X1065423Y97045D01*
X1065437Y97059D01*
X1065465Y97087D01*
X1065521Y97115D01*
X1065578Y97172D01*
X1065676Y97242D01*
X1065775Y97313D01*
X1065902Y97383D01*
X1066043Y97454D01*
X1066198Y97538D01*
X1066381Y97609D01*
X1066565Y97679D01*
X1066776Y97750D01*
X1066988Y97806D01*
X1067227Y97835D01*
X1067481Y97863D01*
X1067735Y97877D01*
X1067749D01*
X1067805D01*
X1067876D01*
X1067988Y97863D01*
D02*
G37*
G36*
X1096447Y101161D02*
Y99583D01*
X1090245D01*
Y98370D01*
X1088609D01*
Y99583D01*
X1086650D01*
Y101387D01*
X1088609D01*
Y105390D01*
X1090231D01*
X1096447Y101161D01*
D02*
G37*
G36*
X1091922Y97468D02*
X1092148Y97454D01*
X1092416Y97426D01*
X1092698Y97397D01*
X1093008Y97369D01*
X1093332Y97313D01*
X1093656Y97256D01*
X1093995Y97172D01*
X1094319Y97087D01*
X1094629Y96974D01*
X1094925Y96848D01*
X1095207Y96707D01*
X1095446Y96538D01*
X1095461Y96523D01*
X1095489Y96495D01*
X1095545Y96453D01*
X1095602Y96383D01*
X1095686Y96312D01*
X1095771Y96213D01*
X1095855Y96086D01*
X1095954Y95960D01*
X1096053Y95805D01*
X1096137Y95649D01*
X1096222Y95466D01*
X1096306Y95269D01*
X1096363Y95057D01*
X1096419Y94818D01*
X1096447Y94578D01*
X1096461Y94324D01*
Y94183D01*
X1096447Y94085D01*
X1096433Y93972D01*
X1096405Y93831D01*
X1096377Y93690D01*
X1096335Y93521D01*
X1096278Y93337D01*
X1096208Y93168D01*
X1096137Y92985D01*
X1096039Y92802D01*
X1095912Y92619D01*
X1095785Y92435D01*
X1095630Y92266D01*
X1095446Y92111D01*
X1095432Y92097D01*
X1095390Y92069D01*
X1095320Y92027D01*
X1095221Y91956D01*
X1095080Y91885D01*
X1094911Y91801D01*
X1094728Y91716D01*
X1094488Y91632D01*
X1094234Y91547D01*
X1093938Y91448D01*
X1093614Y91378D01*
X1093247Y91307D01*
X1092853Y91237D01*
X1092430Y91195D01*
X1091965Y91167D01*
X1091457Y91152D01*
X1091443D01*
X1091429D01*
X1091387D01*
X1091330D01*
X1091189D01*
X1091006Y91167D01*
X1090780Y91181D01*
X1090513Y91209D01*
X1090231Y91237D01*
X1089921Y91265D01*
X1089596Y91322D01*
X1089258Y91392D01*
X1088934Y91463D01*
X1088609Y91561D01*
X1088285Y91660D01*
X1087989Y91801D01*
X1087707Y91942D01*
X1087468Y92111D01*
X1087454Y92125D01*
X1087425Y92153D01*
X1087369Y92196D01*
X1087313Y92252D01*
X1087242Y92337D01*
X1087158Y92435D01*
X1087059Y92562D01*
X1086974Y92689D01*
X1086876Y92844D01*
X1086777Y92999D01*
X1086692Y93182D01*
X1086622Y93380D01*
X1086565Y93591D01*
X1086509Y93831D01*
X1086481Y94071D01*
X1086467Y94324D01*
Y94381D01*
X1086481Y94465D01*
Y94564D01*
X1086495Y94677D01*
X1086523Y94818D01*
X1086551Y94973D01*
X1086608Y95142D01*
X1086664Y95325D01*
X1086735Y95508D01*
X1086819Y95706D01*
X1086932Y95889D01*
X1087045Y96086D01*
X1087200Y96270D01*
X1087355Y96453D01*
X1087552Y96622D01*
X1087566Y96636D01*
X1087609Y96664D01*
X1087679Y96707D01*
X1087764Y96749D01*
X1087890Y96819D01*
X1088046Y96890D01*
X1088243Y96974D01*
X1088454Y97045D01*
X1088708Y97130D01*
X1088990Y97214D01*
X1089314Y97285D01*
X1089667Y97341D01*
X1090061Y97397D01*
X1090499Y97440D01*
X1090964Y97468D01*
X1091471Y97482D01*
X1091485D01*
X1091499D01*
X1091542D01*
X1091598D01*
X1091739D01*
X1091922Y97468D01*
D02*
G37*
%LPC*%
G36*
X1067735Y96044D02*
X1067720D01*
X1067692D01*
X1067650D01*
X1067580D01*
X1067410Y96030D01*
X1067213Y96002D01*
X1066973Y95960D01*
X1066748Y95889D01*
X1066522Y95805D01*
X1066339Y95678D01*
X1066325Y95663D01*
X1066268Y95607D01*
X1066198Y95537D01*
X1066128Y95424D01*
X1066043Y95283D01*
X1065973Y95128D01*
X1065916Y94945D01*
X1065902Y94747D01*
Y94719D01*
X1065916Y94663D01*
X1065930Y94564D01*
X1065958Y94437D01*
X1066001Y94296D01*
X1066085Y94141D01*
X1066184Y93986D01*
X1066325Y93845D01*
X1066339Y93831D01*
X1066410Y93789D01*
X1066508Y93718D01*
X1066635Y93648D01*
X1066818Y93591D01*
X1067030Y93521D01*
X1067283Y93478D01*
X1067580Y93464D01*
X1067594D01*
X1067622D01*
X1067664D01*
X1067735D01*
X1067890Y93493D01*
X1068101Y93521D01*
X1068327Y93563D01*
X1068566Y93648D01*
X1068792Y93746D01*
X1069003Y93887D01*
X1069032Y93901D01*
X1069088Y93958D01*
X1069158Y94042D01*
X1069257Y94155D01*
X1069356Y94296D01*
X1069426Y94465D01*
X1069483Y94649D01*
X1069511Y94846D01*
Y94930D01*
X1069483Y95029D01*
X1069454Y95142D01*
X1069412Y95283D01*
X1069328Y95424D01*
X1069229Y95565D01*
X1069088Y95706D01*
X1069074Y95720D01*
X1069003Y95762D01*
X1068905Y95819D01*
X1068764Y95875D01*
X1068580Y95931D01*
X1068341Y95988D01*
X1068059Y96030D01*
X1067735Y96044D01*
D02*
G37*
G36*
X1090245Y103657D02*
Y101387D01*
X1093600D01*
X1090245Y103657D01*
D02*
G37*
G36*
X1091767Y95508D02*
X1091457D01*
X1091443D01*
X1091387D01*
X1091288D01*
X1091175D01*
X1091034D01*
X1090879Y95494D01*
X1090696D01*
X1090513Y95480D01*
X1090118Y95466D01*
X1089723Y95438D01*
X1089540Y95424D01*
X1089371Y95396D01*
X1089216Y95367D01*
X1089075Y95339D01*
X1089046Y95325D01*
X1088976Y95311D01*
X1088863Y95269D01*
X1088736Y95226D01*
X1088595Y95156D01*
X1088454Y95085D01*
X1088327Y95001D01*
X1088229Y94916D01*
X1088215Y94902D01*
X1088201Y94874D01*
X1088158Y94818D01*
X1088130Y94747D01*
X1088088Y94663D01*
X1088046Y94564D01*
X1088031Y94451D01*
X1088017Y94324D01*
Y94268D01*
X1088031Y94197D01*
X1088046Y94127D01*
X1088074Y94028D01*
X1088102Y93930D01*
X1088158Y93831D01*
X1088229Y93732D01*
X1088243Y93718D01*
X1088271Y93690D01*
X1088327Y93633D01*
X1088412Y93577D01*
X1088511Y93521D01*
X1088652Y93450D01*
X1088807Y93380D01*
X1089004Y93323D01*
X1089018D01*
X1089032Y93309D01*
X1089089D01*
X1089145Y93295D01*
X1089230Y93281D01*
X1089328Y93267D01*
X1089441Y93239D01*
X1089582Y93225D01*
X1089737Y93211D01*
X1089921Y93182D01*
X1090118Y93168D01*
X1090343Y93154D01*
X1090583Y93140D01*
X1090851D01*
X1091147Y93126D01*
X1091457D01*
X1091471D01*
X1091528D01*
X1091626D01*
X1091739D01*
X1091880D01*
X1092035Y93140D01*
X1092218D01*
X1092402Y93154D01*
X1092796Y93168D01*
X1093177Y93196D01*
X1093360Y93225D01*
X1093543Y93253D01*
X1093699Y93281D01*
X1093825Y93309D01*
X1093839D01*
X1093854Y93323D01*
X1093924Y93337D01*
X1094037Y93380D01*
X1094178Y93422D01*
X1094319Y93493D01*
X1094460Y93563D01*
X1094587Y93648D01*
X1094685Y93732D01*
X1094699Y93746D01*
X1094728Y93774D01*
X1094756Y93831D01*
X1094798Y93901D01*
X1094840Y93986D01*
X1094883Y94085D01*
X1094897Y94197D01*
X1094911Y94324D01*
Y94381D01*
X1094897Y94451D01*
X1094883Y94522D01*
X1094855Y94620D01*
X1094812Y94719D01*
X1094756Y94832D01*
X1094685Y94930D01*
X1094671Y94945D01*
X1094643Y94973D01*
X1094587Y95015D01*
X1094516Y95071D01*
X1094403Y95142D01*
X1094277Y95198D01*
X1094107Y95269D01*
X1093910Y95325D01*
X1093896D01*
X1093882Y95339D01*
X1093825D01*
X1093769Y95353D01*
X1093684Y95367D01*
X1093586Y95382D01*
X1093473Y95396D01*
X1093332Y95410D01*
X1093163Y95438D01*
X1092994Y95452D01*
X1092782Y95466D01*
X1092571Y95480D01*
X1092317Y95494D01*
X1092063D01*
X1091767Y95508D01*
D02*
G37*
%LPD*%
G54D190*
X1055149Y618791D02*
X1059470D01*
Y614470D02*
Y618791D01*
X1055149Y614470D02*
X1059470D01*
X1064420Y611780D02*
X1070780D01*
X1064420Y605420D02*
Y611780D01*
Y605420D02*
X1070780D01*
Y611780D01*
X1055149Y598440D02*
Y621300D01*
X1105451D01*
X1089820Y611780D02*
X1096180D01*
X1089820Y605420D02*
Y611780D01*
Y605420D02*
X1096180D01*
Y611780D01*
X1101131Y618791D02*
X1105451D01*
X1101131Y614470D02*
Y618791D01*
Y614470D02*
X1105451D01*
Y598440D02*
Y621300D01*
X1063409Y595900D02*
Y597310D01*
X1059470Y598440D02*
Y602730D01*
X1055149D02*
X1059470D01*
X1055149Y598440D02*
X1105451D01*
X1072680Y595900D02*
Y597071D01*
X1067600Y598440D02*
X1072680Y597071D01*
X1062520D02*
X1067600Y598440D01*
X1062520Y595900D02*
Y597071D01*
X1057689Y595900D02*
Y597201D01*
X1055149Y598440D02*
X1057689Y597201D01*
X1072680Y595900D02*
X1087920D01*
X1057689D02*
X1062520D01*
X1055149Y593391D02*
X1059470D01*
X1055149Y589070D02*
X1059470D01*
Y593391D01*
X1055149Y573040D02*
X1059470D01*
Y577330D01*
X1055149D02*
X1059470D01*
X1067600Y573040D02*
X1072680Y571671D01*
Y570500D02*
Y571671D01*
Y570500D02*
X1087920D01*
X1055149Y573040D02*
X1105451D01*
X1055149Y593360D02*
X1105451D01*
X1063409Y594490D02*
Y595900D01*
X1062520Y571671D02*
X1067600Y573040D01*
X1062520Y570500D02*
Y571671D01*
X1063409Y570500D02*
Y571910D01*
X1057689Y570500D02*
Y571800D01*
X1055149Y573040D02*
X1057689Y571800D01*
X1055149Y573040D02*
Y593360D01*
X1057689Y594599D01*
Y595900D01*
X1062520Y594729D02*
Y595900D01*
Y594729D02*
X1067600Y593360D01*
X1072680Y594729D01*
Y595900D01*
X1064420Y580020D02*
X1070780D01*
X1064420D02*
Y586380D01*
X1070780D01*
Y580020D02*
Y586380D01*
X1072680Y595900D02*
X1087920D01*
X1057689D02*
X1062520D01*
X1057689Y570500D02*
X1062520D01*
X1063409Y569090D02*
Y570500D01*
X1057689Y569199D02*
Y570500D01*
X1062520Y569329D02*
Y570500D01*
X1072680Y569329D02*
Y570500D01*
X1087920D01*
X1057689D02*
X1062520D01*
X1097191Y595900D02*
Y597310D01*
X1101131Y602730D02*
X1105451D01*
X1101131Y598440D02*
Y602730D01*
X1098080Y595900D02*
Y597071D01*
X1093000Y598440D02*
X1098080Y597071D01*
X1087920D02*
X1093000Y598440D01*
X1087920Y595900D02*
Y597071D01*
X1102911Y597201D02*
X1105451Y598440D01*
X1102911Y595900D02*
Y597201D01*
X1098080Y595900D02*
X1102911D01*
X1101131Y589070D02*
X1105451D01*
X1101131D02*
Y593391D01*
X1105451D01*
X1101131Y573040D02*
X1105451D01*
X1101131D02*
Y577330D01*
X1105451D01*
X1098080Y595900D02*
X1102911D01*
Y594599D02*
Y595900D01*
Y594599D02*
X1105451Y593360D01*
X1097191Y594490D02*
Y595900D01*
Y570500D02*
Y571910D01*
X1098080Y570500D02*
Y571671D01*
X1093000Y573040D02*
X1098080Y571671D01*
X1087920D02*
X1093000Y573040D01*
X1087920Y570500D02*
Y571671D01*
Y594729D02*
Y595900D01*
Y594729D02*
X1093000Y593360D01*
X1098080Y594729D01*
Y595900D01*
X1105451Y573040D02*
Y593360D01*
X1102911Y571800D02*
X1105451Y573040D01*
X1102911Y570500D02*
Y571800D01*
X1089820Y580020D02*
X1096180D01*
X1089820D02*
Y586380D01*
X1096180D01*
Y580020D02*
Y586380D01*
X1098080Y570500D02*
X1102911D01*
X1098080D02*
X1102911D01*
Y569199D02*
Y570500D01*
Y569199D02*
X1105451Y567960D01*
X1097191Y569090D02*
Y570500D01*
X1087920Y569329D02*
Y570500D01*
X1098080Y569329D02*
Y570500D01*
X1055149Y567990D02*
X1059470D01*
X1055149Y563670D02*
X1059470D01*
Y567990D01*
X1055149Y547640D02*
X1059470D01*
Y551930D01*
X1055149D02*
X1059470D01*
X1067600Y547640D02*
X1072680Y546271D01*
Y545100D02*
Y546271D01*
Y545100D02*
X1087920D01*
X1055149Y547640D02*
X1105451D01*
X1055149Y567960D02*
X1105451D01*
X1062520Y546271D02*
X1067600Y547640D01*
X1062520Y545100D02*
Y546271D01*
X1063409Y545100D02*
Y546510D01*
X1057689Y545100D02*
Y546400D01*
X1055149Y547640D02*
X1057689Y546400D01*
X1055149Y547640D02*
Y567960D01*
X1057689Y569199D01*
X1062520Y569329D02*
X1067600Y567960D01*
X1072680Y569329D01*
X1064420Y554620D02*
X1070780D01*
X1064420D02*
Y560980D01*
X1070780D01*
Y554620D02*
Y560980D01*
X1057689Y545100D02*
X1062520D01*
X1055149Y542590D02*
X1059470D01*
X1055149Y538270D02*
X1059470D01*
Y542590D01*
X1055149Y542560D02*
X1105451D01*
X1063409Y543690D02*
Y545100D01*
X1055149Y522240D02*
Y542560D01*
X1057689Y543800D01*
Y545100D01*
X1062520Y543929D02*
Y545100D01*
Y543929D02*
X1067600Y542560D01*
X1072680Y543929D01*
Y545100D01*
X1087920D01*
X1057689D02*
X1062520D01*
X1101131Y563670D02*
X1105451D01*
X1101131D02*
Y567990D01*
X1105451D01*
X1101131Y547640D02*
X1105451D01*
X1101131D02*
Y551930D01*
X1105451D01*
X1097191Y545100D02*
Y546510D01*
X1098080Y545100D02*
Y546271D01*
X1093000Y547640D02*
X1098080Y546271D01*
X1087920D02*
X1093000Y547640D01*
X1087920Y545100D02*
Y546271D01*
Y569329D02*
X1093000Y567960D01*
X1098080Y569329D01*
X1105451Y547640D02*
Y567960D01*
X1102911Y546400D02*
X1105451Y547640D01*
X1102911Y545100D02*
Y546400D01*
X1089820Y554620D02*
X1096180D01*
X1089820D02*
Y560980D01*
X1096180D01*
Y554620D02*
Y560980D01*
X1098080Y545100D02*
X1102911D01*
X1101131Y538270D02*
X1105451D01*
X1101131D02*
Y542590D01*
X1105451D01*
X1098080Y545100D02*
X1102911D01*
Y543800D02*
Y545100D01*
Y543800D02*
X1105451Y542560D01*
X1097191Y543690D02*
Y545100D01*
X1087920Y543929D02*
Y545100D01*
Y543929D02*
X1093000Y542560D01*
X1098080Y543929D01*
Y545100D01*
X1105451Y522240D02*
Y542560D01*
X1055149Y522240D02*
X1059470D01*
Y526530D01*
X1055149D02*
X1059470D01*
X1067600Y522240D02*
X1072680Y520871D01*
Y519700D02*
Y520871D01*
Y519700D02*
X1087920D01*
X1055149Y522240D02*
X1105451D01*
X1062520Y520871D02*
X1067600Y522240D01*
X1062520Y519700D02*
Y520871D01*
X1063409Y519700D02*
Y521110D01*
X1057689Y519700D02*
Y521001D01*
X1055149Y522240D02*
X1057689Y521001D01*
X1064420Y529220D02*
X1070780D01*
X1064420D02*
Y535580D01*
X1070780D01*
Y529220D02*
Y535580D01*
X1057689Y519700D02*
X1062520D01*
X1055149Y517191D02*
X1059470D01*
X1055149Y512870D02*
X1059470D01*
Y517191D01*
X1055149Y517160D02*
X1105451D01*
X1063409Y518290D02*
Y519700D01*
X1055149Y496840D02*
Y517160D01*
X1057689Y518400D01*
Y519700D01*
X1062520Y518529D02*
Y519700D01*
Y518529D02*
X1067600Y517160D01*
X1072680Y518529D01*
Y519700D01*
X1064420Y503820D02*
X1070780D01*
X1064420D02*
Y510180D01*
X1070780D01*
Y503820D02*
Y510180D01*
X1072680Y519700D02*
X1087920D01*
X1057689D02*
X1062520D01*
X1101131Y522240D02*
X1105451D01*
X1101131D02*
Y526530D01*
X1105451D01*
X1097191Y519700D02*
Y521110D01*
X1098080Y519700D02*
Y520871D01*
X1093000Y522240D02*
X1098080Y520871D01*
X1087920D02*
X1093000Y522240D01*
X1087920Y519700D02*
Y520871D01*
X1102911Y521001D02*
X1105451Y522240D01*
X1102911Y519700D02*
Y521001D01*
X1089820Y529220D02*
X1096180D01*
X1089820D02*
Y535580D01*
X1096180D01*
Y529220D02*
Y535580D01*
X1098080Y519700D02*
X1102911D01*
X1101131Y512870D02*
X1105451D01*
X1101131D02*
Y517191D01*
X1105451D01*
X1098080Y519700D02*
X1102911D01*
Y518400D02*
Y519700D01*
Y518400D02*
X1105451Y517160D01*
X1097191Y518290D02*
Y519700D01*
X1087920Y518529D02*
Y519700D01*
Y518529D02*
X1093000Y517160D01*
X1098080Y518529D01*
Y519700D01*
X1105451Y496840D02*
Y517160D01*
X1089820Y503820D02*
X1096180D01*
X1089820D02*
Y510180D01*
X1096180D01*
Y503820D02*
Y510180D01*
X1055149Y496840D02*
X1059470D01*
Y501130D01*
X1055149D02*
X1059470D01*
X1067600Y496840D02*
X1072680Y495471D01*
Y494300D02*
Y495471D01*
Y494300D02*
X1087920D01*
X1055149Y496840D02*
X1105451D01*
X1062520Y495471D02*
X1067600Y496840D01*
X1062520Y494300D02*
Y495471D01*
X1063409Y494300D02*
Y495710D01*
X1057689Y494300D02*
Y495601D01*
X1055149Y496840D02*
X1057689Y495601D01*
Y494300D02*
X1062520D01*
X1055149Y491791D02*
X1059470D01*
X1055149Y487470D02*
X1059470D01*
Y491791D01*
X1055149Y471440D02*
X1059470D01*
Y475730D01*
X1055149D02*
X1059470D01*
X1067600Y471440D02*
X1072680Y470071D01*
Y468900D02*
Y470071D01*
Y468900D02*
X1087920D01*
X1055149Y471440D02*
X1105451D01*
X1055149Y491760D02*
X1105451D01*
X1063409Y492890D02*
Y494300D01*
X1062520Y470071D02*
X1067600Y471440D01*
X1055149D02*
X1057689Y470201D01*
X1055149Y471440D02*
Y491760D01*
X1057689Y492999D01*
Y494300D01*
X1062520Y493129D02*
Y494300D01*
Y493129D02*
X1067600Y491760D01*
X1072680Y493129D01*
Y494300D01*
X1064420Y478420D02*
X1070780D01*
X1064420D02*
Y484780D01*
X1070780D01*
Y478420D02*
Y484780D01*
X1072680Y494300D02*
X1087920D01*
X1057689D02*
X1062520D01*
X1101131Y496840D02*
X1105451D01*
X1101131D02*
Y501130D01*
X1105451D01*
X1097191Y494300D02*
Y495710D01*
X1098080Y494300D02*
Y495471D01*
X1093000Y496840D02*
X1098080Y495471D01*
X1087920D02*
X1093000Y496840D01*
X1087920Y494300D02*
Y495471D01*
X1102911Y495601D02*
X1105451Y496840D01*
X1102911Y494300D02*
Y495601D01*
X1098080Y494300D02*
X1102911D01*
X1101131Y487470D02*
X1105451D01*
X1101131D02*
Y491791D01*
X1105451D01*
X1101131Y471440D02*
X1105451D01*
X1101131D02*
Y475730D01*
X1105451D01*
X1098080Y494300D02*
X1102911D01*
Y492999D02*
Y494300D01*
Y492999D02*
X1105451Y491760D01*
X1097191Y492890D02*
Y494300D01*
X1093000Y471440D02*
X1098080Y470071D01*
X1087920D02*
X1093000Y471440D01*
X1087920Y493129D02*
Y494300D01*
Y493129D02*
X1093000Y491760D01*
X1098080Y493129D01*
Y494300D01*
X1105451Y471440D02*
Y491760D01*
X1102911Y470201D02*
X1105451Y471440D01*
X1089820Y478420D02*
X1096180D01*
X1089820D02*
Y484780D01*
X1096180D01*
Y478420D02*
Y484780D01*
X1062520Y468900D02*
Y470071D01*
X1063409Y468900D02*
Y470310D01*
X1057689Y468900D02*
Y470201D01*
Y468900D02*
X1062520D01*
X1055149Y466390D02*
X1059470D01*
X1055149Y462070D02*
X1059470D01*
Y466390D01*
X1055149Y446040D02*
X1059470D01*
Y450330D01*
X1055149D02*
X1059470D01*
X1067600Y446040D02*
X1072680Y444671D01*
Y443500D02*
Y444671D01*
Y443500D02*
X1087920D01*
X1055149Y446040D02*
X1105451D01*
X1055149Y466360D02*
X1105451D01*
X1063409Y467490D02*
Y468900D01*
X1062520Y444671D02*
X1067600Y446040D01*
X1062520Y443500D02*
Y444671D01*
X1063409Y443500D02*
Y444910D01*
X1057689Y443500D02*
Y444800D01*
X1055149Y446040D02*
X1057689Y444800D01*
X1055149Y446040D02*
Y466360D01*
X1057689Y467599D01*
Y468900D01*
X1062520Y467729D02*
Y468900D01*
Y467729D02*
X1067600Y466360D01*
X1072680Y467729D01*
Y468900D01*
X1064420Y453020D02*
X1070780D01*
X1064420D02*
Y459380D01*
X1070780D01*
Y453020D02*
Y459380D01*
X1072680Y468900D02*
X1087920D01*
X1057689D02*
X1062520D01*
X1057689Y443500D02*
X1062520D01*
X1055149Y440990D02*
X1059470D01*
Y436670D02*
Y440990D01*
X1055149Y440960D02*
X1105451D01*
X1063409Y442090D02*
Y443500D01*
X1055149Y420640D02*
Y440960D01*
X1057689Y442200D01*
Y443500D01*
X1062520Y442329D02*
Y443500D01*
Y442329D02*
X1067600Y440960D01*
X1072680Y442329D01*
Y443500D01*
X1087920D01*
X1057689D02*
X1062520D01*
X1097191Y468900D02*
Y470310D01*
X1098080Y468900D02*
Y470071D01*
X1087920Y468900D02*
Y470071D01*
X1102911Y468900D02*
Y470201D01*
X1098080Y468900D02*
X1102911D01*
X1101131Y462070D02*
X1105451D01*
X1101131D02*
Y466390D01*
X1105451D01*
X1101131Y446040D02*
X1105451D01*
X1101131D02*
Y450330D01*
X1105451D01*
X1098080Y468900D02*
X1102911D01*
Y467599D02*
Y468900D01*
Y467599D02*
X1105451Y466360D01*
X1097191Y467490D02*
Y468900D01*
Y443500D02*
Y444910D01*
X1098080Y443500D02*
Y444671D01*
X1093000Y446040D02*
X1098080Y444671D01*
X1087920D02*
X1093000Y446040D01*
X1087920Y443500D02*
Y444671D01*
Y467729D02*
Y468900D01*
Y467729D02*
X1093000Y466360D01*
X1098080Y467729D01*
Y468900D01*
X1105451Y446040D02*
Y466360D01*
X1102911Y444800D02*
X1105451Y446040D01*
X1102911Y443500D02*
Y444800D01*
X1089820Y453020D02*
X1096180D01*
X1089820D02*
Y459380D01*
X1096180D01*
Y453020D02*
Y459380D01*
X1098080Y443500D02*
X1102911D01*
X1101131Y436670D02*
Y440990D01*
X1105451D01*
X1098080Y443500D02*
X1102911D01*
Y442200D02*
Y443500D01*
Y442200D02*
X1105451Y440960D01*
X1097191Y442090D02*
Y443500D01*
X1087920Y442329D02*
Y443500D01*
Y442329D02*
X1093000Y440960D01*
X1098080Y442329D01*
Y443500D01*
X1105451Y420640D02*
Y440960D01*
X1055149Y436670D02*
X1059470D01*
X1055149Y420640D02*
X1059470D01*
Y424930D01*
X1055149D02*
X1059470D01*
X1067600Y420640D02*
X1072680Y419271D01*
Y418100D02*
Y419271D01*
Y418100D02*
X1087920D01*
X1055149Y420640D02*
X1105451D01*
X1062520Y419271D02*
X1067600Y420640D01*
X1062520Y418100D02*
Y419271D01*
X1063409Y418100D02*
Y419510D01*
X1057689Y418100D02*
Y419400D01*
X1055149Y420640D02*
X1057689Y419400D01*
X1064420Y427620D02*
X1070780D01*
X1064420D02*
Y433980D01*
X1070780D01*
Y427620D02*
Y433980D01*
X1057689Y418100D02*
X1062520D01*
X1055149Y415591D02*
X1059470D01*
X1055149Y411270D02*
X1059470D01*
Y415591D01*
X1055149Y415560D02*
X1105451D01*
X1063409Y416690D02*
Y418100D01*
X1055149Y395240D02*
Y415560D01*
X1057689Y416800D01*
Y418100D01*
X1062520Y416929D02*
Y418100D01*
Y416929D02*
X1067600Y415560D01*
X1072680Y416929D01*
Y418100D01*
X1064420Y402220D02*
Y408580D01*
X1070780D01*
Y402220D02*
Y408580D01*
X1072680Y418100D02*
X1087920D01*
X1057689D02*
X1062520D01*
X1101131Y436670D02*
X1105451D01*
X1101131Y420640D02*
X1105451D01*
X1101131D02*
Y424930D01*
X1105451D01*
X1097191Y418100D02*
Y419510D01*
X1098080Y418100D02*
Y419271D01*
X1093000Y420640D02*
X1098080Y419271D01*
X1087920D02*
X1093000Y420640D01*
X1087920Y418100D02*
Y419271D01*
X1102911Y419400D02*
X1105451Y420640D01*
X1102911Y418100D02*
Y419400D01*
X1089820Y427620D02*
X1096180D01*
X1089820D02*
Y433980D01*
X1096180D01*
Y427620D02*
Y433980D01*
X1098080Y418100D02*
X1102911D01*
X1101131Y411270D02*
X1105451D01*
X1101131D02*
Y415591D01*
X1105451D01*
X1098080Y418100D02*
X1102911D01*
Y416800D02*
Y418100D01*
Y416800D02*
X1105451Y415560D01*
X1097191Y416690D02*
Y418100D01*
X1087920Y416929D02*
Y418100D01*
Y416929D02*
X1093000Y415560D01*
X1098080Y416929D01*
Y418100D01*
X1105451Y395240D02*
Y415560D01*
X1089820Y402220D02*
Y408580D01*
X1096180D01*
Y402220D02*
Y408580D01*
X1055149Y395240D02*
X1059470D01*
Y399530D01*
X1055149D02*
X1059470D01*
X1067600Y395240D02*
X1072680Y393871D01*
Y392700D02*
Y393871D01*
Y392700D02*
X1087920D01*
X1055149Y395240D02*
X1105451D01*
X1062520Y393871D02*
X1067600Y395240D01*
X1062520Y392700D02*
Y393871D01*
X1063409Y392700D02*
Y394110D01*
X1057689Y392700D02*
Y394001D01*
X1055149Y395240D02*
X1057689Y394001D01*
X1064420Y402220D02*
X1070780D01*
X1057689Y392700D02*
X1062520D01*
X1055149Y390191D02*
X1059470D01*
X1055149Y385870D02*
X1059470D01*
Y390191D01*
X1055149Y369840D02*
X1059470D01*
Y374130D01*
X1055149D02*
X1059470D01*
X1055149Y390160D02*
X1105451D01*
X1063409Y391290D02*
Y392700D01*
X1055149Y369840D02*
Y390160D01*
X1057689Y391399D01*
Y392700D01*
X1062520Y391529D02*
Y392700D01*
Y391529D02*
X1067600Y390160D01*
X1072680Y391529D01*
Y392700D01*
X1064420Y376820D02*
X1070780D01*
X1064420D02*
Y383180D01*
X1070780D01*
Y376820D02*
Y383180D01*
X1072680Y392700D02*
X1087920D01*
X1057689D02*
X1062520D01*
X1101131Y395240D02*
X1105451D01*
X1101131D02*
Y399530D01*
X1105451D01*
X1097191Y392700D02*
Y394110D01*
X1098080Y392700D02*
Y393871D01*
X1093000Y395240D02*
X1098080Y393871D01*
X1087920D02*
X1093000Y395240D01*
X1087920Y392700D02*
Y393871D01*
X1102911Y394001D02*
X1105451Y395240D01*
X1102911Y392700D02*
Y394001D01*
X1089820Y402220D02*
X1096180D01*
X1098080Y392700D02*
X1102911D01*
X1101131Y385870D02*
X1105451D01*
X1101131D02*
Y390191D01*
X1105451D01*
X1101131Y369840D02*
X1105451D01*
X1101131D02*
Y374130D01*
X1105451D01*
X1098080Y392700D02*
X1102911D01*
Y391399D02*
Y392700D01*
Y391399D02*
X1105451Y390160D01*
X1097191Y391290D02*
Y392700D01*
X1087920Y391529D02*
Y392700D01*
Y391529D02*
X1093000Y390160D01*
X1098080Y391529D01*
Y392700D01*
X1105451Y369840D02*
Y390160D01*
X1089820Y376820D02*
X1096180D01*
X1089820D02*
Y383180D01*
X1096180D01*
Y376820D02*
Y383180D01*
X1067600Y369840D02*
X1072680Y368471D01*
Y367300D02*
Y368471D01*
Y367300D02*
X1087920D01*
X1055149Y369840D02*
X1105451D01*
X1062520Y368471D02*
X1067600Y369840D01*
X1062520Y367300D02*
Y368471D01*
X1063409Y367300D02*
Y368710D01*
X1057689Y367300D02*
Y368601D01*
X1055149Y369840D02*
X1057689Y368601D01*
Y367300D02*
X1062520D01*
X1055149Y364790D02*
X1059470D01*
X1055149Y360470D02*
X1059470D01*
Y364790D01*
X1055149Y344440D02*
X1059470D01*
Y348730D01*
X1055149D02*
X1059470D01*
X1067600Y344440D02*
X1072680Y343071D01*
Y341900D02*
Y343071D01*
Y341900D02*
X1087920D01*
X1055149Y344440D02*
X1105451D01*
X1055149Y364760D02*
X1105451D01*
X1063409Y365890D02*
Y367300D01*
X1062520Y343071D02*
X1067600Y344440D01*
X1062520Y341900D02*
Y343071D01*
X1063409Y341900D02*
Y343310D01*
X1057689Y341900D02*
Y343200D01*
X1055149Y344440D02*
X1057689Y343200D01*
X1055149Y344440D02*
Y364760D01*
X1057689Y365999D01*
Y367300D01*
X1062520Y366129D02*
Y367300D01*
Y366129D02*
X1067600Y364760D01*
X1072680Y366129D01*
Y367300D01*
X1064420Y351420D02*
X1070780D01*
X1064420D02*
Y357780D01*
X1070780D01*
Y351420D02*
Y357780D01*
X1072680Y367300D02*
X1087920D01*
X1057689D02*
X1062520D01*
X1057689Y341900D02*
X1062520D01*
X1055149Y339390D02*
X1059470D01*
Y335070D02*
Y339390D01*
X1055149Y339360D02*
X1105451D01*
X1063409Y340490D02*
Y341900D01*
X1055149Y319040D02*
Y339360D01*
X1057689Y340600D01*
Y341900D01*
X1062520Y340729D02*
Y341900D01*
Y340729D02*
X1067600Y339360D01*
X1072680Y340729D01*
Y341900D01*
X1087920D01*
X1057689D02*
X1062520D01*
X1097191Y367300D02*
Y368710D01*
X1098080Y367300D02*
Y368471D01*
X1093000Y369840D02*
X1098080Y368471D01*
X1087920D02*
X1093000Y369840D01*
X1087920Y367300D02*
Y368471D01*
X1102911Y368601D02*
X1105451Y369840D01*
X1102911Y367300D02*
Y368601D01*
X1098080Y367300D02*
X1102911D01*
X1101131Y360470D02*
X1105451D01*
X1101131D02*
Y364790D01*
X1105451D01*
X1101131Y344440D02*
X1105451D01*
X1101131D02*
Y348730D01*
X1105451D01*
X1098080Y367300D02*
X1102911D01*
Y365999D02*
Y367300D01*
Y365999D02*
X1105451Y364760D01*
X1097191Y365890D02*
Y367300D01*
Y341900D02*
Y343310D01*
X1098080Y341900D02*
Y343071D01*
X1093000Y344440D02*
X1098080Y343071D01*
X1087920D02*
X1093000Y344440D01*
X1087920Y341900D02*
Y343071D01*
Y366129D02*
Y367300D01*
Y366129D02*
X1093000Y364760D01*
X1098080Y366129D01*
Y367300D01*
X1105451Y344440D02*
Y364760D01*
X1102911Y343200D02*
X1105451Y344440D01*
X1102911Y341900D02*
Y343200D01*
X1089820Y351420D02*
X1096180D01*
X1089820D02*
Y357780D01*
X1096180D01*
Y351420D02*
Y357780D01*
X1098080Y341900D02*
X1102911D01*
X1101131Y335070D02*
Y339390D01*
X1105451D01*
X1098080Y341900D02*
X1102911D01*
Y340600D02*
Y341900D01*
Y340600D02*
X1105451Y339360D01*
X1097191Y340490D02*
Y341900D01*
X1087920Y340729D02*
Y341900D01*
Y340729D02*
X1093000Y339360D01*
X1098080Y340729D01*
Y341900D01*
X1105451Y319040D02*
Y339360D01*
X1055149Y335070D02*
X1059470D01*
X1055149Y319040D02*
X1059470D01*
Y323330D01*
X1055149D02*
X1059470D01*
X1067600Y319040D02*
X1072680Y317671D01*
Y316500D02*
Y317671D01*
Y316500D02*
X1087920D01*
X1055149Y319040D02*
X1105451D01*
X1062520Y317671D02*
X1067600Y319040D01*
X1062520Y316500D02*
Y317671D01*
X1063409Y316500D02*
Y317910D01*
X1057689Y316500D02*
Y317801D01*
X1055149Y319040D02*
X1057689Y317801D01*
X1064420Y326020D02*
X1070780D01*
X1064420D02*
Y332380D01*
X1070780D01*
Y326020D02*
Y332380D01*
X1057689Y316500D02*
X1062520D01*
X1055149Y313990D02*
X1059470D01*
X1055149Y309670D02*
X1059470D01*
Y313990D01*
X1055149Y313960D02*
X1105451D01*
X1063409Y315090D02*
Y316500D01*
X1055149Y293640D02*
Y313960D01*
X1057689Y315200D01*
Y316500D01*
X1062520Y315329D02*
Y316500D01*
Y315329D02*
X1067600Y313960D01*
X1072680Y315329D01*
Y316500D01*
X1064420Y300620D02*
Y306980D01*
X1070780D01*
Y300620D02*
Y306980D01*
X1072680Y316500D02*
X1087920D01*
X1057689D02*
X1062520D01*
X1101131Y335070D02*
X1105451D01*
X1101131Y319040D02*
X1105451D01*
X1101131D02*
Y323330D01*
X1105451D01*
X1097191Y316500D02*
Y317910D01*
X1098080Y316500D02*
Y317671D01*
X1093000Y319040D02*
X1098080Y317671D01*
X1087920D02*
X1093000Y319040D01*
X1087920Y316500D02*
Y317671D01*
X1102911Y317801D02*
X1105451Y319040D01*
X1102911Y316500D02*
Y317801D01*
X1089820Y326020D02*
X1096180D01*
X1089820D02*
Y332380D01*
X1096180D01*
Y326020D02*
Y332380D01*
X1098080Y316500D02*
X1102911D01*
X1101131Y309670D02*
X1105451D01*
X1101131D02*
Y313990D01*
X1105451D01*
X1098080Y316500D02*
X1102911D01*
Y315200D02*
Y316500D01*
Y315200D02*
X1105451Y313960D01*
X1097191Y315090D02*
Y316500D01*
X1087920Y315329D02*
Y316500D01*
Y315329D02*
X1093000Y313960D01*
X1098080Y315329D01*
Y316500D01*
X1105451Y293640D02*
Y313960D01*
X1089820Y300620D02*
Y306980D01*
X1096180D01*
Y300620D02*
Y306980D01*
X1055149Y293640D02*
X1059470D01*
Y297930D01*
X1055149D02*
X1059470D01*
X1067600Y293640D02*
X1072680Y292271D01*
Y291100D02*
Y292271D01*
Y291100D02*
X1087920D01*
X1055149Y293640D02*
X1105451D01*
X1062520Y292271D02*
X1067600Y293640D01*
X1062520Y291100D02*
Y292271D01*
X1063409Y291100D02*
Y292510D01*
X1057689Y291100D02*
Y292400D01*
X1055149Y293640D02*
X1057689Y292400D01*
X1064420Y300620D02*
X1070780D01*
X1057689Y291100D02*
X1062520D01*
X1055149Y288591D02*
X1059470D01*
X1055149Y284270D02*
X1059470D01*
Y288591D01*
X1055149Y268240D02*
X1059470D01*
Y272530D01*
X1055149D02*
X1059470D01*
X1055149Y288560D02*
X1105451D01*
X1063409Y289690D02*
Y291100D01*
X1055149Y268240D02*
Y288560D01*
X1057689Y289799D01*
Y291100D01*
X1062520Y289929D02*
Y291100D01*
Y289929D02*
X1067600Y288560D01*
X1072680Y289929D01*
Y291100D01*
X1064420Y275220D02*
X1070780D01*
X1064420D02*
Y281580D01*
X1070780D01*
Y275220D02*
Y281580D01*
X1072680Y291100D02*
X1087920D01*
X1057689D02*
X1062520D01*
X1101131Y293640D02*
X1105451D01*
X1101131D02*
Y297930D01*
X1105451D01*
X1097191Y291100D02*
Y292510D01*
X1098080Y291100D02*
Y292271D01*
X1093000Y293640D02*
X1098080Y292271D01*
X1087920D02*
X1093000Y293640D01*
X1087920Y291100D02*
Y292271D01*
X1102911Y292400D02*
X1105451Y293640D01*
X1102911Y291100D02*
Y292400D01*
X1089820Y300620D02*
X1096180D01*
X1098080Y291100D02*
X1102911D01*
X1101131Y284270D02*
X1105451D01*
X1101131D02*
Y288591D01*
X1105451D01*
X1101131Y268240D02*
X1105451D01*
X1101131D02*
Y272530D01*
X1105451D01*
X1098080Y291100D02*
X1102911D01*
Y289799D02*
Y291100D01*
Y289799D02*
X1105451Y288560D01*
X1097191Y289690D02*
Y291100D01*
X1087920Y289929D02*
Y291100D01*
Y289929D02*
X1093000Y288560D01*
X1098080Y289929D01*
Y291100D01*
X1105451Y268240D02*
Y288560D01*
X1089820Y275220D02*
X1096180D01*
X1089820D02*
Y281580D01*
X1096180D01*
Y275220D02*
Y281580D01*
X1067600Y268240D02*
X1072680Y266871D01*
Y265700D02*
Y266871D01*
Y265700D02*
X1087920D01*
X1055149Y268240D02*
X1105451D01*
X1062520Y266871D02*
X1067600Y268240D01*
X1062520Y265700D02*
Y266871D01*
X1063409Y265700D02*
Y267110D01*
X1057689Y265700D02*
Y267001D01*
X1055149Y268240D02*
X1057689Y267001D01*
Y265700D02*
X1062520D01*
X1055149Y263190D02*
X1059470D01*
X1055149Y258870D02*
X1059470D01*
Y263190D01*
X1055149Y242840D02*
X1059470D01*
Y247130D01*
X1055149D02*
X1059470D01*
X1067600Y242840D02*
X1072680Y241471D01*
Y240300D02*
Y241471D01*
Y240300D02*
X1087920D01*
X1055149Y242840D02*
X1105451D01*
X1055149Y263160D02*
X1105451D01*
X1063409Y264290D02*
Y265700D01*
X1062520Y241471D02*
X1067600Y242840D01*
X1062520Y240300D02*
Y241471D01*
X1063409Y240300D02*
Y241710D01*
X1057689Y240300D02*
Y241600D01*
X1055149Y242840D02*
X1057689Y241600D01*
X1055149Y242840D02*
Y263160D01*
X1057689Y264400D01*
Y265700D01*
X1062520Y264529D02*
Y265700D01*
Y264529D02*
X1067600Y263160D01*
X1072680Y264529D01*
Y265700D01*
X1064420Y249820D02*
X1070780D01*
X1064420D02*
Y256180D01*
X1070780D01*
Y249820D02*
Y256180D01*
X1072680Y265700D02*
X1087920D01*
X1057689D02*
X1062520D01*
X1057689Y240300D02*
X1062520D01*
X1055149Y237791D02*
X1059470D01*
Y233470D02*
Y237791D01*
X1055149Y237760D02*
X1105451D01*
X1063409Y238890D02*
Y240300D01*
X1055149Y217440D02*
Y237760D01*
X1057689Y239000D01*
Y240300D01*
X1062520Y239129D02*
Y240300D01*
Y239129D02*
X1067600Y237760D01*
X1072680Y239129D01*
Y240300D01*
X1087920D01*
X1057689D02*
X1062520D01*
X1097191Y265700D02*
Y267110D01*
X1098080Y265700D02*
Y266871D01*
X1093000Y268240D02*
X1098080Y266871D01*
X1087920D02*
X1093000Y268240D01*
X1087920Y265700D02*
Y266871D01*
X1102911Y267001D02*
X1105451Y268240D01*
X1102911Y265700D02*
Y267001D01*
X1098080Y265700D02*
X1102911D01*
X1101131Y258870D02*
X1105451D01*
X1101131D02*
Y263190D01*
X1105451D01*
X1101131Y242840D02*
X1105451D01*
X1101131D02*
Y247130D01*
X1105451D01*
X1098080Y265700D02*
X1102911D01*
Y264400D02*
Y265700D01*
Y264400D02*
X1105451Y263160D01*
X1097191Y264290D02*
Y265700D01*
Y240300D02*
Y241710D01*
X1098080Y240300D02*
Y241471D01*
X1093000Y242840D02*
X1098080Y241471D01*
X1087920D02*
X1093000Y242840D01*
X1087920Y240300D02*
Y241471D01*
Y264529D02*
Y265700D01*
Y264529D02*
X1093000Y263160D01*
X1098080Y264529D01*
Y265700D01*
X1105451Y242840D02*
Y263160D01*
X1102911Y241600D02*
X1105451Y242840D01*
X1102911Y240300D02*
Y241600D01*
X1089820Y249820D02*
X1096180D01*
X1089820D02*
Y256180D01*
X1096180D01*
Y249820D02*
Y256180D01*
X1098080Y240300D02*
X1102911D01*
X1101131Y233470D02*
Y237791D01*
X1105451D01*
X1098080Y240300D02*
X1102911D01*
Y239000D02*
Y240300D01*
Y239000D02*
X1105451Y237760D01*
X1097191Y238890D02*
Y240300D01*
X1087920Y239129D02*
Y240300D01*
Y239129D02*
X1093000Y237760D01*
X1098080Y239129D01*
Y240300D01*
X1105451Y217440D02*
Y237760D01*
X1055149Y233470D02*
X1059470D01*
X1055149Y217440D02*
X1059470D01*
Y221730D01*
X1055149D02*
X1059470D01*
X1067600Y217440D02*
X1072680Y216071D01*
Y214900D02*
Y216071D01*
Y214900D02*
X1087920D01*
X1055149Y217440D02*
X1105451D01*
X1062520Y216071D02*
X1067600Y217440D01*
X1062520Y214900D02*
Y216071D01*
X1063409Y214900D02*
Y216310D01*
X1057689Y214900D02*
Y216201D01*
X1055149Y217440D02*
X1057689Y216201D01*
X1064420Y224420D02*
X1070780D01*
X1064420D02*
Y230780D01*
X1070780D01*
Y224420D02*
Y230780D01*
X1057689Y214900D02*
X1062520D01*
X1055149Y212390D02*
X1059470D01*
X1055149Y208070D02*
X1059470D01*
Y212390D01*
X1055149Y212360D02*
X1105451D01*
X1063409Y213490D02*
Y214900D01*
X1055149Y192040D02*
Y212360D01*
X1057689Y213599D01*
Y214900D01*
X1062520Y213729D02*
Y214900D01*
Y213729D02*
X1067600Y212360D01*
X1072680Y213729D01*
Y214900D01*
X1064420Y199020D02*
Y205380D01*
X1070780D01*
Y199020D02*
Y205380D01*
X1072680Y214900D02*
X1087920D01*
X1057689D02*
X1062520D01*
X1101131Y233470D02*
X1105451D01*
X1101131Y217440D02*
X1105451D01*
X1101131D02*
Y221730D01*
X1105451D01*
X1097191Y214900D02*
Y216310D01*
X1098080Y214900D02*
Y216071D01*
X1093000Y217440D02*
X1098080Y216071D01*
X1087920D02*
X1093000Y217440D01*
X1087920Y214900D02*
Y216071D01*
X1102911Y216201D02*
X1105451Y217440D01*
X1102911Y214900D02*
Y216201D01*
X1089820Y224420D02*
X1096180D01*
X1089820D02*
Y230780D01*
X1096180D01*
Y224420D02*
Y230780D01*
X1098080Y214900D02*
X1102911D01*
X1101131Y208070D02*
X1105451D01*
X1101131D02*
Y212390D01*
X1105451D01*
X1098080Y214900D02*
X1102911D01*
Y213599D02*
Y214900D01*
Y213599D02*
X1105451Y212360D01*
X1097191Y213490D02*
Y214900D01*
X1087920Y213729D02*
Y214900D01*
Y213729D02*
X1093000Y212360D01*
X1098080Y213729D01*
Y214900D01*
X1105451Y192040D02*
Y212360D01*
X1089820Y199020D02*
Y205380D01*
X1096180D01*
Y199020D02*
Y205380D01*
X1055149Y192040D02*
X1059470D01*
Y196330D01*
X1055149D02*
X1059470D01*
X1067600Y192040D02*
X1072680Y190671D01*
Y189500D02*
Y190671D01*
Y189500D02*
X1087920D01*
X1055149Y192040D02*
X1105451D01*
X1062520Y190671D02*
X1067600Y192040D01*
X1062520Y189500D02*
Y190671D01*
X1063409Y189500D02*
Y190910D01*
X1057689Y189500D02*
Y190800D01*
X1055149Y192040D02*
X1057689Y190800D01*
X1064420Y199020D02*
X1070780D01*
X1057689Y189500D02*
X1062520D01*
X1055149Y186991D02*
X1059470D01*
X1055149Y182670D02*
X1059470D01*
Y186991D01*
X1055149Y166640D02*
X1059470D01*
Y170930D01*
X1055149D02*
X1059470D01*
X1055149Y186960D02*
X1105451D01*
X1063409Y188090D02*
Y189500D01*
X1055149Y166640D02*
Y186960D01*
X1057689Y188200D01*
Y189500D01*
X1062520Y188329D02*
Y189500D01*
Y188329D02*
X1067600Y186960D01*
X1072680Y188329D01*
Y189500D01*
X1064420Y173620D02*
X1070780D01*
X1064420D02*
Y179980D01*
X1070780D01*
Y173620D02*
Y179980D01*
X1072680Y189500D02*
X1087920D01*
X1057689D02*
X1062520D01*
X1101131Y192040D02*
X1105451D01*
X1101131D02*
Y196330D01*
X1105451D01*
X1097191Y189500D02*
Y190910D01*
X1098080Y189500D02*
Y190671D01*
X1093000Y192040D02*
X1098080Y190671D01*
X1087920D02*
X1093000Y192040D01*
X1087920Y189500D02*
Y190671D01*
X1102911Y190800D02*
X1105451Y192040D01*
X1102911Y189500D02*
Y190800D01*
X1089820Y199020D02*
X1096180D01*
X1098080Y189500D02*
X1102911D01*
X1101131Y182670D02*
X1105451D01*
X1101131D02*
Y186991D01*
X1105451D01*
X1101131Y166640D02*
X1105451D01*
X1101131D02*
Y170930D01*
X1105451D01*
X1098080Y189500D02*
X1102911D01*
Y188200D02*
Y189500D01*
Y188200D02*
X1105451Y186960D01*
X1097191Y188090D02*
Y189500D01*
X1087920Y188329D02*
Y189500D01*
Y188329D02*
X1093000Y186960D01*
X1098080Y188329D01*
Y189500D01*
X1105451Y166640D02*
Y186960D01*
X1089820Y173620D02*
X1096180D01*
X1089820D02*
Y179980D01*
X1096180D01*
Y173620D02*
Y179980D01*
X1067600Y166640D02*
X1072680Y165271D01*
Y164100D02*
Y165271D01*
Y164100D02*
X1087920D01*
X1055149Y166640D02*
X1105451D01*
X1062520Y165271D02*
X1067600Y166640D01*
X1062520Y164100D02*
Y165271D01*
X1063409Y164100D02*
Y165510D01*
X1057689Y164100D02*
Y165401D01*
X1055149Y166640D02*
X1057689Y165401D01*
Y164100D02*
X1062520D01*
X1055149Y161590D02*
X1059470D01*
X1055149Y157270D02*
X1059470D01*
Y161590D01*
X1055149Y141240D02*
X1059470D01*
Y145530D01*
X1055149D02*
X1059470D01*
X1067600Y141240D02*
X1072680Y139871D01*
Y138700D02*
Y139871D01*
Y138700D02*
X1087920D01*
X1055149Y141240D02*
X1105451D01*
X1055149Y161560D02*
X1105451D01*
X1063409Y162690D02*
Y164100D01*
X1062520Y139871D02*
X1067600Y141240D01*
X1062520Y138700D02*
Y139871D01*
X1063409Y138700D02*
Y140110D01*
X1057689Y138700D02*
Y140000D01*
X1055149Y141240D02*
X1057689Y140000D01*
X1055149Y141240D02*
Y161560D01*
X1057689Y162799D01*
Y164100D01*
X1062520Y162929D02*
Y164100D01*
Y162929D02*
X1067600Y161560D01*
X1072680Y162929D01*
Y164100D01*
X1064420Y148220D02*
X1070780D01*
X1064420D02*
Y154580D01*
X1070780D01*
Y148220D02*
Y154580D01*
X1072680Y164100D02*
X1087920D01*
X1057689D02*
X1062520D01*
X1057689Y138700D02*
X1062520D01*
X1057689D02*
X1062520D01*
X1072680D02*
X1087920D01*
X1055149Y136160D02*
X1057689Y137400D01*
Y138700D01*
X1062520Y137529D02*
Y138700D01*
Y137529D02*
X1067600Y136160D01*
X1072680Y137529D01*
Y138700D01*
X1063409Y137290D02*
Y138700D01*
X1097191Y164100D02*
Y165510D01*
X1098080Y164100D02*
Y165271D01*
X1093000Y166640D02*
X1098080Y165271D01*
X1087920D02*
X1093000Y166640D01*
X1087920Y164100D02*
Y165271D01*
X1102911Y165401D02*
X1105451Y166640D01*
X1102911Y164100D02*
Y165401D01*
X1098080Y164100D02*
X1102911D01*
X1101131Y157270D02*
X1105451D01*
X1101131D02*
Y161590D01*
X1105451D01*
X1101131Y141240D02*
X1105451D01*
X1101131D02*
Y145530D01*
X1105451D01*
X1098080Y164100D02*
X1102911D01*
Y162799D02*
Y164100D01*
Y162799D02*
X1105451Y161560D01*
X1097191Y162690D02*
Y164100D01*
Y138700D02*
Y140110D01*
X1098080Y138700D02*
Y139871D01*
X1093000Y141240D02*
X1098080Y139871D01*
X1087920D02*
X1093000Y141240D01*
X1087920Y138700D02*
Y139871D01*
Y162929D02*
Y164100D01*
Y162929D02*
X1093000Y161560D01*
X1098080Y162929D01*
Y164100D01*
X1105451Y141240D02*
Y161560D01*
X1102911Y140000D02*
X1105451Y141240D01*
X1102911Y138700D02*
Y140000D01*
X1089820Y148220D02*
X1096180D01*
X1089820D02*
Y154580D01*
X1096180D01*
Y148220D02*
Y154580D01*
X1098080Y138700D02*
X1102911D01*
X1098080D02*
X1102911D01*
Y137400D02*
Y138700D01*
Y137400D02*
X1105451Y136160D01*
X1087920Y137529D02*
Y138700D01*
Y137529D02*
X1093000Y136160D01*
X1098080Y137529D01*
Y138700D01*
X1097191Y137290D02*
Y138700D01*
X1055149Y113300D02*
X1105451D01*
X1055149D02*
Y136160D01*
X1105451D01*
X1070780Y122820D02*
Y129180D01*
X1064420D02*
X1070780D01*
X1064420Y122820D02*
Y129180D01*
Y122820D02*
X1070780D01*
X1055149Y120130D02*
X1059470D01*
Y115809D02*
Y120130D01*
X1055149Y115809D02*
X1059470D01*
X1055149Y131870D02*
X1059470D01*
Y136160D01*
X1105451Y113300D02*
Y136160D01*
X1101131Y131870D02*
Y136160D01*
Y131870D02*
X1105451D01*
X1101131Y120130D02*
X1105451D01*
X1101131Y115809D02*
Y120130D01*
Y115809D02*
X1105451D01*
X1096180Y122820D02*
Y129180D01*
X1089820D02*
X1096180D01*
X1089820Y122820D02*
Y129180D01*
Y122820D02*
X1096180D01*
M02*
