M48
;Layer_Color=9474304
;FILE_FORMAT=4:4
METRIC,LZ
;TYPE=PLATED
T01F00S00C0.2000
T02F00S00C0.2540
T04F00S00C0.8500
T05F00S00C0.8890
T06F00S00C0.8900
T08F00S00C0.9200
T09F00S00C0.9500
T10F00S00C1.0160
T11F00S00C1.0500
T12F00S00C1.2700
T13F00S00C1.5700
T14F00S00C1.5748
T15F00S00C2.3000
T16F00S00C2.7000
T17F00S00C2.8000
;TYPE=NON_PLATED
T18F00S00C0.6500
T20F00S00C1.5500
T21F00S00C3.2500
T22F00S00C3.2512
%
T01
X0059317Y0044077
X0060317
Y0045077
X0059317
X0006392Y0057023
X0005292
X0009271Y0083143
Y0084243
T02
X0096393Y0000889
X0097663
X0099187
X0100457
X0101727
X0103251
X0104521
X0105791
X0107315
X0108585
X0109855
X0111506Y0001016
X0112649Y0002032
X0095123Y0000889
X0094234
X0092964
X0000635Y0002794
Y000381
Y0004699
Y0005588
Y0006858
Y0007874
Y0008763
Y0009652
Y0010922
Y0011938
Y0012827
Y0013716
Y0014859
Y0015875
Y0016764
Y0017653
Y0018923
Y0019939
Y0020828
Y0021717
Y0022987
Y0024003
Y0024892
Y0025781
Y0027178
Y0028194
Y0029083
Y0029972
Y0031242
Y0032258
Y0033147
Y0034036
Y0035306
Y0036322
Y0037211
Y00381
Y003937
Y0040386
Y0041275
X00025314Y00408277
X0004699Y0040386
X0005715
X0013081Y0041529
X0016129Y0039497
X0015494Y003556
X00147094Y00358411
X00139122Y00358041
X0013081Y0035941
X00162854Y0035665
X00170942Y00358394
X00179447Y00358782
X0018796Y0035941
X00195299Y00359153
X00203364Y00359894
X002032Y0034798
X0019685Y0039497
X00197933Y00402543
X00197835Y00408412
X0019812Y0041529
X0025527Y0040005
Y0038227
Y0036703
X0025908Y0035814
X0025654Y0034544
X0028321Y0036322
X0028956
X0029083Y0038735
X0030607Y0039878
X0031877Y0039497
X0032004Y0038481
X0031242Y00381
X00313234Y00370069
X0034036Y0037211
X00339441Y00348853
X00345193Y0034826
X00350527
X00356566Y00348444
X0040767Y0034925
Y0037211
X00453191Y00379705
Y00358545
X00458223Y0035306
X00463557
X00469254Y00352736
X0047498Y0034544
X00458568Y00347359
X00487993Y00357181
X00492981Y0035433
X00498316
X00503974Y00354818
X00502755Y00386761
X0050292Y0039243
X00506692Y00396202
X00513125Y00395486
X00520882Y00395082
X00521398Y00406023
X00518793Y00411929
X00513042Y00412788
X0050927Y0041656
X00496316Y00417179
X0048768Y0038227
X0052197Y0037211
X005461Y003683
X00545986Y00345446
X00557631Y00415881
X0049403Y0028194
X0048795Y00282029
X0045466Y0027559
X0045339Y0030353
X0045974
X0042418Y002286
X004191
X0042896Y00206913
X00482469Y00170379
X00384758Y00132
X00361684
X00340358Y00204837
X00340467Y00227889
X0025527Y001397
X0029337Y0041656
X0056642Y0040513
X0057404Y0040259
X0058073Y00401873
X0058571Y00405857
X0059182Y0040386
X00597882Y00403771
X00611965Y00400225
X0062621Y00405391
X0063881Y004191
X00660511Y00419174
X0067564Y0041783
X0066675Y0040894
X00653352Y00408799
X00645498Y00381639
X0063246Y0037211
X00628688Y00375882
X0062484Y0037973
X00613657Y0037592
X00608323
X00603981Y00372142
X0059294Y00371112
X00583181Y00372488
X00564413Y0037768
X00617951Y00371211
X0063627Y003683
X0066421Y0037338
X0069469Y0037846
X00700786Y0037719
X0070612
X0070993Y0038227
X00715599Y00384044
X0071882Y0037973
X00724154
X00728466Y00383321
X0073279Y003937
X0073787Y0040386
X0073914Y0041275
X0073406Y004191
X0069723Y0041783
X0071247Y0037338
Y0034925
X00733716Y00348376
X0073787Y0035814
X0073406Y0036576
X0078232Y0037338
Y0035052
X008509Y0036703
Y0038989
Y0039878
X00844804Y0039878
X0083947
X00833371Y00398837
X008509Y0041402
X0085598Y0041148
X00861314
X0086614Y0041402
X00890149Y00371071
X00935452Y00331745
X00934576Y00202213
X0093345Y0011303
X0094869Y0012065
Y0012573
X0094996Y0008636
X0095123Y0006223
Y0005461
Y0004826
Y0004064
X0094996Y0003302
X0094234Y0003175
X0094488Y0005715
X0070358Y0015113
Y0015748
Y001651
Y0017399
X0067945Y0034925
X0061849Y0034671
X0109601Y003302
X0113157
Y0034036
Y0035052
Y0036195
Y0037338
Y0038354
Y003937
Y0040513
Y0041656
Y0032004
Y0030861
Y0029718
Y0028575
Y0027432
Y0026289
Y0025273
Y0024257
Y0023241
Y0022098
Y0020955
Y0019939
Y0018923
Y0017907
Y0016764
Y0015621
Y0014478
Y0013462
Y0012446
Y0011303
Y001016
Y0009144
Y0008128
Y0007112
Y0005969
Y0004826
X011303Y0003302
X01060743Y00034867
X0105537Y0004826
X0104267Y0005715
X0105156Y0006731
X0105029Y0008255
X0104648Y000889
X01051492Y0012061
X0105156Y00127
X0104775Y0014732
X0102997Y0015113
X0102235Y0014986
X0100838Y0015748
X0099568Y0015621
X0098171Y0015748
X0097409Y0014986
X0096774
X0095631Y0014859
Y0009017
X0096393Y0005588
X0097155
X0098044
X0099187Y000508
X0100711
X0102108Y0005588
X01030526Y00047085
X0099428Y00023383
X010541Y0016891
X0110236Y0017907
X01092906Y0020276
X0109474Y0021336
X0109347Y0022479
X01093344Y00235609
X0109093Y002465
X01092797Y00268567
X0109474Y002794
X0111379Y0029083
X0112014Y002667
X01120473Y00248225
X0110617Y0014605
X01089544Y00137113
X0113157Y0042799
Y0043815
Y0044831
Y0045847
Y004699
Y0048133
Y0049149
Y0050165
Y0051181
Y0052324
Y0053467
Y0054483
Y0055499
Y0056642
Y0057785
Y0058928
Y0059944
Y006096
Y0062103
Y0063246
X01125657Y0063373
X0113157Y0064389
Y0065405
Y0066421
Y0067437
Y006858
Y0069723
Y0070739
Y0071755
Y0072898
Y0074041
Y0075184
Y00762
Y0077216
Y0079121
Y0080264
Y0081407
X01100836Y00759714
Y00752114
X01094486Y00748284
X01094466Y00738112
X01100763Y00741934
X01100846Y00731774
X0112014Y0073025
Y007239
Y0071628
Y0070993
X01094592Y00703834
Y00692404
X01100836Y00697484
X0110363Y0068326
X01100836Y00672114
X01093576Y0067818
X0109601Y0066294
X01089406Y00657943
X01094486Y00651764
X01100836Y00647954
Y00635254
Y00625094
Y00614934
X01089406
X01094614Y00620143
Y00630046
X01089406Y00635254
X01094614Y00640462
X01069086Y00636114
Y00646684
Y00656844
X01062736Y00661924
Y00641223
Y00630174
X01054608Y0060198
X01062239Y00583043
X0105664Y00569468
X01099737Y00566814
X01100836Y00561594
Y00573024
X0110109Y0057912
X01100836Y00584454
X01101069Y00594614
X01094199Y00591957
X01094486Y00599694
X0102362Y0059944
X0100584Y0060325
X0095631Y0065405
X0105283Y0068072
X0106934Y00678722
X01069086Y00700024
Y00710184
X01062736Y00713954
Y00705104
Y00694944
X01066556Y00727003
X01069086Y00738124
Y00762254
X01060958Y00756412
X0102997Y0048768
X0101219Y0048641
X0103421Y00455554
X0093599Y0047498
Y0048133
X0093726Y0049149
X0093345Y0050292
X0092329Y0050419
X0091313
X0090297
X0089154Y00508
X008763
X0086487Y0050419
X0085598Y0050292
X0084328Y0050165
X0083312Y0049911
X0083185Y0048133
Y0047498
X0083058Y0045847
X0080772
X0085344Y0045593
X0075057Y0045466
X0074041Y0044323
X00741123Y00429305
X00732827Y00428373
X0069088Y0043053
Y0042291
X0069215Y0043815
X0066167Y0043307
X00639347Y00433314
X00639721Y00458217
X00639409Y00474809
X0064262Y0049022
X0065405Y0048133
X00661096Y00460628
X0061087Y0045847
X005995Y00458118
X0058547Y0045847
Y0043307
X00593953Y00433246
X00603353Y00433071
X0061087Y0043307
X00610801Y00487697
X00603297Y00490982
X00600807Y00486265
X00620606Y00486265
X00621019Y00494041
X00625407Y00522979
X0062457Y00529334
X00614837Y0052683
X0060325Y0052705
X0059182Y00526354
X0058039Y00526259
X00567641Y00522548
X00572337Y00553657
X00587185Y00553858
X0059309Y0055372
X0059944
X0061087
X006223
X0062429Y00541904
X0062103Y0056896
Y005842
X0061341Y0058547
X0060706
Y0059436
X0061341
X0062484Y005969
Y0059055
X0062611Y006096
X006223Y0061595
Y006223
X0062357Y0063627
X0061595Y0063246
X006096Y0063627
X0060325Y0063246
X0059182Y0062611
X0057658
X0056769Y0062992
X0056642Y0058674
X0058166
X0059182Y0059182
X0059817
X0065405Y0062357
X0065913Y0061976
X0064262Y0065786
X0063754Y0066294
X0060833Y0070358
Y0070993
X0060452Y0073025
X0059563Y0073152
X0058547
X0057785
X0056642Y0073787
X006731Y0077089
X0068961Y0075819
X00707043Y00768142
X00754126Y00760984
X00761746Y0075311
X00763778Y00736346
X00764Y00724667
X00764148Y00713612
X00764286Y00702056
X00764415Y00689735
Y00678306
X00764695Y00665902
X00784606Y00664114
X00790956Y00659384
X00764794Y0062992
Y00606044
X00765048Y00581914
X00765491Y00571723
X00750316Y00568452
X00752856Y00559054
X00782828Y00556834
X00784606Y00579374
X00809944Y00553858
X0072263Y0061087
X0072771Y0062357
X0072898Y0063627
X0073025Y0066548
X00788416Y00755904
X0086614Y0067945
X00879319Y00666502
X00892196Y00666277
X009017Y0067564
X0094361Y0065278
X0066421Y0052832
X0065786
X0057531Y0049403
X0057553Y00486233
X00653494Y00808353
X0053721Y0076073
X0053213Y0076327
X0053848Y0073787
X0053594Y0073152
X0052705
X00508Y0072898
X0050927Y0072136
Y0071247
Y0070612
X0049403Y007239
X0047625Y0072517
X0046482Y0073152
X0045339Y0073279
X0044323
X0042545Y0074041
Y0074803
X0043053Y0075438
X0043815Y0075692
X0043434Y0076454
Y007747
X0042799Y0078359
X0042672Y0079502
X0041529Y0080645
X004064Y0080391
X0040005
X0038481Y0081153
X0037973Y0080772
X0037084Y0080645
X0037465Y0078867
X0036195Y007874
X0036068Y0077978
X0035941Y0076835
Y0075692
X0036068Y0074676
Y0073914
X003683Y0074803
X0039116Y0074295
Y0073787
X0041656Y0073406
X0041275Y0069723
X0040132
X0038989
X0038608Y0068961
X00386789Y00662321
X0039243Y006477
X00401225Y00647724
X00408775Y00646595
X00413841Y0064356
X00420553Y0064798
X00428557Y0064843
X00424763Y0064262
X00432733Y00642265
X0044069Y0064516
X00449347Y00641673
X0045212Y006477
Y0065532
X00446526Y00658892
X00443326Y00664912
X0044196Y0067691
X004445Y0068961
X0043561Y0069723
X0042545
X0042418Y0065532
X0040513Y0065659
X00396525Y00641586
X00388418Y00641969
X00376322Y00642203
X00376503Y00649292
X00365347Y0064643
X00359159Y00647875
X00360635Y00641995
X00355099Y00651335
X00349696Y00647666
X00344605Y00643786
X00336635Y00643123
X0032766Y0064262
X00320804Y00643511
X00310719Y0064344
X0031369Y0065024
X0032893
X0034036Y0064897
X00355929Y0066255
X00347585Y0059055
Y0057785
Y0056515
Y0055245
Y0053975
Y0052705
Y0051435
Y0050165
X003302
Y0051435
Y0052705
Y0053975
Y0055245
Y0056515
Y0057785
Y0059055
X0036576
Y0057785
Y0056515
Y0055245
Y0053975
Y0052705
Y0051435
Y0050165
X0038227
Y0051435
Y0052705
Y0053975
Y0055245
Y0056515
Y0057785
Y0059055
X0039624
Y0057785
Y0056515
Y0055245
Y0053975
Y0052705
Y0051435
Y0050165
X0041402
Y0051435
Y0052705
Y0053975
Y0055245
Y0056515
Y0057785
Y0059055
X00471058Y00592133
X00470547Y00601241
X0047117Y006096
X00476474Y00605443
X0047625Y005969
X00485376Y00581435
X0049149Y0058166
X0050419Y0058039
X00504214Y00572865
X0050292Y0056769
X0050927
X005207Y005715
Y0057658
X0051943Y0058293
X0051181Y0058039
X004953Y0057023
X0048387Y0056896
X0047752Y00569355
X00470061Y00569385
X00469441Y00577534
X00469044Y00541385
X00473821Y00537859
X004699Y005334
X00474927Y005295
X004699Y0051689
X00470504Y00497919
X00477032Y00496673
X0049022Y00494037
Y00488703
X00495394Y00485467
X00494654Y00476763
X00495394Y00497232
X00516629Y0049849
X00518122Y00504228
X0051435Y00508
X0050849Y00509145
X00492993Y00517481
X00490885Y00536829
X0052451Y0054356
Y00548894
X00524204Y00554668
X00531681Y00553422
X0054356Y0055245
X0055118
X0055753Y0055118
X00529651Y0054037
X00532167Y00534006
X0052705Y00531114
Y0052578
X0053239Y00523203
X00520826Y00482108
X00530056Y00472022
X00519208Y00461935
X00521015Y00439479
X0051181Y0044069
X00505422Y00440728
X0050165Y004445
X0049784Y0044831
X00491729Y00448793
X00487005Y00445119
X00478606Y00445044
X00468108Y00450368
X0043688Y0044577
X00428619Y00452892
X00400974Y00451521
X0039751Y0044704
X00384698Y00452626
X0036449Y0045212
X0035306Y0045085
X00348103Y00452821
X0035052Y0043053
X00353568Y00425498
X0036449Y0043053
X00386557Y0043067
X00403863Y0042835
X00412159Y00429867
X00493423Y00430882
X0049149Y0042545
Y00420116
X00508204Y00422126
X00520159Y00425721
X00557496Y00428421
X00557817Y00447912
X00550805Y00447374
X00554829Y00453049
X00558004Y00468334
X0055028Y00469094
X00470548Y00485092
X0047879Y00635
X0048514Y0063627
X0049149Y0064262
Y0065151
X00491407Y00658436
X00485616Y00663617
X0047792Y00663693
X0053213Y006604
X0054229Y00635
X0054991Y0063373
X005588
X0052324Y0062103
Y0061468
X005207Y0060198
X0051562Y0060706
X005334Y0059309
X0054102Y0059182
X0054991
X0055626Y0073787
X00463138Y00778924
X00278384Y00717816
X00277926Y00696052
X00247132Y00691098
X0025019Y00685879
Y00680545
X0025527Y0067691
X00235968Y00677701
X0023876Y006731
Y00667766
X0023622Y0066294
X0022098Y0069469
Y0071882
X0018415Y0070739
X0016383Y0071882
X00193015Y00645633
X0018923Y0063119
X0017145Y006223
X001778Y0061214
X0017018Y0060071
X0017526Y0057785
X0017907Y0056896
X001778Y0054991
X00183896Y0054991
X0018923
X0019558Y0054991
Y0051816
X00189729Y0051689
X00184395
X0017907Y0051816
X00175183Y00474103
X00167118Y00474567
X0019939Y0047371
X0020701
X0021463
X00223408Y00510701
X00229874Y00529717
X00230052Y00535485
X0022628Y00539256
X0022058Y00538434
X00243151Y00535951
X0024765Y00532384
Y0052705
X002424Y00524118
X00252739Y0051977
X00265943Y00527247
X0027178Y00524703
Y00530037
X00271593Y0054155
X00279088Y0054123
X00281775Y00552798
X0027305Y0055626
X00266472Y00550037
Y00544703
X00260734Y00552408
X0025146Y0054991
X0024638Y0055499
X0024765Y0057277
X00249908Y00580484
X0027178Y0058166
X0027305Y0058801
Y0059563
X0027813Y0059344
Y0060141
X0027686Y0060938
X0027051Y0060833
X0025654Y0060706
X002794Y0058547
X0027878Y00569341
X00279244Y00563004
X0027178Y0057277
X00259847Y0056479
X00266701Y00509817
X0027305Y00508
X002794Y0050546
X00277597Y00500417
X00272128Y00499759
X00274055Y00489348
X0027965Y00485283
X002794Y0047625
X00286237Y00450052
X0029337Y0045085
X0028448Y0043815
Y004318
X0028829Y0042672
X0032131Y0043053
Y0042164
X0032004Y0044831
X00255617Y00453969
X002805Y00520884
X0014732Y0052578
X00142319Y0052324
X00136985
X0013081Y0052578
Y0051054
X00136395Y0051181
X00141729
X0014732Y0050927
X0015113Y0047371
X00159053Y00474381
X00127Y0047371
X0011938
X0011303
X0005715Y0045593
X0004699
X0000635Y0045339
Y004445
Y0043434
Y0042164
Y0046228
Y0047498
Y0048514
Y0049403
Y0050292
Y0051562
Y0052578
Y0053467
Y0054356
Y0055626
Y0056642
Y0057531
Y005842
Y005969
Y0060706
Y0061595
Y0062484
X0001651Y0062357
X0001905Y0061722
Y0060833
Y0060198
X00037092Y00597943
X0004348Y00598683
X0004953Y0059944
X0005855Y00599693
X0008128Y0061722
Y0062357
X0009017Y0061722
X0009779
X0010414Y0060833
X0011049Y0060706
X0011557Y0061087
X0011811Y0062103
X0012954Y006223
X0014732
X0015494
X0012065Y0060071
X001143Y0056642
X0011557Y0055626
X0012827Y0054991
X0014224
X0014859
X0009216Y00578243
X0008581
X0007112Y0054102
X0006223Y0054229
X0005588
X00045901Y00540208
X0004699Y0050927
X0005842Y0051054
X00023805Y00507046
X0000635Y0063754
Y006477
Y0065659
Y0066548
Y0067564
Y006858
Y0069469
Y0070358
Y0071628
Y0072644
Y0073533
Y0074422
Y0075565
Y0076581
Y007747
Y0078359
Y0079502
Y0080518
Y0081407
X00034766Y00748823
X00040093Y00749055
X0003429Y0074295
X0001778Y0072644
X0001651Y0069723
X0001524Y0069088
X00015284Y0068201
X00015284Y00662897
X0001651Y0065151
X0004953Y0067945
X00044365Y00696951
X00045088Y00703025
X00044795Y00710347
X00045015Y0071723
X00077885Y0072136
X0008636Y0073279
X0009457Y00730372
X0010668Y0074168
X0009652Y00762
X0008509Y0078359
X0007493
X000889Y0079375
X0009271Y0080137
X0009652Y0070231
X0008636Y0069977
X0008128
X00082507Y00692698
X0008636Y0067437
X0009525
X0009779Y0066548
X00097896Y00633919
X0010624Y00634269
X0012065Y0065659
X00127706Y0070229
X0011049Y0070104
X0014116Y00689195
X00151038Y00711816
X0014351Y0072009
X0013335Y0082042
X0012573
X0011938
X0011049Y0082931
Y0083566
Y0084328
X0010922Y0085471
X00095111Y00854543
X00087532Y00854517
X0006914Y00854881
X0006858Y0084582
Y0083947
Y0083312
X00053923Y00855219
X00071642Y00872668
X000762Y00889
X00056763Y00888156
X00096531Y00872669
X0011049Y0087122
X0000635Y008636
Y0085471
Y0084582
Y0083566
Y0082296
X0001905Y0082931
Y0083566
Y0084201
Y0084836
X0001651Y0091948
X0001016
Y009271
Y0093726
Y0094615
X0001524Y0095631
X0002286Y0096266
X0002413Y0091948
X0013843Y0096393
X0038481Y008255
Y0081788
X00584744Y00835962
X00599781Y00836671
X00614781
X00629781
X0064262Y0083439
X00647024Y00824775
X00656695Y00829127
X00659781Y00836671
X0066802Y0083185
X0068199Y0083439
X00681869Y00819168
X0070993Y0082042
X0071755Y009652
X0072771
X0074041
X007493
X0075819
X0076835
X0078105
X0078994
X0079883
X0080899
X0082169
X0083058
X0083947
X0084963
X0086233
X0087122
X0088011
X0089027
X0090297
X0091186
X0092075
X0093091
X0094361
X0095123Y0094996
Y0093599
X0089662
Y0094869
X0085852Y0094615
Y0093472
X0080264
Y0094742
X0095631Y009652
X009652
X0097409
X0098425
X0099695
X0100584
X0101473
X0102489
X0103759
X0104648
X0105537
X0106553
X0107823
X010922
X011049
X01118187Y00961743
X0112776Y0095504
X0113157Y0094234
Y0093218
Y0092202
Y0091059
Y0089916
Y0088773
Y0087757
Y0086741
Y0085598
Y0084455
Y0083439
Y0082423
T04
X00091812Y00417442
T05
X00310642Y0016256
X00330708
X00350774
X0037084
X00390906
X00410972
X00431038
X00421132Y0018796
X00401066
X00381
X00360934
X00340868
X00320802
X00330708Y002667
X00310642
X00320802Y002921
X00340868
X00360934
X00381
X00401066
X00421132
X00431038Y002667
X00410972
X00390906
X0037084
X00350774
X00533908
X00553974
X00544068Y002921
Y0018796
X00553974Y0016256
X00533908
X0057404
X00594106
X00614172
X00634238
X00654304
X00644398Y0018796
X00624332
X00604266
X005842
X00564134
X0057404Y002667
X00594106
X00614172
X00634238
X00654304
X00644398Y002921
X00624332
X00604266
X005842
X00564134
X00766318
X00786384
X0080645
X00826516
X00846582
X00866648
X00876554Y002667
X00856488
X00836422
X00816356
X0079629
X00776224
X00756158
X00766318Y0018796
X00786384
X0080645
X00826516
X00846582
X00866648
X00876554Y0016256
X00856488
X00836422
X00816356
X0079629
X00776224
X00756158
T06
X0018796Y0074422
X0020828
X002286
X0023876Y0076962
X0025908
X002794
X0029972
X0030988Y0074422
X0028956
X0026924
X0021844Y0076962
X0019812
T08
X0041077Y008418
X0043577
X0045577
X0048077
T09
X00091762Y00345442
Y00392442
X00234362
Y00345442
Y00442442
X00211062Y00488442
X00163062
X00115062
X00091762Y00442442
T10
X00311404Y00081534
X00331724
X00409956
X00430276
X0053467
X0055499
X00539496Y003302
X0042545
X0040005
X0034163
X0031623
X00564896
X00623316
X00648716
X00761746
X00787146
X00845566
X00870966
X00875792Y00081534
X00855472
X0077724
X0075692
X00653542
X00633222
T11
X00091812Y00117442
Y00217442
Y00317442
X00148612
X00202612
X00234312Y00267442
Y00167442
X00177612Y00117442
X00234312Y00367442
Y00467442
T12
X00173736Y0089916
Y0092456
X00324104
Y0089916
Y0087376
T13
X00161036Y0083566
X00336804
T14
X00286893Y00064262
Y00227838
X00454787
X00510159
Y00064262
X00454787
X00678053
X00732409
Y00227838
X00678053
X00900303
Y00064262
T15
X0038007Y008689
X0051147
T16
X00761186Y00392034
X01091222
X00761186Y00872034
X01091186
T17
X0003937Y0004064
X0109474
X0003937Y0080137
X0109474Y0093726
T18
X001176Y0086971
T20
X00117062Y00417442
X00213062
T21
X0020066Y0083566
X0029718
T22
X00305308Y00109982
X00436372
X00528574
X00659638
X00750824
X00881888
M30
