G04*
G04 #@! TF.GenerationSoftware,Altium Limited,Altium Designer,23.3.1 (30)*
G04*
G04 Layer_Color=8421504*
%FSLAX44Y44*%
%MOMM*%
G71*
G04*
G04 #@! TF.SameCoordinates,837CF2E7-3A67-4F18-B0B9-64CBEB55FE63*
G04*
G04*
G04 #@! TF.FilePolarity,Positive*
G04*
G01*
G75*
%ADD18R,0.6500X0.6500*%
%ADD19R,0.5000X0.4000*%
%ADD20R,0.5500X0.5500*%
%ADD21R,0.5500X0.5500*%
%ADD22R,0.8500X1.2500*%
%ADD23R,1.2500X0.6500*%
%ADD24O,1.0000X1.8000*%
%ADD25R,0.7500X0.6500*%
%ADD26R,0.5682X0.5725*%
%ADD27R,0.6500X0.7500*%
%ADD28R,0.4725X0.4682*%
%ADD29R,0.7500X0.3000*%
%ADD30R,1.3600X1.4600*%
%ADD31R,0.4500X0.5000*%
%ADD32C,0.2700*%
%ADD33R,0.4000X0.5000*%
%ADD34R,0.5725X0.5682*%
%ADD35R,0.5153X0.4725*%
%ADD36R,0.6000X0.5500*%
%ADD37R,0.7000X0.6500*%
%ADD38R,0.4725X0.5153*%
G04:AMPARAMS|DCode=39|XSize=1.75mm|YSize=1.5mm|CornerRadius=0.0525mm|HoleSize=0mm|Usage=FLASHONLY|Rotation=180.000|XOffset=0mm|YOffset=0mm|HoleType=Round|Shape=RoundedRectangle|*
%AMROUNDEDRECTD39*
21,1,1.7500,1.3950,0,0,180.0*
21,1,1.6450,1.5000,0,0,180.0*
1,1,0.1050,-0.8225,0.6975*
1,1,0.1050,0.8225,0.6975*
1,1,0.1050,0.8225,-0.6975*
1,1,0.1050,-0.8225,-0.6975*
%
%ADD39ROUNDEDRECTD39*%
G04:AMPARAMS|DCode=40|XSize=0.35mm|YSize=0.85mm|CornerRadius=0.0508mm|HoleSize=0mm|Usage=FLASHONLY|Rotation=180.000|XOffset=0mm|YOffset=0mm|HoleType=Round|Shape=RoundedRectangle|*
%AMROUNDEDRECTD40*
21,1,0.3500,0.7485,0,0,180.0*
21,1,0.2485,0.8500,0,0,180.0*
1,1,0.1015,-0.1243,0.3743*
1,1,0.1015,0.1243,0.3743*
1,1,0.1015,0.1243,-0.3743*
1,1,0.1015,-0.1243,-0.3743*
%
%ADD40ROUNDEDRECTD40*%
%ADD41R,0.5000X0.5000*%
%ADD42R,1.1121X1.2578*%
%ADD43R,0.4500X0.4500*%
%ADD44R,0.7154X0.6725*%
%ADD45R,5.6000X5.6000*%
%ADD46O,0.2500X0.4000*%
%ADD47O,0.4000X0.2500*%
%ADD48R,0.8128X0.2032*%
%ADD49R,0.7000X0.7000*%
G36*
X117732Y224705D02*
Y224407D01*
X117503Y223856D01*
X117082Y223434D01*
X116530Y223205D01*
X115934D01*
X115382Y223434D01*
X114960Y223856D01*
X114732Y224407D01*
Y224705D01*
X114732D01*
Y231205D01*
X117732D01*
Y224705D01*
D02*
G37*
G36*
X112732D02*
Y224407D01*
X112503Y223856D01*
X112082Y223434D01*
X111530Y223205D01*
X110934D01*
X110382Y223434D01*
X109960Y223856D01*
X109732Y224407D01*
Y224705D01*
Y231205D01*
X112732D01*
Y224705D01*
D02*
G37*
G36*
X107732D02*
Y224407D01*
X107503Y223856D01*
X107082Y223434D01*
X106530Y223205D01*
X105934D01*
X105382Y223434D01*
X104960Y223856D01*
X104732Y224407D01*
Y224705D01*
Y231205D01*
X107732D01*
Y224705D01*
D02*
G37*
G36*
X102732D02*
Y224407D01*
X102503Y223856D01*
X102082Y223434D01*
X101530Y223205D01*
X100934D01*
X100382Y223434D01*
X99960Y223856D01*
X99732Y224407D01*
Y224705D01*
Y231205D01*
X102732D01*
X102732Y224705D01*
D02*
G37*
G36*
X127732Y218205D02*
X121232Y218205D01*
X120934D01*
X120382Y218434D01*
X119960Y218856D01*
X119732Y219407D01*
Y219705D01*
Y220004D01*
X119960Y220555D01*
X120382Y220977D01*
X120934Y221205D01*
X127732D01*
Y218205D01*
D02*
G37*
G36*
X97082Y220977D02*
X97503Y220555D01*
X97732Y220004D01*
Y219705D01*
Y219407D01*
X97503Y218856D01*
X97082Y218434D01*
X96530Y218205D01*
X96232D01*
Y218205D01*
X89732D01*
Y221205D01*
X96530D01*
X97082Y220977D01*
D02*
G37*
G36*
X127732Y213205D02*
X120934D01*
X120382Y213434D01*
X119960Y213856D01*
X119732Y214407D01*
Y214705D01*
Y215004D01*
X119960Y215555D01*
X120382Y215977D01*
X120934Y216205D01*
X127732D01*
Y213205D01*
D02*
G37*
G36*
X97082Y215977D02*
X97503Y215555D01*
X97732Y215004D01*
Y214705D01*
Y214407D01*
X97503Y213856D01*
X97082Y213434D01*
X96530Y213205D01*
X89732D01*
Y216205D01*
X96530D01*
X97082Y215977D01*
D02*
G37*
G36*
X127732Y208205D02*
X120934D01*
X120382Y208434D01*
X119960Y208856D01*
X119732Y209407D01*
Y209705D01*
Y210004D01*
X119960Y210555D01*
X120382Y210977D01*
X120934Y211205D01*
X127732D01*
Y208205D01*
D02*
G37*
G36*
X97082Y210977D02*
X97503Y210555D01*
X97732Y210004D01*
Y209705D01*
Y209407D01*
X97503Y208856D01*
X97082Y208434D01*
X96530Y208205D01*
X89732D01*
Y211205D01*
X96530D01*
X97082Y210977D01*
D02*
G37*
G36*
X127732Y203205D02*
X120934D01*
X120382Y203434D01*
X119960Y203856D01*
X119732Y204407D01*
Y204705D01*
Y205004D01*
X119960Y205555D01*
X120382Y205977D01*
X120934Y206205D01*
X121232D01*
Y206205D01*
X127732D01*
Y203205D01*
D02*
G37*
G36*
X96232Y206205D02*
X96530D01*
X97082Y205977D01*
X97503Y205555D01*
X97732Y205004D01*
Y204705D01*
Y204407D01*
X97503Y203856D01*
X97082Y203434D01*
X96530Y203205D01*
X89732D01*
Y206205D01*
X96232Y206205D01*
D02*
G37*
G36*
X117082Y200977D02*
X117503Y200555D01*
X117732Y200004D01*
Y199705D01*
Y193205D01*
X114732D01*
X114732Y199705D01*
Y200004D01*
X114960Y200555D01*
X115382Y200977D01*
X115934Y201205D01*
X116530D01*
X117082Y200977D01*
D02*
G37*
G36*
X112082D02*
X112503Y200555D01*
X112732Y200004D01*
Y199705D01*
Y193205D01*
X109732D01*
Y199705D01*
Y200004D01*
X109960Y200555D01*
X110382Y200977D01*
X110934Y201205D01*
X111530D01*
X112082Y200977D01*
D02*
G37*
G36*
X107082D02*
X107503Y200555D01*
X107732Y200004D01*
Y199705D01*
Y193205D01*
X104732D01*
Y199705D01*
Y200004D01*
X104960Y200555D01*
X105382Y200977D01*
X105934Y201205D01*
X106530D01*
X107082Y200977D01*
D02*
G37*
G36*
X102082D02*
X102503Y200555D01*
X102732Y200004D01*
Y199705D01*
X102732D01*
Y193205D01*
X99732D01*
Y199705D01*
Y200004D01*
X99960Y200555D01*
X100382Y200977D01*
X100934Y201205D01*
X101530D01*
X102082Y200977D01*
D02*
G37*
G36*
X269050Y90320D02*
X258800D01*
Y93120D01*
X269050D01*
Y90320D01*
D02*
G37*
G36*
X241300D02*
X231050D01*
Y93120D01*
X241300D01*
Y90320D01*
D02*
G37*
G36*
X269050Y83820D02*
X258800D01*
Y86620D01*
X269050D01*
Y83820D01*
D02*
G37*
G36*
X241300D02*
X231050D01*
Y86620D01*
X241300D01*
Y83820D01*
D02*
G37*
D18*
X104232Y216705D02*
D03*
X113232D02*
D03*
X104232Y207705D02*
D03*
X113232D02*
D03*
D19*
X285043Y160025D02*
D03*
Y152025D02*
D03*
X212435Y144616D02*
D03*
Y136616D02*
D03*
X115165Y171084D02*
D03*
Y163084D02*
D03*
X125172Y171084D02*
D03*
Y163084D02*
D03*
X127000Y65850D02*
D03*
Y73850D02*
D03*
X137160Y65850D02*
D03*
Y73850D02*
D03*
X92710Y237300D02*
D03*
Y245300D02*
D03*
X289523Y244999D02*
D03*
Y236999D02*
D03*
X274320Y160020D02*
D03*
Y152020D02*
D03*
X84223Y158784D02*
D03*
Y166784D02*
D03*
X94308Y158784D02*
D03*
Y166784D02*
D03*
X104642Y162395D02*
D03*
Y170395D02*
D03*
D20*
X301115Y159313D02*
D03*
X292115D02*
D03*
X200038Y56415D02*
D03*
X191038D02*
D03*
X287600Y71120D02*
D03*
X296600D02*
D03*
X135200Y163830D02*
D03*
X144200D02*
D03*
X161980D02*
D03*
X152980D02*
D03*
X300410Y167640D02*
D03*
X291410D02*
D03*
D21*
X290150Y117058D02*
D03*
Y108058D02*
D03*
X82550Y224210D02*
D03*
Y215210D02*
D03*
X282023Y103704D02*
D03*
Y112704D02*
D03*
D22*
X172720Y238300D02*
D03*
X147320D02*
D03*
X172720Y180800D02*
D03*
X147320D02*
D03*
D23*
X178770Y196850D02*
D03*
Y209550D02*
D03*
Y222250D02*
D03*
X141270Y196850D02*
D03*
Y209550D02*
D03*
Y222250D02*
D03*
D24*
X266220Y232280D02*
D03*
X251220D02*
D03*
X236220D02*
D03*
X221220D02*
D03*
X206220D02*
D03*
X266220Y184280D02*
D03*
X251220D02*
D03*
X236220D02*
D03*
X221220D02*
D03*
X206220D02*
D03*
D25*
X148890Y57664D02*
D03*
X159390D02*
D03*
Y65164D02*
D03*
X148890D02*
D03*
D26*
X91284Y73314D02*
D03*
X82241D02*
D03*
X200423Y79804D02*
D03*
X191380D02*
D03*
X102863Y182561D02*
D03*
X93820D02*
D03*
X248287Y126105D02*
D03*
X239244D02*
D03*
X92504Y120225D02*
D03*
X83461D02*
D03*
X91463Y86082D02*
D03*
X82420D02*
D03*
D27*
X173570Y166370D02*
D03*
X184570D02*
D03*
X201127Y66214D02*
D03*
X190127D02*
D03*
D28*
X213685Y156314D02*
D03*
Y164357D02*
D03*
X258968Y127209D02*
D03*
Y119166D02*
D03*
D29*
X225030Y139820D02*
D03*
Y144820D02*
D03*
Y149820D02*
D03*
Y154820D02*
D03*
X255030D02*
D03*
Y149820D02*
D03*
Y144820D02*
D03*
Y139820D02*
D03*
D30*
X240030Y147320D02*
D03*
D31*
X82550Y205680D02*
D03*
Y198180D02*
D03*
D32*
X93732Y209705D02*
D03*
X116232Y197205D02*
D03*
X111232D02*
D03*
X106232Y197051D02*
D03*
X101232Y197205D02*
D03*
X93732Y204705D02*
D03*
X93578Y214705D02*
D03*
X93732Y219705D02*
D03*
X101232Y227205D02*
D03*
X106232D02*
D03*
X111232Y227360D02*
D03*
X116232Y227205D02*
D03*
X123732Y219705D02*
D03*
Y214705D02*
D03*
X123886Y209705D02*
D03*
X123732Y204705D02*
D03*
D33*
X195390Y148590D02*
D03*
X203390D02*
D03*
X193507Y112074D02*
D03*
X201507D02*
D03*
X177431Y68506D02*
D03*
X169431D02*
D03*
X240100Y115152D02*
D03*
X248100D02*
D03*
X194035Y96511D02*
D03*
X202035D02*
D03*
X195341Y138771D02*
D03*
X203341D02*
D03*
X195580Y158750D02*
D03*
X203580D02*
D03*
X112143Y245830D02*
D03*
X104143D02*
D03*
X90331Y96712D02*
D03*
X82331D02*
D03*
D34*
X273948Y101142D02*
D03*
Y110185D02*
D03*
X102870Y66751D02*
D03*
Y57709D02*
D03*
X278104Y88932D02*
D03*
Y79889D02*
D03*
X276860Y60248D02*
D03*
Y69292D02*
D03*
X114300Y57709D02*
D03*
Y66751D02*
D03*
D35*
X243816Y59690D02*
D03*
X236244D02*
D03*
X137385Y56695D02*
D03*
X129814D02*
D03*
X172770Y57076D02*
D03*
X180341D02*
D03*
X116602Y183659D02*
D03*
X124173D02*
D03*
D36*
X228160Y166370D02*
D03*
X236660D02*
D03*
X258250D02*
D03*
X249750D02*
D03*
D37*
X112376Y237259D02*
D03*
X102876D02*
D03*
D38*
X124157Y245629D02*
D03*
Y238058D02*
D03*
X226320Y111318D02*
D03*
Y103747D02*
D03*
X214890Y111318D02*
D03*
Y103747D02*
D03*
D39*
X250050Y88470D02*
D03*
D40*
X259800Y103220D02*
D03*
X253300D02*
D03*
X246800D02*
D03*
X240300D02*
D03*
X259800Y73720D02*
D03*
X253300D02*
D03*
X246800D02*
D03*
X240300D02*
D03*
D41*
X253940Y61800D02*
D03*
X263940D02*
D03*
X204310Y125730D02*
D03*
X194310D02*
D03*
X83900Y144780D02*
D03*
X93900D02*
D03*
D42*
X217430Y67510D02*
D03*
Y84054D02*
D03*
D43*
X289720Y93638D02*
D03*
Y85638D02*
D03*
X288736Y63916D02*
D03*
Y55916D02*
D03*
X289560Y175070D02*
D03*
Y183070D02*
D03*
D44*
X216194Y125730D02*
D03*
X225766D02*
D03*
X84114Y130810D02*
D03*
X93686D02*
D03*
D45*
X143510Y119380D02*
D03*
D46*
X171010Y85130D02*
D03*
X166010D02*
D03*
X161010D02*
D03*
X156010D02*
D03*
X151010D02*
D03*
X146010D02*
D03*
X141010D02*
D03*
X136010D02*
D03*
X131010D02*
D03*
X126010D02*
D03*
X121010D02*
D03*
X116010D02*
D03*
Y153630D02*
D03*
X121010D02*
D03*
X126010D02*
D03*
X131010D02*
D03*
X136010D02*
D03*
X141010D02*
D03*
X146010D02*
D03*
X151010D02*
D03*
X156010D02*
D03*
X161010D02*
D03*
X166010D02*
D03*
X171010D02*
D03*
D47*
X109260Y91880D02*
D03*
Y96880D02*
D03*
Y101880D02*
D03*
Y106880D02*
D03*
Y111880D02*
D03*
Y116880D02*
D03*
Y121880D02*
D03*
Y126880D02*
D03*
Y131880D02*
D03*
Y136880D02*
D03*
Y141880D02*
D03*
Y146880D02*
D03*
X177760D02*
D03*
Y141880D02*
D03*
Y136880D02*
D03*
Y131880D02*
D03*
Y96880D02*
D03*
Y101880D02*
D03*
Y106880D02*
D03*
Y111880D02*
D03*
Y116880D02*
D03*
Y121880D02*
D03*
Y126880D02*
D03*
Y91880D02*
D03*
D48*
X284480Y139000D02*
D03*
Y135000D02*
D03*
Y131000D02*
D03*
Y127000D02*
D03*
X274574D02*
D03*
Y131000D02*
D03*
Y135000D02*
D03*
Y139000D02*
D03*
D49*
X298019Y211094D02*
D03*
Y225094D02*
D03*
M02*
