G04*
G04 #@! TF.GenerationSoftware,Altium Limited,Altium Designer,24.4.1 (13)*
G04*
G04 Layer_Physical_Order=2*
G04 Layer_Color=36540*
%FSLAX44Y44*%
%MOMM*%
G71*
G04*
G04 #@! TF.SameCoordinates,045E0543-E0AC-4246-A88E-993A7DB0923D*
G04*
G04*
G04 #@! TF.FilePolarity,Positive*
G04*
G01*
G75*
%ADD10C,0.5080*%
%ADD52C,0.2032*%
%ADD55C,0.6096*%
G36*
X661748Y314900D02*
X663333Y314585D01*
X664827Y313967D01*
X666171Y313069D01*
X667315Y311927D01*
X668213Y310584D01*
X668833Y309091D01*
X669150Y307506D01*
X669150Y306698D01*
X669120Y10150D01*
X669120Y10150D01*
X669120Y10150D01*
X669120Y9402D01*
X668829Y7934D01*
X668256Y6552D01*
X667426Y5308D01*
X666368Y4249D01*
X665125Y3417D01*
X663743Y2844D01*
X662275Y2550D01*
X661528Y2550D01*
X10450Y2590D01*
X10450Y2590D01*
X10450Y2590D01*
X9676D01*
X8157Y2892D01*
X6727Y3484D01*
X5439Y4344D01*
X4344Y5439D01*
X3484Y6727D01*
X2892Y8157D01*
X2590Y9676D01*
Y10450D01*
X2590Y10450D01*
X2590Y10450D01*
X2570Y306760D01*
X2570Y307559D01*
X2881Y309127D01*
X3493Y310604D01*
X4380Y311934D01*
X5510Y313065D01*
X6839Y313954D01*
X8315Y314566D01*
X9883Y314880D01*
X10682Y314880D01*
X660940Y314900D01*
X661748Y314900D01*
D02*
G37*
%LPC*%
G36*
X635037Y307050D02*
X631983D01*
X631733Y307000D01*
X631478D01*
X628484Y306404D01*
X628248Y306307D01*
X627998Y306257D01*
X625177Y305089D01*
X624965Y304947D01*
X624729Y304849D01*
X622191Y303153D01*
X622010Y302973D01*
X621798Y302831D01*
X619639Y300672D01*
X619497Y300460D01*
X619317Y300280D01*
X617621Y297741D01*
X617523Y297505D01*
X617381Y297293D01*
X616213Y294472D01*
X616163Y294222D01*
X616066Y293986D01*
X615470Y290992D01*
Y290737D01*
X615420Y290487D01*
Y287433D01*
X615470Y287183D01*
Y286928D01*
X616066Y283934D01*
X616163Y283698D01*
X616213Y283448D01*
X617381Y280627D01*
X617523Y280415D01*
X617621Y280179D01*
X619317Y277640D01*
X619497Y277460D01*
X619639Y277248D01*
X621798Y275089D01*
X622010Y274947D01*
X622191Y274767D01*
X624729Y273071D01*
X624965Y272973D01*
X625177Y272831D01*
X627998Y271663D01*
X628248Y271613D01*
X628484Y271516D01*
X631478Y270920D01*
X631733D01*
X631983Y270870D01*
X635037D01*
X635287Y270920D01*
X635542D01*
X638536Y271516D01*
X638772Y271613D01*
X639022Y271663D01*
X641843Y272831D01*
X642055Y272973D01*
X642291Y273071D01*
X644829Y274767D01*
X645010Y274947D01*
X645222Y275089D01*
X647381Y277248D01*
X647523Y277460D01*
X647703Y277640D01*
X649399Y280179D01*
X649497Y280415D01*
X649639Y280627D01*
X650807Y283448D01*
X650857Y283698D01*
X650954Y283934D01*
X651550Y286928D01*
Y287183D01*
X651600Y287433D01*
Y290487D01*
X651550Y290737D01*
Y290992D01*
X650954Y293986D01*
X650857Y294222D01*
X650807Y294472D01*
X649639Y297293D01*
X649497Y297505D01*
X649399Y297741D01*
X647703Y300280D01*
X647523Y300460D01*
X647381Y300672D01*
X645222Y302831D01*
X645010Y302973D01*
X644829Y303153D01*
X642291Y304849D01*
X642055Y304947D01*
X641843Y305089D01*
X639022Y306257D01*
X638772Y306307D01*
X638536Y306404D01*
X635542Y307000D01*
X635287D01*
X635037Y307050D01*
D02*
G37*
G36*
X30037D02*
X26983D01*
X26733Y307000D01*
X26478D01*
X23484Y306404D01*
X23248Y306307D01*
X22998Y306257D01*
X20177Y305089D01*
X19965Y304947D01*
X19729Y304849D01*
X17191Y303153D01*
X17010Y302973D01*
X16798Y302831D01*
X14639Y300672D01*
X14497Y300460D01*
X14317Y300280D01*
X12621Y297741D01*
X12523Y297505D01*
X12381Y297293D01*
X11213Y294472D01*
X11163Y294222D01*
X11066Y293986D01*
X10470Y290992D01*
Y290737D01*
X10420Y290487D01*
Y287433D01*
X10470Y287183D01*
Y286928D01*
X11066Y283934D01*
X11163Y283698D01*
X11213Y283448D01*
X12381Y280627D01*
X12523Y280415D01*
X12621Y280179D01*
X14317Y277640D01*
X14497Y277460D01*
X14639Y277248D01*
X16798Y275089D01*
X17010Y274947D01*
X17191Y274767D01*
X19729Y273071D01*
X19965Y272973D01*
X20177Y272831D01*
X22998Y271663D01*
X23248Y271613D01*
X23484Y271516D01*
X26478Y270920D01*
X26733D01*
X26983Y270870D01*
X30037D01*
X30287Y270920D01*
X30542D01*
X33536Y271516D01*
X33772Y271613D01*
X34022Y271663D01*
X36843Y272831D01*
X37055Y272973D01*
X37291Y273071D01*
X39829Y274767D01*
X40010Y274947D01*
X40222Y275089D01*
X42381Y277248D01*
X42523Y277460D01*
X42703Y277640D01*
X44399Y280179D01*
X44497Y280415D01*
X44639Y280627D01*
X45807Y283448D01*
X45857Y283698D01*
X45954Y283934D01*
X46550Y286928D01*
Y287183D01*
X46600Y287433D01*
Y290487D01*
X46550Y290737D01*
Y290992D01*
X45954Y293986D01*
X45857Y294222D01*
X45807Y294472D01*
X44639Y297293D01*
X44497Y297505D01*
X44399Y297741D01*
X42703Y300280D01*
X42523Y300460D01*
X42381Y300672D01*
X40222Y302831D01*
X40010Y302973D01*
X39829Y303153D01*
X37291Y304849D01*
X37055Y304947D01*
X36843Y305089D01*
X34022Y306257D01*
X33772Y306307D01*
X33536Y306404D01*
X30542Y307000D01*
X30287D01*
X30037Y307050D01*
D02*
G37*
G36*
X350667Y287020D02*
X348849D01*
X347168Y286324D01*
X345882Y285038D01*
X345186Y283357D01*
Y281539D01*
X345882Y279858D01*
X347168Y278572D01*
X347168Y278572D01*
Y268544D01*
X347168Y268544D01*
X345882Y267258D01*
X345186Y265577D01*
Y263759D01*
X345882Y262078D01*
X347168Y260792D01*
X348849Y260096D01*
X350667D01*
X352348Y260792D01*
X353634Y262078D01*
X354330Y263759D01*
Y265577D01*
X353634Y267258D01*
X352348Y268544D01*
X352348Y268544D01*
Y278572D01*
X352348Y278572D01*
X353634Y279858D01*
X354330Y281539D01*
Y283357D01*
X353634Y285038D01*
X352348Y286324D01*
X350667Y287020D01*
D02*
G37*
G36*
X308757Y275590D02*
X306939D01*
X305258Y274894D01*
X303972Y273608D01*
X303276Y271927D01*
Y270109D01*
X303972Y268428D01*
X305258Y267142D01*
X305258Y267142D01*
Y263638D01*
X305258Y263638D01*
X303972Y262352D01*
X303276Y260671D01*
Y258853D01*
X303972Y257172D01*
X305258Y255886D01*
X306939Y255190D01*
X308757D01*
X310438Y255886D01*
X311724Y257172D01*
X312420Y258853D01*
Y260671D01*
X311724Y262352D01*
X310438Y263638D01*
X310438Y263638D01*
Y267142D01*
X310438Y267142D01*
X311724Y268428D01*
X312420Y270109D01*
Y271927D01*
X311724Y273608D01*
X310438Y274894D01*
X308757Y275590D01*
D02*
G37*
G36*
X553105Y207772D02*
X551287D01*
X549606Y207076D01*
X548320Y205790D01*
X547624Y204109D01*
Y202291D01*
X548052Y201256D01*
Y187278D01*
X531788D01*
X530753Y187706D01*
X528935D01*
X527254Y187010D01*
X525968Y185724D01*
X525272Y184043D01*
Y182225D01*
X525968Y180544D01*
X527254Y179258D01*
X528935Y178562D01*
X530753D01*
X531788Y178990D01*
X549744D01*
X550779Y178562D01*
X552597D01*
X554278Y179258D01*
X555564Y180544D01*
X556260Y182225D01*
Y183517D01*
X556340Y183917D01*
Y201256D01*
X556768Y202291D01*
Y204109D01*
X556072Y205790D01*
X554786Y207076D01*
X553105Y207772D01*
D02*
G37*
G36*
X504591Y171704D02*
X502773D01*
X501738Y171276D01*
X478122D01*
X477822Y171216D01*
X476962D01*
X476397Y171450D01*
X474579D01*
X472898Y170754D01*
X471612Y169468D01*
X470916Y167787D01*
Y165969D01*
X471612Y164288D01*
X472898Y163002D01*
X474579Y162306D01*
X476397D01*
X477901Y162929D01*
X478062D01*
X478362Y162988D01*
X501738D01*
X502773Y162560D01*
X504591D01*
X506272Y163256D01*
X507558Y164542D01*
X508254Y166223D01*
Y168041D01*
X507558Y169722D01*
X506272Y171008D01*
X504591Y171704D01*
D02*
G37*
G36*
X177439Y172974D02*
X175621D01*
X173940Y172278D01*
X172654Y170992D01*
X172654Y170992D01*
X146812D01*
X145821Y170795D01*
X144981Y170233D01*
X140101Y165354D01*
X140101Y165354D01*
X138283D01*
X136602Y164658D01*
X135316Y163372D01*
X134620Y161691D01*
Y159873D01*
X135316Y158192D01*
X136602Y156906D01*
X138283Y156210D01*
X140101D01*
X141782Y156906D01*
X143068Y158192D01*
X143764Y159873D01*
Y161691D01*
X143764Y161691D01*
X147885Y165812D01*
X172654D01*
X172654Y165812D01*
X173940Y164526D01*
X175621Y163830D01*
X177439D01*
X179120Y164526D01*
X180406Y165812D01*
X181102Y167493D01*
Y169311D01*
X180406Y170992D01*
X179120Y172278D01*
X177439Y172974D01*
D02*
G37*
G36*
X173375Y154432D02*
X171557D01*
X169876Y153736D01*
X168590Y152450D01*
X168590Y152450D01*
X157451D01*
X156460Y152253D01*
X155620Y151691D01*
X141933Y138004D01*
X141371Y137164D01*
X141174Y136173D01*
Y128336D01*
X141174Y128336D01*
X139888Y127050D01*
X139192Y125369D01*
Y123551D01*
X139888Y121870D01*
X141174Y120584D01*
X142855Y119888D01*
X144673D01*
X146354Y120584D01*
X147640Y121870D01*
X148336Y123551D01*
Y125369D01*
X147640Y127050D01*
X146354Y128336D01*
X146354Y128336D01*
Y135100D01*
X153799Y142545D01*
X155297Y142247D01*
X155636Y141428D01*
X156922Y140142D01*
X158603Y139446D01*
X160421D01*
X160422Y139446D01*
X162474Y137393D01*
X161954Y136136D01*
Y134317D01*
X162650Y132637D01*
X163936Y131350D01*
X165616Y130654D01*
X167435D01*
X169115Y131350D01*
X170401Y132637D01*
X171098Y134317D01*
Y136136D01*
X170401Y137816D01*
X169115Y139102D01*
X167435Y139798D01*
X167394D01*
X164084Y143109D01*
X164084Y143109D01*
Y144927D01*
X163640Y146000D01*
X164385Y147270D01*
X168590D01*
X168590Y147270D01*
X169876Y145984D01*
X171557Y145288D01*
X173375D01*
X175056Y145984D01*
X176342Y147270D01*
X177038Y148951D01*
Y150769D01*
X176342Y152450D01*
X175056Y153736D01*
X173375Y154432D01*
D02*
G37*
G36*
X572663Y160020D02*
X570845D01*
X569164Y159324D01*
X567878Y158038D01*
X567182Y156357D01*
Y154539D01*
X567878Y152858D01*
X569164Y151572D01*
X569164Y151572D01*
Y111563D01*
X565043Y107442D01*
X565043Y107442D01*
X563225D01*
X561544Y106746D01*
X560258Y105460D01*
X559562Y103779D01*
Y101961D01*
X560258Y100280D01*
X561544Y98994D01*
X563225Y98298D01*
X565043D01*
X566724Y98994D01*
X568010Y100280D01*
X568706Y101961D01*
Y103779D01*
X568706Y103779D01*
X573585Y108659D01*
X574147Y109499D01*
X574344Y110490D01*
Y151572D01*
X574344Y151572D01*
X575630Y152858D01*
X576326Y154539D01*
Y156357D01*
X575630Y158038D01*
X574344Y159324D01*
X572663Y160020D01*
D02*
G37*
G36*
X528003Y114878D02*
X526184D01*
X524504Y114182D01*
X523218Y112896D01*
X522522Y111215D01*
Y109397D01*
X522950Y108362D01*
Y85299D01*
X522522Y84265D01*
Y82446D01*
X523218Y80766D01*
X524504Y79480D01*
X526184Y78784D01*
X528003D01*
X529683Y79480D01*
X530970Y80766D01*
X531666Y82446D01*
Y84265D01*
X531237Y85299D01*
Y108362D01*
X531666Y109397D01*
Y111215D01*
X530970Y112896D01*
X529683Y114182D01*
X528003Y114878D01*
D02*
G37*
G36*
X635037Y47050D02*
X631983D01*
X631733Y47000D01*
X631478D01*
X628484Y46404D01*
X628248Y46307D01*
X627998Y46257D01*
X625177Y45089D01*
X624965Y44947D01*
X624729Y44849D01*
X622191Y43153D01*
X622010Y42973D01*
X621798Y42831D01*
X619639Y40672D01*
X619497Y40460D01*
X619317Y40279D01*
X617621Y37741D01*
X617523Y37505D01*
X617381Y37293D01*
X616213Y34472D01*
X616163Y34222D01*
X616066Y33986D01*
X615470Y30992D01*
Y30737D01*
X615420Y30487D01*
Y27433D01*
X615470Y27183D01*
Y26928D01*
X616066Y23934D01*
X616163Y23698D01*
X616213Y23448D01*
X617381Y20627D01*
X617523Y20415D01*
X617621Y20179D01*
X619317Y17641D01*
X619497Y17460D01*
X619639Y17248D01*
X621798Y15089D01*
X622010Y14947D01*
X622191Y14767D01*
X624729Y13071D01*
X624965Y12973D01*
X625177Y12831D01*
X627998Y11663D01*
X628248Y11613D01*
X628484Y11516D01*
X631478Y10920D01*
X631733D01*
X631983Y10870D01*
X635037D01*
X635287Y10920D01*
X635542D01*
X638536Y11516D01*
X638772Y11613D01*
X639022Y11663D01*
X641843Y12831D01*
X642055Y12973D01*
X642291Y13071D01*
X644829Y14767D01*
X645010Y14947D01*
X645222Y15089D01*
X647381Y17248D01*
X647523Y17460D01*
X647703Y17641D01*
X649399Y20179D01*
X649497Y20415D01*
X649639Y20627D01*
X650807Y23448D01*
X650857Y23698D01*
X650954Y23934D01*
X651550Y26928D01*
Y27183D01*
X651600Y27433D01*
Y30487D01*
X651550Y30737D01*
Y30992D01*
X650954Y33986D01*
X650857Y34222D01*
X650807Y34472D01*
X649639Y37293D01*
X649497Y37505D01*
X649399Y37741D01*
X647703Y40279D01*
X647523Y40460D01*
X647381Y40672D01*
X645222Y42831D01*
X645010Y42973D01*
X644829Y43153D01*
X642291Y44849D01*
X642055Y44947D01*
X641843Y45089D01*
X639022Y46257D01*
X638772Y46307D01*
X638536Y46404D01*
X635542Y47000D01*
X635287D01*
X635037Y47050D01*
D02*
G37*
G36*
X30037D02*
X26983D01*
X26733Y47000D01*
X26478D01*
X23484Y46404D01*
X23248Y46307D01*
X22998Y46257D01*
X20177Y45089D01*
X19965Y44947D01*
X19729Y44849D01*
X17191Y43153D01*
X17010Y42973D01*
X16798Y42831D01*
X14639Y40672D01*
X14497Y40460D01*
X14317Y40279D01*
X12621Y37741D01*
X12523Y37505D01*
X12381Y37293D01*
X11213Y34472D01*
X11163Y34222D01*
X11066Y33986D01*
X10470Y30992D01*
Y30737D01*
X10420Y30487D01*
Y27433D01*
X10470Y27183D01*
Y26928D01*
X11066Y23934D01*
X11163Y23698D01*
X11213Y23448D01*
X12381Y20627D01*
X12523Y20415D01*
X12621Y20179D01*
X14317Y17641D01*
X14497Y17460D01*
X14639Y17248D01*
X16798Y15089D01*
X17010Y14947D01*
X17191Y14767D01*
X19729Y13071D01*
X19965Y12973D01*
X20177Y12831D01*
X22998Y11663D01*
X23248Y11613D01*
X23484Y11516D01*
X26478Y10920D01*
X26733D01*
X26983Y10870D01*
X30037D01*
X30287Y10920D01*
X30542D01*
X33536Y11516D01*
X33772Y11613D01*
X34022Y11663D01*
X36843Y12831D01*
X37055Y12973D01*
X37291Y13071D01*
X39829Y14767D01*
X40010Y14947D01*
X40222Y15089D01*
X42381Y17248D01*
X42523Y17460D01*
X42703Y17641D01*
X44399Y20179D01*
X44497Y20415D01*
X44639Y20627D01*
X45807Y23448D01*
X45857Y23698D01*
X45954Y23934D01*
X46550Y26928D01*
Y27183D01*
X46600Y27433D01*
Y30487D01*
X46550Y30737D01*
Y30992D01*
X45954Y33986D01*
X45857Y34222D01*
X45807Y34472D01*
X44639Y37293D01*
X44497Y37505D01*
X44399Y37741D01*
X42703Y40279D01*
X42523Y40460D01*
X42381Y40672D01*
X40222Y42831D01*
X40010Y42973D01*
X39829Y43153D01*
X37291Y44849D01*
X37055Y44947D01*
X36843Y45089D01*
X34022Y46257D01*
X33772Y46307D01*
X33536Y46404D01*
X30542Y47000D01*
X30287D01*
X30037Y47050D01*
D02*
G37*
%LPD*%
D10*
X478122Y167132D02*
X503682D01*
X475682Y167072D02*
X478062D01*
X478122Y167132D01*
X475488Y166878D02*
X475682Y167072D01*
X529844Y183134D02*
X551688D01*
Y183409D02*
X552196Y183917D01*
X551688Y183134D02*
Y183409D01*
X552196Y183917D02*
Y203200D01*
X527094Y83356D02*
Y110306D01*
D52*
X564134Y102870D02*
X571754Y110490D01*
Y155448D01*
X157451Y149860D02*
X172466D01*
X143764Y124460D02*
Y136173D01*
X157451Y149860D01*
X139192Y160782D02*
X146812Y168402D01*
X176530D01*
X159512Y144018D02*
X165748Y137782D01*
Y136004D02*
Y137782D01*
Y136004D02*
X166526Y135226D01*
X349758Y264668D02*
Y282448D01*
X307848Y259762D02*
Y271018D01*
D55*
X659046Y305966D02*
D03*
Y280567D02*
D03*
Y255166D02*
D03*
Y229767D02*
D03*
Y204366D02*
D03*
Y178967D02*
D03*
Y153567D02*
D03*
Y128167D02*
D03*
Y102767D02*
D03*
Y77366D02*
D03*
Y51967D02*
D03*
Y26567D02*
D03*
X633647Y255166D02*
D03*
Y229767D02*
D03*
Y51967D02*
D03*
X608246Y305966D02*
D03*
Y280567D02*
D03*
Y255166D02*
D03*
Y229767D02*
D03*
Y178967D02*
D03*
Y153567D02*
D03*
Y128167D02*
D03*
Y51967D02*
D03*
Y26567D02*
D03*
X582846Y305966D02*
D03*
Y280567D02*
D03*
Y255166D02*
D03*
Y229767D02*
D03*
Y204366D02*
D03*
Y178967D02*
D03*
Y153567D02*
D03*
Y26567D02*
D03*
X557447Y305966D02*
D03*
Y280567D02*
D03*
Y255166D02*
D03*
Y229767D02*
D03*
X532047Y305966D02*
D03*
Y280567D02*
D03*
Y255166D02*
D03*
Y153567D02*
D03*
Y51967D02*
D03*
X506646Y305966D02*
D03*
Y280567D02*
D03*
Y204366D02*
D03*
Y77366D02*
D03*
X481246Y305966D02*
D03*
Y229767D02*
D03*
Y204366D02*
D03*
Y153567D02*
D03*
Y128167D02*
D03*
Y102767D02*
D03*
Y77366D02*
D03*
Y26567D02*
D03*
X455846Y305966D02*
D03*
Y229767D02*
D03*
Y153567D02*
D03*
Y128167D02*
D03*
Y102767D02*
D03*
Y51967D02*
D03*
X430447Y305966D02*
D03*
Y204366D02*
D03*
Y153567D02*
D03*
Y128167D02*
D03*
Y77366D02*
D03*
Y51967D02*
D03*
X405047Y305966D02*
D03*
Y229767D02*
D03*
Y204366D02*
D03*
Y178967D02*
D03*
Y102767D02*
D03*
Y77366D02*
D03*
Y51967D02*
D03*
X379646Y305966D02*
D03*
Y178967D02*
D03*
Y51967D02*
D03*
X354246Y305966D02*
D03*
Y51967D02*
D03*
X328847Y305966D02*
D03*
Y178967D02*
D03*
Y51967D02*
D03*
X303447Y305966D02*
D03*
Y280567D02*
D03*
Y51967D02*
D03*
X278046Y305966D02*
D03*
Y51967D02*
D03*
X252647Y305966D02*
D03*
Y280567D02*
D03*
Y51967D02*
D03*
X227246Y305966D02*
D03*
Y280567D02*
D03*
Y255166D02*
D03*
Y229767D02*
D03*
Y128167D02*
D03*
Y102767D02*
D03*
Y77366D02*
D03*
Y26567D02*
D03*
X201847Y305966D02*
D03*
Y280567D02*
D03*
Y255166D02*
D03*
Y229767D02*
D03*
Y51967D02*
D03*
Y26567D02*
D03*
X176446Y305966D02*
D03*
Y280567D02*
D03*
Y255166D02*
D03*
Y229767D02*
D03*
Y128167D02*
D03*
Y102767D02*
D03*
Y51967D02*
D03*
X151046Y305966D02*
D03*
Y280567D02*
D03*
Y255166D02*
D03*
Y229767D02*
D03*
Y26567D02*
D03*
X125646Y305966D02*
D03*
Y280567D02*
D03*
Y255166D02*
D03*
Y229767D02*
D03*
Y102767D02*
D03*
Y77366D02*
D03*
Y51967D02*
D03*
Y26567D02*
D03*
X100246Y305966D02*
D03*
Y280567D02*
D03*
Y255166D02*
D03*
Y229767D02*
D03*
Y178967D02*
D03*
Y153567D02*
D03*
Y128167D02*
D03*
Y102767D02*
D03*
Y77366D02*
D03*
Y51967D02*
D03*
Y26567D02*
D03*
X74847Y305966D02*
D03*
Y280567D02*
D03*
Y255166D02*
D03*
Y178967D02*
D03*
Y153567D02*
D03*
Y128167D02*
D03*
Y102767D02*
D03*
Y77366D02*
D03*
Y51967D02*
D03*
Y26567D02*
D03*
X49447Y305966D02*
D03*
Y280567D02*
D03*
Y255166D02*
D03*
Y178967D02*
D03*
Y153567D02*
D03*
Y128167D02*
D03*
Y102767D02*
D03*
Y77366D02*
D03*
Y51967D02*
D03*
X24046Y255166D02*
D03*
Y229767D02*
D03*
Y204366D02*
D03*
Y178967D02*
D03*
Y153567D02*
D03*
Y128167D02*
D03*
Y102767D02*
D03*
Y77366D02*
D03*
Y51967D02*
D03*
X547116Y119888D02*
D03*
X503682Y167132D02*
D03*
X475488Y166878D02*
D03*
X192532Y188976D02*
D03*
X223439Y203213D02*
D03*
X212263D02*
D03*
X201250Y205113D02*
D03*
X203288Y189416D02*
D03*
X214352Y190995D02*
D03*
X225529D02*
D03*
X47940Y207623D02*
D03*
X44048Y197146D02*
D03*
X49196Y187226D02*
D03*
X59984Y184307D02*
D03*
X69431Y190279D02*
D03*
X80490Y191890D02*
D03*
X91666D02*
D03*
X102112Y187917D02*
D03*
X120904Y191008D02*
D03*
X144678Y191890D02*
D03*
X155854D02*
D03*
X167030D02*
D03*
X178206D02*
D03*
X192705Y205113D02*
D03*
X181574Y204108D02*
D03*
X170398D02*
D03*
X159222D02*
D03*
X148046D02*
D03*
X136870D02*
D03*
X125694D02*
D03*
X114523Y204430D02*
D03*
X103351Y204108D02*
D03*
X92175D02*
D03*
X80999D02*
D03*
X69856Y204967D02*
D03*
X60845Y211577D02*
D03*
X275844Y94742D02*
D03*
X296989D02*
D03*
X318135D02*
D03*
X339281D02*
D03*
X360426D02*
D03*
X276098Y73660D02*
D03*
X297243D02*
D03*
X318389D02*
D03*
X339534D02*
D03*
X360680D02*
D03*
X276098Y116078D02*
D03*
X297243D02*
D03*
X318389D02*
D03*
X339534D02*
D03*
X360680D02*
D03*
X276098Y137414D02*
D03*
X297243D02*
D03*
X318389D02*
D03*
X339534D02*
D03*
X360680D02*
D03*
X275844Y157734D02*
D03*
X296989D02*
D03*
X318135D02*
D03*
X339281D02*
D03*
X360426D02*
D03*
X275844Y178816D02*
D03*
X296989D02*
D03*
X318135D02*
D03*
X339281D02*
D03*
X360426D02*
D03*
Y200152D02*
D03*
X339281D02*
D03*
X318135D02*
D03*
X296989D02*
D03*
X275844D02*
D03*
X492506Y142240D02*
D03*
X571754Y155448D02*
D03*
X172466Y149860D02*
D03*
X143764Y124460D02*
D03*
X159512Y144018D02*
D03*
X166526Y135226D02*
D03*
X139192Y160782D02*
D03*
X176530Y168402D02*
D03*
X529844Y183134D02*
D03*
X349758Y264668D02*
D03*
Y282448D02*
D03*
X552196Y203200D02*
D03*
X307848Y259762D02*
D03*
Y271018D02*
D03*
X527094Y83356D02*
D03*
X551688Y183134D02*
D03*
X527094Y110306D02*
D03*
X564134Y102870D02*
D03*
M02*
