G04*
G04 #@! TF.GenerationSoftware,Altium Limited,Altium Designer,24.2.2 (26)*
G04*
G04 Layer_Color=128*
%FSLAX25Y25*%
%MOIN*%
G70*
G04*
G04 #@! TF.SameCoordinates,383E0004-DF84-4F77-A050-2B2E5B934949*
G04*
G04*
G04 #@! TF.FilePolarity,Positive*
G04*
G01*
G75*
%ADD242C,0.00200*%
D242*
X130413Y-32283D02*
X136516D01*
X133465Y-35335D02*
Y-29232D01*
X130413Y-70079D02*
X136516D01*
X133465Y-73130D02*
Y-67027D01*
X-22008Y12568D02*
X-15315D01*
X-18661Y9221D02*
Y15914D01*
X-11614Y2568D02*
X-5709D01*
X-8661Y-385D02*
Y5520D01*
X-22008Y-7432D02*
X-15315D01*
X-18661Y-10779D02*
Y-4086D01*
X-2008Y-7432D02*
X4685D01*
X1339Y-10779D02*
Y-4086D01*
X-2008Y12568D02*
X4685D01*
X1339Y9221D02*
Y15914D01*
X17579Y-290634D02*
X30374D01*
X23976Y-297032D02*
Y-284236D01*
X17579Y-328634D02*
X30374D01*
X23976Y-335032D02*
Y-322236D01*
X6476Y-280034D02*
X11476D01*
X8976Y-282534D02*
Y-277534D01*
X-13524Y-280034D02*
X-8524D01*
X-11024Y-282534D02*
Y-277534D01*
X-3524Y-280034D02*
X1476D01*
X-1024Y-282534D02*
Y-277534D01*
X-3524Y-339234D02*
X1476D01*
X-1024Y-341734D02*
Y-336734D01*
X-13524Y-339234D02*
X-8524D01*
X-11024Y-341734D02*
Y-336734D01*
X20886Y-275034D02*
X27067D01*
X23976Y-278125D02*
Y-271943D01*
X20886Y-344234D02*
X27067D01*
X23976Y-347325D02*
Y-341143D01*
X58224Y-333634D02*
X61728D01*
X59976Y-335386D02*
Y-331882D01*
X48224Y-329634D02*
X51728D01*
X49976Y-331386D02*
Y-327882D01*
X58224Y-325634D02*
X61728D01*
X59976Y-327386D02*
Y-323882D01*
X58224Y-317634D02*
X61728D01*
X59976Y-319386D02*
Y-315882D01*
X58224Y-293634D02*
X61728D01*
X59976Y-295386D02*
Y-291882D01*
X58224Y-285634D02*
X61728D01*
X59976Y-287386D02*
Y-283882D01*
X48224Y-321634D02*
X51728D01*
X49976Y-323386D02*
Y-319882D01*
X48224Y-313634D02*
X51728D01*
X49976Y-315386D02*
Y-311882D01*
X48224Y-305634D02*
X51728D01*
X49976Y-307386D02*
Y-303882D01*
X48224Y-297634D02*
X51728D01*
X49976Y-299386D02*
Y-295882D01*
X48224Y-289634D02*
X51728D01*
X49976Y-291386D02*
Y-287882D01*
X58224Y-301634D02*
X61728D01*
X59976Y-303386D02*
Y-299882D01*
X68701Y-213779D02*
X73032D01*
X70866Y-215945D02*
Y-211614D01*
X68701Y-157677D02*
X73032D01*
X70866Y-159842D02*
Y-155512D01*
X68701Y-101575D02*
X73032D01*
X70866Y-103740D02*
Y-99409D01*
X68701Y-45472D02*
X73032D01*
X70866Y-47638D02*
Y-43307D01*
X68701Y-235039D02*
X73032D01*
X70866Y-237205D02*
Y-232874D01*
X9646Y-225197D02*
X13976D01*
X11811Y-227362D02*
Y-223031D01*
X68701Y-178937D02*
X73032D01*
X70866Y-181102D02*
Y-176772D01*
X9646Y-169094D02*
X13976D01*
X11811Y-171260D02*
Y-166929D01*
X68701Y-122835D02*
X73032D01*
X70866Y-125000D02*
Y-120669D01*
X9646Y-112992D02*
X13976D01*
X11811Y-115157D02*
Y-110827D01*
X68701Y-66732D02*
X73032D01*
X70866Y-68898D02*
Y-64567D01*
X9646Y-56890D02*
X13976D01*
X11811Y-59055D02*
Y-54724D01*
X137795Y-247520D02*
X141732D01*
X139764Y-249488D02*
Y-245551D01*
X118110Y-247520D02*
X122047D01*
X120079Y-249488D02*
Y-245551D01*
X147638Y-135315D02*
X151575D01*
X149606Y-137283D02*
Y-133346D01*
X137795Y-79212D02*
X141732D01*
X139764Y-81181D02*
Y-77244D01*
X118110Y-79212D02*
X122047D01*
X120079Y-81181D02*
Y-77244D01*
X108268Y-135315D02*
X112205D01*
X110236Y-137283D02*
Y-133346D01*
X29528Y-135315D02*
X33465D01*
X31496Y-137283D02*
Y-133346D01*
X68898Y-135315D02*
X72835D01*
X70866Y-137283D02*
Y-133346D01*
X155905Y-219488D02*
X159843D01*
X157874Y-221457D02*
Y-217520D01*
X155905Y-200590D02*
X159843D01*
X157874Y-202559D02*
Y-198622D01*
X155905Y-163386D02*
X159843D01*
X157874Y-165354D02*
Y-161417D01*
X155905Y-144488D02*
X159843D01*
X157874Y-146457D02*
Y-142520D01*
X155905Y-107283D02*
X159843D01*
X157874Y-109252D02*
Y-105315D01*
X155905Y-88386D02*
X159843D01*
X157874Y-90354D02*
Y-86417D01*
X155905Y-51181D02*
X159843D01*
X157874Y-53149D02*
Y-49213D01*
X155905Y-32283D02*
X159843D01*
X157874Y-34252D02*
Y-30315D01*
X99606Y-247520D02*
X103543D01*
X101575Y-249488D02*
Y-245551D01*
X99606Y-191417D02*
X103543D01*
X101575Y-193386D02*
Y-189449D01*
X99606Y-79212D02*
X103543D01*
X101575Y-81181D02*
Y-77244D01*
X99606Y-23110D02*
X103543D01*
X101575Y-25079D02*
Y-21142D01*
X29331Y-191417D02*
X33661D01*
X31496Y-193583D02*
Y-189252D01*
X88386Y-247520D02*
X92716D01*
X90551Y-249685D02*
Y-245354D01*
X49016Y-247520D02*
X53347D01*
X51181Y-249685D02*
Y-245354D01*
X9646Y-247520D02*
X13976D01*
X11811Y-249685D02*
Y-245354D01*
X88386Y-79212D02*
X92716D01*
X90551Y-81378D02*
Y-77047D01*
X49016Y-79212D02*
X53347D01*
X51181Y-81378D02*
Y-77047D01*
X9646Y-79212D02*
X13976D01*
X11811Y-81378D02*
Y-77047D01*
X130217Y-200590D02*
X136713D01*
X133465Y-203838D02*
Y-197343D01*
X130217Y-238386D02*
X136713D01*
X133465Y-241634D02*
Y-235138D01*
X68701Y-191417D02*
X73032D01*
X70866Y-193583D02*
Y-189252D01*
X130315Y-144488D02*
X136614D01*
X133465Y-147638D02*
Y-141339D01*
X130217Y-182283D02*
X136713D01*
X133465Y-185531D02*
Y-179035D01*
X147441Y-191417D02*
X151772D01*
X149606Y-193583D02*
Y-189252D01*
X108071Y-191417D02*
X112402D01*
X110236Y-193583D02*
Y-189252D01*
X130217Y-88386D02*
X136713D01*
X133465Y-91634D02*
Y-85138D01*
X130217Y-126181D02*
X136713D01*
X133465Y-129429D02*
Y-122933D01*
X108071Y-23110D02*
X112402D01*
X110236Y-25275D02*
Y-20945D01*
X147441Y-23110D02*
X151772D01*
X149606Y-25275D02*
Y-20945D01*
X68701Y-23110D02*
X73032D01*
X70866Y-25275D02*
Y-20945D01*
X29331Y-23110D02*
X33661D01*
X31496Y-25275D02*
Y-20945D01*
X130217Y-32283D02*
X136713D01*
X133465Y-35531D02*
Y-29035D01*
X130217Y-70079D02*
X136713D01*
X133465Y-73327D02*
Y-66831D01*
X-20433Y-366772D02*
X-13740D01*
X-17087Y-370118D02*
Y-363425D01*
X-10039Y-376772D02*
X-4134D01*
X-7087Y-379724D02*
Y-373819D01*
X-20433Y-386772D02*
X-13740D01*
X-17087Y-390118D02*
Y-383425D01*
X-433Y-386772D02*
X6260D01*
X2913Y-390118D02*
Y-383425D01*
X-433Y-366772D02*
X6260D01*
X2913Y-370118D02*
Y-363425D01*
X346063Y-279633D02*
X362598D01*
X354331Y-287901D02*
Y-271365D01*
X312795Y-120480D02*
X317126D01*
X314961Y-122645D02*
Y-118314D01*
X390551Y-120480D02*
X396850D01*
X393701Y-123629D02*
Y-117330D01*
X130413Y-238386D02*
X136516D01*
X133465Y-241437D02*
Y-235335D01*
X130413Y-200590D02*
X136516D01*
X133465Y-203642D02*
Y-197539D01*
X130413Y-144488D02*
X136516D01*
X133465Y-147539D02*
Y-141437D01*
X130413Y-182283D02*
X136516D01*
X133465Y-185335D02*
Y-179232D01*
X130360Y-126181D02*
X136462D01*
X133411Y-129232D02*
Y-123130D01*
X130360Y-88386D02*
X136462D01*
X133411Y-91437D02*
Y-85335D01*
X15350Y3543D02*
X27870D01*
X21610Y-2716D02*
Y9803D01*
X337210Y-23476D02*
X344297D01*
X340754Y-27019D02*
Y-19932D01*
X337210Y-40011D02*
X344297D01*
X340754Y-43555D02*
Y-36468D01*
X337210Y-56547D02*
X344297D01*
X340754Y-60090D02*
Y-53003D01*
X315557Y-23476D02*
X322643D01*
X319100Y-27019D02*
Y-19932D01*
X315557Y-40011D02*
X322643D01*
X319100Y-43555D02*
Y-36468D01*
X315557Y-56547D02*
X322643D01*
X319100Y-60090D02*
Y-53003D01*
X386181Y-351496D02*
X390197D01*
X388189Y-353504D02*
Y-349488D01*
X386181Y-341496D02*
X390197D01*
X388189Y-343504D02*
Y-339488D01*
X386181Y-331496D02*
X390197D01*
X388189Y-333504D02*
Y-329488D01*
X386181Y-321496D02*
X390197D01*
X388189Y-323504D02*
Y-319488D01*
X185689Y-341319D02*
X190020D01*
X187855Y-343484D02*
Y-339154D01*
X185689Y-331319D02*
X190020D01*
X187855Y-333485D02*
Y-329154D01*
X185689Y-311319D02*
X190020D01*
X187855Y-313485D02*
Y-309154D01*
X185689Y-321319D02*
X190020D01*
X187855Y-323484D02*
Y-319154D01*
X18289Y-376772D02*
X30808D01*
X24548Y-383032D02*
Y-370512D01*
X241006Y-173217D02*
X242006D01*
X241506Y-173717D02*
Y-172717D01*
X184146Y-141846D02*
X185146D01*
X184646Y-142346D02*
Y-141346D01*
X240673Y-170400D02*
X241673D01*
X241173Y-170900D02*
Y-169900D01*
X184146Y-139746D02*
X185146D01*
X184646Y-140246D02*
Y-139246D01*
X189551Y-174647D02*
X190551D01*
X190051Y-175147D02*
Y-174147D01*
X206153Y-144595D02*
X207154D01*
X206653Y-145095D02*
Y-144095D01*
X255767Y-354027D02*
X256767D01*
X256266Y-354527D02*
Y-353527D01*
X202969Y-144595D02*
X203969D01*
X203469Y-145095D02*
Y-144095D01*
X255767Y-351927D02*
X256767D01*
X256266Y-352427D02*
Y-351427D01*
X168388Y-248382D02*
X169388D01*
X168888Y-248882D02*
Y-247882D01*
X225103Y-135255D02*
X226103D01*
X225603Y-135755D02*
Y-134755D01*
X187122Y-61340D02*
X188122D01*
X187622Y-61840D02*
Y-60840D01*
X224899Y-138502D02*
X225899D01*
X225399Y-139002D02*
Y-138002D01*
X189222Y-61340D02*
X190222D01*
X189722Y-61840D02*
Y-60840D01*
X188297Y-100090D02*
X189297D01*
X188797Y-100590D02*
Y-99590D01*
X159193Y-180236D02*
X160193D01*
X159693Y-180736D02*
Y-179736D01*
X206405Y-192267D02*
X207405D01*
X206905Y-192767D02*
Y-191767D01*
X195128Y-194368D02*
X196128D01*
X195628Y-194868D02*
Y-193868D01*
X169916Y-217717D02*
X170916D01*
X170416Y-218216D02*
Y-217216D01*
X171175Y-254346D02*
X172175D01*
X171675Y-254846D02*
Y-253846D01*
X187802Y-235030D02*
X188802D01*
X188302Y-235530D02*
Y-234530D01*
X179286Y-235760D02*
X180286D01*
X179786Y-236260D02*
Y-235260D01*
X173214Y-183532D02*
X174214D01*
X173714Y-184032D02*
Y-183032D01*
X177410Y-169728D02*
X178410D01*
X177910Y-170228D02*
Y-169228D01*
X173735Y-121302D02*
X174735D01*
X174235Y-121802D02*
Y-120802D01*
X173734Y-103803D02*
X174734D01*
X174234Y-104303D02*
Y-103303D01*
X181054Y-118863D02*
X182054D01*
X181554Y-119363D02*
Y-118363D01*
X162921Y-69655D02*
X163921D01*
X163421Y-70155D02*
Y-69155D01*
X169832Y-59153D02*
X170832D01*
X170332Y-59654D02*
Y-58653D01*
X177380Y-60313D02*
X178379D01*
X177880Y-60813D02*
Y-59813D01*
X184729Y-73027D02*
X185729D01*
X185229Y-73527D02*
Y-72527D01*
X201018Y-189949D02*
X202018D01*
X201518Y-190449D02*
Y-189449D01*
X29658Y-352314D02*
X30658D01*
X30158Y-352814D02*
Y-351814D01*
X26101Y-260612D02*
X27101D01*
X26601Y-261112D02*
Y-260112D01*
X30073Y-266050D02*
X31073D01*
X30573Y-266550D02*
Y-265550D01*
X3551Y-348368D02*
X4751D01*
X4151Y-348968D02*
Y-347768D01*
X386211Y-273535D02*
X387411D01*
X386811Y-274135D02*
Y-272935D01*
X386211Y-278389D02*
X387411D01*
X386811Y-278989D02*
Y-277788D01*
X371644Y-177050D02*
X372844D01*
X372244Y-177650D02*
Y-176450D01*
X365935Y-177107D02*
X367136D01*
X366535Y-177707D02*
Y-176507D01*
X372982Y-252489D02*
X374182D01*
X373582Y-253089D02*
Y-251889D01*
X359779Y-252543D02*
X360979D01*
X360379Y-253143D02*
Y-251943D01*
X372712Y-233877D02*
X373912D01*
X373312Y-234477D02*
Y-233277D01*
X360110Y-234585D02*
X361310D01*
X360710Y-235185D02*
Y-233985D01*
X372147Y-215652D02*
X373347D01*
X372747Y-216252D02*
Y-215052D01*
X360704Y-215411D02*
X361905D01*
X361304Y-216011D02*
Y-214811D01*
X370987Y-195314D02*
X372187D01*
X371587Y-195914D02*
Y-194714D01*
X359824Y-194965D02*
X361024D01*
X360424Y-195565D02*
Y-194365D01*
X189288Y-41483D02*
X190288D01*
X189788Y-41983D02*
Y-40983D01*
X185718Y-57766D02*
X186718D01*
X186218Y-58266D02*
Y-57266D01*
X156781Y-267464D02*
X157781D01*
X157281Y-267964D02*
Y-266964D01*
X158544Y-256866D02*
X159544D01*
X159044Y-257366D02*
Y-256366D01*
X157246Y-262194D02*
X158246D01*
X157746Y-262694D02*
Y-261694D01*
X182728Y-195783D02*
X183728D01*
X183228Y-196283D02*
Y-195283D01*
X173344Y-107094D02*
X174344D01*
X173844Y-107594D02*
Y-106594D01*
X140720Y-223425D02*
X141720D01*
X141220Y-223925D02*
Y-222925D01*
X223234Y-118314D02*
X224234D01*
X223734Y-118814D02*
Y-117814D01*
X220401Y-118136D02*
X221401D01*
X220901Y-118636D02*
Y-117636D01*
X215952Y-117930D02*
X216952D01*
X216452Y-118430D02*
Y-117430D01*
X212991Y-118004D02*
X213991D01*
X213491Y-118504D02*
Y-117504D01*
X208247Y-117684D02*
X209247D01*
X208747Y-118184D02*
Y-117184D01*
X178973Y-149071D02*
X179973D01*
X179473Y-149571D02*
Y-148571D01*
X242485Y-184644D02*
X243485D01*
X242986Y-185144D02*
Y-184144D01*
X255481Y-126916D02*
X256481D01*
X255981Y-127416D02*
Y-126416D01*
X162921Y-33675D02*
X163921D01*
X163421Y-34175D02*
Y-33175D01*
X305292Y-241157D02*
X306292D01*
X305792Y-241657D02*
Y-240657D01*
X252331Y-63090D02*
X253331D01*
X252831Y-63591D02*
Y-62590D01*
X220853Y-56275D02*
X221853D01*
X221354Y-56775D02*
Y-55775D01*
X168356Y-56845D02*
X169356D01*
X168856Y-57345D02*
Y-56345D01*
X173214Y-91055D02*
X174214D01*
X173714Y-91555D02*
Y-90555D01*
X181379Y-121260D02*
X182379D01*
X181879Y-121760D02*
Y-120760D01*
X176097Y-133412D02*
X177097D01*
X176597Y-133912D02*
Y-132912D01*
X179441Y-186685D02*
X180441D01*
X179941Y-187185D02*
Y-186185D01*
X179103Y-200874D02*
X180103D01*
X179603Y-201374D02*
Y-200374D01*
X172860Y-236990D02*
X173860D01*
X173360Y-237490D02*
Y-236490D01*
X176784Y-333782D02*
X177784D01*
X177284Y-334281D02*
Y-333281D01*
X233863Y-229389D02*
X234863D01*
X234363Y-229889D02*
Y-228889D01*
X221781Y-148290D02*
X222781D01*
X222281Y-148790D02*
Y-147790D01*
X320366Y-162133D02*
X321366D01*
X320866Y-162633D02*
Y-161633D01*
X336691Y-178457D02*
X337691D01*
X337191Y-178957D02*
Y-177957D01*
X308667Y-143261D02*
X309667D01*
X309167Y-143761D02*
Y-142761D01*
X318041Y-331860D02*
X319041D01*
X318541Y-332361D02*
Y-331361D01*
X209986Y-274740D02*
X210986D01*
X210487Y-275240D02*
Y-274240D01*
X340626Y-298913D02*
X341626D01*
X341126Y-299413D02*
Y-298413D01*
X325463Y-228758D02*
X326463D01*
X325963Y-229258D02*
Y-228258D01*
X166035Y-238559D02*
X167035D01*
X166535Y-239059D02*
Y-238059D01*
X173604Y-198320D02*
X174604D01*
X174104Y-198820D02*
Y-197820D01*
X374072Y-306742D02*
X375072D01*
X374572Y-307242D02*
Y-306242D01*
X337787Y-329525D02*
X338787D01*
X338287Y-330025D02*
Y-329025D01*
X64884Y-317634D02*
X65884D01*
X65384Y-318134D02*
Y-317134D01*
X74282Y-316630D02*
X75282D01*
X74782Y-317130D02*
Y-316130D01*
X176901Y-325781D02*
X177901D01*
X177401Y-326281D02*
Y-325281D01*
X177185Y-316248D02*
X178185D01*
X177685Y-316748D02*
Y-315748D01*
X156115Y-306910D02*
X157115D01*
X156615Y-307410D02*
Y-306410D01*
X161148Y-347208D02*
X162148D01*
X161648Y-347708D02*
Y-346708D01*
X143111Y-260956D02*
X144111D01*
X143611Y-261455D02*
Y-260455D01*
X141419Y-263854D02*
X142419D01*
X141919Y-264354D02*
Y-263354D01*
X145027Y-263637D02*
X146027D01*
X145527Y-264137D02*
Y-263137D01*
X129233Y-336806D02*
X130233D01*
X129733Y-337306D02*
Y-336306D01*
X-20539Y-252756D02*
X-19539D01*
X-20039Y-253256D02*
Y-252256D01*
X372138Y-78730D02*
X373138D01*
X372638Y-79230D02*
Y-78230D01*
X372138Y-74472D02*
X373138D01*
X372638Y-74972D02*
Y-73972D01*
X352453Y-74472D02*
X353453D01*
X352953Y-74972D02*
Y-73972D01*
X326118Y-85002D02*
X327118D01*
X326618Y-85502D02*
Y-84502D01*
X325878Y-73681D02*
X326878D01*
X326378Y-74181D02*
Y-73181D01*
X204272Y-54134D02*
X205272D01*
X204772Y-54634D02*
Y-53634D01*
X216271Y-54080D02*
X217271D01*
X216771Y-54580D02*
Y-53580D01*
X226976Y-54080D02*
X227976D01*
X227476Y-54580D02*
Y-53580D01*
X279919Y-62501D02*
X280919D01*
X280419Y-63001D02*
Y-62001D01*
X268658Y-62303D02*
X269658D01*
X269158Y-62803D02*
Y-61803D01*
X246244Y-62401D02*
X247244D01*
X246744Y-62902D02*
Y-61901D01*
X258159Y-62401D02*
X259159D01*
X258659Y-62902D02*
Y-61901D01*
X227933Y-167160D02*
X228932D01*
X228432Y-167660D02*
Y-166660D01*
X227933Y-170310D02*
X228932D01*
X228432Y-170810D02*
Y-169810D01*
X180402Y-210841D02*
X181402D01*
X180902Y-211341D02*
Y-210341D01*
X180402Y-208741D02*
X181402D01*
X180902Y-209241D02*
Y-208241D01*
X235933Y-183051D02*
X236933D01*
X236434Y-183551D02*
Y-182551D01*
X240865Y-158716D02*
X241865D01*
X241365Y-159216D02*
Y-158216D01*
X214910Y-138626D02*
X215910D01*
X215410Y-139126D02*
Y-138126D01*
X213631Y-134176D02*
X214631D01*
X214131Y-134676D02*
Y-133676D01*
X216800Y-134176D02*
X217800D01*
X217300Y-134676D02*
Y-133676D01*
X218400Y-138763D02*
X219400D01*
X218900Y-139263D02*
Y-138263D01*
X234159Y-138296D02*
X235159D01*
X234659Y-138796D02*
Y-137796D01*
X234283Y-135088D02*
X235283D01*
X234783Y-135588D02*
Y-134588D01*
X231078Y-138607D02*
X232078D01*
X231578Y-139107D02*
Y-138107D01*
X185795Y-99674D02*
X186795D01*
X186295Y-100174D02*
Y-99174D01*
X281265Y-201638D02*
X282265D01*
X281766Y-202138D02*
Y-201138D01*
X272920Y-200813D02*
X273920D01*
X273420Y-201313D02*
Y-200313D01*
X255335Y-165130D02*
X256335D01*
X255835Y-165630D02*
Y-164630D01*
X256181Y-170511D02*
X257181D01*
X256681Y-171011D02*
Y-170011D01*
X191601Y-195079D02*
X192601D01*
X192101Y-195579D02*
Y-194579D01*
X79875Y-354934D02*
X80875D01*
X80375Y-355434D02*
Y-354434D01*
X189941Y-155205D02*
X190941D01*
X190441Y-155705D02*
Y-154705D01*
X302522Y-141540D02*
X303522D01*
X303022Y-142040D02*
Y-141040D01*
X304119Y-127467D02*
X305119D01*
X304619Y-127967D02*
Y-126967D01*
X227933Y-138452D02*
X228932D01*
X228432Y-138952D02*
Y-137952D01*
X221550Y-138452D02*
X222550D01*
X222050Y-138952D02*
Y-137952D01*
X221706Y-141935D02*
X222706D01*
X222206Y-142435D02*
Y-141435D01*
X250757Y-137546D02*
X251757D01*
X251257Y-138046D02*
Y-137046D01*
X196739Y-118776D02*
X197739D01*
X197239Y-119276D02*
Y-118276D01*
X199714Y-118928D02*
X200714D01*
X200214Y-119428D02*
Y-118428D01*
X247904Y-118924D02*
X248904D01*
X248404Y-119424D02*
Y-118424D01*
X208965Y-126876D02*
X209965D01*
X209465Y-127376D02*
Y-126376D01*
X224703Y-170170D02*
X225703D01*
X225203Y-170670D02*
Y-169670D01*
X224744Y-175651D02*
X225744D01*
X225244Y-176151D02*
Y-175151D01*
X225395Y-178345D02*
X226395D01*
X225895Y-178845D02*
Y-177845D01*
X197269Y-157802D02*
X198269D01*
X197769Y-158302D02*
Y-157302D01*
X199877Y-165477D02*
X200877D01*
X200377Y-165977D02*
Y-164977D01*
X216677Y-101126D02*
X217677D01*
X217177Y-101626D02*
Y-100626D01*
X219630Y-101512D02*
X220630D01*
X220129Y-102012D02*
Y-101012D01*
X184256Y-95666D02*
X185256D01*
X184756Y-96166D02*
Y-95166D01*
X185741Y-97151D02*
X186741D01*
X186241Y-97651D02*
Y-96651D01*
X142539Y-278676D02*
X143539D01*
X143039Y-279175D02*
Y-278175D01*
X135393Y-273294D02*
X136393D01*
X135893Y-273794D02*
Y-272794D01*
X136432Y-269107D02*
X137432D01*
X136932Y-269607D02*
Y-268607D01*
X251266Y-84316D02*
X252266D01*
X251766Y-84816D02*
Y-83816D01*
X269863Y-84990D02*
X270863D01*
X270363Y-85490D02*
Y-84490D01*
X234413Y-77796D02*
X235413D01*
X234912Y-78296D02*
Y-77296D01*
X128568Y-351010D02*
X129568D01*
X129068Y-351510D02*
Y-350510D01*
X130434Y-342844D02*
X131434D01*
X130934Y-343344D02*
Y-342344D01*
X367807Y-159232D02*
X368807D01*
X368307Y-159732D02*
Y-158732D01*
X376075Y-70802D02*
X377075D01*
X376575Y-71302D02*
Y-70302D01*
X367413Y-70586D02*
X368413D01*
X367913Y-71086D02*
Y-70086D01*
X332681Y-90739D02*
X333681D01*
X333180Y-91239D02*
Y-90239D01*
X322752Y-75157D02*
X323752D01*
X323252Y-75657D02*
Y-74657D01*
X387886Y-88844D02*
X388886D01*
X388386Y-89344D02*
Y-88344D01*
X314437Y-233877D02*
X315437D01*
X314937Y-234377D02*
Y-233377D01*
X291963Y-238345D02*
X292963D01*
X292463Y-238845D02*
Y-237845D01*
X5856Y-268389D02*
X6856D01*
X6356Y-268889D02*
Y-267889D01*
X5661Y-262482D02*
X6661D01*
X6161Y-262982D02*
Y-261982D01*
X5986Y-255906D02*
X6986D01*
X6486Y-256405D02*
Y-255405D01*
X42752Y-9479D02*
X43752D01*
X43252Y-9979D02*
Y-8979D01*
X35946Y-12681D02*
X36946D01*
X36446Y-13181D02*
Y-12181D01*
X100902Y-17382D02*
X101902D01*
X101402Y-17882D02*
Y-16882D01*
X77528Y-14173D02*
X78528D01*
X78028Y-14673D02*
Y-13673D01*
X65073Y-12205D02*
X66073D01*
X65573Y-12705D02*
Y-11705D01*
X74598Y-12205D02*
X75598D01*
X75098Y-12705D02*
Y-11705D01*
X8610Y-14705D02*
X9610D01*
X9110Y-15205D02*
Y-14205D01*
X-17035Y-16142D02*
X-16035D01*
X-16535Y-16642D02*
Y-15642D01*
X376862Y-89520D02*
X377862D01*
X377362Y-90020D02*
Y-89020D01*
X366280Y-89520D02*
X367280D01*
X366780Y-90020D02*
Y-89020D01*
X345366Y-79266D02*
X346366D01*
X345866Y-79766D02*
Y-78766D01*
X266131Y-81563D02*
X267131D01*
X266631Y-82063D02*
Y-81063D01*
X258309Y-81146D02*
X259309D01*
X258809Y-81646D02*
Y-80646D01*
X225943Y-75356D02*
X226943D01*
X226443Y-75856D02*
Y-74856D01*
X214994Y-74440D02*
X215994D01*
X215494Y-74940D02*
Y-73940D01*
X76052Y-351921D02*
X77052D01*
X76552Y-352420D02*
Y-351420D01*
X14934Y-348830D02*
X15934D01*
X15434Y-349330D02*
Y-348330D01*
X26101Y-351561D02*
X27101D01*
X26601Y-352061D02*
Y-351061D01*
X49476Y-346806D02*
X50476D01*
X49976Y-347306D02*
Y-346306D01*
X59215Y-350141D02*
X60215D01*
X59715Y-350641D02*
Y-349640D01*
X29618Y-357667D02*
X30618D01*
X30118Y-358168D02*
Y-357168D01*
X38436Y-360877D02*
X39436D01*
X38936Y-361377D02*
Y-360377D01*
X38255Y-357807D02*
X39255D01*
X38755Y-358307D02*
Y-357307D01*
X-17211Y-357826D02*
X-16211D01*
X-16711Y-358326D02*
Y-357326D01*
X-17587Y-349165D02*
X-16587D01*
X-17087Y-349665D02*
Y-348665D01*
X262336Y-235354D02*
X263336D01*
X262836Y-235854D02*
Y-234854D01*
X258375Y-237054D02*
X259375D01*
X258875Y-237554D02*
Y-236554D01*
X130946Y-312545D02*
X131946D01*
X131446Y-313045D02*
Y-312045D01*
X128396Y-310478D02*
X129396D01*
X128896Y-310978D02*
Y-309978D01*
X131009Y-305638D02*
X132009D01*
X131509Y-306137D02*
Y-305137D01*
X130736Y-308250D02*
X131737D01*
X131237Y-308751D02*
Y-307751D01*
X126012Y-292923D02*
X127012D01*
X126512Y-293423D02*
Y-292423D01*
X178149Y-81519D02*
X179149D01*
X178649Y-82019D02*
Y-81019D01*
X64807Y-304548D02*
X65807D01*
X65307Y-305048D02*
Y-304048D01*
X75078Y-299949D02*
X76078D01*
X75578Y-300449D02*
Y-299449D01*
X89114Y-300833D02*
X90114D01*
X89614Y-301333D02*
Y-300333D01*
X88642Y-296046D02*
X89641D01*
X89141Y-296546D02*
Y-295546D01*
X87837Y-291266D02*
X88837D01*
X88337Y-291766D02*
Y-290766D01*
X349780Y-149867D02*
X350780D01*
X350280Y-150367D02*
Y-149367D01*
X354914Y-150559D02*
X355914D01*
X355414Y-151059D02*
Y-150059D01*
X380799Y-92960D02*
X381799D01*
X381299Y-93460D02*
Y-92460D01*
X375878Y-93209D02*
X376878D01*
X376378Y-93709D02*
Y-92709D01*
X389040Y-93354D02*
X390040D01*
X389540Y-93854D02*
Y-92854D01*
X321882Y-93416D02*
X322882D01*
X322382Y-93916D02*
Y-92916D01*
X385298Y-93571D02*
X386298D01*
X385798Y-94071D02*
Y-93071D01*
X372034Y-93571D02*
X373034D01*
X372534Y-94071D02*
Y-93071D01*
X326118Y-93602D02*
X327118D01*
X326618Y-94102D02*
Y-93102D01*
X347298Y-93664D02*
X348298D01*
X347798Y-94164D02*
Y-93164D01*
X366036Y-93787D02*
X367036D01*
X366535Y-94287D02*
Y-93287D01*
X351385Y-93792D02*
X352385D01*
X351885Y-94292D02*
Y-93292D01*
X394283Y-93948D02*
X395283D01*
X394783Y-94448D02*
Y-93448D01*
X359759Y-93973D02*
X360759D01*
X360259Y-94473D02*
Y-93473D01*
X342196Y-94189D02*
X343197D01*
X342696Y-94689D02*
Y-93689D01*
X354131Y-94282D02*
X355131D01*
X354631Y-94782D02*
Y-93782D01*
X325072Y-134842D02*
X326072D01*
X325572Y-135342D02*
Y-134342D01*
X390248Y-135220D02*
X391248D01*
X390748Y-135720D02*
Y-134720D01*
X320918Y-135220D02*
X321918D01*
X321418Y-135720D02*
Y-134720D01*
X384343Y-135603D02*
X385343D01*
X384842Y-136103D02*
Y-135103D01*
X373909Y-135603D02*
X374909D01*
X374410Y-136103D02*
Y-135103D01*
X387123Y-135776D02*
X388123D01*
X387623Y-136276D02*
Y-135276D01*
X368465Y-137396D02*
X369465D01*
X368965Y-137896D02*
Y-136896D01*
X364854Y-138038D02*
X365854D01*
X365354Y-138538D02*
Y-137538D01*
X350878Y-138038D02*
X351878D01*
X351378Y-138538D02*
Y-137538D01*
X376405Y-138622D02*
X377405D01*
X376905Y-139122D02*
Y-138122D01*
X355054Y-138875D02*
X356054D01*
X355554Y-139375D02*
Y-138375D01*
X380999Y-138906D02*
X381999D01*
X381499Y-139406D02*
Y-138406D01*
X362012Y-140543D02*
X363012D01*
X362511Y-141043D02*
Y-140043D01*
X358752Y-140543D02*
X359752D01*
X359252Y-141043D02*
Y-140043D01*
X319007Y-93416D02*
X320007D01*
X319507Y-93916D02*
Y-92916D01*
X316823Y-135295D02*
X317823D01*
X317323Y-135795D02*
Y-134795D01*
X101026Y-277537D02*
X102026D01*
X101526Y-278037D02*
Y-277037D01*
X98147Y-291384D02*
X99147D01*
X98647Y-291884D02*
Y-290884D01*
X98147Y-295715D02*
X99147D01*
X98647Y-296215D02*
Y-295215D01*
X98147Y-300045D02*
X99147D01*
X98647Y-300545D02*
Y-299545D01*
X98147Y-304376D02*
X99147D01*
X98647Y-304876D02*
Y-303876D01*
X98147Y-308707D02*
X99147D01*
X98647Y-309207D02*
Y-308207D01*
X102477Y-291384D02*
X103477D01*
X102977Y-291884D02*
Y-290884D01*
X102477Y-295715D02*
X103477D01*
X102977Y-296215D02*
Y-295215D01*
X102477Y-300045D02*
X103477D01*
X102977Y-300545D02*
Y-299545D01*
X102477Y-304376D02*
X103477D01*
X102977Y-304876D02*
Y-303876D01*
X102477Y-308707D02*
X103477D01*
X102977Y-309207D02*
Y-308207D01*
X106808Y-291384D02*
X107808D01*
X107308Y-291884D02*
Y-290884D01*
X106808Y-295715D02*
X107808D01*
X107308Y-296215D02*
Y-295215D01*
X106808Y-300045D02*
X107808D01*
X107308Y-300545D02*
Y-299545D01*
X106808Y-304376D02*
X107808D01*
X107308Y-304876D02*
Y-303876D01*
X106808Y-308707D02*
X107808D01*
X107308Y-309207D02*
Y-308207D01*
X111139Y-291384D02*
X112139D01*
X111639Y-291884D02*
Y-290884D01*
X111139Y-295715D02*
X112139D01*
X111639Y-296215D02*
Y-295215D01*
X111139Y-300045D02*
X112139D01*
X111639Y-300545D02*
Y-299545D01*
X111139Y-304376D02*
X112139D01*
X111639Y-304876D02*
Y-303876D01*
X111139Y-308707D02*
X112139D01*
X111639Y-309207D02*
Y-308207D01*
X115470Y-291384D02*
X116470D01*
X115970Y-291884D02*
Y-290884D01*
X115470Y-295715D02*
X116470D01*
X115970Y-296215D02*
Y-295215D01*
X115470Y-300045D02*
X116470D01*
X115970Y-300545D02*
Y-299545D01*
X115470Y-304376D02*
X116470D01*
X115970Y-304876D02*
Y-303876D01*
X115470Y-308707D02*
X116470D01*
X115970Y-309207D02*
Y-308207D01*
X95631Y-281958D02*
X96631D01*
X96131Y-282458D02*
Y-281458D01*
X90068Y-275482D02*
X91068D01*
X90568Y-275982D02*
Y-274982D01*
X97477Y-267359D02*
X98477D01*
X97977Y-267859D02*
Y-266859D01*
X87217Y-288559D02*
X88217D01*
X87717Y-289059D02*
Y-288059D01*
X151214Y-340525D02*
X152214D01*
X151714Y-341025D02*
Y-340025D01*
X166327Y-347155D02*
X167327D01*
X166827Y-347655D02*
Y-346655D01*
X67327Y-269648D02*
X68327D01*
X67827Y-270148D02*
Y-269148D01*
X71063Y-269068D02*
X72063D01*
X71563Y-269568D02*
Y-268568D01*
X175931Y-341691D02*
X176930D01*
X176430Y-342191D02*
Y-341191D01*
X175540Y-312574D02*
X176540D01*
X176040Y-313073D02*
Y-312073D01*
X85537Y-315098D02*
X86537D01*
X86037Y-315598D02*
Y-314598D01*
X166077Y-306741D02*
X167077D01*
X166577Y-307241D02*
Y-306241D01*
X161150Y-306863D02*
X162150D01*
X161650Y-307363D02*
Y-306363D01*
X152183Y-314300D02*
X153183D01*
X152683Y-314800D02*
Y-313800D01*
X175931Y-322342D02*
X176930D01*
X176430Y-322843D02*
Y-321843D01*
X99529Y-323767D02*
X100530D01*
X100030Y-324267D02*
Y-323267D01*
X96850Y-323086D02*
X97850D01*
X97350Y-323586D02*
Y-322586D01*
X94898Y-321003D02*
X95898D01*
X95398Y-321503D02*
Y-320503D01*
X93211Y-318489D02*
X94211D01*
X93711Y-318989D02*
Y-317989D01*
X89318Y-315638D02*
X90318D01*
X89818Y-316139D02*
Y-315139D01*
X89210Y-311074D02*
X90210D01*
X89710Y-311574D02*
Y-310574D01*
X89243Y-305568D02*
X90243D01*
X89743Y-306068D02*
Y-305068D01*
X127791Y-314399D02*
X128791D01*
X128291Y-314898D02*
Y-313898D01*
X114183Y-323767D02*
X115183D01*
X114683Y-324267D02*
Y-323267D01*
X116651Y-323153D02*
X117651D01*
X117151Y-323653D02*
Y-322653D01*
X116957Y-320017D02*
X117957D01*
X117457Y-320517D02*
Y-319517D01*
X122980Y-318518D02*
X123980D01*
X123480Y-319018D02*
Y-318018D01*
X119988Y-315354D02*
X120988D01*
X120488Y-315855D02*
Y-314855D01*
X122845Y-324432D02*
X123845D01*
X123345Y-324932D02*
Y-323932D01*
X132816Y-335560D02*
X133816D01*
X133316Y-336059D02*
Y-335059D01*
X106414Y-322716D02*
X107414D01*
X106914Y-323216D02*
Y-322216D01*
X108777Y-320881D02*
X109777D01*
X109277Y-321380D02*
Y-320380D01*
X109089Y-317654D02*
X110089D01*
X109589Y-318155D02*
Y-317155D01*
X110893Y-324032D02*
X111893D01*
X111393Y-324532D02*
Y-323532D01*
X124921Y-286268D02*
X125921D01*
X125421Y-286769D02*
Y-285769D01*
X118956Y-283540D02*
X119956D01*
X119456Y-284040D02*
Y-283040D01*
X122541Y-282426D02*
X123541D01*
X123041Y-282926D02*
Y-281926D01*
X111196Y-282218D02*
X112196D01*
X111696Y-282718D02*
Y-281718D01*
X102749Y-280854D02*
X103749D01*
X103249Y-281354D02*
Y-280354D01*
X122330Y-272994D02*
X123330D01*
X122830Y-273494D02*
Y-272494D01*
X107475Y-267248D02*
X108475D01*
X107975Y-267748D02*
Y-266748D01*
X114633Y-266706D02*
X115633D01*
X115133Y-267206D02*
Y-266206D01*
X123301Y-266122D02*
X124301D01*
X123801Y-266622D02*
Y-265622D01*
X103855Y-265339D02*
X104855D01*
X104355Y-265839D02*
Y-264839D01*
X129302Y-302801D02*
X130302D01*
X129802Y-303301D02*
Y-302301D01*
X124591Y-302408D02*
X125591D01*
X125091Y-302908D02*
Y-301908D01*
X124587Y-297687D02*
X125587D01*
X125087Y-298187D02*
Y-297187D01*
X78808Y-262172D02*
X79808D01*
X79308Y-262672D02*
Y-261672D01*
X177249Y-282770D02*
X178549D01*
X177899Y-283420D02*
Y-282120D01*
X181974Y-282770D02*
X183273D01*
X182623Y-283420D02*
Y-282120D01*
X181974Y-287494D02*
X183273D01*
X182623Y-288144D02*
Y-286845D01*
X177249Y-287494D02*
X178549D01*
X177899Y-288144D02*
Y-286845D01*
X110695Y-234379D02*
X111695D01*
X111195Y-234879D02*
Y-233879D01*
X133897Y-220462D02*
X134897D01*
X134397Y-220962D02*
Y-219962D01*
X110071Y-218664D02*
X111071D01*
X110571Y-219164D02*
Y-218164D01*
X109719Y-222430D02*
X110719D01*
X110219Y-222931D02*
Y-221931D01*
X109977Y-225944D02*
X110977D01*
X110477Y-226444D02*
Y-225444D01*
X108216Y-230709D02*
X109216D01*
X108716Y-231208D02*
Y-230208D01*
X111008Y-231224D02*
X112008D01*
X111508Y-231723D02*
Y-230724D01*
X142807Y-232874D02*
X143807D01*
X143307Y-233374D02*
Y-232374D01*
X141904Y-220275D02*
X142904D01*
X142404Y-220776D02*
Y-219776D01*
X147209Y-240398D02*
X148209D01*
X147709Y-240898D02*
Y-239898D01*
X105004Y-237306D02*
X106004D01*
X105504Y-237806D02*
Y-236806D01*
X125061Y-236689D02*
X126061D01*
X125561Y-237189D02*
Y-236189D01*
X109977Y-211504D02*
X110977D01*
X110477Y-212004D02*
Y-211004D01*
X100406Y-154800D02*
X101406D01*
X100906Y-155300D02*
Y-154300D01*
X110946Y-206041D02*
X111946D01*
X111446Y-206541D02*
Y-205541D01*
X135192Y-207019D02*
X136192D01*
X135692Y-207519D02*
Y-206519D01*
X125749Y-204892D02*
X126749D01*
X126249Y-205392D02*
Y-204392D01*
X118829Y-202376D02*
X119829D01*
X119329Y-202876D02*
Y-201876D01*
X142556Y-204409D02*
X143556D01*
X143056Y-204909D02*
Y-203909D01*
X146657Y-200946D02*
X147657D01*
X147157Y-201446D02*
Y-200446D01*
X139903Y-200596D02*
X140903D01*
X140403Y-201096D02*
Y-200096D01*
X109386Y-202271D02*
X110386D01*
X109886Y-202771D02*
Y-201771D01*
X142532Y-213905D02*
X143532D01*
X143032Y-214405D02*
Y-213405D01*
X155168Y-214163D02*
X156168D01*
X155668Y-214663D02*
Y-213663D01*
X144972Y-68976D02*
X145972D01*
X145472Y-69476D02*
Y-68476D01*
X150976Y-69041D02*
X151976D01*
X151476Y-69541D02*
Y-68541D01*
X103043Y-30315D02*
X104043D01*
X103543Y-30815D02*
Y-29815D01*
X153422Y-30079D02*
X154422D01*
X153922Y-30579D02*
Y-29579D01*
X143459Y-29823D02*
X144459D01*
X143959Y-30323D02*
Y-29323D01*
X139938Y-35283D02*
X140938D01*
X140438Y-35783D02*
Y-34783D01*
X110249Y-36774D02*
X111249D01*
X110749Y-37274D02*
Y-36274D01*
X110537Y-30866D02*
X111537D01*
X111037Y-31366D02*
Y-30366D01*
X140445Y-48232D02*
X141445D01*
X140945Y-48732D02*
Y-47732D01*
X127649Y-55610D02*
X128649D01*
X128149Y-56110D02*
Y-55110D01*
X156008Y-55173D02*
X157008D01*
X156508Y-55673D02*
Y-54673D01*
X141352Y-65277D02*
X142352D01*
X141852Y-65777D02*
Y-64777D01*
X140445Y-53602D02*
X141445D01*
X140945Y-54102D02*
Y-53102D01*
X140130Y-44574D02*
X141130D01*
X140630Y-45074D02*
Y-44074D01*
X133903Y-56734D02*
X134903D01*
X134403Y-57234D02*
Y-56234D01*
X133126Y-47548D02*
X134126D01*
X133626Y-48048D02*
Y-47048D01*
X132633Y-61417D02*
X133633D01*
X133133Y-61917D02*
Y-60917D01*
X131071Y-39665D02*
X132071D01*
X131571Y-40165D02*
Y-39165D01*
X128831Y-46571D02*
X129831D01*
X129331Y-47071D02*
Y-46071D01*
X127649Y-40045D02*
X128649D01*
X128149Y-40545D02*
Y-39545D01*
X127232Y-60846D02*
X128232D01*
X127732Y-61346D02*
Y-60346D01*
X110142Y-57547D02*
X111142D01*
X110642Y-58047D02*
Y-57047D01*
X109711Y-50479D02*
X110711D01*
X110211Y-50979D02*
Y-49979D01*
X110142Y-43699D02*
X111142D01*
X110642Y-44199D02*
Y-43199D01*
X110178Y-53923D02*
X111178D01*
X110678Y-54423D02*
Y-53423D01*
X110249Y-60776D02*
X111249D01*
X110749Y-61276D02*
Y-60276D01*
X109962Y-47071D02*
X110962D01*
X110462Y-47571D02*
Y-46571D01*
X109386Y-90066D02*
X110386D01*
X109886Y-90566D02*
Y-89566D01*
X123977Y-217520D02*
X124977D01*
X124477Y-218020D02*
Y-217020D01*
X108852Y-215432D02*
X109852D01*
X109352Y-215932D02*
Y-214932D01*
X127354Y-217717D02*
X128354D01*
X127854Y-218216D02*
Y-217216D01*
X141904Y-217437D02*
X142904D01*
X142404Y-217937D02*
Y-216937D01*
X111008Y-175121D02*
X112008D01*
X111508Y-175621D02*
Y-174621D01*
X108216Y-174606D02*
X109216D01*
X108716Y-175106D02*
Y-174106D01*
X127469Y-177451D02*
X128469D01*
X127969Y-177951D02*
Y-176951D01*
X123190Y-171371D02*
X124190D01*
X123690Y-171871D02*
Y-170871D01*
X110695Y-178277D02*
X111695D01*
X111195Y-178777D02*
Y-177777D01*
X142807Y-176772D02*
X143807D01*
X143307Y-177272D02*
Y-176272D01*
X124579Y-177484D02*
X125579D01*
X125079Y-177984D02*
Y-176984D01*
X105004Y-181203D02*
X106004D01*
X105504Y-181703D02*
Y-180703D01*
X110213Y-64152D02*
X111213D01*
X110713Y-64652D02*
Y-63652D01*
X110716Y-67306D02*
X111716D01*
X111216Y-67806D02*
Y-66806D01*
X106106Y-66683D02*
X107106D01*
X106606Y-67183D02*
Y-66183D01*
X110946Y-93837D02*
X111946D01*
X111446Y-94337D02*
Y-93337D01*
X110071Y-106460D02*
X111071D01*
X110571Y-106960D02*
Y-105960D01*
X109977Y-113739D02*
X110977D01*
X110477Y-114239D02*
Y-113239D01*
X109977Y-99299D02*
X110977D01*
X110477Y-99799D02*
Y-98799D01*
X109719Y-110226D02*
X110719D01*
X110219Y-110726D02*
Y-109726D01*
X108216Y-118504D02*
X109216D01*
X108716Y-119004D02*
Y-118004D01*
X108852Y-103227D02*
X109852D01*
X109352Y-103727D02*
Y-102727D01*
X102354Y-102022D02*
X103354D01*
X102854Y-102522D02*
Y-101522D01*
X155582Y-159645D02*
X156582D01*
X156082Y-160145D02*
Y-159145D01*
X156124Y-168279D02*
X157124D01*
X156624Y-168779D02*
Y-167779D01*
X142807Y-120669D02*
X143807D01*
X143307Y-121169D02*
Y-120169D01*
X110695Y-122174D02*
X111695D01*
X111195Y-122674D02*
Y-121674D01*
X151831Y-144523D02*
X152831D01*
X152331Y-145022D02*
Y-144023D01*
X126173Y-123216D02*
X127173D01*
X126673Y-123716D02*
Y-122716D01*
X123105Y-145595D02*
X124105D01*
X123605Y-146095D02*
Y-145095D01*
X111008Y-119019D02*
X112008D01*
X111508Y-119519D02*
Y-118519D01*
X110946Y-149939D02*
X111946D01*
X111446Y-150439D02*
Y-149439D01*
X109977Y-169842D02*
X110977D01*
X110477Y-170342D02*
Y-169342D01*
X108852Y-159329D02*
X109852D01*
X109352Y-159829D02*
Y-158829D01*
X110071Y-162562D02*
X111071D01*
X110571Y-163062D02*
Y-162062D01*
X109386Y-146168D02*
X110386D01*
X109886Y-146669D02*
Y-145668D01*
X109719Y-166328D02*
X110719D01*
X110219Y-166828D02*
Y-165828D01*
X109977Y-155401D02*
X110977D01*
X110477Y-155901D02*
Y-154901D01*
X141904Y-161335D02*
X142904D01*
X142404Y-161835D02*
Y-160835D01*
X132079Y-160172D02*
X133079D01*
X132579Y-160672D02*
Y-159672D01*
X129555Y-160172D02*
X130555D01*
X130055Y-160672D02*
Y-159672D01*
X139298Y-157874D02*
X140298D01*
X139798Y-158374D02*
Y-157374D01*
X125878Y-159823D02*
X126878D01*
X126378Y-160323D02*
Y-159323D01*
X142532Y-157802D02*
X143532D01*
X143032Y-158302D02*
Y-157302D01*
X142063Y-146700D02*
X143063D01*
X142563Y-147200D02*
Y-146200D01*
X141904Y-164173D02*
X142904D01*
X142404Y-164673D02*
Y-163673D01*
X139120Y-161216D02*
X140120D01*
X139620Y-161716D02*
Y-160716D01*
X135754Y-103716D02*
X136754D01*
X136254Y-104216D02*
Y-103216D01*
X156124Y-112177D02*
X157124D01*
X156624Y-112677D02*
Y-111677D01*
X142556Y-92205D02*
X143556D01*
X143056Y-92705D02*
Y-91705D01*
X142532Y-101700D02*
X143532D01*
X143032Y-102200D02*
Y-101200D01*
X141904Y-108071D02*
X142904D01*
X142404Y-108571D02*
Y-107571D01*
X141904Y-105233D02*
X142904D01*
X142404Y-105733D02*
Y-104733D01*
X135637Y-106627D02*
X136637D01*
X136137Y-107127D02*
Y-106127D01*
X124336Y-105787D02*
X125336D01*
X124836Y-106287D02*
Y-105287D01*
X127354Y-105905D02*
X128354D01*
X127854Y-106405D02*
Y-105405D01*
X32901Y16963D02*
X33901D01*
X33401Y16463D02*
Y17463D01*
X180469Y-365997D02*
X181469D01*
X180969Y-366496D02*
Y-365496D01*
X180469Y-363896D02*
X181469D01*
X180969Y-364397D02*
Y-363397D01*
X260354Y-343297D02*
X261354D01*
X260854Y-343797D02*
Y-342797D01*
X262454Y-343297D02*
X263454D01*
X262954Y-343797D02*
Y-342797D01*
X328175Y-307804D02*
X329175D01*
X328675Y-308304D02*
Y-307304D01*
X328911Y-304593D02*
X329911D01*
X329411Y-305093D02*
Y-304093D01*
X333730Y-323457D02*
X334730D01*
X334230Y-323957D02*
Y-322957D01*
X275522Y-330701D02*
X276522D01*
X276022Y-331202D02*
Y-330202D01*
X-13492Y18898D02*
X-12492D01*
X-12992Y18398D02*
Y19398D01*
X-19454Y19061D02*
X-18454D01*
X-18954Y18561D02*
Y19561D01*
X-8207Y19061D02*
X-7207D01*
X-7706Y18561D02*
Y19561D01*
X3451Y18898D02*
X4451D01*
X3951Y18398D02*
Y19398D01*
X-2244Y18898D02*
X-1244D01*
X-1744Y18398D02*
Y19398D01*
X9453Y19061D02*
X10453D01*
X9953Y18561D02*
Y19561D01*
X21110Y18898D02*
X22110D01*
X21610Y18398D02*
Y19398D01*
X15415Y18898D02*
X16415D01*
X15915Y18398D02*
Y19398D01*
X26665Y18504D02*
X27665D01*
X27165Y18004D02*
Y19004D01*
X35619Y7204D02*
X36619D01*
X36119Y6704D02*
Y7704D01*
X35619Y12899D02*
X36619D01*
X36119Y12399D02*
Y13399D01*
X35946Y2568D02*
X36946D01*
X36446Y2068D02*
Y3068D01*
X35783Y-3394D02*
X36783D01*
X36283Y-3894D02*
Y-2894D01*
X38453Y-6708D02*
X39452D01*
X38952Y-7208D02*
Y-6208D01*
X77528Y-8661D02*
X78528D01*
X78028Y-9161D02*
Y-8161D01*
X65871Y-8498D02*
X66871D01*
X66371Y-8998D02*
Y-7998D01*
X71566Y-8498D02*
X72566D01*
X72066Y-8998D02*
Y-7998D01*
X53352Y-8335D02*
X54352D01*
X53852Y-8835D02*
Y-7835D01*
X47656Y-8335D02*
X48656D01*
X48156Y-8835D02*
Y-7835D01*
X59314Y-8498D02*
X60314D01*
X59814Y-8998D02*
Y-7998D01*
X129300Y-8825D02*
X130300D01*
X129800Y-9325D02*
Y-8325D01*
X117642Y-8661D02*
X118642D01*
X118142Y-9161D02*
Y-8161D01*
X123338Y-8661D02*
X124338D01*
X123838Y-9161D02*
Y-8161D01*
X141552Y-8825D02*
X142552D01*
X142052Y-9325D02*
Y-8325D01*
X135857Y-8825D02*
X136857D01*
X136357Y-9325D02*
Y-8325D01*
X147124Y-8988D02*
X148124D01*
X147624Y-9488D02*
Y-8488D01*
X94041Y-8825D02*
X95041D01*
X94541Y-9325D02*
Y-8325D01*
X82384Y-8661D02*
X83384D01*
X82884Y-9161D02*
Y-8161D01*
X88079Y-8661D02*
X89079D01*
X88579Y-9161D02*
Y-8161D01*
X106293Y-8825D02*
X107293D01*
X106793Y-9325D02*
Y-8325D01*
X100598Y-8825D02*
X101598D01*
X101098Y-9325D02*
Y-8325D01*
X112256Y-8988D02*
X113256D01*
X112756Y-9488D02*
Y-8488D01*
X181857Y-9151D02*
X182857D01*
X182357Y-9651D02*
Y-8651D01*
X170199Y-8988D02*
X171199D01*
X170699Y-9488D02*
Y-8488D01*
X175894Y-8988D02*
X176894D01*
X176394Y-9488D02*
Y-8488D01*
X157680Y-8825D02*
X158680D01*
X158180Y-9325D02*
Y-8325D01*
X151985Y-8825D02*
X152985D01*
X152485Y-9325D02*
Y-8325D01*
X163643Y-8988D02*
X164643D01*
X164143Y-9488D02*
Y-8488D01*
X217115Y-9151D02*
X218115D01*
X217615Y-9651D02*
Y-8651D01*
X205458Y-8988D02*
X206458D01*
X205958Y-9488D02*
Y-8488D01*
X211153Y-8988D02*
X212153D01*
X211653Y-9488D02*
Y-8488D01*
X192939Y-8825D02*
X193939D01*
X193439Y-9325D02*
Y-8325D01*
X187244Y-8825D02*
X188244D01*
X187744Y-9325D02*
Y-8325D01*
X198901Y-8988D02*
X199901D01*
X199401Y-9488D02*
Y-8488D01*
X251712Y-8988D02*
X252712D01*
X252212Y-9488D02*
Y-8488D01*
X240054Y-8825D02*
X241054D01*
X240554Y-9325D02*
Y-8325D01*
X245750Y-8825D02*
X246750D01*
X246250Y-9325D02*
Y-8325D01*
X227536Y-8661D02*
X228536D01*
X228036Y-9161D02*
Y-8161D01*
X221840Y-8661D02*
X222840D01*
X222340Y-9161D02*
Y-8161D01*
X233498Y-8825D02*
X234498D01*
X233998Y-9325D02*
Y-8325D01*
X286150Y-9151D02*
X287150D01*
X286649Y-9651D02*
Y-8651D01*
X274492Y-8988D02*
X275492D01*
X274992Y-9488D02*
Y-8488D01*
X280187Y-8988D02*
X281187D01*
X280687Y-9488D02*
Y-8488D01*
X262715Y-8988D02*
X263715D01*
X263215Y-9488D02*
Y-8488D01*
X257019Y-8988D02*
X258019D01*
X257520Y-9488D02*
Y-8488D01*
X268677Y-9151D02*
X269677D01*
X269177Y-9651D02*
Y-8651D01*
X320471Y-9315D02*
X321471D01*
X320971Y-9815D02*
Y-8815D01*
X308813Y-9151D02*
X309813D01*
X309313Y-9651D02*
Y-8651D01*
X314508Y-9151D02*
X315508D01*
X315008Y-9651D02*
Y-8651D01*
X296294Y-8988D02*
X297294D01*
X296794Y-9488D02*
Y-8488D01*
X290599Y-8988D02*
X291599D01*
X291099Y-9488D02*
Y-8488D01*
X302256Y-9151D02*
X303256D01*
X302756Y-9651D02*
Y-8651D01*
X355405Y-9478D02*
X356405D01*
X355905Y-9978D02*
Y-8978D01*
X343748Y-9315D02*
X344748D01*
X344248Y-9815D02*
Y-8815D01*
X349443Y-9315D02*
X350443D01*
X349943Y-9815D02*
Y-8815D01*
X331229Y-9151D02*
X332229D01*
X331729Y-9651D02*
Y-8651D01*
X325534Y-9151D02*
X326534D01*
X326034Y-9651D02*
Y-8651D01*
X337191Y-9315D02*
X338191D01*
X337691Y-9815D02*
Y-8815D01*
X372034Y-9478D02*
X373034D01*
X372534Y-9978D02*
Y-8978D01*
X360376Y-9315D02*
X361376D01*
X360876Y-9815D02*
Y-8815D01*
X366072Y-9315D02*
X367072D01*
X366572Y-9815D02*
Y-8815D01*
X384286Y-9478D02*
X385286D01*
X384786Y-9978D02*
Y-8978D01*
X378590Y-9478D02*
X379591D01*
X379090Y-9978D02*
Y-8978D01*
X390248Y-9641D02*
X391248D01*
X390748Y-10141D02*
Y-9141D01*
X396285Y-23191D02*
X397285D01*
X396785Y-23691D02*
Y-22691D01*
X396285Y-17496D02*
X397285D01*
X396785Y-17996D02*
Y-16996D01*
X396121Y-29153D02*
X397121D01*
X396621Y-29653D02*
Y-28653D01*
X396121Y-87374D02*
X397121D01*
X396621Y-87874D02*
Y-86874D01*
X396285Y-69957D02*
X397285D01*
X396785Y-70457D02*
Y-69457D01*
X396285Y-64262D02*
X397285D01*
X396785Y-64762D02*
Y-63762D01*
X396121Y-75920D02*
X397121D01*
X396621Y-76420D02*
Y-75420D01*
X396121Y-81615D02*
X397121D01*
X396621Y-82115D02*
Y-81115D01*
X396064Y-53074D02*
X397064D01*
X396564Y-53574D02*
Y-52574D01*
X396064Y-47378D02*
X397064D01*
X396564Y-47878D02*
Y-46878D01*
X396228Y-35721D02*
X397228D01*
X396728Y-36221D02*
Y-35221D01*
X396228Y-41416D02*
X397228D01*
X396728Y-41916D02*
Y-40916D01*
X396064Y-58833D02*
X397064D01*
X396564Y-59333D02*
Y-58333D01*
X396850Y-164961D02*
X397850D01*
X397351Y-165461D02*
Y-164461D01*
X397014Y-147544D02*
X398014D01*
X397514Y-148044D02*
Y-147044D01*
X397014Y-141849D02*
X398014D01*
X397514Y-142349D02*
Y-141349D01*
X396850Y-153506D02*
X397850D01*
X397351Y-154006D02*
Y-153006D01*
X396850Y-159201D02*
X397850D01*
X397351Y-159701D02*
Y-158701D01*
X396744Y-259369D02*
X397744D01*
X397244Y-259869D02*
Y-258869D01*
X396744Y-253674D02*
X397744D01*
X397244Y-254174D02*
Y-253174D01*
X396907Y-242016D02*
X397907D01*
X397407Y-242516D02*
Y-241516D01*
X396907Y-247712D02*
X397907D01*
X397407Y-248212D02*
Y-247212D01*
X397071Y-224600D02*
X398071D01*
X397571Y-225100D02*
Y-224100D01*
X397071Y-218904D02*
X398071D01*
X397571Y-219404D02*
Y-218404D01*
X396907Y-230562D02*
X397907D01*
X397407Y-231062D02*
Y-230062D01*
X396907Y-236257D02*
X397907D01*
X397407Y-236757D02*
Y-235757D01*
X396907Y-187743D02*
X397907D01*
X397407Y-188243D02*
Y-187243D01*
X396907Y-182047D02*
X397907D01*
X397407Y-182547D02*
Y-181547D01*
X397071Y-170390D02*
X398071D01*
X397571Y-170890D02*
Y-169890D01*
X397071Y-176085D02*
X398071D01*
X397571Y-176585D02*
Y-175585D01*
X396907Y-199197D02*
X397907D01*
X397407Y-199697D02*
Y-198697D01*
X396907Y-193502D02*
X397907D01*
X397407Y-194002D02*
Y-193002D01*
X396744Y-205159D02*
X397744D01*
X397244Y-205660D02*
Y-204660D01*
X396744Y-210855D02*
X397744D01*
X397244Y-211355D02*
Y-210355D01*
X396744Y-307922D02*
X397744D01*
X397244Y-308422D02*
Y-307422D01*
X396744Y-302226D02*
X397744D01*
X397244Y-302726D02*
Y-301726D01*
X396907Y-290569D02*
X397907D01*
X397407Y-291069D02*
Y-290069D01*
X396907Y-296264D02*
X397907D01*
X397407Y-296764D02*
Y-295764D01*
X397071Y-273152D02*
X398071D01*
X397571Y-273652D02*
Y-272652D01*
X397071Y-267457D02*
X398071D01*
X397571Y-267957D02*
Y-266957D01*
X396907Y-279114D02*
X397907D01*
X397407Y-279614D02*
Y-278614D01*
X396907Y-284810D02*
X397907D01*
X397407Y-285310D02*
Y-284310D01*
X396907Y-333324D02*
X397907D01*
X397407Y-333824D02*
Y-332824D01*
X396907Y-327629D02*
X397907D01*
X397407Y-328129D02*
Y-327129D01*
X397071Y-315971D02*
X398071D01*
X397571Y-316471D02*
Y-315471D01*
X397071Y-321667D02*
X398071D01*
X397571Y-322167D02*
Y-321167D01*
X396907Y-344779D02*
X397907D01*
X397407Y-345279D02*
Y-344279D01*
X396907Y-339083D02*
X397907D01*
X397407Y-339583D02*
Y-338583D01*
X396744Y-350741D02*
X397744D01*
X397244Y-351241D02*
Y-350241D01*
X396744Y-356436D02*
X397744D01*
X397244Y-356936D02*
Y-355936D01*
X391991Y-361649D02*
X392991D01*
X392491Y-362149D02*
Y-361149D01*
X338774Y-362640D02*
X339774D01*
X339274Y-363140D02*
Y-362140D01*
X332444Y-362570D02*
X333444D01*
X332944Y-363070D02*
Y-362070D01*
X328460Y-362640D02*
X329460D01*
X328960Y-363140D02*
Y-362140D01*
X324401Y-362687D02*
X325401D01*
X324901Y-363187D02*
Y-362187D01*
X319508Y-362621D02*
X320508D01*
X320008Y-363121D02*
Y-362121D01*
X315064Y-362532D02*
X316064D01*
X315564Y-363032D02*
Y-362032D01*
X310900Y-362455D02*
X311900D01*
X311401Y-362955D02*
Y-361955D01*
X306119Y-362271D02*
X307119D01*
X306619Y-362772D02*
Y-361771D01*
X301251Y-362212D02*
X302251D01*
X301751Y-362712D02*
Y-361712D01*
X279766Y-368817D02*
X280766D01*
X280266Y-369317D02*
Y-368317D01*
X279483Y-373088D02*
X280483D01*
X279983Y-373588D02*
Y-372588D01*
X279647Y-377014D02*
X280647D01*
X280147Y-377514D02*
Y-376514D01*
X279294Y-380669D02*
X280294D01*
X279794Y-381169D02*
Y-380169D01*
X279294Y-384202D02*
X280294D01*
X279794Y-384702D02*
Y-383702D01*
X230613Y-384968D02*
X231613D01*
X231113Y-385468D02*
Y-384468D01*
X226676Y-385215D02*
X227676D01*
X227176Y-385715D02*
Y-384715D01*
X201153Y-385497D02*
X202153D01*
X201653Y-385997D02*
Y-384997D01*
X199411Y-381890D02*
X200411D01*
X199911Y-382390D02*
Y-381390D01*
X195437Y-379879D02*
X196437D01*
X195937Y-380379D02*
Y-379379D01*
X174640Y-384968D02*
X175640D01*
X175140Y-385468D02*
Y-384468D01*
X170690Y-385147D02*
X171690D01*
X171190Y-385647D02*
Y-384647D01*
X166657Y-385095D02*
X167657D01*
X167157Y-385595D02*
Y-384595D01*
X147757Y-366208D02*
X148757D01*
X148257Y-366708D02*
Y-365708D01*
X131466Y-366734D02*
X132466D01*
X131966Y-367234D02*
Y-366234D01*
X130238Y-371300D02*
X131238D01*
X130738Y-371800D02*
Y-370800D01*
X129773Y-376448D02*
X130773D01*
X130273Y-376948D02*
Y-375948D01*
X129604Y-380669D02*
X130604D01*
X130104Y-381169D02*
Y-380169D01*
X125553Y-380669D02*
X126553D01*
X126053Y-381169D02*
Y-380169D01*
X120429Y-380669D02*
X121429D01*
X120929Y-381169D02*
Y-380169D01*
X115901Y-380669D02*
X116901D01*
X116401Y-381169D02*
Y-380169D01*
X110503Y-380600D02*
X111503D01*
X111003Y-381100D02*
Y-380100D01*
X106056Y-379939D02*
X107056D01*
X106556Y-380438D02*
Y-379438D01*
X106056Y-375856D02*
X107056D01*
X106556Y-376357D02*
Y-375357D01*
X105939Y-371847D02*
X106939D01*
X106439Y-372347D02*
Y-371347D01*
X105901Y-367722D02*
X106901D01*
X106401Y-368222D02*
Y-367222D01*
X224834Y-157710D02*
X225834D01*
X225334Y-158210D02*
Y-157210D01*
X213182Y-249720D02*
X214182D01*
X213683Y-250220D02*
Y-249220D01*
X209609Y-246903D02*
X210609D01*
X210109Y-247404D02*
Y-246404D01*
X205450Y-246457D02*
X206450D01*
X205950Y-246957D02*
Y-245957D01*
X237430Y-145060D02*
X238430D01*
X237930Y-145560D02*
Y-144560D01*
X259953Y-168352D02*
X260953D01*
X260453Y-168852D02*
Y-167852D01*
X337436Y-326311D02*
X338436D01*
X337936Y-326811D02*
Y-325811D01*
X234283Y-154560D02*
X235283D01*
X234783Y-155060D02*
Y-154060D01*
X247325Y-153481D02*
X248325D01*
X247825Y-153981D02*
Y-152981D01*
X247508Y-357850D02*
X248508D01*
X248008Y-358349D02*
Y-357349D01*
X269830Y-361496D02*
X270830D01*
X270329Y-361996D02*
Y-360996D01*
X208622Y-191153D02*
X209622D01*
X209122Y-191653D02*
Y-190653D01*
X253356Y-268052D02*
X254356D01*
X253856Y-268552D02*
Y-267552D01*
X334302Y-335881D02*
X335302D01*
X334802Y-336381D02*
Y-335381D01*
X338514Y-334457D02*
X339514D01*
X339014Y-334957D02*
Y-333957D01*
X362039Y-335291D02*
X363039D01*
X362539Y-335791D02*
Y-334791D01*
X364962Y-330994D02*
X365962D01*
X365461Y-331493D02*
Y-330493D01*
X368172Y-327669D02*
X369172D01*
X368672Y-328169D02*
Y-327169D01*
X360329Y-327556D02*
X361329D01*
X360829Y-328056D02*
Y-327056D01*
X378553Y-341791D02*
X379553D01*
X379053Y-342291D02*
Y-341291D01*
X327730Y-332455D02*
X328730D01*
X328230Y-332955D02*
Y-331955D01*
X239410Y-180889D02*
X240410D01*
X239910Y-181389D02*
Y-180389D01*
X221179Y-128740D02*
X222179D01*
X221679Y-129240D02*
Y-128240D01*
X246435Y-147660D02*
X247435D01*
X246936Y-148160D02*
Y-147160D01*
X249902Y-160254D02*
X250902D01*
X250402Y-160754D02*
Y-159754D01*
X215845Y-190986D02*
X216845D01*
X216345Y-191486D02*
Y-190486D01*
X234087Y-145060D02*
X235087D01*
X234587Y-145560D02*
Y-144560D01*
X174472Y-166953D02*
X175472D01*
X174972Y-167453D02*
Y-166453D01*
X234232Y-157710D02*
X235232D01*
X234732Y-158210D02*
Y-157210D01*
X306784Y-278389D02*
X307784D01*
X307283Y-278889D02*
Y-277888D01*
X302911Y-272515D02*
X303911D01*
X303411Y-273015D02*
Y-272015D01*
X258457Y-109652D02*
X259457D01*
X258957Y-110152D02*
Y-109152D01*
X260917Y-109396D02*
X261917D01*
X261417Y-109896D02*
Y-108896D01*
X174452Y-220755D02*
X175452D01*
X174952Y-221255D02*
Y-220255D01*
X307155Y-203795D02*
X308155D01*
X307655Y-204295D02*
Y-203295D01*
X305405Y-196908D02*
X306405D01*
X305906Y-197408D02*
Y-196408D01*
X312764Y-193483D02*
X313764D01*
X313264Y-193983D02*
Y-192983D01*
X278855Y-155205D02*
X279855D01*
X279355Y-155705D02*
Y-154705D01*
X283197Y-136760D02*
X284197D01*
X283697Y-137260D02*
Y-136260D01*
X271896Y-101538D02*
X272896D01*
X272396Y-102038D02*
Y-101038D01*
X252087Y-89078D02*
X253087D01*
X252588Y-89578D02*
Y-88578D01*
X239012Y-90216D02*
X240012D01*
X239512Y-90716D02*
Y-89717D01*
X228256Y-91024D02*
X229256D01*
X228756Y-91524D02*
Y-90524D01*
X223476Y-85052D02*
X224476D01*
X223976Y-85552D02*
Y-84552D01*
X162921Y-85094D02*
X163921D01*
X163421Y-85594D02*
Y-84594D01*
X247543Y-137854D02*
X248543D01*
X248043Y-138354D02*
Y-137354D01*
X221684Y-135660D02*
X222684D01*
X222184Y-136160D02*
Y-135160D01*
X215334Y-151410D02*
X216334D01*
X215834Y-151910D02*
Y-150910D01*
X215426Y-148265D02*
X216426D01*
X215926Y-148765D02*
Y-147765D01*
X215519Y-145112D02*
X216519D01*
X216019Y-145612D02*
Y-144612D01*
X215542Y-141935D02*
X216542D01*
X216042Y-142435D02*
Y-141435D01*
X209086Y-145110D02*
X210086D01*
X209586Y-145610D02*
Y-144610D01*
X225061Y-164013D02*
X226061D01*
X225561Y-164513D02*
Y-163513D01*
X221806Y-157764D02*
X222806D01*
X222306Y-158264D02*
Y-157264D01*
X221885Y-160843D02*
X222885D01*
X222385Y-161343D02*
Y-160343D01*
X221832Y-163974D02*
X222832D01*
X222333Y-164474D02*
Y-163475D01*
X258929Y-205985D02*
X259929D01*
X259429Y-206485D02*
Y-205485D01*
X221869Y-145255D02*
X222869D01*
X222369Y-145755D02*
Y-144755D01*
X208368Y-224134D02*
X209368D01*
X208868Y-224634D02*
Y-223634D01*
X203126Y-233508D02*
X204126D01*
X203626Y-234008D02*
Y-233008D01*
X203063Y-229389D02*
X204063D01*
X203563Y-229889D02*
Y-228889D01*
X297544Y-170847D02*
X298544D01*
X298044Y-171347D02*
Y-170347D01*
X251194Y-343352D02*
X252194D01*
X251694Y-343851D02*
Y-342851D01*
X266252Y-347308D02*
X267252D01*
X266752Y-347808D02*
Y-346808D01*
X255434Y-356322D02*
X256434D01*
X255934Y-356822D02*
Y-355822D01*
X256317Y-349821D02*
X257317D01*
X256817Y-350321D02*
Y-349321D01*
X228702Y-336708D02*
X229702D01*
X229202Y-337208D02*
Y-336208D01*
X182211Y-261963D02*
X183211D01*
X182711Y-262463D02*
Y-261463D01*
X199436Y-243463D02*
X200436D01*
X199936Y-243963D02*
Y-242963D01*
X191241Y-250590D02*
X192241D01*
X191741Y-251091D02*
Y-250091D01*
X207382Y-254396D02*
X208382D01*
X207882Y-254896D02*
Y-253896D01*
X207362Y-258136D02*
X208362D01*
X207862Y-258636D02*
Y-257636D01*
X208169Y-261752D02*
X209169D01*
X208669Y-262252D02*
Y-261252D01*
X210327Y-258543D02*
X211327D01*
X210827Y-259043D02*
Y-258043D01*
X328673Y-299572D02*
X329673D01*
X329173Y-300072D02*
Y-299072D01*
X333279Y-302450D02*
X334279D01*
X333779Y-302950D02*
Y-301950D01*
X319250Y-305212D02*
X320250D01*
X319750Y-305712D02*
Y-304712D01*
X322018Y-298716D02*
X323018D01*
X322518Y-299216D02*
Y-298216D01*
X332662Y-313632D02*
X333662D01*
X333162Y-314132D02*
Y-313132D01*
X330471Y-316191D02*
X331471D01*
X330972Y-316691D02*
Y-315691D01*
X330592Y-320204D02*
X331592D01*
X331091Y-320704D02*
Y-319704D01*
X330383Y-329109D02*
X331383D01*
X330884Y-329608D02*
Y-328608D01*
X364962Y-321703D02*
X365962D01*
X365461Y-322203D02*
Y-321203D01*
X370940Y-297624D02*
X371940D01*
X371440Y-298124D02*
Y-297124D01*
X365133Y-308393D02*
X366133D01*
X365633Y-308893D02*
Y-307893D01*
X365283Y-311794D02*
X366283D01*
X365782Y-312294D02*
Y-311294D01*
X365266Y-314993D02*
X366266D01*
X365766Y-315493D02*
Y-314493D01*
X373802Y-312844D02*
X374802D01*
X374302Y-313345D02*
Y-312345D01*
X374571Y-316350D02*
X375571D01*
X375071Y-316850D02*
Y-315850D01*
X384484Y-314419D02*
X385484D01*
X384984Y-314919D02*
Y-313919D01*
X375287Y-309672D02*
X376287D01*
X375787Y-310173D02*
Y-309173D01*
X389352Y-309672D02*
X390353D01*
X389852Y-310173D02*
Y-309173D01*
X384662Y-299789D02*
X385662D01*
X385162Y-300289D02*
Y-299289D01*
X274208Y-112281D02*
X275208D01*
X274709Y-112781D02*
Y-111781D01*
X267855Y-91929D02*
X268855D01*
X268355Y-92429D02*
Y-91429D01*
X267664Y-96150D02*
X268664D01*
X268164Y-96650D02*
Y-95650D01*
X274689Y-99969D02*
X275689D01*
X275189Y-100469D02*
Y-99469D01*
X286150Y-81683D02*
X287150D01*
X286649Y-82183D02*
Y-81183D01*
X170857Y-161135D02*
X171857D01*
X171357Y-161635D02*
Y-160635D01*
X180512Y-213536D02*
X181512D01*
X181012Y-214036D02*
Y-213036D01*
X180586Y-206162D02*
X181586D01*
X181086Y-206662D02*
Y-205662D01*
X183872Y-144724D02*
X184872D01*
X184372Y-145224D02*
Y-144224D01*
X184007Y-136862D02*
X185007D01*
X184507Y-137362D02*
Y-136362D01*
X185130Y-158444D02*
X186130D01*
X185630Y-158944D02*
Y-157945D01*
X174523Y-158117D02*
X175523D01*
X175023Y-158617D02*
Y-157617D01*
X182411Y-94366D02*
X183411D01*
X182911Y-94866D02*
Y-93866D01*
X191465Y-62874D02*
X192465D01*
X191965Y-63374D02*
Y-62374D01*
X185053Y-62697D02*
X186053D01*
X185553Y-63197D02*
Y-62197D01*
X217728Y-175651D02*
X218728D01*
X218228Y-176151D02*
Y-175151D01*
X215540Y-164090D02*
X216540D01*
X216040Y-164590D02*
Y-163590D01*
X221815Y-154589D02*
X222815D01*
X222315Y-155089D02*
Y-154089D01*
X225041Y-148238D02*
X226041D01*
X225541Y-148738D02*
Y-147738D01*
X218354Y-141913D02*
X219354D01*
X218854Y-142413D02*
Y-141413D01*
X237278Y-163721D02*
X238278D01*
X237778Y-164221D02*
Y-163221D01*
X237127Y-166865D02*
X238127D01*
X237627Y-167365D02*
Y-166365D01*
X237144Y-170157D02*
X238144D01*
X237644Y-170657D02*
Y-169657D01*
X257649Y-185159D02*
X258649D01*
X258149Y-185659D02*
Y-184659D01*
X308667Y-127997D02*
X309667D01*
X309167Y-128497D02*
Y-127497D01*
X228331Y-119011D02*
X229331D01*
X228831Y-119511D02*
Y-118511D01*
X239012Y-118424D02*
X240012D01*
X239512Y-118924D02*
Y-117924D01*
X252115Y-117684D02*
X253115D01*
X252615Y-118184D02*
Y-117184D01*
X252007Y-134224D02*
X253007D01*
X252507Y-134724D02*
Y-133724D01*
X260296Y-165426D02*
X261296D01*
X260796Y-165926D02*
Y-164926D01*
X204154Y-183532D02*
X205154D01*
X204654Y-184032D02*
Y-183032D01*
X204229Y-186685D02*
X205229D01*
X204729Y-187185D02*
Y-186185D01*
X205552Y-189370D02*
X206552D01*
X206052Y-189870D02*
Y-188870D01*
X206118Y-169795D02*
X207119D01*
X206618Y-170295D02*
Y-169295D01*
X215149Y-170042D02*
X216149D01*
X215649Y-170542D02*
Y-169542D01*
X216160Y-128549D02*
X217160D01*
X216660Y-129049D02*
Y-128049D01*
X191381Y-219778D02*
X192381D01*
X191881Y-220278D02*
Y-219278D01*
X199603Y-228078D02*
X200603D01*
X200103Y-228578D02*
Y-227578D01*
X207821Y-194699D02*
X208821D01*
X208321Y-195199D02*
Y-194199D01*
X207872Y-220035D02*
X208872D01*
X208372Y-220535D02*
Y-219535D01*
X215365Y-194626D02*
X216365D01*
X215865Y-195126D02*
Y-194126D01*
X215604Y-220617D02*
X216604D01*
X216104Y-221117D02*
Y-220117D01*
X220159Y-194318D02*
X221159D01*
X220659Y-194818D02*
Y-193818D01*
X220265Y-224956D02*
X221265D01*
X220765Y-225456D02*
Y-224456D01*
X223907Y-224862D02*
X224907D01*
X224407Y-225362D02*
Y-224362D01*
X223419Y-213790D02*
X224419D01*
X223919Y-214290D02*
Y-213290D01*
X223800Y-194690D02*
X224800D01*
X224301Y-195190D02*
Y-194190D01*
X223481Y-205852D02*
X224481D01*
X223981Y-206352D02*
Y-205352D01*
X227438Y-194164D02*
X228438D01*
X227938Y-194664D02*
Y-193664D01*
X242150Y-193418D02*
X243150D01*
X242650Y-193918D02*
Y-192918D01*
X248726Y-197047D02*
X249726D01*
X249226Y-197547D02*
Y-196547D01*
X252162Y-208359D02*
X253162D01*
X252662Y-208859D02*
Y-207859D01*
X251604Y-197770D02*
X252604D01*
X252104Y-198270D02*
Y-197270D01*
X252115Y-215411D02*
X253115D01*
X252615Y-215911D02*
Y-214911D01*
X254618Y-222767D02*
X255618D01*
X255118Y-223267D02*
Y-222267D01*
X251565Y-230062D02*
X252565D01*
X252065Y-230562D02*
Y-229562D01*
X248687Y-230297D02*
X249687D01*
X249187Y-230797D02*
Y-229797D01*
X262571Y-217131D02*
X263571D01*
X263071Y-217631D02*
Y-216631D01*
X261802Y-206237D02*
X262802D01*
X262302Y-206737D02*
Y-205737D01*
X259015Y-229220D02*
X260015D01*
X259515Y-229720D02*
Y-228720D01*
X261894Y-229546D02*
X262894D01*
X262394Y-230046D02*
Y-229046D01*
X294284Y-182159D02*
X295284D01*
X294784Y-182659D02*
Y-181659D01*
X293902Y-171349D02*
X294902D01*
X294402Y-171849D02*
Y-170849D01*
X294413Y-188482D02*
X295413D01*
X294913Y-188982D02*
Y-187982D01*
X294024Y-199487D02*
X295024D01*
X294524Y-199987D02*
Y-198987D01*
X297666Y-199489D02*
X298666D01*
X298166Y-199989D02*
Y-198989D01*
X259510Y-195431D02*
X260510D01*
X260010Y-195931D02*
Y-194931D01*
X259355Y-198309D02*
X260355D01*
X259855Y-198809D02*
Y-197809D01*
X270477Y-198691D02*
X271477D01*
X270976Y-199191D02*
Y-198191D01*
X283533Y-198014D02*
X284533D01*
X284033Y-198514D02*
Y-197514D01*
X283741Y-195136D02*
X284741D01*
X284241Y-195636D02*
Y-194636D01*
X286187Y-174991D02*
X287187D01*
X286687Y-175491D02*
Y-174491D01*
X283724Y-157255D02*
X284724D01*
X284224Y-157755D02*
Y-156755D01*
X283945Y-160134D02*
X284945D01*
X284445Y-160634D02*
Y-159634D01*
X294314Y-160474D02*
X295314D01*
X294814Y-160974D02*
Y-159974D01*
X307326Y-159643D02*
X308326D01*
X307826Y-160143D02*
Y-159143D01*
X311028Y-148359D02*
X312028D01*
X311528Y-148859D02*
Y-147859D01*
X307155Y-156765D02*
X308155D01*
X307655Y-157265D02*
Y-156265D01*
X310656Y-152001D02*
X311656D01*
X311156Y-152501D02*
Y-151501D01*
X300523Y-151713D02*
X301523D01*
X301023Y-152213D02*
Y-151213D01*
X294413Y-151789D02*
X295413D01*
X294913Y-152289D02*
Y-151289D01*
X283407Y-152001D02*
X284407D01*
X283907Y-152501D02*
Y-151501D01*
X283264Y-148359D02*
X284264D01*
X283764Y-148859D02*
Y-147859D01*
X277052Y-161035D02*
X278052D01*
X277553Y-161535D02*
Y-160535D01*
X264107Y-161417D02*
X265107D01*
X264607Y-161917D02*
Y-160917D01*
X253615Y-161080D02*
X254615D01*
X254115Y-161580D02*
Y-160580D01*
X253248Y-158204D02*
X254248D01*
X253748Y-158704D02*
Y-157704D01*
X253397Y-150350D02*
X254397D01*
X253897Y-150850D02*
Y-149850D01*
X252929Y-153228D02*
X253929D01*
X253429Y-153728D02*
Y-152728D01*
X264362Y-153526D02*
X265362D01*
X264862Y-154026D02*
Y-153026D01*
X277415Y-152849D02*
X278415D01*
X277915Y-153349D02*
Y-152349D01*
X277566Y-149971D02*
X278566D01*
X278066Y-150471D02*
Y-149471D01*
X255140Y-100207D02*
X256140D01*
X255640Y-100707D02*
Y-99707D01*
X255498Y-89319D02*
X256498D01*
X255998Y-89819D02*
Y-88819D01*
X235619Y-101389D02*
X236619D01*
X236119Y-101889D02*
Y-100889D01*
X236000Y-90488D02*
X237000D01*
X236501Y-90988D02*
Y-89988D01*
X236134Y-119096D02*
X237134D01*
X236634Y-119596D02*
Y-118596D01*
X235619Y-107078D02*
X236619D01*
X236119Y-107578D02*
Y-106578D01*
X208622Y-93810D02*
X209622D01*
X209122Y-94310D02*
Y-93310D01*
X199632Y-93659D02*
X200632D01*
X200132Y-94159D02*
Y-93159D01*
X202969Y-150895D02*
X203969D01*
X203469Y-151395D02*
Y-150395D01*
X206153Y-150895D02*
X207154D01*
X206653Y-151395D02*
Y-150395D01*
X206153Y-157195D02*
X207154D01*
X206653Y-157695D02*
Y-156695D01*
X206102Y-166645D02*
X207102D01*
X206602Y-167145D02*
Y-166145D01*
X206118Y-163495D02*
X207119D01*
X206618Y-163995D02*
Y-162995D01*
X202969Y-169795D02*
X203969D01*
X203469Y-170295D02*
Y-169295D01*
X202918Y-172945D02*
X203918D01*
X203418Y-173445D02*
Y-172445D01*
X215604Y-227593D02*
X216604D01*
X216104Y-228094D02*
Y-227094D01*
X230574Y-224885D02*
X231574D01*
X231074Y-225385D02*
Y-224385D01*
X231079Y-213052D02*
X232079D01*
X231579Y-213552D02*
Y-212552D01*
X230532Y-205944D02*
X231532D01*
X231032Y-206444D02*
Y-205444D01*
X231079Y-194809D02*
X232079D01*
X231579Y-195309D02*
Y-194309D01*
X212421Y-194664D02*
X213421D01*
X212921Y-195164D02*
Y-194164D01*
X212235Y-205783D02*
X213235D01*
X212735Y-206283D02*
Y-205283D01*
X212869Y-220111D02*
X213869D01*
X213369Y-220611D02*
Y-219611D01*
X204890Y-220125D02*
X205890D01*
X205390Y-220625D02*
Y-219625D01*
X204853Y-194753D02*
X205853D01*
X205353Y-195253D02*
Y-194253D01*
X204330Y-206730D02*
X205330D01*
X204830Y-207230D02*
Y-206230D01*
X196745Y-228183D02*
X197745D01*
X197245Y-228683D02*
Y-227683D01*
X193812Y-220360D02*
X194811D01*
X194311Y-220860D02*
Y-219860D01*
X196286Y-212816D02*
X197286D01*
X196786Y-213316D02*
Y-212316D01*
X194746Y-198567D02*
X195746D01*
X195246Y-199067D02*
Y-198067D01*
X196857Y-206105D02*
X197857D01*
X197357Y-206606D02*
Y-205606D01*
X255196Y-105909D02*
X256196D01*
X255696Y-106409D02*
Y-105409D01*
X255313Y-117684D02*
X256313D01*
X255813Y-118184D02*
Y-117184D01*
X243314Y-100139D02*
X244314D01*
X243814Y-100639D02*
Y-99639D01*
X220216Y-85002D02*
X221216D01*
X220716Y-85502D02*
Y-84502D01*
X213436Y-93443D02*
X214436D01*
X213935Y-93943D02*
Y-92943D01*
X216410Y-93400D02*
X217410D01*
X216910Y-93900D02*
Y-92900D01*
X216273Y-107367D02*
X217273D01*
X216773Y-107867D02*
Y-106867D01*
X205203Y-118499D02*
X206203D01*
X205703Y-118999D02*
Y-117999D01*
X204600Y-107094D02*
X205600D01*
X205100Y-107594D02*
Y-106594D01*
X202673Y-91929D02*
X203673D01*
X203173Y-92429D02*
Y-91429D01*
X196168Y-107794D02*
X197168D01*
X196668Y-108294D02*
Y-107294D01*
X286877Y-132422D02*
X287877D01*
X287377Y-132922D02*
Y-131922D01*
X251851Y-131003D02*
X252851D01*
X252351Y-131503D02*
Y-130503D01*
X263777Y-130946D02*
X264777D01*
X264277Y-131446D02*
Y-130446D01*
X270532Y-130860D02*
X271532D01*
X271032Y-131360D02*
Y-130360D01*
X288409Y-165483D02*
X289409D01*
X288909Y-165983D02*
Y-164983D01*
X209086Y-164010D02*
X210086D01*
X209586Y-164510D02*
Y-163510D01*
X212287Y-164010D02*
X213287D01*
X212787Y-164510D02*
Y-163510D01*
X218586Y-164010D02*
X219586D01*
X219086Y-164510D02*
Y-163510D01*
X231184Y-164010D02*
X232184D01*
X231684Y-164510D02*
Y-163510D01*
X227984Y-164010D02*
X228984D01*
X228484Y-164510D02*
Y-163510D01*
X218535Y-167160D02*
X219535D01*
X219035Y-167660D02*
Y-166660D01*
X215334Y-167160D02*
X216334D01*
X215834Y-167660D02*
Y-166660D01*
X231133Y-170310D02*
X232133D01*
X231633Y-170810D02*
Y-169810D01*
X218535Y-170310D02*
X219535D01*
X219035Y-170810D02*
Y-169810D01*
X212236Y-170310D02*
X213236D01*
X212736Y-170810D02*
Y-169810D01*
X209086Y-154560D02*
X210086D01*
X209586Y-155060D02*
Y-154060D01*
X212287Y-154560D02*
X213287D01*
X212787Y-155060D02*
Y-154060D01*
X215385Y-154560D02*
X216385D01*
X215885Y-155060D02*
Y-154060D01*
X218586Y-154560D02*
X219586D01*
X219086Y-155060D02*
Y-154060D01*
X224885Y-154560D02*
X225885D01*
X225385Y-155060D02*
Y-154060D01*
X231184Y-154560D02*
X232184D01*
X231684Y-155060D02*
Y-154060D01*
X227984Y-154560D02*
X228984D01*
X228484Y-155060D02*
Y-154060D01*
X227933Y-157710D02*
X228932D01*
X228432Y-158210D02*
Y-157210D01*
X231133Y-157710D02*
X232133D01*
X231633Y-158210D02*
Y-157210D01*
X218535Y-157710D02*
X219535D01*
X219035Y-158210D02*
Y-157210D01*
X215334Y-157710D02*
X216334D01*
X215834Y-158210D02*
Y-157210D01*
X212236Y-157710D02*
X213236D01*
X212736Y-158210D02*
Y-157210D01*
X209035Y-157710D02*
X210035D01*
X209535Y-158210D02*
Y-157210D01*
X227933Y-160860D02*
X228932D01*
X228432Y-161360D02*
Y-160360D01*
X231133Y-160860D02*
X232133D01*
X231633Y-161360D02*
Y-160360D01*
X224834Y-160860D02*
X225834D01*
X225334Y-161360D02*
Y-160360D01*
X218535Y-160860D02*
X219535D01*
X219035Y-161360D02*
Y-160360D01*
X215334Y-160860D02*
X216334D01*
X215834Y-161360D02*
Y-160360D01*
X212236Y-160860D02*
X213236D01*
X212736Y-161360D02*
Y-160360D01*
X209035Y-160860D02*
X210035D01*
X209535Y-161360D02*
Y-160360D01*
X212287Y-145110D02*
X213287D01*
X212787Y-145610D02*
Y-144610D01*
X218586Y-145110D02*
X219586D01*
X219086Y-145610D02*
Y-144610D01*
X224885Y-145110D02*
X225885D01*
X225385Y-145610D02*
Y-144610D01*
X231184Y-145110D02*
X232184D01*
X231684Y-145610D02*
Y-144610D01*
X227984Y-145110D02*
X228984D01*
X228484Y-145610D02*
Y-144610D01*
X227933Y-148260D02*
X228932D01*
X228432Y-148760D02*
Y-147760D01*
X231133Y-148260D02*
X232133D01*
X231633Y-148760D02*
Y-147760D01*
X234232Y-148260D02*
X235232D01*
X234732Y-148760D02*
Y-147760D01*
X218535Y-148260D02*
X219535D01*
X219035Y-148760D02*
Y-147760D01*
X212236Y-148260D02*
X213236D01*
X212736Y-148760D02*
Y-147760D01*
X209035Y-148260D02*
X210035D01*
X209535Y-148760D02*
Y-147760D01*
X227933Y-151410D02*
X228932D01*
X228432Y-151910D02*
Y-150910D01*
X231133Y-151410D02*
X232133D01*
X231633Y-151910D02*
Y-150910D01*
X221633Y-151410D02*
X222633D01*
X222133Y-151910D02*
Y-150910D01*
X224834Y-151410D02*
X225834D01*
X225334Y-151910D02*
Y-150910D01*
X218535Y-151410D02*
X219535D01*
X219035Y-151910D02*
Y-150910D01*
X212236Y-151410D02*
X213236D01*
X212736Y-151910D02*
Y-150910D01*
X209035Y-151410D02*
X210035D01*
X209535Y-151910D02*
Y-150910D01*
X209035Y-141960D02*
X210035D01*
X209535Y-142460D02*
Y-141460D01*
X212236Y-141960D02*
X213236D01*
X212736Y-142460D02*
Y-141460D01*
X224834Y-141960D02*
X225834D01*
X225334Y-142460D02*
Y-141460D01*
X234232Y-141960D02*
X235232D01*
X234732Y-142460D02*
Y-141460D01*
X231133Y-141960D02*
X232133D01*
X231633Y-142460D02*
Y-141460D01*
X227933Y-141960D02*
X228932D01*
X228432Y-142460D02*
Y-141460D01*
X237432Y-138810D02*
X238432D01*
X237932Y-139310D02*
Y-138310D01*
X231184Y-135660D02*
X232184D01*
X231684Y-136160D02*
Y-135160D01*
X237484Y-135660D02*
X238484D01*
X237983Y-136160D02*
Y-135160D01*
X202787Y-135660D02*
X203787D01*
X203287Y-136160D02*
Y-135160D01*
X209086Y-135660D02*
X210086D01*
X209586Y-136160D02*
Y-135160D01*
X214376Y-388995D02*
X215376D01*
X214877Y-389495D02*
Y-388495D01*
X216491Y-388741D02*
X217491D01*
X216991Y-389241D02*
Y-388241D01*
X203147Y-388995D02*
X204147D01*
X203647Y-389495D02*
Y-388495D01*
X200665Y-389068D02*
X201665D01*
X201165Y-389567D02*
Y-388567D01*
X279555Y-388650D02*
X280555D01*
X280055Y-389150D02*
Y-388150D01*
X275665Y-388650D02*
X276665D01*
X276165Y-389150D02*
Y-388150D01*
X267880Y-389322D02*
X268880D01*
X268380Y-389822D02*
Y-388822D01*
X263860Y-389472D02*
X264860D01*
X264359Y-389972D02*
Y-388972D01*
X260067Y-389206D02*
X261067D01*
X260567Y-389706D02*
Y-388706D01*
X256210Y-389215D02*
X257210D01*
X256710Y-389716D02*
Y-388716D01*
X252266Y-388650D02*
X253266D01*
X252766Y-389150D02*
Y-388150D01*
X248408Y-389537D02*
X249408D01*
X248908Y-390037D02*
Y-389037D01*
X244270Y-389322D02*
X245270D01*
X244770Y-389822D02*
Y-388822D01*
X240260Y-389022D02*
X241260D01*
X240760Y-389523D02*
Y-388523D01*
X236101Y-389537D02*
X237101D01*
X236601Y-390037D02*
Y-389037D01*
X226976Y-388995D02*
X227976D01*
X227476Y-389495D02*
Y-388495D01*
X223010Y-388650D02*
X224010D01*
X223510Y-389150D02*
Y-388150D01*
X232358Y-388995D02*
X233358D01*
X232858Y-389495D02*
Y-388495D01*
X356770Y-363011D02*
X357770D01*
X357270Y-363511D02*
Y-362511D01*
X353020Y-362917D02*
X354020D01*
X353520Y-363417D02*
Y-362417D01*
X348389Y-363011D02*
X349389D01*
X348889Y-363511D02*
Y-362511D01*
X344324Y-363011D02*
X345324D01*
X344824Y-363511D02*
Y-362511D01*
X386318Y-362917D02*
X387318D01*
X386818Y-363417D02*
Y-362417D01*
X379094Y-362701D02*
X380094D01*
X379594Y-363201D02*
Y-362201D01*
X372728Y-362792D02*
X373728D01*
X373228Y-363292D02*
Y-362292D01*
X361061Y-362554D02*
X362061D01*
X361561Y-363054D02*
Y-362054D01*
X367366Y-362701D02*
X368366D01*
X367865Y-363201D02*
Y-362201D01*
X324377Y-316350D02*
X325377D01*
X324877Y-316850D02*
Y-315850D01*
X324377Y-311842D02*
X325377D01*
X324877Y-312342D02*
Y-311342D01*
X324166Y-326609D02*
X325166D01*
X324666Y-327109D02*
Y-326109D01*
X324179Y-323694D02*
X325179D01*
X324679Y-324194D02*
Y-323194D01*
X300437Y-333251D02*
X301437D01*
X300937Y-333751D02*
Y-332751D01*
X237695Y-369505D02*
X238695D01*
X238195Y-370005D02*
Y-369005D01*
X237695Y-362687D02*
X238695D01*
X238195Y-363187D02*
Y-362187D01*
X236986Y-367034D02*
X237986D01*
X237487Y-367534D02*
Y-366534D01*
X236986Y-364934D02*
X237986D01*
X237487Y-365434D02*
Y-364434D01*
X258985Y-341370D02*
X259985D01*
X259485Y-341870D02*
Y-340870D01*
X264140Y-344681D02*
X265140D01*
X264640Y-345181D02*
Y-344181D01*
X180362Y-368163D02*
X181362D01*
X180862Y-368663D02*
Y-367663D01*
X180860Y-361749D02*
X181860D01*
X181360Y-362249D02*
Y-361249D01*
X194443Y-362968D02*
X195443D01*
X194943Y-363468D02*
Y-362468D01*
X195928Y-361483D02*
X196928D01*
X196428Y-361983D02*
Y-360983D01*
X295652Y-331052D02*
X296652D01*
X296152Y-331552D02*
Y-330552D01*
X292321Y-331271D02*
X293321D01*
X292821Y-331771D02*
Y-330771D01*
X294637Y-333003D02*
X295637D01*
X295137Y-333503D02*
Y-332503D01*
X223084Y-363878D02*
X224084D01*
X223584Y-364377D02*
Y-363377D01*
X272703Y-358419D02*
X273703D01*
X273203Y-358919D02*
Y-357919D01*
X273088Y-348213D02*
X274088D01*
X273588Y-348713D02*
Y-347713D01*
X272901Y-344331D02*
X273901D01*
X273401Y-344830D02*
Y-343830D01*
X277682Y-333251D02*
X278682D01*
X278182Y-333751D02*
Y-332751D01*
X263826Y-333539D02*
X264826D01*
X264327Y-334039D02*
Y-333039D01*
X309606Y-337840D02*
X310606D01*
X310106Y-338340D02*
Y-337340D01*
X288707Y-332718D02*
X289707D01*
X289207Y-333218D02*
Y-332218D01*
X282436Y-338572D02*
X283436D01*
X282937Y-339072D02*
Y-338072D01*
X280925Y-340958D02*
X281925D01*
X281424Y-341458D02*
Y-340458D01*
X280783Y-347243D02*
X281783D01*
X281283Y-347743D02*
Y-346743D01*
X280665Y-353315D02*
X281665D01*
X281165Y-353815D02*
Y-352815D01*
X290021Y-359292D02*
X291021D01*
X290521Y-359792D02*
Y-358792D01*
X280193Y-357604D02*
X281193D01*
X280693Y-358104D02*
Y-357104D01*
X293468Y-358602D02*
X294468D01*
X293969Y-359102D02*
Y-358102D01*
X301070Y-311263D02*
X302070D01*
X301570Y-311763D02*
Y-310763D01*
X309647Y-356589D02*
X310647D01*
X310147Y-357089D02*
Y-356089D01*
X309212Y-352881D02*
X310212D01*
X309712Y-353380D02*
Y-352380D01*
X310718Y-341037D02*
X311718D01*
X311217Y-341537D02*
Y-340537D01*
X310900Y-347020D02*
X311900D01*
X311401Y-347520D02*
Y-346520D01*
X300665Y-346018D02*
X301665D01*
X301166Y-346517D02*
Y-345517D01*
X290429Y-346018D02*
X291429D01*
X290929Y-346517D02*
Y-345517D01*
X295547Y-340899D02*
X296547D01*
X296047Y-341399D02*
Y-340399D01*
X295547Y-346018D02*
X296547D01*
X296047Y-346517D02*
Y-345517D01*
X295547Y-351136D02*
X296547D01*
X296047Y-351636D02*
Y-350636D01*
X211141Y-294586D02*
X212141D01*
X211641Y-295086D02*
Y-294086D01*
X188292Y-220203D02*
X189292D01*
X188792Y-220703D02*
Y-219703D01*
X182992Y-167584D02*
X183993D01*
X183493Y-168084D02*
Y-167084D01*
X180110Y-167537D02*
X181110D01*
X180610Y-168037D02*
Y-167037D01*
X288710Y-187161D02*
X289710D01*
X289210Y-187661D02*
Y-186661D01*
X256511Y-240687D02*
X257511D01*
X257011Y-241188D02*
Y-240188D01*
X348344Y-174648D02*
X349344D01*
X348844Y-175148D02*
Y-174148D01*
X395428Y-135441D02*
X396428D01*
X395928Y-135941D02*
Y-134941D01*
X302408Y-285560D02*
X303408D01*
X302908Y-286060D02*
Y-285060D01*
X264140Y-250783D02*
X265140D01*
X264640Y-251283D02*
Y-250283D01*
X267555Y-246625D02*
X268555D01*
X268055Y-247125D02*
Y-246125D01*
X257194Y-245298D02*
X258194D01*
X257694Y-245797D02*
Y-244797D01*
X213218Y-363755D02*
X214218D01*
X213718Y-364255D02*
Y-363255D01*
X203147Y-359353D02*
X204147D01*
X203647Y-359853D02*
Y-358853D01*
X164466Y-354306D02*
X165466D01*
X164966Y-354806D02*
Y-353806D01*
X279021Y-298977D02*
X280021D01*
X279521Y-299477D02*
Y-298477D01*
X279507Y-301744D02*
X280507D01*
X280008Y-302244D02*
Y-301244D01*
X194070Y-273535D02*
X195070D01*
X194570Y-274035D02*
Y-273035D01*
X169696Y-301366D02*
X170696D01*
X170196Y-301866D02*
Y-300866D01*
X205293Y-276601D02*
X206293D01*
X205793Y-277101D02*
Y-276101D01*
X215193Y-269854D02*
X216193D01*
X215692Y-270354D02*
Y-269354D01*
X204362Y-362861D02*
X205362D01*
X204862Y-363361D02*
Y-362361D01*
X170948Y-372692D02*
X171948D01*
X171448Y-373192D02*
Y-372192D01*
X187355Y-374414D02*
X188355D01*
X187855Y-374914D02*
Y-373914D01*
X207474Y-295971D02*
X208474D01*
X207974Y-296472D02*
Y-295472D01*
X209986Y-297256D02*
X210986D01*
X210487Y-297756D02*
Y-296756D01*
X167680Y-299057D02*
X168680D01*
X168180Y-299557D02*
Y-298557D01*
X254167Y-265319D02*
X255167D01*
X254667Y-265819D02*
Y-264819D01*
X324969Y-252781D02*
X325969D01*
X325469Y-253281D02*
Y-252281D01*
X319185Y-252543D02*
X320185D01*
X319685Y-253043D02*
Y-252043D01*
X296431Y-251277D02*
X297431D01*
X296931Y-251777D02*
Y-250777D01*
X250713Y-270605D02*
X251713D01*
X251213Y-271105D02*
Y-270105D01*
X250456Y-273252D02*
X251456D01*
X250956Y-273752D02*
Y-272752D01*
X339221Y-158772D02*
X340221D01*
X339721Y-159272D02*
Y-158272D01*
X232502Y-326552D02*
X233502D01*
X233002Y-327051D02*
Y-326051D01*
X184501Y-389254D02*
X185501D01*
X185001Y-389754D02*
Y-388754D01*
X180605Y-389254D02*
X181605D01*
X181105Y-389754D02*
Y-388754D01*
X171785Y-389897D02*
X172785D01*
X172285Y-390397D02*
Y-389397D01*
X161641Y-386167D02*
X162641D01*
X162141Y-386666D02*
Y-385666D01*
X164973Y-388741D02*
X165973D01*
X165473Y-389241D02*
Y-388241D01*
X156747Y-383724D02*
X157747D01*
X157247Y-384225D02*
Y-383225D01*
X153669Y-385305D02*
X154669D01*
X154169Y-385805D02*
Y-384805D01*
X153129Y-383225D02*
X154129D01*
X153629Y-383725D02*
Y-382725D01*
X160041Y-275770D02*
X161041D01*
X160541Y-276270D02*
Y-275270D01*
X180469Y-335299D02*
X181469D01*
X180969Y-335799D02*
Y-334799D01*
X368997Y-321307D02*
X369997D01*
X369497Y-321807D02*
Y-320807D01*
X368660Y-332006D02*
X369660D01*
X369160Y-332506D02*
Y-331506D01*
X262692Y-181745D02*
X263692D01*
X263193Y-182245D02*
Y-181245D01*
X236216Y-347292D02*
X237216D01*
X236716Y-347792D02*
Y-346792D01*
X209760Y-319234D02*
X210760D01*
X210260Y-319734D02*
Y-318734D01*
X239952Y-332460D02*
X240952D01*
X240452Y-332960D02*
Y-331960D01*
X200187Y-317663D02*
X201187D01*
X200687Y-318163D02*
Y-317163D01*
X196433Y-341178D02*
X197433D01*
X196933Y-341678D02*
Y-340678D01*
X196684Y-336277D02*
X197684D01*
X197184Y-336777D02*
Y-335777D01*
X197116Y-323266D02*
X198116D01*
X197616Y-323766D02*
Y-322766D01*
X188539Y-207056D02*
X189539D01*
X189039Y-207556D02*
Y-206556D01*
X189038Y-195329D02*
X190038D01*
X189538Y-195829D02*
Y-194829D01*
X311895Y-93633D02*
X312895D01*
X312395Y-94133D02*
Y-93133D01*
X198713Y-360542D02*
X199713D01*
X199213Y-361042D02*
Y-360042D01*
X191801Y-364557D02*
X192801D01*
X192301Y-365057D02*
Y-364057D01*
X305405Y-122202D02*
X306405D01*
X305906Y-122702D02*
Y-121702D01*
X246895Y-87825D02*
X247895D01*
X247395Y-88325D02*
Y-87325D01*
X172493Y-151789D02*
X173493D01*
X172993Y-152289D02*
Y-151289D01*
X183159Y-151929D02*
X184160D01*
X183660Y-152429D02*
Y-151429D01*
X252031Y-247061D02*
X253031D01*
X252531Y-247561D02*
Y-246561D01*
X284019Y-144173D02*
X285019D01*
X284519Y-144673D02*
Y-143673D01*
X301070Y-320620D02*
X302070D01*
X301570Y-321120D02*
Y-320120D01*
X301012Y-318134D02*
X302012D01*
X301512Y-318634D02*
Y-317634D01*
X301012Y-314382D02*
X302012D01*
X301512Y-314882D02*
Y-313882D01*
X280602Y-315305D02*
X281602D01*
X281102Y-315805D02*
Y-314805D01*
X280602Y-319499D02*
X281602D01*
X281102Y-319999D02*
Y-318999D01*
X280029Y-323793D02*
X281029D01*
X280528Y-324293D02*
Y-323293D01*
X279236Y-327669D02*
X280236D01*
X279736Y-328169D02*
Y-327169D01*
X272819Y-137854D02*
X273819D01*
X273319Y-138354D02*
Y-137354D01*
X215029Y-273303D02*
X216028D01*
X215528Y-273803D02*
Y-272803D01*
X215085Y-275862D02*
X216085D01*
X215585Y-276362D02*
Y-275362D01*
X260241Y-101704D02*
X261241D01*
X260741Y-102204D02*
Y-101204D01*
X270303Y-120461D02*
X271303D01*
X270803Y-120961D02*
Y-119961D01*
X270229Y-124796D02*
X271229D01*
X270729Y-125296D02*
Y-124296D01*
X291014Y-133095D02*
X292014D01*
X291514Y-133595D02*
Y-132595D01*
X291570Y-121944D02*
X292570D01*
X292070Y-122444D02*
Y-121444D01*
X292485Y-105891D02*
X293485D01*
X292985Y-106391D02*
Y-105391D01*
X270786Y-254629D02*
X271786D01*
X271286Y-255129D02*
Y-254129D01*
X226903Y-283729D02*
X227903D01*
X227403Y-284229D02*
Y-283229D01*
X235222Y-241746D02*
X236222D01*
X235722Y-242246D02*
Y-241246D01*
X243678Y-243585D02*
X244678D01*
X244179Y-244085D02*
Y-243085D01*
X239303Y-241739D02*
X240303D01*
X239803Y-242239D02*
Y-241239D01*
X228035Y-242957D02*
X229035D01*
X228535Y-243457D02*
Y-242457D01*
X223682Y-243326D02*
X224682D01*
X224183Y-243826D02*
Y-242826D01*
X215085Y-245920D02*
X216085D01*
X215585Y-246420D02*
Y-245420D01*
X215890Y-253499D02*
X216890D01*
X216390Y-253999D02*
Y-252999D01*
X215372Y-266756D02*
X216372D01*
X215872Y-267256D02*
Y-266256D01*
X222086Y-283834D02*
X223086D01*
X222586Y-284334D02*
Y-283334D01*
X251416Y-259427D02*
X252416D01*
X251916Y-259927D02*
Y-258927D01*
X252812Y-256220D02*
X253812D01*
X253312Y-256720D02*
Y-255720D01*
X252845Y-253126D02*
X253845D01*
X253345Y-253626D02*
Y-252626D01*
X202163Y-281606D02*
X203163D01*
X202663Y-282106D02*
Y-281106D01*
X199436Y-282320D02*
X200436D01*
X199936Y-282820D02*
Y-281820D01*
X199436Y-285492D02*
X200436D01*
X199936Y-285992D02*
Y-284992D01*
X249779Y-314382D02*
X250779D01*
X250279Y-314882D02*
Y-313882D01*
X248953Y-317958D02*
X249953D01*
X249453Y-318458D02*
Y-317458D01*
X249106Y-321292D02*
X250106D01*
X249606Y-321792D02*
Y-320792D01*
X248953Y-325314D02*
X249953D01*
X249453Y-325814D02*
Y-324814D01*
X275262Y-298639D02*
X276262D01*
X275762Y-299139D02*
Y-298139D01*
X279683Y-305039D02*
X280683D01*
X280183Y-305539D02*
Y-304539D01*
X303475Y-295158D02*
X304475D01*
X303975Y-295658D02*
Y-294658D01*
X303475Y-298510D02*
X304475D01*
X303975Y-299010D02*
Y-298010D01*
X301200Y-301739D02*
X302200D01*
X301700Y-302239D02*
Y-301239D01*
X301515Y-304523D02*
X302515D01*
X302015Y-305023D02*
Y-304023D01*
X212565Y-233019D02*
X213565D01*
X213065Y-233520D02*
Y-232520D01*
X213208Y-228609D02*
X214208D01*
X213708Y-229109D02*
Y-228109D01*
X227756Y-225320D02*
X228756D01*
X228256Y-225820D02*
Y-224820D01*
X235818Y-198647D02*
X236818D01*
X236318Y-199147D02*
Y-198147D01*
X236078Y-202232D02*
X237078D01*
X236578Y-202731D02*
Y-201731D01*
X241404Y-223483D02*
X242404D01*
X241904Y-223983D02*
Y-222983D01*
X234912Y-214351D02*
X235912D01*
X235412Y-214850D02*
Y-213850D01*
X235498Y-219705D02*
X236498D01*
X235999Y-220205D02*
Y-219205D01*
X257681Y-188989D02*
X258681D01*
X258181Y-189489D02*
Y-188489D01*
X269895Y-189099D02*
X270895D01*
X270394Y-189599D02*
Y-188599D01*
X279357Y-191960D02*
X280357D01*
X279857Y-192460D02*
Y-191460D01*
X284786Y-191923D02*
X285786D01*
X285285Y-192423D02*
Y-191423D01*
X268218Y-179355D02*
X269218D01*
X268718Y-179855D02*
Y-178855D01*
X278231Y-181372D02*
X279231D01*
X278731Y-181872D02*
Y-180872D01*
X286227Y-178841D02*
X287227D01*
X286727Y-179341D02*
Y-178341D01*
X263911Y-172020D02*
X264911D01*
X264410Y-172520D02*
Y-171520D01*
X267855Y-171670D02*
X268855D01*
X268355Y-172170D02*
Y-171170D01*
X271959Y-170938D02*
X272959D01*
X272459Y-171438D02*
Y-170438D01*
X280549Y-168743D02*
X281549D01*
X281049Y-169243D02*
Y-168243D01*
X251812Y-140005D02*
X252812D01*
X252312Y-140505D02*
Y-139505D01*
X264833Y-140265D02*
X265833D01*
X265333Y-140765D02*
Y-139765D01*
X284239Y-140902D02*
X285239D01*
X284739Y-141402D02*
Y-140402D01*
X282785Y-131279D02*
X283785D01*
X283285Y-131779D02*
Y-130779D01*
X243172Y-118676D02*
X244172D01*
X243672Y-119176D02*
Y-118176D01*
X243314Y-106356D02*
X244314D01*
X243814Y-106856D02*
Y-105856D01*
X231201Y-119452D02*
X232201D01*
X231701Y-119952D02*
Y-118952D01*
X231772Y-107246D02*
X232772D01*
X232272Y-107746D02*
Y-106746D01*
X220046Y-106923D02*
X221046D01*
X220546Y-107423D02*
Y-106423D01*
X243927Y-88918D02*
X244927D01*
X244427Y-89418D02*
Y-88418D01*
X231219Y-92809D02*
X232219D01*
X231719Y-93309D02*
Y-92309D01*
X196487Y-93632D02*
X197487D01*
X196987Y-94131D02*
Y-93132D01*
X205358Y-93723D02*
X206358D01*
X205858Y-94223D02*
Y-93223D01*
X256386Y-51679D02*
X257386D01*
X256886Y-52179D02*
Y-51179D01*
X252331Y-51679D02*
X253331D01*
X252831Y-52179D02*
Y-51179D01*
X248749Y-51679D02*
X249749D01*
X249249Y-52179D02*
Y-51179D01*
X245693Y-51647D02*
X246693D01*
X246193Y-52147D02*
Y-51147D01*
X242643Y-51679D02*
X243643D01*
X243143Y-52179D02*
Y-51179D01*
X239409Y-51679D02*
X240409D01*
X239909Y-52179D02*
Y-51179D01*
X235568Y-51679D02*
X236568D01*
X236068Y-52179D02*
Y-51179D01*
X214933Y-48107D02*
X215933D01*
X215433Y-48607D02*
Y-47607D01*
X211293Y-48654D02*
X212293D01*
X211793Y-49154D02*
Y-48155D01*
X207989Y-48828D02*
X208989D01*
X208489Y-49328D02*
Y-48328D01*
X201290Y-48062D02*
X202290D01*
X201790Y-48562D02*
Y-47562D01*
X189082Y-39032D02*
X190082D01*
X189582Y-39532D02*
Y-38532D01*
X206888Y-24247D02*
X207888D01*
X207388Y-24747D02*
Y-23747D01*
X209391Y-20970D02*
X210391D01*
X209891Y-21470D02*
Y-20470D01*
X206513Y-20970D02*
X207513D01*
X207013Y-21470D02*
Y-20470D01*
X205359Y-17507D02*
X206359D01*
X205858Y-18007D02*
Y-17007D01*
X307355Y-64262D02*
X308355D01*
X307855Y-64762D02*
Y-63762D01*
X310028Y-61303D02*
X311028D01*
X310528Y-61803D02*
Y-60803D01*
X304535Y-61903D02*
X305535D01*
X305035Y-62403D02*
Y-61403D01*
X307355Y-61345D02*
X308355D01*
X307855Y-61845D02*
Y-60845D01*
X290158Y-15313D02*
X291158D01*
X290657Y-15812D02*
Y-14812D01*
X290158Y-18640D02*
X291158D01*
X290657Y-19140D02*
Y-18140D01*
X290158Y-22521D02*
X291158D01*
X290657Y-23021D02*
Y-22021D01*
X287053Y-22521D02*
X288053D01*
X287553Y-23021D02*
Y-22021D01*
X283854Y-22521D02*
X284854D01*
X284354Y-23021D02*
Y-22021D01*
M02*
