G04*
G04 #@! TF.GenerationSoftware,Altium Limited,Altium Designer,24.2.2 (26)*
G04*
G04 Layer_Physical_Order=8*
G04 Layer_Color=32896*
%FSLAX25Y25*%
%MOIN*%
G70*
G04*
G04 #@! TF.SameCoordinates,383E0004-DF84-4F77-A050-2B2E5B934949*
G04*
G04*
G04 #@! TF.FilePolarity,Positive*
G04*
G01*
G75*
%ADD15C,0.00500*%
%ADD16C,0.00600*%
%ADD175C,0.06299*%
%ADD186C,0.00727*%
%ADD190C,0.00550*%
%ADD210C,0.01600*%
D15*
X186124Y-197658D02*
G03*
X186874Y-198408I750J0D01*
G01*
X189017Y-199908D02*
G03*
X189017Y-198408I0J750D01*
G01*
X186874Y-199908D02*
G03*
X186874Y-201408I0J-750D01*
G01*
X191391Y-202908D02*
G03*
X191391Y-201408I0J750D01*
G01*
X186874Y-202908D02*
G03*
X186124Y-203658I0J-750D01*
G01*
X186010Y-205783D02*
G03*
X186055Y-205533I-5600J1136D01*
G01*
X184451Y-208688D02*
G03*
X186010Y-205783I-4041J4041D01*
G01*
X230333Y-178337D02*
G03*
X229135Y-175311I-4421J0D01*
G01*
X229257Y-183853D02*
G03*
X230333Y-180749I-3937J3104D01*
G01*
X229135Y-175311D02*
G03*
X229038Y-175211I-3222J-3026D01*
G01*
X228865Y-184294D02*
G03*
X229257Y-183853I-3545J3545D01*
G01*
X195525Y-181357D02*
G03*
X195319Y-181505I5732J-8173D01*
G01*
X193707Y-182962D02*
G03*
X193707Y-184023I530J-530D01*
G01*
X197372Y-188748D02*
G03*
X197372Y-187688I-530J530D01*
G01*
X196311Y-188748D02*
G03*
X197372Y-188748I530J530D01*
G01*
X192646Y-185083D02*
G03*
X191585Y-185083I-530J-530D01*
G01*
D02*
G03*
X191585Y-186144I530J-530D01*
G01*
X195250Y-190870D02*
G03*
X195250Y-189809I-530J530D01*
G01*
X194190Y-190870D02*
G03*
X195250Y-190870I530J530D01*
G01*
X190525Y-187205D02*
G03*
X189464Y-187205I-530J-530D01*
G01*
Y-187205D02*
G03*
X189464Y-188265I530J-530D01*
G01*
X193129Y-192991D02*
G03*
X193129Y-191930I-530J530D01*
G01*
X192068Y-192991D02*
G03*
X193129Y-192991I530J530D01*
G01*
X188763Y-189686D02*
G03*
X187608Y-189803I-530J-530D01*
G01*
X186848Y-190952D02*
G03*
X186749Y-191207I9277J-3734D01*
G01*
X201256Y-179548D02*
G03*
X195525Y-181357I0J-9983D01*
G01*
X186749Y-191207D02*
G03*
X186124Y-194687I9375J-3479D01*
G01*
X196518Y-179291D02*
G03*
X196279Y-179405I4738J-10240D01*
G01*
X191902Y-181867D02*
G03*
X192963Y-181867I530J530D01*
G01*
X190748Y-180713D02*
G03*
X189688Y-180713I-530J-530D01*
G01*
D02*
G03*
X189688Y-181773I530J-530D01*
G01*
X190842Y-183988D02*
G03*
X190842Y-182928I-530J530D01*
G01*
X189781Y-183988D02*
G03*
X190842Y-183988I530J530D01*
G01*
X187752Y-181959D02*
G03*
X186691Y-181959I-530J-530D01*
G01*
D02*
G03*
X186691Y-183020I530J-530D01*
G01*
X188721Y-186110D02*
G03*
X188721Y-185049I-530J530D01*
G01*
X187660Y-186110D02*
G03*
X188721Y-186110I530J530D01*
G01*
X185631Y-184081D02*
G03*
X184570Y-184081I-530J-530D01*
G01*
Y-184081D02*
G03*
X184570Y-185141I530J-530D01*
G01*
X186793Y-188323D02*
G03*
X186745Y-187316I-579J477D01*
G01*
X186747Y-188379D02*
G03*
X186607Y-188593I9360J-6300D01*
G01*
X201256Y-178247D02*
G03*
X196518Y-179291I0J-11283D01*
G01*
X186607Y-188593D02*
G03*
X184824Y-194679I9500J-6087D01*
G01*
X226851Y-184237D02*
G03*
X227096Y-184080I-2959J4881D01*
G01*
X224354Y-184005D02*
G03*
X225319Y-184696I750J27D01*
G01*
X224197Y-179728D02*
G03*
X223420Y-179006I-750J-27D01*
G01*
D02*
G03*
X222698Y-179782I27J-750D01*
G01*
X222140Y-185036D02*
G03*
X222862Y-184259I-27J750D01*
G01*
X221363Y-184314D02*
G03*
X222140Y-185036I750J27D01*
G01*
X221199Y-179837D02*
G03*
X220422Y-179115I-750J-27D01*
G01*
D02*
G03*
X219700Y-179892I27J-750D01*
G01*
X219137Y-185009D02*
G03*
X219859Y-184231I-27J750D01*
G01*
X218360Y-184286D02*
G03*
X219137Y-185009I750J27D01*
G01*
X218201Y-179947D02*
G03*
X217424Y-179225I-750J-27D01*
G01*
D02*
G03*
X216702Y-180002I27J-750D01*
G01*
X215969Y-184620D02*
G03*
X216843Y-183853I125J740D01*
G01*
X215491Y-184490D02*
G03*
X215744Y-184582I3111J8148D01*
G01*
X227096Y-184080D02*
G03*
X227931Y-183389I-3203J4725D01*
G01*
X212435Y-182509D02*
G03*
X215491Y-184490I6167J6167D01*
G01*
X227857Y-167736D02*
G03*
X226872Y-170102I2378J-2378D01*
G01*
X226872Y-170113D02*
G03*
X226943Y-171128I7303J-0D01*
G01*
X227733Y-175745D02*
X227733Y-175744D01*
X227085Y-174356D02*
G03*
X227468Y-175279I3856J1058D01*
G01*
X229033Y-178337D02*
G03*
X228106Y-176118I-3121J0D01*
G01*
X227931Y-183389D02*
G03*
X229033Y-180753I-2611J2640D01*
G01*
X211014Y-181089D02*
G03*
X204155Y-178248I-6859J-6859D01*
G01*
X183524Y-207775D02*
G03*
X184824Y-204637I-3139J3139D01*
G01*
X181879Y-209141D02*
G03*
X182357Y-208943I0J675D01*
G01*
X181402D02*
G03*
X181879Y-209141I477J477D01*
G01*
X181400Y-208941D02*
G03*
X180917Y-208741I-483J-483D01*
G01*
X228243Y-173298D02*
G03*
X229033Y-175206I2699J0D01*
G01*
X223892Y-186363D02*
G03*
X228848Y-184311I0J7008D01*
G01*
X210099Y-182011D02*
G03*
X204154Y-179548I-5943J-5936D01*
G01*
X181886Y-210441D02*
G03*
X183271Y-209867I0J1959D01*
G01*
X181883Y-210441D02*
G03*
X181400Y-210641I0J-683D01*
G01*
X180917Y-210841D02*
G03*
X181400Y-210641I0J683D01*
G01*
X211518Y-183431D02*
G03*
X218598Y-186363I7080J7080D01*
G01*
X186124Y-197658D02*
Y-195783D01*
X186874Y-198408D02*
X189017D01*
X186874Y-199908D02*
X189017D01*
X186874Y-201408D02*
X191391D01*
X186874Y-202908D02*
X191391D01*
X186124Y-204647D02*
Y-203658D01*
X186124Y-204647D02*
X186124Y-204647D01*
X186055Y-205533D02*
X186124Y-204647D01*
X186124Y-195783D02*
Y-194687D01*
X230333Y-180749D02*
Y-178337D01*
X194190Y-182479D02*
X195319Y-181505D01*
X193707Y-182962D02*
X194190Y-182479D01*
X193707Y-184023D02*
X193707Y-184023D01*
X197372Y-187688D01*
X197372Y-187688D02*
X197372Y-187688D01*
X196311Y-188748D02*
X196311Y-188748D01*
X192646Y-185083D02*
X196311Y-188748D01*
X192646Y-185083D02*
X192646Y-185083D01*
X191585Y-186144D02*
X191585Y-186144D01*
X195250Y-189809D01*
X195250Y-189809D02*
X195250Y-189809D01*
X194190Y-190870D02*
X194190Y-190870D01*
X190525Y-187205D02*
X194190Y-190870D01*
X190525Y-187205D02*
X190525Y-187205D01*
X189464Y-187205D02*
Y-187205D01*
X189464Y-188265D02*
X189464Y-188265D01*
X193129Y-191930D01*
X193129Y-191930D02*
X193129Y-191930D01*
X192068Y-192991D02*
X192068Y-192991D01*
X188763Y-189686D02*
X192068Y-192991D01*
X186848Y-190952D02*
X187608Y-189803D01*
X193278Y-181552D02*
X196279Y-179405D01*
X192963Y-181867D02*
X193278Y-181552D01*
X191902Y-181867D02*
X191902Y-181867D01*
X190748Y-180713D02*
X191902Y-181867D01*
X189688Y-181773D02*
X190842Y-182928D01*
X190842Y-182928D02*
X190842Y-182928D01*
X189781Y-183988D02*
X189781Y-183988D01*
X187752Y-181959D02*
X189781Y-183988D01*
X187752Y-181959D02*
X187752Y-181959D01*
X186691Y-183020D02*
X186691Y-183020D01*
X188721Y-185049D01*
X188721Y-185049D02*
X188721Y-185049D01*
X187660Y-186110D02*
X187660Y-186110D01*
X185631Y-184081D02*
X187660Y-186110D01*
X185631Y-184081D02*
X185631Y-184081D01*
X184570Y-184081D02*
Y-184081D01*
X184570Y-185141D02*
X184570Y-185141D01*
X186745Y-187316D01*
X186745Y-187316D02*
X186745Y-187316D01*
X186747Y-188379D02*
X186793Y-188323D01*
X225319Y-184696D02*
X226851Y-184237D01*
X225319Y-184696D02*
Y-184696D01*
X224197Y-179728D02*
X224354Y-184005D01*
X224197Y-179728D02*
X224197Y-179728D01*
X222698Y-179782D02*
X222698Y-179782D01*
X222862Y-184259D01*
X222862Y-184259D02*
X222862Y-184259D01*
X222140Y-185036D02*
X222140Y-185036D01*
X222140D01*
X222140Y-185036D02*
X222140Y-185036D01*
X221363Y-184314D02*
X221363Y-184314D01*
X221199Y-179837D02*
X221363Y-184314D01*
X221199Y-179837D02*
X221199Y-179837D01*
X219700Y-179892D02*
X219700Y-179892D01*
X219859Y-184231D01*
X219859Y-184231D02*
X219859Y-184231D01*
X219137Y-185009D02*
X219137D01*
X218360Y-184286D02*
X218360Y-184286D01*
X218201Y-179947D02*
X218360Y-184286D01*
X218201Y-179947D02*
X218201Y-179947D01*
X216702Y-180002D02*
X216702Y-180002D01*
X216843Y-183853D01*
X216843Y-183853D02*
X216843Y-183853D01*
X215744Y-184582D02*
X215969Y-184620D01*
X227857Y-167736D02*
X228432Y-167160D01*
X226943Y-171128D02*
Y-171128D01*
Y-171128D02*
X226943Y-173836D01*
X227085Y-174356D01*
X226872Y-170113D02*
X226872Y-170102D01*
X227468Y-175279D02*
X227733Y-175744D01*
X229033Y-180741D02*
Y-178337D01*
X229033Y-180753D02*
X229033Y-180741D01*
X227733Y-175745D02*
X227733Y-175745D01*
X228106Y-176118D01*
X227931Y-183389D02*
X227931Y-183389D01*
X211014Y-181089D02*
X212435Y-182509D01*
X201256Y-178247D02*
X204155D01*
X184824Y-204637D02*
Y-194679D01*
X182357Y-208943D02*
X183524Y-207775D01*
X181400Y-208941D02*
X181402Y-208943D01*
X180902Y-208741D02*
X180917D01*
X229033Y-175206D02*
X229038Y-175211D01*
X228243Y-173298D02*
Y-172110D01*
X201256Y-179548D02*
X204148D01*
X228848Y-184311D02*
X228865Y-184294D01*
X218598Y-186363D02*
X223892D01*
X204148Y-179548D02*
X204154Y-179548D01*
X210099Y-182011D02*
X210104Y-182017D01*
X183271Y-209867D02*
X184451Y-208688D01*
X181883Y-210441D02*
X181886D01*
X180902Y-210841D02*
X180917D01*
X228243Y-171661D02*
X228432Y-170310D01*
X228243Y-172110D02*
X228243Y-171661D01*
X210104Y-182017D02*
X211518Y-183431D01*
D16*
X376231Y-207569D02*
G03*
X377031Y-208369I800J0D01*
G01*
X376231Y-207569D02*
G03*
X374631Y-207569I-800J0D01*
G01*
X373031Y-212315D02*
G03*
X374631Y-212315I800J0D01*
G01*
X373031Y-202748D02*
G03*
X371431Y-202748I-800J0D01*
G01*
X369831Y-213236D02*
G03*
X371431Y-213236I800J0D01*
G01*
X369831Y-202750D02*
G03*
X368231Y-202750I-800J0D01*
G01*
X366631Y-213236D02*
G03*
X368231Y-213236I800J0D01*
G01*
X366631Y-204276D02*
G03*
X365031Y-204276I-800J0D01*
G01*
X363431Y-213236D02*
G03*
X365031Y-213236I800J0D01*
G01*
X363431Y-203526D02*
G03*
X361831Y-203526I-800J0D01*
G01*
X360231Y-212911D02*
G03*
X361831Y-212911I800J0D01*
G01*
X360231Y-202748D02*
G03*
X358631Y-202748I-800J0D01*
G01*
X357031Y-213236D02*
G03*
X358631Y-213236I800J0D01*
G01*
X357031Y-202748D02*
G03*
X355431Y-202748I-800J0D01*
G01*
X354631Y-208369D02*
G03*
X355431Y-207569I0J800D01*
G01*
X369768Y-194965D02*
G03*
X368968Y-195765I0J-800D01*
G01*
X367368Y-200050D02*
G03*
X368968Y-200050I800J0D01*
G01*
X367368Y-181793D02*
G03*
X365768Y-181793I-800J0D01*
G01*
X364168Y-201576D02*
G03*
X365768Y-201576I800J0D01*
G01*
X364168Y-181793D02*
G03*
X362568Y-181793I-800J0D01*
G01*
X361768Y-194965D02*
G03*
X362568Y-194165I0J800D01*
G01*
X377031Y-208369D02*
X379402D01*
X376231Y-207569D02*
Y-207569D01*
X374631Y-212315D02*
Y-207569D01*
X373031Y-212315D02*
Y-202748D01*
X371431Y-213236D02*
Y-202748D01*
X369831Y-213236D02*
Y-202750D01*
X368231Y-213236D02*
Y-202750D01*
X366631Y-213236D02*
Y-204276D01*
X365031Y-213236D02*
Y-204276D01*
X363431Y-213236D02*
Y-203526D01*
X361831Y-212911D02*
Y-203526D01*
X360231Y-212911D02*
Y-202748D01*
X358631Y-213236D02*
Y-202748D01*
X357031Y-213236D02*
Y-202748D01*
X355431Y-207569D02*
Y-202748D01*
X354331Y-208369D02*
X354631D01*
X379402D02*
X380709D01*
X352953D02*
X354331D01*
X372747Y-215652D02*
X380709D01*
Y-208369D01*
X352953Y-215411D02*
Y-208369D01*
Y-215411D02*
X361304D01*
X371316Y-195314D02*
X371415D01*
X370967Y-194965D02*
X371316Y-195314D01*
X369768Y-194965D02*
X370967D01*
X368968Y-200050D02*
Y-195765D01*
X367368Y-200050D02*
Y-181793D01*
X365768Y-201576D02*
Y-181793D01*
X364168Y-201576D02*
Y-181793D01*
X362568Y-194165D02*
Y-181793D01*
X361468Y-194965D02*
X361768D01*
X371415Y-195314D02*
X371587D01*
X360424Y-194965D02*
X361468D01*
D175*
X187855Y-331319D02*
D03*
D186*
X296427Y-289245D02*
X307283Y-278389D01*
X296427Y-300593D02*
Y-289245D01*
X284175Y-312844D02*
X296427Y-300593D01*
X278851Y-312844D02*
X284175D01*
X248927Y-342769D02*
X278851Y-312844D01*
X215587Y-342769D02*
X248927D01*
X207432Y-334613D02*
X215587Y-342769D01*
X195652Y-334613D02*
X207432D01*
X194933Y-335332D02*
X195652Y-334613D01*
X181002Y-335332D02*
X194933D01*
X180969Y-335299D02*
X181002Y-335332D01*
D190*
X211328Y-171670D02*
G03*
X215534Y-173217I4206J4939D01*
G01*
X210203Y-169484D02*
G03*
X210953Y-171294I2560J0D01*
G01*
X206469Y-165063D02*
G03*
X206602Y-165070I149J1568D01*
G01*
X207395Y-165284D02*
G03*
X206618Y-165070I-793J-1361D01*
G01*
X210203Y-168548D02*
G03*
X209586Y-167058I-2107J0D01*
G01*
X208778Y-166250D02*
G03*
X207921Y-165590I-2974J-2974D01*
G01*
X206203Y-165037D02*
G03*
X205804Y-165018I-399J-4188D01*
G01*
X203513Y-164069D02*
G03*
X205804Y-165018I2291J2291D01*
G01*
X203211Y-163768D02*
G03*
X200939Y-162827I-2273J-2273D01*
G01*
X193971Y-160339D02*
G03*
X199978Y-162827I6007J6007D01*
G01*
X299582Y-127467D02*
G03*
X298807Y-128242I0J-775D01*
G01*
X297257Y-130408D02*
G03*
X298807Y-130408I775J0D01*
G01*
X297257Y-125920D02*
G03*
X295707Y-125920I-775J0D01*
G01*
X294157Y-132052D02*
G03*
X295707Y-132052I775J0D01*
G01*
X294157Y-125920D02*
G03*
X292607Y-125920I-775J0D01*
G01*
X291057Y-130745D02*
G03*
X292607Y-130745I775J0D01*
G01*
X291057Y-125920D02*
G03*
X289507Y-125920I-775J0D01*
G01*
X287957Y-130072D02*
G03*
X289507Y-130072I775J0D01*
G01*
X287957Y-125920D02*
G03*
X286407Y-125920I-775J0D01*
G01*
X284857Y-129849D02*
G03*
X286407Y-129849I775J0D01*
G01*
X284857Y-125920D02*
G03*
X283307Y-125920I-775J0D01*
G01*
X281757Y-128929D02*
G03*
X283307Y-128929I775J0D01*
G01*
X281757Y-125920D02*
G03*
X280207Y-125920I-775J0D01*
G01*
X279820Y-131252D02*
G03*
X280207Y-130316I-935J936D01*
G01*
X279545Y-131517D02*
G03*
X279722Y-131349I-2792J3142D01*
G01*
X276752Y-132578D02*
G03*
X279545Y-131517I0J4204D01*
G01*
X187741Y-112767D02*
G03*
X188516Y-111992I0J775D01*
G01*
X187103Y-112767D02*
G03*
X187103Y-114317I0J-775D01*
G01*
X189788Y-115867D02*
G03*
X189788Y-114317I0J775D01*
G01*
X185289Y-115867D02*
G03*
X185289Y-117417I0J-775D01*
G01*
X189788Y-118967D02*
G03*
X189788Y-117417I0J775D01*
G01*
X185289Y-118967D02*
G03*
X185289Y-120517I0J-775D01*
G01*
X189788Y-122067D02*
G03*
X189788Y-120517I0J775D01*
G01*
X185289Y-122067D02*
G03*
X185289Y-123617I0J-775D01*
G01*
X189788Y-125167D02*
G03*
X189788Y-123617I0J775D01*
G01*
X185289Y-125167D02*
G03*
X185289Y-126717I0J-775D01*
G01*
X189788Y-128267D02*
G03*
X189788Y-126717I0J775D01*
G01*
X185289Y-128267D02*
G03*
X185289Y-129817I0J-775D01*
G01*
X189788Y-131367D02*
G03*
X189788Y-129817I0J775D01*
G01*
X185289Y-131367D02*
G03*
X185289Y-132917I0J-775D01*
G01*
X188516Y-133692D02*
G03*
X187741Y-132917I-775J0D01*
G01*
X198047Y-150223D02*
G03*
X199672Y-150895I1625J1628D01*
G01*
X198046Y-150221D02*
G03*
X198047Y-150223I1626J1626D01*
G01*
X188516Y-136549D02*
G03*
X191439Y-143615I10000J0D01*
G01*
X198246Y-101126D02*
G03*
X191175Y-104055I0J-10000D01*
G01*
X189441Y-105789D02*
G03*
X188516Y-108025I2239J-2236D01*
G01*
X266102Y-99974D02*
G03*
X259031Y-97045I-7071J-7071D01*
G01*
X246707Y-94116D02*
G03*
X253778Y-97045I7071J7071D01*
G01*
X242166Y-89575D02*
G03*
X235095Y-86646I-7071J-7071D01*
G01*
X189253D02*
G03*
X182182Y-89575I0J-10000D01*
G01*
X172362Y-99395D02*
G03*
X172120Y-99977I583J-583D01*
G01*
X172120Y-99977D02*
G03*
X172061Y-100120I143J-143D01*
G01*
Y-132568D02*
G03*
X174710Y-138962I9043J0D01*
G01*
X180661Y-144913D02*
G03*
X187520Y-147754I6859J6859D01*
G01*
X191007Y-149199D02*
G03*
X187520Y-147754I-3487J-3487D01*
G01*
X207887Y-109839D02*
G03*
X208662Y-110614I775J0D01*
G01*
X207887Y-109320D02*
G03*
X206337Y-109320I-775J0D01*
G01*
X205562Y-110614D02*
G03*
X206337Y-109839I0J775D01*
G01*
X317118Y-82772D02*
G03*
X304663Y-87931I0J-17613D01*
G01*
X387472Y-87931D02*
G03*
X375018Y-82772I-12454J-12454D01*
G01*
X284332Y-104120D02*
G03*
X291403Y-101191I0J10000D01*
G01*
X267319D02*
G03*
X274390Y-104120I7071J7071D01*
G01*
X225244Y-175651D02*
G03*
X219368Y-173217I-5875J-5875D01*
G01*
X301768Y-142794D02*
G03*
X298839Y-149865I7071J-7071D01*
G01*
X297579Y-153228D02*
G03*
X298839Y-150187I-3041J3041D01*
G01*
X294364Y-154560D02*
G03*
X297579Y-153228I0J4547D01*
G01*
X285285Y-154560D02*
G03*
X280378Y-156593I0J-6941D01*
G01*
X277493Y-157802D02*
G03*
X280353Y-156617I0J4045D01*
G01*
X274637Y-156619D02*
G03*
X277493Y-157802I2856J2856D01*
G01*
X274637Y-156619D02*
G03*
X272292Y-155648I-2345J-2345D01*
G01*
X245052D02*
G03*
X237981Y-158577I0J-10000D01*
G01*
X236880Y-159678D02*
G03*
X236266Y-161161I1483J-1483D01*
G01*
X225697Y-166377D02*
G03*
X225203Y-167570I1192J-1192D01*
G01*
X235525Y-162951D02*
G03*
X236266Y-161161I-1790J1790D01*
G01*
X219486Y-110614D02*
G03*
X222428Y-109396I0J4160D01*
G01*
X204082Y-110614D02*
G03*
X197466Y-113355I0J-9357D01*
G01*
D02*
G03*
X195570Y-117930I4575J-4575D01*
G01*
Y-127801D02*
G03*
X198499Y-134872I10000J0D01*
G01*
X200899Y-137272D02*
G03*
X207970Y-140201I7071J7071D01*
G01*
X218617Y-135735D02*
G03*
X217181Y-139201I3466J-3466D01*
G01*
X224891Y-132970D02*
G03*
X218900Y-135452I0J-8473D01*
G01*
X227196Y-133386D02*
G03*
X226192Y-132970I-1003J-1003D01*
G01*
X228432Y-136372D02*
G03*
X227196Y-133386I-4223J0D01*
G01*
X223580Y-106613D02*
G03*
X222413Y-103796I-3985J0D01*
G01*
X222428Y-109396D02*
G03*
X223580Y-106613I-2783J2783D01*
G01*
X252192Y-132570D02*
G03*
X252144Y-132568I-52J-548D01*
G01*
X246539D02*
G03*
X244499Y-133412I0J-2884D01*
G01*
D02*
G03*
X242986Y-137067I3655J-3655D01*
G01*
X241944Y-140052D02*
G03*
X242986Y-137539I-2514J2514D01*
G01*
X238353Y-141540D02*
G03*
X241944Y-140052I0J5078D01*
G01*
X237271Y-141091D02*
G03*
X238353Y-141540I1083J1083D01*
G01*
X237271Y-141091D02*
G03*
X235286Y-140269I-1984J-1984D01*
G01*
X252192Y-132570D02*
G03*
X252362Y-132578I159J1567D01*
G01*
X222050Y-138452D02*
G03*
X226437Y-140269I4388J4388D01*
G01*
X208593Y-171061D02*
Y-168635D01*
X206602Y-166645D02*
X208593Y-168635D01*
X207878Y-173503D02*
Y-171775D01*
X208593Y-171061D01*
X205636Y-175745D02*
X207878Y-173503D01*
X199439Y-175745D02*
X205636D01*
X189525Y-172945D02*
X196639D01*
X199439Y-175745D01*
X211328Y-171670D02*
X211328Y-171670D01*
X210953Y-171294D02*
X211328Y-171670D01*
X210203Y-169484D02*
Y-168548D01*
X206602Y-165070D02*
X206618Y-165070D01*
X208778Y-166250D02*
X209586Y-167058D01*
X206203Y-165037D02*
X206469Y-165063D01*
X203211Y-163768D02*
X203513Y-164069D01*
X199978Y-162827D02*
X200939D01*
X193278Y-159645D02*
Y-151470D01*
Y-159645D02*
X193971Y-160339D01*
X207395Y-165284D02*
X207921Y-165590D01*
X190359Y-169795D02*
X197732D01*
X204728Y-174520D02*
X206618Y-172629D01*
Y-169795D01*
X202457Y-174520D02*
X204728D01*
X197732Y-169795D02*
X202457Y-174520D01*
X26761Y-266050D02*
X30960Y-270250D01*
X39262D02*
X41123Y-272111D01*
X26761Y-266050D02*
Y-260772D01*
X26601Y-260612D02*
X26761Y-260772D01*
X30960Y-270250D02*
X39262D01*
X37912Y-258711D02*
X124927D01*
X30573Y-266050D02*
X37912Y-258711D01*
X5109Y-321251D02*
X49869Y-276491D01*
X4151Y-348368D02*
X5109Y-347410D01*
Y-321251D01*
X214773Y-188061D02*
X237310D01*
X241774Y-183597D01*
Y-178025D01*
X234059Y-170310D02*
X241774Y-178025D01*
X231633Y-170310D02*
X234059D01*
X299582Y-127467D02*
X304154D01*
X298807Y-130408D02*
Y-128242D01*
X297257Y-130408D02*
Y-125920D01*
X295707Y-132052D02*
Y-125920D01*
X294157Y-132052D02*
Y-125920D01*
X292607Y-130745D02*
Y-125920D01*
X291057Y-130745D02*
Y-125920D01*
X289507Y-130072D02*
Y-125920D01*
X287957Y-130072D02*
Y-125920D01*
X286407Y-129849D02*
Y-125920D01*
X284857Y-129849D02*
Y-125920D01*
X283307Y-128929D02*
Y-125920D01*
X281757Y-128929D02*
Y-125920D01*
X280207Y-130316D02*
Y-125920D01*
X279722Y-131349D02*
X279820Y-131252D01*
X304154Y-127467D02*
X304619D01*
X188516Y-111992D02*
Y-108675D01*
X187103Y-112767D02*
X187741D01*
X187103Y-114317D02*
X189788D01*
X185289Y-115867D02*
X189788D01*
X185289Y-117417D02*
X189788D01*
X185289Y-118967D02*
X189788D01*
X185289Y-120517D02*
X189788D01*
X185289Y-122067D02*
X189788D01*
X185289Y-123617D02*
X189788D01*
X185289Y-125167D02*
X189788D01*
X185289Y-126717D02*
X189788D01*
X185289Y-128267D02*
X189788D01*
X185289Y-129817D02*
X189788D01*
X185289Y-131367D02*
X189788D01*
X185289Y-132917D02*
X187741D01*
X188516Y-133967D02*
Y-133692D01*
Y-136549D02*
Y-133967D01*
Y-108675D02*
Y-108025D01*
X199672Y-150895D02*
X203469D01*
X191439Y-143615D02*
X198046Y-150221D01*
X189441Y-105789D02*
X191175Y-104055D01*
X198246Y-101126D02*
X217177D01*
X253778Y-97045D02*
X259031D01*
X242166Y-89575D02*
X246707Y-94116D01*
X189253Y-86646D02*
X235095D01*
X172362Y-99395D02*
X182182Y-89575D01*
X172061Y-132568D02*
Y-100120D01*
X174710Y-138962D02*
X180661Y-144913D01*
X191007Y-149199D02*
X193278Y-151470D01*
X208662Y-110614D02*
X216823D01*
X207887Y-109839D02*
Y-109320D01*
X206337Y-109839D02*
Y-109320D01*
X205287Y-110614D02*
X205562D01*
X216823D02*
X219486D01*
X204082D02*
X205287D01*
X177009Y-185461D02*
X189525Y-172945D01*
X177009Y-215944D02*
Y-185461D01*
X124927Y-258711D02*
X131168Y-264951D01*
Y-287370D02*
Y-264951D01*
Y-287370D02*
X153672Y-309875D01*
X168491D01*
X175564Y-302801D01*
X249695D01*
X267202Y-285294D01*
Y-250496D01*
X259664Y-242957D02*
X267202Y-250496D01*
X252065Y-242957D02*
X259664D01*
X247712Y-238604D02*
X252065Y-242957D01*
X226682Y-238604D02*
X247712D01*
X218546Y-230468D02*
X226682Y-238604D01*
X218546Y-230468D02*
Y-222132D01*
X224752Y-215926D01*
X238366D01*
X246323Y-207968D01*
Y-191214D01*
X260453Y-177085D01*
Y-168352D01*
X304522Y-138506D02*
X312147D01*
X234363Y-229389D02*
X238228Y-225523D01*
X264035D01*
X315117Y-174442D01*
Y-141475D01*
X312147Y-138506D02*
X315117Y-141475D01*
X177009Y-215944D02*
X203917Y-242852D01*
Y-247215D02*
Y-242852D01*
Y-247215D02*
X207293Y-250590D01*
X212325D01*
X213117Y-251382D01*
X218939D01*
X221056Y-253499D01*
X243177D01*
X250974Y-261295D01*
X255809D01*
X260517Y-266002D01*
Y-274818D02*
Y-266002D01*
X256538Y-278796D02*
X260517Y-274818D01*
X239176Y-278796D02*
X256538D01*
X236242Y-275862D02*
X239176Y-278796D01*
X215585Y-275862D02*
X236242D01*
X171579Y-188574D02*
X190359Y-169795D01*
X171579Y-216112D02*
Y-188574D01*
Y-216112D02*
X173792Y-218324D01*
X177025D01*
X201803Y-243102D01*
Y-247878D02*
Y-243102D01*
Y-247878D02*
X206115Y-252190D01*
X208710D01*
X211674Y-255154D01*
X240797D01*
X248710Y-263067D01*
X255609D01*
X259055Y-266513D01*
Y-274305D02*
Y-266513D01*
X255614Y-277746D02*
X259055Y-274305D01*
X241596Y-277746D02*
X255614D01*
X237153Y-273303D02*
X241596Y-277746D01*
X215528Y-273303D02*
X237153D01*
X165797Y-215942D02*
X196012Y-246156D01*
Y-250321D02*
Y-246156D01*
Y-250321D02*
X205720Y-260029D01*
X209341D01*
X210827Y-258543D01*
X215534Y-173217D02*
X219368D01*
X109352Y-103227D02*
X112636D01*
X119485Y-156825D02*
Y-110076D01*
X112636Y-103227D02*
X119485Y-110076D01*
Y-156825D02*
X128582Y-165922D01*
X142819D01*
X165797Y-188900D01*
Y-215942D02*
Y-188900D01*
X117156Y-157852D02*
Y-113045D01*
X110571Y-106460D02*
X117156Y-113045D01*
Y-157852D02*
X128220Y-168916D01*
X142489D01*
X162927Y-189354D01*
Y-216387D02*
Y-189354D01*
Y-216387D02*
X194526Y-247986D01*
Y-251325D02*
Y-247986D01*
Y-251325D02*
X204953Y-261752D01*
X208669D01*
X309089Y-143184D02*
X309167Y-143261D01*
X307009Y-139556D02*
X309089Y-141636D01*
Y-143184D02*
Y-141636D01*
X297945Y-139556D02*
X307009D01*
X288739Y-139129D02*
X297518D01*
X297945Y-139556D01*
X158003Y-347343D02*
X164966Y-354306D01*
X158003Y-347343D02*
Y-344543D01*
X133553Y-320093D02*
X158003Y-344543D01*
X117533Y-320093D02*
X133553D01*
X117457Y-320017D02*
X117533Y-320093D01*
X143797Y-267805D02*
X175558Y-299566D01*
X96850Y-60683D02*
X110462Y-47071D01*
X96850Y-82037D02*
Y-60683D01*
X92520Y-86367D02*
X96850Y-82037D01*
X92520Y-233035D02*
Y-86367D01*
Y-233035D02*
X115662Y-256177D01*
X129195D01*
X140823Y-267805D01*
X143797D01*
X147988Y-266296D02*
X174333Y-292641D01*
X98425Y-82677D02*
Y-62265D01*
X110211Y-50479D01*
X94685Y-86417D02*
X98425Y-82677D01*
X94685Y-233715D02*
Y-86417D01*
Y-233715D02*
X115366Y-254396D01*
X130218D01*
X142118Y-266296D01*
X147988D01*
X133106Y-276864D02*
Y-272933D01*
X136932Y-269107D01*
X133106Y-276864D02*
X160789Y-304548D01*
X167014D01*
X170196Y-301366D01*
X135893Y-275581D02*
X159369Y-299057D01*
X135893Y-275581D02*
Y-273294D01*
X159369Y-299057D02*
X168180D01*
X246364Y-276229D02*
X254621D01*
X196178Y-271429D02*
X207654D01*
X233201Y-263067D02*
X246364Y-276229D01*
X216017Y-263067D02*
X233201D01*
X207654Y-271429D02*
X216017Y-263067D01*
X232717Y-260298D02*
X247335Y-274916D01*
X195300Y-268331D02*
X208882D01*
X216915Y-260298D02*
X232717D01*
X208882Y-268331D02*
X216915Y-260298D01*
X242916Y-264970D02*
X245577D01*
X235895Y-257949D02*
X242916Y-264970D01*
X217779Y-257949D02*
X235895D01*
X210758Y-264970D02*
X217779Y-257949D01*
X194098Y-264970D02*
X210758D01*
X243392Y-263831D02*
X246666D01*
X202247D02*
X209586D01*
X236427Y-256866D02*
X243392Y-263831D01*
X216551Y-256866D02*
X236427D01*
X209586Y-263831D02*
X216551Y-256866D01*
X159197Y-260418D02*
X181402D01*
X150470Y-251691D02*
X159197Y-260418D01*
X181402D02*
X181431Y-260388D01*
X187357D01*
X195300Y-268331D01*
X253996Y-269677D02*
X255570Y-271251D01*
Y-272099D02*
Y-271251D01*
X247335Y-274916D02*
X252754D01*
X255570Y-272099D01*
X253996Y-269677D02*
Y-268192D01*
X253856Y-268052D02*
X253996Y-268192D01*
X257330Y-273519D02*
Y-267982D01*
X254621Y-276229D02*
X257330Y-273519D01*
X168608Y-258711D02*
X173887D01*
X125079Y-181825D02*
X130538Y-187283D01*
X125079Y-181825D02*
Y-177484D01*
X130538Y-187283D02*
X133058D01*
X142278Y-196504D01*
Y-200481D02*
Y-196504D01*
Y-200481D02*
X149464Y-207667D01*
Y-239567D02*
Y-207667D01*
Y-239567D02*
X168608Y-258711D01*
X170196Y-255921D02*
X194337D01*
X136990Y-177451D02*
X143911Y-184372D01*
X127969Y-177451D02*
X136990D01*
X143911Y-200126D02*
Y-184372D01*
Y-200126D02*
X151649Y-207864D01*
Y-237374D02*
Y-207864D01*
Y-237374D02*
X170196Y-255921D01*
X134363Y-229533D02*
X150470Y-245640D01*
Y-251691D02*
Y-245640D01*
X113667Y-218664D02*
X119085Y-224082D01*
X110571Y-218664D02*
X113667D01*
X119085Y-238360D02*
Y-224082D01*
Y-238360D02*
X136646Y-255921D01*
X147240D01*
X156990Y-265672D01*
X116861Y-215432D02*
X130963Y-229533D01*
X109352Y-215432D02*
X116861D01*
X130963Y-229533D02*
X134363D01*
X41123Y-272111D02*
X73820D01*
X83449Y-262482D01*
X124555D01*
X129536Y-267464D01*
Y-275931D02*
Y-267464D01*
X123041Y-282426D02*
X129536Y-275931D01*
X80375Y-271185D02*
X118737D01*
X123801Y-266122D01*
X75070Y-276491D02*
X80375Y-271185D01*
X49869Y-276491D02*
X75070D01*
X317118Y-82772D02*
X375018D01*
X387472Y-87931D02*
X388386Y-88844D01*
X291403Y-101191D02*
X304663Y-87931D01*
X274390Y-104120D02*
X284332D01*
X266102Y-99974D02*
X267319Y-101191D01*
X301768Y-142794D02*
X303022Y-141540D01*
X298839Y-150187D02*
Y-149865D01*
X285285Y-154560D02*
X294364D01*
X280353Y-156617D02*
X280378Y-156593D01*
X245052Y-155648D02*
X272292D01*
X236880Y-159678D02*
X237981Y-158577D01*
X225697Y-166377D02*
X226489Y-165585D01*
X232891D02*
X235525Y-162951D01*
X226489Y-165585D02*
X232891D01*
X225203Y-170170D02*
Y-167570D01*
X195570Y-127801D02*
Y-117930D01*
X198499Y-134872D02*
X200899Y-137272D01*
X216181Y-140201D02*
X217181Y-139201D01*
X218617Y-135735D02*
X218900Y-135452D01*
X224891Y-132970D02*
X226192D01*
X228432Y-138452D02*
Y-136372D01*
X220129Y-101512D02*
X222413Y-103796D01*
X207970Y-140201D02*
X216181D01*
X252362Y-132578D02*
X276752D01*
X252144Y-132568D02*
X252144D01*
X246539D02*
X252144D01*
X242986Y-137539D02*
Y-137067D01*
X226437Y-140269D02*
X235286D01*
X378480Y-153445D02*
Y-137446D01*
X203287Y-135660D02*
Y-118688D01*
X296931Y-234995D02*
X378480Y-153445D01*
X205865Y-116109D02*
X357143D01*
X203287Y-118688D02*
X205865Y-116109D01*
X175558Y-299566D02*
X243210D01*
X265535Y-277241D01*
Y-256866D01*
X258516Y-249847D02*
X265535Y-256866D01*
X241774Y-245298D02*
X246323Y-249847D01*
X258516D01*
X222545Y-245298D02*
X241774D01*
X220601Y-243353D02*
X222545Y-245298D01*
X213659Y-243353D02*
X220601D01*
X210109Y-246903D02*
X213659Y-243353D01*
X218567Y-247051D02*
X234341D01*
X207975Y-248481D02*
X211497D01*
X205950Y-246457D02*
X207975Y-248481D01*
X211497D02*
X212102Y-247876D01*
X217743D01*
X218567Y-247051D01*
X174333Y-292641D02*
X247181D01*
X234341Y-247051D02*
X238840Y-251551D01*
X257364D01*
X263935Y-258122D01*
Y-275887D02*
Y-258122D01*
X247181Y-292641D02*
X263935Y-275887D01*
X237930Y-145060D02*
X242469D01*
X245642Y-141887D01*
Y-136461D01*
X301202Y-135185D02*
X304522Y-138506D01*
X251854Y-135799D02*
X273044D01*
X273658Y-135185D02*
X301202D01*
X273044Y-135799D02*
X273658Y-135185D01*
X248432Y-143535D02*
X273516D01*
X274574Y-142477D02*
X285391D01*
X273516Y-143535D02*
X274574Y-142477D01*
X285391D02*
X288739Y-139129D01*
X246443Y-135660D02*
X251715D01*
X251854Y-135799D01*
X245642Y-136461D02*
X246443Y-135660D01*
X341173Y-326311D02*
X343374Y-328512D01*
X337936Y-326311D02*
X341173D01*
X343374Y-344874D02*
Y-328512D01*
X338427Y-349821D02*
X343374Y-344874D01*
X307449Y-349821D02*
X338427D01*
X304559Y-352711D02*
X307449Y-349821D01*
X291157Y-352711D02*
X304559D01*
X289278Y-350831D02*
X291157Y-352711D01*
X275172Y-350831D02*
X289278D01*
X267202Y-358801D02*
X275172Y-350831D01*
X253763Y-358801D02*
X267202D01*
X249784Y-354823D02*
X253763Y-358801D01*
X224947Y-354823D02*
X249784D01*
X216015Y-363755D02*
X224947Y-354823D01*
X213718Y-363755D02*
X216015D01*
X237407Y-154560D02*
X248432Y-143535D01*
X234783Y-154560D02*
X237407D01*
X210827Y-222175D02*
Y-192007D01*
X208868Y-224134D02*
X210827Y-222175D01*
Y-192007D02*
X214773Y-188061D01*
X195246Y-228411D02*
X197906Y-231071D01*
X195246Y-228411D02*
Y-224266D01*
X201189Y-231071D02*
X203626Y-233508D01*
X197906Y-231071D02*
X201189D01*
X195246Y-224266D02*
X198664Y-220849D01*
Y-209185D01*
X200967Y-206881D01*
Y-193029D01*
X203093Y-190902D01*
Y-185092D01*
X204654Y-183532D01*
X204930Y-188194D02*
X206052Y-189316D01*
X204729Y-186685D02*
X204930Y-186885D01*
X206052Y-189370D02*
Y-189316D01*
X204930Y-188194D02*
Y-186885D01*
X201913Y-227739D02*
Y-207420D01*
Y-227739D02*
X203563Y-229389D01*
X201913Y-207420D02*
X203287Y-206046D01*
Y-193523D01*
X205851Y-190958D01*
Y-189571D02*
X206052Y-189370D01*
X205851Y-190958D02*
Y-189571D01*
X254667Y-265319D02*
X257330Y-267982D01*
X189039Y-264289D02*
X196178Y-271429D01*
X183884Y-264289D02*
X189039D01*
X182502Y-265672D02*
X183884Y-264289D01*
X156990Y-265672D02*
X182502D01*
X246666Y-263831D02*
X253312Y-270477D01*
X252933Y-273252D02*
X253312Y-272872D01*
X250956Y-273252D02*
X252933D01*
X253312Y-272872D02*
Y-270477D01*
X194337Y-255921D02*
X202247Y-263831D01*
X174498Y-258099D02*
X187227D01*
X296931Y-251277D02*
Y-234995D01*
X357143Y-116109D02*
X378480Y-137446D01*
X250402Y-181774D02*
Y-160254D01*
X241191Y-190986D02*
X250402Y-181774D01*
X216345Y-190986D02*
X241191D01*
X294037Y-281889D02*
X303411Y-272515D01*
X284663Y-309953D02*
X294037Y-300579D01*
Y-281889D01*
X280133Y-309953D02*
X284663D01*
X250994Y-339092D02*
X280133Y-309953D01*
X216781Y-339092D02*
X250994D01*
X209008Y-331319D02*
X216781Y-339092D01*
X187855Y-331319D02*
X209008D01*
X245577Y-264970D02*
X251213Y-270605D01*
X187227Y-258099D02*
X194098Y-264970D01*
X173887Y-258711D02*
X174498Y-258099D01*
D210*
X26601Y-260612D02*
D03*
X30573Y-266050D02*
D03*
X4151Y-348368D02*
D03*
X372747Y-215652D02*
D03*
X361304Y-215411D02*
D03*
X371587Y-195314D02*
D03*
X360424Y-194965D02*
D03*
X234363Y-229389D02*
D03*
X309167Y-143261D02*
D03*
X228432Y-167160D02*
D03*
Y-170310D02*
D03*
X180902Y-210841D02*
D03*
Y-208741D02*
D03*
X303022Y-141540D02*
D03*
X304619Y-127467D02*
D03*
X228432Y-138452D02*
D03*
X222050Y-138452D02*
D03*
X225203Y-170170D02*
D03*
X225244Y-175651D02*
D03*
X217177Y-101126D02*
D03*
X220129Y-101512D02*
D03*
X135893Y-273294D02*
D03*
X136932Y-269107D02*
D03*
X388386Y-88844D02*
D03*
X117457Y-320017D02*
D03*
X123041Y-282426D02*
D03*
X123801Y-266122D02*
D03*
X110571Y-218664D02*
D03*
X110211Y-50479D02*
D03*
X110462Y-47071D02*
D03*
X109352Y-215432D02*
D03*
X127969Y-177451D02*
D03*
X125079Y-177484D02*
D03*
X110571Y-106460D02*
D03*
X109352Y-103227D02*
D03*
X210109Y-246903D02*
D03*
X205950Y-246457D02*
D03*
X237930Y-145060D02*
D03*
X260453Y-168352D02*
D03*
X337936Y-326311D02*
D03*
X234783Y-154560D02*
D03*
X253856Y-268052D02*
D03*
X250402Y-160254D02*
D03*
X216345Y-190986D02*
D03*
X307283Y-278389D02*
D03*
X303411Y-272515D02*
D03*
X208868Y-224134D02*
D03*
X203626Y-233508D02*
D03*
X203563Y-229389D02*
D03*
X208669Y-261752D02*
D03*
X210827Y-258543D02*
D03*
X204654Y-183532D02*
D03*
X204729Y-186685D02*
D03*
X206052Y-189370D02*
D03*
X206618Y-169795D02*
D03*
X203469Y-150895D02*
D03*
X206602Y-166645D02*
D03*
X231633Y-170310D02*
D03*
X203287Y-135660D02*
D03*
X213718Y-363755D02*
D03*
X164966Y-354306D02*
D03*
X170196Y-301366D02*
D03*
X168180Y-299057D02*
D03*
X254667Y-265319D02*
D03*
X296931Y-251277D02*
D03*
X251213Y-270605D02*
D03*
X250956Y-273252D02*
D03*
X180969Y-335299D02*
D03*
X215528Y-273303D02*
D03*
X215585Y-275862D02*
D03*
M02*
