G04*
G04 #@! TF.GenerationSoftware,Altium Limited,Altium Designer,21.6.4 (81)*
G04*
G04 Layer_Color=32768*
%FSAX25Y25*%
%MOIN*%
G70*
G04*
G04 #@! TF.SameCoordinates,7F8DAD8D-1828-4383-9AFE-05E1B4F186B9*
G04*
G04*
G04 #@! TF.FilePolarity,Positive*
G04*
G01*
G75*
%ADD15C,0.00787*%
G54D15*
X0059785Y-0127943D02*
Y-0118494D01*
X0055060Y-0127943D02*
X0059785D01*
X0055060D02*
Y-0118494D01*
X0059785D01*
X0056044Y-0105896D02*
X0067068D01*
Y-0110226D02*
Y-0105896D01*
X0056044Y-0110226D02*
X0067068D01*
X0056044D02*
Y-0105896D01*
X0546902Y-0020949D02*
Y0019339D01*
X0631003D01*
Y-0020949D02*
Y0019339D01*
X0546902Y-0020949D02*
X0631003D01*
X0442815Y-0165847D02*
Y-0131791D01*
X0402854Y-0165847D02*
X0442815D01*
X0402854D02*
Y-0131791D01*
X0442815D01*
X0158268Y-0098710D02*
X0164567D01*
Y-0104419D02*
Y-0098710D01*
X0158268Y-0104419D02*
X0164567D01*
X0158268D02*
Y-0098710D01*
X0080984Y0002677D02*
X0113504D01*
X0080984D02*
Y0021732D01*
X0113504D01*
Y0002677D02*
Y0021732D01*
X0595866Y-0230906D02*
X0605709D01*
Y-0235236D02*
Y-0230906D01*
X0595866Y-0235236D02*
X0605709D01*
X0595866D02*
Y-0230906D01*
X0598032Y-0188273D02*
Y-0183942D01*
Y-0188273D02*
X0607874D01*
Y-0183942D01*
X0598032D02*
X0607874D01*
X0592143Y-0217456D02*
X0627812D01*
Y-0190251D01*
X0592143D02*
X0627812D01*
X0592143Y-0217456D02*
Y-0190251D01*
X0592717Y-0152165D02*
Y-0147835D01*
Y-0152165D02*
X0602559D01*
Y-0147835D01*
X0592717D02*
X0602559D01*
X0476181Y-0270472D02*
Y-0261024D01*
Y-0270472D02*
X0484449D01*
Y-0261024D01*
X0476181D02*
X0484449D01*
X0185039Y-0098622D02*
X0194488D01*
Y-0090354D01*
X0185039D02*
X0194488D01*
X0185039Y-0098622D02*
Y-0090354D01*
X0170669Y-0082677D02*
X0207283D01*
Y0004724D01*
X0170669D02*
X0207283D01*
X0170669Y-0082677D02*
Y0004724D01*
X0579528Y-0295571D02*
Y-0258957D01*
X0492126D02*
X0579528D01*
X0492126Y-0295571D02*
Y-0258957D01*
Y-0295571D02*
X0579528D01*
X0153579Y-0138976D02*
Y-0114173D01*
Y-0138976D02*
X0172871D01*
Y-0114173D01*
X0153579D02*
X0172871D01*
X0444410Y-0164291D02*
X0463465D01*
Y-0131772D01*
X0444410D02*
X0463465D01*
X0444410Y-0164291D02*
Y-0131772D01*
X0466929Y-0118130D02*
Y-0085807D01*
X0448032Y-0118130D02*
X0466929D01*
X0448032D02*
Y-0085807D01*
X0466929D01*
X0350787Y-0121993D02*
X0358946D01*
X0350787D02*
Y-0117771D01*
X0358946D01*
Y-0121993D02*
Y-0117771D01*
X0389079Y-0114967D02*
Y-0109013D01*
X0392229D01*
Y-0114967D02*
Y-0109013D01*
X0389079Y-0114967D02*
X0392229D01*
X0358946Y-0115300D02*
Y-0111078D01*
X0350787D02*
X0358946D01*
X0350787Y-0115300D02*
Y-0111078D01*
Y-0115300D02*
X0358946D01*
X0380906Y-0116339D02*
Y-0107283D01*
X0385630D01*
Y-0116339D02*
Y-0107283D01*
X0380906Y-0116339D02*
X0385630D01*
X0434403Y-0203486D02*
Y-0190215D01*
X0422198Y-0203486D02*
X0434403D01*
X0422198D02*
Y-0190215D01*
X0434403D01*
X0044469Y0003150D02*
Y0022047D01*
Y0003150D02*
X0076791D01*
Y0022047D01*
X0044469D02*
X0076791D01*
X0369756Y-0158957D02*
Y-0130807D01*
X0391409D01*
Y-0158957D02*
Y-0130807D01*
X0369756Y-0158957D02*
X0391409D01*
X0041398Y-0061682D02*
Y-0040029D01*
Y-0061682D02*
X0069547D01*
Y-0040029D01*
X0041398D02*
X0069547D01*
X0038398Y-0022835D02*
Y-0014961D01*
X0023019D02*
X0038398D01*
X0023019Y-0022835D02*
Y-0014961D01*
Y-0022835D02*
X0038398D01*
X0439370Y-0125012D02*
X0447244D01*
Y-0109634D01*
X0439370D02*
X0447244D01*
X0439370Y-0125012D02*
Y-0109634D01*
X0452248Y-0129134D02*
Y-0121260D01*
Y-0129134D02*
X0467627D01*
Y-0121260D01*
X0452248D02*
X0467627D01*
X0377953Y-0115748D02*
Y-0107874D01*
X0359842D02*
X0377953D01*
X0359842Y-0115748D02*
Y-0107874D01*
Y-0115748D02*
X0377953D01*
X0330315Y-0144685D02*
X0362598D01*
Y-0163189D02*
Y-0144685D01*
X0330315Y-0163189D02*
X0362598D01*
X0330315D02*
Y-0144685D01*
X0330256Y-0124409D02*
X0362579D01*
Y-0143307D02*
Y-0124409D01*
X0330256Y-0143307D02*
X0362579D01*
X0330256D02*
Y-0124409D01*
X0041437Y-0033563D02*
Y0000492D01*
X0081398D01*
Y-0033563D02*
Y0000492D01*
X0041437Y-0033563D02*
X0081398D01*
X0111831Y-0086614D02*
Y-0067716D01*
X0079508D02*
X0111831D01*
X0079508Y-0086614D02*
Y-0067716D01*
Y-0086614D02*
X0111831D01*
X0094291Y-0066142D02*
Y-0033858D01*
X0112795D01*
Y-0066142D02*
Y-0033858D01*
X0094291Y-0066142D02*
X0112795D01*
X0090167Y-0065660D02*
Y-0057786D01*
X0072056D02*
X0090167D01*
X0072056Y-0065660D02*
Y-0057786D01*
Y-0065660D02*
X0090167D01*
X0449606Y-0078543D02*
Y-0074213D01*
Y-0078543D02*
X0459449D01*
Y-0074213D01*
X0449606D02*
X0459449D01*
X0100197Y-0094291D02*
Y-0089961D01*
X0090354D02*
X0100197D01*
X0090354Y-0094291D02*
Y-0089961D01*
Y-0094291D02*
X0100197D01*
X0091196Y-0097495D02*
X0099355D01*
Y-0101717D02*
Y-0097495D01*
X0091196Y-0101717D02*
X0099355D01*
X0091196D02*
Y-0097495D01*
X0465605Y-0078489D02*
X0473765D01*
X0465605D02*
Y-0074267D01*
X0473765D01*
Y-0078489D02*
Y-0074267D01*
X0038398Y-0013780D02*
Y-0005906D01*
X0023019D02*
X0038398D01*
X0023019Y-0013780D02*
Y-0005906D01*
Y-0013780D02*
X0038398D01*
X0595866Y-0218307D02*
X0605709D01*
Y-0222638D02*
Y-0218307D01*
X0595866Y-0222638D02*
X0605709D01*
X0595866D02*
Y-0218307D01*
X0277165Y-0199409D02*
Y-0191142D01*
X0286614D01*
Y-0199409D02*
Y-0191142D01*
X0277165Y-0199409D02*
X0286614D01*
X0178382Y-0130905D02*
Y-0115945D01*
X0186650D01*
Y-0130905D02*
Y-0115945D01*
X0178382Y-0130905D02*
X0186650D01*
X0170221Y-0106048D02*
Y-0097889D01*
X0165999Y-0106048D02*
X0170221D01*
X0165999D02*
Y-0097889D01*
X0170221D01*
X0595866Y-0224606D02*
X0605709D01*
Y-0228937D02*
Y-0224606D01*
X0595866Y-0228937D02*
X0605709D01*
X0595866D02*
Y-0224606D01*
X0012819Y-0239370D02*
Y-0236221D01*
X0006866D02*
X0012819D01*
X0006866Y-0239370D02*
Y-0236221D01*
Y-0239370D02*
X0012819D01*
X0010063Y-0350787D02*
Y-0347638D01*
X0004110D02*
X0010063D01*
X0004110Y-0350787D02*
Y-0347638D01*
Y-0350787D02*
X0010063D01*
X0012598Y-0295449D02*
X0015748D01*
X0012598Y-0301402D02*
Y-0295449D01*
Y-0301402D02*
X0015748D01*
Y-0295449D01*
X0014788Y-0194882D02*
Y-0191732D01*
X0008834D02*
X0014788D01*
X0008834Y-0194882D02*
Y-0191732D01*
Y-0194882D02*
X0014788D01*
X0321457Y-0244488D02*
Y-0235039D01*
Y-0244488D02*
X0329724D01*
Y-0235039D01*
X0321457D02*
X0329724D01*
X0023819Y-0004134D02*
Y0000197D01*
Y-0004134D02*
X0033661D01*
Y0000197D01*
X0023819D02*
X0033661D01*
X0023819Y0002756D02*
Y0007087D01*
Y0002756D02*
X0033661D01*
Y0007087D01*
X0023819D02*
X0033661D01*
X0023819Y0009646D02*
Y0013976D01*
Y0009646D02*
X0033661D01*
Y0013976D01*
X0023819D02*
X0033661D01*
X0023819Y0016535D02*
Y0020866D01*
Y0016535D02*
X0033661D01*
Y0020866D01*
X0023819D02*
X0033661D01*
X0146063Y-0097052D02*
X0150787D01*
X0146063Y-0106107D02*
Y-0097052D01*
Y-0106107D02*
X0150787D01*
Y-0097052D01*
X0151038Y-0097495D02*
X0155261D01*
X0151038Y-0105655D02*
Y-0097495D01*
Y-0105655D02*
X0155261D01*
Y-0097495D01*
X0607283Y-0258169D02*
Y-0255217D01*
Y-0258169D02*
X0613976D01*
Y-0255217D01*
X0607283D02*
X0613976D01*
X0608366Y-0249216D02*
X0622146D01*
Y-0232796D01*
X0608366D02*
X0622146D01*
X0608366Y-0249216D02*
Y-0232796D01*
X0594767Y-0304052D02*
Y-0295948D01*
Y-0304052D02*
X0609957D01*
Y-0295948D01*
X0594767D02*
X0609957D01*
X0611590Y-0304331D02*
Y-0301181D01*
Y-0304331D02*
X0617544D01*
Y-0301181D01*
X0611590D02*
X0617544D01*
X0601476Y-0293996D02*
Y-0290256D01*
X0594587D02*
X0601476D01*
X0594587Y-0293996D02*
Y-0290256D01*
Y-0293996D02*
X0601476D01*
X0614075Y-0262894D02*
Y-0259154D01*
X0607185D02*
X0614075D01*
X0607185Y-0262894D02*
Y-0259154D01*
Y-0262894D02*
X0614075D01*
X0335236Y-0297638D02*
Y-0288189D01*
Y-0297638D02*
X0343504D01*
Y-0288189D01*
X0335236D02*
X0343504D01*
X0316339Y-0298425D02*
Y-0288976D01*
Y-0298425D02*
X0324606D01*
Y-0288976D01*
X0316339D02*
X0324606D01*
X0581890Y-0077205D02*
Y-0051929D01*
X0545669D02*
X0581890D01*
X0545669Y-0077205D02*
Y-0051929D01*
Y-0077205D02*
X0581890D01*
X0595079Y-0086910D02*
X0616732D01*
Y-0058760D01*
X0595079D02*
X0616732D01*
X0595079Y-0086910D02*
Y-0058760D01*
X0138906Y-0135436D02*
Y-0121263D01*
X0124733Y-0135436D02*
X0138906D01*
X0124733D02*
Y-0121263D01*
X0138906D01*
M02*
