M48
;Layer_Color=9474304
;FILE_FORMAT=4:4
METRIC,LZ
;TYPE=PLATED
T01F00S00C0.3000
%
T01
X00024Y00006
X00028369Y00030043
X00016Y00029
X00015Y00056
X00014Y00073
X00033
X00058
X00065Y00071
X00066Y00059
X00055Y00063
X00061304Y000375
X0005Y00032
X000405Y00020304
X00077Y00006
X00088Y00025812
X00088312Y00038637
X00097Y00038
X00107
X00116Y00014
Y00007
X00086Y00051
X00076
X00101Y00069
Y0009
X00112
X00097Y00103
X00098125Y00111824
X00099Y0012
X00104Y00139334
X00081Y00113
X00071Y00105
X00049
X00035Y00119
X00016Y0014
M30
