G04*
G04 #@! TF.GenerationSoftware,Altium Limited,Altium Designer,21.6.4 (81)*
G04*
G04 Layer_Color=8388736*
%FSAX25Y25*%
%MOIN*%
G70*
G04*
G04 #@! TF.SameCoordinates,4D958C9C-F649-4AF2-B5CF-C97532408FB4*
G04*
G04*
G04 #@! TF.FilePolarity,Positive*
G04*
G01*
G75*
%ADD15C,0.00394*%
G54D15*
X0208132Y0011112D02*
Y0015049D01*
X0206164Y0013081D02*
X0210101D01*
X0062000Y0016212D02*
Y0020149D01*
X0060031Y0018180D02*
X0063968D01*
X0081032Y0048200D02*
X0084969D01*
X0083000Y0046231D02*
Y0050169D01*
X0210432Y0066600D02*
X0214369D01*
X0212400Y0064631D02*
Y0068568D01*
X0218131Y0066600D02*
X0222069D01*
X0220100Y0064631D02*
Y0068568D01*
X0083100Y0067331D02*
Y0071268D01*
X0081132Y0069300D02*
X0085069D01*
X0237931Y0077781D02*
X0241868D01*
X0239900Y0075812D02*
Y0079749D01*
X0192400Y0011112D02*
Y0015049D01*
X0190431Y0013081D02*
X0194369D01*
X0209631Y0051500D02*
X0213568D01*
X0211600Y0049531D02*
Y0053468D01*
X0217831Y0051500D02*
X0221768D01*
X0219800Y0049531D02*
Y0053468D01*
X0133500Y0100531D02*
Y0104469D01*
X0131532Y0102500D02*
X0135468D01*
X0072508Y0069089D02*
X0076445D01*
X0074476Y0067121D02*
Y0071058D01*
X0210208Y0043400D02*
X0214145D01*
X0212177Y0041431D02*
Y0045368D01*
X0043000Y0072531D02*
Y0076468D01*
X0041032Y0074500D02*
X0044969D01*
X0051500Y0073531D02*
Y0077468D01*
X0049531Y0075500D02*
X0053469D01*
X0074532Y0077600D02*
X0078469D01*
X0076500Y0075631D02*
Y0079568D01*
X0047333Y0065000D02*
X0051271D01*
X0049302Y0063031D02*
Y0066968D01*
X0057032Y0053500D02*
X0060969D01*
X0059000Y0051531D02*
Y0055468D01*
X0067032Y0046000D02*
X0070969D01*
X0069000Y0044032D02*
Y0047969D01*
X0059531Y0046000D02*
X0063468D01*
X0061500Y0044032D02*
Y0047969D01*
M02*
