%FSLAX25Y25*%
%MOIN*%
G70*
G01*
G75*
G04 Layer_Physical_Order=4*
G04 Layer_Color=16711680*
%ADD10R,0.09646X0.12598*%
%ADD11R,0.07874X0.10630*%
%ADD12R,0.08858X0.01575*%
%ADD13R,0.01772X0.11024*%
%ADD14R,0.01772X0.18504*%
%ADD15R,0.03543X0.03937*%
%ADD16R,0.03740X0.03937*%
%ADD17R,0.07087X0.04528*%
%ADD18R,0.04724X0.03937*%
%ADD19R,0.01969X0.07874*%
%ADD20R,0.03937X0.03740*%
%ADD21R,0.02362X0.03937*%
%ADD22O,0.04000X0.01200*%
%ADD23R,0.03937X0.03543*%
%ADD24O,0.01181X0.04134*%
%ADD25O,0.04134X0.01181*%
%ADD26R,0.13189X0.13189*%
%ADD27R,0.07874X0.09843*%
%ADD28R,0.01969X0.09055*%
%ADD29R,0.03937X0.02362*%
%ADD30R,0.03937X0.03937*%
%ADD31R,0.03740X0.05512*%
%ADD32R,0.05512X0.03740*%
%ADD33C,0.01200*%
%ADD34C,0.00600*%
%ADD35C,0.01100*%
%ADD36C,0.01000*%
%ADD37C,0.01600*%
%ADD38C,0.10000*%
%ADD39C,0.04000*%
%ADD40C,0.03937*%
%ADD41C,0.01969*%
%ADD42C,0.25590*%
%ADD43R,0.07874X0.07874*%
%ADD44C,0.06299*%
%ADD45C,0.03543*%
%ADD46R,0.05906X0.05906*%
%ADD47C,0.05906*%
%ADD48R,0.11811X0.11811*%
%ADD49C,0.11811*%
%ADD50C,0.06000*%
%ADD51R,0.06000X0.06000*%
%ADD52C,0.08268*%
%ADD53R,0.05906X0.05906*%
%ADD54C,0.06693*%
%ADD55C,0.19685*%
%ADD56C,0.02600*%
%ADD57R,0.96000X0.67300*%
%ADD58C,0.10087*%
%ADD59C,0.09299*%
%ADD60C,0.06937*%
%ADD61C,0.16780*%
%ADD62C,0.08118*%
%ADD63C,0.09299*%
%ADD64C,0.06543*%
%ADD65C,0.06543*%
%ADD66C,0.09693*%
%ADD67C,0.06800*%
%ADD68C,0.08512*%
%ADD69C,0.06150*%
%ADD70C,0.15598*%
%ADD71C,0.04200*%
%ADD72R,0.96000X0.67900*%
D33*
X564300Y253200D02*
Y276600D01*
X557400Y283500D02*
X564300Y276600D01*
X1129848Y114285D02*
X1123850D01*
X1126849Y111286D01*
Y115285D01*
D34*
X615000Y189700D02*
X616600Y188100D01*
X623800Y163900D02*
Y165900D01*
X616600Y173100D02*
X623800Y165900D01*
X621700Y161800D02*
X623800Y163900D01*
X621700Y154400D02*
Y161800D01*
X616600Y173100D02*
Y188100D01*
X615700Y148400D02*
X621700Y154400D01*
X605200Y148400D02*
X615700D01*
X599400Y142600D02*
X605200Y148400D01*
X621500Y189700D02*
Y222700D01*
X617900Y226300D02*
X621500Y222700D01*
X617900Y173900D02*
X625400Y166400D01*
X617900Y186100D02*
X621500Y189700D01*
X617900Y173900D02*
Y186100D01*
X625400Y163500D02*
Y166400D01*
X623922Y162022D02*
X625400Y163500D01*
X623893Y162022D02*
X623922D01*
X623200Y153900D02*
Y161329D01*
X623893Y162022D01*
X616400Y147100D02*
X623200Y153900D01*
X608400Y147100D02*
X616400D01*
X598300Y137000D02*
X608400Y147100D01*
X596200Y137000D02*
X598300D01*
X633000Y172600D02*
X635600Y170000D01*
Y139500D02*
Y170000D01*
X633094Y136994D02*
X635600Y139500D01*
X603906Y136994D02*
X633094D01*
X603850Y137050D02*
X603906Y136994D01*
X597600Y130800D02*
X603850Y137050D01*
X591200Y130800D02*
X597600D01*
X589900Y132100D02*
X591200Y130800D01*
X589900Y132100D02*
Y137300D01*
X621500Y183100D02*
X633100D01*
X636900Y137400D02*
Y179300D01*
X633100Y183100D02*
X636900Y179300D01*
X634700Y135200D02*
X636900Y137400D01*
X606500Y135200D02*
X634700D01*
X602600Y131300D02*
X606500Y135200D01*
X626800Y190300D02*
X627597D01*
X638100Y128900D02*
Y179797D01*
X627597Y190300D02*
X638100Y179797D01*
X632800Y123600D02*
X638100Y128900D01*
X611800Y123600D02*
X632800D01*
X608900Y117400D02*
Y120700D01*
X611800Y123600D01*
X623100Y194400D02*
X632500Y203800D01*
Y213800D01*
X623100Y188800D02*
Y194400D01*
X634400Y145200D02*
Y167500D01*
X629300Y172600D02*
X634400Y167500D01*
X632800Y143600D02*
X634400Y145200D01*
X622800Y145700D02*
X624900Y143600D01*
X632800D01*
X622489Y172600D02*
X629300D01*
X619100Y184800D02*
X623100Y188800D01*
X617000Y145700D02*
X622800D01*
X619100Y175989D02*
X622489Y172600D01*
X619100Y175989D02*
Y184800D01*
X609800Y145700D02*
X617000D01*
X598000Y133900D02*
X609800Y145700D01*
X593000Y133900D02*
X598000D01*
X698300Y188700D02*
X698900Y188100D01*
X697300Y189700D02*
X698900Y188100D01*
X706100Y163900D02*
Y165900D01*
X698900Y173100D02*
X706100Y165900D01*
X704000Y161800D02*
X706100Y163900D01*
X704000Y154400D02*
Y161800D01*
X698900Y173100D02*
Y188100D01*
X698000Y148400D02*
X704000Y154400D01*
X687500Y148400D02*
X698000D01*
X681700Y142600D02*
X687500Y148400D01*
X703800Y189700D02*
Y222700D01*
X700200Y226300D02*
X703800Y222700D01*
X700200Y173900D02*
X707700Y166400D01*
X700200Y186100D02*
X703800Y189700D01*
X700200Y173900D02*
Y186100D01*
X707700Y163500D02*
Y166400D01*
X706222Y162022D02*
X707700Y163500D01*
X706193Y162022D02*
X706222D01*
X705500Y153900D02*
Y161329D01*
X706193Y162022D01*
X698700Y147100D02*
X705500Y153900D01*
X690700Y147100D02*
X698700D01*
X680600Y137000D02*
X690700Y147100D01*
X678500Y137000D02*
X680600D01*
X715300Y172600D02*
X717900Y170000D01*
Y139500D02*
Y170000D01*
X715394Y136994D02*
X717900Y139500D01*
X686206Y136994D02*
X715394D01*
X686150Y137050D02*
X686206Y136994D01*
X679900Y130800D02*
X686150Y137050D01*
X673500Y130800D02*
X679900D01*
X672200Y132100D02*
X673500Y130800D01*
X672200Y132100D02*
Y137300D01*
X703800Y183100D02*
X715400D01*
X719200Y137400D02*
Y179300D01*
X715400Y183100D02*
X719200Y179300D01*
X717000Y135200D02*
X719200Y137400D01*
X688800Y135200D02*
X717000D01*
X684900Y131300D02*
X688800Y135200D01*
X709100Y190300D02*
X709897D01*
X720400Y128900D02*
Y179797D01*
X709897Y190300D02*
X720400Y179797D01*
X715100Y123600D02*
X720400Y128900D01*
X694100Y123600D02*
X715100D01*
X691200Y117400D02*
Y120700D01*
X694100Y123600D01*
X705400Y194400D02*
X714800Y203800D01*
Y213800D01*
X705400Y188800D02*
Y194400D01*
X716700Y145200D02*
Y167500D01*
X711600Y172600D02*
X716700Y167500D01*
X715100Y143600D02*
X716700Y145200D01*
X705100Y145700D02*
X707200Y143600D01*
X715100D01*
X704789Y172600D02*
X711600D01*
X701400Y184800D02*
X705400Y188800D01*
X699300Y145700D02*
X705100D01*
X701400Y175989D02*
X704789Y172600D01*
X701400Y175989D02*
Y184800D01*
X692100Y145700D02*
X699300D01*
X680300Y133900D02*
X692100Y145700D01*
X675300Y133900D02*
X680300D01*
X533700Y188700D02*
X534300Y188100D01*
X532700Y189700D02*
X534300Y188100D01*
Y173100D02*
Y188100D01*
X541500Y163900D02*
Y165900D01*
X534300Y173100D02*
X541500Y165900D01*
X539400Y161800D02*
X541500Y163900D01*
X539400Y154400D02*
Y161800D01*
X533400Y148400D02*
X539400Y154400D01*
X522900Y148400D02*
X533400D01*
X517100Y142600D02*
X522900Y148400D01*
X539200Y189700D02*
Y222700D01*
X535600Y226300D02*
X539200Y222700D01*
X535600Y173900D02*
X543100Y166400D01*
X535600Y186100D02*
X539200Y189700D01*
X535600Y173900D02*
Y186100D01*
X543100Y163500D02*
Y166400D01*
X541622Y162022D02*
X543100Y163500D01*
X541593Y162022D02*
X541622D01*
X540900Y153900D02*
Y161329D01*
X541593Y162022D01*
X534100Y147100D02*
X540900Y153900D01*
X526100Y147100D02*
X534100D01*
X516000Y137000D02*
X526100Y147100D01*
X513900Y137000D02*
X516000D01*
X550700Y172600D02*
X553300Y170000D01*
Y139500D02*
Y170000D01*
X550794Y136994D02*
X553300Y139500D01*
X521606Y136994D02*
X550794D01*
X521550Y137050D02*
X521606Y136994D01*
X515300Y130800D02*
X521550Y137050D01*
X508900Y130800D02*
X515300D01*
X507600Y132100D02*
X508900Y130800D01*
X507600Y132100D02*
Y137300D01*
X539200Y183100D02*
X550800D01*
X554600Y137400D02*
Y179300D01*
X550800Y183100D02*
X554600Y179300D01*
X552400Y135200D02*
X554600Y137400D01*
X524200Y135200D02*
X552400D01*
X520300Y131300D02*
X524200Y135200D01*
X544500Y190300D02*
X545297D01*
X555800Y128900D02*
Y179797D01*
X545297Y190300D02*
X555800Y179797D01*
X550500Y123600D02*
X555800Y128900D01*
X529500Y123600D02*
X550500D01*
X526600Y117400D02*
Y120700D01*
X529500Y123600D01*
X540800Y194400D02*
X550200Y203800D01*
Y213800D01*
X540800Y188800D02*
Y194400D01*
X552100Y145200D02*
Y167500D01*
X547000Y172600D02*
X552100Y167500D01*
X550500Y143600D02*
X552100Y145200D01*
X540500Y145700D02*
X542600Y143600D01*
X550500D01*
X540189Y172600D02*
X547000D01*
X536800Y184800D02*
X540800Y188800D01*
X534700Y145700D02*
X540500D01*
X536800Y175989D02*
X540189Y172600D01*
X536800Y175989D02*
Y184800D01*
X527500Y145700D02*
X534700D01*
X515700Y133900D02*
X527500Y145700D01*
X510700Y133900D02*
X515700D01*
X780600Y188700D02*
X781200Y188100D01*
X779600Y189700D02*
X781200Y188100D01*
X788400Y163900D02*
Y165900D01*
X781200Y173100D02*
X788400Y165900D01*
X786300Y161800D02*
X788400Y163900D01*
X786300Y154400D02*
Y161800D01*
X781200Y173100D02*
Y188100D01*
X780300Y148400D02*
X786300Y154400D01*
X769800Y148400D02*
X780300D01*
X764000Y142600D02*
X769800Y148400D01*
X786100Y189700D02*
Y222700D01*
X782500Y226300D02*
X786100Y222700D01*
X782500Y173900D02*
X790000Y166400D01*
X782500Y186100D02*
X786100Y189700D01*
X782500Y173900D02*
Y186100D01*
X790000Y163500D02*
Y166400D01*
X788522Y162022D02*
X790000Y163500D01*
X788493Y162022D02*
X788522D01*
X787800Y153900D02*
Y161329D01*
X788493Y162022D01*
X781000Y147100D02*
X787800Y153900D01*
X773000Y147100D02*
X781000D01*
X762900Y137000D02*
X773000Y147100D01*
X760800Y137000D02*
X762900D01*
X797600Y172600D02*
X800200Y170000D01*
Y139500D02*
Y170000D01*
X797694Y136994D02*
X800200Y139500D01*
X768506Y136994D02*
X797694D01*
X768450Y137050D02*
X768506Y136994D01*
X762200Y130800D02*
X768450Y137050D01*
X755800Y130800D02*
X762200D01*
X754500Y132100D02*
X755800Y130800D01*
X754500Y132100D02*
Y137300D01*
X786100Y183100D02*
X797700D01*
X801500Y137400D02*
Y179300D01*
X797700Y183100D02*
X801500Y179300D01*
X799300Y135200D02*
X801500Y137400D01*
X771100Y135200D02*
X799300D01*
X767200Y131300D02*
X771100Y135200D01*
X791400Y190300D02*
X792197D01*
X802700Y128900D02*
Y179797D01*
X792197Y190300D02*
X802700Y179797D01*
X797400Y123600D02*
X802700Y128900D01*
X776400Y123600D02*
X797400D01*
X773500Y117400D02*
Y120700D01*
X776400Y123600D01*
X787700Y194400D02*
X797100Y203800D01*
Y213800D01*
X787700Y188800D02*
Y194400D01*
X799000Y145200D02*
Y167500D01*
X793900Y172600D02*
X799000Y167500D01*
X797400Y143600D02*
X799000Y145200D01*
X787400Y145700D02*
X789500Y143600D01*
X797400D01*
X787089Y172600D02*
X793900D01*
X783700Y184800D02*
X787700Y188800D01*
X781600Y145700D02*
X787400D01*
X783700Y175989D02*
X787089Y172600D01*
X783700Y175989D02*
Y184800D01*
X774400Y145700D02*
X781600D01*
X762600Y133900D02*
X774400Y145700D01*
X757600Y133900D02*
X762600D01*
X451300Y188600D02*
X451900Y188000D01*
X450300Y189600D02*
X451900Y188000D01*
Y173000D02*
Y188000D01*
X459100Y163800D02*
Y165800D01*
X451900Y173000D02*
X459100Y165800D01*
X457000Y161700D02*
X459100Y163800D01*
X457000Y154300D02*
Y161700D01*
X451000Y148300D02*
X457000Y154300D01*
X440500Y148300D02*
X451000D01*
X434700Y142500D02*
X440500Y148300D01*
X456800Y189600D02*
Y222600D01*
X453200Y226200D02*
X456800Y222600D01*
X453200Y173800D02*
X460700Y166300D01*
X453200Y186000D02*
X456800Y189600D01*
X453200Y173800D02*
Y186000D01*
X460700Y163400D02*
Y166300D01*
X459222Y161922D02*
X460700Y163400D01*
X459193Y161922D02*
X459222D01*
X458500Y153800D02*
Y161229D01*
X459193Y161922D01*
X451700Y147000D02*
X458500Y153800D01*
X443700Y147000D02*
X451700D01*
X433600Y136900D02*
X443700Y147000D01*
X431500Y136900D02*
X433600D01*
X468300Y172500D02*
X470900Y169900D01*
Y139400D02*
Y169900D01*
X468394Y136894D02*
X470900Y139400D01*
X439206Y136894D02*
X468394D01*
X439150Y136950D02*
X439206Y136894D01*
X432900Y130700D02*
X439150Y136950D01*
X426500Y130700D02*
X432900D01*
X425200Y132000D02*
X426500Y130700D01*
X425200Y132000D02*
Y137200D01*
X456800Y183000D02*
X468400D01*
X472200Y137300D02*
Y179200D01*
X468400Y183000D02*
X472200Y179200D01*
X470000Y135100D02*
X472200Y137300D01*
X441800Y135100D02*
X470000D01*
X437900Y131200D02*
X441800Y135100D01*
X462100Y190200D02*
X462897D01*
X473400Y128800D02*
Y179697D01*
X462897Y190200D02*
X473400Y179697D01*
X468100Y123500D02*
X473400Y128800D01*
X447100Y123500D02*
X468100D01*
X444200Y117300D02*
Y120600D01*
X447100Y123500D01*
X458400Y194300D02*
X467800Y203700D01*
Y213700D01*
X458400Y188700D02*
Y194300D01*
X469700Y145100D02*
Y167400D01*
X464600Y172500D02*
X469700Y167400D01*
X468100Y143500D02*
X469700Y145100D01*
X458100Y145600D02*
X460200Y143500D01*
X468100D01*
X457789Y172500D02*
X464600D01*
X454400Y184700D02*
X458400Y188700D01*
X452300Y145600D02*
X458100D01*
X454400Y175889D02*
X457789Y172500D01*
X454400Y175889D02*
Y184700D01*
X445100Y145600D02*
X452300D01*
X433300Y133800D02*
X445100Y145600D01*
X428300Y133800D02*
X433300D01*
X370900Y226200D02*
X374500Y222600D01*
X368000Y189600D02*
X369600Y188000D01*
Y173000D02*
Y188000D01*
X358200Y148300D02*
X368700D01*
X352400Y142500D02*
X358200Y148300D01*
X361400Y147000D02*
X369400D01*
X351300Y136900D02*
X361400Y147000D01*
X349200Y136900D02*
X351300D01*
X378400Y163400D02*
Y166300D01*
X376922Y161922D02*
X378400Y163400D01*
X376893Y161922D02*
X376922D01*
X370900Y173800D02*
X378400Y166300D01*
X376200Y161229D02*
X376893Y161922D01*
X369400Y147000D02*
X376200Y153800D01*
X369600Y173000D02*
X376800Y165800D01*
Y163800D02*
Y165800D01*
X370900Y173800D02*
Y186000D01*
X374700Y161700D02*
X376800Y163800D01*
X368700Y148300D02*
X374700Y154300D01*
Y161700D01*
X369000Y188600D02*
X369600Y188000D01*
X370900Y186000D02*
X374500Y189600D01*
X372100Y175889D02*
Y184700D01*
Y175889D02*
X375489Y172500D01*
X370000Y145600D02*
X375800D01*
X362800D02*
X370000D01*
X375800D02*
X377900Y143500D01*
X351000Y133800D02*
X362800Y145600D01*
X385800Y143500D02*
X387400Y145100D01*
X377900Y143500D02*
X385800D01*
X387400Y145100D02*
Y167400D01*
X375489Y172500D02*
X382300D01*
X376200Y153800D02*
Y161229D01*
X346000Y133800D02*
X351000D01*
X372100Y184700D02*
X376100Y188700D01*
X382300Y172500D02*
X387400Y167400D01*
X386000Y172500D02*
X388600Y169900D01*
Y139400D02*
Y169900D01*
X386094Y136894D02*
X388600Y139400D01*
X389900Y137300D02*
Y179200D01*
X391100Y128800D02*
Y179697D01*
X387700Y135100D02*
X389900Y137300D01*
X386100Y183000D02*
X389900Y179200D01*
X385800Y123500D02*
X391100Y128800D01*
X380597Y190200D02*
X391100Y179697D01*
X344200Y130700D02*
X350600D01*
X342900Y132000D02*
X344200Y130700D01*
X342900Y132000D02*
Y137200D01*
X350600Y130700D02*
X356850Y136950D01*
X356906Y136894D02*
X386094D01*
X356850Y136950D02*
X356906Y136894D01*
X359500Y135100D02*
X387700D01*
X374500Y183000D02*
X386100D01*
X379800Y190200D02*
X380597D01*
X364800Y123500D02*
X385800D01*
X361900Y120600D02*
X364800Y123500D01*
X361900Y117300D02*
Y120600D01*
X355600Y131200D02*
X359500Y135100D01*
X374500Y189600D02*
Y222600D01*
X376100Y188700D02*
Y194300D01*
X385500Y203700D01*
Y213700D01*
X1005000Y53300D02*
X1007700Y50600D01*
Y34200D02*
Y50600D01*
X1004450Y34200D02*
Y40050D01*
X1005100Y40700D01*
Y50000D01*
X1005000Y50100D02*
X1005100Y50000D01*
X1064634Y34566D02*
Y48466D01*
X1061600Y51500D02*
X1064634Y48466D01*
X1061050Y34482D02*
Y39950D01*
X1061700Y40600D02*
Y47300D01*
X1061050Y39950D02*
X1061700Y40600D01*
X98900Y453600D02*
Y458100D01*
X98100Y415500D02*
X100700Y418100D01*
X98100Y410700D02*
Y415500D01*
Y410700D02*
X100900Y407900D01*
X100800Y413800D02*
X103300Y411300D01*
X95700Y258000D02*
X98700Y255000D01*
X97900Y262900D02*
X101800Y259000D01*
X103300Y280300D02*
Y411300D01*
X88600Y250300D02*
X93200Y245700D01*
X97700Y247900D02*
X97800Y247800D01*
X92300Y404200D02*
X95900D01*
X90500Y402400D02*
X92300Y404200D01*
X86300Y245300D02*
X88500Y243100D01*
X90500Y250989D02*
X93589Y247900D01*
X95500D02*
X97700D01*
X93589D02*
X95500D01*
X100900Y280900D02*
Y407900D01*
X90500Y400700D02*
Y402400D01*
Y398100D02*
Y400700D01*
X86100Y389700D02*
Y393800D01*
X115700Y277000D02*
X119900Y272800D01*
X91200Y439700D02*
Y446500D01*
X105500Y280100D02*
Y421600D01*
X102200Y453700D02*
X115700Y440200D01*
Y277000D02*
Y440200D01*
X111700Y423100D02*
Y424100D01*
X98900Y453600D02*
X113500Y439000D01*
Y272800D02*
Y439000D01*
X111700Y278300D02*
Y424100D01*
X106100Y272700D02*
X111700Y278300D01*
X87100Y440000D02*
X91300Y435800D01*
X105500Y421600D01*
X91200Y439700D02*
X91850Y439050D01*
X97900Y272500D02*
X105500Y280100D01*
X97900Y262900D02*
Y272500D01*
X95700Y258000D02*
Y272700D01*
X103300Y280300D01*
X93200Y251400D02*
Y273200D01*
X100900Y280900D01*
X90500Y250989D02*
Y273400D01*
X88600Y250300D02*
Y274400D01*
X86300Y245300D02*
Y275200D01*
X95600Y408900D02*
X99100Y405400D01*
X93500Y400100D02*
X97300Y396300D01*
X88600Y274400D02*
X97300Y283100D01*
X90500Y273400D02*
X99100Y282000D01*
Y405400D01*
X97300Y283100D02*
Y396300D01*
X90500Y398100D02*
X95700Y392900D01*
X86300Y275200D02*
X95700Y284600D01*
X87000Y398800D02*
X93600Y392200D01*
X84600Y276900D02*
X93600Y285900D01*
X95700Y284600D02*
Y392900D01*
X93600Y285900D02*
Y392200D01*
X88800Y391400D02*
X91700Y388500D01*
X82900Y277900D02*
X91700Y286700D01*
Y388500D01*
X81100Y279000D02*
X89900Y287800D01*
Y385900D01*
X86100Y389700D02*
X89900Y385900D01*
X81263Y375834D02*
Y378663D01*
X83526Y375269D02*
Y380925D01*
X85788Y374703D02*
Y383188D01*
X76000Y282091D02*
X84100Y290191D01*
X128500Y225500D02*
X130700Y227700D01*
X123700Y227200D02*
X125600Y229100D01*
X117400Y228900D02*
X120200Y231700D01*
X85788Y374703D02*
X87700Y372791D01*
X79600Y280600D02*
X87700Y288700D01*
X83526Y375269D02*
X86500Y372294D01*
X78400Y281097D02*
X86500Y289197D01*
X81263Y375834D02*
X85300Y371797D01*
X77200Y281594D02*
X85300Y289694D01*
X87700Y288700D02*
Y372791D01*
X86500Y289197D02*
Y372294D01*
X85300Y289694D02*
Y371797D01*
X84100Y290191D02*
Y369500D01*
X78100Y375500D02*
X84100Y369500D01*
X78200Y375800D02*
X78300Y375700D01*
X133300Y223700D02*
X134800Y225200D01*
X89900Y234600D02*
X106600D01*
X88800Y238000D02*
X109800D01*
X90000Y231700D02*
X113600D01*
X88200Y228900D02*
X117400D01*
X88203Y227200D02*
X123700D01*
X88206Y225500D02*
X128500D01*
X88309Y223700D02*
X133300D01*
X91700Y155900D02*
Y215500D01*
X84600Y242200D02*
X88800Y238000D01*
X84600Y242200D02*
Y276900D01*
X82900Y241600D02*
X89900Y234600D01*
X82900Y241600D02*
Y277900D01*
X81100Y240600D02*
Y279000D01*
Y240600D02*
X90000Y231700D01*
X79600Y237500D02*
X88200Y228900D01*
X79600Y237500D02*
Y280600D01*
X78400Y237003D02*
X88203Y227200D01*
X78400Y237003D02*
Y281097D01*
X77200Y236506D02*
X88206Y225500D01*
X77200Y236506D02*
Y281594D01*
X76000Y236009D02*
Y282091D01*
Y236009D02*
X88309Y223700D01*
X74800Y232400D02*
Y421600D01*
X83200Y430000D02*
Y462500D01*
X74800Y232400D02*
X91700Y215500D01*
X74800Y421600D02*
X83200Y430000D01*
X89437Y158163D02*
Y216066D01*
X73600Y461000D02*
X80400Y467800D01*
X73600Y231903D02*
X89437Y216066D01*
X73600Y231903D02*
Y461000D01*
X87174Y160425D02*
Y216631D01*
X71200Y232606D02*
Y282600D01*
Y232606D02*
X87174Y216631D01*
X84912Y162688D02*
Y217188D01*
X69000Y233100D02*
Y284500D01*
X71000Y286500D01*
X69000Y233100D02*
X84912Y217188D01*
X82649Y164951D02*
Y217151D01*
X67800Y232000D02*
X82649Y217151D01*
X80386Y167214D02*
Y217717D01*
X66600Y231503D02*
Y289300D01*
X71300Y294000D01*
X66600Y231503D02*
X80386Y217717D01*
X67800Y232000D02*
Y286900D01*
X71300Y290400D01*
X78124Y169476D02*
Y218282D01*
X65400Y231006D02*
Y291700D01*
X71300Y297600D01*
X65400Y231006D02*
X78124Y218282D01*
X75861Y171739D02*
Y218848D01*
X64200Y230509D02*
Y293800D01*
X71200Y300800D01*
X64200Y230509D02*
X75861Y218848D01*
X73598Y174002D02*
Y219414D01*
X63000Y296700D02*
X71400Y305100D01*
X63000Y230012D02*
X73598Y219414D01*
X63000Y230012D02*
Y296700D01*
X64547Y183053D02*
Y221676D01*
X61800Y229515D02*
X71335Y219979D01*
X69073Y178527D02*
Y220545D01*
X60600Y229018D02*
X69073Y220545D01*
X66810Y180790D02*
Y221111D01*
X59400Y228521D02*
X66810Y221111D01*
X58200Y228024D02*
X64547Y221676D01*
X61800Y229515D02*
Y299000D01*
X71400Y308600D01*
X60600Y229018D02*
Y301000D01*
X71400Y311800D01*
X59400Y228521D02*
Y303300D01*
X71400Y315300D01*
X58200Y228024D02*
Y305600D01*
X71400Y318800D01*
X71335Y176265D02*
Y219979D01*
X62284Y185316D02*
Y222242D01*
X55800Y227029D02*
X60022Y222808D01*
X54600Y226533D02*
X57759Y223374D01*
X53400Y226035D02*
X55496Y223939D01*
X52200Y225538D02*
X53233Y224505D01*
X57759Y189841D02*
Y223374D01*
X55496Y192104D02*
Y223939D01*
X53233Y194367D02*
Y224505D01*
X60022Y187578D02*
Y222808D01*
X57000Y227526D02*
X62284Y222242D01*
X57000Y227526D02*
Y307800D01*
X71400Y322200D01*
X55800Y227029D02*
Y303400D01*
Y304800D01*
Y303400D02*
Y310300D01*
X71400Y325900D01*
X54600Y226533D02*
Y301000D01*
Y304800D01*
Y301000D02*
Y312400D01*
X71400Y329200D01*
X53400Y226035D02*
Y299300D01*
Y304800D01*
Y299300D02*
Y314700D01*
X71400Y332700D01*
X52200Y225538D02*
Y304100D01*
Y304800D01*
Y304100D02*
Y317300D01*
X71400Y336500D01*
X40500Y267400D02*
X51000Y277900D01*
Y390900D01*
X48200Y393700D02*
X51000Y390900D01*
X22300Y270800D02*
Y361200D01*
X28000Y265100D02*
X37300D01*
X22300Y270800D02*
X28000Y265100D01*
X28903Y262500D02*
X40000D01*
X20100Y362400D02*
X22300Y364600D01*
X29606Y260100D02*
X37100D01*
X30709Y257300D02*
X40000D01*
X25300Y371300D02*
Y383600D01*
X18900Y364900D02*
X25300Y371300D01*
X17700Y366900D02*
X20800Y370000D01*
X17700Y270309D02*
Y366900D01*
X18700Y269309D02*
X30709Y257300D01*
X17700Y270309D02*
X18700Y269309D01*
X31312Y255000D02*
X36800D01*
X16500Y369100D02*
X20700Y373300D01*
X16500Y269812D02*
X31312Y255000D01*
X16500Y269812D02*
Y369100D01*
X18900Y270806D02*
Y364900D01*
Y270806D02*
X29606Y260100D01*
X20100Y359500D02*
Y362400D01*
Y271303D02*
X28903Y262500D01*
X20100Y271303D02*
Y359500D01*
X32215Y252400D02*
X39800D01*
X15300Y269315D02*
X32215Y252400D01*
X33718Y249200D02*
X36700D01*
X14100Y268818D02*
X33718Y249200D01*
X14100Y268818D02*
Y368300D01*
X15300Y269315D02*
Y369800D01*
X16800Y371300D02*
Y373400D01*
X15300Y369800D02*
X16800Y371300D01*
X14100Y368300D02*
Y374700D01*
X15900Y376500D01*
X21400D01*
X34921Y246300D02*
X40200D01*
X12900Y375197D02*
X16603Y378900D01*
X18600D01*
X12900Y268321D02*
X34921Y246300D01*
X12900Y268321D02*
Y375197D01*
X34400Y243700D02*
X36900D01*
X11700Y377700D02*
X12900Y378900D01*
X11700Y266400D02*
X34400Y243700D01*
X11700Y266400D02*
Y377700D01*
X35003Y241400D02*
X40200D01*
X10500Y379611D02*
X14789Y383900D01*
X18700D01*
X10500Y265903D02*
X35003Y241400D01*
X10500Y265903D02*
Y379611D01*
X33400Y239000D02*
X36800D01*
X9300Y380108D02*
X16292Y387100D01*
X18689D01*
X9300Y263100D02*
X33400Y239000D01*
X9300Y263100D02*
Y380108D01*
X19800Y389100D02*
X25300Y383600D01*
X19800Y389100D02*
Y392600D01*
X22600Y395400D01*
X39500Y393700D02*
X48200D01*
X37200Y391400D02*
X39500Y393700D01*
X34203Y236500D02*
X40100D01*
X8100Y262603D02*
Y392500D01*
X21900Y406300D01*
X8100Y262603D02*
X34203Y236500D01*
X33600Y234000D02*
X36100D01*
X6900Y425200D02*
X21800Y440100D01*
X6900Y260700D02*
X33600Y234000D01*
X6900Y260700D02*
Y425200D01*
X21900Y411400D02*
Y431400D01*
X16800Y444000D02*
X23300D01*
X21900Y431400D02*
X25500Y435000D01*
Y441800D01*
X23300Y444000D02*
X25500Y441800D01*
X616000Y188700D02*
X616600Y188100D01*
X93700Y450100D02*
X98600D01*
X111700Y437000D01*
Y424100D02*
Y437000D01*
X93900Y442500D02*
X103500D01*
X109700Y436300D01*
Y279600D02*
Y436300D01*
X101575Y271475D02*
X109700Y279600D01*
X101575Y268175D02*
Y271475D01*
X99375Y271674D02*
X107800Y280100D01*
X99375Y265926D02*
Y271674D01*
Y265926D02*
X101900Y263400D01*
X107800Y280100D02*
Y423100D01*
X91850Y439050D02*
X107800Y423100D01*
D35*
X286800Y469700D02*
X293659Y476559D01*
X275096Y469700D02*
X286800D01*
X262800Y457404D02*
X275096Y469700D01*
X262800Y331296D02*
X270796Y323300D01*
X306996D01*
X316896Y313400D01*
X681300D01*
X275800Y468000D02*
X287504D01*
X264500Y456700D02*
X275800Y468000D01*
X271500Y325000D02*
X307700D01*
X317600Y315100D01*
X682004D01*
X293659Y476559D02*
X299750D01*
X300500Y477309D01*
X300311Y474298D02*
X300500Y474109D01*
X293802Y474298D02*
X300311D01*
X287504Y468000D02*
X293802Y474298D01*
X262800Y331296D02*
Y457404D01*
X264500Y332000D02*
Y456700D01*
X255600Y474900D02*
X285204D01*
X254896Y476600D02*
X284500D01*
X245600Y464900D02*
X255600Y474900D01*
X243900Y465604D02*
X254896Y476600D01*
X243800Y482600D02*
X283700D01*
X243096Y484300D02*
X282996D01*
X228600Y467400D02*
X243800Y482600D01*
X226900Y468104D02*
X243096Y484300D01*
X236200Y491000D02*
X281500D01*
X258896Y492700D02*
X280796D01*
X287096Y499000D01*
X297100D02*
X297147Y499047D01*
X287096Y499000D02*
X297100D01*
X297147Y499047D02*
X299450D01*
X281500Y491000D02*
X287800Y497300D01*
X299497D02*
X300200Y496597D01*
X287800Y497300D02*
X299497D01*
X264500Y332000D02*
X271500Y325000D01*
X256000Y323800D02*
Y458600D01*
X254300Y323096D02*
Y460365D01*
X256000Y323800D02*
X263300Y316500D01*
X254300Y323096D02*
X262596Y314800D01*
X254300Y460365D02*
X256535Y462600D01*
X245600Y320000D02*
Y464900D01*
X243900Y319296D02*
Y465604D01*
X263300Y316500D02*
X299200D01*
X262596Y314800D02*
X298496D01*
X245600Y320000D02*
X257900Y307700D01*
X243900Y319296D02*
X257196Y306000D01*
X237200Y308600D02*
Y439800D01*
X235500Y307896D02*
Y438035D01*
X228600Y287800D02*
Y467400D01*
X226900Y287096D02*
Y468104D01*
X257900Y307700D02*
X296900D01*
X257196Y306000D02*
X296196D01*
X237200Y308600D02*
X247700Y298100D01*
X235500Y307896D02*
X246996Y296400D01*
X228600Y287800D02*
X237200Y279200D01*
X226900Y287096D02*
X236496Y277500D01*
X733418Y199850D02*
Y246782D01*
X732668Y199100D02*
X733418Y199850D01*
X256000Y458700D02*
X256750Y459450D01*
X256535Y462600D02*
X256800D01*
X298496Y314800D02*
X308296Y305000D01*
X299200Y316500D02*
X309000Y306700D01*
X284500Y476600D02*
X292598Y484698D01*
X296196Y306000D02*
X306496Y295700D01*
X296900Y307700D02*
X307200Y297400D01*
X292598Y484698D02*
X300393D01*
X300500Y484805D01*
X298842Y482998D02*
X300235Y481605D01*
X300500D01*
X293302Y482998D02*
X298842D01*
X285204Y474900D02*
X293302Y482998D01*
X246996Y296400D02*
X289896D01*
X299596Y286700D01*
X247700Y298100D02*
X290600D01*
X300300Y288400D01*
X234750Y440815D02*
X237035Y443100D01*
X237300D01*
X234750Y438785D02*
Y440815D01*
Y438785D02*
X235500Y438035D01*
X290296Y491600D02*
X300040D01*
X282996Y484300D02*
X290296Y491600D01*
X291000Y489900D02*
X299336D01*
X283700Y482600D02*
X291000Y489900D01*
X300089Y491551D02*
X300300D01*
X300040Y491600D02*
X300089Y491551D01*
X299385Y489851D02*
X300300D01*
X299336Y489900D02*
X299385Y489851D01*
X236496Y277500D02*
X524500D01*
X237200Y279200D02*
X525204D01*
X219200Y280200D02*
Y438100D01*
X217500Y439865D02*
X219735Y442100D01*
X217500Y279496D02*
Y439865D01*
X219200Y438100D02*
X220000Y438900D01*
X217500Y279496D02*
X227896Y269100D01*
X219200Y280200D02*
X228600Y270800D01*
X518104D01*
X570518Y218386D01*
Y199850D02*
Y218386D01*
Y199850D02*
X571268Y199100D01*
X227896Y269100D02*
X517400D01*
X568068Y199100D02*
X568818Y199850D01*
Y217682D01*
X517400Y269100D02*
X568818Y217682D01*
X219735Y442100D02*
X220100D01*
X209000Y272300D02*
X220700Y260600D01*
X453900D01*
X210700Y273004D02*
X221404Y262300D01*
X454604D01*
X500700Y216204D01*
X210700Y273004D02*
Y429900D01*
X209000Y272300D02*
Y466204D01*
X210700Y429900D02*
Y465500D01*
X236200Y491000D01*
X209000Y466204D02*
X235496Y492700D01*
X258896D01*
X260300Y498600D02*
X280404D01*
X231400D02*
X260300D01*
X192700Y257200D02*
Y459900D01*
X231400Y498600D01*
X230696Y500300D02*
X279700D01*
X191000Y460604D02*
X230696Y500300D01*
X519982Y182400D02*
X525682Y176700D01*
Y171150D02*
Y176700D01*
X524932Y170400D02*
X525682Y171150D01*
X191000Y256496D02*
Y460604D01*
X185035Y451200D02*
X185900D01*
X182850Y449015D02*
X185035Y451200D01*
X182850Y444350D02*
Y449015D01*
Y444350D02*
X183100Y444100D01*
X184800Y447500D02*
X185300Y448000D01*
X184800Y247500D02*
Y447500D01*
X299450Y499047D02*
X300200Y499797D01*
X258896Y492700D02*
X263500D01*
X210700Y429900D02*
Y430800D01*
X201200Y437400D02*
X201800Y438000D01*
X201200Y432200D02*
Y437400D01*
Y432200D02*
Y434000D01*
Y264300D02*
Y432200D01*
X201635Y441300D02*
X203600D01*
X199350Y439015D02*
X201635Y441300D01*
X199350Y434854D02*
Y439015D01*
Y434854D02*
X199500Y434704D01*
X485768Y199100D02*
X486518Y199850D01*
Y212600D01*
X448618Y250500D02*
X486518Y212600D01*
X212596Y250500D02*
X448618D01*
X199500Y263596D02*
X212596Y250500D01*
X199500Y263596D02*
Y434704D01*
X299450Y504900D02*
X300200Y504150D01*
X286704Y504900D02*
X299450D01*
X280404Y498600D02*
X286704Y504900D01*
X213300Y252200D02*
X449322D01*
X201200Y264300D02*
X213300Y252200D01*
X192700Y257200D02*
X206100Y243800D01*
X183100Y246796D02*
Y444100D01*
X176400Y455600D02*
X226800Y506000D01*
X174700Y456304D02*
X226096Y507700D01*
X226800Y506000D02*
X273404D01*
X176400Y243500D02*
Y455600D01*
X226096Y507700D02*
X272700D01*
X174700Y242796D02*
Y456304D01*
X166800Y457900D02*
X221239Y512339D01*
X165100Y458604D02*
X220535Y514039D01*
X166800Y299400D02*
Y457900D01*
X221239Y512339D02*
X237150D01*
X165100Y238496D02*
Y458604D01*
X220535Y514039D02*
X237150D01*
X197900Y234400D02*
X384622D01*
X191000Y256496D02*
X205396Y242100D01*
X184800Y247500D02*
X197900Y234400D01*
X183100Y246796D02*
X197196Y232700D01*
X383918D01*
X199100Y220800D02*
X328004D01*
X198396Y219100D02*
X327300D01*
X176400Y243500D02*
X199100Y220800D01*
X174700Y242796D02*
X198396Y219100D01*
X193100Y212900D02*
X256200D01*
X192396Y211200D02*
X317400D01*
X256200Y212900D02*
X318104D01*
X166800Y239200D02*
X193100Y212900D01*
X165100Y238496D02*
X192396Y211200D01*
X166800Y239200D02*
Y299400D01*
X299550Y512500D02*
X300300Y511750D01*
X237150Y512339D02*
X237900Y511589D01*
X682004Y315100D02*
X748100Y249004D01*
Y197100D02*
Y249004D01*
X681300Y313400D02*
X746400Y248300D01*
Y196396D02*
Y248300D01*
X735118Y199850D02*
Y247486D01*
X383918Y232700D02*
X404118Y212500D01*
Y199750D02*
Y212500D01*
X403368Y199000D02*
X404118Y199750D01*
X436082Y188600D02*
X443282Y181400D01*
Y172207D02*
Y181400D01*
X442532Y171457D02*
X443282Y172207D01*
X665800Y197100D02*
Y235204D01*
X664100Y196396D02*
Y234500D01*
X651118Y199850D02*
Y232782D01*
X652818Y199850D02*
Y233486D01*
X525204Y279200D02*
X583500Y220904D01*
X524500Y277500D02*
X581800Y220200D01*
Y196396D02*
Y220200D01*
X583500Y197100D02*
Y220904D01*
X279700Y500300D02*
X286000Y506600D01*
X299450D02*
X300200Y507350D01*
X286000Y506600D02*
X299450D01*
X328004Y220800D02*
X336500Y212304D01*
Y197000D02*
Y212304D01*
Y197000D02*
X343200Y190300D01*
X354486D01*
X362682Y182104D01*
Y172207D02*
Y182104D01*
Y172207D02*
X363432Y171457D01*
X300300Y511750D02*
Y512500D01*
X299550Y514200D02*
X300300Y514950D01*
X237150Y514039D02*
X237900Y514789D01*
X453900Y260600D02*
X499000Y215500D01*
X449322Y252200D02*
X488218Y213304D01*
Y199850D02*
Y213304D01*
X499000Y190896D02*
Y215500D01*
X500700Y191600D02*
Y216204D01*
X387304Y243800D02*
X418800Y212304D01*
X386600Y242100D02*
X417100Y211600D01*
X384622Y234400D02*
X405818Y213204D01*
X418800Y197000D02*
Y212304D01*
X405818Y199750D02*
Y213204D01*
X327300Y219100D02*
X334800Y211600D01*
X321818Y199750D02*
Y206782D01*
X318104Y212900D02*
X323518Y207486D01*
Y199750D02*
Y207486D01*
X317400Y211200D02*
X321818Y206782D01*
X323518Y199750D02*
X324268Y199000D01*
X321068D02*
X321818Y199750D01*
X499000Y190896D02*
X507496Y182400D01*
X519982D01*
X500700Y191600D02*
X508200Y184100D01*
X520686D01*
X527382Y171150D02*
Y177404D01*
X520686Y184100D02*
X527382Y177404D01*
Y171150D02*
X528132Y170400D01*
X609682Y172307D02*
X610432Y171557D01*
X609682Y172307D02*
Y182204D01*
X590200Y190400D02*
X601486D01*
X609682Y182204D01*
X583500Y197100D02*
X590200Y190400D01*
X607232Y171557D02*
X607982Y172307D01*
X600782Y188700D02*
X607982Y181500D01*
Y172307D02*
Y181500D01*
X581800Y196396D02*
X589496Y188700D01*
X600782D01*
X652818Y199850D02*
X653568Y199100D01*
X650368D02*
X651118Y199850D01*
X691982Y172307D02*
X692732Y171557D01*
X691982Y172307D02*
Y182204D01*
X672500Y190400D02*
X683786D01*
X691982Y182204D01*
X665800Y197100D02*
X672500Y190400D01*
X689532Y171557D02*
X690282Y172307D01*
X683082Y188700D02*
X690282Y181500D01*
Y172307D02*
Y181500D01*
X664100Y196396D02*
X671796Y188700D01*
X683082D01*
X488218Y199850D02*
X488968Y199100D01*
X735118Y199850D02*
X735868Y199100D01*
X774282Y172307D02*
X775032Y171557D01*
X774282Y172307D02*
Y182204D01*
X754800Y190400D02*
X766086D01*
X774282Y182204D01*
X748100Y197100D02*
X754800Y190400D01*
X771832Y171557D02*
X772582Y172307D01*
X765382Y188700D02*
X772582Y181500D01*
Y172307D02*
Y181500D01*
X746400Y196396D02*
X754096Y188700D01*
X765382D01*
X405818Y199750D02*
X406568Y199000D01*
X444982Y172207D02*
X445732Y171457D01*
X444982Y172207D02*
Y182104D01*
X425500Y190300D02*
X436786D01*
X444982Y182104D01*
X418800Y197000D02*
X425500Y190300D01*
X417100Y196296D02*
X424796Y188600D01*
X436082D01*
X417100Y196296D02*
Y211600D01*
X321068Y199000D02*
X321818Y199750D01*
X334800Y196296D02*
X342496Y188600D01*
X353782D01*
X334800Y196296D02*
Y211600D01*
X353782Y188600D02*
X360982Y181400D01*
Y172207D02*
Y181400D01*
X360232Y171457D02*
X360982Y172207D01*
X206100Y243800D02*
X387304D01*
X205396Y242100D02*
X386600D01*
X675904Y306700D02*
X735118Y247486D01*
X675200Y305000D02*
X733418Y246782D01*
X309000Y306700D02*
X675904D01*
X308296Y305000D02*
X675200D01*
X603604Y297400D02*
X665800Y235204D01*
X602900Y295700D02*
X664100Y234500D01*
X307200Y297400D02*
X603604D01*
X306496Y295700D02*
X602900D01*
X597904Y288400D02*
X652818Y233486D01*
X597200Y286700D02*
X651118Y232782D01*
X300300Y288400D02*
X597904D01*
X299596Y286700D02*
X597200D01*
X279200Y514200D02*
X299550D01*
X279904Y512500D02*
X299550D01*
X272700Y507700D02*
X279200Y514200D01*
X273404Y506000D02*
X279904Y512500D01*
D36*
X1120793Y106168D02*
X1132604D01*
X1120793Y106168D02*
X1132604D01*
X1120793Y106168D02*
Y117979D01*
X1132604D01*
Y106168D02*
Y117979D01*
X1120793Y106168D02*
X1132604D01*
D40*
X1058500Y327800D02*
D03*
Y345516D02*
D03*
D41*
X33740Y276181D02*
D03*
Y506496D02*
D03*
X286535Y520866D02*
D03*
Y290551D02*
D03*
X1055539Y16664D02*
D03*
X1072861D02*
D03*
X998939D02*
D03*
X1016261D02*
D03*
D42*
X426273Y338466D02*
D03*
X290300Y36900D02*
D03*
X754200Y338400D02*
D03*
X1108982Y338663D02*
D03*
Y36876D02*
D03*
D43*
X381202Y157085D02*
D03*
Y117715D02*
D03*
Y78345D02*
D03*
Y38975D02*
D03*
X358879Y19290D02*
D03*
X325100D02*
D03*
Y58660D02*
D03*
X368722Y98030D02*
D03*
X347462D02*
D03*
X325100D02*
D03*
Y137400D02*
D03*
X792802Y157185D02*
D03*
Y117815D02*
D03*
Y78445D02*
D03*
Y39075D02*
D03*
X770479Y19390D02*
D03*
X736700D02*
D03*
Y58760D02*
D03*
X780322Y98130D02*
D03*
X759062D02*
D03*
X736700D02*
D03*
Y137500D02*
D03*
X710502Y157185D02*
D03*
Y117815D02*
D03*
Y78445D02*
D03*
Y39075D02*
D03*
X688179Y19390D02*
D03*
X654400D02*
D03*
Y58760D02*
D03*
X698022Y98130D02*
D03*
X676762D02*
D03*
X654400D02*
D03*
Y137500D02*
D03*
X628202Y157185D02*
D03*
Y117815D02*
D03*
Y78445D02*
D03*
Y39075D02*
D03*
X605879Y19390D02*
D03*
X572100D02*
D03*
Y58760D02*
D03*
X615722Y98130D02*
D03*
X594462D02*
D03*
X572100D02*
D03*
Y137500D02*
D03*
X545902Y157185D02*
D03*
Y117815D02*
D03*
Y78445D02*
D03*
Y39075D02*
D03*
X523580Y19390D02*
D03*
X489800D02*
D03*
Y58760D02*
D03*
X533422Y98130D02*
D03*
X512162D02*
D03*
X489800D02*
D03*
Y137500D02*
D03*
X463502Y157085D02*
D03*
Y117715D02*
D03*
Y78345D02*
D03*
Y38975D02*
D03*
X441180Y19290D02*
D03*
X407400D02*
D03*
Y58660D02*
D03*
X451022Y98030D02*
D03*
X429762D02*
D03*
X407400D02*
D03*
Y137400D02*
D03*
D44*
X372069Y140943D02*
D03*
X334273D02*
D03*
X783669Y141043D02*
D03*
X745873D02*
D03*
X701369D02*
D03*
X663573D02*
D03*
X619068D02*
D03*
X581273D02*
D03*
X536768D02*
D03*
X498973D02*
D03*
X454368Y140943D02*
D03*
X416573D02*
D03*
D45*
X325100Y147242D02*
D03*
X334273Y165353D02*
D03*
X353171D02*
D03*
X372069D02*
D03*
X381202Y147242D02*
D03*
Y127558D02*
D03*
Y109054D02*
D03*
X325100Y127558D02*
D03*
Y109054D02*
D03*
X736700Y147343D02*
D03*
X745873Y165453D02*
D03*
X764771D02*
D03*
X783669D02*
D03*
X792802Y147343D02*
D03*
Y127657D02*
D03*
Y109153D02*
D03*
X736700Y127657D02*
D03*
Y109153D02*
D03*
X654400Y147343D02*
D03*
X663573Y165453D02*
D03*
X682471D02*
D03*
X701369D02*
D03*
X710502Y147343D02*
D03*
Y127657D02*
D03*
Y109153D02*
D03*
X654400Y127657D02*
D03*
Y109153D02*
D03*
X572100Y147343D02*
D03*
X581273Y165453D02*
D03*
X600171D02*
D03*
X619068D02*
D03*
X628202Y147343D02*
D03*
Y127657D02*
D03*
Y109153D02*
D03*
X572100Y127657D02*
D03*
Y109153D02*
D03*
X489800Y147343D02*
D03*
X498973Y165453D02*
D03*
X517871D02*
D03*
X536768D02*
D03*
X545902Y147343D02*
D03*
Y127657D02*
D03*
Y109153D02*
D03*
X489800Y127657D02*
D03*
Y109153D02*
D03*
X407400Y147242D02*
D03*
X416573Y165353D02*
D03*
X435471D02*
D03*
X454368D02*
D03*
X463502Y147242D02*
D03*
Y127558D02*
D03*
Y109054D02*
D03*
X407400Y127558D02*
D03*
Y109054D02*
D03*
D46*
X845800Y291500D02*
D03*
D47*
X855800D02*
D03*
X845800Y281500D02*
D03*
X855800D02*
D03*
X845800Y271500D02*
D03*
X855800D02*
D03*
X1097390Y134300D02*
D03*
X951143Y226900D02*
D03*
X1001490Y133700D02*
D03*
X1048643Y227600D02*
D03*
D48*
X910600Y341000D02*
D03*
D49*
X895009D02*
D03*
D50*
X948700Y342700D02*
D03*
X958700D02*
D03*
D51*
X968700D02*
D03*
D52*
X1100920Y197679D02*
D03*
Y160199D02*
D03*
X1025880Y160120D02*
D03*
Y172640D02*
D03*
Y185160D02*
D03*
Y197679D02*
D03*
X1003520Y196080D02*
D03*
Y158599D02*
D03*
X928480Y158520D02*
D03*
Y171040D02*
D03*
Y183560D02*
D03*
Y196080D02*
D03*
D53*
X1083610Y134300D02*
D03*
X931458Y226900D02*
D03*
X987710Y133700D02*
D03*
X1028957Y227600D02*
D03*
D54*
X966500Y18000D02*
D03*
Y28000D02*
D03*
Y48000D02*
D03*
Y38000D02*
D03*
X937600Y18100D02*
D03*
Y28100D02*
D03*
Y48100D02*
D03*
Y38100D02*
D03*
X906300Y18000D02*
D03*
Y28000D02*
D03*
Y48000D02*
D03*
Y38000D02*
D03*
X889999Y18000D02*
D03*
Y28000D02*
D03*
Y48000D02*
D03*
Y38000D02*
D03*
X873697Y18000D02*
D03*
Y28000D02*
D03*
Y48000D02*
D03*
Y38000D02*
D03*
X857396Y18000D02*
D03*
Y28000D02*
D03*
Y48000D02*
D03*
Y38000D02*
D03*
X841095Y18000D02*
D03*
Y28000D02*
D03*
Y48000D02*
D03*
Y38000D02*
D03*
X824400Y17606D02*
D03*
Y27606D02*
D03*
Y47606D02*
D03*
Y37606D02*
D03*
D55*
X286417Y72835D02*
D03*
Y580709D02*
D03*
X34449Y72835D02*
D03*
Y580709D02*
D03*
D56*
X41800Y273000D02*
D03*
X41900Y288700D02*
D03*
X41700Y312600D02*
D03*
X41800Y336800D02*
D03*
X41700Y351900D02*
D03*
X41900Y367400D02*
D03*
X41700Y391500D02*
D03*
Y415400D02*
D03*
X41800Y430900D02*
D03*
X41900Y446000D02*
D03*
X41700Y470400D02*
D03*
Y494300D02*
D03*
Y508900D02*
D03*
X60300Y492500D02*
D03*
X60200Y495600D02*
D03*
X46200Y494900D02*
D03*
Y492000D02*
D03*
X46100Y485000D02*
D03*
X46200Y488200D02*
D03*
X60200Y488100D02*
D03*
X60300Y484500D02*
D03*
X60200Y480600D02*
D03*
X60000Y476900D02*
D03*
X59900Y472700D02*
D03*
X59700Y469300D02*
D03*
X45800Y470000D02*
D03*
X46000Y473500D02*
D03*
Y477600D02*
D03*
Y481000D02*
D03*
X23900Y469400D02*
D03*
X37500Y469900D02*
D03*
X37400Y473100D02*
D03*
X24000Y472900D02*
D03*
X23900Y476400D02*
D03*
X37400D02*
D03*
X37300Y480000D02*
D03*
X23900D02*
D03*
X23500Y485000D02*
D03*
X23600Y487500D02*
D03*
X37300Y484800D02*
D03*
Y487600D02*
D03*
Y492400D02*
D03*
X37200Y495100D02*
D03*
X23900Y492400D02*
D03*
X24100Y495300D02*
D03*
X1023900Y138700D02*
D03*
X1122600Y167900D02*
D03*
X256800Y459400D02*
D03*
Y462600D02*
D03*
X300400Y489101D02*
D03*
X300500Y484805D02*
D03*
Y481605D02*
D03*
X237200Y439800D02*
D03*
X237300Y443100D02*
D03*
X220000Y438900D02*
D03*
X220100Y442100D02*
D03*
X185900Y451200D02*
D03*
X185300Y448000D02*
D03*
X300200Y496597D02*
D03*
X203600Y441300D02*
D03*
X201800Y438000D02*
D03*
X300500Y477309D02*
D03*
Y474109D02*
D03*
X300400Y492301D02*
D03*
X300200Y499797D02*
D03*
Y507350D02*
D03*
Y504150D02*
D03*
X300300Y514950D02*
D03*
Y511750D02*
D03*
X237900Y514789D02*
D03*
Y511589D02*
D03*
X528132Y170400D02*
D03*
X524932D02*
D03*
X618000Y194100D02*
D03*
X612500Y198100D02*
D03*
X614400Y176100D02*
D03*
X588000Y204100D02*
D03*
X577000D02*
D03*
X580500Y179100D02*
D03*
X605500Y210600D02*
D03*
X594000D02*
D03*
X609200Y213200D02*
D03*
X571268Y199100D02*
D03*
X568068D02*
D03*
X587000Y131600D02*
D03*
X586500Y118100D02*
D03*
X615000Y189700D02*
D03*
X599400Y142600D02*
D03*
X612100Y117100D02*
D03*
X615500D02*
D03*
X612000Y132600D02*
D03*
X615000Y166100D02*
D03*
X613500Y150600D02*
D03*
X610432Y171557D02*
D03*
X607232D02*
D03*
X604000Y151100D02*
D03*
X595000Y150600D02*
D03*
X585000Y163100D02*
D03*
Y150600D02*
D03*
X594500Y194100D02*
D03*
X602000D02*
D03*
X606500Y190100D02*
D03*
X618200Y226100D02*
D03*
X596200Y137000D02*
D03*
X613600Y238000D02*
D03*
X633000Y172600D02*
D03*
X589900Y137300D02*
D03*
X621500Y183100D02*
D03*
X602600Y131300D02*
D03*
X626800Y190300D02*
D03*
X608900Y117400D02*
D03*
X624400Y229300D02*
D03*
X632500Y213800D02*
D03*
X593000Y133900D02*
D03*
X700300Y194100D02*
D03*
X694800Y198100D02*
D03*
X696700Y176100D02*
D03*
X670300Y204100D02*
D03*
X659300D02*
D03*
X662800Y179100D02*
D03*
X687800Y210600D02*
D03*
X676300D02*
D03*
X691500Y213200D02*
D03*
X653568Y199100D02*
D03*
X650368D02*
D03*
X669300Y131600D02*
D03*
X668800Y118100D02*
D03*
X697300Y189700D02*
D03*
X681700Y142600D02*
D03*
X694400Y117100D02*
D03*
X697800D02*
D03*
X694300Y132600D02*
D03*
X697300Y166100D02*
D03*
X695800Y150600D02*
D03*
X692732Y171557D02*
D03*
X689532D02*
D03*
X686300Y151100D02*
D03*
X677300Y150600D02*
D03*
X667300Y163100D02*
D03*
Y150600D02*
D03*
X676800Y194100D02*
D03*
X684300D02*
D03*
X688800Y190100D02*
D03*
X678500Y137000D02*
D03*
X695900Y238000D02*
D03*
X715300Y172600D02*
D03*
X672200Y137300D02*
D03*
X703800Y183100D02*
D03*
X684900Y131300D02*
D03*
X709100Y190300D02*
D03*
X691200Y117400D02*
D03*
X714800Y213800D02*
D03*
X675300Y133900D02*
D03*
X535700Y194100D02*
D03*
X530200Y198100D02*
D03*
X532100Y176100D02*
D03*
X505700Y204100D02*
D03*
X494700D02*
D03*
X498200Y179100D02*
D03*
X523200Y210600D02*
D03*
X511700D02*
D03*
X526900Y213200D02*
D03*
X488968Y199100D02*
D03*
X485768D02*
D03*
X504700Y131600D02*
D03*
X504200Y118100D02*
D03*
X532700Y189700D02*
D03*
X517100Y142600D02*
D03*
X529800Y117100D02*
D03*
X529700Y132600D02*
D03*
X533200Y117100D02*
D03*
X532700Y166100D02*
D03*
X531200Y150600D02*
D03*
X521700Y151100D02*
D03*
X512700Y150600D02*
D03*
X502700Y163100D02*
D03*
Y150600D02*
D03*
X512200Y194100D02*
D03*
X519700D02*
D03*
X524200Y190100D02*
D03*
X535900Y226100D02*
D03*
X513900Y137000D02*
D03*
X531300Y238000D02*
D03*
X550700Y172600D02*
D03*
X507600Y137300D02*
D03*
X539200Y183100D02*
D03*
X520300Y131300D02*
D03*
X544500Y190300D02*
D03*
X526600Y117400D02*
D03*
X542100Y229300D02*
D03*
X550200Y213800D02*
D03*
X510700Y133900D02*
D03*
X782600Y194100D02*
D03*
X777100Y198100D02*
D03*
X779000Y176100D02*
D03*
X752600Y204100D02*
D03*
X741600D02*
D03*
X745100Y179100D02*
D03*
X770100Y210600D02*
D03*
X758600D02*
D03*
X773800Y213200D02*
D03*
X735868Y199100D02*
D03*
X732668D02*
D03*
X751600Y131600D02*
D03*
X751100Y118100D02*
D03*
X779600Y189700D02*
D03*
X764000Y142600D02*
D03*
X776700Y117100D02*
D03*
X780100D02*
D03*
X776600Y132600D02*
D03*
X779600Y166100D02*
D03*
X778100Y150600D02*
D03*
X775032Y171557D02*
D03*
X771832D02*
D03*
X768600Y151100D02*
D03*
X759600Y150600D02*
D03*
X749600Y163100D02*
D03*
Y150600D02*
D03*
X759100Y194100D02*
D03*
X766600D02*
D03*
X771100Y190100D02*
D03*
X782800Y226100D02*
D03*
X760800Y137000D02*
D03*
X778200Y238000D02*
D03*
X797600Y172600D02*
D03*
X754500Y137300D02*
D03*
X786100Y183100D02*
D03*
X767200Y131300D02*
D03*
X791400Y190300D02*
D03*
X773500Y117400D02*
D03*
X789000Y229300D02*
D03*
X797100Y213800D02*
D03*
X757600Y133900D02*
D03*
X453300Y194000D02*
D03*
X447800Y198000D02*
D03*
X449700Y176000D02*
D03*
X423300Y204000D02*
D03*
X412300D02*
D03*
X415800Y179000D02*
D03*
X440800Y210500D02*
D03*
X429300D02*
D03*
X444500Y213100D02*
D03*
X406568Y199000D02*
D03*
X403368D02*
D03*
X422300Y131500D02*
D03*
X421800Y118000D02*
D03*
X450300Y189600D02*
D03*
X434700Y142500D02*
D03*
X447400Y117000D02*
D03*
X450800D02*
D03*
X447300Y132500D02*
D03*
X450300Y166000D02*
D03*
X448800Y150500D02*
D03*
X445732Y171457D02*
D03*
X442532D02*
D03*
X439300Y151000D02*
D03*
X430300Y150500D02*
D03*
X420300Y163000D02*
D03*
Y150500D02*
D03*
X429800Y194000D02*
D03*
X437300D02*
D03*
X441800Y190000D02*
D03*
X453500Y226000D02*
D03*
X431500Y136900D02*
D03*
X448900Y237900D02*
D03*
X468300Y172500D02*
D03*
X425200Y137200D02*
D03*
X456800Y183000D02*
D03*
X437900Y131200D02*
D03*
X462100Y190200D02*
D03*
X444200Y117300D02*
D03*
X459700Y229200D02*
D03*
X467800Y213700D02*
D03*
X428300Y133800D02*
D03*
X371000Y194000D02*
D03*
X368000Y189600D02*
D03*
X362200Y213100D02*
D03*
X358500Y210500D02*
D03*
X347000D02*
D03*
X386000Y172500D02*
D03*
X361900Y117300D02*
D03*
X365100Y117000D02*
D03*
X367400Y176000D02*
D03*
X371200Y226000D02*
D03*
X363432Y171457D02*
D03*
X377400Y229200D02*
D03*
X385500Y213700D02*
D03*
X324268Y199000D02*
D03*
X321068D02*
D03*
X379800Y190200D02*
D03*
X374500Y183000D02*
D03*
X342900Y137200D02*
D03*
X346000Y133800D02*
D03*
X349200Y136900D02*
D03*
X352400Y142500D02*
D03*
X355600Y131200D02*
D03*
X365000Y132500D02*
D03*
X368500Y117000D02*
D03*
X340000Y131500D02*
D03*
X339500Y118000D02*
D03*
X348000Y150500D02*
D03*
X338000D02*
D03*
Y163000D02*
D03*
X368000Y166000D02*
D03*
X366500Y150500D02*
D03*
X357000Y151000D02*
D03*
X333500Y179000D02*
D03*
X341000Y204000D02*
D03*
X330000D02*
D03*
X359000Y198500D02*
D03*
X359500Y190000D02*
D03*
X355000Y194000D02*
D03*
X347500D02*
D03*
X365500Y198000D02*
D03*
X360232Y171457D02*
D03*
X1010600Y51000D02*
D03*
X1020800Y45900D02*
D03*
X1004450Y34200D02*
D03*
X1007700D02*
D03*
X1005000Y53300D02*
D03*
Y50100D02*
D03*
X983300Y55400D02*
D03*
X1044000Y294000D02*
D03*
X1052000D02*
D03*
Y288750D02*
D03*
Y283500D02*
D03*
Y278250D02*
D03*
Y273000D02*
D03*
X1044000Y274000D02*
D03*
X1036000D02*
D03*
Y279000D02*
D03*
Y284000D02*
D03*
Y289000D02*
D03*
Y294000D02*
D03*
X1025000Y352000D02*
D03*
Y346000D02*
D03*
Y340000D02*
D03*
Y334000D02*
D03*
Y328000D02*
D03*
Y322000D02*
D03*
Y316000D02*
D03*
Y310000D02*
D03*
X1033000D02*
D03*
X1041000D02*
D03*
X1031000Y334000D02*
D03*
X1037000D02*
D03*
X1043000D02*
D03*
X1027100Y73500D02*
D03*
X1033400Y61400D02*
D03*
X1002600Y71800D02*
D03*
X1011400Y71500D02*
D03*
X1011300Y63200D02*
D03*
X1002800Y63100D02*
D03*
X996900Y44100D02*
D03*
X1013800Y33900D02*
D03*
X1014000Y20600D02*
D03*
X1025100Y35400D02*
D03*
X1032100Y5000D02*
D03*
X983100Y5600D02*
D03*
X982600Y27000D02*
D03*
X1039400Y26200D02*
D03*
X1039600Y5100D02*
D03*
X1089500Y5000D02*
D03*
Y26600D02*
D03*
X1072600Y35500D02*
D03*
X1061050Y34482D02*
D03*
X1064634Y34566D02*
D03*
X1053300Y44200D02*
D03*
X1083400Y72500D02*
D03*
X1086500Y49200D02*
D03*
X1057800Y61400D02*
D03*
X1066300Y61500D02*
D03*
X1066400Y69800D02*
D03*
X1057600Y70100D02*
D03*
X983600Y79100D02*
D03*
X1061700Y47300D02*
D03*
X1061600Y51500D02*
D03*
X1070700Y50200D02*
D03*
X1078600Y43700D02*
D03*
X1041900Y49000D02*
D03*
X1044600Y77400D02*
D03*
X366600Y237900D02*
D03*
X700500Y226100D02*
D03*
X706700Y229300D02*
D03*
X119900Y272800D02*
D03*
X113500D02*
D03*
X102200Y453700D02*
D03*
X98900Y457700D02*
D03*
X106100Y272700D02*
D03*
X93700Y450100D02*
D03*
X93900Y442500D02*
D03*
X101575Y268175D02*
D03*
X101900Y263400D02*
D03*
X91200Y446500D02*
D03*
X37300Y265100D02*
D03*
X37100Y260100D02*
D03*
X40000Y262500D02*
D03*
Y257300D02*
D03*
X40500Y267400D02*
D03*
X101800Y259000D02*
D03*
X86900Y440000D02*
D03*
X36800Y255000D02*
D03*
X39800Y252400D02*
D03*
X98700Y255000D02*
D03*
X100800Y413800D02*
D03*
X100700Y418100D02*
D03*
X36700Y249200D02*
D03*
X40200Y246300D02*
D03*
X93200Y251400D02*
D03*
Y245700D02*
D03*
X88500Y243100D02*
D03*
X95600Y408900D02*
D03*
X95900Y404200D02*
D03*
X93500Y400100D02*
D03*
X36900Y243700D02*
D03*
X113600Y231700D02*
D03*
X36100Y234000D02*
D03*
X87000Y398800D02*
D03*
X88800Y391400D02*
D03*
X86100Y393800D02*
D03*
X120200Y231700D02*
D03*
X125600Y229100D02*
D03*
X130700Y227700D02*
D03*
X40200Y241400D02*
D03*
X36800Y239000D02*
D03*
X40100Y236500D02*
D03*
X134800Y225200D02*
D03*
X81263Y378663D02*
D03*
X83526Y380925D02*
D03*
X85788Y383188D02*
D03*
X78100Y375500D02*
D03*
X97800Y247800D02*
D03*
X109800Y238000D02*
D03*
X106600Y234600D02*
D03*
X91700Y155900D02*
D03*
X89437Y158163D02*
D03*
X87174Y160425D02*
D03*
X84912Y162688D02*
D03*
X82649Y164951D02*
D03*
X80386Y167214D02*
D03*
X78124Y169476D02*
D03*
X75861Y171739D02*
D03*
X73598Y174002D02*
D03*
X71335Y176265D02*
D03*
X69073Y178527D02*
D03*
X66810Y180790D02*
D03*
X64547Y183053D02*
D03*
X62284Y185316D02*
D03*
X60022Y187578D02*
D03*
X57759Y189841D02*
D03*
X55496Y192104D02*
D03*
X53233Y194367D02*
D03*
X83200Y462500D02*
D03*
X80400Y467800D02*
D03*
X71200Y282600D02*
D03*
X71000Y286500D02*
D03*
X71300Y290400D02*
D03*
Y294000D02*
D03*
Y297600D02*
D03*
X71200Y300800D02*
D03*
X71400Y305100D02*
D03*
Y308600D02*
D03*
Y311800D02*
D03*
Y315300D02*
D03*
Y318800D02*
D03*
Y322200D02*
D03*
Y325900D02*
D03*
Y329200D02*
D03*
Y332700D02*
D03*
Y336500D02*
D03*
X22300Y361200D02*
D03*
Y364600D02*
D03*
X22600Y395400D02*
D03*
X20800Y370000D02*
D03*
X20700Y373300D02*
D03*
X16800Y373400D02*
D03*
X21400Y376500D02*
D03*
X18600Y378900D02*
D03*
X12900D02*
D03*
X18700Y383900D02*
D03*
X18689Y387100D02*
D03*
X37200Y391300D02*
D03*
X21900Y406300D02*
D03*
X21800Y440100D02*
D03*
X16800Y444000D02*
D03*
X21900Y411400D02*
D03*
X564300Y253200D02*
D03*
X557400Y283500D02*
D03*
X278500Y287500D02*
D03*
X278543Y303000D02*
D03*
X278500Y327900D02*
D03*
X278600Y525300D02*
D03*
X281500Y508000D02*
D03*
X275400Y487400D02*
D03*
X278543Y460000D02*
D03*
Y444700D02*
D03*
Y430000D02*
D03*
Y406100D02*
D03*
Y381700D02*
D03*
Y366100D02*
D03*
Y351100D02*
D03*
M02*
