%FSLAX25Y25*%
%MOIN*%
G70*
G01*
G75*
G04 Layer_Physical_Order=1*
G04 Layer_Color=255*
%ADD10R,0.09646X0.12598*%
%ADD11R,0.07874X0.10630*%
%ADD12R,0.08858X0.01575*%
%ADD13R,0.01772X0.11024*%
%ADD14R,0.01772X0.18504*%
%ADD15R,0.03543X0.03937*%
%ADD16R,0.03740X0.03937*%
%ADD17R,0.07087X0.04528*%
%ADD18R,0.04724X0.03937*%
%ADD19R,0.01969X0.07874*%
%ADD20R,0.03937X0.03740*%
%ADD21R,0.02362X0.03937*%
%ADD22O,0.04000X0.01200*%
%ADD23R,0.03937X0.03543*%
%ADD24O,0.01181X0.04134*%
%ADD25O,0.04134X0.01181*%
%ADD26R,0.13189X0.13189*%
%ADD27R,0.07874X0.09843*%
%ADD28R,0.01969X0.09055*%
%ADD29R,0.03937X0.02362*%
%ADD30R,0.03937X0.03937*%
%ADD31R,0.03740X0.05512*%
%ADD32R,0.05512X0.03740*%
%ADD33C,0.01200*%
%ADD34C,0.00600*%
%ADD35C,0.01100*%
%ADD36C,0.01000*%
%ADD37C,0.01600*%
%ADD38C,0.10000*%
%ADD39C,0.04000*%
%ADD40C,0.03937*%
%ADD41C,0.01969*%
%ADD42C,0.25590*%
%ADD43R,0.07874X0.07874*%
%ADD44C,0.06299*%
%ADD45C,0.03543*%
%ADD46R,0.05906X0.05906*%
%ADD47C,0.05906*%
%ADD48R,0.11811X0.11811*%
%ADD49C,0.11811*%
%ADD50C,0.06000*%
%ADD51R,0.06000X0.06000*%
%ADD52C,0.08268*%
%ADD53R,0.05906X0.05906*%
%ADD54C,0.06693*%
%ADD55C,0.19685*%
%ADD56C,0.02600*%
G36*
X361000Y187000D02*
X357962D01*
Y187369D01*
X357962D01*
Y189137D01*
X352038D01*
Y187369D01*
X352038D01*
Y187354D01*
X351684Y187000D01*
X350762D01*
Y187000D01*
Y187268D01*
X350762Y187354D01*
X350762D01*
D01*
Y187354D01*
X350762D01*
D01*
Y189037D01*
X347799D01*
Y189836D01*
X347000D01*
Y192405D01*
X345003D01*
X345003Y192405D01*
D01*
D01*
X345003Y192405D01*
X344838Y192405D01*
X344649Y192594D01*
Y195500D01*
X344500Y195861D01*
Y204000D01*
X361000D01*
Y187000D01*
D02*
G37*
G36*
X443200D02*
X440262D01*
Y187369D01*
X440262D01*
Y189137D01*
X434338D01*
Y187369D01*
X434338D01*
Y187354D01*
X433984Y187000D01*
X433062D01*
Y187000D01*
Y187268D01*
X433062Y187354D01*
X433062D01*
D01*
Y187354D01*
X433062D01*
D01*
Y189037D01*
X430099D01*
Y189836D01*
X429300D01*
Y192405D01*
X427203D01*
X427203Y192405D01*
D01*
D01*
X427203Y192405D01*
X427138Y192405D01*
X426849Y192694D01*
Y195500D01*
X426700Y195861D01*
Y204000D01*
X443200D01*
Y187000D01*
D02*
G37*
G36*
X607900Y187100D02*
X604962D01*
Y187469D01*
X604962D01*
Y189237D01*
X599038D01*
Y187469D01*
X599038D01*
Y187454D01*
X598684Y187100D01*
X597762D01*
Y187100D01*
Y187369D01*
X597762Y187454D01*
X597762D01*
D01*
Y187454D01*
X597762D01*
D01*
Y189137D01*
X594799D01*
Y189936D01*
X594000D01*
Y192506D01*
X591903D01*
X591903Y192506D01*
D01*
D01*
X591903Y192506D01*
X591838Y192506D01*
X591549Y192794D01*
Y195471D01*
X591500Y195590D01*
Y195719D01*
X591446Y195849D01*
X591400Y195895D01*
Y204100D01*
X607900D01*
Y187100D01*
D02*
G37*
G36*
X535000Y175700D02*
X534145Y174845D01*
X533758Y175162D01*
X533890Y175359D01*
X534037Y176100D01*
X533890Y176841D01*
X533470Y177470D01*
X532841Y177890D01*
X532100Y178037D01*
X531359Y177890D01*
X530730Y177470D01*
X530632Y177323D01*
X527820D01*
Y178668D01*
X522880D01*
Y173554D01*
X522880Y173554D01*
X522880D01*
X522880Y173531D01*
X523000Y173200D01*
D01*
X523000Y173200D01*
X523000Y173200D01*
Y170425D01*
X522995Y170400D01*
X523000Y170375D01*
Y168500D01*
X522800D01*
Y164500D01*
X520494D01*
X520176Y164886D01*
X520289Y165453D01*
X520105Y166378D01*
X519581Y167163D01*
X518796Y167687D01*
X517871Y167871D01*
X517153Y167728D01*
X517100Y167980D01*
Y167980D01*
D01*
D01*
D01*
X517100Y167980D01*
X517057Y168083D01*
X517033Y168107D01*
X517030Y168141D01*
X517000Y168197D01*
Y173402D01*
X517054Y173531D01*
X518250D01*
Y176099D01*
Y178668D01*
X517054D01*
X517000Y178798D01*
Y179465D01*
X517054Y179595D01*
X518900D01*
Y182162D01*
Y184731D01*
X517054D01*
X517000Y184861D01*
Y186200D01*
X535000D01*
Y175700D01*
D02*
G37*
G36*
X508500Y195571D02*
Y192859D01*
Y186849D01*
X506720D01*
X506260Y186659D01*
X506099Y186268D01*
X505050D01*
Y184500D01*
X506720D01*
Y186200D01*
X516351D01*
Y184731D01*
X516500Y184371D01*
Y179955D01*
X516351Y179595D01*
Y178668D01*
X516500Y178308D01*
Y173892D01*
X516351Y173531D01*
Y168092D01*
X516363Y168060D01*
X516354Y168028D01*
X516457Y167835D01*
X516500Y167731D01*
Y167389D01*
X516161Y167163D01*
X515637Y166378D01*
X515453Y165453D01*
X515565Y164886D01*
X515248Y164500D01*
X511300D01*
Y168500D01*
X510500D01*
Y177200D01*
X508000Y179700D01*
X501000D01*
Y186200D01*
X501780D01*
Y184500D01*
X503450D01*
Y186268D01*
X502401D01*
X502239Y186659D01*
X501780Y186849D01*
X501000D01*
X500541Y186659D01*
X500379Y186268D01*
X496000D01*
Y189331D01*
X496357D01*
Y189331D01*
X499700D01*
Y192193D01*
Y195058D01*
X496357D01*
Y195058D01*
X496354D01*
X496000Y195412D01*
Y195700D01*
X508447D01*
X508500Y195571D01*
D02*
G37*
G36*
X673100Y195471D02*
Y192859D01*
Y186749D01*
X671320D01*
X670860Y186559D01*
X670740Y186268D01*
X669650D01*
Y184500D01*
X671320D01*
Y186100D01*
X680951D01*
Y184731D01*
X681100Y184371D01*
Y179955D01*
X680951Y179595D01*
Y178668D01*
X681100Y178308D01*
Y173892D01*
X680951Y173531D01*
Y168092D01*
X680964Y168060D01*
X680954Y168028D01*
X681057Y167835D01*
X681100Y167731D01*
Y167389D01*
X680761Y167163D01*
X680237Y166378D01*
X680053Y165453D01*
X680165Y164886D01*
X679848Y164500D01*
X675900D01*
Y168500D01*
X675100D01*
Y177100D01*
X672600Y179600D01*
X665600D01*
Y186100D01*
X666379D01*
Y184500D01*
X668050D01*
Y186268D01*
X666959D01*
X666839Y186559D01*
X666379Y186749D01*
X665600D01*
X665141Y186559D01*
X665020Y186268D01*
X660600D01*
Y189331D01*
X660957D01*
Y189331D01*
X664300D01*
Y192193D01*
Y195058D01*
X660957D01*
Y195058D01*
X660954D01*
X660600Y195412D01*
Y195600D01*
X673046D01*
X673100Y195471D01*
D02*
G37*
G36*
X690100Y187100D02*
X687262D01*
Y187469D01*
X687262D01*
Y189237D01*
X681338D01*
Y187469D01*
X681338D01*
Y187454D01*
X680984Y187100D01*
X680062D01*
Y187100D01*
Y187369D01*
X680062Y187454D01*
X680062D01*
D01*
Y187454D01*
X680062D01*
D01*
Y189137D01*
X677099D01*
Y189936D01*
X676300D01*
Y192506D01*
X674138D01*
Y192506D01*
X674103D01*
X673749Y192859D01*
D01*
Y195471D01*
X673700Y195590D01*
Y195719D01*
X673646Y195849D01*
X673600Y195895D01*
Y204100D01*
X690100D01*
Y187100D01*
D02*
G37*
G36*
X426200Y195371D02*
X426200Y195371D01*
Y195371D01*
Y192694D01*
Y186649D01*
X424320D01*
X423861Y186459D01*
X423740Y186169D01*
X422650D01*
Y184400D01*
X424320D01*
Y186000D01*
X434051D01*
Y184632D01*
X434200Y184271D01*
Y179855D01*
X434051Y179495D01*
Y178568D01*
X434180Y178255D01*
Y173745D01*
X434051Y173432D01*
Y168012D01*
X434063Y167980D01*
X434054Y167948D01*
X434157Y167755D01*
X434200Y167651D01*
Y167356D01*
X433761Y167063D01*
X433237Y166278D01*
X433053Y165353D01*
X433165Y164787D01*
X432848Y164400D01*
X428900D01*
Y168400D01*
X428200D01*
Y177000D01*
X425700Y179500D01*
X418700D01*
Y186000D01*
X419380D01*
Y184400D01*
X421050D01*
Y186169D01*
X419959D01*
X419839Y186459D01*
X419380Y186649D01*
X418700D01*
X418241Y186459D01*
X418120Y186169D01*
X418020D01*
Y186169D01*
X413700D01*
Y189231D01*
X414054Y189231D01*
X414054D01*
Y189231D01*
D01*
D01*
D01*
X417300D01*
Y192094D01*
Y194958D01*
X414054D01*
X414054Y194958D01*
D01*
D01*
X414053Y194958D01*
X413957Y194958D01*
X413700Y195215D01*
Y195500D01*
X426071D01*
X426200Y195371D01*
D02*
G37*
G36*
X590900Y195471D02*
Y192794D01*
Y186749D01*
X589020D01*
X588560Y186559D01*
X588440Y186268D01*
X587350D01*
Y184500D01*
X589020D01*
Y186100D01*
X598751D01*
Y184861D01*
X598800Y184741D01*
Y184612D01*
X598853Y184483D01*
X598900Y184437D01*
Y179890D01*
X598853Y179843D01*
X598800Y179714D01*
Y179585D01*
X598751Y179465D01*
Y178798D01*
X598800Y178678D01*
X598800Y178549D01*
X598853Y178420D01*
X598880Y178393D01*
Y173807D01*
X598853Y173780D01*
X598800Y173651D01*
X598800Y173522D01*
X598751Y173402D01*
Y168112D01*
X598764Y168080D01*
X598754Y168048D01*
X598857Y167855D01*
X598900Y167751D01*
Y167456D01*
X598461Y167163D01*
X597937Y166378D01*
X597753Y165453D01*
X597865Y164886D01*
X597548Y164500D01*
X593600D01*
Y168500D01*
X592900D01*
Y177100D01*
X590400Y179600D01*
X583400D01*
Y186100D01*
X584080D01*
Y184500D01*
X585750D01*
Y186268D01*
X584659D01*
X584539Y186559D01*
X584080Y186749D01*
X583400D01*
X582941Y186559D01*
X582820Y186268D01*
X582721D01*
Y186268D01*
X578400D01*
Y189331D01*
X578754Y189331D01*
X578754D01*
Y189331D01*
D01*
D01*
D01*
X582000D01*
Y192193D01*
Y195058D01*
X578754D01*
X578754Y195058D01*
D01*
D01*
X578754Y195058D01*
X578657Y195058D01*
X578400Y195315D01*
Y195600D01*
X590846D01*
X590900Y195471D01*
D02*
G37*
G36*
X755500D02*
Y192794D01*
Y186749D01*
X753620D01*
X753160Y186559D01*
X753040Y186268D01*
X751950D01*
Y184500D01*
X753620D01*
Y186100D01*
X763351D01*
Y184731D01*
X763500Y184371D01*
Y179955D01*
X763351Y179595D01*
Y178668D01*
X763480Y178355D01*
Y173845D01*
X763351Y173531D01*
Y168112D01*
X763364Y168080D01*
X763354Y168048D01*
X763457Y167855D01*
X763500Y167751D01*
Y167456D01*
X763061Y167163D01*
X762537Y166378D01*
X762353Y165453D01*
X762465Y164886D01*
X762148Y164500D01*
X758200D01*
Y168500D01*
X757500D01*
Y177100D01*
X755000Y179600D01*
X748000D01*
Y186100D01*
X748679D01*
Y184500D01*
X750350D01*
Y186268D01*
X749259D01*
X749139Y186559D01*
X748679Y186749D01*
X748000D01*
X747541Y186559D01*
X747420Y186268D01*
X747321D01*
Y186268D01*
X743000D01*
Y189331D01*
X743354Y189331D01*
X743354D01*
Y189331D01*
D01*
D01*
D01*
X746600D01*
Y192193D01*
Y195058D01*
X743354D01*
X743354Y195058D01*
D01*
D01*
X743354Y195058D01*
X743257Y195058D01*
X743000Y195315D01*
Y195600D01*
X755446D01*
X755500Y195471D01*
D02*
G37*
G36*
X772500Y187100D02*
X769562D01*
Y187469D01*
X769562D01*
Y189237D01*
X763638D01*
Y187469D01*
X763638D01*
Y187454D01*
X763284Y187100D01*
X762362D01*
Y187100D01*
Y187369D01*
X762362Y187454D01*
X762362D01*
D01*
Y187454D01*
X762362D01*
D01*
Y189137D01*
X759399D01*
Y189936D01*
X758600D01*
Y192506D01*
X756503D01*
X756503Y192506D01*
D01*
D01*
X756503Y192506D01*
X756438Y192506D01*
X756149Y192794D01*
Y195471D01*
X756100Y195590D01*
Y195719D01*
X756046Y195849D01*
X756000Y195895D01*
Y204100D01*
X772500D01*
Y187100D01*
D02*
G37*
G36*
X525500Y187200D02*
X522662D01*
Y187200D01*
Y187469D01*
X522662Y187554D01*
X522662D01*
D01*
Y187554D01*
X522662D01*
D01*
Y189237D01*
X516738D01*
Y187554D01*
X516738Y187554D01*
X516738D01*
X516738Y187469D01*
X516469Y187200D01*
X515462D01*
Y187200D01*
Y187369D01*
X515462Y187554D01*
X515462D01*
D01*
Y187554D01*
X515462D01*
D01*
Y189137D01*
X512499D01*
Y189936D01*
X511700D01*
Y192506D01*
X509538D01*
Y192506D01*
X509503D01*
X509149Y192859D01*
D01*
Y195571D01*
X509100Y195690D01*
Y195819D01*
X509047Y195949D01*
X509000Y195995D01*
Y204200D01*
X525500D01*
Y187200D01*
D02*
G37*
G36*
X344000Y186000D02*
X351851D01*
Y184632D01*
X352000Y184271D01*
Y179855D01*
X351851Y179495D01*
Y178568D01*
X351880Y178497D01*
Y173503D01*
X351851Y173432D01*
Y168032D01*
X351864Y168000D01*
X351854Y167968D01*
X351957Y167775D01*
X352000Y167671D01*
Y167423D01*
X351461Y167063D01*
X350937Y166278D01*
X350753Y165353D01*
X350865Y164787D01*
X350548Y164400D01*
X346600D01*
Y168400D01*
X346000D01*
Y177000D01*
X343500Y179500D01*
X336500D01*
Y183000D01*
X335720D01*
Y186169D01*
X331500D01*
Y189231D01*
X331854Y189231D01*
X331854D01*
Y189231D01*
D01*
D01*
D01*
X335000D01*
Y192094D01*
Y194958D01*
X331854D01*
X331854Y194958D01*
D01*
D01*
X331854Y194958D01*
X331657Y194958D01*
X331500Y195115D01*
Y195500D01*
X344000D01*
Y186000D01*
D02*
G37*
G36*
X617400Y175600D02*
X615400Y173600D01*
X614900Y173100D01*
X611543D01*
X611174Y173346D01*
X610490Y173483D01*
Y173483D01*
X610490D01*
D01*
X610490Y173483D01*
D01*
X610432Y173494D01*
X610120Y173531D01*
D01*
X610120D01*
Y173531D01*
Y174876D01*
X612932D01*
X613030Y174730D01*
X613659Y174310D01*
X614400Y174163D01*
X615141Y174310D01*
X615770Y174730D01*
X616190Y175359D01*
X616337Y176100D01*
X616190Y176841D01*
X615770Y177470D01*
X615141Y177890D01*
X614400Y178037D01*
X613659Y177890D01*
X613030Y177470D01*
X612932Y177323D01*
X610120D01*
Y178668D01*
X605180D01*
Y173531D01*
X605400D01*
Y173100D01*
X605400D01*
Y172084D01*
X605295Y171557D01*
X605400Y171029D01*
Y168500D01*
X605100D01*
Y164500D01*
X602794D01*
X602476Y164886D01*
X602589Y165453D01*
X602405Y166378D01*
X601881Y167163D01*
X601096Y167687D01*
X600171Y167871D01*
X599787Y167794D01*
X599400Y168112D01*
Y173402D01*
X599453Y173531D01*
X600550D01*
Y176099D01*
Y178668D01*
X599453D01*
X599400Y178798D01*
Y179465D01*
X599453Y179595D01*
X601200D01*
Y182162D01*
Y184731D01*
X599453D01*
X599400Y184861D01*
Y186100D01*
X617400D01*
Y175600D01*
D02*
G37*
G36*
X1054000Y270000D02*
X1034000D01*
Y296000D01*
X1054000D01*
Y270000D01*
D02*
G37*
G36*
X782000Y175600D02*
X780000Y173600D01*
X779500Y173100D01*
X776143D01*
X775774Y173346D01*
X775090Y173483D01*
Y173483D01*
X775090D01*
D01*
X775090Y173483D01*
D01*
X775032Y173494D01*
X774720Y173531D01*
D01*
X774720D01*
Y173531D01*
Y174876D01*
X777532D01*
X777630Y174730D01*
X778259Y174310D01*
X779000Y174163D01*
X779741Y174310D01*
X780370Y174730D01*
X780790Y175359D01*
X780937Y176100D01*
X780790Y176841D01*
X780370Y177470D01*
X779741Y177890D01*
X779000Y178037D01*
X778259Y177890D01*
X777630Y177470D01*
X777532Y177323D01*
X774720D01*
Y178668D01*
X769779D01*
Y173531D01*
X770000D01*
Y173100D01*
X770000D01*
Y172084D01*
X769895Y171557D01*
X770000Y171029D01*
Y168500D01*
X769700D01*
Y164500D01*
X767393D01*
X767076Y164886D01*
X767189Y165453D01*
X767005Y166378D01*
X766481Y167163D01*
X765696Y167687D01*
X764771Y167871D01*
X764153Y167748D01*
X764100Y167999D01*
Y167999D01*
D01*
D01*
D01*
X764100Y167999D01*
X764057Y168103D01*
X764033Y168127D01*
X764030Y168161D01*
X764000Y168217D01*
Y173402D01*
X764053Y173531D01*
X765150D01*
Y176099D01*
Y178668D01*
X764053D01*
X764000Y178798D01*
Y179465D01*
X764053Y179595D01*
X765800D01*
Y182162D01*
Y184731D01*
X764053D01*
X764000Y184861D01*
Y186100D01*
X782000D01*
Y175600D01*
D02*
G37*
G36*
X1047000Y306000D02*
X1021000D01*
Y355000D01*
X1047000D01*
Y306000D01*
D02*
G37*
G36*
X370500Y175500D02*
X368500Y173500D01*
X368000Y173000D01*
X364543D01*
X364174Y173247D01*
X363490Y173382D01*
Y173382D01*
X363490D01*
D01*
X363490Y173382D01*
D01*
X363432Y173394D01*
X363120Y173432D01*
D01*
X363120D01*
Y173432D01*
Y174776D01*
X365932D01*
X366030Y174630D01*
X366659Y174210D01*
X367400Y174063D01*
X368141Y174210D01*
X368770Y174630D01*
X369190Y175259D01*
X369337Y176000D01*
X369190Y176741D01*
X368770Y177370D01*
X368141Y177790D01*
X367400Y177937D01*
X366659Y177790D01*
X366030Y177370D01*
X365932Y177224D01*
X363120D01*
Y178568D01*
X358179D01*
Y173432D01*
X358500D01*
Y173000D01*
X358500D01*
Y172284D01*
X358442Y172198D01*
X358295Y171457D01*
X358442Y170715D01*
X358500Y170629D01*
Y168400D01*
X358100D01*
Y164400D01*
X355794D01*
X355476Y164787D01*
X355589Y165353D01*
X355405Y166278D01*
X354881Y167063D01*
X354096Y167587D01*
X353171Y167771D01*
X352887Y167714D01*
X352500Y168032D01*
Y173432D01*
X353550D01*
Y175999D01*
Y178568D01*
X352500D01*
Y179495D01*
X354200D01*
Y182062D01*
Y184632D01*
X352500D01*
Y186000D01*
X370500D01*
Y175500D01*
D02*
G37*
G36*
X452700D02*
X450700Y173500D01*
X450200Y173000D01*
X446842D01*
X446474Y173247D01*
X445790Y173382D01*
Y173382D01*
X445790D01*
D01*
X445790Y173382D01*
D01*
X445732Y173394D01*
X445420Y173432D01*
D01*
X445420D01*
Y173432D01*
Y174776D01*
X448232D01*
X448330Y174630D01*
X448959Y174210D01*
X449700Y174063D01*
X450441Y174210D01*
X451070Y174630D01*
X451490Y175259D01*
X451637Y176000D01*
X451490Y176741D01*
X451070Y177370D01*
X450441Y177790D01*
X449700Y177937D01*
X448959Y177790D01*
X448330Y177370D01*
X448232Y177224D01*
X445420D01*
Y178568D01*
X440480D01*
Y173432D01*
X440700D01*
Y173000D01*
X440700D01*
Y171984D01*
X440595Y171457D01*
X440700Y170929D01*
Y168400D01*
X440400D01*
Y164400D01*
X438094D01*
X437776Y164787D01*
X437889Y165353D01*
X437705Y166278D01*
X437181Y167063D01*
X436396Y167587D01*
X435471Y167771D01*
X434853Y167648D01*
X434800Y167899D01*
Y167899D01*
D01*
D01*
D01*
X434800Y167899D01*
X434757Y168003D01*
X434733Y168027D01*
X434730Y168061D01*
X434700Y168116D01*
Y173302D01*
X434754Y173432D01*
X435850D01*
Y175999D01*
Y178568D01*
X434754D01*
X434700Y178698D01*
Y179365D01*
X434754Y179495D01*
X436500D01*
Y182062D01*
Y184632D01*
X434754D01*
X434700Y184761D01*
Y186000D01*
X452700D01*
Y175500D01*
D02*
G37*
G36*
X699600Y175600D02*
X698544Y174544D01*
X698157Y174861D01*
X698490Y175359D01*
X698637Y176100D01*
X698490Y176841D01*
X698070Y177470D01*
X697441Y177890D01*
X696700Y178037D01*
X695959Y177890D01*
X695330Y177470D01*
X695232Y177323D01*
X692420D01*
Y178668D01*
X687479D01*
Y173531D01*
X687600D01*
Y173100D01*
X687600D01*
Y171581D01*
X687595Y171557D01*
X687600Y171532D01*
Y168500D01*
X687400D01*
Y164500D01*
X685093D01*
X684776Y164886D01*
X684889Y165453D01*
X684705Y166378D01*
X684181Y167163D01*
X683396Y167687D01*
X682471Y167871D01*
X681753Y167728D01*
X681700Y167980D01*
Y167980D01*
D01*
D01*
D01*
X681700Y167980D01*
X681657Y168083D01*
X681633Y168107D01*
X681630Y168141D01*
X681600Y168197D01*
Y173402D01*
X681653Y173531D01*
X682850D01*
Y176099D01*
Y178668D01*
X681653D01*
X681600Y178798D01*
Y179465D01*
X681653Y179595D01*
X683500D01*
Y182162D01*
Y184731D01*
X681653D01*
X681600Y184861D01*
Y186100D01*
X699600D01*
Y175600D01*
D02*
G37*
%LPC*%
G36*
X671320Y182900D02*
X669650D01*
Y181131D01*
X671320D01*
Y182900D01*
D02*
G37*
G36*
X668050D02*
X666379D01*
Y181131D01*
X668050D01*
Y182900D01*
D02*
G37*
G36*
X750350D02*
X748679D01*
Y181131D01*
X750350D01*
Y182900D01*
D02*
G37*
G36*
X758600Y184632D02*
X756438D01*
Y182863D01*
X758600D01*
Y184632D01*
D02*
G37*
G36*
X347000Y184531D02*
X344838D01*
Y182763D01*
X347000D01*
Y184531D01*
D02*
G37*
G36*
X753620Y182900D02*
X751950D01*
Y181131D01*
X753620D01*
Y182900D01*
D02*
G37*
G36*
X338750Y182800D02*
X337080D01*
Y181032D01*
X338750D01*
Y182800D01*
D02*
G37*
G36*
X589020Y182900D02*
X587350D01*
Y181131D01*
X589020D01*
Y182900D01*
D02*
G37*
G36*
X585750D02*
X584080D01*
Y181131D01*
X585750D01*
Y182900D01*
D02*
G37*
G36*
X506720D02*
X505050D01*
Y181131D01*
X506720D01*
Y182900D01*
D02*
G37*
G36*
X503450D02*
X501780D01*
Y181131D01*
X503450D01*
Y182900D01*
D02*
G37*
G36*
X342020Y182800D02*
X340350D01*
Y181032D01*
X342020D01*
Y182800D01*
D02*
G37*
G36*
X421050D02*
X419380D01*
Y181032D01*
X421050D01*
Y182800D01*
D02*
G37*
G36*
X424320D02*
X422650D01*
Y181032D01*
X424320D01*
Y182800D01*
D02*
G37*
G36*
X680062Y184632D02*
X677900D01*
Y182863D01*
X680062D01*
Y184632D01*
D02*
G37*
G36*
X446800Y184858D02*
X443457D01*
Y182794D01*
X446800D01*
Y184858D01*
D02*
G37*
G36*
X369443D02*
X366100D01*
Y182794D01*
X369443D01*
Y184858D01*
D02*
G37*
G36*
X364500D02*
X361157D01*
Y182794D01*
X364500D01*
Y184858D01*
D02*
G37*
G36*
X451743D02*
X448400D01*
Y182794D01*
X451743D01*
Y184858D01*
D02*
G37*
G36*
X511700Y184632D02*
X509538D01*
Y182863D01*
X511700D01*
Y184632D01*
D02*
G37*
G36*
X440262D02*
X438100D01*
Y182863D01*
X440262D01*
Y184632D01*
D02*
G37*
G36*
X357962D02*
X355800D01*
Y182863D01*
X357962D01*
Y184632D01*
D02*
G37*
G36*
X676300D02*
X674138D01*
Y182863D01*
X676300D01*
Y184632D01*
D02*
G37*
G36*
X429300Y184531D02*
X427138D01*
Y182763D01*
X429300D01*
Y184531D01*
D02*
G37*
G36*
X350762D02*
X348600D01*
Y182763D01*
X350762D01*
Y184531D01*
D02*
G37*
G36*
X597762Y184632D02*
X595600D01*
Y182863D01*
X597762D01*
Y184632D01*
D02*
G37*
G36*
X433062Y184531D02*
X430900D01*
Y182763D01*
X433062D01*
Y184531D01*
D02*
G37*
G36*
X515462Y184632D02*
X513300D01*
Y182863D01*
X515462D01*
Y184632D01*
D02*
G37*
G36*
X594000D02*
X591838D01*
Y182863D01*
X594000D01*
Y184632D01*
D02*
G37*
G36*
X769562Y181363D02*
X767400D01*
Y179595D01*
X769562D01*
Y181363D01*
D02*
G37*
G36*
X369443Y181194D02*
X366100D01*
Y179131D01*
X369443D01*
Y181194D01*
D02*
G37*
G36*
X446800D02*
X443457D01*
Y179131D01*
X446800D01*
Y181194D01*
D02*
G37*
G36*
X364500D02*
X361157D01*
Y179131D01*
X364500D01*
Y181194D01*
D02*
G37*
G36*
X686121Y178668D02*
X684450D01*
Y176900D01*
X686121D01*
Y178668D01*
D02*
G37*
G36*
X768421D02*
X766750D01*
Y176900D01*
X768421D01*
Y178668D01*
D02*
G37*
G36*
X611500Y181295D02*
X608157D01*
Y179231D01*
X611500D01*
Y181295D01*
D02*
G37*
G36*
X616443D02*
X613100D01*
Y179231D01*
X616443D01*
Y181295D01*
D02*
G37*
G36*
X534143D02*
X530800D01*
Y179231D01*
X534143D01*
Y181295D01*
D02*
G37*
G36*
X451743Y181194D02*
X448400D01*
Y179131D01*
X451743D01*
Y181194D01*
D02*
G37*
G36*
X529200Y181295D02*
X525857D01*
Y179231D01*
X529200D01*
Y181295D01*
D02*
G37*
G36*
X603821Y175300D02*
X602150D01*
Y173531D01*
X603821D01*
Y175300D01*
D02*
G37*
G36*
X686121D02*
X684450D01*
Y173531D01*
X686121D01*
Y175300D01*
D02*
G37*
G36*
X521521D02*
X519850D01*
Y173531D01*
X521521D01*
Y175300D01*
D02*
G37*
G36*
X356821Y175200D02*
X355150D01*
Y173432D01*
X356821D01*
Y175200D01*
D02*
G37*
G36*
X439120D02*
X437450D01*
Y173432D01*
X439120D01*
Y175200D01*
D02*
G37*
G36*
X521521Y178668D02*
X519850D01*
Y176900D01*
X521521D01*
Y178668D01*
D02*
G37*
G36*
X603821D02*
X602150D01*
Y176900D01*
X603821D01*
Y178668D01*
D02*
G37*
G36*
X439120Y178568D02*
X437450D01*
Y176800D01*
X439120D01*
Y178568D01*
D02*
G37*
G36*
X768421Y175300D02*
X766750D01*
Y173531D01*
X768421D01*
Y175300D01*
D02*
G37*
G36*
X356821Y178568D02*
X355150D01*
Y176800D01*
X356821D01*
Y178568D01*
D02*
G37*
G36*
X693800Y181295D02*
X690457D01*
Y179231D01*
X693800D01*
Y181295D01*
D02*
G37*
G36*
X676300Y181263D02*
X674138D01*
Y179495D01*
X676300D01*
Y181263D01*
D02*
G37*
G36*
X680062D02*
X677900D01*
Y179495D01*
X680062D01*
Y181263D01*
D02*
G37*
G36*
X597762D02*
X595600D01*
Y179495D01*
X597762D01*
Y181263D01*
D02*
G37*
G36*
X515462D02*
X513300D01*
Y179495D01*
X515462D01*
Y181263D01*
D02*
G37*
G36*
X594000D02*
X591838D01*
Y179495D01*
X594000D01*
Y181263D01*
D02*
G37*
G36*
X604962Y181363D02*
X602800D01*
Y179595D01*
X604962D01*
Y181363D01*
D02*
G37*
G36*
X687262D02*
X685100D01*
Y179595D01*
X687262D01*
Y181363D01*
D02*
G37*
G36*
X522662D02*
X520500D01*
Y179595D01*
X522662D01*
Y181363D01*
D02*
G37*
G36*
X758600Y181263D02*
X756438D01*
Y179495D01*
X758600D01*
Y181263D01*
D02*
G37*
G36*
X762362D02*
X760200D01*
Y179495D01*
X762362D01*
Y181263D01*
D02*
G37*
G36*
X347000Y181163D02*
X344838D01*
Y179394D01*
X347000D01*
Y181163D01*
D02*
G37*
G36*
X350762D02*
X348600D01*
Y179394D01*
X350762D01*
Y181163D01*
D02*
G37*
G36*
X781043Y181295D02*
X777700D01*
Y179231D01*
X781043D01*
Y181295D01*
D02*
G37*
G36*
X698743D02*
X695400D01*
Y179231D01*
X698743D01*
Y181295D01*
D02*
G37*
G36*
X776100D02*
X772757D01*
Y179231D01*
X776100D01*
Y181295D01*
D02*
G37*
G36*
X440262Y181263D02*
X438100D01*
Y179495D01*
X440262D01*
Y181263D01*
D02*
G37*
G36*
X511700D02*
X509538D01*
Y179495D01*
X511700D01*
Y181263D01*
D02*
G37*
G36*
X357962D02*
X355800D01*
Y179495D01*
X357962D01*
Y181263D01*
D02*
G37*
G36*
X429300Y181163D02*
X427138D01*
Y179394D01*
X429300D01*
Y181163D01*
D02*
G37*
G36*
X433062D02*
X430900D01*
Y179394D01*
X433062D01*
Y181163D01*
D02*
G37*
G36*
X762362Y184632D02*
X760200D01*
Y182863D01*
X762362D01*
Y184632D01*
D02*
G37*
G36*
X604143Y197794D02*
X600800D01*
Y195731D01*
X604143D01*
Y197794D01*
D02*
G37*
G36*
X681500D02*
X678157D01*
Y195731D01*
X681500D01*
Y197794D01*
D02*
G37*
G36*
X521843D02*
X518500D01*
Y195731D01*
X521843D01*
Y197794D01*
D02*
G37*
G36*
X599200D02*
X595857D01*
Y195731D01*
X599200D01*
Y197794D01*
D02*
G37*
G36*
X686443D02*
X683100D01*
Y195731D01*
X686443D01*
Y197794D01*
D02*
G37*
G36*
X352200Y201358D02*
X348857D01*
Y199294D01*
X352200D01*
Y201358D01*
D02*
G37*
G36*
X357143D02*
X353800D01*
Y199294D01*
X357143D01*
Y201358D01*
D02*
G37*
G36*
X763800Y197794D02*
X760457D01*
Y195731D01*
X763800D01*
Y197794D01*
D02*
G37*
G36*
X768743D02*
X765400D01*
Y195731D01*
X768743D01*
Y197794D01*
D02*
G37*
G36*
X516900D02*
X513557D01*
Y195731D01*
X516900D01*
Y197794D01*
D02*
G37*
G36*
X586943Y195058D02*
X583600D01*
Y192994D01*
X586943D01*
Y195058D01*
D02*
G37*
G36*
X669243D02*
X665900D01*
Y192994D01*
X669243D01*
Y195058D01*
D02*
G37*
G36*
X422243Y194958D02*
X418900D01*
Y192894D01*
X422243D01*
Y194958D01*
D02*
G37*
G36*
X504643Y195058D02*
X501300D01*
Y192994D01*
X504643D01*
Y195058D01*
D02*
G37*
G36*
X751543D02*
X748200D01*
Y192994D01*
X751543D01*
Y195058D01*
D02*
G37*
G36*
X434500Y197695D02*
X431157D01*
Y195631D01*
X434500D01*
Y197695D01*
D02*
G37*
G36*
X439443D02*
X436100D01*
Y195631D01*
X439443D01*
Y197695D01*
D02*
G37*
G36*
X352200D02*
X348857D01*
Y195631D01*
X352200D01*
Y197695D01*
D02*
G37*
G36*
X357143D02*
X353800D01*
Y195631D01*
X357143D01*
Y197695D01*
D02*
G37*
G36*
X1043511Y290999D02*
X1038888D01*
Y284900D01*
X1043511D01*
Y290999D01*
D02*
G37*
G36*
X1049734D02*
X1045111D01*
Y284900D01*
X1049734D01*
Y290999D01*
D02*
G37*
G36*
X1043511Y283300D02*
X1038888D01*
Y277201D01*
X1043511D01*
Y283300D01*
D02*
G37*
G36*
X1049734D02*
X1045111D01*
Y277201D01*
X1049734D01*
Y283300D01*
D02*
G37*
G36*
X1041383Y327416D02*
X1032309D01*
Y315586D01*
X1041383D01*
Y327416D01*
D02*
G37*
G36*
X1036046Y351431D02*
X1032309D01*
Y346317D01*
X1036046D01*
Y351431D01*
D02*
G37*
G36*
X1041383D02*
X1037646D01*
Y346317D01*
X1041383D01*
Y351431D01*
D02*
G37*
G36*
X1036046Y344717D02*
X1032309D01*
Y339602D01*
X1036046D01*
Y344717D01*
D02*
G37*
G36*
X1041383D02*
X1037646D01*
Y339602D01*
X1041383D01*
Y344717D01*
D02*
G37*
G36*
X768743Y201458D02*
X765400D01*
Y199395D01*
X768743D01*
Y201458D01*
D02*
G37*
G36*
X516900D02*
X513557D01*
Y199395D01*
X516900D01*
Y201458D01*
D02*
G37*
G36*
X521843D02*
X518500D01*
Y199395D01*
X521843D01*
Y201458D01*
D02*
G37*
G36*
X434500Y201358D02*
X431157D01*
Y199294D01*
X434500D01*
Y201358D01*
D02*
G37*
G36*
X439443D02*
X436100D01*
Y199294D01*
X439443D01*
Y201358D01*
D02*
G37*
G36*
X599200Y201458D02*
X595857D01*
Y199395D01*
X599200D01*
Y201458D01*
D02*
G37*
G36*
X686443D02*
X683100D01*
Y199395D01*
X686443D01*
Y201458D01*
D02*
G37*
G36*
X763800D02*
X760457D01*
Y199395D01*
X763800D01*
Y201458D01*
D02*
G37*
G36*
X604143D02*
X600800D01*
Y199395D01*
X604143D01*
Y201458D01*
D02*
G37*
G36*
X681500D02*
X678157D01*
Y199395D01*
X681500D01*
Y201458D01*
D02*
G37*
G36*
X339943Y194958D02*
X336600D01*
Y192894D01*
X339943D01*
Y194958D01*
D02*
G37*
G36*
X338750Y186169D02*
X337080D01*
Y186000D01*
Y184400D01*
X338750D01*
Y186169D01*
D02*
G37*
G36*
X342020D02*
X340350D01*
Y184400D01*
X342020D01*
Y186000D01*
Y186169D01*
D02*
G37*
G36*
X687262Y184731D02*
X685100D01*
Y182963D01*
X687262D01*
Y184731D01*
D02*
G37*
G36*
X769562D02*
X767400D01*
Y182963D01*
X769562D01*
Y184731D01*
D02*
G37*
G36*
X339943Y191295D02*
X336600D01*
Y189231D01*
X339943D01*
Y191295D01*
D02*
G37*
G36*
X586943Y191394D02*
X583600D01*
Y189331D01*
X586943D01*
Y191394D01*
D02*
G37*
G36*
X669243D02*
X665900D01*
Y189331D01*
X669243D01*
Y191394D01*
D02*
G37*
G36*
X422243Y191295D02*
X418900D01*
Y189231D01*
X422243D01*
Y191295D01*
D02*
G37*
G36*
X504643Y191394D02*
X501300D01*
Y189331D01*
X504643D01*
Y191394D01*
D02*
G37*
G36*
X604962Y184731D02*
X602800D01*
Y182963D01*
X604962D01*
Y184731D01*
D02*
G37*
G36*
X611500Y184958D02*
X608157D01*
Y182895D01*
X611500D01*
Y184958D01*
D02*
G37*
G36*
X616443D02*
X613100D01*
Y182895D01*
X616443D01*
Y184958D01*
D02*
G37*
G36*
X529200D02*
X525857D01*
Y182895D01*
X529200D01*
Y184958D01*
D02*
G37*
G36*
X534143D02*
X530800D01*
Y182895D01*
X534143D01*
Y184958D01*
D02*
G37*
G36*
X693800D02*
X690457D01*
Y182895D01*
X693800D01*
Y184958D01*
D02*
G37*
G36*
X781043D02*
X777700D01*
Y182895D01*
X781043D01*
Y184958D01*
D02*
G37*
G36*
X522662Y184731D02*
X520500D01*
Y182963D01*
X522662D01*
Y184731D01*
D02*
G37*
G36*
X698743Y184958D02*
X695400D01*
Y182895D01*
X698743D01*
Y184958D01*
D02*
G37*
G36*
X776100D02*
X772757D01*
Y182895D01*
X776100D01*
Y184958D01*
D02*
G37*
G36*
X522662Y192605D02*
X520500D01*
Y190837D01*
X522662D01*
Y192605D01*
D02*
G37*
G36*
X601200D02*
X599038D01*
Y190837D01*
X601200D01*
Y192605D01*
D02*
G37*
G36*
X762362Y192506D02*
X760200D01*
Y190737D01*
X762362D01*
Y192506D01*
D02*
G37*
G36*
X518900Y192605D02*
X516738D01*
Y190837D01*
X518900D01*
Y192605D01*
D02*
G37*
G36*
X604962D02*
X602800D01*
Y190837D01*
X604962D01*
Y192605D01*
D02*
G37*
G36*
X765800D02*
X763638D01*
Y190837D01*
X765800D01*
Y192605D01*
D02*
G37*
G36*
X769562D02*
X767400D01*
Y190837D01*
X769562D01*
Y192605D01*
D02*
G37*
G36*
X683500D02*
X681338D01*
Y190837D01*
X683500D01*
Y192605D01*
D02*
G37*
G36*
X687262D02*
X685100D01*
Y190837D01*
X687262D01*
Y192605D01*
D02*
G37*
G36*
X680062Y192506D02*
X677900D01*
Y190737D01*
X680062D01*
Y192506D01*
D02*
G37*
G36*
X433062Y192405D02*
X430900D01*
Y190637D01*
X433062D01*
Y192405D01*
D02*
G37*
G36*
X354200Y192506D02*
X352038D01*
Y190737D01*
X354200D01*
Y192506D01*
D02*
G37*
G36*
X751543Y191394D02*
X748200D01*
Y189331D01*
X751543D01*
Y191394D01*
D02*
G37*
G36*
X350762Y192405D02*
X348600D01*
Y190637D01*
X350762D01*
Y192405D01*
D02*
G37*
G36*
X357962Y192506D02*
X355800D01*
Y190737D01*
X357962D01*
Y192506D01*
D02*
G37*
G36*
X515462D02*
X513300D01*
Y190737D01*
X515462D01*
Y192506D01*
D02*
G37*
G36*
X597762D02*
X595600D01*
Y190737D01*
X597762D01*
Y192506D01*
D02*
G37*
G36*
X436500D02*
X434338D01*
Y190737D01*
X436500D01*
Y192506D01*
D02*
G37*
G36*
X440262D02*
X438100D01*
Y190737D01*
X440262D01*
Y192506D01*
D02*
G37*
%LPD*%
D10*
X1044311Y284100D02*
D03*
X1070689D02*
D03*
D11*
X1080154Y345517D02*
D03*
Y321501D02*
D03*
X1036846Y345516D02*
D03*
Y321501D02*
D03*
D12*
X52953Y445098D02*
D03*
Y452598D02*
D03*
Y460098D02*
D03*
Y467598D02*
D03*
Y475098D02*
D03*
Y482598D02*
D03*
Y490098D02*
D03*
Y497598D02*
D03*
Y500098D02*
D03*
X30453Y445098D02*
D03*
Y452598D02*
D03*
Y460098D02*
D03*
Y467598D02*
D03*
Y475098D02*
D03*
Y482598D02*
D03*
Y490098D02*
D03*
Y497598D02*
D03*
Y500098D02*
D03*
X52953Y366348D02*
D03*
Y373848D02*
D03*
Y381348D02*
D03*
Y388848D02*
D03*
Y396348D02*
D03*
Y403848D02*
D03*
Y411348D02*
D03*
Y418848D02*
D03*
Y421348D02*
D03*
X30453Y366348D02*
D03*
Y373848D02*
D03*
Y381348D02*
D03*
Y388848D02*
D03*
Y396348D02*
D03*
Y403848D02*
D03*
Y411348D02*
D03*
Y418848D02*
D03*
Y421348D02*
D03*
Y342598D02*
D03*
Y340098D02*
D03*
Y332598D02*
D03*
Y325098D02*
D03*
Y317598D02*
D03*
Y310098D02*
D03*
Y302598D02*
D03*
Y295098D02*
D03*
Y287598D02*
D03*
X52953Y342598D02*
D03*
Y340098D02*
D03*
Y332598D02*
D03*
Y325098D02*
D03*
Y317598D02*
D03*
Y310098D02*
D03*
Y302598D02*
D03*
Y295098D02*
D03*
Y287598D02*
D03*
X30453Y282598D02*
D03*
X53012D02*
D03*
X30453Y285118D02*
D03*
X53012D02*
D03*
X30453Y290094D02*
D03*
X53012D02*
D03*
X30453Y292614D02*
D03*
X53012D02*
D03*
X30453Y297590D02*
D03*
X53012D02*
D03*
X30453Y300110D02*
D03*
X53012D02*
D03*
X30453Y305087D02*
D03*
X53012D02*
D03*
X30453Y307606D02*
D03*
X53012D02*
D03*
X30453Y312583D02*
D03*
X53012D02*
D03*
X30453Y315102D02*
D03*
X53012D02*
D03*
X30453Y320079D02*
D03*
X53012D02*
D03*
X30453Y322598D02*
D03*
X53012D02*
D03*
X30453Y327575D02*
D03*
X53012D02*
D03*
X30453Y330095D02*
D03*
X53012D02*
D03*
X30453Y335071D02*
D03*
X53012D02*
D03*
X30453Y337591D02*
D03*
X53012D02*
D03*
X30453Y361339D02*
D03*
X53012D02*
D03*
X30453Y363858D02*
D03*
X53012D02*
D03*
X30453Y368835D02*
D03*
X53012D02*
D03*
X30453Y371354D02*
D03*
X53012D02*
D03*
X30453Y376331D02*
D03*
X53012D02*
D03*
X30453Y378850D02*
D03*
X53012D02*
D03*
X30453Y383827D02*
D03*
X53012D02*
D03*
X30453Y386346D02*
D03*
X53012D02*
D03*
X30453Y391323D02*
D03*
X53012D02*
D03*
X30453Y393843D02*
D03*
X53012D02*
D03*
X30453Y398819D02*
D03*
X53012D02*
D03*
X30453Y401339D02*
D03*
X53012D02*
D03*
X30453Y406315D02*
D03*
X53012D02*
D03*
X30453Y408835D02*
D03*
X53012D02*
D03*
X30453Y413811D02*
D03*
X53012D02*
D03*
X30453Y416331D02*
D03*
X53012D02*
D03*
X30453Y440079D02*
D03*
X53012D02*
D03*
X30453Y442598D02*
D03*
X53012D02*
D03*
X30453Y447575D02*
D03*
X53012D02*
D03*
X30453Y450095D02*
D03*
X53012D02*
D03*
X30453Y455071D02*
D03*
X53012D02*
D03*
X30453Y457590D02*
D03*
X53012D02*
D03*
X30453Y462567D02*
D03*
X53012D02*
D03*
X30453Y465087D02*
D03*
X53012D02*
D03*
X30453Y470063D02*
D03*
X53012D02*
D03*
X30453Y472583D02*
D03*
X53012D02*
D03*
X30453Y477559D02*
D03*
X53012D02*
D03*
X30453Y480079D02*
D03*
X53012D02*
D03*
X30453Y485055D02*
D03*
X53012D02*
D03*
X30453Y487575D02*
D03*
X53012D02*
D03*
X30453Y492551D02*
D03*
X53012D02*
D03*
X30453Y495071D02*
D03*
X53012D02*
D03*
X267323Y351949D02*
D03*
Y344449D02*
D03*
Y336949D02*
D03*
Y329449D02*
D03*
Y321949D02*
D03*
Y314449D02*
D03*
Y306949D02*
D03*
Y299449D02*
D03*
Y296949D02*
D03*
X289823Y351949D02*
D03*
Y344449D02*
D03*
Y336949D02*
D03*
Y329449D02*
D03*
Y321949D02*
D03*
Y314449D02*
D03*
Y306949D02*
D03*
Y299449D02*
D03*
Y296949D02*
D03*
X267323Y430699D02*
D03*
Y423199D02*
D03*
Y415699D02*
D03*
Y408199D02*
D03*
Y400699D02*
D03*
Y393199D02*
D03*
Y385699D02*
D03*
Y378199D02*
D03*
Y375699D02*
D03*
X289823Y430699D02*
D03*
Y423199D02*
D03*
Y415699D02*
D03*
Y408199D02*
D03*
Y400699D02*
D03*
Y393199D02*
D03*
Y385699D02*
D03*
Y378199D02*
D03*
Y375699D02*
D03*
Y454449D02*
D03*
Y456949D02*
D03*
Y464449D02*
D03*
Y471949D02*
D03*
Y479449D02*
D03*
Y486949D02*
D03*
Y494449D02*
D03*
Y501949D02*
D03*
Y509449D02*
D03*
X267323Y454449D02*
D03*
Y456949D02*
D03*
Y464449D02*
D03*
Y471949D02*
D03*
Y479449D02*
D03*
Y486949D02*
D03*
Y494449D02*
D03*
Y501949D02*
D03*
Y509449D02*
D03*
X289823Y514449D02*
D03*
X267264D02*
D03*
X289823Y511929D02*
D03*
X267264D02*
D03*
X289823Y506953D02*
D03*
X267264D02*
D03*
X289823Y504433D02*
D03*
X267264D02*
D03*
X289823Y499457D02*
D03*
X267264D02*
D03*
X289823Y496937D02*
D03*
X267264D02*
D03*
X289823Y491961D02*
D03*
X267264D02*
D03*
X289823Y489441D02*
D03*
X267264D02*
D03*
X289823Y484465D02*
D03*
X267264D02*
D03*
X289823Y481945D02*
D03*
X267264D02*
D03*
X289823Y476968D02*
D03*
X267264D02*
D03*
X289823Y474449D02*
D03*
X267264D02*
D03*
X289823Y469472D02*
D03*
X267264D02*
D03*
X289823Y466953D02*
D03*
X267264D02*
D03*
X289823Y461976D02*
D03*
X267264D02*
D03*
X289823Y459457D02*
D03*
X267264D02*
D03*
X289823Y435709D02*
D03*
X267264D02*
D03*
X289823Y433189D02*
D03*
X267264D02*
D03*
X289823Y428213D02*
D03*
X267264D02*
D03*
X289823Y425693D02*
D03*
X267264D02*
D03*
X289823Y420716D02*
D03*
X267264D02*
D03*
X289823Y418197D02*
D03*
X267264D02*
D03*
X289823Y413220D02*
D03*
X267264D02*
D03*
X289823Y410701D02*
D03*
X267264D02*
D03*
X289823Y405724D02*
D03*
X267264D02*
D03*
X289823Y403205D02*
D03*
X267264D02*
D03*
X289823Y398228D02*
D03*
X267264D02*
D03*
X289823Y395709D02*
D03*
X267264D02*
D03*
X289823Y390732D02*
D03*
X267264D02*
D03*
X289823Y388213D02*
D03*
X267264D02*
D03*
X289823Y383236D02*
D03*
X267264D02*
D03*
X289823Y380716D02*
D03*
X267264D02*
D03*
X289823Y356968D02*
D03*
X267264D02*
D03*
X289823Y354449D02*
D03*
X267264D02*
D03*
X289823Y349472D02*
D03*
X267264D02*
D03*
X289823Y346953D02*
D03*
X267264D02*
D03*
X289823Y341976D02*
D03*
X267264D02*
D03*
X289823Y339457D02*
D03*
X267264D02*
D03*
X289823Y334480D02*
D03*
X267264D02*
D03*
X289823Y331961D02*
D03*
X267264D02*
D03*
X289823Y326984D02*
D03*
X267264D02*
D03*
X289823Y324465D02*
D03*
X267264D02*
D03*
X289823Y319488D02*
D03*
X267264D02*
D03*
X289823Y316968D02*
D03*
X267264D02*
D03*
X289823Y311992D02*
D03*
X267264D02*
D03*
X289823Y309472D02*
D03*
X267264D02*
D03*
X289823Y304496D02*
D03*
X267264D02*
D03*
X289823Y301976D02*
D03*
X267264D02*
D03*
D13*
X41732Y280846D02*
D03*
Y344350D02*
D03*
Y359587D02*
D03*
Y423091D02*
D03*
Y438327D02*
D03*
Y501831D02*
D03*
X278543Y516201D02*
D03*
Y452697D02*
D03*
Y437461D02*
D03*
Y373957D02*
D03*
Y358720D02*
D03*
Y295216D02*
D03*
D14*
X41732Y300098D02*
D03*
Y325098D02*
D03*
Y378839D02*
D03*
Y403839D02*
D03*
Y457579D02*
D03*
Y482579D02*
D03*
X278543Y496949D02*
D03*
Y471949D02*
D03*
Y418209D02*
D03*
Y393209D02*
D03*
Y339469D02*
D03*
Y314469D02*
D03*
D15*
X382950Y237400D02*
D03*
X389250D02*
D03*
X794550Y237500D02*
D03*
X800850D02*
D03*
X712250D02*
D03*
X718550D02*
D03*
X629950D02*
D03*
X636250D02*
D03*
X547650D02*
D03*
X553950D02*
D03*
X465250Y237400D02*
D03*
X471550D02*
D03*
X1041850Y44900D02*
D03*
X1048150D02*
D03*
X983350Y51100D02*
D03*
X989650D02*
D03*
X983350Y62400D02*
D03*
X989650D02*
D03*
D16*
X354350Y176000D02*
D03*
X360650D02*
D03*
X333250Y183600D02*
D03*
X339550D02*
D03*
X1014350Y51000D02*
D03*
X1020650D02*
D03*
X1080150Y53600D02*
D03*
X1086450D02*
D03*
X1027150Y57100D02*
D03*
X1033450D02*
D03*
X744850Y183700D02*
D03*
X751150D02*
D03*
X662550D02*
D03*
X668850D02*
D03*
X580250D02*
D03*
X586550D02*
D03*
X497950D02*
D03*
X504250D02*
D03*
X415550Y183600D02*
D03*
X421850D02*
D03*
X765950Y176100D02*
D03*
X772250D02*
D03*
X683650D02*
D03*
X689950D02*
D03*
X601350D02*
D03*
X607650D02*
D03*
X519050D02*
D03*
X525350D02*
D03*
X436650Y176000D02*
D03*
X442950D02*
D03*
D17*
X365300Y193806D02*
D03*
Y181994D02*
D03*
X353000Y198495D02*
D03*
Y210306D02*
D03*
X335800Y192095D02*
D03*
Y203906D02*
D03*
X764600Y198594D02*
D03*
Y210405D02*
D03*
X682300Y198594D02*
D03*
Y210405D02*
D03*
X600000Y198594D02*
D03*
Y210405D02*
D03*
X517700Y198594D02*
D03*
Y210405D02*
D03*
X435300Y198495D02*
D03*
Y210306D02*
D03*
X747400Y192194D02*
D03*
Y204006D02*
D03*
X665100Y192194D02*
D03*
Y204006D02*
D03*
X582800Y192194D02*
D03*
Y204006D02*
D03*
X500500Y192194D02*
D03*
Y204006D02*
D03*
X418100Y192095D02*
D03*
Y203906D02*
D03*
X776900Y193905D02*
D03*
Y182095D02*
D03*
X694600Y193905D02*
D03*
Y182095D02*
D03*
X612300Y193905D02*
D03*
Y182095D02*
D03*
X530000Y193905D02*
D03*
Y182095D02*
D03*
X447600Y193806D02*
D03*
Y181994D02*
D03*
D18*
X355000Y189937D02*
D03*
Y182063D02*
D03*
X347800Y189837D02*
D03*
Y181963D02*
D03*
X766600Y190037D02*
D03*
Y182163D02*
D03*
X684300Y190037D02*
D03*
Y182163D02*
D03*
X602000Y190037D02*
D03*
Y182163D02*
D03*
X519700Y190037D02*
D03*
Y182163D02*
D03*
X437300Y189937D02*
D03*
Y182063D02*
D03*
X759400Y189937D02*
D03*
Y182063D02*
D03*
X677100Y189937D02*
D03*
Y182063D02*
D03*
X594800Y189937D02*
D03*
Y182063D02*
D03*
X512500Y189937D02*
D03*
Y182063D02*
D03*
X430100Y189837D02*
D03*
Y181963D02*
D03*
D19*
X339785Y124802D02*
D03*
X342935D02*
D03*
X346084D02*
D03*
X349234D02*
D03*
X352383D02*
D03*
X355533D02*
D03*
X358683D02*
D03*
X361832D02*
D03*
X364982D02*
D03*
X368131D02*
D03*
X366557Y157085D02*
D03*
X363407D02*
D03*
X360258D02*
D03*
X357108D02*
D03*
X353958D02*
D03*
X350809D02*
D03*
X347659D02*
D03*
X344510D02*
D03*
X341360D02*
D03*
X338210D02*
D03*
X751385Y124902D02*
D03*
X754535D02*
D03*
X757684D02*
D03*
X760834D02*
D03*
X763983D02*
D03*
X767133D02*
D03*
X770283D02*
D03*
X773432D02*
D03*
X776582D02*
D03*
X779732D02*
D03*
X778157Y157185D02*
D03*
X775007D02*
D03*
X771858D02*
D03*
X768708D02*
D03*
X765558D02*
D03*
X762409D02*
D03*
X759259D02*
D03*
X756110D02*
D03*
X752960D02*
D03*
X749810D02*
D03*
X669085Y124902D02*
D03*
X672235D02*
D03*
X675384D02*
D03*
X678534D02*
D03*
X681683D02*
D03*
X684833D02*
D03*
X687983D02*
D03*
X691132D02*
D03*
X694282D02*
D03*
X697432D02*
D03*
X695857Y157185D02*
D03*
X692707D02*
D03*
X689558D02*
D03*
X686408D02*
D03*
X683258D02*
D03*
X680109D02*
D03*
X676959D02*
D03*
X673809D02*
D03*
X670660D02*
D03*
X667510D02*
D03*
X586785Y124902D02*
D03*
X589935D02*
D03*
X593084D02*
D03*
X596234D02*
D03*
X599383D02*
D03*
X602533D02*
D03*
X605683D02*
D03*
X608832D02*
D03*
X611982D02*
D03*
X615132D02*
D03*
X613557Y157185D02*
D03*
X610407D02*
D03*
X607258D02*
D03*
X604108D02*
D03*
X600958D02*
D03*
X597809D02*
D03*
X594659D02*
D03*
X591509D02*
D03*
X588360D02*
D03*
X585210D02*
D03*
X504485Y124902D02*
D03*
X507635D02*
D03*
X510784D02*
D03*
X513934D02*
D03*
X517084D02*
D03*
X520233D02*
D03*
X523383D02*
D03*
X526532D02*
D03*
X529682D02*
D03*
X532831D02*
D03*
X531257Y157185D02*
D03*
X528107D02*
D03*
X524958D02*
D03*
X521808D02*
D03*
X518658D02*
D03*
X515509D02*
D03*
X512359D02*
D03*
X509209D02*
D03*
X506060D02*
D03*
X502910D02*
D03*
X422085Y124802D02*
D03*
X425235D02*
D03*
X428384D02*
D03*
X431534D02*
D03*
X434684D02*
D03*
X437833D02*
D03*
X440983D02*
D03*
X444132D02*
D03*
X447282D02*
D03*
X450431D02*
D03*
X448857Y157085D02*
D03*
X445707D02*
D03*
X442557D02*
D03*
X439408D02*
D03*
X436258D02*
D03*
X433109D02*
D03*
X429959D02*
D03*
X426810D02*
D03*
X423660D02*
D03*
X420510D02*
D03*
D20*
X366700Y212950D02*
D03*
Y206650D02*
D03*
X325818Y190008D02*
D03*
Y183709D02*
D03*
X319518Y190008D02*
D03*
Y183709D02*
D03*
X1074600Y49850D02*
D03*
Y43550D02*
D03*
X731118Y190108D02*
D03*
Y183809D02*
D03*
X648818Y190108D02*
D03*
Y183809D02*
D03*
X566518Y190108D02*
D03*
Y183809D02*
D03*
X484218Y190108D02*
D03*
Y183809D02*
D03*
X401818Y190008D02*
D03*
Y183709D02*
D03*
X737418Y190108D02*
D03*
Y183809D02*
D03*
X655118Y190108D02*
D03*
Y183809D02*
D03*
X572818Y190108D02*
D03*
Y183809D02*
D03*
X490518Y190108D02*
D03*
Y183809D02*
D03*
X408118Y190008D02*
D03*
Y183709D02*
D03*
X778300Y213050D02*
D03*
Y206750D02*
D03*
X696000Y213050D02*
D03*
Y206750D02*
D03*
X613700Y213050D02*
D03*
Y206750D02*
D03*
X531400Y213050D02*
D03*
Y206750D02*
D03*
X449000Y212950D02*
D03*
Y206650D02*
D03*
D21*
X389140Y228828D02*
D03*
X381660D02*
D03*
X385400Y219772D02*
D03*
X800740Y228928D02*
D03*
X793260D02*
D03*
X797000Y219872D02*
D03*
X718440Y228928D02*
D03*
X710960D02*
D03*
X714700Y219872D02*
D03*
X636140Y228928D02*
D03*
X628660D02*
D03*
X632400Y219872D02*
D03*
X553840Y228928D02*
D03*
X546360D02*
D03*
X550100Y219872D02*
D03*
X471440Y228828D02*
D03*
X463960D02*
D03*
X467700Y219772D02*
D03*
D22*
X386900Y179650D02*
D03*
Y182799D02*
D03*
Y185949D02*
D03*
X379900Y176500D02*
D03*
Y179650D02*
D03*
Y182799D02*
D03*
Y185949D02*
D03*
X386900Y176500D02*
D03*
X798500Y179750D02*
D03*
Y182899D02*
D03*
Y186049D02*
D03*
X791500Y176600D02*
D03*
Y179750D02*
D03*
Y182899D02*
D03*
Y186049D02*
D03*
X798500Y176600D02*
D03*
X716200Y179750D02*
D03*
Y182899D02*
D03*
Y186049D02*
D03*
X709200Y176600D02*
D03*
Y179750D02*
D03*
Y182899D02*
D03*
Y186049D02*
D03*
X716200Y176600D02*
D03*
X633900Y179750D02*
D03*
Y182899D02*
D03*
Y186049D02*
D03*
X626900Y176600D02*
D03*
Y179750D02*
D03*
Y182899D02*
D03*
Y186049D02*
D03*
X633900Y176600D02*
D03*
X551600Y179750D02*
D03*
Y182899D02*
D03*
Y186049D02*
D03*
X544600Y176600D02*
D03*
Y179750D02*
D03*
Y182899D02*
D03*
Y186049D02*
D03*
X551600Y176600D02*
D03*
X469200Y179650D02*
D03*
Y182799D02*
D03*
Y185949D02*
D03*
X462200Y176500D02*
D03*
Y179650D02*
D03*
Y182799D02*
D03*
Y185949D02*
D03*
X469200Y176500D02*
D03*
D23*
X371200Y231550D02*
D03*
Y237850D02*
D03*
X1083400Y61650D02*
D03*
Y67950D02*
D03*
X1044700Y88350D02*
D03*
Y82050D02*
D03*
X1038000Y88250D02*
D03*
Y81950D02*
D03*
X1027100Y63650D02*
D03*
Y69950D02*
D03*
X983600Y68650D02*
D03*
Y74950D02*
D03*
X971400Y69850D02*
D03*
Y63550D02*
D03*
X962800Y69850D02*
D03*
Y63550D02*
D03*
X938600Y69850D02*
D03*
Y63550D02*
D03*
X930700Y69850D02*
D03*
Y63550D02*
D03*
X905900Y69350D02*
D03*
Y63050D02*
D03*
X897900Y69350D02*
D03*
Y63050D02*
D03*
X889900Y69350D02*
D03*
Y63050D02*
D03*
X881900Y69350D02*
D03*
Y63050D02*
D03*
X873900Y69350D02*
D03*
Y63050D02*
D03*
X865900Y69350D02*
D03*
Y63050D02*
D03*
X857900Y69350D02*
D03*
Y63050D02*
D03*
X849900Y69350D02*
D03*
Y63050D02*
D03*
X841900Y69350D02*
D03*
Y63050D02*
D03*
X833900Y69350D02*
D03*
Y63050D02*
D03*
X817900Y69350D02*
D03*
Y63050D02*
D03*
X825900Y69350D02*
D03*
Y63050D02*
D03*
X782800Y231650D02*
D03*
Y237950D02*
D03*
X700500Y231650D02*
D03*
Y237950D02*
D03*
X618200Y231650D02*
D03*
Y237950D02*
D03*
X535900Y231650D02*
D03*
Y237950D02*
D03*
X453500Y231550D02*
D03*
Y237850D02*
D03*
D24*
X1056194Y56251D02*
D03*
X1058163D02*
D03*
X1060131D02*
D03*
X1062100D02*
D03*
X1064069D02*
D03*
X1066037D02*
D03*
X1068005D02*
D03*
Y75149D02*
D03*
X1066037D02*
D03*
X1064069D02*
D03*
X1062100D02*
D03*
X1060131D02*
D03*
X1058163D02*
D03*
X1056194D02*
D03*
X1001194Y57951D02*
D03*
X1003163D02*
D03*
X1005132D02*
D03*
X1007100D02*
D03*
X1009068D02*
D03*
X1011037D02*
D03*
X1013006D02*
D03*
Y76849D02*
D03*
X1011037D02*
D03*
X1009068D02*
D03*
X1007100D02*
D03*
X1005132D02*
D03*
X1003163D02*
D03*
X1001194D02*
D03*
D25*
X1071549Y59794D02*
D03*
Y61763D02*
D03*
Y63731D02*
D03*
Y65700D02*
D03*
Y67668D02*
D03*
Y69637D02*
D03*
Y71605D02*
D03*
X1052651D02*
D03*
Y69637D02*
D03*
Y67668D02*
D03*
Y65700D02*
D03*
Y63731D02*
D03*
Y61763D02*
D03*
Y59794D02*
D03*
X1016549Y61494D02*
D03*
Y63463D02*
D03*
Y65431D02*
D03*
Y67400D02*
D03*
Y69368D02*
D03*
Y71337D02*
D03*
Y73305D02*
D03*
X997651D02*
D03*
Y71337D02*
D03*
Y69368D02*
D03*
Y67400D02*
D03*
Y65431D02*
D03*
Y63463D02*
D03*
Y61494D02*
D03*
D26*
X1062100Y65700D02*
D03*
X1007100Y67400D02*
D03*
D27*
X1046680Y26506D02*
D03*
X1081720D02*
D03*
X1046680Y4853D02*
D03*
X1081720D02*
D03*
X990080Y26506D02*
D03*
X1025120D02*
D03*
X990080Y4853D02*
D03*
X1025120D02*
D03*
D28*
X1067350Y26900D02*
D03*
X1061050D02*
D03*
X1070499D02*
D03*
X1064200D02*
D03*
X1057999D02*
D03*
X1010750D02*
D03*
X1004450D02*
D03*
X1013899D02*
D03*
X1007600D02*
D03*
X1001399D02*
D03*
D29*
X1067328Y44740D02*
D03*
Y37260D02*
D03*
X1058272D02*
D03*
X1010828Y44940D02*
D03*
Y37460D02*
D03*
X1001772D02*
D03*
D30*
X1058272Y43953D02*
D03*
X1001772Y44153D02*
D03*
D31*
X1114663Y160200D02*
D03*
X1122537D02*
D03*
D32*
X1017900Y146537D02*
D03*
Y138663D02*
D03*
D33*
X41732Y273068D02*
X41800Y273000D01*
X41732Y273068D02*
Y280846D01*
X41900Y281014D01*
Y288700D01*
X41732Y288868D02*
X41900Y288700D01*
X41732Y288868D02*
Y300098D01*
X41700Y300131D02*
X41732Y300098D01*
X41700Y300131D02*
Y312600D01*
X41732Y312632D01*
Y325098D01*
X41800Y325166D01*
Y336800D01*
X41732Y336868D02*
X41800Y336800D01*
X41732Y336868D02*
Y344350D01*
X41700Y344383D02*
X41732Y344350D01*
X41700Y344383D02*
Y351900D01*
X41732Y351932D01*
Y359587D01*
X41900Y359754D01*
Y367400D01*
X41732Y367568D02*
X41900Y367400D01*
X41732Y367568D02*
Y378839D01*
X41700Y378871D02*
X41732Y378839D01*
X41700Y378871D02*
Y391500D01*
X41732Y391532D01*
Y403839D01*
X41700Y403871D02*
X41732Y403839D01*
X41700Y403871D02*
Y415400D01*
X41732Y415432D01*
Y423091D01*
X41800Y423158D01*
Y430900D01*
X41732Y430968D02*
X41800Y430900D01*
X41732Y430968D02*
Y438327D01*
X41900Y438494D01*
Y446000D01*
X41732Y446168D02*
X41900Y446000D01*
X41732Y446168D02*
Y457579D01*
X41700Y457611D02*
X41732Y457579D01*
X41700Y457611D02*
Y470400D01*
X41732Y470432D01*
Y482579D01*
X41700Y482611D02*
X41732Y482579D01*
X41700Y482611D02*
Y494300D01*
X41732Y494332D01*
Y501831D01*
X41700Y508900D02*
X41732Y508868D01*
Y501831D02*
Y508868D01*
X60249Y492551D02*
X60300Y492500D01*
X53012Y492551D02*
X60249D01*
X59671Y495071D02*
X60200Y495600D01*
X53012Y495071D02*
X59671D01*
X46200Y494900D02*
X46371Y495071D01*
X53012D01*
X46200Y492000D02*
X46751Y492551D01*
X53012D01*
X46100Y485000D02*
X46155Y485055D01*
X53012D01*
X46200Y488200D02*
X46825Y487575D01*
X53012D01*
X59675D02*
X60200Y488100D01*
X53012Y487575D02*
X59675D01*
X59745Y485055D02*
X60300Y484500D01*
X53012Y485055D02*
X59745D01*
X59679Y480079D02*
X60200Y480600D01*
X53012Y480079D02*
X59679D01*
X59341Y477559D02*
X60000Y476900D01*
X53012Y477559D02*
X59341D01*
X59783Y472583D02*
X59900Y472700D01*
X53012Y472583D02*
X59783D01*
X58937Y470063D02*
X59700Y469300D01*
X53012Y470063D02*
X58937D01*
X45800Y470000D02*
X45863Y470063D01*
X53012D01*
X46000Y473500D02*
X46917Y472583D01*
X53012D01*
X46000Y477600D02*
X46041Y477559D01*
X53012D01*
X46000Y481000D02*
X46921Y480079D01*
X53012D01*
X23900Y469400D02*
X24563Y470063D01*
X30453D01*
X37337D02*
X37500Y469900D01*
X30453Y470063D02*
X37337D01*
X36883Y472583D02*
X37400Y473100D01*
X30453Y472583D02*
X36883D01*
X24000Y472900D02*
X24317Y472583D01*
X30453D01*
X23900Y476400D02*
X25059Y477559D01*
X30453D01*
X36241D02*
X37400Y476400D01*
X30453Y477559D02*
X36241D01*
X37221Y480079D02*
X37300Y480000D01*
X30453Y480079D02*
X37221D01*
X23900Y480000D02*
X23979Y480079D01*
X30453D01*
X23500Y485000D02*
X23555Y485055D01*
X30453D01*
X23600Y487500D02*
X23675Y487575D01*
X30453D01*
X37045Y485055D02*
X37300Y484800D01*
X30453Y485055D02*
X37045D01*
X37275Y487575D02*
X37300Y487600D01*
X30453Y487575D02*
X37275D01*
X37149Y492551D02*
X37300Y492400D01*
X30453Y492551D02*
X37149D01*
X37171Y495071D02*
X37200Y495100D01*
X30453Y495071D02*
X37171D01*
X23900Y492400D02*
X24051Y492551D01*
X30453D01*
X24100Y495300D02*
X24329Y495071D01*
X30453D01*
X1023863Y138663D02*
X1023900Y138700D01*
X1017900Y138663D02*
X1023863D01*
X1015701Y159699D02*
X1017900Y157500D01*
Y146537D02*
Y157500D01*
X1003620Y159699D02*
X1015701D01*
X1122537Y167837D02*
X1122900Y168200D01*
X1122537Y160200D02*
Y167837D01*
X1114662Y160199D02*
X1114663Y160200D01*
X1100920Y160199D02*
X1114662D01*
X770283Y104983D02*
Y124902D01*
X770200Y104900D02*
X770283Y104983D01*
X770200Y104900D02*
X799300D01*
X721500D02*
X770200D01*
X721300Y105100D02*
Y176100D01*
X687800Y104900D02*
X721500D01*
X721300Y105100D02*
X721500Y104900D01*
X687983Y105083D02*
Y124902D01*
X687800Y104900D02*
X687983Y105083D01*
X639200Y104900D02*
X687800D01*
X639000Y105100D02*
X639200Y104900D01*
X605700D02*
X639200D01*
X639000Y105100D02*
Y176100D01*
X605683Y104917D02*
X605700Y104900D01*
X556700D02*
X605700D01*
X605683Y104917D02*
Y124902D01*
X523400Y104900D02*
X556700D01*
Y176100D01*
X523383Y104917D02*
X523400Y104900D01*
X474500D02*
X523400D01*
X523383Y104917D02*
Y124902D01*
X474300Y105100D02*
X474500Y104900D01*
X441100D02*
X474500D01*
X474300Y105100D02*
Y176000D01*
X440983Y105017D02*
Y124802D01*
Y105017D02*
X441100Y104900D01*
X392000D02*
X441100D01*
X392000D02*
Y117700D01*
Y176000D01*
Y117000D02*
Y117700D01*
X803600Y109200D02*
Y176100D01*
X799300Y104900D02*
X803600Y109200D01*
X617805Y193905D02*
X618000Y194100D01*
X612300Y197900D02*
X612500Y198100D01*
X612300Y193905D02*
Y197900D01*
Y193905D02*
X617805D01*
X614400Y176100D02*
X614500Y176200D01*
X609800Y176100D02*
X611500D01*
X609800D02*
X614400D01*
X607650D02*
X609800D01*
X587906Y204006D02*
X588000Y204100D01*
X582800Y204006D02*
X587906D01*
X577000Y204100D02*
X577095Y204006D01*
X582800D01*
X580250Y179350D02*
Y183700D01*
Y179350D02*
X580500Y179100D01*
X605305Y210405D02*
X605500Y210600D01*
X594195Y210405D02*
X600000D01*
X605305D01*
X594000Y210600D02*
X594195Y210405D01*
X613550Y213200D02*
X613700Y213050D01*
X609200Y213200D02*
X613550D01*
X586785Y131385D02*
X587000Y131600D01*
X586785Y124902D02*
Y131385D01*
Y118385D02*
Y124902D01*
X586500Y118100D02*
X586785Y118385D01*
X611982Y117118D02*
X612000Y117100D01*
X611982Y117118D02*
Y124902D01*
X612000Y117100D02*
X612100D01*
X615132Y117469D02*
Y124902D01*
Y117469D02*
X615500Y117100D01*
X615132Y124902D02*
Y129469D01*
X612000Y132600D02*
X615132Y129469D01*
X611982Y124902D02*
Y132582D01*
X612000Y132600D01*
X613557Y164657D02*
X615000Y166100D01*
X613557Y157185D02*
Y164657D01*
Y150657D02*
Y157185D01*
X613500Y150600D02*
X613557Y150657D01*
X604108Y151208D02*
Y157185D01*
X604000Y151100D02*
X604108Y151208D01*
X594659Y150941D02*
Y157185D01*
Y150941D02*
X595000Y150600D01*
X585000Y163100D02*
X585210Y162890D01*
Y157185D02*
Y162890D01*
Y150810D02*
Y157185D01*
X585000Y150600D02*
X585210Y150810D01*
X639000Y179600D02*
Y182600D01*
Y176100D02*
Y179600D01*
Y182600D02*
Y184600D01*
X638500Y176600D02*
X639000Y176100D01*
X637551Y186049D02*
X639000Y184600D01*
X633900Y186049D02*
X637551D01*
X633900Y182899D02*
X638701D01*
X639000Y182600D01*
X633900Y179750D02*
X638850D01*
X639000Y179600D01*
X633900Y176600D02*
X638500D01*
X628287Y229300D02*
X628660Y228928D01*
X624400Y229300D02*
X628287D01*
X700105Y193905D02*
X700300Y194100D01*
X694600Y197900D02*
X694800Y198100D01*
X694600Y193905D02*
Y197900D01*
Y193905D02*
X700105D01*
X696700Y176100D02*
X696800Y176200D01*
X692100Y176100D02*
X693800D01*
X692100D02*
X696700D01*
X689950D02*
X692100D01*
X670205Y204006D02*
X670300Y204100D01*
X665100Y204006D02*
X670205D01*
X659300Y204100D02*
X659395Y204006D01*
X665100D01*
X662550Y179350D02*
Y183700D01*
Y179350D02*
X662800Y179100D01*
X687605Y210405D02*
X687800Y210600D01*
X676495Y210405D02*
X682300D01*
X687605D01*
X676300Y210600D02*
X676495Y210405D01*
X695850Y213200D02*
X696000Y213050D01*
X691500Y213200D02*
X695850D01*
X669085Y131385D02*
X669300Y131600D01*
X669085Y124902D02*
Y131385D01*
Y118385D02*
Y124902D01*
X668800Y118100D02*
X669085Y118385D01*
X694282Y117118D02*
X694300Y117100D01*
X694282Y117118D02*
Y124902D01*
X694300Y117100D02*
X694400D01*
X697432Y117469D02*
Y124902D01*
Y117469D02*
X697800Y117100D01*
X697432Y124902D02*
Y129469D01*
X694300Y132600D02*
X697432Y129469D01*
X694282Y124902D02*
Y132582D01*
X694300Y132600D01*
X695857Y164657D02*
X697300Y166100D01*
X695857Y157185D02*
Y164657D01*
Y150657D02*
Y157185D01*
X695800Y150600D02*
X695857Y150657D01*
X686408Y151208D02*
Y157185D01*
X686300Y151100D02*
X686408Y151208D01*
X676959Y150941D02*
Y157185D01*
Y150941D02*
X677300Y150600D01*
X667300Y163100D02*
X667510Y162890D01*
Y157185D02*
Y162890D01*
Y150810D02*
Y157185D01*
X667300Y150600D02*
X667510Y150810D01*
X721300Y179600D02*
Y182600D01*
Y176100D02*
Y179600D01*
Y182600D02*
Y184600D01*
X720800Y176600D02*
X721300Y176100D01*
X719851Y186049D02*
X721300Y184600D01*
X716200Y186049D02*
X719851D01*
X716200Y182899D02*
X721001D01*
X721300Y182600D01*
X716200Y179750D02*
X721150D01*
X721300Y179600D01*
X716200Y176600D02*
X720800D01*
X710587Y229300D02*
X710960Y228928D01*
X535505Y193905D02*
X535700Y194100D01*
X530000Y197900D02*
X530200Y198100D01*
X530000Y193905D02*
Y197900D01*
Y193905D02*
X535505D01*
X532100Y176100D02*
X532200Y176200D01*
X527500Y176100D02*
X529200D01*
X525350D02*
X527500D01*
X532100D01*
X505606Y204006D02*
X505700Y204100D01*
X500500Y204006D02*
X505606D01*
X494795D02*
X500500D01*
X494700Y204100D02*
X494795Y204006D01*
X497950Y179350D02*
Y183700D01*
Y179350D02*
X498200Y179100D01*
X517700Y210405D02*
X523005D01*
X523200Y210600D01*
X511895Y210405D02*
X517700D01*
X511700Y210600D02*
X511895Y210405D01*
X531250Y213200D02*
X531400Y213050D01*
X526900Y213200D02*
X531250D01*
X504485Y131385D02*
X504700Y131600D01*
X504485Y118385D02*
Y124902D01*
X504200Y118100D02*
X504485Y118385D01*
Y124902D02*
Y131385D01*
X529682Y117118D02*
Y124902D01*
Y117118D02*
X529700Y117100D01*
X529800D01*
X532831Y124902D02*
Y129469D01*
X529700Y132600D02*
X532831Y129469D01*
Y117469D02*
Y124902D01*
X529682D02*
Y132582D01*
X529700Y132600D01*
X532831Y117469D02*
X533200Y117100D01*
X531257Y164657D02*
X532700Y166100D01*
X531257Y157185D02*
Y164657D01*
Y150657D02*
Y157185D01*
X531200Y150600D02*
X531257Y150657D01*
X521808Y151208D02*
Y157185D01*
X521700Y151100D02*
X521808Y151208D01*
X512359Y150941D02*
X512700Y150600D01*
X512359Y150941D02*
Y157185D01*
X502700Y163100D02*
X502910Y162890D01*
Y157185D02*
Y162890D01*
Y150810D02*
Y157185D01*
X502700Y150600D02*
X502910Y150810D01*
X556200Y176600D02*
X556700Y176100D01*
X551600Y179750D02*
X556550D01*
X551600Y176600D02*
X556200D01*
X545987Y229300D02*
X546360Y228928D01*
X542100Y229300D02*
X545987D01*
X782406Y193905D02*
X782600Y194100D01*
X776900Y197900D02*
X777100Y198100D01*
X776900Y193905D02*
Y197900D01*
Y193905D02*
X782406D01*
X779000Y176100D02*
X779100Y176200D01*
X774400Y176100D02*
X776100D01*
X774400D02*
X779000D01*
X772250D02*
X774400D01*
X752505Y204006D02*
X752600Y204100D01*
X747400Y204006D02*
X752505D01*
X741694D02*
X747400D01*
X741600Y204100D02*
X741694Y204006D01*
X744850Y179350D02*
Y183700D01*
Y179350D02*
X745100Y179100D01*
X764600Y210405D02*
X769906D01*
X770100Y210600D01*
X758794Y210405D02*
X764600D01*
X758600Y210600D02*
X758794Y210405D01*
X778150Y213200D02*
X778300Y213050D01*
X773800Y213200D02*
X778150D01*
X751385Y131385D02*
X751600Y131600D01*
X751385Y118385D02*
Y124902D01*
Y131385D01*
X751100Y118100D02*
X751385Y118385D01*
X776582Y117118D02*
Y124902D01*
Y117118D02*
X776600Y117100D01*
X776700D01*
X776600Y132600D02*
X779732Y129469D01*
Y117469D02*
Y124902D01*
Y129469D01*
X776582Y132582D02*
X776600Y132600D01*
X776582Y124902D02*
Y132582D01*
X779732Y117469D02*
X780100Y117100D01*
X778157Y164657D02*
X779600Y166100D01*
X778157Y157185D02*
Y164657D01*
Y150657D02*
Y157185D01*
X778100Y150600D02*
X778157Y150657D01*
X768708Y151208D02*
Y157185D01*
X768600Y151100D02*
X768708Y151208D01*
X759259Y150941D02*
Y157185D01*
Y150941D02*
X759600Y150600D01*
X749810Y157185D02*
Y162890D01*
X749600Y163100D02*
X749810Y162890D01*
Y150810D02*
Y157185D01*
X749600Y150600D02*
X749810Y150810D01*
X803600Y179600D02*
Y182600D01*
Y184600D01*
Y176100D02*
Y179600D01*
X803450Y179750D02*
X803600Y179600D01*
X803301Y182899D02*
X803600Y182600D01*
X802151Y186049D02*
X803600Y184600D01*
X803100Y176600D02*
X803600Y176100D01*
X798500Y186049D02*
X802151D01*
X798500Y179750D02*
X803450D01*
X798500Y182899D02*
X803301D01*
X798500Y176600D02*
X803100D01*
X792887Y229300D02*
X793260Y228928D01*
X789000Y229300D02*
X792887D01*
X453105Y193806D02*
X453300Y194000D01*
X447600Y197800D02*
X447800Y198000D01*
X447600Y193806D02*
Y197800D01*
Y193806D02*
X453105D01*
X449700Y176000D02*
X449800Y176100D01*
X445100Y176000D02*
X446800D01*
X445100D02*
X449700D01*
X442950D02*
X445100D01*
X423206Y203906D02*
X423300Y204000D01*
X418100Y203906D02*
X423206D01*
X412395D02*
X418100D01*
X412300Y204000D02*
X412395Y203906D01*
X415550Y179250D02*
Y183600D01*
Y179250D02*
X415800Y179000D01*
X435300Y210306D02*
X440605D01*
X440800Y210500D01*
X429494Y210306D02*
X435300D01*
X429300Y210500D02*
X429494Y210306D01*
X448850Y213100D02*
X449000Y212950D01*
X444500Y213100D02*
X448850D01*
X422085Y131285D02*
X422300Y131500D01*
X422085Y118285D02*
Y124802D01*
Y131285D01*
X421800Y118000D02*
X422085Y118285D01*
X447282Y117018D02*
Y124802D01*
Y117018D02*
X447300Y117000D01*
X447400D01*
X447300Y132500D02*
X450431Y129368D01*
Y117368D02*
Y124802D01*
Y129368D01*
X447282Y132482D02*
X447300Y132500D01*
X447282Y124802D02*
Y132482D01*
X450431Y117368D02*
X450800Y117000D01*
X448857Y164557D02*
X450300Y166000D01*
X448857Y157085D02*
Y164557D01*
Y150557D02*
Y157085D01*
X448800Y150500D02*
X448857Y150557D01*
X439408Y151108D02*
Y157085D01*
X439300Y151000D02*
X439408Y151108D01*
X429959Y150841D02*
Y157085D01*
Y150841D02*
X430300Y150500D01*
X420510Y157085D02*
Y162790D01*
X420300Y163000D02*
X420510Y162790D01*
Y150710D02*
Y157085D01*
X420300Y150500D02*
X420510Y150710D01*
X474300Y179500D02*
Y182500D01*
Y184500D01*
Y176000D02*
Y179500D01*
X474150Y179650D02*
X474300Y179500D01*
X474001Y182799D02*
X474300Y182500D01*
X472851Y185949D02*
X474300Y184500D01*
X473800Y176500D02*
X474300Y176000D01*
X469200Y185949D02*
X472851D01*
X469200Y179650D02*
X474150D01*
X469200Y182799D02*
X474001D01*
X469200Y176500D02*
X473800D01*
X463587Y229200D02*
X463960Y228828D01*
X459700Y229200D02*
X463587D01*
X362200Y213100D02*
X366550D01*
X368131Y117368D02*
Y124802D01*
Y117368D02*
X368500Y117000D01*
X364982Y117018D02*
Y124802D01*
X365000Y117000D02*
X365100D01*
X377400Y229200D02*
X381287D01*
X381660Y228828D01*
X367400Y176000D02*
X367500Y176100D01*
X362800Y176000D02*
X367400D01*
X362800D02*
X364500D01*
X360650D02*
X362800D01*
X366550Y213100D02*
X366700Y212950D01*
X364982Y132482D02*
X365000Y132500D01*
X392000Y176000D02*
Y179500D01*
X391500Y176500D02*
X392000Y176000D01*
X386900Y176500D02*
X391500D01*
X392000Y179500D02*
Y182500D01*
X391850Y179650D02*
X392000Y179500D01*
X386900Y179650D02*
X391850D01*
X391701Y182799D02*
X392000Y182500D01*
Y184500D01*
X386900Y182799D02*
X391701D01*
X390551Y185949D02*
X392000Y184500D01*
X386900Y185949D02*
X390551D01*
X368131Y124802D02*
Y129368D01*
X365000Y132500D02*
X368131Y129368D01*
X364982Y124802D02*
Y132482D01*
Y117018D02*
X365000Y117000D01*
X339785Y131285D02*
X340000Y131500D01*
X339785Y124802D02*
Y131285D01*
X339500Y118000D02*
X339785Y118285D01*
Y124802D01*
X347659Y150841D02*
X348000Y150500D01*
X347659Y150841D02*
Y157085D01*
X338000Y150500D02*
X338210Y150710D01*
Y157085D01*
X338000Y163000D02*
X338210Y162790D01*
Y157085D02*
Y162790D01*
X366557Y164557D02*
X368000Y166000D01*
X366557Y157085D02*
Y164557D01*
X366500Y150500D02*
X366557Y150557D01*
Y157085D01*
X357000Y151000D02*
X357108Y151108D01*
Y157085D01*
X333250Y179250D02*
X333500Y179000D01*
X333250Y179250D02*
Y183600D01*
X358306Y210306D02*
X358500Y210500D01*
X353000Y210306D02*
X358306D01*
X347000Y210500D02*
X347195Y210306D01*
X353000D01*
X340905Y203906D02*
X341000Y204000D01*
X335800Y203906D02*
X340905D01*
X330000Y204000D02*
X330095Y203906D01*
X335800D01*
X365300Y197800D02*
X365500Y198000D01*
X365300Y193806D02*
Y197800D01*
X370806Y193806D02*
X371000Y194000D01*
X365300Y193806D02*
X370806D01*
X1001772Y37460D02*
X1004450Y34782D01*
X1001399Y26900D02*
Y32501D01*
X1000000Y33900D02*
X1001399Y32501D01*
X997700Y33900D02*
X1000000D01*
X996600Y35000D02*
Y39600D01*
X997400Y40400D01*
X996600Y35000D02*
X997700Y33900D01*
X1020650Y46050D02*
Y51000D01*
Y46050D02*
X1020800Y45900D01*
X1007600Y34232D02*
X1007632Y34200D01*
X1007700D01*
X1005132Y57951D02*
Y65431D01*
X1007100Y67400D01*
X1007600Y26900D02*
Y34232D01*
X1010828Y37460D01*
X1004450Y26900D02*
Y34200D01*
Y34782D01*
X997400Y40400D02*
X1004800D01*
X1006287D01*
X1004800D02*
X1024000D01*
X1026800Y43200D01*
Y56750D01*
X1027150Y57100D01*
X1010828Y40572D02*
Y44940D01*
Y40572D02*
X1011000Y40400D01*
X996953Y44153D02*
X1001772D01*
X996900Y44100D02*
X996953Y44153D01*
X1013899Y26900D02*
Y33801D01*
X1013800Y33900D02*
X1013899Y33801D01*
Y20701D02*
Y26900D01*
Y20701D02*
X1014000Y20600D01*
X1025120Y26506D02*
Y35380D01*
X1025100Y35400D02*
X1025120Y35380D01*
Y4853D02*
X1031953D01*
X1032100Y5000D01*
X989333Y5600D02*
X990080Y4853D01*
X983100Y5600D02*
X989333D01*
X989587Y27000D02*
X990080Y26506D01*
X982600Y27000D02*
X989587D01*
X1039706Y26506D02*
X1046680D01*
X1039400Y26200D02*
X1039706Y26506D01*
X1046433Y5100D02*
X1046680Y4853D01*
X1039600Y5100D02*
X1046433D01*
X1081720Y4853D02*
X1089353D01*
X1089500Y5000D01*
X1081720Y26506D02*
X1089406D01*
X1089500Y26600D01*
X1070499Y26900D02*
Y33399D01*
X1072600Y35500D01*
X1064200Y26900D02*
Y34132D01*
X1061050Y26900D02*
Y34482D01*
X1064200Y34132D02*
X1064634Y34566D01*
X1067328Y37260D01*
X1058272D02*
X1061050Y34482D01*
X1058025Y44200D02*
X1058272Y43953D01*
X1053300Y44200D02*
X1058025D01*
X1086450Y49250D02*
Y53600D01*
Y49250D02*
X1086500Y49200D01*
X1060131Y56251D02*
Y63731D01*
X1062100Y65700D01*
X983600Y74950D02*
Y79100D01*
X1070800Y40200D02*
X1071700Y39300D01*
X1052900Y34700D02*
X1054100Y33500D01*
X1052900Y34700D02*
Y39000D01*
X1054100Y40200D01*
X1057999Y26900D02*
Y32501D01*
X1057000Y33500D02*
X1057999Y32501D01*
X1054100Y33500D02*
X1057000D01*
X1074600Y43550D02*
X1078450D01*
X1078600Y43700D01*
X1077736Y39300D02*
X1081100Y42665D01*
Y52650D01*
X1071700Y39300D02*
X1077736D01*
X1080150Y53600D02*
X1081100Y52650D01*
X1044700Y77500D02*
Y82050D01*
X1044600Y77400D02*
X1044700Y77500D01*
X1054100Y40200D02*
X1067500D01*
X1070800D01*
X1067500D02*
Y44568D01*
X1067328Y44740D02*
X1067500Y44568D01*
X706700Y229300D02*
X710587D01*
X358683Y109700D02*
Y124802D01*
X363483Y104900D02*
X392000D01*
X358683Y109700D02*
X363483Y104900D01*
X556649Y186049D02*
X556700Y186100D01*
X556550Y179750D02*
X556700Y179600D01*
X551600Y182899D02*
X556401D01*
X551600Y186049D02*
X553251D01*
X556649D01*
X556700Y176100D02*
Y179600D01*
Y185200D01*
Y186100D01*
Y185200D02*
X556921Y185421D01*
Y233121D01*
X564300Y240500D01*
Y253200D01*
X525600Y315300D02*
X557400Y283500D01*
X289823Y326984D02*
X314916D01*
X326600Y315300D02*
X525600D01*
X314916Y326984D02*
X326600Y315300D01*
X278543Y287543D02*
Y295216D01*
X278500Y287500D02*
X278543Y287543D01*
Y295216D02*
Y303000D01*
Y314469D01*
Y327857D01*
X278500Y327900D02*
X278543Y327857D01*
X278500Y327900D02*
Y339425D01*
X278543Y339469D01*
Y525243D02*
X278600Y525300D01*
X278543Y507900D02*
Y525243D01*
Y507900D02*
X278643Y508000D01*
X281500D01*
X278543Y486200D02*
Y507900D01*
X276600Y486200D02*
X278543D01*
X275400Y487400D02*
X276600Y486200D01*
X278543Y460000D02*
Y486200D01*
Y444700D02*
Y460000D01*
Y430000D02*
Y444700D01*
Y406100D02*
Y430000D01*
Y381700D02*
Y406100D01*
Y366100D02*
Y381700D01*
Y339469D02*
Y351100D01*
Y366100D01*
X1129848Y75853D02*
Y77852D01*
Y76852D01*
X1123850D01*
X1124850Y75853D01*
D34*
X937150Y95500D02*
X962800Y69850D01*
X914150Y94300D02*
X938600Y69850D01*
X907450Y93100D02*
X930700Y69850D01*
X72600Y52618D02*
X110218Y15000D01*
X302082D01*
X331073Y43991D01*
X786200Y50400D02*
X815200Y79400D01*
X73800Y53115D02*
X110715Y16200D01*
X301585D01*
X330576Y45191D01*
X785703Y51600D02*
X814703Y80600D01*
X75000Y53612D02*
X111212Y17400D01*
X301088D01*
X330079Y46391D01*
X76200Y54109D02*
X111709Y18600D01*
X300591D01*
X329582Y47591D01*
X77400Y54606D02*
X112206Y19800D01*
X300094D01*
X329085Y48791D01*
X784212Y55200D02*
X813212Y84200D01*
X78600Y55103D02*
X112703Y21000D01*
X299597D01*
X328588Y49991D01*
X783715Y56400D02*
X812715Y85400D01*
X79800Y55600D02*
X113200Y22200D01*
X299100D01*
X783218Y57600D02*
X812218Y86600D01*
X784709Y54000D02*
X804054Y73346D01*
X785206Y52800D02*
X804903Y72497D01*
X804054Y73346D02*
X813709Y83000D01*
X804903Y72497D02*
X814206Y81800D01*
X812218Y86600D02*
X888650D01*
X905900Y69350D01*
X812715Y85400D02*
X881850D01*
X897900Y69350D01*
X813212Y84200D02*
X875050D01*
X889900Y69350D01*
X813709Y83000D02*
X868250D01*
X881900Y69350D01*
X814206Y81800D02*
X861450D01*
X873900Y69350D01*
X814703Y80600D02*
X854650D01*
X865900Y69350D01*
X815200Y79400D02*
X847850D01*
X857900Y69350D01*
X71400Y50688D02*
X108288Y13800D01*
X67800Y49197D02*
X106797Y10200D01*
X69000Y49694D02*
X107294Y11400D01*
X70200Y50191D02*
X107791Y12600D01*
X108288Y13800D02*
X303675D01*
X319675Y29800D01*
X743412D01*
X787000Y49200D02*
X815700Y77900D01*
X106797Y10200D02*
X305166D01*
X321166Y26200D01*
X744903D01*
X788700Y45600D02*
X817000Y73900D01*
X107294Y11400D02*
X304669D01*
X320669Y27400D01*
X744406D01*
X788203Y46800D02*
X816903Y75500D01*
X107791Y12600D02*
X304172D01*
X320172Y28600D01*
X743909D01*
X787706Y48000D02*
X816406Y76700D01*
X815700Y77900D02*
X841350D01*
X849900Y69350D01*
X839500Y76700D02*
X841900Y74300D01*
X816406Y76700D02*
X839500D01*
X831200Y75500D02*
X833900Y72800D01*
X816903Y75500D02*
X831200D01*
X824400Y73900D02*
X825900Y72400D01*
X817000Y73900D02*
X824400D01*
X841900Y69350D02*
Y74300D01*
X814150Y69350D02*
X817900D01*
X789200Y44400D02*
X814150Y69350D01*
X825900D02*
Y72400D01*
X833900Y69350D02*
Y72800D01*
X66600Y48700D02*
X106300Y9000D01*
X305663D01*
X321663Y25000D02*
X745400D01*
X305663Y9000D02*
X321663Y25000D01*
X966500Y28300D02*
X971400Y33200D01*
Y63550D01*
X962800Y52000D02*
X966500Y48300D01*
X962800Y52000D02*
Y63550D01*
X599383Y124902D02*
Y142584D01*
X618200Y226100D02*
Y231650D01*
X596234Y124902D02*
Y136966D01*
X596200Y137000D02*
X596234Y136966D01*
X626900Y173600D02*
X627900Y172600D01*
X626900Y173600D02*
Y176600D01*
X627900Y172600D02*
X633000D01*
X589900Y137300D02*
X589935Y137265D01*
Y124902D02*
Y137265D01*
X626699Y183100D02*
X626900Y182899D01*
X621500Y183100D02*
X626699D01*
X621500D02*
Y189300D01*
X602533Y131233D02*
X602600Y131300D01*
X602533Y124902D02*
Y131233D01*
X626800Y190300D02*
X626900Y190200D01*
Y186049D02*
Y190200D01*
X608832Y117468D02*
Y124902D01*
Y117468D02*
X608900Y117400D01*
X632400Y213900D02*
Y219872D01*
X593084Y124902D02*
Y133816D01*
X636140Y237390D02*
X636250Y237500D01*
X636140Y228928D02*
Y237390D01*
X681683Y142584D02*
X681700Y142600D01*
X681683Y124902D02*
Y142584D01*
X678534Y124902D02*
Y136966D01*
X678500Y137000D02*
X678534Y136966D01*
X709200Y173600D02*
X710200Y172600D01*
X709200Y173600D02*
Y176600D01*
X710200Y172600D02*
X715300D01*
X672200Y137300D02*
X672235Y137265D01*
Y124902D02*
Y137265D01*
X708999Y183100D02*
X709200Y182899D01*
X703800Y183100D02*
X708999D01*
X703800D02*
Y189300D01*
X684833Y124902D02*
Y131233D01*
X709100Y190300D02*
Y211800D01*
X709200Y186049D02*
Y190200D01*
X691400Y229500D02*
X709100Y211800D01*
X691132Y117468D02*
Y124902D01*
X714700Y213900D02*
Y219872D01*
X675384Y124902D02*
Y133816D01*
X718440Y237390D02*
X718550Y237500D01*
X718440Y228928D02*
Y237390D01*
X538200Y192300D02*
Y212800D01*
X535600Y189700D02*
X538200Y192300D01*
X532700Y189700D02*
X535600D01*
X524700Y226300D02*
X538200Y212800D01*
X517084Y142584D02*
X517100Y142600D01*
X517084Y124902D02*
Y142584D01*
X535900Y226100D02*
Y231650D01*
X513934Y124902D02*
Y136966D01*
X513900Y137000D02*
X513934Y136966D01*
X539400Y191600D02*
Y193200D01*
Y193500D01*
X538900Y176600D02*
X544600D01*
X539400Y193200D02*
Y213297D01*
X536700Y188900D02*
X539400Y191600D01*
X536700Y178800D02*
X538900Y176600D01*
X536700Y178800D02*
Y188900D01*
X544600Y173600D02*
X545600Y172600D01*
X544600Y173600D02*
Y176600D01*
X545600Y172600D02*
X550700D01*
X525197Y227500D02*
X539400Y213297D01*
X507600Y137300D02*
X507635Y137265D01*
Y124902D02*
Y137265D01*
X544399Y183100D02*
X544600Y182899D01*
X539200Y183100D02*
X544399D01*
X541000Y191100D02*
Y213394D01*
X539200Y189300D02*
X541000Y191100D01*
X539200Y183100D02*
Y189300D01*
X525694Y228700D02*
X541000Y213394D01*
X520233Y131233D02*
X520300Y131300D01*
X520233Y124902D02*
Y131233D01*
X544500Y190300D02*
X544600Y190200D01*
X544500Y190300D02*
Y211800D01*
X544600Y186049D02*
Y190200D01*
X526252Y230048D02*
X544500Y211800D01*
X526532Y117468D02*
Y124902D01*
Y117468D02*
X526600Y117400D01*
X550100Y213900D02*
Y219872D01*
X510784Y124902D02*
Y133816D01*
X544950Y234800D02*
X547650Y237500D01*
X553840Y237390D02*
X553950Y237500D01*
X553840Y228928D02*
Y237390D01*
X763983Y142584D02*
X764000Y142600D01*
X763983Y124902D02*
Y142584D01*
X782800Y226100D02*
Y231650D01*
X760834Y124902D02*
Y136966D01*
X760800Y137000D02*
X760834Y136966D01*
X786300Y191600D02*
Y193200D01*
Y193500D01*
X785800Y176600D02*
X791500D01*
X786300Y193200D02*
Y213297D01*
X783600Y188900D02*
X786300Y191600D01*
X783600Y178800D02*
X785800Y176600D01*
X783600Y178800D02*
Y188900D01*
X791500Y173600D02*
X792500Y172600D01*
X791500Y173600D02*
Y176600D01*
X792500Y172600D02*
X797600D01*
X772497Y227100D02*
X786300Y213297D01*
X754500Y137300D02*
X754535Y137265D01*
Y124902D02*
Y137265D01*
X791299Y183100D02*
X791500Y182899D01*
X786100Y183100D02*
X791299D01*
X786100D02*
Y189300D01*
X767133Y124902D02*
Y131233D01*
X791400Y190300D02*
X791500Y190200D01*
Y186049D02*
Y190200D01*
X773432Y117468D02*
Y124902D01*
Y117468D02*
X773500Y117400D01*
X797000Y213900D02*
Y219872D01*
X757684Y124902D02*
Y133816D01*
X800740Y237390D02*
X800850Y237500D01*
X800740Y228928D02*
Y237390D01*
X434684Y142483D02*
X434700Y142500D01*
X434684Y124802D02*
Y142483D01*
X453500Y226000D02*
Y231550D01*
X431534Y124802D02*
Y136866D01*
X431500Y136900D02*
X431534Y136866D01*
X457000Y191500D02*
Y193100D01*
Y193400D01*
X456500Y176500D02*
X462200D01*
X457000Y193100D02*
Y213281D01*
X454300Y188800D02*
X457000Y191500D01*
X454300Y178700D02*
X456500Y176500D01*
X454300Y178700D02*
Y188800D01*
X462200Y173500D02*
X463200Y172500D01*
X462200Y173500D02*
Y176500D01*
X463200Y172500D02*
X468300D01*
X425200Y137200D02*
X425235Y137165D01*
Y124802D02*
Y137165D01*
X461999Y183000D02*
X462200Y182799D01*
X456800Y183000D02*
X461999D01*
X456800D02*
Y189200D01*
X437833Y131133D02*
X437900Y131200D01*
X437833Y124802D02*
Y131133D01*
X462100Y190200D02*
X462200Y190100D01*
X462100Y190200D02*
Y211784D01*
X462200Y185949D02*
Y190100D01*
X444132Y117368D02*
Y124802D01*
Y117368D02*
X444200Y117300D01*
X467700Y213800D02*
Y219772D01*
X428384Y124802D02*
Y133716D01*
X471440Y237291D02*
X471550Y237400D01*
X471440Y228828D02*
Y237291D01*
X362100Y229400D02*
X379800Y211700D01*
X371200Y226000D02*
Y231550D01*
X379800Y190200D02*
Y211700D01*
X374500Y183000D02*
Y189200D01*
X376300Y191000D01*
Y213294D01*
X374700Y193100D02*
Y213197D01*
X368000Y189600D02*
X370900D01*
X373500Y192200D01*
Y212700D01*
X374700Y191500D02*
Y193100D01*
X372000Y188800D02*
X374700Y191500D01*
X372000Y178700D02*
Y188800D01*
X374700Y193100D02*
Y193400D01*
X372000Y178700D02*
X374200Y176500D01*
X379900D01*
X380900Y172500D02*
X386000D01*
X379900Y173500D02*
X380900Y172500D01*
X379900Y173500D02*
Y176500D01*
X361832Y117368D02*
X361900Y117300D01*
X361832Y117368D02*
Y124802D01*
X355533Y131133D02*
X355600Y131200D01*
X385400Y213800D02*
Y219772D01*
X355533Y124802D02*
Y131133D01*
X352383Y124802D02*
Y142483D01*
X352400Y142500D01*
X379800Y190200D02*
X379900Y190100D01*
Y185949D02*
Y190100D01*
X374500Y183000D02*
X379699D01*
X379900Y182799D01*
X342900Y137200D02*
X342935Y137165D01*
Y124802D02*
Y137165D01*
X346084Y124802D02*
Y133716D01*
X349200Y136900D02*
X349234Y136866D01*
Y124802D02*
Y136866D01*
X993437Y71337D02*
X997651D01*
X992900Y70800D02*
X993437Y71337D01*
X992900Y70000D02*
Y70800D01*
Y70000D02*
X993500Y69400D01*
X997620D01*
X997651Y69368D01*
X1007100Y55600D02*
Y57951D01*
X1005000Y53500D02*
X1007100Y55600D01*
X1005000Y53300D02*
Y53500D01*
Y50189D02*
X1009068Y54257D01*
Y57951D01*
X992681Y65431D02*
X997651D01*
X989650Y62400D02*
X992681Y65431D01*
X989650Y51100D02*
X999400D01*
X1003163Y54863D02*
Y57951D01*
X999400Y51100D02*
X1003163Y54863D01*
X1044000Y294000D02*
X1052000D01*
Y290000D02*
Y294000D01*
Y284000D02*
Y290000D01*
Y278000D02*
Y284000D01*
Y273000D02*
Y278000D01*
X1045000Y273000D02*
X1052000D01*
X1044000Y274000D02*
X1045000Y273000D01*
X1036000Y274000D02*
X1044000D01*
X1036000D02*
Y278000D01*
Y283000D01*
X1037000Y284000D01*
Y287000D01*
X1036000Y288000D02*
X1037000Y287000D01*
X1036000Y288000D02*
Y294000D01*
X1026913Y63463D02*
X1027100Y63650D01*
X1016549Y63463D02*
X1026913D01*
X1023900Y57100D02*
X1027150D01*
X1016549Y61494D02*
X1019506D01*
X1023900Y57100D01*
X1033450D02*
Y61350D01*
X1033400Y61400D02*
X1033450Y61350D01*
X994063Y63463D02*
X997651D01*
X993700Y63100D02*
X994063Y63463D01*
X993700Y61700D02*
Y63100D01*
X993906Y61494D02*
X997651D01*
X993700Y61700D02*
X993906Y61494D01*
X1071549Y59794D02*
X1077606D01*
X1080150Y53600D02*
Y57250D01*
X1077606Y59794D02*
X1080150Y57250D01*
X1071549Y61763D02*
X1083287D01*
X1083400Y61650D01*
X983350Y62400D02*
Y68401D01*
X983600Y68650D01*
X979450D02*
X983600D01*
X1061700Y47300D02*
X1064069Y49668D01*
Y56251D01*
X1062100Y52000D02*
Y56251D01*
X1061600Y51500D02*
X1062100Y52000D01*
X1058163Y51863D02*
Y56251D01*
X1057000Y50700D02*
X1058163Y51863D01*
X1048150Y48550D02*
X1050300Y50700D01*
X1048150Y44900D02*
Y48550D01*
X1050300Y50700D02*
X1057000D01*
X1048600Y60300D02*
Y61400D01*
Y60300D02*
X1049000Y59900D01*
X1052546D01*
X1052651Y59794D01*
X1048100Y69300D02*
X1048437Y69637D01*
X1048900D01*
X1049200D01*
X1052651D01*
X1038000Y69800D02*
Y81950D01*
X1038100Y88350D02*
X1044700D01*
X1038000Y88250D02*
X1038100Y88350D01*
X1048100Y68100D02*
Y69300D01*
Y68100D02*
X1048532Y67668D01*
X1052651D01*
X1048600Y61400D02*
X1048963Y61763D01*
X1052651D01*
X1038000Y69800D02*
X1044069Y63731D01*
X1052651D01*
X1046000Y65700D02*
X1052651D01*
X1045300Y66400D02*
X1046000Y65700D01*
X1045300Y66400D02*
Y71700D01*
X1049600Y76000D01*
X1033301Y88250D02*
X1038000D01*
X1024850Y96700D02*
X1033301Y88250D01*
X994600Y96700D02*
X1024850D01*
X953800Y137500D02*
X994600Y96700D01*
X1049600Y76000D02*
Y86800D01*
Y87600D01*
Y86800D02*
Y91900D01*
X922800Y141700D02*
X955700D01*
X906700Y137500D02*
X953800D01*
X1041800Y99700D02*
X1049600Y91900D01*
X997700Y99700D02*
X1041800D01*
X955700Y141700D02*
X997700Y99700D01*
X84600Y103600D02*
X119000Y69200D01*
X266300D01*
X81000Y102109D02*
X117509Y65600D01*
X82200Y102606D02*
X118006Y66800D01*
X83400Y103103D02*
X118503Y68000D01*
X266300Y69200D02*
X278200Y57300D01*
X118503Y68000D02*
X265803D01*
X277703Y56100D01*
X118006Y66800D02*
X265306D01*
X277206Y54900D01*
X117509Y65600D02*
X264809D01*
X276709Y53700D01*
X298097Y56100D02*
X309997Y68000D01*
X298594Y54900D02*
X310494Y66800D01*
X299091Y53700D02*
X310991Y65600D01*
X277703Y56100D02*
X298097D01*
X277206Y54900D02*
X298594D01*
X276709Y53700D02*
X299091D01*
X278200Y57300D02*
X297600D01*
X309500Y69200D01*
X770091Y65600D02*
X797591Y93100D01*
X907450D01*
X769594Y66800D02*
X797094Y94300D01*
X914150D01*
X769097Y68000D02*
X796597Y95500D01*
X937150D01*
X768600Y69200D02*
X796100Y96700D01*
X266797Y70400D02*
X278697Y58500D01*
X267294Y71600D02*
X279194Y59700D01*
X768103Y70400D02*
X795603Y97900D01*
X297103Y58500D02*
X309003Y70400D01*
X278697Y58500D02*
X297103D01*
X119497Y70400D02*
X266797D01*
X85800Y104097D02*
X119497Y70400D01*
X767606Y71600D02*
X795106Y99100D01*
X296606Y59700D02*
X308506Y71600D01*
X279194Y59700D02*
X296606D01*
X119994Y71600D02*
X267294D01*
X87000Y104594D02*
X119994Y71600D01*
X308506D02*
X767606D01*
X309003Y70400D02*
X768103D01*
X309500Y69200D02*
X768600D01*
X309997Y68000D02*
X769097D01*
X310494Y66800D02*
X769594D01*
X310991Y65600D02*
X770091D01*
X745400Y25000D02*
X764800Y44400D01*
X789200D01*
X744903Y26200D02*
X764303Y45600D01*
X788700D01*
X744406Y27400D02*
X763806Y46800D01*
X788203D01*
X743909Y28600D02*
X763309Y48000D01*
X787706D01*
X743412Y29800D02*
X762812Y49200D01*
X787000D01*
X755100Y50400D02*
X786200D01*
X299100Y22200D02*
X328091Y51191D01*
X752118Y57600D02*
X783218D01*
X752615Y56400D02*
X783715D01*
X753112Y55200D02*
X784212D01*
X753609Y54000D02*
X784709D01*
X754106Y52800D02*
X785206D01*
X754603Y51600D02*
X785703D01*
X328091Y51191D02*
X745709D01*
X752118Y57600D01*
X747697Y46391D02*
X754106Y52800D01*
X747200Y47591D02*
X753609Y54000D01*
X746703Y48791D02*
X753112Y55200D01*
X746206Y49991D02*
X752615Y56400D01*
X748194Y45191D02*
X754603Y51600D01*
X330576Y45191D02*
X748194D01*
X330079Y46391D02*
X747697D01*
X329582Y47591D02*
X747200D01*
X329085Y48791D02*
X746703D01*
X328588Y49991D02*
X746206D01*
X331073Y43991D02*
X748691D01*
X755100Y50400D01*
X443450Y231550D02*
X445300D01*
X453500D01*
X389140Y237291D02*
X389250Y237400D01*
X380250Y234700D02*
X382950Y237400D01*
X389140Y228828D02*
Y237291D01*
X453200Y189600D02*
X455800Y192200D01*
X450300Y189600D02*
X453200D01*
X518000Y227500D02*
Y227500D01*
X506512Y227500D02*
X518000D01*
Y226300D02*
Y226300D01*
X506015Y226300D02*
X518000D01*
X398200Y242600D02*
X414300Y226500D01*
X398697Y243800D02*
X414797Y227700D01*
X399194Y245000D02*
X415294Y228900D01*
X399691Y246200D02*
X415644Y230248D01*
X400188Y247400D02*
X416038Y231550D01*
X507358Y230048D02*
X526252D01*
X507009Y228700D02*
X525694D01*
X518000Y227500D02*
X525197D01*
X518000Y226300D02*
X524700D01*
X507453Y231650D02*
X535900D01*
X506000Y234800D02*
X544950D01*
X481915Y250400D02*
X506015Y226300D01*
X482412Y251600D02*
X506512Y227500D01*
X482909Y252800D02*
X507009Y228700D01*
X483406Y254000D02*
X507358Y230048D01*
X483903Y255200D02*
X507453Y231650D01*
X484400Y256400D02*
X506000Y234800D01*
X360400Y225800D02*
X373500Y212700D01*
X360897Y227000D02*
X374700Y213197D01*
X361394Y228200D02*
X376300Y213294D01*
X360200Y230600D02*
X361150Y231550D01*
X371200D01*
X359400Y231800D02*
X362300Y234700D01*
X380250D01*
X360585Y242600D02*
X398200D01*
X360088Y243800D02*
X398697D01*
X359591Y245000D02*
X399194D01*
X359094Y246200D02*
X399691D01*
X358597Y247400D02*
X400188D01*
X357100Y250400D02*
X481915D01*
X356603Y251600D02*
X482412D01*
X356106Y252800D02*
X482909D01*
X355609Y254000D02*
X483406D01*
X355112Y255200D02*
X483903D01*
X354615Y256400D02*
X484400D01*
X700500Y226100D02*
Y231650D01*
X750697Y227100D02*
X772497D01*
X751194Y228300D02*
X772994D01*
X677115Y225900D02*
X689700D01*
X677612Y227100D02*
X690197D01*
X678109Y228300D02*
X690694D01*
X678606Y229500D02*
X691400D01*
X351685Y233700D02*
X360585Y242600D01*
X351188Y234900D02*
X360088Y243800D01*
X350691Y236100D02*
X359591Y245000D01*
X350194Y237300D02*
X359094Y246200D01*
X349697Y238500D02*
X358597Y247400D01*
X349200Y239700D02*
X358100Y248600D01*
X751238Y231650D02*
X782800D01*
X443637Y230248D02*
X462100Y211784D01*
X358100Y248600D02*
X418700D01*
X414300Y226500D02*
X427500D01*
Y226500D01*
X442084D01*
X455800Y212784D01*
Y192200D02*
Y212784D01*
X414797Y227700D02*
X442581D01*
X457000Y213281D01*
X415294Y228900D02*
X443078D01*
X415644Y230248D02*
X443637D01*
X416038Y231550D02*
X445300D01*
X53012Y455071D02*
X100829D01*
X102200Y453700D01*
X53012Y457590D02*
X98391D01*
X98900Y458100D01*
X53012Y450095D02*
X93695D01*
X93700Y450100D01*
X53012Y442598D02*
X93802D01*
X93900Y442500D01*
X53012Y447575D02*
X84725D01*
X86000Y446300D01*
X91000D01*
X91200Y446500D01*
X99312Y265912D02*
X100600D01*
X109612Y258900D02*
X340306D01*
X37100Y260100D02*
X57100D01*
X40000Y262500D02*
X55400D01*
X750200Y225900D02*
X772000D01*
X113500Y272400D02*
Y272800D01*
X751691Y229500D02*
X773700D01*
X791400Y211800D01*
Y190300D02*
Y211800D01*
X37300Y265100D02*
X52600D01*
X40500Y267400D02*
X52500D01*
X101575Y268175D02*
X105428D01*
X100600Y265912D02*
X105994D01*
X101900Y263400D02*
X106809D01*
X53012Y440079D02*
X86821D01*
X86900Y440000D01*
X101800Y259000D02*
X106900D01*
X122800Y256500D02*
X123600D01*
X341300D01*
X36800Y255000D02*
X36900Y255100D01*
X30376Y391400D02*
X30453Y391323D01*
X122500Y253700D02*
X122900D01*
X342512D01*
X123400Y234900D02*
X351188D01*
X345515Y247300D02*
X354615Y256400D01*
X346012Y246100D02*
X355112Y255200D01*
X346509Y244900D02*
X355609Y254000D01*
X347006Y243700D02*
X356106Y252800D01*
X347503Y242500D02*
X356603Y251600D01*
X348000Y241300D02*
X357100Y250400D01*
X40000Y257300D02*
X59200D01*
X36900Y255100D02*
X59700D01*
X39800Y252400D02*
X60400D01*
X62600Y254600D01*
X122500Y252500D02*
X125100D01*
X343009D01*
X59700Y255100D02*
X61800Y257200D01*
X99611D02*
X100311Y256500D01*
X52500Y267400D02*
X62300Y277200D01*
X52600Y265100D02*
X63100Y275600D01*
X62300Y277200D02*
X112389D01*
X63100Y275600D02*
X107589D01*
X55400Y262500D02*
X63337Y270437D01*
X57100Y260100D02*
X62912Y265912D01*
X63337Y270437D02*
X104863D01*
X62912Y265912D02*
X100600D01*
X61800Y257200D02*
X99611D01*
X53012Y416331D02*
X96031D01*
X97800Y418100D02*
X100700D01*
X96031Y416331D02*
X97800Y418100D01*
X122500Y251300D02*
X123100D01*
X343506D01*
X93200Y251400D02*
X93400Y251200D01*
X62600Y254600D02*
X94300D01*
X97800Y247800D02*
X103800D01*
X122500Y248900D02*
X122900D01*
X344500D01*
X105800Y247000D02*
X106100Y247300D01*
X121700D02*
X122600D01*
X345515D01*
X94900Y249200D02*
X95700Y250000D01*
X121700Y246100D02*
X123200D01*
X346012D01*
X39800Y245800D02*
X40200Y245400D01*
X121700Y244900D02*
X122500D01*
X346509D01*
X53012Y408835D02*
X95535D01*
X95600Y408900D01*
X53012Y406315D02*
X93785D01*
X95900Y404200D01*
X53012Y401339D02*
X92261D01*
X93500Y400100D01*
X121700Y243700D02*
X123700D01*
X347006D01*
X121700Y242500D02*
X122200D01*
X347503D01*
X121700Y241300D02*
X122900D01*
X348000D01*
X104200Y245400D02*
X106100Y247300D01*
X36900Y243700D02*
X37000Y243800D01*
X418700Y248600D02*
X432122Y235178D01*
X463028D01*
X465250Y237400D01*
X749785Y234800D02*
X791850D01*
X794550Y237500D01*
X119900Y272700D02*
Y272800D01*
X106900Y259000D02*
X108200Y257700D01*
X621200Y176600D02*
X626900D01*
X619000Y188900D02*
X621700Y191600D01*
X619000Y178800D02*
Y188900D01*
Y178800D02*
X621200Y176600D01*
X112389Y277200D02*
X121089Y268500D01*
X335812D01*
X113500Y272400D02*
X118600Y267300D01*
X336309D01*
X117089Y266100D02*
X336806D01*
X106100Y272700D02*
X113900Y264900D01*
X337303D01*
X104863Y270437D02*
X111600Y263700D01*
X337800D01*
X105428Y268175D02*
X111103Y262500D01*
X338815D01*
X105994Y265912D02*
X110606Y261300D01*
X339312D01*
X106809Y263400D02*
X110109Y260100D01*
X339809D01*
X107312Y261200D02*
X109612Y258900D01*
X108200Y257700D02*
X340803D01*
X100311Y256500D02*
X123600D01*
X100300Y252600D02*
X101400Y253700D01*
X102000Y251200D02*
X103300Y252500D01*
X103400Y250000D02*
X104700Y251300D01*
X103800Y247800D02*
X106100Y250100D01*
Y247300D02*
X107700Y248900D01*
X105900Y244100D02*
X109100Y247300D01*
X98800Y254900D02*
X342015D01*
X101400Y253700D02*
X122900D01*
X103300Y252500D02*
X125100D01*
X104700Y251300D02*
X123100D01*
X106100Y250100D02*
X344003D01*
X107700Y248900D02*
X122900D01*
X116308Y239700D02*
X349200D01*
X109100Y247300D02*
X122600D01*
X110300Y246100D02*
X123200D01*
X114300Y242500D02*
X122200D01*
X121300Y238500D02*
X124300D01*
X349697D01*
X106800Y242600D02*
X110300Y246100D01*
X121300Y237300D02*
X122100D01*
X111700Y244900D02*
X122500D01*
X112389Y243700D02*
X123700D01*
X116211Y241300D02*
X122900D01*
X107800Y241000D02*
X111700Y244900D01*
X108489Y239800D02*
X112389Y243700D01*
X110711Y235800D02*
X116211Y241300D01*
X111208Y234600D02*
X116308Y239700D01*
X117100Y238500D02*
X124300D01*
X119200Y237300D02*
X122100D01*
X113600Y231700D02*
X119200Y237300D01*
X53012Y398819D02*
X86981D01*
X87000Y398800D01*
X111000Y232400D02*
X117100Y238500D01*
X88723Y391323D02*
X88800Y391400D01*
X53012Y391323D02*
X88723D01*
X53012Y393843D02*
X53054Y393800D01*
X86100D01*
X122100Y237300D02*
X350194D01*
X120200Y231700D02*
X123400Y234900D01*
X139900Y233700D02*
X141900D01*
X351685D01*
X121111Y236100D02*
X350691D01*
X125600Y229100D02*
X125900D01*
X140500Y230600D02*
X140800D01*
X360200D01*
X140500Y229400D02*
X141300D01*
X362100D01*
X140500Y228200D02*
X141300D01*
X361394D01*
X125900Y229100D02*
X128600Y231800D01*
X130700Y227700D02*
X132400Y229400D01*
X126511Y226900D02*
X130211Y230600D01*
X128600Y231800D02*
X359400D01*
X130211Y230600D02*
X140800D01*
X132400Y229400D02*
X141300D01*
X134311Y228200D02*
X141300D01*
X126106Y233700D02*
X141900D01*
X114511Y229500D02*
X121111Y236100D01*
X120506Y228100D02*
X126106Y233700D01*
X443078Y228900D02*
X458600Y213378D01*
Y191000D02*
Y213378D01*
X456800Y189200D02*
X458600Y191000D01*
X40200Y241400D02*
X86900D01*
X37000Y243800D02*
X83800D01*
X36700Y249200D02*
X94900D01*
X41900Y247900D02*
X94111D01*
X83800Y243800D02*
X86300Y246300D01*
X88700D01*
X140500Y227000D02*
X141000D01*
X360897D01*
X136600D02*
X141000D01*
X134800Y225200D02*
X136600Y227000D01*
X131611Y225500D02*
X134311Y228200D01*
X140500Y225800D02*
X141500D01*
X360400D01*
X140200D02*
X141500D01*
X137400Y223000D02*
X140200Y225800D01*
X53012Y386346D02*
X82630D01*
X85788Y383188D01*
X53012Y383827D02*
X76099D01*
X81263Y378663D01*
X53012Y378850D02*
X53262Y378600D01*
X78214D01*
X81014Y375800D01*
X82800D01*
X83526Y376525D01*
Y380925D01*
X53012Y376331D02*
X72100D01*
X72931Y375500D01*
X78100D01*
X94300Y254600D02*
X96300Y252600D01*
X100300D01*
X93400Y251200D02*
X102000D01*
X95700Y250000D02*
X103400D01*
X93200Y245700D02*
X94800Y244100D01*
X105900D01*
X94111Y247900D02*
X96611Y245400D01*
X104200D01*
X88700Y246300D02*
X92400Y242600D01*
X106800D01*
X36800Y239000D02*
X84300D01*
X86500Y236800D01*
X86900Y241400D02*
X88500Y239800D01*
Y243100D02*
X90600Y241000D01*
X107800D01*
X88500Y239800D02*
X108489D01*
X84500Y235200D02*
X102500D01*
X106600Y234600D02*
X111208D01*
X109800Y238000D02*
X114300Y242500D01*
X86500Y236800D02*
X107511D01*
X108511Y235800D01*
X110711D01*
X102500Y235200D02*
X105300Y232400D01*
X111000D01*
X101400Y234000D02*
X105900Y229500D01*
X114511D01*
X103700Y226900D02*
X126511D01*
X104300Y228100D02*
X120506D01*
X103100Y225500D02*
X131611D01*
X83200Y236500D02*
X84500Y235200D01*
X40100Y236500D02*
X83200D01*
X36100Y234000D02*
X101400D01*
X100900Y231500D02*
X104300Y228100D01*
X101600Y229000D02*
X103700Y226900D01*
X100800Y227800D02*
X103100Y225500D01*
X35103Y227800D02*
X100800D01*
X89437Y155334D02*
Y158163D01*
X84600Y152194D02*
X87174Y154769D01*
Y160425D01*
X83400Y152691D02*
X84912Y154203D01*
Y162688D01*
X85800Y151697D02*
X89437Y155334D01*
X87000Y151200D02*
X91700Y155900D01*
X82200Y164502D02*
X82649Y164951D01*
X80449Y164040D02*
X81000Y163489D01*
X80386Y167214D02*
X80449Y167151D01*
Y164040D02*
Y167151D01*
X78186Y164605D02*
X79800Y162992D01*
X78124Y169476D02*
X78186Y169414D01*
Y164605D02*
Y169414D01*
X75924Y165171D02*
X78600Y162495D01*
X75924Y165171D02*
Y171676D01*
X73661Y165737D02*
X77400Y161998D01*
X73598Y174002D02*
X73661Y173939D01*
Y165737D02*
Y173939D01*
X71398Y166303D02*
X76200Y161501D01*
X71398Y166303D02*
Y176202D01*
X69135Y166868D02*
X75000Y161003D01*
X69135Y166868D02*
Y178465D01*
X66873Y167434D02*
X73800Y160506D01*
X66873Y167434D02*
Y180727D01*
X64610Y167999D02*
X72600Y160009D01*
X64610Y167999D02*
Y182990D01*
X62347Y168565D02*
X71400Y159512D01*
X62284Y185316D02*
X62347Y185253D01*
Y168565D02*
Y185253D01*
X60084Y169131D02*
X70200Y159015D01*
X60022Y187578D02*
X60084Y187516D01*
Y169131D02*
Y187516D01*
X57822Y169697D02*
X69000Y158518D01*
X57759Y189841D02*
X57822Y189778D01*
Y169697D02*
Y189778D01*
X55559Y170262D02*
X67800Y158021D01*
X55496Y192104D02*
X55559Y192041D01*
Y170262D02*
Y192041D01*
X53296Y170828D02*
X66600Y157524D01*
X53233Y194367D02*
X53296Y194304D01*
Y170828D02*
Y194304D01*
X87000Y104594D02*
Y151200D01*
X85800Y104097D02*
Y151697D01*
X84600Y103600D02*
Y152194D01*
X83400Y103103D02*
Y152691D01*
X82200Y102606D02*
Y164502D01*
X81000Y102109D02*
Y163489D01*
X79800Y55600D02*
Y162992D01*
X78600Y55103D02*
Y162495D01*
X77400Y54606D02*
Y161998D01*
X76200Y54109D02*
Y161501D01*
X75000Y53612D02*
Y161003D01*
X73800Y53115D02*
Y160506D01*
X72600Y52618D02*
Y160009D01*
X71400Y50688D02*
Y159512D01*
X70200Y50191D02*
Y159015D01*
X69000Y49694D02*
Y158518D01*
X67800Y49197D02*
Y158021D01*
X66600Y48700D02*
Y157524D01*
X53012Y462567D02*
X83133D01*
X83200Y462500D01*
X53012Y465087D02*
X77687D01*
X80400Y467800D01*
X53012Y282598D02*
X71198D01*
X71200Y282600D01*
X53012Y285118D02*
X69618D01*
X71000Y286500D01*
X53012Y290094D02*
X70995D01*
X71300Y290400D01*
X53012Y292614D02*
X69914D01*
X71300Y294000D01*
X53012Y297590D02*
X71290D01*
X71300Y297600D01*
X66400Y300800D02*
X71200D01*
X53012Y300110D02*
X65110D01*
X65710D02*
X66400Y300800D01*
X65110Y300110D02*
X65710D01*
X53012Y305087D02*
X71387D01*
X71400Y305100D01*
X53012Y307606D02*
X67106D01*
X68200Y308700D01*
X71300D01*
X71400Y308600D01*
X53012Y312583D02*
X66417D01*
X67300Y311700D01*
X71300D01*
X71400Y311800D01*
X53012Y315102D02*
X67902D01*
X68300Y315500D01*
X71200D01*
X71400Y315300D01*
X53012Y320079D02*
X60721D01*
X62100Y318700D01*
X71300D01*
X71400Y318800D01*
X64598Y322200D02*
X71400D01*
X53012Y322598D02*
X64200D01*
X64598Y322200D01*
X53012Y327575D02*
X60625D01*
X62300Y325900D02*
X71400D01*
X60625Y327575D02*
X62300Y325900D01*
X62700Y329200D02*
X71400D01*
X61800Y330100D02*
X62700Y329200D01*
X53438Y330100D02*
X61800D01*
X53012Y335071D02*
X69971D01*
X71400Y336500D01*
X53012Y337591D02*
X64191D01*
X66300Y339700D01*
X74900D01*
X76100Y338500D01*
Y334400D02*
Y338500D01*
X71400Y332700D02*
X74400D01*
X76100Y334400D01*
X107589Y275600D02*
X117089Y266100D01*
X22439Y361339D02*
X30453D01*
X22300Y361200D02*
X22439Y361339D01*
X24842Y363858D02*
X30453D01*
X24100Y364600D02*
X24842Y363858D01*
X22300Y364600D02*
X24100D01*
X24158Y393843D02*
X30453D01*
X22600Y395400D02*
X24158Y393843D01*
X20800Y370000D02*
X22835D01*
X24000Y368835D02*
X30453D01*
X22835Y370000D02*
X24000Y368835D01*
X24946Y371354D02*
X30453D01*
X20700Y373300D02*
X23000D01*
X24946Y371354D01*
X21519Y398819D02*
X30453D01*
X15100Y392400D02*
X21519Y398819D01*
X30283Y376500D02*
X30453Y376331D01*
X21400Y376500D02*
X30283D01*
X15100Y375100D02*
Y392400D01*
Y375100D02*
X16800Y373400D01*
X18650Y378850D02*
X30453D01*
X18600Y378900D02*
X18650Y378850D01*
X20039Y401339D02*
X30453D01*
X12900Y378900D02*
Y394200D01*
X20039Y401339D01*
X30380Y383900D02*
X30453Y383827D01*
X18700Y383900D02*
X30380D01*
X23554Y386346D02*
X30453D01*
X18689Y387100D02*
X22800D01*
X23554Y386346D01*
X30453Y391323D02*
X37177D01*
X37200Y391300D01*
X21915Y406315D02*
X30453D01*
X21900Y406300D02*
X21915Y406315D01*
X30432Y440100D02*
X30453Y440079D01*
X21800Y440100D02*
X30432D01*
X40100Y231500D02*
X41100D01*
X100900D01*
X35489D02*
X41100D01*
X10100Y256889D02*
X35489Y231500D01*
X19498Y442598D02*
X30453D01*
X10100Y256889D02*
Y433200D01*
X19498Y442598D01*
X36600Y229000D02*
X37800D01*
X101600D01*
X35600D02*
X37800D01*
X8500Y256100D02*
X35600Y229000D01*
X8500Y256100D02*
Y269400D01*
Y271600D01*
Y269400D02*
Y435700D01*
X16800Y444000D01*
X7300Y255603D02*
X35103Y227800D01*
X15875Y447575D02*
X30453D01*
X7300Y255603D02*
Y439000D01*
X15875Y447575D01*
X13894Y450095D02*
X30453D01*
X33800Y223000D02*
X37800D01*
X6100Y442300D02*
X13894Y450095D01*
X6100Y250700D02*
Y442300D01*
Y250700D02*
X33800Y223000D01*
X36300D02*
X37800D01*
X137400D01*
X24465Y408835D02*
X30453D01*
X21900Y411400D02*
X24465Y408835D01*
X621500Y189300D02*
X623300Y191100D01*
X690197Y227100D02*
X704000Y213297D01*
Y191600D02*
Y213297D01*
X697300Y189700D02*
X700200D01*
X689700Y225900D02*
X702800Y212800D01*
Y192300D02*
Y212800D01*
X700200Y189700D02*
X702800Y192300D01*
X703500Y176600D02*
X709200D01*
X701300Y188900D02*
X704000Y191600D01*
X701300Y178800D02*
Y188900D01*
Y178800D02*
X703500Y176600D01*
X99100Y261200D02*
X107312D01*
X59200Y257300D02*
X60800Y258900D01*
X96800D01*
X99100Y261200D01*
X690694Y228300D02*
X705600Y213394D01*
Y191100D02*
Y213394D01*
X703800Y189300D02*
X705600Y191100D01*
X690450Y231650D02*
X700500D01*
X679103Y230700D02*
X689500D01*
X690450Y231650D01*
X709550Y234800D02*
X712250Y237500D01*
X691600Y234800D02*
X709550D01*
X679600Y231900D02*
X688700D01*
X691600Y234800D01*
X779600Y189700D02*
X782500D01*
X772000Y225900D02*
X785100Y212800D01*
Y192300D02*
Y212800D01*
X782500Y189700D02*
X785100Y192300D01*
X772994Y228300D02*
X787900Y213394D01*
Y191100D02*
Y213394D01*
X786100Y189300D02*
X787900Y191100D01*
X119900Y272700D02*
X122900Y269700D01*
X335315D01*
X626800Y190300D02*
Y211800D01*
X609100Y229500D02*
X626800Y211800D01*
X623300Y191100D02*
Y213394D01*
X621700Y191600D02*
Y213297D01*
X608394Y228300D02*
X623300Y213394D01*
X607897Y227100D02*
X621700Y213297D01*
X599383Y142584D02*
X599400Y142600D01*
X39800Y245800D02*
X41900Y247900D01*
X615000Y189700D02*
X617900D01*
X607400Y225900D02*
X620500Y212800D01*
Y192300D02*
Y212800D01*
X617900Y189700D02*
X620500Y192300D01*
X53012Y413811D02*
X101789D01*
X598238Y231650D02*
X618200D01*
X627250Y234800D02*
X629950Y237500D01*
X597200Y225900D02*
X607400D01*
X597697Y227100D02*
X607897D01*
X598194Y228300D02*
X608394D01*
X598691Y229500D02*
X609100D01*
X596785Y234800D02*
X627250D01*
X705185Y279400D02*
X749785Y234800D01*
X335315Y269700D02*
X345015Y279400D01*
X704688Y278200D02*
X751238Y231650D01*
X335812Y268500D02*
X345512Y278200D01*
X704191Y277000D02*
X751691Y229500D01*
X336309Y267300D02*
X346009Y277000D01*
X703694Y275800D02*
X751194Y228300D01*
X336806Y266100D02*
X346506Y275800D01*
X703197Y274600D02*
X750697Y227100D01*
X337303Y264900D02*
X347003Y274600D01*
X702700Y273400D02*
X750200Y225900D01*
X337800Y263700D02*
X347500Y273400D01*
X639900Y271600D02*
X679600Y231900D01*
X338815Y262500D02*
X347915Y271600D01*
X639403Y270400D02*
X679103Y230700D01*
X339312Y261300D02*
X348412Y270400D01*
X638906Y269200D02*
X678606Y229500D01*
X339809Y260100D02*
X348909Y269200D01*
X638409Y268000D02*
X678109Y228300D01*
X340306Y258900D02*
X349406Y268000D01*
X637912Y266800D02*
X677612Y227100D01*
X340803Y257700D02*
X349903Y266800D01*
X637415Y265600D02*
X677115Y225900D01*
X341300Y256500D02*
X350400Y265600D01*
X342015Y254900D02*
X351015Y263900D01*
X342512Y253700D02*
X351512Y262700D01*
X343009Y252500D02*
X352009Y261500D01*
X343506Y251300D02*
X352506Y260300D01*
X344003Y250100D02*
X353003Y259100D01*
X344500Y248900D02*
X353500Y257900D01*
X345015Y279400D02*
X705185D01*
X345512Y278200D02*
X704688D01*
X346009Y277000D02*
X704191D01*
X346506Y275800D02*
X703694D01*
X347003Y274600D02*
X703197D01*
X347500Y273400D02*
X702700D01*
X347915Y271600D02*
X639900D01*
X348412Y270400D02*
X639403D01*
X348909Y269200D02*
X638906D01*
X349406Y268000D02*
X638409D01*
X349903Y266800D02*
X637912D01*
X350400Y265600D02*
X637415D01*
X351015Y263900D02*
X567685D01*
X596785Y234800D01*
X351512Y262700D02*
X567188D01*
X598238Y231650D01*
X352009Y261500D02*
X566691D01*
X598691Y229500D01*
X352506Y260300D02*
X566194D01*
X598194Y228300D01*
X353003Y259100D02*
X565697D01*
X597697Y227100D01*
X353500Y257900D02*
X565200D01*
X597200Y225900D01*
X866500Y198000D02*
X922800Y141700D01*
X854450Y189750D02*
X854900Y189300D01*
X845800Y271500D02*
X854450Y262850D01*
Y189750D02*
Y262850D01*
X860800Y276000D02*
X866500Y270300D01*
X845800Y281500D02*
X851300Y276000D01*
X866500Y198000D02*
Y270300D01*
X851300Y276000D02*
X860800D01*
X854450Y189750D02*
X902750Y141450D01*
X906700Y137500D01*
X988800Y68600D02*
Y78000D01*
Y68600D02*
X990000Y67400D01*
X997651D01*
X796100Y96700D02*
X944550D01*
X971400Y69850D01*
X795603Y97900D02*
X950200D01*
X979450Y68650D01*
X795106Y99100D02*
X967700D01*
X988800Y78000D01*
X817900Y34106D02*
X824400Y27606D01*
X817900Y34106D02*
Y63050D01*
X824400Y47606D02*
Y55400D01*
X825900Y56900D02*
Y63050D01*
X824400Y55400D02*
X825900Y56900D01*
X833900Y55195D02*
Y63050D01*
Y55195D02*
X841095Y48000D01*
X841900Y57300D02*
Y63050D01*
X841095Y28000D02*
X846100Y33005D01*
Y53100D01*
X841900Y57300D02*
X846100Y53100D01*
X849900Y55496D02*
Y63050D01*
Y55496D02*
X857396Y48000D01*
X857900Y56200D02*
Y63050D01*
X857396Y28000D02*
X862800Y33404D01*
Y51300D01*
X857900Y56200D02*
X862800Y51300D01*
X865900Y55797D02*
Y63050D01*
Y55797D02*
X873697Y48000D01*
Y28000D02*
X878800Y33103D01*
Y58150D01*
X873900Y63050D02*
X878800Y58150D01*
X881900Y56099D02*
Y63050D01*
Y56099D02*
X889999Y48000D01*
Y28000D02*
X895200Y33201D01*
X889900Y63050D02*
X895200Y57750D01*
Y33201D02*
Y57750D01*
X897900Y56400D02*
Y63050D01*
Y56400D02*
X906300Y48000D01*
X905900Y63050D02*
X914400Y54550D01*
X906300Y28000D02*
X914400Y36100D01*
Y54550D01*
X930700Y55000D02*
Y63550D01*
X938600D02*
X941846Y60304D01*
X930700Y55000D02*
X937600Y48100D01*
X941846Y32346D02*
Y60304D01*
X937600Y28100D02*
X941846Y32346D01*
D35*
X254350Y473550D02*
X257769Y476968D01*
X267264D01*
X257900Y474600D02*
X267113D01*
X256200Y472900D02*
X257900Y474600D01*
X256200Y463200D02*
Y472900D01*
Y463200D02*
X256800Y462600D01*
X254350Y461585D02*
Y473550D01*
X732668Y199100D02*
X733418Y198350D01*
X267113Y474600D02*
X267264Y474449D01*
X254350Y461585D02*
X256535Y459400D01*
X256800D01*
X299750Y484055D02*
X300500Y484805D01*
X237135Y439800D02*
X237200D01*
X234800Y442135D02*
X237135Y439800D01*
X234800Y442135D02*
Y443950D01*
X236500Y443900D02*
X237300Y443100D01*
X236500Y443900D02*
Y443950D01*
Y475100D02*
X243755Y482355D01*
X261868D01*
X234800Y475804D02*
X243051Y484055D01*
X261868D01*
X234800Y443950D02*
Y475804D01*
X236500Y443950D02*
Y475100D01*
X261868Y484055D02*
X262278Y484465D01*
X267264D01*
X261868Y482355D02*
X262278Y481945D01*
X267264D01*
X568068Y199100D02*
X568818Y198350D01*
X219835Y438900D02*
X220000D01*
X217600Y441135D02*
X219835Y438900D01*
X217600Y441135D02*
Y471404D01*
X219300Y442900D02*
X220100Y442100D01*
X217600Y471404D02*
X237747Y491551D01*
X261868D01*
X219300Y470700D02*
X238451Y489851D01*
X261868D01*
X219300Y442900D02*
Y470700D01*
X203600Y468500D02*
X232447Y497347D01*
X201900Y469204D02*
X231743Y499047D01*
X203600Y443800D02*
Y468500D01*
X232447Y497347D02*
X261868D01*
X201900Y444504D02*
Y469204D01*
X231743Y499047D02*
X261868D01*
X185100Y464500D02*
X225443Y504843D01*
X183400Y465204D02*
X224739Y506543D01*
X185100Y451750D02*
Y464500D01*
X225443Y504843D02*
X261868D01*
X183400Y452500D02*
Y465204D01*
X224739Y506543D02*
X261868D01*
X262278Y506953D02*
X267264D01*
X261868Y506543D02*
X262278Y506953D01*
X185100Y451750D02*
X185650Y451200D01*
X185900D01*
X261868Y504843D02*
X262278Y504433D01*
X267264D01*
X203600Y441300D02*
Y443800D01*
X261868Y497347D02*
X262278Y496937D01*
X267264D01*
X261868Y491551D02*
X262278Y491961D01*
X267264D01*
X261868Y489851D02*
X262278Y489441D01*
X267264D01*
X261868Y499047D02*
X262278Y499457D01*
X267264D01*
X183400Y449900D02*
X185300Y448000D01*
X183400Y449900D02*
Y452500D01*
Y451750D02*
Y452500D01*
X201900Y438100D02*
Y439535D01*
X201150Y440285D02*
X201900Y439535D01*
X201150Y440285D02*
Y442315D01*
X201900Y443065D01*
Y444504D01*
X201800Y438000D02*
X201900Y438100D01*
Y443650D02*
Y444504D01*
X300500Y474109D02*
Y474859D01*
X299750Y476559D02*
X300500Y477309D01*
X299750Y474859D02*
X300500Y474109D01*
X295288Y476559D02*
X299750D01*
X294878Y476968D02*
X295288Y476559D01*
X289823Y476968D02*
X294878D01*
X295288Y474859D02*
X299750D01*
X294878Y474449D02*
X295288Y474859D01*
X289823Y474449D02*
X294878D01*
X300500Y481605D02*
Y482355D01*
X299750D02*
X300500Y481605D01*
X295288Y484055D02*
X299750D01*
X294878Y484465D02*
X295288Y484055D01*
X289823Y484465D02*
X294878D01*
X295288Y482355D02*
X299750D01*
X294878Y481945D02*
X295288Y482355D01*
X289823Y481945D02*
X294878D01*
X300400Y489101D02*
Y489851D01*
X299650Y491551D02*
X300400Y492301D01*
X299650Y489851D02*
X300400Y489101D01*
X295288Y491551D02*
X299650D01*
X294878Y491961D02*
X295288Y491551D01*
X289823Y491961D02*
X294878D01*
X295288Y489851D02*
X299650D01*
X294878Y489441D02*
X295288Y489851D01*
X289823Y489441D02*
X294878D01*
X300200Y496597D02*
Y497347D01*
X299450Y499047D02*
X300200Y499797D01*
X299450Y497347D02*
X300200Y496597D01*
X295288Y499047D02*
X299450D01*
X294878Y499457D02*
X295288Y499047D01*
X289823Y499457D02*
X294878D01*
X295288Y497347D02*
X299450D01*
X294878Y496937D02*
X295288Y497347D01*
X289823Y496937D02*
X294878D01*
X299450Y506600D02*
X300200Y507350D01*
X296757Y506600D02*
X299450D01*
X296700Y506543D02*
X296757Y506600D01*
X297400Y504843D02*
X299507D01*
X296700Y506543D02*
X297000D01*
X299507Y504843D02*
X300200Y504150D01*
X295288Y506543D02*
X296700D01*
X294878Y506953D02*
X295288Y506543D01*
X289823Y506953D02*
X294878D01*
X297400Y504843D02*
X297900D01*
X295288D02*
X297400D01*
X294878Y504433D02*
X295288Y504843D01*
X289823Y504433D02*
X294878D01*
X403368Y199000D02*
X404118Y198250D01*
Y198400D01*
X295127Y514200D02*
X299550D01*
X294878Y514449D02*
X295127Y514200D01*
X289823Y514449D02*
X294878D01*
X295449Y512500D02*
X299550D01*
X294878Y511929D02*
X295449Y512500D01*
X289823Y511929D02*
X294878D01*
X237900Y511589D02*
Y512339D01*
Y514789D02*
X238650Y514039D01*
X237900Y511589D02*
X238650Y512339D01*
Y514039D02*
X261868D01*
X262278Y514449D01*
X267264D01*
X238650Y512339D02*
X261868D01*
X262278Y511929D01*
X267264D01*
X485768Y199100D02*
X486518Y198350D01*
Y198500D01*
Y192408D02*
Y198350D01*
X524932Y170400D02*
X525682D01*
X527382Y169650D02*
X528132Y170400D01*
X524932D02*
X525682Y169650D01*
X527382Y162431D02*
Y169650D01*
Y162431D02*
X528107Y161706D01*
Y157185D02*
Y161706D01*
X525682Y162431D02*
Y169650D01*
X524958Y161706D02*
X525682Y162431D01*
X524958Y157185D02*
Y161706D01*
X570741Y199627D02*
X571268Y199100D01*
X570518Y198350D02*
X571268Y199100D01*
X570518Y192408D02*
X572818Y190108D01*
X570518Y192408D02*
Y198350D01*
X568818D02*
Y198500D01*
X566518Y190108D02*
X568818Y192408D01*
Y198350D01*
X566518Y183809D02*
X568725Y181602D01*
X609682Y170807D02*
X610432Y171557D01*
X609682Y162568D02*
Y170807D01*
X610407Y157185D02*
Y161843D01*
X609682Y162568D02*
X610407Y161843D01*
X607232Y171557D02*
X607982Y170807D01*
Y162568D02*
Y170807D01*
X607258Y161843D02*
X607982Y162568D01*
X607258Y157185D02*
Y161843D01*
X587074Y174831D02*
X590785Y171121D01*
Y162568D02*
Y171121D01*
X572901Y174831D02*
X587074D01*
X591509Y157185D02*
Y161843D01*
X590785Y162568D02*
X591509Y161843D01*
X570425Y181416D02*
X572818Y183809D01*
X570425Y178643D02*
Y180415D01*
Y177307D02*
Y178643D01*
Y177307D02*
X572901Y174831D01*
X570425Y178643D02*
Y181416D01*
X586370Y173132D02*
X589085Y170417D01*
Y162568D02*
Y170417D01*
X572197Y173132D02*
X586370D01*
X588360Y161843D02*
X589085Y162568D01*
X588360Y157185D02*
Y161843D01*
X568725Y179627D02*
Y181602D01*
Y176603D02*
Y179627D01*
Y176603D02*
X572197Y173132D01*
X568725Y179627D02*
Y180415D01*
X653041Y199627D02*
X653568Y199100D01*
X652818Y198350D02*
X653568Y199100D01*
X652818Y192408D02*
X655118Y190108D01*
X652818Y192408D02*
Y198350D01*
X650368Y199100D02*
X651118Y198350D01*
Y198500D01*
Y195500D02*
Y198500D01*
Y194906D02*
Y195500D01*
Y192408D02*
Y194906D01*
X648818Y190108D02*
X651118Y192408D01*
X648818Y183809D02*
X651025Y181602D01*
X691982Y170807D02*
X692732Y171557D01*
X691982Y162568D02*
Y170807D01*
X692707Y157185D02*
Y161843D01*
X691982Y162568D02*
X692707Y161843D01*
X689532Y171557D02*
X690282Y170807D01*
Y162568D02*
Y170807D01*
X689558Y161843D02*
X690282Y162568D01*
X689558Y157185D02*
Y161843D01*
X669374Y174831D02*
X673085Y171121D01*
Y162568D02*
Y171121D01*
X655201Y174831D02*
X669374D01*
X673809Y157185D02*
Y161843D01*
X673085Y162568D02*
X673809Y161843D01*
X652725Y181416D02*
X655118Y183809D01*
X652725Y178643D02*
Y180415D01*
Y177307D02*
Y178643D01*
Y177307D02*
X655201Y174831D01*
X652725Y178643D02*
Y181416D01*
X668670Y173132D02*
X671385Y170417D01*
Y162568D02*
Y170417D01*
X654497Y173132D02*
X668670D01*
X670660Y161843D02*
X671385Y162568D01*
X670660Y157185D02*
Y161843D01*
X651025Y179627D02*
Y181602D01*
Y176603D02*
Y179627D01*
Y176603D02*
X654497Y173132D01*
X651025Y179627D02*
Y180415D01*
X488441Y199627D02*
X488968Y199100D01*
X488218Y198350D02*
X488968Y199100D01*
X488218Y192408D02*
X490518Y190108D01*
X488218Y192408D02*
Y198350D01*
X484218Y190108D02*
X486518Y192408D01*
X484218Y183809D02*
X486425Y181602D01*
X504774Y174831D02*
X508485Y171121D01*
Y162568D02*
Y171121D01*
X490601Y174831D02*
X504774D01*
X509209Y157185D02*
Y161843D01*
X508485Y162568D02*
X509209Y161843D01*
X488125Y181416D02*
X490518Y183809D01*
X488125Y178643D02*
Y180415D01*
Y177307D02*
Y178643D01*
Y177307D02*
X490601Y174831D01*
X488125Y178643D02*
Y181416D01*
X504070Y173132D02*
X506785Y170417D01*
Y162568D02*
Y170417D01*
X489897Y173132D02*
X504070D01*
X506060Y161843D02*
X506785Y162568D01*
X506060Y157185D02*
Y161843D01*
X486425Y179627D02*
Y181602D01*
Y176603D02*
Y179627D01*
Y176603D02*
X489897Y173132D01*
X486425Y179627D02*
Y180415D01*
X735118Y198350D02*
X735868Y199100D01*
X735118Y192408D02*
X737418Y190108D01*
X735118Y192408D02*
Y198350D01*
X733418D02*
Y198500D01*
Y192408D02*
Y198350D01*
X731118Y190108D02*
X733418Y192408D01*
X731118Y183809D02*
X733325Y181602D01*
X774282Y170807D02*
X775032Y171557D01*
X774282Y162568D02*
Y170807D01*
X775007Y157185D02*
Y161843D01*
X774282Y162568D02*
X775007Y161843D01*
X771832Y171557D02*
X772582Y170807D01*
Y162568D02*
Y170807D01*
X771858Y161843D02*
X772582Y162568D01*
X771858Y157185D02*
Y161843D01*
X751674Y174831D02*
X755385Y171121D01*
Y162568D02*
Y171121D01*
X737501Y174831D02*
X751674D01*
X756110Y157185D02*
Y161843D01*
X755385Y162568D02*
X756110Y161843D01*
X735025Y181416D02*
X737418Y183809D01*
X735025Y178643D02*
Y180415D01*
Y177307D02*
Y178643D01*
Y177307D02*
X737501Y174831D01*
X735025Y178643D02*
Y181416D01*
X750970Y173132D02*
X753685Y170417D01*
Y162568D02*
Y170417D01*
X736797Y173132D02*
X750970D01*
X752960Y161843D02*
X753685Y162568D01*
X752960Y157185D02*
Y161843D01*
X733325Y179627D02*
Y181602D01*
Y176603D02*
Y179627D01*
Y176603D02*
X736797Y173132D01*
X733325Y179627D02*
Y180415D01*
X406041Y199527D02*
X406568Y199000D01*
X405818Y198250D02*
X406568Y199000D01*
X405818Y192308D02*
X408118Y190008D01*
X405818Y192308D02*
Y198250D01*
X401818Y190008D02*
X404118Y192308D01*
Y198250D01*
X401818Y183709D02*
X404025Y181502D01*
X444982Y170707D02*
X445732Y171457D01*
X444982Y162468D02*
Y170707D01*
X445707Y157085D02*
Y161743D01*
X444982Y162468D02*
X445707Y161743D01*
X442532Y171457D02*
X443282Y170707D01*
Y162468D02*
Y170707D01*
X442557Y161743D02*
X443282Y162468D01*
X442557Y157085D02*
Y161743D01*
X422374Y174732D02*
X426085Y171021D01*
Y162468D02*
Y171021D01*
X408201Y174732D02*
X422374D01*
X426810Y157085D02*
Y161743D01*
X426085Y162468D02*
X426810Y161743D01*
X405725Y181316D02*
X408118Y183709D01*
X405725Y178543D02*
Y180315D01*
Y177207D02*
Y178543D01*
Y177207D02*
X408201Y174732D01*
X405725Y178543D02*
Y181316D01*
X421670Y173031D02*
X424385Y170317D01*
Y162468D02*
Y170317D01*
X407497Y173031D02*
X421670D01*
X423660Y161743D02*
X424385Y162468D01*
X423660Y157085D02*
Y161743D01*
X404025Y179527D02*
Y181502D01*
Y176503D02*
Y179527D01*
Y176503D02*
X407497Y173031D01*
X404025Y179527D02*
Y180315D01*
X362682Y170707D02*
X363432Y171457D01*
X323518Y198250D02*
X324268Y199000D01*
X323518Y192308D02*
Y198250D01*
X321818Y195400D02*
Y198400D01*
Y194806D02*
Y195400D01*
Y192308D02*
Y194806D01*
X323741Y199527D02*
X324268Y199000D01*
X321068D02*
X321818Y198250D01*
Y198400D01*
X319518Y190008D02*
X321818Y192308D01*
X323518D02*
X325818Y190008D01*
X360258Y161743D02*
X360982Y162468D01*
X360258Y157085D02*
Y161743D01*
X360982Y162468D02*
Y170707D01*
X319518Y183709D02*
X321725Y181502D01*
Y179527D02*
Y181502D01*
X323425Y181316D02*
X325818Y183709D01*
X323425Y178543D02*
Y181316D01*
X321725Y179527D02*
Y180315D01*
Y176503D02*
Y179527D01*
X323425Y178543D02*
Y180315D01*
Y177207D02*
Y178543D01*
X321725Y176503D02*
X325197Y173031D01*
X342085Y162468D02*
Y170317D01*
X323425Y177207D02*
X325901Y174732D01*
X340074D02*
X343785Y171021D01*
Y162468D02*
Y171021D01*
X325901Y174732D02*
X340074D01*
X325197Y173031D02*
X339370D01*
X342085Y170317D01*
X343785Y162468D02*
X344510Y161743D01*
Y157085D02*
Y161743D01*
X341360D02*
X342085Y162468D01*
X341360Y157085D02*
Y161743D01*
X360232Y171457D02*
X360982Y170707D01*
X362682Y162468D02*
Y170707D01*
Y162468D02*
X363407Y161743D01*
Y157085D02*
Y161743D01*
D36*
X610950Y206750D02*
X613700D01*
X607200Y203000D02*
X610950Y206750D01*
X594500Y194100D02*
X594800Y193800D01*
Y189937D02*
Y193800D01*
X602000Y190037D02*
Y194600D01*
X606437Y190037D02*
X606500Y190100D01*
X602000Y190037D02*
X606437D01*
X613650Y237950D02*
X618200D01*
X613600Y238000D02*
X613650Y237950D01*
X693250Y206750D02*
X696000D01*
X689500Y203000D02*
X693250Y206750D01*
X676800Y194100D02*
X677100Y193800D01*
Y189937D02*
Y193800D01*
X684300Y190037D02*
Y194600D01*
X688737Y190037D02*
X688800Y190100D01*
X684300Y190037D02*
X688737D01*
X695950Y237950D02*
X700500D01*
X695900Y238000D02*
X695950Y237950D01*
X528650Y206750D02*
X531400D01*
X524900Y203000D02*
X528650Y206750D01*
X512200Y194100D02*
X512500Y193800D01*
Y189937D02*
Y193800D01*
X519700Y190037D02*
Y194600D01*
X524137Y190037D02*
X524200Y190100D01*
X519700Y190037D02*
X524137D01*
X531350Y237950D02*
X535900D01*
X531300Y238000D02*
X531350Y237950D01*
X775550Y206750D02*
X778300D01*
X771800Y203000D02*
X775550Y206750D01*
X759100Y194100D02*
X759400Y193800D01*
Y189937D02*
Y193800D01*
X766600Y190037D02*
Y194600D01*
X771037Y190037D02*
X771100Y190100D01*
X766600Y190037D02*
X771037D01*
X778250Y237950D02*
X782800D01*
X778200Y238000D02*
X778250Y237950D01*
X446250Y206650D02*
X449000D01*
X442500Y202900D02*
X446250Y206650D01*
X429800Y194000D02*
X430100Y193700D01*
Y189837D02*
Y193700D01*
X437300Y189937D02*
Y194500D01*
X441737Y189937D02*
X441800Y190000D01*
X437300Y189937D02*
X441737D01*
X448950Y237850D02*
X453500D01*
X448900Y237900D02*
X448950Y237850D01*
X366650D02*
X371200D01*
X366600Y237900D02*
X366650Y237850D01*
X360200Y202900D02*
X363950Y206650D01*
X366700D01*
X359437Y189937D02*
X359500Y190000D01*
X355000Y189937D02*
X359437D01*
X355000D02*
Y194500D01*
X347500Y194000D02*
X347800Y193700D01*
Y189837D02*
Y193700D01*
X1120793Y82546D02*
X1132604D01*
X1120793Y70735D02*
Y82546D01*
X1132604Y70735D02*
Y82546D01*
X1120793Y70735D02*
X1132604D01*
X1010600Y51000D02*
X1014350D01*
X1011037Y54313D02*
Y57951D01*
X1013006Y52345D02*
X1014350Y51000D01*
X1011037Y54313D02*
X1013006Y52345D01*
Y57951D01*
X983350Y51100D02*
Y55350D01*
X983300Y55400D02*
X983350Y55350D01*
X1027100Y69950D02*
Y73500D01*
X1083400Y67950D02*
Y72500D01*
X1068700Y50200D02*
X1070700D01*
X1074250D01*
X1074600Y49850D01*
X1068005Y50894D02*
X1068700Y50200D01*
X1068005Y50894D02*
Y56251D01*
X1066037Y51263D02*
Y56251D01*
Y51263D02*
X1066400Y50900D01*
X1068000D01*
X1068005Y50894D01*
X1041850Y44900D02*
Y48950D01*
X1041900Y49000D01*
D37*
X603500Y163478D02*
Y165100D01*
X600958Y160937D02*
X603500Y163478D01*
X600958Y157185D02*
Y160937D01*
X596500Y167600D02*
X597500Y168600D01*
X596500Y163100D02*
Y167600D01*
X597809Y157185D02*
Y161791D01*
X596500Y163100D02*
X597809Y161791D01*
X685800Y163478D02*
Y165100D01*
X683258Y160937D02*
X685800Y163478D01*
X683258Y157185D02*
Y160937D01*
X678800Y167600D02*
X679800Y168600D01*
X678800Y163100D02*
Y167600D01*
X680109Y157185D02*
Y161791D01*
X678800Y163100D02*
X680109Y161791D01*
X521200Y163478D02*
Y165100D01*
X518658Y160937D02*
X521200Y163478D01*
X518658Y157185D02*
Y160937D01*
X514200Y167600D02*
X515200Y168600D01*
X514200Y163100D02*
Y167600D01*
X515509Y157185D02*
Y161791D01*
X514200Y163100D02*
X515509Y161791D01*
X768100Y163478D02*
Y165100D01*
X765558Y160937D02*
X768100Y163478D01*
X765558Y157185D02*
Y160937D01*
X761100Y167600D02*
X762100Y168600D01*
X761100Y163100D02*
Y167600D01*
X762409Y157185D02*
Y161791D01*
X761100Y163100D02*
X762409Y161791D01*
X438800Y163378D02*
Y165000D01*
X436258Y160837D02*
X438800Y163378D01*
X436258Y157085D02*
Y160837D01*
X431800Y167500D02*
X432800Y168500D01*
X431800Y163000D02*
Y167500D01*
X433109Y157085D02*
Y161691D01*
X431800Y163000D02*
X433109Y161691D01*
X349500Y163000D02*
Y167500D01*
Y163000D02*
X350809Y161691D01*
X349500Y167500D02*
X350500Y168500D01*
X350809Y157085D02*
Y161691D01*
X356500Y163378D02*
Y165000D01*
X353958Y160837D02*
X356500Y163378D01*
X353958Y157085D02*
Y160837D01*
D38*
X1070689Y284100D02*
X1080154Y293565D01*
Y321501D01*
Y345517D01*
D39*
X1037000Y284000D02*
X1052000D01*
X1044000Y274000D02*
Y294000D01*
X1037000Y337000D02*
Y353000D01*
X1029000Y345000D02*
X1043000D01*
D40*
X1058500Y327800D02*
D03*
Y345516D02*
D03*
D41*
X33740Y276181D02*
D03*
Y506496D02*
D03*
X286535Y520866D02*
D03*
Y290551D02*
D03*
X1055539Y16664D02*
D03*
X1072861D02*
D03*
X998939D02*
D03*
X1016261D02*
D03*
D42*
X426273Y338466D02*
D03*
X290300Y36900D02*
D03*
X754200Y338400D02*
D03*
X1108982Y338663D02*
D03*
Y36876D02*
D03*
D43*
X381202Y157085D02*
D03*
Y117715D02*
D03*
Y78345D02*
D03*
Y38975D02*
D03*
X358879Y19290D02*
D03*
X325100D02*
D03*
Y58660D02*
D03*
X368722Y98030D02*
D03*
X347462D02*
D03*
X325100D02*
D03*
Y137400D02*
D03*
X792802Y157185D02*
D03*
Y117815D02*
D03*
Y78445D02*
D03*
Y39075D02*
D03*
X770479Y19390D02*
D03*
X736700D02*
D03*
Y58760D02*
D03*
X780322Y98130D02*
D03*
X759062D02*
D03*
X736700D02*
D03*
Y137500D02*
D03*
X710502Y157185D02*
D03*
Y117815D02*
D03*
Y78445D02*
D03*
Y39075D02*
D03*
X688179Y19390D02*
D03*
X654400D02*
D03*
Y58760D02*
D03*
X698022Y98130D02*
D03*
X676762D02*
D03*
X654400D02*
D03*
Y137500D02*
D03*
X628202Y157185D02*
D03*
Y117815D02*
D03*
Y78445D02*
D03*
Y39075D02*
D03*
X605879Y19390D02*
D03*
X572100D02*
D03*
Y58760D02*
D03*
X615722Y98130D02*
D03*
X594462D02*
D03*
X572100D02*
D03*
Y137500D02*
D03*
X545902Y157185D02*
D03*
Y117815D02*
D03*
Y78445D02*
D03*
Y39075D02*
D03*
X523580Y19390D02*
D03*
X489800D02*
D03*
Y58760D02*
D03*
X533422Y98130D02*
D03*
X512162D02*
D03*
X489800D02*
D03*
Y137500D02*
D03*
X463502Y157085D02*
D03*
Y117715D02*
D03*
Y78345D02*
D03*
Y38975D02*
D03*
X441180Y19290D02*
D03*
X407400D02*
D03*
Y58660D02*
D03*
X451022Y98030D02*
D03*
X429762D02*
D03*
X407400D02*
D03*
Y137400D02*
D03*
D44*
X372069Y140943D02*
D03*
X334273D02*
D03*
X783669Y141043D02*
D03*
X745873D02*
D03*
X701369D02*
D03*
X663573D02*
D03*
X619068D02*
D03*
X581273D02*
D03*
X536768D02*
D03*
X498973D02*
D03*
X454368Y140943D02*
D03*
X416573D02*
D03*
D45*
X325100Y147242D02*
D03*
X334273Y165353D02*
D03*
X353171D02*
D03*
X372069D02*
D03*
X381202Y147242D02*
D03*
Y127558D02*
D03*
Y109054D02*
D03*
X325100Y127558D02*
D03*
Y109054D02*
D03*
X736700Y147343D02*
D03*
X745873Y165453D02*
D03*
X764771D02*
D03*
X783669D02*
D03*
X792802Y147343D02*
D03*
Y127657D02*
D03*
Y109153D02*
D03*
X736700Y127657D02*
D03*
Y109153D02*
D03*
X654400Y147343D02*
D03*
X663573Y165453D02*
D03*
X682471D02*
D03*
X701369D02*
D03*
X710502Y147343D02*
D03*
Y127657D02*
D03*
Y109153D02*
D03*
X654400Y127657D02*
D03*
Y109153D02*
D03*
X572100Y147343D02*
D03*
X581273Y165453D02*
D03*
X600171D02*
D03*
X619068D02*
D03*
X628202Y147343D02*
D03*
Y127657D02*
D03*
Y109153D02*
D03*
X572100Y127657D02*
D03*
Y109153D02*
D03*
X489800Y147343D02*
D03*
X498973Y165453D02*
D03*
X517871D02*
D03*
X536768D02*
D03*
X545902Y147343D02*
D03*
Y127657D02*
D03*
Y109153D02*
D03*
X489800Y127657D02*
D03*
Y109153D02*
D03*
X407400Y147242D02*
D03*
X416573Y165353D02*
D03*
X435471D02*
D03*
X454368D02*
D03*
X463502Y147242D02*
D03*
Y127558D02*
D03*
Y109054D02*
D03*
X407400Y127558D02*
D03*
Y109054D02*
D03*
D46*
X845800Y291500D02*
D03*
D47*
X855800D02*
D03*
X845800Y281500D02*
D03*
X855800D02*
D03*
X845800Y271500D02*
D03*
X855800D02*
D03*
X1097390Y134300D02*
D03*
X951143Y226900D02*
D03*
X1001490Y133700D02*
D03*
X1048643Y227600D02*
D03*
D48*
X910600Y341000D02*
D03*
D49*
X895009D02*
D03*
D50*
X948700Y342700D02*
D03*
X958700D02*
D03*
D51*
X968700D02*
D03*
D52*
X1100920Y197679D02*
D03*
Y160199D02*
D03*
X1025880Y160120D02*
D03*
Y172640D02*
D03*
Y185160D02*
D03*
Y197679D02*
D03*
X1003520Y196080D02*
D03*
Y158599D02*
D03*
X928480Y158520D02*
D03*
Y171040D02*
D03*
Y183560D02*
D03*
Y196080D02*
D03*
D53*
X1083610Y134300D02*
D03*
X931458Y226900D02*
D03*
X987710Y133700D02*
D03*
X1028957Y227600D02*
D03*
D54*
X966500Y18000D02*
D03*
Y28000D02*
D03*
Y48000D02*
D03*
Y38000D02*
D03*
X937600Y18100D02*
D03*
Y28100D02*
D03*
Y48100D02*
D03*
Y38100D02*
D03*
X906300Y18000D02*
D03*
Y28000D02*
D03*
Y48000D02*
D03*
Y38000D02*
D03*
X889999Y18000D02*
D03*
Y28000D02*
D03*
Y48000D02*
D03*
Y38000D02*
D03*
X873697Y18000D02*
D03*
Y28000D02*
D03*
Y48000D02*
D03*
Y38000D02*
D03*
X857396Y18000D02*
D03*
Y28000D02*
D03*
Y48000D02*
D03*
Y38000D02*
D03*
X841095Y18000D02*
D03*
Y28000D02*
D03*
Y48000D02*
D03*
Y38000D02*
D03*
X824400Y17606D02*
D03*
Y27606D02*
D03*
Y47606D02*
D03*
Y37606D02*
D03*
D55*
X286417Y72835D02*
D03*
Y580709D02*
D03*
X34449Y72835D02*
D03*
Y580709D02*
D03*
D56*
X41800Y273000D02*
D03*
X41900Y288700D02*
D03*
X41700Y312600D02*
D03*
X41800Y336800D02*
D03*
X41700Y351900D02*
D03*
X41900Y367400D02*
D03*
X41700Y391500D02*
D03*
Y415400D02*
D03*
X41800Y430900D02*
D03*
X41900Y446000D02*
D03*
X41700Y470400D02*
D03*
Y494300D02*
D03*
Y508900D02*
D03*
X60300Y492500D02*
D03*
X60200Y495600D02*
D03*
X46200Y494900D02*
D03*
Y492000D02*
D03*
X46100Y485000D02*
D03*
X46200Y488200D02*
D03*
X60200Y488100D02*
D03*
X60300Y484500D02*
D03*
X60200Y480600D02*
D03*
X60000Y476900D02*
D03*
X59900Y472700D02*
D03*
X59700Y469300D02*
D03*
X45800Y470000D02*
D03*
X46000Y473500D02*
D03*
Y477600D02*
D03*
Y481000D02*
D03*
X23900Y469400D02*
D03*
X37500Y469900D02*
D03*
X37400Y473100D02*
D03*
X24000Y472900D02*
D03*
X23900Y476400D02*
D03*
X37400D02*
D03*
X37300Y480000D02*
D03*
X23900D02*
D03*
X23500Y485000D02*
D03*
X23600Y487500D02*
D03*
X37300Y484800D02*
D03*
Y487600D02*
D03*
Y492400D02*
D03*
X37200Y495100D02*
D03*
X23900Y492400D02*
D03*
X24100Y495300D02*
D03*
X1023900Y138700D02*
D03*
X1122600Y167900D02*
D03*
X256800Y459400D02*
D03*
Y462600D02*
D03*
X300400Y489101D02*
D03*
X300500Y484805D02*
D03*
Y481605D02*
D03*
X237200Y439800D02*
D03*
X237300Y443100D02*
D03*
X220000Y438900D02*
D03*
X220100Y442100D02*
D03*
X185900Y451200D02*
D03*
X185300Y448000D02*
D03*
X300200Y496597D02*
D03*
X203600Y441300D02*
D03*
X201800Y438000D02*
D03*
X300500Y477309D02*
D03*
Y474109D02*
D03*
X300400Y492301D02*
D03*
X300200Y499797D02*
D03*
Y507350D02*
D03*
Y504150D02*
D03*
X300300Y514950D02*
D03*
Y511750D02*
D03*
X237900Y514789D02*
D03*
Y511589D02*
D03*
X528132Y170400D02*
D03*
X524932D02*
D03*
X618000Y194100D02*
D03*
X612500Y198100D02*
D03*
X614400Y176100D02*
D03*
X588000Y204100D02*
D03*
X577000D02*
D03*
X580500Y179100D02*
D03*
X605500Y210600D02*
D03*
X594000D02*
D03*
X609200Y213200D02*
D03*
X571268Y199100D02*
D03*
X568068D02*
D03*
X587000Y131600D02*
D03*
X586500Y118100D02*
D03*
X615000Y189700D02*
D03*
X599400Y142600D02*
D03*
X612100Y117100D02*
D03*
X615500D02*
D03*
X612000Y132600D02*
D03*
X615000Y166100D02*
D03*
X613500Y150600D02*
D03*
X610432Y171557D02*
D03*
X607232D02*
D03*
X604000Y151100D02*
D03*
X595000Y150600D02*
D03*
X585000Y163100D02*
D03*
Y150600D02*
D03*
X594500Y194100D02*
D03*
X602000D02*
D03*
X606500Y190100D02*
D03*
X618200Y226100D02*
D03*
X596200Y137000D02*
D03*
X613600Y238000D02*
D03*
X633000Y172600D02*
D03*
X589900Y137300D02*
D03*
X621500Y183100D02*
D03*
X602600Y131300D02*
D03*
X626800Y190300D02*
D03*
X608900Y117400D02*
D03*
X624400Y229300D02*
D03*
X632500Y213800D02*
D03*
X593000Y133900D02*
D03*
X700300Y194100D02*
D03*
X694800Y198100D02*
D03*
X696700Y176100D02*
D03*
X670300Y204100D02*
D03*
X659300D02*
D03*
X662800Y179100D02*
D03*
X687800Y210600D02*
D03*
X676300D02*
D03*
X691500Y213200D02*
D03*
X653568Y199100D02*
D03*
X650368D02*
D03*
X669300Y131600D02*
D03*
X668800Y118100D02*
D03*
X697300Y189700D02*
D03*
X681700Y142600D02*
D03*
X694400Y117100D02*
D03*
X697800D02*
D03*
X694300Y132600D02*
D03*
X697300Y166100D02*
D03*
X695800Y150600D02*
D03*
X692732Y171557D02*
D03*
X689532D02*
D03*
X686300Y151100D02*
D03*
X677300Y150600D02*
D03*
X667300Y163100D02*
D03*
Y150600D02*
D03*
X676800Y194100D02*
D03*
X684300D02*
D03*
X688800Y190100D02*
D03*
X678500Y137000D02*
D03*
X695900Y238000D02*
D03*
X715300Y172600D02*
D03*
X672200Y137300D02*
D03*
X703800Y183100D02*
D03*
X684900Y131300D02*
D03*
X709100Y190300D02*
D03*
X691200Y117400D02*
D03*
X714800Y213800D02*
D03*
X675300Y133900D02*
D03*
X535700Y194100D02*
D03*
X530200Y198100D02*
D03*
X532100Y176100D02*
D03*
X505700Y204100D02*
D03*
X494700D02*
D03*
X498200Y179100D02*
D03*
X523200Y210600D02*
D03*
X511700D02*
D03*
X526900Y213200D02*
D03*
X488968Y199100D02*
D03*
X485768D02*
D03*
X504700Y131600D02*
D03*
X504200Y118100D02*
D03*
X532700Y189700D02*
D03*
X517100Y142600D02*
D03*
X529800Y117100D02*
D03*
X529700Y132600D02*
D03*
X533200Y117100D02*
D03*
X532700Y166100D02*
D03*
X531200Y150600D02*
D03*
X521700Y151100D02*
D03*
X512700Y150600D02*
D03*
X502700Y163100D02*
D03*
Y150600D02*
D03*
X512200Y194100D02*
D03*
X519700D02*
D03*
X524200Y190100D02*
D03*
X535900Y226100D02*
D03*
X513900Y137000D02*
D03*
X531300Y238000D02*
D03*
X550700Y172600D02*
D03*
X507600Y137300D02*
D03*
X539200Y183100D02*
D03*
X520300Y131300D02*
D03*
X544500Y190300D02*
D03*
X526600Y117400D02*
D03*
X542100Y229300D02*
D03*
X550200Y213800D02*
D03*
X510700Y133900D02*
D03*
X782600Y194100D02*
D03*
X777100Y198100D02*
D03*
X779000Y176100D02*
D03*
X752600Y204100D02*
D03*
X741600D02*
D03*
X745100Y179100D02*
D03*
X770100Y210600D02*
D03*
X758600D02*
D03*
X773800Y213200D02*
D03*
X735868Y199100D02*
D03*
X732668D02*
D03*
X751600Y131600D02*
D03*
X751100Y118100D02*
D03*
X779600Y189700D02*
D03*
X764000Y142600D02*
D03*
X776700Y117100D02*
D03*
X780100D02*
D03*
X776600Y132600D02*
D03*
X779600Y166100D02*
D03*
X778100Y150600D02*
D03*
X775032Y171557D02*
D03*
X771832D02*
D03*
X768600Y151100D02*
D03*
X759600Y150600D02*
D03*
X749600Y163100D02*
D03*
Y150600D02*
D03*
X759100Y194100D02*
D03*
X766600D02*
D03*
X771100Y190100D02*
D03*
X782800Y226100D02*
D03*
X760800Y137000D02*
D03*
X778200Y238000D02*
D03*
X797600Y172600D02*
D03*
X754500Y137300D02*
D03*
X786100Y183100D02*
D03*
X767200Y131300D02*
D03*
X791400Y190300D02*
D03*
X773500Y117400D02*
D03*
X789000Y229300D02*
D03*
X797100Y213800D02*
D03*
X757600Y133900D02*
D03*
X453300Y194000D02*
D03*
X447800Y198000D02*
D03*
X449700Y176000D02*
D03*
X423300Y204000D02*
D03*
X412300D02*
D03*
X415800Y179000D02*
D03*
X440800Y210500D02*
D03*
X429300D02*
D03*
X444500Y213100D02*
D03*
X406568Y199000D02*
D03*
X403368D02*
D03*
X422300Y131500D02*
D03*
X421800Y118000D02*
D03*
X450300Y189600D02*
D03*
X434700Y142500D02*
D03*
X447400Y117000D02*
D03*
X450800D02*
D03*
X447300Y132500D02*
D03*
X450300Y166000D02*
D03*
X448800Y150500D02*
D03*
X445732Y171457D02*
D03*
X442532D02*
D03*
X439300Y151000D02*
D03*
X430300Y150500D02*
D03*
X420300Y163000D02*
D03*
Y150500D02*
D03*
X429800Y194000D02*
D03*
X437300D02*
D03*
X441800Y190000D02*
D03*
X453500Y226000D02*
D03*
X431500Y136900D02*
D03*
X448900Y237900D02*
D03*
X468300Y172500D02*
D03*
X425200Y137200D02*
D03*
X456800Y183000D02*
D03*
X437900Y131200D02*
D03*
X462100Y190200D02*
D03*
X444200Y117300D02*
D03*
X459700Y229200D02*
D03*
X467800Y213700D02*
D03*
X428300Y133800D02*
D03*
X371000Y194000D02*
D03*
X368000Y189600D02*
D03*
X362200Y213100D02*
D03*
X358500Y210500D02*
D03*
X347000D02*
D03*
X386000Y172500D02*
D03*
X361900Y117300D02*
D03*
X365100Y117000D02*
D03*
X367400Y176000D02*
D03*
X371200Y226000D02*
D03*
X363432Y171457D02*
D03*
X377400Y229200D02*
D03*
X385500Y213700D02*
D03*
X324268Y199000D02*
D03*
X321068D02*
D03*
X379800Y190200D02*
D03*
X374500Y183000D02*
D03*
X342900Y137200D02*
D03*
X346000Y133800D02*
D03*
X349200Y136900D02*
D03*
X352400Y142500D02*
D03*
X355600Y131200D02*
D03*
X365000Y132500D02*
D03*
X368500Y117000D02*
D03*
X340000Y131500D02*
D03*
X339500Y118000D02*
D03*
X348000Y150500D02*
D03*
X338000D02*
D03*
Y163000D02*
D03*
X368000Y166000D02*
D03*
X366500Y150500D02*
D03*
X357000Y151000D02*
D03*
X333500Y179000D02*
D03*
X341000Y204000D02*
D03*
X330000D02*
D03*
X359000Y198500D02*
D03*
X359500Y190000D02*
D03*
X355000Y194000D02*
D03*
X347500D02*
D03*
X365500Y198000D02*
D03*
X360232Y171457D02*
D03*
X1010600Y51000D02*
D03*
X1020800Y45900D02*
D03*
X1004450Y34200D02*
D03*
X1007700D02*
D03*
X1005000Y53300D02*
D03*
Y50100D02*
D03*
X983300Y55400D02*
D03*
X1044000Y294000D02*
D03*
X1052000D02*
D03*
Y288750D02*
D03*
Y283500D02*
D03*
Y278250D02*
D03*
Y273000D02*
D03*
X1044000Y274000D02*
D03*
X1036000D02*
D03*
Y279000D02*
D03*
Y284000D02*
D03*
Y289000D02*
D03*
Y294000D02*
D03*
X1025000Y352000D02*
D03*
Y346000D02*
D03*
Y340000D02*
D03*
Y334000D02*
D03*
Y328000D02*
D03*
Y322000D02*
D03*
Y316000D02*
D03*
Y310000D02*
D03*
X1033000D02*
D03*
X1041000D02*
D03*
X1031000Y334000D02*
D03*
X1037000D02*
D03*
X1043000D02*
D03*
X1027100Y73500D02*
D03*
X1033400Y61400D02*
D03*
X1002600Y71800D02*
D03*
X1011400Y71500D02*
D03*
X1011300Y63200D02*
D03*
X1002800Y63100D02*
D03*
X996900Y44100D02*
D03*
X1013800Y33900D02*
D03*
X1014000Y20600D02*
D03*
X1025100Y35400D02*
D03*
X1032100Y5000D02*
D03*
X983100Y5600D02*
D03*
X982600Y27000D02*
D03*
X1039400Y26200D02*
D03*
X1039600Y5100D02*
D03*
X1089500Y5000D02*
D03*
Y26600D02*
D03*
X1072600Y35500D02*
D03*
X1061050Y34482D02*
D03*
X1064634Y34566D02*
D03*
X1053300Y44200D02*
D03*
X1083400Y72500D02*
D03*
X1086500Y49200D02*
D03*
X1057800Y61400D02*
D03*
X1066300Y61500D02*
D03*
X1066400Y69800D02*
D03*
X1057600Y70100D02*
D03*
X983600Y79100D02*
D03*
X1061700Y47300D02*
D03*
X1061600Y51500D02*
D03*
X1070700Y50200D02*
D03*
X1078600Y43700D02*
D03*
X1041900Y49000D02*
D03*
X1044600Y77400D02*
D03*
X366600Y237900D02*
D03*
X700500Y226100D02*
D03*
X706700Y229300D02*
D03*
X119900Y272800D02*
D03*
X113500D02*
D03*
X102200Y453700D02*
D03*
X98900Y457700D02*
D03*
X106100Y272700D02*
D03*
X93700Y450100D02*
D03*
X93900Y442500D02*
D03*
X101575Y268175D02*
D03*
X101900Y263400D02*
D03*
X91200Y446500D02*
D03*
X37300Y265100D02*
D03*
X37100Y260100D02*
D03*
X40000Y262500D02*
D03*
Y257300D02*
D03*
X40500Y267400D02*
D03*
X101800Y259000D02*
D03*
X86900Y440000D02*
D03*
X36800Y255000D02*
D03*
X39800Y252400D02*
D03*
X98700Y255000D02*
D03*
X100800Y413800D02*
D03*
X100700Y418100D02*
D03*
X36700Y249200D02*
D03*
X40200Y246300D02*
D03*
X93200Y251400D02*
D03*
Y245700D02*
D03*
X88500Y243100D02*
D03*
X95600Y408900D02*
D03*
X95900Y404200D02*
D03*
X93500Y400100D02*
D03*
X36900Y243700D02*
D03*
X113600Y231700D02*
D03*
X36100Y234000D02*
D03*
X87000Y398800D02*
D03*
X88800Y391400D02*
D03*
X86100Y393800D02*
D03*
X120200Y231700D02*
D03*
X125600Y229100D02*
D03*
X130700Y227700D02*
D03*
X40200Y241400D02*
D03*
X36800Y239000D02*
D03*
X40100Y236500D02*
D03*
X134800Y225200D02*
D03*
X81263Y378663D02*
D03*
X83526Y380925D02*
D03*
X85788Y383188D02*
D03*
X78100Y375500D02*
D03*
X97800Y247800D02*
D03*
X109800Y238000D02*
D03*
X106600Y234600D02*
D03*
X91700Y155900D02*
D03*
X89437Y158163D02*
D03*
X87174Y160425D02*
D03*
X84912Y162688D02*
D03*
X82649Y164951D02*
D03*
X80386Y167214D02*
D03*
X78124Y169476D02*
D03*
X75861Y171739D02*
D03*
X73598Y174002D02*
D03*
X71335Y176265D02*
D03*
X69073Y178527D02*
D03*
X66810Y180790D02*
D03*
X64547Y183053D02*
D03*
X62284Y185316D02*
D03*
X60022Y187578D02*
D03*
X57759Y189841D02*
D03*
X55496Y192104D02*
D03*
X53233Y194367D02*
D03*
X83200Y462500D02*
D03*
X80400Y467800D02*
D03*
X71200Y282600D02*
D03*
X71000Y286500D02*
D03*
X71300Y290400D02*
D03*
Y294000D02*
D03*
Y297600D02*
D03*
X71200Y300800D02*
D03*
X71400Y305100D02*
D03*
Y308600D02*
D03*
Y311800D02*
D03*
Y315300D02*
D03*
Y318800D02*
D03*
Y322200D02*
D03*
Y325900D02*
D03*
Y329200D02*
D03*
Y332700D02*
D03*
Y336500D02*
D03*
X22300Y361200D02*
D03*
Y364600D02*
D03*
X22600Y395400D02*
D03*
X20800Y370000D02*
D03*
X20700Y373300D02*
D03*
X16800Y373400D02*
D03*
X21400Y376500D02*
D03*
X18600Y378900D02*
D03*
X12900D02*
D03*
X18700Y383900D02*
D03*
X18689Y387100D02*
D03*
X37200Y391300D02*
D03*
X21900Y406300D02*
D03*
X21800Y440100D02*
D03*
X16800Y444000D02*
D03*
X21900Y411400D02*
D03*
X564300Y253200D02*
D03*
X557400Y283500D02*
D03*
X278500Y287500D02*
D03*
X278543Y303000D02*
D03*
X278500Y327900D02*
D03*
X278600Y525300D02*
D03*
X281500Y508000D02*
D03*
X275400Y487400D02*
D03*
X278543Y460000D02*
D03*
Y444700D02*
D03*
Y430000D02*
D03*
Y406100D02*
D03*
Y381700D02*
D03*
Y366100D02*
D03*
Y351100D02*
D03*
M02*
