G04*
G04 #@! TF.GenerationSoftware,Altium Limited,Altium Designer,21.6.4 (81)*
G04*
G04 Layer_Color=65535*
%FSLAX44Y44*%
%MOMM*%
G71*
G04*
G04 #@! TF.SameCoordinates,D3511B64-A8A5-4C62-8431-0C2E51F58D68*
G04*
G04*
G04 #@! TF.FilePolarity,Positive*
G04*
G01*
G75*
%ADD10C,0.2500*%
%ADD11C,0.2540*%
%ADD12C,0.3800*%
%ADD13C,0.1016*%
%ADD14C,0.2000*%
%ADD15C,0.1524*%
%ADD16C,0.1600*%
%ADD17C,0.1200*%
%ADD18C,0.1200*%
%ADD19C,0.1000*%
%ADD20C,0.1270*%
%ADD21C,0.2032*%
%ADD22R,0.7620X0.7620*%
G36*
X59817Y133909D02*
X53388Y129948D01*
X59817D01*
Y128130D01*
X50061D01*
Y130033D01*
X56631Y134065D01*
X50061D01*
Y135883D01*
X59817D01*
Y133909D01*
D02*
G37*
G36*
X55179Y126565D02*
X55348D01*
X55545Y126537D01*
X55771Y126509D01*
X56039Y126466D01*
X56307Y126424D01*
X56603Y126353D01*
X56913Y126269D01*
X57223Y126156D01*
X57533Y126029D01*
X57829Y125888D01*
X58125Y125705D01*
X58407Y125508D01*
X58675Y125282D01*
X58689Y125268D01*
X58731Y125226D01*
X58802Y125155D01*
X58886Y125042D01*
X58985Y124916D01*
X59098Y124761D01*
X59210Y124577D01*
X59337Y124380D01*
X59464Y124140D01*
X59577Y123886D01*
X59690Y123604D01*
X59788Y123294D01*
X59873Y122970D01*
X59943Y122618D01*
X59986Y122251D01*
X60000Y121856D01*
Y121758D01*
X59986Y121645D01*
X59972Y121504D01*
X59958Y121321D01*
X59929Y121109D01*
X59887Y120870D01*
X59831Y120616D01*
X59760Y120334D01*
X59676Y120066D01*
X59563Y119770D01*
X59436Y119488D01*
X59295Y119192D01*
X59112Y118924D01*
X58914Y118657D01*
X58675Y118403D01*
X58661Y118389D01*
X58618Y118346D01*
X58534Y118290D01*
X58435Y118205D01*
X58294Y118107D01*
X58125Y117994D01*
X57942Y117881D01*
X57716Y117768D01*
X57477Y117641D01*
X57195Y117529D01*
X56898Y117416D01*
X56574Y117317D01*
X56222Y117233D01*
X55841Y117176D01*
X55433Y117134D01*
X55009Y117120D01*
X54995D01*
X54939D01*
X54869D01*
X54756Y117134D01*
X54629D01*
X54488Y117148D01*
X54319Y117162D01*
X54135Y117176D01*
X53741Y117233D01*
X53318Y117303D01*
X52895Y117416D01*
X52500Y117557D01*
X52486D01*
X52472Y117571D01*
X52430Y117599D01*
X52373Y117613D01*
X52232Y117698D01*
X52049Y117797D01*
X51838Y117923D01*
X51626Y118078D01*
X51387Y118262D01*
X51161Y118459D01*
X51147Y118473D01*
X51133Y118487D01*
X51062Y118558D01*
X50950Y118685D01*
X50823Y118840D01*
X50682Y119023D01*
X50527Y119235D01*
X50386Y119474D01*
X50273Y119728D01*
Y119742D01*
X50259Y119770D01*
X50231Y119826D01*
X50217Y119897D01*
X50174Y119982D01*
X50146Y120080D01*
X50118Y120207D01*
X50076Y120334D01*
X50005Y120644D01*
X49935Y120997D01*
X49892Y121405D01*
X49878Y121828D01*
Y121927D01*
X49892Y122040D01*
Y122181D01*
X49921Y122364D01*
X49949Y122575D01*
X49991Y122815D01*
X50047Y123069D01*
X50118Y123337D01*
X50202Y123619D01*
X50315Y123901D01*
X50442Y124197D01*
X50597Y124479D01*
X50780Y124761D01*
X50992Y125028D01*
X51231Y125282D01*
X51246Y125296D01*
X51288Y125338D01*
X51372Y125409D01*
X51471Y125479D01*
X51612Y125578D01*
X51781Y125691D01*
X51979Y125804D01*
X52204Y125931D01*
X52444Y126057D01*
X52726Y126170D01*
X53036Y126283D01*
X53360Y126382D01*
X53727Y126466D01*
X54107Y126523D01*
X54516Y126565D01*
X54953Y126579D01*
X54981D01*
X55052D01*
X55179Y126565D01*
D02*
G37*
G36*
X315581Y305238D02*
X315813Y305231D01*
X316066Y305191D01*
X316325Y305118D01*
X316332Y305112D01*
X316352Y305105D01*
X316385Y305098D01*
X316418Y305078D01*
X316471Y305052D01*
X316538Y305025D01*
X316604Y304985D01*
X316684Y304946D01*
X316764Y304892D01*
X316857Y304826D01*
X316956Y304766D01*
X317056Y304693D01*
X317169Y304607D01*
X317275Y304513D01*
X317508Y304294D01*
X317661Y304141D01*
X317707Y304082D01*
X317834Y303942D01*
X317966Y303783D01*
X318099Y303610D01*
X318212Y303444D01*
X318259Y303357D01*
X318299Y303277D01*
X318305Y303271D01*
Y303258D01*
X318332Y303204D01*
X318359Y303125D01*
X318392Y303025D01*
X318425Y302899D01*
X318452Y302752D01*
X318458Y302600D01*
Y302440D01*
X318452Y302420D01*
Y302367D01*
X318432Y302281D01*
X318412Y302168D01*
X318379Y302041D01*
X318332Y301889D01*
X318265Y301729D01*
X318179Y301563D01*
X316903Y302453D01*
X316910Y302460D01*
X316923Y302500D01*
X316943Y302560D01*
X316970Y302626D01*
X316983Y302706D01*
X316996Y302799D01*
X316990Y302899D01*
X316983Y302998D01*
Y303012D01*
X316976Y303045D01*
X316950Y303098D01*
X316930Y303171D01*
X316890Y303251D01*
X316837Y303331D01*
X316770Y303424D01*
X316684Y303523D01*
X316651Y303557D01*
X316618Y303577D01*
X316544Y303636D01*
X316438Y303703D01*
X316318Y303769D01*
X316172Y303822D01*
X316006Y303856D01*
X315833D01*
X315813Y303849D01*
X315754Y303842D01*
X315654Y303809D01*
X315528Y303763D01*
X315368Y303696D01*
X315288Y303643D01*
X315195Y303590D01*
X315102Y303523D01*
X315003Y303450D01*
X314903Y303364D01*
X314803Y303264D01*
X314797Y303258D01*
X314777Y303238D01*
X314750Y303211D01*
X314717Y303165D01*
X314664Y303111D01*
X314617Y303051D01*
X314504Y302912D01*
X314391Y302746D01*
X314292Y302566D01*
X314212Y302380D01*
X314192Y302294D01*
X314179Y302201D01*
Y302174D01*
Y302121D01*
X314192Y302028D01*
X314219Y301908D01*
X314258Y301776D01*
X314325Y301629D01*
X314424Y301477D01*
X314551Y301324D01*
X314617Y301257D01*
X314670Y301217D01*
X314737Y301164D01*
X314803Y301111D01*
X314963Y301018D01*
X314969Y301011D01*
X315009Y300998D01*
X315056Y300978D01*
X315122Y300952D01*
X315202Y300912D01*
X315302Y300879D01*
X315421Y300839D01*
X315548Y300805D01*
X315893Y301151D01*
X315135Y301908D01*
X315893Y302666D01*
X317634Y300925D01*
X316079Y299370D01*
X316066D01*
X316046Y299377D01*
X315999Y299383D01*
X315940Y299403D01*
X315873Y299417D01*
X315787Y299436D01*
X315594Y299483D01*
X315381Y299549D01*
X315149Y299622D01*
X314923Y299702D01*
X314723Y299795D01*
X314717Y299802D01*
X314697Y299809D01*
X314670Y299822D01*
X314637Y299842D01*
X314591Y299875D01*
X314538Y299902D01*
X314478Y299948D01*
X314411Y299988D01*
X314258Y300101D01*
X314079Y300240D01*
X313893Y300400D01*
X313694Y300586D01*
X313634Y300646D01*
X313594Y300699D01*
X313534Y300759D01*
X313481Y300825D01*
X313414Y300905D01*
X313341Y300991D01*
X313202Y301184D01*
X313062Y301404D01*
X312943Y301629D01*
X312850Y301869D01*
X312843Y301875D01*
Y301902D01*
X312836Y301935D01*
X312823Y301975D01*
X312803Y302101D01*
X312783Y302267D01*
X312770Y302453D01*
X312776Y302673D01*
X312810Y302905D01*
X312869Y303151D01*
X312876Y303158D01*
X312883Y303178D01*
X312896Y303218D01*
X312916Y303264D01*
X312936Y303324D01*
X312969Y303384D01*
X313009Y303464D01*
X313055Y303550D01*
X313095Y303643D01*
X313155Y303743D01*
X313295Y303949D01*
X313461Y304168D01*
X313660Y304381D01*
X313667Y304387D01*
X313687Y304407D01*
X313720Y304440D01*
X313767Y304474D01*
X313820Y304527D01*
X313886Y304580D01*
X313959Y304640D01*
X314046Y304700D01*
X314232Y304832D01*
X314451Y304959D01*
X314684Y305072D01*
X314936Y305165D01*
X314943Y305171D01*
X314969D01*
X315003Y305178D01*
X315056Y305191D01*
X315189Y305218D01*
X315368Y305238D01*
X315581D01*
D02*
G37*
G36*
X324120Y297017D02*
X324273Y296998D01*
X324432Y296958D01*
X324605Y296905D01*
X324612Y296898D01*
X324625D01*
X324652Y296885D01*
X324685Y296865D01*
X324731Y296845D01*
X324785Y296818D01*
X324845Y296785D01*
X324911Y296745D01*
X324984Y296698D01*
X325070Y296639D01*
X325250Y296513D01*
X325443Y296346D01*
X325648Y296154D01*
X325715Y296087D01*
X325755Y296034D01*
X325815Y295974D01*
X325874Y295901D01*
X325941Y295821D01*
X326007Y295728D01*
X326147Y295522D01*
X326280Y295296D01*
X326380Y295064D01*
X326419Y294944D01*
X326446Y294825D01*
X326453Y294818D01*
X326446Y294798D01*
X326459Y294718D01*
X326453Y294592D01*
X326439Y294433D01*
X326426Y294339D01*
X326399Y294246D01*
X326366Y294133D01*
X326326Y294027D01*
X326280Y293914D01*
X326220Y293801D01*
X326140Y293682D01*
X326061Y293562D01*
X324938Y294565D01*
X324951Y294579D01*
X324971Y294612D01*
X325004Y294672D01*
X325037Y294745D01*
X325064Y294825D01*
X325097Y294911D01*
X325117Y295011D01*
Y295104D01*
Y295117D01*
X325110Y295150D01*
X325097Y295190D01*
X325084Y295257D01*
X325051Y295330D01*
X324997Y295409D01*
X324938Y295496D01*
X324858Y295589D01*
X324824Y295622D01*
X324785Y295649D01*
X324731Y295688D01*
X324612Y295768D01*
X324539Y295788D01*
X324472Y295801D01*
X324459D01*
X324446D01*
X324373Y295795D01*
X324273Y295762D01*
X324226Y295728D01*
X324180Y295695D01*
X324173Y295688D01*
X324167Y295682D01*
X324140Y295629D01*
X324107Y295555D01*
X324100Y295509D01*
Y295456D01*
X324107Y295449D01*
Y295423D01*
X324114Y295389D01*
X324133Y295330D01*
X324160Y295263D01*
X324207Y295177D01*
X324260Y295070D01*
X324339Y294951D01*
X324346Y294944D01*
X324366Y294911D01*
X324399Y294864D01*
X324432Y294805D01*
X324479Y294732D01*
X324532Y294639D01*
X324592Y294539D01*
X324652Y294439D01*
X324778Y294220D01*
X324898Y293981D01*
X324997Y293761D01*
X325044Y293662D01*
X325077Y293562D01*
X325084Y293555D01*
Y293542D01*
X325104Y293482D01*
X325124Y293396D01*
X325150Y293276D01*
X325163Y293143D01*
X325177Y292997D01*
X325170Y292844D01*
X325144Y292698D01*
X325137Y292678D01*
X325124Y292638D01*
X325097Y292558D01*
X325057Y292465D01*
X325004Y292359D01*
X324944Y292246D01*
X324851Y292127D01*
X324751Y292013D01*
X324745Y292007D01*
X324738Y292000D01*
X324718Y291980D01*
X324692Y291954D01*
X324612Y291901D01*
X324512Y291828D01*
X324393Y291748D01*
X324240Y291675D01*
X324080Y291608D01*
X323901Y291562D01*
X323881Y291555D01*
X323821Y291548D01*
X323721Y291542D01*
X323595Y291535D01*
X323442Y291542D01*
X323276Y291562D01*
X323103Y291602D01*
X322911Y291661D01*
X322904Y291668D01*
X322891D01*
X322864Y291681D01*
X322831Y291701D01*
X322784Y291721D01*
X322725Y291754D01*
X322665Y291788D01*
X322598Y291828D01*
X322445Y291927D01*
X322266Y292053D01*
X322087Y292206D01*
X321887Y292392D01*
X321801Y292479D01*
X321741Y292552D01*
X321675Y292631D01*
X321595Y292725D01*
X321508Y292824D01*
X321422Y292950D01*
X321249Y293203D01*
X321096Y293475D01*
X321037Y293615D01*
X320997Y293761D01*
X320964Y293901D01*
X320950Y294034D01*
Y294047D01*
X320957Y294067D01*
Y294107D01*
X320964Y294153D01*
X320970Y294213D01*
X320977Y294286D01*
X320997Y294373D01*
X321017Y294459D01*
X321077Y294665D01*
X321170Y294891D01*
X321296Y295110D01*
X321376Y295230D01*
X321462Y295343D01*
X322605Y294346D01*
X322592Y294333D01*
X322565Y294293D01*
X322525Y294240D01*
X322492Y294167D01*
X322399Y293994D01*
X322366Y293894D01*
X322346Y293808D01*
Y293794D01*
Y293741D01*
X322352Y293668D01*
X322366Y293575D01*
X322392Y293456D01*
X322445Y293336D01*
X322519Y293210D01*
X322625Y293090D01*
X322665Y293050D01*
X322711Y293017D01*
X322778Y292964D01*
X322851Y292917D01*
X322931Y292877D01*
X323017Y292844D01*
X323103Y292824D01*
X323117D01*
X323143D01*
X323190Y292831D01*
X323243D01*
X323309Y292844D01*
X323376Y292871D01*
X323442Y292911D01*
X323502Y292957D01*
X323509Y292964D01*
X323529Y292984D01*
X323549Y293017D01*
X323575Y293057D01*
X323595Y293117D01*
X323615Y293176D01*
X323628Y293256D01*
Y293336D01*
Y293349D01*
X323622Y293382D01*
X323602Y293442D01*
X323575Y293522D01*
X323529Y293635D01*
X323469Y293775D01*
X323429Y293854D01*
X323376Y293934D01*
X323323Y294027D01*
X323263Y294127D01*
X323256Y294133D01*
X323236Y294167D01*
X323210Y294220D01*
X323170Y294273D01*
X323130Y294353D01*
X323077Y294446D01*
X323024Y294539D01*
X322970Y294645D01*
X322858Y294891D01*
X322758Y295137D01*
X322685Y295383D01*
X322658Y295502D01*
X322645Y295622D01*
X322651Y295629D01*
X322645Y295649D01*
Y295715D01*
X322651Y295828D01*
X322685Y295968D01*
X322725Y296127D01*
X322791Y296300D01*
X322891Y296466D01*
X322957Y296546D01*
X323030Y296632D01*
X323037Y296639D01*
X323044Y296645D01*
X323077Y296679D01*
X323143Y296732D01*
X323223Y296785D01*
X323323Y296845D01*
X323442Y296911D01*
X323575Y296964D01*
X323721Y297004D01*
X323741Y297011D01*
X323795D01*
X323881Y297017D01*
X323994Y297024D01*
X324120Y297017D01*
D02*
G37*
G36*
X320910Y300772D02*
X320272Y297370D01*
X322293Y299390D01*
X323356Y298327D01*
X319714Y294685D01*
X318651Y295748D01*
X319289Y299124D01*
X317282Y297117D01*
X316225Y298174D01*
X319867Y301815D01*
X320910Y300772D01*
D02*
G37*
G36*
X327795Y293343D02*
X327948Y293323D01*
X328107Y293283D01*
X328280Y293230D01*
X328287Y293223D01*
X328300D01*
X328327Y293210D01*
X328360Y293190D01*
X328406Y293170D01*
X328460Y293143D01*
X328519Y293110D01*
X328586Y293070D01*
X328659Y293024D01*
X328745Y292964D01*
X328925Y292838D01*
X329118Y292671D01*
X329323Y292479D01*
X329390Y292412D01*
X329430Y292359D01*
X329490Y292299D01*
X329549Y292226D01*
X329616Y292146D01*
X329682Y292053D01*
X329822Y291847D01*
X329955Y291621D01*
X330054Y291389D01*
X330094Y291269D01*
X330121Y291150D01*
X330127Y291143D01*
X330121Y291123D01*
X330134Y291043D01*
X330127Y290917D01*
X330114Y290758D01*
X330101Y290665D01*
X330074Y290571D01*
X330041Y290459D01*
X330001Y290352D01*
X329955Y290239D01*
X329895Y290126D01*
X329815Y290007D01*
X329735Y289887D01*
X328612Y290891D01*
X328626Y290904D01*
X328646Y290937D01*
X328679Y290997D01*
X328712Y291070D01*
X328739Y291150D01*
X328772Y291236D01*
X328792Y291336D01*
Y291429D01*
Y291442D01*
X328785Y291475D01*
X328772Y291515D01*
X328759Y291582D01*
X328725Y291655D01*
X328672Y291734D01*
X328612Y291821D01*
X328533Y291914D01*
X328499Y291947D01*
X328460Y291974D01*
X328406Y292013D01*
X328287Y292093D01*
X328214Y292113D01*
X328147Y292127D01*
X328134D01*
X328121D01*
X328047Y292120D01*
X327948Y292087D01*
X327901Y292053D01*
X327855Y292020D01*
X327848Y292013D01*
X327841Y292007D01*
X327815Y291954D01*
X327782Y291881D01*
X327775Y291834D01*
Y291781D01*
X327782Y291774D01*
Y291748D01*
X327788Y291714D01*
X327808Y291655D01*
X327835Y291588D01*
X327881Y291502D01*
X327935Y291395D01*
X328014Y291276D01*
X328021Y291269D01*
X328041Y291236D01*
X328074Y291189D01*
X328107Y291130D01*
X328154Y291057D01*
X328207Y290964D01*
X328267Y290864D01*
X328327Y290764D01*
X328453Y290545D01*
X328573Y290306D01*
X328672Y290086D01*
X328719Y289987D01*
X328752Y289887D01*
X328759Y289880D01*
Y289867D01*
X328778Y289807D01*
X328798Y289721D01*
X328825Y289601D01*
X328838Y289468D01*
X328852Y289322D01*
X328845Y289169D01*
X328818Y289023D01*
X328812Y289003D01*
X328798Y288963D01*
X328772Y288883D01*
X328732Y288790D01*
X328679Y288684D01*
X328619Y288571D01*
X328526Y288452D01*
X328426Y288339D01*
X328420Y288332D01*
X328413Y288325D01*
X328393Y288305D01*
X328367Y288279D01*
X328287Y288226D01*
X328187Y288153D01*
X328068Y288073D01*
X327915Y288000D01*
X327755Y287933D01*
X327576Y287887D01*
X327556Y287880D01*
X327496Y287873D01*
X327396Y287867D01*
X327270Y287860D01*
X327117Y287867D01*
X326951Y287887D01*
X326778Y287927D01*
X326586Y287986D01*
X326579Y287993D01*
X326566D01*
X326539Y288006D01*
X326506Y288026D01*
X326459Y288046D01*
X326399Y288079D01*
X326340Y288113D01*
X326273Y288153D01*
X326120Y288252D01*
X325941Y288379D01*
X325761Y288531D01*
X325562Y288717D01*
X325476Y288804D01*
X325416Y288877D01*
X325350Y288957D01*
X325270Y289050D01*
X325183Y289149D01*
X325097Y289276D01*
X324924Y289528D01*
X324771Y289801D01*
X324711Y289940D01*
X324672Y290086D01*
X324638Y290226D01*
X324625Y290359D01*
Y290372D01*
X324632Y290392D01*
Y290432D01*
X324638Y290478D01*
X324645Y290538D01*
X324652Y290611D01*
X324672Y290698D01*
X324692Y290784D01*
X324751Y290990D01*
X324845Y291216D01*
X324971Y291435D01*
X325051Y291555D01*
X325137Y291668D01*
X326280Y290671D01*
X326267Y290658D01*
X326240Y290618D01*
X326200Y290565D01*
X326167Y290492D01*
X326074Y290319D01*
X326041Y290219D01*
X326021Y290133D01*
Y290120D01*
Y290066D01*
X326027Y289993D01*
X326041Y289900D01*
X326067Y289781D01*
X326120Y289661D01*
X326194Y289535D01*
X326300Y289415D01*
X326340Y289375D01*
X326386Y289342D01*
X326453Y289289D01*
X326526Y289242D01*
X326605Y289202D01*
X326692Y289169D01*
X326778Y289149D01*
X326791D01*
X326818D01*
X326865Y289156D01*
X326918D01*
X326984Y289169D01*
X327051Y289196D01*
X327117Y289236D01*
X327177Y289282D01*
X327184Y289289D01*
X327204Y289309D01*
X327224Y289342D01*
X327250Y289382D01*
X327270Y289442D01*
X327290Y289502D01*
X327303Y289581D01*
Y289661D01*
Y289674D01*
X327297Y289708D01*
X327277Y289767D01*
X327250Y289847D01*
X327204Y289960D01*
X327144Y290100D01*
X327104Y290179D01*
X327051Y290259D01*
X326998Y290352D01*
X326938Y290452D01*
X326931Y290459D01*
X326911Y290492D01*
X326885Y290545D01*
X326845Y290598D01*
X326805Y290678D01*
X326752Y290771D01*
X326698Y290864D01*
X326645Y290970D01*
X326532Y291216D01*
X326433Y291462D01*
X326360Y291708D01*
X326333Y291828D01*
X326320Y291947D01*
X326326Y291954D01*
X326320Y291974D01*
Y292040D01*
X326326Y292153D01*
X326360Y292293D01*
X326399Y292452D01*
X326466Y292625D01*
X326566Y292791D01*
X326632Y292871D01*
X326705Y292957D01*
X326712Y292964D01*
X326718Y292971D01*
X326752Y293004D01*
X326818Y293057D01*
X326898Y293110D01*
X326998Y293170D01*
X327117Y293236D01*
X327250Y293290D01*
X327396Y293329D01*
X327416Y293336D01*
X327469D01*
X327556Y293343D01*
X327669Y293349D01*
X327795Y293343D01*
D02*
G37*
G36*
X334321Y287362D02*
X330679Y283720D01*
X329549Y284850D01*
X333191Y288491D01*
X334321Y287362D01*
D02*
G37*
G36*
X336175Y285508D02*
X335537Y282105D01*
X337557Y284125D01*
X338620Y283062D01*
X334979Y279421D01*
X333915Y280484D01*
X334553Y283860D01*
X332547Y281853D01*
X331490Y282909D01*
X335131Y286551D01*
X336175Y285508D01*
D02*
G37*
G36*
X426718Y320163D02*
X425940Y319385D01*
X424053Y321272D01*
X423475Y320694D01*
X425222Y318947D01*
X424478Y318202D01*
X422730Y319950D01*
X422013Y319232D01*
X423953Y317292D01*
X423129Y316468D01*
X420059Y319538D01*
X423701Y323180D01*
X426718Y320163D01*
D02*
G37*
G36*
X430539Y316342D02*
X429642Y315444D01*
X428492Y316594D01*
X425747Y313850D01*
X424624Y314973D01*
X427369Y317717D01*
X426219Y318867D01*
X427116Y319764D01*
X430539Y316342D01*
D02*
G37*
G36*
X432180Y314700D02*
X430911Y313431D01*
X432147Y312195D01*
X433416Y313464D01*
X434546Y312334D01*
X430904Y308693D01*
X429775Y309822D01*
X431250Y311298D01*
X430014Y312534D01*
X428538Y311059D01*
X427415Y312181D01*
X431057Y315823D01*
X432180Y314700D01*
D02*
G37*
G36*
X434579Y308460D02*
X433795Y307676D01*
X432326Y309145D01*
X433111Y309929D01*
X434579Y308460D01*
D02*
G37*
G36*
X436912Y309105D02*
X436945Y309098D01*
X436998D01*
X437071Y309091D01*
X437158Y309072D01*
X437264Y309058D01*
X437383Y309032D01*
X437510Y308998D01*
X437649Y308952D01*
X437795Y308885D01*
X437955Y308819D01*
X438114Y308726D01*
X438281Y308626D01*
X438453Y308507D01*
X438619Y308367D01*
X438786Y308214D01*
X438872Y308128D01*
X438925Y308061D01*
X438998Y307975D01*
X439071Y307875D01*
X439158Y307762D01*
X439238Y307643D01*
X439324Y307503D01*
X439404Y307357D01*
X439483Y307197D01*
X439550Y307038D01*
X439603Y306865D01*
X439650Y306686D01*
X439676Y306513D01*
X439689Y306327D01*
Y306314D01*
Y306287D01*
X439683Y306227D01*
Y306161D01*
X439663Y306074D01*
X439650Y305968D01*
X439623Y305849D01*
X439590Y305722D01*
X439543Y305583D01*
X439483Y305443D01*
X439417Y305284D01*
X439330Y305131D01*
X439231Y304965D01*
X439118Y304799D01*
X438978Y304632D01*
X438825Y304466D01*
X438819Y304460D01*
X438799Y304440D01*
X438766Y304406D01*
X438719Y304360D01*
X438659Y304313D01*
X438586Y304254D01*
X438513Y304194D01*
X438427Y304121D01*
X438234Y303981D01*
X438021Y303848D01*
X437795Y303729D01*
X437556Y303636D01*
X437550Y303629D01*
X437530Y303622D01*
X437496Y303616D01*
X437450Y303609D01*
X437330Y303582D01*
X437164Y303563D01*
X436978Y303549D01*
X436765D01*
X436546Y303569D01*
X436307Y303622D01*
X436300Y303629D01*
X436280Y303636D01*
X436247Y303642D01*
X436201Y303662D01*
X436141Y303682D01*
X436074Y303709D01*
X436001Y303742D01*
X435915Y303788D01*
X435822Y303842D01*
X435729Y303895D01*
X435516Y304028D01*
X435290Y304200D01*
X435064Y304413D01*
X434964Y304513D01*
X434918Y304573D01*
X434865Y304639D01*
X434798Y304706D01*
X434732Y304799D01*
X434592Y304978D01*
X434459Y305177D01*
X434333Y305397D01*
X434240Y305623D01*
X434234Y305629D01*
X434227Y305649D01*
X434220Y305682D01*
X434214Y305729D01*
X434187Y305849D01*
X434160Y306008D01*
X434134Y306194D01*
X434141Y306413D01*
X434154Y306653D01*
X434200Y306898D01*
X434207Y306905D01*
Y306932D01*
X434227Y306965D01*
X434240Y307018D01*
X434260Y307078D01*
X434287Y307144D01*
X434327Y307224D01*
X434373Y307311D01*
X434420Y307410D01*
X434479Y307510D01*
X434546Y307616D01*
X434626Y307736D01*
X434805Y307968D01*
X435018Y308208D01*
X435031Y308221D01*
X435058Y308248D01*
X435111Y308287D01*
X435171Y308347D01*
X435250Y308414D01*
X435350Y308487D01*
X435463Y308573D01*
X435583Y308653D01*
X435722Y308739D01*
X435868Y308819D01*
X436021Y308892D01*
X436187Y308965D01*
X436360Y309018D01*
X436539Y309065D01*
X436712Y309091D01*
X436898Y309105D01*
X436912D01*
D02*
G37*
G36*
X442348Y304533D02*
X440128Y302313D01*
X440115Y302300D01*
X440081Y302267D01*
X440028Y302200D01*
X439975Y302120D01*
X439922Y302027D01*
X439875Y301928D01*
X439836Y301808D01*
X439822Y301688D01*
Y301675D01*
X439829Y301629D01*
X439836Y301569D01*
X439862Y301489D01*
X439895Y301389D01*
X439949Y301283D01*
X440022Y301170D01*
X440121Y301057D01*
X440168Y301011D01*
X440228Y300964D01*
X440307Y300911D01*
X440401Y300858D01*
X440507Y300805D01*
X440620Y300771D01*
X440739Y300758D01*
X440753D01*
X440799Y300765D01*
X440859Y300771D01*
X440945Y300791D01*
X441038Y300831D01*
X441151Y300891D01*
X441264Y300964D01*
X441377Y301064D01*
X443597Y303283D01*
X444720Y302160D01*
X442547Y299987D01*
X442540Y299981D01*
X442534Y299974D01*
X442494Y299934D01*
X442427Y299881D01*
X442341Y299808D01*
X442228Y299721D01*
X442108Y299642D01*
X441975Y299562D01*
X441829Y299482D01*
X441809Y299476D01*
X441763Y299456D01*
X441690Y299422D01*
X441583Y299396D01*
X441464Y299356D01*
X441317Y299329D01*
X441171Y299303D01*
X441012D01*
X440998D01*
X440939Y299309D01*
X440859D01*
X440759Y299316D01*
X440646Y299336D01*
X440520Y299369D01*
X440394Y299402D01*
X440267Y299449D01*
X440261Y299456D01*
X440248D01*
X440221Y299469D01*
X440188Y299489D01*
X440101Y299535D01*
X439982Y299615D01*
X439849Y299708D01*
X439696Y299821D01*
X439530Y299961D01*
X439357Y300120D01*
X439258Y300220D01*
X439191Y300300D01*
X439105Y300386D01*
X439018Y300499D01*
X438918Y300612D01*
X438812Y300745D01*
X438799Y300758D01*
X438766Y300805D01*
X438713Y300871D01*
X438666Y300958D01*
X438593Y301057D01*
X438533Y301170D01*
X438480Y301290D01*
X438427Y301409D01*
Y301423D01*
X438414Y301462D01*
X438400Y301529D01*
X438380Y301615D01*
X438367Y301722D01*
X438354Y301841D01*
X438347Y301968D01*
X438354Y302107D01*
Y302120D01*
X438360Y302167D01*
X438374Y302247D01*
X438394Y302333D01*
X438414Y302433D01*
X438447Y302546D01*
X438487Y302665D01*
X438540Y302772D01*
X438546Y302778D01*
Y302792D01*
X438566Y302812D01*
X438586Y302845D01*
X438633Y302931D01*
X438699Y303024D01*
X438772Y303137D01*
X438859Y303263D01*
X438958Y303376D01*
X439051Y303483D01*
X441225Y305656D01*
X442348Y304533D01*
D02*
G37*
G36*
X448627Y298253D02*
X447730Y297356D01*
X446581Y298505D01*
X443836Y295761D01*
X442713Y296884D01*
X445458Y299628D01*
X444308Y300778D01*
X445205Y301675D01*
X448627Y298253D01*
D02*
G37*
G36*
X319983Y327148D02*
X320016Y327102D01*
X320069Y327049D01*
X320122Y326982D01*
X320235Y326829D01*
X320341Y326643D01*
X320441Y326437D01*
X320521Y326225D01*
X320541Y326112D01*
X320547Y325999D01*
X320554Y325992D01*
X320547Y325972D01*
X320541Y325939D01*
Y325899D01*
X320527Y325779D01*
X320488Y325633D01*
X320421Y325460D01*
X320335Y325268D01*
X320202Y325068D01*
X320129Y324969D01*
X320029Y324869D01*
X320022Y324862D01*
X320003Y324842D01*
X319976Y324816D01*
X319929Y324782D01*
X319883Y324736D01*
X319816Y324696D01*
X319677Y324596D01*
X319498Y324497D01*
X319291Y324410D01*
X319179Y324377D01*
X319072Y324351D01*
X318953Y324337D01*
X318833D01*
X318826Y324344D01*
X318806Y324337D01*
X318773Y324344D01*
X318727Y324351D01*
X318660Y324364D01*
X318594Y324377D01*
X318514Y324404D01*
X318428Y324437D01*
X318335Y324477D01*
X318235Y324523D01*
X318122Y324583D01*
X318002Y324650D01*
X317883Y324729D01*
X317763Y324822D01*
X317643Y324929D01*
X317511Y325048D01*
X316899Y325660D01*
X315543Y324304D01*
X314414Y325434D01*
X318055Y329076D01*
X319983Y327148D01*
D02*
G37*
G36*
X325432Y321154D02*
X325585Y321134D01*
X325744Y321094D01*
X325917Y321041D01*
X325924Y321035D01*
X325937D01*
X325963Y321021D01*
X325997Y321001D01*
X326043Y320981D01*
X326096Y320955D01*
X326156Y320922D01*
X326223Y320882D01*
X326296Y320835D01*
X326382Y320775D01*
X326562Y320649D01*
X326754Y320483D01*
X326960Y320290D01*
X327027Y320224D01*
X327067Y320171D01*
X327126Y320111D01*
X327186Y320038D01*
X327253Y319958D01*
X327319Y319865D01*
X327459Y319659D01*
X327592Y319433D01*
X327691Y319200D01*
X327731Y319081D01*
X327758Y318961D01*
X327764Y318955D01*
X327758Y318935D01*
X327771Y318855D01*
X327764Y318729D01*
X327751Y318569D01*
X327738Y318476D01*
X327711Y318383D01*
X327678Y318270D01*
X327638Y318164D01*
X327592Y318051D01*
X327532Y317938D01*
X327452Y317818D01*
X327372Y317699D01*
X326249Y318702D01*
X326262Y318715D01*
X326282Y318748D01*
X326316Y318808D01*
X326349Y318881D01*
X326375Y318961D01*
X326409Y319048D01*
X326429Y319147D01*
Y319240D01*
Y319254D01*
X326422Y319287D01*
X326409Y319327D01*
X326395Y319393D01*
X326362Y319466D01*
X326309Y319546D01*
X326249Y319632D01*
X326169Y319725D01*
X326136Y319759D01*
X326096Y319785D01*
X326043Y319825D01*
X325924Y319905D01*
X325850Y319925D01*
X325784Y319938D01*
X325771D01*
X325757D01*
X325684Y319931D01*
X325585Y319898D01*
X325538Y319865D01*
X325492Y319832D01*
X325485Y319825D01*
X325478Y319818D01*
X325452Y319765D01*
X325419Y319692D01*
X325412Y319646D01*
Y319592D01*
X325419Y319586D01*
Y319559D01*
X325425Y319526D01*
X325445Y319466D01*
X325472Y319400D01*
X325518Y319313D01*
X325571Y319207D01*
X325651Y319087D01*
X325658Y319081D01*
X325678Y319048D01*
X325711Y319001D01*
X325744Y318941D01*
X325791Y318868D01*
X325844Y318775D01*
X325904Y318675D01*
X325963Y318576D01*
X326090Y318356D01*
X326209Y318117D01*
X326309Y317898D01*
X326356Y317798D01*
X326389Y317699D01*
X326395Y317692D01*
Y317679D01*
X326415Y317619D01*
X326435Y317532D01*
X326462Y317413D01*
X326475Y317280D01*
X326488Y317134D01*
X326482Y316981D01*
X326455Y316835D01*
X326449Y316815D01*
X326435Y316775D01*
X326409Y316695D01*
X326369Y316602D01*
X326316Y316496D01*
X326256Y316383D01*
X326163Y316263D01*
X326063Y316150D01*
X326056Y316143D01*
X326050Y316137D01*
X326030Y316117D01*
X326003Y316090D01*
X325924Y316037D01*
X325824Y315964D01*
X325704Y315884D01*
X325551Y315811D01*
X325392Y315745D01*
X325213Y315698D01*
X325192Y315692D01*
X325133Y315685D01*
X325033Y315678D01*
X324907Y315672D01*
X324754Y315678D01*
X324588Y315698D01*
X324415Y315738D01*
X324222Y315798D01*
X324216Y315805D01*
X324202D01*
X324176Y315818D01*
X324143Y315838D01*
X324096Y315858D01*
X324036Y315891D01*
X323976Y315924D01*
X323910Y315964D01*
X323757Y316064D01*
X323578Y316190D01*
X323398Y316343D01*
X323199Y316529D01*
X323112Y316615D01*
X323053Y316688D01*
X322986Y316768D01*
X322906Y316861D01*
X322820Y316961D01*
X322734Y317087D01*
X322561Y317340D01*
X322408Y317612D01*
X322348Y317752D01*
X322308Y317898D01*
X322275Y318037D01*
X322262Y318170D01*
Y318184D01*
X322269Y318204D01*
Y318244D01*
X322275Y318290D01*
X322282Y318350D01*
X322289Y318423D01*
X322308Y318509D01*
X322328Y318596D01*
X322388Y318802D01*
X322481Y319028D01*
X322607Y319247D01*
X322687Y319366D01*
X322774Y319480D01*
X323917Y318483D01*
X323903Y318469D01*
X323877Y318430D01*
X323837Y318376D01*
X323804Y318303D01*
X323711Y318130D01*
X323677Y318031D01*
X323657Y317944D01*
Y317931D01*
Y317878D01*
X323664Y317805D01*
X323677Y317712D01*
X323704Y317592D01*
X323757Y317473D01*
X323830Y317346D01*
X323937Y317227D01*
X323976Y317187D01*
X324023Y317154D01*
X324089Y317101D01*
X324162Y317054D01*
X324242Y317014D01*
X324329Y316981D01*
X324415Y316961D01*
X324428D01*
X324455D01*
X324501Y316968D01*
X324555D01*
X324621Y316981D01*
X324688Y317007D01*
X324754Y317047D01*
X324814Y317094D01*
X324820Y317101D01*
X324840Y317120D01*
X324860Y317154D01*
X324887Y317194D01*
X324907Y317253D01*
X324927Y317313D01*
X324940Y317393D01*
Y317473D01*
Y317486D01*
X324933Y317519D01*
X324913Y317579D01*
X324887Y317659D01*
X324840Y317772D01*
X324781Y317911D01*
X324741Y317991D01*
X324688Y318071D01*
X324634Y318164D01*
X324575Y318263D01*
X324568Y318270D01*
X324548Y318303D01*
X324521Y318356D01*
X324482Y318410D01*
X324442Y318489D01*
X324389Y318582D01*
X324335Y318675D01*
X324282Y318782D01*
X324169Y319028D01*
X324070Y319273D01*
X323996Y319519D01*
X323970Y319639D01*
X323956Y319759D01*
X323963Y319765D01*
X323956Y319785D01*
Y319852D01*
X323963Y319965D01*
X323996Y320104D01*
X324036Y320264D01*
X324103Y320437D01*
X324202Y320603D01*
X324269Y320682D01*
X324342Y320769D01*
X324349Y320775D01*
X324355Y320782D01*
X324389Y320815D01*
X324455Y320868D01*
X324535Y320922D01*
X324634Y320981D01*
X324754Y321048D01*
X324887Y321101D01*
X325033Y321141D01*
X325053Y321147D01*
X325106D01*
X325192Y321154D01*
X325305Y321161D01*
X325432Y321154D01*
D02*
G37*
G36*
X323657Y323473D02*
X323691Y323427D01*
X323744Y323374D01*
X323797Y323307D01*
X323910Y323154D01*
X324016Y322968D01*
X324116Y322762D01*
X324196Y322550D01*
X324216Y322437D01*
X324222Y322324D01*
X324229Y322317D01*
X324222Y322297D01*
X324216Y322264D01*
Y322224D01*
X324202Y322104D01*
X324162Y321958D01*
X324096Y321786D01*
X324010Y321593D01*
X323877Y321393D01*
X323804Y321294D01*
X323704Y321194D01*
X323697Y321187D01*
X323677Y321167D01*
X323651Y321141D01*
X323604Y321108D01*
X323558Y321061D01*
X323491Y321021D01*
X323352Y320922D01*
X323172Y320822D01*
X322966Y320736D01*
X322853Y320702D01*
X322747Y320676D01*
X322627Y320662D01*
X322508D01*
X322501Y320669D01*
X322481Y320662D01*
X322448Y320669D01*
X322402Y320676D01*
X322335Y320689D01*
X322269Y320702D01*
X322189Y320729D01*
X322102Y320762D01*
X322009Y320802D01*
X321910Y320849D01*
X321797Y320908D01*
X321677Y320975D01*
X321558Y321054D01*
X321438Y321147D01*
X321318Y321254D01*
X321185Y321373D01*
X320574Y321985D01*
X319218Y320629D01*
X318089Y321759D01*
X321730Y325401D01*
X323657Y323473D01*
D02*
G37*
G36*
X328376Y314914D02*
X327592Y314130D01*
X326123Y315599D01*
X326907Y316383D01*
X328376Y314914D01*
D02*
G37*
G36*
X331958Y315173D02*
X328316Y311532D01*
X327186Y312661D01*
X330828Y316303D01*
X331958Y315173D01*
D02*
G37*
G36*
X333812Y313319D02*
X333174Y309917D01*
X335194Y311937D01*
X336257Y310874D01*
X332615Y307232D01*
X331552Y308295D01*
X332190Y311671D01*
X330183Y309664D01*
X329127Y310721D01*
X332768Y314363D01*
X333812Y313319D01*
D02*
G37*
G36*
X390955Y259689D02*
X389080D01*
Y266752D01*
X389066Y266738D01*
X389038Y266709D01*
X388982Y266667D01*
X388897Y266597D01*
X388798Y266512D01*
X388686Y266427D01*
X388545Y266329D01*
X388390Y266216D01*
X388220Y266103D01*
X388037Y265991D01*
X387840Y265864D01*
X387628Y265751D01*
X387177Y265539D01*
X386670Y265342D01*
Y267034D01*
X386684D01*
X386698Y267048D01*
X386740Y267062D01*
X386797Y267076D01*
X386938Y267146D01*
X387135Y267231D01*
X387375Y267344D01*
X387643Y267499D01*
X387938Y267696D01*
X388249Y267922D01*
X388263Y267936D01*
X388291Y267950D01*
X388333Y267992D01*
X388390Y268049D01*
X388545Y268190D01*
X388714Y268373D01*
X388911Y268598D01*
X389109Y268880D01*
X389292Y269176D01*
X389433Y269501D01*
X390955D01*
Y259689D01*
D02*
G37*
G36*
X381256Y269430D02*
X381623D01*
X382018Y269402D01*
X382412Y269374D01*
X382582Y269360D01*
X382751Y269345D01*
X382892Y269317D01*
X383005Y269289D01*
X383019D01*
X383047Y269275D01*
X383089Y269261D01*
X383145Y269247D01*
X383301Y269176D01*
X383498Y269092D01*
X383709Y268965D01*
X383949Y268796D01*
X384175Y268584D01*
X384400Y268331D01*
Y268316D01*
X384428Y268302D01*
X384457Y268260D01*
X384485Y268204D01*
X384541Y268119D01*
X384583Y268034D01*
X384640Y267936D01*
X384696Y267823D01*
X384795Y267541D01*
X384894Y267231D01*
X384950Y266850D01*
X384978Y266442D01*
Y266427D01*
Y266399D01*
Y266357D01*
Y266287D01*
X384964Y266216D01*
Y266117D01*
X384936Y265920D01*
X384894Y265680D01*
X384837Y265413D01*
X384753Y265159D01*
X384640Y264919D01*
X384626Y264891D01*
X384583Y264820D01*
X384513Y264708D01*
X384414Y264567D01*
X384301Y264426D01*
X384146Y264256D01*
X383991Y264102D01*
X383808Y263960D01*
X383780Y263946D01*
X383723Y263904D01*
X383625Y263848D01*
X383498Y263777D01*
X383343Y263693D01*
X383174Y263622D01*
X382990Y263552D01*
X382793Y263495D01*
X382765D01*
X382723Y263481D01*
X382666D01*
X382596Y263467D01*
X382497Y263453D01*
X382398Y263439D01*
X382271D01*
X382145Y263425D01*
X381990Y263411D01*
X381820Y263397D01*
X381637Y263382D01*
X381440D01*
X381228Y263368D01*
X379480D01*
Y259689D01*
X377507D01*
Y269444D01*
X381101D01*
X381256Y269430D01*
D02*
G37*
G36*
X375618Y259689D02*
X373644D01*
Y269444D01*
X375618D01*
Y259689D01*
D02*
G37*
G36*
X367878Y269430D02*
X368146Y269416D01*
X368442Y269402D01*
X368753Y269360D01*
X369049Y269317D01*
X369316Y269247D01*
X369330D01*
X369359Y269233D01*
X369401Y269219D01*
X369457Y269205D01*
X369627Y269134D01*
X369824Y269035D01*
X370049Y268909D01*
X370303Y268754D01*
X370543Y268570D01*
X370783Y268345D01*
X370797D01*
X370811Y268316D01*
X370881Y268232D01*
X370994Y268091D01*
X371121Y267908D01*
X371276Y267682D01*
X371431Y267414D01*
X371586Y267104D01*
X371713Y266766D01*
Y266752D01*
X371727Y266723D01*
X371741Y266667D01*
X371769Y266597D01*
X371783Y266512D01*
X371811Y266399D01*
X371840Y266272D01*
X371882Y266131D01*
X371910Y265976D01*
X371938Y265793D01*
X371967Y265610D01*
X371981Y265398D01*
X372023Y264961D01*
X372037Y264468D01*
Y264454D01*
Y264412D01*
Y264355D01*
Y264271D01*
X372023Y264158D01*
Y264045D01*
X372009Y263904D01*
X371995Y263749D01*
X371967Y263425D01*
X371910Y263086D01*
X371826Y262734D01*
X371727Y262396D01*
Y262382D01*
X371713Y262353D01*
X371685Y262297D01*
X371656Y262213D01*
X371628Y262128D01*
X371572Y262029D01*
X371459Y261775D01*
X371318Y261508D01*
X371135Y261212D01*
X370923Y260930D01*
X370684Y260662D01*
X370656Y260634D01*
X370585Y260577D01*
X370472Y260493D01*
X370317Y260380D01*
X370120Y260253D01*
X369894Y260126D01*
X369612Y259999D01*
X369302Y259886D01*
X369288D01*
X369274Y259872D01*
X369232D01*
X369189Y259858D01*
X369034Y259830D01*
X368837Y259788D01*
X368597Y259746D01*
X368301Y259717D01*
X367949Y259703D01*
X367568Y259689D01*
X363875D01*
Y269444D01*
X367766D01*
X367878Y269430D01*
D02*
G37*
G36*
X493819Y270310D02*
X497174Y265236D01*
X494806D01*
X492649Y268534D01*
X490478Y265236D01*
X488110D01*
X491479Y270310D01*
X488420Y274991D01*
X490718D01*
X492649Y272073D01*
X494580Y274991D01*
X496878D01*
X493819Y270310D01*
D02*
G37*
G36*
X477269Y265236D02*
X475451D01*
X475437Y272904D01*
X473520Y265236D01*
X471616D01*
X469699Y272904D01*
Y265236D01*
X467881D01*
Y274991D01*
X470827D01*
X472575Y268323D01*
X474309Y274991D01*
X477269D01*
Y265236D01*
D02*
G37*
G36*
X488054D02*
X485925D01*
X485079Y267449D01*
X481160D01*
X480357Y265236D01*
X478270D01*
X482048Y274991D01*
X484135D01*
X488054Y265236D01*
D02*
G37*
G36*
X170901Y317499D02*
X168773D01*
X167927Y319712D01*
X164008D01*
X163204Y317499D01*
X161118D01*
X164896Y327254D01*
X166982D01*
X170901Y317499D01*
D02*
G37*
G36*
X160258Y325605D02*
X155000D01*
Y323448D01*
X159891D01*
Y321799D01*
X155000D01*
Y319148D01*
X160441D01*
Y317499D01*
X153026D01*
Y327254D01*
X160258D01*
Y325605D01*
D02*
G37*
G36*
X146711Y319148D02*
X151616D01*
Y317499D01*
X144737D01*
Y327184D01*
X146711D01*
Y319148D01*
D02*
G37*
G36*
X72263Y207495D02*
X72362Y207481D01*
X72559Y207453D01*
X72813Y207396D01*
X73081Y207312D01*
X73349Y207185D01*
X73631Y207030D01*
X73645D01*
X73659Y207001D01*
X73744Y206945D01*
X73885Y206832D01*
X74040Y206691D01*
X74223Y206508D01*
X74392Y206268D01*
X74561Y206015D01*
X74716Y205704D01*
Y205690D01*
X74730Y205662D01*
X74744Y205620D01*
X74773Y205549D01*
X74801Y205465D01*
X74829Y205366D01*
X74857Y205253D01*
X74885Y205126D01*
X74928Y204972D01*
X74956Y204816D01*
X75012Y204450D01*
X75054Y204041D01*
X75069Y203590D01*
Y203407D01*
X75054Y203280D01*
X75040Y203125D01*
X75026Y202956D01*
X74998Y202758D01*
X74956Y202547D01*
X74857Y202082D01*
X74787Y201842D01*
X74716Y201616D01*
X74618Y201377D01*
X74505Y201151D01*
X74378Y200940D01*
X74223Y200742D01*
X74209Y200728D01*
X74180Y200700D01*
X74138Y200644D01*
X74068Y200587D01*
X73969Y200503D01*
X73856Y200418D01*
X73729Y200319D01*
X73588Y200221D01*
X73419Y200122D01*
X73236Y200023D01*
X73025Y199925D01*
X72799Y199826D01*
X72559Y199756D01*
X72291Y199671D01*
X72010Y199615D01*
X71714Y199572D01*
X71530Y201490D01*
X71544D01*
X71573Y201504D01*
X71629D01*
X71685Y201518D01*
X71855Y201574D01*
X72066Y201645D01*
X72306Y201729D01*
X72545Y201856D01*
X72757Y201997D01*
X72954Y202180D01*
X72968Y202208D01*
X73025Y202279D01*
X73095Y202392D01*
X73180Y202561D01*
X73264Y202772D01*
X73335Y203012D01*
X73391Y203294D01*
X73405Y203618D01*
Y203773D01*
X73377Y203942D01*
X73349Y204154D01*
X73306Y204379D01*
X73236Y204619D01*
X73137Y204845D01*
X73010Y205042D01*
X72996Y205070D01*
X72940Y205126D01*
X72855Y205197D01*
X72743Y205296D01*
X72602Y205380D01*
X72432Y205465D01*
X72263Y205521D01*
X72066Y205535D01*
X72052D01*
X72010D01*
X71939Y205521D01*
X71855Y205507D01*
X71770Y205479D01*
X71671Y205451D01*
X71573Y205394D01*
X71474Y205324D01*
X71460Y205310D01*
X71432Y205282D01*
X71389Y205239D01*
X71333Y205169D01*
X71262Y205070D01*
X71192Y204943D01*
X71121Y204802D01*
X71051Y204619D01*
Y204605D01*
X71023Y204549D01*
X70995Y204450D01*
X70966Y204379D01*
X70952Y204295D01*
X70924Y204196D01*
X70882Y204083D01*
X70854Y203957D01*
X70811Y203815D01*
X70769Y203646D01*
X70727Y203463D01*
X70670Y203266D01*
X70614Y203040D01*
Y203026D01*
X70600Y202970D01*
X70572Y202885D01*
X70543Y202786D01*
X70501Y202660D01*
X70459Y202505D01*
X70402Y202349D01*
X70346Y202166D01*
X70205Y201800D01*
X70036Y201447D01*
X69951Y201264D01*
X69853Y201109D01*
X69754Y200954D01*
X69655Y200827D01*
X69641Y200813D01*
X69613Y200785D01*
X69571Y200742D01*
X69514Y200686D01*
X69430Y200616D01*
X69331Y200545D01*
X69232Y200460D01*
X69106Y200390D01*
X68809Y200221D01*
X68471Y200080D01*
X68288Y200023D01*
X68105Y199981D01*
X67893Y199953D01*
X67682Y199939D01*
X67668D01*
X67654D01*
X67611D01*
X67555D01*
X67414Y199967D01*
X67231Y199995D01*
X67019Y200037D01*
X66780Y200108D01*
X66526Y200207D01*
X66286Y200348D01*
X66272D01*
X66258Y200362D01*
X66173Y200432D01*
X66061Y200517D01*
X65920Y200658D01*
X65765Y200827D01*
X65595Y201038D01*
X65440Y201278D01*
X65299Y201560D01*
Y201574D01*
X65285Y201602D01*
X65271Y201645D01*
X65243Y201701D01*
X65215Y201786D01*
X65187Y201870D01*
X65158Y201983D01*
X65116Y202110D01*
X65060Y202392D01*
X65003Y202716D01*
X64961Y203083D01*
X64947Y203491D01*
Y203661D01*
X64961Y203787D01*
X64975Y203942D01*
X64989Y204126D01*
X65017Y204309D01*
X65046Y204520D01*
X65144Y204972D01*
X65215Y205197D01*
X65285Y205423D01*
X65384Y205648D01*
X65497Y205860D01*
X65624Y206057D01*
X65765Y206240D01*
X65779Y206254D01*
X65807Y206283D01*
X65849Y206325D01*
X65906Y206381D01*
X65990Y206452D01*
X66089Y206536D01*
X66202Y206621D01*
X66329Y206719D01*
X66483Y206804D01*
X66639Y206889D01*
X66822Y206973D01*
X67019Y207044D01*
X67217Y207114D01*
X67442Y207171D01*
X67668Y207213D01*
X67921Y207227D01*
X67992Y205253D01*
X67978D01*
X67964D01*
X67865Y205225D01*
X67738Y205197D01*
X67583Y205141D01*
X67400Y205070D01*
X67231Y204972D01*
X67062Y204845D01*
X66920Y204704D01*
X66906Y204690D01*
X66864Y204633D01*
X66808Y204534D01*
X66751Y204394D01*
X66695Y204224D01*
X66639Y204013D01*
X66596Y203759D01*
X66582Y203463D01*
Y203322D01*
X66596Y203167D01*
X66624Y202984D01*
X66667Y202772D01*
X66737Y202547D01*
X66822Y202335D01*
X66949Y202138D01*
X66963Y202124D01*
X66991Y202096D01*
X67033Y202039D01*
X67104Y201983D01*
X67188Y201926D01*
X67301Y201870D01*
X67414Y201842D01*
X67555Y201828D01*
X67569D01*
X67611D01*
X67682Y201842D01*
X67752Y201870D01*
X67851Y201898D01*
X67950Y201941D01*
X68048Y202011D01*
X68147Y202110D01*
X68161Y202124D01*
X68203Y202194D01*
X68232Y202237D01*
X68260Y202307D01*
X68302Y202378D01*
X68344Y202476D01*
X68387Y202589D01*
X68443Y202716D01*
X68499Y202871D01*
X68556Y203026D01*
X68612Y203223D01*
X68669Y203435D01*
X68725Y203661D01*
X68795Y203914D01*
Y203928D01*
X68809Y203985D01*
X68824Y204055D01*
X68852Y204154D01*
X68880Y204267D01*
X68922Y204408D01*
X68965Y204563D01*
X69007Y204718D01*
X69120Y205056D01*
X69232Y205408D01*
X69359Y205747D01*
X69430Y205888D01*
X69500Y206029D01*
Y206043D01*
X69514Y206057D01*
X69571Y206141D01*
X69655Y206268D01*
X69768Y206423D01*
X69909Y206593D01*
X70078Y206776D01*
X70276Y206959D01*
X70501Y207114D01*
X70529Y207128D01*
X70614Y207171D01*
X70741Y207241D01*
X70924Y207312D01*
X71150Y207382D01*
X71417Y207453D01*
X71714Y207495D01*
X72052Y207509D01*
X72066D01*
X72094D01*
X72136D01*
X72193D01*
X72263Y207495D01*
D02*
G37*
G36*
X68358Y198459D02*
X68457D01*
X68654Y198431D01*
X68894Y198388D01*
X69162Y198332D01*
X69416Y198247D01*
X69655Y198134D01*
X69684Y198120D01*
X69754Y198078D01*
X69867Y198008D01*
X70008Y197909D01*
X70149Y197796D01*
X70318Y197641D01*
X70473Y197486D01*
X70614Y197303D01*
X70628Y197274D01*
X70670Y197218D01*
X70727Y197119D01*
X70797Y196993D01*
X70882Y196838D01*
X70952Y196668D01*
X71023Y196485D01*
X71079Y196288D01*
Y196259D01*
X71093Y196217D01*
Y196161D01*
X71107Y196090D01*
X71121Y195992D01*
X71136Y195893D01*
Y195766D01*
X71150Y195639D01*
X71164Y195484D01*
X71178Y195315D01*
X71192Y195132D01*
Y194934D01*
X71206Y194723D01*
Y192975D01*
X74885D01*
Y191001D01*
X65130D01*
Y194596D01*
X65144Y194751D01*
Y195118D01*
X65173Y195512D01*
X65201Y195907D01*
X65215Y196076D01*
X65229Y196245D01*
X65257Y196386D01*
X65285Y196499D01*
Y196513D01*
X65299Y196542D01*
X65314Y196584D01*
X65328Y196640D01*
X65398Y196795D01*
X65483Y196993D01*
X65609Y197204D01*
X65779Y197444D01*
X65990Y197669D01*
X66244Y197895D01*
X66258D01*
X66272Y197923D01*
X66314Y197951D01*
X66371Y197979D01*
X66455Y198036D01*
X66540Y198078D01*
X66639Y198134D01*
X66751Y198191D01*
X67033Y198290D01*
X67344Y198388D01*
X67724Y198445D01*
X68133Y198473D01*
X68147D01*
X68175D01*
X68218D01*
X68288D01*
X68358Y198459D01*
D02*
G37*
G36*
Y189366D02*
X68457D01*
X68654Y189338D01*
X68894Y189296D01*
X69162Y189239D01*
X69416Y189155D01*
X69655Y189042D01*
X69684Y189028D01*
X69754Y188986D01*
X69867Y188915D01*
X70008Y188816D01*
X70149Y188703D01*
X70318Y188549D01*
X70473Y188393D01*
X70614Y188210D01*
X70628Y188182D01*
X70670Y188126D01*
X70727Y188027D01*
X70797Y187900D01*
X70882Y187745D01*
X70952Y187576D01*
X71023Y187393D01*
X71079Y187195D01*
Y187167D01*
X71093Y187125D01*
Y187068D01*
X71107Y186998D01*
X71121Y186899D01*
X71136Y186800D01*
Y186674D01*
X71150Y186547D01*
X71164Y186392D01*
X71178Y186222D01*
X71192Y186039D01*
Y185842D01*
X71206Y185630D01*
Y183882D01*
X74885D01*
Y181909D01*
X65130D01*
Y185504D01*
X65144Y185659D01*
Y186025D01*
X65173Y186420D01*
X65201Y186814D01*
X65215Y186984D01*
X65229Y187153D01*
X65257Y187294D01*
X65285Y187407D01*
Y187421D01*
X65299Y187449D01*
X65314Y187491D01*
X65328Y187548D01*
X65398Y187703D01*
X65483Y187900D01*
X65609Y188111D01*
X65779Y188351D01*
X65990Y188577D01*
X66244Y188802D01*
X66258D01*
X66272Y188830D01*
X66314Y188859D01*
X66371Y188887D01*
X66455Y188943D01*
X66540Y188986D01*
X66639Y189042D01*
X66751Y189098D01*
X67033Y189197D01*
X67344Y189296D01*
X67724Y189352D01*
X68133Y189380D01*
X68147D01*
X68175D01*
X68218D01*
X68288D01*
X68358Y189366D01*
D02*
G37*
G36*
X427727Y-109799D02*
X425908D01*
X425894Y-102130D01*
X423977Y-109799D01*
X422074D01*
X420157Y-102130D01*
Y-109799D01*
X418338D01*
Y-100044D01*
X421284D01*
X423032Y-106712D01*
X424766Y-100044D01*
X427727D01*
Y-109799D01*
D02*
G37*
G36*
X457922Y-105189D02*
Y-105203D01*
Y-105260D01*
Y-105358D01*
Y-105471D01*
Y-105612D01*
X457908Y-105781D01*
Y-105964D01*
Y-106148D01*
X457880Y-106556D01*
X457852Y-106979D01*
X457838Y-107163D01*
X457810Y-107346D01*
X457781Y-107515D01*
X457753Y-107670D01*
Y-107684D01*
X457739Y-107698D01*
Y-107741D01*
X457725Y-107783D01*
X457683Y-107924D01*
X457626Y-108093D01*
X457542Y-108290D01*
X457443Y-108488D01*
X457316Y-108699D01*
X457161Y-108897D01*
X457147Y-108925D01*
X457091Y-108981D01*
X456992Y-109066D01*
X456865Y-109178D01*
X456696Y-109305D01*
X456499Y-109432D01*
X456273Y-109573D01*
X456019Y-109686D01*
X456005D01*
X455991Y-109700D01*
X455949Y-109714D01*
X455892Y-109728D01*
X455822Y-109756D01*
X455737Y-109785D01*
X455625Y-109813D01*
X455512Y-109827D01*
X455244Y-109883D01*
X454920Y-109940D01*
X454553Y-109968D01*
X454144Y-109982D01*
X453919D01*
X453792Y-109968D01*
X453665D01*
X453510Y-109954D01*
X453355Y-109940D01*
X453017Y-109911D01*
X452664Y-109855D01*
X452312Y-109770D01*
X452157Y-109728D01*
X452016Y-109672D01*
X452002D01*
X451987Y-109658D01*
X451903Y-109615D01*
X451762Y-109545D01*
X451607Y-109446D01*
X451424Y-109319D01*
X451226Y-109178D01*
X451043Y-109009D01*
X450874Y-108826D01*
X450860Y-108798D01*
X450803Y-108742D01*
X450733Y-108629D01*
X450648Y-108488D01*
X450564Y-108333D01*
X450465Y-108149D01*
X450395Y-107952D01*
X450324Y-107741D01*
Y-107726D01*
X450310Y-107698D01*
Y-107656D01*
X450296Y-107585D01*
X450282Y-107501D01*
X450268Y-107388D01*
X450254Y-107261D01*
X450239Y-107120D01*
X450211Y-106951D01*
X450197Y-106768D01*
X450183Y-106571D01*
X450169Y-106345D01*
X450155Y-106105D01*
Y-105837D01*
X450141Y-105555D01*
Y-105260D01*
Y-100044D01*
X452114D01*
Y-105344D01*
Y-105358D01*
Y-105400D01*
Y-105457D01*
Y-105541D01*
Y-105654D01*
Y-105767D01*
X452128Y-106021D01*
Y-106303D01*
X452143Y-106571D01*
X452157Y-106697D01*
Y-106810D01*
X452171Y-106895D01*
X452185Y-106979D01*
Y-107008D01*
X452213Y-107078D01*
X452255Y-107191D01*
X452312Y-107332D01*
X452382Y-107487D01*
X452495Y-107642D01*
X452622Y-107811D01*
X452777Y-107952D01*
X452805Y-107966D01*
X452862Y-108008D01*
X452974Y-108065D01*
X453115Y-108121D01*
X453313Y-108192D01*
X453538Y-108248D01*
X453792Y-108290D01*
X454088Y-108305D01*
X454229D01*
X454370Y-108290D01*
X454553Y-108262D01*
X454765Y-108220D01*
X454962Y-108163D01*
X455173Y-108079D01*
X455343Y-107966D01*
X455357Y-107952D01*
X455413Y-107910D01*
X455484Y-107839D01*
X455568Y-107741D01*
X455653Y-107614D01*
X455737Y-107473D01*
X455808Y-107318D01*
X455850Y-107134D01*
Y-107106D01*
X455864Y-107036D01*
X455878Y-106909D01*
X455906Y-106740D01*
Y-106627D01*
X455921Y-106500D01*
Y-106359D01*
X455935Y-106218D01*
Y-106049D01*
X455949Y-105866D01*
Y-105668D01*
Y-105457D01*
Y-100044D01*
X457922D01*
Y-105189D01*
D02*
G37*
G36*
X485764Y-100058D02*
X486046Y-100072D01*
X486328Y-100086D01*
X486596Y-100114D01*
X486835Y-100142D01*
X486864D01*
X486934Y-100156D01*
X487033Y-100185D01*
X487174Y-100227D01*
X487329Y-100283D01*
X487498Y-100354D01*
X487681Y-100438D01*
X487850Y-100551D01*
X487864Y-100565D01*
X487921Y-100608D01*
X488005Y-100678D01*
X488118Y-100763D01*
X488231Y-100889D01*
X488358Y-101030D01*
X488485Y-101186D01*
X488597Y-101369D01*
X488611Y-101397D01*
X488640Y-101453D01*
X488696Y-101566D01*
X488753Y-101707D01*
X488809Y-101876D01*
X488865Y-102059D01*
X488894Y-102285D01*
X488908Y-102511D01*
Y-102525D01*
Y-102539D01*
Y-102623D01*
X488894Y-102750D01*
X488865Y-102919D01*
X488809Y-103117D01*
X488753Y-103328D01*
X488654Y-103540D01*
X488527Y-103765D01*
X488513Y-103793D01*
X488456Y-103864D01*
X488372Y-103963D01*
X488273Y-104089D01*
X488132Y-104216D01*
X487963Y-104371D01*
X487766Y-104498D01*
X487540Y-104625D01*
X487554D01*
X487583Y-104639D01*
X487625Y-104653D01*
X487681Y-104667D01*
X487850Y-104738D01*
X488048Y-104837D01*
X488259Y-104949D01*
X488499Y-105104D01*
X488710Y-105288D01*
X488908Y-105513D01*
X488922Y-105541D01*
X488978Y-105626D01*
X489063Y-105753D01*
X489147Y-105922D01*
X489232Y-106148D01*
X489316Y-106387D01*
X489373Y-106669D01*
X489387Y-106979D01*
Y-106993D01*
Y-107008D01*
Y-107092D01*
X489373Y-107219D01*
X489345Y-107388D01*
X489316Y-107585D01*
X489260Y-107811D01*
X489175Y-108037D01*
X489077Y-108276D01*
X489063Y-108305D01*
X489020Y-108375D01*
X488950Y-108488D01*
X488851Y-108629D01*
X488738Y-108798D01*
X488583Y-108953D01*
X488428Y-109122D01*
X488231Y-109277D01*
X488203Y-109291D01*
X488132Y-109333D01*
X488019Y-109404D01*
X487864Y-109474D01*
X487667Y-109559D01*
X487441Y-109630D01*
X487188Y-109700D01*
X486906Y-109742D01*
X486849D01*
X486793Y-109756D01*
X486652D01*
X486553Y-109770D01*
X486286D01*
X486116Y-109785D01*
X485694D01*
X485454Y-109799D01*
X481225D01*
Y-100044D01*
X485510D01*
X485764Y-100058D01*
D02*
G37*
G36*
X475572Y-101693D02*
X470314D01*
Y-103850D01*
X475205D01*
Y-105499D01*
X470314D01*
Y-108149D01*
X475755D01*
Y-109799D01*
X468340D01*
Y-100044D01*
X475572D01*
Y-101693D01*
D02*
G37*
G36*
X462025Y-108149D02*
X466930D01*
Y-109799D01*
X460051D01*
Y-100114D01*
X462025D01*
Y-108149D01*
D02*
G37*
G36*
X444333Y-100058D02*
X444601Y-100072D01*
X444897Y-100086D01*
X445207Y-100128D01*
X445503Y-100170D01*
X445771Y-100241D01*
X445785D01*
X445813Y-100255D01*
X445855Y-100269D01*
X445912Y-100283D01*
X446081Y-100354D01*
X446278Y-100452D01*
X446504Y-100579D01*
X446758Y-100734D01*
X446997Y-100918D01*
X447237Y-101143D01*
X447251D01*
X447265Y-101171D01*
X447336Y-101256D01*
X447448Y-101397D01*
X447575Y-101580D01*
X447730Y-101806D01*
X447885Y-102074D01*
X448040Y-102384D01*
X448167Y-102722D01*
Y-102736D01*
X448181Y-102764D01*
X448195Y-102821D01*
X448224Y-102891D01*
X448238Y-102976D01*
X448266Y-103089D01*
X448294Y-103215D01*
X448336Y-103356D01*
X448365Y-103511D01*
X448393Y-103695D01*
X448421Y-103878D01*
X448435Y-104089D01*
X448477Y-104527D01*
X448492Y-105020D01*
Y-105034D01*
Y-105076D01*
Y-105133D01*
Y-105217D01*
X448477Y-105330D01*
Y-105443D01*
X448463Y-105584D01*
X448449Y-105739D01*
X448421Y-106063D01*
X448365Y-106401D01*
X448280Y-106754D01*
X448181Y-107092D01*
Y-107106D01*
X448167Y-107134D01*
X448139Y-107191D01*
X448111Y-107275D01*
X448083Y-107360D01*
X448026Y-107459D01*
X447914Y-107712D01*
X447772Y-107980D01*
X447589Y-108276D01*
X447378Y-108558D01*
X447138Y-108826D01*
X447110Y-108854D01*
X447039Y-108911D01*
X446927Y-108995D01*
X446772Y-109108D01*
X446574Y-109235D01*
X446349Y-109362D01*
X446067Y-109489D01*
X445757Y-109601D01*
X445743D01*
X445728Y-109615D01*
X445686D01*
X445644Y-109630D01*
X445489Y-109658D01*
X445291Y-109700D01*
X445052Y-109742D01*
X444756Y-109770D01*
X444403Y-109785D01*
X444023Y-109799D01*
X440329D01*
Y-100044D01*
X444220D01*
X444333Y-100058D01*
D02*
G37*
G36*
X434239Y-99874D02*
X434380D01*
X434564Y-99903D01*
X434775Y-99931D01*
X435015Y-99973D01*
X435269Y-100029D01*
X435536Y-100100D01*
X435818Y-100185D01*
X436100Y-100297D01*
X436396Y-100424D01*
X436678Y-100579D01*
X436960Y-100763D01*
X437228Y-100974D01*
X437482Y-101214D01*
X437496Y-101228D01*
X437538Y-101270D01*
X437609Y-101355D01*
X437679Y-101453D01*
X437778Y-101594D01*
X437891Y-101763D01*
X438003Y-101961D01*
X438130Y-102186D01*
X438257Y-102426D01*
X438370Y-102708D01*
X438483Y-103018D01*
X438581Y-103342D01*
X438666Y-103709D01*
X438722Y-104089D01*
X438765Y-104498D01*
X438779Y-104935D01*
Y-104964D01*
Y-105034D01*
X438765Y-105161D01*
Y-105330D01*
X438736Y-105527D01*
X438708Y-105753D01*
X438666Y-106021D01*
X438624Y-106289D01*
X438553Y-106585D01*
X438469Y-106895D01*
X438356Y-107205D01*
X438229Y-107515D01*
X438088Y-107811D01*
X437905Y-108107D01*
X437707Y-108389D01*
X437482Y-108657D01*
X437468Y-108671D01*
X437425Y-108713D01*
X437355Y-108784D01*
X437242Y-108868D01*
X437115Y-108967D01*
X436960Y-109080D01*
X436777Y-109193D01*
X436580Y-109319D01*
X436340Y-109446D01*
X436086Y-109559D01*
X435804Y-109672D01*
X435494Y-109770D01*
X435170Y-109855D01*
X434817Y-109926D01*
X434451Y-109968D01*
X434056Y-109982D01*
X433957D01*
X433845Y-109968D01*
X433704Y-109954D01*
X433521Y-109940D01*
X433309Y-109911D01*
X433069Y-109869D01*
X432816Y-109813D01*
X432534Y-109742D01*
X432266Y-109658D01*
X431970Y-109545D01*
X431688Y-109418D01*
X431392Y-109277D01*
X431124Y-109094D01*
X430856Y-108897D01*
X430602Y-108657D01*
X430588Y-108643D01*
X430546Y-108601D01*
X430490Y-108516D01*
X430405Y-108417D01*
X430306Y-108276D01*
X430194Y-108107D01*
X430081Y-107924D01*
X429968Y-107698D01*
X429841Y-107459D01*
X429728Y-107177D01*
X429616Y-106881D01*
X429517Y-106556D01*
X429432Y-106204D01*
X429376Y-105823D01*
X429334Y-105415D01*
X429320Y-104992D01*
Y-104978D01*
Y-104921D01*
Y-104851D01*
X429334Y-104738D01*
Y-104611D01*
X429348Y-104470D01*
X429362Y-104301D01*
X429376Y-104118D01*
X429432Y-103723D01*
X429503Y-103300D01*
X429616Y-102877D01*
X429757Y-102482D01*
Y-102468D01*
X429771Y-102454D01*
X429799Y-102412D01*
X429813Y-102355D01*
X429897Y-102215D01*
X429996Y-102031D01*
X430123Y-101820D01*
X430278Y-101608D01*
X430461Y-101369D01*
X430659Y-101143D01*
X430673Y-101129D01*
X430687Y-101115D01*
X430757Y-101045D01*
X430884Y-100932D01*
X431039Y-100805D01*
X431223Y-100664D01*
X431434Y-100509D01*
X431674Y-100368D01*
X431927Y-100255D01*
X431942D01*
X431970Y-100241D01*
X432026Y-100213D01*
X432097Y-100199D01*
X432181Y-100156D01*
X432280Y-100128D01*
X432407Y-100100D01*
X432534Y-100058D01*
X432844Y-99987D01*
X433196Y-99917D01*
X433605Y-99874D01*
X434028Y-99860D01*
X434127D01*
X434239Y-99874D01*
D02*
G37*
G36*
X242561Y-109799D02*
X240742D01*
X240728Y-102130D01*
X238811Y-109799D01*
X236908D01*
X234991Y-102130D01*
Y-109799D01*
X233172D01*
Y-100044D01*
X236118D01*
X237866Y-106712D01*
X239600Y-100044D01*
X242561D01*
Y-109799D01*
D02*
G37*
G36*
X272756Y-105189D02*
Y-105203D01*
Y-105260D01*
Y-105358D01*
Y-105471D01*
Y-105612D01*
X272742Y-105781D01*
Y-105964D01*
Y-106148D01*
X272714Y-106556D01*
X272686Y-106979D01*
X272672Y-107163D01*
X272644Y-107346D01*
X272615Y-107515D01*
X272587Y-107670D01*
Y-107684D01*
X272573Y-107698D01*
Y-107741D01*
X272559Y-107783D01*
X272517Y-107924D01*
X272460Y-108093D01*
X272376Y-108290D01*
X272277Y-108488D01*
X272150Y-108699D01*
X271995Y-108897D01*
X271981Y-108925D01*
X271925Y-108981D01*
X271826Y-109066D01*
X271699Y-109178D01*
X271530Y-109305D01*
X271333Y-109432D01*
X271107Y-109573D01*
X270853Y-109686D01*
X270839D01*
X270825Y-109700D01*
X270783Y-109714D01*
X270726Y-109728D01*
X270656Y-109756D01*
X270571Y-109785D01*
X270459Y-109813D01*
X270346Y-109827D01*
X270078Y-109883D01*
X269754Y-109940D01*
X269387Y-109968D01*
X268978Y-109982D01*
X268753D01*
X268626Y-109968D01*
X268499D01*
X268344Y-109954D01*
X268189Y-109940D01*
X267851Y-109911D01*
X267498Y-109855D01*
X267146Y-109770D01*
X266991Y-109728D01*
X266850Y-109672D01*
X266836D01*
X266821Y-109658D01*
X266737Y-109615D01*
X266596Y-109545D01*
X266441Y-109446D01*
X266258Y-109319D01*
X266060Y-109178D01*
X265877Y-109009D01*
X265708Y-108826D01*
X265694Y-108798D01*
X265637Y-108742D01*
X265567Y-108629D01*
X265482Y-108488D01*
X265398Y-108333D01*
X265299Y-108149D01*
X265229Y-107952D01*
X265158Y-107741D01*
Y-107726D01*
X265144Y-107698D01*
Y-107656D01*
X265130Y-107585D01*
X265116Y-107501D01*
X265102Y-107388D01*
X265088Y-107261D01*
X265074Y-107120D01*
X265045Y-106951D01*
X265031Y-106768D01*
X265017Y-106571D01*
X265003Y-106345D01*
X264989Y-106105D01*
Y-105837D01*
X264975Y-105555D01*
Y-105260D01*
Y-100044D01*
X266948D01*
Y-105344D01*
Y-105358D01*
Y-105400D01*
Y-105457D01*
Y-105541D01*
Y-105654D01*
Y-105767D01*
X266963Y-106021D01*
Y-106303D01*
X266977Y-106571D01*
X266991Y-106697D01*
Y-106810D01*
X267005Y-106895D01*
X267019Y-106979D01*
Y-107008D01*
X267047Y-107078D01*
X267089Y-107191D01*
X267146Y-107332D01*
X267216Y-107487D01*
X267329Y-107642D01*
X267456Y-107811D01*
X267611Y-107952D01*
X267639Y-107966D01*
X267696Y-108008D01*
X267808Y-108065D01*
X267949Y-108121D01*
X268147Y-108192D01*
X268372Y-108248D01*
X268626Y-108290D01*
X268922Y-108305D01*
X269063D01*
X269204Y-108290D01*
X269387Y-108262D01*
X269599Y-108220D01*
X269796Y-108163D01*
X270007Y-108079D01*
X270177Y-107966D01*
X270191Y-107952D01*
X270247Y-107910D01*
X270318Y-107839D01*
X270402Y-107741D01*
X270487Y-107614D01*
X270571Y-107473D01*
X270642Y-107318D01*
X270684Y-107134D01*
Y-107106D01*
X270698Y-107036D01*
X270712Y-106909D01*
X270741Y-106740D01*
Y-106627D01*
X270755Y-106500D01*
Y-106359D01*
X270769Y-106218D01*
Y-106049D01*
X270783Y-105866D01*
Y-105668D01*
Y-105457D01*
Y-100044D01*
X272756D01*
Y-105189D01*
D02*
G37*
G36*
X304841Y-109799D02*
X302712D01*
X301867Y-107585D01*
X297948D01*
X297144Y-109799D01*
X295058D01*
X298836Y-100044D01*
X300922D01*
X304841Y-109799D01*
D02*
G37*
G36*
X290406Y-101693D02*
X285148D01*
Y-103850D01*
X290039D01*
Y-105499D01*
X285148D01*
Y-108149D01*
X290589D01*
Y-109799D01*
X283174D01*
Y-100044D01*
X290406D01*
Y-101693D01*
D02*
G37*
G36*
X276859Y-108149D02*
X281764D01*
Y-109799D01*
X274885D01*
Y-100114D01*
X276859D01*
Y-108149D01*
D02*
G37*
G36*
X259167Y-100058D02*
X259435Y-100072D01*
X259731Y-100086D01*
X260041Y-100128D01*
X260337Y-100170D01*
X260605Y-100241D01*
X260619D01*
X260647Y-100255D01*
X260689Y-100269D01*
X260746Y-100283D01*
X260915Y-100354D01*
X261112Y-100452D01*
X261338Y-100579D01*
X261592Y-100734D01*
X261831Y-100918D01*
X262071Y-101143D01*
X262085D01*
X262099Y-101171D01*
X262169Y-101256D01*
X262282Y-101397D01*
X262409Y-101580D01*
X262564Y-101806D01*
X262719Y-102074D01*
X262874Y-102384D01*
X263001Y-102722D01*
Y-102736D01*
X263015Y-102764D01*
X263029Y-102821D01*
X263058Y-102891D01*
X263072Y-102976D01*
X263100Y-103089D01*
X263128Y-103215D01*
X263170Y-103356D01*
X263199Y-103511D01*
X263227Y-103695D01*
X263255Y-103878D01*
X263269Y-104089D01*
X263311Y-104527D01*
X263326Y-105020D01*
Y-105034D01*
Y-105076D01*
Y-105133D01*
Y-105217D01*
X263311Y-105330D01*
Y-105443D01*
X263297Y-105584D01*
X263283Y-105739D01*
X263255Y-106063D01*
X263199Y-106401D01*
X263114Y-106754D01*
X263015Y-107092D01*
Y-107106D01*
X263001Y-107134D01*
X262973Y-107191D01*
X262945Y-107275D01*
X262917Y-107360D01*
X262860Y-107459D01*
X262747Y-107712D01*
X262607Y-107980D01*
X262423Y-108276D01*
X262212Y-108558D01*
X261972Y-108826D01*
X261944Y-108854D01*
X261873Y-108911D01*
X261761Y-108995D01*
X261606Y-109108D01*
X261408Y-109235D01*
X261183Y-109362D01*
X260901Y-109489D01*
X260591Y-109601D01*
X260577D01*
X260562Y-109615D01*
X260520D01*
X260478Y-109630D01*
X260323Y-109658D01*
X260126Y-109700D01*
X259886Y-109742D01*
X259590Y-109770D01*
X259237Y-109785D01*
X258857Y-109799D01*
X255163D01*
Y-100044D01*
X259054D01*
X259167Y-100058D01*
D02*
G37*
G36*
X249073Y-99874D02*
X249214D01*
X249398Y-99903D01*
X249609Y-99931D01*
X249849Y-99973D01*
X250103Y-100029D01*
X250370Y-100100D01*
X250652Y-100185D01*
X250934Y-100297D01*
X251230Y-100424D01*
X251512Y-100579D01*
X251794Y-100763D01*
X252062Y-100974D01*
X252316Y-101214D01*
X252330Y-101228D01*
X252372Y-101270D01*
X252443Y-101355D01*
X252513Y-101453D01*
X252612Y-101594D01*
X252724Y-101763D01*
X252837Y-101961D01*
X252964Y-102186D01*
X253091Y-102426D01*
X253204Y-102708D01*
X253317Y-103018D01*
X253415Y-103342D01*
X253500Y-103709D01*
X253556Y-104089D01*
X253599Y-104498D01*
X253613Y-104935D01*
Y-104964D01*
Y-105034D01*
X253599Y-105161D01*
Y-105330D01*
X253570Y-105527D01*
X253542Y-105753D01*
X253500Y-106021D01*
X253458Y-106289D01*
X253387Y-106585D01*
X253302Y-106895D01*
X253190Y-107205D01*
X253063Y-107515D01*
X252922Y-107811D01*
X252739Y-108107D01*
X252541Y-108389D01*
X252316Y-108657D01*
X252302Y-108671D01*
X252259Y-108713D01*
X252189Y-108784D01*
X252076Y-108868D01*
X251949Y-108967D01*
X251794Y-109080D01*
X251611Y-109193D01*
X251413Y-109319D01*
X251174Y-109446D01*
X250920Y-109559D01*
X250638Y-109672D01*
X250328Y-109770D01*
X250004Y-109855D01*
X249651Y-109926D01*
X249285Y-109968D01*
X248890Y-109982D01*
X248792D01*
X248679Y-109968D01*
X248538Y-109954D01*
X248354Y-109940D01*
X248143Y-109911D01*
X247903Y-109869D01*
X247650Y-109813D01*
X247368Y-109742D01*
X247100Y-109658D01*
X246804Y-109545D01*
X246522Y-109418D01*
X246226Y-109277D01*
X245958Y-109094D01*
X245690Y-108897D01*
X245436Y-108657D01*
X245422Y-108643D01*
X245380Y-108601D01*
X245324Y-108516D01*
X245239Y-108417D01*
X245140Y-108276D01*
X245028Y-108107D01*
X244915Y-107924D01*
X244802Y-107698D01*
X244675Y-107459D01*
X244562Y-107177D01*
X244450Y-106881D01*
X244351Y-106556D01*
X244266Y-106204D01*
X244210Y-105823D01*
X244168Y-105415D01*
X244154Y-104992D01*
Y-104978D01*
Y-104921D01*
Y-104851D01*
X244168Y-104738D01*
Y-104611D01*
X244182Y-104470D01*
X244196Y-104301D01*
X244210Y-104118D01*
X244266Y-103723D01*
X244337Y-103300D01*
X244450Y-102877D01*
X244591Y-102482D01*
Y-102468D01*
X244605Y-102454D01*
X244633Y-102412D01*
X244647Y-102355D01*
X244732Y-102215D01*
X244830Y-102031D01*
X244957Y-101820D01*
X245112Y-101608D01*
X245295Y-101369D01*
X245493Y-101143D01*
X245507Y-101129D01*
X245521Y-101115D01*
X245592Y-101045D01*
X245718Y-100932D01*
X245873Y-100805D01*
X246057Y-100664D01*
X246268Y-100509D01*
X246508Y-100368D01*
X246761Y-100255D01*
X246776D01*
X246804Y-100241D01*
X246860Y-100213D01*
X246931Y-100199D01*
X247015Y-100156D01*
X247114Y-100128D01*
X247241Y-100100D01*
X247368Y-100058D01*
X247678Y-99987D01*
X248030Y-99917D01*
X248439Y-99874D01*
X248862Y-99860D01*
X248961D01*
X249073Y-99874D01*
D02*
G37*
G36*
X59817Y284317D02*
X58337D01*
X55306Y286953D01*
X55292Y286967D01*
X55278Y286981D01*
X55179Y287066D01*
X55052Y287178D01*
X54897Y287319D01*
X54728Y287474D01*
X54545Y287643D01*
X54389Y287784D01*
X54248Y287925D01*
Y287869D01*
X54262Y287784D01*
Y287573D01*
X54277Y287418D01*
Y287066D01*
X54291Y284570D01*
X52740D01*
Y290421D01*
X54065D01*
X57181Y287714D01*
X58210Y286769D01*
Y286840D01*
X58196Y286896D01*
Y287023D01*
X58182Y287178D01*
Y287347D01*
X58167Y287502D01*
Y290632D01*
X59817D01*
Y284317D01*
D02*
G37*
G36*
Y281074D02*
X55545D01*
Y277226D01*
X59817D01*
Y275252D01*
X50062D01*
Y277226D01*
X53896D01*
Y281074D01*
X50062D01*
Y283048D01*
X59817D01*
Y281074D01*
D02*
G37*
G36*
Y271432D02*
X52148Y271418D01*
X59817Y269501D01*
Y267598D01*
X52148Y265680D01*
X59817D01*
Y263862D01*
X50062D01*
Y266808D01*
X56729Y268556D01*
X50062Y270290D01*
Y273250D01*
X59817D01*
Y271432D01*
D02*
G37*
G36*
X55461Y258406D02*
X55686Y258392D01*
X55954Y258364D01*
X56236Y258336D01*
X56546Y258308D01*
X56870Y258251D01*
X57209Y258181D01*
X57533Y258110D01*
X57857Y258011D01*
X58182Y257913D01*
X58478Y257772D01*
X58759Y257631D01*
X58999Y257462D01*
X59013Y257448D01*
X59041Y257419D01*
X59098Y257377D01*
X59154Y257321D01*
X59225Y257236D01*
X59309Y257138D01*
X59408Y257011D01*
X59493Y256884D01*
X59591Y256729D01*
X59690Y256574D01*
X59774Y256390D01*
X59845Y256193D01*
X59901Y255982D01*
X59958Y255742D01*
X59986Y255502D01*
X60000Y255249D01*
Y255192D01*
X59986Y255108D01*
Y255009D01*
X59972Y254896D01*
X59944Y254755D01*
X59915Y254600D01*
X59859Y254431D01*
X59803Y254248D01*
X59732Y254064D01*
X59648Y253867D01*
X59535Y253684D01*
X59422Y253486D01*
X59267Y253303D01*
X59112Y253120D01*
X58914Y252951D01*
X58900Y252937D01*
X58858Y252908D01*
X58788Y252866D01*
X58703Y252824D01*
X58576Y252753D01*
X58421Y252683D01*
X58224Y252598D01*
X58012Y252528D01*
X57759Y252443D01*
X57477Y252359D01*
X57152Y252288D01*
X56800Y252232D01*
X56405Y252175D01*
X55968Y252133D01*
X55503Y252105D01*
X54996Y252091D01*
X54981D01*
X54967D01*
X54925D01*
X54869D01*
X54728D01*
X54545Y252105D01*
X54319Y252119D01*
X54051Y252147D01*
X53769Y252175D01*
X53459Y252204D01*
X53135Y252260D01*
X52811Y252316D01*
X52472Y252401D01*
X52148Y252486D01*
X51838Y252598D01*
X51542Y252725D01*
X51260Y252866D01*
X51020Y253035D01*
X51006Y253049D01*
X50978Y253078D01*
X50922Y253120D01*
X50865Y253190D01*
X50781Y253261D01*
X50696Y253360D01*
X50611Y253486D01*
X50513Y253613D01*
X50414Y253768D01*
X50329Y253923D01*
X50245Y254107D01*
X50160Y254304D01*
X50104Y254515D01*
X50047Y254755D01*
X50019Y254995D01*
X50005Y255249D01*
Y255389D01*
X50019Y255488D01*
X50033Y255601D01*
X50062Y255742D01*
X50090Y255883D01*
X50132Y256052D01*
X50188Y256235D01*
X50259Y256404D01*
X50329Y256588D01*
X50428Y256771D01*
X50555Y256954D01*
X50682Y257138D01*
X50837Y257307D01*
X51020Y257462D01*
X51034Y257476D01*
X51077Y257504D01*
X51147Y257546D01*
X51246Y257617D01*
X51387Y257687D01*
X51556Y257772D01*
X51739Y257857D01*
X51979Y257941D01*
X52233Y258026D01*
X52529Y258124D01*
X52853Y258195D01*
X53219Y258265D01*
X53614Y258336D01*
X54037Y258378D01*
X54502Y258406D01*
X55010Y258420D01*
X55024D01*
X55038D01*
X55080D01*
X55136D01*
X55278D01*
X55461Y258406D01*
D02*
G37*
G36*
X59817Y247411D02*
X52754D01*
X52768Y247397D01*
X52796Y247368D01*
X52839Y247312D01*
X52909Y247227D01*
X52994Y247129D01*
X53078Y247016D01*
X53177Y246875D01*
X53290Y246720D01*
X53403Y246551D01*
X53515Y246367D01*
X53642Y246170D01*
X53755Y245959D01*
X53966Y245508D01*
X54164Y245000D01*
X52472D01*
Y245014D01*
X52458Y245028D01*
X52444Y245070D01*
X52430Y245127D01*
X52359Y245268D01*
X52275Y245465D01*
X52162Y245705D01*
X52007Y245973D01*
X51810Y246269D01*
X51584Y246579D01*
X51570Y246593D01*
X51556Y246621D01*
X51514Y246663D01*
X51457Y246720D01*
X51316Y246875D01*
X51133Y247044D01*
X50907Y247241D01*
X50626Y247439D01*
X50329Y247622D01*
X50005Y247763D01*
Y249286D01*
X59817D01*
Y247411D01*
D02*
G37*
G36*
X52437Y324853D02*
X60543D01*
Y322879D01*
X52437D01*
Y319990D01*
X50788D01*
Y327729D01*
X52437D01*
Y324853D01*
D02*
G37*
G36*
X60543Y316620D02*
X54114Y312659D01*
X60543D01*
Y310841D01*
X50788D01*
Y312744D01*
X57357Y316775D01*
X50788D01*
Y318594D01*
X60543D01*
Y316620D01*
D02*
G37*
G36*
Y307655D02*
X58329Y306809D01*
Y302890D01*
X60543Y302086D01*
Y300000D01*
X50788Y303778D01*
Y305864D01*
X60543Y309783D01*
Y307655D01*
D02*
G37*
G36*
X51711Y230022D02*
X59817D01*
Y228049D01*
X51711D01*
Y225159D01*
X50062D01*
Y232898D01*
X51711D01*
Y230022D01*
D02*
G37*
G36*
X55799Y223749D02*
X55982D01*
X56166D01*
X56574Y223721D01*
X56997Y223693D01*
X57181Y223678D01*
X57364Y223650D01*
X57533Y223622D01*
X57688Y223594D01*
X57702D01*
X57716Y223580D01*
X57759D01*
X57801Y223566D01*
X57942Y223524D01*
X58111Y223467D01*
X58308Y223382D01*
X58506Y223284D01*
X58717Y223157D01*
X58914Y223002D01*
X58943Y222988D01*
X58999Y222931D01*
X59084Y222833D01*
X59197Y222706D01*
X59323Y222537D01*
X59450Y222339D01*
X59591Y222114D01*
X59704Y221860D01*
Y221846D01*
X59718Y221832D01*
X59732Y221789D01*
X59746Y221733D01*
X59774Y221663D01*
X59803Y221578D01*
X59831Y221465D01*
X59845Y221353D01*
X59901Y221085D01*
X59958Y220760D01*
X59986Y220394D01*
X60000Y219985D01*
Y219760D01*
X59986Y219633D01*
Y219506D01*
X59972Y219351D01*
X59958Y219196D01*
X59929Y218857D01*
X59873Y218505D01*
X59789Y218153D01*
X59746Y217997D01*
X59690Y217857D01*
Y217842D01*
X59676Y217828D01*
X59633Y217744D01*
X59563Y217603D01*
X59464Y217448D01*
X59337Y217264D01*
X59197Y217067D01*
X59027Y216884D01*
X58844Y216715D01*
X58816Y216700D01*
X58759Y216644D01*
X58647Y216574D01*
X58506Y216489D01*
X58351Y216404D01*
X58167Y216306D01*
X57970Y216235D01*
X57759Y216165D01*
X57744D01*
X57716Y216151D01*
X57674D01*
X57604Y216137D01*
X57519Y216122D01*
X57406Y216108D01*
X57279Y216094D01*
X57138Y216080D01*
X56969Y216052D01*
X56786Y216038D01*
X56589Y216024D01*
X56363Y216010D01*
X56123Y215996D01*
X55855D01*
X55574Y215982D01*
X55278D01*
X50062D01*
Y217955D01*
X55362D01*
X55376D01*
X55419D01*
X55475D01*
X55560D01*
X55672D01*
X55785D01*
X56039Y217969D01*
X56321D01*
X56589Y217983D01*
X56715Y217997D01*
X56828D01*
X56913Y218011D01*
X56997Y218026D01*
X57025D01*
X57096Y218054D01*
X57209Y218096D01*
X57350Y218153D01*
X57505Y218223D01*
X57660Y218336D01*
X57829Y218463D01*
X57970Y218618D01*
X57984Y218646D01*
X58026Y218702D01*
X58083Y218815D01*
X58139Y218956D01*
X58210Y219153D01*
X58266Y219379D01*
X58308Y219633D01*
X58323Y219929D01*
Y220070D01*
X58308Y220211D01*
X58280Y220394D01*
X58238Y220605D01*
X58182Y220803D01*
X58097Y221014D01*
X57984Y221183D01*
X57970Y221197D01*
X57928Y221254D01*
X57857Y221324D01*
X57759Y221409D01*
X57632Y221493D01*
X57491Y221578D01*
X57336Y221649D01*
X57152Y221691D01*
X57124D01*
X57054Y221705D01*
X56927Y221719D01*
X56758Y221747D01*
X56645D01*
X56518Y221761D01*
X56377D01*
X56236Y221775D01*
X56067D01*
X55884Y221789D01*
X55686D01*
X55475D01*
X50062D01*
Y223763D01*
X55207D01*
X55221D01*
X55278D01*
X55376D01*
X55489D01*
X55630D01*
X55799Y223749D01*
D02*
G37*
G36*
X55179Y214445D02*
X55348D01*
X55545Y214417D01*
X55771Y214389D01*
X56039Y214346D01*
X56307Y214304D01*
X56603Y214233D01*
X56913Y214149D01*
X57223Y214036D01*
X57533Y213909D01*
X57829Y213768D01*
X58125Y213585D01*
X58407Y213388D01*
X58675Y213162D01*
X58689Y213148D01*
X58731Y213106D01*
X58802Y213035D01*
X58886Y212922D01*
X58985Y212796D01*
X59098Y212641D01*
X59211Y212457D01*
X59337Y212260D01*
X59464Y212020D01*
X59577Y211767D01*
X59690Y211485D01*
X59789Y211175D01*
X59873Y210850D01*
X59944Y210498D01*
X59986Y210131D01*
X60000Y209737D01*
Y209638D01*
X59986Y209525D01*
X59972Y209384D01*
X59958Y209201D01*
X59929Y208989D01*
X59887Y208750D01*
X59831Y208496D01*
X59760Y208214D01*
X59676Y207946D01*
X59563Y207650D01*
X59436Y207368D01*
X59295Y207072D01*
X59112Y206804D01*
X58914Y206537D01*
X58675Y206283D01*
X58661Y206269D01*
X58618Y206226D01*
X58534Y206170D01*
X58435Y206085D01*
X58294Y205987D01*
X58125Y205874D01*
X57942Y205761D01*
X57716Y205648D01*
X57477Y205522D01*
X57195Y205409D01*
X56899Y205296D01*
X56574Y205197D01*
X56222Y205113D01*
X55841Y205056D01*
X55433Y205014D01*
X55010Y205000D01*
X54996D01*
X54939D01*
X54869D01*
X54756Y205014D01*
X54629D01*
X54488Y205028D01*
X54319Y205042D01*
X54136Y205056D01*
X53741Y205113D01*
X53318Y205183D01*
X52895Y205296D01*
X52500Y205437D01*
X52486D01*
X52472Y205451D01*
X52430Y205479D01*
X52373Y205493D01*
X52233Y205578D01*
X52049Y205677D01*
X51838Y205804D01*
X51626Y205959D01*
X51387Y206142D01*
X51161Y206339D01*
X51147Y206353D01*
X51133Y206367D01*
X51062Y206438D01*
X50950Y206565D01*
X50823Y206720D01*
X50682Y206903D01*
X50527Y207115D01*
X50386Y207354D01*
X50273Y207608D01*
Y207622D01*
X50259Y207650D01*
X50231Y207707D01*
X50217Y207777D01*
X50174Y207862D01*
X50146Y207960D01*
X50118Y208087D01*
X50076Y208214D01*
X50005Y208524D01*
X49935Y208877D01*
X49893Y209286D01*
X49878Y209708D01*
Y209807D01*
X49893Y209920D01*
Y210061D01*
X49921Y210244D01*
X49949Y210455D01*
X49991Y210695D01*
X50047Y210949D01*
X50118Y211217D01*
X50203Y211499D01*
X50315Y211781D01*
X50442Y212077D01*
X50597Y212359D01*
X50781Y212641D01*
X50992Y212908D01*
X51232Y213162D01*
X51246Y213176D01*
X51288Y213218D01*
X51373Y213289D01*
X51471Y213360D01*
X51612Y213458D01*
X51782Y213571D01*
X51979Y213684D01*
X52204Y213811D01*
X52444Y213937D01*
X52726Y214050D01*
X53036Y214163D01*
X53360Y214262D01*
X53727Y214346D01*
X54107Y214403D01*
X54516Y214445D01*
X54953Y214459D01*
X54981D01*
X55052D01*
X55179Y214445D01*
D02*
G37*
G36*
X60274Y175872D02*
X53846Y171911D01*
X60274D01*
Y170093D01*
X50519D01*
Y171996D01*
X57088Y176028D01*
X50519D01*
Y177846D01*
X60274D01*
Y175872D01*
D02*
G37*
G36*
Y166230D02*
X50519D01*
Y168204D01*
X60274D01*
Y166230D01*
D02*
G37*
%LPC*%
G36*
X54911Y124549D02*
X54897D01*
X54840D01*
X54756D01*
X54629Y124535D01*
X54488Y124521D01*
X54333Y124507D01*
X54150Y124493D01*
X53966Y124450D01*
X53558Y124366D01*
X53135Y124239D01*
X52923Y124154D01*
X52740Y124056D01*
X52557Y123929D01*
X52387Y123802D01*
X52373Y123788D01*
X52345Y123774D01*
X52317Y123731D01*
X52261Y123675D01*
X52190Y123590D01*
X52120Y123506D01*
X52049Y123407D01*
X51965Y123280D01*
X51894Y123153D01*
X51824Y122998D01*
X51683Y122674D01*
X51626Y122491D01*
X51598Y122294D01*
X51570Y122082D01*
X51556Y121856D01*
Y121744D01*
X51570Y121659D01*
X51584Y121546D01*
X51598Y121434D01*
X51655Y121152D01*
X51767Y120842D01*
X51824Y120672D01*
X51908Y120503D01*
X52007Y120348D01*
X52120Y120179D01*
X52246Y120024D01*
X52402Y119883D01*
X52416Y119869D01*
X52444Y119855D01*
X52486Y119812D01*
X52557Y119770D01*
X52655Y119714D01*
X52754Y119657D01*
X52881Y119587D01*
X53036Y119516D01*
X53205Y119446D01*
X53388Y119375D01*
X53600Y119319D01*
X53825Y119263D01*
X54079Y119220D01*
X54347Y119178D01*
X54629Y119164D01*
X54939Y119150D01*
X54953D01*
X55009D01*
X55094D01*
X55207Y119164D01*
X55348Y119178D01*
X55517Y119192D01*
X55686Y119220D01*
X55884Y119249D01*
X56292Y119333D01*
X56701Y119474D01*
X56913Y119559D01*
X57110Y119657D01*
X57293Y119784D01*
X57462Y119911D01*
X57477Y119925D01*
X57505Y119953D01*
X57547Y119996D01*
X57589Y120052D01*
X57660Y120123D01*
X57730Y120221D01*
X57815Y120320D01*
X57885Y120447D01*
X58054Y120715D01*
X58181Y121053D01*
X58238Y121236D01*
X58280Y121434D01*
X58308Y121645D01*
X58322Y121856D01*
Y121969D01*
X58308Y122054D01*
X58294Y122153D01*
X58280Y122265D01*
X58210Y122533D01*
X58111Y122843D01*
X58040Y122998D01*
X57970Y123167D01*
X57871Y123323D01*
X57758Y123492D01*
X57632Y123647D01*
X57477Y123788D01*
X57462Y123802D01*
X57434Y123816D01*
X57392Y123858D01*
X57321Y123901D01*
X57223Y123971D01*
X57110Y124027D01*
X56983Y124098D01*
X56828Y124168D01*
X56659Y124239D01*
X56476Y124309D01*
X56264Y124380D01*
X56024Y124436D01*
X55785Y124479D01*
X55517Y124521D01*
X55221Y124535D01*
X54911Y124549D01*
D02*
G37*
G36*
X437138Y307669D02*
X437118Y307663D01*
X437058Y307656D01*
X436965Y307630D01*
X436852Y307583D01*
X436779Y307550D01*
X436699Y307510D01*
X436613Y307463D01*
X436533Y307410D01*
X436440Y307344D01*
X436340Y307271D01*
X436241Y307184D01*
X436141Y307085D01*
X436134Y307078D01*
X436114Y307058D01*
X436088Y307031D01*
X436061Y306992D01*
X436015Y306945D01*
X435968Y306885D01*
X435862Y306752D01*
X435755Y306606D01*
X435662Y306433D01*
X435583Y306261D01*
X435563Y306174D01*
X435549Y306094D01*
X435543Y306074D01*
X435549Y306015D01*
X435563Y305935D01*
X435576Y305828D01*
X435609Y305702D01*
X435676Y305569D01*
X435762Y305430D01*
X435875Y305290D01*
X435908Y305257D01*
X435941Y305237D01*
X436015Y305177D01*
X436107Y305111D01*
X436227Y305058D01*
X436360Y305005D01*
X436506Y304965D01*
X436666D01*
X436686Y304971D01*
X436745Y304978D01*
X436785Y304991D01*
X436838Y305005D01*
X436898Y305025D01*
X436965Y305051D01*
X437031Y305091D01*
X437111Y305131D01*
X437204Y305184D01*
X437290Y305244D01*
X437390Y305317D01*
X437496Y305397D01*
X437603Y305490D01*
X437716Y305603D01*
X437722Y305609D01*
X437736Y305623D01*
X437762Y305649D01*
X437802Y305689D01*
X437835Y305735D01*
X437875Y305789D01*
X437975Y305915D01*
X438068Y306061D01*
X438161Y306221D01*
X438227Y306393D01*
X438254Y306566D01*
X438261Y306586D01*
X438254Y306646D01*
X438241Y306726D01*
X438227Y306832D01*
X438194Y306958D01*
X438128Y307091D01*
X438041Y307231D01*
X437928Y307370D01*
X437915Y307384D01*
X437869Y307417D01*
X437795Y307477D01*
X437702Y307530D01*
X437589Y307590D01*
X437450Y307636D01*
X437297Y307669D01*
X437138D01*
D02*
G37*
G36*
X318447Y327208D02*
X317637Y326397D01*
X317962Y326072D01*
X318029Y326019D01*
X318102Y325959D01*
X318188Y325899D01*
X318288Y325839D01*
X318381Y325799D01*
X318474Y325773D01*
X318487D01*
X318514D01*
X318561Y325779D01*
X318620Y325786D01*
X318687Y325799D01*
X318760Y325832D01*
X318826Y325872D01*
X318899Y325932D01*
X318906Y325939D01*
X318926Y325959D01*
X318953Y325999D01*
X318986Y326045D01*
X319019Y326105D01*
X319046Y326185D01*
X319065Y326258D01*
X319072Y326344D01*
Y326357D01*
Y326384D01*
X319059Y326437D01*
X319039Y326497D01*
X318999Y326577D01*
X318946Y326670D01*
X318866Y326776D01*
X318766Y326889D01*
X318447Y327208D01*
D02*
G37*
G36*
X322122Y323533D02*
X321312Y322723D01*
X321637Y322397D01*
X321704Y322344D01*
X321777Y322284D01*
X321863Y322224D01*
X321963Y322164D01*
X322056Y322124D01*
X322149Y322098D01*
X322162D01*
X322189D01*
X322235Y322104D01*
X322295Y322111D01*
X322362Y322124D01*
X322435Y322158D01*
X322501Y322197D01*
X322574Y322257D01*
X322581Y322264D01*
X322601Y322284D01*
X322627Y322324D01*
X322661Y322370D01*
X322694Y322430D01*
X322720Y322510D01*
X322740Y322583D01*
X322747Y322669D01*
Y322683D01*
Y322709D01*
X322734Y322762D01*
X322714Y322822D01*
X322674Y322902D01*
X322621Y322995D01*
X322541Y323101D01*
X322441Y323214D01*
X322122Y323533D01*
D02*
G37*
G36*
X380946Y267795D02*
X379480D01*
Y265018D01*
X380834D01*
X380932Y265032D01*
X381186D01*
X381440Y265046D01*
X381693Y265074D01*
X381919Y265116D01*
X382018Y265131D01*
X382102Y265159D01*
X382117Y265173D01*
X382173Y265187D01*
X382243Y265229D01*
X382328Y265271D01*
X382427Y265342D01*
X382525Y265427D01*
X382638Y265525D01*
X382723Y265638D01*
X382737Y265652D01*
X382765Y265694D01*
X382793Y265765D01*
X382835Y265864D01*
X382878Y265976D01*
X382920Y266103D01*
X382934Y266244D01*
X382948Y266399D01*
Y266427D01*
Y266484D01*
X382934Y266583D01*
X382906Y266709D01*
X382864Y266850D01*
X382807Y267005D01*
X382737Y267146D01*
X382624Y267287D01*
X382610Y267302D01*
X382568Y267344D01*
X382497Y267400D01*
X382412Y267471D01*
X382300Y267555D01*
X382159Y267626D01*
X382004Y267682D01*
X381834Y267724D01*
X381820D01*
X381764Y267738D01*
X381665Y267753D01*
X381524Y267767D01*
X381341D01*
X381214Y267781D01*
X381087D01*
X380946Y267795D01*
D02*
G37*
G36*
X367131D02*
X365849D01*
Y261338D01*
X367583D01*
X367766Y261353D01*
X367963D01*
X368160Y261381D01*
X368344Y261395D01*
X368499Y261423D01*
X368527D01*
X368583Y261451D01*
X368668Y261479D01*
X368781Y261522D01*
X368908Y261578D01*
X369034Y261649D01*
X369161Y261733D01*
X369288Y261832D01*
X369302Y261846D01*
X369345Y261888D01*
X369401Y261959D01*
X369471Y262057D01*
X369542Y262184D01*
X369641Y262339D01*
X369711Y262537D01*
X369796Y262762D01*
Y262776D01*
X369810Y262790D01*
Y262833D01*
X369824Y262889D01*
X369852Y262945D01*
X369866Y263030D01*
X369908Y263242D01*
X369937Y263495D01*
X369979Y263791D01*
X369993Y264158D01*
X370007Y264553D01*
Y264567D01*
Y264609D01*
Y264665D01*
Y264736D01*
Y264834D01*
X369993Y264947D01*
X369979Y265187D01*
X369951Y265469D01*
X369923Y265765D01*
X369866Y266033D01*
X369796Y266287D01*
Y266301D01*
X369782Y266315D01*
X369753Y266385D01*
X369711Y266498D01*
X369655Y266639D01*
X369570Y266780D01*
X369471Y266935D01*
X369359Y267090D01*
X369232Y267231D01*
X369218Y267245D01*
X369175Y267287D01*
X369091Y267344D01*
X368992Y267414D01*
X368851Y267499D01*
X368696Y267569D01*
X368527Y267640D01*
X368330Y267696D01*
X368316D01*
X368245Y267710D01*
X368132Y267724D01*
X367977Y267753D01*
X367878D01*
X367752Y267767D01*
X367625D01*
X367484Y267781D01*
X367315D01*
X367131Y267795D01*
D02*
G37*
G36*
X483077Y272721D02*
X481752Y269098D01*
X484445D01*
X483077Y272721D01*
D02*
G37*
G36*
X165925Y324985D02*
X164600Y321362D01*
X167292D01*
X165925Y324985D01*
D02*
G37*
G36*
X68175Y196443D02*
X68147D01*
X68091D01*
X67992Y196429D01*
X67865Y196401D01*
X67724Y196358D01*
X67569Y196302D01*
X67428Y196231D01*
X67287Y196119D01*
X67273Y196105D01*
X67231Y196062D01*
X67174Y195992D01*
X67104Y195907D01*
X67019Y195794D01*
X66949Y195653D01*
X66892Y195498D01*
X66850Y195329D01*
Y195315D01*
X66836Y195259D01*
X66822Y195160D01*
X66808Y195019D01*
Y194836D01*
X66794Y194709D01*
Y194582D01*
X66780Y194441D01*
Y192975D01*
X69557D01*
Y194328D01*
X69543Y194427D01*
Y194681D01*
X69528Y194934D01*
X69500Y195188D01*
X69458Y195414D01*
X69444Y195512D01*
X69416Y195597D01*
X69402Y195611D01*
X69387Y195667D01*
X69345Y195738D01*
X69303Y195823D01*
X69232Y195921D01*
X69148Y196020D01*
X69049Y196133D01*
X68936Y196217D01*
X68922Y196231D01*
X68880Y196259D01*
X68809Y196288D01*
X68711Y196330D01*
X68598Y196372D01*
X68471Y196415D01*
X68330Y196429D01*
X68175Y196443D01*
D02*
G37*
G36*
Y187350D02*
X68147D01*
X68091D01*
X67992Y187336D01*
X67865Y187308D01*
X67724Y187266D01*
X67569Y187209D01*
X67428Y187139D01*
X67287Y187026D01*
X67273Y187012D01*
X67231Y186970D01*
X67174Y186899D01*
X67104Y186814D01*
X67019Y186702D01*
X66949Y186561D01*
X66892Y186406D01*
X66850Y186237D01*
Y186222D01*
X66836Y186166D01*
X66822Y186067D01*
X66808Y185926D01*
Y185743D01*
X66794Y185616D01*
Y185489D01*
X66780Y185348D01*
Y183882D01*
X69557D01*
Y185236D01*
X69543Y185334D01*
Y185588D01*
X69528Y185842D01*
X69500Y186096D01*
X69458Y186321D01*
X69444Y186420D01*
X69416Y186504D01*
X69402Y186518D01*
X69387Y186575D01*
X69345Y186645D01*
X69303Y186730D01*
X69232Y186829D01*
X69148Y186927D01*
X69049Y187040D01*
X68936Y187125D01*
X68922Y187139D01*
X68880Y187167D01*
X68809Y187195D01*
X68711Y187237D01*
X68598Y187280D01*
X68471Y187322D01*
X68330Y187336D01*
X68175Y187350D01*
D02*
G37*
G36*
X485158Y-101665D02*
X483198D01*
Y-103920D01*
X485087D01*
X485327Y-103906D01*
X485764D01*
X485849Y-103892D01*
X485933D01*
X485989Y-103878D01*
X486074Y-103864D01*
X486201Y-103822D01*
X486328Y-103779D01*
X486455Y-103723D01*
X486582Y-103652D01*
X486694Y-103554D01*
X486708Y-103540D01*
X486737Y-103497D01*
X486793Y-103441D01*
X486849Y-103342D01*
X486892Y-103230D01*
X486948Y-103103D01*
X486976Y-102948D01*
X486990Y-102778D01*
Y-102764D01*
Y-102708D01*
X486976Y-102623D01*
X486962Y-102511D01*
X486934Y-102398D01*
X486878Y-102285D01*
X486821Y-102158D01*
X486737Y-102045D01*
X486722Y-102031D01*
X486694Y-102003D01*
X486624Y-101947D01*
X486553Y-101890D01*
X486441Y-101834D01*
X486314Y-101777D01*
X486159Y-101735D01*
X485989Y-101707D01*
X485975D01*
X485919Y-101693D01*
X485764D01*
X485679Y-101679D01*
X485313D01*
X485158Y-101665D01*
D02*
G37*
G36*
X485242Y-105541D02*
X483198D01*
Y-108149D01*
X485369D01*
X485581Y-108135D01*
X485806D01*
X486032Y-108121D01*
X486215Y-108107D01*
X486300D01*
X486356Y-108093D01*
X486370D01*
X486427Y-108079D01*
X486511Y-108051D01*
X486610Y-108022D01*
X486722Y-107966D01*
X486849Y-107896D01*
X486962Y-107811D01*
X487075Y-107712D01*
X487089Y-107698D01*
X487117Y-107656D01*
X487160Y-107585D01*
X487216Y-107487D01*
X487272Y-107374D01*
X487315Y-107233D01*
X487343Y-107064D01*
X487357Y-106881D01*
Y-106867D01*
Y-106810D01*
X487343Y-106726D01*
X487329Y-106627D01*
X487300Y-106500D01*
X487258Y-106387D01*
X487202Y-106260D01*
X487131Y-106133D01*
X487117Y-106119D01*
X487089Y-106077D01*
X487047Y-106021D01*
X486976Y-105964D01*
X486892Y-105880D01*
X486779Y-105809D01*
X486652Y-105739D01*
X486511Y-105682D01*
X486497D01*
X486427Y-105654D01*
X486314Y-105640D01*
X486243Y-105626D01*
X486145Y-105612D01*
X486046Y-105598D01*
X485919Y-105584D01*
X485778Y-105570D01*
X485609D01*
X485440Y-105555D01*
X485242Y-105541D01*
D02*
G37*
G36*
X443586Y-101693D02*
X442303D01*
Y-108149D01*
X444037D01*
X444220Y-108135D01*
X444417D01*
X444615Y-108107D01*
X444798Y-108093D01*
X444953Y-108065D01*
X444981D01*
X445038Y-108037D01*
X445122Y-108008D01*
X445235Y-107966D01*
X445362Y-107910D01*
X445489Y-107839D01*
X445616Y-107755D01*
X445743Y-107656D01*
X445757Y-107642D01*
X445799Y-107600D01*
X445855Y-107529D01*
X445926Y-107430D01*
X445996Y-107304D01*
X446095Y-107149D01*
X446166Y-106951D01*
X446250Y-106726D01*
Y-106712D01*
X446264Y-106697D01*
Y-106655D01*
X446278Y-106599D01*
X446306Y-106542D01*
X446320Y-106458D01*
X446363Y-106246D01*
X446391Y-105992D01*
X446433Y-105696D01*
X446447Y-105330D01*
X446461Y-104935D01*
Y-104921D01*
Y-104879D01*
Y-104823D01*
Y-104752D01*
Y-104653D01*
X446447Y-104541D01*
X446433Y-104301D01*
X446405Y-104019D01*
X446377Y-103723D01*
X446320Y-103455D01*
X446250Y-103201D01*
Y-103187D01*
X446236Y-103173D01*
X446208Y-103103D01*
X446166Y-102990D01*
X446109Y-102849D01*
X446025Y-102708D01*
X445926Y-102553D01*
X445813Y-102398D01*
X445686Y-102257D01*
X445672Y-102243D01*
X445630Y-102200D01*
X445545Y-102144D01*
X445447Y-102074D01*
X445306Y-101989D01*
X445150Y-101918D01*
X444981Y-101848D01*
X444784Y-101792D01*
X444770D01*
X444699Y-101777D01*
X444587Y-101763D01*
X444431Y-101735D01*
X444333D01*
X444206Y-101721D01*
X444079D01*
X443938Y-101707D01*
X443769D01*
X443586Y-101693D01*
D02*
G37*
G36*
X434056Y-101538D02*
X433943D01*
X433859Y-101552D01*
X433746Y-101566D01*
X433633Y-101580D01*
X433351Y-101637D01*
X433041Y-101749D01*
X432872Y-101806D01*
X432703Y-101890D01*
X432548Y-101989D01*
X432379Y-102102D01*
X432224Y-102229D01*
X432083Y-102384D01*
X432068Y-102398D01*
X432054Y-102426D01*
X432012Y-102468D01*
X431970Y-102539D01*
X431913Y-102638D01*
X431857Y-102736D01*
X431786Y-102863D01*
X431716Y-103018D01*
X431646Y-103187D01*
X431575Y-103371D01*
X431519Y-103582D01*
X431462Y-103807D01*
X431420Y-104061D01*
X431378Y-104329D01*
X431364Y-104611D01*
X431349Y-104921D01*
Y-104935D01*
Y-104992D01*
Y-105076D01*
X431364Y-105189D01*
X431378Y-105330D01*
X431392Y-105499D01*
X431420Y-105668D01*
X431448Y-105866D01*
X431533Y-106274D01*
X431674Y-106683D01*
X431758Y-106895D01*
X431857Y-107092D01*
X431984Y-107275D01*
X432111Y-107444D01*
X432125Y-107459D01*
X432153Y-107487D01*
X432195Y-107529D01*
X432252Y-107571D01*
X432322Y-107642D01*
X432421Y-107712D01*
X432520Y-107797D01*
X432646Y-107867D01*
X432914Y-108037D01*
X433253Y-108163D01*
X433436Y-108220D01*
X433633Y-108262D01*
X433845Y-108290D01*
X434056Y-108305D01*
X434169D01*
X434254Y-108290D01*
X434352Y-108276D01*
X434465Y-108262D01*
X434733Y-108192D01*
X435043Y-108093D01*
X435198Y-108022D01*
X435367Y-107952D01*
X435522Y-107853D01*
X435691Y-107741D01*
X435846Y-107614D01*
X435987Y-107459D01*
X436002Y-107444D01*
X436016Y-107416D01*
X436058Y-107374D01*
X436100Y-107304D01*
X436171Y-107205D01*
X436227Y-107092D01*
X436298Y-106965D01*
X436368Y-106810D01*
X436438Y-106641D01*
X436509Y-106458D01*
X436580Y-106246D01*
X436636Y-106007D01*
X436678Y-105767D01*
X436721Y-105499D01*
X436735Y-105203D01*
X436749Y-104893D01*
Y-104879D01*
Y-104823D01*
Y-104738D01*
X436735Y-104611D01*
X436721Y-104470D01*
X436706Y-104315D01*
X436692Y-104132D01*
X436650Y-103948D01*
X436565Y-103540D01*
X436438Y-103117D01*
X436354Y-102905D01*
X436255Y-102722D01*
X436128Y-102539D01*
X436002Y-102370D01*
X435987Y-102355D01*
X435973Y-102327D01*
X435931Y-102299D01*
X435875Y-102243D01*
X435790Y-102172D01*
X435705Y-102102D01*
X435607Y-102031D01*
X435480Y-101947D01*
X435353Y-101876D01*
X435198Y-101806D01*
X434874Y-101665D01*
X434691Y-101608D01*
X434493Y-101580D01*
X434282Y-101552D01*
X434056Y-101538D01*
D02*
G37*
G36*
X299865Y-102313D02*
X298540Y-105936D01*
X301232D01*
X299865Y-102313D01*
D02*
G37*
G36*
X258420Y-101693D02*
X257137D01*
Y-108149D01*
X258871D01*
X259054Y-108135D01*
X259251D01*
X259449Y-108107D01*
X259632Y-108093D01*
X259787Y-108065D01*
X259815D01*
X259872Y-108037D01*
X259956Y-108008D01*
X260069Y-107966D01*
X260196Y-107910D01*
X260323Y-107839D01*
X260450Y-107755D01*
X260577Y-107656D01*
X260591Y-107642D01*
X260633Y-107600D01*
X260689Y-107529D01*
X260760Y-107430D01*
X260830Y-107304D01*
X260929Y-107149D01*
X261000Y-106951D01*
X261084Y-106726D01*
Y-106712D01*
X261098Y-106697D01*
Y-106655D01*
X261112Y-106599D01*
X261140Y-106542D01*
X261154Y-106458D01*
X261197Y-106246D01*
X261225Y-105992D01*
X261267Y-105696D01*
X261281Y-105330D01*
X261296Y-104935D01*
Y-104921D01*
Y-104879D01*
Y-104823D01*
Y-104752D01*
Y-104653D01*
X261281Y-104541D01*
X261267Y-104301D01*
X261239Y-104019D01*
X261211Y-103723D01*
X261154Y-103455D01*
X261084Y-103201D01*
Y-103187D01*
X261070Y-103173D01*
X261042Y-103103D01*
X261000Y-102990D01*
X260943Y-102849D01*
X260858Y-102708D01*
X260760Y-102553D01*
X260647Y-102398D01*
X260520Y-102257D01*
X260506Y-102243D01*
X260464Y-102200D01*
X260379Y-102144D01*
X260280Y-102074D01*
X260140Y-101989D01*
X259984Y-101918D01*
X259815Y-101848D01*
X259618Y-101792D01*
X259604D01*
X259533Y-101777D01*
X259421Y-101763D01*
X259265Y-101735D01*
X259167D01*
X259040Y-101721D01*
X258913D01*
X258772Y-101707D01*
X258603D01*
X258420Y-101693D01*
D02*
G37*
G36*
X248890Y-101538D02*
X248777D01*
X248693Y-101552D01*
X248580Y-101566D01*
X248467Y-101580D01*
X248185Y-101637D01*
X247875Y-101749D01*
X247706Y-101806D01*
X247537Y-101890D01*
X247382Y-101989D01*
X247213Y-102102D01*
X247057Y-102229D01*
X246917Y-102384D01*
X246903Y-102398D01*
X246888Y-102426D01*
X246846Y-102468D01*
X246804Y-102539D01*
X246747Y-102638D01*
X246691Y-102736D01*
X246621Y-102863D01*
X246550Y-103018D01*
X246480Y-103187D01*
X246409Y-103371D01*
X246353Y-103582D01*
X246296Y-103807D01*
X246254Y-104061D01*
X246212Y-104329D01*
X246198Y-104611D01*
X246183Y-104921D01*
Y-104935D01*
Y-104992D01*
Y-105076D01*
X246198Y-105189D01*
X246212Y-105330D01*
X246226Y-105499D01*
X246254Y-105668D01*
X246282Y-105866D01*
X246367Y-106274D01*
X246508Y-106683D01*
X246592Y-106895D01*
X246691Y-107092D01*
X246818Y-107275D01*
X246945Y-107444D01*
X246959Y-107459D01*
X246987Y-107487D01*
X247029Y-107529D01*
X247086Y-107571D01*
X247156Y-107642D01*
X247255Y-107712D01*
X247354Y-107797D01*
X247481Y-107867D01*
X247748Y-108037D01*
X248087Y-108163D01*
X248270Y-108220D01*
X248467Y-108262D01*
X248679Y-108290D01*
X248890Y-108305D01*
X249003D01*
X249088Y-108290D01*
X249186Y-108276D01*
X249299Y-108262D01*
X249567Y-108192D01*
X249877Y-108093D01*
X250032Y-108022D01*
X250201Y-107952D01*
X250356Y-107853D01*
X250525Y-107741D01*
X250681Y-107614D01*
X250821Y-107459D01*
X250835Y-107444D01*
X250850Y-107416D01*
X250892Y-107374D01*
X250934Y-107304D01*
X251005Y-107205D01*
X251061Y-107092D01*
X251132Y-106965D01*
X251202Y-106810D01*
X251273Y-106641D01*
X251343Y-106458D01*
X251413Y-106246D01*
X251470Y-106007D01*
X251512Y-105767D01*
X251555Y-105499D01*
X251569Y-105203D01*
X251583Y-104893D01*
Y-104879D01*
Y-104823D01*
Y-104738D01*
X251569Y-104611D01*
X251555Y-104470D01*
X251540Y-104315D01*
X251526Y-104132D01*
X251484Y-103948D01*
X251399Y-103540D01*
X251273Y-103117D01*
X251188Y-102905D01*
X251089Y-102722D01*
X250962Y-102539D01*
X250835Y-102370D01*
X250821Y-102355D01*
X250807Y-102327D01*
X250765Y-102299D01*
X250709Y-102243D01*
X250624Y-102172D01*
X250539Y-102102D01*
X250441Y-102031D01*
X250314Y-101947D01*
X250187Y-101876D01*
X250032Y-101806D01*
X249708Y-101665D01*
X249524Y-101608D01*
X249327Y-101580D01*
X249116Y-101552D01*
X248890Y-101538D01*
D02*
G37*
G36*
X55320Y256447D02*
X55010D01*
X54996D01*
X54939D01*
X54840D01*
X54728D01*
X54587D01*
X54432Y256433D01*
X54248D01*
X54065Y256419D01*
X53671Y256404D01*
X53290Y256376D01*
X53107Y256348D01*
X52923Y256320D01*
X52768Y256292D01*
X52641Y256264D01*
X52627D01*
X52613Y256249D01*
X52543Y256235D01*
X52430Y256193D01*
X52289Y256151D01*
X52148Y256080D01*
X52007Y256010D01*
X51880Y255925D01*
X51782Y255841D01*
X51767Y255826D01*
X51739Y255798D01*
X51711Y255742D01*
X51669Y255671D01*
X51626Y255587D01*
X51584Y255488D01*
X51570Y255375D01*
X51556Y255249D01*
Y255192D01*
X51570Y255122D01*
X51584Y255051D01*
X51612Y254953D01*
X51655Y254854D01*
X51711Y254741D01*
X51782Y254642D01*
X51796Y254628D01*
X51824Y254600D01*
X51880Y254558D01*
X51951Y254501D01*
X52063Y254431D01*
X52190Y254375D01*
X52359Y254304D01*
X52557Y254248D01*
X52571D01*
X52585Y254234D01*
X52641D01*
X52698Y254219D01*
X52782Y254205D01*
X52881Y254191D01*
X52994Y254177D01*
X53135Y254163D01*
X53304Y254135D01*
X53473Y254121D01*
X53685Y254107D01*
X53896Y254093D01*
X54150Y254079D01*
X54404D01*
X54700Y254064D01*
X55010D01*
X55024D01*
X55080D01*
X55179D01*
X55292D01*
X55433D01*
X55588Y254079D01*
X55771D01*
X55954Y254093D01*
X56349Y254107D01*
X56744Y254135D01*
X56927Y254149D01*
X57096Y254177D01*
X57251Y254205D01*
X57392Y254234D01*
X57420Y254248D01*
X57491Y254262D01*
X57604Y254304D01*
X57730Y254346D01*
X57871Y254417D01*
X58012Y254487D01*
X58139Y254572D01*
X58238Y254657D01*
X58252Y254671D01*
X58266Y254699D01*
X58308Y254755D01*
X58337Y254826D01*
X58379Y254910D01*
X58421Y255009D01*
X58435Y255122D01*
X58449Y255249D01*
Y255305D01*
X58435Y255375D01*
X58421Y255446D01*
X58393Y255545D01*
X58365Y255643D01*
X58308Y255742D01*
X58238Y255841D01*
X58224Y255855D01*
X58196Y255883D01*
X58139Y255939D01*
X58055Y255996D01*
X57956Y256052D01*
X57815Y256123D01*
X57660Y256193D01*
X57463Y256249D01*
X57448D01*
X57434Y256264D01*
X57378D01*
X57322Y256278D01*
X57237Y256292D01*
X57138Y256306D01*
X57025Y256334D01*
X56885Y256348D01*
X56729Y256362D01*
X56546Y256390D01*
X56349Y256404D01*
X56123Y256419D01*
X55884Y256433D01*
X55616D01*
X55320Y256447D01*
D02*
G37*
G36*
X56680Y306175D02*
X53057Y304807D01*
X56680Y303482D01*
Y306175D01*
D02*
G37*
G36*
X54911Y212429D02*
X54897D01*
X54840D01*
X54756D01*
X54629Y212415D01*
X54488Y212401D01*
X54333Y212387D01*
X54150Y212373D01*
X53966Y212330D01*
X53558Y212246D01*
X53135Y212119D01*
X52923Y212034D01*
X52740Y211936D01*
X52557Y211809D01*
X52388Y211682D01*
X52373Y211668D01*
X52345Y211654D01*
X52317Y211611D01*
X52261Y211555D01*
X52190Y211471D01*
X52120Y211386D01*
X52049Y211287D01*
X51965Y211160D01*
X51894Y211033D01*
X51824Y210878D01*
X51683Y210554D01*
X51626Y210371D01*
X51598Y210174D01*
X51570Y209962D01*
X51556Y209737D01*
Y209624D01*
X51570Y209539D01*
X51584Y209426D01*
X51598Y209314D01*
X51655Y209032D01*
X51767Y208722D01*
X51824Y208552D01*
X51908Y208383D01*
X52007Y208228D01*
X52120Y208059D01*
X52247Y207904D01*
X52402Y207763D01*
X52416Y207749D01*
X52444Y207735D01*
X52486Y207693D01*
X52557Y207650D01*
X52656Y207594D01*
X52754Y207537D01*
X52881Y207467D01*
X53036Y207397D01*
X53205Y207326D01*
X53389Y207255D01*
X53600Y207199D01*
X53825Y207143D01*
X54079Y207100D01*
X54347Y207058D01*
X54629Y207044D01*
X54939Y207030D01*
X54953D01*
X55010D01*
X55094D01*
X55207Y207044D01*
X55348Y207058D01*
X55517Y207072D01*
X55686Y207100D01*
X55884Y207129D01*
X56293Y207213D01*
X56701Y207354D01*
X56913Y207439D01*
X57110Y207537D01*
X57293Y207664D01*
X57463Y207791D01*
X57477Y207805D01*
X57505Y207833D01*
X57547Y207876D01*
X57589Y207932D01*
X57660Y208003D01*
X57730Y208101D01*
X57815Y208200D01*
X57885Y208327D01*
X58055Y208595D01*
X58182Y208933D01*
X58238Y209116D01*
X58280Y209314D01*
X58308Y209525D01*
X58323Y209737D01*
Y209849D01*
X58308Y209934D01*
X58294Y210033D01*
X58280Y210145D01*
X58210Y210413D01*
X58111Y210723D01*
X58040Y210878D01*
X57970Y211048D01*
X57871Y211203D01*
X57759Y211372D01*
X57632Y211527D01*
X57477Y211668D01*
X57463Y211682D01*
X57434Y211696D01*
X57392Y211738D01*
X57322Y211781D01*
X57223Y211851D01*
X57110Y211908D01*
X56983Y211978D01*
X56828Y212048D01*
X56659Y212119D01*
X56476Y212190D01*
X56264Y212260D01*
X56025Y212316D01*
X55785Y212359D01*
X55517Y212401D01*
X55221Y212415D01*
X54911Y212429D01*
D02*
G37*
%LPD*%
G54D10*
X507260Y163500D02*
X505385Y164583D01*
Y162418D01*
X507260Y163500D01*
G54D11*
X89466Y129614D02*
X89324Y129455D01*
X37940Y126620D02*
X46420D01*
X70946Y174150D02*
Y177080D01*
X67296Y170500D02*
X70946Y174150D01*
X62294Y170500D02*
X67296D01*
X62294Y219740D02*
X67296D01*
X70946Y216090D01*
Y213160D02*
Y216090D01*
G54D12*
X328262Y115000D02*
D03*
G54D13*
X318176Y-125476D02*
X320666Y-125354D01*
X323131Y-124988D01*
X325549Y-124382D01*
X327896Y-123543D01*
X330149Y-122477D01*
X332287Y-121195D01*
X334290Y-119711D01*
X336136Y-118036D01*
X337810Y-116190D01*
X339295Y-114187D01*
X340577Y-112050D01*
X341642Y-109796D01*
X342482Y-107449D01*
X343088Y-105031D01*
X343454Y-102566D01*
X343576Y-100076D01*
X501318Y-125984D02*
X503808Y-125862D01*
X506273Y-125496D01*
X508691Y-124890D01*
X511038Y-124051D01*
X513292Y-122985D01*
X515429Y-121703D01*
X517432Y-120218D01*
X519278Y-118545D01*
X520952Y-116698D01*
X522437Y-114696D01*
X523719Y-112557D01*
X524785Y-110304D01*
X525624Y-107957D01*
X526230Y-105539D01*
X526596Y-103074D01*
X526718Y-100584D01*
G54D14*
X490818Y-59804D02*
Y-60804D01*
Y-59804D01*
Y-60804D01*
X412618Y-75804D02*
Y-74804D01*
Y-75804D01*
Y-74804D01*
X307676Y-59804D02*
Y-60804D01*
Y-59804D01*
Y-60804D01*
X229476Y-75804D02*
Y-74804D01*
Y-75804D01*
Y-74804D01*
X395010Y154000D02*
X493010D01*
X395010Y259250D02*
Y261000D01*
Y154000D02*
Y155750D01*
Y261000D02*
X493010D01*
Y259250D02*
Y261000D01*
Y154000D02*
Y155750D01*
G54D15*
X418144Y308835D02*
X426624D01*
X329448Y296497D02*
X337928D01*
X329448Y320666D02*
X337928D01*
G54D16*
X139985Y89727D02*
Y108015D01*
Y89727D02*
X140112Y89600D01*
X309848D01*
X309975Y89727D01*
Y107634D01*
X309848Y199074D02*
Y222760D01*
X139922Y199201D02*
Y222379D01*
X309975Y292800D02*
Y313628D01*
X140049D02*
X309975D01*
X139858Y313438D02*
X140049Y313628D01*
X139858Y292800D02*
Y313438D01*
G54D17*
X353904Y351454D02*
X363904Y351454D01*
X353904Y389300D02*
X363904Y389300D01*
G54D18*
X364000Y351500D02*
Y389300D01*
X136000D02*
X146000D01*
X136000Y351500D02*
Y389300D01*
Y351500D02*
X146000D01*
X136000Y12300D02*
X146000D01*
X136000Y50100D02*
X146000D01*
X354000D02*
X364000D01*
X354000Y12300D02*
X364000D01*
Y50100D01*
X136000Y12300D02*
Y50100D01*
X354000D02*
X364000D01*
X136000D02*
X146000D01*
X136000Y351500D02*
X146000D01*
G54D19*
X495818Y-89054D02*
X515818D01*
X495818D02*
X515818D01*
X495818Y-46554D02*
X515618D01*
X495818D02*
X515618D01*
X387618D02*
X407618D01*
X387618D02*
X407618D01*
X387818Y-89054D02*
X407618D01*
X387818D02*
X407618D01*
X376718Y-11430D02*
X526718D01*
X376718Y-125984D02*
X501318D01*
X376718D02*
Y-11430D01*
X526718Y-100584D02*
Y-11430D01*
X312676Y-46554D02*
X332476D01*
X312676D02*
X332476D01*
X312676Y-89054D02*
X332676D01*
X312676D02*
X332676D01*
X204676D02*
X224476D01*
X204676D02*
X224476D01*
X204476Y-46554D02*
X224476D01*
X204476D02*
X224476D01*
X343576Y-100076D02*
Y-11430D01*
X193576D02*
X343576D01*
X193576Y-125476D02*
Y-11430D01*
Y-125476D02*
X318176D01*
G54D20*
X354428Y241557D02*
X353582Y242403D01*
X351889D01*
X351043Y241557D01*
Y238171D01*
X351889Y237325D01*
X353582D01*
X354428Y238171D01*
X356121Y237325D02*
X357814D01*
X356967D01*
Y242403D01*
X356121Y241557D01*
X360353D02*
X361199Y242403D01*
X362892D01*
X363738Y241557D01*
Y238171D01*
X362892Y237325D01*
X361199D01*
X360353Y238171D01*
Y241557D01*
X541072Y255388D02*
X541902Y256251D01*
X541868Y257943D01*
X541005Y258773D01*
X537621Y258706D01*
X536791Y257843D01*
X536824Y256150D01*
X537687Y255321D01*
X541106Y253695D02*
X541969Y252866D01*
X542002Y251173D01*
X541172Y250310D01*
X540326Y250294D01*
X539463Y251123D01*
X539447Y251970D01*
X539463Y251123D01*
X538634Y250260D01*
X537788Y250244D01*
X536925Y251073D01*
X536891Y252766D01*
X537721Y253629D01*
X383702Y224191D02*
X378623Y224159D01*
X378645Y220773D01*
X378656Y219080D02*
X378666Y217388D01*
X378661Y218234D01*
X383739Y218266D01*
X382888Y219107D01*
X372275Y207278D02*
X377354D01*
Y204739D01*
X376507Y203892D01*
X374814D01*
X373968Y204739D01*
Y207278D01*
Y205585D02*
X372275Y203892D01*
Y202199D02*
Y200507D01*
Y201353D01*
X377354D01*
X376507Y202199D01*
X101532Y194202D02*
X96454Y194209D01*
X96458Y196749D01*
X97306Y197594D01*
X98999Y197591D01*
X99844Y196743D01*
X99840Y194204D01*
X99842Y195897D02*
X101538Y197587D01*
X96468Y202673D02*
X97311Y200979D01*
X99001Y199284D01*
X100694Y199281D01*
X101542Y200126D01*
X101545Y201819D01*
X100699Y202667D01*
X99853Y202668D01*
X99005Y201823D01*
X99001Y199284D01*
X22550Y118773D02*
Y113695D01*
X25089D01*
X25935Y114541D01*
Y117927D01*
X25089Y118773D01*
X22550D01*
X27628Y113695D02*
X29321D01*
X28474D01*
Y118773D01*
X27628Y117927D01*
X94305Y116807D02*
X93458Y117653D01*
X91765D01*
X90919Y116807D01*
Y113421D01*
X91765Y112575D01*
X93458D01*
X94305Y113421D01*
X95997D02*
X96844Y112575D01*
X98537D01*
X99383Y113421D01*
Y116807D01*
X98537Y117653D01*
X96844D01*
X95997Y116807D01*
Y115961D01*
X96844Y115114D01*
X99383D01*
X61175Y81494D02*
Y86572D01*
X63714D01*
X64560Y85726D01*
Y84033D01*
X63714Y83187D01*
X61175D01*
X62868D02*
X64560Y81494D01*
X66253Y85726D02*
X67100Y86572D01*
X68793D01*
X69639Y85726D01*
Y84880D01*
X68793Y84033D01*
X67946D01*
X68793D01*
X69639Y83187D01*
Y82340D01*
X68793Y81494D01*
X67100D01*
X66253Y82340D01*
X107163Y171429D02*
X106321Y172280D01*
X104628Y172289D01*
X103777Y171447D01*
X103759Y168062D01*
X104601Y167211D01*
X106294Y167202D01*
X107145Y168044D01*
X108860Y172267D02*
X112245Y172249D01*
X112241Y171402D01*
X108837Y168035D01*
X108833Y167188D01*
X90078Y171822D02*
X95156D01*
Y169283D01*
X94310Y168437D01*
X92617D01*
X91770Y169283D01*
Y171822D01*
Y170129D02*
X90078Y168437D01*
X95156Y163358D02*
Y166744D01*
X92617D01*
X93463Y165051D01*
Y164205D01*
X92617Y163358D01*
X90924D01*
X90078Y164205D01*
Y165897D01*
X90924Y166744D01*
X92058Y217392D02*
X97137D01*
Y214853D01*
X96290Y214007D01*
X94597D01*
X93751Y214853D01*
Y217392D01*
Y215700D02*
X92058Y214007D01*
Y209775D02*
X97137D01*
X94597Y212314D01*
Y208928D01*
X102701Y238421D02*
X97622Y238411D01*
X97617Y240950D01*
X98462Y241798D01*
X100155Y241802D01*
X101003Y240957D01*
X101008Y238418D01*
X101004Y240110D02*
X102694Y241807D01*
X102684Y246885D02*
X102691Y243499D01*
X99298Y246878D01*
X98452Y246877D01*
X97607Y246029D01*
X97611Y244336D01*
X98459Y243491D01*
X346840Y218520D02*
X345993Y219365D01*
X344300Y219362D01*
X343455Y218514D01*
X343461Y215128D01*
X344309Y214284D01*
X346002Y214287D01*
X346846Y215135D01*
X348533Y218523D02*
X349378Y219371D01*
X351071Y219374D01*
X351919Y218529D01*
X351920Y217683D01*
X351075Y216835D01*
X351923Y215990D01*
X351925Y215144D01*
X351080Y214296D01*
X349387Y214293D01*
X348539Y215138D01*
X348538Y215984D01*
X349383Y216832D01*
X348535Y217677D01*
X348533Y218523D01*
X349383Y216832D02*
X351075Y216835D01*
X345009Y208607D02*
X341624D01*
Y206068D01*
X343316D01*
X341624D01*
Y203528D01*
X346702Y208607D02*
Y203528D01*
X349241D01*
X350088Y204375D01*
Y205221D01*
X349241Y206068D01*
X346702D01*
X349241D01*
X350088Y206914D01*
Y207760D01*
X349241Y208607D01*
X346702D01*
X351780Y207760D02*
X352627Y208607D01*
X354319D01*
X355166Y207760D01*
Y206914D01*
X354319Y206068D01*
X353473D01*
X354319D01*
X355166Y205221D01*
Y204375D01*
X354319Y203528D01*
X352627D01*
X351780Y204375D01*
X540587Y212260D02*
X541439Y213100D01*
X541450Y214793D01*
X540609Y215645D01*
X537224Y215667D01*
X536372Y214826D01*
X536361Y213133D01*
X537202Y212282D01*
X541400Y207176D02*
X541423Y210561D01*
X538883Y210578D01*
X539719Y208880D01*
X539713Y208033D01*
X538861Y207192D01*
X537169Y207203D01*
X536328Y208055D01*
X536339Y209748D01*
X537191Y210589D01*
X95972Y261500D02*
Y264885D01*
X93433D01*
Y263193D01*
Y264885D01*
X90894D01*
X95972Y259807D02*
X90894D01*
Y257268D01*
X91740Y256422D01*
X92587D01*
X93433Y257268D01*
Y259807D01*
Y257268D01*
X94279Y256422D01*
X95126D01*
X95972Y257268D01*
Y259807D01*
X90894Y254729D02*
Y253036D01*
Y253882D01*
X95972D01*
X95126Y254729D01*
X367708Y148759D02*
X366861Y149605D01*
X365168D01*
X364322Y148759D01*
Y145373D01*
X365168Y144527D01*
X366861D01*
X367708Y145373D01*
X372786Y144527D02*
X369400D01*
X372786Y147912D01*
Y148759D01*
X371940Y149605D01*
X370247D01*
X369400Y148759D01*
X369824Y165269D02*
X368978Y166115D01*
X367285D01*
X366438Y165269D01*
Y161883D01*
X367285Y161037D01*
X368978D01*
X369824Y161883D01*
X371517Y161037D02*
X373210D01*
X372363D01*
Y166115D01*
X371517Y165269D01*
G54D21*
X40748Y158039D02*
X43287D01*
X42017D01*
Y150421D01*
X40748D01*
X43287D01*
X52174Y156769D02*
X50904Y158039D01*
X48365D01*
X47096Y156769D01*
Y151691D01*
X48365Y150421D01*
X50904D01*
X52174Y151691D01*
X54713Y150421D02*
X57252D01*
X55983D01*
Y158039D01*
X54713Y156769D01*
G54D22*
X201168Y-19050D02*
D03*
X384302D02*
D03*
M02*
