G04*
G04 #@! TF.GenerationSoftware,Altium Limited,Altium Designer,21.6.4 (81)*
G04*
G04 Layer_Color=128*
%FSLAX44Y44*%
%MOMM*%
G71*
G04*
G04 #@! TF.SameCoordinates,D3511B64-A8A5-4C62-8431-0C2E51F58D68*
G04*
G04*
G04 #@! TF.FilePolarity,Positive*
G04*
G01*
G75*
%ADD49R,0.2000X0.7000*%
%ADD79R,0.3000X0.7000*%
G54D49*
X316000Y354950D02*
D03*
X152000Y15750D02*
D03*
Y46550D02*
D03*
X156000Y15750D02*
D03*
Y46550D02*
D03*
X160000Y15750D02*
D03*
Y46550D02*
D03*
X164000Y15750D02*
D03*
Y46550D02*
D03*
X168000Y15750D02*
D03*
Y46550D02*
D03*
X172000Y15750D02*
D03*
Y46550D02*
D03*
X176000Y15750D02*
D03*
Y46550D02*
D03*
X180000Y15750D02*
D03*
Y46550D02*
D03*
X184000Y15750D02*
D03*
Y46550D02*
D03*
X188000Y15750D02*
D03*
Y46550D02*
D03*
X192000Y15750D02*
D03*
Y46550D02*
D03*
X196000Y15750D02*
D03*
Y46550D02*
D03*
X200000Y15750D02*
D03*
Y46550D02*
D03*
X204000Y15750D02*
D03*
Y46550D02*
D03*
X208000Y15750D02*
D03*
Y46550D02*
D03*
X212000Y15750D02*
D03*
Y46550D02*
D03*
X216000Y15750D02*
D03*
Y46550D02*
D03*
X220000Y15750D02*
D03*
Y46550D02*
D03*
X224000Y15750D02*
D03*
Y46550D02*
D03*
X228000Y15750D02*
D03*
Y46550D02*
D03*
X232000Y15750D02*
D03*
Y46550D02*
D03*
X236000Y15750D02*
D03*
Y46550D02*
D03*
X240000Y15750D02*
D03*
Y46550D02*
D03*
X244000Y15750D02*
D03*
Y46550D02*
D03*
X248000Y15750D02*
D03*
Y46550D02*
D03*
X252000Y15750D02*
D03*
Y46550D02*
D03*
X256000Y15750D02*
D03*
Y46550D02*
D03*
X260000Y15750D02*
D03*
Y46550D02*
D03*
X264000Y15750D02*
D03*
Y46550D02*
D03*
X268000Y15750D02*
D03*
Y46550D02*
D03*
X272000Y15750D02*
D03*
Y46550D02*
D03*
X276000Y15750D02*
D03*
Y46550D02*
D03*
X280000Y15750D02*
D03*
Y46550D02*
D03*
X284000Y15750D02*
D03*
Y46550D02*
D03*
X288000Y15750D02*
D03*
Y46550D02*
D03*
X292000Y15750D02*
D03*
Y46550D02*
D03*
X296000Y15750D02*
D03*
Y46550D02*
D03*
X300000Y15750D02*
D03*
Y46550D02*
D03*
X304000Y15750D02*
D03*
Y46550D02*
D03*
X308000Y15750D02*
D03*
Y46550D02*
D03*
X312000Y15750D02*
D03*
Y46550D02*
D03*
X316000Y15750D02*
D03*
Y46550D02*
D03*
X320000Y15750D02*
D03*
Y46550D02*
D03*
X324000Y15750D02*
D03*
Y46550D02*
D03*
X328000Y15750D02*
D03*
Y46550D02*
D03*
X332000Y15750D02*
D03*
Y46550D02*
D03*
X336000Y15750D02*
D03*
Y46550D02*
D03*
X340000Y15750D02*
D03*
Y46550D02*
D03*
X344000Y15750D02*
D03*
Y46550D02*
D03*
X348000Y15750D02*
D03*
Y46550D02*
D03*
X152000Y354950D02*
D03*
Y385750D02*
D03*
X156000Y354950D02*
D03*
Y385750D02*
D03*
X160000Y354950D02*
D03*
Y385750D02*
D03*
X164000Y354950D02*
D03*
Y385750D02*
D03*
X168000Y354950D02*
D03*
Y385750D02*
D03*
X172000Y354950D02*
D03*
Y385750D02*
D03*
X176000Y354950D02*
D03*
Y385750D02*
D03*
X180000Y354950D02*
D03*
Y385750D02*
D03*
X184000Y354950D02*
D03*
Y385750D02*
D03*
X188000Y354950D02*
D03*
Y385750D02*
D03*
X192000Y354950D02*
D03*
Y385750D02*
D03*
X196000Y354950D02*
D03*
Y385750D02*
D03*
X200000Y354950D02*
D03*
Y385750D02*
D03*
X204000Y354950D02*
D03*
Y385750D02*
D03*
X208000Y354950D02*
D03*
Y385750D02*
D03*
X212000Y354950D02*
D03*
Y385750D02*
D03*
X216000Y354950D02*
D03*
Y385750D02*
D03*
X220000Y354950D02*
D03*
Y385750D02*
D03*
X224000Y354950D02*
D03*
Y385750D02*
D03*
X228000Y354950D02*
D03*
Y385750D02*
D03*
X232000Y354950D02*
D03*
Y385750D02*
D03*
X236000Y354950D02*
D03*
Y385750D02*
D03*
X240000Y354950D02*
D03*
Y385750D02*
D03*
X244000Y354950D02*
D03*
Y385750D02*
D03*
X248000Y354950D02*
D03*
Y385750D02*
D03*
X252000Y354950D02*
D03*
Y385750D02*
D03*
X256000Y354950D02*
D03*
Y385750D02*
D03*
X260000Y354950D02*
D03*
Y385750D02*
D03*
X264000Y354950D02*
D03*
Y385750D02*
D03*
X268000Y354950D02*
D03*
Y385750D02*
D03*
X272000Y354950D02*
D03*
Y385750D02*
D03*
X276000Y354950D02*
D03*
Y385750D02*
D03*
X280000Y354950D02*
D03*
Y385750D02*
D03*
X284000Y354950D02*
D03*
Y385750D02*
D03*
X288000Y354950D02*
D03*
Y385750D02*
D03*
X292000Y354950D02*
D03*
Y385750D02*
D03*
X296000Y354950D02*
D03*
Y385750D02*
D03*
X300000Y354950D02*
D03*
Y385750D02*
D03*
X304000Y354950D02*
D03*
Y385750D02*
D03*
X308000Y354950D02*
D03*
Y385750D02*
D03*
X312000Y354950D02*
D03*
Y385750D02*
D03*
X316000D02*
D03*
X320000Y354950D02*
D03*
Y385750D02*
D03*
X324000Y354950D02*
D03*
Y385750D02*
D03*
X328000Y354950D02*
D03*
Y385750D02*
D03*
X332000Y354950D02*
D03*
Y385750D02*
D03*
X336000Y354950D02*
D03*
Y385750D02*
D03*
X340000Y354950D02*
D03*
Y385750D02*
D03*
X344000Y354950D02*
D03*
Y385750D02*
D03*
X348000Y354950D02*
D03*
Y385750D02*
D03*
G54D79*
X147447Y354950D02*
D03*
Y385750D02*
D03*
X352552D02*
D03*
Y354950D02*
D03*
Y15748D02*
D03*
Y46550D02*
D03*
X147447D02*
D03*
Y15750D02*
D03*
M02*
