M48
;Layer_Color=9474304
;FILE_FORMAT=4:4
METRIC,TZ
;TYPE=PLATED
T1F00S00C0.2032
T2F00S00C0.3048
T3F00S00C2.7000
%
T01
X284000Y392500
T02
X190440Y-101960
X220920
X251400
X244487Y-85979
X250952Y-50546
X235966Y-49022
X265819Y-57000
X292100Y-53086
Y-62738
X292037Y-72876
X322072Y-68580
X350774Y-72590
Y-64516
Y-51054
X370840Y-51308
X370445Y-60960
X372868Y-83876
X351045
X399668Y-58000
X403098Y-30988
X398018Y-20828
X407307Y-18687
X388560Y-10520
X366549Y-19123
X340238Y-5334
X328930Y-29464
X318516Y-32512
X310896Y-39116
X281880Y-41000
Y-101960
X236160Y-10520
X205680
X200660Y-29210
X449520Y-10520
X480000
X475135Y-45212
Y-62230
Y-73406
X440182Y-72136
X428314Y-86360
X464760Y-101960
X495240
X525720
X531368Y-85979
Y-74083
Y-62188
Y-50292
X525720Y-41000
X495240
X504296Y-63394
X540960Y-10520
X495240Y19960
X99000
X68520
X114240Y-10520
Y-71480
Y50440
X83760
X53280
X68520Y80920
X68053Y102500
X79750
X99000Y80920
X101660Y122999
X114500
Y112001
X90932Y135057
Y142748
X68053Y154000
X67296Y163750
X52661Y140288
X44466Y132833
X35240Y144563
X27620
X20000
X9896Y187063
Y194683
Y202303
X10042Y234813
Y242433
Y250053
Y282063
Y289683
Y297303
X45250
Y289683
Y282063
X53280Y294280
X66914Y306708
X74566Y302705
X75284Y318659
X66980Y321029
X82703Y314238
X95118Y302234
X86818Y290531
X82500Y278000
X99031Y278318
X105557Y272662
X113261Y268760
X113636Y284119
X107331Y290021
X118110Y313690
X132080
X153176Y332218
X158750Y342900
X143862Y343818
X147320Y374650
X154920
X158750Y368300
X118110Y361950
X83760Y355240
X53280
X35146Y341813
X27526
X19906
X31949Y314310
X99000Y324760
X155614Y281072
X155499Y266928
X159960Y202840
X159512Y170434
X112500Y180340
X99000Y202840
X82500Y196000
X45104Y194683
Y187063
Y202303
X45250Y234813
Y242433
Y250053
X82500Y238850
X38040Y80920
X159960
X160020Y58420
X151130Y62230
X153924Y35560
X160020Y27940
X147574
X163830Y34290
X170688Y37592
X176530Y33020
X172720Y26670
X184150
X187960Y33020
X182367Y37814
X193422Y37962
X199390Y33020
X195580Y26670
X208280
X212090Y33020
X217299Y38229
X223520Y33020
X219710Y26670
X232410
X236220Y33020
X241132Y38510
X228729Y38229
X231140Y58420
X219710
X223520Y64770
X212090
X208280Y58420
X195580
X199390Y64770
X187960
X184150Y58420
X171450
X175260Y64770
X163830
X180000Y115000
X190440Y141880
X220920
X251400
X281880
X266640Y172360
X236160
X205680
X175200
X167041Y179923
X172466Y192532
X175200Y233320
X178872Y258627
X172385Y264329
X164135Y266880
X164249Y280968
X172759Y279499
X180558Y275789
X187214Y270287
X193321Y264181
X199428Y258074
X205534Y251967
X211641Y245861
X203298Y234201
X197191Y240307
X191085Y246414
X184978Y252520
X220920Y263800
X223854Y233648
X229960Y227541
X236160Y233320
X236119Y221487
X243805Y217550
X252428Y217072
X261064
X269700
X278336
X286972
X287346Y225149
X295608Y217072
X304244
X312880
X312769Y202928
X304133
X295497
X286861
X278225
X269589
X260953
X252317
X243688Y203273
X235373Y205605
X227933Y209991
X221618Y215881
X215511Y221987
X220920Y202840
X247500Y247500
X266640Y233320
X288290Y263000
X293366Y269240
X288302Y281286
X272500Y282499
X260350
X236160Y294280
X233680Y336804
X223520
X228312Y343154
X217170Y342900
X207010
X196850
X193080Y336550
X201930Y336804
X212090
X191516Y328930
X182372Y326136
Y332994
X173736
Y326136
X163830Y336550
X168910Y342900
X168922Y368280
X165100Y374577
X175260Y374660
X182626Y369570
X189484
X198120Y374650
X203200Y368406
X214630
X209550Y374650
X222250
X227330Y368406
X238760Y367030
X234920Y374650
X246380
X259080
X255270Y368300
X249091Y363220
X250190Y342900
X260350
X270920
X281080
X291240Y343553
X295910Y337816
X296164Y330454
X305634
X319532Y331216
X326898Y331975
X332740Y336550
X327660Y342900
X342499Y342499
X351902Y343066
X348000Y336550
X357499Y349999
X369415Y362966
X340360Y368554
X345440Y374650
X334010
X323088Y374650
X311975Y375328
X315077Y368554
X307340
X297180Y368554
X286891Y368808
X276731Y368686
X266571Y368429
X271780Y374650
X291592Y374650
X301752
X291846Y362966
X301400Y342900
X314354Y337410
X285750Y336550
X275590
X265430
X255270Y336776
X245110Y336804
X240030Y342900
X297120Y294280
X330999Y307383
X358688Y303305
X377500Y317142
X391117Y308835
X392499Y289999
X424453Y290068
X422499Y279908
X434086Y278130
X441452Y280162
X439166Y272793
X446532Y270002
X454965Y265938
X460756Y259842
X505024Y258940
X514350Y269748
X530098Y281178
X540960Y294280
X510480
X525720Y324760
X495240
X464760
X419999Y299999
X419040Y355240
X328930Y368554
X332740Y251460
X342098Y252000
Y232186
X349218Y237073
X357390Y239864
X357361Y225296
X350193Y220478
X346710Y213716
Y202000
X325000
X363321Y219047
X378550Y217321
X379095Y225940
X379504Y234566
X380080Y251460
X412496Y206756
X418592Y193802
Y184728
X420111Y154000
X380775Y167000
X369482Y163830
X367500Y148432
X373320Y141880
X346990Y137160
X326898Y136427
Y147320
X338429Y114410
X338836Y66043
X346202Y66040
X350200Y56642
X327660Y58420
X331470Y64770
X318770
X314960Y58420
X304800
X307535Y65259
X295910Y64770
X294640Y57150
X284480
X276194
X278130Y64770
X287188Y65049
X265396Y65709
X263240Y58420
X253080
X256604Y64888
X247650Y64770
X242920Y58420
X236220Y64770
X248920Y33020
X259080
X255270Y26670
X243840
X267970
X271780Y33020
X277114Y38608
X284480Y33020
X280670Y26670
X292100
X295910Y33020
X300990Y38608
X308610Y33020
X318770
X314920Y26670
X303530
X328422Y25908
X330925Y33274
X325120Y38862
X343916Y35560
X347980Y26670
X340106Y24130
X204978Y38100
X290000Y181000
X360064Y180528
X506010Y153000
X495240Y141880
X525720
X540960Y172360
X529336Y188722
X514858Y201930
X514560Y232962
X540960Y233320
Y355240
Y111400
X510480
X525720Y80920
X495240
X540960Y50440
T03
X35000Y35000
Y365000
X515000Y365036
Y35000
M30
