G04*
G04 #@! TF.GenerationSoftware,Altium Limited,Altium Designer,21.6.4 (81)*
G04*
G04 Layer_Color=32896*
%FSLAX44Y44*%
%MOMM*%
G71*
G04*
G04 #@! TF.SameCoordinates,A89D6834-54D7-4776-B7DF-034E92FDE38D*
G04*
G04*
G04 #@! TF.FilePolarity,Positive*
G04*
G01*
G75*
%ADD11C,0.2540*%
%ADD17C,0.1200*%
%ADD18C,0.1200*%
G54D11*
X43602Y365000D02*
X43220Y367535D01*
X42108Y369846D01*
X40364Y371725D01*
X38143Y373007D01*
X35643Y373578D01*
X33086Y373386D01*
X30699Y372449D01*
X28694Y370851D01*
X27250Y368732D01*
X26494Y366282D01*
Y363718D01*
X27250Y361267D01*
X28694Y359149D01*
X30699Y357550D01*
X33086Y356613D01*
X35643Y356421D01*
X38143Y356992D01*
X40364Y358274D01*
X42108Y360154D01*
X43220Y362464D01*
X43602Y365000D01*
G54D17*
X356188Y389128D02*
X364000Y389128D01*
X356188Y351282D02*
X364000Y351282D01*
G54D18*
X136000Y389250D02*
X143714D01*
X136000Y12250D02*
X143714D01*
X356286Y50050D02*
X364000D01*
X356286Y12250D02*
X364000D01*
Y50050D01*
X136000Y12250D02*
Y50050D01*
Y351450D02*
Y389250D01*
X364000Y351282D02*
Y389128D01*
X550000Y35750D02*
Y365750D01*
X356286Y50050D02*
X364000D01*
X136000D02*
X143714D01*
X136000Y351450D02*
X143714D01*
M02*
