G04*
G04 #@! TF.GenerationSoftware,Altium Limited,Altium Designer,21.6.4 (81)*
G04*
G04 Layer_Color=16711935*
%FSLAX25Y25*%
%MOIN*%
G70*
G04*
G04 #@! TF.SameCoordinates,4529F259-1C2A-4C1D-AD44-B5440C422FEC*
G04*
G04*
G04 #@! TF.FilePolarity,Positive*
G04*
G01*
G75*
%ADD62C,0.00394*%
%ADD63C,0.01000*%
G36*
X329536Y7541D02*
X329132D01*
Y7138D01*
X209793D01*
Y145024D01*
X329536D01*
Y7541D01*
D02*
G37*
G36*
X227177Y163764D02*
X226248D01*
Y164824D01*
X227177D01*
Y163764D01*
D02*
G37*
G36*
X221886D02*
X220957D01*
Y164824D01*
X221886D01*
Y163764D01*
D02*
G37*
G36*
X237221Y162857D02*
X237341Y162846D01*
X237484Y162824D01*
X237637Y162791D01*
X237801Y162748D01*
X237953Y162682D01*
X237975Y162671D01*
X238019Y162649D01*
X238096Y162616D01*
X238183Y162562D01*
X238292Y162496D01*
X238391Y162409D01*
X238489Y162321D01*
X238577Y162212D01*
X238587Y162201D01*
X238609Y162157D01*
X238642Y162103D01*
X238697Y162026D01*
X238740Y161917D01*
X238784Y161808D01*
X238839Y161676D01*
X238872Y161534D01*
Y161523D01*
X238883Y161480D01*
X238894Y161414D01*
X238904Y161327D01*
Y161196D01*
X238915Y161042D01*
X238926Y160857D01*
Y160627D01*
Y157261D01*
X237997D01*
Y160583D01*
Y160594D01*
Y160605D01*
Y160682D01*
Y160780D01*
X237986Y160900D01*
X237975Y161042D01*
X237953Y161185D01*
X237921Y161316D01*
X237888Y161436D01*
Y161447D01*
X237866Y161480D01*
X237833Y161534D01*
X237801Y161600D01*
X237746Y161665D01*
X237680Y161742D01*
X237593Y161819D01*
X237494Y161884D01*
X237484Y161895D01*
X237451Y161917D01*
X237385Y161939D01*
X237309Y161972D01*
X237221Y162004D01*
X237112Y162037D01*
X236981Y162048D01*
X236850Y162059D01*
X236795D01*
X236751Y162048D01*
X236642Y162037D01*
X236500Y162015D01*
X236347Y161961D01*
X236172Y161895D01*
X235997Y161808D01*
X235833Y161676D01*
X235811Y161655D01*
X235768Y161600D01*
X235735Y161556D01*
X235702Y161502D01*
X235658Y161436D01*
X235626Y161360D01*
X235582Y161272D01*
X235538Y161163D01*
X235505Y161042D01*
X235472Y160911D01*
X235451Y160769D01*
X235429Y160616D01*
X235407Y160430D01*
Y160245D01*
Y157261D01*
X234478D01*
Y162748D01*
X235309D01*
Y161961D01*
X235319Y161972D01*
X235341Y162004D01*
X235374Y162048D01*
X235418Y162103D01*
X235483Y162168D01*
X235560Y162245D01*
X235647Y162332D01*
X235757Y162420D01*
X235866Y162496D01*
X235997Y162584D01*
X236139Y162660D01*
X236292Y162726D01*
X236467Y162780D01*
X236642Y162824D01*
X236839Y162857D01*
X237046Y162868D01*
X237134D01*
X237221Y162857D01*
D02*
G37*
G36*
X387235Y157261D02*
X386230D01*
Y160824D01*
X382317D01*
Y157261D01*
X381311D01*
Y164824D01*
X382317D01*
Y161720D01*
X386230D01*
Y164824D01*
X387235D01*
Y157261D01*
D02*
G37*
G36*
X348150D02*
X347221D01*
Y159698D01*
X344641D01*
Y157261D01*
X343712D01*
Y162748D01*
X344641D01*
Y160463D01*
X347221D01*
Y162748D01*
X348150D01*
Y157261D01*
D02*
G37*
G36*
X324760D02*
X323831D01*
Y159698D01*
X321251D01*
Y157261D01*
X320322D01*
Y162748D01*
X321251D01*
Y160463D01*
X323831D01*
Y162748D01*
X324760D01*
Y157261D01*
D02*
G37*
G36*
X266940Y159534D02*
X264065D01*
Y160463D01*
X266940D01*
Y159534D01*
D02*
G37*
G36*
X379628Y157261D02*
X378721D01*
Y163228D01*
X374688Y157261D01*
X373693D01*
Y164824D01*
X374600D01*
Y158824D01*
X378634Y164824D01*
X379628D01*
Y157261D01*
D02*
G37*
G36*
X313043D02*
X312114D01*
Y161414D01*
X309534Y157261D01*
X308540D01*
Y162748D01*
X309469D01*
Y158561D01*
X312037Y162748D01*
X313043D01*
Y157261D01*
D02*
G37*
G36*
X306922Y158026D02*
X307523D01*
Y155709D01*
X306758D01*
Y157261D01*
X302495D01*
Y162748D01*
X303424D01*
Y158026D01*
X305993D01*
Y162748D01*
X306922D01*
Y158026D01*
D02*
G37*
G36*
X396570Y157261D02*
X395564D01*
Y164824D01*
X396570D01*
Y157261D01*
D02*
G37*
G36*
X389957Y161600D02*
X391924D01*
X392045Y161589D01*
X392187Y161578D01*
X392351Y161567D01*
X392526Y161545D01*
X392711Y161512D01*
X393105Y161436D01*
X393302Y161381D01*
X393487Y161316D01*
X393662Y161239D01*
X393826Y161152D01*
X393968Y161053D01*
X394089Y160933D01*
X394099Y160922D01*
X394110Y160900D01*
X394143Y160868D01*
X394176Y160813D01*
X394220Y160758D01*
X394264Y160682D01*
X394318Y160594D01*
X394373Y160507D01*
X394482Y160277D01*
X394569Y160026D01*
X394635Y159753D01*
X394646Y159600D01*
X394657Y159447D01*
Y159436D01*
Y159403D01*
Y159359D01*
X394646Y159305D01*
X394635Y159228D01*
X394624Y159141D01*
X394580Y158933D01*
X394515Y158693D01*
X394406Y158430D01*
X394340Y158299D01*
X394252Y158168D01*
X394165Y158037D01*
X394056Y157916D01*
X394045Y157906D01*
X394023Y157884D01*
X393990Y157851D01*
X393936Y157818D01*
X393870Y157764D01*
X393782Y157709D01*
X393673Y157654D01*
X393553Y157589D01*
X393411Y157523D01*
X393247Y157468D01*
X393061Y157414D01*
X392864Y157359D01*
X392635Y157326D01*
X392394Y157293D01*
X392121Y157272D01*
X391826Y157261D01*
X388951D01*
Y164824D01*
X389957D01*
Y161600D01*
D02*
G37*
G36*
X372032Y157261D02*
X371026D01*
Y163928D01*
X367102D01*
Y157261D01*
X366097D01*
Y164824D01*
X372032D01*
Y157261D01*
D02*
G37*
G36*
X355692D02*
X354762D01*
Y162748D01*
X355692D01*
Y157261D01*
D02*
G37*
G36*
X350511Y160594D02*
X351789D01*
X351866Y160583D01*
X351964D01*
X352074Y160573D01*
X352205Y160562D01*
X352336Y160540D01*
X352620Y160485D01*
X352915Y160409D01*
X353200Y160299D01*
X353331Y160223D01*
X353451Y160146D01*
X353462D01*
X353473Y160124D01*
X353505Y160102D01*
X353549Y160070D01*
X353648Y159960D01*
X353768Y159829D01*
X353877Y159643D01*
X353976Y159436D01*
X354019Y159316D01*
X354052Y159195D01*
X354063Y159053D01*
X354074Y158911D01*
Y158900D01*
Y158878D01*
Y158846D01*
X354063Y158802D01*
X354052Y158671D01*
X354008Y158507D01*
X353943Y158332D01*
X353855Y158135D01*
X353724Y157938D01*
X353637Y157840D01*
X353549Y157742D01*
X353538D01*
X353527Y157720D01*
X353495Y157698D01*
X353451Y157665D01*
X353396Y157632D01*
X353331Y157589D01*
X353243Y157545D01*
X353156Y157501D01*
X353046Y157457D01*
X352926Y157414D01*
X352784Y157370D01*
X352642Y157337D01*
X352478Y157304D01*
X352292Y157283D01*
X352106Y157272D01*
X351899Y157261D01*
X349582D01*
Y162748D01*
X350511D01*
Y160594D01*
D02*
G37*
G36*
X339111D02*
X340389D01*
X340466Y160583D01*
X340564D01*
X340685Y160573D01*
X340805Y160562D01*
X340936Y160540D01*
X341220Y160485D01*
X341526Y160409D01*
X341810Y160299D01*
X341942Y160223D01*
X342062Y160146D01*
X342073D01*
X342084Y160124D01*
X342116Y160102D01*
X342160Y160070D01*
X342259Y159960D01*
X342379Y159829D01*
X342488Y159643D01*
X342586Y159436D01*
X342630Y159316D01*
X342663Y159195D01*
X342674Y159053D01*
X342685Y158911D01*
Y158900D01*
Y158878D01*
Y158846D01*
X342674Y158802D01*
X342663Y158671D01*
X342619Y158507D01*
X342554Y158332D01*
X342466Y158135D01*
X342335Y157938D01*
X342248Y157840D01*
X342160Y157742D01*
X342149D01*
X342138Y157720D01*
X342106Y157698D01*
X342062Y157665D01*
X342007Y157632D01*
X341942Y157589D01*
X341854Y157545D01*
X341756Y157501D01*
X341647Y157457D01*
X341526Y157414D01*
X341395Y157370D01*
X341242Y157337D01*
X341078Y157304D01*
X340903Y157283D01*
X340706Y157272D01*
X340499Y157261D01*
X338182D01*
Y162748D01*
X339111D01*
Y160594D01*
D02*
G37*
G36*
X336805Y157261D02*
X335875D01*
Y161983D01*
X333416D01*
Y159239D01*
Y159228D01*
Y159195D01*
Y159152D01*
Y159086D01*
Y159010D01*
Y158922D01*
X333405Y158725D01*
Y158518D01*
X333394Y158310D01*
X333372Y158124D01*
X333362Y158048D01*
X333351Y157982D01*
Y157971D01*
X333340Y157927D01*
X333318Y157873D01*
X333285Y157796D01*
X333241Y157720D01*
X333176Y157632D01*
X333099Y157534D01*
X333001Y157447D01*
X332990Y157436D01*
X332946Y157414D01*
X332892Y157381D01*
X332804Y157337D01*
X332684Y157293D01*
X332553Y157261D01*
X332389Y157239D01*
X332203Y157228D01*
X331984D01*
X331875Y157239D01*
X331755D01*
X331613Y157250D01*
X331460Y157261D01*
Y158048D01*
X331962D01*
X332017Y158059D01*
X332159Y158070D01*
X332214Y158080D01*
X332269Y158102D01*
X332279D01*
X332290Y158113D01*
X332345Y158146D01*
X332400Y158201D01*
X332443Y158288D01*
Y158299D01*
X332454Y158321D01*
Y158365D01*
X332465Y158441D01*
X332476Y158551D01*
Y158616D01*
Y158703D01*
X332487Y158791D01*
Y158889D01*
Y158999D01*
Y159130D01*
Y162748D01*
X336805D01*
Y157261D01*
D02*
G37*
G36*
X328716Y162857D02*
X328880Y162846D01*
X329066Y162824D01*
X329252Y162791D01*
X329438Y162748D01*
X329612Y162693D01*
X329634Y162682D01*
X329689Y162660D01*
X329766Y162627D01*
X329864Y162584D01*
X329973Y162518D01*
X330083Y162452D01*
X330181Y162365D01*
X330268Y162278D01*
X330279Y162267D01*
X330301Y162234D01*
X330334Y162179D01*
X330378Y162114D01*
X330432Y162015D01*
X330476Y161917D01*
X330520Y161797D01*
X330553Y161655D01*
Y161644D01*
X330563Y161611D01*
X330574Y161545D01*
X330585Y161458D01*
Y161338D01*
X330596Y161196D01*
X330607Y161010D01*
Y160802D01*
Y159556D01*
Y159545D01*
Y159501D01*
Y159436D01*
Y159348D01*
Y159250D01*
Y159130D01*
X330618Y158867D01*
Y158594D01*
X330629Y158321D01*
X330640Y158201D01*
Y158091D01*
X330651Y157993D01*
X330662Y157916D01*
Y157906D01*
X330673Y157862D01*
X330684Y157796D01*
X330716Y157709D01*
X330738Y157610D01*
X330782Y157501D01*
X330837Y157381D01*
X330891Y157261D01*
X329919D01*
X329908Y157272D01*
X329897Y157315D01*
X329875Y157370D01*
X329842Y157457D01*
X329809Y157556D01*
X329787Y157676D01*
X329766Y157807D01*
X329744Y157949D01*
X329733D01*
X329722Y157927D01*
X329656Y157873D01*
X329558Y157796D01*
X329427Y157698D01*
X329263Y157599D01*
X329099Y157490D01*
X328924Y157392D01*
X328738Y157315D01*
X328716Y157304D01*
X328651Y157293D01*
X328552Y157261D01*
X328432Y157228D01*
X328279Y157195D01*
X328104Y157173D01*
X327907Y157151D01*
X327711Y157141D01*
X327623D01*
X327558Y157151D01*
X327481D01*
X327394Y157162D01*
X327197Y157195D01*
X326978Y157250D01*
X326738Y157326D01*
X326519Y157436D01*
X326323Y157578D01*
X326301Y157599D01*
X326246Y157654D01*
X326170Y157753D01*
X326082Y157884D01*
X325995Y158048D01*
X325918Y158233D01*
X325864Y158463D01*
X325853Y158572D01*
X325842Y158703D01*
Y158725D01*
Y158769D01*
X325853Y158846D01*
X325864Y158944D01*
X325885Y159064D01*
X325918Y159184D01*
X325962Y159316D01*
X326017Y159436D01*
X326027Y159447D01*
X326049Y159490D01*
X326093Y159556D01*
X326148Y159633D01*
X326213Y159720D01*
X326301Y159807D01*
X326388Y159895D01*
X326498Y159971D01*
X326508Y159982D01*
X326552Y160004D01*
X326607Y160048D01*
X326694Y160092D01*
X326793Y160135D01*
X326913Y160190D01*
X327033Y160234D01*
X327175Y160277D01*
X327186D01*
X327230Y160288D01*
X327295Y160310D01*
X327383Y160321D01*
X327492Y160343D01*
X327634Y160365D01*
X327798Y160398D01*
X327995Y160419D01*
X328006D01*
X328049Y160430D01*
X328104D01*
X328181Y160441D01*
X328268Y160452D01*
X328377Y160474D01*
X328498Y160485D01*
X328629Y160507D01*
X328891Y160562D01*
X329175Y160616D01*
X329427Y160682D01*
X329547Y160715D01*
X329656Y160747D01*
Y160758D01*
Y160780D01*
X329667Y160846D01*
Y160922D01*
Y160966D01*
Y160988D01*
Y160999D01*
Y161010D01*
Y161075D01*
X329656Y161185D01*
X329634Y161305D01*
X329602Y161436D01*
X329547Y161567D01*
X329481Y161687D01*
X329394Y161786D01*
X329383Y161797D01*
X329328Y161840D01*
X329241Y161884D01*
X329132Y161950D01*
X328979Y162004D01*
X328804Y162059D01*
X328585Y162092D01*
X328334Y162103D01*
X328224D01*
X328115Y162092D01*
X327962Y162070D01*
X327809Y162048D01*
X327645Y162004D01*
X327492Y161950D01*
X327361Y161873D01*
X327350Y161862D01*
X327306Y161829D01*
X327252Y161775D01*
X327186Y161687D01*
X327120Y161578D01*
X327044Y161436D01*
X326978Y161261D01*
X326913Y161064D01*
X326006Y161185D01*
Y161196D01*
X326017Y161206D01*
Y161239D01*
X326027Y161283D01*
X326060Y161381D01*
X326104Y161523D01*
X326159Y161665D01*
X326224Y161819D01*
X326312Y161972D01*
X326410Y162114D01*
X326421Y162125D01*
X326465Y162168D01*
X326530Y162234D01*
X326618Y162321D01*
X326738Y162409D01*
X326880Y162496D01*
X327044Y162595D01*
X327230Y162671D01*
X327241D01*
X327252Y162682D01*
X327284Y162693D01*
X327328Y162704D01*
X327437Y162737D01*
X327590Y162769D01*
X327765Y162802D01*
X327984Y162835D01*
X328214Y162857D01*
X328476Y162868D01*
X328596D01*
X328716Y162857D01*
D02*
G37*
G36*
X301085Y157261D02*
X300156D01*
Y161983D01*
X297686D01*
Y157261D01*
X296757D01*
Y162748D01*
X301085D01*
Y157261D01*
D02*
G37*
G36*
X271192D02*
X270263D01*
Y163174D01*
X270252Y163163D01*
X270197Y163119D01*
X270131Y163054D01*
X270022Y162977D01*
X269902Y162879D01*
X269749Y162769D01*
X269574Y162649D01*
X269377Y162529D01*
X269366D01*
X269355Y162518D01*
X269290Y162474D01*
X269180Y162420D01*
X269049Y162354D01*
X268896Y162278D01*
X268732Y162201D01*
X268568Y162125D01*
X268405Y162059D01*
Y162955D01*
X268415D01*
X268437Y162977D01*
X268481Y162988D01*
X268536Y163021D01*
X268601Y163054D01*
X268678Y163097D01*
X268864Y163207D01*
X269082Y163327D01*
X269301Y163480D01*
X269530Y163655D01*
X269760Y163841D01*
X269771Y163851D01*
X269782Y163862D01*
X269814Y163895D01*
X269858Y163928D01*
X269957Y164037D01*
X270088Y164169D01*
X270219Y164321D01*
X270361Y164496D01*
X270481Y164671D01*
X270590Y164857D01*
X271192D01*
Y157261D01*
D02*
G37*
G36*
X263748D02*
X262612D01*
X261726Y159556D01*
X258557D01*
X257737Y157261D01*
X256677D01*
X259562Y164824D01*
X260655D01*
X263748Y157261D01*
D02*
G37*
G36*
X256469Y163928D02*
X253977D01*
Y157261D01*
X252971D01*
Y163928D01*
X250479D01*
Y164824D01*
X256469D01*
Y163928D01*
D02*
G37*
G36*
X246523Y164813D02*
X246741Y164802D01*
X246960Y164781D01*
X247179Y164748D01*
X247364Y164715D01*
X247375D01*
X247397Y164704D01*
X247430D01*
X247474Y164682D01*
X247594Y164649D01*
X247747Y164595D01*
X247922Y164518D01*
X248108Y164420D01*
X248293Y164311D01*
X248468Y164169D01*
X248479Y164157D01*
X248490Y164147D01*
X248523Y164114D01*
X248567Y164081D01*
X248676Y163972D01*
X248807Y163819D01*
X248949Y163633D01*
X249102Y163414D01*
X249244Y163163D01*
X249364Y162879D01*
Y162868D01*
X249375Y162846D01*
X249397Y162802D01*
X249408Y162737D01*
X249441Y162660D01*
X249463Y162573D01*
X249485Y162474D01*
X249517Y162354D01*
X249550Y162234D01*
X249572Y162092D01*
X249627Y161786D01*
X249660Y161447D01*
X249671Y161075D01*
Y161064D01*
Y161042D01*
Y160988D01*
Y160933D01*
X249660Y160857D01*
Y160769D01*
X249649Y160562D01*
X249616Y160321D01*
X249583Y160070D01*
X249528Y159807D01*
X249463Y159545D01*
Y159534D01*
X249452Y159512D01*
X249441Y159479D01*
X249430Y159436D01*
X249386Y159316D01*
X249321Y159162D01*
X249255Y158988D01*
X249168Y158813D01*
X249058Y158627D01*
X248949Y158452D01*
X248938Y158430D01*
X248895Y158376D01*
X248829Y158299D01*
X248741Y158201D01*
X248643Y158091D01*
X248523Y157982D01*
X248403Y157862D01*
X248260Y157764D01*
X248239Y157753D01*
X248195Y157720D01*
X248118Y157676D01*
X248009Y157621D01*
X247878Y157556D01*
X247725Y157501D01*
X247550Y157436D01*
X247353Y157381D01*
X247332D01*
X247299Y157370D01*
X247266Y157359D01*
X247157Y157348D01*
X247004Y157326D01*
X246829Y157304D01*
X246621Y157283D01*
X246392Y157272D01*
X246140Y157261D01*
X243419D01*
Y164824D01*
X246326D01*
X246523Y164813D01*
D02*
G37*
G36*
X227177Y157261D02*
X226248D01*
Y162748D01*
X227177D01*
Y157261D01*
D02*
G37*
G36*
X221886D02*
X220957D01*
Y162748D01*
X221886D01*
Y157261D01*
D02*
G37*
G36*
X217635Y162857D02*
X217799Y162846D01*
X217984Y162824D01*
X218170Y162791D01*
X218356Y162748D01*
X218531Y162693D01*
X218553Y162682D01*
X218607Y162660D01*
X218684Y162627D01*
X218782Y162584D01*
X218892Y162518D01*
X219001Y162452D01*
X219099Y162365D01*
X219187Y162278D01*
X219198Y162267D01*
X219219Y162234D01*
X219252Y162179D01*
X219296Y162114D01*
X219351Y162015D01*
X219394Y161917D01*
X219438Y161797D01*
X219471Y161655D01*
Y161644D01*
X219482Y161611D01*
X219493Y161545D01*
X219504Y161458D01*
Y161338D01*
X219515Y161196D01*
X219526Y161010D01*
Y160802D01*
Y159556D01*
Y159545D01*
Y159501D01*
Y159436D01*
Y159348D01*
Y159250D01*
Y159130D01*
X219536Y158867D01*
Y158594D01*
X219547Y158321D01*
X219558Y158201D01*
Y158091D01*
X219569Y157993D01*
X219580Y157916D01*
Y157906D01*
X219591Y157862D01*
X219602Y157796D01*
X219635Y157709D01*
X219657Y157610D01*
X219700Y157501D01*
X219755Y157381D01*
X219810Y157261D01*
X218837D01*
X218826Y157272D01*
X218815Y157315D01*
X218793Y157370D01*
X218760Y157457D01*
X218728Y157556D01*
X218706Y157676D01*
X218684Y157807D01*
X218662Y157949D01*
X218651D01*
X218640Y157927D01*
X218575Y157873D01*
X218476Y157796D01*
X218345Y157698D01*
X218181Y157599D01*
X218017Y157490D01*
X217842Y157392D01*
X217656Y157315D01*
X217635Y157304D01*
X217569Y157293D01*
X217471Y157261D01*
X217351Y157228D01*
X217197Y157195D01*
X217023Y157173D01*
X216826Y157151D01*
X216629Y157141D01*
X216542D01*
X216476Y157151D01*
X216400D01*
X216312Y157162D01*
X216115Y157195D01*
X215897Y157250D01*
X215656Y157326D01*
X215438Y157436D01*
X215241Y157578D01*
X215219Y157599D01*
X215164Y157654D01*
X215088Y157753D01*
X215001Y157884D01*
X214913Y158048D01*
X214837Y158233D01*
X214782Y158463D01*
X214771Y158572D01*
X214760Y158703D01*
Y158725D01*
Y158769D01*
X214771Y158846D01*
X214782Y158944D01*
X214804Y159064D01*
X214837Y159184D01*
X214880Y159316D01*
X214935Y159436D01*
X214946Y159447D01*
X214968Y159490D01*
X215012Y159556D01*
X215066Y159633D01*
X215132Y159720D01*
X215219Y159807D01*
X215307Y159895D01*
X215416Y159971D01*
X215427Y159982D01*
X215471Y160004D01*
X215525Y160048D01*
X215613Y160092D01*
X215711Y160135D01*
X215831Y160190D01*
X215951Y160234D01*
X216093Y160277D01*
X216105D01*
X216148Y160288D01*
X216214Y160310D01*
X216301Y160321D01*
X216410Y160343D01*
X216553Y160365D01*
X216717Y160398D01*
X216913Y160419D01*
X216924D01*
X216968Y160430D01*
X217023D01*
X217099Y160441D01*
X217186Y160452D01*
X217296Y160474D01*
X217416Y160485D01*
X217547Y160507D01*
X217810Y160562D01*
X218094Y160616D01*
X218345Y160682D01*
X218465Y160715D01*
X218575Y160747D01*
Y160758D01*
Y160780D01*
X218586Y160846D01*
Y160922D01*
Y160966D01*
Y160988D01*
Y160999D01*
Y161010D01*
Y161075D01*
X218575Y161185D01*
X218553Y161305D01*
X218520Y161436D01*
X218465Y161567D01*
X218400Y161687D01*
X218312Y161786D01*
X218301Y161797D01*
X218247Y161840D01*
X218159Y161884D01*
X218050Y161950D01*
X217897Y162004D01*
X217722Y162059D01*
X217503Y162092D01*
X217252Y162103D01*
X217143D01*
X217034Y162092D01*
X216880Y162070D01*
X216727Y162048D01*
X216564Y162004D01*
X216410Y161950D01*
X216279Y161873D01*
X216268Y161862D01*
X216225Y161829D01*
X216170Y161775D01*
X216105Y161687D01*
X216039Y161578D01*
X215962Y161436D01*
X215897Y161261D01*
X215831Y161064D01*
X214924Y161185D01*
Y161196D01*
X214935Y161206D01*
Y161239D01*
X214946Y161283D01*
X214979Y161381D01*
X215022Y161523D01*
X215077Y161665D01*
X215143Y161819D01*
X215230Y161972D01*
X215328Y162114D01*
X215339Y162125D01*
X215383Y162168D01*
X215449Y162234D01*
X215536Y162321D01*
X215656Y162409D01*
X215798Y162496D01*
X215962Y162595D01*
X216148Y162671D01*
X216159D01*
X216170Y162682D01*
X216203Y162693D01*
X216247Y162704D01*
X216356Y162737D01*
X216509Y162769D01*
X216684Y162802D01*
X216902Y162835D01*
X217132Y162857D01*
X217394Y162868D01*
X217514D01*
X217635Y162857D01*
D02*
G37*
G36*
X214159Y163928D02*
X211667D01*
Y157261D01*
X210661D01*
Y163928D01*
X208169D01*
Y164824D01*
X214159D01*
Y163928D01*
D02*
G37*
G36*
X224389Y162748D02*
X225329D01*
Y162026D01*
X224389D01*
Y158802D01*
Y158780D01*
Y158736D01*
Y158671D01*
X224400Y158594D01*
X224411Y158419D01*
X224422Y158343D01*
X224433Y158288D01*
X224444Y158266D01*
X224477Y158223D01*
X224521Y158168D01*
X224597Y158113D01*
X224619Y158102D01*
X224674Y158080D01*
X224772Y158059D01*
X224914Y158048D01*
X225023D01*
X225078Y158059D01*
X225154D01*
X225242Y158070D01*
X225329Y158080D01*
X225450Y157261D01*
X225428D01*
X225384Y157250D01*
X225307Y157239D01*
X225209Y157228D01*
X225100Y157206D01*
X224980Y157195D01*
X224739Y157184D01*
X224652D01*
X224564Y157195D01*
X224455Y157206D01*
X224324Y157217D01*
X224193Y157250D01*
X224072Y157283D01*
X223952Y157337D01*
X223941Y157348D01*
X223908Y157370D01*
X223865Y157403D01*
X223799Y157457D01*
X223745Y157512D01*
X223679Y157589D01*
X223613Y157665D01*
X223570Y157764D01*
Y157774D01*
X223548Y157818D01*
X223537Y157895D01*
X223515Y158004D01*
X223493Y158146D01*
X223482Y158233D01*
Y158332D01*
X223471Y158452D01*
X223460Y158572D01*
Y158703D01*
Y158856D01*
Y162026D01*
X222772D01*
Y162748D01*
X223460D01*
Y164103D01*
X224389Y164660D01*
Y162748D01*
D02*
G37*
G36*
X359572Y162857D02*
X359659Y162846D01*
X359768Y162824D01*
X359889Y162802D01*
X360031Y162769D01*
X360162Y162737D01*
X360315Y162682D01*
X360457Y162627D01*
X360610Y162551D01*
X360763Y162463D01*
X360916Y162365D01*
X361058Y162245D01*
X361189Y162114D01*
X361200Y162103D01*
X361222Y162081D01*
X361255Y162037D01*
X361299Y161972D01*
X361353Y161895D01*
X361408Y161808D01*
X361473Y161698D01*
X361539Y161567D01*
X361605Y161425D01*
X361670Y161272D01*
X361725Y161097D01*
X361779Y160911D01*
X361823Y160704D01*
X361856Y160485D01*
X361878Y160256D01*
X361889Y160004D01*
Y159993D01*
Y159950D01*
Y159873D01*
X361878Y159764D01*
X357779D01*
Y159753D01*
Y159720D01*
X357790Y159676D01*
Y159611D01*
X357801Y159534D01*
X357823Y159447D01*
X357856Y159250D01*
X357921Y159031D01*
X358009Y158791D01*
X358129Y158572D01*
X358282Y158376D01*
X358293D01*
X358304Y158354D01*
X358369Y158299D01*
X358468Y158223D01*
X358599Y158146D01*
X358774Y158059D01*
X358970Y157982D01*
X359189Y157927D01*
X359309Y157916D01*
X359440Y157906D01*
X359528D01*
X359626Y157916D01*
X359747Y157938D01*
X359878Y157971D01*
X360031Y158015D01*
X360173Y158080D01*
X360315Y158168D01*
X360326Y158179D01*
X360381Y158223D01*
X360446Y158288D01*
X360523Y158376D01*
X360610Y158496D01*
X360708Y158649D01*
X360807Y158824D01*
X360894Y159031D01*
X361856Y158911D01*
Y158900D01*
X361845Y158878D01*
X361834Y158835D01*
X361812Y158769D01*
X361779Y158703D01*
X361747Y158616D01*
X361659Y158430D01*
X361550Y158223D01*
X361397Y158004D01*
X361222Y157796D01*
X361003Y157599D01*
X360993D01*
X360971Y157578D01*
X360938Y157556D01*
X360894Y157523D01*
X360829Y157490D01*
X360763Y157457D01*
X360676Y157414D01*
X360577Y157370D01*
X360468Y157326D01*
X360359Y157283D01*
X360085Y157217D01*
X359779Y157162D01*
X359440Y157141D01*
X359320D01*
X359244Y157151D01*
X359145Y157162D01*
X359025Y157184D01*
X358894Y157206D01*
X358752Y157228D01*
X358446Y157315D01*
X358282Y157381D01*
X358129Y157447D01*
X357965Y157534D01*
X357812Y157632D01*
X357670Y157742D01*
X357528Y157873D01*
X357517Y157884D01*
X357495Y157906D01*
X357462Y157949D01*
X357418Y158015D01*
X357364Y158091D01*
X357309Y158179D01*
X357244Y158288D01*
X357178Y158408D01*
X357112Y158551D01*
X357047Y158703D01*
X356992Y158878D01*
X356938Y159064D01*
X356894Y159261D01*
X356861Y159479D01*
X356839Y159709D01*
X356828Y159950D01*
Y159960D01*
Y160015D01*
Y160081D01*
X356839Y160179D01*
X356850Y160299D01*
X356861Y160430D01*
X356883Y160583D01*
X356916Y160737D01*
X357003Y161086D01*
X357058Y161261D01*
X357123Y161447D01*
X357211Y161622D01*
X357309Y161786D01*
X357418Y161950D01*
X357539Y162103D01*
X357550Y162114D01*
X357572Y162136D01*
X357615Y162168D01*
X357670Y162223D01*
X357735Y162278D01*
X357823Y162343D01*
X357921Y162420D01*
X358041Y162485D01*
X358162Y162562D01*
X358304Y162627D01*
X358457Y162693D01*
X358621Y162748D01*
X358796Y162802D01*
X358981Y162835D01*
X359178Y162857D01*
X359386Y162868D01*
X359495D01*
X359572Y162857D01*
D02*
G37*
G36*
X316846D02*
X316945Y162846D01*
X317054Y162824D01*
X317174Y162802D01*
X317316Y162780D01*
X317611Y162682D01*
X317764Y162627D01*
X317917Y162551D01*
X318070Y162474D01*
X318224Y162365D01*
X318366Y162256D01*
X318508Y162125D01*
X318519Y162114D01*
X318540Y162092D01*
X318573Y162048D01*
X318617Y161993D01*
X318672Y161917D01*
X318737Y161819D01*
X318803Y161709D01*
X318868Y161589D01*
X318934Y161458D01*
X319000Y161294D01*
X319065Y161130D01*
X319120Y160944D01*
X319163Y160747D01*
X319196Y160540D01*
X319218Y160321D01*
X319229Y160081D01*
Y160070D01*
Y160037D01*
Y159982D01*
Y159906D01*
X319218Y159818D01*
X319207Y159709D01*
Y159600D01*
X319185Y159479D01*
X319152Y159206D01*
X319087Y158933D01*
X319010Y158660D01*
X318901Y158408D01*
Y158397D01*
X318890Y158387D01*
X318868Y158354D01*
X318847Y158310D01*
X318770Y158201D01*
X318672Y158070D01*
X318540Y157916D01*
X318376Y157764D01*
X318191Y157610D01*
X317972Y157468D01*
X317961D01*
X317950Y157457D01*
X317917Y157436D01*
X317863Y157414D01*
X317808Y157392D01*
X317742Y157370D01*
X317579Y157304D01*
X317393Y157250D01*
X317163Y157195D01*
X316923Y157151D01*
X316660Y157141D01*
X316551D01*
X316464Y157151D01*
X316365Y157162D01*
X316256Y157184D01*
X316125Y157206D01*
X315994Y157228D01*
X315699Y157315D01*
X315535Y157381D01*
X315382Y157447D01*
X315229Y157534D01*
X315076Y157632D01*
X314933Y157742D01*
X314791Y157873D01*
X314780Y157884D01*
X314759Y157906D01*
X314726Y157949D01*
X314682Y158015D01*
X314628Y158091D01*
X314573Y158179D01*
X314507Y158288D01*
X314442Y158419D01*
X314376Y158561D01*
X314311Y158725D01*
X314256Y158900D01*
X314201Y159086D01*
X314158Y159294D01*
X314125Y159512D01*
X314103Y159753D01*
X314092Y160004D01*
Y160026D01*
Y160070D01*
X314103Y160146D01*
Y160256D01*
X314114Y160376D01*
X314136Y160529D01*
X314158Y160682D01*
X314201Y160857D01*
X314245Y161032D01*
X314300Y161217D01*
X314365Y161414D01*
X314453Y161600D01*
X314540Y161775D01*
X314660Y161950D01*
X314780Y162114D01*
X314933Y162256D01*
X314945Y162267D01*
X314966Y162278D01*
X315010Y162310D01*
X315065Y162354D01*
X315130Y162398D01*
X315218Y162452D01*
X315305Y162507D01*
X315414Y162562D01*
X315535Y162616D01*
X315666Y162671D01*
X315961Y162769D01*
X316300Y162846D01*
X316475Y162857D01*
X316660Y162868D01*
X316770D01*
X316846Y162857D01*
D02*
G37*
G36*
X231024D02*
X231111Y162846D01*
X231221Y162824D01*
X231341Y162802D01*
X231483Y162769D01*
X231614Y162737D01*
X231767Y162682D01*
X231909Y162627D01*
X232062Y162551D01*
X232215Y162463D01*
X232368Y162365D01*
X232510Y162245D01*
X232642Y162114D01*
X232652Y162103D01*
X232674Y162081D01*
X232707Y162037D01*
X232751Y161972D01*
X232805Y161895D01*
X232860Y161808D01*
X232926Y161698D01*
X232991Y161567D01*
X233057Y161425D01*
X233122Y161272D01*
X233177Y161097D01*
X233232Y160911D01*
X233276Y160704D01*
X233308Y160485D01*
X233330Y160256D01*
X233341Y160004D01*
Y159993D01*
Y159950D01*
Y159873D01*
X233330Y159764D01*
X229231D01*
Y159753D01*
Y159720D01*
X229242Y159676D01*
Y159611D01*
X229253Y159534D01*
X229275Y159447D01*
X229308Y159250D01*
X229374Y159031D01*
X229461Y158791D01*
X229581Y158572D01*
X229734Y158376D01*
X229745D01*
X229756Y158354D01*
X229822Y158299D01*
X229920Y158223D01*
X230051Y158146D01*
X230226Y158059D01*
X230423Y157982D01*
X230641Y157927D01*
X230762Y157916D01*
X230893Y157906D01*
X230980D01*
X231079Y157916D01*
X231199Y157938D01*
X231330Y157971D01*
X231483Y158015D01*
X231625Y158080D01*
X231767Y158168D01*
X231778Y158179D01*
X231833Y158223D01*
X231898Y158288D01*
X231975Y158376D01*
X232062Y158496D01*
X232161Y158649D01*
X232259Y158824D01*
X232347Y159031D01*
X233308Y158911D01*
Y158900D01*
X233297Y158878D01*
X233286Y158835D01*
X233265Y158769D01*
X233232Y158703D01*
X233199Y158616D01*
X233112Y158430D01*
X233002Y158223D01*
X232849Y158004D01*
X232674Y157796D01*
X232456Y157599D01*
X232445D01*
X232423Y157578D01*
X232390Y157556D01*
X232347Y157523D01*
X232281Y157490D01*
X232215Y157457D01*
X232128Y157414D01*
X232030Y157370D01*
X231920Y157326D01*
X231811Y157283D01*
X231538Y157217D01*
X231232Y157162D01*
X230893Y157141D01*
X230772D01*
X230696Y157151D01*
X230598Y157162D01*
X230477Y157184D01*
X230346Y157206D01*
X230204Y157228D01*
X229898Y157315D01*
X229734Y157381D01*
X229581Y157447D01*
X229417Y157534D01*
X229264Y157632D01*
X229122Y157742D01*
X228980Y157873D01*
X228969Y157884D01*
X228947Y157906D01*
X228914Y157949D01*
X228871Y158015D01*
X228816Y158091D01*
X228761Y158179D01*
X228696Y158288D01*
X228630Y158408D01*
X228565Y158551D01*
X228499Y158703D01*
X228444Y158878D01*
X228390Y159064D01*
X228346Y159261D01*
X228313Y159479D01*
X228291Y159709D01*
X228280Y159950D01*
Y159960D01*
Y160015D01*
Y160081D01*
X228291Y160179D01*
X228302Y160299D01*
X228313Y160430D01*
X228335Y160583D01*
X228368Y160737D01*
X228455Y161086D01*
X228510Y161261D01*
X228576Y161447D01*
X228663Y161622D01*
X228761Y161786D01*
X228871Y161950D01*
X228991Y162103D01*
X229002Y162114D01*
X229024Y162136D01*
X229067Y162168D01*
X229122Y162223D01*
X229188Y162278D01*
X229275Y162343D01*
X229374Y162420D01*
X229494Y162485D01*
X229614Y162562D01*
X229756Y162627D01*
X229909Y162693D01*
X230073Y162748D01*
X230248Y162802D01*
X230434Y162835D01*
X230630Y162857D01*
X230838Y162868D01*
X230947D01*
X231024Y162857D01*
D02*
G37*
G36*
X292144Y164945D02*
X292243D01*
X292341Y164934D01*
X292472Y164912D01*
X292603Y164890D01*
X292888Y164835D01*
X293216Y164748D01*
X293533Y164617D01*
X293696Y164540D01*
X293861Y164453D01*
X293871Y164442D01*
X293893Y164431D01*
X293937Y164398D01*
X294003Y164365D01*
X294068Y164311D01*
X294156Y164245D01*
X294341Y164092D01*
X294538Y163895D01*
X294757Y163655D01*
X294964Y163371D01*
X295139Y163054D01*
Y163043D01*
X295161Y163010D01*
X295183Y162966D01*
X295205Y162901D01*
X295249Y162813D01*
X295281Y162715D01*
X295325Y162595D01*
X295369Y162463D01*
X295402Y162321D01*
X295445Y162168D01*
X295489Y161993D01*
X295522Y161819D01*
X295566Y161436D01*
X295587Y161021D01*
Y161010D01*
Y160966D01*
Y160911D01*
X295577Y160824D01*
Y160725D01*
X295566Y160605D01*
X295544Y160474D01*
X295533Y160332D01*
X295478Y160015D01*
X295391Y159665D01*
X295270Y159316D01*
X295205Y159141D01*
X295117Y158966D01*
Y158955D01*
X295096Y158922D01*
X295074Y158878D01*
X295030Y158813D01*
X294986Y158736D01*
X294932Y158660D01*
X294779Y158452D01*
X294593Y158233D01*
X294374Y158004D01*
X294112Y157785D01*
X293806Y157589D01*
X293795D01*
X293773Y157567D01*
X293718Y157545D01*
X293653Y157512D01*
X293576Y157479D01*
X293489Y157447D01*
X293380Y157403D01*
X293259Y157359D01*
X293128Y157315D01*
X292986Y157272D01*
X292669Y157206D01*
X292330Y157151D01*
X291970Y157130D01*
X291860D01*
X291795Y157141D01*
X291696D01*
X291587Y157162D01*
X291467Y157173D01*
X291325Y157195D01*
X291030Y157261D01*
X290713Y157348D01*
X290385Y157479D01*
X290221Y157556D01*
X290057Y157643D01*
X290046Y157654D01*
X290024Y157665D01*
X289980Y157698D01*
X289915Y157742D01*
X289849Y157785D01*
X289773Y157851D01*
X289587Y158015D01*
X289379Y158212D01*
X289161Y158452D01*
X288964Y158725D01*
X288778Y159042D01*
Y159053D01*
X288756Y159086D01*
X288734Y159130D01*
X288713Y159195D01*
X288680Y159283D01*
X288647Y159381D01*
X288603Y159490D01*
X288570Y159611D01*
X288527Y159753D01*
X288483Y159895D01*
X288417Y160223D01*
X288374Y160562D01*
X288352Y160933D01*
Y160944D01*
Y160955D01*
Y161021D01*
X288363Y161119D01*
Y161250D01*
X288385Y161403D01*
X288406Y161589D01*
X288439Y161797D01*
X288483Y162015D01*
X288527Y162245D01*
X288592Y162485D01*
X288680Y162726D01*
X288778Y162977D01*
X288887Y163218D01*
X289029Y163458D01*
X289182Y163677D01*
X289357Y163884D01*
X289368Y163895D01*
X289401Y163928D01*
X289467Y163983D01*
X289543Y164048D01*
X289641Y164136D01*
X289762Y164223D01*
X289904Y164321D01*
X290068Y164420D01*
X290243Y164518D01*
X290439Y164617D01*
X290658Y164704D01*
X290887Y164792D01*
X291139Y164857D01*
X291401Y164912D01*
X291674Y164945D01*
X291970Y164955D01*
X292068D01*
X292144Y164945D01*
D02*
G37*
G36*
X282143Y164846D02*
X282286Y164824D01*
X282450Y164792D01*
X282624Y164748D01*
X282810Y164693D01*
X282985Y164606D01*
X282996D01*
X283007Y164595D01*
X283062Y164562D01*
X283149Y164507D01*
X283258Y164431D01*
X283379Y164321D01*
X283510Y164201D01*
X283630Y164059D01*
X283750Y163895D01*
X283761Y163873D01*
X283805Y163819D01*
X283849Y163720D01*
X283925Y163578D01*
X283991Y163414D01*
X284078Y163228D01*
X284155Y163010D01*
X284220Y162769D01*
Y162759D01*
X284231Y162737D01*
X284242Y162704D01*
X284253Y162649D01*
X284264Y162584D01*
X284275Y162507D01*
X284297Y162409D01*
X284308Y162300D01*
X284330Y162179D01*
X284341Y162048D01*
X284351Y161895D01*
X284373Y161742D01*
X284384Y161567D01*
Y161392D01*
X284395Y161196D01*
Y160988D01*
Y160977D01*
Y160933D01*
Y160857D01*
Y160769D01*
X284384Y160649D01*
Y160518D01*
X284373Y160376D01*
X284362Y160223D01*
X284330Y159873D01*
X284275Y159512D01*
X284209Y159162D01*
X284166Y158999D01*
X284111Y158835D01*
Y158824D01*
X284100Y158802D01*
X284078Y158758D01*
X284056Y158703D01*
X284034Y158627D01*
X283991Y158551D01*
X283903Y158365D01*
X283794Y158168D01*
X283652Y157949D01*
X283488Y157753D01*
X283291Y157567D01*
X283280D01*
X283269Y157545D01*
X283237Y157523D01*
X283193Y157501D01*
X283138Y157468D01*
X283084Y157425D01*
X282920Y157348D01*
X282723Y157272D01*
X282493Y157195D01*
X282220Y157151D01*
X281925Y157130D01*
X281816D01*
X281739Y157141D01*
X281652Y157151D01*
X281542Y157173D01*
X281422Y157195D01*
X281291Y157228D01*
X281160Y157272D01*
X281018Y157315D01*
X280876Y157381D01*
X280734Y157457D01*
X280592Y157545D01*
X280449Y157654D01*
X280318Y157774D01*
X280198Y157906D01*
X280187Y157916D01*
X280165Y157949D01*
X280132Y158004D01*
X280078Y158091D01*
X280023Y158190D01*
X279969Y158321D01*
X279892Y158474D01*
X279826Y158649D01*
X279761Y158846D01*
X279695Y159075D01*
X279630Y159327D01*
X279575Y159611D01*
X279520Y159917D01*
X279487Y160245D01*
X279466Y160605D01*
X279455Y160988D01*
Y160999D01*
Y161042D01*
Y161119D01*
Y161206D01*
X279466Y161327D01*
Y161458D01*
X279477Y161600D01*
X279487Y161764D01*
X279520Y162103D01*
X279575Y162463D01*
X279641Y162824D01*
X279684Y162988D01*
X279728Y163152D01*
Y163163D01*
X279739Y163185D01*
X279761Y163228D01*
X279783Y163283D01*
X279804Y163360D01*
X279848Y163436D01*
X279936Y163622D01*
X280045Y163819D01*
X280187Y164026D01*
X280351Y164234D01*
X280548Y164409D01*
X280559D01*
X280570Y164431D01*
X280602Y164453D01*
X280646Y164474D01*
X280701Y164518D01*
X280766Y164551D01*
X280930Y164638D01*
X281127Y164715D01*
X281357Y164792D01*
X281630Y164835D01*
X281925Y164857D01*
X282023D01*
X282143Y164846D01*
D02*
G37*
G36*
X276263D02*
X276405Y164824D01*
X276569Y164792D01*
X276744Y164748D01*
X276930Y164693D01*
X277105Y164606D01*
X277116D01*
X277127Y164595D01*
X277181Y164562D01*
X277269Y164507D01*
X277378Y164431D01*
X277498Y164321D01*
X277629Y164201D01*
X277750Y164059D01*
X277870Y163895D01*
X277881Y163873D01*
X277924Y163819D01*
X277968Y163720D01*
X278045Y163578D01*
X278110Y163414D01*
X278198Y163228D01*
X278274Y163010D01*
X278340Y162769D01*
Y162759D01*
X278351Y162737D01*
X278362Y162704D01*
X278373Y162649D01*
X278384Y162584D01*
X278395Y162507D01*
X278416Y162409D01*
X278427Y162300D01*
X278449Y162179D01*
X278460Y162048D01*
X278471Y161895D01*
X278493Y161742D01*
X278504Y161567D01*
Y161392D01*
X278515Y161196D01*
Y160988D01*
Y160977D01*
Y160933D01*
Y160857D01*
Y160769D01*
X278504Y160649D01*
Y160518D01*
X278493Y160376D01*
X278482Y160223D01*
X278449Y159873D01*
X278395Y159512D01*
X278329Y159162D01*
X278285Y158999D01*
X278231Y158835D01*
Y158824D01*
X278220Y158802D01*
X278198Y158758D01*
X278176Y158703D01*
X278154Y158627D01*
X278110Y158551D01*
X278023Y158365D01*
X277914Y158168D01*
X277771Y157949D01*
X277608Y157753D01*
X277411Y157567D01*
X277400D01*
X277389Y157545D01*
X277356Y157523D01*
X277312Y157501D01*
X277258Y157468D01*
X277203Y157425D01*
X277039Y157348D01*
X276842Y157272D01*
X276613Y157195D01*
X276340Y157151D01*
X276045Y157130D01*
X275935D01*
X275859Y157141D01*
X275771Y157151D01*
X275662Y157173D01*
X275542Y157195D01*
X275411Y157228D01*
X275279Y157272D01*
X275137Y157315D01*
X274995Y157381D01*
X274853Y157457D01*
X274711Y157545D01*
X274569Y157654D01*
X274438Y157774D01*
X274318Y157906D01*
X274307Y157916D01*
X274285Y157949D01*
X274252Y158004D01*
X274197Y158091D01*
X274143Y158190D01*
X274088Y158321D01*
X274012Y158474D01*
X273946Y158649D01*
X273881Y158846D01*
X273815Y159075D01*
X273749Y159327D01*
X273695Y159611D01*
X273640Y159917D01*
X273607Y160245D01*
X273585Y160605D01*
X273574Y160988D01*
Y160999D01*
Y161042D01*
Y161119D01*
Y161206D01*
X273585Y161327D01*
Y161458D01*
X273596Y161600D01*
X273607Y161764D01*
X273640Y162103D01*
X273695Y162463D01*
X273760Y162824D01*
X273804Y162988D01*
X273848Y163152D01*
Y163163D01*
X273859Y163185D01*
X273881Y163228D01*
X273902Y163283D01*
X273924Y163360D01*
X273968Y163436D01*
X274055Y163622D01*
X274165Y163819D01*
X274307Y164026D01*
X274471Y164234D01*
X274667Y164409D01*
X274678D01*
X274689Y164431D01*
X274722Y164453D01*
X274766Y164474D01*
X274820Y164518D01*
X274886Y164551D01*
X275050Y164638D01*
X275247Y164715D01*
X275476Y164792D01*
X275749Y164835D01*
X276045Y164857D01*
X276143D01*
X276263Y164846D01*
D02*
G37*
G36*
X159926Y91503D02*
X159307D01*
Y92210D01*
X159926D01*
Y91503D01*
D02*
G37*
G36*
X162704Y90898D02*
X162784Y90891D01*
X162879Y90876D01*
X162981Y90854D01*
X163090Y90825D01*
X163192Y90781D01*
X163207Y90774D01*
X163236Y90759D01*
X163287Y90737D01*
X163346Y90701D01*
X163418Y90657D01*
X163484Y90599D01*
X163550Y90541D01*
X163608Y90468D01*
X163615Y90460D01*
X163630Y90431D01*
X163652Y90395D01*
X163688Y90344D01*
X163717Y90271D01*
X163747Y90198D01*
X163783Y90110D01*
X163805Y90016D01*
Y90008D01*
X163812Y89979D01*
X163819Y89936D01*
X163827Y89877D01*
Y89790D01*
X163834Y89688D01*
X163841Y89564D01*
Y89411D01*
Y87165D01*
X163222D01*
Y89381D01*
Y89389D01*
Y89396D01*
Y89447D01*
Y89513D01*
X163214Y89593D01*
X163207Y89688D01*
X163192Y89783D01*
X163171Y89870D01*
X163149Y89950D01*
Y89957D01*
X163134Y89979D01*
X163112Y90016D01*
X163090Y90060D01*
X163054Y90103D01*
X163010Y90154D01*
X162952Y90205D01*
X162886Y90249D01*
X162879Y90256D01*
X162857Y90271D01*
X162813Y90285D01*
X162762Y90307D01*
X162704Y90329D01*
X162631Y90351D01*
X162544Y90358D01*
X162456Y90366D01*
X162420D01*
X162391Y90358D01*
X162318Y90351D01*
X162223Y90337D01*
X162121Y90300D01*
X162004Y90256D01*
X161888Y90198D01*
X161778Y90110D01*
X161764Y90096D01*
X161734Y90060D01*
X161713Y90030D01*
X161691Y89994D01*
X161662Y89950D01*
X161640Y89899D01*
X161610Y89841D01*
X161581Y89768D01*
X161559Y89688D01*
X161538Y89600D01*
X161523Y89505D01*
X161509Y89403D01*
X161494Y89279D01*
Y89156D01*
Y87165D01*
X160874D01*
Y90825D01*
X161428D01*
Y90300D01*
X161436Y90307D01*
X161450Y90329D01*
X161472Y90358D01*
X161501Y90395D01*
X161545Y90439D01*
X161596Y90490D01*
X161654Y90548D01*
X161727Y90606D01*
X161800Y90657D01*
X161888Y90716D01*
X161982Y90767D01*
X162084Y90810D01*
X162201Y90847D01*
X162318Y90876D01*
X162449Y90898D01*
X162587Y90905D01*
X162646D01*
X162704Y90898D01*
D02*
G37*
G36*
X168376Y92225D02*
X168434Y92217D01*
X168507Y92210D01*
X168587Y92195D01*
X168667Y92181D01*
X168857Y92130D01*
X169046Y92057D01*
X169141Y92013D01*
X169236Y91962D01*
X169323Y91897D01*
X169404Y91824D01*
X169411Y91816D01*
X169425Y91809D01*
X169440Y91780D01*
X169469Y91751D01*
X169506Y91714D01*
X169542Y91663D01*
X169579Y91612D01*
X169622Y91547D01*
X169695Y91408D01*
X169768Y91233D01*
X169797Y91146D01*
X169812Y91044D01*
X169826Y90942D01*
X169834Y90832D01*
Y90818D01*
Y90781D01*
X169826Y90723D01*
X169819Y90643D01*
X169805Y90555D01*
X169775Y90453D01*
X169746Y90344D01*
X169702Y90234D01*
X169695Y90220D01*
X169681Y90183D01*
X169651Y90125D01*
X169608Y90045D01*
X169549Y89957D01*
X169476Y89848D01*
X169389Y89739D01*
X169287Y89615D01*
X169272Y89600D01*
X169236Y89556D01*
X169199Y89520D01*
X169163Y89484D01*
X169119Y89440D01*
X169061Y89381D01*
X169003Y89323D01*
X168930Y89258D01*
X168857Y89185D01*
X168769Y89104D01*
X168675Y89024D01*
X168572Y88929D01*
X168456Y88835D01*
X168339Y88733D01*
X168332Y88725D01*
X168317Y88711D01*
X168288Y88689D01*
X168252Y88660D01*
X168208Y88616D01*
X168157Y88572D01*
X168040Y88477D01*
X167916Y88368D01*
X167800Y88259D01*
X167698Y88164D01*
X167654Y88128D01*
X167617Y88091D01*
X167610Y88084D01*
X167588Y88062D01*
X167559Y88033D01*
X167523Y87989D01*
X167486Y87938D01*
X167443Y87887D01*
X167355Y87763D01*
X169841D01*
Y87165D01*
X166495D01*
Y87173D01*
Y87202D01*
Y87246D01*
X166502Y87304D01*
X166509Y87370D01*
X166524Y87442D01*
X166539Y87515D01*
X166568Y87595D01*
Y87603D01*
X166575Y87610D01*
X166590Y87654D01*
X166619Y87719D01*
X166663Y87807D01*
X166721Y87909D01*
X166794Y88026D01*
X166874Y88142D01*
X166976Y88266D01*
Y88273D01*
X166991Y88281D01*
X167027Y88324D01*
X167093Y88390D01*
X167187Y88485D01*
X167297Y88594D01*
X167435Y88725D01*
X167603Y88871D01*
X167785Y89024D01*
X167792Y89032D01*
X167822Y89053D01*
X167865Y89090D01*
X167916Y89134D01*
X167982Y89192D01*
X168062Y89258D01*
X168142Y89331D01*
X168237Y89411D01*
X168419Y89586D01*
X168602Y89761D01*
X168689Y89848D01*
X168769Y89936D01*
X168842Y90016D01*
X168901Y90096D01*
Y90103D01*
X168915Y90110D01*
X168930Y90132D01*
X168944Y90162D01*
X168995Y90242D01*
X169054Y90337D01*
X169105Y90453D01*
X169156Y90577D01*
X169185Y90716D01*
X169199Y90847D01*
Y90854D01*
Y90861D01*
X169192Y90905D01*
X169185Y90978D01*
X169163Y91058D01*
X169134Y91160D01*
X169083Y91262D01*
X169017Y91364D01*
X168930Y91466D01*
X168915Y91481D01*
X168879Y91510D01*
X168828Y91547D01*
X168747Y91598D01*
X168645Y91641D01*
X168529Y91685D01*
X168390Y91714D01*
X168237Y91722D01*
X168193D01*
X168164Y91714D01*
X168077Y91707D01*
X167975Y91685D01*
X167865Y91656D01*
X167741Y91605D01*
X167625Y91539D01*
X167515Y91452D01*
X167501Y91437D01*
X167472Y91401D01*
X167428Y91343D01*
X167384Y91255D01*
X167333Y91153D01*
X167289Y91022D01*
X167260Y90876D01*
X167246Y90708D01*
X166612Y90774D01*
Y90781D01*
X166619Y90803D01*
Y90839D01*
X166626Y90891D01*
X166641Y90949D01*
X166655Y91014D01*
X166677Y91095D01*
X166699Y91175D01*
X166757Y91350D01*
X166845Y91525D01*
X166896Y91612D01*
X166961Y91700D01*
X167027Y91780D01*
X167100Y91853D01*
X167107Y91860D01*
X167122Y91867D01*
X167144Y91889D01*
X167180Y91911D01*
X167224Y91940D01*
X167275Y91970D01*
X167333Y92006D01*
X167406Y92042D01*
X167486Y92079D01*
X167574Y92115D01*
X167668Y92144D01*
X167771Y92174D01*
X167880Y92195D01*
X167997Y92217D01*
X168121Y92225D01*
X168252Y92232D01*
X168325D01*
X168376Y92225D01*
D02*
G37*
G36*
X159926Y87165D02*
X159307D01*
Y90825D01*
X159926D01*
Y87165D01*
D02*
G37*
G36*
X156865Y92203D02*
X156989Y92195D01*
X157120Y92188D01*
X157244Y92174D01*
X157353Y92159D01*
X157368D01*
X157419Y92144D01*
X157484Y92130D01*
X157572Y92108D01*
X157667Y92071D01*
X157769Y92028D01*
X157878Y91977D01*
X157973Y91918D01*
X157987Y91911D01*
X158017Y91889D01*
X158060Y91846D01*
X158119Y91795D01*
X158184Y91729D01*
X158250Y91641D01*
X158323Y91547D01*
X158381Y91437D01*
X158388Y91423D01*
X158403Y91386D01*
X158432Y91321D01*
X158461Y91233D01*
X158483Y91131D01*
X158512Y91014D01*
X158527Y90883D01*
X158534Y90745D01*
Y90737D01*
Y90716D01*
Y90686D01*
X158527Y90635D01*
X158520Y90584D01*
X158512Y90519D01*
X158498Y90446D01*
X158483Y90366D01*
X158432Y90198D01*
X158403Y90110D01*
X158359Y90016D01*
X158308Y89921D01*
X158257Y89833D01*
X158192Y89746D01*
X158119Y89658D01*
X158111Y89651D01*
X158097Y89637D01*
X158075Y89615D01*
X158038Y89593D01*
X157995Y89556D01*
X157936Y89520D01*
X157863Y89476D01*
X157783Y89440D01*
X157688Y89396D01*
X157579Y89352D01*
X157463Y89316D01*
X157324Y89287D01*
X157178Y89258D01*
X157018Y89236D01*
X156836Y89221D01*
X156646Y89214D01*
X155356D01*
Y87165D01*
X154685D01*
Y92210D01*
X156755D01*
X156865Y92203D01*
D02*
G37*
G36*
X28297Y161731D02*
X27797Y161231D01*
X27359Y161669D01*
X27859Y162169D01*
X28297Y161731D01*
D02*
G37*
G36*
X26055Y163973D02*
X26127Y163891D01*
X26209Y163798D01*
X26297Y163700D01*
X26374Y163602D01*
X26441Y163514D01*
X26452Y163504D01*
X26477Y163458D01*
X26513Y163401D01*
X26560Y163324D01*
X26601Y163231D01*
X26642Y163128D01*
X26684Y163014D01*
X26709Y162906D01*
X26715Y162891D01*
X26720Y162855D01*
Y162793D01*
X26725Y162715D01*
Y162623D01*
X26709Y162514D01*
X26694Y162396D01*
X26658Y162277D01*
X26653Y162262D01*
X26637Y162226D01*
X26611Y162159D01*
X26570Y162076D01*
X26513Y161989D01*
X26452Y161885D01*
X26369Y161782D01*
X26276Y161679D01*
X26271Y161674D01*
X26256Y161659D01*
X26235Y161638D01*
X26194Y161607D01*
X26153Y161576D01*
X26101Y161535D01*
X26039Y161494D01*
X25972Y161447D01*
X25818Y161365D01*
X25735Y161324D01*
X25637Y161288D01*
X25534Y161257D01*
X25436Y161231D01*
X25328Y161215D01*
X25214Y161205D01*
X25204D01*
X25183D01*
X25153D01*
X25111Y161215D01*
X25055Y161221D01*
X24988Y161236D01*
X24905Y161257D01*
X24823Y161288D01*
X24725Y161324D01*
X24617Y161370D01*
X24508Y161427D01*
X24390Y161504D01*
X24266Y161587D01*
X24137Y161685D01*
X23998Y161803D01*
X23859Y161932D01*
X22946Y162844D01*
X21498Y161396D01*
X21024Y161870D01*
X24591Y165437D01*
X26055Y163973D01*
D02*
G37*
G36*
X27318Y160751D02*
X24730Y158164D01*
X24292Y158602D01*
X26880Y161190D01*
X27318Y160751D01*
D02*
G37*
G36*
X28379Y159690D02*
X28008Y159318D01*
X28019D01*
X28045Y159324D01*
X28080Y159329D01*
X28127Y159334D01*
X28189D01*
X28261D01*
X28343D01*
X28436Y159324D01*
X28524Y159308D01*
X28627Y159288D01*
X28730Y159257D01*
X28833Y159215D01*
X28941Y159159D01*
X29044Y159097D01*
X29153Y159019D01*
X29256Y158927D01*
X29297Y158885D01*
X29333Y158839D01*
X29385Y158777D01*
X29441Y158700D01*
X29498Y158612D01*
X29555Y158514D01*
X29596Y158411D01*
X29601Y158396D01*
X29612Y158365D01*
X29632Y158313D01*
X29648Y158246D01*
X29668Y158164D01*
X29673Y158076D01*
X29678Y157989D01*
X29668Y157896D01*
Y157885D01*
X29658Y157854D01*
X29648Y157813D01*
X29637Y157751D01*
X29606Y157679D01*
X29575Y157607D01*
X29539Y157519D01*
X29488Y157437D01*
X29483Y157432D01*
X29467Y157406D01*
X29441Y157370D01*
X29405Y157324D01*
X29344Y157262D01*
X29276Y157184D01*
X29194Y157092D01*
X29086Y156983D01*
X27498Y155396D01*
X27060Y155834D01*
X28627Y157401D01*
X28632Y157406D01*
X28637Y157411D01*
X28673Y157447D01*
X28720Y157494D01*
X28771Y157555D01*
X28833Y157628D01*
X28890Y157705D01*
X28936Y157782D01*
X28978Y157854D01*
X28983Y157860D01*
X28988Y157885D01*
X28998Y157927D01*
X29014Y157973D01*
X29019Y158030D01*
X29024Y158097D01*
X29019Y158174D01*
X29003Y158251D01*
Y158262D01*
X28998Y158288D01*
X28978Y158329D01*
X28957Y158380D01*
X28931Y158437D01*
X28895Y158504D01*
X28838Y158571D01*
X28782Y158638D01*
X28756Y158664D01*
X28730Y158679D01*
X28673Y158726D01*
X28596Y158782D01*
X28498Y158829D01*
X28385Y158880D01*
X28261Y158922D01*
X28122Y158937D01*
X28101D01*
X28055Y158932D01*
X28019Y158927D01*
X27977Y158916D01*
X27926Y158906D01*
X27874Y158885D01*
X27812Y158865D01*
X27740Y158834D01*
X27668Y158793D01*
X27591Y158746D01*
X27514Y158690D01*
X27431Y158628D01*
X27333Y158550D01*
X27246Y158463D01*
X25838Y157055D01*
X25400Y157494D01*
X27988Y160081D01*
X28379Y159690D01*
D02*
G37*
G36*
X35297Y154638D02*
X34952Y154293D01*
X34942D01*
X34921D01*
X34880D01*
X34828Y154282D01*
X34761Y154277D01*
X34679Y154277D01*
X34586Y154267D01*
X34478Y154251D01*
X34369Y154236D01*
X34241Y154220D01*
X34101Y154195D01*
X33962Y154169D01*
X33808Y154138D01*
X33648Y154102D01*
X33478Y154055D01*
X33307Y154009D01*
X33297D01*
X33266Y153999D01*
X33220Y153983D01*
X33148Y153963D01*
X33065Y153932D01*
X32972Y153901D01*
X32864Y153865D01*
X32746Y153818D01*
X32612Y153767D01*
X32472Y153720D01*
X32328Y153658D01*
X32179Y153592D01*
X31874Y153452D01*
X31560Y153293D01*
X31555Y153287D01*
X31534Y153277D01*
X31503Y153256D01*
X31462Y153236D01*
X31411Y153205D01*
X31349Y153164D01*
X31277Y153122D01*
X31204Y153071D01*
X31117Y153014D01*
X31024Y152952D01*
X30833Y152813D01*
X30627Y152658D01*
X30416Y152478D01*
X29967Y152927D01*
X29972Y152932D01*
X29988Y152947D01*
X30008Y152968D01*
X30044Y152994D01*
X30086Y153035D01*
X30143Y153081D01*
X30204Y153133D01*
X30271Y153189D01*
X30354Y153251D01*
X30436Y153313D01*
X30539Y153385D01*
X30643Y153457D01*
X30751Y153535D01*
X30874Y153617D01*
X31137Y153777D01*
X31143Y153782D01*
X31168Y153798D01*
X31209Y153818D01*
X31271Y153849D01*
X31338Y153885D01*
X31421Y153927D01*
X31514Y153978D01*
X31622Y154025D01*
X31740Y154081D01*
X31859Y154138D01*
X32132Y154256D01*
X32431Y154370D01*
X32741Y154473D01*
X32751D01*
X32782Y154483D01*
X32823Y154493D01*
X32885Y154514D01*
X32957Y154535D01*
X33050Y154555D01*
X33148Y154581D01*
X33256Y154607D01*
X33503Y154658D01*
X33761Y154710D01*
X34040Y154751D01*
X34313Y154777D01*
X32565Y156525D01*
X32988Y156947D01*
X35297Y154638D01*
D02*
G37*
G36*
X16843Y162383D02*
X16343Y161883D01*
X15905Y162321D01*
X16405Y162821D01*
X16843Y162383D01*
D02*
G37*
G36*
X14601Y164626D02*
X14673Y164543D01*
X14755Y164450D01*
X14843Y164352D01*
X14920Y164254D01*
X14987Y164167D01*
X14998Y164157D01*
X15023Y164110D01*
X15060Y164053D01*
X15106Y163976D01*
X15147Y163883D01*
X15189Y163780D01*
X15230Y163667D01*
X15256Y163559D01*
X15261Y163543D01*
X15266Y163507D01*
Y163445D01*
X15271Y163368D01*
Y163275D01*
X15256Y163167D01*
X15240Y163048D01*
X15204Y162930D01*
X15199Y162914D01*
X15183Y162878D01*
X15157Y162811D01*
X15116Y162729D01*
X15060Y162641D01*
X14998Y162538D01*
X14915Y162435D01*
X14822Y162332D01*
X14817Y162327D01*
X14802Y162311D01*
X14781Y162291D01*
X14740Y162260D01*
X14699Y162229D01*
X14647Y162187D01*
X14585Y162146D01*
X14518Y162100D01*
X14364Y162017D01*
X14281Y161976D01*
X14183Y161940D01*
X14080Y161909D01*
X13982Y161883D01*
X13874Y161868D01*
X13761Y161857D01*
X13750D01*
X13730D01*
X13699D01*
X13657Y161868D01*
X13601Y161873D01*
X13534Y161888D01*
X13451Y161909D01*
X13369Y161940D01*
X13271Y161976D01*
X13163Y162022D01*
X13054Y162079D01*
X12936Y162156D01*
X12812Y162239D01*
X12683Y162337D01*
X12544Y162455D01*
X12405Y162584D01*
X11492Y163497D01*
X10044Y162048D01*
X9570Y162522D01*
X13137Y166090D01*
X14601Y164626D01*
D02*
G37*
G36*
X15864Y161404D02*
X13276Y158816D01*
X12838Y159254D01*
X15426Y161842D01*
X15864Y161404D01*
D02*
G37*
G36*
X21704Y156924D02*
X21776Y156914D01*
X21869Y156904D01*
X21957Y156888D01*
X22055Y156862D01*
X22163Y156837D01*
X22271Y156790D01*
X22385Y156749D01*
X22498Y156687D01*
X22611Y156615D01*
X22720Y156527D01*
X22828Y156430D01*
X22869Y156388D01*
X22895Y156352D01*
X22931Y156316D01*
X22967Y156270D01*
X23044Y156151D01*
X23127Y156017D01*
X23199Y155862D01*
X23251Y155687D01*
X23271Y155594D01*
X23281Y155502D01*
Y155491D01*
Y155481D01*
Y155450D01*
Y155419D01*
Y155368D01*
X23271Y155316D01*
X23256Y155187D01*
X23220Y155038D01*
X23158Y154873D01*
X23075Y154698D01*
X22962Y154522D01*
X22488Y154924D01*
X22493Y154929D01*
Y154940D01*
X22519Y154976D01*
X22549Y155038D01*
X22586Y155115D01*
X22627Y155198D01*
X22658Y155290D01*
X22678Y155383D01*
X22689Y155466D01*
Y155486D01*
Y155527D01*
X22684Y155594D01*
X22668Y155682D01*
X22632Y155780D01*
X22591Y155883D01*
X22524Y155991D01*
X22441Y156094D01*
X22405Y156131D01*
X22359Y156167D01*
X22302Y156203D01*
X22225Y156249D01*
X22142Y156290D01*
X22055Y156326D01*
X21952Y156347D01*
X21936Y156352D01*
X21890Y156357D01*
X21817D01*
X21720Y156352D01*
X21606Y156342D01*
X21477Y156326D01*
X21333Y156285D01*
X21178Y156234D01*
X21173Y156228D01*
X21158Y156223D01*
X21137Y156213D01*
X21106Y156203D01*
X21070Y156177D01*
X21024Y156151D01*
X20972Y156120D01*
X20910Y156079D01*
X20838Y156038D01*
X20766Y155986D01*
X20689Y155930D01*
X20611Y155862D01*
X20518Y155790D01*
X20431Y155713D01*
X20333Y155625D01*
X20240Y155533D01*
X20251D01*
X20302Y155543D01*
X20379Y155548D01*
X20477Y155553D01*
X20591Y155563D01*
X20714Y155553D01*
X20843Y155538D01*
X20977Y155507D01*
X20982Y155502D01*
X20993D01*
X21039Y155486D01*
X21101Y155455D01*
X21189Y155419D01*
X21282Y155368D01*
X21379Y155301D01*
X21483Y155228D01*
X21580Y155141D01*
X21622Y155100D01*
X21647Y155063D01*
X21684Y155017D01*
X21720Y154971D01*
X21761Y154909D01*
X21797Y154842D01*
X21879Y154687D01*
X21915Y154599D01*
X21941Y154502D01*
X21967Y154404D01*
X21993Y154295D01*
X22003Y154182D01*
Y154069D01*
Y154058D01*
Y154038D01*
Y154007D01*
X21993Y153965D01*
X21982Y153904D01*
X21972Y153842D01*
X21952Y153770D01*
X21931Y153687D01*
X21905Y153600D01*
X21869Y153512D01*
X21823Y153414D01*
X21776Y153316D01*
X21714Y153223D01*
X21642Y153120D01*
X21565Y153022D01*
X21477Y152924D01*
X21472Y152919D01*
X21462Y152909D01*
X21446Y152893D01*
X21421Y152867D01*
X21384Y152842D01*
X21354Y152811D01*
X21256Y152744D01*
X21142Y152661D01*
X21013Y152584D01*
X20864Y152507D01*
X20704Y152450D01*
X20699Y152445D01*
X20689D01*
X20663Y152440D01*
X20632Y152429D01*
X20549Y152409D01*
X20436Y152388D01*
X20307Y152373D01*
X20168Y152367D01*
X20013Y152378D01*
X19864Y152404D01*
X19859Y152409D01*
X19848D01*
X19823Y152414D01*
X19797Y152429D01*
X19720Y152455D01*
X19627Y152496D01*
X19508Y152553D01*
X19390Y152630D01*
X19261Y152718D01*
X19137Y152831D01*
X19111Y152857D01*
X19091Y152888D01*
X19049Y152929D01*
X19008Y152981D01*
X18967Y153043D01*
X18921Y153120D01*
X18874Y153197D01*
X18823Y153290D01*
X18776Y153388D01*
X18735Y153491D01*
X18699Y153610D01*
X18673Y153728D01*
X18653Y153852D01*
X18642Y153986D01*
X18647Y154125D01*
Y154136D01*
X18653Y154161D01*
X18658Y154198D01*
X18673Y154254D01*
X18689Y154332D01*
X18714Y154409D01*
X18750Y154507D01*
X18792Y154610D01*
X18843Y154734D01*
X18910Y154862D01*
X18993Y154997D01*
X19085Y155141D01*
X19194Y155301D01*
X19323Y155460D01*
X19467Y155625D01*
X19627Y155796D01*
X19632Y155801D01*
X19637Y155806D01*
X19652Y155821D01*
X19673Y155842D01*
X19730Y155888D01*
X19802Y155960D01*
X19890Y156038D01*
X19998Y156125D01*
X20117Y156223D01*
X20251Y156326D01*
X20390Y156424D01*
X20544Y156527D01*
X20699Y156620D01*
X20859Y156708D01*
X21024Y156780D01*
X21189Y156842D01*
X21354Y156893D01*
X21513Y156919D01*
X21524D01*
X21544D01*
X21586D01*
X21642Y156924D01*
X21704D01*
D02*
G37*
G36*
X16926Y160342D02*
X16555Y159971D01*
X16565D01*
X16591Y159976D01*
X16627Y159981D01*
X16673Y159986D01*
X16735D01*
X16807D01*
X16890D01*
X16982Y159976D01*
X17070Y159960D01*
X17173Y159940D01*
X17276Y159909D01*
X17379Y159868D01*
X17488Y159811D01*
X17591Y159749D01*
X17699Y159672D01*
X17802Y159579D01*
X17843Y159538D01*
X17879Y159492D01*
X17931Y159430D01*
X17988Y159352D01*
X18044Y159265D01*
X18101Y159167D01*
X18142Y159064D01*
X18147Y159048D01*
X18158Y159017D01*
X18178Y158966D01*
X18194Y158899D01*
X18214Y158816D01*
X18219Y158729D01*
X18225Y158641D01*
X18214Y158548D01*
Y158538D01*
X18204Y158507D01*
X18194Y158466D01*
X18183Y158404D01*
X18153Y158332D01*
X18122Y158259D01*
X18086Y158172D01*
X18034Y158089D01*
X18029Y158084D01*
X18013Y158058D01*
X17988Y158022D01*
X17951Y157976D01*
X17890Y157914D01*
X17823Y157837D01*
X17740Y157744D01*
X17632Y157636D01*
X16044Y156048D01*
X15606Y156486D01*
X17173Y158053D01*
X17178Y158058D01*
X17183Y158064D01*
X17220Y158100D01*
X17266Y158146D01*
X17317Y158208D01*
X17379Y158280D01*
X17436Y158357D01*
X17482Y158435D01*
X17524Y158507D01*
X17529Y158512D01*
X17534Y158538D01*
X17544Y158579D01*
X17560Y158625D01*
X17565Y158682D01*
X17570Y158749D01*
X17565Y158826D01*
X17549Y158904D01*
Y158914D01*
X17544Y158940D01*
X17524Y158981D01*
X17503Y159033D01*
X17477Y159089D01*
X17441Y159156D01*
X17384Y159223D01*
X17328Y159290D01*
X17302Y159316D01*
X17276Y159332D01*
X17220Y159378D01*
X17142Y159435D01*
X17044Y159481D01*
X16931Y159533D01*
X16807Y159574D01*
X16668Y159589D01*
X16647D01*
X16601Y159584D01*
X16565Y159579D01*
X16524Y159569D01*
X16472Y159558D01*
X16420Y159538D01*
X16359Y159517D01*
X16286Y159486D01*
X16214Y159445D01*
X16137Y159399D01*
X16060Y159342D01*
X15977Y159280D01*
X15879Y159203D01*
X15792Y159115D01*
X14384Y157708D01*
X13946Y158146D01*
X16534Y160734D01*
X16926Y160342D01*
D02*
G37*
G36*
X40367Y162580D02*
X39867Y162080D01*
X39429Y162518D01*
X39929Y163018D01*
X40367Y162580D01*
D02*
G37*
G36*
X38124Y164822D02*
X38197Y164740D01*
X38279Y164647D01*
X38367Y164549D01*
X38444Y164451D01*
X38511Y164364D01*
X38521Y164353D01*
X38547Y164307D01*
X38583Y164250D01*
X38630Y164173D01*
X38671Y164080D01*
X38712Y163977D01*
X38753Y163864D01*
X38779Y163756D01*
X38784Y163740D01*
X38789Y163704D01*
Y163642D01*
X38795Y163565D01*
Y163472D01*
X38779Y163364D01*
X38764Y163245D01*
X38728Y163127D01*
X38722Y163111D01*
X38707Y163075D01*
X38681Y163008D01*
X38640Y162926D01*
X38583Y162838D01*
X38521Y162735D01*
X38439Y162632D01*
X38346Y162529D01*
X38341Y162523D01*
X38326Y162508D01*
X38305Y162487D01*
X38264Y162456D01*
X38222Y162425D01*
X38171Y162384D01*
X38109Y162343D01*
X38042Y162297D01*
X37887Y162214D01*
X37805Y162173D01*
X37707Y162137D01*
X37604Y162106D01*
X37506Y162080D01*
X37398Y162065D01*
X37284Y162054D01*
X37274D01*
X37253D01*
X37222D01*
X37181Y162065D01*
X37124Y162070D01*
X37057Y162085D01*
X36975Y162106D01*
X36893Y162137D01*
X36794Y162173D01*
X36686Y162219D01*
X36578Y162276D01*
X36459Y162353D01*
X36336Y162436D01*
X36207Y162534D01*
X36068Y162652D01*
X35928Y162781D01*
X35016Y163694D01*
X33568Y162245D01*
X33093Y162719D01*
X36661Y166287D01*
X38124Y164822D01*
D02*
G37*
G36*
X39387Y161601D02*
X36800Y159013D01*
X36362Y159451D01*
X38949Y162039D01*
X39387Y161601D01*
D02*
G37*
G36*
X40449Y160539D02*
X40078Y160168D01*
X40088D01*
X40114Y160173D01*
X40150Y160178D01*
X40197Y160183D01*
X40258D01*
X40331D01*
X40413D01*
X40506Y160173D01*
X40594Y160157D01*
X40697Y160137D01*
X40800Y160106D01*
X40903Y160065D01*
X41011Y160008D01*
X41114Y159946D01*
X41223Y159869D01*
X41326Y159776D01*
X41367Y159735D01*
X41403Y159688D01*
X41454Y159626D01*
X41511Y159549D01*
X41568Y159461D01*
X41625Y159364D01*
X41666Y159260D01*
X41671Y159245D01*
X41681Y159214D01*
X41702Y159162D01*
X41717Y159096D01*
X41738Y159013D01*
X41743Y158925D01*
X41748Y158838D01*
X41738Y158745D01*
Y158735D01*
X41728Y158704D01*
X41717Y158662D01*
X41707Y158601D01*
X41676Y158528D01*
X41645Y158456D01*
X41609Y158369D01*
X41557Y158286D01*
X41552Y158281D01*
X41537Y158255D01*
X41511Y158219D01*
X41475Y158173D01*
X41413Y158111D01*
X41346Y158034D01*
X41264Y157941D01*
X41155Y157833D01*
X39568Y156245D01*
X39130Y156683D01*
X40697Y158250D01*
X40702Y158255D01*
X40707Y158260D01*
X40743Y158297D01*
X40789Y158343D01*
X40841Y158405D01*
X40903Y158477D01*
X40960Y158554D01*
X41006Y158632D01*
X41047Y158704D01*
X41052Y158709D01*
X41058Y158735D01*
X41068Y158776D01*
X41083Y158822D01*
X41089Y158879D01*
X41094Y158946D01*
X41089Y159023D01*
X41073Y159101D01*
Y159111D01*
X41068Y159137D01*
X41047Y159178D01*
X41027Y159230D01*
X41001Y159286D01*
X40965Y159353D01*
X40908Y159420D01*
X40851Y159487D01*
X40826Y159513D01*
X40800Y159529D01*
X40743Y159575D01*
X40666Y159632D01*
X40568Y159678D01*
X40454Y159730D01*
X40331Y159771D01*
X40192Y159786D01*
X40171D01*
X40124Y159781D01*
X40088Y159776D01*
X40047Y159766D01*
X39996Y159755D01*
X39944Y159735D01*
X39882Y159714D01*
X39810Y159683D01*
X39738Y159642D01*
X39661Y159596D01*
X39583Y159539D01*
X39501Y159477D01*
X39403Y159400D01*
X39315Y159312D01*
X37908Y157905D01*
X37470Y158343D01*
X40058Y160931D01*
X40449Y160539D01*
D02*
G37*
G36*
X45248Y157204D02*
X45264Y157199D01*
X45295D01*
X45331Y157193D01*
X45377Y157188D01*
X45434Y157173D01*
X45501Y157157D01*
X45568Y157142D01*
X45645Y157116D01*
X45728Y157085D01*
X45810Y157044D01*
X45898Y156998D01*
X46073Y156884D01*
X46161Y156807D01*
X46248Y156729D01*
X46295Y156683D01*
X46321Y156647D01*
X46357Y156601D01*
X46398Y156549D01*
X46444Y156492D01*
X46480Y156425D01*
X46573Y156271D01*
X46650Y156101D01*
X46681Y156008D01*
X46707Y155910D01*
X46718Y155807D01*
X46728Y155704D01*
Y155693D01*
Y155683D01*
Y155652D01*
Y155611D01*
X46718Y155559D01*
X46712Y155503D01*
X46687Y155374D01*
X46640Y155224D01*
X46573Y155064D01*
X46480Y154900D01*
X46418Y154827D01*
X46352Y154750D01*
X46346Y154745D01*
X46341Y154740D01*
X46310Y154709D01*
X46259Y154667D01*
X46192Y154621D01*
X46104Y154564D01*
X46006Y154518D01*
X45903Y154477D01*
X45785Y154451D01*
X45769Y154446D01*
X45728D01*
X45666D01*
X45584D01*
X45480Y154456D01*
X45367Y154477D01*
X45243Y154508D01*
X45109Y154559D01*
X45114Y154554D01*
X45120Y154539D01*
X45130Y154518D01*
X45140Y154487D01*
X45176Y154400D01*
X45212Y154291D01*
X45238Y154162D01*
X45264Y154023D01*
X45269Y153874D01*
X45259Y153719D01*
X45254Y153714D01*
Y153704D01*
X45243Y153652D01*
X45223Y153570D01*
X45186Y153472D01*
X45135Y153358D01*
X45068Y153229D01*
X44980Y153101D01*
X44867Y152977D01*
X44862Y152972D01*
X44846Y152956D01*
X44820Y152930D01*
X44785Y152905D01*
X44743Y152874D01*
X44692Y152832D01*
X44630Y152791D01*
X44558Y152750D01*
X44403Y152667D01*
X44310Y152626D01*
X44212Y152601D01*
X44109Y152569D01*
X44006Y152549D01*
X43893Y152539D01*
X43774Y152533D01*
X43764D01*
X43743D01*
X43712D01*
X43671Y152544D01*
X43609Y152554D01*
X43547Y152564D01*
X43475Y152585D01*
X43393Y152606D01*
X43305Y152631D01*
X43212Y152673D01*
X43114Y152719D01*
X43016Y152765D01*
X42918Y152832D01*
X42815Y152905D01*
X42717Y152982D01*
X42614Y153075D01*
X42563Y153126D01*
X42532Y153167D01*
X42491Y153219D01*
X42444Y153276D01*
X42398Y153343D01*
X42351Y153420D01*
X42248Y153595D01*
X42202Y153693D01*
X42161Y153786D01*
X42125Y153894D01*
X42094Y154008D01*
X42073Y154121D01*
X42068Y154240D01*
Y154250D01*
Y154271D01*
Y154302D01*
X42073Y154348D01*
X42083Y154400D01*
X42088Y154466D01*
X42104Y154534D01*
X42125Y154616D01*
X42145Y154699D01*
X42181Y154786D01*
X42259Y154966D01*
X42315Y155064D01*
X42377Y155157D01*
X42449Y155250D01*
X42527Y155338D01*
X42532Y155343D01*
X42542Y155353D01*
X42563Y155374D01*
X42588Y155389D01*
X42619Y155420D01*
X42661Y155451D01*
X42753Y155523D01*
X42867Y155595D01*
X42991Y155657D01*
X43135Y155709D01*
X43284Y155745D01*
X43290Y155750D01*
X43305Y155745D01*
X43351Y155750D01*
X43434D01*
X43542Y155745D01*
X43666Y155724D01*
X43810Y155693D01*
X43955Y155642D01*
X44109Y155559D01*
X44104Y155564D01*
Y155575D01*
X44094Y155595D01*
X44083Y155626D01*
X44058Y155693D01*
X44027Y155786D01*
X44001Y155894D01*
X43986Y156013D01*
X43980Y156131D01*
X43986Y156250D01*
X43991Y156265D01*
X43996Y156302D01*
X44016Y156363D01*
X44047Y156436D01*
X44089Y156528D01*
X44145Y156626D01*
X44217Y156729D01*
X44305Y156827D01*
X44310Y156833D01*
X44320Y156843D01*
X44341Y156863D01*
X44377Y156889D01*
X44413Y156915D01*
X44460Y156951D01*
X44568Y157018D01*
X44702Y157090D01*
X44862Y157147D01*
X44949Y157173D01*
X45042Y157193D01*
X45140Y157199D01*
X45238Y157204D01*
X45248D01*
D02*
G37*
G36*
X52867Y162383D02*
X52367Y161883D01*
X51929Y162321D01*
X52429Y162821D01*
X52867Y162383D01*
D02*
G37*
G36*
X50625Y164626D02*
X50697Y164543D01*
X50779Y164450D01*
X50867Y164352D01*
X50944Y164254D01*
X51011Y164167D01*
X51021Y164157D01*
X51047Y164110D01*
X51083Y164053D01*
X51130Y163976D01*
X51171Y163883D01*
X51212Y163780D01*
X51253Y163667D01*
X51279Y163559D01*
X51284Y163543D01*
X51289Y163507D01*
Y163445D01*
X51295Y163368D01*
Y163275D01*
X51279Y163167D01*
X51264Y163048D01*
X51228Y162930D01*
X51222Y162914D01*
X51207Y162878D01*
X51181Y162811D01*
X51140Y162729D01*
X51083Y162641D01*
X51021Y162538D01*
X50939Y162435D01*
X50846Y162332D01*
X50841Y162327D01*
X50826Y162311D01*
X50805Y162291D01*
X50764Y162260D01*
X50722Y162229D01*
X50671Y162187D01*
X50609Y162146D01*
X50542Y162100D01*
X50387Y162017D01*
X50305Y161976D01*
X50207Y161940D01*
X50104Y161909D01*
X50006Y161883D01*
X49898Y161868D01*
X49784Y161857D01*
X49774D01*
X49753D01*
X49722D01*
X49681Y161868D01*
X49624Y161873D01*
X49557Y161888D01*
X49475Y161909D01*
X49393Y161940D01*
X49294Y161976D01*
X49186Y162022D01*
X49078Y162079D01*
X48959Y162156D01*
X48836Y162239D01*
X48707Y162337D01*
X48568Y162455D01*
X48428Y162584D01*
X47516Y163497D01*
X46068Y162048D01*
X45593Y162522D01*
X49161Y166090D01*
X50625Y164626D01*
D02*
G37*
G36*
X51887Y161404D02*
X49300Y158816D01*
X48862Y159254D01*
X51449Y161842D01*
X51887Y161404D01*
D02*
G37*
G36*
X52949Y160342D02*
X52578Y159971D01*
X52588D01*
X52614Y159976D01*
X52650Y159981D01*
X52697Y159986D01*
X52759D01*
X52831D01*
X52913D01*
X53006Y159976D01*
X53094Y159960D01*
X53197Y159940D01*
X53300Y159909D01*
X53403Y159868D01*
X53511Y159811D01*
X53614Y159749D01*
X53723Y159672D01*
X53826Y159579D01*
X53867Y159538D01*
X53903Y159492D01*
X53954Y159430D01*
X54011Y159352D01*
X54068Y159265D01*
X54125Y159167D01*
X54166Y159064D01*
X54171Y159048D01*
X54181Y159017D01*
X54202Y158966D01*
X54217Y158899D01*
X54238Y158816D01*
X54243Y158729D01*
X54248Y158641D01*
X54238Y158548D01*
Y158538D01*
X54228Y158507D01*
X54217Y158466D01*
X54207Y158404D01*
X54176Y158332D01*
X54145Y158259D01*
X54109Y158172D01*
X54058Y158089D01*
X54052Y158084D01*
X54037Y158058D01*
X54011Y158022D01*
X53975Y157976D01*
X53913Y157914D01*
X53846Y157837D01*
X53764Y157744D01*
X53655Y157636D01*
X52068Y156048D01*
X51630Y156486D01*
X53197Y158053D01*
X53202Y158058D01*
X53207Y158064D01*
X53243Y158100D01*
X53290Y158146D01*
X53341Y158208D01*
X53403Y158280D01*
X53460Y158357D01*
X53506Y158435D01*
X53547Y158507D01*
X53552Y158512D01*
X53557Y158538D01*
X53568Y158579D01*
X53583Y158625D01*
X53588Y158682D01*
X53594Y158749D01*
X53588Y158826D01*
X53573Y158904D01*
Y158914D01*
X53568Y158940D01*
X53547Y158981D01*
X53527Y159033D01*
X53501Y159089D01*
X53465Y159156D01*
X53408Y159223D01*
X53351Y159290D01*
X53326Y159316D01*
X53300Y159332D01*
X53243Y159378D01*
X53166Y159435D01*
X53068Y159481D01*
X52954Y159533D01*
X52831Y159574D01*
X52692Y159589D01*
X52671D01*
X52624Y159584D01*
X52588Y159579D01*
X52547Y159569D01*
X52496Y159558D01*
X52444Y159538D01*
X52382Y159517D01*
X52310Y159486D01*
X52238Y159445D01*
X52161Y159399D01*
X52083Y159342D01*
X52001Y159280D01*
X51903Y159203D01*
X51815Y159115D01*
X50408Y157708D01*
X49970Y158146D01*
X52557Y160734D01*
X52949Y160342D01*
D02*
G37*
G36*
X57583Y157038D02*
X57604D01*
X57635D01*
X57681Y157033D01*
X57738Y157027D01*
X57810Y157017D01*
X57877Y157002D01*
X57965Y156986D01*
X58047Y156966D01*
X58135Y156930D01*
X58331Y156847D01*
X58424Y156796D01*
X58522Y156728D01*
X58614Y156656D01*
X58707Y156574D01*
X58743Y156538D01*
X58764Y156507D01*
X58790Y156481D01*
X58821Y156440D01*
X58893Y156337D01*
X58970Y156218D01*
X59042Y156074D01*
X59104Y155919D01*
X59150Y155749D01*
X59156Y155744D01*
X59150Y155728D01*
X59156Y155703D01*
X59161Y155667D01*
X59171Y155574D01*
X59181Y155450D01*
X59171Y155306D01*
X59156Y155136D01*
X59114Y154960D01*
X59053Y154775D01*
X59047Y154770D01*
X59042Y154754D01*
X59032Y154723D01*
X59017Y154687D01*
X58991Y154641D01*
X58960Y154579D01*
X58918Y154517D01*
X58877Y154445D01*
X58826Y154362D01*
X58764Y154270D01*
X58692Y154177D01*
X58614Y154079D01*
X58527Y153971D01*
X58434Y153857D01*
X58326Y153739D01*
X58207Y153620D01*
X58202Y153615D01*
X58176Y153589D01*
X58140Y153553D01*
X58094Y153507D01*
X58032Y153455D01*
X57965Y153388D01*
X57882Y153316D01*
X57795Y153249D01*
X57604Y153089D01*
X57393Y152929D01*
X57181Y152790D01*
X57068Y152728D01*
X56965Y152677D01*
X56960Y152672D01*
X56944Y152666D01*
X56913Y152656D01*
X56872Y152636D01*
X56826Y152620D01*
X56764Y152600D01*
X56625Y152563D01*
X56465Y152527D01*
X56290Y152496D01*
X56099Y152491D01*
X55908Y152507D01*
X55903Y152512D01*
X55882D01*
X55857Y152517D01*
X55826Y152527D01*
X55779Y152543D01*
X55728Y152553D01*
X55666Y152574D01*
X55609Y152600D01*
X55470Y152656D01*
X55315Y152739D01*
X55166Y152847D01*
X55011Y152981D01*
X54970Y153022D01*
X54949Y153053D01*
X54913Y153089D01*
X54877Y153136D01*
X54800Y153254D01*
X54717Y153388D01*
X54645Y153543D01*
X54589Y153713D01*
X54568Y153806D01*
X54558Y153899D01*
Y153909D01*
Y153919D01*
Y153950D01*
Y153981D01*
X54563Y154027D01*
X54568Y154084D01*
X54589Y154208D01*
X54630Y154352D01*
X54692Y154517D01*
X54779Y154687D01*
X54898Y154868D01*
X55357Y154481D01*
X55351Y154476D01*
X55346Y154460D01*
X55336Y154450D01*
X55321Y154424D01*
X55279Y154352D01*
X55238Y154270D01*
X55192Y154172D01*
X55155Y154063D01*
X55130Y153955D01*
X55125Y153847D01*
Y153837D01*
X55130Y153800D01*
X55145Y153744D01*
X55166Y153682D01*
X55197Y153600D01*
X55243Y153512D01*
X55305Y153419D01*
X55382Y153331D01*
X55418Y153295D01*
X55460Y153264D01*
X55511Y153223D01*
X55578Y153177D01*
X55650Y153136D01*
X55733Y153094D01*
X55821Y153069D01*
X55831D01*
X55862Y153058D01*
X55913Y153048D01*
X55975D01*
X56053Y153043D01*
X56135D01*
X56223Y153048D01*
X56321Y153063D01*
X56331D01*
X56367Y153079D01*
X56424Y153094D01*
X56491Y153120D01*
X56578Y153156D01*
X56676Y153203D01*
X56784Y153259D01*
X56903Y153326D01*
X56908Y153331D01*
X56919D01*
X56934Y153347D01*
X56960Y153362D01*
X57022Y153404D01*
X57104Y153455D01*
X57197Y153527D01*
X57295Y153605D01*
X57398Y153698D01*
X57506Y153795D01*
X57511Y153800D01*
X57527Y153816D01*
X57552Y153842D01*
X57594Y153883D01*
X57578Y153878D01*
X57532Y153873D01*
X57465Y153868D01*
X57377Y153852D01*
X57274D01*
X57156Y153857D01*
X57027Y153873D01*
X56893Y153904D01*
X56877Y153909D01*
X56831Y153924D01*
X56764Y153950D01*
X56687Y153986D01*
X56583Y154038D01*
X56480Y154100D01*
X56372Y154177D01*
X56269Y154270D01*
X56228Y154311D01*
X56202Y154347D01*
X56166Y154393D01*
X56130Y154440D01*
X56089Y154502D01*
X56053Y154569D01*
X55970Y154723D01*
X55934Y154811D01*
X55903Y154904D01*
X55872Y155007D01*
X55857Y155115D01*
X55841Y155223D01*
Y155337D01*
Y155347D01*
Y155368D01*
X55846Y155393D01*
X55851Y155440D01*
X55862Y155502D01*
X55872Y155563D01*
X55893Y155636D01*
X55918Y155713D01*
X55944Y155801D01*
X55980Y155888D01*
X56027Y155986D01*
X56073Y156084D01*
X56135Y156187D01*
X56212Y156285D01*
X56290Y156383D01*
X56382Y156486D01*
X56388Y156491D01*
X56408Y156512D01*
X56434Y156538D01*
X56475Y156569D01*
X56527Y156610D01*
X56589Y156661D01*
X56656Y156708D01*
X56738Y156759D01*
X56908Y156857D01*
X57006Y156904D01*
X57114Y156950D01*
X57223Y156986D01*
X57336Y157007D01*
X57455Y157033D01*
X57573Y157038D01*
X57583D01*
D02*
G37*
G36*
X65465Y164057D02*
X64965Y163557D01*
X64527Y163995D01*
X65027Y164495D01*
X65465Y164057D01*
D02*
G37*
G36*
X63223Y166299D02*
X63295Y166216D01*
X63377Y166124D01*
X63465Y166026D01*
X63542Y165928D01*
X63609Y165840D01*
X63620Y165830D01*
X63646Y165783D01*
X63682Y165727D01*
X63728Y165649D01*
X63769Y165557D01*
X63810Y165454D01*
X63852Y165340D01*
X63877Y165232D01*
X63883Y165216D01*
X63888Y165180D01*
Y165118D01*
X63893Y165041D01*
Y164948D01*
X63877Y164840D01*
X63862Y164722D01*
X63826Y164603D01*
X63821Y164587D01*
X63805Y164551D01*
X63780Y164484D01*
X63738Y164402D01*
X63682Y164314D01*
X63620Y164211D01*
X63537Y164108D01*
X63445Y164005D01*
X63439Y164000D01*
X63424Y163984D01*
X63403Y163964D01*
X63362Y163933D01*
X63321Y163902D01*
X63269Y163861D01*
X63207Y163819D01*
X63140Y163773D01*
X62986Y163690D01*
X62903Y163649D01*
X62805Y163613D01*
X62702Y163582D01*
X62604Y163557D01*
X62496Y163541D01*
X62383Y163531D01*
X62372D01*
X62352D01*
X62321D01*
X62279Y163541D01*
X62223Y163546D01*
X62156Y163562D01*
X62073Y163582D01*
X61991Y163613D01*
X61893Y163649D01*
X61785Y163696D01*
X61676Y163752D01*
X61558Y163830D01*
X61434Y163912D01*
X61305Y164010D01*
X61166Y164129D01*
X61027Y164258D01*
X60115Y165170D01*
X58666Y163722D01*
X58192Y164196D01*
X61759Y167763D01*
X63223Y166299D01*
D02*
G37*
G36*
X64486Y163077D02*
X61898Y160489D01*
X61460Y160928D01*
X64048Y163515D01*
X64486Y163077D01*
D02*
G37*
G36*
X65548Y162015D02*
X65176Y161644D01*
X65187D01*
X65213Y161649D01*
X65249Y161654D01*
X65295Y161660D01*
X65357D01*
X65429D01*
X65512D01*
X65604Y161649D01*
X65692Y161634D01*
X65795Y161613D01*
X65898Y161582D01*
X66001Y161541D01*
X66110Y161484D01*
X66213Y161422D01*
X66321Y161345D01*
X66424Y161252D01*
X66465Y161211D01*
X66501Y161165D01*
X66553Y161103D01*
X66610Y161026D01*
X66666Y160938D01*
X66723Y160840D01*
X66764Y160737D01*
X66769Y160721D01*
X66780Y160690D01*
X66800Y160639D01*
X66816Y160572D01*
X66836Y160489D01*
X66842Y160402D01*
X66847Y160314D01*
X66836Y160221D01*
Y160211D01*
X66826Y160180D01*
X66816Y160139D01*
X66805Y160077D01*
X66774Y160005D01*
X66744Y159933D01*
X66707Y159845D01*
X66656Y159763D01*
X66651Y159757D01*
X66635Y159732D01*
X66610Y159696D01*
X66574Y159649D01*
X66512Y159587D01*
X66445Y159510D01*
X66362Y159417D01*
X66254Y159309D01*
X64666Y157721D01*
X64228Y158159D01*
X65795Y159727D01*
X65800Y159732D01*
X65805Y159737D01*
X65842Y159773D01*
X65888Y159819D01*
X65939Y159881D01*
X66001Y159953D01*
X66058Y160031D01*
X66104Y160108D01*
X66146Y160180D01*
X66151Y160185D01*
X66156Y160211D01*
X66166Y160252D01*
X66182Y160299D01*
X66187Y160355D01*
X66192Y160422D01*
X66187Y160500D01*
X66171Y160577D01*
Y160587D01*
X66166Y160613D01*
X66146Y160654D01*
X66125Y160706D01*
X66099Y160763D01*
X66063Y160830D01*
X66006Y160897D01*
X65950Y160964D01*
X65924Y160989D01*
X65898Y161005D01*
X65842Y161051D01*
X65764Y161108D01*
X65666Y161154D01*
X65553Y161206D01*
X65429Y161247D01*
X65290Y161263D01*
X65269D01*
X65223Y161258D01*
X65187Y161252D01*
X65146Y161242D01*
X65094Y161232D01*
X65043Y161211D01*
X64981Y161190D01*
X64908Y161160D01*
X64836Y161118D01*
X64759Y161072D01*
X64682Y161015D01*
X64599Y160953D01*
X64501Y160876D01*
X64414Y160788D01*
X63006Y159381D01*
X62568Y159819D01*
X65156Y162407D01*
X65548Y162015D01*
D02*
G37*
G36*
X69630Y158128D02*
X69651D01*
X69677Y158113D01*
X69718Y158103D01*
X69764Y158087D01*
X69821Y158072D01*
X69960Y158036D01*
X70120Y157989D01*
X70295Y157958D01*
X70486Y157933D01*
X70682Y157912D01*
X70692D01*
X70702D01*
X70733D01*
X70770Y157907D01*
X70867Y157912D01*
X70991D01*
X71125Y157922D01*
X71275Y157938D01*
X71414Y157964D01*
X71553Y158000D01*
X71837Y157716D01*
X68254Y154133D01*
X67816Y154572D01*
X70605Y157360D01*
X70594D01*
X70548Y157366D01*
X70486D01*
X70398Y157381D01*
X70295Y157391D01*
X70172Y157412D01*
X70032Y157438D01*
X69883Y157474D01*
X69878Y157479D01*
X69867D01*
X69816Y157489D01*
X69739Y157515D01*
X69646Y157546D01*
X69538Y157582D01*
X69424Y157623D01*
X69311Y157665D01*
X69202Y157711D01*
X69625Y158134D01*
X69630Y158128D01*
D02*
G37*
G36*
X73264Y155866D02*
X73270Y155860D01*
X73285Y155866D01*
X73311Y155860D01*
X73342Y155850D01*
X73388Y155845D01*
X73435Y155829D01*
X73553Y155793D01*
X73682Y155737D01*
X73826Y155665D01*
X73976Y155556D01*
X74125Y155427D01*
X74172Y155381D01*
X74223Y155319D01*
X74280Y155242D01*
X74342Y155149D01*
X74404Y155046D01*
X74466Y154932D01*
X74507Y154809D01*
X74512Y154804D01*
Y154793D01*
X74522Y154752D01*
X74538Y154685D01*
X74553Y154597D01*
X74558Y154489D01*
X74563Y154371D01*
X74553Y154247D01*
X74533Y154113D01*
X74527Y154097D01*
X74522Y154051D01*
X74496Y153984D01*
X74466Y153881D01*
X74419Y153773D01*
X74373Y153644D01*
X74306Y153505D01*
X74223Y153360D01*
X74218Y153355D01*
X74213Y153340D01*
X74203Y153319D01*
X74182Y153288D01*
X74156Y153252D01*
X74125Y153211D01*
X74089Y153154D01*
X74043Y153097D01*
X73996Y153030D01*
X73940Y152963D01*
X73873Y152886D01*
X73811Y152804D01*
X73734Y152716D01*
X73651Y152634D01*
X73563Y152535D01*
X73466Y152438D01*
X73460Y152432D01*
X73440Y152412D01*
X73404Y152376D01*
X73362Y152334D01*
X73300Y152283D01*
X73239Y152221D01*
X73167Y152159D01*
X73089Y152092D01*
X72909Y151943D01*
X72713Y151798D01*
X72517Y151664D01*
X72419Y151608D01*
X72316Y151556D01*
X72311Y151551D01*
X72295Y151546D01*
X72264Y151535D01*
X72228Y151520D01*
X72182Y151494D01*
X72125Y151479D01*
X71996Y151432D01*
X71852Y151391D01*
X71682Y151355D01*
X71512Y151340D01*
X71331Y151345D01*
X71326Y151350D01*
X71311Y151345D01*
X71285Y151350D01*
X71254Y151360D01*
X71213Y151371D01*
X71166Y151376D01*
X71053Y151417D01*
X70924Y151474D01*
X70780Y151546D01*
X70630Y151654D01*
X70481Y151783D01*
X70429Y151834D01*
X70398Y151876D01*
X70362Y151922D01*
X70321Y151984D01*
X70275Y152051D01*
X70228Y152128D01*
X70187Y152211D01*
X70141Y152298D01*
X70104Y152396D01*
X70074Y152499D01*
X70048Y152608D01*
X70032Y152726D01*
X70027Y152845D01*
X70032Y152963D01*
Y152974D01*
X70038Y152999D01*
X70048Y153041D01*
X70063Y153108D01*
X70084Y153180D01*
X70120Y153268D01*
X70156Y153376D01*
X70208Y153489D01*
X70270Y153613D01*
X70347Y153752D01*
X70434Y153902D01*
X70543Y154061D01*
X70661Y154232D01*
X70800Y154402D01*
X70960Y154582D01*
X71135Y154768D01*
X71141Y154773D01*
X71161Y154793D01*
X71197Y154829D01*
X71239Y154871D01*
X71301Y154922D01*
X71362Y154984D01*
X71434Y155046D01*
X71517Y155118D01*
X71692Y155262D01*
X71888Y155407D01*
X72089Y155546D01*
X72187Y155603D01*
X72285Y155659D01*
X72290Y155665D01*
X72306Y155670D01*
X72337Y155680D01*
X72373Y155695D01*
X72419Y155721D01*
X72476Y155737D01*
X72605Y155783D01*
X72749Y155824D01*
X72914Y155855D01*
X73089Y155876D01*
X73264Y155866D01*
D02*
G37*
G36*
X10088Y153168D02*
X9588Y152668D01*
X9150Y153106D01*
X9650Y153606D01*
X10088Y153168D01*
D02*
G37*
G36*
X7846Y155410D02*
X7918Y155328D01*
X8001Y155235D01*
X8088Y155137D01*
X8166Y155039D01*
X8233Y154952D01*
X8243Y154941D01*
X8269Y154895D01*
X8305Y154838D01*
X8351Y154761D01*
X8393Y154668D01*
X8434Y154565D01*
X8475Y154452D01*
X8501Y154343D01*
X8506Y154328D01*
X8511Y154292D01*
Y154230D01*
X8516Y154153D01*
Y154060D01*
X8501Y153951D01*
X8485Y153833D01*
X8449Y153714D01*
X8444Y153699D01*
X8428Y153663D01*
X8403Y153596D01*
X8361Y153513D01*
X8305Y153426D01*
X8243Y153323D01*
X8161Y153219D01*
X8068Y153116D01*
X8063Y153111D01*
X8047Y153096D01*
X8027Y153075D01*
X7985Y153044D01*
X7944Y153013D01*
X7892Y152972D01*
X7831Y152931D01*
X7764Y152884D01*
X7609Y152802D01*
X7526Y152761D01*
X7429Y152725D01*
X7325Y152694D01*
X7227Y152668D01*
X7119Y152652D01*
X7006Y152642D01*
X6995D01*
X6975D01*
X6944D01*
X6903Y152652D01*
X6846Y152658D01*
X6779Y152673D01*
X6696Y152694D01*
X6614Y152725D01*
X6516Y152761D01*
X6408Y152807D01*
X6300Y152864D01*
X6181Y152941D01*
X6057Y153024D01*
X5928Y153121D01*
X5789Y153240D01*
X5650Y153369D01*
X4738Y154281D01*
X3289Y152833D01*
X2815Y153307D01*
X6382Y156874D01*
X7846Y155410D01*
D02*
G37*
G36*
X9109Y152189D02*
X6521Y149601D01*
X6083Y150039D01*
X8671Y152627D01*
X9109Y152189D01*
D02*
G37*
G36*
X10171Y151127D02*
X9800Y150756D01*
X9810D01*
X9836Y150761D01*
X9872Y150766D01*
X9918Y150771D01*
X9980D01*
X10052D01*
X10135D01*
X10228Y150761D01*
X10315Y150745D01*
X10418Y150724D01*
X10521Y150694D01*
X10625Y150652D01*
X10733Y150596D01*
X10836Y150534D01*
X10944Y150457D01*
X11047Y150364D01*
X11088Y150322D01*
X11124Y150276D01*
X11176Y150214D01*
X11233Y150137D01*
X11289Y150049D01*
X11346Y149951D01*
X11387Y149848D01*
X11393Y149833D01*
X11403Y149802D01*
X11423Y149750D01*
X11439Y149683D01*
X11460Y149601D01*
X11465Y149513D01*
X11470Y149425D01*
X11460Y149333D01*
Y149322D01*
X11449Y149292D01*
X11439Y149250D01*
X11429Y149188D01*
X11398Y149116D01*
X11367Y149044D01*
X11331Y148956D01*
X11279Y148874D01*
X11274Y148869D01*
X11259Y148843D01*
X11233Y148807D01*
X11197Y148760D01*
X11135Y148699D01*
X11068Y148621D01*
X10985Y148529D01*
X10877Y148420D01*
X9289Y146833D01*
X8851Y147271D01*
X10418Y148838D01*
X10424Y148843D01*
X10429Y148848D01*
X10465Y148884D01*
X10511Y148931D01*
X10563Y148993D01*
X10625Y149065D01*
X10681Y149142D01*
X10728Y149219D01*
X10769Y149292D01*
X10774Y149297D01*
X10779Y149322D01*
X10789Y149364D01*
X10805Y149410D01*
X10810Y149467D01*
X10815Y149534D01*
X10810Y149611D01*
X10795Y149688D01*
Y149699D01*
X10789Y149724D01*
X10769Y149766D01*
X10748Y149817D01*
X10722Y149874D01*
X10686Y149941D01*
X10630Y150008D01*
X10573Y150075D01*
X10547Y150101D01*
X10521Y150116D01*
X10465Y150163D01*
X10387Y150219D01*
X10289Y150266D01*
X10176Y150317D01*
X10052Y150358D01*
X9913Y150374D01*
X9893D01*
X9846Y150369D01*
X9810Y150364D01*
X9769Y150353D01*
X9717Y150343D01*
X9666Y150322D01*
X9604Y150302D01*
X9532Y150271D01*
X9460Y150230D01*
X9382Y150183D01*
X9305Y150127D01*
X9222Y150065D01*
X9124Y149987D01*
X9037Y149900D01*
X7630Y148493D01*
X7191Y148931D01*
X9779Y151518D01*
X10171Y151127D01*
D02*
G37*
G36*
X16635Y146621D02*
X14326Y144312D01*
X14810Y143827D01*
X14408Y143425D01*
X13924Y143910D01*
X13068Y143054D01*
X12630Y143492D01*
X13485Y144348D01*
X11934Y145900D01*
X12336Y146302D01*
X16279Y146977D01*
X16635Y146621D01*
D02*
G37*
G36*
X-1688Y11079D02*
X-2307D01*
Y11786D01*
X-1688D01*
Y11079D01*
D02*
G37*
G36*
X1090Y10474D02*
X1170Y10466D01*
X1265Y10452D01*
X1367Y10430D01*
X1476Y10401D01*
X1578Y10357D01*
X1593Y10350D01*
X1622Y10335D01*
X1673Y10313D01*
X1731Y10277D01*
X1804Y10233D01*
X1870Y10175D01*
X1936Y10116D01*
X1994Y10043D01*
X2001Y10036D01*
X2016Y10007D01*
X2038Y9971D01*
X2074Y9920D01*
X2103Y9847D01*
X2132Y9774D01*
X2169Y9686D01*
X2191Y9591D01*
Y9584D01*
X2198Y9555D01*
X2205Y9511D01*
X2213Y9453D01*
Y9365D01*
X2220Y9263D01*
X2227Y9139D01*
Y8986D01*
Y6741D01*
X1608D01*
Y8957D01*
Y8964D01*
Y8972D01*
Y9023D01*
Y9088D01*
X1600Y9169D01*
X1593Y9263D01*
X1578Y9358D01*
X1556Y9446D01*
X1535Y9526D01*
Y9533D01*
X1520Y9555D01*
X1498Y9591D01*
X1476Y9635D01*
X1440Y9679D01*
X1396Y9730D01*
X1338Y9781D01*
X1272Y9825D01*
X1265Y9832D01*
X1243Y9847D01*
X1199Y9861D01*
X1148Y9883D01*
X1090Y9905D01*
X1017Y9927D01*
X929Y9934D01*
X842Y9941D01*
X806D01*
X776Y9934D01*
X703Y9927D01*
X609Y9912D01*
X507Y9876D01*
X390Y9832D01*
X273Y9774D01*
X164Y9686D01*
X149Y9672D01*
X120Y9635D01*
X98Y9606D01*
X77Y9569D01*
X47Y9526D01*
X25Y9475D01*
X-4Y9416D01*
X-33Y9344D01*
X-55Y9263D01*
X-77Y9176D01*
X-91Y9081D01*
X-106Y8979D01*
X-120Y8855D01*
Y8731D01*
Y6741D01*
X-740D01*
Y10401D01*
X-186D01*
Y9876D01*
X-179Y9883D01*
X-164Y9905D01*
X-142Y9934D01*
X-113Y9971D01*
X-69Y10014D01*
X-18Y10065D01*
X40Y10124D01*
X113Y10182D01*
X186Y10233D01*
X273Y10291D01*
X368Y10342D01*
X470Y10386D01*
X587Y10423D01*
X703Y10452D01*
X835Y10474D01*
X973Y10481D01*
X1032D01*
X1090Y10474D01*
D02*
G37*
G36*
X8074Y11130D02*
X6054D01*
X5785Y9766D01*
X5792Y9774D01*
X5807Y9781D01*
X5828Y9796D01*
X5865Y9817D01*
X5909Y9839D01*
X5960Y9868D01*
X6076Y9927D01*
X6222Y9985D01*
X6382Y10036D01*
X6557Y10073D01*
X6645Y10087D01*
X6805D01*
X6849Y10080D01*
X6907Y10073D01*
X6973Y10065D01*
X7046Y10051D01*
X7126Y10029D01*
X7301Y9978D01*
X7396Y9941D01*
X7491Y9890D01*
X7585Y9839D01*
X7680Y9781D01*
X7767Y9708D01*
X7855Y9628D01*
X7862Y9621D01*
X7877Y9606D01*
X7899Y9584D01*
X7928Y9548D01*
X7964Y9497D01*
X8001Y9446D01*
X8044Y9380D01*
X8088Y9307D01*
X8125Y9227D01*
X8168Y9139D01*
X8205Y9037D01*
X8241Y8935D01*
X8270Y8826D01*
X8292Y8702D01*
X8307Y8578D01*
X8314Y8447D01*
Y8440D01*
Y8418D01*
Y8381D01*
X8307Y8330D01*
X8300Y8272D01*
X8292Y8206D01*
X8278Y8126D01*
X8263Y8046D01*
X8219Y7856D01*
X8147Y7660D01*
X8103Y7558D01*
X8044Y7463D01*
X7986Y7361D01*
X7913Y7266D01*
X7906Y7259D01*
X7891Y7237D01*
X7862Y7208D01*
X7826Y7171D01*
X7775Y7127D01*
X7717Y7069D01*
X7644Y7018D01*
X7563Y6960D01*
X7476Y6901D01*
X7374Y6850D01*
X7265Y6799D01*
X7148Y6748D01*
X7024Y6712D01*
X6885Y6683D01*
X6740Y6661D01*
X6587Y6654D01*
X6521D01*
X6470Y6661D01*
X6412Y6668D01*
X6346Y6675D01*
X6266Y6683D01*
X6186Y6705D01*
X6003Y6748D01*
X5821Y6814D01*
X5726Y6858D01*
X5632Y6909D01*
X5544Y6967D01*
X5457Y7033D01*
X5449Y7040D01*
X5435Y7047D01*
X5420Y7076D01*
X5391Y7106D01*
X5354Y7142D01*
X5318Y7186D01*
X5274Y7244D01*
X5238Y7310D01*
X5194Y7375D01*
X5150Y7455D01*
X5070Y7630D01*
X5005Y7835D01*
X4983Y7944D01*
X4968Y8061D01*
X5617Y8111D01*
Y8104D01*
Y8090D01*
X5624Y8068D01*
X5632Y8031D01*
X5653Y7951D01*
X5683Y7842D01*
X5726Y7733D01*
X5785Y7609D01*
X5858Y7499D01*
X5945Y7397D01*
X5960Y7390D01*
X5989Y7361D01*
X6047Y7324D01*
X6127Y7281D01*
X6215Y7237D01*
X6324Y7200D01*
X6448Y7171D01*
X6587Y7164D01*
X6630D01*
X6659Y7171D01*
X6747Y7178D01*
X6849Y7208D01*
X6973Y7244D01*
X7097Y7302D01*
X7228Y7390D01*
X7286Y7441D01*
X7345Y7499D01*
X7352Y7507D01*
X7359Y7514D01*
X7374Y7536D01*
X7396Y7558D01*
X7447Y7638D01*
X7505Y7740D01*
X7556Y7864D01*
X7607Y8017D01*
X7644Y8199D01*
X7658Y8294D01*
Y8396D01*
Y8403D01*
Y8418D01*
Y8447D01*
X7651Y8483D01*
Y8527D01*
X7644Y8578D01*
X7622Y8695D01*
X7585Y8833D01*
X7534Y8972D01*
X7461Y9103D01*
X7359Y9227D01*
Y9234D01*
X7345Y9241D01*
X7308Y9278D01*
X7243Y9329D01*
X7155Y9387D01*
X7039Y9438D01*
X6907Y9489D01*
X6754Y9526D01*
X6667Y9540D01*
X6528D01*
X6470Y9533D01*
X6397Y9526D01*
X6310Y9504D01*
X6222Y9482D01*
X6127Y9446D01*
X6033Y9402D01*
X6025Y9395D01*
X5996Y9380D01*
X5952Y9344D01*
X5894Y9307D01*
X5836Y9256D01*
X5777Y9190D01*
X5712Y9125D01*
X5661Y9045D01*
X5077Y9125D01*
X5566Y11720D01*
X8074D01*
Y11130D01*
D02*
G37*
G36*
X-1688Y6741D02*
X-2307D01*
Y10401D01*
X-1688D01*
Y6741D01*
D02*
G37*
G36*
X-4749Y11778D02*
X-4625Y11771D01*
X-4494Y11764D01*
X-4370Y11749D01*
X-4261Y11735D01*
X-4246D01*
X-4195Y11720D01*
X-4130Y11705D01*
X-4042Y11684D01*
X-3948Y11647D01*
X-3845Y11603D01*
X-3736Y11552D01*
X-3641Y11494D01*
X-3627Y11487D01*
X-3598Y11465D01*
X-3554Y11421D01*
X-3495Y11370D01*
X-3430Y11305D01*
X-3364Y11217D01*
X-3291Y11122D01*
X-3233Y11013D01*
X-3226Y10998D01*
X-3211Y10962D01*
X-3182Y10896D01*
X-3153Y10809D01*
X-3131Y10707D01*
X-3102Y10590D01*
X-3087Y10459D01*
X-3080Y10320D01*
Y10313D01*
Y10291D01*
Y10262D01*
X-3087Y10211D01*
X-3095Y10160D01*
X-3102Y10094D01*
X-3117Y10022D01*
X-3131Y9941D01*
X-3182Y9774D01*
X-3211Y9686D01*
X-3255Y9591D01*
X-3306Y9497D01*
X-3357Y9409D01*
X-3423Y9322D01*
X-3495Y9234D01*
X-3503Y9227D01*
X-3517Y9212D01*
X-3539Y9190D01*
X-3576Y9169D01*
X-3619Y9132D01*
X-3678Y9096D01*
X-3751Y9052D01*
X-3831Y9015D01*
X-3926Y8972D01*
X-4035Y8928D01*
X-4152Y8892D01*
X-4290Y8862D01*
X-4436Y8833D01*
X-4596Y8811D01*
X-4779Y8797D01*
X-4968Y8789D01*
X-6258D01*
Y6741D01*
X-6929D01*
Y11786D01*
X-4859D01*
X-4749Y11778D01*
D02*
G37*
G36*
X159139Y11582D02*
X158519D01*
Y12289D01*
X159139D01*
Y11582D01*
D02*
G37*
G36*
X161917Y10977D02*
X161997Y10969D01*
X162092Y10955D01*
X162194Y10933D01*
X162303Y10904D01*
X162405Y10860D01*
X162420Y10853D01*
X162449Y10838D01*
X162500Y10816D01*
X162558Y10780D01*
X162631Y10736D01*
X162697Y10678D01*
X162762Y10619D01*
X162821Y10547D01*
X162828Y10539D01*
X162843Y10510D01*
X162864Y10474D01*
X162901Y10423D01*
X162930Y10350D01*
X162959Y10277D01*
X162996Y10189D01*
X163017Y10095D01*
Y10087D01*
X163025Y10058D01*
X163032Y10014D01*
X163039Y9956D01*
Y9868D01*
X163047Y9766D01*
X163054Y9642D01*
Y9489D01*
Y7244D01*
X162434D01*
Y9460D01*
Y9467D01*
Y9475D01*
Y9526D01*
Y9591D01*
X162427Y9672D01*
X162420Y9766D01*
X162405Y9861D01*
X162383Y9949D01*
X162361Y10029D01*
Y10036D01*
X162347Y10058D01*
X162325Y10095D01*
X162303Y10138D01*
X162267Y10182D01*
X162223Y10233D01*
X162164Y10284D01*
X162099Y10328D01*
X162092Y10335D01*
X162070Y10350D01*
X162026Y10364D01*
X161975Y10386D01*
X161917Y10408D01*
X161844Y10430D01*
X161756Y10437D01*
X161669Y10444D01*
X161632D01*
X161603Y10437D01*
X161530Y10430D01*
X161435Y10415D01*
X161333Y10379D01*
X161217Y10335D01*
X161100Y10277D01*
X160991Y10189D01*
X160976Y10175D01*
X160947Y10138D01*
X160925Y10109D01*
X160903Y10073D01*
X160874Y10029D01*
X160852Y9978D01*
X160823Y9920D01*
X160794Y9847D01*
X160772Y9766D01*
X160750Y9679D01*
X160736Y9584D01*
X160721Y9482D01*
X160706Y9358D01*
Y9234D01*
Y7244D01*
X160087D01*
Y10904D01*
X160641D01*
Y10379D01*
X160648Y10386D01*
X160663Y10408D01*
X160685Y10437D01*
X160714Y10474D01*
X160758Y10517D01*
X160809Y10568D01*
X160867Y10627D01*
X160940Y10685D01*
X161013Y10736D01*
X161100Y10794D01*
X161195Y10845D01*
X161297Y10889D01*
X161414Y10926D01*
X161530Y10955D01*
X161662Y10977D01*
X161800Y10984D01*
X161858D01*
X161917Y10977D01*
D02*
G37*
G36*
X168128Y7244D02*
X167508D01*
Y11188D01*
X167501Y11181D01*
X167464Y11152D01*
X167421Y11108D01*
X167348Y11057D01*
X167268Y10991D01*
X167165Y10918D01*
X167049Y10838D01*
X166918Y10758D01*
X166910D01*
X166903Y10751D01*
X166859Y10721D01*
X166786Y10685D01*
X166699Y10641D01*
X166597Y10590D01*
X166488Y10539D01*
X166378Y10488D01*
X166269Y10444D01*
Y11042D01*
X166276D01*
X166291Y11057D01*
X166320Y11064D01*
X166356Y11086D01*
X166400Y11108D01*
X166451Y11137D01*
X166575Y11210D01*
X166721Y11290D01*
X166867Y11392D01*
X167020Y11509D01*
X167173Y11633D01*
X167180Y11640D01*
X167187Y11647D01*
X167209Y11669D01*
X167238Y11691D01*
X167304Y11764D01*
X167391Y11851D01*
X167479Y11953D01*
X167574Y12070D01*
X167654Y12187D01*
X167727Y12311D01*
X168128D01*
Y7244D01*
D02*
G37*
G36*
X159139D02*
X158519D01*
Y10904D01*
X159139D01*
Y7244D01*
D02*
G37*
G36*
X156077Y12281D02*
X156201Y12274D01*
X156333Y12267D01*
X156456Y12252D01*
X156566Y12238D01*
X156580D01*
X156631Y12223D01*
X156697Y12209D01*
X156784Y12187D01*
X156879Y12150D01*
X156981Y12106D01*
X157091Y12055D01*
X157185Y11997D01*
X157200Y11990D01*
X157229Y11968D01*
X157273Y11924D01*
X157331Y11873D01*
X157397Y11808D01*
X157462Y11720D01*
X157535Y11625D01*
X157594Y11516D01*
X157601Y11501D01*
X157615Y11465D01*
X157645Y11399D01*
X157674Y11312D01*
X157696Y11210D01*
X157725Y11093D01*
X157739Y10962D01*
X157747Y10824D01*
Y10816D01*
Y10794D01*
Y10765D01*
X157739Y10714D01*
X157732Y10663D01*
X157725Y10598D01*
X157710Y10525D01*
X157696Y10444D01*
X157645Y10277D01*
X157615Y10189D01*
X157572Y10095D01*
X157521Y10000D01*
X157470Y9912D01*
X157404Y9825D01*
X157331Y9737D01*
X157324Y9730D01*
X157309Y9715D01*
X157288Y9693D01*
X157251Y9672D01*
X157207Y9635D01*
X157149Y9599D01*
X157076Y9555D01*
X156996Y9519D01*
X156901Y9475D01*
X156792Y9431D01*
X156675Y9395D01*
X156537Y9365D01*
X156391Y9336D01*
X156230Y9314D01*
X156048Y9300D01*
X155859Y9293D01*
X154568D01*
Y7244D01*
X153898D01*
Y12289D01*
X155968D01*
X156077Y12281D01*
D02*
G37*
G36*
X159336Y153205D02*
X158716D01*
Y153912D01*
X159336D01*
Y153205D01*
D02*
G37*
G36*
X162113Y152600D02*
X162194Y152592D01*
X162288Y152578D01*
X162390Y152556D01*
X162500Y152527D01*
X162602Y152483D01*
X162617Y152476D01*
X162646Y152461D01*
X162697Y152439D01*
X162755Y152403D01*
X162828Y152359D01*
X162893Y152301D01*
X162959Y152242D01*
X163017Y152169D01*
X163025Y152162D01*
X163039Y152133D01*
X163061Y152096D01*
X163098Y152046D01*
X163127Y151973D01*
X163156Y151900D01*
X163192Y151812D01*
X163214Y151717D01*
Y151710D01*
X163222Y151681D01*
X163229Y151637D01*
X163236Y151579D01*
Y151491D01*
X163243Y151389D01*
X163251Y151265D01*
Y151112D01*
Y148867D01*
X162631D01*
Y151083D01*
Y151091D01*
Y151098D01*
Y151149D01*
Y151214D01*
X162624Y151295D01*
X162617Y151389D01*
X162602Y151484D01*
X162580Y151572D01*
X162558Y151652D01*
Y151659D01*
X162544Y151681D01*
X162522Y151717D01*
X162500Y151761D01*
X162463Y151805D01*
X162420Y151856D01*
X162361Y151907D01*
X162296Y151951D01*
X162288Y151958D01*
X162267Y151973D01*
X162223Y151987D01*
X162172Y152009D01*
X162113Y152031D01*
X162041Y152053D01*
X161953Y152060D01*
X161866Y152067D01*
X161829D01*
X161800Y152060D01*
X161727Y152053D01*
X161632Y152038D01*
X161530Y152002D01*
X161414Y151958D01*
X161297Y151900D01*
X161188Y151812D01*
X161173Y151798D01*
X161144Y151761D01*
X161122Y151732D01*
X161100Y151696D01*
X161071Y151652D01*
X161049Y151601D01*
X161020Y151542D01*
X160991Y151470D01*
X160969Y151389D01*
X160947Y151302D01*
X160933Y151207D01*
X160918Y151105D01*
X160903Y150981D01*
Y150857D01*
Y148867D01*
X160284D01*
Y152527D01*
X160838D01*
Y152002D01*
X160845Y152009D01*
X160860Y152031D01*
X160881Y152060D01*
X160911Y152096D01*
X160954Y152140D01*
X161005Y152191D01*
X161064Y152250D01*
X161137Y152308D01*
X161209Y152359D01*
X161297Y152417D01*
X161392Y152468D01*
X161494Y152512D01*
X161610Y152549D01*
X161727Y152578D01*
X161858Y152600D01*
X161997Y152607D01*
X162055D01*
X162113Y152600D01*
D02*
G37*
G36*
X167727Y153926D02*
X167822Y153912D01*
X167938Y153890D01*
X168069Y153853D01*
X168201Y153810D01*
X168332Y153751D01*
X168339D01*
X168346Y153744D01*
X168390Y153722D01*
X168456Y153678D01*
X168529Y153627D01*
X168616Y153554D01*
X168704Y153474D01*
X168791Y153379D01*
X168864Y153270D01*
X168871Y153256D01*
X168893Y153219D01*
X168922Y153154D01*
X168959Y153073D01*
X168995Y152979D01*
X169024Y152869D01*
X169046Y152745D01*
X169054Y152621D01*
Y152607D01*
Y152563D01*
X169046Y152505D01*
X169032Y152425D01*
X169010Y152330D01*
X168973Y152228D01*
X168930Y152126D01*
X168871Y152024D01*
X168864Y152009D01*
X168842Y151980D01*
X168798Y151929D01*
X168740Y151871D01*
X168667Y151805D01*
X168580Y151732D01*
X168478Y151666D01*
X168354Y151601D01*
X168361D01*
X168376Y151593D01*
X168397Y151586D01*
X168427Y151579D01*
X168507Y151550D01*
X168609Y151506D01*
X168726Y151448D01*
X168842Y151375D01*
X168951Y151280D01*
X169054Y151171D01*
X169061Y151156D01*
X169090Y151112D01*
X169134Y151039D01*
X169177Y150945D01*
X169221Y150828D01*
X169265Y150689D01*
X169294Y150529D01*
X169301Y150354D01*
Y150347D01*
Y150325D01*
Y150289D01*
X169294Y150245D01*
X169287Y150187D01*
X169272Y150121D01*
X169258Y150048D01*
X169243Y149968D01*
X169185Y149793D01*
X169141Y149698D01*
X169097Y149611D01*
X169039Y149516D01*
X168973Y149421D01*
X168901Y149326D01*
X168813Y149239D01*
X168806Y149232D01*
X168791Y149217D01*
X168762Y149195D01*
X168726Y149166D01*
X168682Y149129D01*
X168623Y149093D01*
X168558Y149049D01*
X168478Y149013D01*
X168397Y148969D01*
X168303Y148925D01*
X168208Y148889D01*
X168099Y148852D01*
X167982Y148823D01*
X167858Y148801D01*
X167734Y148787D01*
X167596Y148779D01*
X167530D01*
X167486Y148787D01*
X167428Y148794D01*
X167362Y148801D01*
X167289Y148816D01*
X167209Y148831D01*
X167034Y148874D01*
X166852Y148947D01*
X166757Y148991D01*
X166670Y149042D01*
X166582Y149108D01*
X166495Y149173D01*
X166488Y149180D01*
X166473Y149195D01*
X166451Y149217D01*
X166429Y149246D01*
X166393Y149283D01*
X166356Y149334D01*
X166313Y149385D01*
X166269Y149450D01*
X166225Y149523D01*
X166181Y149596D01*
X166101Y149771D01*
X166035Y149975D01*
X166014Y150084D01*
X165999Y150201D01*
X166619Y150281D01*
Y150274D01*
X166626Y150259D01*
X166633Y150230D01*
X166641Y150194D01*
X166648Y150150D01*
X166662Y150099D01*
X166699Y149990D01*
X166750Y149858D01*
X166815Y149734D01*
X166888Y149618D01*
X166976Y149516D01*
X166990Y149509D01*
X167020Y149479D01*
X167078Y149443D01*
X167151Y149407D01*
X167238Y149363D01*
X167348Y149326D01*
X167472Y149297D01*
X167603Y149290D01*
X167647D01*
X167676Y149297D01*
X167756Y149304D01*
X167858Y149326D01*
X167975Y149363D01*
X168099Y149414D01*
X168222Y149487D01*
X168339Y149589D01*
X168354Y149603D01*
X168390Y149647D01*
X168434Y149713D01*
X168492Y149800D01*
X168551Y149909D01*
X168594Y150033D01*
X168631Y150179D01*
X168645Y150340D01*
Y150347D01*
Y150362D01*
Y150383D01*
X168638Y150412D01*
X168631Y150493D01*
X168609Y150587D01*
X168580Y150704D01*
X168529Y150821D01*
X168456Y150937D01*
X168361Y151047D01*
X168346Y151061D01*
X168310Y151091D01*
X168252Y151134D01*
X168172Y151185D01*
X168069Y151236D01*
X167946Y151280D01*
X167807Y151309D01*
X167654Y151324D01*
X167588D01*
X167537Y151316D01*
X167472Y151309D01*
X167399Y151295D01*
X167311Y151280D01*
X167217Y151258D01*
X167289Y151805D01*
X167326D01*
X167355Y151798D01*
X167450D01*
X167530Y151812D01*
X167625Y151827D01*
X167734Y151849D01*
X167858Y151885D01*
X167975Y151936D01*
X168099Y152002D01*
X168106D01*
X168113Y152009D01*
X168150Y152038D01*
X168201Y152089D01*
X168259Y152155D01*
X168317Y152250D01*
X168368Y152359D01*
X168405Y152483D01*
X168419Y152556D01*
Y152636D01*
Y152643D01*
Y152650D01*
Y152694D01*
X168405Y152753D01*
X168390Y152833D01*
X168361Y152920D01*
X168325Y153015D01*
X168266Y153110D01*
X168186Y153197D01*
X168179Y153205D01*
X168142Y153234D01*
X168091Y153270D01*
X168026Y153314D01*
X167938Y153350D01*
X167836Y153387D01*
X167719Y153416D01*
X167588Y153423D01*
X167530D01*
X167464Y153409D01*
X167377Y153394D01*
X167282Y153365D01*
X167187Y153329D01*
X167085Y153270D01*
X166990Y153197D01*
X166983Y153190D01*
X166954Y153154D01*
X166910Y153103D01*
X166859Y153030D01*
X166808Y152935D01*
X166757Y152818D01*
X166714Y152680D01*
X166684Y152519D01*
X166065Y152629D01*
Y152636D01*
X166072Y152658D01*
X166079Y152687D01*
X166086Y152731D01*
X166101Y152782D01*
X166123Y152840D01*
X166167Y152979D01*
X166240Y153139D01*
X166327Y153299D01*
X166437Y153452D01*
X166575Y153591D01*
X166582Y153598D01*
X166597Y153605D01*
X166619Y153620D01*
X166648Y153642D01*
X166684Y153671D01*
X166735Y153700D01*
X166786Y153729D01*
X166852Y153766D01*
X166998Y153824D01*
X167166Y153883D01*
X167362Y153919D01*
X167464Y153934D01*
X167647D01*
X167727Y153926D01*
D02*
G37*
G36*
X159336Y148867D02*
X158716D01*
Y152527D01*
X159336D01*
Y148867D01*
D02*
G37*
G36*
X156274Y153904D02*
X156398Y153897D01*
X156529Y153890D01*
X156653Y153875D01*
X156763Y153861D01*
X156777D01*
X156828Y153846D01*
X156894Y153832D01*
X156981Y153810D01*
X157076Y153773D01*
X157178Y153729D01*
X157288Y153678D01*
X157382Y153620D01*
X157397Y153613D01*
X157426Y153591D01*
X157470Y153547D01*
X157528Y153496D01*
X157594Y153430D01*
X157659Y153343D01*
X157732Y153248D01*
X157791Y153139D01*
X157798Y153124D01*
X157812Y153088D01*
X157842Y153022D01*
X157871Y152935D01*
X157893Y152833D01*
X157922Y152716D01*
X157936Y152585D01*
X157944Y152446D01*
Y152439D01*
Y152417D01*
Y152388D01*
X157936Y152337D01*
X157929Y152286D01*
X157922Y152220D01*
X157907Y152147D01*
X157893Y152067D01*
X157842Y151900D01*
X157812Y151812D01*
X157769Y151717D01*
X157718Y151623D01*
X157667Y151535D01*
X157601Y151448D01*
X157528Y151360D01*
X157521Y151353D01*
X157506Y151338D01*
X157484Y151316D01*
X157448Y151295D01*
X157404Y151258D01*
X157346Y151222D01*
X157273Y151178D01*
X157193Y151142D01*
X157098Y151098D01*
X156989Y151054D01*
X156872Y151018D01*
X156734Y150988D01*
X156588Y150959D01*
X156427Y150937D01*
X156245Y150923D01*
X156055Y150916D01*
X154765D01*
Y148867D01*
X154095D01*
Y153912D01*
X156165D01*
X156274Y153904D01*
D02*
G37*
%LPC*%
G36*
X328729Y144620D02*
X239628D01*
Y144217D01*
X239224D01*
Y133332D01*
X239628D01*
Y132928D01*
X329132D01*
Y144217D01*
X328729D01*
Y144620D01*
D02*
G37*
G36*
X238821D02*
X210196D01*
Y132928D01*
X238821D01*
Y144620D01*
D02*
G37*
G36*
X328729Y132525D02*
X239628D01*
Y132122D01*
X239224D01*
Y122043D01*
X239628D01*
Y121639D01*
X329132D01*
Y132122D01*
X328729D01*
Y132525D01*
D02*
G37*
G36*
X238821D02*
X210196D01*
Y121639D01*
X238821D01*
Y132525D01*
D02*
G37*
G36*
X328729Y121236D02*
X239628D01*
Y120833D01*
X239224D01*
Y111560D01*
X239628D01*
Y111157D01*
X328729D01*
Y111560D01*
X329132D01*
Y120833D01*
X328729D01*
Y121236D01*
D02*
G37*
G36*
X238821D02*
X210196D01*
Y111157D01*
X238821D01*
Y115189D01*
Y115592D01*
Y121236D01*
D02*
G37*
G36*
X329132Y110754D02*
X239224D01*
Y101077D01*
X239628D01*
Y100674D01*
X329132D01*
Y110754D01*
D02*
G37*
G36*
X238821D02*
X210196D01*
Y100674D01*
X238821D01*
Y110754D01*
D02*
G37*
G36*
X329132Y100271D02*
X239628D01*
Y99868D01*
X239224D01*
Y90998D01*
X239628D01*
Y89789D01*
X239224D01*
Y80919D01*
X239628D01*
Y80516D01*
X329132D01*
Y89789D01*
X328326D01*
Y90192D01*
X328729D01*
Y90595D01*
X329132D01*
Y100271D01*
D02*
G37*
G36*
X238821D02*
X210196D01*
Y90192D01*
X210599D01*
Y89789D01*
X210196D01*
Y80516D01*
X238821D01*
Y89789D01*
X238418D01*
Y90192D01*
X238821D01*
Y100271D01*
D02*
G37*
G36*
X328729Y80112D02*
X239628D01*
Y79709D01*
X239224D01*
Y49874D01*
X239628D01*
Y49471D01*
X328729D01*
Y49874D01*
X329132D01*
Y79709D01*
X328729D01*
Y80112D01*
D02*
G37*
G36*
X238821D02*
X210196D01*
Y49471D01*
X238821D01*
Y60357D01*
Y60760D01*
Y80112D01*
D02*
G37*
G36*
X329132Y49068D02*
X239224D01*
Y38989D01*
X239628D01*
Y38585D01*
X328729D01*
Y38989D01*
X329132D01*
Y49068D01*
D02*
G37*
G36*
X238821D02*
X210196D01*
Y38585D01*
X238821D01*
Y41004D01*
Y41408D01*
Y49068D01*
D02*
G37*
G36*
X260593Y24071D02*
X258980D01*
Y23668D01*
X258577D01*
Y21249D01*
X258980D01*
Y20846D01*
X260593D01*
Y21249D01*
X260996D01*
Y22055D01*
X261399D01*
Y22862D01*
X260996D01*
Y23668D01*
X260593D01*
Y24071D01*
D02*
G37*
G36*
X254545D02*
X253335D01*
Y23668D01*
X252932D01*
Y22862D01*
Y22458D01*
Y21249D01*
X253335D01*
Y20846D01*
X254545D01*
Y21249D01*
X255351D01*
Y23668D01*
X254545D01*
Y24071D01*
D02*
G37*
G36*
X329132Y38182D02*
X239224D01*
Y28909D01*
X239628D01*
Y28103D01*
X239224D01*
Y18427D01*
X239628D01*
Y18023D01*
X251320D01*
Y18427D01*
X251723D01*
Y18830D01*
X252126D01*
Y24071D01*
X251723D01*
Y24474D01*
X255351D01*
Y24071D01*
X255755D01*
Y23265D01*
X256158D01*
Y21652D01*
X255755D01*
Y20846D01*
X255351D01*
Y20443D01*
X252932D01*
Y18830D01*
X253335D01*
Y18427D01*
X253739D01*
Y18023D01*
X256964D01*
Y18427D01*
X257770D01*
Y24071D01*
X257367D01*
Y24474D01*
X260996D01*
Y24071D01*
X261399D01*
Y23668D01*
X261802D01*
Y21249D01*
X261399D01*
Y20846D01*
X260996D01*
Y20443D01*
X258577D01*
Y18830D01*
X258980D01*
Y18427D01*
X259383D01*
Y18023D01*
X328729D01*
Y18427D01*
X329132D01*
Y28103D01*
X328326D01*
Y28909D01*
X329132D01*
Y34150D01*
Y34554D01*
Y38182D01*
D02*
G37*
G36*
X238821D02*
X210196D01*
Y28506D01*
X210599D01*
Y28103D01*
X210196D01*
Y18023D01*
X238821D01*
Y28103D01*
X238418D01*
Y28506D01*
X238821D01*
Y38182D01*
D02*
G37*
G36*
X329132Y17620D02*
X239628D01*
Y17217D01*
X239224D01*
Y7944D01*
X239628D01*
Y7541D01*
X251320D01*
Y7944D01*
X251723D01*
Y8347D01*
X252126D01*
Y13589D01*
X251320D01*
Y13992D01*
X252932D01*
Y13589D01*
X253335D01*
Y13185D01*
X252932D01*
Y10766D01*
X253335D01*
Y10363D01*
X254948D01*
Y10766D01*
X255351D01*
Y12782D01*
X254948D01*
Y13185D01*
X254545D01*
Y13589D01*
X253335D01*
Y13992D01*
X254948D01*
Y13589D01*
X255755D01*
Y12782D01*
X256158D01*
Y10766D01*
X255755D01*
Y10363D01*
X255351D01*
Y9960D01*
X252932D01*
Y8347D01*
X253335D01*
Y7944D01*
X253739D01*
Y7541D01*
X256964D01*
Y7944D01*
X257367D01*
Y8347D01*
X257770D01*
Y13589D01*
X257367D01*
Y13992D01*
X258577D01*
Y13589D01*
X258980D01*
Y13185D01*
X258577D01*
Y10766D01*
X258980D01*
Y10363D01*
X260593D01*
Y10766D01*
X260996D01*
Y11573D01*
X261399D01*
Y12379D01*
X260996D01*
Y13185D01*
X260190D01*
Y13589D01*
X258980D01*
Y13992D01*
X260996D01*
Y13589D01*
X261399D01*
Y13185D01*
X261802D01*
Y10766D01*
X261399D01*
Y10363D01*
X260996D01*
Y9960D01*
X258577D01*
Y8347D01*
X258980D01*
Y7944D01*
X259383D01*
Y7541D01*
X328729D01*
Y7944D01*
X329132D01*
Y17620D01*
D02*
G37*
G36*
X238821D02*
X210196D01*
Y7541D01*
X238821D01*
Y17620D01*
D02*
G37*
%LPD*%
G36*
X268656Y140992D02*
X269059D01*
Y139379D01*
X268253D01*
Y140185D01*
X267850D01*
Y140589D01*
X267447D01*
Y140992D01*
X266237D01*
Y140589D01*
X265834D01*
Y140185D01*
X265431D01*
Y139379D01*
X265028D01*
Y136960D01*
X265431D01*
Y136154D01*
X265834D01*
Y135751D01*
X266237D01*
Y135347D01*
X267447D01*
Y134944D01*
X265834D01*
Y135347D01*
X265431D01*
Y135751D01*
X265028D01*
Y136154D01*
X264624D01*
Y137363D01*
X264221D01*
Y138976D01*
X264624D01*
Y140185D01*
X265028D01*
Y140589D01*
X265431D01*
Y140992D01*
X265834D01*
Y141395D01*
X267447D01*
Y140992D01*
X268253D01*
Y141395D01*
X268656D01*
Y140992D01*
D02*
G37*
G36*
X274301D02*
X274704D01*
Y139379D01*
X273897D01*
Y140589D01*
X273494D01*
Y140992D01*
X272688D01*
Y135347D01*
X273091D01*
Y134944D01*
X271478D01*
Y135751D01*
X271882D01*
Y140589D01*
X271478D01*
Y140992D01*
X270672D01*
Y140589D01*
X270269D01*
Y139379D01*
X269866D01*
Y139782D01*
Y140185D01*
Y141395D01*
X274301D01*
Y140992D01*
D02*
G37*
G36*
X250110D02*
X250513D01*
Y139379D01*
X249707D01*
Y140992D01*
X247288D01*
Y140589D01*
X246885D01*
Y138976D01*
X247288D01*
Y138573D01*
X248094D01*
Y139379D01*
X248497D01*
Y137363D01*
X248094D01*
Y138170D01*
X247288D01*
Y137766D01*
X246885D01*
Y135751D01*
X247288D01*
Y135347D01*
X247691D01*
Y134944D01*
X245675D01*
Y135347D01*
X246078D01*
Y135751D01*
X246481D01*
Y140589D01*
X246078D01*
Y140992D01*
X245675D01*
Y141395D01*
X250110D01*
Y140992D01*
D02*
G37*
G36*
X263415D02*
X262609D01*
Y135347D01*
X261802D01*
Y136154D01*
X261399D01*
Y136557D01*
X260996D01*
Y137363D01*
X260593D01*
Y138170D01*
X260190D01*
Y138573D01*
X259786D01*
Y139379D01*
X259383D01*
Y139782D01*
X258980D01*
Y135751D01*
X259383D01*
Y134944D01*
X257770D01*
Y135347D01*
X258174D01*
Y135751D01*
X258577D01*
Y138976D01*
Y139379D01*
Y140992D01*
X257770D01*
Y141395D01*
X259383D01*
Y140589D01*
X259786D01*
Y139782D01*
X260190D01*
Y139379D01*
X260593D01*
Y138573D01*
X260996D01*
Y138170D01*
X261399D01*
Y137363D01*
X262205D01*
Y140992D01*
X261399D01*
Y141395D01*
X263415D01*
Y140992D01*
D02*
G37*
G36*
X289621D02*
X289218D01*
Y135347D01*
X288412D01*
Y136154D01*
X288008D01*
Y136557D01*
X287605D01*
Y137363D01*
X287202D01*
Y137766D01*
X286799D01*
Y138573D01*
X286396D01*
Y139379D01*
X285993D01*
Y139782D01*
X285590D01*
Y135347D01*
X285993D01*
Y134944D01*
X284380D01*
Y135347D01*
X284783D01*
Y135751D01*
X285186D01*
Y140992D01*
X284380D01*
Y141395D01*
X285993D01*
Y140589D01*
X286396D01*
Y139782D01*
X286799D01*
Y139379D01*
X287202D01*
Y138573D01*
X287605D01*
Y138170D01*
X288008D01*
Y137363D01*
X288412D01*
Y136960D01*
X288815D01*
Y140992D01*
X288008D01*
Y141395D01*
X289621D01*
Y140992D01*
D02*
G37*
G36*
X256964D02*
X256158D01*
Y140185D01*
Y139782D01*
Y136154D01*
X255755D01*
Y135751D01*
X255351D01*
Y136557D01*
X255755D01*
Y140992D01*
X254948D01*
Y141395D01*
X256964D01*
Y140992D01*
D02*
G37*
G36*
X268656Y135751D02*
X268253D01*
Y135347D01*
X267447D01*
Y135751D01*
X267850D01*
Y136154D01*
X268253D01*
Y136557D01*
X268656D01*
Y135751D01*
D02*
G37*
G36*
X255351Y135347D02*
X254545D01*
Y135751D01*
X255351D01*
Y135347D01*
D02*
G37*
G36*
X281558Y140992D02*
X282364D01*
Y140589D01*
X282767D01*
Y139782D01*
X283170D01*
Y136557D01*
X282767D01*
Y135751D01*
X282364D01*
Y135347D01*
X281558D01*
Y134944D01*
X279945D01*
Y135347D01*
X279542D01*
Y135751D01*
X279139D01*
Y136154D01*
X278735D01*
Y137363D01*
X278332D01*
Y138976D01*
X278735D01*
Y140185D01*
X279139D01*
Y140589D01*
X279542D01*
Y140992D01*
X279945D01*
Y141395D01*
X281558D01*
Y140992D01*
D02*
G37*
G36*
X277526D02*
X276720D01*
Y135347D01*
X277123D01*
Y134944D01*
X275510D01*
Y135347D01*
X275913D01*
Y140589D01*
Y140992D01*
X275107D01*
Y141395D01*
X277526D01*
Y140992D01*
D02*
G37*
G36*
X253335D02*
X252529D01*
Y136557D01*
X252932D01*
Y136154D01*
X253335D01*
Y135751D01*
X253739D01*
Y135347D01*
X254545D01*
Y134944D01*
X253335D01*
Y135347D01*
X252529D01*
Y135751D01*
X252126D01*
Y140589D01*
X251723D01*
Y140992D01*
X251320D01*
Y141395D01*
X253335D01*
Y140992D01*
D02*
G37*
%LPC*%
G36*
X281155D02*
X280348D01*
Y140589D01*
X279945D01*
Y140185D01*
X279542D01*
Y139379D01*
X279139D01*
Y136960D01*
X279542D01*
Y136154D01*
X279945D01*
Y135751D01*
X280751D01*
Y135347D01*
X281155D01*
Y135751D01*
X281558D01*
Y136154D01*
X281961D01*
Y136557D01*
X282364D01*
Y139782D01*
X281961D01*
Y140589D01*
X281155D01*
Y140992D01*
D02*
G37*
%LPD*%
G36*
X234789Y140589D02*
Y139782D01*
X234386D01*
Y140992D01*
X234789D01*
Y140589D01*
D02*
G37*
G36*
X233177Y139782D02*
X232774D01*
Y140992D01*
X233177D01*
Y139782D01*
D02*
G37*
G36*
X219066Y140992D02*
X219469D01*
Y140589D01*
X219872D01*
Y138573D01*
X219469D01*
Y138170D01*
X218663D01*
Y137766D01*
X217856D01*
Y138170D01*
X218259D01*
Y138573D01*
X219066D01*
Y139379D01*
X219469D01*
Y139782D01*
X219066D01*
Y140589D01*
X218663D01*
Y140992D01*
X216243D01*
Y138573D01*
X216647D01*
Y137766D01*
X216243D01*
Y135751D01*
X216647D01*
Y135347D01*
X217050D01*
Y134944D01*
X215034D01*
Y135347D01*
X215437D01*
Y135751D01*
X215840D01*
Y140589D01*
X215437D01*
Y140992D01*
X215034D01*
Y141395D01*
X219066D01*
Y140992D01*
D02*
G37*
G36*
X229548D02*
X228742D01*
Y135347D01*
X228339D01*
Y135751D01*
X227936D01*
Y136154D01*
X227532D01*
Y136960D01*
X227129D01*
Y137766D01*
X226726D01*
Y138170D01*
X226323D01*
Y138976D01*
X225920D01*
Y139379D01*
X225516D01*
Y140185D01*
X225113D01*
Y135751D01*
X225516D01*
Y135347D01*
X225920D01*
Y134944D01*
X224307D01*
Y135347D01*
X224710D01*
Y140992D01*
X223904D01*
Y141395D01*
X225516D01*
Y140992D01*
X225920D01*
Y140185D01*
X226323D01*
Y139379D01*
X226726D01*
Y138976D01*
X227129D01*
Y138170D01*
X227532D01*
Y137766D01*
X227936D01*
Y137363D01*
X228339D01*
Y140992D01*
X227532D01*
Y141395D01*
X229548D01*
Y140992D01*
D02*
G37*
G36*
X234386Y137766D02*
X233983D01*
Y136557D01*
X234386D01*
Y136154D01*
X233580D01*
Y134541D01*
X233177D01*
Y136154D01*
X231967D01*
Y134944D01*
X231564D01*
Y136154D01*
X231161D01*
Y136557D01*
X231564D01*
Y136960D01*
X231967D01*
Y137766D01*
X231564D01*
Y138170D01*
X231967D01*
Y138573D01*
X232370D01*
Y139782D01*
X232774D01*
Y137766D01*
X232370D01*
Y136557D01*
X233177D01*
Y136960D01*
X233580D01*
Y137766D01*
X233177D01*
Y138170D01*
X233580D01*
Y138573D01*
X233983D01*
Y139782D01*
X234386D01*
Y137766D01*
D02*
G37*
G36*
X223097Y140992D02*
X222694D01*
Y140589D01*
X222291D01*
Y137363D01*
Y136960D01*
Y135751D01*
X222694D01*
Y135347D01*
X223097D01*
Y134944D01*
X221081D01*
Y135347D01*
X221485D01*
Y135751D01*
X221888D01*
Y140992D01*
X221081D01*
Y141395D01*
X223097D01*
Y140992D01*
D02*
G37*
G36*
X233177Y133332D02*
X232774D01*
Y134541D01*
X233177D01*
Y133332D01*
D02*
G37*
G36*
X231564Y134541D02*
Y134138D01*
Y133332D01*
X231161D01*
Y134944D01*
X231564D01*
Y134541D01*
D02*
G37*
G36*
X257770Y130106D02*
Y128897D01*
X257367D01*
Y129300D01*
X256964D01*
Y129703D01*
X256561D01*
Y130106D01*
X254948D01*
Y129703D01*
X254545D01*
Y129300D01*
X254142D01*
Y126074D01*
X254545D01*
Y125268D01*
X254948D01*
Y124865D01*
X256561D01*
Y125268D01*
X256964D01*
Y125671D01*
X257367D01*
Y124865D01*
X256964D01*
Y124462D01*
X254545D01*
Y124865D01*
X254142D01*
Y125268D01*
X253739D01*
Y126074D01*
X253335D01*
Y128897D01*
X253739D01*
Y129703D01*
X254142D01*
Y130106D01*
X254545D01*
Y130509D01*
X256964D01*
Y130106D01*
X257367D01*
Y130509D01*
X257770D01*
Y130106D01*
D02*
G37*
G36*
X252126D02*
X251320D01*
Y129703D01*
X250917D01*
Y130106D01*
X250513D01*
Y130509D01*
X252126D01*
Y130106D01*
D02*
G37*
G36*
X257770Y125671D02*
X257367D01*
Y126074D01*
X257770D01*
Y125671D01*
D02*
G37*
G36*
X248094Y130106D02*
X248497D01*
Y129703D01*
X248901D01*
Y128897D01*
X249304D01*
Y128090D01*
X249707D01*
Y127687D01*
X250110D01*
Y126881D01*
X250513D01*
Y126478D01*
X251320D01*
Y125671D01*
X251723D01*
Y124865D01*
X251320D01*
Y124462D01*
X250917D01*
Y124865D01*
X250513D01*
Y125671D01*
X250110D01*
Y126478D01*
X249707D01*
Y126881D01*
X249304D01*
Y127687D01*
X248901D01*
Y128090D01*
X248497D01*
Y128897D01*
X248094D01*
Y129300D01*
X247691D01*
Y127687D01*
Y127284D01*
Y124865D01*
X248094D01*
Y124462D01*
X247288D01*
Y130106D01*
X246885D01*
Y130509D01*
X248094D01*
Y130106D01*
D02*
G37*
G36*
X223904Y127284D02*
Y126881D01*
Y124462D01*
X223501D01*
Y124058D01*
X223097D01*
Y124462D01*
X222694D01*
Y124865D01*
X223097D01*
Y129300D01*
X222291D01*
Y129703D01*
X222694D01*
Y130106D01*
X223097D01*
Y130509D01*
X223904D01*
Y127284D01*
D02*
G37*
G36*
X251723Y118011D02*
X250917D01*
Y118817D01*
X250513D01*
Y119220D01*
X248901D01*
Y118817D01*
X248497D01*
Y118414D01*
X248094D01*
Y117204D01*
X247691D01*
Y115995D01*
X248094D01*
Y114786D01*
X248497D01*
Y114382D01*
X248901D01*
Y113979D01*
X250513D01*
Y114382D01*
X250917D01*
Y115592D01*
X250513D01*
Y115995D01*
X250917D01*
Y116398D01*
X252126D01*
Y115592D01*
X251723D01*
Y113576D01*
X248497D01*
Y113979D01*
X248094D01*
Y114382D01*
X247691D01*
Y114786D01*
X247288D01*
Y118414D01*
X247691D01*
Y118817D01*
X248094D01*
Y119220D01*
X248497D01*
Y119624D01*
X251723D01*
Y118011D01*
D02*
G37*
G36*
X258577Y119220D02*
X258174D01*
Y113576D01*
X257367D01*
Y114382D01*
X256964D01*
Y115189D01*
X256561D01*
Y115592D01*
X256158D01*
Y116398D01*
X255755D01*
Y117204D01*
X255351D01*
Y117608D01*
X254948D01*
Y118414D01*
X254545D01*
Y115189D01*
Y114786D01*
Y113979D01*
X254948D01*
Y113576D01*
X253739D01*
Y113979D01*
X254142D01*
Y119220D01*
X253335D01*
Y119624D01*
X254948D01*
Y118817D01*
X255351D01*
Y118414D01*
X255755D01*
Y117608D01*
X256158D01*
Y117204D01*
X256561D01*
Y116398D01*
X256964D01*
Y115592D01*
X257770D01*
Y119220D01*
X256964D01*
Y119624D01*
X258577D01*
Y119220D01*
D02*
G37*
G36*
X263415D02*
X263818D01*
Y118817D01*
X264221D01*
Y118414D01*
X264624D01*
Y114786D01*
X264221D01*
Y114382D01*
X263818D01*
Y113979D01*
X263415D01*
Y113576D01*
X262205D01*
Y113979D01*
X263012D01*
Y114382D01*
X263415D01*
Y114786D01*
X263818D01*
Y115592D01*
X264221D01*
Y117608D01*
X263818D01*
Y118011D01*
Y118414D01*
X263415D01*
Y118817D01*
X263012D01*
Y119220D01*
X261399D01*
Y118817D01*
X260996D01*
Y114382D01*
X261399D01*
Y113576D01*
X260996D01*
Y113173D01*
X260593D01*
Y113576D01*
X260190D01*
Y114382D01*
X260593D01*
Y118817D01*
X260190D01*
Y119220D01*
X259786D01*
Y119624D01*
X263415D01*
Y119220D01*
D02*
G37*
G36*
X221485Y117608D02*
X221081D01*
Y118011D01*
X220678D01*
Y118817D01*
X221081D01*
Y119220D01*
X221485D01*
Y117608D01*
D02*
G37*
G36*
X224307Y119220D02*
X224710D01*
Y118414D01*
X225113D01*
Y117608D01*
X224710D01*
Y117204D01*
X224307D01*
Y116801D01*
X223904D01*
Y116398D01*
X223097D01*
Y115995D01*
X221888D01*
Y116398D01*
X222291D01*
Y116801D01*
X223501D01*
Y117204D01*
X223904D01*
Y117608D01*
X224307D01*
Y118817D01*
X223904D01*
Y119220D01*
X221485D01*
Y119624D01*
X224307D01*
Y119220D01*
D02*
G37*
G36*
X221888Y115592D02*
X221485D01*
Y115995D01*
X221888D01*
Y115592D01*
D02*
G37*
G36*
X221485Y114786D02*
X222291D01*
Y114382D01*
X223097D01*
Y113979D01*
X223904D01*
Y114382D01*
X224307D01*
Y114786D01*
X225113D01*
Y114382D01*
X224710D01*
Y113576D01*
X222291D01*
Y113979D01*
X220678D01*
Y114786D01*
X221081D01*
Y115592D01*
X221485D01*
Y114786D01*
D02*
G37*
G36*
X257770Y107528D02*
X257367D01*
Y108738D01*
X256964D01*
Y109141D01*
X254545D01*
Y106722D01*
X255755D01*
Y107528D01*
X256158D01*
Y105109D01*
X255755D01*
Y106319D01*
X254545D01*
Y103497D01*
X254948D01*
Y103093D01*
X253335D01*
Y103497D01*
X253739D01*
Y108738D01*
Y109141D01*
X253335D01*
Y109544D01*
X257770D01*
Y107528D01*
D02*
G37*
G36*
X279945Y103900D02*
X279542D01*
Y104303D01*
X279945D01*
Y103900D01*
D02*
G37*
G36*
X295669Y103497D02*
X295266D01*
Y103900D01*
X295669D01*
Y103497D01*
D02*
G37*
G36*
X284380Y107125D02*
X284783D01*
Y106722D01*
X285186D01*
Y105916D01*
X285590D01*
Y104706D01*
X285186D01*
Y103900D01*
X284783D01*
Y103497D01*
X283977D01*
Y103093D01*
X282767D01*
Y103497D01*
X282364D01*
Y103093D01*
X281961D01*
Y102690D01*
Y102287D01*
Y101884D01*
X282364D01*
Y101481D01*
X282767D01*
Y101077D01*
X280751D01*
Y101481D01*
X281155D01*
Y101884D01*
X281558D01*
Y107125D01*
X280751D01*
Y107528D01*
X281961D01*
Y107125D01*
X282767D01*
Y106722D01*
X282364D01*
Y106319D01*
X281961D01*
Y104706D01*
X282364D01*
Y103900D01*
X282767D01*
Y103497D01*
X283574D01*
Y103900D01*
X284380D01*
Y104303D01*
X284783D01*
Y106319D01*
X284380D01*
Y106722D01*
X283977D01*
Y107125D01*
X282767D01*
Y107528D01*
X284380D01*
Y107125D01*
D02*
G37*
G36*
X279542Y103497D02*
X279139D01*
Y103900D01*
X279542D01*
Y103497D01*
D02*
G37*
G36*
X294056Y107528D02*
X294863D01*
Y107125D01*
X294056D01*
Y103900D01*
X294459D01*
Y103497D01*
X295266D01*
Y103093D01*
X294056D01*
Y103497D01*
X293653D01*
Y104303D01*
X293250D01*
Y107125D01*
X292847D01*
Y107528D01*
X293250D01*
Y109141D01*
X294056D01*
Y107528D01*
D02*
G37*
G36*
X290831Y103900D02*
X291234D01*
Y103497D01*
X291637D01*
Y103093D01*
X290428D01*
Y103497D01*
X289621D01*
Y103900D01*
X290024D01*
Y104706D01*
X290428D01*
Y105916D01*
Y106319D01*
Y106722D01*
X290024D01*
Y107125D01*
X289621D01*
Y107528D01*
X290831D01*
Y103900D01*
D02*
G37*
G36*
X288008D02*
X288412D01*
Y103497D01*
X289621D01*
Y103093D01*
X288008D01*
Y103497D01*
X287605D01*
Y103900D01*
X287202D01*
Y107125D01*
X286799D01*
Y107528D01*
X288008D01*
Y103900D01*
D02*
G37*
G36*
X277929Y107931D02*
Y107528D01*
X279139D01*
Y107125D01*
X277929D01*
Y104303D01*
X278332D01*
Y103497D01*
X279139D01*
Y103093D01*
X277929D01*
Y103497D01*
X277526D01*
Y106722D01*
X277123D01*
Y107125D01*
X276720D01*
Y107528D01*
X277123D01*
Y107931D01*
X277526D01*
Y109544D01*
X277929D01*
Y107931D01*
D02*
G37*
G36*
X275107Y103497D02*
X275510D01*
Y103093D01*
X274301D01*
Y103497D01*
X273494D01*
Y103900D01*
X273897D01*
Y104303D01*
X274301D01*
Y107125D01*
X273897D01*
Y107528D01*
X275107D01*
Y103497D01*
D02*
G37*
G36*
X271882Y103900D02*
X272688D01*
Y103497D01*
X273494D01*
Y103093D01*
X271882D01*
Y103497D01*
X271478D01*
Y104303D01*
X271075D01*
Y107125D01*
X270672D01*
Y107528D01*
X271882D01*
Y103900D01*
D02*
G37*
G36*
X267850Y109141D02*
X268253D01*
Y108738D01*
X268656D01*
Y108335D01*
X269059D01*
Y107528D01*
X269462D01*
Y105109D01*
X269059D01*
Y104303D01*
X268656D01*
Y103497D01*
X267850D01*
Y103093D01*
X266237D01*
Y103497D01*
X265431D01*
Y103900D01*
X265028D01*
Y105109D01*
X264624D01*
Y107528D01*
X265028D01*
Y108335D01*
X265431D01*
Y109141D01*
X266237D01*
Y109544D01*
X267850D01*
Y109141D01*
D02*
G37*
G36*
X250917D02*
X251723D01*
Y108335D01*
X252126D01*
Y107125D01*
X251723D01*
Y106722D01*
X251320D01*
Y106319D01*
X250917D01*
Y105109D01*
X251320D01*
Y104303D01*
X252126D01*
Y103497D01*
X251723D01*
Y103093D01*
X251320D01*
Y103497D01*
X250917D01*
Y103900D01*
X250513D01*
Y105109D01*
X250110D01*
Y105916D01*
X249707D01*
Y106319D01*
X248497D01*
Y103497D01*
X248901D01*
Y103093D01*
X247288D01*
Y103497D01*
X247691D01*
Y109141D01*
X246885D01*
Y109544D01*
X250917D01*
Y109141D01*
D02*
G37*
%LPC*%
G36*
X267850Y108738D02*
X266237D01*
Y108335D01*
X265834D01*
Y107931D01*
X265431D01*
Y105512D01*
Y105109D01*
Y104706D01*
X265834D01*
Y104303D01*
X266237D01*
Y103900D01*
X266640D01*
Y103497D01*
X267447D01*
Y103900D01*
X267850D01*
Y104303D01*
X268253D01*
Y104706D01*
X268656D01*
Y107528D01*
X268253D01*
Y108335D01*
X267850D01*
Y108738D01*
D02*
G37*
G36*
X250513Y109141D02*
X248497D01*
Y106722D01*
X250917D01*
Y107125D01*
X251320D01*
Y107528D01*
Y108335D01*
X250917D01*
Y108738D01*
X250513D01*
Y109141D01*
D02*
G37*
%LPD*%
G36*
X221485Y107125D02*
X220678D01*
Y107931D01*
X221081D01*
Y108335D01*
X221485D01*
Y107125D01*
D02*
G37*
G36*
X223501Y108738D02*
X224307D01*
Y108335D01*
X224710D01*
Y106722D01*
X224307D01*
Y105916D01*
X224710D01*
Y105109D01*
X225113D01*
Y103900D01*
X224710D01*
Y103093D01*
X224307D01*
Y102690D01*
X221485D01*
Y103093D01*
X221081D01*
Y103497D01*
X220678D01*
Y104303D01*
X221081D01*
Y104706D01*
X221485D01*
Y103093D01*
X223904D01*
Y103497D01*
X224307D01*
Y105109D01*
X223904D01*
Y105916D01*
X222694D01*
Y106319D01*
X223097D01*
Y106722D01*
X223904D01*
Y108335D01*
X221485D01*
Y108738D01*
X223097D01*
Y109141D01*
X223501D01*
Y108738D01*
D02*
G37*
G36*
X251723Y97046D02*
X251320D01*
Y97449D01*
X250917D01*
Y97852D01*
X250513D01*
Y98255D01*
X248901D01*
Y97852D01*
X248497D01*
Y97449D01*
X248094D01*
Y96643D01*
X247691D01*
Y95030D01*
X248094D01*
Y93820D01*
X248497D01*
Y93417D01*
X249304D01*
Y93014D01*
X250513D01*
Y92611D01*
X248497D01*
Y93014D01*
X248094D01*
Y93417D01*
X247691D01*
Y94224D01*
X247288D01*
Y97449D01*
X247691D01*
Y98255D01*
X248094D01*
Y98659D01*
X251723D01*
Y97046D01*
D02*
G37*
G36*
X258174Y98659D02*
X258577D01*
Y98255D01*
X258174D01*
Y92611D01*
X257367D01*
Y93417D01*
X256964D01*
Y94224D01*
X256561D01*
Y95030D01*
X256158D01*
Y95433D01*
X255755D01*
Y96239D01*
X255351D01*
Y96643D01*
X254948D01*
Y97449D01*
X254545D01*
Y95836D01*
Y95433D01*
Y93014D01*
X254948D01*
Y92611D01*
X253739D01*
Y93014D01*
X254142D01*
Y98255D01*
X253739D01*
Y98659D01*
X254142D01*
Y99062D01*
X254545D01*
Y98659D01*
X254948D01*
Y98255D01*
X255351D01*
Y97449D01*
X255755D01*
Y96643D01*
X256158D01*
Y96239D01*
X256561D01*
Y95433D01*
X256964D01*
Y95030D01*
X257367D01*
Y94627D01*
X257770D01*
Y98255D01*
X256964D01*
Y98659D01*
X257770D01*
Y99062D01*
X258174D01*
Y98659D01*
D02*
G37*
G36*
X260996D02*
X263818D01*
Y98255D01*
X264221D01*
Y97449D01*
X264624D01*
Y93820D01*
X264221D01*
Y93417D01*
X263818D01*
Y93014D01*
X263415D01*
Y92611D01*
X260190D01*
Y93417D01*
X260593D01*
Y97852D01*
X260190D01*
Y98255D01*
X259786D01*
Y98659D01*
X260593D01*
Y99062D01*
X260996D01*
Y98659D01*
D02*
G37*
G36*
X252126Y95030D02*
Y94627D01*
X251723D01*
Y92611D01*
X251320D01*
Y93014D01*
X250513D01*
Y93417D01*
X250917D01*
Y95030D01*
X250513D01*
Y95433D01*
X252126D01*
Y95030D01*
D02*
G37*
G36*
X272688Y87773D02*
X271882D01*
Y86563D01*
X271478D01*
Y87773D01*
X270672D01*
Y88176D01*
X272688D01*
Y87773D01*
D02*
G37*
G36*
X254948Y86160D02*
X254142D01*
Y87370D01*
X254545D01*
Y87773D01*
X254948D01*
Y86160D01*
D02*
G37*
G36*
X271478Y85354D02*
X271075D01*
Y86160D01*
Y86563D01*
X271478D01*
Y85354D01*
D02*
G37*
G36*
X271075Y84144D02*
X270672D01*
Y85354D01*
X271075D01*
Y84144D01*
D02*
G37*
G36*
X250110Y84951D02*
X252126D01*
Y84547D01*
X250110D01*
Y82531D01*
X249707D01*
Y84144D01*
X249304D01*
Y84547D01*
X247288D01*
Y84951D01*
X249707D01*
Y86563D01*
X250110D01*
Y84951D01*
D02*
G37*
G36*
X269462Y87773D02*
X268656D01*
Y86966D01*
X269059D01*
Y86160D01*
X269462D01*
Y84951D01*
X269866D01*
Y83741D01*
X270269D01*
Y84144D01*
X270672D01*
Y82935D01*
X270269D01*
Y82128D01*
X269866D01*
Y82531D01*
X269462D01*
Y83741D01*
X269059D01*
Y84951D01*
X268656D01*
Y85354D01*
Y86160D01*
X268253D01*
Y87370D01*
X267850D01*
Y87773D01*
X267447D01*
Y88176D01*
X269462D01*
Y87773D01*
D02*
G37*
G36*
X265834D02*
X266237D01*
Y85757D01*
X265834D01*
Y85354D01*
X266237D01*
Y84547D01*
X266640D01*
Y82935D01*
X266237D01*
Y82128D01*
X264624D01*
Y82531D01*
X265431D01*
Y82935D01*
X265834D01*
Y84951D01*
X265431D01*
Y85354D01*
X264221D01*
Y85757D01*
X265431D01*
Y86160D01*
X265834D01*
Y86563D01*
Y86966D01*
Y87370D01*
X265431D01*
Y87773D01*
X263415D01*
Y87370D01*
X263012D01*
Y86966D01*
X263415D01*
Y86563D01*
X263012D01*
Y86160D01*
X262609D01*
Y87773D01*
X263012D01*
Y88176D01*
X265834D01*
Y87773D01*
D02*
G37*
G36*
X263012Y83741D02*
X263415D01*
Y83338D01*
X263012D01*
Y82935D01*
X263415D01*
Y82531D01*
X263818D01*
Y82128D01*
X263012D01*
Y82531D01*
X262609D01*
Y84144D01*
X263012D01*
Y83741D01*
D02*
G37*
G36*
X260593Y82531D02*
Y82128D01*
X260190D01*
Y82935D01*
X260593D01*
Y82531D01*
D02*
G37*
G36*
X254948D02*
X255755D01*
Y82128D01*
X254948D01*
Y82531D01*
X254545D01*
Y82935D01*
X254142D01*
Y83741D01*
X254545D01*
Y84144D01*
X254948D01*
Y82531D01*
D02*
G37*
G36*
X257770Y87370D02*
X258174D01*
Y86160D01*
X257770D01*
Y84951D01*
X258174D01*
Y82531D01*
X257770D01*
Y82128D01*
X256964D01*
Y81725D01*
X256561D01*
Y82531D01*
X257367D01*
Y83338D01*
X257770D01*
Y84144D01*
X257367D01*
Y84951D01*
X256964D01*
Y85354D01*
X255755D01*
Y85757D01*
X256964D01*
Y86160D01*
X257367D01*
Y87370D01*
X256964D01*
Y87773D01*
X254948D01*
Y88176D01*
X257770D01*
Y87370D01*
D02*
G37*
%LPC*%
G36*
X263012Y98255D02*
X260996D01*
Y93417D01*
X261399D01*
Y93014D01*
X262609D01*
Y93417D01*
X263415D01*
Y93820D01*
X263818D01*
Y95030D01*
X264221D01*
Y96643D01*
X263818D01*
Y97449D01*
X263415D01*
Y97852D01*
X263012D01*
Y98255D01*
D02*
G37*
%LPD*%
G36*
X222291Y96643D02*
Y96239D01*
X221888D01*
Y97046D01*
X222291D01*
Y96643D01*
D02*
G37*
G36*
X221888Y95836D02*
X221485D01*
Y96239D01*
X221888D01*
Y95836D01*
D02*
G37*
G36*
X223501Y94627D02*
X224710D01*
Y94224D01*
X223904D01*
Y93820D01*
X223501D01*
Y93014D01*
X223904D01*
Y92611D01*
X223501D01*
Y92208D01*
X223097D01*
Y92611D01*
X222694D01*
Y93014D01*
X223097D01*
Y93820D01*
X222694D01*
Y94224D01*
X220275D01*
Y95030D01*
X220678D01*
Y95433D01*
X221081D01*
Y95836D01*
X221485D01*
Y95030D01*
X221081D01*
Y94627D01*
X223097D01*
Y97046D01*
X222291D01*
Y97449D01*
X222694D01*
Y98255D01*
X223097D01*
Y98659D01*
X223501D01*
Y94627D01*
D02*
G37*
G36*
X224307Y88176D02*
X221485D01*
Y86563D01*
X221888D01*
Y86160D01*
X221485D01*
Y85757D01*
X220678D01*
Y86563D01*
X221081D01*
Y88579D01*
X221485D01*
Y88982D01*
X224307D01*
Y88176D01*
D02*
G37*
G36*
X223904Y86563D02*
X224307D01*
Y86160D01*
X224710D01*
Y85354D01*
X225113D01*
Y84144D01*
X224710D01*
Y83338D01*
X224307D01*
Y82935D01*
X223501D01*
Y82531D01*
X221888D01*
Y82935D01*
X221081D01*
Y83338D01*
Y83741D01*
X220678D01*
Y84547D01*
X221485D01*
Y83338D01*
X221888D01*
Y82935D01*
X223097D01*
Y83338D01*
X223904D01*
Y84144D01*
X224307D01*
Y85354D01*
X223904D01*
Y86160D01*
X223097D01*
Y86563D01*
X221888D01*
Y86966D01*
X223904D01*
Y86563D01*
D02*
G37*
G36*
X260996Y76081D02*
X261399D01*
Y75678D01*
X261802D01*
Y75274D01*
X261399D01*
Y74871D01*
X260996D01*
Y75274D01*
X260593D01*
Y75678D01*
X260996D01*
Y76081D01*
X258980D01*
Y75678D01*
X258577D01*
Y73259D01*
X259383D01*
Y72855D01*
X260996D01*
Y72452D01*
X258577D01*
Y72855D01*
X258174D01*
Y73259D01*
X257770D01*
Y75678D01*
X258174D01*
Y76081D01*
X258577D01*
Y76484D01*
X260996D01*
Y76081D01*
D02*
G37*
G36*
X261399Y72855D02*
X260996D01*
Y73259D01*
X261399D01*
Y72855D01*
D02*
G37*
G36*
X264221Y74468D02*
X264624D01*
Y74871D01*
X265028D01*
Y75274D01*
X265431D01*
Y75678D01*
X265834D01*
Y76484D01*
X266640D01*
Y76887D01*
X267043D01*
Y76484D01*
X267447D01*
Y76081D01*
X266640D01*
Y75678D01*
X266237D01*
Y75274D01*
X265834D01*
Y74468D01*
X266237D01*
Y73662D01*
X266640D01*
Y73259D01*
X267043D01*
Y72855D01*
X267447D01*
Y72452D01*
X265834D01*
Y72855D01*
X266237D01*
Y73259D01*
X265834D01*
Y73662D01*
X265431D01*
Y74468D01*
X265028D01*
Y74065D01*
X264624D01*
Y73662D01*
X264221D01*
Y72855D01*
X264624D01*
Y72452D01*
X263012D01*
Y72855D01*
X263415D01*
Y78097D01*
X263012D01*
Y78500D01*
X264221D01*
Y74468D01*
D02*
G37*
G36*
X254545Y76484D02*
X255755D01*
Y76081D01*
X256158D01*
Y75274D01*
X256561D01*
Y74065D01*
X256158D01*
Y73259D01*
X255755D01*
Y72855D01*
X255351D01*
Y72452D01*
X252932D01*
Y72855D01*
X252529D01*
Y73662D01*
X252126D01*
Y75274D01*
X252529D01*
Y76081D01*
X252932D01*
Y76484D01*
X253739D01*
Y76887D01*
X254545D01*
Y76484D01*
D02*
G37*
G36*
X249304Y78097D02*
X248497D01*
Y72855D01*
X250513D01*
Y73259D01*
X250917D01*
Y74065D01*
X251723D01*
Y72855D01*
X251320D01*
Y72452D01*
X247288D01*
Y72855D01*
X247691D01*
Y78097D01*
X246885D01*
Y78500D01*
X249304D01*
Y78097D01*
D02*
G37*
G36*
X259383Y66808D02*
X258577D01*
Y67211D01*
X259383D01*
Y66808D01*
D02*
G37*
G36*
X281155D02*
X279945D01*
Y66404D01*
X279542D01*
Y67211D01*
X279945D01*
Y67614D01*
X281155D01*
Y66808D01*
D02*
G37*
G36*
X273897Y67211D02*
X275107D01*
Y66808D01*
X275510D01*
Y66001D01*
X275107D01*
Y65598D01*
X274704D01*
Y66808D01*
X273897D01*
Y67211D01*
X273494D01*
Y66808D01*
X272688D01*
Y66404D01*
X272285D01*
Y64389D01*
X272688D01*
Y63985D01*
X273091D01*
Y63582D01*
X274301D01*
Y63179D01*
X272688D01*
Y63582D01*
X271882D01*
Y64389D01*
X271478D01*
Y66404D01*
X271882D01*
Y66808D01*
X272285D01*
Y67211D01*
X273091D01*
Y67614D01*
X273897D01*
Y67211D01*
D02*
G37*
G36*
X275510Y63985D02*
X275107D01*
Y64389D01*
X275510D01*
Y63985D01*
D02*
G37*
G36*
X275107Y63582D02*
X274301D01*
Y63985D01*
X275107D01*
Y63582D01*
D02*
G37*
G36*
X279542Y65195D02*
X279945D01*
Y64389D01*
X280348D01*
Y63985D01*
X280751D01*
Y63582D01*
X281155D01*
Y63179D01*
X279542D01*
Y63582D01*
X279945D01*
Y63985D01*
X279542D01*
Y64389D01*
X279139D01*
Y65195D01*
X278332D01*
Y65598D01*
X278735D01*
Y66001D01*
X279139D01*
Y66404D01*
X279542D01*
Y65195D01*
D02*
G37*
G36*
X277929D02*
X278332D01*
Y64792D01*
X277929D01*
Y63582D01*
X278332D01*
Y63179D01*
X276720D01*
Y63582D01*
X277123D01*
Y67614D01*
Y68017D01*
Y68823D01*
X276720D01*
Y69227D01*
X277929D01*
Y65195D01*
D02*
G37*
G36*
X268656Y67211D02*
X269462D01*
Y66808D01*
X269866D01*
Y65598D01*
X270269D01*
Y64792D01*
X269866D01*
Y63985D01*
X269462D01*
Y63582D01*
X269059D01*
Y63179D01*
X267043D01*
Y63582D01*
X266640D01*
Y63985D01*
X266237D01*
Y64389D01*
X265834D01*
Y66001D01*
X266237D01*
Y66808D01*
X266640D01*
Y67211D01*
X267447D01*
Y67614D01*
X268656D01*
Y67211D01*
D02*
G37*
G36*
X262609Y68823D02*
X262205D01*
Y63985D01*
Y63582D01*
X264624D01*
Y65195D01*
X265431D01*
Y63582D01*
X265028D01*
Y63179D01*
X260996D01*
Y63582D01*
X261399D01*
Y68823D01*
X260996D01*
Y69227D01*
X262609D01*
Y68823D01*
D02*
G37*
G36*
X259383Y63582D02*
X258980D01*
Y63179D01*
X258577D01*
Y63985D01*
X259383D01*
Y63582D01*
D02*
G37*
G36*
X256158Y68420D02*
X256561D01*
Y67211D01*
X256964D01*
Y65195D01*
X256561D01*
Y63985D01*
X256158D01*
Y63582D01*
X255755D01*
Y63179D01*
X253739D01*
Y63582D01*
X253335D01*
Y63985D01*
X252932D01*
Y65598D01*
X252529D01*
Y67211D01*
X252932D01*
Y68420D01*
X253335D01*
Y69227D01*
X256158D01*
Y68420D01*
D02*
G37*
G36*
X258174Y57535D02*
X258577D01*
Y57131D01*
X257770D01*
Y57938D01*
X258174D01*
Y57535D01*
D02*
G37*
G36*
X291234D02*
X290428D01*
Y57131D01*
X290024D01*
Y56728D01*
X289621D01*
Y57938D01*
X291234D01*
Y57535D01*
D02*
G37*
G36*
X284380D02*
X284783D01*
Y57131D01*
X285186D01*
Y56728D01*
X285590D01*
Y56325D01*
X284380D01*
Y56728D01*
X284783D01*
Y57131D01*
X283977D01*
Y57535D01*
X283170D01*
Y57131D01*
X282364D01*
Y56325D01*
X281961D01*
Y55116D01*
X282364D01*
Y54309D01*
X283170D01*
Y53906D01*
X283977D01*
Y53503D01*
X282767D01*
Y53906D01*
X281961D01*
Y54309D01*
X281558D01*
Y55519D01*
X281155D01*
Y55922D01*
X281558D01*
Y57131D01*
X281961D01*
Y57535D01*
X282767D01*
Y57938D01*
X284380D01*
Y57535D01*
D02*
G37*
G36*
X265028Y55116D02*
X264624D01*
Y59147D01*
X264221D01*
Y59550D01*
X264624D01*
Y59954D01*
X265028D01*
Y55116D01*
D02*
G37*
G36*
X285186Y54309D02*
X284783D01*
Y54712D01*
X285186D01*
Y54309D01*
D02*
G37*
G36*
X264624D02*
X264221D01*
Y54712D01*
Y55116D01*
X264624D01*
Y54309D01*
D02*
G37*
G36*
X284783Y53906D02*
X283977D01*
Y54309D01*
X284783D01*
Y53906D01*
D02*
G37*
G36*
X264221D02*
X263415D01*
Y54309D01*
X264221D01*
Y53906D01*
D02*
G37*
G36*
X287605Y59550D02*
X288008D01*
Y55922D01*
X288412D01*
Y56325D01*
X288815D01*
Y56728D01*
X289621D01*
Y56325D01*
X289218D01*
Y55922D01*
X289621D01*
Y55116D01*
X290024D01*
Y54712D01*
X290428D01*
Y54309D01*
X290831D01*
Y53906D01*
X291234D01*
Y53503D01*
X289621D01*
Y54712D01*
X289218D01*
Y55116D01*
X288815D01*
Y55519D01*
X288412D01*
Y55116D01*
X288008D01*
Y53906D01*
X288412D01*
Y53503D01*
X286799D01*
Y53906D01*
X287202D01*
Y59147D01*
X286799D01*
Y59550D01*
X287202D01*
Y59954D01*
X287605D01*
Y59550D01*
D02*
G37*
G36*
X278735Y57535D02*
X279542D01*
Y57131D01*
X279945D01*
Y54309D01*
X279542D01*
Y53906D01*
X278735D01*
Y53503D01*
X277123D01*
Y53906D01*
X276720D01*
Y54309D01*
X276316D01*
Y54712D01*
X275913D01*
Y55116D01*
Y56728D01*
X276316D01*
Y57131D01*
X276720D01*
Y57535D01*
X277123D01*
Y57938D01*
X278735D01*
Y57535D01*
D02*
G37*
G36*
X273897Y59550D02*
X274301D01*
Y53906D01*
X274704D01*
Y53503D01*
X272688D01*
Y53906D01*
X273091D01*
Y54309D01*
X273494D01*
Y59147D01*
X273091D01*
Y59954D01*
X273897D01*
Y59550D01*
D02*
G37*
G36*
X270269Y57535D02*
X270672D01*
Y57131D01*
X271075D01*
Y53906D01*
X271478D01*
Y53503D01*
X269866D01*
Y53906D01*
X270269D01*
Y57131D01*
X269462D01*
Y57535D01*
X269059D01*
Y57938D01*
X270269D01*
Y57535D01*
D02*
G37*
G36*
X267850D02*
X269059D01*
Y57131D01*
X268253D01*
Y56728D01*
X267850D01*
Y55116D01*
Y54712D01*
Y54309D01*
X268253D01*
Y53906D01*
X268656D01*
Y53503D01*
X266640D01*
Y53906D01*
X267043D01*
Y54309D01*
X267447D01*
Y57131D01*
X267043D01*
Y57535D01*
X266640D01*
Y57938D01*
X267850D01*
Y57535D01*
D02*
G37*
G36*
X261399Y59550D02*
X261802D01*
Y59147D01*
X261399D01*
Y56325D01*
Y55922D01*
Y54712D01*
X261802D01*
Y54309D01*
X262609D01*
Y53906D01*
X263415D01*
Y53503D01*
X262205D01*
Y53906D01*
X261399D01*
Y54309D01*
X260996D01*
Y54712D01*
X260593D01*
Y59147D01*
X260190D01*
Y59550D01*
X260593D01*
Y59954D01*
X261399D01*
Y59550D01*
D02*
G37*
G36*
X258577Y53906D02*
X258174D01*
Y53503D01*
X257770D01*
Y54309D01*
X258577D01*
Y53906D01*
D02*
G37*
G36*
X254545D02*
X255351D01*
Y53503D01*
X252932D01*
Y53906D01*
X253739D01*
Y57131D01*
Y57535D01*
Y58341D01*
X252932D01*
Y58744D01*
X253335D01*
Y59147D01*
X253739D01*
Y59550D01*
X254545D01*
Y53906D01*
D02*
G37*
%LPC*%
G36*
X254948Y76081D02*
X253739D01*
Y75678D01*
X253335D01*
Y75274D01*
X252932D01*
Y73662D01*
X253335D01*
Y73259D01*
X253739D01*
Y72855D01*
X254948D01*
Y73259D01*
X255351D01*
Y73662D01*
X255755D01*
Y75274D01*
X255351D01*
Y75678D01*
X254948D01*
Y76081D01*
D02*
G37*
G36*
X269059Y66808D02*
X267043D01*
Y66404D01*
X266640D01*
Y64389D01*
X267043D01*
Y63985D01*
X267850D01*
Y63582D01*
X268253D01*
Y63985D01*
X269059D01*
Y64389D01*
X269462D01*
Y66001D01*
X269059D01*
Y66808D01*
D02*
G37*
G36*
X255351Y68823D02*
X254142D01*
Y68420D01*
X253739D01*
Y67614D01*
X253335D01*
Y65195D01*
X253739D01*
Y63985D01*
X254545D01*
Y63582D01*
X254948D01*
Y63985D01*
X255755D01*
Y64792D01*
X256158D01*
Y68017D01*
X255755D01*
Y68420D01*
X255351D01*
Y68823D01*
D02*
G37*
G36*
X278332Y57535D02*
X277929D01*
Y57131D01*
X277123D01*
Y56728D01*
X276720D01*
Y54712D01*
X277123D01*
Y54309D01*
X277929D01*
Y53906D01*
X278332D01*
Y54309D01*
X278735D01*
Y54712D01*
X279139D01*
Y55116D01*
X279542D01*
Y56325D01*
X279139D01*
Y56728D01*
X278735D01*
Y57131D01*
X278332D01*
Y57535D01*
D02*
G37*
%LPD*%
G36*
X223904Y69227D02*
X224307D01*
Y68823D01*
X224710D01*
Y68420D01*
Y68017D01*
X223904D01*
Y69227D01*
X223097D01*
Y68823D01*
X222291D01*
Y68420D01*
X221888D01*
Y67614D01*
X221485D01*
Y66808D01*
X221888D01*
Y67211D01*
X223904D01*
Y66808D01*
X224307D01*
Y66404D01*
X224710D01*
Y65598D01*
X225113D01*
Y65195D01*
X224710D01*
Y63985D01*
X224307D01*
Y63582D01*
X223501D01*
Y63179D01*
X222291D01*
Y63582D01*
X221485D01*
Y63985D01*
X221081D01*
Y64792D01*
X220678D01*
Y67211D01*
X221081D01*
Y68420D01*
X221485D01*
Y68823D01*
X221888D01*
Y69227D01*
X222291D01*
Y69630D01*
X223904D01*
Y69227D01*
D02*
G37*
%LPC*%
G36*
X223501Y66808D02*
X222291D01*
Y66404D01*
X221888D01*
Y66001D01*
X221485D01*
Y64389D01*
X221888D01*
Y63985D01*
X223501D01*
Y64389D01*
X223904D01*
Y64792D01*
X224307D01*
Y66001D01*
X223904D01*
Y66404D01*
X223501D01*
Y66808D01*
D02*
G37*
%LPD*%
G36*
X256964Y47052D02*
X256561D01*
Y46649D01*
X256158D01*
Y46246D01*
X255755D01*
Y45843D01*
X255351D01*
Y46649D01*
X255755D01*
Y47052D01*
X255351D01*
Y47455D01*
X256964D01*
Y47052D01*
D02*
G37*
G36*
X250917D02*
X251320D01*
Y45439D01*
X250513D01*
Y46649D01*
X250110D01*
Y47052D01*
X249304D01*
Y46649D01*
Y41811D01*
X249707D01*
Y41408D01*
X248901D01*
Y41004D01*
X248497D01*
Y41408D01*
X248094D01*
Y41811D01*
X248497D01*
Y47052D01*
X247288D01*
Y45439D01*
X246481D01*
Y47052D01*
X246885D01*
Y47455D01*
X250917D01*
Y47052D01*
D02*
G37*
G36*
X253739Y42617D02*
X253335D01*
Y42214D01*
X252932D01*
Y43020D01*
X253335D01*
Y43424D01*
X253739D01*
Y42617D01*
D02*
G37*
G36*
X253335Y46246D02*
X253739D01*
Y45439D01*
X254142D01*
Y45036D01*
X254545D01*
Y45439D01*
X254948D01*
Y45843D01*
X255351D01*
Y45036D01*
X254948D01*
Y44633D01*
X254545D01*
Y44230D01*
X254948D01*
Y43424D01*
X255351D01*
Y43020D01*
X255755D01*
Y42214D01*
X256158D01*
Y41811D01*
X256561D01*
Y41004D01*
X255755D01*
Y41408D01*
X254948D01*
Y41811D01*
X255351D01*
Y42214D01*
X254948D01*
Y43020D01*
X254545D01*
Y43424D01*
X253739D01*
Y45036D01*
X253335D01*
Y45439D01*
X252932D01*
Y46246D01*
X252529D01*
Y46649D01*
X252126D01*
Y47052D01*
X251723D01*
Y47455D01*
X253335D01*
Y46246D01*
D02*
G37*
G36*
X252932Y41811D02*
X253335D01*
Y41408D01*
X252529D01*
Y41004D01*
X252126D01*
Y41408D01*
X251723D01*
Y41811D01*
X252529D01*
Y42214D01*
X252932D01*
Y41811D01*
D02*
G37*
G36*
X224710Y46246D02*
Y45843D01*
X224307D01*
Y45036D01*
X223904D01*
Y44633D01*
X223501D01*
Y44230D01*
X223097D01*
Y43424D01*
X222694D01*
Y41408D01*
X222291D01*
Y44230D01*
X222694D01*
Y44633D01*
X223097D01*
Y45036D01*
X223501D01*
Y45439D01*
X223904D01*
Y46246D01*
X223097D01*
Y46649D01*
X221888D01*
Y47052D01*
X221485D01*
Y46649D01*
X221081D01*
Y45843D01*
X220275D01*
Y47052D01*
X220678D01*
Y47455D01*
X222694D01*
Y47052D01*
X223501D01*
Y46649D01*
X223904D01*
Y47052D01*
X224307D01*
Y47455D01*
X224710D01*
Y46246D01*
D02*
G37*
G36*
X257770Y36166D02*
X256964D01*
Y35360D01*
X256561D01*
Y34957D01*
X256158D01*
Y35763D01*
X256561D01*
Y36166D01*
X255755D01*
Y36569D01*
X257770D01*
Y36166D01*
D02*
G37*
G36*
X254545Y31731D02*
X254142D01*
Y31328D01*
X253739D01*
Y32135D01*
X254142D01*
Y32538D01*
X254545D01*
Y31731D01*
D02*
G37*
G36*
X254142Y35360D02*
X254545D01*
Y34554D01*
X254948D01*
Y34150D01*
X255351D01*
Y34554D01*
X255755D01*
Y34957D01*
X256158D01*
Y34150D01*
X255755D01*
Y33344D01*
Y32941D01*
X256158D01*
Y32135D01*
X256561D01*
Y31328D01*
X256964D01*
Y30925D01*
X257367D01*
Y30522D01*
X256158D01*
Y31328D01*
X255755D01*
Y32135D01*
X255351D01*
Y32941D01*
X254948D01*
Y32538D01*
X254545D01*
Y34150D01*
X254142D01*
Y34957D01*
X253739D01*
Y35360D01*
X253335D01*
Y35763D01*
X252932D01*
Y36166D01*
X252529D01*
Y36569D01*
X254142D01*
Y35360D01*
D02*
G37*
G36*
X253739Y30925D02*
X254142D01*
Y30522D01*
X252529D01*
Y30925D01*
X253335D01*
Y31328D01*
X253739D01*
Y30925D01*
D02*
G37*
G36*
X250513Y36166D02*
X251320D01*
Y35763D01*
X251723D01*
Y34150D01*
X251320D01*
Y33747D01*
X250917D01*
Y33344D01*
X250513D01*
Y32135D01*
X250917D01*
Y31328D01*
X252126D01*
Y30925D01*
X251723D01*
Y30522D01*
X250513D01*
Y31328D01*
X250110D01*
Y32538D01*
X249707D01*
Y33344D01*
X248094D01*
Y30925D01*
X248497D01*
Y30522D01*
X246885D01*
Y30925D01*
X247288D01*
Y36166D01*
X246885D01*
Y36569D01*
X250513D01*
Y36166D01*
D02*
G37*
G36*
X266640Y23265D02*
X266237D01*
Y23668D01*
X265834D01*
Y24071D01*
X263818D01*
Y24474D01*
X266640D01*
Y23265D01*
D02*
G37*
G36*
X263818Y23668D02*
Y23265D01*
X264624D01*
Y22862D01*
X265834D01*
Y22458D01*
X266640D01*
Y20846D01*
X266237D01*
Y21652D01*
X265834D01*
Y22055D01*
X265028D01*
Y22458D01*
X263818D01*
Y22862D01*
X263415D01*
Y24071D01*
X263818D01*
Y23668D01*
D02*
G37*
G36*
X280751D02*
X281155D01*
Y20846D01*
X281558D01*
Y20443D01*
X279542D01*
Y20846D01*
X280348D01*
Y21249D01*
Y21652D01*
Y23668D01*
X279945D01*
Y24071D01*
X278332D01*
Y24474D01*
X280751D01*
Y23668D01*
D02*
G37*
G36*
X277929Y24071D02*
X278332D01*
Y23668D01*
X277929D01*
Y20846D01*
X278735D01*
Y20443D01*
X276720D01*
Y20846D01*
X277526D01*
Y24071D01*
X276720D01*
Y24474D01*
X277929D01*
Y24071D01*
D02*
G37*
G36*
X275510Y26087D02*
X275107D01*
Y20846D01*
X275510D01*
Y20443D01*
X273494D01*
Y20846D01*
X274301D01*
Y26087D01*
X273494D01*
Y26490D01*
X275510D01*
Y26087D01*
D02*
G37*
G36*
X263818Y21249D02*
X264221D01*
Y20846D01*
X266237D01*
Y20443D01*
X263415D01*
Y20846D01*
Y21652D01*
X263818D01*
Y21249D01*
D02*
G37*
G36*
X248497D02*
Y20846D01*
X249707D01*
Y20443D01*
X246885D01*
Y20846D01*
X248094D01*
Y25281D01*
X247288D01*
Y25684D01*
X247691D01*
Y26087D01*
X248094D01*
Y26490D01*
X248497D01*
Y21249D01*
D02*
G37*
%LPC*%
G36*
X250110Y36166D02*
X248094D01*
Y33747D01*
X250110D01*
Y34150D01*
X250917D01*
Y35763D01*
X250110D01*
Y36166D01*
D02*
G37*
%LPD*%
G36*
X223904Y36569D02*
X224307D01*
Y36166D01*
X224710D01*
Y34554D01*
X224307D01*
Y33747D01*
X224710D01*
Y33344D01*
X225113D01*
Y32941D01*
Y31731D01*
X224710D01*
Y31328D01*
X224307D01*
Y30925D01*
X223904D01*
Y30522D01*
X223097D01*
Y31328D01*
X223904D01*
Y31731D01*
X224307D01*
Y33344D01*
X223904D01*
Y33747D01*
X223097D01*
Y34150D01*
X222694D01*
Y33747D01*
X221888D01*
Y33344D01*
X221485D01*
Y31731D01*
X221888D01*
Y31328D01*
X222694D01*
Y30522D01*
X221888D01*
Y30925D01*
X221081D01*
Y31731D01*
X220678D01*
Y33344D01*
X221081D01*
Y34150D01*
X221485D01*
Y34554D01*
X221081D01*
Y36569D01*
X221888D01*
Y36973D01*
X223904D01*
Y36569D01*
D02*
G37*
G36*
Y23265D02*
X223097D01*
Y23668D01*
X223904D01*
Y23265D01*
D02*
G37*
G36*
Y26490D02*
X224307D01*
Y26087D01*
X224710D01*
Y25281D01*
X225113D01*
Y23265D01*
X224710D01*
Y21652D01*
X224307D01*
Y21249D01*
X223904D01*
Y20846D01*
X221485D01*
Y21249D01*
X221081D01*
Y22458D01*
X221888D01*
Y21249D01*
X223097D01*
Y21652D01*
X223904D01*
Y22458D01*
X224307D01*
Y23668D01*
X223904D01*
Y24071D01*
X224307D01*
Y25684D01*
X223904D01*
Y26087D01*
X223501D01*
Y26490D01*
X222291D01*
Y26087D01*
X221888D01*
Y25684D01*
X221485D01*
Y24071D01*
X221888D01*
Y23668D01*
X222694D01*
Y23265D01*
X223097D01*
Y22862D01*
X221888D01*
Y23265D01*
X221485D01*
Y23668D01*
X221081D01*
Y24474D01*
X220678D01*
Y25281D01*
X221081D01*
Y26087D01*
X221485D01*
Y26490D01*
X221888D01*
Y26893D01*
X223904D01*
Y26490D01*
D02*
G37*
%LPC*%
G36*
X223097Y36569D02*
X222694D01*
Y36166D01*
X221888D01*
Y34554D01*
X223904D01*
Y36166D01*
X223097D01*
Y36569D01*
D02*
G37*
%LPD*%
G36*
X266640Y12379D02*
X266237D01*
Y13185D01*
X265834D01*
Y13589D01*
X263818D01*
Y13992D01*
X265834D01*
Y13589D01*
X266237D01*
Y13992D01*
X266640D01*
Y12379D01*
D02*
G37*
G36*
X284380Y13589D02*
X283977D01*
Y10363D01*
X284380D01*
Y9960D01*
X280751D01*
Y10363D01*
X280348D01*
Y13589D01*
X279542D01*
Y13992D01*
X281155D01*
Y10363D01*
X283170D01*
Y13589D01*
X282767D01*
Y13992D01*
X284380D01*
Y13589D01*
D02*
G37*
G36*
X263818Y12782D02*
X264624D01*
Y12379D01*
X265431D01*
Y11976D01*
X266237D01*
Y11573D01*
X266640D01*
Y10363D01*
X266237D01*
Y11169D01*
X265834D01*
Y11573D01*
X264624D01*
Y11976D01*
X263818D01*
Y12379D01*
X263415D01*
Y13589D01*
X263818D01*
Y12782D01*
D02*
G37*
G36*
X287202Y13992D02*
X288008D01*
Y13589D01*
X287202D01*
Y10363D01*
X288412D01*
Y10766D01*
X288815D01*
Y9960D01*
X286799D01*
Y10766D01*
X286396D01*
Y11169D01*
Y11573D01*
Y13589D01*
X285590D01*
Y13992D01*
X286396D01*
Y15604D01*
X286799D01*
Y16008D01*
X287202D01*
Y13992D01*
D02*
G37*
G36*
X276720Y15604D02*
X277526D01*
Y15201D01*
X277929D01*
Y14798D01*
X278332D01*
Y10766D01*
X277929D01*
Y10363D01*
X277526D01*
Y9960D01*
X274704D01*
Y10363D01*
X274301D01*
Y11169D01*
X273897D01*
Y14395D01*
Y14798D01*
X274301D01*
Y15201D01*
X274704D01*
Y15604D01*
X275510D01*
Y16008D01*
X276720D01*
Y15604D01*
D02*
G37*
G36*
X263818Y10766D02*
X264221D01*
Y10363D01*
X266237D01*
Y9960D01*
X263415D01*
Y10363D01*
Y10766D01*
Y11169D01*
X263818D01*
Y10766D01*
D02*
G37*
G36*
X248497Y10363D02*
X249304D01*
Y9960D01*
X247288D01*
Y10363D01*
X248094D01*
Y11573D01*
Y11976D01*
Y14798D01*
X247691D01*
Y14395D01*
X246885D01*
Y14798D01*
X247288D01*
Y15201D01*
X247691D01*
Y15604D01*
X248094D01*
Y16008D01*
X248497D01*
Y10363D01*
D02*
G37*
%LPC*%
G36*
X276316Y15604D02*
X275913D01*
Y15201D01*
X275107D01*
Y14798D01*
X274704D01*
Y13589D01*
X274301D01*
Y12379D01*
X274704D01*
Y11976D01*
Y11169D01*
X275107D01*
Y10766D01*
X275510D01*
Y10363D01*
X277123D01*
Y10766D01*
X277526D01*
Y11976D01*
X277929D01*
Y13992D01*
X277526D01*
Y14798D01*
X277123D01*
Y15201D01*
X276316D01*
Y15604D01*
D02*
G37*
%LPD*%
G36*
X221081Y14395D02*
X220678D01*
Y14798D01*
X221081D01*
Y14395D01*
D02*
G37*
G36*
X227936Y15604D02*
X228742D01*
Y15201D01*
X229145D01*
Y13589D01*
X229548D01*
Y11976D01*
X229145D01*
Y10766D01*
X228742D01*
Y9960D01*
X227532D01*
Y9557D01*
X226726D01*
Y9960D01*
X225920D01*
Y10363D01*
X225516D01*
Y11169D01*
X225113D01*
Y13185D01*
Y13589D01*
Y14395D01*
X225516D01*
Y15201D01*
X225920D01*
Y15604D01*
X226726D01*
Y16008D01*
X227936D01*
Y15604D01*
D02*
G37*
G36*
X222291Y13992D02*
Y13589D01*
Y9557D01*
X221485D01*
Y9960D01*
X221081D01*
Y10363D01*
X221485D01*
Y14798D01*
X221081D01*
Y15201D01*
X221485D01*
Y15604D01*
X222291D01*
Y13992D01*
D02*
G37*
%LPC*%
G36*
X228339Y15201D02*
X226323D01*
Y14798D01*
X225920D01*
Y10766D01*
X226323D01*
Y10363D01*
X227936D01*
Y10766D01*
X228339D01*
Y11573D01*
X228742D01*
Y13992D01*
X228339D01*
Y14798D01*
Y15201D01*
D02*
G37*
G36*
X391629Y160737D02*
X389957D01*
Y158113D01*
X391935D01*
X392012Y158124D01*
X392110Y158135D01*
X392307Y158157D01*
X392536Y158190D01*
X392766Y158244D01*
X392974Y158321D01*
X393072Y158376D01*
X393160Y158430D01*
X393181Y158441D01*
X393225Y158496D01*
X393291Y158572D01*
X393378Y158671D01*
X393455Y158813D01*
X393520Y158988D01*
X393564Y159195D01*
X393586Y159436D01*
Y159447D01*
Y159458D01*
Y159512D01*
X393575Y159600D01*
X393553Y159720D01*
X393520Y159840D01*
X393477Y159971D01*
X393411Y160113D01*
X393323Y160234D01*
X393313Y160245D01*
X393280Y160288D01*
X393214Y160343D01*
X393138Y160409D01*
X393050Y160474D01*
X392930Y160540D01*
X392799Y160594D01*
X392657Y160638D01*
X392635D01*
X392580Y160649D01*
X392482Y160671D01*
X392416Y160682D01*
X392340Y160693D01*
X392241D01*
X392143Y160704D01*
X392034Y160715D01*
X391914Y160725D01*
X391771D01*
X391629Y160737D01*
D02*
G37*
G36*
X351779Y159829D02*
X350511D01*
Y158026D01*
X351625D01*
X351702Y158037D01*
X351779D01*
X351975Y158048D01*
X352183Y158080D01*
X352391Y158113D01*
X352576Y158168D01*
X352664Y158201D01*
X352740Y158233D01*
X352762Y158244D01*
X352806Y158277D01*
X352861Y158332D01*
X352937Y158397D01*
X353003Y158496D01*
X353068Y158616D01*
X353112Y158747D01*
X353123Y158911D01*
Y158922D01*
Y158977D01*
X353112Y159042D01*
X353090Y159130D01*
X353057Y159228D01*
X353003Y159327D01*
X352937Y159436D01*
X352839Y159545D01*
X352828Y159556D01*
X352784Y159589D01*
X352697Y159633D01*
X352642Y159665D01*
X352576Y159687D01*
X352500Y159709D01*
X352413Y159742D01*
X352314Y159764D01*
X352194Y159785D01*
X352074Y159807D01*
X351932Y159818D01*
X351779Y159829D01*
D02*
G37*
G36*
X340389D02*
X339111D01*
Y158026D01*
X340226D01*
X340302Y158037D01*
X340389D01*
X340575Y158048D01*
X340783Y158080D01*
X340991Y158113D01*
X341187Y158168D01*
X341275Y158201D01*
X341351Y158233D01*
X341373Y158244D01*
X341417Y158277D01*
X341472Y158332D01*
X341548Y158397D01*
X341614Y158496D01*
X341679Y158616D01*
X341723Y158747D01*
X341734Y158911D01*
Y158922D01*
Y158977D01*
X341723Y159042D01*
X341701Y159130D01*
X341668Y159228D01*
X341614Y159327D01*
X341548Y159436D01*
X341450Y159545D01*
X341439Y159556D01*
X341395Y159589D01*
X341308Y159633D01*
X341253Y159665D01*
X341187Y159687D01*
X341111Y159709D01*
X341023Y159742D01*
X340925Y159764D01*
X340805Y159785D01*
X340685Y159807D01*
X340543Y159818D01*
X340389Y159829D01*
D02*
G37*
G36*
X329667Y160015D02*
X329656D01*
X329645Y160004D01*
X329612Y159993D01*
X329569Y159982D01*
X329514Y159960D01*
X329449Y159939D01*
X329372Y159917D01*
X329285Y159895D01*
X329186Y159862D01*
X329066Y159840D01*
X328946Y159807D01*
X328804Y159775D01*
X328651Y159742D01*
X328498Y159709D01*
X328323Y159687D01*
X328137Y159654D01*
X328115D01*
X328049Y159643D01*
X327940Y159622D01*
X327820Y159600D01*
X327689Y159578D01*
X327558Y159545D01*
X327437Y159512D01*
X327328Y159469D01*
X327317D01*
X327284Y159447D01*
X327241Y159425D01*
X327197Y159392D01*
X327066Y159305D01*
X326957Y159174D01*
Y159162D01*
X326935Y159141D01*
X326924Y159097D01*
X326902Y159042D01*
X326880Y158977D01*
X326858Y158911D01*
X326847Y158824D01*
X326836Y158736D01*
Y158725D01*
Y158671D01*
X326847Y158605D01*
X326869Y158518D01*
X326902Y158419D01*
X326957Y158321D01*
X327022Y158212D01*
X327110Y158113D01*
X327120Y158102D01*
X327164Y158080D01*
X327230Y158037D01*
X327317Y157993D01*
X327437Y157949D01*
X327579Y157906D01*
X327744Y157884D01*
X327940Y157873D01*
X328028D01*
X328137Y157884D01*
X328257Y157906D01*
X328410Y157927D01*
X328563Y157971D01*
X328727Y158026D01*
X328891Y158102D01*
X328913Y158113D01*
X328957Y158146D01*
X329033Y158201D01*
X329121Y158277D01*
X329219Y158365D01*
X329328Y158474D01*
X329416Y158605D01*
X329503Y158747D01*
X329514Y158758D01*
X329525Y158802D01*
X329547Y158878D01*
X329580Y158977D01*
X329612Y159108D01*
X329634Y159261D01*
X329645Y159447D01*
X329656Y159665D01*
X329667Y160015D01*
D02*
G37*
G36*
X260087Y164037D02*
Y164026D01*
X260076Y164005D01*
Y163961D01*
X260054Y163917D01*
X260043Y163841D01*
X260021Y163764D01*
X259978Y163578D01*
X259923Y163360D01*
X259846Y163119D01*
X259770Y162857D01*
X259671Y162584D01*
X258852Y160376D01*
X261409D01*
X260622Y162452D01*
Y162463D01*
X260611Y162496D01*
X260590Y162551D01*
X260568Y162616D01*
X260535Y162693D01*
X260502Y162791D01*
X260469Y162901D01*
X260426Y163010D01*
X260338Y163261D01*
X260251Y163524D01*
X260163Y163786D01*
X260087Y164037D01*
D02*
G37*
G36*
X246173Y163928D02*
X244424D01*
Y158157D01*
X246217D01*
X246293Y158168D01*
X246457Y158179D01*
X246643Y158190D01*
X246840Y158212D01*
X247036Y158244D01*
X247200Y158288D01*
X247222Y158299D01*
X247277Y158310D01*
X247353Y158343D01*
X247452Y158387D01*
X247561Y158452D01*
X247670Y158518D01*
X247780Y158594D01*
X247889Y158682D01*
X247900Y158703D01*
X247944Y158747D01*
X248009Y158824D01*
X248086Y158933D01*
X248173Y159075D01*
X248271Y159239D01*
X248359Y159425D01*
X248435Y159633D01*
Y159643D01*
X248446Y159665D01*
X248457Y159698D01*
X248468Y159742D01*
X248479Y159797D01*
X248501Y159873D01*
X248523Y159950D01*
X248545Y160037D01*
X248577Y160256D01*
X248610Y160507D01*
X248632Y160791D01*
X248643Y161097D01*
Y161108D01*
Y161152D01*
Y161206D01*
X248632Y161294D01*
Y161392D01*
X248621Y161502D01*
X248610Y161633D01*
X248599Y161764D01*
X248545Y162059D01*
X248479Y162365D01*
X248381Y162649D01*
X248315Y162791D01*
X248250Y162911D01*
Y162923D01*
X248228Y162944D01*
X248206Y162977D01*
X248184Y163021D01*
X248097Y163130D01*
X247987Y163261D01*
X247845Y163403D01*
X247681Y163546D01*
X247495Y163666D01*
X247299Y163764D01*
X247277Y163775D01*
X247222Y163786D01*
X247124Y163819D01*
X246982Y163851D01*
X246807Y163873D01*
X246588Y163906D01*
X246457Y163917D01*
X246315D01*
X246173Y163928D01*
D02*
G37*
G36*
X218586Y160015D02*
X218575D01*
X218564Y160004D01*
X218531Y159993D01*
X218487Y159982D01*
X218433Y159960D01*
X218367Y159939D01*
X218290Y159917D01*
X218203Y159895D01*
X218105Y159862D01*
X217984Y159840D01*
X217864Y159807D01*
X217722Y159775D01*
X217569Y159742D01*
X217416Y159709D01*
X217241Y159687D01*
X217055Y159654D01*
X217034D01*
X216968Y159643D01*
X216859Y159622D01*
X216738Y159600D01*
X216607Y159578D01*
X216476Y159545D01*
X216356Y159512D01*
X216247Y159469D01*
X216236D01*
X216203Y159447D01*
X216159Y159425D01*
X216115Y159392D01*
X215984Y159305D01*
X215875Y159174D01*
Y159162D01*
X215853Y159141D01*
X215842Y159097D01*
X215820Y159042D01*
X215798Y158977D01*
X215777Y158911D01*
X215766Y158824D01*
X215755Y158736D01*
Y158725D01*
Y158671D01*
X215766Y158605D01*
X215788Y158518D01*
X215820Y158419D01*
X215875Y158321D01*
X215940Y158212D01*
X216028Y158113D01*
X216039Y158102D01*
X216083Y158080D01*
X216148Y158037D01*
X216236Y157993D01*
X216356Y157949D01*
X216498Y157906D01*
X216662Y157884D01*
X216859Y157873D01*
X216946D01*
X217055Y157884D01*
X217176Y157906D01*
X217329Y157927D01*
X217482Y157971D01*
X217646Y158026D01*
X217810Y158102D01*
X217831Y158113D01*
X217875Y158146D01*
X217952Y158201D01*
X218039Y158277D01*
X218137Y158365D01*
X218247Y158474D01*
X218334Y158605D01*
X218422Y158747D01*
X218433Y158758D01*
X218443Y158802D01*
X218465Y158878D01*
X218498Y158977D01*
X218531Y159108D01*
X218553Y159261D01*
X218564Y159447D01*
X218575Y159665D01*
X218586Y160015D01*
D02*
G37*
G36*
X359397Y162103D02*
X359331D01*
X359288Y162092D01*
X359167Y162081D01*
X359025Y162048D01*
X358850Y161993D01*
X358664Y161917D01*
X358490Y161808D01*
X358315Y161665D01*
X358293Y161644D01*
X358249Y161589D01*
X358173Y161491D01*
X358096Y161360D01*
X358009Y161206D01*
X357932Y161010D01*
X357867Y160780D01*
X357834Y160529D01*
X360905D01*
Y160540D01*
Y160562D01*
X360894Y160594D01*
Y160638D01*
X360872Y160769D01*
X360840Y160911D01*
X360785Y161086D01*
X360730Y161250D01*
X360643Y161414D01*
X360544Y161556D01*
Y161567D01*
X360523Y161578D01*
X360468Y161644D01*
X360369Y161731D01*
X360238Y161829D01*
X360074Y161928D01*
X359878Y162015D01*
X359648Y162081D01*
X359528Y162092D01*
X359397Y162103D01*
D02*
G37*
G36*
X316660D02*
X316595D01*
X316540Y162092D01*
X316420Y162081D01*
X316256Y162037D01*
X316070Y161972D01*
X315874Y161884D01*
X315688Y161753D01*
X315589Y161665D01*
X315502Y161578D01*
Y161567D01*
X315480Y161556D01*
X315458Y161523D01*
X315425Y161480D01*
X315393Y161425D01*
X315360Y161360D01*
X315316Y161272D01*
X315272Y161185D01*
X315229Y161075D01*
X315185Y160966D01*
X315152Y160835D01*
X315119Y160693D01*
X315087Y160540D01*
X315065Y160376D01*
X315054Y160190D01*
X315043Y160004D01*
Y159993D01*
Y159960D01*
Y159906D01*
X315054Y159829D01*
Y159742D01*
X315065Y159643D01*
X315097Y159414D01*
X315152Y159152D01*
X315240Y158889D01*
X315349Y158638D01*
X315425Y158529D01*
X315502Y158419D01*
X315513D01*
X315524Y158397D01*
X315589Y158343D01*
X315688Y158255D01*
X315819Y158168D01*
X315983Y158070D01*
X316180Y157982D01*
X316409Y157927D01*
X316529Y157916D01*
X316660Y157906D01*
X316726D01*
X316781Y157916D01*
X316901Y157938D01*
X317065Y157971D01*
X317240Y158037D01*
X317437Y158124D01*
X317622Y158255D01*
X317721Y158343D01*
X317808Y158430D01*
X317819Y158441D01*
X317830Y158452D01*
X317852Y158485D01*
X317885Y158529D01*
X317917Y158583D01*
X317961Y158649D01*
X318005Y158736D01*
X318049Y158824D01*
X318092Y158933D01*
X318125Y159053D01*
X318169Y159184D01*
X318202Y159327D01*
X318234Y159490D01*
X318256Y159654D01*
X318278Y159840D01*
Y160037D01*
Y160048D01*
Y160081D01*
Y160135D01*
X318267Y160201D01*
Y160288D01*
X318256Y160387D01*
X318224Y160616D01*
X318169Y160857D01*
X318081Y161119D01*
X317961Y161360D01*
X317896Y161480D01*
X317808Y161578D01*
Y161589D01*
X317786Y161600D01*
X317721Y161665D01*
X317622Y161742D01*
X317491Y161840D01*
X317327Y161939D01*
X317130Y162026D01*
X316912Y162081D01*
X316792Y162092D01*
X316660Y162103D01*
D02*
G37*
G36*
X230849D02*
X230784D01*
X230740Y162092D01*
X230620Y162081D01*
X230477Y162048D01*
X230303Y161993D01*
X230117Y161917D01*
X229942Y161808D01*
X229767Y161665D01*
X229745Y161644D01*
X229701Y161589D01*
X229625Y161491D01*
X229548Y161360D01*
X229461Y161206D01*
X229384Y161010D01*
X229319Y160780D01*
X229286Y160529D01*
X232357D01*
Y160540D01*
Y160562D01*
X232347Y160594D01*
Y160638D01*
X232325Y160769D01*
X232292Y160911D01*
X232237Y161086D01*
X232183Y161250D01*
X232095Y161414D01*
X231997Y161556D01*
Y161567D01*
X231975Y161578D01*
X231920Y161644D01*
X231822Y161731D01*
X231691Y161829D01*
X231527Y161928D01*
X231330Y162015D01*
X231100Y162081D01*
X230980Y162092D01*
X230849Y162103D01*
D02*
G37*
G36*
X291970Y164092D02*
X291871D01*
X291795Y164081D01*
X291696Y164070D01*
X291598Y164048D01*
X291478Y164026D01*
X291347Y164005D01*
X291062Y163917D01*
X290909Y163851D01*
X290756Y163786D01*
X290592Y163698D01*
X290439Y163600D01*
X290286Y163491D01*
X290144Y163360D01*
X290133Y163349D01*
X290111Y163327D01*
X290079Y163283D01*
X290024Y163218D01*
X289969Y163141D01*
X289904Y163043D01*
X289838Y162923D01*
X289762Y162780D01*
X289696Y162627D01*
X289620Y162442D01*
X289554Y162245D01*
X289499Y162026D01*
X289445Y161786D01*
X289412Y161512D01*
X289390Y161228D01*
X289379Y160922D01*
Y160911D01*
Y160868D01*
Y160791D01*
X289390Y160693D01*
X289401Y160583D01*
X289423Y160452D01*
X289445Y160299D01*
X289467Y160146D01*
X289554Y159797D01*
X289620Y159622D01*
X289685Y159436D01*
X289773Y159261D01*
X289871Y159086D01*
X289980Y158922D01*
X290111Y158769D01*
X290122Y158758D01*
X290144Y158736D01*
X290188Y158693D01*
X290243Y158649D01*
X290319Y158583D01*
X290407Y158518D01*
X290505Y158452D01*
X290614Y158376D01*
X290745Y158299D01*
X290887Y158233D01*
X291040Y158168D01*
X291205Y158102D01*
X291379Y158059D01*
X291554Y158015D01*
X291751Y157993D01*
X291959Y157982D01*
X292013D01*
X292068Y157993D01*
X292144D01*
X292243Y158004D01*
X292352Y158026D01*
X292483Y158048D01*
X292615Y158080D01*
X292768Y158124D01*
X292910Y158179D01*
X293074Y158233D01*
X293227Y158310D01*
X293380Y158408D01*
X293533Y158507D01*
X293686Y158627D01*
X293828Y158769D01*
X293839Y158780D01*
X293861Y158802D01*
X293893Y158856D01*
X293948Y158922D01*
X294003Y158999D01*
X294057Y159097D01*
X294123Y159217D01*
X294199Y159348D01*
X294265Y159501D01*
X294331Y159676D01*
X294385Y159862D01*
X294451Y160059D01*
X294494Y160277D01*
X294527Y160518D01*
X294549Y160769D01*
X294560Y161032D01*
Y161042D01*
Y161075D01*
Y161119D01*
Y161185D01*
X294549Y161261D01*
Y161360D01*
X294538Y161458D01*
X294516Y161578D01*
X294483Y161829D01*
X294429Y162092D01*
X294352Y162376D01*
X294243Y162638D01*
Y162649D01*
X294232Y162671D01*
X294210Y162704D01*
X294188Y162748D01*
X294112Y162879D01*
X294014Y163032D01*
X293882Y163207D01*
X293718Y163382D01*
X293533Y163556D01*
X293325Y163709D01*
X293314D01*
X293303Y163731D01*
X293270Y163742D01*
X293216Y163775D01*
X293161Y163797D01*
X293095Y163830D01*
X292931Y163906D01*
X292735Y163972D01*
X292505Y164037D01*
X292243Y164081D01*
X291970Y164092D01*
D02*
G37*
G36*
X281914D02*
X281848D01*
X281805Y164081D01*
X281684Y164059D01*
X281542Y164026D01*
X281378Y163961D01*
X281204Y163862D01*
X281116Y163797D01*
X281029Y163731D01*
X280952Y163644D01*
X280876Y163546D01*
Y163534D01*
X280854Y163513D01*
X280832Y163469D01*
X280799Y163414D01*
X280766Y163327D01*
X280723Y163228D01*
X280690Y163108D01*
X280646Y162966D01*
X280602Y162802D01*
X280559Y162616D01*
X280515Y162409D01*
X280482Y162179D01*
X280449Y161917D01*
X280428Y161633D01*
X280417Y161327D01*
X280406Y160988D01*
Y160966D01*
Y160911D01*
Y160813D01*
X280417Y160682D01*
Y160540D01*
X280428Y160365D01*
X280438Y160179D01*
X280460Y159982D01*
X280515Y159556D01*
X280548Y159348D01*
X280592Y159152D01*
X280635Y158966D01*
X280701Y158791D01*
X280766Y158638D01*
X280843Y158507D01*
Y158496D01*
X280865Y158485D01*
X280919Y158408D01*
X281018Y158310D01*
X281138Y158201D01*
X281302Y158091D01*
X281488Y157993D01*
X281695Y157916D01*
X281805Y157906D01*
X281925Y157895D01*
X281991D01*
X282034Y157906D01*
X282143Y157927D01*
X282296Y157971D01*
X282460Y158048D01*
X282646Y158157D01*
X282734Y158223D01*
X282821Y158310D01*
X282909Y158397D01*
X282996Y158507D01*
Y158518D01*
X283018Y158539D01*
X283040Y158572D01*
X283062Y158627D01*
X283105Y158703D01*
X283138Y158802D01*
X283182Y158911D01*
X283226Y159042D01*
X283258Y159206D01*
X283302Y159381D01*
X283346Y159589D01*
X283379Y159807D01*
X283401Y160070D01*
X283422Y160343D01*
X283444Y160649D01*
Y160988D01*
Y160999D01*
Y161010D01*
Y161064D01*
Y161163D01*
X283433Y161294D01*
Y161436D01*
X283422Y161611D01*
X283411Y161797D01*
X283390Y162004D01*
X283335Y162420D01*
X283302Y162627D01*
X283258Y162824D01*
X283215Y163010D01*
X283149Y163185D01*
X283084Y163338D01*
X283007Y163469D01*
Y163480D01*
X282985Y163491D01*
X282963Y163524D01*
X282930Y163567D01*
X282832Y163666D01*
X282712Y163786D01*
X282548Y163895D01*
X282362Y163994D01*
X282264Y164037D01*
X282154Y164070D01*
X282034Y164081D01*
X281914Y164092D01*
D02*
G37*
G36*
X276034D02*
X275968D01*
X275924Y164081D01*
X275804Y164059D01*
X275662Y164026D01*
X275498Y163961D01*
X275323Y163862D01*
X275236Y163797D01*
X275148Y163731D01*
X275072Y163644D01*
X274995Y163546D01*
Y163534D01*
X274974Y163513D01*
X274952Y163469D01*
X274919Y163414D01*
X274886Y163327D01*
X274842Y163228D01*
X274810Y163108D01*
X274766Y162966D01*
X274722Y162802D01*
X274678Y162616D01*
X274635Y162409D01*
X274602Y162179D01*
X274569Y161917D01*
X274547Y161633D01*
X274536Y161327D01*
X274525Y160988D01*
Y160966D01*
Y160911D01*
Y160813D01*
X274536Y160682D01*
Y160540D01*
X274547Y160365D01*
X274558Y160179D01*
X274580Y159982D01*
X274635Y159556D01*
X274667Y159348D01*
X274711Y159152D01*
X274755Y158966D01*
X274820Y158791D01*
X274886Y158638D01*
X274962Y158507D01*
Y158496D01*
X274984Y158485D01*
X275039Y158408D01*
X275137Y158310D01*
X275258Y158201D01*
X275422Y158091D01*
X275607Y157993D01*
X275815Y157916D01*
X275924Y157906D01*
X276045Y157895D01*
X276110D01*
X276154Y157906D01*
X276263Y157927D01*
X276416Y157971D01*
X276580Y158048D01*
X276766Y158157D01*
X276853Y158223D01*
X276941Y158310D01*
X277028Y158397D01*
X277116Y158507D01*
Y158518D01*
X277138Y158539D01*
X277160Y158572D01*
X277181Y158627D01*
X277225Y158703D01*
X277258Y158802D01*
X277302Y158911D01*
X277345Y159042D01*
X277378Y159206D01*
X277422Y159381D01*
X277466Y159589D01*
X277498Y159807D01*
X277520Y160070D01*
X277542Y160343D01*
X277564Y160649D01*
Y160988D01*
Y160999D01*
Y161010D01*
Y161064D01*
Y161163D01*
X277553Y161294D01*
Y161436D01*
X277542Y161611D01*
X277531Y161797D01*
X277509Y162004D01*
X277455Y162420D01*
X277422Y162627D01*
X277378Y162824D01*
X277334Y163010D01*
X277269Y163185D01*
X277203Y163338D01*
X277127Y163469D01*
Y163480D01*
X277105Y163491D01*
X277083Y163524D01*
X277050Y163567D01*
X276952Y163666D01*
X276832Y163786D01*
X276668Y163895D01*
X276482Y163994D01*
X276383Y164037D01*
X276274Y164070D01*
X276154Y164081D01*
X276034Y164092D01*
D02*
G37*
G36*
X156799Y91612D02*
X155356D01*
Y89812D01*
X156712D01*
X156763Y89819D01*
X156814D01*
X156872Y89826D01*
X157010Y89841D01*
X157164Y89870D01*
X157317Y89914D01*
X157455Y89972D01*
X157521Y90008D01*
X157572Y90052D01*
X157587Y90067D01*
X157616Y90096D01*
X157659Y90154D01*
X157710Y90227D01*
X157761Y90322D01*
X157805Y90439D01*
X157834Y90570D01*
X157849Y90723D01*
Y90730D01*
Y90737D01*
Y90774D01*
X157842Y90839D01*
X157827Y90912D01*
X157812Y90993D01*
X157783Y91087D01*
X157740Y91175D01*
X157688Y91262D01*
X157681Y91270D01*
X157659Y91299D01*
X157623Y91335D01*
X157579Y91386D01*
X157514Y91437D01*
X157441Y91481D01*
X157360Y91525D01*
X157266Y91561D01*
X157258D01*
X157229Y91568D01*
X157185Y91576D01*
X157127Y91590D01*
X157040Y91598D01*
X156930Y91605D01*
X156799Y91612D01*
D02*
G37*
G36*
X24642Y164540D02*
X23369Y163267D01*
X24328Y162308D01*
X24369Y162277D01*
X24405Y162241D01*
X24452Y162205D01*
X24560Y162118D01*
X24689Y162030D01*
X24828Y161952D01*
X24967Y161896D01*
X25039Y161875D01*
X25106Y161870D01*
X25127D01*
X25168D01*
X25240Y161880D01*
X25328Y161896D01*
X25431Y161927D01*
X25544Y161978D01*
X25658Y162050D01*
X25776Y162148D01*
X25782Y162154D01*
X25787Y162159D01*
X25812Y162185D01*
X25854Y162236D01*
X25895Y162298D01*
X25941Y162365D01*
X25988Y162453D01*
X26019Y162545D01*
X26044Y162643D01*
Y162654D01*
X26050Y162690D01*
Y162741D01*
X26055Y162808D01*
X26044Y162891D01*
X26024Y162973D01*
X25998Y163061D01*
X25957Y163154D01*
X25952Y163159D01*
X25936Y163184D01*
X25910Y163221D01*
X25879Y163272D01*
X25823Y163339D01*
X25751Y163422D01*
X25663Y163520D01*
X24642Y164540D01*
D02*
G37*
G36*
X13188Y165193D02*
X11915Y163919D01*
X12874Y162961D01*
X12915Y162930D01*
X12951Y162894D01*
X12998Y162857D01*
X13106Y162770D01*
X13235Y162682D01*
X13374Y162605D01*
X13513Y162548D01*
X13585Y162528D01*
X13652Y162522D01*
X13673D01*
X13714D01*
X13786Y162533D01*
X13874Y162548D01*
X13977Y162579D01*
X14090Y162631D01*
X14204Y162703D01*
X14322Y162801D01*
X14328Y162806D01*
X14333Y162811D01*
X14358Y162837D01*
X14400Y162889D01*
X14441Y162950D01*
X14487Y163017D01*
X14534Y163105D01*
X14565Y163198D01*
X14591Y163296D01*
Y163306D01*
X14596Y163342D01*
Y163394D01*
X14601Y163461D01*
X14591Y163543D01*
X14570Y163626D01*
X14544Y163713D01*
X14503Y163806D01*
X14498Y163811D01*
X14482Y163837D01*
X14457Y163873D01*
X14426Y163925D01*
X14369Y163992D01*
X14297Y164074D01*
X14209Y164172D01*
X13188Y165193D01*
D02*
G37*
G36*
X20364Y155131D02*
X20317Y155125D01*
X20235Y155115D01*
X20132Y155084D01*
X20019Y155043D01*
X19884Y154981D01*
X19756Y154893D01*
X19622Y154780D01*
X19611Y154770D01*
X19586Y154744D01*
X19544Y154692D01*
X19493Y154630D01*
X19436Y154553D01*
X19385Y154460D01*
X19328Y154362D01*
X19281Y154254D01*
X19276Y154239D01*
X19266Y154198D01*
X19251Y154141D01*
X19235Y154063D01*
X19225Y153981D01*
X19214Y153878D01*
X19219Y153780D01*
X19235Y153672D01*
X19240Y153656D01*
X19251Y153625D01*
X19266Y153569D01*
X19297Y153507D01*
X19328Y153435D01*
X19369Y153352D01*
X19426Y153275D01*
X19493Y153197D01*
X19519Y153172D01*
X19544Y153156D01*
X19601Y153110D01*
X19683Y153058D01*
X19787Y153017D01*
X19905Y152971D01*
X20044Y152945D01*
X20117Y152935D01*
X20194Y152940D01*
X20199Y152945D01*
X20214Y152940D01*
X20266Y152950D01*
X20348Y152971D01*
X20457Y152996D01*
X20580Y153048D01*
X20714Y153120D01*
X20854Y153218D01*
X21003Y153347D01*
X21008Y153352D01*
X21019Y153362D01*
X21039Y153383D01*
X21060Y153414D01*
X21091Y153445D01*
X21122Y153486D01*
X21189Y153584D01*
X21261Y153698D01*
X21323Y153832D01*
X21364Y153976D01*
X21384Y154130D01*
Y154151D01*
Y154203D01*
X21374Y154275D01*
X21359Y154373D01*
X21328Y154486D01*
X21276Y154599D01*
X21204Y154723D01*
X21106Y154842D01*
X21075Y154873D01*
X21049Y154888D01*
X20993Y154935D01*
X20905Y154991D01*
X20802Y155043D01*
X20673Y155089D01*
X20539Y155120D01*
X20384Y155131D01*
X20364D01*
D02*
G37*
G36*
X36712Y165390D02*
X35439Y164116D01*
X36398Y163157D01*
X36439Y163127D01*
X36475Y163091D01*
X36521Y163054D01*
X36630Y162967D01*
X36758Y162879D01*
X36898Y162802D01*
X37037Y162745D01*
X37109Y162724D01*
X37176Y162719D01*
X37197D01*
X37238D01*
X37310Y162730D01*
X37398Y162745D01*
X37501Y162776D01*
X37614Y162828D01*
X37727Y162900D01*
X37846Y162998D01*
X37851Y163003D01*
X37856Y163008D01*
X37882Y163034D01*
X37923Y163085D01*
X37965Y163147D01*
X38011Y163214D01*
X38057Y163302D01*
X38088Y163395D01*
X38114Y163493D01*
Y163503D01*
X38119Y163539D01*
Y163591D01*
X38124Y163657D01*
X38114Y163740D01*
X38094Y163822D01*
X38068Y163910D01*
X38026Y164003D01*
X38021Y164008D01*
X38006Y164034D01*
X37980Y164070D01*
X37949Y164121D01*
X37892Y164189D01*
X37820Y164271D01*
X37733Y164369D01*
X36712Y165390D01*
D02*
G37*
G36*
X45259Y156616D02*
X45197Y156606D01*
X45125Y156585D01*
X45037Y156559D01*
X44944Y156518D01*
X44851Y156467D01*
X44764Y156389D01*
X44759Y156384D01*
X44754Y156379D01*
X44728Y156343D01*
X44686Y156291D01*
X44640Y156224D01*
X44594Y156137D01*
X44552Y156044D01*
X44522Y155930D01*
X44511Y155817D01*
Y155807D01*
X44516Y155760D01*
X44527Y155699D01*
X44547Y155626D01*
X44578Y155534D01*
X44625Y155436D01*
X44686Y155333D01*
X44774Y155235D01*
X44785Y155224D01*
X44820Y155199D01*
X44872Y155157D01*
X44944Y155106D01*
X45032Y155059D01*
X45125Y155018D01*
X45238Y154987D01*
X45351Y154977D01*
X45362D01*
X45408Y154982D01*
X45465Y154987D01*
X45542Y155003D01*
X45630Y155028D01*
X45723Y155070D01*
X45821Y155126D01*
X45908Y155204D01*
X45913Y155209D01*
X45919Y155214D01*
X45950Y155245D01*
X45985Y155302D01*
X46032Y155369D01*
X46073Y155451D01*
X46109Y155549D01*
X46135Y155657D01*
X46145Y155781D01*
Y155791D01*
X46140Y155838D01*
X46130Y155900D01*
X46114Y155977D01*
X46084Y156070D01*
X46042Y156162D01*
X45980Y156265D01*
X45898Y156358D01*
X45857Y156400D01*
X45800Y156436D01*
X45728Y156487D01*
X45640Y156534D01*
X45542Y156580D01*
X45434Y156606D01*
X45310Y156616D01*
X45300D01*
X45259D01*
D02*
G37*
G36*
X43666Y155199D02*
X43619Y155193D01*
X43542Y155178D01*
X43449Y155157D01*
X43331Y155121D01*
X43212Y155064D01*
X43094Y154987D01*
X42975Y154889D01*
X42965Y154879D01*
X42944Y154858D01*
X42913Y154817D01*
X42872Y154765D01*
X42826Y154699D01*
X42779Y154621D01*
X42738Y154539D01*
X42697Y154446D01*
Y154436D01*
X42681Y154400D01*
X42671Y154348D01*
X42666Y154281D01*
X42656Y154198D01*
Y154106D01*
X42666Y154013D01*
X42687Y153910D01*
X42692Y153894D01*
X42702Y153863D01*
X42722Y153812D01*
X42753Y153750D01*
X42795Y153678D01*
X42846Y153595D01*
X42908Y153513D01*
X42975Y153436D01*
X43006Y153405D01*
X43032Y153389D01*
X43099Y153332D01*
X43187Y153276D01*
X43295Y153219D01*
X43413Y153162D01*
X43547Y153131D01*
X43697Y153116D01*
X43717D01*
X43764Y153121D01*
X43846Y153131D01*
X43939Y153152D01*
X44047Y153188D01*
X44171Y153240D01*
X44295Y153322D01*
X44413Y153420D01*
X44418Y153425D01*
X44429Y153436D01*
X44444Y153451D01*
X44460Y153477D01*
X44511Y153539D01*
X44573Y153631D01*
X44625Y153735D01*
X44676Y153858D01*
X44712Y153997D01*
X44723Y154152D01*
Y154173D01*
X44717Y154219D01*
X44707Y154302D01*
X44686Y154405D01*
X44645Y154518D01*
X44589Y154647D01*
X44506Y154771D01*
X44403Y154894D01*
X44372Y154925D01*
X44346Y154941D01*
X44284Y154992D01*
X44197Y155049D01*
X44089Y155106D01*
X43970Y155152D01*
X43831Y155188D01*
X43687Y155199D01*
X43666D01*
D02*
G37*
G36*
X49212Y165193D02*
X47939Y163919D01*
X48898Y162961D01*
X48939Y162930D01*
X48975Y162894D01*
X49021Y162857D01*
X49130Y162770D01*
X49258Y162682D01*
X49398Y162605D01*
X49537Y162548D01*
X49609Y162528D01*
X49676Y162522D01*
X49697D01*
X49738D01*
X49810Y162533D01*
X49898Y162548D01*
X50001Y162579D01*
X50114Y162631D01*
X50227Y162703D01*
X50346Y162801D01*
X50351Y162806D01*
X50356Y162811D01*
X50382Y162837D01*
X50423Y162889D01*
X50465Y162950D01*
X50511Y163017D01*
X50557Y163105D01*
X50588Y163198D01*
X50614Y163296D01*
Y163306D01*
X50619Y163342D01*
Y163394D01*
X50625Y163461D01*
X50614Y163543D01*
X50594Y163626D01*
X50568Y163713D01*
X50526Y163806D01*
X50521Y163811D01*
X50506Y163837D01*
X50480Y163873D01*
X50449Y163925D01*
X50393Y163992D01*
X50320Y164074D01*
X50233Y164172D01*
X49212Y165193D01*
D02*
G37*
G36*
X57625Y156430D02*
X57599Y156424D01*
X57573Y156419D01*
X57486Y156404D01*
X57377Y156368D01*
X57248Y156321D01*
X57104Y156249D01*
X56960Y156146D01*
X56815Y156022D01*
X56810Y156017D01*
X56800Y156007D01*
X56784Y155991D01*
X56764Y155960D01*
X56733Y155930D01*
X56707Y155893D01*
X56645Y155801D01*
X56583Y155687D01*
X56522Y155563D01*
X56480Y155419D01*
X56465Y155270D01*
Y155249D01*
X56470Y155203D01*
X56480Y155120D01*
X56501Y155027D01*
X56537Y154909D01*
X56589Y154785D01*
X56666Y154667D01*
X56764Y154548D01*
X56795Y154517D01*
X56820Y154502D01*
X56882Y154450D01*
X56965Y154399D01*
X57073Y154342D01*
X57192Y154295D01*
X57326Y154264D01*
X57475Y154259D01*
X57496D01*
X57547Y154270D01*
X57625Y154285D01*
X57733Y154311D01*
X57851Y154357D01*
X57980Y154424D01*
X58119Y154522D01*
X58264Y154646D01*
X58269Y154651D01*
X58279Y154661D01*
X58300Y154682D01*
X58321Y154713D01*
X58357Y154749D01*
X58388Y154790D01*
X58455Y154888D01*
X58532Y155007D01*
X58599Y155146D01*
X58645Y155296D01*
X58666Y155450D01*
X58671Y155455D01*
X58666Y155471D01*
Y155522D01*
X58661Y155600D01*
X58645Y155698D01*
X58609Y155806D01*
X58563Y155924D01*
X58496Y156043D01*
X58455Y156105D01*
X58372Y156187D01*
X58346Y156203D01*
X58284Y156254D01*
X58197Y156301D01*
X58089Y156357D01*
X57955Y156399D01*
X57810Y156430D01*
X57728D01*
X57645D01*
X57640Y156424D01*
X57625Y156430D01*
D02*
G37*
G36*
X61810Y166866D02*
X60537Y165593D01*
X61496Y164634D01*
X61537Y164603D01*
X61573Y164567D01*
X61620Y164531D01*
X61728Y164443D01*
X61857Y164356D01*
X61996Y164278D01*
X62135Y164222D01*
X62207Y164201D01*
X62274Y164196D01*
X62295D01*
X62336D01*
X62408Y164206D01*
X62496Y164222D01*
X62599Y164252D01*
X62713Y164304D01*
X62826Y164376D01*
X62945Y164474D01*
X62950Y164479D01*
X62955Y164484D01*
X62981Y164510D01*
X63022Y164562D01*
X63063Y164624D01*
X63109Y164691D01*
X63156Y164778D01*
X63187Y164871D01*
X63213Y164969D01*
Y164979D01*
X63218Y165015D01*
Y165067D01*
X63223Y165134D01*
X63213Y165216D01*
X63192Y165299D01*
X63166Y165386D01*
X63125Y165479D01*
X63120Y165484D01*
X63104Y165510D01*
X63078Y165546D01*
X63048Y165598D01*
X62991Y165665D01*
X62919Y165747D01*
X62831Y165845D01*
X61810Y166866D01*
D02*
G37*
G36*
X73172Y155319D02*
X73094Y155314D01*
X73012Y155304D01*
X73007Y155298D01*
X72986D01*
X72955Y155288D01*
X72914Y155278D01*
X72857Y155252D01*
X72790Y155226D01*
X72718Y155185D01*
X72630Y155139D01*
X72532Y155082D01*
X72424Y155015D01*
X72306Y154938D01*
X72182Y154845D01*
X72043Y154737D01*
X71898Y154613D01*
X71749Y154474D01*
X71584Y154319D01*
X71574Y154309D01*
X71548Y154283D01*
X71501Y154237D01*
X71445Y154170D01*
X71378Y154103D01*
X71301Y154015D01*
X71218Y153922D01*
X71135Y153819D01*
X70960Y153592D01*
X70878Y153479D01*
X70806Y153366D01*
X70739Y153257D01*
X70687Y153144D01*
X70646Y153041D01*
X70620Y152943D01*
X70615Y152938D01*
X70620Y152922D01*
X70610Y152860D01*
Y152768D01*
X70615Y152659D01*
X70641Y152530D01*
X70682Y152396D01*
X70744Y152262D01*
X70790Y152206D01*
X70842Y152144D01*
X70873Y152113D01*
X70898Y152097D01*
X70960Y152056D01*
X71053Y152005D01*
X71166Y151963D01*
X71306Y151927D01*
X71378Y151917D01*
X71460D01*
X71543D01*
X71636Y151927D01*
X71641Y151932D01*
X71661D01*
X71687Y151938D01*
X71723Y151953D01*
X71780Y151969D01*
X71842Y151999D01*
X71914Y152030D01*
X71996Y152072D01*
X72089Y152134D01*
X72192Y152195D01*
X72311Y152273D01*
X72429Y152360D01*
X72563Y152474D01*
X72703Y152592D01*
X72857Y152726D01*
X73017Y152886D01*
X73022Y152891D01*
X73027Y152896D01*
X73053Y152922D01*
X73099Y152969D01*
X73156Y153035D01*
X73223Y153103D01*
X73300Y153190D01*
X73383Y153283D01*
X73471Y153391D01*
X73641Y153613D01*
X73723Y153726D01*
X73795Y153840D01*
X73862Y153948D01*
X73914Y154061D01*
X73955Y154165D01*
X73981Y154262D01*
X73986Y154268D01*
X73981Y154283D01*
X73986Y154309D01*
X73991Y154345D01*
Y154438D01*
Y154551D01*
X73966Y154680D01*
X73924Y154814D01*
X73899Y154881D01*
X73862Y154948D01*
X73811Y155010D01*
X73759Y155072D01*
X73728Y155103D01*
X73703Y155118D01*
X73636Y155165D01*
X73553Y155216D01*
X73445Y155262D01*
X73316Y155298D01*
X73244Y155309D01*
X73172Y155319D01*
D02*
G37*
G36*
X6434Y155977D02*
X5160Y154704D01*
X6119Y153745D01*
X6160Y153714D01*
X6196Y153678D01*
X6243Y153642D01*
X6351Y153554D01*
X6480Y153467D01*
X6619Y153390D01*
X6758Y153333D01*
X6831Y153312D01*
X6898Y153307D01*
X6918D01*
X6959D01*
X7032Y153317D01*
X7119Y153333D01*
X7222Y153364D01*
X7336Y153415D01*
X7449Y153488D01*
X7568Y153585D01*
X7573Y153591D01*
X7578Y153596D01*
X7604Y153621D01*
X7645Y153673D01*
X7686Y153735D01*
X7733Y153802D01*
X7779Y153890D01*
X7810Y153982D01*
X7836Y154080D01*
Y154091D01*
X7841Y154127D01*
Y154178D01*
X7846Y154245D01*
X7836Y154328D01*
X7815Y154410D01*
X7789Y154498D01*
X7748Y154591D01*
X7743Y154596D01*
X7728Y154622D01*
X7702Y154658D01*
X7671Y154709D01*
X7614Y154776D01*
X7542Y154859D01*
X7454Y154957D01*
X6434Y155977D01*
D02*
G37*
G36*
X15485Y146348D02*
X12764Y145874D01*
X13887Y144750D01*
X15485Y146348D01*
D02*
G37*
G36*
X-4815Y11188D02*
X-6258D01*
Y9387D01*
X-4902D01*
X-4851Y9395D01*
X-4800D01*
X-4742Y9402D01*
X-4604Y9416D01*
X-4451Y9446D01*
X-4297Y9489D01*
X-4159Y9548D01*
X-4093Y9584D01*
X-4042Y9628D01*
X-4028Y9642D01*
X-3999Y9672D01*
X-3955Y9730D01*
X-3904Y9803D01*
X-3853Y9898D01*
X-3809Y10014D01*
X-3780Y10145D01*
X-3765Y10299D01*
Y10306D01*
Y10313D01*
Y10350D01*
X-3773Y10415D01*
X-3787Y10488D01*
X-3802Y10568D01*
X-3831Y10663D01*
X-3875Y10751D01*
X-3926Y10838D01*
X-3933Y10845D01*
X-3955Y10875D01*
X-3991Y10911D01*
X-4035Y10962D01*
X-4101Y11013D01*
X-4174Y11057D01*
X-4254Y11100D01*
X-4349Y11137D01*
X-4356D01*
X-4385Y11144D01*
X-4429Y11152D01*
X-4487Y11166D01*
X-4575Y11173D01*
X-4684Y11181D01*
X-4815Y11188D01*
D02*
G37*
G36*
X156012Y11691D02*
X154568D01*
Y9890D01*
X155924D01*
X155975Y9898D01*
X156026D01*
X156085Y9905D01*
X156223Y9920D01*
X156376Y9949D01*
X156529Y9992D01*
X156668Y10051D01*
X156733Y10087D01*
X156784Y10131D01*
X156799Y10146D01*
X156828Y10175D01*
X156872Y10233D01*
X156923Y10306D01*
X156974Y10401D01*
X157018Y10517D01*
X157047Y10649D01*
X157062Y10802D01*
Y10809D01*
Y10816D01*
Y10853D01*
X157054Y10918D01*
X157040Y10991D01*
X157025Y11071D01*
X156996Y11166D01*
X156952Y11254D01*
X156901Y11341D01*
X156894Y11348D01*
X156872Y11377D01*
X156835Y11414D01*
X156792Y11465D01*
X156726Y11516D01*
X156653Y11560D01*
X156573Y11603D01*
X156478Y11640D01*
X156471D01*
X156442Y11647D01*
X156398Y11654D01*
X156340Y11669D01*
X156252Y11676D01*
X156143Y11684D01*
X156012Y11691D01*
D02*
G37*
G36*
X156209Y153314D02*
X154765D01*
Y151513D01*
X156121D01*
X156172Y151521D01*
X156223D01*
X156281Y151528D01*
X156420Y151542D01*
X156573Y151572D01*
X156726Y151615D01*
X156865Y151674D01*
X156930Y151710D01*
X156981Y151754D01*
X156996Y151768D01*
X157025Y151798D01*
X157069Y151856D01*
X157120Y151929D01*
X157171Y152024D01*
X157215Y152140D01*
X157244Y152271D01*
X157258Y152425D01*
Y152432D01*
Y152439D01*
Y152476D01*
X157251Y152541D01*
X157237Y152614D01*
X157222Y152694D01*
X157193Y152789D01*
X157149Y152876D01*
X157098Y152964D01*
X157091Y152971D01*
X157069Y153000D01*
X157032Y153037D01*
X156989Y153088D01*
X156923Y153139D01*
X156850Y153183D01*
X156770Y153226D01*
X156675Y153263D01*
X156668D01*
X156639Y153270D01*
X156595Y153278D01*
X156537Y153292D01*
X156449Y153299D01*
X156340Y153307D01*
X156209Y153314D01*
D02*
G37*
%LPD*%
G54D62*
X164094Y0D02*
X163971Y979D01*
X163608Y1897D01*
X163027Y2695D01*
X162267Y3324D01*
X161374Y3744D01*
X160405Y3929D01*
X159420Y3867D01*
X158481Y3562D01*
X157648Y3033D01*
X156972Y2314D01*
X156497Y1449D01*
X156252Y493D01*
Y-493D01*
X156497Y-1449D01*
X156972Y-2314D01*
X157648Y-3033D01*
X158481Y-3562D01*
X159420Y-3867D01*
X160405Y-3929D01*
X161374Y-3744D01*
X162267Y-3324D01*
X163027Y-2695D01*
X163608Y-1897D01*
X163971Y-979D01*
X164094Y-0D01*
X3937Y0D02*
X3813Y979D01*
X3450Y1897D01*
X2870Y2695D01*
X2110Y3324D01*
X1217Y3744D01*
X247Y3929D01*
X-738Y3867D01*
X-1676Y3562D01*
X-2510Y3033D01*
X-3185Y2314D01*
X-3661Y1449D01*
X-3906Y493D01*
Y-493D01*
X-3661Y-1449D01*
X-3185Y-2314D01*
X-2510Y-3033D01*
X-1676Y-3562D01*
X-738Y-3867D01*
X247Y-3929D01*
X1217Y-3744D01*
X2110Y-3324D01*
X2870Y-2695D01*
X3450Y-1897D01*
X3813Y-979D01*
X3937Y-0D01*
Y160158D02*
X3813Y161137D01*
X3450Y162054D01*
X2870Y162853D01*
X2110Y163482D01*
X1217Y163902D01*
X247Y164087D01*
X-738Y164025D01*
X-1676Y163720D01*
X-2510Y163191D01*
X-3185Y162472D01*
X-3661Y161607D01*
X-3906Y160651D01*
Y159664D01*
X-3661Y158708D01*
X-3185Y157843D01*
X-2510Y157124D01*
X-1676Y156595D01*
X-738Y156290D01*
X247Y156228D01*
X1217Y156413D01*
X2110Y156833D01*
X2870Y157462D01*
X3450Y158261D01*
X3813Y159178D01*
X3937Y160158D01*
X164094Y160158D02*
X163971Y161137D01*
X163608Y162054D01*
X163027Y162853D01*
X162267Y163482D01*
X161374Y163902D01*
X160405Y164087D01*
X159420Y164025D01*
X158481Y163720D01*
X157648Y163191D01*
X156972Y162472D01*
X156497Y161607D01*
X156252Y160651D01*
Y159664D01*
X156497Y158708D01*
X156972Y157843D01*
X157648Y157124D01*
X158481Y156595D01*
X159420Y156290D01*
X160405Y156228D01*
X161374Y156413D01*
X162267Y156833D01*
X163027Y157462D01*
X163608Y158261D01*
X163971Y159178D01*
X164094Y160158D01*
X12118Y170669D02*
X11994Y171648D01*
X11631Y172566D01*
X11051Y173364D01*
X10291Y173993D01*
X9398Y174414D01*
X8428Y174599D01*
X7443Y174537D01*
X6505Y174232D01*
X5672Y173703D01*
X4996Y172983D01*
X4521Y172119D01*
X4275Y171163D01*
Y170176D01*
X4521Y169220D01*
X4996Y168355D01*
X5672Y167636D01*
X6505Y167107D01*
X7443Y166802D01*
X8428Y166740D01*
X9398Y166925D01*
X10291Y167345D01*
X11051Y167974D01*
X11631Y168773D01*
X11994Y169690D01*
X12118Y170669D01*
X60118Y170669D02*
X59994Y171648D01*
X59631Y172566D01*
X59051Y173364D01*
X58291Y173993D01*
X57398Y174414D01*
X56428Y174599D01*
X55443Y174537D01*
X54505Y174232D01*
X53672Y173703D01*
X52996Y172983D01*
X52521Y172119D01*
X52275Y171163D01*
Y170176D01*
X52521Y169220D01*
X52996Y168355D01*
X53672Y167636D01*
X54505Y167107D01*
X55443Y166802D01*
X56428Y166740D01*
X57398Y166925D01*
X58291Y167345D01*
X59051Y167974D01*
X59631Y168773D01*
X59994Y169690D01*
X60118Y170669D01*
X48118Y170669D02*
X47994Y171648D01*
X47631Y172566D01*
X47051Y173364D01*
X46291Y173993D01*
X45398Y174414D01*
X44428Y174599D01*
X43443Y174537D01*
X42505Y174232D01*
X41672Y173703D01*
X40996Y172983D01*
X40521Y172119D01*
X40275Y171163D01*
Y170176D01*
X40521Y169220D01*
X40996Y168355D01*
X41672Y167636D01*
X42505Y167107D01*
X43443Y166802D01*
X44428Y166740D01*
X45398Y166925D01*
X46291Y167345D01*
X47051Y167974D01*
X47631Y168773D01*
X47994Y169690D01*
X48118Y170669D01*
X36118Y170669D02*
X35994Y171648D01*
X35631Y172566D01*
X35051Y173364D01*
X34291Y173993D01*
X33398Y174414D01*
X32428Y174599D01*
X31443Y174537D01*
X30505Y174232D01*
X29672Y173703D01*
X28996Y172983D01*
X28521Y172119D01*
X28275Y171163D01*
Y170176D01*
X28521Y169220D01*
X28996Y168355D01*
X29672Y167636D01*
X30505Y167107D01*
X31443Y166802D01*
X32428Y166740D01*
X33398Y166925D01*
X34291Y167345D01*
X35051Y167974D01*
X35631Y168773D01*
X35994Y169690D01*
X36118Y170669D01*
X24118Y170669D02*
X23994Y171648D01*
X23631Y172566D01*
X23051Y173364D01*
X22291Y173993D01*
X21398Y174414D01*
X20428Y174599D01*
X19443Y174537D01*
X18505Y174232D01*
X17672Y173703D01*
X16996Y172983D01*
X16521Y172119D01*
X16275Y171163D01*
Y170176D01*
X16521Y169220D01*
X16996Y168355D01*
X17672Y167636D01*
X18505Y167107D01*
X19443Y166802D01*
X20428Y166740D01*
X21398Y166925D01*
X22291Y167345D01*
X23051Y167974D01*
X23631Y168773D01*
X23994Y169690D01*
X24118Y170669D01*
X164094Y80079D02*
X163971Y81058D01*
X163608Y81975D01*
X163027Y82774D01*
X162267Y83403D01*
X161374Y83823D01*
X160405Y84008D01*
X159420Y83946D01*
X158481Y83641D01*
X157648Y83112D01*
X156972Y82393D01*
X156497Y81528D01*
X156252Y80572D01*
Y79585D01*
X156497Y78629D01*
X156972Y77765D01*
X157648Y77045D01*
X158481Y76516D01*
X159420Y76212D01*
X160405Y76149D01*
X161374Y76334D01*
X162267Y76755D01*
X163027Y77384D01*
X163608Y78182D01*
X163971Y79100D01*
X164094Y80079D01*
G54D63*
X168268Y-19921D02*
X169243Y-19881D01*
X170212Y-19760D01*
X171167Y-19560D01*
X172103Y-19281D01*
X173012Y-18926D01*
X173889Y-18498D01*
X174728Y-17998D01*
X175522Y-17431D01*
X176267Y-16800D01*
X176957Y-16110D01*
X177588Y-15365D01*
X178156Y-14570D01*
X178655Y-13732D01*
X179084Y-12855D01*
X179439Y-11945D01*
X179717Y-11010D01*
X179918Y-10054D01*
X180038Y-9086D01*
X180079Y-8110D01*
Y168268D02*
X180038Y169243D01*
X179918Y170212D01*
X179717Y171167D01*
X179439Y172103D01*
X179084Y173012D01*
X178655Y173889D01*
X178156Y174728D01*
X177588Y175522D01*
X176957Y176267D01*
X176267Y176957D01*
X175522Y177588D01*
X174728Y178156D01*
X173889Y178655D01*
X173012Y179084D01*
X172103Y179439D01*
X171167Y179717D01*
X170212Y179918D01*
X169243Y180038D01*
X168268Y180079D01*
X-19921Y-8110D02*
X-19881Y-9086D01*
X-19760Y-10054D01*
X-19560Y-11010D01*
X-19281Y-11945D01*
X-18926Y-12855D01*
X-18498Y-13732D01*
X-17998Y-14570D01*
X-17431Y-15365D01*
X-16800Y-16110D01*
X-16110Y-16800D01*
X-15365Y-17431D01*
X-14570Y-17998D01*
X-13732Y-18498D01*
X-12855Y-18926D01*
X-11945Y-19281D01*
X-11010Y-19560D01*
X-10054Y-19760D01*
X-9086Y-19881D01*
X-8110Y-19921D01*
Y180079D02*
X-9086Y180038D01*
X-10054Y179918D01*
X-11010Y179717D01*
X-11945Y179439D01*
X-12855Y179084D01*
X-13732Y178655D01*
X-14570Y178156D01*
X-15365Y177588D01*
X-16110Y176957D01*
X-16800Y176267D01*
X-17431Y175522D01*
X-17998Y174728D01*
X-18498Y173889D01*
X-18926Y173012D01*
X-19281Y172103D01*
X-19560Y171167D01*
X-19760Y170212D01*
X-19881Y169243D01*
X-19921Y168268D01*
X-8504Y180079D02*
X168268Y180079D01*
X-8110Y-19921D02*
X168268Y-19921D01*
X180079Y168268D02*
X180079Y-8110D01*
X-19921Y168268D02*
X-19921Y-8110D01*
M02*
