G04*
G04 #@! TF.GenerationSoftware,Altium Limited,Altium Designer,21.6.4 (81)*
G04*
G04 Layer_Color=16711935*
%FSLAX25Y25*%
%MOIN*%
G70*
G04*
G04 #@! TF.SameCoordinates,58B769C5-09E4-400E-A119-9391F3B74D98*
G04*
G04*
G04 #@! TF.FilePolarity,Positive*
G04*
G01*
G75*
%ADD10C,0.00700*%
%ADD11C,0.00600*%
%ADD12C,0.00300*%
%ADD15R,0.00397X0.00272*%
%ADD16R,0.04600X0.05500*%
%ADD41C,0.00050*%
%ADD48R,0.01772X0.13681*%
G54D10*
X680122Y722146D02*
X743311D01*
X680122Y778642D02*
X743311D01*
X680122Y722146D02*
Y778642D01*
X743311Y722146D02*
Y778642D01*
X626321Y728215D02*
X634121D01*
Y732415D01*
X626321D02*
X634121D01*
X626321Y728215D02*
Y732415D01*
X789331Y736109D02*
X794331D01*
Y725109D02*
Y736109D01*
X789331Y725109D02*
X794331D01*
X789331D02*
Y736109D01*
X631422Y769048D02*
X635221D01*
Y762448D02*
Y769048D01*
X631422Y762448D02*
X635221D01*
X631422D02*
Y769048D01*
X847140Y719114D02*
Y748614D01*
X815433Y719114D02*
Y748614D01*
Y719114D02*
X847140D01*
X815433Y748614D02*
X847140D01*
X570046Y782923D02*
X628829D01*
X570046Y751723D02*
X628829D01*
Y782923D01*
X570046Y751723D02*
Y782923D01*
X639313Y756125D02*
X647113D01*
Y759925D01*
X639313D02*
X647113D01*
X639313Y756125D02*
Y759925D01*
X727533Y711848D02*
Y719648D01*
Y711848D02*
X731333D01*
Y719648D01*
X727533D02*
X731333D01*
X733658Y711848D02*
Y719648D01*
Y711848D02*
X737458D01*
Y719648D01*
X733658D02*
X737458D01*
X739734Y711848D02*
Y719648D01*
Y711848D02*
X743534D01*
Y719648D01*
X739734D02*
X743534D01*
X690391Y781533D02*
Y789333D01*
X686591D02*
X690391D01*
X686591Y781533D02*
Y789333D01*
Y781533D02*
X690391D01*
X762166Y736109D02*
X767166D01*
Y725109D02*
Y736109D01*
X762166Y725109D02*
X767166D01*
X762166D02*
Y736109D01*
X704105Y781139D02*
Y788939D01*
Y781139D02*
X708305D01*
Y788939D01*
X704105D02*
X708305D01*
X769459Y728383D02*
Y736184D01*
Y728383D02*
X773659D01*
Y736184D01*
X769459D02*
X773659D01*
X796624Y728383D02*
Y736184D01*
Y728383D02*
X800824D01*
Y736184D01*
X796624D02*
X800824D01*
X823289Y762242D02*
Y770042D01*
X819089D02*
X823289D01*
X819089Y762242D02*
Y770042D01*
Y762242D02*
X823289D01*
X833348D02*
Y770042D01*
X829148D02*
X833348D01*
X829148Y762242D02*
Y770042D01*
Y762242D02*
X833348D01*
X739313Y787270D02*
X747113D01*
Y791470D01*
X739313D02*
X747113D01*
X739313Y787270D02*
Y791470D01*
X638525Y732415D02*
X646325D01*
X638525Y728215D02*
Y732415D01*
Y728215D02*
X646325D01*
Y732415D01*
X675927Y715617D02*
X683727D01*
Y719816D01*
X675927D02*
X683727D01*
X675927Y715617D02*
Y719816D01*
G54D11*
X634738Y733651D02*
X642238D01*
X634738Y742651D02*
Y747451D01*
X642238Y733651D02*
Y734849D01*
X645788D01*
X634738Y733651D02*
Y738451D01*
X631188Y742651D02*
X634738D01*
X631188Y738451D02*
X634738D01*
Y747451D02*
X642238D01*
X645788Y734849D02*
Y746253D01*
X631188Y738451D02*
Y742651D01*
X642238Y746253D02*
X645788D01*
X642238D02*
Y747451D01*
G54D12*
X791356Y730484D02*
X792256D01*
X791356D02*
X791806Y730934D01*
X792256Y730484D01*
X764191D02*
X765091D01*
X764191D02*
X764641Y730934D01*
X765091Y730484D01*
G54D15*
X791822Y730618D02*
D03*
X764657D02*
D03*
G54D16*
X849540Y721519D02*
D03*
G54D41*
X592039Y693404D02*
X592222Y692508D01*
X592664Y691708D01*
X593327Y691077D01*
X594147Y690674D01*
X595051Y690535D01*
X617787Y711421D02*
X617636Y712408D01*
X617302Y713348D01*
X616797Y714209D01*
X616139Y714960D01*
X615352Y715573D01*
X614464Y716028D01*
X613505Y716307D01*
X612512Y716402D01*
X592039Y693404D02*
X592222Y692508D01*
X592664Y691708D01*
X593327Y691077D01*
X594147Y690674D01*
X595051Y690535D01*
X617787Y711421D02*
X617636Y712408D01*
X617302Y713348D01*
X616797Y714209D01*
X616139Y714960D01*
X615352Y715573D01*
X614464Y716028D01*
X613505Y716307D01*
X612512Y716402D01*
X854122Y810444D02*
X853816Y811508D01*
X853147Y812389D01*
X852206Y812970D01*
X851118Y813173D01*
X824476Y794421D02*
X824593Y793396D01*
X824850Y792396D01*
X825243Y791442D01*
X825765Y790552D01*
X826405Y789742D01*
X827150Y789028D01*
X827987Y788425D01*
X828900Y787943D01*
X829870Y787592D01*
X830880Y787379D01*
X831909Y787307D01*
X608602Y787307D02*
X609569Y787358D01*
X610524Y787509D01*
X611459Y787760D01*
X612362Y788108D01*
X613224Y788548D01*
X614035Y789076D01*
X614786Y789685D01*
X615470Y790371D01*
X616078Y791123D01*
X616603Y791936D01*
X617041Y792799D01*
X617386Y793703D01*
X617634Y794638D01*
X617783Y795595D01*
X595035Y813173D02*
X594109Y813027D01*
X593273Y812601D01*
X592610Y811938D01*
X592183Y811103D01*
X592035Y810177D01*
X846366Y803134D02*
X846283Y804138D01*
X846035Y805115D01*
X845631Y806038D01*
X845079Y806882D01*
X844397Y807623D01*
X843601Y808243D01*
X842715Y808722D01*
X841762Y809050D01*
X840768Y809215D01*
X839760D01*
X838766Y809050D01*
X837813Y808722D01*
X836926Y808243D01*
X836131Y807623D01*
X835448Y806882D01*
X834897Y806038D01*
X834492Y805115D01*
X834245Y804138D01*
X834161Y803134D01*
X834245Y802129D01*
X834492Y801152D01*
X834897Y800229D01*
X835448Y799386D01*
X836131Y798644D01*
X836926Y798025D01*
X837813Y797545D01*
X838766Y797218D01*
X839760Y797052D01*
X840768D01*
X841762Y797218D01*
X842715Y797545D01*
X843601Y798025D01*
X844397Y798644D01*
X845079Y799386D01*
X845631Y800229D01*
X846035Y801152D01*
X846283Y802129D01*
X846366Y803134D01*
X608177Y700772D02*
X608094Y701776D01*
X607846Y702753D01*
X607442Y703676D01*
X606890Y704520D01*
X606208Y705261D01*
X605412Y705880D01*
X604526Y706360D01*
X603573Y706687D01*
X602579Y706853D01*
X601571D01*
X600577Y706687D01*
X599623Y706360D01*
X598737Y705880D01*
X597942Y705261D01*
X597259Y704520D01*
X596708Y703676D01*
X596303Y702753D01*
X596056Y701776D01*
X595972Y700772D01*
X596056Y699767D01*
X596303Y698790D01*
X596708Y697867D01*
X597259Y697023D01*
X597942Y696282D01*
X598737Y695663D01*
X599623Y695183D01*
X600577Y694856D01*
X601571Y694690D01*
X602579D01*
X603573Y694856D01*
X604526Y695183D01*
X605412Y695663D01*
X606208Y696282D01*
X606890Y697023D01*
X607442Y697867D01*
X607846Y698790D01*
X608094Y699767D01*
X608177Y700772D01*
X846366D02*
X846283Y701776D01*
X846035Y702753D01*
X845631Y703676D01*
X845079Y704520D01*
X844397Y705261D01*
X843601Y705880D01*
X842715Y706360D01*
X841762Y706687D01*
X840768Y706853D01*
X839760D01*
X838766Y706687D01*
X837813Y706360D01*
X836926Y705880D01*
X836131Y705261D01*
X835448Y704520D01*
X834897Y703676D01*
X834492Y702753D01*
X834245Y701776D01*
X834161Y700772D01*
X834245Y699767D01*
X834492Y698790D01*
X834897Y697867D01*
X835448Y697023D01*
X836131Y696282D01*
X836926Y695663D01*
X837813Y695183D01*
X838766Y694856D01*
X839760Y694690D01*
X840768D01*
X841762Y694856D01*
X842715Y695183D01*
X843601Y695663D01*
X844397Y696282D01*
X845079Y697023D01*
X845631Y697867D01*
X846035Y698790D01*
X846283Y699767D01*
X846366Y700772D01*
X608177Y803134D02*
X608094Y804138D01*
X607846Y805115D01*
X607442Y806038D01*
X606890Y806882D01*
X606208Y807623D01*
X605412Y808243D01*
X604526Y808722D01*
X603573Y809050D01*
X602579Y809215D01*
X601571D01*
X600577Y809050D01*
X599623Y808722D01*
X598737Y808243D01*
X597942Y807623D01*
X597259Y806882D01*
X596708Y806038D01*
X596303Y805115D01*
X596056Y804138D01*
X595972Y803134D01*
X596056Y802129D01*
X596303Y801152D01*
X596708Y800229D01*
X597259Y799386D01*
X597942Y798644D01*
X598737Y798025D01*
X599623Y797545D01*
X600577Y797218D01*
X601571Y797052D01*
X602579D01*
X603573Y797218D01*
X604526Y797545D01*
X605412Y798025D01*
X606208Y798644D01*
X606890Y799386D01*
X607442Y800229D01*
X607846Y801152D01*
X608094Y802129D01*
X608177Y803134D01*
X592039Y716402D02*
X612512D01*
X592039D02*
X612512D01*
X617787Y690535D02*
Y711421D01*
X595051Y690535D02*
X617787D01*
X592039Y693404D02*
Y716402D01*
X595051Y690535D02*
X617787D01*
Y711421D01*
X592039Y693404D02*
Y716402D01*
X854122Y787307D02*
Y810444D01*
X831909Y787307D02*
X854122D01*
X824476Y794421D02*
Y813173D01*
X851118D01*
X592035Y787307D02*
Y810177D01*
X617783Y795595D02*
Y813173D01*
X592035Y787307D02*
X608602D01*
X595035Y813173D02*
X617783D01*
X589358Y689370D02*
X594964D01*
X590850Y688362D02*
Y693484D01*
G54D48*
X742425Y771801D02*
D03*
M02*
