G04*
G04 #@! TF.GenerationSoftware,Altium Limited,Altium Designer,21.6.4 (81)*
G04*
G04 Layer_Color=8421504*
%FSLAX25Y25*%
%MOIN*%
G70*
G04*
G04 #@! TF.SameCoordinates,58B769C5-09E4-400E-A119-9391F3B74D98*
G04*
G04*
G04 #@! TF.FilePolarity,Positive*
G04*
G01*
G75*
%ADD17R,0.02350X0.03525*%
%ADD18R,0.03150X0.04750*%
%ADD19R,0.05000X0.02200*%
%ADD20R,0.03543X0.02362*%
%ADD21R,0.01968X0.02362*%
%ADD22R,0.03150X0.03150*%
%ADD23R,0.01968X0.01575*%
%ADD24R,0.11614X0.04016*%
%ADD25R,0.19685X0.03937*%
%ADD26C,0.03937*%
%ADD27R,0.01968X0.01968*%
%ADD28R,0.01968X0.01968*%
%ADD29R,0.02362X0.01968*%
G36*
X606962Y761541D02*
X606966Y761536D01*
X606971Y761530D01*
X606992Y761507D01*
X607013Y761483D01*
X607018Y761479D01*
X607023Y761473D01*
X607914Y760598D01*
X607931Y760583D01*
X607947Y760567D01*
X607960Y760557D01*
X607972Y760546D01*
X607990Y760533D01*
X608008Y760519D01*
X609024Y759792D01*
X609043Y759780D01*
X609061Y759767D01*
X609075Y759759D01*
X609089Y759750D01*
X609109Y759740D01*
X609128Y759729D01*
X610244Y759167D01*
X610265Y759158D01*
X610285Y759149D01*
X610300Y759143D01*
X610315Y759136D01*
X610336Y759129D01*
X610357Y759121D01*
X611547Y758739D01*
X611569Y758734D01*
X611590Y758727D01*
X611606Y758724D01*
X611622Y758719D01*
X611644Y758716D01*
X611666Y758711D01*
X612900Y758518D01*
X612922Y758516D01*
X612945Y758512D01*
X612961Y758511D01*
X612977Y758510D01*
X612999Y758509D01*
X613022Y758508D01*
X614271D01*
X614293Y758509D01*
X614316Y758510D01*
X614332Y758511D01*
X614348Y758512D01*
X614370Y758516D01*
X614393Y758518D01*
X615627Y758711D01*
X615649Y758716D01*
X615671Y758719D01*
X615687Y758724D01*
X615703Y758727D01*
X615724Y758734D01*
X615746Y758739D01*
X616935Y759121D01*
X616957Y759129D01*
X616978Y759136D01*
X616993Y759143D01*
X617008Y759149D01*
X617028Y759158D01*
X617049Y759167D01*
X618164Y759729D01*
X618184Y759740D01*
X618204Y759750D01*
X618218Y759759D01*
X618232Y759767D01*
X618250Y759780D01*
X618269Y759792D01*
X619285Y760519D01*
X619303Y760533D01*
X619321Y760546D01*
X619333Y760557D01*
X619345Y760567D01*
X619362Y760583D01*
X619378Y760598D01*
X620269Y761473D01*
X620274Y761479D01*
X620280Y761483D01*
X620300Y761507D01*
X620322Y761530D01*
X620326Y761536D01*
X620331Y761541D01*
X620486Y761734D01*
X626858Y761734D01*
Y754011D01*
X600435D01*
Y761734D01*
X606807D01*
X606962Y761541D01*
D02*
G37*
G36*
X614408Y769834D02*
X614883Y769637D01*
X615311Y769351D01*
X615675Y768987D01*
X615961Y768560D01*
X616158Y768084D01*
X616258Y767580D01*
Y767322D01*
Y767065D01*
X616158Y766561D01*
X615961Y766085D01*
X615675Y765658D01*
X615311Y765294D01*
X614883Y765008D01*
X614408Y764811D01*
X613904Y764711D01*
X613389D01*
X612885Y764811D01*
X612409Y765008D01*
X611981Y765294D01*
X611618Y765658D01*
X611332Y766085D01*
X611135Y766561D01*
X611035Y767065D01*
Y767322D01*
Y767580D01*
X611135Y768084D01*
X611332Y768560D01*
X611618Y768987D01*
X611981Y769351D01*
X612409Y769637D01*
X612885Y769834D01*
X613389Y769934D01*
X613904D01*
X614408Y769834D01*
D02*
G37*
G36*
X626858Y772911D02*
X620486D01*
X620331Y773104D01*
X620326Y773109D01*
X620322Y773115D01*
X620300Y773138D01*
X620280Y773162D01*
X620274Y773166D01*
X620269Y773172D01*
X619378Y774047D01*
X619362Y774062D01*
X619345Y774078D01*
X619333Y774088D01*
X619321Y774099D01*
X619303Y774112D01*
X619285Y774126D01*
X618269Y774853D01*
X618250Y774865D01*
X618232Y774878D01*
X618218Y774886D01*
X618204Y774895D01*
X618184Y774905D01*
X618164Y774916D01*
X617049Y775478D01*
X617028Y775487D01*
X617008Y775497D01*
X616993Y775502D01*
X616978Y775509D01*
X616957Y775516D01*
X616935Y775524D01*
X615746Y775906D01*
X615724Y775912D01*
X615703Y775918D01*
X615687Y775921D01*
X615671Y775926D01*
X615649Y775929D01*
X615627Y775934D01*
X614393Y776127D01*
X614370Y776129D01*
X614348Y776133D01*
X614332Y776134D01*
X614316Y776135D01*
X614293Y776135D01*
X614271Y776137D01*
X613022D01*
X612999Y776135D01*
X612977Y776135D01*
X612961Y776134D01*
X612945Y776133D01*
X612922Y776129D01*
X612900Y776127D01*
X611666Y775934D01*
X611644Y775929D01*
X611622Y775926D01*
X611606Y775921D01*
X611590Y775918D01*
X611569Y775912D01*
X611547Y775906D01*
X610357Y775524D01*
X610336Y775516D01*
X610315Y775509D01*
X610300Y775502D01*
X610285Y775497D01*
X610265Y775487D01*
X610244Y775478D01*
X609128Y774916D01*
X609109Y774905D01*
X609089Y774895D01*
X609075Y774886D01*
X609061Y774878D01*
X609043Y774865D01*
X609024Y774853D01*
X608008Y774126D01*
X607990Y774112D01*
X607972Y774099D01*
X607960Y774088D01*
X607947Y774078D01*
X607931Y774062D01*
X607914Y774047D01*
X607023Y773172D01*
X607018Y773166D01*
X607013Y773162D01*
X606992Y773138D01*
X606971Y773115D01*
X606966Y773109D01*
X606962Y773104D01*
X606807Y772911D01*
X600435D01*
Y780634D01*
X626858D01*
Y772911D01*
D02*
G37*
G54D17*
X684154Y729277D02*
D03*
X688484Y729277D02*
D03*
X692815Y729277D02*
D03*
X697146Y729277D02*
D03*
X701476D02*
D03*
X713287D02*
D03*
X717618D02*
D03*
X721949D02*
D03*
X726279D02*
D03*
X730610D02*
D03*
X734941D02*
D03*
X739271D02*
D03*
X684153Y771509D02*
D03*
X688484Y771509D02*
D03*
X692815Y771509D02*
D03*
X697146Y771509D02*
D03*
X701476D02*
D03*
X713287Y771509D02*
D03*
X717618Y771509D02*
D03*
X721949Y771509D02*
D03*
X726279D02*
D03*
X730610Y771509D02*
D03*
X734941Y771509D02*
D03*
X739271Y771509D02*
D03*
G54D18*
X684154Y725177D02*
D03*
X688484Y725177D02*
D03*
X692815Y725177D02*
D03*
X697146Y725177D02*
D03*
X701476D02*
D03*
X713287D02*
D03*
X717618D02*
D03*
X721949D02*
D03*
X726279D02*
D03*
X730610D02*
D03*
X734941D02*
D03*
X739271D02*
D03*
X684153Y775609D02*
D03*
X688484Y775609D02*
D03*
X692815Y775609D02*
D03*
X697146Y775609D02*
D03*
X701476D02*
D03*
X713287D02*
D03*
X717618D02*
D03*
X721949Y775609D02*
D03*
X726279D02*
D03*
X730610Y775609D02*
D03*
X734941Y775609D02*
D03*
X739271Y775609D02*
D03*
G54D19*
X642288Y736949D02*
D03*
Y744153D02*
D03*
X634688Y740551D02*
D03*
G54D20*
X634158Y758025D02*
D03*
Y752119D02*
D03*
G54D21*
X628252Y730315D02*
D03*
X632189D02*
D03*
X741244Y789370D02*
D03*
X745181D02*
D03*
X644394Y730315D02*
D03*
X640457D02*
D03*
X677858Y717717D02*
D03*
X681795D02*
D03*
G54D22*
X791831Y733561D02*
D03*
Y727656D02*
D03*
X764666Y733561D02*
D03*
Y727656D02*
D03*
G54D23*
X633322Y764173D02*
D03*
Y767323D02*
D03*
G54D24*
X840240Y721969D02*
D03*
Y729843D02*
D03*
Y737716D02*
D03*
Y745590D02*
D03*
X822327Y721969D02*
D03*
Y729843D02*
D03*
Y737716D02*
D03*
Y745590D02*
D03*
G54D25*
X613646Y755842D02*
D03*
X612646Y778323D02*
D03*
G54D26*
X613646Y767322D02*
D03*
G54D27*
X645181Y758025D02*
D03*
X641244D02*
D03*
G54D28*
X729433Y713779D02*
D03*
Y717717D02*
D03*
X735558Y713779D02*
D03*
Y717717D02*
D03*
X741634Y713779D02*
D03*
Y717717D02*
D03*
X688491Y787402D02*
D03*
Y783464D02*
D03*
G54D29*
X706205Y787008D02*
D03*
Y783071D02*
D03*
X771559Y734252D02*
D03*
Y730315D02*
D03*
X798724Y734252D02*
D03*
Y730315D02*
D03*
X821189Y764173D02*
D03*
Y768110D02*
D03*
X831248Y764173D02*
D03*
Y768110D02*
D03*
M02*
