G04*
G04 #@! TF.GenerationSoftware,Altium Limited,Altium Designer,21.6.4 (81)*
G04*
G04 Layer_Color=8388736*
%FSLAX25Y25*%
%MOIN*%
G70*
G04*
G04 #@! TF.SameCoordinates,EC57A691-81B7-4C8C-A3E3-72FCA770F10A*
G04*
G04*
G04 #@! TF.FilePolarity,Negative*
G04*
G01*
G75*
%ADD25R,0.19685X0.03937*%
%ADD26C,0.03937*%
%ADD29R,0.02362X0.01968*%
%ADD30R,0.03544X0.07474*%
%ADD31C,0.04331*%
%ADD32R,0.05394X0.02594*%
%ADD33R,0.03937X0.02756*%
%ADD34R,0.02362X0.02756*%
%ADD35R,0.03543X0.03543*%
%ADD36R,0.12008X0.04409*%
%ADD37R,0.02362X0.02362*%
%ADD38R,0.02362X0.02362*%
%ADD39R,0.02756X0.02362*%
%ADD40C,0.02559*%
G36*
X26929Y123030D02*
X26929Y106960D01*
Y106224D01*
X26842Y105379D01*
X26363Y103749D01*
X25595Y102234D01*
X24563Y100884D01*
X23302Y99746D01*
X21854Y98857D01*
X20268Y98247D01*
X18598Y97937D01*
X17748Y97937D01*
X1599D01*
X1598Y120772D01*
X1598Y121029D01*
X1698Y121533D01*
X1894Y122008D01*
X2180Y122435D01*
X2543Y122799D01*
X2970Y123085D01*
X3445Y123282D01*
X3949Y123382D01*
X4206Y123383D01*
X26576Y123383D01*
X26929Y123030D01*
D02*
G37*
G36*
X260984Y123289D02*
X261465Y123090D01*
X261899Y122800D01*
X262267Y122432D01*
X262557Y121999D01*
X262757Y121518D01*
X262859Y121007D01*
X262859Y120747D01*
X262857Y97932D01*
X241060Y97932D01*
X240348D01*
X238950Y98202D01*
X237628Y98733D01*
X236431Y99504D01*
X235402Y100489D01*
X234578Y101652D01*
X233990Y102949D01*
X233659Y104334D01*
X233627Y105046D01*
X233627Y109981D01*
X233627Y123390D01*
X260213Y123390D01*
X260473D01*
X260984Y123289D01*
D02*
G37*
G36*
X36835Y92246D02*
X36872Y92235D01*
X36906Y92217D01*
X36936Y92192D01*
X36960Y92162D01*
X36979Y92128D01*
X36990Y92091D01*
X36994Y92052D01*
Y82752D01*
X36990Y82714D01*
X36979Y82677D01*
X36960Y82643D01*
X36936Y82613D01*
X36906Y82588D01*
X36872Y82570D01*
X36835Y82558D01*
X36796Y82555D01*
X29258D01*
X29248Y82556D01*
X29237Y82556D01*
X29228Y82558D01*
X29220Y82558D01*
X29210Y82561D01*
X29199Y82564D01*
X29191Y82567D01*
X29183Y82570D01*
X29173Y82575D01*
X29164Y82579D01*
X29156Y82584D01*
X29149Y82588D01*
X29140Y82595D01*
X29131Y82601D01*
X29125Y82607D01*
X29118Y82613D01*
X29112Y82621D01*
X29104Y82628D01*
X28720Y83106D01*
X27848Y83963D01*
X26857Y84672D01*
X25769Y85220D01*
X24609Y85592D01*
X23405Y85780D01*
X22187D01*
X20983Y85592D01*
X19823Y85220D01*
X18735Y84672D01*
X17744Y83963D01*
X16872Y83106D01*
X16488Y82628D01*
X16480Y82621D01*
X16473Y82613D01*
X16467Y82607D01*
X16461Y82601D01*
X16452Y82595D01*
X16443Y82588D01*
X16436Y82584D01*
X16429Y82579D01*
X16419Y82575D01*
X16409Y82570D01*
X16401Y82567D01*
X16393Y82564D01*
X16382Y82561D01*
X16372Y82558D01*
X16364Y82558D01*
X16355Y82556D01*
X16344Y82556D01*
X16334Y82555D01*
X8796D01*
X8757Y82558D01*
X8720Y82570D01*
X8686Y82588D01*
X8656Y82613D01*
X8631Y82643D01*
X8613Y82677D01*
X8602Y82714D01*
X8598Y82752D01*
Y92052D01*
X8602Y92091D01*
X8613Y92128D01*
X8631Y92162D01*
X8656Y92192D01*
X8686Y92217D01*
X8720Y92235D01*
X8757Y92246D01*
X8796Y92250D01*
X36796D01*
X36835Y92246D01*
D02*
G37*
G36*
X23169Y81546D02*
X23826Y81416D01*
X23838Y81412D01*
X23863Y81405D01*
X24482Y81148D01*
X24482Y81148D01*
X24494Y81142D01*
X24516Y81130D01*
X24516Y81130D01*
X25073Y80758D01*
X25103Y80733D01*
X25103Y80733D01*
X25577Y80260D01*
X25601Y80230D01*
X25973Y79673D01*
X25973Y79673D01*
X25992Y79639D01*
X26248Y79020D01*
X26248Y79020D01*
X26259Y78983D01*
X26390Y78326D01*
X26394Y78287D01*
Y77952D01*
Y77618D01*
X26390Y77579D01*
X26259Y76922D01*
X26256Y76911D01*
X26248Y76885D01*
X25992Y76266D01*
X25992Y76266D01*
X25985Y76254D01*
X25973Y76232D01*
X25973Y76232D01*
X25601Y75675D01*
X25577Y75645D01*
X25577Y75645D01*
X25103Y75172D01*
X25073Y75147D01*
X24516Y74775D01*
X24516Y74775D01*
X24482Y74757D01*
X23864Y74500D01*
X23863Y74500D01*
X23826Y74489D01*
X23169Y74358D01*
X23131Y74355D01*
X22461D01*
X22422Y74358D01*
X21766Y74489D01*
X21754Y74493D01*
X21729Y74500D01*
X21110Y74757D01*
X21110Y74757D01*
X21098Y74763D01*
X21076Y74775D01*
X21076Y74775D01*
X20519Y75147D01*
X20489Y75172D01*
X20489Y75172D01*
X20015Y75645D01*
X19990Y75675D01*
X19618Y76232D01*
X19618Y76232D01*
X19600Y76266D01*
X19344Y76885D01*
X19344Y76885D01*
X19333Y76922D01*
X19202Y77579D01*
X19198Y77618D01*
Y77952D01*
Y78287D01*
X19202Y78326D01*
X19333Y78983D01*
X19336Y78994D01*
X19344Y79020D01*
X19600Y79639D01*
X19600Y79639D01*
X19607Y79650D01*
X19618Y79673D01*
X19618Y79673D01*
X19991Y80230D01*
X20015Y80260D01*
X20015Y80260D01*
X20489Y80733D01*
X20519Y80758D01*
X21076Y81130D01*
X21076Y81130D01*
X21110Y81148D01*
X21729Y81405D01*
X21729Y81405D01*
X21766Y81416D01*
X22422Y81546D01*
X22461Y81550D01*
X23131D01*
X23169Y81546D01*
D02*
G37*
G36*
X36835Y73346D02*
X36872Y73335D01*
X36906Y73317D01*
X36936Y73292D01*
X36960Y73262D01*
X36979Y73228D01*
X36990Y73191D01*
X36994Y73152D01*
Y63852D01*
X36990Y63814D01*
X36979Y63777D01*
X36960Y63743D01*
X36936Y63713D01*
X36906Y63688D01*
X36872Y63670D01*
X36835Y63658D01*
X36796Y63655D01*
X8796D01*
X8757Y63658D01*
X8720Y63670D01*
X8686Y63688D01*
X8656Y63713D01*
X8631Y63743D01*
X8613Y63777D01*
X8602Y63814D01*
X8598Y63852D01*
Y73152D01*
X8602Y73191D01*
X8613Y73228D01*
X8631Y73262D01*
X8656Y73292D01*
X8686Y73317D01*
X8720Y73335D01*
X8757Y73346D01*
X8796Y73350D01*
X16334D01*
X16344Y73349D01*
X16355Y73349D01*
X16363Y73347D01*
X16372Y73346D01*
X16383Y73343D01*
X16393Y73341D01*
X16401Y73338D01*
X16409Y73335D01*
X16419Y73330D01*
X16429Y73326D01*
X16436Y73321D01*
X16443Y73317D01*
X16452Y73310D01*
X16461Y73304D01*
X16466Y73298D01*
X16474Y73292D01*
X16480Y73284D01*
X16488Y73276D01*
X16872Y72799D01*
X17744Y71942D01*
X18735Y71233D01*
X19823Y70685D01*
X20983Y70313D01*
X22187Y70125D01*
X23405D01*
X24609Y70313D01*
X25769Y70685D01*
X26857Y71233D01*
X27848Y71942D01*
X28720Y72799D01*
X29104Y73276D01*
X29112Y73284D01*
X29118Y73292D01*
X29125Y73298D01*
X29131Y73304D01*
X29140Y73310D01*
X29149Y73317D01*
X29156Y73321D01*
X29164Y73326D01*
X29173Y73330D01*
X29183Y73335D01*
X29191Y73338D01*
X29199Y73341D01*
X29210Y73343D01*
X29220Y73346D01*
X29228Y73347D01*
X29237Y73349D01*
X29248Y73349D01*
X29258Y73350D01*
X36796Y73350D01*
X36835Y73346D01*
D02*
G37*
G36*
X22256Y27001D02*
X22652Y26941D01*
X23042Y26851D01*
X23423Y26732D01*
X23795Y26584D01*
X24155Y26409D01*
X24500Y26206D01*
X24829Y25979D01*
X25139Y25727D01*
X25430Y25452D01*
X25700Y25157D01*
X25946Y24841D01*
X26168Y24508D01*
X26363Y24160D01*
X26532Y23797D01*
X26673Y23423D01*
X26785Y23039D01*
X26868Y22647D01*
X26884Y22531D01*
X26933Y22051D01*
X26933Y22051D01*
X26933Y22051D01*
Y1958D01*
X26579Y1604D01*
X4114Y1606D01*
X4114Y1606D01*
X4114Y1606D01*
X3867D01*
X3382Y1702D01*
X2926Y1891D01*
X2515Y2166D01*
X2166Y2515D01*
X1891Y2926D01*
X1702Y3382D01*
X1606Y3867D01*
X1606Y4114D01*
X1606Y4114D01*
X1606Y4114D01*
X1604Y26678D01*
X1958Y27031D01*
X21657Y27031D01*
X21858Y27031D01*
X22256Y27001D01*
D02*
G37*
G36*
X262849Y26678D02*
X262847Y3996D01*
X262847Y3996D01*
X262847Y3996D01*
X262847Y3759D01*
X262755Y3295D01*
X262574Y2857D01*
X262311Y2463D01*
X261976Y2128D01*
X261582Y1864D01*
X261145Y1683D01*
X260680Y1590D01*
X260443Y1590D01*
X233626Y1592D01*
Y3954D01*
X233626Y20437D01*
X233661Y21099D01*
X233978Y22385D01*
X234533Y23588D01*
X235304Y24665D01*
X236265Y25576D01*
X237381Y26291D01*
X238612Y26781D01*
X239912Y27031D01*
X240575D01*
X240575Y27031D01*
X262496D01*
X262849Y26678D01*
D02*
G37*
%LPC*%
G36*
X11825Y121472D02*
X10623D01*
X10468Y121441D01*
X10310D01*
X9131Y121206D01*
X8985Y121146D01*
X8830Y121115D01*
X7719Y120655D01*
X7588Y120567D01*
X7442Y120507D01*
X6442Y119839D01*
X6330Y119727D01*
X6199Y119639D01*
X5349Y118789D01*
X5261Y118658D01*
X5149Y118546D01*
X4482Y117546D01*
X4421Y117400D01*
X4333Y117269D01*
X3873Y116158D01*
X3842Y116003D01*
X3782Y115857D01*
X3547Y114678D01*
Y114520D01*
X3516Y114365D01*
Y113163D01*
X3547Y113008D01*
Y112849D01*
X3782Y111670D01*
X3842Y111524D01*
X3873Y111369D01*
X4333Y110259D01*
X4421Y110127D01*
X4482Y109981D01*
X5149Y108982D01*
X5261Y108870D01*
X5349Y108738D01*
X6199Y107888D01*
X6330Y107800D01*
X6442Y107689D01*
X7442Y107021D01*
X7588Y106960D01*
X7719Y106872D01*
X8830Y106412D01*
X8985Y106382D01*
X9131Y106321D01*
X10310Y106087D01*
X10468D01*
X10623Y106056D01*
X11825D01*
X11981Y106087D01*
X12139D01*
X13318Y106321D01*
X13464Y106382D01*
X13619Y106412D01*
X14729Y106872D01*
X14861Y106960D01*
X15007Y107021D01*
X16006Y107689D01*
X16118Y107800D01*
X16250Y107888D01*
X17100Y108738D01*
X17188Y108870D01*
X17300Y108982D01*
X17967Y109981D01*
X18028Y110127D01*
X18116Y110259D01*
X18576Y111369D01*
X18607Y111524D01*
X18667Y111670D01*
X18902Y112849D01*
Y113008D01*
X18932Y113163D01*
Y114365D01*
X18902Y114520D01*
Y114678D01*
X18667Y115857D01*
X18607Y116003D01*
X18576Y116158D01*
X18116Y117269D01*
X18028Y117400D01*
X17967Y117546D01*
X17300Y118546D01*
X17188Y118658D01*
X17100Y118789D01*
X16250Y119639D01*
X16118Y119727D01*
X16006Y119839D01*
X15007Y120507D01*
X14861Y120567D01*
X14729Y120655D01*
X13619Y121115D01*
X13464Y121146D01*
X13318Y121206D01*
X12139Y121441D01*
X11981D01*
X11825Y121472D01*
D02*
G37*
G36*
X250014D02*
X248812D01*
X248657Y121441D01*
X248499D01*
X247320Y121206D01*
X247174Y121146D01*
X247019Y121115D01*
X245908Y120655D01*
X245777Y120567D01*
X245631Y120507D01*
X244631Y119839D01*
X244519Y119727D01*
X244388Y119639D01*
X243538Y118789D01*
X243450Y118658D01*
X243338Y118546D01*
X242670Y117546D01*
X242610Y117400D01*
X242522Y117269D01*
X242062Y116158D01*
X242031Y116003D01*
X241971Y115857D01*
X241736Y114678D01*
Y114520D01*
X241705Y114365D01*
Y113764D01*
Y113163D01*
X241736Y113008D01*
Y112849D01*
X241971Y111670D01*
X242031Y111524D01*
X242062Y111369D01*
X242522Y110259D01*
X242610Y110127D01*
X242670Y109981D01*
X243338Y108982D01*
X243450Y108870D01*
X243538Y108738D01*
X244388Y107888D01*
X244519Y107800D01*
X244631Y107689D01*
X245631Y107021D01*
X245777Y106960D01*
X245908Y106872D01*
X247019Y106412D01*
X247174Y106382D01*
X247320Y106321D01*
X248499Y106087D01*
X248657D01*
X248812Y106056D01*
X250014D01*
X250169Y106087D01*
X250328D01*
X251507Y106321D01*
X251653Y106382D01*
X251808Y106412D01*
X252918Y106872D01*
X253050Y106960D01*
X253196Y107021D01*
X254195Y107689D01*
X254307Y107800D01*
X254439Y107888D01*
X255289Y108738D01*
X255377Y108870D01*
X255488Y108982D01*
X256156Y109981D01*
X256217Y110127D01*
X256305Y110259D01*
X256765Y111369D01*
X256796Y111524D01*
X256856Y111670D01*
X257090Y112849D01*
Y113008D01*
X257121Y113163D01*
Y113764D01*
Y114365D01*
X257090Y114520D01*
Y114678D01*
X256856Y115857D01*
X256796Y116003D01*
X256765Y116158D01*
X256305Y117269D01*
X256217Y117400D01*
X256156Y117546D01*
X255488Y118546D01*
X255377Y118658D01*
X255289Y118789D01*
X254439Y119639D01*
X254307Y119727D01*
X254195Y119839D01*
X253196Y120507D01*
X253050Y120567D01*
X252918Y120655D01*
X251808Y121115D01*
X251653Y121146D01*
X251507Y121206D01*
X250328Y121441D01*
X250169D01*
X250014Y121472D01*
D02*
G37*
G36*
X11825Y19082D02*
X10623D01*
X10572Y19079D01*
X10520D01*
X10469Y19072D01*
X10417Y19069D01*
X10367Y19059D01*
X10316Y19052D01*
X9137Y18817D01*
X9087Y18804D01*
X9036Y18794D01*
X8987Y18777D01*
X8937Y18764D01*
X8889Y18744D01*
X8840Y18728D01*
X7730Y18268D01*
X7684Y18245D01*
X7636Y18225D01*
X7591Y18199D01*
X7545Y18176D01*
X7502Y18147D01*
X7457Y18122D01*
X6458Y17454D01*
X6417Y17422D01*
X6374Y17394D01*
X6335Y17360D01*
X6294Y17328D01*
X6257Y17292D01*
X6218Y17257D01*
X5368Y16408D01*
X5334Y16369D01*
X5298Y16332D01*
X5266Y16291D01*
X5232Y16252D01*
X5204Y16209D01*
X5172Y16168D01*
X4504Y15169D01*
X4479Y15124D01*
X4450Y15081D01*
X4427Y15035D01*
X4401Y14990D01*
X4381Y14942D01*
X4358Y14896D01*
X3898Y13785D01*
X3882Y13737D01*
X3862Y13689D01*
X3849Y13639D01*
X3832Y13590D01*
X3822Y13539D01*
X3809Y13489D01*
X3574Y12310D01*
X3567Y12259D01*
X3557Y12209D01*
X3554Y12157D01*
X3547Y12106D01*
Y12054D01*
X3544Y12003D01*
Y10801D01*
X3547Y10749D01*
Y10697D01*
X3554Y10646D01*
X3557Y10594D01*
X3567Y10544D01*
X3574Y10493D01*
X3809Y9314D01*
X3822Y9264D01*
X3832Y9213D01*
X3849Y9164D01*
X3862Y9114D01*
X3882Y9066D01*
X3898Y9018D01*
X4358Y7907D01*
X4381Y7861D01*
X4401Y7813D01*
X4427Y7768D01*
X4450Y7722D01*
X4479Y7679D01*
X4504Y7634D01*
X5172Y6635D01*
X5204Y6594D01*
X5232Y6551D01*
X5266Y6512D01*
X5298Y6471D01*
X5334Y6434D01*
X5368Y6396D01*
X6218Y5546D01*
X6257Y5512D01*
X6294Y5475D01*
X6335Y5443D01*
X6374Y5410D01*
X6417Y5381D01*
X6458Y5349D01*
X7457Y4682D01*
X7502Y4656D01*
X7545Y4627D01*
X7591Y4604D01*
X7636Y4578D01*
X7683Y4559D01*
X7730Y4536D01*
X8840Y4076D01*
X8889Y4059D01*
X8937Y4039D01*
X8987Y4026D01*
X9036Y4009D01*
X9087Y3999D01*
X9137Y3986D01*
X10316Y3751D01*
X10367Y3745D01*
X10417Y3734D01*
X10469Y3731D01*
X10520Y3724D01*
X10572D01*
X10623Y3721D01*
X11825D01*
X11877Y3724D01*
X11929D01*
X11980Y3731D01*
X12031Y3734D01*
X12082Y3745D01*
X12133Y3751D01*
X13312Y3986D01*
X13362Y3999D01*
X13413Y4009D01*
X13462Y4026D01*
X13512Y4039D01*
X13559Y4059D01*
X13608Y4076D01*
X14719Y4536D01*
X14765Y4558D01*
X14813Y4578D01*
X14858Y4604D01*
X14904Y4627D01*
X14947Y4656D01*
X14992Y4682D01*
X15991Y5349D01*
X16032Y5381D01*
X16075Y5410D01*
X16114Y5443D01*
X16155Y5475D01*
X16192Y5512D01*
X16230Y5546D01*
X17080Y6396D01*
X17114Y6434D01*
X17151Y6471D01*
X17182Y6512D01*
X17217Y6551D01*
X17245Y6594D01*
X17277Y6635D01*
X17944Y7634D01*
X17970Y7679D01*
X17999Y7722D01*
X18022Y7768D01*
X18048Y7813D01*
X18067Y7861D01*
X18090Y7907D01*
X18550Y9018D01*
X18567Y9067D01*
X18587Y9114D01*
X18600Y9164D01*
X18617Y9213D01*
X18627Y9264D01*
X18640Y9314D01*
X18875Y10493D01*
X18881Y10544D01*
X18891Y10594D01*
X18895Y10646D01*
X18902Y10697D01*
Y10749D01*
X18905Y10801D01*
Y12003D01*
X18902Y12054D01*
Y12106D01*
X18895Y12157D01*
X18891Y12209D01*
X18881Y12259D01*
X18875Y12310D01*
X18640Y13489D01*
X18627Y13539D01*
X18617Y13590D01*
X18600Y13639D01*
X18587Y13689D01*
X18567Y13737D01*
X18550Y13785D01*
X18090Y14896D01*
X18067Y14942D01*
X18048Y14990D01*
X18022Y15035D01*
X17999Y15081D01*
X17970Y15124D01*
X17944Y15169D01*
X17277Y16168D01*
X17245Y16209D01*
X17217Y16252D01*
X17182Y16291D01*
X17151Y16332D01*
X17114Y16369D01*
X17080Y16408D01*
X16230Y17257D01*
X16192Y17292D01*
X16155Y17328D01*
X16114Y17360D01*
X16075Y17394D01*
X16032Y17422D01*
X15991Y17454D01*
X14992Y18122D01*
X14947Y18147D01*
X14904Y18176D01*
X14858Y18199D01*
X14813Y18225D01*
X14765Y18245D01*
X14719Y18268D01*
X13608Y18728D01*
X13559Y18744D01*
X13512Y18764D01*
X13462Y18777D01*
X13413Y18794D01*
X13362Y18804D01*
X13312Y18817D01*
X12133Y19052D01*
X12082Y19059D01*
X12031Y19069D01*
X11980Y19072D01*
X11929Y19079D01*
X11877D01*
X11825Y19082D01*
D02*
G37*
G36*
X250014Y19110D02*
X248812D01*
X248657Y19079D01*
X248499D01*
X247320Y18844D01*
X247174Y18784D01*
X247019Y18753D01*
X245908Y18293D01*
X245777Y18205D01*
X245631Y18145D01*
X244631Y17477D01*
X244519Y17365D01*
X244388Y17277D01*
X243538Y16427D01*
X243450Y16296D01*
X243338Y16184D01*
X242670Y15184D01*
X242610Y15038D01*
X242522Y14907D01*
X242062Y13796D01*
X242031Y13641D01*
X241971Y13495D01*
X241736Y12316D01*
Y12158D01*
X241705Y12003D01*
Y10801D01*
X241736Y10645D01*
Y10487D01*
X241971Y9308D01*
X242031Y9162D01*
X242062Y9007D01*
X242522Y7897D01*
X242610Y7765D01*
X242670Y7619D01*
X243338Y6620D01*
X243450Y6508D01*
X243538Y6376D01*
X244388Y5526D01*
X244519Y5438D01*
X244631Y5327D01*
X245631Y4659D01*
X245777Y4598D01*
X245908Y4510D01*
X247019Y4050D01*
X247174Y4019D01*
X247320Y3959D01*
X248499Y3724D01*
X248657D01*
X248812Y3694D01*
X250014D01*
X250169Y3724D01*
X250328D01*
X251507Y3959D01*
X251653Y4019D01*
X251808Y4050D01*
X252918Y4510D01*
X253050Y4598D01*
X253196Y4659D01*
X254195Y5327D01*
X254307Y5438D01*
X254439Y5526D01*
X255289Y6376D01*
X255377Y6508D01*
X255488Y6620D01*
X256156Y7619D01*
X256217Y7765D01*
X256305Y7897D01*
X256765Y9007D01*
X256796Y9162D01*
X256856Y9308D01*
X257090Y10487D01*
Y10645D01*
X257121Y10801D01*
Y12003D01*
X257090Y12158D01*
Y12316D01*
X256856Y13495D01*
X256796Y13641D01*
X256765Y13796D01*
X256305Y14907D01*
X256217Y15038D01*
X256156Y15184D01*
X255488Y16184D01*
X255377Y16296D01*
X255289Y16427D01*
X254439Y17277D01*
X254307Y17365D01*
X254195Y17477D01*
X253196Y18145D01*
X253050Y18205D01*
X252918Y18293D01*
X251808Y18753D01*
X251653Y18784D01*
X251507Y18844D01*
X250328Y19079D01*
X250169D01*
X250014Y19110D01*
D02*
G37*
%LPD*%
G54D25*
X22795Y66472D02*
D03*
X21795Y88953D02*
D03*
G54D26*
X22796Y77952D02*
D03*
G54D29*
X42471Y74803D02*
D03*
Y77953D02*
D03*
G54D30*
X122441Y85039D02*
D03*
X139761D02*
D03*
X144091D02*
D03*
X148421D02*
D03*
X126771D02*
D03*
X131101D02*
D03*
X135431D02*
D03*
X110631D02*
D03*
X97641D02*
D03*
X101971D02*
D03*
X106301D02*
D03*
X93311D02*
D03*
X106301Y37009D02*
D03*
X97641D02*
D03*
X93311D02*
D03*
X110631D02*
D03*
X101971D02*
D03*
X135431D02*
D03*
X131101D02*
D03*
X126771D02*
D03*
X148421D02*
D03*
X144091D02*
D03*
X139761D02*
D03*
X122441D02*
D03*
G54D31*
X240398Y85039D02*
D03*
X144095Y93701D02*
D03*
X131102Y99606D02*
D03*
X126771Y93365D02*
D03*
X122441Y99606D02*
D03*
X135431Y93365D02*
D03*
X97638Y28346D02*
D03*
X150394Y93701D02*
D03*
X120079Y28346D02*
D03*
X126772D02*
D03*
X230338Y85039D02*
D03*
G54D32*
X51438Y47579D02*
D03*
Y54783D02*
D03*
X43838Y51181D02*
D03*
G54D33*
X43307Y68655D02*
D03*
Y62749D02*
D03*
G54D34*
X37402Y40945D02*
D03*
X41339D02*
D03*
X150394Y100000D02*
D03*
X154331D02*
D03*
X53543Y40945D02*
D03*
X49606D02*
D03*
X87008Y28346D02*
D03*
X90945D02*
D03*
G54D35*
X200981Y44191D02*
D03*
Y38286D02*
D03*
X173816Y44191D02*
D03*
Y38286D02*
D03*
G54D36*
X249390Y32598D02*
D03*
Y40472D02*
D03*
Y48346D02*
D03*
Y56221D02*
D03*
X231476Y32598D02*
D03*
Y40472D02*
D03*
Y48346D02*
D03*
Y56221D02*
D03*
G54D37*
X54331Y68655D02*
D03*
X50394D02*
D03*
G54D38*
X138583Y24409D02*
D03*
Y28346D02*
D03*
X144708Y24409D02*
D03*
Y28346D02*
D03*
X150783Y24409D02*
D03*
Y28346D02*
D03*
X97641Y98032D02*
D03*
Y94095D02*
D03*
G54D39*
X115354Y97638D02*
D03*
Y93701D02*
D03*
X180709Y44882D02*
D03*
Y40945D02*
D03*
X207874Y44882D02*
D03*
Y40945D02*
D03*
X230338Y74803D02*
D03*
Y78740D02*
D03*
X240398Y74803D02*
D03*
Y78740D02*
D03*
G54D40*
X205906Y81905D02*
D03*
X205892Y95276D02*
D03*
X211024Y91610D02*
D03*
Y81890D02*
D03*
X220866Y40551D02*
D03*
Y48425D02*
D03*
X220472Y56299D02*
D03*
M02*
