G04*
G04 #@! TF.GenerationSoftware,Altium Limited,Altium Designer,21.6.4 (81)*
G04*
G04 Layer_Color=65535*
%FSLAX25Y25*%
%MOIN*%
G70*
G04*
G04 #@! TF.SameCoordinates,EC57A691-81B7-4C8C-A3E3-72FCA770F10A*
G04*
G04*
G04 #@! TF.FilePolarity,Positive*
G04*
G01*
G75*
%ADD10C,0.00700*%
%ADD11C,0.00600*%
%ADD12C,0.00300*%
%ADD13C,0.00701*%
%ADD14R,0.01772X0.13683*%
%ADD15R,0.00397X0.00272*%
%ADD16R,0.04600X0.05500*%
G36*
X185075Y6254D02*
X183639D01*
Y6718D01*
X185075D01*
Y6254D01*
D02*
G37*
G36*
X195952Y5118D02*
X195433D01*
X193456Y8083D01*
Y5118D01*
X192976D01*
Y8896D01*
X193489D01*
X195471Y5926D01*
Y8896D01*
X195952D01*
Y5118D01*
D02*
G37*
G36*
X175417D02*
X174898D01*
X172921Y8083D01*
Y5118D01*
X172441D01*
Y8896D01*
X172954D01*
X174936Y5926D01*
Y8896D01*
X175417D01*
Y5118D01*
D02*
G37*
G36*
X201849Y5118D02*
X201368D01*
Y8280D01*
X200265Y5118D01*
X199817D01*
X198725Y8334D01*
Y5118D01*
X198245D01*
Y8896D01*
X198993D01*
X199888Y6216D01*
Y6210D01*
X199894Y6199D01*
X199899Y6183D01*
X199910Y6155D01*
X199932Y6090D01*
X199959Y6008D01*
X199987Y5915D01*
X200019Y5822D01*
X200047Y5735D01*
X200068Y5659D01*
X200074Y5670D01*
X200079Y5697D01*
X200096Y5746D01*
X200118Y5812D01*
X200145Y5899D01*
X200183Y6003D01*
X200221Y6123D01*
X200271Y6265D01*
X201177Y8896D01*
X201849D01*
Y5118D01*
D02*
G37*
G36*
X189230Y5118D02*
X188750D01*
Y8279D01*
X187647Y5118D01*
X187199D01*
X186107Y8334D01*
Y5118D01*
X185627D01*
Y8896D01*
X186375D01*
X187270Y6216D01*
Y6210D01*
X187276Y6199D01*
X187281Y6183D01*
X187292Y6155D01*
X187314Y6090D01*
X187341Y6008D01*
X187369Y5915D01*
X187401Y5822D01*
X187429Y5735D01*
X187451Y5659D01*
X187456Y5670D01*
X187461Y5697D01*
X187478Y5746D01*
X187500Y5812D01*
X187527Y5899D01*
X187565Y6003D01*
X187603Y6123D01*
X187653Y6265D01*
X188559Y8896D01*
X189230D01*
Y5118D01*
D02*
G37*
G36*
X223912Y5118D02*
X223388D01*
X221925Y8896D01*
X222471D01*
X223454Y6150D01*
Y6145D01*
X223459Y6134D01*
X223465Y6117D01*
X223476Y6095D01*
X223481Y6063D01*
X223492Y6030D01*
X223519Y5948D01*
X223552Y5855D01*
X223585Y5751D01*
X223650Y5533D01*
Y5539D01*
X223656Y5550D01*
X223661Y5566D01*
X223667Y5588D01*
X223683Y5648D01*
X223710Y5730D01*
X223738Y5822D01*
X223770Y5926D01*
X223809Y6035D01*
X223852Y6150D01*
X224879Y8896D01*
X225387D01*
X223912Y5118D01*
D02*
G37*
G36*
X213555Y6712D02*
Y6707D01*
Y6685D01*
Y6658D01*
Y6620D01*
X213549Y6571D01*
Y6516D01*
X213544Y6450D01*
X213538Y6385D01*
X213522Y6237D01*
X213500Y6084D01*
X213467Y5937D01*
X213445Y5866D01*
X213424Y5801D01*
Y5795D01*
X213418Y5784D01*
X213407Y5768D01*
X213396Y5746D01*
X213364Y5686D01*
X213315Y5610D01*
X213249Y5522D01*
X213173Y5435D01*
X213074Y5342D01*
X212954Y5260D01*
X212949D01*
X212938Y5249D01*
X212921Y5244D01*
X212894Y5227D01*
X212861Y5211D01*
X212818Y5195D01*
X212774Y5178D01*
X212719Y5156D01*
X212659Y5134D01*
X212594Y5118D01*
X212523Y5102D01*
X212441Y5085D01*
X212359Y5074D01*
X212272Y5063D01*
X212075Y5053D01*
X212026D01*
X211988Y5058D01*
X211944D01*
X211889Y5063D01*
X211829Y5069D01*
X211769Y5074D01*
X211633Y5096D01*
X211485Y5129D01*
X211343Y5173D01*
X211207Y5233D01*
X211202D01*
X211191Y5244D01*
X211174Y5255D01*
X211152Y5266D01*
X211092Y5309D01*
X211021Y5369D01*
X210939Y5446D01*
X210863Y5533D01*
X210787Y5642D01*
X210726Y5762D01*
Y5768D01*
X210721Y5779D01*
X210716Y5801D01*
X210705Y5828D01*
X210694Y5861D01*
X210683Y5904D01*
X210666Y5954D01*
X210655Y6014D01*
X210645Y6079D01*
X210628Y6150D01*
X210617Y6227D01*
X210606Y6308D01*
X210595Y6401D01*
X210590Y6499D01*
X210584Y6603D01*
Y6712D01*
Y8896D01*
X211087D01*
Y6712D01*
Y6707D01*
Y6691D01*
Y6663D01*
Y6630D01*
X211092Y6592D01*
Y6543D01*
X211098Y6439D01*
X211109Y6319D01*
X211125Y6199D01*
X211147Y6084D01*
X211158Y6035D01*
X211174Y5986D01*
X211180Y5975D01*
X211191Y5948D01*
X211218Y5910D01*
X211251Y5855D01*
X211289Y5801D01*
X211343Y5741D01*
X211409Y5680D01*
X211485Y5631D01*
X211496Y5626D01*
X211524Y5610D01*
X211573Y5593D01*
X211638Y5571D01*
X211715Y5544D01*
X211813Y5528D01*
X211917Y5511D01*
X212031Y5506D01*
X212086D01*
X212119Y5511D01*
X212168D01*
X212217Y5517D01*
X212337Y5539D01*
X212468Y5566D01*
X212594Y5610D01*
X212714Y5670D01*
X212769Y5708D01*
X212818Y5751D01*
X212823Y5757D01*
X212829Y5762D01*
X212840Y5779D01*
X212856Y5801D01*
X212872Y5833D01*
X212894Y5866D01*
X212916Y5915D01*
X212938Y5964D01*
X212960Y6024D01*
X212976Y6095D01*
X212998Y6177D01*
X213014Y6265D01*
X213031Y6363D01*
X213041Y6467D01*
X213052Y6587D01*
Y6712D01*
Y8896D01*
X213555D01*
Y6712D01*
D02*
G37*
G36*
X191103Y8907D02*
X191130D01*
X191169Y8902D01*
X191262Y8885D01*
X191365Y8864D01*
X191480Y8825D01*
X191595Y8776D01*
X191709Y8711D01*
X191715D01*
X191720Y8700D01*
X191737Y8689D01*
X191758Y8673D01*
X191813Y8629D01*
X191884Y8569D01*
X191955Y8487D01*
X192037Y8389D01*
X192108Y8274D01*
X192173Y8143D01*
Y8138D01*
X192179Y8127D01*
X192190Y8105D01*
X192201Y8077D01*
X192212Y8039D01*
X192228Y7990D01*
X192239Y7936D01*
X192255Y7875D01*
X192272Y7804D01*
X192288Y7722D01*
X192299Y7635D01*
X192310Y7542D01*
X192321Y7439D01*
X192332Y7329D01*
X192337Y7209D01*
Y7084D01*
Y7078D01*
Y7051D01*
Y7013D01*
Y6964D01*
X192332Y6904D01*
Y6833D01*
X192326Y6751D01*
X192315Y6669D01*
X192299Y6483D01*
X192272Y6286D01*
X192233Y6101D01*
X192206Y6008D01*
X192179Y5926D01*
Y5921D01*
X192173Y5910D01*
X192163Y5888D01*
X192151Y5855D01*
X192135Y5822D01*
X192113Y5779D01*
X192059Y5686D01*
X191993Y5582D01*
X191917Y5473D01*
X191818Y5369D01*
X191709Y5276D01*
X191704D01*
X191693Y5266D01*
X191676Y5255D01*
X191655Y5244D01*
X191622Y5227D01*
X191589Y5206D01*
X191545Y5184D01*
X191502Y5167D01*
X191398Y5124D01*
X191272Y5085D01*
X191136Y5063D01*
X190983Y5053D01*
X190939D01*
X190912Y5058D01*
X190874D01*
X190830Y5063D01*
X190726Y5085D01*
X190612Y5113D01*
X190492Y5156D01*
X190372Y5216D01*
X190312Y5255D01*
X190257Y5298D01*
X190252Y5304D01*
X190246Y5309D01*
X190230Y5326D01*
X190213Y5342D01*
X190191Y5369D01*
X190164Y5402D01*
X190110Y5478D01*
X190055Y5577D01*
X190000Y5697D01*
X189957Y5833D01*
X189924Y5992D01*
X190372Y6030D01*
Y6024D01*
X190377Y6014D01*
Y6003D01*
X190383Y5981D01*
X190399Y5921D01*
X190421Y5855D01*
X190448Y5779D01*
X190486Y5702D01*
X190530Y5631D01*
X190585Y5571D01*
X190590Y5566D01*
X190612Y5550D01*
X190650Y5528D01*
X190694Y5506D01*
X190754Y5478D01*
X190825Y5457D01*
X190907Y5440D01*
X190994Y5435D01*
X191032D01*
X191070Y5440D01*
X191120Y5446D01*
X191180Y5457D01*
X191240Y5473D01*
X191305Y5495D01*
X191365Y5528D01*
X191371Y5533D01*
X191393Y5544D01*
X191425Y5566D01*
X191458Y5599D01*
X191502Y5637D01*
X191545Y5680D01*
X191589Y5730D01*
X191633Y5790D01*
X191638Y5795D01*
X191649Y5822D01*
X191671Y5861D01*
X191693Y5910D01*
X191720Y5975D01*
X191747Y6052D01*
X191775Y6139D01*
X191802Y6237D01*
Y6243D01*
X191808Y6248D01*
Y6265D01*
X191813Y6286D01*
X191824Y6341D01*
X191840Y6412D01*
X191851Y6499D01*
X191862Y6592D01*
X191868Y6696D01*
X191873Y6805D01*
Y6811D01*
Y6827D01*
Y6854D01*
Y6898D01*
X191868Y6887D01*
X191846Y6860D01*
X191813Y6822D01*
X191775Y6767D01*
X191720Y6712D01*
X191655Y6652D01*
X191578Y6592D01*
X191491Y6538D01*
X191480Y6532D01*
X191447Y6516D01*
X191398Y6494D01*
X191338Y6472D01*
X191256Y6445D01*
X191169Y6423D01*
X191070Y6407D01*
X190967Y6401D01*
X190923D01*
X190890Y6407D01*
X190847Y6412D01*
X190803Y6418D01*
X190748Y6429D01*
X190694Y6445D01*
X190568Y6483D01*
X190503Y6510D01*
X190437Y6543D01*
X190366Y6581D01*
X190301Y6630D01*
X190235Y6680D01*
X190175Y6740D01*
X190170Y6745D01*
X190159Y6756D01*
X190148Y6773D01*
X190126Y6800D01*
X190099Y6838D01*
X190071Y6876D01*
X190044Y6925D01*
X190017Y6980D01*
X189984Y7040D01*
X189957Y7106D01*
X189929Y7182D01*
X189902Y7258D01*
X189880Y7346D01*
X189869Y7439D01*
X189858Y7531D01*
X189853Y7635D01*
Y7641D01*
Y7662D01*
Y7690D01*
X189858Y7728D01*
X189864Y7777D01*
X189869Y7837D01*
X189880Y7897D01*
X189897Y7968D01*
X189935Y8110D01*
X189962Y8187D01*
X189995Y8269D01*
X190033Y8345D01*
X190082Y8416D01*
X190131Y8492D01*
X190191Y8558D01*
X190197Y8563D01*
X190208Y8574D01*
X190224Y8591D01*
X190252Y8613D01*
X190284Y8640D01*
X190328Y8673D01*
X190372Y8700D01*
X190426Y8738D01*
X190481Y8771D01*
X190546Y8798D01*
X190694Y8858D01*
X190770Y8880D01*
X190858Y8896D01*
X190945Y8907D01*
X191038Y8913D01*
X191076D01*
X191103Y8907D01*
D02*
G37*
G36*
X227396Y5118D02*
X226932D01*
Y8072D01*
X226926Y8066D01*
X226899Y8045D01*
X226866Y8012D01*
X226812Y7974D01*
X226752Y7925D01*
X226675Y7870D01*
X226588Y7810D01*
X226489Y7750D01*
X226484D01*
X226479Y7744D01*
X226446Y7722D01*
X226391Y7695D01*
X226326Y7662D01*
X226249Y7624D01*
X226167Y7586D01*
X226085Y7548D01*
X226004Y7515D01*
Y7963D01*
X226009D01*
X226020Y7974D01*
X226042Y7979D01*
X226069Y7995D01*
X226102Y8012D01*
X226140Y8034D01*
X226233Y8088D01*
X226342Y8148D01*
X226451Y8225D01*
X226566Y8312D01*
X226681Y8405D01*
X226686Y8410D01*
X226692Y8416D01*
X226708Y8432D01*
X226730Y8449D01*
X226779Y8503D01*
X226844Y8569D01*
X226910Y8645D01*
X226981Y8733D01*
X227041Y8820D01*
X227096Y8913D01*
X227396D01*
Y5118D01*
D02*
G37*
G36*
X220069Y8449D02*
X217835D01*
Y7297D01*
X219927D01*
Y6849D01*
X217835D01*
Y5566D01*
X220156D01*
Y5118D01*
X217333D01*
Y8896D01*
X220069D01*
Y8449D01*
D02*
G37*
G36*
X214871Y5566D02*
X216733D01*
Y5118D01*
X214368D01*
Y8896D01*
X214871D01*
Y5566D01*
D02*
G37*
G36*
X208319Y8891D02*
X208428Y8885D01*
X208537Y8875D01*
X208646Y8858D01*
X208739Y8842D01*
X208745D01*
X208755Y8836D01*
X208772D01*
X208794Y8826D01*
X208854Y8809D01*
X208930Y8782D01*
X209017Y8744D01*
X209110Y8694D01*
X209203Y8640D01*
X209291Y8569D01*
X209296Y8563D01*
X209301Y8558D01*
X209318Y8541D01*
X209340Y8525D01*
X209394Y8471D01*
X209460Y8394D01*
X209531Y8301D01*
X209607Y8192D01*
X209678Y8066D01*
X209738Y7925D01*
Y7919D01*
X209744Y7908D01*
X209755Y7886D01*
X209760Y7854D01*
X209776Y7815D01*
X209787Y7772D01*
X209798Y7722D01*
X209815Y7662D01*
X209831Y7602D01*
X209842Y7531D01*
X209869Y7379D01*
X209886Y7209D01*
X209891Y7024D01*
Y7018D01*
Y7007D01*
Y6980D01*
Y6953D01*
X209886Y6915D01*
Y6871D01*
X209880Y6767D01*
X209864Y6647D01*
X209847Y6521D01*
X209820Y6390D01*
X209787Y6259D01*
Y6254D01*
X209782Y6243D01*
X209776Y6227D01*
X209771Y6205D01*
X209749Y6145D01*
X209716Y6068D01*
X209684Y5981D01*
X209640Y5893D01*
X209585Y5801D01*
X209531Y5713D01*
X209525Y5702D01*
X209503Y5675D01*
X209471Y5637D01*
X209427Y5588D01*
X209378Y5533D01*
X209318Y5478D01*
X209258Y5418D01*
X209187Y5369D01*
X209176Y5364D01*
X209154Y5347D01*
X209116Y5326D01*
X209061Y5298D01*
X208996Y5266D01*
X208919Y5238D01*
X208832Y5206D01*
X208734Y5178D01*
X208723D01*
X208706Y5173D01*
X208690Y5167D01*
X208635Y5162D01*
X208559Y5151D01*
X208471Y5140D01*
X208368Y5129D01*
X208253Y5124D01*
X208127Y5118D01*
X206768D01*
Y8896D01*
X208220D01*
X208319Y8891D01*
D02*
G37*
G36*
X178998Y8449D02*
X176765D01*
Y7297D01*
X178856D01*
Y6849D01*
X176765D01*
Y5566D01*
X179086D01*
Y5118D01*
X176263D01*
Y8896D01*
X178998D01*
Y8449D01*
D02*
G37*
G36*
X204404Y8957D02*
X204453D01*
X204502Y8951D01*
X204568Y8940D01*
X204633Y8929D01*
X204775Y8902D01*
X204939Y8858D01*
X205097Y8793D01*
X205179Y8755D01*
X205261Y8711D01*
X205266Y8705D01*
X205277Y8700D01*
X205299Y8683D01*
X205332Y8667D01*
X205365Y8640D01*
X205408Y8607D01*
X205501Y8531D01*
X205599Y8432D01*
X205709Y8312D01*
X205813Y8170D01*
X205900Y8012D01*
Y8006D01*
X205911Y7990D01*
X205922Y7968D01*
X205933Y7936D01*
X205954Y7892D01*
X205971Y7843D01*
X205993Y7783D01*
X206014Y7717D01*
X206031Y7646D01*
X206053Y7570D01*
X206075Y7482D01*
X206091Y7395D01*
X206113Y7204D01*
X206124Y6996D01*
Y6991D01*
Y6969D01*
Y6942D01*
X206118Y6898D01*
Y6849D01*
X206113Y6789D01*
X206102Y6723D01*
X206096Y6652D01*
X206069Y6494D01*
X206025Y6319D01*
X205965Y6145D01*
X205933Y6057D01*
X205889Y5970D01*
Y5964D01*
X205878Y5948D01*
X205867Y5926D01*
X205845Y5893D01*
X205823Y5855D01*
X205796Y5817D01*
X205720Y5713D01*
X205627Y5604D01*
X205518Y5489D01*
X205387Y5380D01*
X205234Y5282D01*
X205228D01*
X205217Y5271D01*
X205190Y5260D01*
X205157Y5244D01*
X205119Y5227D01*
X205075Y5211D01*
X205021Y5189D01*
X204961Y5167D01*
X204895Y5145D01*
X204824Y5124D01*
X204666Y5091D01*
X204497Y5063D01*
X204316Y5053D01*
X204262D01*
X204229Y5058D01*
X204180D01*
X204125Y5069D01*
X204065Y5074D01*
X203994Y5085D01*
X203847Y5118D01*
X203689Y5162D01*
X203525Y5227D01*
X203443Y5266D01*
X203361Y5309D01*
X203356Y5315D01*
X203344Y5320D01*
X203323Y5336D01*
X203290Y5358D01*
X203257Y5380D01*
X203219Y5413D01*
X203126Y5495D01*
X203022Y5593D01*
X202913Y5713D01*
X202815Y5850D01*
X202722Y6008D01*
Y6014D01*
X202711Y6030D01*
X202700Y6052D01*
X202689Y6084D01*
X202673Y6128D01*
X202657Y6177D01*
X202635Y6232D01*
X202618Y6292D01*
X202596Y6363D01*
X202575Y6434D01*
X202542Y6598D01*
X202520Y6767D01*
X202509Y6953D01*
Y6958D01*
Y6964D01*
Y6996D01*
X202515Y7045D01*
Y7111D01*
X202525Y7187D01*
X202537Y7280D01*
X202553Y7384D01*
X202575Y7493D01*
X202596Y7608D01*
X202629Y7728D01*
X202673Y7848D01*
X202722Y7974D01*
X202777Y8094D01*
X202848Y8214D01*
X202924Y8323D01*
X203011Y8427D01*
X203017Y8432D01*
X203033Y8449D01*
X203066Y8476D01*
X203104Y8509D01*
X203153Y8552D01*
X203214Y8596D01*
X203285Y8645D01*
X203366Y8694D01*
X203454Y8744D01*
X203552Y8793D01*
X203661Y8836D01*
X203776Y8880D01*
X203902Y8913D01*
X204032Y8940D01*
X204169Y8957D01*
X204316Y8962D01*
X204366D01*
X204404Y8957D01*
D02*
G37*
G36*
X181521Y8957D02*
X181570D01*
X181619Y8951D01*
X181685Y8940D01*
X181750Y8929D01*
X181892Y8902D01*
X182056Y8858D01*
X182214Y8793D01*
X182296Y8755D01*
X182378Y8711D01*
X182384Y8705D01*
X182395Y8700D01*
X182416Y8683D01*
X182449Y8667D01*
X182482Y8640D01*
X182526Y8607D01*
X182618Y8531D01*
X182717Y8432D01*
X182826Y8312D01*
X182930Y8170D01*
X183017Y8012D01*
Y8006D01*
X183028Y7990D01*
X183039Y7968D01*
X183050Y7936D01*
X183072Y7892D01*
X183088Y7843D01*
X183110Y7783D01*
X183132Y7717D01*
X183148Y7646D01*
X183170Y7570D01*
X183192Y7482D01*
X183208Y7395D01*
X183230Y7204D01*
X183241Y6996D01*
Y6991D01*
Y6969D01*
Y6942D01*
X183235Y6898D01*
Y6849D01*
X183230Y6789D01*
X183219Y6723D01*
X183213Y6652D01*
X183186Y6494D01*
X183142Y6319D01*
X183082Y6145D01*
X183050Y6057D01*
X183006Y5970D01*
Y5964D01*
X182995Y5948D01*
X182984Y5926D01*
X182962Y5893D01*
X182940Y5855D01*
X182913Y5817D01*
X182837Y5713D01*
X182744Y5604D01*
X182635Y5489D01*
X182504Y5380D01*
X182351Y5282D01*
X182345D01*
X182334Y5271D01*
X182307Y5260D01*
X182274Y5244D01*
X182236Y5227D01*
X182193Y5211D01*
X182138Y5189D01*
X182078Y5167D01*
X182012Y5145D01*
X181941Y5124D01*
X181783Y5091D01*
X181614Y5063D01*
X181434Y5053D01*
X181379D01*
X181346Y5058D01*
X181297D01*
X181243Y5069D01*
X181182Y5074D01*
X181111Y5085D01*
X180964Y5118D01*
X180806Y5162D01*
X180642Y5227D01*
X180560Y5266D01*
X180478Y5309D01*
X180473Y5315D01*
X180462Y5320D01*
X180440Y5336D01*
X180407Y5358D01*
X180374Y5380D01*
X180336Y5413D01*
X180243Y5495D01*
X180140Y5593D01*
X180030Y5713D01*
X179932Y5850D01*
X179839Y6008D01*
Y6014D01*
X179828Y6030D01*
X179817Y6052D01*
X179806Y6084D01*
X179790Y6128D01*
X179774Y6177D01*
X179752Y6232D01*
X179736Y6292D01*
X179714Y6363D01*
X179692Y6434D01*
X179659Y6598D01*
X179637Y6767D01*
X179626Y6953D01*
Y6958D01*
Y6964D01*
Y6996D01*
X179632Y7045D01*
Y7111D01*
X179643Y7187D01*
X179654Y7280D01*
X179670Y7384D01*
X179692Y7493D01*
X179714Y7608D01*
X179746Y7728D01*
X179790Y7848D01*
X179839Y7974D01*
X179894Y8094D01*
X179965Y8214D01*
X180041Y8323D01*
X180129Y8427D01*
X180134Y8432D01*
X180150Y8449D01*
X180183Y8476D01*
X180221Y8509D01*
X180271Y8552D01*
X180331Y8596D01*
X180402Y8645D01*
X180483Y8694D01*
X180571Y8744D01*
X180669Y8793D01*
X180778Y8836D01*
X180893Y8880D01*
X181019Y8913D01*
X181150Y8940D01*
X181286Y8957D01*
X181434Y8962D01*
X181483D01*
X181521Y8957D01*
D02*
G37*
%LPC*%
G36*
X191152Y8531D02*
X191065D01*
X191043Y8525D01*
X190983Y8520D01*
X190912Y8498D01*
X190825Y8471D01*
X190732Y8421D01*
X190639Y8361D01*
X190595Y8318D01*
X190552Y8274D01*
Y8269D01*
X190541Y8263D01*
X190530Y8247D01*
X190519Y8230D01*
X190481Y8176D01*
X190443Y8099D01*
X190399Y8006D01*
X190361Y7892D01*
X190339Y7761D01*
X190328Y7619D01*
Y7613D01*
Y7602D01*
Y7586D01*
X190333Y7559D01*
Y7526D01*
X190339Y7493D01*
X190355Y7411D01*
X190383Y7318D01*
X190415Y7220D01*
X190470Y7122D01*
X190541Y7035D01*
X190552Y7024D01*
X190579Y7002D01*
X190628Y6964D01*
X190688Y6925D01*
X190770Y6882D01*
X190863Y6843D01*
X190967Y6822D01*
X191081Y6811D01*
X191114D01*
X191136Y6816D01*
X191196Y6822D01*
X191267Y6838D01*
X191354Y6865D01*
X191442Y6904D01*
X191529Y6958D01*
X191611Y7035D01*
X191622Y7045D01*
X191644Y7078D01*
X191676Y7127D01*
X191720Y7198D01*
X191758Y7286D01*
X191791Y7389D01*
X191813Y7515D01*
X191824Y7657D01*
Y7662D01*
Y7673D01*
Y7695D01*
X191818Y7722D01*
Y7761D01*
X191813Y7799D01*
X191797Y7886D01*
X191775Y7990D01*
X191737Y8099D01*
X191682Y8203D01*
X191611Y8296D01*
Y8301D01*
X191600Y8307D01*
X191573Y8334D01*
X191529Y8372D01*
X191469Y8416D01*
X191393Y8454D01*
X191305Y8492D01*
X191207Y8520D01*
X191152Y8531D01*
D02*
G37*
G36*
X208144Y8449D02*
X207270D01*
Y5566D01*
X208166D01*
X208204Y5571D01*
X208286Y5577D01*
X208379Y5582D01*
X208477Y5593D01*
X208575Y5610D01*
X208657Y5631D01*
X208668Y5637D01*
X208695Y5642D01*
X208734Y5659D01*
X208783Y5680D01*
X208837Y5713D01*
X208892Y5746D01*
X208946Y5784D01*
X209001Y5828D01*
X209007Y5839D01*
X209028Y5861D01*
X209061Y5899D01*
X209099Y5954D01*
X209143Y6024D01*
X209192Y6106D01*
X209236Y6199D01*
X209274Y6303D01*
Y6308D01*
X209280Y6319D01*
X209285Y6336D01*
X209291Y6357D01*
X209296Y6385D01*
X209307Y6423D01*
X209318Y6461D01*
X209329Y6505D01*
X209345Y6614D01*
X209362Y6740D01*
X209372Y6882D01*
X209378Y7035D01*
Y7040D01*
Y7062D01*
Y7089D01*
X209372Y7133D01*
Y7182D01*
X209367Y7237D01*
X209362Y7302D01*
X209356Y7368D01*
X209329Y7515D01*
X209296Y7668D01*
X209247Y7810D01*
X209214Y7881D01*
X209181Y7941D01*
Y7946D01*
X209170Y7957D01*
X209159Y7974D01*
X209149Y7995D01*
X209105Y8050D01*
X209050Y8116D01*
X208979Y8187D01*
X208897Y8258D01*
X208804Y8318D01*
X208706Y8367D01*
X208695Y8372D01*
X208668Y8378D01*
X208619Y8394D01*
X208548Y8410D01*
X208461Y8421D01*
X208351Y8438D01*
X208286Y8443D01*
X208215D01*
X208144Y8449D01*
D02*
G37*
G36*
X204316Y8531D02*
X204267D01*
X204229Y8525D01*
X204180Y8520D01*
X204131Y8509D01*
X204071Y8498D01*
X204005Y8487D01*
X203863Y8443D01*
X203787Y8410D01*
X203710Y8378D01*
X203628Y8334D01*
X203552Y8285D01*
X203476Y8230D01*
X203405Y8165D01*
X203399Y8159D01*
X203388Y8148D01*
X203372Y8127D01*
X203344Y8094D01*
X203317Y8056D01*
X203285Y8006D01*
X203252Y7946D01*
X203214Y7875D01*
X203181Y7799D01*
X203142Y7706D01*
X203110Y7608D01*
X203082Y7499D01*
X203055Y7379D01*
X203039Y7242D01*
X203028Y7100D01*
X203022Y6947D01*
Y6942D01*
Y6920D01*
Y6882D01*
X203028Y6833D01*
X203033Y6778D01*
X203044Y6712D01*
X203055Y6636D01*
X203066Y6560D01*
X203110Y6385D01*
X203142Y6297D01*
X203175Y6205D01*
X203219Y6117D01*
X203268Y6030D01*
X203323Y5948D01*
X203388Y5872D01*
X203394Y5866D01*
X203405Y5855D01*
X203426Y5833D01*
X203454Y5812D01*
X203492Y5779D01*
X203536Y5746D01*
X203585Y5713D01*
X203639Y5675D01*
X203705Y5637D01*
X203776Y5604D01*
X203852Y5571D01*
X203934Y5539D01*
X204022Y5517D01*
X204109Y5495D01*
X204207Y5484D01*
X204311Y5478D01*
X204338D01*
X204366Y5484D01*
X204404D01*
X204453Y5489D01*
X204507Y5500D01*
X204573Y5511D01*
X204639Y5528D01*
X204715Y5550D01*
X204786Y5577D01*
X204868Y5604D01*
X204944Y5642D01*
X205021Y5691D01*
X205097Y5741D01*
X205174Y5801D01*
X205245Y5872D01*
X205250Y5877D01*
X205261Y5888D01*
X205277Y5915D01*
X205305Y5948D01*
X205332Y5986D01*
X205359Y6035D01*
X205392Y6095D01*
X205430Y6161D01*
X205463Y6237D01*
X205496Y6325D01*
X205523Y6418D01*
X205556Y6516D01*
X205578Y6625D01*
X205594Y6745D01*
X205605Y6871D01*
X205610Y7002D01*
Y7007D01*
Y7024D01*
Y7045D01*
Y7078D01*
X205605Y7117D01*
Y7166D01*
X205599Y7215D01*
X205589Y7275D01*
X205572Y7400D01*
X205545Y7531D01*
X205507Y7673D01*
X205452Y7804D01*
Y7810D01*
X205447Y7821D01*
X205436Y7837D01*
X205425Y7859D01*
X205387Y7925D01*
X205337Y8001D01*
X205272Y8088D01*
X205190Y8176D01*
X205097Y8263D01*
X204994Y8339D01*
X204988D01*
X204982Y8350D01*
X204966Y8356D01*
X204939Y8372D01*
X204912Y8383D01*
X204879Y8400D01*
X204797Y8438D01*
X204699Y8471D01*
X204584Y8503D01*
X204453Y8525D01*
X204316Y8531D01*
D02*
G37*
G36*
X181434Y8531D02*
X181384D01*
X181346Y8525D01*
X181297Y8520D01*
X181248Y8509D01*
X181188Y8498D01*
X181122Y8487D01*
X180980Y8443D01*
X180904Y8410D01*
X180827Y8378D01*
X180746Y8334D01*
X180669Y8285D01*
X180593Y8230D01*
X180522Y8165D01*
X180516Y8159D01*
X180505Y8148D01*
X180489Y8127D01*
X180462Y8094D01*
X180434Y8056D01*
X180402Y8006D01*
X180369Y7946D01*
X180331Y7875D01*
X180298Y7799D01*
X180260Y7706D01*
X180227Y7608D01*
X180200Y7499D01*
X180172Y7378D01*
X180156Y7242D01*
X180145Y7100D01*
X180140Y6947D01*
Y6942D01*
Y6920D01*
Y6882D01*
X180145Y6833D01*
X180150Y6778D01*
X180161Y6712D01*
X180172Y6636D01*
X180183Y6560D01*
X180227Y6385D01*
X180260Y6297D01*
X180292Y6205D01*
X180336Y6117D01*
X180385Y6030D01*
X180440Y5948D01*
X180505Y5872D01*
X180511Y5866D01*
X180522Y5855D01*
X180544Y5833D01*
X180571Y5812D01*
X180609Y5779D01*
X180653Y5746D01*
X180702Y5713D01*
X180756Y5675D01*
X180822Y5637D01*
X180893Y5604D01*
X180970Y5571D01*
X181051Y5539D01*
X181139Y5517D01*
X181226Y5495D01*
X181324Y5484D01*
X181428Y5478D01*
X181455D01*
X181483Y5484D01*
X181521D01*
X181570Y5489D01*
X181625Y5500D01*
X181690Y5511D01*
X181756Y5528D01*
X181832Y5550D01*
X181903Y5577D01*
X181985Y5604D01*
X182062Y5642D01*
X182138Y5691D01*
X182214Y5741D01*
X182291Y5801D01*
X182362Y5872D01*
X182367Y5877D01*
X182378Y5888D01*
X182395Y5915D01*
X182422Y5948D01*
X182449Y5986D01*
X182476Y6035D01*
X182509Y6095D01*
X182547Y6161D01*
X182580Y6237D01*
X182613Y6325D01*
X182640Y6418D01*
X182673Y6516D01*
X182695Y6625D01*
X182711Y6745D01*
X182722Y6871D01*
X182728Y7002D01*
Y7007D01*
Y7024D01*
Y7045D01*
Y7078D01*
X182722Y7117D01*
Y7166D01*
X182717Y7215D01*
X182706Y7275D01*
X182689Y7400D01*
X182662Y7531D01*
X182624Y7673D01*
X182569Y7804D01*
Y7810D01*
X182564Y7821D01*
X182553Y7837D01*
X182542Y7859D01*
X182504Y7925D01*
X182455Y8001D01*
X182389Y8088D01*
X182307Y8176D01*
X182214Y8263D01*
X182111Y8339D01*
X182105D01*
X182100Y8350D01*
X182083Y8356D01*
X182056Y8372D01*
X182029Y8383D01*
X181996Y8400D01*
X181914Y8438D01*
X181816Y8471D01*
X181701Y8503D01*
X181570Y8525D01*
X181434Y8531D01*
D02*
G37*
%LPD*%
G54D10*
X53938Y44181D02*
X53338D01*
X53938D01*
X89272Y32774D02*
X152461D01*
X89272Y89274D02*
X152461D01*
X89272Y32774D02*
Y89274D01*
X152461Y32774D02*
Y89274D01*
X40607Y60602D02*
Y70802D01*
X46007D01*
Y60602D02*
Y70802D01*
X40607Y60602D02*
X46007D01*
X43270Y38845D02*
Y43045D01*
X35470Y38845D02*
X43270D01*
X35470D02*
Y43045D01*
X43270D01*
X198481Y46739D02*
X203481D01*
Y35739D02*
Y46739D01*
X198481Y35739D02*
X203481D01*
X198481D02*
Y46739D01*
X44387Y73096D02*
Y79696D01*
X40587D02*
X44387D01*
X40587Y73096D02*
Y79696D01*
Y73096D02*
X44387D01*
X256290Y29744D02*
Y59244D01*
X224583Y29744D02*
Y59244D01*
Y29744D02*
X256290D01*
X224583Y59244D02*
X256290D01*
X7835Y92913D02*
X37756D01*
X7835Y62992D02*
X37756D01*
Y92913D01*
X7835Y62992D02*
Y92913D01*
X48462Y70555D02*
X56262D01*
X48462Y66755D02*
Y70555D01*
X56262Y66755D02*
Y70555D01*
X48462Y66755D02*
X56262D01*
X140483Y22478D02*
Y30278D01*
X136683D02*
X140483D01*
X136683Y22478D02*
X140483D01*
X136683D02*
Y30278D01*
X146607Y22478D02*
Y30278D01*
X142807D02*
X146607D01*
X142807Y22478D02*
X146607D01*
X142807D02*
Y30278D01*
X152683Y22478D02*
Y30278D01*
X148883D02*
X152683D01*
X148883Y22478D02*
X152683D01*
X148883D02*
Y30278D01*
X95741Y92163D02*
Y99963D01*
Y92163D02*
X99541D01*
X95741Y99963D02*
X99541D01*
Y92163D02*
Y99963D01*
X171316Y46739D02*
X176316D01*
Y35739D02*
Y46739D01*
X171316Y35739D02*
X176316D01*
X171316D02*
Y46739D01*
X113254Y91769D02*
X117454D01*
X113254D02*
Y99569D01*
X117454D01*
Y91769D02*
Y99569D01*
X178609Y39013D02*
X182809D01*
X178609D02*
Y46813D01*
X182809D01*
Y39013D02*
Y46813D01*
X205774Y39013D02*
X209974D01*
X205774D02*
Y46813D01*
X209974D01*
Y39013D02*
Y46813D01*
X228238Y80672D02*
X232438D01*
Y72872D02*
Y80672D01*
X228238Y72872D02*
X232438D01*
X228238D02*
Y80672D01*
X238298D02*
X242498D01*
Y72872D02*
Y80672D01*
X238298Y72872D02*
X242498D01*
X238298D02*
Y80672D01*
X156262Y97900D02*
Y102100D01*
X148462Y97900D02*
X156262D01*
X148462D02*
Y102100D01*
X156262D01*
X47675Y38845D02*
Y43045D01*
X55475D01*
Y38845D02*
Y43045D01*
X47675Y38845D02*
X55475D01*
X92876Y26247D02*
Y30446D01*
X85076Y26247D02*
X92876D01*
X85076D02*
Y30446D01*
X92876D01*
X84161Y35895D02*
Y33813D01*
X84577Y33396D01*
X85410D01*
X85827Y33813D01*
Y35895D01*
X86660Y33396D02*
X87493D01*
X87076D01*
Y35895D01*
X86660Y35479D01*
X40157Y45624D02*
Y47290D01*
X39741Y47706D01*
X38908D01*
X38491Y47290D01*
Y45624D01*
X38908Y45207D01*
X39741D01*
X39324Y46040D02*
X40157Y45207D01*
X39741D02*
X40157Y45624D01*
X40991Y45207D02*
X41824D01*
X41407D01*
Y47706D01*
X40991Y47290D01*
X59820Y69094D02*
X59403Y69511D01*
X58570D01*
X58154Y69094D01*
Y67428D01*
X58570Y67012D01*
X59403D01*
X59820Y67428D01*
X62319Y69511D02*
X60653D01*
Y68261D01*
X61486Y68678D01*
X61902D01*
X62319Y68261D01*
Y67428D01*
X61902Y67012D01*
X61069D01*
X60653Y67428D01*
X244074Y86289D02*
X245741D01*
X244907D01*
Y83790D01*
X246574D02*
Y86289D01*
X247823D01*
X248240Y85872D01*
Y85039D01*
X247823Y84623D01*
X246574D01*
X249073Y83790D02*
X249906D01*
X249489D01*
Y86289D01*
X249073Y85872D01*
X251155Y83790D02*
X251989D01*
X251572D01*
Y86289D01*
X251155Y85872D01*
X216493Y86289D02*
X218159D01*
X217326D01*
Y83790D01*
X218992D02*
Y86289D01*
X220241D01*
X220658Y85872D01*
Y85039D01*
X220241Y84623D01*
X218992D01*
X221491Y83790D02*
X222324D01*
X221907D01*
Y86289D01*
X221491Y85872D01*
X223574D02*
X223990Y86289D01*
X224823D01*
X225240Y85872D01*
Y84206D01*
X224823Y83790D01*
X223990D01*
X223574Y84206D01*
Y85872D01*
X128021Y24592D02*
Y22926D01*
Y23759D01*
X125522D01*
Y22093D02*
X128021D01*
Y20843D01*
X127605Y20427D01*
X126772D01*
X126355Y20843D01*
Y22093D01*
X125939Y19594D02*
X125522Y19177D01*
Y18344D01*
X125939Y17928D01*
X127605D01*
X128021Y18344D01*
Y19177D01*
X127605Y19594D01*
X127188D01*
X126772Y19177D01*
Y17928D01*
X121328Y24592D02*
Y22926D01*
Y23759D01*
X118829D01*
Y22093D02*
X121328D01*
Y20843D01*
X120912Y20427D01*
X120079D01*
X119662Y20843D01*
Y22093D01*
X120912Y19594D02*
X121328Y19177D01*
Y18344D01*
X120912Y17928D01*
X120495D01*
X120079Y18344D01*
X119662Y17928D01*
X119246D01*
X118829Y18344D01*
Y19177D01*
X119246Y19594D01*
X119662D01*
X120079Y19177D01*
X120495Y19594D01*
X120912D01*
X120079Y19177D02*
Y18344D01*
X154148Y94950D02*
X155814D01*
X154981D01*
Y92451D01*
X156647D02*
Y94950D01*
X157897D01*
X158313Y94534D01*
Y93701D01*
X157897Y93284D01*
X156647D01*
X159146Y94950D02*
X160813D01*
Y94534D01*
X159146Y92868D01*
Y92451D01*
X98887Y24592D02*
Y22926D01*
Y23759D01*
X96388D01*
Y22093D02*
X98887D01*
Y20843D01*
X98471Y20427D01*
X97638D01*
X97221Y20843D01*
Y22093D01*
X98887Y17928D02*
X98471Y18761D01*
X97638Y19594D01*
X96805D01*
X96388Y19177D01*
Y18344D01*
X96805Y17928D01*
X97221D01*
X97638Y18344D01*
Y19594D01*
X134184Y96274D02*
Y97940D01*
Y97107D01*
X136683D01*
Y98773D02*
X134184D01*
Y100023D01*
X134600Y100439D01*
X135433D01*
X135850Y100023D01*
Y98773D01*
X134184Y102939D02*
Y101272D01*
X135433D01*
X135017Y102105D01*
Y102522D01*
X135433Y102939D01*
X136266D01*
X136683Y102522D01*
Y101689D01*
X136266Y101272D01*
X121585Y102180D02*
Y103846D01*
Y103013D01*
X124084D01*
Y104679D02*
X121585D01*
Y105928D01*
X122002Y106345D01*
X122835D01*
X123251Y105928D01*
Y104679D01*
X124084Y108428D02*
X121585D01*
X122835Y107178D01*
Y108844D01*
X125522Y95880D02*
Y97546D01*
Y96713D01*
X128021D01*
Y98379D02*
X125522D01*
Y99629D01*
X125939Y100046D01*
X126772D01*
X127188Y99629D01*
Y98379D01*
X125939Y100879D02*
X125522Y101295D01*
Y102128D01*
X125939Y102545D01*
X126355D01*
X126772Y102128D01*
Y101712D01*
Y102128D01*
X127188Y102545D01*
X127605D01*
X128021Y102128D01*
Y101295D01*
X127605Y100879D01*
X130246Y102180D02*
Y103846D01*
Y103013D01*
X132746D01*
Y104679D02*
X130246D01*
Y105928D01*
X130663Y106345D01*
X131496D01*
X131913Y105928D01*
Y104679D01*
X132746Y108844D02*
Y107178D01*
X131079Y108844D01*
X130663D01*
X130246Y108428D01*
Y107595D01*
X130663Y107178D01*
X142845Y97478D02*
Y99144D01*
Y98311D01*
X145344D01*
Y99977D02*
X142845D01*
Y101227D01*
X143261Y101643D01*
X144095D01*
X144511Y101227D01*
Y99977D01*
X145344Y102476D02*
Y103309D01*
Y102893D01*
X142845D01*
X143261Y102476D01*
X157112Y98357D02*
Y100856D01*
X158362D01*
X158778Y100439D01*
Y99606D01*
X158362Y99190D01*
X157112D01*
X157945D02*
X158778Y98357D01*
X159611D02*
X160444D01*
X160028D01*
Y100856D01*
X159611Y100439D01*
X161694D02*
X162111Y100856D01*
X162944D01*
X163360Y100439D01*
Y98773D01*
X162944Y98357D01*
X162111D01*
X161694Y98773D01*
Y100439D01*
X238075Y69223D02*
Y71722D01*
X239324D01*
X239741Y71306D01*
Y70473D01*
X239324Y70056D01*
X238075D01*
X238908D02*
X239741Y69223D01*
X240574Y71306D02*
X240990Y71722D01*
X241824D01*
X242240Y71306D01*
Y70889D01*
X241824Y70473D01*
X242240Y70056D01*
Y69639D01*
X241824Y69223D01*
X240990D01*
X240574Y69639D01*
Y70056D01*
X240990Y70473D01*
X240574Y70889D01*
Y71306D01*
X240990Y70473D02*
X241824D01*
X228232Y69223D02*
Y71722D01*
X229482D01*
X229898Y71306D01*
Y70473D01*
X229482Y70056D01*
X228232D01*
X229065D02*
X229898Y69223D01*
X232398Y71722D02*
X230732D01*
Y70473D01*
X231565Y70889D01*
X231981D01*
X232398Y70473D01*
Y69639D01*
X231981Y69223D01*
X231148D01*
X230732Y69639D01*
X47917Y60955D02*
Y63454D01*
X49167D01*
X49584Y63038D01*
Y62205D01*
X49167Y61788D01*
X47917D01*
X48750D02*
X49584Y60955D01*
X51666D02*
Y63454D01*
X50416Y62205D01*
X52083D01*
X209517Y49099D02*
X207018D01*
Y50348D01*
X207435Y50765D01*
X208268D01*
X208684Y50348D01*
Y49099D01*
Y49931D02*
X209517Y50765D01*
X207435Y51598D02*
X207018Y52014D01*
Y52847D01*
X207435Y53264D01*
X207851D01*
X208268Y52847D01*
Y52431D01*
Y52847D01*
X208684Y53264D01*
X209101D01*
X209517Y52847D01*
Y52014D01*
X209101Y51598D01*
X181958Y49886D02*
X179459D01*
Y51135D01*
X179876Y51552D01*
X180709D01*
X181125Y51135D01*
Y49886D01*
Y50719D02*
X181958Y51552D01*
Y54051D02*
Y52385D01*
X180292Y54051D01*
X179876D01*
X179459Y53635D01*
Y52802D01*
X179876Y52385D01*
X116604Y101484D02*
X114104D01*
Y102733D01*
X114521Y103150D01*
X115354D01*
X115771Y102733D01*
Y101484D01*
Y102316D02*
X116604Y103150D01*
Y103983D02*
Y104816D01*
Y104399D01*
X114104D01*
X114521Y103983D01*
X199932Y49355D02*
X202431D01*
Y51021D01*
X199932Y53521D02*
Y51854D01*
X202431D01*
Y53521D01*
X201181Y51854D02*
Y52687D01*
X199932Y54353D02*
X202431D01*
Y55603D01*
X202014Y56020D01*
X200348D01*
X199932Y55603D01*
Y54353D01*
X202431Y58519D02*
Y56853D01*
X200765Y58519D01*
X200348D01*
X199932Y58102D01*
Y57269D01*
X200348Y56853D01*
X173160Y49378D02*
X175659D01*
Y51044D01*
X173160Y53543D02*
Y51877D01*
X175659D01*
Y53543D01*
X174409Y51877D02*
Y52710D01*
X173160Y54376D02*
X175659D01*
Y55626D01*
X175242Y56042D01*
X173576D01*
X173160Y55626D01*
Y54376D01*
X175659Y56876D02*
Y57709D01*
Y57292D01*
X173160D01*
X173576Y56876D01*
X45972Y76053D02*
Y73554D01*
X47638D01*
X48471D02*
X49304D01*
X48887D01*
Y76053D01*
X48471Y75636D01*
X35017Y98100D02*
X34183D01*
X34600D01*
Y96017D01*
X34183Y95601D01*
X33767D01*
X33350Y96017D01*
X37516Y95601D02*
X35850D01*
X37516Y97267D01*
Y97684D01*
X37099Y98100D01*
X36266D01*
X35850Y97684D01*
X253937Y64242D02*
X253104D01*
X253520D01*
Y62159D01*
X253104Y61743D01*
X252687D01*
X252271Y62159D01*
X254770Y61743D02*
X255603D01*
X255187D01*
Y64242D01*
X254770Y63825D01*
X96805Y103521D02*
X96388Y103104D01*
Y102271D01*
X96805Y101854D01*
X98471D01*
X98887Y102271D01*
Y103104D01*
X98471Y103521D01*
X98887Y105603D02*
X96388D01*
X97638Y104353D01*
Y106020D01*
X151223Y15354D02*
X151639Y15771D01*
Y16604D01*
X151223Y17020D01*
X149557D01*
X149140Y16604D01*
Y15771D01*
X149557Y15354D01*
X151223Y14521D02*
X151639Y14105D01*
Y13272D01*
X151223Y12855D01*
X150806D01*
X150390Y13272D01*
Y13688D01*
Y13272D01*
X149973Y12855D01*
X149557D01*
X149140Y13272D01*
Y14105D01*
X149557Y14521D01*
X145344Y15354D02*
X145760Y15771D01*
Y16604D01*
X145344Y17020D01*
X143678D01*
X143261Y16604D01*
Y15771D01*
X143678Y15354D01*
X143261Y12855D02*
Y14521D01*
X144927Y12855D01*
X145344D01*
X145760Y13272D01*
Y14105D01*
X145344Y14521D01*
X139416Y15354D02*
X139832Y15771D01*
Y16604D01*
X139416Y17020D01*
X137750D01*
X137333Y16604D01*
Y15771D01*
X137750Y15354D01*
X137333Y14521D02*
Y13688D01*
Y14105D01*
X139832D01*
X139416Y14521D01*
G54D11*
X54938Y45479D02*
Y56884D01*
X43888Y44281D02*
Y49081D01*
X40338D02*
X43888D01*
X40338D02*
Y53281D01*
X43888D01*
Y58081D01*
X51388D01*
Y56884D02*
Y58081D01*
Y56884D02*
X54938D01*
X51388Y44281D02*
Y45479D01*
X43888Y44281D02*
X51388D01*
Y45479D02*
X54938D01*
G54D12*
X200506Y41114D02*
X201406D01*
X200506D02*
X200956Y41564D01*
X201406Y41114D01*
X173341D02*
X174241D01*
X173341D02*
X173791Y41564D01*
X174241Y41114D01*
G54D13*
X35713Y34577D02*
Y37076D01*
X36962D01*
X37379Y36660D01*
Y35827D01*
X36962Y35410D01*
X35713D01*
X36546D02*
X37379Y34577D01*
X38212Y34994D02*
X38628Y34577D01*
X39461D01*
X39878Y34994D01*
Y36660D01*
X39461Y37076D01*
X38628D01*
X38212Y36660D01*
Y36243D01*
X38628Y35827D01*
X39878D01*
X88468Y22373D02*
Y24872D01*
X89718D01*
X90135Y24455D01*
Y23622D01*
X89718Y23205D01*
X88468D01*
X89302D02*
X90135Y22373D01*
X90968Y24872D02*
X92634D01*
Y24455D01*
X90968Y22789D01*
Y22373D01*
X51067Y34577D02*
Y37076D01*
X52316D01*
X52733Y36660D01*
Y35827D01*
X52316Y35410D01*
X51067D01*
X51900D02*
X52733Y34577D01*
X55232Y37076D02*
X54399Y36660D01*
X53566Y35827D01*
Y34994D01*
X53983Y34577D01*
X54816D01*
X55232Y34994D01*
Y35410D01*
X54816Y35827D01*
X53566D01*
G54D14*
X151575Y82432D02*
D03*
G54D15*
X200972Y41248D02*
D03*
X173807D02*
D03*
G54D16*
X258690Y32148D02*
D03*
M02*
