G04*
G04 #@! TF.GenerationSoftware,Altium Limited,Altium Designer,21.6.4 (81)*
G04*
G04 Layer_Color=255*
%FSLAX25Y25*%
%MOIN*%
G70*
G04*
G04 #@! TF.SameCoordinates,58B769C5-09E4-400E-A119-9391F3B74D98*
G04*
G04*
G04 #@! TF.FilePolarity,Positive*
G04*
G01*
G75*
%ADD19R,0.05000X0.02200*%
%ADD20R,0.03543X0.02362*%
%ADD21R,0.01968X0.02362*%
%ADD22R,0.03150X0.03150*%
%ADD23R,0.01968X0.01575*%
%ADD24R,0.11614X0.04016*%
%ADD25R,0.19685X0.03937*%
%ADD26C,0.03937*%
%ADD27R,0.01968X0.01968*%
%ADD28R,0.01968X0.01968*%
%ADD29R,0.02362X0.01968*%
%ADD42R,0.03150X0.07080*%
G54D19*
X642288Y736949D02*
D03*
Y744153D02*
D03*
X634688Y740551D02*
D03*
G54D20*
X634158Y758025D02*
D03*
Y752119D02*
D03*
G54D21*
X628252Y730315D02*
D03*
X632189D02*
D03*
X741244Y789370D02*
D03*
X745181D02*
D03*
X644394Y730315D02*
D03*
X640457D02*
D03*
X677858Y717717D02*
D03*
X681795D02*
D03*
G54D22*
X791831Y733561D02*
D03*
Y727656D02*
D03*
X764666Y733561D02*
D03*
Y727656D02*
D03*
G54D23*
X633322Y764173D02*
D03*
Y767323D02*
D03*
G54D24*
X840240Y721969D02*
D03*
Y729843D02*
D03*
Y737716D02*
D03*
Y745590D02*
D03*
X822327Y721969D02*
D03*
Y729843D02*
D03*
Y737716D02*
D03*
Y745590D02*
D03*
G54D25*
X613646Y755842D02*
D03*
X612646Y778323D02*
D03*
G54D26*
X831248Y774409D02*
D03*
X613646Y767322D02*
D03*
X734945Y783071D02*
D03*
X721953Y788976D02*
D03*
X717622Y782735D02*
D03*
X713292Y788976D02*
D03*
X726281Y782735D02*
D03*
X688488Y717717D02*
D03*
X741244Y783071D02*
D03*
X710929Y717717D02*
D03*
X717622D02*
D03*
X821189Y774409D02*
D03*
G54D27*
X645181Y758025D02*
D03*
X641244D02*
D03*
G54D28*
X729433Y713779D02*
D03*
Y717717D02*
D03*
X735558Y713779D02*
D03*
Y717717D02*
D03*
X741634Y713779D02*
D03*
Y717717D02*
D03*
X688491Y787402D02*
D03*
Y783464D02*
D03*
G54D29*
X706205Y787008D02*
D03*
Y783071D02*
D03*
X771559Y734252D02*
D03*
Y730315D02*
D03*
X798724Y734252D02*
D03*
Y730315D02*
D03*
X821189Y764173D02*
D03*
Y768110D02*
D03*
X831248Y764173D02*
D03*
Y768110D02*
D03*
G54D42*
X713292Y774409D02*
D03*
X730612D02*
D03*
X734941D02*
D03*
X739271D02*
D03*
X717622D02*
D03*
X721951D02*
D03*
X726281D02*
D03*
X701481D02*
D03*
X688491D02*
D03*
X692822D02*
D03*
X697152D02*
D03*
X684162D02*
D03*
X697152Y726379D02*
D03*
X688491D02*
D03*
X684162D02*
D03*
X701481D02*
D03*
X692822D02*
D03*
X726281D02*
D03*
X721951D02*
D03*
X717622D02*
D03*
X739271D02*
D03*
X734941D02*
D03*
X730612D02*
D03*
X713292D02*
D03*
M02*
