G04*
G04 #@! TF.GenerationSoftware,Altium Limited,Altium Designer,24.4.1 (13)*
G04*
G04 Layer_Color=8388736*
%FSLAX44Y44*%
%MOMM*%
G71*
G04*
G04 #@! TF.SameCoordinates,EFBD3F8D-071C-412C-B344-986AE508E9F6*
G04*
G04*
G04 #@! TF.FilePolarity,Negative*
G04*
G01*
G75*
%ADD21R,0.5811X0.5121*%
%ADD26R,0.5121X0.5811*%
%ADD29R,1.5000X1.2000*%
%ADD30R,0.6153X0.5725*%
%ADD32R,0.3000X1.5500*%
%ADD33R,1.2000X2.7500*%
%ADD37R,0.9051X0.9062*%
%ADD39R,1.4000X1.2000*%
%ADD40R,0.5200X0.5200*%
%ADD41R,0.5200X0.5200*%
%ADD42R,0.9062X0.9051*%
%ADD43R,1.8545X2.2860*%
%ADD48C,0.3556*%
%ADD49R,1.9900X2.3300*%
%ADD51R,0.7500X0.9000*%
%ADD52R,0.4000X0.5000*%
%ADD53R,2.4892X0.9398*%
%ADD54R,5.9182X5.5118*%
%ADD55R,0.8000X0.8000*%
%ADD57R,1.0383X0.5321*%
G04:AMPARAMS|DCode=58|XSize=1.0383mm|YSize=0.5321mm|CornerRadius=0.2661mm|HoleSize=0mm|Usage=FLASHONLY|Rotation=180.000|XOffset=0mm|YOffset=0mm|HoleType=Round|Shape=RoundedRectangle|*
%AMROUNDEDRECTD58*
21,1,1.0383,0.0000,0,0,180.0*
21,1,0.5061,0.5321,0,0,180.0*
1,1,0.5321,-0.2531,0.0000*
1,1,0.5321,0.2531,0.0000*
1,1,0.5321,0.2531,0.0000*
1,1,0.5321,-0.2531,0.0000*
%
%ADD58ROUNDEDRECTD58*%
%ADD59R,1.3500X0.4000*%
%ADD60R,1.3500X0.6000*%
%ADD61R,0.8500X0.6500*%
%ADD63R,0.4500X0.6750*%
%ADD65R,0.6750X0.4500*%
%ADD67R,1.5000X1.6000*%
G04:AMPARAMS|DCode=70|XSize=0.24mm|YSize=0.6mm|CornerRadius=0.0504mm|HoleSize=0mm|Usage=FLASHONLY|Rotation=0.000|XOffset=0mm|YOffset=0mm|HoleType=Round|Shape=RoundedRectangle|*
%AMROUNDEDRECTD70*
21,1,0.2400,0.4992,0,0,0.0*
21,1,0.1392,0.6000,0,0,0.0*
1,1,0.1008,0.0696,-0.2496*
1,1,0.1008,-0.0696,-0.2496*
1,1,0.1008,-0.0696,0.2496*
1,1,0.1008,0.0696,0.2496*
%
%ADD70ROUNDEDRECTD70*%
G04:AMPARAMS|DCode=71|XSize=0.6mm|YSize=0.24mm|CornerRadius=0.0504mm|HoleSize=0mm|Usage=FLASHONLY|Rotation=0.000|XOffset=0mm|YOffset=0mm|HoleType=Round|Shape=RoundedRectangle|*
%AMROUNDEDRECTD71*
21,1,0.6000,0.1392,0,0,0.0*
21,1,0.4992,0.2400,0,0,0.0*
1,1,0.1008,0.2496,-0.0696*
1,1,0.1008,-0.2496,-0.0696*
1,1,0.1008,-0.2496,0.0696*
1,1,0.1008,0.2496,0.0696*
%
%ADD71ROUNDEDRECTD71*%
%ADD72R,0.5725X0.6153*%
%ADD75R,1.6000X1.2500*%
%ADD76R,1.1046X1.7062*%
%ADD77R,0.7154X0.6725*%
%ADD78R,0.7000X0.7000*%
%ADD79R,1.3500X1.1000*%
%ADD80R,1.7062X1.1546*%
%ADD81R,3.3000X2.4000*%
%ADD93R,0.7393X0.6725*%
%ADD94R,0.7000X0.7000*%
%ADD95R,0.6725X0.7393*%
%ADD97R,1.1000X1.3500*%
%ADD98R,1.5046X1.9062*%
%ADD99R,1.1546X1.7062*%
%ADD100R,0.6725X0.6682*%
%ADD101R,0.3500X0.6000*%
%ADD102R,0.3500X1.4000*%
%ADD103R,0.6000X0.3500*%
%ADD104R,1.0000X0.9000*%
%ADD105R,0.7000X0.9500*%
%ADD106R,0.5393X0.4725*%
%ADD107R,0.7581X0.8121*%
%ADD112R,1.7000X2.5000*%
%ADD113R,0.9500X0.3700*%
%ADD114R,0.9500X0.3700*%
%ADD115R,8.0000X3.4500*%
%ADD116R,35.3500X6.2876*%
%ADD117R,2.2032X0.7032*%
%ADD118R,0.8032X0.8532*%
%ADD119R,0.8532X0.8032*%
%ADD120R,0.8032X0.7532*%
%ADD121R,0.7532X0.8032*%
%ADD122R,0.7532X0.7032*%
%ADD123R,0.9144X4.3942*%
%ADD124O,0.9032X2.2032*%
%ADD125O,0.4032X0.7032*%
%ADD126O,0.7032X0.4032*%
%ADD127R,5.4032X5.4032*%
%ADD128R,0.7032X0.7532*%
%ADD129O,2.5032X0.9032*%
%ADD130R,2.6132X3.3032*%
%ADD131R,1.2532X2.4032*%
%ADD132R,1.2032X1.2532*%
G04:AMPARAMS|DCode=133|XSize=0.5032mm|YSize=1.2032mm|CornerRadius=0.1511mm|HoleSize=0mm|Usage=FLASHONLY|Rotation=90.000|XOffset=0mm|YOffset=0mm|HoleType=Round|Shape=RoundedRectangle|*
%AMROUNDEDRECTD133*
21,1,0.5032,0.9010,0,0,90.0*
21,1,0.2010,1.2032,0,0,90.0*
1,1,0.3022,0.4505,0.1005*
1,1,0.3022,0.4505,-0.1005*
1,1,0.3022,-0.4505,-0.1005*
1,1,0.3022,-0.4505,0.1005*
%
%ADD133ROUNDEDRECTD133*%
%ADD134R,0.7532X0.7532*%
%ADD135R,1.5532X0.6032*%
%ADD136R,1.5532X0.8032*%
%ADD137R,0.8032X0.8782*%
%ADD138R,0.8782X0.8032*%
%ADD139R,0.9032X0.8532*%
%ADD140R,1.2532X1.2032*%
%ADD141R,2.4032X1.2532*%
G04:AMPARAMS|DCode=142|XSize=3.1mm|YSize=3.1mm|CornerRadius=0.0465mm|HoleSize=0mm|Usage=FLASHONLY|Rotation=0.000|XOffset=0mm|YOffset=0mm|HoleType=Round|Shape=RoundedRectangle|*
%AMROUNDEDRECTD142*
21,1,3.1000,3.0070,0,0,0.0*
21,1,3.0070,3.1000,0,0,0.0*
1,1,0.0930,1.5035,-1.5035*
1,1,0.0930,-1.5035,-1.5035*
1,1,0.0930,-1.5035,1.5035*
1,1,0.0930,1.5035,1.5035*
%
%ADD142ROUNDEDRECTD142*%
%ADD143R,1.0032X1.1532*%
%ADD144O,2.2532X0.8032*%
%ADD145R,1.6532X2.1032*%
%ADD146R,1.7032X2.0532*%
%ADD147R,1.2032X0.9232*%
%ADD148R,1.3032X1.2532*%
%ADD149R,1.6032X1.6032*%
%ADD150R,1.2032X1.6032*%
%ADD151R,0.7532X0.7532*%
%ADD152R,3.2032X3.7032*%
%ADD153R,0.8532X0.9032*%
%ADD154R,1.3500X0.7500*%
%ADD155R,0.9500X1.3500*%
%ADD156R,2.0532X1.7032*%
%ADD157R,1.1032X0.9032*%
%ADD158R,0.9532X1.0532*%
%ADD159R,0.9032X1.1032*%
%ADD160R,0.9144X3.4036*%
%ADD161C,1.4532*%
%ADD162C,2.4032*%
%ADD163R,2.2032X2.2032*%
%ADD164C,3.1532*%
%ADD165C,2.0032*%
%ADD166C,2.3032*%
%ADD167C,1.6032*%
%ADD168R,2.3032X2.3032*%
%ADD169C,1.2032*%
%ADD170C,1.8532*%
%ADD171C,1.8032*%
%ADD172C,6.7032*%
%ADD173C,1.1000*%
%ADD174C,1.6000*%
%ADD175C,6.5532*%
%ADD176R,2.7500X2.7500*%
%ADD177C,2.7500*%
%ADD178R,1.7532X1.7532*%
%ADD179C,1.7532*%
%ADD180R,1.8032X1.8032*%
D21*
X429816Y-445729D02*
D03*
X437127D02*
D03*
X425103Y-299538D02*
D03*
X432413D02*
D03*
X763441Y-279464D02*
D03*
X756130D02*
D03*
X763441Y-264225D02*
D03*
X756130D02*
D03*
X970716Y-798625D02*
D03*
X963405D02*
D03*
X640345Y-509898D02*
D03*
X633034D02*
D03*
X640246Y-576117D02*
D03*
X632935D02*
D03*
X640345Y-565829D02*
D03*
X633034D02*
D03*
X666246Y-532407D02*
D03*
X658936D02*
D03*
X600711Y-238281D02*
D03*
X608022D02*
D03*
X666480Y-574559D02*
D03*
X659169D02*
D03*
X601050Y-293145D02*
D03*
X608361D02*
D03*
X568754Y-550723D02*
D03*
X561443D02*
D03*
X568912Y-514721D02*
D03*
X561602D02*
D03*
X749080Y-486743D02*
D03*
X756391D02*
D03*
X748752Y-454760D02*
D03*
X756063D02*
D03*
X682830Y-285194D02*
D03*
X690141D02*
D03*
X617814Y-934542D02*
D03*
X625125D02*
D03*
X617814Y-924658D02*
D03*
X625125D02*
D03*
X679437Y-855285D02*
D03*
X686748D02*
D03*
X679437Y-864991D02*
D03*
X686748D02*
D03*
X677477Y-891385D02*
D03*
X684788D02*
D03*
X677477Y-901487D02*
D03*
X684788D02*
D03*
X432638Y-288246D02*
D03*
X425327D02*
D03*
X437439Y-456905D02*
D03*
X430128D02*
D03*
X430005Y-574294D02*
D03*
X422694D02*
D03*
X429952Y-585171D02*
D03*
X422641D02*
D03*
X390655Y-681189D02*
D03*
X383344D02*
D03*
X560962Y-294002D02*
D03*
X568273D02*
D03*
X502742Y-493419D02*
D03*
X510053D02*
D03*
X502798Y-504030D02*
D03*
X510108D02*
D03*
X561849Y-247258D02*
D03*
X569159D02*
D03*
X561589Y-223697D02*
D03*
X568900D02*
D03*
X500950Y-571606D02*
D03*
X508261D02*
D03*
X500950Y-549048D02*
D03*
X508261D02*
D03*
X521825Y-502938D02*
D03*
X529136D02*
D03*
X521953Y-550753D02*
D03*
X529264D02*
D03*
X549582Y-293571D02*
D03*
X542271D02*
D03*
X550598Y-246739D02*
D03*
X543287D02*
D03*
X588541Y-294023D02*
D03*
X581230D02*
D03*
X588162Y-246781D02*
D03*
X580852D02*
D03*
X607358Y-558037D02*
D03*
X614669D02*
D03*
X609020Y-500705D02*
D03*
X616330D02*
D03*
X621053Y-234541D02*
D03*
X628364D02*
D03*
X620303Y-293126D02*
D03*
X627614D02*
D03*
X540988Y-502697D02*
D03*
X548298D02*
D03*
X541593Y-551397D02*
D03*
X548903D02*
D03*
X480624Y-504796D02*
D03*
X487935D02*
D03*
X480066Y-549939D02*
D03*
X487377D02*
D03*
X587242Y-562532D02*
D03*
X579931D02*
D03*
X586928Y-515038D02*
D03*
X579617D02*
D03*
X649326Y-247156D02*
D03*
X642016D02*
D03*
X649467Y-290765D02*
D03*
X642156D02*
D03*
X522907Y-292548D02*
D03*
X530217D02*
D03*
X523860Y-247654D02*
D03*
X531171D02*
D03*
X501025Y-294116D02*
D03*
X508336D02*
D03*
X501025Y-247889D02*
D03*
X508336D02*
D03*
X697922Y-306154D02*
D03*
X705232D02*
D03*
D26*
X435070Y-189016D02*
D03*
Y-181705D02*
D03*
X423383Y-188833D02*
D03*
Y-181523D02*
D03*
X842181Y-760913D02*
D03*
Y-768224D02*
D03*
X668711Y-503706D02*
D03*
Y-496395D02*
D03*
X713903Y-502956D02*
D03*
Y-495645D02*
D03*
X652268Y-389200D02*
D03*
Y-381889D02*
D03*
X698235Y-388237D02*
D03*
Y-380926D02*
D03*
X652577Y-409143D02*
D03*
Y-401832D02*
D03*
X697579Y-409029D02*
D03*
Y-401718D02*
D03*
X730669Y-406739D02*
D03*
Y-399428D02*
D03*
X773733Y-405494D02*
D03*
Y-398183D02*
D03*
X771785Y-385351D02*
D03*
Y-378041D02*
D03*
X740872Y-385112D02*
D03*
Y-377801D02*
D03*
X740790Y-319360D02*
D03*
Y-326670D02*
D03*
X626216Y-837023D02*
D03*
Y-844334D02*
D03*
X754881Y-742935D02*
D03*
Y-735624D02*
D03*
X507156Y-742156D02*
D03*
Y-734844D02*
D03*
X708382Y-452757D02*
D03*
Y-445446D02*
D03*
X660544Y-453606D02*
D03*
Y-446295D02*
D03*
X471500Y-418406D02*
D03*
Y-411094D02*
D03*
X458799Y-385899D02*
D03*
Y-393210D02*
D03*
X448286Y-385545D02*
D03*
Y-392855D02*
D03*
X724333Y-479213D02*
D03*
Y-471902D02*
D03*
X665042Y-478584D02*
D03*
Y-471274D02*
D03*
X671272Y-427492D02*
D03*
Y-420182D02*
D03*
X681749Y-427636D02*
D03*
Y-420326D02*
D03*
X692283Y-427382D02*
D03*
Y-420071D02*
D03*
X710330Y-333792D02*
D03*
Y-341103D02*
D03*
X672563Y-285236D02*
D03*
Y-277926D02*
D03*
X649707Y-333618D02*
D03*
Y-340929D02*
D03*
X712107Y-358124D02*
D03*
Y-365435D02*
D03*
X650248Y-356763D02*
D03*
Y-364073D02*
D03*
X582172Y-813093D02*
D03*
Y-820403D02*
D03*
D29*
X741756Y-572047D02*
D03*
X779756D02*
D03*
Y-594047D02*
D03*
X741756D02*
D03*
D30*
X771940Y-638244D02*
D03*
X763369D02*
D03*
D32*
X807500Y-253269D02*
D03*
X812500D02*
D03*
X817500D02*
D03*
X822500D02*
D03*
X827500D02*
D03*
X832500D02*
D03*
X810000Y-328769D02*
D03*
X815000D02*
D03*
X820000D02*
D03*
X825000D02*
D03*
X830000D02*
D03*
X857500Y-253269D02*
D03*
X860000Y-328769D02*
D03*
X862500Y-253269D02*
D03*
X865000Y-328769D02*
D03*
X867500Y-253269D02*
D03*
X870000Y-328769D02*
D03*
X872500Y-253269D02*
D03*
X875000Y-328769D02*
D03*
X877500Y-253269D02*
D03*
X880000Y-328769D02*
D03*
X882500Y-253269D02*
D03*
X885000Y-328769D02*
D03*
X887500Y-253269D02*
D03*
X890000Y-328769D02*
D03*
X892500Y-253269D02*
D03*
X895000Y-328769D02*
D03*
X897500Y-253269D02*
D03*
X900000Y-328769D02*
D03*
X902500Y-253269D02*
D03*
X905000Y-328769D02*
D03*
X907500Y-253269D02*
D03*
X910000Y-328769D02*
D03*
X912500Y-253269D02*
D03*
X915000Y-328769D02*
D03*
X917500Y-253269D02*
D03*
X920000Y-328769D02*
D03*
X922500Y-253269D02*
D03*
X925000Y-328769D02*
D03*
X927500Y-253269D02*
D03*
X930000Y-328769D02*
D03*
X932500Y-253269D02*
D03*
X935000Y-328769D02*
D03*
X937500Y-253269D02*
D03*
X940000Y-328769D02*
D03*
X942500Y-253269D02*
D03*
X945000Y-328769D02*
D03*
X947500Y-253269D02*
D03*
X950000Y-328769D02*
D03*
X952500Y-253269D02*
D03*
X955000Y-328769D02*
D03*
X957500Y-253269D02*
D03*
X960000Y-328769D02*
D03*
X962500Y-253269D02*
D03*
X965000Y-328769D02*
D03*
X967500Y-253269D02*
D03*
X970000Y-328769D02*
D03*
X972500Y-253269D02*
D03*
X975000Y-328769D02*
D03*
X977500Y-253269D02*
D03*
X980000Y-328769D02*
D03*
X982500Y-253269D02*
D03*
X985000Y-328769D02*
D03*
X987500Y-253269D02*
D03*
X990000Y-328769D02*
D03*
X992500Y-253269D02*
D03*
X855000Y-328769D02*
D03*
D33*
X796500Y-261019D02*
D03*
X1003500D02*
D03*
D37*
X321335Y-839430D02*
D03*
X333346D02*
D03*
X321335Y-824056D02*
D03*
X333346D02*
D03*
X321335Y-809037D02*
D03*
X333346D02*
D03*
X227626Y-813567D02*
D03*
X215615D02*
D03*
X212959Y-730586D02*
D03*
X200948D02*
D03*
D39*
X194442Y-705032D02*
D03*
X216442D02*
D03*
Y-688032D02*
D03*
X194442D02*
D03*
D40*
X180092Y-694086D02*
D03*
Y-702086D02*
D03*
D41*
X201554Y-674705D02*
D03*
X209554D02*
D03*
D42*
X297290Y-700890D02*
D03*
Y-688879D02*
D03*
D43*
X302192Y-850860D02*
D03*
X264347D02*
D03*
D48*
X608011Y-436121D02*
D03*
X600011D02*
D03*
X592011D02*
D03*
X584011D02*
D03*
X576011D02*
D03*
X568011D02*
D03*
X560011D02*
D03*
X552011D02*
D03*
X544011D02*
D03*
X536011D02*
D03*
X528011D02*
D03*
X520011D02*
D03*
X608011Y-428120D02*
D03*
X600011D02*
D03*
X592011D02*
D03*
X584011D02*
D03*
X576011D02*
D03*
X568011D02*
D03*
X560011D02*
D03*
X552011D02*
D03*
X544011D02*
D03*
X536011D02*
D03*
X528011D02*
D03*
X520011D02*
D03*
X608011Y-420119D02*
D03*
X600011D02*
D03*
X592011D02*
D03*
X584011D02*
D03*
X576011D02*
D03*
X568011D02*
D03*
X560011D02*
D03*
X552011D02*
D03*
X544011D02*
D03*
X536011D02*
D03*
X528011D02*
D03*
X520011D02*
D03*
X608011Y-412118D02*
D03*
X600011D02*
D03*
X592011D02*
D03*
X584011D02*
D03*
X576011D02*
D03*
X568011D02*
D03*
X560011D02*
D03*
X552011D02*
D03*
X544011D02*
D03*
X536011D02*
D03*
X528011D02*
D03*
X520011D02*
D03*
X608011Y-404117D02*
D03*
X600011D02*
D03*
X592011D02*
D03*
X584011D02*
D03*
X576011D02*
D03*
X568011D02*
D03*
X560011D02*
D03*
X552011D02*
D03*
X544011D02*
D03*
X536011D02*
D03*
X528011D02*
D03*
X520011D02*
D03*
X608011Y-396116D02*
D03*
X600011D02*
D03*
X592011D02*
D03*
X584011D02*
D03*
X576011D02*
D03*
X568011D02*
D03*
X560011D02*
D03*
X552011D02*
D03*
X544011D02*
D03*
X536011D02*
D03*
X528011D02*
D03*
X520011D02*
D03*
X608011Y-388115D02*
D03*
X600011D02*
D03*
X592011D02*
D03*
X584011D02*
D03*
X576011D02*
D03*
X568011D02*
D03*
X560011D02*
D03*
X552011D02*
D03*
X544011D02*
D03*
X536011D02*
D03*
X528011D02*
D03*
X520011D02*
D03*
X608011Y-380114D02*
D03*
X600011D02*
D03*
X592011D02*
D03*
X584011D02*
D03*
X576011D02*
D03*
X568011D02*
D03*
X560011D02*
D03*
X552011D02*
D03*
X544011D02*
D03*
X536011D02*
D03*
X528011D02*
D03*
X520011D02*
D03*
X608011Y-372113D02*
D03*
X600011D02*
D03*
X592011D02*
D03*
X584011D02*
D03*
X576011D02*
D03*
X568011D02*
D03*
X560011D02*
D03*
X552011D02*
D03*
X544011D02*
D03*
X536011D02*
D03*
X528011D02*
D03*
X520011D02*
D03*
X608011Y-364112D02*
D03*
X600011D02*
D03*
X592011D02*
D03*
X584011D02*
D03*
X576011D02*
D03*
X568011D02*
D03*
X560011D02*
D03*
X552011D02*
D03*
X544011D02*
D03*
X536011D02*
D03*
X528011D02*
D03*
X520011D02*
D03*
X608011Y-356111D02*
D03*
X600011D02*
D03*
X592011D02*
D03*
X584011D02*
D03*
X576011D02*
D03*
X568011D02*
D03*
X560011D02*
D03*
X552011D02*
D03*
X544011D02*
D03*
X536011D02*
D03*
X528011D02*
D03*
X520011D02*
D03*
X608011Y-348110D02*
D03*
X600011D02*
D03*
X592011D02*
D03*
X584011D02*
D03*
X576011D02*
D03*
X568011D02*
D03*
X560011D02*
D03*
X552011D02*
D03*
X544011D02*
D03*
X536011D02*
D03*
X528011D02*
D03*
X520011D02*
D03*
D49*
X447858Y-50634D02*
D03*
X508058D02*
D03*
D51*
X954000Y-868150D02*
D03*
X942000D02*
D03*
D52*
X921588Y-832280D02*
D03*
X929588D02*
D03*
D53*
X770008Y-142913D02*
D03*
Y-97193D02*
D03*
D54*
X700793Y-120053D02*
D03*
D55*
X621925Y-862129D02*
D03*
X636925D02*
D03*
X-50900Y-685709D02*
D03*
X-35900D02*
D03*
X-50900Y-670705D02*
D03*
X-35900D02*
D03*
X-50900Y-654000D02*
D03*
X-35900D02*
D03*
D57*
X518012Y-665166D02*
D03*
D58*
Y-655667D02*
D03*
Y-646166D02*
D03*
X496688D02*
D03*
Y-665166D02*
D03*
D59*
X623757Y-642189D02*
D03*
Y-648690D02*
D03*
Y-655189D02*
D03*
Y-661689D02*
D03*
Y-668189D02*
D03*
Y-674689D02*
D03*
Y-681189D02*
D03*
Y-687689D02*
D03*
Y-694189D02*
D03*
Y-700689D02*
D03*
X565257D02*
D03*
Y-694189D02*
D03*
Y-687689D02*
D03*
Y-681189D02*
D03*
Y-674689D02*
D03*
Y-668189D02*
D03*
Y-661689D02*
D03*
Y-655189D02*
D03*
Y-648690D02*
D03*
Y-642189D02*
D03*
D60*
X623757Y-634689D02*
D03*
Y-708189D02*
D03*
X565257D02*
D03*
Y-634689D02*
D03*
D61*
X962811Y-786568D02*
D03*
Y-770068D02*
D03*
X978311D02*
D03*
Y-786568D02*
D03*
D63*
X641761Y-520639D02*
D03*
X632511D02*
D03*
X641642Y-555794D02*
D03*
X632392D02*
D03*
X668199Y-543030D02*
D03*
X658949D02*
D03*
X599742Y-248699D02*
D03*
X608992D02*
D03*
X599742Y-281946D02*
D03*
X608992D02*
D03*
X569993Y-561829D02*
D03*
X560743D02*
D03*
X569723Y-502938D02*
D03*
X560473D02*
D03*
X748091Y-497750D02*
D03*
X757341D02*
D03*
X747782Y-443931D02*
D03*
X757032D02*
D03*
X560341Y-282365D02*
D03*
X569591D02*
D03*
X501553Y-514546D02*
D03*
X510802D02*
D03*
X560619Y-236562D02*
D03*
X569869D02*
D03*
X500360Y-560043D02*
D03*
X509610D02*
D03*
X520530Y-515249D02*
D03*
X529780D02*
D03*
X550859Y-282234D02*
D03*
X541609D02*
D03*
X589510Y-282498D02*
D03*
X580260D02*
D03*
X606823Y-545783D02*
D03*
X616073D02*
D03*
X608483Y-511846D02*
D03*
X617733D02*
D03*
X620084Y-245672D02*
D03*
X629334D02*
D03*
X620084Y-280890D02*
D03*
X629334D02*
D03*
X540084Y-514721D02*
D03*
X549334D02*
D03*
X479528Y-516049D02*
D03*
X488778D02*
D03*
X588212Y-550200D02*
D03*
X578962D02*
D03*
X588212Y-503346D02*
D03*
X578962D02*
D03*
X650235Y-235595D02*
D03*
X640985D02*
D03*
X650235Y-279995D02*
D03*
X640985D02*
D03*
X522072Y-281603D02*
D03*
X531322D02*
D03*
X500055Y-283421D02*
D03*
X509305D02*
D03*
X696510Y-317166D02*
D03*
X705761D02*
D03*
D65*
X679959Y-504675D02*
D03*
Y-495425D02*
D03*
X663207Y-389957D02*
D03*
Y-380707D02*
D03*
X663917Y-409999D02*
D03*
Y-400749D02*
D03*
X741461Y-407604D02*
D03*
Y-398354D02*
D03*
X783367Y-386082D02*
D03*
Y-376832D02*
D03*
X730399Y-386082D02*
D03*
Y-376832D02*
D03*
X729901Y-318390D02*
D03*
Y-327640D02*
D03*
X719248Y-453726D02*
D03*
Y-444476D02*
D03*
X672315Y-454054D02*
D03*
Y-444804D02*
D03*
X460690Y-419163D02*
D03*
Y-409913D02*
D03*
X711958Y-479554D02*
D03*
Y-470304D02*
D03*
X675861Y-479554D02*
D03*
Y-470304D02*
D03*
X704845Y-428351D02*
D03*
Y-419101D02*
D03*
X698211Y-332822D02*
D03*
Y-342072D02*
D03*
X661875Y-332649D02*
D03*
Y-341899D02*
D03*
X699230Y-357154D02*
D03*
Y-366404D02*
D03*
X662827Y-357260D02*
D03*
Y-366511D02*
D03*
D67*
X753490Y-243930D02*
D03*
X728090D02*
D03*
Y-221930D02*
D03*
X753490D02*
D03*
D70*
X734461Y-854884D02*
D03*
X739461D02*
D03*
X744461D02*
D03*
X749461D02*
D03*
X754461D02*
D03*
X759461D02*
D03*
X764461D02*
D03*
X769461D02*
D03*
Y-902885D02*
D03*
X764461D02*
D03*
X759461D02*
D03*
X754461D02*
D03*
X749461D02*
D03*
X744461D02*
D03*
X739461D02*
D03*
X734461D02*
D03*
D71*
X775960Y-861385D02*
D03*
Y-866385D02*
D03*
Y-871385D02*
D03*
Y-876385D02*
D03*
Y-881385D02*
D03*
Y-886385D02*
D03*
Y-891385D02*
D03*
Y-896385D02*
D03*
X727961D02*
D03*
Y-891385D02*
D03*
Y-886385D02*
D03*
Y-881385D02*
D03*
Y-876385D02*
D03*
Y-871385D02*
D03*
Y-866385D02*
D03*
Y-861385D02*
D03*
D72*
X741481Y-635828D02*
D03*
Y-644399D02*
D03*
D75*
X534822Y-74522D02*
D03*
Y-108522D02*
D03*
D76*
X649020Y-816201D02*
D03*
X675035D02*
D03*
X649316Y-793375D02*
D03*
X675331D02*
D03*
X649316Y-770981D02*
D03*
X675331D02*
D03*
X595804Y-792280D02*
D03*
X621819D02*
D03*
D77*
X618292Y-825798D02*
D03*
X608721D02*
D03*
X389763Y-666189D02*
D03*
X380192D02*
D03*
X531717Y-740420D02*
D03*
X522146D02*
D03*
D78*
X621716Y-812582D02*
D03*
X607716D02*
D03*
X534348Y-726573D02*
D03*
X520348D02*
D03*
D79*
X557578Y-107022D02*
D03*
Y-74022D02*
D03*
D80*
X511516Y-110244D02*
D03*
Y-84728D02*
D03*
X582189Y-103280D02*
D03*
Y-77764D02*
D03*
D81*
X626970Y-112014D02*
D03*
Y-46014D02*
D03*
D93*
X390915Y-650690D02*
D03*
X381584D02*
D03*
X658141Y-834130D02*
D03*
X648809D02*
D03*
D94*
X363661Y-693221D02*
D03*
Y-679221D02*
D03*
D95*
X507156Y-695583D02*
D03*
Y-704915D02*
D03*
D97*
X589907Y-770238D02*
D03*
X622907D02*
D03*
X813500Y-826403D02*
D03*
X780500D02*
D03*
D98*
X812665Y-798530D02*
D03*
X782649D02*
D03*
D99*
X728578Y-797280D02*
D03*
X754094D02*
D03*
X728467Y-820280D02*
D03*
X753983D02*
D03*
D100*
X626119Y-875974D02*
D03*
Y-886016D02*
D03*
D101*
X746336Y-759239D02*
D03*
D102*
X741336Y-763239D02*
D03*
X746336Y-772238D02*
D03*
X736336D02*
D03*
D103*
X727836Y-775238D02*
D03*
Y-770238D02*
D03*
Y-765238D02*
D03*
Y-760238D02*
D03*
X754836D02*
D03*
Y-765238D02*
D03*
Y-770238D02*
D03*
Y-775238D02*
D03*
D104*
X714224Y-289964D02*
D03*
Y-268964D02*
D03*
X733225D02*
D03*
Y-289964D02*
D03*
D105*
X714724Y-533201D02*
D03*
Y-549701D02*
D03*
D106*
X716058Y-521451D02*
D03*
X723390D02*
D03*
X737215Y-558236D02*
D03*
X744547D02*
D03*
D107*
X742260Y-545869D02*
D03*
X729720D02*
D03*
D112*
X126425Y-901529D02*
D03*
D113*
X111676Y-911528D02*
D03*
Y-906528D02*
D03*
X111675Y-896528D02*
D03*
Y-891528D02*
D03*
X141174D02*
D03*
Y-896528D02*
D03*
X141175Y-906528D02*
D03*
Y-911528D02*
D03*
D114*
X111675Y-901528D02*
D03*
X141174D02*
D03*
D115*
X301000Y-992374D02*
D03*
D116*
X544250Y-1028562D02*
D03*
D117*
X298000Y-168000D02*
D03*
Y-160000D02*
D03*
Y-152000D02*
D03*
Y-144000D02*
D03*
Y-136000D02*
D03*
Y-128000D02*
D03*
Y-120000D02*
D03*
Y-112000D02*
D03*
Y-104000D02*
D03*
Y-96000D02*
D03*
X380000Y-164000D02*
D03*
Y-156000D02*
D03*
Y-148000D02*
D03*
Y-140000D02*
D03*
Y-132000D02*
D03*
Y-124000D02*
D03*
Y-116000D02*
D03*
Y-108000D02*
D03*
Y-100000D02*
D03*
Y-92000D02*
D03*
X380000Y-519500D02*
D03*
Y-527500D02*
D03*
Y-535500D02*
D03*
Y-543500D02*
D03*
Y-551500D02*
D03*
Y-559500D02*
D03*
Y-567500D02*
D03*
Y-575500D02*
D03*
Y-583500D02*
D03*
Y-591500D02*
D03*
X298000Y-595500D02*
D03*
Y-587500D02*
D03*
Y-579500D02*
D03*
Y-571500D02*
D03*
Y-563500D02*
D03*
Y-555500D02*
D03*
Y-547500D02*
D03*
Y-539500D02*
D03*
Y-531500D02*
D03*
Y-523500D02*
D03*
X380000Y-377000D02*
D03*
Y-385000D02*
D03*
Y-393000D02*
D03*
Y-401000D02*
D03*
Y-409000D02*
D03*
Y-417000D02*
D03*
Y-425000D02*
D03*
Y-433000D02*
D03*
Y-441000D02*
D03*
Y-449000D02*
D03*
X298000Y-453000D02*
D03*
Y-445000D02*
D03*
Y-437000D02*
D03*
Y-429000D02*
D03*
Y-421000D02*
D03*
Y-413000D02*
D03*
Y-405000D02*
D03*
Y-397000D02*
D03*
Y-389000D02*
D03*
Y-381000D02*
D03*
X380000Y-234500D02*
D03*
Y-242500D02*
D03*
Y-250500D02*
D03*
Y-258500D02*
D03*
Y-266500D02*
D03*
Y-274500D02*
D03*
Y-282500D02*
D03*
Y-290500D02*
D03*
Y-298500D02*
D03*
Y-306500D02*
D03*
X298000Y-310500D02*
D03*
Y-302500D02*
D03*
Y-294500D02*
D03*
Y-286500D02*
D03*
Y-278500D02*
D03*
Y-270500D02*
D03*
Y-262500D02*
D03*
Y-254500D02*
D03*
Y-246500D02*
D03*
Y-238500D02*
D03*
X380000Y-92000D02*
D03*
Y-100000D02*
D03*
Y-108000D02*
D03*
Y-116000D02*
D03*
Y-124000D02*
D03*
Y-132000D02*
D03*
Y-140000D02*
D03*
Y-148000D02*
D03*
Y-156000D02*
D03*
Y-164000D02*
D03*
X298000Y-168000D02*
D03*
Y-160000D02*
D03*
Y-152000D02*
D03*
Y-144000D02*
D03*
Y-136000D02*
D03*
Y-128000D02*
D03*
Y-120000D02*
D03*
Y-112000D02*
D03*
Y-104000D02*
D03*
Y-96000D02*
D03*
X380000Y-519500D02*
D03*
Y-527500D02*
D03*
Y-535500D02*
D03*
Y-543500D02*
D03*
Y-551500D02*
D03*
Y-559500D02*
D03*
Y-567500D02*
D03*
Y-575500D02*
D03*
Y-583500D02*
D03*
Y-591500D02*
D03*
X298000Y-523500D02*
D03*
Y-531500D02*
D03*
Y-539500D02*
D03*
Y-547500D02*
D03*
Y-555500D02*
D03*
Y-563500D02*
D03*
Y-571500D02*
D03*
Y-579500D02*
D03*
Y-587500D02*
D03*
Y-595500D02*
D03*
X298000Y-453000D02*
D03*
Y-445000D02*
D03*
Y-437000D02*
D03*
Y-429000D02*
D03*
Y-421000D02*
D03*
Y-413000D02*
D03*
Y-405000D02*
D03*
Y-397000D02*
D03*
Y-389000D02*
D03*
Y-381000D02*
D03*
X380000Y-449000D02*
D03*
Y-441000D02*
D03*
Y-433000D02*
D03*
Y-425000D02*
D03*
Y-417000D02*
D03*
Y-409000D02*
D03*
Y-401000D02*
D03*
Y-393000D02*
D03*
Y-385000D02*
D03*
Y-377000D02*
D03*
X379864Y-234500D02*
D03*
Y-242500D02*
D03*
Y-250500D02*
D03*
Y-258500D02*
D03*
Y-266500D02*
D03*
Y-274500D02*
D03*
Y-282500D02*
D03*
Y-290500D02*
D03*
Y-298500D02*
D03*
Y-306500D02*
D03*
X297864Y-238500D02*
D03*
Y-246500D02*
D03*
Y-254500D02*
D03*
Y-262500D02*
D03*
Y-270500D02*
D03*
Y-278500D02*
D03*
Y-286500D02*
D03*
Y-294500D02*
D03*
Y-302500D02*
D03*
Y-310500D02*
D03*
D118*
X415792Y-166500D02*
D03*
Y-158000D02*
D03*
X415587Y-146076D02*
D03*
Y-137576D02*
D03*
X422677Y-564043D02*
D03*
Y-555543D02*
D03*
X420477Y-437323D02*
D03*
Y-428823D02*
D03*
X700554Y-909987D02*
D03*
Y-901487D02*
D03*
Y-884281D02*
D03*
Y-892781D02*
D03*
X700493Y-874435D02*
D03*
Y-865935D02*
D03*
Y-846738D02*
D03*
Y-855238D02*
D03*
X702790Y-769516D02*
D03*
Y-778016D02*
D03*
X689024Y-546202D02*
D03*
Y-554701D02*
D03*
D119*
X84680Y-892878D02*
D03*
X93180D02*
D03*
X707761Y-221899D02*
D03*
X699261D02*
D03*
X422493Y-595155D02*
D03*
X430993D02*
D03*
X419834Y-463889D02*
D03*
X411334D02*
D03*
X425389Y-308327D02*
D03*
X433889D02*
D03*
X425389Y-278698D02*
D03*
X433889D02*
D03*
X944205Y-854238D02*
D03*
X952706D02*
D03*
X787191Y-500147D02*
D03*
X795691D02*
D03*
X848944Y-828439D02*
D03*
X840444D02*
D03*
X827695Y-766260D02*
D03*
X819195D02*
D03*
X828001Y-775238D02*
D03*
X819501D02*
D03*
X687670Y-845103D02*
D03*
X679170D02*
D03*
X956955Y-843201D02*
D03*
X948456D02*
D03*
X600980Y-844224D02*
D03*
X592480D02*
D03*
X956955Y-815451D02*
D03*
X948456D02*
D03*
X799941Y-517639D02*
D03*
X791441D02*
D03*
X701485Y-268964D02*
D03*
X692985D02*
D03*
X758175Y-623056D02*
D03*
X766675D02*
D03*
X757925Y-612539D02*
D03*
X766425D02*
D03*
X539248Y-569300D02*
D03*
X547748D02*
D03*
X524380Y-593111D02*
D03*
X532880D02*
D03*
X524555Y-581698D02*
D03*
X533055D02*
D03*
X602154Y-858497D02*
D03*
X593653D02*
D03*
X602153Y-872953D02*
D03*
X593653D02*
D03*
D120*
X457719Y-465650D02*
D03*
X466219D02*
D03*
X478429Y-590563D02*
D03*
X469929D02*
D03*
X457216Y-179699D02*
D03*
X465716D02*
D03*
X435056Y-207910D02*
D03*
X443556D02*
D03*
X482617Y-455543D02*
D03*
X474117D02*
D03*
X451800Y-265835D02*
D03*
X460300D02*
D03*
X476492Y-301140D02*
D03*
X467992D02*
D03*
X460250Y-279123D02*
D03*
X451750D02*
D03*
X415518Y-207910D02*
D03*
X424019D02*
D03*
X425512Y-169840D02*
D03*
X434012D02*
D03*
X425617Y-198359D02*
D03*
X434117D02*
D03*
D121*
X449503Y-586679D02*
D03*
Y-595179D02*
D03*
X449057Y-574007D02*
D03*
Y-565507D02*
D03*
X446666Y-651577D02*
D03*
Y-643077D02*
D03*
X448317Y-477974D02*
D03*
Y-469474D02*
D03*
X457667Y-444942D02*
D03*
Y-436442D02*
D03*
X451769Y-308531D02*
D03*
Y-300031D02*
D03*
X461974Y-154501D02*
D03*
Y-163001D02*
D03*
X448240Y-447235D02*
D03*
Y-455735D02*
D03*
X426628Y-118598D02*
D03*
Y-127098D02*
D03*
X447357Y-353103D02*
D03*
Y-361603D02*
D03*
X442340Y-244393D02*
D03*
Y-252893D02*
D03*
X440899Y-536551D02*
D03*
Y-528051D02*
D03*
X439475Y-583940D02*
D03*
Y-575440D02*
D03*
X442568Y-298362D02*
D03*
Y-289862D02*
D03*
X415018Y-252893D02*
D03*
Y-244393D02*
D03*
X456966Y-126868D02*
D03*
Y-118368D02*
D03*
X419402Y-361062D02*
D03*
Y-352561D02*
D03*
X420284Y-455419D02*
D03*
Y-446918D02*
D03*
X413933Y-535940D02*
D03*
Y-527440D02*
D03*
X412841Y-583601D02*
D03*
Y-575101D02*
D03*
X413933Y-298484D02*
D03*
Y-289984D02*
D03*
D122*
X423814Y-526668D02*
D03*
X431314D02*
D03*
X424302Y-536815D02*
D03*
X431802D02*
D03*
X436550Y-117103D02*
D03*
X444050D02*
D03*
X436556Y-128217D02*
D03*
X444056D02*
D03*
X428789Y-363043D02*
D03*
X436289D02*
D03*
X428930Y-351721D02*
D03*
X436430D02*
D03*
X425425Y-254555D02*
D03*
X432925D02*
D03*
X425490Y-243022D02*
D03*
X432990D02*
D03*
X325071Y-877985D02*
D03*
X332571D02*
D03*
X239562Y-706737D02*
D03*
X232062D02*
D03*
X239562Y-690032D02*
D03*
X232062D02*
D03*
X58888Y-892964D02*
D03*
X51388D02*
D03*
X951750Y-769678D02*
D03*
X944250D02*
D03*
X943416Y-794625D02*
D03*
X935916D02*
D03*
X943416Y-803530D02*
D03*
X935916D02*
D03*
X934916Y-783318D02*
D03*
X942416D02*
D03*
X467905Y-951414D02*
D03*
X460405D02*
D03*
X173346Y-912678D02*
D03*
X180846D02*
D03*
X173346Y-902968D02*
D03*
X180846D02*
D03*
X435905Y-922588D02*
D03*
X443405D02*
D03*
X451250Y-401617D02*
D03*
X458750D02*
D03*
X722970Y-419538D02*
D03*
X715470D02*
D03*
X443405Y-931340D02*
D03*
X435905D02*
D03*
X39203Y-892878D02*
D03*
X31702D02*
D03*
D123*
X381460Y-1019624D02*
D03*
X391460D02*
D03*
X401460D02*
D03*
X411460D02*
D03*
X421460D02*
D03*
X431460D02*
D03*
X441460D02*
D03*
X451460D02*
D03*
X461460D02*
D03*
X471460D02*
D03*
X481460D02*
D03*
X511460D02*
D03*
X521460D02*
D03*
X531460D02*
D03*
X541460D02*
D03*
X551460D02*
D03*
X561460D02*
D03*
X571460D02*
D03*
X581459D02*
D03*
X591459D02*
D03*
X601459D02*
D03*
X611459D02*
D03*
X621459D02*
D03*
X631459D02*
D03*
X641459D02*
D03*
X651459D02*
D03*
X661459D02*
D03*
X671459D02*
D03*
X681459D02*
D03*
X691459D02*
D03*
X711459D02*
D03*
D124*
X397802Y-866912D02*
D03*
X410502D02*
D03*
X423202D02*
D03*
X435902D02*
D03*
X397802Y-794412D02*
D03*
X410502D02*
D03*
X423202D02*
D03*
X435902D02*
D03*
D125*
X298563Y-796365D02*
D03*
X294563D02*
D03*
X290563D02*
D03*
X286563D02*
D03*
X282563D02*
D03*
X278563D02*
D03*
X274563D02*
D03*
X270563D02*
D03*
X266563D02*
D03*
X262563D02*
D03*
X258563D02*
D03*
X254563D02*
D03*
X250563D02*
D03*
X246563D02*
D03*
Y-727865D02*
D03*
X250563D02*
D03*
X254563D02*
D03*
X258563D02*
D03*
X262563D02*
D03*
X266563D02*
D03*
X270563D02*
D03*
X274563D02*
D03*
X278563D02*
D03*
X282563D02*
D03*
X286563D02*
D03*
X290563D02*
D03*
X294563D02*
D03*
X298563D02*
D03*
D126*
X238312Y-788115D02*
D03*
Y-784115D02*
D03*
Y-780115D02*
D03*
Y-776115D02*
D03*
Y-772115D02*
D03*
Y-768115D02*
D03*
Y-764115D02*
D03*
Y-760115D02*
D03*
Y-756115D02*
D03*
Y-752115D02*
D03*
Y-748115D02*
D03*
Y-744115D02*
D03*
Y-740115D02*
D03*
Y-736115D02*
D03*
X306812Y-744115D02*
D03*
Y-748115D02*
D03*
Y-752115D02*
D03*
Y-756115D02*
D03*
Y-760115D02*
D03*
Y-764115D02*
D03*
Y-768115D02*
D03*
Y-772115D02*
D03*
Y-776115D02*
D03*
Y-780115D02*
D03*
Y-784115D02*
D03*
Y-788115D02*
D03*
Y-740115D02*
D03*
Y-736115D02*
D03*
D127*
X272563Y-762115D02*
D03*
D128*
X283246Y-688656D02*
D03*
Y-681155D02*
D03*
X273856Y-693782D02*
D03*
Y-686282D02*
D03*
X256047Y-688656D02*
D03*
Y-681156D02*
D03*
X265185Y-688655D02*
D03*
Y-681156D02*
D03*
X850027Y-837678D02*
D03*
Y-845178D02*
D03*
X537568Y-952427D02*
D03*
X527189D02*
D03*
Y-959927D02*
D03*
X578172Y-921338D02*
D03*
Y-928838D02*
D03*
X587904Y-948559D02*
D03*
Y-956059D02*
D03*
X500547Y-186000D02*
D03*
Y-193500D02*
D03*
X537568Y-959927D02*
D03*
D129*
X432364Y-705186D02*
D03*
Y-717886D02*
D03*
Y-730586D02*
D03*
Y-743286D02*
D03*
X483364Y-705186D02*
D03*
Y-717886D02*
D03*
Y-730586D02*
D03*
Y-743286D02*
D03*
D130*
X457864Y-724236D02*
D03*
D131*
X519550Y-152500D02*
D03*
X549050D02*
D03*
X577887D02*
D03*
X607387D02*
D03*
X711994Y-173250D02*
D03*
X682494D02*
D03*
X935250Y-196085D02*
D03*
X905750D02*
D03*
X986250D02*
D03*
X956750D02*
D03*
X656994Y-173250D02*
D03*
X627494D02*
D03*
D132*
X534300Y-167750D02*
D03*
X592637D02*
D03*
X697244Y-188500D02*
D03*
X920500Y-211335D02*
D03*
X971500D02*
D03*
X642244Y-188500D02*
D03*
D133*
X905966Y-846993D02*
D03*
Y-841993D02*
D03*
Y-836993D02*
D03*
Y-831993D02*
D03*
X871966Y-846993D02*
D03*
Y-841993D02*
D03*
Y-836993D02*
D03*
Y-831993D02*
D03*
D134*
X659471Y-891105D02*
D03*
Y-882105D02*
D03*
X660344Y-902355D02*
D03*
Y-911355D02*
D03*
X668490Y-911355D02*
D03*
Y-902355D02*
D03*
X668199Y-882163D02*
D03*
Y-891163D02*
D03*
D135*
X858186Y-777125D02*
D03*
Y-783625D02*
D03*
Y-790125D02*
D03*
Y-796625D02*
D03*
Y-803125D02*
D03*
Y-809625D02*
D03*
X916686D02*
D03*
Y-803125D02*
D03*
Y-796625D02*
D03*
Y-790125D02*
D03*
Y-783625D02*
D03*
Y-777125D02*
D03*
D136*
X858186Y-769625D02*
D03*
Y-817125D02*
D03*
X916686D02*
D03*
Y-769625D02*
D03*
D137*
X631546Y-544031D02*
D03*
Y-532031D02*
D03*
X658377Y-564532D02*
D03*
Y-552532D02*
D03*
X609368Y-258816D02*
D03*
Y-270816D02*
D03*
X561601Y-539683D02*
D03*
Y-527683D02*
D03*
X757838Y-476950D02*
D03*
Y-464950D02*
D03*
X569966Y-258664D02*
D03*
Y-270664D02*
D03*
X509643Y-537980D02*
D03*
Y-525980D02*
D03*
X529178Y-539151D02*
D03*
Y-527150D02*
D03*
X541125Y-257763D02*
D03*
Y-269762D02*
D03*
X580885Y-258455D02*
D03*
Y-270455D02*
D03*
X616985Y-534852D02*
D03*
Y-522852D02*
D03*
X629789Y-257077D02*
D03*
Y-269077D02*
D03*
X548905Y-539442D02*
D03*
Y-527442D02*
D03*
X488802Y-538577D02*
D03*
Y-526577D02*
D03*
X578777Y-537920D02*
D03*
Y-525920D02*
D03*
X640244Y-256447D02*
D03*
Y-268447D02*
D03*
X531079Y-258558D02*
D03*
Y-270558D02*
D03*
X509025Y-259568D02*
D03*
Y-271567D02*
D03*
D138*
X703886Y-494779D02*
D03*
X691886D02*
D03*
X686861Y-380114D02*
D03*
X674861D02*
D03*
X687037Y-400584D02*
D03*
X675037D02*
D03*
X764280Y-397769D02*
D03*
X752280D02*
D03*
X762425Y-376315D02*
D03*
X750425D02*
D03*
X717725Y-309641D02*
D03*
X729725D02*
D03*
X696065Y-444624D02*
D03*
X684065D02*
D03*
X699361Y-468154D02*
D03*
X687361D02*
D03*
X685118Y-341485D02*
D03*
X673118D02*
D03*
X685836Y-366257D02*
D03*
X673836D02*
D03*
D139*
X698981Y-244220D02*
D03*
X689481D02*
D03*
Y-233500D02*
D03*
X698981D02*
D03*
X406900Y-734500D02*
D03*
X397400D02*
D03*
D140*
X861028Y-201899D02*
D03*
D141*
X845778Y-187149D02*
D03*
Y-216649D02*
D03*
D142*
X751961Y-878885D02*
D03*
D143*
X-10350Y-650000D02*
D03*
X3150D02*
D03*
X3150Y-681709D02*
D03*
X-10350D02*
D03*
X3150Y-666705D02*
D03*
X-10350D02*
D03*
D144*
X517210Y-829403D02*
D03*
Y-842103D02*
D03*
Y-854803D02*
D03*
Y-867503D02*
D03*
X565709Y-829403D02*
D03*
Y-842103D02*
D03*
Y-854803D02*
D03*
Y-867503D02*
D03*
D145*
X724446Y-40553D02*
D03*
X694946D02*
D03*
D146*
X579773Y-52337D02*
D03*
X553273D02*
D03*
X407250Y-716400D02*
D03*
X380750D02*
D03*
D147*
X694446Y-63244D02*
D03*
Y-77044D02*
D03*
D148*
X491802Y-86407D02*
D03*
Y-100407D02*
D03*
X497870Y-632000D02*
D03*
Y-618000D02*
D03*
D149*
X-26500Y-908878D02*
D03*
X152340Y-745831D02*
D03*
D150*
X-9500Y-908878D02*
D03*
Y-886878D02*
D03*
X-28500D02*
D03*
D151*
X397722Y-744955D02*
D03*
X406722D02*
D03*
D152*
X678381Y-712280D02*
D03*
X733381D02*
D03*
D153*
X692166Y-777749D02*
D03*
Y-768249D02*
D03*
X683235Y-267520D02*
D03*
Y-258020D02*
D03*
X673235D02*
D03*
Y-267520D02*
D03*
D154*
X682974Y-590389D02*
D03*
Y-603089D02*
D03*
Y-615789D02*
D03*
X720474Y-590389D02*
D03*
Y-603089D02*
D03*
Y-615789D02*
D03*
D155*
X689024Y-631839D02*
D03*
X714424D02*
D03*
X689024Y-574339D02*
D03*
X714424D02*
D03*
D156*
X646881Y-721030D02*
D03*
Y-747530D02*
D03*
D157*
X543085Y-797875D02*
D03*
Y-810875D02*
D03*
X562085Y-804375D02*
D03*
D158*
X482445Y-665387D02*
D03*
X470945D02*
D03*
D159*
X45952Y-905178D02*
D03*
X31952D02*
D03*
D160*
X701459Y-1014671D02*
D03*
D161*
X339000Y-82000D02*
D03*
Y-178000D02*
D03*
Y-605500D02*
D03*
Y-509500D02*
D03*
X339000Y-367000D02*
D03*
Y-463000D02*
D03*
X338864Y-320500D02*
D03*
Y-224500D02*
D03*
D162*
X-47400Y31922D02*
D03*
Y-18878D02*
D03*
X3400D02*
D03*
Y31922D02*
D03*
X-43400Y-931600D02*
D03*
Y-982400D02*
D03*
X7400D02*
D03*
Y-931600D02*
D03*
D163*
X-22000Y6522D02*
D03*
X-18000Y-957000D02*
D03*
D164*
X60900Y-738211D02*
D03*
Y-834731D02*
D03*
D165*
X22800Y-711286D02*
D03*
X-28000D02*
D03*
X-2600D02*
D03*
Y-861655D02*
D03*
X-28000D02*
D03*
D166*
X60900Y-698587D02*
D03*
Y-874354D02*
D03*
D167*
X152340Y-847430D02*
D03*
X126940Y-837271D02*
D03*
X152340Y-827111D02*
D03*
Y-806790D02*
D03*
Y-725510D02*
D03*
X126940Y-816951D02*
D03*
Y-796630D02*
D03*
Y-776311D02*
D03*
Y-755991D02*
D03*
Y-735670D02*
D03*
X152340Y-766151D02*
D03*
D168*
X180000Y-543000D02*
D03*
Y-400500D02*
D03*
Y-258000D02*
D03*
Y-115500D02*
D03*
Y-597000D02*
D03*
X30000Y-572000D02*
D03*
X180000Y-454500D02*
D03*
X30000Y-429500D02*
D03*
X180000Y-312000D02*
D03*
X30000Y-287000D02*
D03*
X180000Y-169500D02*
D03*
X30000Y-144500D02*
D03*
X355000Y-628700D02*
D03*
X305000D02*
D03*
X380000Y-343700D02*
D03*
X355000Y-201200D02*
D03*
X305000D02*
D03*
X280000Y-343700D02*
D03*
X80000D02*
D03*
X180000D02*
D03*
X80000Y-486200D02*
D03*
X230000Y-628700D02*
D03*
X130000D02*
D03*
X30000D02*
D03*
X230000Y-201200D02*
D03*
X130000D02*
D03*
X30000D02*
D03*
X180000Y-486200D02*
D03*
X380000D02*
D03*
X280000D02*
D03*
Y-58700D02*
D03*
X380000D02*
D03*
X180000D02*
D03*
X80000D02*
D03*
D169*
X401000Y-557500D02*
D03*
Y-509500D02*
D03*
Y-415000D02*
D03*
Y-367000D02*
D03*
Y-272500D02*
D03*
Y-224500D02*
D03*
Y-130000D02*
D03*
Y-82000D02*
D03*
X258000Y-628700D02*
D03*
Y-486200D02*
D03*
Y-201200D02*
D03*
Y-58700D02*
D03*
D170*
X339000Y-509500D02*
D03*
Y-605500D02*
D03*
Y-463000D02*
D03*
Y-224500D02*
D03*
Y-320500D02*
D03*
Y-82000D02*
D03*
Y-178000D02*
D03*
D171*
Y-367000D02*
D03*
X477151Y-866951D02*
D03*
Y-841551D02*
D03*
Y-816151D02*
D03*
D172*
X900000Y-710268D02*
D03*
D173*
X800000Y-306018D02*
D03*
D174*
X1000000D02*
D03*
D175*
X54890Y9000D02*
D03*
X62353Y-957000D02*
D03*
D176*
X865514Y-59629D02*
D03*
D177*
Y-101629D02*
D03*
Y-143629D02*
D03*
X810514Y-59629D02*
D03*
Y-101629D02*
D03*
Y-143629D02*
D03*
D178*
X986000Y-892800D02*
D03*
D179*
Y-867400D02*
D03*
Y-842000D02*
D03*
Y-816600D02*
D03*
D180*
X477151Y-790751D02*
D03*
M02*
