G04*
G04 #@! TF.GenerationSoftware,Altium Limited,Altium Designer,24.2.2 (26)*
G04*
G04 Layer_Physical_Order=10*
G04 Layer_Color=32896*
%FSLAX44Y44*%
%MOMM*%
G71*
G04*
G04 #@! TF.SameCoordinates,ED65E515-8F89-4409-9B4D-6018ACB33687*
G04*
G04*
G04 #@! TF.FilePolarity,Positive*
G04*
G01*
G75*
%ADD56C,0.4064*%
%ADD149R,1.5700X1.5700*%
%ADD150C,1.5700*%
%ADD153C,0.5000*%
%ADD159C,0.6000*%
%ADD165C,0.1397*%
%ADD167C,1.4200*%
G04:AMPARAMS|DCode=168|XSize=1.42mm|YSize=1.42mm|CornerRadius=0.355mm|HoleSize=0mm|Usage=FLASHONLY|Rotation=270.000|XOffset=0mm|YOffset=0mm|HoleType=Round|Shape=RoundedRectangle|*
%AMROUNDEDRECTD168*
21,1,1.4200,0.7100,0,0,270.0*
21,1,0.7100,1.4200,0,0,270.0*
1,1,0.7100,-0.3550,-0.3550*
1,1,0.7100,-0.3550,0.3550*
1,1,0.7100,0.3550,0.3550*
1,1,0.7100,0.3550,-0.3550*
%
%ADD168ROUNDEDRECTD168*%
%ADD169C,3.4500*%
%ADD170C,1.4500*%
%ADD171C,2.1000*%
%ADD172C,1.8000*%
%ADD173C,2.9500*%
%ADD174C,1.4000*%
%ADD175R,1.4000X1.4000*%
D56*
X12000Y766000D02*
D03*
X375884Y734858D02*
D03*
X362000Y748000D02*
D03*
X385798Y772202D02*
D03*
X296000Y751000D02*
D03*
X257778Y718058D02*
D03*
X237736Y718284D02*
D03*
X237886Y795898D02*
D03*
X237594Y802594D02*
D03*
X219416Y716668D02*
D03*
X207146Y796990D02*
D03*
X125000Y741000D02*
D03*
X46000Y751750D02*
D03*
X81000Y728000D02*
D03*
X494000Y698724D02*
D03*
X464000Y659799D02*
D03*
Y654643D02*
D03*
X271000Y336228D02*
D03*
Y331072D02*
D03*
X210000Y323349D02*
D03*
X202978Y322561D02*
D03*
X493000Y572000D02*
D03*
X494952Y583061D02*
D03*
X495847Y721657D02*
D03*
X501687Y721906D02*
D03*
X489823Y721562D02*
D03*
X485817Y553892D02*
D03*
X484241Y568255D02*
D03*
X420691Y418335D02*
D03*
X322000Y504000D02*
D03*
X330173Y499579D02*
D03*
X366000Y575000D02*
D03*
X303000Y376000D02*
D03*
X304426Y381501D02*
D03*
X272000Y348000D02*
D03*
X267635Y359768D02*
D03*
X281091Y628008D02*
D03*
X187284Y505615D02*
D03*
X183045Y500361D02*
D03*
X191091Y511177D02*
D03*
X48798Y452262D02*
D03*
X274797Y596797D02*
D03*
X294711Y569711D02*
D03*
X296995Y587177D02*
D03*
X158624Y639213D02*
D03*
X290000Y553000D02*
D03*
X219705Y491621D02*
D03*
X265631Y504387D02*
D03*
X197797Y490203D02*
D03*
X163000Y546000D02*
D03*
X343573Y540750D02*
D03*
X312177Y521783D02*
D03*
X123000Y253000D02*
D03*
X276000Y255000D02*
D03*
X233000Y237000D02*
D03*
X296000Y263000D02*
D03*
X187000Y522000D02*
D03*
X163338Y488000D02*
D03*
X174000Y487000D02*
D03*
X271678Y248880D02*
D03*
X232000Y261000D02*
D03*
X59000Y808000D02*
D03*
X162977Y458215D02*
D03*
X275306Y482388D02*
D03*
X272951Y477049D02*
D03*
X142333Y503000D02*
D03*
X194000Y596000D02*
D03*
X297500Y505000D02*
D03*
X274414Y371426D02*
D03*
X303000Y596803D02*
D03*
X360664Y718005D02*
D03*
X42000Y377000D02*
D03*
X85904Y464090D02*
D03*
X128570Y746131D02*
D03*
X101500Y792000D02*
D03*
X101555Y784384D02*
D03*
X103000Y776000D02*
D03*
X291000Y561000D02*
D03*
X243000Y272000D02*
D03*
X343350Y550008D02*
D03*
X227000Y88000D02*
D03*
X224000Y311029D02*
D03*
X242978Y442233D02*
D03*
X264301Y439058D02*
D03*
X475494Y716931D02*
D03*
X481000Y723000D02*
D03*
X477000Y731487D02*
D03*
X194000Y523000D02*
D03*
X187823Y531000D02*
D03*
X229140Y200245D02*
D03*
X133698Y513000D02*
D03*
X173500Y539000D02*
D03*
X477000Y712000D02*
D03*
X398000Y588823D02*
D03*
X437190Y652177D02*
D03*
X234978Y434272D02*
D03*
X269000Y280272D02*
D03*
X242978Y434272D02*
D03*
X269000Y285428D02*
D03*
X276451Y400304D02*
D03*
X459528Y669859D02*
D03*
X500000Y668000D02*
D03*
X458000Y781000D02*
D03*
X443630Y792390D02*
D03*
X296098Y639427D02*
D03*
X307611Y602927D02*
D03*
X501500Y692000D02*
D03*
X495786Y676000D02*
D03*
X364791Y688000D02*
D03*
X182508Y641000D02*
D03*
X182000Y631000D02*
D03*
X152000Y650000D02*
D03*
X184000Y721000D02*
D03*
X167844Y704521D02*
D03*
X78000Y465000D02*
D03*
X422000Y32000D02*
D03*
X201000Y201177D02*
D03*
X56000Y421000D02*
D03*
X73000Y378000D02*
D03*
X96000Y394625D02*
D03*
X81863Y391129D02*
D03*
X91016Y415000D02*
D03*
X103000Y410000D02*
D03*
X71141Y424000D02*
D03*
X96000Y436000D02*
D03*
X99046Y466230D02*
D03*
X477000Y743000D02*
D03*
X252000Y601000D02*
D03*
X254000Y492000D02*
D03*
Y501000D02*
D03*
X263575Y460617D02*
D03*
X270383Y460131D02*
D03*
X273000Y487000D02*
D03*
X252000Y67000D02*
D03*
X258000Y66000D02*
D03*
X341000Y434000D02*
D03*
X270000Y395091D02*
D03*
X269000Y375600D02*
D03*
X268000Y368000D02*
D03*
X230000Y211000D02*
D03*
X228000Y249000D02*
D03*
X149000Y523000D02*
D03*
X330056Y665150D02*
D03*
X313449Y665872D02*
D03*
X319000Y666000D02*
D03*
X355500Y741750D02*
D03*
X242129Y71033D02*
D03*
X263000Y88000D02*
D03*
X267823Y159371D02*
D03*
X42000Y386000D02*
D03*
X149109Y672054D02*
D03*
X148000Y665000D02*
D03*
X154865Y726339D02*
D03*
X144604Y726272D02*
D03*
X89297Y722735D02*
D03*
X28000Y787000D02*
D03*
X241000Y860000D02*
D03*
X491000Y749000D02*
D03*
X374521Y671000D02*
D03*
X319443Y698000D02*
D03*
X292512Y596565D02*
D03*
X158000Y539357D02*
D03*
X195374Y570737D02*
D03*
X12000Y324000D02*
D03*
X204000Y132000D02*
D03*
X197000Y127000D02*
D03*
X140785Y104134D02*
D03*
X138977Y370233D02*
D03*
X266762Y188361D02*
D03*
X170977Y466116D02*
D03*
X56205Y305000D02*
D03*
X63250Y305139D02*
D03*
X22461Y350273D02*
D03*
X17178Y506027D02*
D03*
X183000Y478000D02*
D03*
X402000Y441649D02*
D03*
X404869Y459284D02*
D03*
X349000Y448000D02*
D03*
X46354Y426522D02*
D03*
X21000Y401000D02*
D03*
X11000D02*
D03*
X22000Y394957D02*
D03*
X7000Y503000D02*
D03*
X27000Y452000D02*
D03*
X19000D02*
D03*
X12000D02*
D03*
X45710Y461355D02*
D03*
X49391Y466414D02*
D03*
X45470Y476863D02*
D03*
X52415Y500068D02*
D03*
X46000Y500000D02*
D03*
X13132Y517062D02*
D03*
X85386Y484919D02*
D03*
X68149Y491595D02*
D03*
X60076Y482916D02*
D03*
X66000Y602000D02*
D03*
Y636000D02*
D03*
X66621Y627450D02*
D03*
Y620000D02*
D03*
X66000Y610000D02*
D03*
X35000Y608415D02*
D03*
X92000Y614473D02*
D03*
X90755Y586385D02*
D03*
X69755Y585152D02*
D03*
X291126Y505832D02*
D03*
X285543Y507637D02*
D03*
X470219Y575382D02*
D03*
X483000Y579806D02*
D03*
X490114Y549296D02*
D03*
X487000Y543636D02*
D03*
X491000Y534000D02*
D03*
X429384Y593000D02*
D03*
X392000Y591000D02*
D03*
X386000D02*
D03*
X420961Y412265D02*
D03*
X466000Y391000D02*
D03*
X469000Y396000D02*
D03*
X455944Y391384D02*
D03*
X427000Y433000D02*
D03*
X501760Y584281D02*
D03*
X501000Y574000D02*
D03*
X463000Y586250D02*
D03*
Y593000D02*
D03*
X466253Y441793D02*
D03*
X265113Y449677D02*
D03*
X264707Y422015D02*
D03*
X467242Y664517D02*
D03*
X466339Y649270D02*
D03*
X269535Y273198D02*
D03*
X268000Y292502D02*
D03*
X268958Y325388D02*
D03*
X268778Y342730D02*
D03*
X370454Y274233D02*
D03*
X372000Y292000D02*
D03*
X65783Y239672D02*
D03*
Y244828D02*
D03*
X371000Y285428D02*
D03*
Y280272D02*
D03*
X62500Y252000D02*
D03*
X93000Y308000D02*
D03*
X96646Y311646D02*
D03*
X93000Y330500D02*
D03*
X97000Y375250D02*
D03*
X18749Y540533D02*
D03*
X446750Y595000D02*
D03*
X416500Y594000D02*
D03*
X400000D02*
D03*
X483604Y574089D02*
D03*
X397187Y789573D02*
D03*
X415000Y800000D02*
D03*
X409000Y826000D02*
D03*
X407000Y816000D02*
D03*
X416000Y829000D02*
D03*
Y821000D02*
D03*
X415000Y815000D02*
D03*
X175481Y697597D02*
D03*
X161180Y698499D02*
D03*
X156136Y626810D02*
D03*
X157000Y633000D02*
D03*
X155052Y612272D02*
D03*
X158000Y606750D02*
D03*
X367000Y452000D02*
D03*
X371382Y457013D02*
D03*
X402000Y455000D02*
D03*
X488234Y451000D02*
D03*
X429449Y443000D02*
D03*
X426000Y463000D02*
D03*
X406750Y446000D02*
D03*
X377000Y468000D02*
D03*
X370000Y569000D02*
D03*
X361939Y566325D02*
D03*
X237000Y180000D02*
D03*
X250000Y534000D02*
D03*
X239038Y533000D02*
D03*
X320500Y525000D02*
D03*
X329000Y505000D02*
D03*
X291123Y543596D02*
D03*
X351368Y576237D02*
D03*
X369239Y478351D02*
D03*
X358000Y465000D02*
D03*
X346000Y469197D02*
D03*
X342000Y496803D02*
D03*
X434865Y591215D02*
D03*
X497000Y566000D02*
D03*
X498000Y456160D02*
D03*
X499000Y464000D02*
D03*
X497000Y485000D02*
D03*
Y536000D02*
D03*
X501842Y517519D02*
D03*
X497000Y407802D02*
D03*
X496000Y413802D02*
D03*
X495000Y445000D02*
D03*
X498000Y438302D02*
D03*
X458600Y398000D02*
D03*
X446000Y415000D02*
D03*
X429000Y418116D02*
D03*
X437000D02*
D03*
X435500Y432000D02*
D03*
X378000Y402000D02*
D03*
Y433000D02*
D03*
X372000Y365000D02*
D03*
Y372000D02*
D03*
X379000Y383592D02*
D03*
Y390342D02*
D03*
X440845Y363000D02*
D03*
X434183Y381753D02*
D03*
X439184Y305270D02*
D03*
X444000Y264000D02*
D03*
X432000Y263000D02*
D03*
X422941D02*
D03*
X414000Y274000D02*
D03*
X407000D02*
D03*
X444000Y278000D02*
D03*
X469000Y281592D02*
D03*
X471000Y290000D02*
D03*
X472000Y298467D02*
D03*
X416579Y330579D02*
D03*
X419000Y338000D02*
D03*
X417000Y370000D02*
D03*
X460000Y372000D02*
D03*
X465000Y368000D02*
D03*
Y374967D02*
D03*
X411000Y366000D02*
D03*
Y373667D02*
D03*
X416686Y343413D02*
D03*
X432000Y344000D02*
D03*
X441000Y345000D02*
D03*
X450977Y343474D02*
D03*
X459721Y343973D02*
D03*
X459471Y338000D02*
D03*
Y330419D02*
D03*
X454595Y307000D02*
D03*
X425000Y304000D02*
D03*
X432000D02*
D03*
X333000Y114000D02*
D03*
X353000D02*
D03*
X353131Y178039D02*
D03*
X333000Y178000D02*
D03*
X142000Y154000D02*
D03*
X149000D02*
D03*
X155000D02*
D03*
X157000Y194000D02*
D03*
X150000D02*
D03*
X144000D02*
D03*
X61884Y294000D02*
D03*
X69500D02*
D03*
X76000D02*
D03*
X125000Y214000D02*
D03*
X128000Y219000D02*
D03*
X122000Y220000D02*
D03*
X86576Y207000D02*
D03*
X78349Y211500D02*
D03*
Y218286D02*
D03*
X189000Y81038D02*
D03*
X207000Y78500D02*
D03*
X215061D02*
D03*
X197000Y102100D02*
D03*
X198000Y146000D02*
D03*
Y152000D02*
D03*
X167000Y142371D02*
D03*
Y148000D02*
D03*
X382506Y30162D02*
D03*
X360992Y37387D02*
D03*
X360939Y13734D02*
D03*
X310000Y33000D02*
D03*
X304286Y34000D02*
D03*
X277076Y27381D02*
D03*
X294022Y35644D02*
D03*
X164816Y77890D02*
D03*
X151000Y77000D02*
D03*
X176165Y76375D02*
D03*
X197000Y76000D02*
D03*
X183959Y77056D02*
D03*
X142043Y55417D02*
D03*
X141816Y30903D02*
D03*
X141000Y14000D02*
D03*
X175259Y11686D02*
D03*
X196000Y12000D02*
D03*
X183500D02*
D03*
X217024Y8583D02*
D03*
X238966Y11534D02*
D03*
X228459Y30350D02*
D03*
X228000Y56000D02*
D03*
X272000Y18000D02*
D03*
X251000D02*
D03*
X390675Y643017D02*
D03*
X37000Y837000D02*
D03*
X27000D02*
D03*
X18000D02*
D03*
X379126Y771799D02*
D03*
X379976Y764000D02*
D03*
Y756989D02*
D03*
X384441Y751533D02*
D03*
X366000Y739980D02*
D03*
X362000Y755041D02*
D03*
Y764612D02*
D03*
Y772000D02*
D03*
X392000Y759500D02*
D03*
X386000Y765000D02*
D03*
X380000Y780700D02*
D03*
Y789000D02*
D03*
X385130Y796940D02*
D03*
X401000Y873000D02*
D03*
Y863000D02*
D03*
Y855000D02*
D03*
Y846000D02*
D03*
Y839000D02*
D03*
Y830000D02*
D03*
Y822000D02*
D03*
Y813000D02*
D03*
X394750Y805440D02*
D03*
X385130D02*
D03*
X321000Y814000D02*
D03*
X322000Y807000D02*
D03*
X330000Y805440D02*
D03*
X338000D02*
D03*
X346000D02*
D03*
Y795000D02*
D03*
X344000Y786000D02*
D03*
X341000Y778623D02*
D03*
X335000Y772000D02*
D03*
X330000Y766500D02*
D03*
X324000Y761000D02*
D03*
X315000Y758000D02*
D03*
X320000Y736000D02*
D03*
X312000Y740000D02*
D03*
X327000Y707000D02*
D03*
X317000Y708000D02*
D03*
X310389Y710177D02*
D03*
X303000Y713000D02*
D03*
X295000Y717000D02*
D03*
X289000Y722000D02*
D03*
Y729000D02*
D03*
X281000D02*
D03*
X265000Y725000D02*
D03*
X258000Y730000D02*
D03*
Y738616D02*
D03*
Y755000D02*
D03*
Y763052D02*
D03*
Y772000D02*
D03*
Y780000D02*
D03*
X261000Y787000D02*
D03*
X304000Y753000D02*
D03*
X297000Y761000D02*
D03*
X296000Y770000D02*
D03*
X295000Y779000D02*
D03*
X293000Y788000D02*
D03*
X289000Y797000D02*
D03*
X282000Y805000D02*
D03*
X275000Y811000D02*
D03*
X265000Y812000D02*
D03*
X255000Y810000D02*
D03*
X230000Y826000D02*
D03*
Y817000D02*
D03*
X238000Y813000D02*
D03*
X244000Y807000D02*
D03*
X240469Y789528D02*
D03*
X237736Y779000D02*
D03*
Y771000D02*
D03*
Y762000D02*
D03*
Y753000D02*
D03*
Y746000D02*
D03*
Y738000D02*
D03*
Y730213D02*
D03*
X215500Y725000D02*
D03*
X213000Y733000D02*
D03*
Y740000D02*
D03*
Y748000D02*
D03*
Y755000D02*
D03*
Y764000D02*
D03*
Y774000D02*
D03*
X207000Y782000D02*
D03*
Y790000D02*
D03*
X207267Y805000D02*
D03*
X187000Y816000D02*
D03*
Y824000D02*
D03*
X167000Y822500D02*
D03*
X166000Y811170D02*
D03*
X165000Y802000D02*
D03*
X197528Y756000D02*
D03*
X193000Y749000D02*
D03*
X185000Y746000D02*
D03*
X175000Y744000D02*
D03*
X165000Y742000D02*
D03*
X153000Y741000D02*
D03*
X143000D02*
D03*
X165000Y792000D02*
D03*
X157000Y796000D02*
D03*
X146000D02*
D03*
X78000Y835000D02*
D03*
Y842000D02*
D03*
Y850000D02*
D03*
Y859000D02*
D03*
Y866000D02*
D03*
Y874000D02*
D03*
X158000Y869000D02*
D03*
Y859000D02*
D03*
Y849000D02*
D03*
Y839000D02*
D03*
Y830000D02*
D03*
Y821000D02*
D03*
Y811170D02*
D03*
X151000Y806000D02*
D03*
X142130Y805000D02*
D03*
X133240Y796750D02*
D03*
Y806000D02*
D03*
X93870Y803000D02*
D03*
X84000Y805000D02*
D03*
X78000Y810170D02*
D03*
Y819000D02*
D03*
Y827000D02*
D03*
X89454Y786958D02*
D03*
X109330Y742000D02*
D03*
X118000Y740000D02*
D03*
X129000Y736000D02*
D03*
X137000Y732000D02*
D03*
Y723000D02*
D03*
Y715000D02*
D03*
Y707000D02*
D03*
Y699000D02*
D03*
Y690000D02*
D03*
X134000Y682000D02*
D03*
Y673000D02*
D03*
X136000Y664000D02*
D03*
X140000Y657000D02*
D03*
X144000Y650000D02*
D03*
X147000Y643500D02*
D03*
Y635000D02*
D03*
Y627000D02*
D03*
X145000Y620000D02*
D03*
Y612000D02*
D03*
Y604362D02*
D03*
Y597000D02*
D03*
Y588000D02*
D03*
X143000Y580000D02*
D03*
X82000Y722000D02*
D03*
X73000Y720000D02*
D03*
X71000Y711000D02*
D03*
X80000Y713000D02*
D03*
X87000Y717000D02*
D03*
X94000Y718000D02*
D03*
X96997Y727471D02*
D03*
X72000Y728000D02*
D03*
X106000Y672000D02*
D03*
X105000Y663000D02*
D03*
X103000Y655000D02*
D03*
Y646000D02*
D03*
X102000Y637000D02*
D03*
Y628000D02*
D03*
X104000Y618000D02*
D03*
Y609000D02*
D03*
X101000Y599000D02*
D03*
X131385Y570000D02*
D03*
X124135Y564500D02*
D03*
X115000Y559225D02*
D03*
X131786Y579000D02*
D03*
X116000D02*
D03*
X108000Y586000D02*
D03*
Y593362D02*
D03*
X109000Y601000D02*
D03*
X110000Y609000D02*
D03*
X112000Y616750D02*
D03*
X110000Y625000D02*
D03*
X108000Y633000D02*
D03*
Y641000D02*
D03*
X110000Y650000D02*
D03*
X112000Y658000D02*
D03*
X113000Y666000D02*
D03*
Y674000D02*
D03*
Y681000D02*
D03*
X105000Y682000D02*
D03*
X96000Y684000D02*
D03*
Y676682D02*
D03*
Y670000D02*
D03*
Y663000D02*
D03*
Y655914D02*
D03*
Y648000D02*
D03*
Y640826D02*
D03*
Y632457D02*
D03*
Y624000D02*
D03*
X97000Y617000D02*
D03*
X96000Y608000D02*
D03*
X92000Y601000D02*
D03*
X73000Y787000D02*
D03*
Y780000D02*
D03*
X51000Y755000D02*
D03*
Y748000D02*
D03*
Y740000D02*
D03*
Y733000D02*
D03*
X58000Y712000D02*
D03*
X55000Y719000D02*
D03*
X51000Y726000D02*
D03*
X63000D02*
D03*
Y718000D02*
D03*
X64095Y709744D02*
D03*
X63000Y702224D02*
D03*
Y694000D02*
D03*
Y685000D02*
D03*
X62327Y675995D02*
D03*
X63488Y667071D02*
D03*
X63917Y657167D02*
D03*
X66391Y648787D02*
D03*
X62000Y641000D02*
D03*
X61162Y631000D02*
D03*
Y623217D02*
D03*
Y615000D02*
D03*
X60541Y605813D02*
D03*
X61457Y597925D02*
D03*
X58000Y590000D02*
D03*
X16562Y772000D02*
D03*
X46562Y787000D02*
D03*
X56770D02*
D03*
X66000D02*
D03*
X16562D02*
D03*
X36000D02*
D03*
X56770Y780000D02*
D03*
X66000D02*
D03*
X16562D02*
D03*
X501000Y769438D02*
D03*
Y759230D02*
D03*
Y750000D02*
D03*
Y778000D02*
D03*
Y787230D02*
D03*
Y807289D02*
D03*
Y797438D02*
D03*
Y856921D02*
D03*
Y866000D02*
D03*
X498000Y876300D02*
D03*
X490000Y882000D02*
D03*
X501000Y836438D02*
D03*
Y846289D02*
D03*
Y826229D02*
D03*
Y817000D02*
D03*
X468438Y882633D02*
D03*
X478289D02*
D03*
X458229D02*
D03*
X449000D02*
D03*
X429438D02*
D03*
X439289D02*
D03*
X419230D02*
D03*
X410000D02*
D03*
X390438D02*
D03*
X400289D02*
D03*
X380229D02*
D03*
X371000D02*
D03*
X332000D02*
D03*
X341230D02*
D03*
X361289D02*
D03*
X351438D02*
D03*
X126000D02*
D03*
X135230D02*
D03*
X155289D02*
D03*
X145438D02*
D03*
X87000D02*
D03*
X96230D02*
D03*
X116289D02*
D03*
X106438D02*
D03*
X67267D02*
D03*
X77118D02*
D03*
X57059D02*
D03*
X47829D02*
D03*
X37978D02*
D03*
X26723Y882452D02*
D03*
X14000Y881000D02*
D03*
X7000Y873000D02*
D03*
X6422Y863053D02*
D03*
X6242Y854067D02*
D03*
Y846067D02*
D03*
Y837067D02*
D03*
X6242Y829206D02*
D03*
Y821206D02*
D03*
Y812206D02*
D03*
Y803515D02*
D03*
Y795515D02*
D03*
Y787515D02*
D03*
Y780515D02*
D03*
Y771515D02*
D03*
Y763309D02*
D03*
Y754309D02*
D03*
Y746309D02*
D03*
Y738309D02*
D03*
Y729309D02*
D03*
Y720165D02*
D03*
Y712166D02*
D03*
Y704165D02*
D03*
Y697166D02*
D03*
Y688166D02*
D03*
Y680165D02*
D03*
Y671165D02*
D03*
Y663166D02*
D03*
Y655165D02*
D03*
Y646165D02*
D03*
Y579750D02*
D03*
Y589000D02*
D03*
Y598362D02*
D03*
Y606000D02*
D03*
Y614285D02*
D03*
Y622638D02*
D03*
Y631250D02*
D03*
Y638750D02*
D03*
X13000Y646000D02*
D03*
Y655000D02*
D03*
Y663000D02*
D03*
Y671000D02*
D03*
Y680000D02*
D03*
Y688000D02*
D03*
Y697000D02*
D03*
Y704000D02*
D03*
Y712000D02*
D03*
Y720000D02*
D03*
X29873Y719888D02*
D03*
X30000Y711000D02*
D03*
X30000Y702000D02*
D03*
Y694140D02*
D03*
Y686003D02*
D03*
X30000Y676000D02*
D03*
X30417Y665709D02*
D03*
X30356Y656579D02*
D03*
X30779Y647387D02*
D03*
X31626Y639104D02*
D03*
X33000Y628750D02*
D03*
Y619000D02*
D03*
X31343Y613366D02*
D03*
X31269Y603418D02*
D03*
X34000Y597000D02*
D03*
Y586250D02*
D03*
Y578500D02*
D03*
X39321Y573000D02*
D03*
X12000Y575000D02*
D03*
X17000Y569000D02*
D03*
X21000Y563000D02*
D03*
X28000Y559000D02*
D03*
X396000Y663000D02*
D03*
X496000Y648000D02*
D03*
X493000Y635000D02*
D03*
X499000Y636000D02*
D03*
X390121Y603458D02*
D03*
X390683Y630160D02*
D03*
X392000Y648000D02*
D03*
X145392Y536000D02*
D03*
X144906Y542459D02*
D03*
X220155Y510115D02*
D03*
X222644Y502567D02*
D03*
X203000Y505000D02*
D03*
X215000Y502000D02*
D03*
X178977Y458116D02*
D03*
X295880Y700275D02*
D03*
X308041Y704235D02*
D03*
X150000Y547000D02*
D03*
X240000Y867000D02*
D03*
X255000Y160000D02*
D03*
X218000Y540000D02*
D03*
X230000D02*
D03*
X243000D02*
D03*
X255000D02*
D03*
X218000Y556000D02*
D03*
X230000D02*
D03*
X243000D02*
D03*
X255000D02*
D03*
X218000Y569000D02*
D03*
X230000D02*
D03*
X243000D02*
D03*
X255000D02*
D03*
X220500Y652000D02*
D03*
X232500D02*
D03*
X245500D02*
D03*
X257500D02*
D03*
X220000Y665000D02*
D03*
X232000D02*
D03*
X245000D02*
D03*
X257000D02*
D03*
X221000Y682000D02*
D03*
X233000D02*
D03*
X246000D02*
D03*
X258000D02*
D03*
X220500Y695000D02*
D03*
X232500D02*
D03*
X245500D02*
D03*
X257500D02*
D03*
X413000Y506000D02*
D03*
X425000D02*
D03*
X438000D02*
D03*
X450000D02*
D03*
X413000Y518000D02*
D03*
X425000D02*
D03*
X438000D02*
D03*
X450000D02*
D03*
X413000Y530000D02*
D03*
X425000D02*
D03*
X438000D02*
D03*
X450000D02*
D03*
Y542000D02*
D03*
X438000D02*
D03*
X425000D02*
D03*
X413000D02*
D03*
X313426Y876638D02*
D03*
X242391Y876761D02*
D03*
X160000Y878000D02*
D03*
X167122Y877483D02*
D03*
X308000Y831000D02*
D03*
X298000D02*
D03*
X290000D02*
D03*
X281000D02*
D03*
X272000D02*
D03*
X264000D02*
D03*
X256000D02*
D03*
X249000D02*
D03*
X321000Y822000D02*
D03*
Y831000D02*
D03*
Y841000D02*
D03*
Y850000D02*
D03*
Y858000D02*
D03*
Y867000D02*
D03*
Y876000D02*
D03*
X234000Y832000D02*
D03*
X226000D02*
D03*
X218000D02*
D03*
X208000D02*
D03*
X201000D02*
D03*
X194000D02*
D03*
X185000Y830000D02*
D03*
X172000D02*
D03*
X164000Y833000D02*
D03*
Y844000D02*
D03*
X163000Y854000D02*
D03*
X164000Y863000D02*
D03*
Y871000D02*
D03*
X177835Y826567D02*
D03*
X187000Y807000D02*
D03*
X167974Y773419D02*
D03*
X207000Y770000D02*
D03*
X166029Y780676D02*
D03*
X166000Y768000D02*
D03*
X258000Y746231D02*
D03*
X336000Y708000D02*
D03*
X354906Y694377D02*
D03*
X315115Y746047D02*
D03*
X88000Y294000D02*
D03*
X80000Y237000D02*
D03*
X124494Y239830D02*
D03*
X121000Y227000D02*
D03*
X77437Y226500D02*
D03*
X167000Y196000D02*
D03*
X62727Y226116D02*
D03*
X70000Y236000D02*
D03*
X71000Y248000D02*
D03*
X364243Y327336D02*
D03*
X371600Y333000D02*
D03*
X375832Y344012D02*
D03*
X365412Y314721D02*
D03*
X363000Y424000D02*
D03*
X333000Y389000D02*
D03*
X87445Y334857D02*
D03*
X91153Y339410D02*
D03*
X86000Y344400D02*
D03*
X92000Y349400D02*
D03*
X86805Y354400D02*
D03*
X66979Y369123D02*
D03*
X61847Y373689D02*
D03*
X56981Y368842D02*
D03*
X52099Y374005D02*
D03*
X47030Y368748D02*
D03*
X36937Y369217D02*
D03*
X14077Y354337D02*
D03*
X17000Y344000D02*
D03*
X23090Y339400D02*
D03*
X18161Y334388D02*
D03*
X23090Y329459D02*
D03*
X23000Y319400D02*
D03*
X36937Y305238D02*
D03*
X47000Y305000D02*
D03*
X268000Y135000D02*
D03*
X271646Y131354D02*
D03*
X269000Y113000D02*
D03*
X272646Y116646D02*
D03*
X263000Y104000D02*
D03*
X247000Y162000D02*
D03*
X242056Y157704D02*
D03*
X236772Y152618D02*
D03*
X227062Y158629D02*
D03*
X221976Y153014D02*
D03*
X200000Y137000D02*
D03*
X206000Y122000D02*
D03*
X201632Y116752D02*
D03*
X206000Y112000D02*
D03*
X247000Y91000D02*
D03*
X241896Y96159D02*
D03*
X237000Y92000D02*
D03*
X231889Y96579D02*
D03*
X222000Y96000D02*
D03*
X365000Y302000D02*
D03*
X485552Y528984D02*
D03*
X486003Y518866D02*
D03*
X490450Y513517D02*
D03*
X486325Y508942D02*
D03*
X487743Y502111D02*
D03*
X486906Y493877D02*
D03*
Y488720D02*
D03*
X487356Y481423D02*
D03*
X469958Y466020D02*
D03*
X465000Y462885D02*
D03*
X460097Y467116D02*
D03*
X455071Y463830D02*
D03*
X450301Y467439D02*
D03*
X445020Y464023D02*
D03*
X439990Y467890D02*
D03*
X434964Y464023D02*
D03*
X430066Y468019D02*
D03*
X420078Y467052D02*
D03*
X404869Y467310D02*
D03*
X378898Y483937D02*
D03*
X373872Y503852D02*
D03*
X378000Y509000D02*
D03*
X378576Y539103D02*
D03*
X372583Y543807D02*
D03*
X378061Y548961D02*
D03*
X372000Y554000D02*
D03*
X377000Y559000D02*
D03*
X410171Y589000D02*
D03*
X405015D02*
D03*
X400000Y577726D02*
D03*
X415000Y579440D02*
D03*
X420210Y574545D02*
D03*
X430198Y574481D02*
D03*
X445000Y580203D02*
D03*
X450435Y576221D02*
D03*
X455397Y580474D02*
D03*
X460423Y574931D02*
D03*
X464870Y580473D02*
D03*
X400121Y758304D02*
D03*
X404062Y763463D02*
D03*
X432069Y670544D02*
D03*
X475324Y736363D02*
D03*
X376500Y712500D02*
D03*
X382308Y708575D02*
D03*
Y700575D02*
D03*
X376500Y704500D02*
D03*
X382308Y692575D02*
D03*
X376500Y696500D02*
D03*
X382558Y732575D02*
D03*
Y724575D02*
D03*
X376750Y728500D02*
D03*
X382558Y716575D02*
D03*
X376750Y720500D02*
D03*
X416075Y758192D02*
D03*
X420000Y764000D02*
D03*
X408075Y758192D02*
D03*
X452000Y764000D02*
D03*
X448075Y758192D02*
D03*
X440075D02*
D03*
X444000Y764000D02*
D03*
X432075Y758192D02*
D03*
X436000Y764000D02*
D03*
X469692Y716425D02*
D03*
Y724425D02*
D03*
Y732425D02*
D03*
X475500Y688500D02*
D03*
X469692Y700425D02*
D03*
X475500Y696500D02*
D03*
X469692Y708425D02*
D03*
X428000Y665000D02*
D03*
X447925Y670808D02*
D03*
X420000Y665000D02*
D03*
X423925Y670808D02*
D03*
X412000Y665000D02*
D03*
X415925Y670808D02*
D03*
X407925D02*
D03*
X404000Y665000D02*
D03*
X195374Y580696D02*
D03*
X191150Y575784D02*
D03*
X191000Y566000D02*
D03*
X195758Y560643D02*
D03*
X194935Y535791D02*
D03*
X230100Y506441D02*
D03*
X234927Y511817D02*
D03*
X240000Y506510D02*
D03*
X244967Y511653D02*
D03*
X250014Y506496D02*
D03*
X255006Y510446D02*
D03*
X260000Y505000D02*
D03*
X265100Y509952D02*
D03*
X286057Y525806D02*
D03*
X279912Y530579D02*
D03*
X284905Y536010D02*
D03*
X279254Y540783D02*
D03*
X285289Y545556D02*
D03*
X280297Y550822D02*
D03*
X280000Y571000D02*
D03*
X279254Y580830D02*
D03*
X267000Y595014D02*
D03*
X250000Y595014D02*
D03*
X245000Y599000D02*
D03*
X240000Y595000D02*
D03*
X235000Y598431D02*
D03*
X230000Y595000D02*
D03*
X142941Y557388D02*
D03*
X82557Y585862D02*
D03*
X76309Y585152D02*
D03*
X113590Y526777D02*
D03*
X95560Y507976D02*
D03*
X89105Y508677D02*
D03*
X82791Y507836D02*
D03*
X76267Y507976D02*
D03*
X69742Y507695D02*
D03*
X63358Y508186D02*
D03*
X56833Y508747D02*
D03*
X35927Y549788D02*
D03*
X34000Y541000D02*
D03*
X36418Y533793D02*
D03*
X38000Y520000D02*
D03*
X37000Y558000D02*
D03*
X192000Y660500D02*
D03*
X187994Y655361D02*
D03*
X229000Y629000D02*
D03*
X245000D02*
D03*
X286340Y645787D02*
D03*
X281070Y650463D02*
D03*
X286637Y655659D02*
D03*
X281961Y660631D02*
D03*
X286934Y665976D02*
D03*
X282332Y670652D02*
D03*
X287152Y676000D02*
D03*
X281918Y681000D02*
D03*
X287156Y685496D02*
D03*
X282109Y690691D02*
D03*
X286000Y696000D02*
D03*
X282000Y701000D02*
D03*
X275000Y724000D02*
D03*
X278250Y718000D02*
D03*
X198000Y723000D02*
D03*
Y717000D02*
D03*
X187845Y695368D02*
D03*
X192818Y690841D02*
D03*
X188067Y685497D02*
D03*
X193412Y680523D02*
D03*
X188250Y675000D02*
D03*
X193857Y670651D02*
D03*
X188000Y666000D02*
D03*
X189000Y645500D02*
D03*
X193783Y650463D02*
D03*
X162977Y418116D02*
D03*
X210978Y402155D02*
D03*
X299320Y499268D02*
D03*
X287000Y422802D02*
D03*
Y498802D02*
D03*
X276438Y460866D02*
D03*
X299773Y423598D02*
D03*
X312008Y498588D02*
D03*
X325000Y422802D02*
D03*
X338000Y460802D02*
D03*
X114977Y442233D02*
D03*
X122977Y338194D02*
D03*
X114977Y450233D02*
D03*
Y410155D02*
D03*
Y418154D02*
D03*
X122977Y450194D02*
D03*
X130977Y442233D02*
D03*
X122977Y426115D02*
D03*
X130977Y450233D02*
D03*
X122977Y434233D02*
D03*
Y458194D02*
D03*
X130977Y434272D02*
D03*
Y458233D02*
D03*
X122977Y418116D02*
D03*
X130977Y466233D02*
D03*
X114977D02*
D03*
Y458233D02*
D03*
X122977Y466194D02*
D03*
Y410116D02*
D03*
Y402116D02*
D03*
Y386155D02*
D03*
Y394155D02*
D03*
X114977Y394194D02*
D03*
Y354194D02*
D03*
X122977Y362155D02*
D03*
Y378155D02*
D03*
X114977Y386194D02*
D03*
Y378194D02*
D03*
Y346233D02*
D03*
Y362194D02*
D03*
Y338233D02*
D03*
X122977Y346194D02*
D03*
Y370155D02*
D03*
Y354155D02*
D03*
X175182Y274950D02*
D03*
X167182D02*
D03*
X175182Y282950D02*
D03*
X174979Y260154D02*
D03*
X167182Y266950D02*
D03*
X140182Y281950D02*
D03*
X159182Y274950D02*
D03*
X159182Y282950D02*
D03*
Y266950D02*
D03*
X151182D02*
D03*
Y282950D02*
D03*
Y218951D02*
D03*
Y234951D02*
D03*
X159182Y218951D02*
D03*
Y234951D02*
D03*
X159182Y226950D02*
D03*
X167182Y218951D02*
D03*
Y234951D02*
D03*
X167182Y226950D02*
D03*
X175182Y218951D02*
D03*
Y234951D02*
D03*
X175182Y226950D02*
D03*
X151182D02*
D03*
X202978Y466116D02*
D03*
X154977D02*
D03*
X186977D02*
D03*
X194977D02*
D03*
X178977D02*
D03*
X162977D02*
D03*
X138977Y450233D02*
D03*
Y466233D02*
D03*
X146977Y458233D02*
D03*
Y466233D02*
D03*
Y450233D02*
D03*
X170977Y458116D02*
D03*
X186977D02*
D03*
X194977D02*
D03*
X154977D02*
D03*
X202978D02*
D03*
X138977Y458233D02*
D03*
X210978Y442233D02*
D03*
Y458233D02*
D03*
Y466233D02*
D03*
Y450233D02*
D03*
Y434272D02*
D03*
Y418154D02*
D03*
Y378194D02*
D03*
Y394194D02*
D03*
Y386194D02*
D03*
Y410155D02*
D03*
Y426155D02*
D03*
X218978Y378194D02*
D03*
Y386194D02*
D03*
Y466233D02*
D03*
Y450233D02*
D03*
Y442233D02*
D03*
Y402155D02*
D03*
Y410155D02*
D03*
Y426155D02*
D03*
Y418154D02*
D03*
Y394194D02*
D03*
Y458233D02*
D03*
X226978Y450233D02*
D03*
Y458233D02*
D03*
Y466233D02*
D03*
Y442233D02*
D03*
Y410155D02*
D03*
Y418154D02*
D03*
Y426155D02*
D03*
Y434272D02*
D03*
Y354194D02*
D03*
Y378194D02*
D03*
Y346233D02*
D03*
Y338233D02*
D03*
Y386194D02*
D03*
Y362194D02*
D03*
Y394194D02*
D03*
Y370194D02*
D03*
Y402155D02*
D03*
X210978Y362194D02*
D03*
Y354194D02*
D03*
X218978Y370194D02*
D03*
Y362194D02*
D03*
Y354194D02*
D03*
X202978D02*
D03*
Y362194D02*
D03*
Y370194D02*
D03*
X210978D02*
D03*
X154977Y450116D02*
D03*
X162977Y442116D02*
D03*
X178977D02*
D03*
X186977D02*
D03*
Y450116D02*
D03*
X194977Y442116D02*
D03*
X202978Y450116D02*
D03*
X194977D02*
D03*
X178977D02*
D03*
X170977Y442116D02*
D03*
Y450116D02*
D03*
X154977Y442116D02*
D03*
X146977Y442233D02*
D03*
X194977Y394155D02*
D03*
X186977Y354194D02*
D03*
Y370194D02*
D03*
Y394155D02*
D03*
X194977Y386155D02*
D03*
X178977D02*
D03*
Y394155D02*
D03*
X186977Y386155D02*
D03*
X194977Y370194D02*
D03*
Y362194D02*
D03*
Y354194D02*
D03*
X186977Y362194D02*
D03*
X178977Y370194D02*
D03*
Y362194D02*
D03*
Y354194D02*
D03*
X194977Y402116D02*
D03*
X170977Y418116D02*
D03*
Y410116D02*
D03*
Y402116D02*
D03*
X178977Y418116D02*
D03*
Y410116D02*
D03*
Y402116D02*
D03*
X186977Y418116D02*
D03*
Y410116D02*
D03*
Y402116D02*
D03*
X194977Y418116D02*
D03*
Y410116D02*
D03*
X162977Y402116D02*
D03*
Y410116D02*
D03*
X202978Y434155D02*
D03*
X178977D02*
D03*
X194977D02*
D03*
X170977D02*
D03*
X186977D02*
D03*
X154977D02*
D03*
X162977D02*
D03*
X146977Y434272D02*
D03*
X218978Y346233D02*
D03*
X210978D02*
D03*
X170977Y338233D02*
D03*
X202978D02*
D03*
Y346233D02*
D03*
X194977Y338233D02*
D03*
Y346233D02*
D03*
X186977Y338233D02*
D03*
Y346233D02*
D03*
X178977Y338233D02*
D03*
Y346233D02*
D03*
X210978Y338233D02*
D03*
X242978Y386194D02*
D03*
Y458233D02*
D03*
Y402155D02*
D03*
Y426155D02*
D03*
Y466233D02*
D03*
Y394194D02*
D03*
Y418154D02*
D03*
Y450233D02*
D03*
Y370194D02*
D03*
Y378194D02*
D03*
Y362194D02*
D03*
Y338233D02*
D03*
X234978D02*
D03*
Y346233D02*
D03*
X242978D02*
D03*
X234978Y354194D02*
D03*
Y386194D02*
D03*
Y458233D02*
D03*
Y466233D02*
D03*
Y442233D02*
D03*
Y450233D02*
D03*
Y410155D02*
D03*
Y370194D02*
D03*
Y426155D02*
D03*
Y394194D02*
D03*
Y402155D02*
D03*
Y378194D02*
D03*
Y418154D02*
D03*
Y362194D02*
D03*
X199182Y266950D02*
D03*
X207182Y274950D02*
D03*
X183182Y282950D02*
D03*
X199182D02*
D03*
X191182Y274950D02*
D03*
X215182Y266950D02*
D03*
X191182Y282950D02*
D03*
X215182Y274950D02*
D03*
X183182Y266950D02*
D03*
X207182D02*
D03*
Y282950D02*
D03*
X191182Y266950D02*
D03*
X215182Y282950D02*
D03*
X199182Y274950D02*
D03*
X183182Y234951D02*
D03*
X183182Y226950D02*
D03*
X207182Y234951D02*
D03*
X191182Y218951D02*
D03*
X191182Y226950D02*
D03*
X215182Y218951D02*
D03*
X199182D02*
D03*
X199182Y226950D02*
D03*
X215182Y234951D02*
D03*
X207182Y218951D02*
D03*
X207182Y226950D02*
D03*
X191182Y234951D02*
D03*
X215182Y226950D02*
D03*
X183182Y218951D02*
D03*
X199182Y234951D02*
D03*
X154977Y338233D02*
D03*
X170977Y346233D02*
D03*
X162977D02*
D03*
X154977D02*
D03*
X146977Y338233D02*
D03*
X138977D02*
D03*
X130977Y346233D02*
D03*
Y338233D02*
D03*
X146977Y394194D02*
D03*
Y386194D02*
D03*
X138977D02*
D03*
Y394194D02*
D03*
X130977Y386194D02*
D03*
Y394194D02*
D03*
X154977Y362194D02*
D03*
Y370194D02*
D03*
X170977Y362194D02*
D03*
Y394155D02*
D03*
X162977Y362194D02*
D03*
X170977Y370194D02*
D03*
Y354194D02*
D03*
X162977Y386155D02*
D03*
Y394155D02*
D03*
X170977Y386155D02*
D03*
X162977Y370194D02*
D03*
Y354194D02*
D03*
X154977D02*
D03*
X146977Y346233D02*
D03*
Y362194D02*
D03*
Y370194D02*
D03*
Y354194D02*
D03*
Y378194D02*
D03*
X138977Y354194D02*
D03*
Y362194D02*
D03*
Y378194D02*
D03*
Y346233D02*
D03*
X130977Y354194D02*
D03*
Y362194D02*
D03*
Y378194D02*
D03*
Y370194D02*
D03*
X146977Y402155D02*
D03*
X130977Y426155D02*
D03*
Y418154D02*
D03*
X138977Y426155D02*
D03*
Y418154D02*
D03*
X146977Y410155D02*
D03*
X130977Y402155D02*
D03*
X146977Y418154D02*
D03*
Y426155D02*
D03*
X138977Y410155D02*
D03*
Y402155D02*
D03*
X130977Y410155D02*
D03*
D149*
X373400Y628250D02*
D03*
D150*
X348000D02*
D03*
X322600D02*
D03*
D153*
X418500Y729500D02*
D03*
X411000Y722000D02*
D03*
Y707000D02*
D03*
X426000D02*
D03*
X418500Y699500D02*
D03*
X433500D02*
D03*
X441000Y707000D02*
D03*
Y722000D02*
D03*
X426000D02*
D03*
X433500Y729500D02*
D03*
Y714500D02*
D03*
X418500D02*
D03*
X68000Y323400D02*
D03*
X59000D02*
D03*
X50000D02*
D03*
X41000D02*
D03*
X68000Y332400D02*
D03*
X59000D02*
D03*
X50000D02*
D03*
X41000D02*
D03*
X68000Y341400D02*
D03*
X59000D02*
D03*
X50000D02*
D03*
X41000D02*
D03*
X68000Y350400D02*
D03*
X59000D02*
D03*
X50000D02*
D03*
X41000D02*
D03*
X92755Y562725D02*
D03*
X81755Y551725D02*
D03*
Y562725D02*
D03*
X70755Y551725D02*
D03*
X92755D02*
D03*
Y540725D02*
D03*
X70755D02*
D03*
X81755D02*
D03*
X59755Y562725D02*
D03*
X70755D02*
D03*
X59755Y529725D02*
D03*
Y551725D02*
D03*
Y540725D02*
D03*
X92755Y529725D02*
D03*
X81755D02*
D03*
X70755D02*
D03*
D159*
X234500Y114500D02*
D03*
Y124500D02*
D03*
Y134500D02*
D03*
X224500Y114500D02*
D03*
Y124500D02*
D03*
Y134500D02*
D03*
X244500Y114500D02*
D03*
Y124500D02*
D03*
Y134500D02*
D03*
D165*
X367594Y744000D02*
X368417Y744823D01*
X345479Y757177D02*
X358656Y744000D01*
X367594D01*
X424245Y744823D02*
X436643Y732425D01*
X368417Y744823D02*
X424245D01*
X144600Y726276D02*
Y731218D01*
X138000Y737818D02*
X144600Y731218D01*
X138000Y737818D02*
Y743000D01*
X124149Y756851D02*
X138000Y743000D01*
X100147Y756851D02*
X124149D01*
X46000Y751750D02*
Y758562D01*
X50437Y763000D01*
X57000D01*
X76823Y743177D01*
X274945Y514694D02*
X286057Y525806D01*
X271745Y498284D02*
X274945Y501483D01*
Y514694D01*
X267264Y498284D02*
X271745D01*
X263989Y495009D02*
X267264Y498284D01*
X258728Y476728D02*
X263989Y481989D01*
Y495009D01*
X258728Y402005D02*
Y476728D01*
Y402005D02*
X263000Y397733D01*
Y357000D02*
Y397733D01*
Y357000D02*
X272000Y348000D01*
X48798Y452262D02*
X61060Y440000D01*
X111804D01*
X121472Y430332D01*
X167155D01*
X170977Y434155D01*
X279000Y506500D02*
X285020Y512519D01*
X266639Y494139D02*
X268295Y495795D01*
X279000Y498000D02*
Y506500D01*
X268295Y495795D02*
X276795D01*
X279000Y498000D01*
X293747Y549177D02*
X356570Y612000D01*
X265100Y509952D02*
Y547110D01*
X273584Y555594D02*
X282000D01*
X265100Y547110D02*
X273584Y555594D01*
X282000D02*
X288417Y549177D01*
X293747D01*
X285673Y557327D02*
X290000Y553000D01*
X285673Y557327D02*
Y565673D01*
X356570Y612000D02*
X382000D01*
X404000Y634000D02*
Y665000D01*
X382000Y612000D02*
X404000Y634000D01*
X279912Y530579D02*
X289715D01*
X310868Y551731D01*
Y559868D02*
X357000Y606000D01*
X310868Y551731D02*
Y559868D01*
X357000Y606000D02*
X383000D01*
X412000Y635000D02*
Y665000D01*
X383000Y606000D02*
X412000Y635000D01*
X386482Y670808D02*
X407925D01*
X367674Y652000D02*
X386482Y670808D01*
X329000Y652000D02*
X367674D01*
X286000Y609000D02*
X329000Y652000D01*
X286000Y589000D02*
Y609000D01*
Y589000D02*
X290000Y585000D01*
Y570000D02*
Y585000D01*
X285673Y565673D02*
X290000Y570000D01*
X210797Y575797D02*
X230000Y595000D01*
X210797Y500529D02*
X219705Y491621D01*
X210797Y500529D02*
Y575797D01*
X32000Y736000D02*
Y770000D01*
X208869Y601869D02*
X231561D01*
X235000Y598431D01*
X199000Y592000D02*
X208869Y601869D01*
X181000Y592000D02*
X199000D01*
X174000Y599000D02*
X181000Y592000D01*
X174000Y599000D02*
Y635000D01*
X157357Y651643D02*
X174000Y635000D01*
X157357Y651643D02*
Y720448D01*
X158688Y721779D02*
Y745312D01*
X157357Y720448D02*
X158688Y721779D01*
X144500Y759500D02*
X158688Y745312D01*
X35000Y773000D02*
X100594D01*
X114094Y759500D01*
X144500D01*
X32000Y770000D02*
X35000Y773000D01*
X24395Y730772D02*
Y768408D01*
X31987Y776000D02*
X74406D01*
X24395Y768408D02*
X31987Y776000D01*
X74406D02*
X78229Y779823D01*
X53000Y519000D02*
Y715000D01*
X32000Y736000D02*
X53000Y715000D01*
X35000Y501000D02*
X53000Y519000D01*
X44771Y422700D02*
X52294D01*
X59194Y429600D02*
X114087D01*
X52294Y422700D02*
X59194Y429600D01*
X35000Y432471D02*
X44771Y422700D01*
X35000Y432471D02*
Y501000D01*
X114087Y429600D02*
X121394Y422293D01*
X157739D01*
X158893Y423447D01*
X195239D01*
X202316Y416369D01*
Y413410D02*
Y416369D01*
Y413410D02*
X209394Y406332D01*
X212206D01*
X214800Y403738D01*
Y374016D02*
Y403738D01*
X210978Y370194D02*
X214800Y374016D01*
X187797Y490203D02*
X197797D01*
X179106Y498894D02*
X187797Y490203D01*
X179106Y498894D02*
Y538106D01*
X191000Y550000D01*
Y566000D01*
X259500Y239469D02*
Y312076D01*
X167155Y456533D02*
Y468781D01*
X251000Y320576D02*
X259500Y312076D01*
X251000Y320576D02*
Y393500D01*
X249000Y395500D02*
X251000Y393500D01*
X249000Y395500D02*
Y441617D01*
X244218Y446399D02*
X249000Y441617D01*
X238823Y448982D02*
Y451794D01*
X236251Y454366D02*
X238823Y451794D01*
X233439Y454366D02*
X236251D01*
X230889Y456916D02*
Y459728D01*
X228384Y462233D02*
X230889Y459728D01*
X238823Y448982D02*
X241405Y446399D01*
X244218D01*
X225572Y462233D02*
X228384D01*
X222800Y465004D02*
X225572Y462233D01*
X230889Y456916D02*
X233439Y454366D01*
X222800Y465004D02*
Y467816D01*
X216617Y474000D02*
X222800Y467816D01*
X172374Y474000D02*
X216617D01*
X167155Y468781D02*
X172374Y474000D01*
X256000Y229101D02*
Y308881D01*
X175155Y456533D02*
Y469939D01*
X247000Y317881D02*
X256000Y308881D01*
X247000Y317881D02*
Y379577D01*
X244411Y382166D02*
X247000Y379577D01*
X241599Y382166D02*
X244411D01*
X239010Y384755D02*
X241599Y382166D01*
X239010Y384755D02*
Y443607D01*
X236271Y446346D02*
X239010Y443607D01*
X233459Y446346D02*
X236271D01*
X230930Y448875D02*
X233459Y446346D01*
X230930Y448875D02*
Y451687D01*
X228465Y454152D02*
X230930Y451687D01*
X225653Y454152D02*
X228465D01*
X222963Y456842D02*
X225653Y454152D01*
X222963Y456842D02*
Y459654D01*
X220531Y462086D02*
X222963Y459654D01*
X201602Y462086D02*
X220531D01*
X198978Y464710D02*
X201602Y462086D01*
X198978Y464710D02*
Y467522D01*
X196561Y469939D02*
X198978Y467522D01*
X175155Y469939D02*
X196561D01*
X251000Y114000D02*
Y307051D01*
X239000Y319051D02*
X251000Y307051D01*
X239000Y319051D02*
Y379577D01*
X236308Y382269D02*
X239000Y379577D01*
X233496Y382269D02*
X236308D01*
X231003Y384762D02*
X233496Y382269D01*
X231003Y384762D02*
Y443613D01*
X228258Y446359D02*
X231003Y443613D01*
X225446Y446359D02*
X228258D01*
X222904Y448901D02*
X225446Y446359D01*
X222904Y448901D02*
Y451713D01*
X220413Y454204D02*
X222904Y451713D01*
X201484Y454204D02*
X220413D01*
X199096Y456591D02*
X201484Y454204D01*
X199096Y456591D02*
Y459403D01*
X196561Y461939D02*
X199096Y459403D01*
X182800Y461939D02*
X196561D01*
X178977Y458116D02*
X182800Y461939D01*
X230800Y320200D02*
X247367Y303633D01*
Y184961D02*
Y303633D01*
X230800Y320200D02*
Y371777D01*
X228265Y374312D02*
X230800Y371777D01*
X225453Y374312D02*
X228265D01*
X222918Y376847D02*
X225453Y374312D01*
X222918Y376847D02*
Y443699D01*
X220442Y446175D02*
X222918Y443699D01*
X193513Y446175D02*
X220442D01*
X190800Y448887D02*
X193513Y446175D01*
X190800Y448887D02*
Y454293D01*
X186977Y458116D02*
X190800Y454293D01*
X113394Y413977D02*
X127155D01*
X130977Y410155D01*
X112416Y412999D02*
X113394Y413977D01*
X110182Y412999D02*
X112416D01*
X103181Y420000D02*
X110182Y412999D01*
X81000Y420000D02*
X103181D01*
X48000Y414307D02*
X75307D01*
X81000Y420000D01*
X31000Y431307D02*
Y507594D01*
Y431307D02*
X48000Y414307D01*
X49000Y525594D02*
Y706167D01*
X31000Y507594D02*
X49000Y525594D01*
X24395Y730772D02*
X49000Y706167D01*
X78229Y779823D02*
X102400D01*
X107075Y784499D01*
X177948D01*
X196269Y766177D01*
X209771D01*
X211417Y767823D01*
X233771D01*
X234417Y767177D01*
X259281D01*
X260281Y766177D01*
X312229D01*
X321229Y757177D01*
X345479D01*
X436643Y732425D02*
X469692D01*
X282436Y323584D02*
Y460802D01*
X276000Y255000D02*
Y317148D01*
X282436Y323584D01*
X266639Y467744D02*
X267242Y467142D01*
X276097D02*
X282436Y460802D01*
X267242Y467142D02*
X276097D01*
X293000Y320000D02*
Y456000D01*
X269128Y473581D02*
X272764Y469946D01*
X279054D02*
X293000Y456000D01*
X272764Y469946D02*
X279054D01*
X266639Y467744D02*
Y494139D01*
X285020Y512519D02*
X366701D01*
X370000Y515818D01*
Y525120D01*
X382399Y537519D01*
Y552246D01*
X420323Y590169D01*
Y598323D01*
X426000Y604000D01*
X426475D01*
X480823Y658348D01*
Y717009D01*
X477000Y720831D02*
X480823Y717009D01*
X477000Y720831D02*
Y731487D01*
X221000Y249000D02*
X233000Y237000D01*
X221000Y249000D02*
Y283000D01*
X208000Y296000D02*
X221000Y283000D01*
X176089Y296000D02*
X208000D01*
X158800Y313289D02*
Y355777D01*
Y313289D02*
X176089Y296000D01*
X156206Y358371D02*
X158800Y355777D01*
X150800Y358371D02*
X156206D01*
X146977Y362194D02*
X150800Y358371D01*
X147822Y296196D02*
X150800Y299174D01*
Y350371D01*
X146977Y354194D02*
X150800Y350371D01*
X283000Y276000D02*
X296000Y263000D01*
X283000Y276000D02*
Y310000D01*
X293000Y320000D01*
X269128Y473581D02*
Y488535D01*
X272594Y492000D01*
X383117D01*
X384594Y493477D01*
Y532157D01*
X404431Y551995D01*
X413119D01*
X441177Y581786D02*
X455000Y595609D01*
X441177Y580053D02*
Y581786D01*
X413119Y551995D02*
X441177Y580053D01*
X455000Y595609D02*
Y596000D01*
X484823Y625823D01*
Y729071D01*
X478040Y735853D02*
X484823Y729071D01*
X475834Y735853D02*
X478040D01*
X475324Y736363D02*
X475834Y735853D01*
X225895Y267105D02*
X232000Y261000D01*
X225895Y267105D02*
Y294951D01*
X217000Y303846D02*
Y317000D01*
Y303846D02*
X225895Y294951D01*
X217000Y317000D02*
X222800Y322800D01*
Y358371D01*
X218978Y362194D02*
X222800Y358371D01*
X151155Y455523D02*
Y467462D01*
Y455523D02*
X152739Y453939D01*
X157062D02*
X160884Y450116D01*
X152739Y453939D02*
X157062D01*
X160884Y450116D02*
X170977D01*
X275306Y482388D02*
X286612D01*
X312021Y456979D01*
X345427D01*
X354229Y448177D01*
X403521D01*
X406344Y451000D01*
X488234D01*
X272951Y477049D02*
X277951D01*
X312000Y443000D01*
X381523Y434883D02*
X406750D01*
X373406Y443000D02*
X381523Y434883D01*
X312000Y443000D02*
X373406D01*
X406750Y434883D02*
X414867Y443000D01*
X429449D01*
X144600Y726276D02*
X144604Y726272D01*
X96000Y740000D02*
Y752704D01*
X100147Y756851D01*
X102000Y709991D02*
Y734000D01*
X96000Y740000D02*
X102000Y734000D01*
Y709991D02*
X122638Y689353D01*
Y667804D02*
Y689353D01*
X120000Y516000D02*
Y665165D01*
X122638Y667804D01*
X120000Y516000D02*
X133000Y503000D01*
X142333D01*
X178823Y740177D02*
X188000Y731000D01*
X178823Y740177D02*
Y762571D01*
X167974Y773419D02*
X178823Y762571D01*
X188000Y718901D02*
Y731000D01*
Y718901D02*
X194197Y712704D01*
Y700605D02*
Y712704D01*
Y700605D02*
X203269Y691534D01*
Y639268D02*
Y691534D01*
X194000Y630000D02*
X203269Y639268D01*
X194000Y596000D02*
Y630000D01*
X85904Y464090D02*
X89954Y460040D01*
Y458000D02*
Y460040D01*
Y458000D02*
X93582Y454371D01*
X132245D01*
X134997Y451620D01*
Y448807D02*
Y451620D01*
Y448807D02*
X137748Y446056D01*
X159038D01*
X162977Y442116D01*
X144616Y474000D02*
X151155Y467462D01*
X100255Y509745D02*
X136000Y474000D01*
X144616D01*
X167155Y456533D02*
X169571Y454116D01*
X172383D02*
X174800Y451699D01*
X169571Y454116D02*
X172383D01*
X174800Y445939D02*
Y451699D01*
X170977Y442116D02*
X174800Y445939D01*
X175155Y456533D02*
X177571Y454116D01*
X180383D01*
X182800Y451699D01*
Y445939D02*
Y451699D01*
X178977Y442116D02*
X182800Y445939D01*
X100255Y509745D02*
Y582745D01*
X76177Y606823D02*
X100255Y582745D01*
X76177Y717771D02*
X76823Y718417D01*
X76177Y606823D02*
Y717771D01*
X76823Y718417D02*
Y743177D01*
X387000Y35000D02*
X419000D01*
X301000Y48000D02*
X374000D01*
X387000Y35000D01*
X217751Y106350D02*
X227945Y96156D01*
X419000Y35000D02*
X422000Y32000D01*
X271000Y78000D02*
X301000Y48000D01*
X233850Y85068D02*
X240918Y78000D01*
X271000D01*
X233850Y85068D02*
Y87919D01*
X227945Y93824D02*
X233850Y87919D01*
X227945Y93824D02*
Y96156D01*
X219000Y88000D02*
X227000D01*
X196000Y111000D02*
X219000Y88000D01*
X217751Y106350D02*
Y174751D01*
X239000Y196000D01*
Y296029D01*
X224000Y311029D02*
X239000Y296029D01*
X94944Y462056D02*
X143155D01*
X146977Y458233D01*
X47841Y472841D02*
X84159D01*
X94944Y462056D01*
X40000Y465000D02*
X47841Y472841D01*
X40000Y449299D02*
Y465000D01*
X46354Y426522D02*
Y442945D01*
X40000Y449299D02*
X46354Y442945D01*
X215038Y438293D02*
X218978Y442233D01*
X140323Y438293D02*
X215038D01*
X132561Y446056D02*
X140323Y438293D01*
X91538Y446056D02*
X132561D01*
X71180Y466414D02*
X91538Y446056D01*
X49391Y466414D02*
X71180D01*
X122104Y398016D02*
X196522D01*
X105394Y390016D02*
X116206D01*
X118800Y392610D01*
X75978Y360601D02*
X105394Y390016D01*
X118800Y392610D02*
Y395383D01*
X121394Y397977D01*
X122065D01*
X122104Y398016D01*
X92000Y349400D02*
X104000Y361400D01*
Y372622D01*
X122977Y390016D02*
X188522D01*
X104000Y372622D02*
X113571Y382194D01*
X116383D01*
X118800Y384610D01*
Y387383D01*
X121394Y389977D01*
X122938D01*
X122977Y390016D01*
X49032Y317332D02*
X99332D01*
X121433Y382016D02*
X176823D01*
X110000Y328000D02*
Y366104D01*
X99332Y317332D02*
X110000Y328000D01*
Y366104D02*
X118800Y374904D01*
Y379383D01*
X121433Y382016D01*
X26421Y299579D02*
X93519D01*
X127091Y374055D02*
X142800D01*
X93519Y299579D02*
X118800Y324860D01*
Y371384D02*
X121394Y373977D01*
X127013D02*
X127091Y374055D01*
X121394Y373977D02*
X127013D01*
X118800Y324860D02*
Y371384D01*
X126800Y366016D02*
X130977Y370194D01*
X108545Y206455D02*
Y308545D01*
X126800Y326800D01*
Y366016D01*
X191000Y360765D02*
Y387538D01*
Y360765D02*
X193394Y358371D01*
X212561D01*
X215155Y360965D01*
Y363777D01*
X217749Y366371D01*
X223155D01*
X226978Y370194D01*
X182881Y344923D02*
Y375958D01*
Y344923D02*
X185394Y342410D01*
X215155D01*
X218978Y346233D01*
X188522Y390016D02*
X191000Y387538D01*
X196522Y398016D02*
X198800Y395738D01*
Y366016D02*
Y395738D01*
X194977Y362194D02*
X198800Y366016D01*
X70749Y363090D02*
X113637Y405977D01*
X196522D01*
X206800Y395698D01*
Y366016D02*
Y395698D01*
X202978Y362194D02*
X206800Y366016D01*
X142800Y352965D02*
X146467Y349298D01*
Y346743D02*
X146977Y346233D01*
X146467Y346743D02*
Y349298D01*
X142800Y352965D02*
Y374055D01*
Y306320D02*
Y347816D01*
X140403Y350213D02*
X142800Y347816D01*
X137552Y350213D02*
X140403D01*
X135155Y352610D02*
X137552Y350213D01*
X135155Y352610D02*
Y366410D01*
X138977Y370233D01*
X18161Y307839D02*
X26421Y299579D01*
X18161Y307839D02*
Y334388D01*
X176823Y382016D02*
X182881Y375958D01*
X12000Y324000D02*
Y345218D01*
X29871Y363090D01*
X135000Y228080D02*
Y285221D01*
X145976Y296196D02*
X147822D01*
X135000Y285221D02*
X145976Y296196D01*
X45132Y360601D02*
X75978D01*
X29871Y363090D02*
X70749D01*
X31411Y346879D02*
X45132Y360601D01*
X31411Y337781D02*
Y346879D01*
X23090Y329459D02*
X31411Y337781D01*
X36937Y305238D02*
X49032Y317332D01*
X230885Y137660D02*
Y169125D01*
X231531D02*
X247367Y184961D01*
X230885Y169125D02*
X231531D01*
X257000Y168000D02*
Y228101D01*
X256000Y229101D02*
X257000Y228101D01*
X261000Y176000D02*
Y237969D01*
X259500Y239469D02*
X261000Y237969D01*
X193152Y132000D02*
X204000D01*
X162000Y163152D02*
X193152Y132000D01*
X162000Y163152D02*
Y169000D01*
X140177Y190823D02*
X162000Y169000D01*
X140177Y190823D02*
Y198617D01*
X137000Y201794D02*
X140177Y198617D01*
X137000Y201794D02*
Y215406D01*
X127532Y224874D02*
X137000Y215406D01*
X127532Y224874D02*
Y228468D01*
X118000Y238000D02*
X127532Y228468D01*
X118000Y238000D02*
Y296787D01*
X134800Y313587D01*
Y342056D01*
X138977Y346233D01*
X173500Y163500D02*
Y174500D01*
Y163500D02*
X200000Y137000D01*
X196000Y111000D02*
Y117406D01*
X204417Y125823D02*
X205317D01*
X209750Y130256D01*
X196000Y117406D02*
X204417Y125823D01*
X209750Y130256D02*
Y161250D01*
X166489Y204511D02*
X209750Y161250D01*
X172000Y207000D02*
X213433Y165567D01*
Y124027D02*
Y165567D01*
X201632Y116752D02*
X206158D01*
X213433Y124027D01*
X164000Y184000D02*
X173500Y174500D01*
X164000Y184000D02*
Y192406D01*
X154018Y202022D02*
X154384D01*
X164000Y192406D01*
X130022Y226018D02*
X154018Y202022D01*
X130022Y226018D02*
Y239709D01*
X128000Y241730D02*
X130022Y239709D01*
X128000Y241730D02*
Y303267D01*
X138977Y314244D01*
Y338233D01*
X108545Y206455D02*
X136000Y179000D01*
Y149434D02*
Y179000D01*
Y149434D02*
X140785Y144649D01*
Y104134D02*
Y144649D01*
X155049Y204511D02*
X166489D01*
X132511Y227049D02*
X155049Y204511D01*
X132511Y227049D02*
Y296031D01*
X142800Y306320D01*
X156080Y207000D02*
X172000D01*
X135000Y228080D02*
X156080Y207000D01*
X258000Y102000D02*
Y107000D01*
X247000Y91000D02*
X258000Y102000D01*
X262489Y135308D02*
X264000Y136818D01*
X262489Y111489D02*
Y135308D01*
X258000Y107000D02*
X262489Y111489D01*
X264000Y136818D02*
Y173000D01*
X261000Y176000D02*
X264000Y173000D01*
X241896Y96159D02*
X260000Y114263D01*
Y165000D01*
X257000Y168000D02*
X260000Y165000D01*
X237000Y92000D02*
Y100000D01*
X251000Y114000D01*
X229709Y136484D02*
X230885Y137660D01*
X229709Y112516D02*
X231889Y110336D01*
X229709Y112516D02*
Y136484D01*
X231889Y96579D02*
Y110336D01*
D167*
X123900Y103000D02*
D03*
Y123000D02*
D03*
Y78000D02*
D03*
D168*
Y148000D02*
D03*
D169*
X96800Y178700D02*
D03*
Y47300D02*
D03*
D170*
X50000Y264000D02*
D03*
Y214000D02*
D03*
D171*
X388040Y234364D02*
D03*
Y58596D02*
D03*
D172*
X476940Y221664D02*
D03*
X451540Y71296D02*
D03*
X426140D02*
D03*
X476940D02*
D03*
X451540Y221664D02*
D03*
D173*
X388040Y98220D02*
D03*
Y194740D02*
D03*
D174*
X296600Y207440D02*
D03*
X322000Y197280D02*
D03*
X296600Y187120D02*
D03*
Y166800D02*
D03*
Y85520D02*
D03*
X322000Y176960D02*
D03*
Y156640D02*
D03*
Y136320D02*
D03*
Y116000D02*
D03*
Y95680D02*
D03*
X296600Y126160D02*
D03*
D175*
Y105840D02*
D03*
M02*
