G04*
G04 #@! TF.GenerationSoftware,Altium Limited,Altium Designer,24.2.2 (26)*
G04*
G04 Layer_Color=8388736*
%FSLAX44Y44*%
%MOMM*%
G71*
G04*
G04 #@! TF.SameCoordinates,ED65E515-8F89-4409-9B4D-6018ACB33687*
G04*
G04*
G04 #@! TF.FilePolarity,Negative*
G04*
G01*
G75*
%ADD22R,0.7581X0.8121*%
%ADD24R,0.5000X0.4000*%
%ADD25R,1.1000X0.6000*%
%ADD26R,0.6725X0.7154*%
%ADD27R,0.4100X0.3300*%
%ADD28R,0.5200X0.5200*%
%ADD29R,0.7154X0.6725*%
%ADD30C,1.5240*%
%ADD31R,1.7780X1.7780*%
%ADD34R,4.0386X3.4544*%
%ADD35R,0.4318X1.0668*%
G04:AMPARAMS|DCode=36|XSize=0.625mm|YSize=0.25mm|CornerRadius=0.05mm|HoleSize=0mm|Usage=FLASHONLY|Rotation=270.000|XOffset=0mm|YOffset=0mm|HoleType=Round|Shape=RoundedRectangle|*
%AMROUNDEDRECTD36*
21,1,0.6250,0.1500,0,0,270.0*
21,1,0.5250,0.2500,0,0,270.0*
1,1,0.1000,-0.0750,-0.2625*
1,1,0.1000,-0.0750,0.2625*
1,1,0.1000,0.0750,0.2625*
1,1,0.1000,0.0750,-0.2625*
%
%ADD36ROUNDEDRECTD36*%
G04:AMPARAMS|DCode=37|XSize=0.25mm|YSize=0.675mm|CornerRadius=0.05mm|HoleSize=0mm|Usage=FLASHONLY|Rotation=270.000|XOffset=0mm|YOffset=0mm|HoleType=Round|Shape=RoundedRectangle|*
%AMROUNDEDRECTD37*
21,1,0.2500,0.5750,0,0,270.0*
21,1,0.1500,0.6750,0,0,270.0*
1,1,0.1000,-0.2875,-0.0750*
1,1,0.1000,-0.2875,0.0750*
1,1,0.1000,0.2875,0.0750*
1,1,0.1000,0.2875,-0.0750*
%
%ADD37ROUNDEDRECTD37*%
G04:AMPARAMS|DCode=38|XSize=0.25mm|YSize=0.975mm|CornerRadius=0.05mm|HoleSize=0mm|Usage=FLASHONLY|Rotation=270.000|XOffset=0mm|YOffset=0mm|HoleType=Round|Shape=RoundedRectangle|*
%AMROUNDEDRECTD38*
21,1,0.2500,0.8750,0,0,270.0*
21,1,0.1500,0.9750,0,0,270.0*
1,1,0.1000,-0.4375,-0.0750*
1,1,0.1000,-0.4375,0.0750*
1,1,0.1000,0.4375,0.0750*
1,1,0.1000,0.4375,-0.0750*
%
%ADD38ROUNDEDRECTD38*%
G04:AMPARAMS|DCode=39|XSize=1.225mm|YSize=0.25mm|CornerRadius=0.05mm|HoleSize=0mm|Usage=FLASHONLY|Rotation=270.000|XOffset=0mm|YOffset=0mm|HoleType=Round|Shape=RoundedRectangle|*
%AMROUNDEDRECTD39*
21,1,1.2250,0.1500,0,0,270.0*
21,1,1.1250,0.2500,0,0,270.0*
1,1,0.1000,-0.0750,-0.5625*
1,1,0.1000,-0.0750,0.5625*
1,1,0.1000,0.0750,0.5625*
1,1,0.1000,0.0750,-0.5625*
%
%ADD39ROUNDEDRECTD39*%
%ADD40R,0.4500X0.6750*%
%ADD41R,0.4000X0.5000*%
%ADD43R,2.3062X1.5549*%
%ADD44R,0.8000X0.8000*%
%ADD48R,1.8000X0.8000*%
%ADD49R,0.4725X0.5153*%
%ADD53R,1.2000X1.4000*%
%ADD56C,0.4064*%
%ADD57R,0.8121X0.7581*%
%ADD58R,0.8000X1.7000*%
%ADD59R,0.6000X0.8000*%
%ADD61R,0.5153X0.4725*%
%ADD62R,0.4725X0.4682*%
%ADD63R,0.3500X0.6500*%
%ADD64R,0.6500X0.3500*%
%ADD68R,0.6153X0.5725*%
%ADD69R,0.4682X0.4725*%
%ADD70R,0.1925X0.8078*%
G04:AMPARAMS|DCode=71|XSize=0.8078mm|YSize=0.1925mm|CornerRadius=0.0962mm|HoleSize=0mm|Usage=FLASHONLY|Rotation=270.000|XOffset=0mm|YOffset=0mm|HoleType=Round|Shape=RoundedRectangle|*
%AMROUNDEDRECTD71*
21,1,0.8078,0.0000,0,0,270.0*
21,1,0.6154,0.1925,0,0,270.0*
1,1,0.1925,0.0000,-0.3077*
1,1,0.1925,0.0000,0.3077*
1,1,0.1925,0.0000,0.3077*
1,1,0.1925,0.0000,-0.3077*
%
%ADD71ROUNDEDRECTD71*%
G04:AMPARAMS|DCode=72|XSize=0.1925mm|YSize=0.8078mm|CornerRadius=0.0962mm|HoleSize=0mm|Usage=FLASHONLY|Rotation=270.000|XOffset=0mm|YOffset=0mm|HoleType=Round|Shape=RoundedRectangle|*
%AMROUNDEDRECTD72*
21,1,0.1925,0.6154,0,0,270.0*
21,1,0.0000,0.8078,0,0,270.0*
1,1,0.1925,-0.3077,0.0000*
1,1,0.1925,-0.3077,0.0000*
1,1,0.1925,0.3077,0.0000*
1,1,0.1925,0.3077,0.0000*
%
%ADD72ROUNDEDRECTD72*%
%ADD73R,0.4100X0.6600*%
%ADD74R,0.6096X0.2540*%
%ADD76R,0.8500X0.6500*%
%ADD77R,0.6096X0.8382*%
%ADD78R,0.7000X0.7000*%
%ADD79R,0.5393X0.4725*%
%ADD80R,0.6750X0.4500*%
%ADD81R,0.5200X0.5200*%
%ADD83R,5.3086X5.3086*%
G04:AMPARAMS|DCode=84|XSize=0.9397mm|YSize=0.4858mm|CornerRadius=0.2429mm|HoleSize=0mm|Usage=FLASHONLY|Rotation=180.000|XOffset=0mm|YOffset=0mm|HoleType=Round|Shape=RoundedRectangle|*
%AMROUNDEDRECTD84*
21,1,0.9397,0.0000,0,0,180.0*
21,1,0.4539,0.4858,0,0,180.0*
1,1,0.4858,-0.2269,0.0000*
1,1,0.4858,0.2269,0.0000*
1,1,0.4858,0.2269,0.0000*
1,1,0.4858,-0.2269,0.0000*
%
%ADD84ROUNDEDRECTD84*%
%ADD88R,1.4986X0.2032*%
G04:AMPARAMS|DCode=90|XSize=0.95mm|YSize=0.3mm|CornerRadius=0.15mm|HoleSize=0mm|Usage=FLASHONLY|Rotation=270.000|XOffset=0mm|YOffset=0mm|HoleType=Round|Shape=RoundedRectangle|*
%AMROUNDEDRECTD90*
21,1,0.9500,0.0000,0,0,270.0*
21,1,0.6500,0.3000,0,0,270.0*
1,1,0.3000,0.0000,-0.3250*
1,1,0.3000,0.0000,0.3250*
1,1,0.3000,0.0000,0.3250*
1,1,0.3000,0.0000,-0.3250*
%
%ADD90ROUNDEDRECTD90*%
G04:AMPARAMS|DCode=91|XSize=0.3mm|YSize=0.95mm|CornerRadius=0.15mm|HoleSize=0mm|Usage=FLASHONLY|Rotation=270.000|XOffset=0mm|YOffset=0mm|HoleType=Round|Shape=RoundedRectangle|*
%AMROUNDEDRECTD91*
21,1,0.3000,0.6500,0,0,270.0*
21,1,0.0000,0.9500,0,0,270.0*
1,1,0.3000,-0.3250,0.0000*
1,1,0.3000,-0.3250,0.0000*
1,1,0.3000,0.3250,0.0000*
1,1,0.3000,0.3250,0.0000*
%
%ADD91ROUNDEDRECTD91*%
%ADD92R,5.5000X5.5000*%
%ADD93R,2.6000X2.6000*%
%ADD94R,0.5000X0.3500*%
%ADD95R,1.7000X0.8000*%
%ADD97R,0.9500X0.7000*%
%ADD98R,0.8000X0.8000*%
%ADD99R,0.2540X0.8128*%
%ADD100R,0.8128X0.2540*%
G04:AMPARAMS|DCode=103|XSize=0.3mm|YSize=0.85mm|CornerRadius=0.15mm|HoleSize=0mm|Usage=FLASHONLY|Rotation=270.000|XOffset=0mm|YOffset=0mm|HoleType=Round|Shape=RoundedRectangle|*
%AMROUNDEDRECTD103*
21,1,0.3000,0.5500,0,0,270.0*
21,1,0.0000,0.8500,0,0,270.0*
1,1,0.3000,-0.2750,0.0000*
1,1,0.3000,-0.2750,0.0000*
1,1,0.3000,0.2750,0.0000*
1,1,0.3000,0.2750,0.0000*
%
%ADD103ROUNDEDRECTD103*%
G04:AMPARAMS|DCode=106|XSize=0.85mm|YSize=0.3mm|CornerRadius=0.15mm|HoleSize=0mm|Usage=FLASHONLY|Rotation=270.000|XOffset=0mm|YOffset=0mm|HoleType=Round|Shape=RoundedRectangle|*
%AMROUNDEDRECTD106*
21,1,0.8500,0.0000,0,0,270.0*
21,1,0.5500,0.3000,0,0,270.0*
1,1,0.3000,0.0000,-0.2750*
1,1,0.3000,0.0000,0.2750*
1,1,0.3000,0.0000,0.2750*
1,1,0.3000,0.0000,-0.2750*
%
%ADD106ROUNDEDRECTD106*%
%ADD108R,0.9397X0.4858*%
%ADD109R,0.8000X0.9000*%
%ADD112C,0.6000*%
%ADD113C,0.2250*%
%ADD114R,3.2000X3.2000*%
%ADD115R,0.6500X0.7000*%
%ADD116R,0.7000X0.6500*%
%ADD117R,1.1500X1.1000*%
%ADD118R,2.3000X1.1500*%
%ADD119R,0.7500X1.1500*%
%ADD120R,1.1500X0.7500*%
%ADD121R,1.1500X2.3000*%
%ADD122R,1.1000X1.1500*%
%ADD123R,2.1320X0.7604*%
%ADD124R,0.8200X0.8200*%
%ADD125R,0.8200X0.8200*%
%ADD126R,0.5500X1.1500*%
%ADD127R,0.7000X0.7500*%
%ADD128R,0.9000X1.0000*%
%ADD129R,0.8500X0.4000*%
%ADD130R,0.4000X0.8500*%
%ADD131R,4.9000X4.9000*%
%ADD132R,1.0500X1.1500*%
%ADD133R,1.3500X0.9500*%
%ADD134R,2.0000X1.6000*%
%ADD135R,1.4500X0.5000*%
%ADD136R,1.1500X0.5500*%
%ADD137R,1.6000X1.0000*%
%ADD138R,4.2000X4.2000*%
%ADD139R,0.3200X0.7500*%
%ADD140R,4.6000X1.9000*%
%ADD141R,0.7500X0.7000*%
%ADD142R,0.7500X0.3200*%
%ADD143R,0.6200X0.6600*%
%ADD144R,0.7500X1.3500*%
%ADD145R,0.9000X1.0500*%
%ADD146C,1.5200*%
G04:AMPARAMS|DCode=147|XSize=1.52mm|YSize=1.52mm|CornerRadius=0.405mm|HoleSize=0mm|Usage=FLASHONLY|Rotation=270.000|XOffset=0mm|YOffset=0mm|HoleType=Round|Shape=RoundedRectangle|*
%AMROUNDEDRECTD147*
21,1,1.5200,0.7100,0,0,270.0*
21,1,0.7100,1.5200,0,0,270.0*
1,1,0.8100,-0.3550,-0.3550*
1,1,0.8100,-0.3550,0.3550*
1,1,0.8100,0.3550,0.3550*
1,1,0.8100,0.3550,-0.3550*
%
%ADD147ROUNDEDRECTD147*%
%ADD148C,3.5500*%
%ADD149R,1.5700X1.5700*%
%ADD150C,1.5700*%
%ADD151C,1.5500*%
%ADD152C,2.2000*%
%ADD153C,0.5000*%
%ADD154C,1.9000*%
%ADD155C,3.0500*%
%ADD156C,1.5000*%
%ADD157R,1.5000X1.5000*%
%ADD158C,0.5064*%
%ADD159C,0.6000*%
G36*
X81650Y328150D02*
X76000Y328150D01*
X75751D01*
X75292Y328340D01*
X74940Y328692D01*
X74750Y329151D01*
Y329400D01*
Y329649D01*
X74940Y330108D01*
X75292Y330460D01*
X75751Y330650D01*
X81650D01*
Y328150D01*
D02*
G37*
G36*
X33708Y330460D02*
X34060Y330108D01*
X34250Y329649D01*
Y329400D01*
Y329151D01*
X34060Y328692D01*
X33708Y328340D01*
X33249Y328150D01*
X33000D01*
Y328150D01*
X27350D01*
Y330650D01*
X33249D01*
X33708Y330460D01*
D02*
G37*
G36*
X81650Y323150D02*
X75751D01*
X75292Y323340D01*
X74940Y323692D01*
X74750Y324151D01*
Y324400D01*
Y324649D01*
X74940Y325108D01*
X75292Y325460D01*
X75751Y325650D01*
X81650D01*
Y323150D01*
D02*
G37*
G36*
X33708Y325460D02*
X34060Y325108D01*
X34250Y324649D01*
Y324400D01*
Y324151D01*
X34060Y323692D01*
X33708Y323340D01*
X33249Y323150D01*
X27350D01*
Y325650D01*
X33249D01*
X33708Y325460D01*
D02*
G37*
G36*
X76000Y320650D02*
X81650D01*
Y318150D01*
X75751D01*
X75292Y318340D01*
X74940Y318692D01*
X74750Y319151D01*
Y319400D01*
Y319649D01*
X74940Y320108D01*
X75292Y320460D01*
X75751Y320650D01*
X76000D01*
Y320650D01*
D02*
G37*
G36*
X33708Y320460D02*
X34060Y320108D01*
X34250Y319649D01*
Y319400D01*
Y319151D01*
X34060Y318692D01*
X33708Y318340D01*
X33249Y318150D01*
X27350D01*
Y320650D01*
X33000Y320650D01*
X33249D01*
X33708Y320460D01*
D02*
G37*
G36*
X72708Y316460D02*
X73060Y316108D01*
X73250Y315649D01*
Y315400D01*
Y309750D01*
X70750D01*
X70750Y315400D01*
Y315649D01*
X70940Y316108D01*
X71292Y316460D01*
X71751Y316650D01*
X72249D01*
X72708Y316460D01*
D02*
G37*
G36*
X67708D02*
X68060Y316108D01*
X68250Y315649D01*
Y315400D01*
Y309750D01*
X65750D01*
Y315400D01*
Y315649D01*
X65940Y316108D01*
X66292Y316460D01*
X66751Y316650D01*
X67249D01*
X67708Y316460D01*
D02*
G37*
G36*
X62708D02*
X63060Y316108D01*
X63250Y315649D01*
Y315400D01*
X63250D01*
Y309750D01*
X60750D01*
Y315400D01*
Y315649D01*
X60940Y316108D01*
X61292Y316460D01*
X61751Y316650D01*
X62249D01*
X62708Y316460D01*
D02*
G37*
G36*
X57708D02*
X58060Y316108D01*
X58250Y315649D01*
Y315400D01*
Y309750D01*
X55750D01*
X55750Y315400D01*
Y315649D01*
X55940Y316108D01*
X56292Y316460D01*
X56751Y316650D01*
X57249D01*
X57708Y316460D01*
D02*
G37*
G36*
X52708D02*
X53060Y316108D01*
X53250Y315649D01*
Y315400D01*
X53250D01*
Y309750D01*
X50750D01*
Y315400D01*
Y315649D01*
X50940Y316108D01*
X51292Y316460D01*
X51751Y316650D01*
X52249D01*
X52708Y316460D01*
D02*
G37*
G36*
X47708D02*
X48060Y316108D01*
X48250Y315649D01*
Y315400D01*
Y309750D01*
X45750D01*
X45750Y315400D01*
Y315649D01*
X45940Y316108D01*
X46292Y316460D01*
X46751Y316650D01*
X47249D01*
X47708Y316460D01*
D02*
G37*
G36*
X42708D02*
X43060Y316108D01*
X43250Y315649D01*
Y315400D01*
Y309750D01*
X40750D01*
Y315400D01*
Y315649D01*
X40940Y316108D01*
X41292Y316460D01*
X41751Y316650D01*
X42249D01*
X42708Y316460D01*
D02*
G37*
G36*
X37708D02*
X38060Y316108D01*
X38250Y315649D01*
Y315400D01*
X38250D01*
Y309750D01*
X35750D01*
Y315400D01*
Y315649D01*
X35940Y316108D01*
X36292Y316460D01*
X36751Y316650D01*
X37249D01*
X37708Y316460D01*
D02*
G37*
G36*
X27598Y280493D02*
X27692Y280464D01*
X27779Y280418D01*
X27855Y280355D01*
X27918Y280279D01*
X27964Y280192D01*
X27993Y280098D01*
X28002Y280000D01*
Y280000D01*
D01*
Y275502D01*
X32500D01*
X32598Y275493D01*
X32692Y275464D01*
X32779Y275418D01*
X32855Y275355D01*
X32918Y275279D01*
X32964Y275192D01*
X32993Y275098D01*
X33002Y275000D01*
Y262000D01*
X32993Y261902D01*
X32964Y261808D01*
X32918Y261721D01*
X32855Y261645D01*
X32779Y261582D01*
X32692Y261536D01*
X32598Y261507D01*
X32500Y261498D01*
X13500D01*
X13402Y261507D01*
X13308Y261536D01*
X13221Y261582D01*
X13145Y261645D01*
X13082Y261721D01*
X13036Y261808D01*
X13007Y261902D01*
X12998Y262000D01*
Y275000D01*
X13007Y275098D01*
X13036Y275192D01*
X13082Y275279D01*
X13145Y275355D01*
X13221Y275418D01*
X13308Y275464D01*
X13402Y275493D01*
X13500Y275502D01*
X17997D01*
Y280000D01*
X18007Y280098D01*
X18036Y280192D01*
X18082Y280279D01*
X18145Y280355D01*
X18221Y280417D01*
X18307Y280464D01*
X18402Y280493D01*
X18500Y280502D01*
X27500Y280502D01*
X27500D01*
D01*
X27598Y280493D01*
D02*
G37*
G36*
X32598Y216493D02*
X32692Y216464D01*
X32779Y216418D01*
X32855Y216355D01*
X32918Y216279D01*
X32964Y216192D01*
X32993Y216098D01*
X33002Y216000D01*
Y203000D01*
X32993Y202902D01*
X32964Y202808D01*
X32918Y202721D01*
X32855Y202645D01*
X32779Y202582D01*
X32692Y202536D01*
X32598Y202507D01*
X32500Y202498D01*
X28003D01*
Y198000D01*
X27993Y197902D01*
X27964Y197808D01*
X27918Y197721D01*
X27856Y197645D01*
X27779Y197582D01*
X27692Y197536D01*
X27598Y197507D01*
X27500Y197498D01*
X18500Y197498D01*
X18500D01*
D01*
X18402Y197507D01*
X18308Y197536D01*
X18221Y197582D01*
X18145Y197645D01*
X18082Y197721D01*
X18036Y197808D01*
X18007Y197902D01*
X17998Y198000D01*
Y198000D01*
D01*
Y202498D01*
X13500D01*
X13402Y202507D01*
X13308Y202536D01*
X13221Y202582D01*
X13145Y202645D01*
X13082Y202721D01*
X13036Y202808D01*
X13007Y202902D01*
X12998Y203000D01*
Y216000D01*
X13007Y216098D01*
X13036Y216192D01*
X13082Y216279D01*
X13145Y216355D01*
X13221Y216418D01*
X13308Y216464D01*
X13402Y216493D01*
X13500Y216502D01*
X32500D01*
X32598Y216493D01*
D02*
G37*
G36*
X33708Y335460D02*
X34060Y335108D01*
X34250Y334649D01*
Y334400D01*
Y334151D01*
X34060Y333692D01*
X33708Y333340D01*
X33249Y333150D01*
X27350D01*
Y335650D01*
X33000Y335650D01*
X33249D01*
X33708Y335460D01*
D02*
G37*
G36*
Y340460D02*
X34060Y340108D01*
X34250Y339649D01*
Y339400D01*
Y339151D01*
X34060Y338692D01*
X33708Y338340D01*
X33249Y338150D01*
X33000D01*
Y338150D01*
X27350D01*
Y340650D01*
X33249D01*
X33708Y340460D01*
D02*
G37*
G36*
Y345460D02*
X34060Y345108D01*
X34250Y344649D01*
Y344400D01*
Y344151D01*
X34060Y343692D01*
X33708Y343340D01*
X33249Y343150D01*
X27350D01*
Y345650D01*
X33000Y345650D01*
X33249D01*
X33708Y345460D01*
D02*
G37*
G36*
Y350460D02*
X34060Y350108D01*
X34250Y349649D01*
Y349400D01*
Y349151D01*
X34060Y348692D01*
X33708Y348340D01*
X33249Y348150D01*
X27350D01*
Y350650D01*
X33249D01*
X33708Y350460D01*
D02*
G37*
G36*
Y355460D02*
X34060Y355108D01*
X34250Y354649D01*
Y354400D01*
Y354151D01*
X34060Y353692D01*
X33708Y353340D01*
X33249Y353150D01*
X33000D01*
Y353150D01*
X27350D01*
Y355650D01*
X33249D01*
X33708Y355460D01*
D02*
G37*
G36*
X38250Y358400D02*
Y358151D01*
X38060Y357692D01*
X37708Y357340D01*
X37249Y357150D01*
X36751D01*
X36292Y357340D01*
X35940Y357692D01*
X35750Y358151D01*
Y358400D01*
Y364050D01*
X38250D01*
X38250Y358400D01*
D02*
G37*
G36*
X43250D02*
Y358151D01*
X43060Y357692D01*
X42708Y357340D01*
X42249Y357150D01*
X41751D01*
X41292Y357340D01*
X40940Y357692D01*
X40750Y358151D01*
Y358400D01*
Y364050D01*
X43250D01*
Y358400D01*
D02*
G37*
G36*
X48250D02*
Y358151D01*
X48060Y357692D01*
X47708Y357340D01*
X47249Y357150D01*
X46751D01*
X46292Y357340D01*
X45940Y357692D01*
X45750Y358151D01*
Y358400D01*
X45750D01*
Y364050D01*
X48250D01*
Y358400D01*
D02*
G37*
G36*
X53250D02*
Y358151D01*
X53060Y357692D01*
X52708Y357340D01*
X52249Y357150D01*
X51751D01*
X51292Y357340D01*
X50940Y357692D01*
X50750Y358151D01*
Y358400D01*
Y364050D01*
X53250D01*
X53250Y358400D01*
D02*
G37*
G36*
X76000Y335650D02*
X81650D01*
Y333150D01*
X75751D01*
X75292Y333340D01*
X74940Y333692D01*
X74750Y334151D01*
Y334400D01*
Y334649D01*
X74940Y335108D01*
X75292Y335460D01*
X75751Y335650D01*
X76000D01*
Y335650D01*
D02*
G37*
G36*
X81650Y338150D02*
X76000Y338150D01*
X75751D01*
X75292Y338340D01*
X74940Y338692D01*
X74750Y339151D01*
Y339400D01*
Y339649D01*
X74940Y340108D01*
X75292Y340460D01*
X75751Y340650D01*
X81650D01*
Y338150D01*
D02*
G37*
G36*
X76000Y345650D02*
X81650D01*
Y343150D01*
X75751D01*
X75292Y343340D01*
X74940Y343692D01*
X74750Y344151D01*
Y344400D01*
Y344649D01*
X74940Y345108D01*
X75292Y345460D01*
X75751Y345650D01*
X76000D01*
Y345650D01*
D02*
G37*
G36*
X81650Y348150D02*
X75751D01*
X75292Y348340D01*
X74940Y348692D01*
X74750Y349151D01*
Y349400D01*
Y349649D01*
X74940Y350108D01*
X75292Y350460D01*
X75751Y350650D01*
X81650D01*
Y348150D01*
D02*
G37*
G36*
Y353150D02*
X76000Y353150D01*
X75751D01*
X75292Y353340D01*
X74940Y353692D01*
X74750Y354151D01*
Y354400D01*
Y354649D01*
X74940Y355108D01*
X75292Y355460D01*
X75751Y355650D01*
X81650D01*
Y353150D01*
D02*
G37*
G36*
X58250Y358400D02*
Y358151D01*
X58060Y357692D01*
X57708Y357340D01*
X57249Y357150D01*
X56751D01*
X56292Y357340D01*
X55940Y357692D01*
X55750Y358151D01*
Y358400D01*
X55750D01*
Y364050D01*
X58250D01*
Y358400D01*
D02*
G37*
G36*
X63250D02*
Y358151D01*
X63060Y357692D01*
X62708Y357340D01*
X62249Y357150D01*
X61751D01*
X61292Y357340D01*
X60940Y357692D01*
X60750Y358151D01*
Y358400D01*
Y364050D01*
X63250D01*
X63250Y358400D01*
D02*
G37*
G36*
X68250D02*
Y358151D01*
X68060Y357692D01*
X67708Y357340D01*
X67249Y357150D01*
X66751D01*
X66292Y357340D01*
X65940Y357692D01*
X65750Y358151D01*
Y358400D01*
Y364050D01*
X68250D01*
Y358400D01*
D02*
G37*
G36*
X73250D02*
Y358151D01*
X73060Y357692D01*
X72708Y357340D01*
X72249Y357150D01*
X71751D01*
X71292Y357340D01*
X70940Y357692D01*
X70750Y358151D01*
Y358400D01*
X70750D01*
Y364050D01*
X73250D01*
Y358400D01*
D02*
G37*
D22*
X338270Y673000D02*
D03*
X325730D02*
D03*
X198730Y89000D02*
D03*
X211270D02*
D03*
X188416Y147871D02*
D03*
X175876D02*
D03*
D24*
X98000Y423000D02*
D03*
Y415000D02*
D03*
X412095Y288967D02*
D03*
Y280967D02*
D03*
X52980Y696692D02*
D03*
Y688692D02*
D03*
D25*
X484106Y410802D02*
D03*
Y429802D02*
D03*
X458107D02*
D03*
Y410802D02*
D03*
Y420302D02*
D03*
D26*
X358072Y484345D02*
D03*
Y474774D02*
D03*
X496642Y503781D02*
D03*
Y494210D02*
D03*
X300000Y730214D02*
D03*
Y739786D02*
D03*
X415897Y447226D02*
D03*
X373000Y29786D02*
D03*
Y20214D02*
D03*
X54224Y655292D02*
D03*
Y664863D02*
D03*
X415897Y456797D02*
D03*
X41224Y664863D02*
D03*
Y655292D02*
D03*
D27*
X362000Y788950D02*
D03*
X355400Y779050D02*
D03*
X368600D02*
D03*
X362000D02*
D03*
X355400Y788950D02*
D03*
X368600D02*
D03*
D28*
X346558Y486000D02*
D03*
Y478000D02*
D03*
X328000Y513000D02*
D03*
Y521000D02*
D03*
X52986Y397557D02*
D03*
Y405557D02*
D03*
X445015Y422116D02*
D03*
X497000Y421802D02*
D03*
X369239Y487198D02*
D03*
X361000Y29000D02*
D03*
X445015Y430116D02*
D03*
X361000Y21000D02*
D03*
X369239Y495198D02*
D03*
X497000Y429802D02*
D03*
D29*
X280046Y766415D02*
D03*
X270475D02*
D03*
X41000Y394957D02*
D03*
X31429D02*
D03*
X131786Y601000D02*
D03*
X122214D02*
D03*
X131786Y588000D02*
D03*
X122214D02*
D03*
X40257Y641317D02*
D03*
X38352Y678012D02*
D03*
X462856Y453803D02*
D03*
X488234Y459522D02*
D03*
X429872Y453803D02*
D03*
X435385Y582803D02*
D03*
X496977Y473185D02*
D03*
X487406D02*
D03*
X453285Y453803D02*
D03*
X439443D02*
D03*
X425814Y582803D02*
D03*
X478663Y459522D02*
D03*
X47923Y678012D02*
D03*
X49828Y641317D02*
D03*
D30*
X361000Y844190D02*
D03*
X118000D02*
D03*
D31*
X385130Y820060D02*
D03*
X336870D02*
D03*
Y868320D02*
D03*
X385130D02*
D03*
X142130D02*
D03*
X93870D02*
D03*
Y820060D02*
D03*
X142130D02*
D03*
D34*
X306000Y460802D02*
D03*
D35*
X325050Y432608D02*
D03*
X312350D02*
D03*
X299650D02*
D03*
X286950D02*
D03*
Y488996D02*
D03*
X299650D02*
D03*
X312350D02*
D03*
X325050D02*
D03*
D36*
X444095Y335342D02*
D03*
X439095D02*
D03*
X434095D02*
D03*
Y314592D02*
D03*
X444095D02*
D03*
D37*
X426970Y332467D02*
D03*
Y327467D02*
D03*
Y317467D02*
D03*
X451220D02*
D03*
Y327467D02*
D03*
Y332467D02*
D03*
D38*
X428470Y322467D02*
D03*
X449720D02*
D03*
D39*
X439095Y317592D02*
D03*
D40*
X453349Y295092D02*
D03*
X462599D02*
D03*
X79516Y425100D02*
D03*
X88766D02*
D03*
D41*
X452974Y284092D02*
D03*
X460974D02*
D03*
X130000Y623000D02*
D03*
X122000D02*
D03*
X315000Y675000D02*
D03*
X307000D02*
D03*
X42293Y619467D02*
D03*
X50292D02*
D03*
X50473Y629807D02*
D03*
X42473D02*
D03*
X23000Y635000D02*
D03*
X122000Y650000D02*
D03*
X130000D02*
D03*
X15000Y635000D02*
D03*
X23049Y614285D02*
D03*
X15050D02*
D03*
D43*
X479845Y325960D02*
D03*
Y348473D02*
D03*
X395845Y341473D02*
D03*
Y318960D02*
D03*
D44*
X449345Y372809D02*
D03*
X434345D02*
D03*
X158500Y529000D02*
D03*
X173500D02*
D03*
D48*
X81141Y437000D02*
D03*
Y453000D02*
D03*
D49*
X99000Y459785D02*
D03*
Y452214D02*
D03*
X82477Y691944D02*
D03*
Y699515D02*
D03*
X92905Y708267D02*
D03*
Y700696D02*
D03*
X82362Y665534D02*
D03*
Y673105D02*
D03*
X42971Y696977D02*
D03*
Y689406D02*
D03*
D53*
X363500Y411000D02*
D03*
Y389000D02*
D03*
X346500D02*
D03*
Y411000D02*
D03*
D56*
X211182Y286950D02*
D03*
Y278951D02*
D03*
Y270951D02*
D03*
Y238951D02*
D03*
Y230951D02*
D03*
Y222951D02*
D03*
X203182Y286950D02*
D03*
Y278951D02*
D03*
Y270951D02*
D03*
Y238951D02*
D03*
Y230951D02*
D03*
Y222951D02*
D03*
X195182Y286950D02*
D03*
Y278951D02*
D03*
Y270951D02*
D03*
Y238951D02*
D03*
Y230951D02*
D03*
Y222951D02*
D03*
X187182Y286950D02*
D03*
Y278951D02*
D03*
Y270951D02*
D03*
Y238951D02*
D03*
Y230951D02*
D03*
Y222951D02*
D03*
X179182Y286950D02*
D03*
Y278951D02*
D03*
Y270951D02*
D03*
Y238951D02*
D03*
Y230951D02*
D03*
Y222951D02*
D03*
X171182Y286950D02*
D03*
Y278951D02*
D03*
Y270951D02*
D03*
Y238951D02*
D03*
Y230951D02*
D03*
Y222951D02*
D03*
X163182Y286950D02*
D03*
Y278951D02*
D03*
Y270951D02*
D03*
Y238951D02*
D03*
Y230951D02*
D03*
Y222951D02*
D03*
X155182Y286950D02*
D03*
Y278951D02*
D03*
Y270951D02*
D03*
Y238951D02*
D03*
Y230951D02*
D03*
Y222951D02*
D03*
X147182Y286950D02*
D03*
Y278951D02*
D03*
Y270951D02*
D03*
Y238951D02*
D03*
Y230951D02*
D03*
Y222951D02*
D03*
D57*
X298000Y664270D02*
D03*
Y651730D02*
D03*
D58*
X299000Y544000D02*
D03*
X333000D02*
D03*
X308000Y576000D02*
D03*
X342000D02*
D03*
D59*
X300500Y514000D02*
D03*
X317500D02*
D03*
D61*
X77371Y682588D02*
D03*
X84942D02*
D03*
X129786Y613000D02*
D03*
X122214D02*
D03*
X77825Y625087D02*
D03*
X85396D02*
D03*
X77825Y634819D02*
D03*
X85396D02*
D03*
X77063Y655914D02*
D03*
X84634D02*
D03*
X42469Y598303D02*
D03*
X22760Y604636D02*
D03*
X15189D02*
D03*
X50040Y598303D02*
D03*
D62*
X72638Y691840D02*
D03*
Y699883D02*
D03*
D63*
X85334Y645326D02*
D03*
X76834D02*
D03*
X86021Y614473D02*
D03*
X77521D02*
D03*
X14750Y583000D02*
D03*
X23250D02*
D03*
D64*
X72043Y665124D02*
D03*
Y673624D02*
D03*
X77964Y605069D02*
D03*
Y596569D02*
D03*
D68*
X14714Y594000D02*
D03*
X23286D02*
D03*
X39686Y707038D02*
D03*
X48257D02*
D03*
X41537Y608675D02*
D03*
X50108D02*
D03*
D69*
X23022Y625000D02*
D03*
X14978D02*
D03*
D70*
X265000Y587000D02*
D03*
D71*
X260000D02*
D03*
X255000D02*
D03*
X250000D02*
D03*
X245000D02*
D03*
X240000D02*
D03*
X235000D02*
D03*
X230000D02*
D03*
X225000D02*
D03*
X220000D02*
D03*
X215000D02*
D03*
X210000D02*
D03*
Y519496D02*
D03*
X215000D02*
D03*
X220000D02*
D03*
X225000D02*
D03*
X230000D02*
D03*
X235000D02*
D03*
X240000D02*
D03*
X245000D02*
D03*
X250000D02*
D03*
X255000D02*
D03*
X260000D02*
D03*
X265000D02*
D03*
D72*
X203748Y580748D02*
D03*
Y575748D02*
D03*
Y570748D02*
D03*
Y565748D02*
D03*
Y560748D02*
D03*
Y555748D02*
D03*
Y550748D02*
D03*
Y545748D02*
D03*
Y540748D02*
D03*
Y535748D02*
D03*
Y530748D02*
D03*
Y525748D02*
D03*
X271252D02*
D03*
Y530748D02*
D03*
Y535748D02*
D03*
Y540748D02*
D03*
Y545748D02*
D03*
Y550748D02*
D03*
Y555748D02*
D03*
Y560748D02*
D03*
Y565748D02*
D03*
Y570748D02*
D03*
Y575748D02*
D03*
Y580748D02*
D03*
D73*
X62950Y398000D02*
D03*
X73050D02*
D03*
X349608Y496803D02*
D03*
X359707D02*
D03*
D74*
X282032Y739886D02*
D03*
Y746386D02*
D03*
Y752886D02*
D03*
X269532D02*
D03*
Y746386D02*
D03*
Y739886D02*
D03*
D76*
X105750Y801000D02*
D03*
X118250D02*
D03*
X374250Y801190D02*
D03*
X361750D02*
D03*
D77*
X320600Y31747D02*
D03*
X345400Y16253D02*
D03*
X320600D02*
D03*
X345400Y31747D02*
D03*
D78*
X101318Y250748D02*
D03*
X87318D02*
D03*
D79*
X265974Y17900D02*
D03*
X258643D02*
D03*
D80*
X83000Y407125D02*
D03*
Y397875D02*
D03*
D81*
X80000Y778000D02*
D03*
X371772Y583110D02*
D03*
X88000Y778000D02*
D03*
X379772Y583110D02*
D03*
D83*
X432599Y521306D02*
D03*
D84*
X111155Y236500D02*
D03*
Y227000D02*
D03*
X88845D02*
D03*
Y236500D02*
D03*
Y217500D02*
D03*
D88*
X152637Y780700D02*
D03*
Y768000D02*
D03*
X119363Y755300D02*
D03*
Y780700D02*
D03*
X152637Y755300D02*
D03*
D90*
X255500Y707500D02*
D03*
X240500D02*
D03*
X235500D02*
D03*
X220500D02*
D03*
X245500Y638500D02*
D03*
X265500D02*
D03*
X260500D02*
D03*
X255500D02*
D03*
X250500D02*
D03*
X240500D02*
D03*
X235500D02*
D03*
X230500D02*
D03*
X225500D02*
D03*
X220500D02*
D03*
X215500D02*
D03*
X210500D02*
D03*
Y707500D02*
D03*
X215500D02*
D03*
X225500D02*
D03*
X230500D02*
D03*
X245500D02*
D03*
X250500D02*
D03*
X260500D02*
D03*
X265500D02*
D03*
D91*
X203500Y685500D02*
D03*
Y670500D02*
D03*
Y665500D02*
D03*
Y650500D02*
D03*
Y645500D02*
D03*
X272500Y650500D02*
D03*
Y685500D02*
D03*
Y700500D02*
D03*
Y695500D02*
D03*
Y690500D02*
D03*
Y680500D02*
D03*
Y675500D02*
D03*
Y670500D02*
D03*
Y665500D02*
D03*
Y660500D02*
D03*
Y655500D02*
D03*
Y645500D02*
D03*
X203500Y655500D02*
D03*
Y660500D02*
D03*
Y675500D02*
D03*
Y680500D02*
D03*
Y690500D02*
D03*
Y695500D02*
D03*
Y700500D02*
D03*
D92*
X237500Y553248D02*
D03*
X238000Y673000D02*
D03*
D93*
X234500Y124500D02*
D03*
D94*
X218000Y796000D02*
D03*
X230700D02*
D03*
Y802500D02*
D03*
Y789500D02*
D03*
X218000D02*
D03*
Y802500D02*
D03*
D95*
X408000Y606000D02*
D03*
X441000D02*
D03*
Y640000D02*
D03*
X408000D02*
D03*
D97*
X319443Y687363D02*
D03*
X258558Y29900D02*
D03*
X302943Y687363D02*
D03*
X242058Y29900D02*
D03*
D98*
X175000Y662500D02*
D03*
X175448Y674850D02*
D03*
X160653Y674724D02*
D03*
X161000Y662500D02*
D03*
X175000Y647500D02*
D03*
X161000D02*
D03*
X175448Y689850D02*
D03*
X160653Y689724D02*
D03*
D99*
X455105Y565248D02*
D03*
X470109D02*
D03*
X455105Y477364D02*
D03*
X440101D02*
D03*
X410094D02*
D03*
X415095D02*
D03*
X425098D02*
D03*
X465108Y565248D02*
D03*
X460106D02*
D03*
X450104D02*
D03*
X445103D02*
D03*
X440101D02*
D03*
X435100D02*
D03*
X430099D02*
D03*
X425098D02*
D03*
X420096D02*
D03*
X415095D02*
D03*
X420096Y477364D02*
D03*
X470109D02*
D03*
X395090Y565248D02*
D03*
X405093Y477364D02*
D03*
X395090D02*
D03*
X405093Y565248D02*
D03*
X410094D02*
D03*
X400091Y477364D02*
D03*
Y565248D02*
D03*
X430099Y477364D02*
D03*
X445103D02*
D03*
X450104D02*
D03*
X460106D02*
D03*
X465108D02*
D03*
X435100D02*
D03*
D100*
X476541Y518805D02*
D03*
Y483797D02*
D03*
X388657Y493799D02*
D03*
Y488798D02*
D03*
X476541Y503802D02*
D03*
Y523807D02*
D03*
Y528808D02*
D03*
Y533809D02*
D03*
Y538811D02*
D03*
Y543812D02*
D03*
Y498800D02*
D03*
Y548813D02*
D03*
X388657Y483797D02*
D03*
X476541Y513804D02*
D03*
X388657Y548813D02*
D03*
Y543812D02*
D03*
Y503802D02*
D03*
X476541Y553814D02*
D03*
X388657Y508803D02*
D03*
X476541Y488798D02*
D03*
Y493799D02*
D03*
X388657Y533809D02*
D03*
Y498800D02*
D03*
Y553814D02*
D03*
X476541Y508803D02*
D03*
X388657Y528808D02*
D03*
Y523807D02*
D03*
Y518805D02*
D03*
Y513804D02*
D03*
X476541Y558815D02*
D03*
X388657Y538811D02*
D03*
Y558815D02*
D03*
D103*
X215000Y127000D02*
D03*
X254000Y137000D02*
D03*
Y132000D02*
D03*
Y127000D02*
D03*
Y122000D02*
D03*
Y117000D02*
D03*
Y112000D02*
D03*
X215000D02*
D03*
Y117000D02*
D03*
Y122000D02*
D03*
Y132000D02*
D03*
Y137000D02*
D03*
D106*
X247000Y105000D02*
D03*
X242000D02*
D03*
X237000D02*
D03*
X232000D02*
D03*
X227000D02*
D03*
X222000D02*
D03*
Y144000D02*
D03*
X227000D02*
D03*
X232000D02*
D03*
X237000D02*
D03*
X242000D02*
D03*
X247000D02*
D03*
D108*
X111155Y217500D02*
D03*
D109*
X359250Y531250D02*
D03*
X346750D02*
D03*
X359250Y514750D02*
D03*
X346750D02*
D03*
D112*
X30000Y203000D02*
G03*
X30000Y203000I-2500J0D01*
G01*
X21000D02*
G03*
X21000Y203000I-2500J0D01*
G01*
X30000Y275000D02*
G03*
X30000Y275000I-2500J0D01*
G01*
X21000D02*
G03*
X21000Y275000I-2500J0D01*
G01*
D113*
X30800Y354400D02*
D03*
Y349400D02*
D03*
Y344400D02*
D03*
Y339400D02*
D03*
X28600Y334400D02*
D03*
Y329400D02*
D03*
Y324400D02*
D03*
X78200Y319400D02*
D03*
Y324400D02*
D03*
Y329400D02*
D03*
X78329Y344400D02*
D03*
Y349400D02*
D03*
Y354400D02*
D03*
X37000Y313200D02*
D03*
X42000D02*
D03*
X52000D02*
D03*
X57000Y311000D02*
D03*
X67000D02*
D03*
X72000D02*
D03*
Y360600D02*
D03*
X67000D02*
D03*
X62000D02*
D03*
X57000Y360600D02*
D03*
X52000Y360729D02*
D03*
X47000D02*
D03*
X42000D02*
D03*
X47000Y313200D02*
D03*
X28600Y319400D02*
D03*
X37000Y360729D02*
D03*
X78200Y334400D02*
D03*
X78329Y339400D02*
D03*
X62000Y311000D02*
D03*
X158977Y454155D02*
D03*
X150977Y342155D02*
D03*
X158977Y358155D02*
D03*
X150977Y350155D02*
D03*
X230978Y342155D02*
D03*
X222978D02*
D03*
Y350155D02*
D03*
X206978Y366155D02*
D03*
X198977D02*
D03*
X142977Y446155D02*
D03*
X230978Y406155D02*
D03*
X142977Y398155D02*
D03*
X230978Y470155D02*
D03*
X222978Y454155D02*
D03*
X230978Y462155D02*
D03*
X182977D02*
D03*
X198977Y454155D02*
D03*
X134977Y358155D02*
D03*
X150977Y454155D02*
D03*
Y446155D02*
D03*
X142977Y470155D02*
D03*
X134977D02*
D03*
X126977Y382155D02*
D03*
X198977Y470155D02*
D03*
X222978Y430155D02*
D03*
X190977Y462155D02*
D03*
Y438155D02*
D03*
X198977Y446155D02*
D03*
X158977Y350155D02*
D03*
Y342155D02*
D03*
X126977Y470155D02*
D03*
X166977Y342155D02*
D03*
X158977Y374155D02*
D03*
X222978Y446155D02*
D03*
X230978D02*
D03*
X118977Y350155D02*
D03*
X190977Y446155D02*
D03*
X118977Y438155D02*
D03*
X126977Y422155D02*
D03*
X118977Y430155D02*
D03*
X158977Y470155D02*
D03*
X246978Y454155D02*
D03*
X206978Y342155D02*
D03*
X246978Y374155D02*
D03*
X118977Y390155D02*
D03*
X166977Y470155D02*
D03*
X198977Y342155D02*
D03*
X246978Y446155D02*
D03*
X118977Y462155D02*
D03*
X238978Y438155D02*
D03*
X246978D02*
D03*
X206978Y358155D02*
D03*
X222978Y398155D02*
D03*
X182977Y446155D02*
D03*
X222978Y470155D02*
D03*
X150977Y358155D02*
D03*
X182977Y454155D02*
D03*
X222978Y406155D02*
D03*
X142977Y390155D02*
D03*
X134977Y454155D02*
D03*
X150977Y438155D02*
D03*
X142977Y422155D02*
D03*
X134977D02*
D03*
X158977Y366155D02*
D03*
X222978Y390155D02*
D03*
Y382155D02*
D03*
X214978Y374155D02*
D03*
X222978D02*
D03*
X230978D02*
D03*
X150977Y366155D02*
D03*
X134977Y414155D02*
D03*
X126977D02*
D03*
X142977Y430155D02*
D03*
X134977D02*
D03*
X126977Y438155D02*
D03*
X134977Y462155D02*
D03*
X238978Y470155D02*
D03*
Y462155D02*
D03*
X246978D02*
D03*
X238978Y446155D02*
D03*
X222978Y358155D02*
D03*
Y366155D02*
D03*
X214978D02*
D03*
Y358155D02*
D03*
Y350155D02*
D03*
Y342155D02*
D03*
X198977Y350155D02*
D03*
X142977Y366155D02*
D03*
X134977D02*
D03*
X126977D02*
D03*
Y374155D02*
D03*
X158977Y446155D02*
D03*
X174977D02*
D03*
X182977Y470155D02*
D03*
X190977D02*
D03*
X230978Y430155D02*
D03*
Y422155D02*
D03*
X222978D02*
D03*
Y414155D02*
D03*
X230978D02*
D03*
X238978D02*
D03*
X174977Y342155D02*
D03*
Y350155D02*
D03*
X182977Y358155D02*
D03*
X174977Y366155D02*
D03*
X166977D02*
D03*
Y358155D02*
D03*
Y350155D02*
D03*
X134977Y390155D02*
D03*
Y398155D02*
D03*
X142977Y406155D02*
D03*
X150977D02*
D03*
X142977Y414155D02*
D03*
X118977Y422155D02*
D03*
X198977Y358155D02*
D03*
X190977Y342155D02*
D03*
Y350155D02*
D03*
Y358155D02*
D03*
Y366155D02*
D03*
X182977Y374155D02*
D03*
Y366155D02*
D03*
Y350155D02*
D03*
Y342155D02*
D03*
X134977Y446155D02*
D03*
X142977Y462155D02*
D03*
Y454155D02*
D03*
X166977Y438155D02*
D03*
X230978Y366155D02*
D03*
X238978D02*
D03*
X246978Y358155D02*
D03*
X238978D02*
D03*
X230978D02*
D03*
X238978Y350155D02*
D03*
X246978D02*
D03*
X238978Y342155D02*
D03*
X198977Y462155D02*
D03*
X206978Y470155D02*
D03*
Y462155D02*
D03*
Y438155D02*
D03*
X214978Y446155D02*
D03*
X118977Y454155D02*
D03*
X134977Y438155D02*
D03*
X142977Y382155D02*
D03*
X126977Y358155D02*
D03*
X134977Y382155D02*
D03*
X118977Y358155D02*
D03*
X126977Y390155D02*
D03*
X150977Y470155D02*
D03*
X166977Y462155D02*
D03*
X222978D02*
D03*
X230978Y454155D02*
D03*
X134977Y350155D02*
D03*
Y342155D02*
D03*
X126977D02*
D03*
Y350155D02*
D03*
X150977Y374155D02*
D03*
X118977Y398155D02*
D03*
X166977Y446155D02*
D03*
X174977Y470155D02*
D03*
X166977Y454155D02*
D03*
X206978D02*
D03*
X214978Y470155D02*
D03*
X238978Y430155D02*
D03*
X230978Y438155D02*
D03*
X214978D02*
D03*
X238978Y398155D02*
D03*
X246978D02*
D03*
X238978Y382155D02*
D03*
X246978D02*
D03*
Y390155D02*
D03*
X238978D02*
D03*
X214978Y430155D02*
D03*
X142977Y342155D02*
D03*
Y350155D02*
D03*
X118977Y414155D02*
D03*
X126977Y406155D02*
D03*
X174977Y438155D02*
D03*
X118977Y382155D02*
D03*
Y374155D02*
D03*
X126977Y454155D02*
D03*
X150977Y462155D02*
D03*
X230978Y350155D02*
D03*
X118977Y470155D02*
D03*
X126977Y462155D02*
D03*
X158977D02*
D03*
X246978Y470155D02*
D03*
X190977Y454155D02*
D03*
X214978D02*
D03*
X238978D02*
D03*
X126977Y430155D02*
D03*
X166977Y422155D02*
D03*
Y414155D02*
D03*
X134977Y406155D02*
D03*
X166977D02*
D03*
Y398155D02*
D03*
Y390155D02*
D03*
X118977Y366155D02*
D03*
Y342155D02*
D03*
X142977Y358155D02*
D03*
X174977Y422155D02*
D03*
X182977D02*
D03*
X174977Y414155D02*
D03*
X182977D02*
D03*
X190977Y422155D02*
D03*
X198977D02*
D03*
X190977Y414155D02*
D03*
X198977D02*
D03*
X174977Y406155D02*
D03*
X182977D02*
D03*
X174977Y398155D02*
D03*
X190977Y406155D02*
D03*
X198977D02*
D03*
X190977Y398155D02*
D03*
X198977D02*
D03*
X230978D02*
D03*
X238978Y422155D02*
D03*
Y406155D02*
D03*
X246978D02*
D03*
X182977Y398155D02*
D03*
X174977Y390155D02*
D03*
X182977D02*
D03*
X190977D02*
D03*
X230978D02*
D03*
X198977D02*
D03*
X230978Y382155D02*
D03*
X174977Y358155D02*
D03*
X206978Y350155D02*
D03*
X238978Y374155D02*
D03*
X246978Y342155D02*
D03*
X158977Y438155D02*
D03*
X182977D02*
D03*
X198977D02*
D03*
X150977Y430155D02*
D03*
Y414155D02*
D03*
Y422155D02*
D03*
Y398155D02*
D03*
Y390155D02*
D03*
Y382155D02*
D03*
X214978Y422155D02*
D03*
Y390155D02*
D03*
Y398155D02*
D03*
Y414155D02*
D03*
Y406155D02*
D03*
X246978Y430155D02*
D03*
Y422155D02*
D03*
X166977Y374155D02*
D03*
X190977D02*
D03*
X174977D02*
D03*
X198977D02*
D03*
X214978Y382155D02*
D03*
X206978Y374155D02*
D03*
X246978Y366155D02*
D03*
X174977Y462155D02*
D03*
X214978D02*
D03*
X174977Y454155D02*
D03*
X118977Y446155D02*
D03*
X126977D02*
D03*
X206978D02*
D03*
X142977Y438155D02*
D03*
X222978D02*
D03*
X246978Y414155D02*
D03*
X118977Y406155D02*
D03*
X126977Y398155D02*
D03*
X134977Y374155D02*
D03*
X142977D02*
D03*
D114*
X54500Y336900D02*
D03*
D115*
X359000Y543750D02*
D03*
Y552250D02*
D03*
X423000Y779750D02*
D03*
Y788250D02*
D03*
X435000Y779750D02*
D03*
Y788250D02*
D03*
X443974Y295967D02*
D03*
Y287467D02*
D03*
X305000Y25250D02*
D03*
Y16750D02*
D03*
D116*
X98250Y385000D02*
D03*
X89750D02*
D03*
X294250Y27000D02*
D03*
X285750D02*
D03*
X127135Y557747D02*
D03*
X135635D02*
D03*
X127135Y537747D02*
D03*
X135635D02*
D03*
X135500Y528024D02*
D03*
X127000D02*
D03*
X135635Y547747D02*
D03*
X127135D02*
D03*
X186233Y585572D02*
D03*
X177733D02*
D03*
X172250Y575000D02*
D03*
X163750D02*
D03*
X273250Y615000D02*
D03*
X264750D02*
D03*
X204750Y604000D02*
D03*
X213250D02*
D03*
X285750Y17000D02*
D03*
X294250D02*
D03*
X485250Y656000D02*
D03*
X476750D02*
D03*
X400750Y654000D02*
D03*
X409250D02*
D03*
X487250Y643050D02*
D03*
X478750D02*
D03*
X447872Y652441D02*
D03*
X456372D02*
D03*
X447872Y662000D02*
D03*
X456372D02*
D03*
X175750Y704214D02*
D03*
X184250D02*
D03*
X252500Y615000D02*
D03*
X244000D02*
D03*
D117*
X468697Y779124D02*
D03*
X35250Y478000D02*
D03*
X411000Y417000D02*
D03*
X35250Y426250D02*
D03*
X42250Y812000D02*
D03*
X472750Y609802D02*
D03*
D118*
X483947Y764374D02*
D03*
Y793874D02*
D03*
X20000Y463250D02*
D03*
Y492750D02*
D03*
X395750Y431750D02*
D03*
Y402250D02*
D03*
X27000Y797250D02*
D03*
Y826750D02*
D03*
X20000Y411500D02*
D03*
Y441000D02*
D03*
X488000Y595052D02*
D03*
Y624552D02*
D03*
D119*
X494095Y374967D02*
D03*
X477095D02*
D03*
X381970Y368417D02*
D03*
X398970D02*
D03*
D120*
X428191Y274891D02*
D03*
Y291891D02*
D03*
D121*
X426250Y819000D02*
D03*
X455750D02*
D03*
X186250Y177000D02*
D03*
X215750D02*
D03*
D122*
X441000Y803750D02*
D03*
X201000Y192250D02*
D03*
D123*
X348000Y276500D02*
D03*
Y289200D02*
D03*
Y301900D02*
D03*
Y314600D02*
D03*
Y327300D02*
D03*
Y340000D02*
D03*
Y352700D02*
D03*
Y365400D02*
D03*
X286532Y276500D02*
D03*
Y289200D02*
D03*
Y301900D02*
D03*
Y314600D02*
D03*
Y327300D02*
D03*
Y340000D02*
D03*
Y352700D02*
D03*
Y365400D02*
D03*
D124*
X315900Y399000D02*
D03*
X326100D02*
D03*
D125*
X368000Y354498D02*
D03*
Y344298D02*
D03*
D126*
X329660Y745645D02*
D03*
X336160D02*
D03*
X342660D02*
D03*
Y721645D02*
D03*
X336160D02*
D03*
X329660D02*
D03*
X193500Y770000D02*
D03*
X187000D02*
D03*
X180500D02*
D03*
Y794000D02*
D03*
X187000D02*
D03*
X193500D02*
D03*
X116138Y696168D02*
D03*
X29000Y733000D02*
D03*
X109638Y720168D02*
D03*
X22500Y757000D02*
D03*
X35500Y733000D02*
D03*
X29000Y757000D02*
D03*
X35500D02*
D03*
X22500Y733000D02*
D03*
X109638Y696168D02*
D03*
X116138Y720168D02*
D03*
X122638D02*
D03*
Y696168D02*
D03*
D127*
X345713Y703250D02*
D03*
Y694750D02*
D03*
X178000Y810750D02*
D03*
Y819250D02*
D03*
X485000Y738250D02*
D03*
X498000D02*
D03*
X485000Y705986D02*
D03*
X497000D02*
D03*
X485000Y714486D02*
D03*
X497000D02*
D03*
X498000Y729750D02*
D03*
X485000D02*
D03*
D128*
X157000Y163500D02*
D03*
X166500Y184500D02*
D03*
X147500D02*
D03*
X79000Y263500D02*
D03*
X69500Y284500D02*
D03*
X88500D02*
D03*
D129*
X46505Y539725D02*
D03*
Y526725D02*
D03*
Y565725D02*
D03*
X106005D02*
D03*
Y552725D02*
D03*
Y539725D02*
D03*
Y546225D02*
D03*
Y533225D02*
D03*
X46505Y546225D02*
D03*
Y559225D02*
D03*
X106005Y526725D02*
D03*
X46505Y552725D02*
D03*
X106005Y559225D02*
D03*
X46505Y533225D02*
D03*
D130*
X76255Y575975D02*
D03*
X95755D02*
D03*
X63255D02*
D03*
X89255Y516475D02*
D03*
X82755D02*
D03*
X76255D02*
D03*
X69755D02*
D03*
X63255D02*
D03*
X56755D02*
D03*
X89255Y575975D02*
D03*
X69755D02*
D03*
X95755Y516475D02*
D03*
X82755Y575975D02*
D03*
X56755D02*
D03*
D131*
X76255Y546225D02*
D03*
D132*
X214517Y819221D02*
D03*
X200017D02*
D03*
D133*
X155158Y56200D02*
D03*
X212658Y30800D02*
D03*
X155158D02*
D03*
X212658Y56200D02*
D03*
D134*
X23000Y229000D02*
D03*
Y249000D02*
D03*
D135*
X50000Y226000D02*
D03*
Y232500D02*
D03*
Y239000D02*
D03*
Y245500D02*
D03*
Y252000D02*
D03*
D136*
X65897Y755706D02*
D03*
X89896Y762206D02*
D03*
Y755706D02*
D03*
X65897Y749206D02*
D03*
X89896D02*
D03*
X65897Y762206D02*
D03*
D137*
X302054Y843884D02*
D03*
X227530Y843725D02*
D03*
X178530Y876725D02*
D03*
X253054Y876884D02*
D03*
X178530Y843725D02*
D03*
X227530Y876725D02*
D03*
X253054Y843884D02*
D03*
X302054Y876884D02*
D03*
D138*
X426000Y714500D02*
D03*
D139*
X440000Y748750D02*
D03*
X404000D02*
D03*
X420000Y680250D02*
D03*
X400000Y748750D02*
D03*
Y680250D02*
D03*
X404000D02*
D03*
X408000D02*
D03*
X412000D02*
D03*
X416000D02*
D03*
X424000D02*
D03*
X428000D02*
D03*
X432000D02*
D03*
X436000D02*
D03*
X440000D02*
D03*
X444000D02*
D03*
X448000D02*
D03*
X452000D02*
D03*
Y748750D02*
D03*
X448000D02*
D03*
X444000D02*
D03*
X436000D02*
D03*
X432000D02*
D03*
X428000D02*
D03*
X424000D02*
D03*
X420000D02*
D03*
X416000D02*
D03*
X412000D02*
D03*
X408000D02*
D03*
D140*
X169000Y128500D02*
D03*
Y95500D02*
D03*
D141*
X429555Y656645D02*
D03*
X421055D02*
D03*
D142*
X391750Y740500D02*
D03*
Y736500D02*
D03*
Y732500D02*
D03*
Y728500D02*
D03*
Y724500D02*
D03*
Y720500D02*
D03*
Y716500D02*
D03*
Y712500D02*
D03*
Y708500D02*
D03*
Y704500D02*
D03*
Y700500D02*
D03*
Y696500D02*
D03*
Y692500D02*
D03*
Y688500D02*
D03*
X460250D02*
D03*
Y692500D02*
D03*
Y696500D02*
D03*
Y700500D02*
D03*
Y704500D02*
D03*
Y708500D02*
D03*
Y712500D02*
D03*
Y716500D02*
D03*
Y720500D02*
D03*
Y724500D02*
D03*
Y728500D02*
D03*
Y732500D02*
D03*
Y736500D02*
D03*
Y740500D02*
D03*
D143*
X269946Y785964D02*
D03*
Y778164D02*
D03*
X279778Y778193D02*
D03*
Y785993D02*
D03*
D144*
X196608Y24750D02*
D03*
X171208Y62250D02*
D03*
Y24750D02*
D03*
X183908D02*
D03*
Y62250D02*
D03*
X196608D02*
D03*
D145*
X133500Y637000D02*
D03*
X120500D02*
D03*
D146*
X123900Y103000D02*
D03*
Y123000D02*
D03*
Y78000D02*
D03*
D147*
Y148000D02*
D03*
D148*
X96800Y178700D02*
D03*
Y47300D02*
D03*
D149*
X373400Y628250D02*
D03*
D150*
X348000D02*
D03*
X322600D02*
D03*
D151*
X50000Y264000D02*
D03*
Y214000D02*
D03*
D152*
X388040Y234364D02*
D03*
Y58596D02*
D03*
D153*
X418500Y729500D02*
D03*
X411000Y722000D02*
D03*
Y707000D02*
D03*
X426000D02*
D03*
X418500Y699500D02*
D03*
X433500D02*
D03*
X441000Y707000D02*
D03*
Y722000D02*
D03*
X426000D02*
D03*
X433500Y729500D02*
D03*
Y714500D02*
D03*
X418500D02*
D03*
X68000Y323400D02*
D03*
X59000D02*
D03*
X50000D02*
D03*
X41000D02*
D03*
X68000Y332400D02*
D03*
X59000D02*
D03*
X50000D02*
D03*
X41000D02*
D03*
X68000Y341400D02*
D03*
X59000D02*
D03*
X50000D02*
D03*
X41000D02*
D03*
X68000Y350400D02*
D03*
X59000D02*
D03*
X50000D02*
D03*
X41000D02*
D03*
D154*
X476940Y221664D02*
D03*
X451540Y71296D02*
D03*
X426140D02*
D03*
X476940D02*
D03*
X451540Y221664D02*
D03*
D155*
X388040Y98220D02*
D03*
Y194740D02*
D03*
D156*
X296600Y207440D02*
D03*
X322000Y197280D02*
D03*
X296600Y187120D02*
D03*
Y166800D02*
D03*
Y85520D02*
D03*
X322000Y176960D02*
D03*
Y156640D02*
D03*
Y136320D02*
D03*
Y116000D02*
D03*
Y95680D02*
D03*
X296600Y126160D02*
D03*
D157*
Y105840D02*
D03*
D158*
X330173Y499579D02*
D03*
X366000Y575000D02*
D03*
X250000Y534000D02*
D03*
X239038Y533000D02*
D03*
X218000Y540000D02*
D03*
X230000D02*
D03*
X243000D02*
D03*
X255000D02*
D03*
X218000Y556000D02*
D03*
X230000D02*
D03*
X243000D02*
D03*
X255000D02*
D03*
X218000Y569000D02*
D03*
X230000D02*
D03*
X243000D02*
D03*
X255000D02*
D03*
X220500Y652000D02*
D03*
X232500D02*
D03*
X245500D02*
D03*
X257500D02*
D03*
X220000Y665000D02*
D03*
X232000D02*
D03*
X245000D02*
D03*
X257000D02*
D03*
X221000Y682000D02*
D03*
X233000D02*
D03*
X246000D02*
D03*
X258000D02*
D03*
X220500Y695000D02*
D03*
X232500D02*
D03*
X245500D02*
D03*
X257500D02*
D03*
X413000Y506000D02*
D03*
X425000D02*
D03*
X438000D02*
D03*
X450000D02*
D03*
X413000Y518000D02*
D03*
X425000D02*
D03*
X438000D02*
D03*
X450000D02*
D03*
X413000Y530000D02*
D03*
X425000D02*
D03*
X438000D02*
D03*
X450000D02*
D03*
Y542000D02*
D03*
X438000D02*
D03*
X425000D02*
D03*
X413000D02*
D03*
D159*
X234500Y114500D02*
D03*
Y124500D02*
D03*
Y134500D02*
D03*
X224500Y114500D02*
D03*
Y124500D02*
D03*
Y134500D02*
D03*
X244500Y114500D02*
D03*
Y124500D02*
D03*
Y134500D02*
D03*
M02*
