G04*
G04 #@! TF.GenerationSoftware,Altium Limited,Altium Designer,24.2.2 (26)*
G04*
G04 Layer_Color=16711935*
%FSLAX25Y25*%
%MOIN*%
G70*
G04*
G04 #@! TF.SameCoordinates,DA759692-2FDC-47FD-B5D7-4F029464E4A9*
G04*
G04*
G04 #@! TF.FilePolarity,Negative*
G04*
G01*
G75*
%ADD35R,0.31496X0.13583*%
%ADD36R,1.35433X0.23032*%
%ADD41R,0.03600X0.13400*%
%ADD42R,0.03600X0.17300*%
%ADD44C,0.25800*%
%ADD45C,0.02400*%
D35*
X118504Y-390698D02*
D03*
D36*
X216142Y-404084D02*
D03*
D41*
X150181Y-399477D02*
D03*
D42*
X280102Y-401427D02*
D03*
X185614D02*
D03*
X181677D02*
D03*
X240732D02*
D03*
X272228D02*
D03*
X268291D02*
D03*
X256480D02*
D03*
X236795D02*
D03*
X252543D02*
D03*
X221047D02*
D03*
X217110D02*
D03*
X209236D02*
D03*
X205299D02*
D03*
X189551D02*
D03*
X165929D02*
D03*
X169866D02*
D03*
X173803D02*
D03*
X177740D02*
D03*
X228921D02*
D03*
X213173D02*
D03*
X201362D02*
D03*
X248606D02*
D03*
X264354D02*
D03*
X244669D02*
D03*
X276165D02*
D03*
X260417D02*
D03*
X232858D02*
D03*
X224984D02*
D03*
X161992D02*
D03*
X154118D02*
D03*
X158055D02*
D03*
D44*
X1502Y-376772D02*
D03*
D45*
X207836Y-352004D02*
D03*
X197894Y-343242D02*
D03*
X194099Y-343174D02*
D03*
X197894Y-340986D02*
D03*
X194108D02*
D03*
X253884Y-338549D02*
D03*
X250597Y-338459D02*
D03*
X253823Y-335619D02*
D03*
X250597Y-335703D02*
D03*
X222321Y-343695D02*
D03*
X224444Y-341670D02*
D03*
X226305Y-337326D02*
D03*
X228567Y-340181D02*
D03*
X237712Y-360391D02*
D03*
X236227Y-358906D02*
D03*
X246135Y-344764D02*
D03*
X244035D02*
D03*
X215600Y-370495D02*
D03*
X217085Y-371980D02*
D03*
X214408Y-381647D02*
D03*
X208010Y-381678D02*
D03*
X212255Y-383071D02*
D03*
X210155D02*
D03*
X217895Y-374147D02*
D03*
X213419Y-369754D02*
D03*
X233892Y-358371D02*
D03*
X238644Y-362404D02*
D03*
X241987Y-345882D02*
D03*
X248396Y-345374D02*
D03*
X230321Y-334718D02*
D03*
X236227Y-334851D02*
D03*
X242120Y-334345D02*
D03*
X247965Y-335081D02*
D03*
X278702Y-366535D02*
D03*
X283858Y-356781D02*
D03*
Y-347332D02*
D03*
Y-340181D02*
D03*
Y-331443D02*
D03*
Y-323116D02*
D03*
Y-316412D02*
D03*
X280102Y-309128D02*
D03*
X269691Y-309126D02*
D03*
X197894Y-309533D02*
D03*
X207154D02*
D03*
X188151Y-309449D02*
D03*
X153718Y-309128D02*
D03*
X162979D02*
D03*
X181982Y-309213D02*
D03*
X172722D02*
D03*
X92913Y-309964D02*
D03*
X102174D02*
D03*
X121177Y-310049D02*
D03*
X111916D02*
D03*
X58661Y-309964D02*
D03*
X67922D02*
D03*
X86925Y-310049D02*
D03*
X77664D02*
D03*
X21672Y-309964D02*
D03*
X30932D02*
D03*
X49935Y-310049D02*
D03*
X40675D02*
D03*
X4096Y-309964D02*
D03*
X13356D02*
D03*
X-5647Y-309880D02*
D03*
X-14907D02*
D03*
X-23459Y-324100D02*
D03*
Y-309927D02*
D03*
X-23375Y-316620D02*
D03*
Y-355118D02*
D03*
X-23459Y-348425D02*
D03*
Y-334252D02*
D03*
X-23375Y-340945D02*
D03*
Y-369291D02*
D03*
X-23459Y-362598D02*
D03*
Y-376772D02*
D03*
X-23375Y-383465D02*
D03*
X148415Y-364619D02*
D03*
X139747Y-362811D02*
D03*
X131888Y-364073D02*
D03*
X129502Y-370866D02*
D03*
X121872Y-372278D02*
D03*
X114819Y-371711D02*
D03*
X108314Y-369882D02*
D03*
X107573Y-364073D02*
D03*
X88583Y-359842D02*
D03*
X78347D02*
D03*
X70866Y-359922D02*
D03*
X62205D02*
D03*
X52362Y-359922D02*
D03*
X44094D02*
D03*
X36220Y-362826D02*
D03*
Y-370866D02*
D03*
Y-377953D02*
D03*
Y-385827D02*
D03*
X33071Y-393701D02*
D03*
X24666D02*
D03*
X18202D02*
D03*
X9963D02*
D03*
X1077D02*
D03*
X-6985D02*
D03*
X-14628D02*
D03*
X-21654D02*
D03*
X150181Y-381102D02*
D03*
X248038Y-371224D02*
D03*
X242245Y-371407D02*
D03*
X174548Y-369882D02*
D03*
X169866D02*
D03*
X196019Y-316412D02*
D03*
X187917Y-324418D02*
D03*
X183222Y-324410D02*
D03*
X179140Y-324418D02*
D03*
X175234Y-324410D02*
D03*
X170849Y-329155D02*
D03*
X164467Y-330481D02*
D03*
Y-353853D02*
D03*
X169866Y-354297D02*
D03*
X175234Y-360746D02*
D03*
X180277Y-361283D02*
D03*
X184601Y-360970D02*
D03*
X187917Y-361283D02*
D03*
X193609Y-364196D02*
D03*
X196850Y-364157D02*
D03*
X280105Y-387703D02*
D03*
X276250Y-387546D02*
D03*
X268291Y-387664D02*
D03*
X264212Y-387703D02*
D03*
X260356Y-387664D02*
D03*
X256480Y-388097D02*
D03*
X252467D02*
D03*
X248396D02*
D03*
X244496Y-388293D02*
D03*
X240754D02*
D03*
X236751D02*
D03*
X232858Y-388372D02*
D03*
X224984Y-388844D02*
D03*
X214573D02*
D03*
X204531D02*
D03*
X181677Y-388372D02*
D03*
X173803D02*
D03*
X162081D02*
D03*
X158107Y-385618D02*
D03*
X154118Y-385874D02*
D03*
X122501Y-350503D02*
D03*
X127934Y-348051D02*
D03*
X150181Y-322441D02*
D03*
Y-318456D02*
D03*
X147366Y-314125D02*
D03*
Y-310630D02*
D03*
X107573Y-318456D02*
D03*
Y-314125D02*
D03*
X106833Y-327863D02*
D03*
Y-323543D02*
D03*
X117158Y-332601D02*
D03*
X97586Y-349894D02*
D03*
X94488Y-339064D02*
D03*
X129502Y-329155D02*
D03*
Y-325733D02*
D03*
X269035Y-328316D02*
D03*
Y-325085D02*
D03*
Y-322132D02*
D03*
X205674Y-329269D02*
D03*
Y-325733D02*
D03*
Y-322132D02*
D03*
M02*
