G04*
G04 #@! TF.GenerationSoftware,Altium Limited,Altium Designer,24.2.2 (26)*
G04*
G04 Layer_Color=16711935*
%FSLAX25Y25*%
%MOIN*%
G70*
G04*
G04 #@! TF.SameCoordinates,80A8E479-4E92-43EF-BFA2-91FD1FC97BD2*
G04*
G04*
G04 #@! TF.FilePolarity,Negative*
G04*
G01*
G75*
%ADD20R,0.02288X0.02016*%
%ADD21R,0.02016X0.02288*%
%ADD34R,0.02657X0.01772*%
%ADD43R,0.02911X0.02648*%
%ADD48R,0.02756X0.02756*%
%ADD56R,0.02123X0.01860*%
%ADD61R,0.02631X0.02648*%
%ADD75R,0.01860X0.02123*%
%ADD77R,0.03740X0.02756*%
%ADD78R,0.02423X0.02254*%
%ADD79R,0.02985X0.03197*%
%ADD83R,0.01772X0.02657*%
%ADD97R,0.02204X0.02382*%
%ADD108R,0.02029X0.01860*%
%ADD110C,0.02362*%
%ADD114R,0.31496X0.13583*%
%ADD115R,1.35433X0.23032*%
%ADD116R,0.03359X0.03556*%
%ADD117R,0.03359X0.03162*%
%ADD118R,0.03600X0.17300*%
%ADD119R,0.03600X0.13400*%
%ADD121R,0.02965X0.02769*%
G04:AMPARAMS|DCode=122|XSize=15.87mil|YSize=31.62mil|CornerRadius=5.97mil|HoleSize=0mil|Usage=FLASHONLY|Rotation=0.000|XOffset=0mil|YOffset=0mil|HoleType=Round|Shape=RoundedRectangle|*
%AMROUNDEDRECTD122*
21,1,0.01587,0.01968,0,0,0.0*
21,1,0.00394,0.03162,0,0,0.0*
1,1,0.01194,0.00197,-0.00984*
1,1,0.01194,-0.00197,-0.00984*
1,1,0.01194,-0.00197,0.00984*
1,1,0.01194,0.00197,0.00984*
%
%ADD122ROUNDEDRECTD122*%
G04:AMPARAMS|DCode=123|XSize=15.87mil|YSize=31.62mil|CornerRadius=5.97mil|HoleSize=0mil|Usage=FLASHONLY|Rotation=270.000|XOffset=0mil|YOffset=0mil|HoleType=Round|Shape=RoundedRectangle|*
%AMROUNDEDRECTD123*
21,1,0.01587,0.01968,0,0,270.0*
21,1,0.00394,0.03162,0,0,270.0*
1,1,0.01194,-0.00984,-0.00197*
1,1,0.01194,-0.00984,0.00197*
1,1,0.01194,0.00984,0.00197*
1,1,0.01194,0.00984,-0.00197*
%
%ADD123ROUNDEDRECTD123*%
%ADD125R,0.02572X0.02572*%
%ADD126R,0.02572X0.02572*%
%ADD128R,0.03162X0.03359*%
%ADD138R,0.03458X0.03162*%
%ADD144R,0.03556X0.04343*%
%ADD145R,0.03556X0.03359*%
%ADD146R,0.03162X0.03458*%
%ADD147R,0.02769X0.02965*%
%ADD151R,0.03162X0.02965*%
%ADD154R,0.03359X0.03359*%
%ADD155R,0.03359X0.03359*%
%ADD156R,0.03556X0.03753*%
G04:AMPARAMS|DCode=161|XSize=15.87mil|YSize=35.56mil|CornerRadius=5.97mil|HoleSize=0mil|Usage=FLASHONLY|Rotation=180.000|XOffset=0mil|YOffset=0mil|HoleType=Round|Shape=RoundedRectangle|*
%AMROUNDEDRECTD161*
21,1,0.01587,0.02362,0,0,180.0*
21,1,0.00394,0.03556,0,0,180.0*
1,1,0.01194,-0.00197,0.01181*
1,1,0.01194,0.00197,0.01181*
1,1,0.01194,0.00197,-0.01181*
1,1,0.01194,-0.00197,-0.01181*
%
%ADD161ROUNDEDRECTD161*%
%ADD169R,0.02965X0.02965*%
%ADD170C,0.03937*%
%ADD171C,0.07296*%
%ADD172R,0.09068X0.09068*%
%ADD173C,0.07099*%
%ADD174C,0.04737*%
%ADD175C,0.05721*%
%ADD176C,0.04331*%
%ADD177C,0.06299*%
%ADD178O,0.09855X0.05524*%
%ADD179O,0.11824X0.05524*%
%ADD180C,0.06312*%
%ADD181C,0.26391*%
G04:AMPARAMS|DCode=182|XSize=35.43mil|YSize=74.8mil|CornerRadius=17.72mil|HoleSize=0mil|Usage=FLASHONLY|Rotation=270.000|XOffset=0mil|YOffset=0mil|HoleType=Round|Shape=RoundedRectangle|*
%AMROUNDEDRECTD182*
21,1,0.03543,0.03937,0,0,270.0*
21,1,0.00000,0.07480,0,0,270.0*
1,1,0.03543,-0.01968,0.00000*
1,1,0.03543,-0.01968,0.00000*
1,1,0.03543,0.01968,0.00000*
1,1,0.03543,0.01968,0.00000*
%
%ADD182ROUNDEDRECTD182*%
%ADD183R,0.02362X0.02362*%
%ADD184R,0.07099X0.07099*%
%ADD185C,0.14186*%
%ADD186C,0.10827*%
%ADD187R,0.10827X0.10827*%
%ADD188C,0.11800*%
%ADD189R,0.05472X0.05472*%
%ADD190C,0.05472*%
%ADD191C,0.04540*%
%ADD192R,0.07099X0.07099*%
%ADD193C,0.25800*%
%ADD194C,0.06300*%
%ADD195C,0.09461*%
%ADD196R,0.08674X0.08674*%
%ADD197C,0.01600*%
%ADD198C,0.02600*%
%ADD199C,0.02800*%
%ADD200C,0.02400*%
%ADD201C,0.02769*%
%ADD248R,0.04331X0.03937*%
%ADD250R,0.04921X0.03937*%
%ADD254R,0.02648X0.02631*%
%ADD256R,0.05906X0.04724*%
%ADD259R,0.02953X0.03543*%
%ADD261R,0.03543X0.02953*%
%ADD262R,0.04355X0.03773*%
%ADD264R,0.01968X0.01870*%
%ADD267R,0.01870X0.01968*%
%ADD268R,0.03937X0.04921*%
%ADD270R,0.03300X0.03900*%
%ADD271R,0.03300X0.02400*%
%ADD278R,0.01772X0.00787*%
%ADD279R,0.01772X0.02165*%
%ADD284R,0.02165X0.01772*%
%ADD285R,0.00787X0.01772*%
%ADD286R,0.05512X0.03937*%
%ADD287R,0.01575X0.01968*%
G04:AMPARAMS|DCode=295|XSize=40.88mil|YSize=20.95mil|CornerRadius=10.48mil|HoleSize=0mil|Usage=FLASHONLY|Rotation=90.000|XOffset=0mil|YOffset=0mil|HoleType=Round|Shape=RoundedRectangle|*
%AMROUNDEDRECTD295*
21,1,0.04088,0.00000,0,0,90.0*
21,1,0.01993,0.02095,0,0,90.0*
1,1,0.02095,0.00000,0.00996*
1,1,0.02095,0.00000,-0.00996*
1,1,0.02095,0.00000,-0.00996*
1,1,0.02095,0.00000,0.00996*
%
%ADD295ROUNDEDRECTD295*%
%ADD296R,0.02095X0.04088*%
%ADD300R,0.02681X0.02410*%
%ADD301R,0.02410X0.02681*%
%ADD302R,0.04724X0.05512*%
%ADD305R,0.03162X0.06902*%
G04:AMPARAMS|DCode=306|XSize=25.72mil|YSize=63.12mil|CornerRadius=5.95mil|HoleSize=0mil|Usage=FLASHONLY|Rotation=90.000|XOffset=0mil|YOffset=0mil|HoleType=Round|Shape=RoundedRectangle|*
%AMROUNDEDRECTD306*
21,1,0.02572,0.05122,0,0,90.0*
21,1,0.01382,0.06312,0,0,90.0*
1,1,0.01190,0.02561,0.00691*
1,1,0.01190,0.02561,-0.00691*
1,1,0.01190,-0.02561,-0.00691*
1,1,0.01190,-0.02561,0.00691*
%
%ADD306ROUNDEDRECTD306*%
%ADD307R,0.03753X0.03556*%
%ADD308R,0.06312X0.04737*%
%ADD309R,0.06312X0.06312*%
%ADD310R,0.04737X0.04343*%
%ADD311R,0.02769X0.02572*%
%ADD312R,0.03792X0.03635*%
%ADD313R,0.03635X0.03792*%
%ADD314R,0.04540X0.03950*%
%ADD315O,0.03556X0.10642*%
%ADD316R,0.03084X0.02926*%
%ADD317R,0.02965X0.02965*%
%ADD318R,0.13543X0.13543*%
%ADD319O,0.03268X0.01654*%
%ADD320O,0.01654X0.03268*%
%ADD321R,0.07296X0.01981*%
%ADD322R,0.01981X0.07296*%
G04:AMPARAMS|DCode=323|XSize=25.72mil|YSize=53.28mil|CornerRadius=5.95mil|HoleSize=0mil|Usage=FLASHONLY|Rotation=0.000|XOffset=0mil|YOffset=0mil|HoleType=Round|Shape=RoundedRectangle|*
%AMROUNDEDRECTD323*
21,1,0.02572,0.04138,0,0,0.0*
21,1,0.01382,0.05328,0,0,0.0*
1,1,0.01190,0.00691,-0.02069*
1,1,0.01190,-0.00691,-0.02069*
1,1,0.01190,-0.00691,0.02069*
1,1,0.01190,0.00691,0.02069*
%
%ADD323ROUNDEDRECTD323*%
%ADD324R,0.03950X0.02965*%
%ADD325R,0.02769X0.02808*%
%ADD326R,0.02847X0.03005*%
%ADD327R,0.03556X0.01784*%
%ADD328R,0.07493X0.07099*%
%ADD329R,0.04147X0.01981*%
%ADD330R,0.03753X0.04147*%
%ADD331R,0.04934X0.05131*%
G04:AMPARAMS|DCode=332|XSize=90.68mil|YSize=90.68mil|CornerRadius=6.07mil|HoleSize=0mil|Usage=FLASHONLY|Rotation=180.000|XOffset=0mil|YOffset=0mil|HoleType=Round|Shape=RoundedRectangle|*
%AMROUNDEDRECTD332*
21,1,0.09068,0.07854,0,0,180.0*
21,1,0.07854,0.09068,0,0,180.0*
1,1,0.01213,-0.03927,0.03927*
1,1,0.01213,0.03927,0.03927*
1,1,0.01213,0.03927,-0.03927*
1,1,0.01213,-0.03927,-0.03927*
%
%ADD332ROUNDEDRECTD332*%
G04:AMPARAMS|DCode=333|XSize=19.81mil|YSize=37.53mil|CornerRadius=5.95mil|HoleSize=0mil|Usage=FLASHONLY|Rotation=180.000|XOffset=0mil|YOffset=0mil|HoleType=Round|Shape=RoundedRectangle|*
%AMROUNDEDRECTD333*
21,1,0.01981,0.02563,0,0,180.0*
21,1,0.00791,0.03753,0,0,180.0*
1,1,0.01190,-0.00396,0.01282*
1,1,0.01190,0.00396,0.01282*
1,1,0.01190,0.00396,-0.01282*
1,1,0.01190,-0.00396,-0.01282*
%
%ADD333ROUNDEDRECTD333*%
G04:AMPARAMS|DCode=334|XSize=19.81mil|YSize=37.53mil|CornerRadius=5.95mil|HoleSize=0mil|Usage=FLASHONLY|Rotation=90.000|XOffset=0mil|YOffset=0mil|HoleType=Round|Shape=RoundedRectangle|*
%AMROUNDEDRECTD334*
21,1,0.01981,0.02563,0,0,90.0*
21,1,0.00791,0.03753,0,0,90.0*
1,1,0.01190,0.01282,0.00396*
1,1,0.01190,0.01282,-0.00396*
1,1,0.01190,-0.01282,-0.00396*
1,1,0.01190,-0.01282,0.00396*
%
%ADD334ROUNDEDRECTD334*%
%ADD335R,0.05328X0.06509*%
%ADD336R,0.03320X0.03477*%
G36*
X552110Y-149386D02*
X552165Y-149442D01*
X552195Y-149514D01*
Y-149553D01*
Y-149947D01*
Y-149986D01*
X552165Y-150058D01*
X552110Y-150114D01*
X552038Y-150144D01*
X551172D01*
X551100Y-150114D01*
X551044Y-150058D01*
X551014Y-149986D01*
Y-149947D01*
Y-149553D01*
Y-149514D01*
X551044Y-149442D01*
X551100Y-149386D01*
X551172Y-149356D01*
X552038D01*
X552110Y-149386D01*
D02*
G37*
G36*
X549748D02*
X549803Y-149442D01*
X549833Y-149514D01*
Y-149553D01*
Y-149947D01*
Y-149986D01*
X549803Y-150058D01*
X549748Y-150114D01*
X549676Y-150144D01*
X548810D01*
X548737Y-150114D01*
X548682Y-150058D01*
X548652Y-149986D01*
Y-149947D01*
Y-149553D01*
Y-149514D01*
X548682Y-149442D01*
X548737Y-149386D01*
X548810Y-149356D01*
X549676D01*
X549748Y-149386D01*
D02*
G37*
G36*
X552110Y-151355D02*
X552165Y-151410D01*
X552195Y-151482D01*
Y-151522D01*
Y-151915D01*
Y-151954D01*
X552165Y-152027D01*
X552110Y-152082D01*
X552038Y-152112D01*
X551172D01*
X551100Y-152082D01*
X551044Y-152027D01*
X551014Y-151954D01*
Y-151915D01*
Y-151522D01*
Y-151482D01*
X551044Y-151410D01*
X551100Y-151355D01*
X551172Y-151325D01*
X552038D01*
X552110Y-151355D01*
D02*
G37*
G36*
X549748D02*
X549803Y-151410D01*
X549833Y-151482D01*
Y-151522D01*
Y-151915D01*
Y-151954D01*
X549803Y-152027D01*
X549748Y-152082D01*
X549676Y-152112D01*
X548810D01*
X548737Y-152082D01*
X548682Y-152027D01*
X548652Y-151954D01*
Y-151915D01*
Y-151522D01*
Y-151482D01*
X548682Y-151410D01*
X548737Y-151355D01*
X548810Y-151325D01*
X549676D01*
X549748Y-151355D01*
D02*
G37*
G36*
X552110Y-153323D02*
X552165Y-153379D01*
X552195Y-153451D01*
Y-153490D01*
Y-153884D01*
Y-153923D01*
X552165Y-153995D01*
X552110Y-154051D01*
X552038Y-154081D01*
X551172D01*
X551100Y-154051D01*
X551044Y-153995D01*
X551014Y-153923D01*
Y-153884D01*
Y-153490D01*
Y-153451D01*
X551044Y-153379D01*
X551100Y-153323D01*
X551172Y-153293D01*
X552038D01*
X552110Y-153323D01*
D02*
G37*
G36*
X549945D02*
X550000Y-153379D01*
X550030Y-153451D01*
Y-153490D01*
Y-153884D01*
Y-153923D01*
X550000Y-153995D01*
X549945Y-154051D01*
X549872Y-154081D01*
X548810D01*
X548737Y-154051D01*
X548682Y-153995D01*
X548652Y-153923D01*
Y-153884D01*
Y-153490D01*
Y-153451D01*
X548682Y-153379D01*
X548737Y-153323D01*
X548810Y-153293D01*
X549872D01*
X549945Y-153323D01*
D02*
G37*
D20*
X344886Y-227625D02*
D03*
X342008D02*
D03*
X364745Y-235189D02*
D03*
X367624D02*
D03*
X483580Y-86684D02*
D03*
X480701D02*
D03*
Y-75325D02*
D03*
X483580D02*
D03*
X273035Y-241440D02*
D03*
X275914D02*
D03*
X293508Y-249983D02*
D03*
X296386D02*
D03*
X275914Y-248841D02*
D03*
X273035D02*
D03*
X293508Y-242739D02*
D03*
X296386D02*
D03*
X327726Y-314261D02*
D03*
X324848D02*
D03*
X278061Y-345307D02*
D03*
X275183D02*
D03*
X347927Y-300752D02*
D03*
X345049D02*
D03*
X352125Y-313248D02*
D03*
X349247D02*
D03*
X368321Y-283981D02*
D03*
X365443D02*
D03*
X370896Y-307656D02*
D03*
X373775D02*
D03*
X382454Y-280340D02*
D03*
X379576D02*
D03*
X378701Y-267264D02*
D03*
X375823D02*
D03*
X392985Y-275324D02*
D03*
X395864D02*
D03*
X397682Y-270454D02*
D03*
X400560D02*
D03*
X408211Y-296223D02*
D03*
X405333D02*
D03*
X428427Y-287222D02*
D03*
X431306D02*
D03*
X416959Y-314918D02*
D03*
X414081D02*
D03*
X430439Y-310000D02*
D03*
X433317D02*
D03*
X414193Y-323079D02*
D03*
X411315D02*
D03*
X404529Y-353241D02*
D03*
X407407D02*
D03*
X387739Y-347319D02*
D03*
X390618D02*
D03*
X384252Y-334147D02*
D03*
X387130D02*
D03*
X375527Y-336756D02*
D03*
X378406D02*
D03*
X375395Y-342722D02*
D03*
X378274D02*
D03*
X321018Y-210585D02*
D03*
X318140D02*
D03*
X481095Y-146983D02*
D03*
X483973D02*
D03*
X35331Y-295474D02*
D03*
X32453D02*
D03*
X135153Y-272729D02*
D03*
X138031D02*
D03*
X406262Y-53007D02*
D03*
X403384D02*
D03*
X410962D02*
D03*
X413841D02*
D03*
X420209Y-68583D02*
D03*
X423087D02*
D03*
X415308D02*
D03*
X412430D02*
D03*
X394772Y-95374D02*
D03*
X391893D02*
D03*
X343213Y-212680D02*
D03*
X340335D02*
D03*
D21*
X344356Y-336740D02*
D03*
Y-339618D02*
D03*
X357074Y-358050D02*
D03*
Y-355171D02*
D03*
X359724Y-263648D02*
D03*
Y-266526D02*
D03*
X350264Y-270553D02*
D03*
Y-273431D02*
D03*
X559503Y-201313D02*
D03*
Y-204191D02*
D03*
X555669Y-201313D02*
D03*
Y-204191D02*
D03*
X551863Y-201313D02*
D03*
Y-204191D02*
D03*
X490408Y-193080D02*
D03*
Y-190202D02*
D03*
X485443Y-193245D02*
D03*
Y-190367D02*
D03*
X123027Y-209376D02*
D03*
Y-206498D02*
D03*
X127852Y-209343D02*
D03*
Y-206464D02*
D03*
X128040Y-227070D02*
D03*
Y-229948D02*
D03*
X121355Y-154492D02*
D03*
Y-151613D02*
D03*
X126919Y-154456D02*
D03*
Y-151578D02*
D03*
X121141Y-172233D02*
D03*
Y-175112D02*
D03*
X126844Y-172233D02*
D03*
Y-175112D02*
D03*
X281819Y-235394D02*
D03*
Y-238272D02*
D03*
X279002Y-257564D02*
D03*
Y-254685D02*
D03*
X127853Y-118265D02*
D03*
Y-115386D02*
D03*
X121447Y-118096D02*
D03*
Y-115218D02*
D03*
X128673Y-61997D02*
D03*
Y-59118D02*
D03*
X121634Y-61701D02*
D03*
Y-58823D02*
D03*
X122328Y-229586D02*
D03*
Y-226707D02*
D03*
X286876Y-238272D02*
D03*
Y-235394D02*
D03*
X277335Y-237982D02*
D03*
Y-235104D02*
D03*
X401889Y-299924D02*
D03*
Y-302802D02*
D03*
X339051Y-315700D02*
D03*
Y-312822D02*
D03*
X333010Y-315349D02*
D03*
Y-312471D02*
D03*
X368747Y-270690D02*
D03*
Y-267812D02*
D03*
X363035Y-302107D02*
D03*
Y-304985D02*
D03*
X391718Y-298773D02*
D03*
Y-301651D02*
D03*
X381165Y-298773D02*
D03*
Y-301651D02*
D03*
X425604Y-299909D02*
D03*
Y-297031D02*
D03*
X448823Y-302165D02*
D03*
Y-305043D02*
D03*
X419198Y-320856D02*
D03*
Y-323735D02*
D03*
X423336Y-320919D02*
D03*
Y-323798D02*
D03*
X420158Y-333016D02*
D03*
Y-335894D02*
D03*
X431311Y-333016D02*
D03*
Y-335894D02*
D03*
X432074Y-343153D02*
D03*
Y-340274D02*
D03*
X452498Y-344438D02*
D03*
Y-341560D02*
D03*
X428149Y-356853D02*
D03*
Y-353974D02*
D03*
X440969Y-355032D02*
D03*
Y-352153D02*
D03*
X399669Y-359639D02*
D03*
Y-362517D02*
D03*
X385002Y-356992D02*
D03*
Y-359871D02*
D03*
X401716Y-336829D02*
D03*
Y-333951D02*
D03*
X355251Y-338672D02*
D03*
Y-335793D02*
D03*
X335938Y-354876D02*
D03*
Y-357754D02*
D03*
X316629Y-185271D02*
D03*
Y-188149D02*
D03*
X338900Y-132012D02*
D03*
Y-134890D02*
D03*
X153332Y-290286D02*
D03*
Y-287408D02*
D03*
X505959Y-140480D02*
D03*
Y-143358D02*
D03*
X41065Y-297396D02*
D03*
Y-300274D02*
D03*
X22748Y-284510D02*
D03*
Y-281632D02*
D03*
X109510Y-268246D02*
D03*
Y-271124D02*
D03*
X103211Y-268246D02*
D03*
Y-271124D02*
D03*
X84033Y-266868D02*
D03*
Y-269746D02*
D03*
X78718Y-266868D02*
D03*
Y-269746D02*
D03*
X145238Y-260310D02*
D03*
Y-257432D02*
D03*
X156766Y-268395D02*
D03*
Y-265517D02*
D03*
X38158Y-334583D02*
D03*
Y-337461D02*
D03*
X128673Y-40947D02*
D03*
Y-38069D02*
D03*
X127969Y-98110D02*
D03*
Y-95232D02*
D03*
X122005Y-98180D02*
D03*
Y-95302D02*
D03*
X122642Y-37989D02*
D03*
Y-40867D02*
D03*
D34*
X345342Y-270138D02*
D03*
Y-273780D02*
D03*
X355763Y-273746D02*
D03*
Y-270104D02*
D03*
X396647Y-299374D02*
D03*
Y-303016D02*
D03*
X350133Y-340193D02*
D03*
Y-336551D02*
D03*
X373050Y-279566D02*
D03*
Y-275924D02*
D03*
X382787Y-276388D02*
D03*
Y-272747D02*
D03*
X385671Y-298265D02*
D03*
Y-301907D02*
D03*
X418559Y-283415D02*
D03*
Y-279774D02*
D03*
X430500Y-300291D02*
D03*
Y-296649D02*
D03*
X444295Y-301444D02*
D03*
Y-305086D02*
D03*
X415520Y-310246D02*
D03*
Y-306604D02*
D03*
X428098Y-320538D02*
D03*
Y-324179D02*
D03*
X426003Y-332634D02*
D03*
Y-336276D02*
D03*
X435564Y-332669D02*
D03*
Y-336311D02*
D03*
X427141Y-343381D02*
D03*
Y-339739D02*
D03*
X447209Y-344542D02*
D03*
Y-340901D02*
D03*
X434536Y-357005D02*
D03*
Y-353364D02*
D03*
X446067Y-355413D02*
D03*
Y-351772D02*
D03*
X389825Y-356315D02*
D03*
Y-359957D02*
D03*
X370957Y-342237D02*
D03*
Y-338595D02*
D03*
X351462Y-354790D02*
D03*
Y-358431D02*
D03*
X375395Y-286995D02*
D03*
Y-283354D02*
D03*
D43*
X433665Y-169315D02*
D03*
X429991D02*
D03*
D48*
X12277Y-340634D02*
D03*
Y-335122D02*
D03*
D56*
X351359Y-255562D02*
D03*
X354246D02*
D03*
X351283Y-259460D02*
D03*
X354169D02*
D03*
X141915Y-288847D02*
D03*
X139028D02*
D03*
D61*
X241061Y17992D02*
D03*
X237107D02*
D03*
X458571Y-358586D02*
D03*
X454617D02*
D03*
X469937Y-358545D02*
D03*
X473891D02*
D03*
D75*
X424631Y-204759D02*
D03*
Y-201873D02*
D03*
X420506Y-204857D02*
D03*
Y-201971D02*
D03*
X32836Y-316162D02*
D03*
Y-319048D02*
D03*
X38386Y-319146D02*
D03*
Y-316260D02*
D03*
D77*
X111991Y-287291D02*
D03*
X118487D02*
D03*
Y-279631D02*
D03*
X111991D02*
D03*
X38032Y-342159D02*
D03*
X31536D02*
D03*
X39863Y-354991D02*
D03*
X33367D02*
D03*
D78*
X18906Y-320440D02*
D03*
X22281D02*
D03*
X39369Y-349357D02*
D03*
X35995D02*
D03*
X507137Y-55337D02*
D03*
X503763D02*
D03*
D79*
X26396Y-325656D02*
D03*
X21459D02*
D03*
D83*
X345268Y-231903D02*
D03*
X341626D02*
D03*
X359336Y-230579D02*
D03*
X362978D02*
D03*
X328165Y-319044D02*
D03*
X324523D02*
D03*
X348165Y-305187D02*
D03*
X344523D02*
D03*
X370978Y-302524D02*
D03*
X374620D02*
D03*
X392870Y-280198D02*
D03*
X389228D02*
D03*
X397300Y-265717D02*
D03*
X400942D02*
D03*
X428187Y-282426D02*
D03*
X431828D02*
D03*
X430254Y-315019D02*
D03*
X433895D02*
D03*
X404443Y-359750D02*
D03*
X408084D02*
D03*
X400555Y-347080D02*
D03*
X404196D02*
D03*
X387407Y-341828D02*
D03*
X391049D02*
D03*
D97*
X124092Y-285349D02*
D03*
Y-288321D02*
D03*
Y-281527D02*
D03*
Y-278556D02*
D03*
D108*
X45310Y-342159D02*
D03*
X42329D02*
D03*
D110*
X23927Y-353845D02*
D03*
X22155Y-356916D02*
D03*
X20384Y-353845D02*
D03*
X18612Y-356916D02*
D03*
X16841Y-353845D02*
D03*
X15069Y-356916D02*
D03*
X13297Y-353845D02*
D03*
X11526Y-356916D02*
D03*
X9754Y-353845D02*
D03*
X7982Y-356916D02*
D03*
X6211Y-353845D02*
D03*
X4439Y-356916D02*
D03*
X896D02*
D03*
X539201Y-140589D02*
D03*
X535658D02*
D03*
X533886Y-143660D02*
D03*
X532114Y-140589D02*
D03*
X530342Y-143660D02*
D03*
X528571Y-140589D02*
D03*
X526799Y-143660D02*
D03*
X525028Y-140589D02*
D03*
X523256Y-143660D02*
D03*
X521484Y-140589D02*
D03*
X519713Y-143660D02*
D03*
X517941Y-140589D02*
D03*
X516169Y-143660D02*
D03*
D114*
X118504Y-390698D02*
D03*
D115*
X216142Y-404084D02*
D03*
D116*
X249984Y-207334D02*
D03*
Y-203594D02*
D03*
X398150Y-125943D02*
D03*
Y-129683D02*
D03*
X358635Y-255525D02*
D03*
Y-259265D02*
D03*
X448685Y-129890D02*
D03*
Y-126150D02*
D03*
D117*
X296510Y-97444D02*
D03*
X293163D02*
D03*
X377107Y-147160D02*
D03*
X373761D02*
D03*
X305421Y-143307D02*
D03*
X308767D02*
D03*
X487157Y-338853D02*
D03*
X483811D02*
D03*
X487551Y-333951D02*
D03*
X484205D02*
D03*
X101173Y-34532D02*
D03*
X97827D02*
D03*
X91969Y-209857D02*
D03*
X88623D02*
D03*
X101787Y-205476D02*
D03*
X98441D02*
D03*
X101673Y-214628D02*
D03*
X98326D02*
D03*
X101378Y-219018D02*
D03*
X98032D02*
D03*
X100833Y-223016D02*
D03*
X97486D02*
D03*
X99705Y-227750D02*
D03*
X96359D02*
D03*
X99500Y-232623D02*
D03*
X96153D02*
D03*
X100833Y-152568D02*
D03*
X97486D02*
D03*
X100833Y-148368D02*
D03*
X97486D02*
D03*
X101227Y-157344D02*
D03*
X97880D02*
D03*
X101173Y-161561D02*
D03*
X97827D02*
D03*
X101014Y-165661D02*
D03*
X97668D02*
D03*
X101000Y-169841D02*
D03*
X97654D02*
D03*
X101000Y-174083D02*
D03*
X97654D02*
D03*
X193779Y-44972D02*
D03*
X197126D02*
D03*
X279146Y-228439D02*
D03*
X282492D02*
D03*
X399939Y-319114D02*
D03*
X403285D02*
D03*
X304391Y-344299D02*
D03*
X307737D02*
D03*
X303997Y-338372D02*
D03*
X307343D02*
D03*
X288966Y-347036D02*
D03*
X285619D02*
D03*
X318302Y-143744D02*
D03*
X314956D02*
D03*
X376713Y-168763D02*
D03*
X380060D02*
D03*
X376713Y-172725D02*
D03*
X380060D02*
D03*
X484207Y-154464D02*
D03*
X480861D02*
D03*
X506255Y-154629D02*
D03*
X509601D02*
D03*
X101394Y-105477D02*
D03*
X98047D02*
D03*
X511146Y-23798D02*
D03*
X514493D02*
D03*
X29824Y-274659D02*
D03*
X33170D02*
D03*
X98047Y-97922D02*
D03*
X101394D02*
D03*
X98047Y-93310D02*
D03*
X101394D02*
D03*
X98047Y-113289D02*
D03*
X101394D02*
D03*
X98047Y-117485D02*
D03*
X101394D02*
D03*
Y-109432D02*
D03*
X98047D02*
D03*
Y-101854D02*
D03*
X101394D02*
D03*
X282492Y-224803D02*
D03*
X279146D02*
D03*
X97827Y-60024D02*
D03*
X101173D02*
D03*
X97827Y-48213D02*
D03*
X101173D02*
D03*
X97827Y-56009D02*
D03*
X101173D02*
D03*
Y-52150D02*
D03*
X97827D02*
D03*
Y-44196D02*
D03*
X101173D02*
D03*
Y-40609D02*
D03*
X97827D02*
D03*
X284113Y-124801D02*
D03*
X287460D02*
D03*
X284507Y-120007D02*
D03*
X287854D02*
D03*
X323444Y-123420D02*
D03*
X320098D02*
D03*
X336295Y-115256D02*
D03*
X332948D02*
D03*
X336295Y-119079D02*
D03*
X332948D02*
D03*
X273479Y-121808D02*
D03*
X276825D02*
D03*
X322925Y-112402D02*
D03*
X319579D02*
D03*
X343447Y-208380D02*
D03*
X340100D02*
D03*
X510807Y-98430D02*
D03*
X514153D02*
D03*
X510749Y-93985D02*
D03*
X514095D02*
D03*
D118*
X281604Y-401427D02*
D03*
X159557D02*
D03*
X155620D02*
D03*
X187116D02*
D03*
X183179D02*
D03*
X242234D02*
D03*
X273730D02*
D03*
X269793D02*
D03*
X257982D02*
D03*
X238297D02*
D03*
X254045D02*
D03*
X222549D02*
D03*
X218612D02*
D03*
X210738D02*
D03*
X206801D02*
D03*
X191053D02*
D03*
X167431D02*
D03*
X171368D02*
D03*
X175305D02*
D03*
X179242D02*
D03*
X230423D02*
D03*
X214675D02*
D03*
X202864D02*
D03*
X250108D02*
D03*
X265856D02*
D03*
X246171D02*
D03*
X277667D02*
D03*
X261919D02*
D03*
X234360D02*
D03*
X226486D02*
D03*
X163494D02*
D03*
D119*
X151683Y-399477D02*
D03*
D121*
X264294Y-348020D02*
D03*
X261341D02*
D03*
X432509Y-321227D02*
D03*
X435462D02*
D03*
X135728Y-343537D02*
D03*
X132776D02*
D03*
D122*
X417717Y-73855D02*
D03*
X416142Y-78579D02*
D03*
Y-73855D02*
D03*
X408497Y-57691D02*
D03*
X406922Y-62415D02*
D03*
Y-57691D02*
D03*
D123*
X420079Y-77792D02*
D03*
Y-76217D02*
D03*
Y-74642D02*
D03*
X413779Y-77792D02*
D03*
Y-76217D02*
D03*
Y-74642D02*
D03*
X410859Y-61628D02*
D03*
Y-60053D02*
D03*
Y-58478D02*
D03*
X404560Y-61628D02*
D03*
Y-60053D02*
D03*
Y-58478D02*
D03*
D125*
X538620Y-196215D02*
D03*
Y-199365D02*
D03*
X530473Y-193192D02*
D03*
Y-196342D02*
D03*
X198846Y-149293D02*
D03*
Y-146143D02*
D03*
X190051Y-208220D02*
D03*
Y-205070D02*
D03*
X296443Y-90515D02*
D03*
Y-93664D02*
D03*
X298873Y-328483D02*
D03*
Y-325333D02*
D03*
X535229Y-202439D02*
D03*
Y-205589D02*
D03*
X531279Y-202562D02*
D03*
Y-205712D02*
D03*
X334809Y-237030D02*
D03*
Y-240180D02*
D03*
X334769Y-245455D02*
D03*
Y-248605D02*
D03*
X331500Y-267066D02*
D03*
Y-270216D02*
D03*
X208715Y-41245D02*
D03*
Y-44395D02*
D03*
X316960Y18355D02*
D03*
Y15205D02*
D03*
X319243Y-442D02*
D03*
Y2708D02*
D03*
X307838Y3794D02*
D03*
Y644D02*
D03*
X274048Y-366340D02*
D03*
Y-363190D02*
D03*
X257923Y-363494D02*
D03*
Y-360344D02*
D03*
X268610Y-354865D02*
D03*
Y-351716D02*
D03*
X270478Y-366340D02*
D03*
Y-363190D02*
D03*
X254258Y-363485D02*
D03*
Y-360336D02*
D03*
X265245Y-354964D02*
D03*
Y-351814D02*
D03*
X329999Y-133985D02*
D03*
Y-130835D02*
D03*
X318466Y-133858D02*
D03*
Y-130709D02*
D03*
X325911Y-133827D02*
D03*
Y-130677D02*
D03*
X322165Y-133985D02*
D03*
Y-130835D02*
D03*
D126*
X273870Y-113093D02*
D03*
X277020D02*
D03*
X273870Y-117285D02*
D03*
X277020D02*
D03*
X293612Y-101006D02*
D03*
X296762D02*
D03*
X217606Y-56678D02*
D03*
X214456D02*
D03*
X217653Y-42054D02*
D03*
X214504D02*
D03*
X217286Y-49939D02*
D03*
X214137D02*
D03*
X217292Y-45897D02*
D03*
X214143D02*
D03*
X310794Y-348362D02*
D03*
X307645D02*
D03*
X311779Y-28500D02*
D03*
X314929D02*
D03*
X322986Y-35510D02*
D03*
X319837D02*
D03*
X323739Y-31543D02*
D03*
X320590D02*
D03*
X323739Y-27614D02*
D03*
X320590D02*
D03*
X301370Y-28500D02*
D03*
X304519D02*
D03*
X303456Y19355D02*
D03*
X306606D02*
D03*
X242380Y-364765D02*
D03*
X245530D02*
D03*
X242155Y-360089D02*
D03*
X245304D02*
D03*
X361915Y-66369D02*
D03*
X358766D02*
D03*
X517744Y-154629D02*
D03*
X514595D02*
D03*
X472816Y-153283D02*
D03*
X475966D02*
D03*
X8113Y-324758D02*
D03*
X4963D02*
D03*
D128*
X514030Y-205843D02*
D03*
Y-202496D02*
D03*
X519516Y-205658D02*
D03*
Y-202312D02*
D03*
X525251Y-206098D02*
D03*
Y-202752D02*
D03*
X379331Y-139126D02*
D03*
Y-135779D02*
D03*
X364810Y-131268D02*
D03*
Y-134615D02*
D03*
X311874Y3892D02*
D03*
Y546D02*
D03*
X287686Y-253554D02*
D03*
Y-256901D02*
D03*
X292939Y-257778D02*
D03*
Y-254432D02*
D03*
X413236Y-333746D02*
D03*
Y-337092D02*
D03*
X276622Y-303248D02*
D03*
Y-306594D02*
D03*
X283000Y-307327D02*
D03*
Y-303980D02*
D03*
X358766Y-73628D02*
D03*
Y-70281D02*
D03*
X295187Y-163131D02*
D03*
Y-166478D02*
D03*
X301230Y-165297D02*
D03*
Y-168643D02*
D03*
X306563Y-166084D02*
D03*
Y-169431D02*
D03*
X334228Y-134083D02*
D03*
Y-130737D02*
D03*
X307492Y-220530D02*
D03*
Y-217184D02*
D03*
X313093Y-220530D02*
D03*
Y-217184D02*
D03*
X304933Y-183765D02*
D03*
Y-180418D02*
D03*
X322837Y-175875D02*
D03*
Y-179222D02*
D03*
X316984Y-175875D02*
D03*
Y-179222D02*
D03*
X312174Y-166272D02*
D03*
Y-169618D02*
D03*
X18069Y-275732D02*
D03*
Y-279078D02*
D03*
X24903Y-291989D02*
D03*
Y-288642D02*
D03*
X273564Y-257944D02*
D03*
Y-254598D02*
D03*
X379331Y-94094D02*
D03*
Y-97441D02*
D03*
X402461Y-89164D02*
D03*
Y-85818D02*
D03*
X302944Y-133957D02*
D03*
Y-130610D02*
D03*
X299023Y-133957D02*
D03*
Y-130610D02*
D03*
X309715Y-134350D02*
D03*
Y-131004D02*
D03*
D138*
X354035Y-229398D02*
D03*
X349311D02*
D03*
X350286Y-267045D02*
D03*
X355010D02*
D03*
X426181Y-328983D02*
D03*
X430905D02*
D03*
X437213Y-344417D02*
D03*
X441938D02*
D03*
X440776Y-358926D02*
D03*
X445500D02*
D03*
X435206Y-300596D02*
D03*
X439930D02*
D03*
X421341Y-312492D02*
D03*
X426065D02*
D03*
X386047Y-294810D02*
D03*
X390771D02*
D03*
X345274Y-354472D02*
D03*
X340550D02*
D03*
X365314Y-337359D02*
D03*
X360590D02*
D03*
D144*
X396358Y-70844D02*
D03*
X390846D02*
D03*
D145*
X413815Y-216619D02*
D03*
X417555D02*
D03*
X241814Y-157248D02*
D03*
X245554D02*
D03*
D146*
X400707Y-356266D02*
D03*
Y-351542D02*
D03*
X392807Y-270158D02*
D03*
Y-265434D02*
D03*
X423538Y-287720D02*
D03*
Y-282996D02*
D03*
X383821Y-343142D02*
D03*
Y-338418D02*
D03*
X377993Y-276207D02*
D03*
Y-271483D02*
D03*
X397131Y-342154D02*
D03*
Y-337430D02*
D03*
X367169Y-301526D02*
D03*
Y-306250D02*
D03*
X352169Y-304325D02*
D03*
Y-309049D02*
D03*
X368547Y-279636D02*
D03*
Y-274912D02*
D03*
D147*
X266660Y-363288D02*
D03*
Y-366241D02*
D03*
X240389Y-355896D02*
D03*
Y-352943D02*
D03*
X250590Y-360434D02*
D03*
Y-363387D02*
D03*
X332025Y-320127D02*
D03*
Y-323079D02*
D03*
D151*
X248310Y-240223D02*
D03*
X251657D02*
D03*
X247911Y-251646D02*
D03*
X251257D02*
D03*
X251657Y-243747D02*
D03*
X248310D02*
D03*
X251257Y-247857D02*
D03*
X247911D02*
D03*
D154*
X115238Y-356249D02*
D03*
Y-352312D02*
D03*
X78325Y-256813D02*
D03*
Y-260750D02*
D03*
X63187Y-279767D02*
D03*
Y-275830D02*
D03*
X26084Y-343947D02*
D03*
Y-340010D02*
D03*
X13704Y-317933D02*
D03*
Y-321870D02*
D03*
D155*
X300600Y-34575D02*
D03*
X304537D02*
D03*
X53622Y-269685D02*
D03*
X57559D02*
D03*
X131481Y-339787D02*
D03*
X127544D02*
D03*
X141081Y-351919D02*
D03*
X145018D02*
D03*
X151541Y-350695D02*
D03*
X155478D02*
D03*
D156*
X54478Y-334467D02*
D03*
Y-338208D02*
D03*
D161*
X417717Y-78382D02*
D03*
X408497Y-62218D02*
D03*
D169*
X101771Y-210465D02*
D03*
X98228D02*
D03*
X92757Y-153816D02*
D03*
X89213D02*
D03*
Y-97922D02*
D03*
X92757D02*
D03*
X87417Y-40609D02*
D03*
X90961D02*
D03*
X310300Y-147748D02*
D03*
X313843D02*
D03*
X375086Y-136806D02*
D03*
X371543D02*
D03*
X375286Y-133099D02*
D03*
X371743D02*
D03*
X375984Y-142876D02*
D03*
X372441D02*
D03*
X22155Y-299918D02*
D03*
X25699D02*
D03*
X319480Y-108605D02*
D03*
X323024D02*
D03*
X287263Y-115556D02*
D03*
X283720D02*
D03*
D170*
X147850Y-306643D02*
D03*
Y-346013D02*
D03*
D171*
X127969Y-69079D02*
D03*
Y-31284D02*
D03*
Y-125181D02*
D03*
Y-87386D02*
D03*
Y-181284D02*
D03*
Y-237386D02*
D03*
Y-199591D02*
D03*
D172*
X26000Y-22111D02*
D03*
X65370D02*
D03*
X144110D02*
D03*
X104740D02*
D03*
Y-190418D02*
D03*
X144110D02*
D03*
X65370D02*
D03*
X6315Y-78213D02*
D03*
X45685D02*
D03*
X85055D02*
D03*
X6315Y-246520D02*
D03*
X45685D02*
D03*
X85055D02*
D03*
X26000Y-190418D02*
D03*
X65370Y-134315D02*
D03*
X26000D02*
D03*
X104740D02*
D03*
X114583Y-78213D02*
D03*
X134268D02*
D03*
X144110Y-134315D02*
D03*
X114583Y-246520D02*
D03*
X134268D02*
D03*
X6315Y-55890D02*
D03*
X65370Y-65733D02*
D03*
X6315Y-111993D02*
D03*
X65370Y-121835D02*
D03*
X6315Y-168095D02*
D03*
X65370Y-177937D02*
D03*
X6315Y-224197D02*
D03*
X65370Y-234040D02*
D03*
Y-44473D02*
D03*
Y-100575D02*
D03*
Y-156678D02*
D03*
Y-212780D02*
D03*
D173*
X127969Y-143489D02*
D03*
X247881Y-309138D02*
D03*
Y-319138D02*
D03*
Y-329138D02*
D03*
X235881Y-309080D02*
D03*
Y-319079D02*
D03*
Y-329080D02*
D03*
X259807Y-309138D02*
D03*
Y-319138D02*
D03*
Y-329138D02*
D03*
X56500Y11220D02*
D03*
X66500D02*
D03*
X76500D02*
D03*
D174*
X96079Y-22111D02*
D03*
Y-78213D02*
D03*
Y-190418D02*
D03*
Y-246520D02*
D03*
X152378Y-31284D02*
D03*
Y-50182D02*
D03*
Y-87386D02*
D03*
Y-106284D02*
D03*
Y-143489D02*
D03*
Y-162386D02*
D03*
Y-199591D02*
D03*
Y-218489D02*
D03*
D175*
X127969Y-237386D02*
D03*
Y-199591D02*
D03*
Y-31284D02*
D03*
Y-69079D02*
D03*
Y-143489D02*
D03*
Y-181284D02*
D03*
Y-87386D02*
D03*
Y-125181D02*
D03*
D176*
X483912Y-182684D02*
D03*
D177*
X562652D02*
D03*
D178*
X550089Y-61389D02*
D03*
Y-126350D02*
D03*
D179*
X523396Y-61389D02*
D03*
Y-126350D02*
D03*
D180*
X553632Y-93870D02*
D03*
D181*
X523282Y-341349D02*
D03*
D182*
X21762Y-349750D02*
D03*
Y-361010D02*
D03*
X2864Y-349750D02*
D03*
Y-361010D02*
D03*
X537232Y-136495D02*
D03*
Y-147755D02*
D03*
X518335Y-136495D02*
D03*
Y-147755D02*
D03*
D183*
X2667Y-353845D02*
D03*
X537429Y-143660D02*
D03*
D184*
X247881Y-339138D02*
D03*
X235881Y-339079D02*
D03*
X259807Y-339138D02*
D03*
D185*
X457114Y-72760D02*
D03*
X178964Y-283981D02*
D03*
X457114D02*
D03*
X178964Y-72760D02*
D03*
D186*
X489757Y-9825D02*
D03*
Y6675D02*
D03*
X511457Y-9825D02*
D03*
D187*
Y6675D02*
D03*
D188*
X540158Y-1575D02*
D03*
D189*
X527783Y-42241D02*
D03*
D190*
X535658D02*
D03*
X543532D02*
D03*
X551405D02*
D03*
D191*
X449165Y-98784D02*
D03*
X444165Y-257327D02*
D03*
X186913Y-98784D02*
D03*
X181913Y-257327D02*
D03*
D192*
X86500Y11220D02*
D03*
D193*
X0Y0D02*
D03*
X0Y-378395D02*
D03*
D194*
X359022Y-48582D02*
D03*
X354023Y-43582D02*
D03*
Y-53582D02*
D03*
X364022D02*
D03*
Y-43582D02*
D03*
X379898Y-48591D02*
D03*
X374898Y-43591D02*
D03*
Y-53591D02*
D03*
X384898D02*
D03*
Y-43591D02*
D03*
D195*
X-20039Y-314096D02*
D03*
X-39D02*
D03*
Y-334096D02*
D03*
X-20039D02*
D03*
X-19449Y-286455D02*
D03*
X551D02*
D03*
Y-266455D02*
D03*
X-19449D02*
D03*
D196*
X-10039Y-324096D02*
D03*
X-9449Y-276454D02*
D03*
D197*
X283923Y-252975D02*
D03*
Y-242739D02*
D03*
X289041Y-247857D02*
D03*
X283923D02*
D03*
X278805D02*
D03*
D198*
X151637Y-256120D02*
D03*
X410429Y-73717D02*
D03*
X409214Y-76217D02*
D03*
X457114Y-62524D02*
D03*
Y-82997D02*
D03*
X446877Y-72760D02*
D03*
X467350D02*
D03*
X127666Y-269082D02*
D03*
X453277Y-32043D02*
D03*
X444272Y-37161D02*
D03*
X444572Y-47397D02*
D03*
X114076Y-269685D02*
D03*
X112860Y-267185D02*
D03*
X401210Y-57553D02*
D03*
X399994Y-60053D02*
D03*
X178964Y-273745D02*
D03*
Y-294217D02*
D03*
X168728Y-283981D02*
D03*
X189200D02*
D03*
X467350D02*
D03*
X446877D02*
D03*
X457114Y-294217D02*
D03*
Y-273745D02*
D03*
X178964Y-62524D02*
D03*
Y-82997D02*
D03*
X168728Y-72760D02*
D03*
X189200D02*
D03*
X34051Y-290295D02*
D03*
X32836Y-287795D02*
D03*
X88598Y-268701D02*
D03*
D199*
X477127Y-77450D02*
D03*
X493120Y-74498D02*
D03*
Y-92214D02*
D03*
X477127Y-89262D02*
D03*
X493120Y-86309D02*
D03*
Y-80403D02*
D03*
X519974Y-74185D02*
D03*
X519384Y-101588D02*
D03*
X519500Y-91901D02*
D03*
X519974Y-85996D02*
D03*
Y-80090D02*
D03*
X430385Y-47397D02*
D03*
X126320Y-272517D02*
D03*
X478332Y-55253D02*
D03*
X145238Y-272561D02*
D03*
D200*
X377287Y-326698D02*
D03*
Y-322486D02*
D03*
X380181D02*
D03*
Y-326698D02*
D03*
X384393D02*
D03*
Y-322486D02*
D03*
X384740Y-318493D02*
D03*
X381302Y-318638D02*
D03*
X377622D02*
D03*
X377001Y-329733D02*
D03*
X380181Y-329592D02*
D03*
X384393D02*
D03*
X388080Y-329733D02*
D03*
Y-326030D02*
D03*
Y-322376D02*
D03*
Y-318638D02*
D03*
X388041Y-314965D02*
D03*
X384592D02*
D03*
X381165Y-314918D02*
D03*
X377425D02*
D03*
X496923Y-144504D02*
D03*
X493183Y-135449D02*
D03*
X134048Y-290849D02*
D03*
X424755Y-76217D02*
D03*
X423429Y-73717D02*
D03*
X459221Y-243129D02*
D03*
X457305Y-249306D02*
D03*
Y-251806D02*
D03*
X454201Y-110692D02*
D03*
X453976Y-104306D02*
D03*
Y-106717D02*
D03*
X451024Y-249306D02*
D03*
Y-251806D02*
D03*
X444401Y-249306D02*
D03*
X444301Y-251806D02*
D03*
X441024Y-249306D02*
D03*
Y-251806D02*
D03*
X99860Y-267185D02*
D03*
X98534Y-269685D02*
D03*
X300108Y-116535D02*
D03*
X306407D02*
D03*
X303258Y-119685D02*
D03*
Y-113386D02*
D03*
X415536Y-60053D02*
D03*
X414210Y-57553D02*
D03*
X48377Y-287795D02*
D03*
X47051Y-290295D02*
D03*
X73057Y-268701D02*
D03*
X74383Y-266201D02*
D03*
D201*
X367562Y-205790D02*
D03*
X364019D02*
D03*
X360476D02*
D03*
X356932D02*
D03*
X367562Y-209333D02*
D03*
X364019D02*
D03*
X360476D02*
D03*
X356932D02*
D03*
X367562Y-212877D02*
D03*
X364019D02*
D03*
X360476D02*
D03*
X356932D02*
D03*
X367562Y-216420D02*
D03*
X364019D02*
D03*
X360476D02*
D03*
X356932D02*
D03*
D248*
X63127Y-349936D02*
D03*
X56631D02*
D03*
Y-354857D02*
D03*
X63127D02*
D03*
D250*
X176562Y-31850D02*
D03*
Y-39724D02*
D03*
D254*
X237699Y-45449D02*
D03*
Y-49403D02*
D03*
D256*
X358460Y-246212D02*
D03*
X343499D02*
D03*
Y-237551D02*
D03*
X358460D02*
D03*
D259*
X116156Y-215834D02*
D03*
X111432D02*
D03*
X116076Y-221663D02*
D03*
X111352D02*
D03*
X114996Y-160087D02*
D03*
X110271D02*
D03*
X114778Y-166566D02*
D03*
X110054D02*
D03*
X110950Y-109408D02*
D03*
X115675D02*
D03*
X110758Y-45632D02*
D03*
X115482D02*
D03*
X115675Y-103540D02*
D03*
X110950D02*
D03*
X115257Y-51710D02*
D03*
X110533D02*
D03*
D261*
X142911Y-215230D02*
D03*
Y-210506D02*
D03*
X143249Y-158107D02*
D03*
Y-153382D02*
D03*
X143367Y-164061D02*
D03*
Y-168786D02*
D03*
X143102Y-113532D02*
D03*
Y-108808D02*
D03*
Y-56658D02*
D03*
Y-51933D02*
D03*
X142973Y-225658D02*
D03*
Y-220933D02*
D03*
X133880Y-103246D02*
D03*
Y-98522D02*
D03*
X143102Y-46072D02*
D03*
Y-41348D02*
D03*
D262*
X121350Y-159693D02*
D03*
X126673D02*
D03*
X121141Y-166842D02*
D03*
X126464D02*
D03*
X127607Y-109956D02*
D03*
X122283D02*
D03*
X127329Y-53651D02*
D03*
X122005D02*
D03*
X127834Y-214963D02*
D03*
X122511D02*
D03*
X122533Y-221621D02*
D03*
X127856D02*
D03*
X122283Y-103373D02*
D03*
X127607D02*
D03*
X122157Y-46153D02*
D03*
X127481D02*
D03*
D264*
X189325Y-40609D02*
D03*
Y-44645D02*
D03*
D267*
X304665Y-39929D02*
D03*
X300630D02*
D03*
X304096Y13932D02*
D03*
X300060D02*
D03*
D268*
X306072Y-22128D02*
D03*
X313946D02*
D03*
X333050Y-51638D02*
D03*
X325176D02*
D03*
D270*
X342048Y-266051D02*
D03*
Y-257783D02*
D03*
X335749D02*
D03*
Y-266051D02*
D03*
D271*
X342048Y-261917D02*
D03*
X335749D02*
D03*
D278*
X70647Y-260455D02*
D03*
Y-261833D02*
D03*
X118865Y-353085D02*
D03*
Y-351708D02*
D03*
D279*
X73600Y-261144D02*
D03*
X121818Y-352397D02*
D03*
D284*
X64855Y-271555D02*
D03*
D285*
X64166Y-268602D02*
D03*
X65544D02*
D03*
D286*
X509781Y-29577D02*
D03*
Y-37057D02*
D03*
X501119Y-33317D02*
D03*
D287*
X8113Y-328424D02*
D03*
X4963D02*
D03*
X343349Y-216806D02*
D03*
X340199D02*
D03*
D295*
X285106Y-92716D02*
D03*
X277625D02*
D03*
Y-101112D02*
D03*
X281366D02*
D03*
D296*
X285106D02*
D03*
D300*
X343287Y-177641D02*
D03*
X346559D02*
D03*
D301*
X335827Y-189881D02*
D03*
Y-186609D02*
D03*
D302*
X341774Y-183605D02*
D03*
Y-192266D02*
D03*
X348073D02*
D03*
Y-183605D02*
D03*
D305*
X141870Y-333811D02*
D03*
X136870D02*
D03*
X146870D02*
D03*
X131870D02*
D03*
X141870Y-312551D02*
D03*
X136870D02*
D03*
X146870D02*
D03*
X131870D02*
D03*
D306*
X358984Y-140494D02*
D03*
Y-143053D02*
D03*
Y-145612D02*
D03*
Y-148171D02*
D03*
Y-150730D02*
D03*
Y-153289D02*
D03*
Y-155848D02*
D03*
Y-158407D02*
D03*
Y-160966D02*
D03*
Y-163525D02*
D03*
Y-166084D02*
D03*
Y-168643D02*
D03*
X335756Y-140494D02*
D03*
Y-143053D02*
D03*
Y-145612D02*
D03*
Y-148171D02*
D03*
Y-150730D02*
D03*
Y-153289D02*
D03*
Y-155848D02*
D03*
Y-158407D02*
D03*
Y-160966D02*
D03*
Y-163525D02*
D03*
Y-166084D02*
D03*
Y-168643D02*
D03*
D307*
X537062Y-152506D02*
D03*
X533322D02*
D03*
X514299Y-131793D02*
D03*
X518039D02*
D03*
D308*
X36524Y-1260D02*
D03*
Y6221D02*
D03*
X27862D02*
D03*
X369882Y-63805D02*
D03*
X378543D02*
D03*
Y-71285D02*
D03*
D309*
X27862Y-472D02*
D03*
X369882Y-70498D02*
D03*
D310*
X117431Y-203818D02*
D03*
Y-209133D02*
D03*
X134070Y-210256D02*
D03*
Y-215571D02*
D03*
X116331Y-148565D02*
D03*
Y-153880D02*
D03*
X133343Y-154164D02*
D03*
Y-159479D02*
D03*
X116290Y-177823D02*
D03*
Y-172508D02*
D03*
X133631Y-170680D02*
D03*
Y-165365D02*
D03*
X133880Y-108900D02*
D03*
Y-114215D02*
D03*
X115251Y-114505D02*
D03*
Y-119820D02*
D03*
X134318Y-54409D02*
D03*
Y-59724D02*
D03*
X134206Y-220638D02*
D03*
Y-225953D02*
D03*
X117431Y-227212D02*
D03*
Y-232527D02*
D03*
X134268Y-47303D02*
D03*
Y-41988D02*
D03*
X143102Y-97846D02*
D03*
Y-103160D02*
D03*
X116959Y-92574D02*
D03*
Y-97889D02*
D03*
X117968Y-39769D02*
D03*
Y-34454D02*
D03*
X116000Y-62440D02*
D03*
Y-57125D02*
D03*
D311*
X184154Y-48559D02*
D03*
X187107D02*
D03*
X293315Y-34500D02*
D03*
X296268D02*
D03*
X292667Y17052D02*
D03*
X295620D02*
D03*
D312*
X197210Y-40360D02*
D03*
X193352D02*
D03*
X312496Y15066D02*
D03*
X308637D02*
D03*
D313*
X309202Y-36071D02*
D03*
Y-39929D02*
D03*
D314*
X-23500Y610D02*
D03*
Y-4705D02*
D03*
Y11220D02*
D03*
Y16535D02*
D03*
X-23425Y-374114D02*
D03*
Y-368799D02*
D03*
X-23366Y-383394D02*
D03*
Y-388709D02*
D03*
D315*
X293000Y-336344D02*
D03*
X288000D02*
D03*
X283000D02*
D03*
X278000D02*
D03*
X293000Y-317053D02*
D03*
X288000D02*
D03*
X283000D02*
D03*
X278000D02*
D03*
D316*
X379400Y-357390D02*
D03*
X376329D02*
D03*
D317*
X354545Y-73575D02*
D03*
Y-70031D02*
D03*
X499308Y-44727D02*
D03*
Y-41184D02*
D03*
X309202Y-101772D02*
D03*
Y-98228D02*
D03*
X304537D02*
D03*
Y-101772D02*
D03*
D318*
X362247Y-211105D02*
D03*
D319*
X372562Y-204215D02*
D03*
Y-206184D02*
D03*
Y-208152D02*
D03*
Y-210121D02*
D03*
Y-212089D02*
D03*
Y-214058D02*
D03*
Y-216026D02*
D03*
Y-217995D02*
D03*
X351933Y-217995D02*
D03*
Y-216026D02*
D03*
Y-214058D02*
D03*
Y-212089D02*
D03*
Y-210121D02*
D03*
Y-208152D02*
D03*
Y-206184D02*
D03*
Y-204215D02*
D03*
D320*
X369137Y-221420D02*
D03*
X367169D02*
D03*
X365200D02*
D03*
X363232D02*
D03*
X361263D02*
D03*
X359295D02*
D03*
X357326D02*
D03*
X355358D02*
D03*
X355358Y-200790D02*
D03*
X357326D02*
D03*
X359295D02*
D03*
X361263D02*
D03*
X363232D02*
D03*
X365200D02*
D03*
X367169D02*
D03*
X369137D02*
D03*
D321*
X112795Y-341030D02*
D03*
Y-339061D02*
D03*
Y-337093D02*
D03*
Y-335124D02*
D03*
Y-333156D02*
D03*
Y-331187D02*
D03*
Y-329219D02*
D03*
Y-327250D02*
D03*
Y-325282D02*
D03*
Y-323313D02*
D03*
Y-321345D02*
D03*
Y-319376D02*
D03*
Y-317408D02*
D03*
Y-315439D02*
D03*
Y-313471D02*
D03*
Y-311502D02*
D03*
X68307Y-341030D02*
D03*
Y-339061D02*
D03*
Y-337093D02*
D03*
Y-335124D02*
D03*
Y-333156D02*
D03*
Y-331187D02*
D03*
Y-329219D02*
D03*
Y-327250D02*
D03*
Y-325282D02*
D03*
Y-323313D02*
D03*
Y-321345D02*
D03*
Y-319376D02*
D03*
Y-317408D02*
D03*
Y-315439D02*
D03*
Y-313471D02*
D03*
Y-311502D02*
D03*
D322*
X105315Y-348510D02*
D03*
Y-304022D02*
D03*
X103346Y-348510D02*
D03*
Y-304022D02*
D03*
X101378Y-348510D02*
D03*
Y-304022D02*
D03*
X99409Y-348510D02*
D03*
Y-304022D02*
D03*
X97441Y-348510D02*
D03*
Y-304022D02*
D03*
X95472Y-348510D02*
D03*
Y-304022D02*
D03*
X93504Y-348510D02*
D03*
Y-304022D02*
D03*
X91535Y-348510D02*
D03*
Y-304022D02*
D03*
X89567Y-348510D02*
D03*
Y-304022D02*
D03*
X87598Y-348510D02*
D03*
Y-304022D02*
D03*
X85630Y-348510D02*
D03*
Y-304022D02*
D03*
X83661Y-348510D02*
D03*
Y-304022D02*
D03*
X81693Y-348510D02*
D03*
Y-304022D02*
D03*
X79724Y-348510D02*
D03*
Y-304022D02*
D03*
X77756Y-348510D02*
D03*
Y-304022D02*
D03*
X75787Y-348510D02*
D03*
Y-304022D02*
D03*
D323*
X313041Y-208748D02*
D03*
X310482D02*
D03*
X307923D02*
D03*
X305363D02*
D03*
X313041Y-192016D02*
D03*
X310482D02*
D03*
X307923D02*
D03*
X305363D02*
D03*
D324*
X500493Y-146896D02*
D03*
Y-150636D02*
D03*
Y-154376D02*
D03*
X491044D02*
D03*
Y-146896D02*
D03*
D325*
X142185Y-283671D02*
D03*
X138642D02*
D03*
D326*
X52137Y-352856D02*
D03*
Y-355927D02*
D03*
X67323Y-351798D02*
D03*
Y-354869D02*
D03*
D327*
X17282Y-334140D02*
D03*
Y-336109D02*
D03*
Y-330203D02*
D03*
Y-332172D02*
D03*
X28699Y-334140D02*
D03*
Y-336109D02*
D03*
Y-330203D02*
D03*
Y-332172D02*
D03*
D328*
X22991Y-333156D02*
D03*
D329*
X383268Y-91472D02*
D03*
Y-89504D02*
D03*
Y-87535D02*
D03*
Y-85567D02*
D03*
X395669D02*
D03*
Y-87535D02*
D03*
Y-89504D02*
D03*
Y-91472D02*
D03*
D330*
X285736Y-86846D02*
D03*
X290263D02*
D03*
D331*
X276832D02*
D03*
X271320D02*
D03*
X382131Y-18191D02*
D03*
X376619D02*
D03*
D332*
X303258Y-116535D02*
D03*
D333*
X307096Y-109350D02*
D03*
X304537D02*
D03*
X301978D02*
D03*
X299419D02*
D03*
Y-123721D02*
D03*
X301978D02*
D03*
X304537D02*
D03*
X307096D02*
D03*
D334*
X296073Y-112697D02*
D03*
Y-115256D02*
D03*
Y-117815D02*
D03*
Y-120374D02*
D03*
X310443D02*
D03*
Y-117815D02*
D03*
Y-115256D02*
D03*
Y-112697D02*
D03*
D335*
X375726Y-26916D02*
D03*
X382812D02*
D03*
D336*
X237548Y-365746D02*
D03*
Y-369132D02*
D03*
X233548Y-365746D02*
D03*
Y-369132D02*
D03*
X220441Y-366179D02*
D03*
Y-369565D02*
D03*
X216141D02*
D03*
Y-366179D02*
D03*
X208410Y-366179D02*
D03*
Y-369565D02*
D03*
X204409D02*
D03*
Y-366179D02*
D03*
M02*
