M48
;Layer_Color=9474304
;FILE_FORMAT=4:4
METRIC,LZ
;TYPE=PLATED
T01F00S00C0.2540
T02F00S00C0.8500
T03F00S00C0.8900
T04F00S00C0.9500
T05F00S00C1.0200
T06F00S00C1.0500
T07F00S00C1.2700
T08F00S00C1.5700
T09F00S00C1.8000
T10F00S00C3.1800
;TYPE=NON_PLATED
T11F00S00C1.5500
T12F00S00C3.2500
%
T01
X00860957Y00134364
X00871532Y00134169
X00882821Y00133943
X00895248Y00133776
X00905559Y00133895
X00915677Y00134072
X00931755Y00133895
X00945852Y00132952
X00956179
X0096794Y00133191
X00977467Y00132952
X00988365Y00134112
X01004378Y00133739
X01018Y00133509
X01034169Y00133739
X01052518Y00133191
X01066928Y00136412
X01079Y00149652
Y00164118
X01079415Y00179262
Y00193728
Y00208357
Y00222823
X01079829Y00237967
Y00252433
X01079Y00272879
Y00287345
X01079415Y00302489
X01006428Y0022272
X01007666Y00211705
X00998272Y00214277
X0099085Y00203361
X00986507Y00223007
X00928356Y00226171
X0092925Y00218007
X00931095Y00205479
X00920397Y00201861
X00903704Y00210564
X00895168Y00220552
X00881023Y00254189
X00882821Y00260486
X00888836Y00265166
X00887564Y00283172
X00878168Y00294746
X00868793Y00294746
X00867028Y00255412
X00862853Y00251412
X00871354Y00249412
X00910541Y00276259
X00857669Y00196887
X00860492Y00188765
X00860957Y00173569
X00857773Y00149263
X01032795Y0018685
X00856667Y00158684
X00848813Y00134831
X00836447Y00134983
X0081668Y0014415
X00807922Y00142398
X0078296Y00146685
X00784159Y00157581
X00784458Y00173003
X00784818Y00188966
X00788659Y00195027
X00776582Y00208543
X00771097Y00215018
X00741389Y0020781
X00737903Y00183025
X00732569
X00729092Y00187919
X00742186Y0017951
X0074755Y00172837
X00764913Y0017054
X00764438Y00180401
X00763936Y00144615
X00756637Y001368
X00781876Y00118206
X00781156Y00107356
X00781574Y00097384
X00780676Y000881
Y00079126
X00781339Y00067829
X00771459
X00751686Y00066123
X00741473Y00065741
X00731841Y00066416
X00722042Y00066393
X00712026Y00067829
X00702227Y00065576
X00691716Y00066123
X00681531Y00066883
X00670967Y00065576
X00661459Y00066952
X00647789
X00647027Y00076553
X00657027Y0007718
X00637716Y00067829
X00621156Y00067599
X00615786Y00066952
X00587264
X0058096Y00066768
X00582198Y00075838
X00577773Y00085
X00567681Y00090107
X00547151Y00103988
X0052939Y00119866
X00529662Y00125369
Y00130703
X00530655Y00136158
X00558444Y00129025
X00565155Y0013306
X00568927Y00136832
X00576Y00139224
X00587264Y00142243
X0059035Y00133334
X00612844Y00131062
X00637904Y00130751
X00673216Y00128067
Y00122733
X00675015Y00116458
Y00133776
X00699941Y00146062
X00720073Y00149941
X00722315Y00166456
X00709303Y00182887
X00645218Y00196897
X00660539Y00215912
X00660512Y00223439
X00660539Y00229967
X00660512Y00236439
X00660539Y00242966
X00660512Y00249439
X00660539Y00255967
X00660512Y00262439
X00660539Y00268966
X00660512Y00275439
X00660539Y00281967
X00662145Y00289161
X00626952Y00303156
X00598578
X00577904Y00289412
Y00281912
Y00275412
Y00268912
Y00262412
Y00255912
Y00249412
Y00242912
Y00236411
Y00229912
Y00223412
X00576Y0021332
X00592605Y00203879
X00612451Y00187621
X00518133Y00187106
X00520302Y00207195
X005206Y00227516
X00518133Y0023625
X00521319Y00251731
X00517141Y00261063
X00493107Y00275879
X00480592Y00275568
X00467802Y00275449
X00480585Y00173092
X00493741Y00173227
X00489014Y00155062
X00505479Y00108362
X00504822Y00076727
X00494579Y00076859
X004903Y00067599
X00481839Y00074137
X00469407Y0008034
X0046159Y00076326
X00514857Y0007718
X00507604Y00064661
X00530006Y00066295
X00539903
X0080896Y00176115
X00821961
X0083496
X00821961Y00189115
X00819648Y00209172
X00822225Y00214128
X00813764Y00213572
X00804586Y00209897
X00834379Y00208543
X00821961Y00163115
X0080353Y00257192
X00768726Y00260565
X00728163Y00260863
X00727594Y00270241
X007255Y00279583
X00785198Y00289219
X00832843Y00281963
X00844061Y00268345
X00848813Y00263412
X00854107Y00259525
X00841896Y00297774
X00457815Y00256679
X00401754Y00248101
X0040609Y00240897
X00405398Y0023426
X0040593Y00223351
X00399453Y00228601
X00397918Y00218644
X00378097Y00216216
X00385696Y0020818
X00385354Y0019316
X0036962Y00196408
X00363353Y00194849
X00354997Y00194176
X0034962Y0020218
X00350413Y00210374
X0034362Y00197518
X00326133Y00194849
X00319328Y00196577
X0031437Y00201869
X00310083Y00208254
X00300196Y00215494
X00290592Y00216866
X00299921Y00227088
X00300004Y00241073
X00299678Y00253101
X00298477Y00265259
X00296434Y00277401
X00294858Y00284276
X0032262Y00277101
X0033362
X0034462
X0035562
X0036662
Y00266101
Y00255101
Y00244101
Y00233101
X0035562
Y00244101
X0034462
Y00233101
X0033362
Y00244101
X0032262
Y00233101
Y00255101
X0033362
Y00266101
X0032262
X0034462
X0035562
Y00255101
X0034462
X00389779Y00261091
X00389789Y00249101
X00393399Y00273192
X00390628Y00290094
X00384582Y00299854
X00375476Y00297025
X00355765Y00300384
X0033431Y00303846
X00329935Y00312273
X0031623Y00301043
X00264Y00246739
X00236075Y00248209
X00262005Y00212976
X00370398Y00204373
X0040158Y00161729
X0041068Y00164895
X00404629Y00146392
X00405194Y00123496
X00399889Y00125651
X00402074Y00111898
X00400892Y00098823
X00400464Y000881
X00390174
X00377159
X00365659
X00351947Y00088276
X00340653Y00089956
Y00100324
X00340356Y00110508
X00340258Y00120987
X00446574Y00124831
X00460217Y00081608
X00455355Y00190066
X00132353Y00057
X00117887
X00096403
X00081937
X00062003
X00047537
X00032466
X00018
X00006Y00068534
Y00083
X00006585Y00099372
Y00113838
X00007Y00128982
X00244338Y00332311
X00253827Y00333784
X00273499Y00351299
X0032092Y00338124
X0033712Y00343255
X00346315Y00338406
X00364497Y00339783
X00386511Y00341267
X00384046Y00323812
X00302101Y00317493
X00341039Y0039083
X00354259Y00402297
Y00410297
X0035436Y00418127
Y00426127
Y00434127
X00346315Y00437738
X00345913Y00444609
X00347803Y00453193
Y00459072
X0034782Y0046632
X0034662Y00475286
X00354259Y00474297
X00353913Y00488484
X0036162Y00491389
X00340487Y00487132
X00340422Y00559426
X00354259Y00571757
Y00579757
X0035436Y00587588
Y00595588
Y00603587
X00346315Y0060628
X00345913Y0061328
X00347472Y0062228
X00352925Y00623696
X00348302Y00632767
Y0064087
X00354259Y00643757
X00352006Y00653361
X00359659Y0065778
X00339757Y0065368
X00422828Y00644283
X00431219Y00644023
X00433685Y0057728
X00422828Y0057753
Y00470294
X00433699Y0047057
X00431219Y00411049
X00421527Y0041182
X00464777Y00406297
Y00430297
Y00438297
Y00446297
Y00454297
Y00478297
X00493202Y0047832
X00502402
X00510474Y00489435
X00518133Y0049032
X00526623Y00487069
X00529419Y00478819
X00537697Y00484088
X00547569Y00483137
X00559437Y00483604
X00567037Y0049032
X00577772Y00491972
X00578716Y0050039
X00589984
X00601111
X00602716Y004915
X00612351Y0050039
X00622067Y0049728
X00631914Y0049457
X00641733
X00651292Y004915
X00662306
X00672977
X00683924
X00696661Y005035
X00713428Y00495466
X00718428Y00487069
X00729048
X00726088Y00502649
X00735069Y00526
X00737124Y00541605
X00729048Y00540048
X00718428
X00708124Y00541605
X00704389Y00548492
Y00559424
Y00570758
X00699164Y0059728
X00689689
X00679889Y00602359
X00670804Y00604942
X0067056Y00613533
X006809
X00693534
X00699983Y00614724
X00705952Y00611594
X00704389Y00603587
X00709666Y00639003
X00721006
X00733743Y00638847
X00745207Y00639003
X00757178Y00638839
X00768468Y00639003
X00768495Y00629591
X00769261Y00621836
X00779951Y00621709
X00787261Y00616574
X00787821Y00607684
Y0059623
Y00584803
Y00576732
Y00568314
X00787261Y00558454
X00786511Y00548952
X00778151Y00543938
X00769261Y00542498
X00760371Y00541605
X00748291
X00752698Y00484088
X00762993Y00483971
X00771993Y00483604
X00781595Y0048069
X00790167Y00475291
X00793858Y00444259
X00787031Y0044086
X00795108Y004325
X00802039Y00424571
X0081326Y0042375
X00824461Y00424454
X00835627Y00424863
X0084896
X00832503Y0040412
X00833615Y0039362
X00833154Y00381217
Y00370705
Y00361193
X00833289Y00353489
X00833615Y0034179
X00828625Y00331583
X00817517
X00807922
X00795913
X00785993
X00774504
X00764687
X00754788
X0074917Y00339884
X00748849Y0034729
Y00357664
X00743745Y00363127
X00735656Y00357664
X007255Y00355648
X00714792Y00357664
X00701969
X00697347Y00367516
X00694172Y00381217
X00683924Y00388144
X00689908Y00396918
X00702997Y00390639
X00701229Y00429486
X00711233Y00428252
X00719963Y00423813
X00727369Y00417545
X00734059Y0040937
X00742218Y00402844
X00750922Y00411886
X00760755Y00411676
X00773239Y0041158
X0078379Y00412037
X00793889Y0041158
X0080351
X00814206Y00411332
X00824206
X00746677Y00436899
Y00455
X00734829Y00457159
X00722624Y0045699
X00713428Y00454026
X00705952Y00457136
X00691547Y00448018
X00689908Y00440028
X00679629Y00441387
X00670208Y00444251
X00668234Y00438137
X00655994Y00436947
X00648497Y00434825
X00641512Y00433928
X00616851Y00436337
X0060785Y00437381
X00607286Y00443849
X00606348Y0045021
X00614303Y00456399
X00626536Y0045833
X00626536Y00487674
X0066075Y0047164
X0066352Y00464777
X00669462Y00464907
X00672583Y00470648
X00657502Y00457474
X00654231Y00403725
X00648136Y00407311
X00641383Y00406369
X0063772Y00400771
X00627281Y00399904
X00642328Y0039272
X00664294Y0039944
X00661083Y00361607
X00653038Y00360541
X00629611Y00355069
X00607966
X00592551
X00596663Y00389542
X00587264Y00391267
X00591734Y0039857
X00601Y00398198
X00606219Y0039232
X00607966Y00403859
X00597109Y00417726
X00591164Y0042335
X00589355Y0044086
X0059701Y00439208
X00579786Y00440165
X00574804Y00450678
X00564403Y0045599
X00555455Y00450588
X00547104Y00447097
X00544196Y00438497
X00552719Y00440776
X00558628Y00439146
X00535934Y00434474
X00526623Y0043832
X00527641Y00445719
X00518133Y00444609
X00509146Y00437041
X00501039Y00432138
X00493107Y00431567
X00494977Y00451601
X00501483Y0045232
X00518136Y00463868
Y00469202
X00538246Y00469437
Y00464103
X00535934Y00403105
X00526717Y00396686
X00515914Y00394915
X00509119Y00397591
X00502382Y00404832
X0049245Y00404033
X00558016Y00410001
X00574804Y00405924
X00582459Y0039982
X00590682Y00572149
X00579786Y00577945
X00572341Y005786
X00564403Y0057828
X00555942Y005786
X00542721Y00570632
X00536746Y005701
X00531197Y0056556
X00522566Y00566755
X00515056Y0056378
X00507805Y00566861
X00501092Y00573132
X0049336Y00573082
X00493202Y0060178
X00501092Y00602267
X00507833Y00607684
X0050904Y0061328
X00515669Y00608399
X0052355Y00606263
X0052511Y00614915
X00533106Y00610101
X00539692Y00612172
X00546741
X00542847Y00605509
X00536347Y00602359
X00528945Y00601444
X00534144Y00625094
Y00630428
X00516909Y00632409
Y00637743
X00517386Y00626774
X00501092Y00621054
X00493107Y0062178
X00495Y00648279
X00502402Y00658104
X00508838Y00657326
X00516626Y00658505
X0052355Y00659674
X0053146Y00655739
X00538901Y00653686
X00549875Y00651784
X0054687Y00646003
X00560577Y00652436
X00569038Y00652657
X00595135Y00651933
X00598966Y00658104
X00605662Y00651784
X00613634Y00652364
X00620384Y00649267
X00633092Y00654206
X00628086Y0066532
X00628541Y00675948
X00642899Y00687526
X0065597Y00687743
X00665912Y00695574
X00676433Y00697534
X0068634Y00695874
X00691534Y00699409
X00689867Y0071224
X00678791
X00667555
X00648997Y0070682
X00678753Y00678532
X0067914Y00669822
X00688868
X00689061Y00678532
X00706506Y00681466
X00711715Y00688213
X00720316
X00729504
X00735232Y00707151
X00722616Y0071224
X00712111
X00702049
X00705026Y0065771
X00691318Y00647926
X00686447Y00652206
X00676301
X00676688Y00638521
X00669568Y00638691
X00658492Y00637931
X00659501Y00614293
X0066075Y00605509
X0065257Y00608297
X00649113Y0061437
X00637077Y00614851
X00633551Y00609433
X00629103Y00613094
X0062341Y00613551
X006172Y00613418
X00611886Y00616379
X00605329Y00614519
X00594709Y00611899
X00585873Y0061178
X00577772Y00607684
X00570144Y00610658
X00562211Y0060893
X00553467Y00608297
X0062029Y00620476
X00642328Y00607757
X00645429Y00577945
X00652886Y0057772
X00658895Y00577615
X00657502Y00570672
X00634328Y005776
X00625958Y005766
X00616424Y00572669
X00670081Y00537135
X00705952Y00487414
X00802281Y00512
X00813929
X00821191
X00831639
X00844152
Y00536174
X00848089Y00540016
X00852153Y00536174
X00839652Y00540048
X00832498Y00546434
X00826691Y00548952
X00830017Y00570045
X00838272Y00577847
X00846205Y0057786
X00810858Y00573672
X0081802Y00635458
X00830929
X00840783Y00634486
X00851964Y00634801
X00853941Y00627448
X00848726Y00665003
X00838079Y00664883
X00828195Y0066406
X00817509Y0066562
X00813418Y00681273
X00802653Y00680196
X0079303Y00684838
X00783102
X00776183Y00681273
X00758915Y00678532
Y00670003
X00748536Y00669966
Y00678532
X00746109Y00697341
X00756016Y00695681
X0076121Y00699215
X00760995Y00647732
X00756123Y00652012
X00751123Y00647129
X00745977Y00652012
X00774702Y00657517
X00781781Y00659738
X00781556Y00651086
X00776168Y00644184
X00760061Y00627624
X00757993Y00622022
X00749738Y00619792
X00740581Y00616574
X00697739Y00639003
X00687104
X00681447Y00643122
X00826592Y00681466
X00836809Y00675948
X00464777Y00647757
Y00623757
Y00615757
Y00607757
Y00599757
Y00575757
X00865217Y00558454
X00865185Y00552172
X00860204Y00546434
Y00511474
X00874854Y00505951
X00876872Y004925
X00878168Y0048069
Y00468879
Y0045746
Y00447677
X00875707Y00435954
X00869854Y00426204
X00862Y00424863
X00915306Y00444251
X00924831
X00933463
X00944883
X00954004
X00972964Y00441674
X00978095Y00448251
X00983175Y0045021
X00982369Y00457692
X00978175Y00475176
X00970414Y00475246
X00960038Y00475291
X00951133Y00475032
X00944883
X00934332Y00474544
X00927331Y00473746
X00920978
X00912253Y00492153
X00903485Y004925
X00917212Y00523159
X00924359
X00931447
X00931664Y00530574
X00924359
X00917212Y00531383
X00889807Y00534574
X00913487Y0056283
X00921557
X00928212
X00935743Y00563505
X00941712Y00575966
X00947754
X00956133Y00576732
X00964745Y00581894
X00971968Y00582732
X00978664Y00581894
X00973573Y00622274
X00962201Y00618671
X00951731
X00941681
X00932599
X00922425
X00911279
X00901642
X00893312Y00613482
X0088263Y00613344
X00871141
X0087325Y00587901
X00913383Y00585985
X00888377Y00671524
X00877059
X00867456Y00669822
X0085876Y0066532
X00895167Y00678532
X00895546Y0068798
X0089779Y00699172
X00909464Y00699409
X00922425Y00700064
X00932599Y00699409
X00942815
X00952176Y00700064
X00962216
X00975106Y00697341
X00976003Y00687743
X00976472Y00675948
Y00664883
X00976458Y00653873
X00976523Y00645468
X00976458Y00634486
X0107927Y00636
X01079829Y00622209
Y00607743
X01079415Y00592599
Y00578133
Y00563505
Y00549039
X01079Y00533895
Y00519429
X01079829Y00498983
Y00484517
X01079415Y00469373
Y00454907
Y00440278
Y00425812
X01079Y00410668
Y00396202
X01079829Y00375659
Y00361193
X01079415Y00346049
Y00331583
Y00316955
X00954004Y00331583
X0094358
X0093567
X00924989Y00335602
X00917723Y00335902
X00910876
X00915999Y00395236
X00923201Y00394608
X00930321
X00937668Y00395236
X00944273Y00395318
X00954004Y00395236
X00967827Y00398267
X00973175Y00396202
X00978134Y00399661
X00983093Y00395236
X0107927Y00650628
Y00665095
X01079685Y00680238
Y00694705
X01080014Y00713031
X00941212
X00933212
X00937148Y00716873
X00928712Y00716905
X00921557Y00723291
X00915751Y00725809
X00919077Y00746901
X00927331Y00754703
X00935265Y00754716
X00931447Y00785169
X0094145
X00952059
X00963175
X00971968
X00978664Y00791791
Y00801681
Y00809036
Y00818191
Y00832459
X00979Y00842579
Y0085414
Y00865
X00970637Y00866792
X00962745
X00952995
X00945326
X00936212Y00866748
X00927212Y00866792
X00919077
X00908408Y00866648
X00898126Y0086481
X00894264Y00855363
X00892399Y00846829
Y00837479
X008826Y00837742
X00872921Y00836431
X00865217Y0083423
X00879772Y00816924
X00888121Y00816514
X00898723Y00815536
X00897805Y0080581
X00898126Y007975
X00902815Y00785169
X00913487
X00920983
X00881121Y00777029
X00870121Y00774
X00894538Y00736906
X00954277Y0073531
X00954245Y00729029
X00949264Y00723291
X00970342Y00758202
X01080429Y00757107
Y00742641
X01080014Y00727497
X01077833Y00774
Y00788466
X01078248Y0080361
Y00818076
X01077418Y0083307
Y00847698
Y00862164
X01077833Y00877308
Y00891774
X01077273Y00905565
Y00920193
Y00934659
X01077688Y00949803
Y00964269
X01077418Y0098095
X01077833Y00996095
Y01010561
X010625Y01030511
X01047356Y01030926
X0103289
X01016236
X01001092Y01031341
X00986626
X00974Y01030926
X00958856Y01031341
X0094439
X00927736
X00912592Y01031756
X00898126
X00885265Y01031341
X00870121Y01031756
X00858742Y0089929
X00851952Y00899184
Y00891774
X00844789Y00897766
X00782265Y00896249
X00753662Y0089675
X00726994Y008965
X0071219Y0089475
X0069673Y008965
X00695331Y00923816
X00687583Y00923736
X00679368
X00669613
X00647789Y00917635
X00632238Y00912061
X00620598Y00917635
X006172Y00932809
X00607953Y00931418
X00599562Y00930978
X00582546Y00932923
X0059012Y009175
X00552062Y00949632
X00551539Y00955858
X00546869Y01032585
X00561335
X00576479Y0103217
X00593133
X00607599
X00622743Y01031756
X00634744Y01033
X0064921
X00664354Y01032585
X00681008
X00695474
X00710618Y0103217
X007241
X00738566
X00753709Y01031756
X0076848Y0103217
X00782946
X0079809Y01031756
X00809391Y0103217
X00823857
X00839001Y01031756
X00855655
X0080827Y01016106
Y01007655
Y00997796
X00800384
X0079226
X0072249Y00923736
X0071219
X00703092
X00709552Y00859831
X00704389Y0085414
X00697233
X00689689Y00855363
X00682089
X0068047Y00848749
X00663025Y00846829
X00653752
Y00837029
X00663025
X0066041Y00819489
X00665282Y00815209
X0065541Y00814605
X00650265Y00819489
X00645022Y00816514
X00636715Y0081645
X00626645Y00817278
X00625502Y00796155
X00633364
X00641301Y007975
X0065041Y00796738
X00660086Y00796848
X00669029Y007975
X00673241Y00792222
X00682121Y00791791
X00678333Y00796738
X00687158Y00796898
X00691809Y00792222
X00697233Y00796738
X00706216Y00797075
X00702049Y00792222
X00712111
X00716231Y00797075
X00725419Y00796738
X00729891Y00792222
X0073444Y00796738
X0074316
X00740276Y0079124
X00745873Y00785169
X00745356Y00773021
X0074459Y0076366
Y00753334
Y00744675
X00743998Y00735529
X00745131Y0072674
X00744002Y00718129
X00761055Y00744607
X007905Y00752149
X00796329Y00763626
X00806358Y00764013
X00807453Y00726283
X00823745Y00739062
X00831639Y00740529
X00854152Y00777029
X00845225Y00787448
X00846152Y0080361
X00837793Y00805708
X00829191
X00820691Y0080565
X00811923Y00805708
X00790946Y008025
X00779951Y00798
X00770821Y007975
X00762511
X00753015Y00796738
X00756236Y00820995
X00752465Y00825093
X00745131Y00820995
X00738758Y00815309
X00733886Y00819589
X00728886Y00814706
X0072374Y00819589
X00717198Y00816924
X00709201
X00699667Y00817217
X00691809Y0081724
X00683924Y00816924
X0067537Y00817536
X00678989Y00824993
X00663025Y00788315
X00661491Y00779934
Y00771413
X00660847Y00764083
X0065168Y0076467
X00645022Y0076374
X00635598Y00764083
X00627578Y00765543
X00629163Y00760326
X00628792Y0077324
X00615773Y0077845
X006082Y00778184
X00599442
X0059119Y00772963
X00585873Y00776055
X00578341Y0077574
X00569566Y00776279
X00560245Y00776055
X00551125Y00778184
X00547569Y0078674
X00551629Y00790626
X00556302Y00788315
X00564403Y00791456
X00571829Y00796155
X00574901Y00803504
X00582546Y0080124
X00591004Y00801025
X00610383Y0079474
X00617702
X00600081Y00837649
X00600312Y00846741
X00612822Y0085254
X00623273Y0085249
X00633143Y0085414
X00650396Y00864817
X00660303Y00863157
X00665497Y00866691
X00723872Y00864917
X00733779Y00863258
X00738973Y00866792
X00736501Y00846829
Y00837579
X00726866Y00837479
X00726088Y00846829
X00753946Y00848849
X00759746Y00857011
X00770821Y00855363
X00779696Y0085414
X00789426Y00848849
X00796329Y00842479
X00799358Y00835342
X00811344Y00837029
X00823941Y00835288
X00832501Y00835119
X00841779Y00835288
X00852454Y00835019
X00857191Y00828277
X00777658Y00819489
X00771166Y00821971
X00764357Y00821578
X00720968Y00791791
X00661491Y0074062
X0066168Y0073124
X00662189Y0072224
X00651327Y00745129
X00641782Y00745023
X00602716Y0074274
X00604822Y00735029
X00611945Y0072674
X00612962Y00716592
X00598373Y00750654
X00591333Y00751606
X00585873Y0074685
X00576837Y00747382
X00568137Y00747029
X00556302Y00746583
X00540205Y00740375
X00533192Y00735529
X0052355Y0074062
X00516442Y0073169
X00507833Y00735029
X00499Y0073874
Y0073058
X00495Y0074374
X00493202Y0077174
X00499
X00506908Y00777112
X00505786Y00785169
X0051456Y00782456
X00519734Y0077724
X00523903Y0076964
X00531948Y00777112
X00529419Y00786083
X00538125Y00786956
X00539003Y00802573
Y00807907
X00522566Y00808657
Y00803323
X00523903Y00822659
X0052355Y00829839
X00513618Y0082924
X00506004Y00825093
X00502402Y00817217
X00493202Y00816786
Y00790762
X00499Y00790222
X00464777Y00793217
Y00785218
Y00777217
Y00769218
Y00745218
Y00817217
X00538431Y00826623
X00551539Y00822659
X00567302
X00567037Y00829839
X00578716Y0083084
X0057403Y0082354
X00585873Y00837029
X00591141Y00832305
X00541506Y00772792
X00499Y00986814
Y00995199
Y01004774
Y01013668
X00503576Y0103217
X00518042
X00533186Y01031756
X00486922Y0103217
X00471778Y01032585
X00592881Y01010532
X00595812Y01001736
X00603123
X00596766Y00993412
X00457312Y01032585
X00444965Y0103217
X00430812Y01032585
X00416346
X00399692
X00384548Y01033
X00370082
X00356399Y0103217
X00341255Y01032585
X00326789
X00310135
X00294991Y01033
X00280525
X00268191
Y01019
X00253047Y01033415
X00238581
X00236556Y01024
X00221927Y01033415
X00206783Y01033829
X00192317
X00179861Y01030923
X00168939Y01037962
X00162158Y01046378
X00162573Y01061522
X00161743Y01073298
Y01087764
X00154838Y01098087
X00139Y01102
X0012489Y01103
X00110424
X0009528Y01103415
X00080036Y01103
X0006557
X00162573Y0102279
X00341811Y00831128
X00359518Y0082924
X00356008Y00822037
X00354259Y00813217
X00347952Y0081474
X00348471Y0080643
X00347952Y00793706
X00353485Y00793473
X0035221Y00786083
X00353873Y0077874
X0035436Y00773048
Y00765048
Y00757048
X00354259Y00749218
Y00741217
X00407304Y00748479
X00424685Y00747311
X00433685
Y00811389
X00424685Y00811286
X00407304Y00812932
X00009585Y0087739
Y00891856
X0001Y00907
Y00919
Y00933466
X00010415Y0094861
Y00963076
X0001Y00983
Y00997466
X00010415Y0101261
Y01027076
X0001Y01046
Y01060466
X00010415Y0107561
Y01090076
X00021856Y01103415
X00037Y01103
X00050426Y01103415
X00028Y01014
T02
X00409518Y0051357
X00409518Y0068303
X00409518Y0085249
T03
X00200543Y00183066
Y00203386
Y00223706
Y00244026
Y00264346
Y00284666
X00225943Y00274506
Y00294826
Y00254186
Y00213546
Y00193226
Y00172906
T04
X00337518Y0037102
X00384518
X00434518
Y0051362
X00434518Y0054048
X00384518
X00384518Y0051362
X00337518
X00337518Y0054048
Y0068308
X00337518Y0070994
X00384518
X00384518Y0068308
X00434518
X00434518Y0070994
X00480518Y0065978
Y0061178
Y0056378
X00480518Y0049032
Y0044232
Y0039432
Y0073324
Y0078124
Y0082924
X00434518Y0085254
X00384518
X00337518
T05
X01056Y001622
Y001876
Y00213
Y002384
X00695331Y0024325
Y0021785
Y0026865
Y0029405
T06
X00159518Y0037107
X00259518
X00309518Y0040277
Y0045677
Y0051357
X00309518Y0057223
Y0062623
Y0068303
X00359518Y0070999
X00459518
X00459518Y0054053
X00359518
X00259518
X00209518Y0051357
X00159518Y0054053
X00109518Y0051357
X00109518Y0059723
Y0068303
X00159518Y0070999
X00209518Y0068303
X00259518Y0070999
X00109518Y0042777
X00359518Y0037107
X00459518
X00309518Y0074169
Y0079569
Y0085249
X00209518
X00109518
Y0076669
T07
X00071003Y00158682
Y0030905
X00096403
X00045603
Y00158682
T08
X00134503Y00145982
Y0032175
T09
X00880514Y00911371
Y00953371
Y00995371
X00935514
Y00953371
Y00911371
T10
X00132353Y00098
X0012489Y01064
T11
X00409518Y0039232
Y0048832
Y0056178
Y0065778
Y0073124
Y0082724
T12
X00134503Y00185606
Y00282126
M30
