  0
SECTION
  2
HEADER
  9
$ACADVER
  1
AC1006
  9
$EXTMIN
 10
0.000000
 20
0.000000
 30
0.000000
  9
$EXTMAX
 10
1487.000000
 20
513.000000
 30
0.000000
  0
ENDSEC
  0
SECTION
  2
ENTITIES
  0
POLYLINE
  8
0
 66
1
 70
1
  0
VERTEX
  8
0
 10
0.000000
 20
415.420545
 42
0.000000
  0
VERTEX
  8
0
 10
0.000000
 20
317.841089
 42
0.000000
  0
VERTEX
  8
0
 10
2.750000
 20
318.453598
 42
0.009415
  0
VERTEX
  8
0
 10
4.951754
 20
318.987700
 42
0.000011
  0
VERTEX
  8
0
 10
49.635937
 20
330.723410
 42
0.000104
  0
VERTEX
  8
0
 10
99.643802
 20
343.869631
 42
0.000064
  0
VERTEX
  8
0
 10
158.500000
 20
359.363052
 42
-0.000277
  0
VERTEX
  8
0
 10
217.199200
 20
374.788401
 42
-0.000461
  0
VERTEX
  8
0
 10
266.688878
 20
387.715600
 42
-0.000011
  0
VERTEX
  8
0
 10
311.535684
 20
399.384901
 42
-0.237882
  0
VERTEX
  8
0
 10
311.951498
 20
399.295167
 42
-0.199415
  0
VERTEX
  8
0
 10
312.419371
 20
398.433630
 42
-0.000721
  0
VERTEX
  8
0
 10
313.625370
 20
386.697229
 42
-0.003818
  0
VERTEX
  8
0
 10
314.623389
 20
376.033627
 42
-0.017791
  0
VERTEX
  8
0
 10
314.932676
 20
369.866050
 42
0.000000
  0
VERTEX
  8
0
 10
315.000000
 20
365.232101
 42
0.000000
  0
VERTEX
  8
0
 10
217.750000
 20
301.403384
 42
-0.000007
  0
VERTEX
  8
0
 10
177.294131
 20
274.851531
 42
-0.000007
  0
VERTEX
  8
0
 10
136.157489
 20
247.854475
 42
-0.000007
  0
VERTEX
  8
0
 10
99.793737
 20
223.991134
 42
-0.000024
  0
VERTEX
  8
0
 10
76.552092
 20
208.741041
 42
0.000000
  0
VERTEX
  8
0
 10
32.604184
 20
179.907414
 42
0.000000
  0
VERTEX
  8
0
 10
19.300325
 20
236.703707
 42
0.000150
  0
VERTEX
  8
0
 10
13.993087
 20
259.330569
 42
0.000187
  0
VERTEX
  8
0
 10
9.050015
 20
280.341089
 42
0.000151
  0
VERTEX
  8
0
 10
4.888300
 20
297.976912
 42
0.001442
  0
VERTEX
  8
0
 10
3.087665
 20
305.500000
 42
0.000000
  0
VERTEX
  8
0
 10
0.178864
 20
317.500000
 42
0.000000
  0
VERTEX
  8
0
 10
0.089432
 20
158.750000
 42
0.000000
  0
VERTEX
  8
0
 10
0.000000
 20
0.000000
 42
0.000000
  0
VERTEX
  8
0
 10
181.696167
 20
0.000000
 42
0.000000
  0
VERTEX
  8
0
 10
363.392334
 20
0.000000
 42
0.000000
  0
VERTEX
  8
0
 10
360.346562
 20
3.250000
 42
0.001974
  0
VERTEX
  8
0
 10
353.939310
 20
10.033004
 42
0.000004
  0
VERTEX
  8
0
 10
253.615081
 20
115.402511
 42
0.000005
  0
VERTEX
  8
0
 10
154.129991
 20
219.886770
 42
0.001518
  0
VERTEX
  8
0
 10
145.834057
 20
228.546606
 42
0.000000
  0
VERTEX
  8
0
 10
140.970055
 20
233.593212
 42
0.000000
  0
VERTEX
  8
0
 10
154.688499
 20
243.046606
 42
-0.004809
  0
VERTEX
  8
0
 10
160.022387
 20
246.647021
 42
-0.007536
  0
VERTEX
  8
0
 10
164.684567
 20
249.629180
 42
-0.002856
  0
VERTEX
  8
0
 10
168.711508
 20
252.088603
 42
-0.212874
  0
VERTEX
  8
0
 10
169.453471
 20
252.180390
 42
-0.047051
  0
VERTEX
  8
0
 10
170.728311
 20
251.655710
 42
-0.000005
  0
VERTEX
  8
0
 10
253.973657
 20
207.842278
 42
-0.000167
  0
VERTEX
  8
0
 10
340.213982
 20
162.414657
 42
-0.000142
  0
VERTEX
  8
0
 10
431.250000
 20
114.389065
 42
-0.001314
  0
VERTEX
  8
0
 10
444.957369
 20
107.106710
 42
-0.002167
  0
VERTEX
  8
0
 10
456.498438
 20
100.871819
 42
-0.000214
  0
VERTEX
  8
0
 10
466.773116
 20
95.257687
 42
-0.274146
  0
VERTEX
  8
0
 10
467.000000
 20
94.874986
 42
-0.209801
  0
VERTEX
  8
0
 10
466.807801
 20
94.437096
 42
-0.000061
  0
VERTEX
  8
0
 10
451.871875
 20
80.703962
 42
-0.001058
  0
VERTEX
  8
0
 10
435.246534
 20
65.485975
 42
-0.000640
  0
VERTEX
  8
0
 10
415.500000
 20
47.533877
 42
0.000416
  0
VERTEX
  8
0
 10
395.753052
 20
29.597543
 42
0.000690
  0
VERTEX
  8
0
 10
379.128125
 20
14.429683
 42
0.000026
  0
VERTEX
  8
0
 10
364.125850
 20
0.702832
 42
0.210455
  0
VERTEX
  8
0
 10
364.000000
 20
0.417079
 42
0.413995
  0
VERTEX
  8
0
 10
364.171865
 20
0.245085
 42
0.000001
  0
VERTEX
  8
0
 10
528.940625
 20
0.122517
 42
0.000116
  0
VERTEX
  8
0
 10
710.192314
 20
0.029971
 42
0.000070
  0
VERTEX
  8
0
 10
925.500000
 20
0.000000
 42
0.000000
  0
VERTEX
  8
0
 10
1487.000000
 20
0.000000
 42
0.000000
  0
VERTEX
  8
0
 10
1487.000000
 20
256.500000
 42
0.000000
  0
VERTEX
  8
0
 10
1487.000000
 20
513.000000
 42
0.000000
  0
VERTEX
  8
0
 10
743.500000
 20
513.000000
 42
0.000000
  0
VERTEX
  8
0
 10
0.000000
 20
513.000000
 42
0.000000
  0
SEQEND
  0
POLYLINE
  8
0
 66
1
 70
1
  0
VERTEX
  8
0
 10
389.500000
 20
491.138642
 42
-0.000955
  0
VERTEX
  8
0
 10
422.418668
 20
480.731814
 42
-0.004414
  0
VERTEX
  8
0
 10
441.398074
 20
474.506788
 42
-0.001686
  0
VERTEX
  8
0
 10
454.669135
 20
469.973978
 42
-0.339683
  0
VERTEX
  8
0
 10
455.390316
 20
468.881301
 42
-0.050196
  0
VERTEX
  8
0
 10
455.177811
 20
467.656808
 42
-0.000018
  0
VERTEX
  8
0
 10
442.589739
 20
422.554927
 42
-0.000297
  0
VERTEX
  8
0
 10
428.582606
 20
372.490517
 42
-0.000181
  0
VERTEX
  8
0
 10
411.967907
 20
313.324185
 42
0.000000
  0
VERTEX
  8
0
 10
368.655182
 20
159.297910
 42
0.000000
  0
VERTEX
  8
0
 10
354.077591
 20
166.285483
 42
-0.002038
  0
VERTEX
  8
0
 10
348.424727
 20
169.023497
 42
-0.003052
  0
VERTEX
  8
0
 10
343.512283
 20
171.464923
 42
-0.001274
  0
VERTEX
  8
0
 10
339.327764
 20
173.589916
 42
-0.065993
  0
VERTEX
  8
0
 10
338.581245
 20
174.105283
 42
-0.189494
  0
VERTEX
  8
0
 10
338.186248
 20
174.902078
 42
-0.001330
  0
VERTEX
  8
0
 10
337.549018
 20
182.560034
 42
-0.004857
  0
VERTEX
  8
0
 10
336.924001
 20
191.392581
 42
-0.003060
  0
VERTEX
  8
0
 10
336.357446
 20
201.718755
 42
-0.000251
  0
VERTEX
  8
0
 10
331.979578
 20
292.493873
 42
-0.000173
  0
VERTEX
  8
0
 10
327.109964
 20
395.274241
 42
-0.000019
  0
VERTEX
  8
0
 10
322.139602
 20
501.037887
 42
-0.011731
  0
VERTEX
  8
0
 10
322.000000
 20
506.987003
 42
-0.014068
  0
VERTEX
  8
0
 10
322.053952
 20
508.904233
 42
-0.023564
  0
VERTEX
  8
0
 10
322.220312
 20
510.507625
 42
-0.020390
  0
VERTEX
  8
0
 10
322.455085
 20
511.720001
 42
-0.373097
  0
VERTEX
  8
0
 10
322.750000
 20
511.932571
 42
-0.053108
  0
VERTEX
  8
0
 10
323.346657
 20
511.814243
 42
-0.000024
  0
VERTEX
  8
0
 10
342.667188
 20
505.796540
 42
-0.000356
  0
VERTEX
  8
0
 10
364.140847
 20
499.090281
 42
-0.000217
  0
SEQEND
  0
ENDSEC
  0
EOF
