<?xml version="1.0" encoding="UTF-8"?>
		<!DOCTYPE svg PUBLIC "-//W3C//DTD SVG 1.1//EN" "http://www.w3.org/Graphics/SVG/1.1/DTD/svg11.dtd">
		<svg version="1.1" id="Layer_1" xmlns="http://www.w3.org/2000/svg" xmlns:xlink="http://www.w3.org/1999/xlink" x="0px" y="0px"
		 width="1700px" height="710.97278420129px" viewBox="0 0 348.5 125.09006928406"
		 style="enable-background:new 0 0 308.5 105.09006928406;" xml:space="preserve"><style type="text/css">
	.st0{fill-rule:evenodd;clip-rule:evenodd;fill:#7275B6;}
	.st1{fill-rule:evenodd;clip-rule:evenodd;fill:#462975;}
	.st2{fill-rule:evenodd;clip-rule:evenodd;fill:#9A4E98;}
	.st3{fill-rule:evenodd;clip-rule:evenodd;fill:#5A2363;}
	.st4{fill-rule:evenodd;clip-rule:evenodd;fill:#E8397B;}
	.st5{fill-rule:evenodd;clip-rule:evenodd;fill:#9B1734;}
	.st6{fill-rule:evenodd;clip-rule:evenodd;fill:#E30517;}
	.st7{fill-rule:evenodd;clip-rule:evenodd;fill:#811810;}
	.st8{fill-rule:evenodd;clip-rule:evenodd;fill:#E45D0F;}
	.st9{fill-rule:evenodd;clip-rule:evenodd;fill:#99C44C;}
	.st10{fill-rule:evenodd;clip-rule:evenodd;fill:#59762A;}
	.st11{fill-rule:evenodd;clip-rule:evenodd;fill:#3DAA35;}
	.st12{fill-rule:evenodd;clip-rule:evenodd;fill:#076E31;}
	.st13{fill-rule:evenodd;clip-rule:evenodd;fill:#5ABFC1;}
	.st14{fill-rule:evenodd;clip-rule:evenodd;fill:#006661;}
	.st15{fill-rule:evenodd;clip-rule:evenodd;fill:#366FB6;}
	.st16{fill-rule:evenodd;clip-rule:evenodd;fill:#1D294D;}
</style><style type='text/css'>.title{fill:#003d3c;}.slogan{fill:#0e9290;}</style><g transform="scale(2.2170900692841) translate(0, 0)"><g>
	<polygon class="st13" points="43.3,38.6 15.6,24 13,25.8 33.6,47.4 43.3,38.6 	"/>
	<polygon class="st13" points="29.7,0 31.2,31.3 34.1,32.7 42.2,3.9 29.7,0 	"/>
	<polygon class="st13" points="3,30.8 29.2,13.6 28.9,10.4 0,18 3,30.8 	"/>
	<polygon class="st14" points="37.1,26 34.8,34.1 43.3,38.6 37.1,26 	"/>
	<polygon class="st14" points="22.5,10.8 30.1,8.8 29.7,0 22.5,10.8 	"/>
	<polygon class="st14" points="16.7,31.1 11.1,25.5 3,30.8 16.7,31.1 	"/>
</g>
</g><g transform="scale(0.010009765625) translate(11189.073170732, 4949.6698022869)"><path transform="translate(0,0) rotate(180) scale(-1, 1)" d="M1395 1209h-764q-238 0 -238 -193q0 -160 195 -160h410q328 0 420 -172q49 -92 49 -243q0 -441 -514 -441h-824v262h774q114 0 167 27q73 37 73 139t-62 140q-49 30 -157 30h-365q-239 0 -356 89q-133 102 -133 333q0 349 286 425q98 26 230 26h809v-262z" class='title'/><path transform="translate(1546,0) rotate(180) scale(-1, 1)" d="M461 1471v-596h567v596h310v-1471h-310v615h-567v-615h-309v1471h309z" class='title'/><path transform="translate(3035,0) rotate(180) scale(-1, 1)" d="M477 0h-323v1471h323v-1471z" class='title'/><path transform="translate(3666,0) rotate(180) scale(-1, 1)" d="M-15 1471h333l340 -1131l286 1131h365l330 -1131l317 1131h318l-455 -1471h-379l-313 1098l-275 -1098h-377z" class='title'/><path transform="translate(5931,0) rotate(180) scale(-1, 1)" d="M574 1471h327l627 -1471h-344l-135 350h-639l-131 -350h-328zM725 1178l-215 -565h438z" class='title'/><path transform="translate(8203,0) rotate(180) scale(-1, 1)" d="M152 1471h391l602 -1057l-14 1057h315v-1471h-358l-633 1112l14 -1112h-317v1471z" class='title'/><path transform="translate(9797,0) rotate(180) scale(-1, 1)" d="M758 1215q-248 0 -323 -192q-25 -64 -25 -150h856v-256h-858q0 -256 151 -325q79 -36 199 -36h508v-256h-522q-154 0 -243 21q-115 27 -216 108q-225 179 -225 580q0 518 303 680q154 82 389 82h514v-256h-508z" class='title'/><path transform="translate(11182,0) rotate(180) scale(-1, 1)" d="M473 1213h-475v256h1272v-256h-477v-1213h-320v1213z" class='title'/><path transform="translate(12450,0) rotate(180) scale(-1, 1)" d="M-15 1471h333l340 -1131l286 1131h365l330 -1131l317 1131h318l-455 -1471h-379l-313 1098l-275 -1098h-377z" class='title'/><path transform="translate(14715,0) rotate(180) scale(-1, 1)" d="M791 1247q-395 0 -395 -499q0 -359 170 -468q89 -57 225 -57q397 0 397 512t-397 512zM58 750q0 749 733 749q380 0 560 -194q173 -187 173 -570q0 -766 -733 -766q-386 0 -564 201q-169 190 -169 580z" class='title'/><path transform="translate(16298,0) rotate(180) scale(-1, 1)" d="M152 1471h762q349 0 458 -190q56 -97 56 -253q0 -347 -297 -413l366 -615h-348l-323 578h-365v-578h-309v1471zM840 1209h-379v-371h379q193 0 245 72q29 40 29 114q0 116 -84 157q-58 28 -190 28z" class='title'/><path transform="translate(17834,0) rotate(180) scale(-1, 1)" d="M152 1471h309v-707l580 707h370l-590 -719l596 -752h-395l-561 731v-731h-309v1471z" class='title'/></g></svg>