  0
SECTION
  2
HEADER
  9
$ACADVER
  1
AC1006
  9
$EXTMIN
 10
0.000000
 20
0.000000
 30
0.000000
  9
$EXTMAX
 10
5313.000000
 20
2222.000000
 30
0.000000
  0
ENDSEC
  0
SECTION
  2
ENTITIES
  0
POLYLINE
  8
0
 66
1
 70
1
  0
VERTEX
  8
0
 10
882.249707
 20
1881.970873
 42
0.000306
  0
VERTEX
  8
0
 10
835.816900
 20
1812.192493
 42
0.000513
  0
VERTEX
  8
0
 10
796.869049
 20
1753.453944
 42
0.000013
  0
VERTEX
  8
0
 10
761.700543
 20
1700.293920
 42
0.597810
  0
VERTEX
  8
0
 10
761.858520
 20
1700.000000
 42
0.064236
  0
VERTEX
  8
0
 10
763.075006
 20
1700.156932
 42
0.000003
  0
VERTEX
  8
0
 10
883.125876
 20
1731.656150
 42
0.000041
  0
VERTEX
  8
0
 10
996.894896
 20
1761.517837
 42
0.004742
  0
VERTEX
  8
0
 10
1011.704646
 20
1765.556872
 42
0.000000
  0
VERTEX
  8
0
 10
1016.909293
 20
1767.029500
 42
0.000000
  0
VERTEX
  8
0
 10
1017.204646
 20
1773.764750
 42
-0.954490
  0
VERTEX
  8
0
 10
1017.456891
 20
1773.765441
 42
-0.000029
  0
VERTEX
  8
0
 10
1022.795748
 20
1665.427770
 42
-0.000256
  0
VERTEX
  8
0
 10
1028.774886
 20
1542.671687
 42
-0.000150
  0
VERTEX
  8
0
 10
1035.823433
 20
1395.500000
 42
0.000073
  0
VERTEX
  8
0
 10
1042.877806
 20
1247.730996
 42
0.000120
  0
VERTEX
  8
0
 10
1048.881199
 20
1122.988825
 42
0.000004
  0
VERTEX
  8
0
 10
1054.340315
 20
1010.141189
 42
0.035629
  0
VERTEX
  8
0
 10
1054.544627
 20
1008.440681
 42
0.224071
  0
VERTEX
  8
0
 10
1055.711379
 20
1006.846027
 42
0.004545
  0
VERTEX
  8
0
 10
1064.732139
 20
1002.043931
 42
0.006412
  0
VERTEX
  8
0
 10
1078.420250
 20
995.137834
 42
0.001281
  0
VERTEX
  8
0
 10
1103.034470
 20
983.190681
 42
0.000662
  0
VERTEX
  8
0
 10
1121.535434
 20
974.299434
 42
0.001080
  0
VERTEX
  8
0
 10
1137.254871
 20
966.812262
 42
0.000108
  0
VERTEX
  8
0
 10
1151.328829
 20
960.149838
 42
0.110930
  0
VERTEX
  8
0
 10
1151.995889
 20
960.000000
 42
0.335237
  0
VERTEX
  8
0
 10
1152.975899
 20
960.740266
 42
0.000285
  0
VERTEX
  8
0
 10
1161.601732
 20
991.152396
 42
0.000425
  0
VERTEX
  8
0
 10
1177.835542
 20
1048.699367
 42
0.000004
  0
VERTEX
  8
0
 10
1290.052340
 20
1447.806714
 42
0.000115
  0
VERTEX
  8
0
 10
1342.229720
 20
1633.549169
 42
0.000191
  0
VERTEX
  8
0
 10
1386.074154
 20
1789.994860
 42
0.000002
  0
VERTEX
  8
0
 10
1425.848179
 20
1932.127216
 42
0.270914
  0
VERTEX
  8
0
 10
1425.721085
 20
1932.612249
 42
0.121345
  0
VERTEX
  8
0
 10
1424.521806
 20
1933.337485
 42
0.000003
  0
VERTEX
  8
0
 10
1215.430256
 20
1998.561239
 42
0.000004
  0
VERTEX
  8
0
 10
1006.636571
 20
2063.689259
 42
0.082334
  0
VERTEX
  8
0
 10
1004.609695
 20
2063.970873
 42
0.242750
  0
VERTEX
  8
0
 10
1003.901536
 20
2063.581675
 42
0.000021
  0
VERTEX
  8
0
 10
968.208699
 20
2010.496357
 42
0.000646
  0
VERTEX
  8
0
 10
928.821686
 20
1951.747872
 42
0.000389
  0
SEQEND
  0
POLYLINE
  8
0
 66
1
 70
1
  0
VERTEX
  8
0
 10
1012.705733
 20
1876.750000
 42
-0.142433
  0
VERTEX
  8
0
 10
1012.546986
 20
1876.439977
 42
-0.611425
  0
VERTEX
  8
0
 10
1012.399666
 20
1876.482813
 42
-0.039503
  0
VERTEX
  8
0
 10
1012.298431
 20
1877.388510
 42
-0.008087
  0
VERTEX
  8
0
 10
1012.272364
 20
1879.000000
 42
-0.008087
  0
VERTEX
  8
0
 10
1012.298431
 20
1880.611490
 42
-0.039503
  0
VERTEX
  8
0
 10
1012.399666
 20
1881.517187
 42
-0.611425
  0
VERTEX
  8
0
 10
1012.546986
 20
1881.560023
 42
-0.142433
  0
VERTEX
  8
0
 10
1012.705733
 20
1881.250000
 42
-0.029693
  0
VERTEX
  8
0
 10
1012.840649
 20
1880.225293
 42
-0.017887
  0
VERTEX
  8
0
 10
1012.884498
 20
1879.000000
 42
-0.017887
  0
VERTEX
  8
0
 10
1012.840649
 20
1877.774707
 42
-0.029693
  0
SEQEND
  0
POLYLINE
  8
0
 66
1
 70
1
  0
VERTEX
  8
0
 10
1013.716254
 20
1855.250000
 42
-0.124239
  0
VERTEX
  8
0
 10
1013.564074
 20
1854.887591
 42
-0.664672
  0
VERTEX
  8
0
 10
1013.422038
 20
1854.923437
 42
-0.031260
  0
VERTEX
  8
0
 10
1013.324637
 20
1856.029380
 42
-0.006336
  0
VERTEX
  8
0
 10
1013.299664
 20
1858.000000
 42
-0.006336
  0
VERTEX
  8
0
 10
1013.324637
 20
1859.970620
 42
-0.031260
  0
VERTEX
  8
0
 10
1013.422038
 20
1861.076563
 42
-0.664672
  0
VERTEX
  8
0
 10
1013.564074
 20
1861.112409
 42
-0.124239
  0
VERTEX
  8
0
 10
1013.716254
 20
1860.750000
 42
-0.023547
  0
VERTEX
  8
0
 10
1013.846019
 20
1859.497782
 42
-0.014044
  0
VERTEX
  8
0
 10
1013.888098
 20
1858.000000
 42
-0.014044
  0
VERTEX
  8
0
 10
1013.846019
 20
1856.502218
 42
-0.023547
  0
SEQEND
  0
POLYLINE
  8
0
 66
1
 70
1
  0
VERTEX
  8
0
 10
1014.723396
 20
1833.750000
 42
-0.108536
  0
VERTEX
  8
0
 10
1014.576315
 20
1833.333801
 42
-0.707215
  0
VERTEX
  8
0
 10
1014.438550
 20
1833.364063
 42
-0.025693
  0
VERTEX
  8
0
 10
1014.344207
 20
1834.670434
 42
-0.005179
  0
VERTEX
  8
0
 10
1014.320074
 20
1837.000000
 42
-0.005179
  0
VERTEX
  8
0
 10
1014.344207
 20
1839.329566
 42
-0.025693
  0
VERTEX
  8
0
 10
1014.438550
 20
1840.635937
 42
-0.707215
  0
VERTEX
  8
0
 10
1014.576315
 20
1840.666199
 42
-0.108536
  0
VERTEX
  8
0
 10
1014.723396
 20
1840.250000
 42
-0.019375
  0
VERTEX
  8
0
 10
1014.849065
 20
1838.770235
 42
-0.011494
  0
VERTEX
  8
0
 10
1014.889766
 20
1837.000000
 42
-0.011494
  0
VERTEX
  8
0
 10
1014.849065
 20
1835.229765
 42
-0.019375
  0
SEQEND
  0
POLYLINE
  8
0
 66
1
 70
1
  0
VERTEX
  8
0
 10
1015.729798
 20
1812.272304
 42
-0.062969
  0
VERTEX
  8
0
 10
1015.583963
 20
1811.648711
 42
-0.785070
  0
VERTEX
  8
0
 10
1015.449454
 20
1811.664364
 42
-0.026082
  0
VERTEX
  8
0
 10
1015.354021
 20
1812.993969
 42
-0.004587
  0
VERTEX
  8
0
 10
1015.328140
 20
1815.500000
 42
-0.004873
  0
VERTEX
  8
0
 10
1015.349747
 20
1818.014488
 42
-0.021409
  0
VERTEX
  8
0
 10
1015.440431
 20
1819.495614
 42
-0.613017
  0
VERTEX
  8
0
 10
1015.577707
 20
1819.548380
 42
-0.180442
  0
VERTEX
  8
0
 10
1015.721732
 20
1819.272304
 42
-0.020120
  0
VERTEX
  8
0
 10
1015.847937
 20
1817.765662
 42
-0.010546
  0
VERTEX
  8
0
 10
1015.889785
 20
1815.884630
 42
-0.010474
  0
VERTEX
  8
0
 10
1015.851521
 20
1813.951761
 42
-0.015806
  0
SEQEND
  0
POLYLINE
  8
0
 66
1
 70
1
  0
VERTEX
  8
0
 10
1016.728468
 20
1790.250000
 42
-0.095407
  0
VERTEX
  8
0
 10
1016.585580
 20
1789.778855
 42
-0.741699
  0
VERTEX
  8
0
 10
1016.451433
 20
1789.804688
 42
-0.021699
  0
VERTEX
  8
0
 10
1016.359651
 20
1791.311593
 42
-0.004360
  0
VERTEX
  8
0
 10
1016.336206
 20
1794.000000
 42
-0.004360
  0
VERTEX
  8
0
 10
1016.359651
 20
1796.688407
 42
-0.021699
  0
VERTEX
  8
0
 10
1016.451433
 20
1798.195312
 42
-0.741699
  0
VERTEX
  8
0
 10
1016.585580
 20
1798.221145
 42
-0.095407
  0
VERTEX
  8
0
 10
1016.728468
 20
1797.750000
 42
-0.016375
  0
VERTEX
  8
0
 10
1016.850713
 20
1796.042668
 42
-0.009683
  0
VERTEX
  8
0
 10
1016.890277
 20
1794.000000
 42
-0.009683
  0
VERTEX
  8
0
 10
1016.850713
 20
1791.957332
 42
-0.016375
  0
SEQEND
  0
POLYLINE
  8
0
 66
1
 70
1
  0
VERTEX
  8
0
 10
666.500000
 20
1631.453701
 42
-0.000036
  0
VERTEX
  8
0
 10
535.148782
 20
1596.878506
 42
-0.000030
  0
VERTEX
  8
0
 10
395.981250
 20
1560.265686
 42
-0.000031
  0
VERTEX
  8
0
 10
268.911042
 20
1526.852104
 42
-0.000085
  0
VERTEX
  8
0
 10
179.500000
 20
1503.363269
 42
0.000190
  0
VERTEX
  8
0
 10
111.199094
 20
1485.404862
 42
0.000315
  0
VERTEX
  8
0
 10
53.585041
 20
1470.194128
 42
0.000010
  0
VERTEX
  8
0
 10
1.446592
 20
1456.392810
 42
0.107812
  0
VERTEX
  8
0
 10
0.810777
 20
1456.066965
 42
0.285193
  0
VERTEX
  8
0
 10
0.521416
 20
1455.213221
 42
0.000003
  0
VERTEX
  8
0
 10
50.234076
 20
1241.800001
 42
0.000017
  0
VERTEX
  8
0
 10
99.311809
 20
1031.150193
 42
0.034382
  0
VERTEX
  8
0
 10
101.313589
 20
1024.625183
 42
0.303211
  0
VERTEX
  8
0
 10
102.241301
 20
1023.969040
 42
0.000090
  0
VERTEX
  8
0
 10
151.235128
 20
1022.665064
 42
0.001040
  0
VERTEX
  8
0
 10
216.655881
 20
1021.071835
 42
0.000253
  0
VERTEX
  8
0
 10
324.630410
 20
1018.721712
 42
-0.000151
  0
VERTEX
  8
0
 10
410.673992
 20
1016.866515
 42
-0.000238
  0
VERTEX
  8
0
 10
484.528933
 20
1015.216660
 42
-0.000054
  0
VERTEX
  8
0
 10
549.357820
 20
1013.730623
 42
-0.010126
  0
VERTEX
  8
0
 10
556.000000
 20
1013.442992
 42
0.000000
  0
VERTEX
  8
0
 10
564.500000
 20
1012.902280
 42
0.000000
  0
VERTEX
  8
0
 10
470.000000
 20
1107.458888
 42
0.000659
  0
VERTEX
  8
0
 10
427.108700
 20
1150.262906
 42
0.002061
  0
VERTEX
  8
0
 10
398.104402
 20
1178.894936
 42
0.000288
  0
VERTEX
  8
0
 10
375.325210
 20
1201.171395
 42
0.291635
  0
VERTEX
  8
0
 10
374.000000
 20
1201.448503
 42
-0.016100
  0
VERTEX
  8
0
 10
373.363272
 20
1201.230978
 42
-0.244214
  0
VERTEX
  8
0
 10
373.140886
 20
1201.271917
 42
-0.426363
  0
VERTEX
  8
0
 10
373.123651
 20
1201.437616
 42
-0.026386
  0
VERTEX
  8
0
 10
373.500000
 20
1201.837439
 42
-0.045378
  0
VERTEX
  8
0
 10
374.384623
 20
1202.541426
 42
-0.000003
  0
VERTEX
  8
0
 10
463.800000
 20
1261.312806
 42
-0.000107
  0
VERTEX
  8
0
 10
562.479805
 20
1326.142687
 42
-0.000064
  0
VERTEX
  8
0
 10
679.500000
 20
1402.964404
 42
0.000083
  0
VERTEX
  8
0
 10
796.535327
 20
1479.802455
 42
0.000138
  0
VERTEX
  8
0
 10
895.265769
 20
1544.685316
 42
0.000004
  0
VERTEX
  8
0
 10
984.637441
 20
1603.454274
 42
0.047650
  0
VERTEX
  8
0
 10
985.723896
 20
1604.327330
 42
0.217259
  0
VERTEX
  8
0
 10
986.325050
 20
1605.873677
 42
0.003105
  0
VERTEX
  8
0
 10
985.682204
 20
1616.015611
 42
0.005165
  0
VERTEX
  8
0
 10
984.479218
 20
1631.051039
 42
0.001017
  0
VERTEX
  8
0
 10
981.986439
 20
1658.009610
 42
-0.000187
  0
VERTEX
  8
0
 10
980.083519
 20
1678.222750
 42
-0.000300
  0
VERTEX
  8
0
 10
978.478799
 20
1695.448136
 42
-0.000043
  0
VERTEX
  8
0
 10
977.063393
 20
1710.755290
 42
-0.020524
  0
VERTEX
  8
0
 10
977.012543
 20
1711.750000
 42
0.058796
  0
VERTEX
  8
0
 10
976.952131
 20
1712.221287
 42
0.084606
  0
VERTEX
  8
0
 10
976.783372
 20
1712.605610
 42
0.109478
  0
VERTEX
  8
0
 10
976.536647
 20
1712.844920
 42
0.170345
  0
VERTEX
  8
0
 10
976.250000
 20
1712.907396
 42
0.033586
  0
VERTEX
  8
0
 10
975.641180
 20
1712.790311
 42
0.000001
  0
VERTEX
  8
0
 10
884.951563
 20
1688.942174
 42
0.000049
  0
VERTEX
  8
0
 10
785.037545
 20
1662.657632
 42
0.000030
  0
SEQEND
  0
POLYLINE
  8
0
 66
1
 70
1
  0
VERTEX
  8
0
 10
4054.572166
 20
1536.945136
 42
0.047255
  0
VERTEX
  8
0
 10
4027.982545
 20
1531.599292
 42
0.064748
  0
VERTEX
  8
0
 10
4005.740530
 20
1521.608903
 42
0.069948
  0
VERTEX
  8
0
 10
3988.077398
 20
1506.996804
 42
0.068734
  0
VERTEX
  8
0
 10
3975.004716
 20
1488.000000
 42
0.033769
  0
VERTEX
  8
0
 10
3969.208823
 20
1474.213299
 42
0.034949
  0
VERTEX
  8
0
 10
3965.399667
 20
1459.927869
 42
0.030402
  0
VERTEX
  8
0
 10
3963.266303
 20
1443.600909
 42
0.016822
  0
VERTEX
  8
0
 10
3962.552345
 20
1423.500000
 42
0.016044
  0
VERTEX
  8
0
 10
3963.194680
 20
1402.253112
 42
0.029343
  0
VERTEX
  8
0
 10
3965.286171
 20
1385.049329
 42
0.033894
  0
VERTEX
  8
0
 10
3969.082985
 20
1370.017492
 42
0.033020
  0
VERTEX
  8
0
 10
3974.901481
 20
1355.500000
 42
0.034189
  0
VERTEX
  8
0
 10
3982.145338
 20
1342.716962
 42
0.047357
  0
VERTEX
  8
0
 10
3990.410006
 20
1332.466467
 42
0.048287
  0
VERTEX
  8
0
 10
4000.321420
 20
1324.099521
 42
0.037584
  0
VERTEX
  8
0
 10
4012.500000
 20
1316.972559
 42
0.031050
  0
VERTEX
  8
0
 10
4026.032374
 20
1311.374295
 42
0.034245
  0
VERTEX
  8
0
 10
4039.722338
 20
1307.707362
 42
0.030567
  0
VERTEX
  8
0
 10
4055.053429
 20
1305.669738
 42
0.017670
  0
VERTEX
  8
0
 10
4073.650627
 20
1305.005895
 42
0.058794
  0
VERTEX
  8
0
 10
4115.362899
 20
1309.913220
 42
0.100491
  0
VERTEX
  8
0
 10
4147.043555
 20
1324.629839
 42
0.107742
  0
VERTEX
  8
0
 10
4169.044145
 20
1349.665620
 42
0.075344
  0
VERTEX
  8
0
 10
4182.178926
 20
1385.000000
 42
0.033883
  0
VERTEX
  8
0
 10
4183.824133
 20
1396.867317
 42
0.010042
  0
VERTEX
  8
0
 10
4184.739417
 20
1415.182811
 42
0.010292
  0
VERTEX
  8
0
 10
4184.911205
 20
1433.724798
 42
0.028384
  0
VERTEX
  8
0
 10
4184.022758
 20
1446.756113
 42
0.059072
  0
VERTEX
  8
0
 10
4175.409280
 20
1481.526861
 42
0.094290
  0
VERTEX
  8
0
 10
4159.485989
 20
1507.564686
 42
0.097913
  0
VERTEX
  8
0
 10
4135.609137
 20
1525.293962
 42
0.068032
  0
VERTEX
  8
0
 10
4103.500000
 20
1535.496076
 42
0.025658
  0
VERTEX
  8
0
 10
4093.420588
 20
1536.716418
 42
0.009894
  0
VERTEX
  8
0
 10
4079.345294
 20
1537.412233
 42
0.009961
  0
VERTEX
  8
0
 10
4065.149014
 20
1537.549738
 42
0.023436
  0
SEQEND
  0
POLYLINE
  8
0
 66
1
 70
1
  0
VERTEX
  8
0
 10
4091.947809
 20
1497.363304
 42
-0.062532
  0
VERTEX
  8
0
 10
4104.068694
 20
1492.578192
 42
-0.066076
  0
VERTEX
  8
0
 10
4114.382284
 20
1485.013071
 42
-0.064149
  0
VERTEX
  8
0
 10
4122.601864
 20
1474.803791
 42
-0.053812
  0
VERTEX
  8
0
 10
4128.553524
 20
1462.233641
 42
-0.029844
  0
VERTEX
  8
0
 10
4131.259504
 20
1452.643471
 42
-0.025964
  0
VERTEX
  8
0
 10
4132.958038
 20
1442.342808
 42
-0.022188
  0
VERTEX
  8
0
 10
4133.755684
 20
1430.480314
 42
-0.012583
  0
VERTEX
  8
0
 10
4133.721222
 20
1416.082446
 42
-0.012387
  0
VERTEX
  8
0
 10
4132.965784
 20
1401.659745
 42
-0.029858
  0
VERTEX
  8
0
 10
4131.508974
 20
1391.077214
 42
-0.035973
  0
VERTEX
  8
0
 10
4129.010393
 20
1381.993223
 42
-0.027669
  0
VERTEX
  8
0
 10
4125.045269
 20
1372.500000
 42
-0.050917
  0
VERTEX
  8
0
 10
4119.332961
 20
1363.239668
 42
-0.055329
  0
VERTEX
  8
0
 10
4112.005579
 20
1355.607284
 42
-0.054236
  0
VERTEX
  8
0
 10
4103.046792
 20
1349.649369
 42
-0.045798
  0
VERTEX
  8
0
 10
4092.500000
 20
1345.351322
 42
-0.028385
  0
VERTEX
  8
0
 10
4088.874980
 20
1344.469266
 42
-0.023007
  0
VERTEX
  8
0
 10
4084.909445
 20
1343.926907
 42
-0.017149
  0
VERTEX
  8
0
 10
4079.929789
 20
1343.649636
 42
-0.006590
  0
VERTEX
  8
0
 10
4073.000000
 20
1343.593172
 42
-0.006090
  0
VERTEX
  8
0
 10
4065.205225
 20
1343.727358
 42
-0.024647
  0
VERTEX
  8
0
 10
4060.468950
 20
1344.100772
 42
-0.032924
  0
VERTEX
  8
0
 10
4056.497675
 20
1344.880131
 42
-0.017821
  0
VERTEX
  8
0
 10
4051.731470
 20
1346.329708
 42
-0.037081
  0
VERTEX
  8
0
 10
4042.347119
 20
1350.352919
 42
-0.054815
  0
VERTEX
  8
0
 10
4034.904777
 20
1355.321562
 42
-0.056088
  0
VERTEX
  8
0
 10
4028.840583
 20
1361.694771
 42
-0.041191
  0
VERTEX
  8
0
 10
4023.604214
 20
1369.933635
 42
-0.053889
  0
VERTEX
  8
0
 10
4018.542881
 20
1382.748446
 42
-0.030133
  0
VERTEX
  8
0
 10
4015.073515
 20
1399.168000
 42
-0.028568
  0
VERTEX
  8
0
 10
4013.428236
 20
1417.225125
 42
-0.029787
  0
VERTEX
  8
0
 10
4013.889697
 20
1435.099521
 42
-0.040310
  0
VERTEX
  8
0
 10
4017.698620
 20
1457.841442
 42
-0.074002
  0
VERTEX
  8
0
 10
4024.897510
 20
1475.144828
 42
-0.087989
  0
VERTEX
  8
0
 10
4035.774458
 20
1487.608628
 42
-0.082661
  0
VERTEX
  8
0
 10
4050.500000
 20
1495.899878
 42
-0.046139
  0
VERTEX
  8
0
 10
4059.840842
 20
1498.341292
 42
-0.032047
  0
VERTEX
  8
0
 10
4070.701806
 20
1499.424067
 42
-0.031619
  0
VERTEX
  8
0
 10
4081.819866
 20
1499.113517
 42
-0.040010
  0
SEQEND
  0
POLYLINE
  8
0
 66
1
 70
1
  0
VERTEX
  8
0
 10
1784.500000
 20
1532.956941
 42
0.027351
  0
VERTEX
  8
0
 10
1768.760677
 20
1531.016488
 42
0.044491
  0
VERTEX
  8
0
 10
1755.778554
 20
1527.475505
 42
0.050952
  0
VERTEX
  8
0
 10
1744.958890
 20
1522.155006
 42
0.055150
  0
VERTEX
  8
0
 10
1735.749689
 20
1514.873589
 42
0.055661
  0
VERTEX
  8
0
 10
1727.856536
 20
1505.120354
 42
0.060850
  0
VERTEX
  8
0
 10
1722.586747
 20
1494.144452
 42
0.052939
  0
VERTEX
  8
0
 10
1719.635874
 20
1480.966489
 42
0.029373
  0
VERTEX
  8
0
 10
1718.716393
 20
1464.500000
 42
0.006793
  0
VERTEX
  8
0
 10
1718.837995
 20
1457.145708
 42
0.016895
  0
VERTEX
  8
0
 10
1719.181621
 20
1451.775985
 42
0.021331
  0
VERTEX
  8
0
 10
1719.820516
 20
1447.253711
 42
0.019787
  0
VERTEX
  8
0
 10
1720.854280
 20
1442.686048
 42
0.058212
  0
VERTEX
  8
0
 10
1726.444876
 20
1428.625140
 42
0.078570
  0
VERTEX
  8
0
 10
1734.732233
 20
1417.758560
 42
0.075365
  0
VERTEX
  8
0
 10
1746.257680
 20
1409.669088
 42
0.048911
  0
VERTEX
  8
0
 10
1761.500000
 20
1403.865685
 42
0.033047
  0
VERTEX
  8
0
 10
1767.696189
 20
1402.609771
 42
0.019951
  0
VERTEX
  8
0
 10
1775.157975
 20
1401.906169
 42
0.008622
  0
VERTEX
  8
0
 10
1787.309866
 20
1401.457841
 42
0.000963
  0
VERTEX
  8
0
 10
1815.000000
 20
1400.967452
 42
-0.001586
  0
VERTEX
  8
0
 10
1835.587631
 20
1400.577194
 42
-0.004212
  0
VERTEX
  8
0
 10
1850.292213
 20
1400.127843
 42
-0.003363
  0
VERTEX
  8
0
 10
1861.092027
 20
1399.633966
 42
-0.060518
  0
VERTEX
  8
0
 10
1864.500000
 20
1399.037333
 42
-0.057771
  0
VERTEX
  8
0
 10
1872.430589
 20
1395.594070
 42
-0.105453
  0
VERTEX
  8
0
 10
1877.641350
 20
1390.882229
 42
-0.103175
  0
VERTEX
  8
0
 10
1880.545279
 20
1384.377529
 42
-0.053617
  0
VERTEX
  8
0
 10
1881.500000
 20
1375.500000
 42
-0.008716
  0
VERTEX
  8
0
 10
1881.443056
 20
1372.233697
 42
-0.009243
  0
VERTEX
  8
0
 10
1881.272232
 20
1369.034782
 42
-0.008914
  0
VERTEX
  8
0
 10
1881.025359
 20
1366.288798
 42
-0.041263
  0
VERTEX
  8
0
 10
1880.724620
 20
1364.724789
 42
-0.088406
  0
VERTEX
  8
0
 10
1879.015238
 20
1361.175244
 42
-0.045989
  0
VERTEX
  8
0
 10
1875.774970
 20
1357.458899
 42
-0.043795
  0
VERTEX
  8
0
 10
1871.632923
 20
1354.148395
 42
-0.050862
  0
VERTEX
  8
0
 10
1867.172277
 20
1351.797092
 42
0.000000
  0
VERTEX
  8
0
 10
1861.500000
 20
1349.508645
 42
0.000000
  0
VERTEX
  8
0
 10
1794.250000
 20
1349.202516
 42
0.000000
  0
VERTEX
  8
0
 10
1727.000000
 20
1348.896386
 42
0.000000
  0
VERTEX
  8
0
 10
1727.000000
 20
1328.948193
 42
0.000000
  0
VERTEX
  8
0
 10
1727.000000
 20
1309.000000
 42
0.000000
  0
VERTEX
  8
0
 10
1790.750000
 20
1309.010317
 42
0.001462
  0
VERTEX
  8
0
 10
1816.252326
 20
1309.089005
 42
0.001956
  0
VERTEX
  8
0
 10
1839.389162
 20
1309.318535
 42
0.001520
  0
VERTEX
  8
0
 10
1858.626907
 20
1309.643113
 42
0.016901
  0
VERTEX
  8
0
 10
1866.293172
 20
1310.055246
 42
0.028646
  0
VERTEX
  8
0
 10
1881.416520
 20
1312.260258
 42
0.043722
  0
VERTEX
  8
0
 10
1894.118968
 20
1316.043177
 42
0.048939
  0
VERTEX
  8
0
 10
1904.863189
 20
1321.563672
 42
0.051958
  0
VERTEX
  8
0
 10
1914.096471
 20
1328.973299
 42
0.038933
  0
VERTEX
  8
0
 10
1919.526778
 20
1335.254281
 42
0.039616
  0
VERTEX
  8
0
 10
1923.882659
 20
1342.266168
 42
0.038177
  0
VERTEX
  8
0
 10
1927.206157
 20
1350.118969
 42
0.031444
  0
VERTEX
  8
0
 10
1929.556004
 20
1358.910388
 42
0.038460
  0
VERTEX
  8
0
 10
1930.662978
 20
1367.981411
 42
0.016998
  0
VERTEX
  8
0
 10
1930.790528
 20
1380.062131
 42
0.016871
  0
VERTEX
  8
0
 10
1930.107223
 20
1392.000385
 42
0.043397
  0
VERTEX
  8
0
 10
1928.581151
 20
1400.500000
 42
0.065969
  0
VERTEX
  8
0
 10
1922.594828
 20
1414.812720
 42
0.088907
  0
VERTEX
  8
0
 10
1913.511645
 20
1425.482750
 42
0.080327
  0
VERTEX
  8
0
 10
1900.530193
 20
1433.052257
 42
0.044338
  0
VERTEX
  8
0
 10
1882.830652
 20
1438.122191
 42
0.037610
  0
VERTEX
  8
0
 10
1879.072550
 20
1438.556945
 42
0.001527
  0
VERTEX
  8
0
 10
1865.406504
 20
1439.061907
 42
0.002664
  0
VERTEX
  8
0
 10
1849.202063
 20
1439.524674
 42
0.001884
  0
VERTEX
  8
0
 10
1831.000000
 20
1439.878822
 42
-0.001003
  0
VERTEX
  8
0
 10
1804.844570
 20
1440.341594
 42
-0.006978
  0
VERTEX
  8
0
 10
1792.056432
 20
1440.772099
 42
-0.011704
  0
VERTEX
  8
0
 10
1784.428520
 20
1441.314693
 42
-0.083770
  0
VERTEX
  8
0
 10
1780.870722
 20
1442.267123
 42
-0.066257
  0
VERTEX
  8
0
 10
1774.794221
 20
1446.085579
 42
-0.089894
  0
VERTEX
  8
0
 10
1770.637320
 20
1451.039577
 42
-0.083602
  0
VERTEX
  8
0
 10
1768.291979
 20
1457.424760
 42
-0.049829
  0
VERTEX
  8
0
 10
1767.597861
 20
1465.511851
 42
-0.078588
  0
VERTEX
  8
0
 10
1769.381586
 20
1475.852872
 42
-0.105966
  0
VERTEX
  8
0
 10
1774.239895
 20
1483.979723
 42
-0.100540
  0
VERTEX
  8
0
 10
1782.228841
 20
1489.688392
 42
-0.064882
  0
VERTEX
  8
0
 10
1793.162753
 20
1492.956558
 42
-0.034683
  0
VERTEX
  8
0
 10
1797.992089
 20
1493.399812
 42
-0.001658
  0
VERTEX
  8
0
 10
1814.222150
 20
1493.706144
 42
-0.002505
  0
VERTEX
  8
0
 10
1834.624825
 20
1493.921319
 42
-0.001353
  0
VERTEX
  8
0
 10
1859.750000
 20
1493.992446
 42
0.000000
  0
VERTEX
  8
0
 10
1920.000000
 20
1494.000000
 42
0.000000
  0
VERTEX
  8
0
 10
1920.000000
 20
1514.000000
 42
0.000000
  0
VERTEX
  8
0
 10
1920.000000
 20
1534.000000
 42
0.000000
  0
VERTEX
  8
0
 10
1857.750000
 20
1533.852930
 42
0.001071
  0
VERTEX
  8
0
 10
1833.106033
 20
1533.741927
 42
0.001396
  0
VERTEX
  8
0
 10
1810.554688
 20
1533.529067
 42
0.001033
  0
VERTEX
  8
0
 10
1791.654256
 20
1533.258822
 42
0.012905
  0
SEQEND
  0
POLYLINE
  8
0
 66
1
 70
1
  0
VERTEX
  8
0
 10
1967.000000
 20
1421.500000
 42
0.000000
  0
VERTEX
  8
0
 10
1967.000000
 20
1308.963139
 42
0.000000
  0
VERTEX
  8
0
 10
1990.250000
 20
1309.231570
 42
0.000000
  0
VERTEX
  8
0
 10
2013.500000
 20
1309.500000
 42
0.000000
  0
VERTEX
  8
0
 10
2013.759888
 20
1356.250000
 42
0.000000
  0
VERTEX
  8
0
 10
2014.019777
 20
1403.000000
 42
0.000000
  0
VERTEX
  8
0
 10
2057.000000
 20
1403.000000
 42
0.000000
  0
VERTEX
  8
0
 10
2099.980223
 20
1403.000000
 42
0.000000
  0
VERTEX
  8
0
 10
2100.240112
 20
1356.250000
 42
0.000000
  0
VERTEX
  8
0
 10
2100.500000
 20
1309.500000
 42
0.000000
  0
VERTEX
  8
0
 10
2123.750000
 20
1309.231570
 42
0.000000
  0
VERTEX
  8
0
 10
2147.000000
 20
1308.963139
 42
0.000000
  0
VERTEX
  8
0
 10
2147.000000
 20
1421.500000
 42
0.000000
  0
VERTEX
  8
0
 10
2147.000000
 20
1534.036861
 42
0.000000
  0
VERTEX
  8
0
 10
2123.750000
 20
1533.768430
 42
0.000000
  0
VERTEX
  8
0
 10
2100.500000
 20
1533.500000
 42
0.000000
  0
VERTEX
  8
0
 10
2100.239810
 20
1488.250000
 42
0.000000
  0
VERTEX
  8
0
 10
2099.979619
 20
1443.000000
 42
0.000000
  0
VERTEX
  8
0
 10
2057.000000
 20
1443.000000
 42
0.000000
  0
VERTEX
  8
0
 10
2014.020381
 20
1443.000000
 42
0.000000
  0
VERTEX
  8
0
 10
2013.760190
 20
1488.250000
 42
0.000000
  0
VERTEX
  8
0
 10
2013.500000
 20
1533.500000
 42
0.000000
  0
VERTEX
  8
0
 10
1990.250000
 20
1533.768430
 42
0.000000
  0
VERTEX
  8
0
 10
1967.000000
 20
1534.036861
 42
0.000000
  0
SEQEND
  0
POLYLINE
  8
0
 66
1
 70
1
  0
VERTEX
  8
0
 10
2194.666667
 20
1533.333333
 42
0.197322
  0
VERTEX
  8
0
 10
2194.392587
 20
1532.677332
 42
0.000049
  0
VERTEX
  8
0
 10
2194.195833
 20
1500.011458
 42
0.000923
  0
VERTEX
  8
0
 10
2194.047942
 20
1463.761390
 42
0.000558
  0
VERTEX
  8
0
 10
2194.000000
 20
1420.833333
 42
0.000000
  0
VERTEX
  8
0
 10
2194.000000
 20
1309.000000
 42
0.000000
  0
VERTEX
  8
0
 10
2218.500000
 20
1309.000000
 42
0.000000
  0
VERTEX
  8
0
 10
2243.000000
 20
1309.000000
 42
0.000000
  0
VERTEX
  8
0
 10
2243.000000
 20
1421.500000
 42
0.000000
  0
VERTEX
  8
0
 10
2243.000000
 20
1534.000000
 42
0.000000
  0
VERTEX
  8
0
 10
2219.166667
 20
1534.000000
 42
0.002617
  0
VERTEX
  8
0
 10
2209.982104
 20
1533.951927
 42
0.004184
  0
VERTEX
  8
0
 10
2202.138542
 20
1533.804167
 42
0.000991
  0
VERTEX
  8
0
 10
2195.293079
 20
1533.604314
 42
0.190824
  0
SEQEND
  0
POLYLINE
  8
0
 66
1
 70
1
  0
VERTEX
  8
0
 10
2265.077634
 20
1532.767171
 42
0.064856
  0
VERTEX
  8
0
 10
2265.271509
 20
1531.762985
 42
0.000029
  0
VERTEX
  8
0
 10
2276.051846
 20
1499.265981
 42
0.000432
  0
VERTEX
  8
0
 10
2288.069699
 20
1463.149963
 42
0.000263
  0
VERTEX
  8
0
 10
2302.327634
 20
1420.500000
 42
0.000000
  0
VERTEX
  8
0
 10
2339.500000
 20
1309.500000
 42
0.000000
  0
VERTEX
  8
0
 10
2368.124877
 20
1309.234870
 42
0.000000
  0
VERTEX
  8
0
 10
2396.749755
 20
1308.969740
 42
0.000000
  0
VERTEX
  8
0
 10
2417.603367
 20
1392.423047
 42
-0.000686
  0
VERTEX
  8
0
 10
2425.637492
 20
1424.387905
 42
-0.001152
  0
VERTEX
  8
0
 10
2432.484424
 20
1451.211733
 42
-0.000062
  0
VERTEX
  8
0
 10
2438.691624
 20
1475.285177
 42
-0.577184
  0
VERTEX
  8
0
 10
2438.978490
 20
1475.364994
 42
-0.128949
  0
VERTEX
  8
0
 10
2439.273948
 20
1474.870687
 42
-0.000034
  0
VERTEX
  8
0
 10
2446.276636
 20
1450.717531
 42
-0.000649
  0
VERTEX
  8
0
 10
2454.008087
 20
1423.913841
 42
-0.000393
  0
VERTEX
  8
0
 10
2463.090909
 20
1392.176817
 42
0.000000
  0
VERTEX
  8
0
 10
2486.681817
 20
1309.500000
 42
0.000000
  0
VERTEX
  8
0
 10
2515.569287
 20
1309.500000
 42
0.000000
  0
VERTEX
  8
0
 10
2544.456757
 20
1309.500000
 42
0.000000
  0
VERTEX
  8
0
 10
2578.692662
 20
1420.000000
 42
0.000396
  0
VERTEX
  8
0
 10
2591.821191
 20
1462.492703
 42
0.000646
  0
VERTEX
  8
0
 10
2602.882261
 20
1498.560004
 42
0.000061
  0
VERTEX
  8
0
 10
2612.741640
 20
1530.871764
 42
0.069069
  0
VERTEX
  8
0
 10
2612.964283
 20
1532.268099
 42
0.346253
  0
VERTEX
  8
0
 10
2612.198985
 20
1533.282214
 42
0.048662
  0
VERTEX
  8
0
 10
2609.428655
 20
1533.730469
 42
0.017200
  0
VERTEX
  8
0
 10
2603.835699
 20
1533.891437
 42
0.001416
  0
VERTEX
  8
0
 10
2589.250000
 20
1533.768099
 42
0.000000
  0
VERTEX
  8
0
 10
2565.500000
 20
1533.500000
 42
0.000000
  0
VERTEX
  8
0
 10
2541.500000
 20
1447.760393
 42
-0.000507
  0
VERTEX
  8
0
 10
2532.261377
 20
1414.884151
 42
-0.000845
  0
VERTEX
  8
0
 10
2524.403125
 20
1387.207633
 42
-0.000030
  0
VERTEX
  8
0
 10
2517.260858
 20
1362.219206
 42
-0.336403
  0
VERTEX
  8
0
 10
2517.000000
 20
1362.023639
 42
-0.330355
  0
VERTEX
  8
0
 10
2516.737151
 20
1362.220916
 42
-0.000031
  0
VERTEX
  8
0
 10
2509.488176
 20
1386.623326
 42
-0.000857
  0
VERTEX
  8
0
 10
2501.510461
 20
1413.654626
 42
-0.000515
  0
VERTEX
  8
0
 10
2492.129962
 20
1445.763247
 42
0.000199
  0
VERTEX
  8
0
 10
2482.726503
 20
1478.026241
 42
0.000318
  0
VERTEX
  8
0
 10
2474.669599
 20
1505.563266
 42
0.000053
  0
VERTEX
  8
0
 10
2467.516777
 20
1529.943185
 42
0.018711
  0
VERTEX
  8
0
 10
2466.912186
 20
1531.750000
 42
0.000000
  0
VERTEX
  8
0
 10
2466.064448
 20
1534.000000
 42
0.000000
  0
VERTEX
  8
0
 10
2438.694944
 20
1534.000000
 42
0.000000
  0
VERTEX
  8
0
 10
2411.325439
 20
1534.000000
 42
0.000000
  0
VERTEX
  8
0
 10
2407.733558
 20
1520.250000
 42
0.001627
  0
VERTEX
  8
0
 10
2405.462695
 20
1511.439823
 42
0.000146
  0
VERTEX
  8
0
 10
2399.842826
 20
1489.312324
 42
0.000190
  0
VERTEX
  8
0
 10
2393.157845
 20
1462.916821
 42
0.000148
  0
VERTEX
  8
0
 10
2385.915409
 20
1434.238762
 42
-0.000828
  0
VERTEX
  8
0
 10
2378.887242
 20
1406.567636
 42
-0.001392
  0
VERTEX
  8
0
 10
2372.883856
 20
1383.363516
 42
-0.000091
  0
VERTEX
  8
0
 10
2367.446342
 20
1362.600747
 42
-0.579179
  0
VERTEX
  8
0
 10
2367.147007
 20
1362.519660
 42
-0.122941
  0
VERTEX
  8
0
 10
2366.834933
 20
1363.039401
 42
-0.000034
  0
VERTEX
  8
0
 10
2359.242026
 20
1387.935654
 42
-0.000630
  0
VERTEX
  8
0
 10
2350.855088
 20
1415.566949
 42
-0.000382
  0
VERTEX
  8
0
 10
2340.997729
 20
1448.280898
 42
0.000000
  0
VERTEX
  8
0
 10
2315.390586
 20
1533.500000
 42
0.000000
  0
VERTEX
  8
0
 10
2290.195293
 20
1533.767171
 42
0.002008
  0
VERTEX
  8
0
 10
2277.264626
 20
1533.852355
 42
0.010591
  0
VERTEX
  8
0
 10
2270.171987
 20
1533.720346
 42
0.010210
  0
VERTEX
  8
0
 10
2265.668923
 20
1533.448880
 42
0.408530
  0
SEQEND
  0
POLYLINE
  8
0
 66
1
 70
1
  0
VERTEX
  8
0
 10
2653.616371
 20
1423.513341
 42
0.000236
  0
VERTEX
  8
0
 10
2635.636843
 20
1381.007789
 42
0.000384
  0
VERTEX
  8
0
 10
2620.410228
 20
1344.885510
 42
0.000041
  0
VERTEX
  8
0
 10
2606.829646
 20
1312.591381
 42
0.035569
  0
VERTEX
  8
0
 10
2606.288600
 20
1310.995607
 42
0.362631
  0
VERTEX
  8
0
 10
2606.836613
 20
1309.831516
 42
0.090815
  0
VERTEX
  8
0
 10
2609.029511
 20
1309.262435
 42
0.019824
  0
VERTEX
  8
0
 10
2614.197874
 20
1309.091128
 42
0.001080
  0
VERTEX
  8
0
 10
2630.475460
 20
1309.232266
 42
0.000000
  0
VERTEX
  8
0
 10
2655.193458
 20
1309.500000
 42
0.000000
  0
VERTEX
  8
0
 10
2662.608783
 20
1329.500000
 42
-0.000288
  0
VERTEX
  8
0
 10
2665.636604
 20
1337.651995
 42
-0.000309
  0
VERTEX
  8
0
 10
2668.602372
 20
1345.607812
 42
-0.000292
  0
VERTEX
  8
0
 10
2671.157545
 20
1352.437097
 42
-0.001470
  0
VERTEX
  8
0
 10
2672.599479
 20
1356.250000
 42
0.000000
  0
VERTEX
  8
0
 10
2675.174849
 20
1363.000000
 42
0.000000
  0
VERTEX
  8
0
 10
2723.906906
 20
1363.000000
 42
0.000000
  0
VERTEX
  8
0
 10
2772.638962
 20
1363.000000
 42
0.000000
  0
VERTEX
  8
0
 10
2783.018459
 20
1336.000000
 42
0.000000
  0
VERTEX
  8
0
 10
2793.397956
 20
1309.000000
 42
0.000000
  0
VERTEX
  8
0
 10
2819.315609
 20
1309.000000
 42
0.001264
  0
VERTEX
  8
0
 10
2835.261042
 20
1309.040318
 42
0.015909
  0
VERTEX
  8
0
 10
2841.277382
 20
1309.262253
 42
0.047193
  0
VERTEX
  8
0
 10
2844.170110
 20
1309.737997
 42
0.417217
  0
VERTEX
  8
0
 10
2844.753525
 20
1310.750000
 42
0.033644
  0
VERTEX
  8
0
 10
2844.066767
 20
1312.723861
 42
0.000010
  0
VERTEX
  8
0
 10
2810.437871
 20
1391.798214
 42
0.000216
  0
VERTEX
  8
0
 10
2779.388556
 20
1464.715657
 42
0.000433
  0
VERTEX
  8
0
 10
2754.801412
 20
1522.250000
 42
0.000000
  0
VERTEX
  8
0
 10
2749.768050
 20
1534.000000
 42
0.000000
  0
VERTEX
  8
0
 10
2725.090527
 20
1534.000000
 42
0.000000
  0
VERTEX
  8
0
 10
2700.413004
 20
1534.000000
 42
0.000000
  0
SEQEND
  0
POLYLINE
  8
0
 66
1
 70
1
  0
VERTEX
  8
0
 10
2740.446175
 20
1445.530622
 42
-0.000237
  0
VERTEX
  8
0
 10
2746.793362
 20
1429.438744
 42
-0.000391
  0
VERTEX
  8
0
 10
2752.137314
 20
1415.840328
 42
-0.000017
  0
VERTEX
  8
0
 10
2756.953763
 20
1403.554769
 42
-0.093671
  0
VERTEX
  8
0
 10
2757.000000
 20
1403.310130
 42
-0.411362
  0
VERTEX
  8
0
 10
2756.873787
 20
1403.182681
 42
-0.000087
  0
VERTEX
  8
0
 10
2747.306250
 20
1403.091101
 42
-0.001469
  0
VERTEX
  8
0
 10
2736.653870
 20
1403.022286
 42
-0.000881
  0
VERTEX
  8
0
 10
2724.000000
 20
1403.000000
 42
-0.002369
  0
VERTEX
  8
0
 10
2711.346196
 20
1403.059961
 42
-0.003950
  0
VERTEX
  8
0
 10
2700.693750
 20
1403.245094
 42
-0.000628
  0
VERTEX
  8
0
 10
2691.331446
 20
1403.493576
 42
-0.406097
  0
VERTEX
  8
0
 10
2691.000000
 20
1403.834364
 42
-0.090831
  0
VERTEX
  8
0
 10
2691.245275
 20
1405.173402
 42
-0.000046
  0
VERTEX
  8
0
 10
2706.459750
 20
1445.299299
 42
-0.000086
  0
VERTEX
  8
0
 10
2721.488952
 20
1484.905033
 42
-0.047716
  0
VERTEX
  8
0
 10
2722.610170
 20
1487.178258
 42
-0.040945
  0
VERTEX
  8
0
 10
2722.861396
 20
1487.518929
 42
-0.069349
  0
VERTEX
  8
0
 10
2723.128578
 20
1487.750940
 42
-0.103347
  0
VERTEX
  8
0
 10
2723.368340
 20
1487.844105
 42
-0.242083
  0
VERTEX
  8
0
 10
2723.546310
 20
1487.787023
 42
-0.101539
  0
VERTEX
  8
0
 10
2723.760712
 20
1487.461918
 42
-0.000045
  0
VERTEX
  8
0
 10
2728.653386
 20
1475.231464
 42
-0.000665
  0
VERTEX
  8
0
 10
2734.074304
 20
1461.624551
 42
-0.000405
  0
SEQEND
  0
POLYLINE
  8
0
 66
1
 70
1
  0
VERTEX
  8
0
 10
2983.000000
 20
1421.514881
 42
0.000000
  0
VERTEX
  8
0
 10
2983.000000
 20
1309.000000
 42
0.000000
  0
VERTEX
  8
0
 10
3007.127795
 20
1309.000000
 42
0.000000
  0
VERTEX
  8
0
 10
3031.255589
 20
1309.000000
 42
0.000000
  0
VERTEX
  8
0
 10
3030.637185
 20
1325.750000
 42
-0.005031
  0
VERTEX
  8
0
 10
3030.364507
 20
1335.906238
 42
-0.000656
  0
VERTEX
  8
0
 10
3030.029586
 20
1357.554688
 42
-0.000763
  0
VERTEX
  8
0
 10
3029.705151
 20
1383.236572
 42
-0.000638
  0
VERTEX
  8
0
 10
3029.437161
 20
1410.500000
 42
0.000000
  0
VERTEX
  8
0
 10
3028.855541
 20
1478.500000
 42
0.000000
  0
VERTEX
  8
0
 10
3061.962064
 20
1420.500000
 42
-0.000056
  0
VERTEX
  8
0
 10
3075.753020
 20
1396.333084
 42
-0.000053
  0
VERTEX
  8
0
 10
3089.813160
 20
1371.682055
 42
-0.000052
  0
VERTEX
  8
0
 10
3102.266260
 20
1349.837949
 42
-0.000183
  0
VERTEX
  8
0
 10
3110.284294
 20
1335.758059
 42
0.000000
  0
VERTEX
  8
0
 10
3125.500000
 20
1309.016119
 42
0.000000
  0
VERTEX
  8
0
 10
3152.750000
 20
1309.008059
 42
0.000000
  0
VERTEX
  8
0
 10
3180.000000
 20
1309.000000
 42
0.000000
  0
VERTEX
  8
0
 10
3180.000000
 20
1421.500000
 42
0.000000
  0
VERTEX
  8
0
 10
3180.000000
 20
1534.000000
 42
0.000000
  0
VERTEX
  8
0
 10
3155.867594
 20
1534.000000
 42
0.000000
  0
VERTEX
  8
0
 10
3131.735188
 20
1534.000000
 42
0.000000
  0
VERTEX
  8
0
 10
3132.363113
 20
1497.250000
 42
-0.000628
  0
VERTEX
  8
0
 10
3133.269780
 20
1439.975875
 42
-0.002112
  0
VERTEX
  8
0
 10
3133.657681
 20
1402.493147
 42
-0.000539
  0
VERTEX
  8
0
 10
3133.800435
 20
1374.204353
 42
-0.747557
  0
VERTEX
  8
0
 10
3133.117863
 20
1374.000000
 42
-0.014673
  0
VERTEX
  8
0
 10
3132.369300
 20
1375.225122
 42
-0.000022
  0
VERTEX
  8
0
 10
3119.205038
 20
1398.265625
 42
-0.000179
  0
VERTEX
  8
0
 10
3104.455405
 20
1424.104921
 42
-0.000110
  0
VERTEX
  8
0
 10
3087.128535
 20
1454.500000
 42
0.000000
  0
VERTEX
  8
0
 10
3042.117293
 20
1533.500000
 42
0.000000
  0
VERTEX
  8
0
 10
3012.558646
 20
1533.764881
 42
0.000000
  0
VERTEX
  8
0
 10
2983.000000
 20
1534.029761
 42
0.000000
  0
SEQEND
  0
POLYLINE
  8
0
 66
1
 70
1
  0
VERTEX
  8
0
 10
3303.668153
 20
1532.916489
 42
0.021474
  0
VERTEX
  8
0
 10
3293.059902
 20
1531.735252
 42
0.018808
  0
VERTEX
  8
0
 10
3282.106691
 20
1529.612294
 42
0.019413
  0
VERTEX
  8
0
 10
3271.847873
 20
1526.796483
 42
0.031069
  0
VERTEX
  8
0
 10
3263.378109
 20
1523.522861
 42
0.064444
  0
VERTEX
  8
0
 10
3245.297049
 20
1512.195769
 42
0.070811
  0
VERTEX
  8
0
 10
3231.346028
 20
1496.949033
 42
0.063934
  0
VERTEX
  8
0
 10
3221.195075
 20
1477.062626
 42
0.040466
  0
VERTEX
  8
0
 10
3214.407604
 20
1451.891334
 42
0.029121
  0
VERTEX
  8
0
 10
3213.042892
 20
1440.966364
 42
0.009835
  0
VERTEX
  8
0
 10
3212.298975
 20
1424.938178
 42
0.009970
  0
VERTEX
  8
0
 10
3212.189336
 20
1408.746658
 42
0.025652
  0
VERTEX
  8
0
 10
3212.942951
 20
1397.071798
 42
0.045986
  0
VERTEX
  8
0
 10
3218.527491
 20
1370.566858
 42
0.066529
  0
VERTEX
  8
0
 10
3228.545157
 20
1348.863258
 42
0.071459
  0
VERTEX
  8
0
 10
3243.259320
 20
1331.673876
 42
0.063931
  0
VERTEX
  8
0
 10
3262.751017
 20
1318.553406
 42
0.054654
  0
VERTEX
  8
0
 10
3276.283919
 20
1313.527793
 42
0.036351
  0
VERTEX
  8
0
 10
3292.601517
 20
1310.664416
 42
0.021875
  0
VERTEX
  8
0
 10
3316.023858
 20
1309.320907
 42
0.005236
  0
VERTEX
  8
0
 10
3355.000000
 20
1309.200743
 42
0.000000
  0
VERTEX
  8
0
 10
3395.500000
 20
1309.500000
 42
0.000000
  0
VERTEX
  8
0
 10
3395.771593
 20
1328.750000
 42
0.000000
  0
VERTEX
  8
0
 10
3396.043186
 20
1348.000000
 42
0.000000
  0
VERTEX
  8
0
 10
3353.652583
 20
1348.000000
 42
-0.003231
  0
VERTEX
  8
0
 10
3322.921246
 20
1348.198606
 42
-0.019553
  0
VERTEX
  8
0
 10
3307.008493
 20
1349.027224
 42
-0.037804
  0
VERTEX
  8
0
 10
3296.482011
 20
1350.798398
 42
-0.050798
  0
VERTEX
  8
0
 10
3287.383456
 20
1354.055621
 42
-0.046101
  0
VERTEX
  8
0
 10
3282.278977
 20
1357.097552
 42
-0.042949
  0
VERTEX
  8
0
 10
3277.685793
 20
1361.088899
 42
-0.042007
  0
VERTEX
  8
0
 10
3273.751035
 20
1365.899510
 42
-0.040023
  0
VERTEX
  8
0
 10
3270.603669
 20
1371.376012
 42
-0.038073
  0
VERTEX
  8
0
 10
3268.515474
 20
1376.832594
 42
-0.019427
  0
VERTEX
  8
0
 10
3266.695120
 20
1383.945686
 42
-0.019396
  0
VERTEX
  8
0
 10
3265.414538
 20
1391.278098
 42
-0.033542
  0
VERTEX
  8
0
 10
3265.000000
 20
1397.450600
 42
0.000000
  0
VERTEX
  8
0
 10
3265.000000
 20
1402.985517
 42
0.000000
  0
VERTEX
  8
0
 10
3330.250000
 20
1403.242758
 42
0.000000
  0
VERTEX
  8
0
 10
3395.500000
 20
1403.500000
 42
0.000000
  0
VERTEX
  8
0
 10
3395.771593
 20
1422.750000
 42
0.000000
  0
VERTEX
  8
0
 10
3396.043186
 20
1442.000000
 42
0.000000
  0
VERTEX
  8
0
 10
3330.377993
 20
1442.000000
 42
0.000000
  0
VERTEX
  8
0
 10
3264.712801
 20
1442.000000
 42
0.000000
  0
VERTEX
  8
0
 10
3265.352384
 20
1448.881661
 42
-0.057025
  0
VERTEX
  8
0
 10
3268.346722
 20
1463.168281
 42
-0.071509
  0
VERTEX
  8
0
 10
3274.388939
 20
1475.263181
 42
-0.075906
  0
VERTEX
  8
0
 10
3283.242295
 20
1484.623001
 42
-0.076060
  0
VERTEX
  8
0
 10
3294.479610
 20
1490.906487
 42
-0.048423
  0
VERTEX
  8
0
 10
3302.435490
 20
1493.033598
 42
-0.024405
  0
VERTEX
  8
0
 10
3312.764030
 20
1494.233779
 42
-0.013843
  0
VERTEX
  8
0
 10
3328.295076
 20
1494.842859
 42
-0.002878
  0
VERTEX
  8
0
 10
3355.593952
 20
1495.000000
 42
0.000000
  0
VERTEX
  8
0
 10
3396.043186
 20
1495.000000
 42
0.000000
  0
VERTEX
  8
0
 10
3395.771593
 20
1514.250000
 42
0.000000
  0
VERTEX
  8
0
 10
3395.500000
 20
1533.500000
 42
0.000000
  0
VERTEX
  8
0
 10
3355.500000
 20
1533.610866
 42
0.001899
  0
VERTEX
  8
0
 10
3339.318219
 20
1533.594247
 42
0.002143
  0
VERTEX
  8
0
 10
3323.774395
 20
1533.452625
 42
0.001957
  0
VERTEX
  8
0
 10
3310.555492
 20
1533.223786
 42
0.011683
  0
SEQEND
  0
POLYLINE
  8
0
 66
1
 70
1
  0
VERTEX
  8
0
 10
3509.750000
 20
1533.250059
 42
0.000000
  0
VERTEX
  8
0
 10
3414.000000
 20
1532.989953
 42
0.000000
  0
VERTEX
  8
0
 10
3414.000000
 20
1513.494976
 42
0.000000
  0
VERTEX
  8
0
 10
3414.000000
 20
1494.000000
 42
0.000000
  0
VERTEX
  8
0
 10
3450.000000
 20
1494.000000
 42
0.000000
  0
VERTEX
  8
0
 10
3486.000000
 20
1494.000000
 42
0.000000
  0
VERTEX
  8
0
 10
3486.000000
 20
1401.500000
 42
0.000000
  0
VERTEX
  8
0
 10
3486.000000
 20
1309.000000
 42
0.000000
  0
VERTEX
  8
0
 10
3510.500000
 20
1309.000000
 42
0.000000
  0
VERTEX
  8
0
 10
3535.000000
 20
1309.000000
 42
0.000000
  0
VERTEX
  8
0
 10
3535.000000
 20
1401.487526
 42
0.000000
  0
VERTEX
  8
0
 10
3535.000000
 20
1493.975052
 42
0.000000
  0
VERTEX
  8
0
 10
3571.250000
 20
1494.237526
 42
0.000000
  0
VERTEX
  8
0
 10
3607.500000
 20
1494.500000
 42
0.000000
  0
VERTEX
  8
0
 10
3608.000000
 20
1509.279048
 42
0.000000
  0
VERTEX
  8
0
 10
3608.500000
 20
1524.058096
 42
0.000000
  0
VERTEX
  8
0
 10
3644.336657
 20
1416.513855
 42
0.000000
  0
VERTEX
  8
0
 10
3680.173314
 20
1308.969614
 42
0.000000
  0
VERTEX
  8
0
 10
3708.774594
 20
1309.234807
 42
0.000000
  0
VERTEX
  8
0
 10
3737.375873
 20
1309.500000
 42
0.000000
  0
VERTEX
  8
0
 10
3758.078352
 20
1392.307082
 42
-0.000373
  0
VERTEX
  8
0
 10
3766.049859
 20
1424.091129
 42
-0.000617
  0
VERTEX
  8
0
 10
3772.836846
 20
1450.926952
 42
-0.000030
  0
VERTEX
  8
0
 10
3778.991163
 20
1475.129510
 42
-0.134892
  0
VERTEX
  8
0
 10
3779.248468
 20
1475.581802
 42
-0.569958
  0
VERTEX
  8
0
 10
3779.514898
 20
1475.513579
 42
-0.000051
  0
VERTEX
  8
0
 10
3786.558803
 20
1451.376684
 42
-0.001046
  0
VERTEX
  8
0
 10
3794.332584
 20
1424.519915
 42
-0.000624
  0
VERTEX
  8
0
 10
3803.478032
 20
1392.524719
 42
0.000000
  0
VERTEX
  8
0
 10
3827.239958
 20
1309.000000
 42
0.000000
  0
VERTEX
  8
0
 10
3856.072975
 20
1309.000000
 42
0.000000
  0
VERTEX
  8
0
 10
3884.905992
 20
1309.000000
 42
0.000000
  0
VERTEX
  8
0
 10
3885.826645
 20
1312.250000
 42
-0.005834
  0
VERTEX
  8
0
 10
3886.584308
 20
1314.810323
 42
-0.000019
  0
VERTEX
  8
0
 10
3896.354597
 20
1346.460028
 42
-0.000107
  0
VERTEX
  8
0
 10
3907.416725
 20
1382.262503
 42
-0.000067
  0
VERTEX
  8
0
 10
3920.373649
 20
1424.145842
 42
0.000147
  0
VERTEX
  8
0
 10
3933.267072
 20
1465.847587
 42
0.000244
  0
VERTEX
  8
0
 10
3944.122260
 20
1501.054439
 42
0.000008
  0
VERTEX
  8
0
 10
3953.927243
 20
1532.912079
 42
0.074778
  0
VERTEX
  8
0
 10
3954.000000
 20
1533.395842
 42
0.406110
  0
VERTEX
  8
0
 10
3953.759988
 20
1533.642607
 42
0.000626
  0
VERTEX
  8
0
 10
3946.970844
 20
1533.822528
 42
0.003945
  0
VERTEX
  8
0
 10
3939.246516
 20
1533.956583
 42
0.002366
  0
VERTEX
  8
0
 10
3930.070958
 20
1534.000000
 42
0.000000
  0
VERTEX
  8
0
 10
3906.141917
 20
1534.000000
 42
0.000000
  0
VERTEX
  8
0
 10
3904.626848
 20
1528.750000
 42
0.001956
  0
VERTEX
  8
0
 10
3903.507217
 20
1524.812507
 42
0.000029
  0
VERTEX
  8
0
 10
3897.072314
 20
1501.835938
 42
0.000080
  0
VERTEX
  8
0
 10
3889.606351
 20
1475.155437
 42
0.000053
  0
VERTEX
  8
0
 10
3881.036831
 20
1444.500000
 42
-0.000319
  0
VERTEX
  8
0
 10
3872.513038
 20
1414.070579
 42
-0.000511
  0
VERTEX
  8
0
 10
3865.197035
 20
1388.118750
 42
-0.000082
  0
VERTEX
  8
0
 10
3858.685314
 20
1365.124330
 42
-0.031330
  0
VERTEX
  8
0
 10
3858.112986
 20
1363.500000
 42
-0.232360
  0
VERTEX
  8
0
 10
3857.577352
 20
1363.037016
 42
-0.336313
  0
VERTEX
  8
0
 10
3857.023322
 20
1363.266504
 42
-0.054209
  0
VERTEX
  8
0
 10
3856.330365
 20
1364.814388
 42
-0.006090
  0
VERTEX
  8
0
 10
3855.188534
 20
1368.500000
 42
-0.001079
  0
VERTEX
  8
0
 10
3853.708871
 20
1373.530113
 42
-0.000032
  0
VERTEX
  8
0
 10
3847.520736
 20
1394.740625
 42
-0.000064
  0
VERTEX
  8
0
 10
3840.240158
 20
1419.713307
 42
-0.000044
  0
VERTEX
  8
0
 10
3832.000000
 20
1448.000000
 42
0.000024
  0
VERTEX
  8
0
 10
3823.765880
 20
1476.270147
 42
0.000035
  0
VERTEX
  8
0
 10
3816.504236
 20
1501.190560
 42
0.000017
  0
VERTEX
  8
0
 10
3810.326443
 20
1522.383237
 42
0.000614
  0
VERTEX
  8
0
 10
3808.896479
 20
1527.265736
 42
0.000000
  0
VERTEX
  8
0
 10
3806.905937
 20
1534.031472
 42
0.000000
  0
VERTEX
  8
0
 10
3779.202968
 20
1533.765736
 42
0.000000
  0
VERTEX
  8
0
 10
3751.500000
 20
1533.500000
 42
0.000000
  0
VERTEX
  8
0
 10
3729.988239
 20
1448.321572
 42
-0.000422
  0
VERTEX
  8
0
 10
3721.700868
 20
1415.622936
 42
-0.000696
  0
VERTEX
  8
0
 10
3714.635194
 20
1388.003944
 42
-0.000038
  0
VERTEX
  8
0
 10
3708.231383
 20
1363.124217
 42
-0.134146
  0
VERTEX
  8
0
 10
3707.930558
 20
1362.597225
 42
-0.564680
  0
VERTEX
  8
0
 10
3707.615165
 20
1362.675307
 42
-0.000065
  0
VERTEX
  8
0
 10
3699.949359
 20
1387.466634
 42
-0.001191
  0
VERTEX
  8
0
 10
3691.481813
 20
1415.096617
 42
-0.000710
  0
VERTEX
  8
0
 10
3681.527126
 20
1448.025653
 42
0.000000
  0
VERTEX
  8
0
 10
3655.669614
 20
1534.000000
 42
0.000000
  0
VERTEX
  8
0
 10
3630.584807
 20
1533.755083
 42
-0.001223
  0
VERTEX
  8
0
 10
3615.582970
 20
1533.645296
 42
-0.000173
  0
VERTEX
  8
0
 10
3584.742100
 20
1533.505704
 42
-0.000197
  0
VERTEX
  8
0
 10
3548.248602
 20
1533.367596
 42
-0.000168
  0
SEQEND
  0
POLYLINE
  8
0
 66
1
 70
1
  0
VERTEX
  8
0
 10
4218.000000
 20
1421.500000
 42
0.000000
  0
VERTEX
  8
0
 10
4218.000000
 20
1309.000000
 42
0.000000
  0
VERTEX
  8
0
 10
4241.500000
 20
1309.000000
 42
0.000000
  0
VERTEX
  8
0
 10
4265.000000
 20
1309.000000
 42
0.000000
  0
VERTEX
  8
0
 10
4265.000000
 20
1353.500000
 42
0.000000
  0
VERTEX
  8
0
 10
4265.000000
 20
1398.000000
 42
0.000000
  0
VERTEX
  8
0
 10
4292.476947
 20
1398.000000
 42
0.000000
  0
VERTEX
  8
0
 10
4319.953894
 20
1398.000000
 42
0.000000
  0
VERTEX
  8
0
 10
4321.484190
 20
1395.664473
 42
-0.016416
  0
VERTEX
  8
0
 10
4322.585365
 20
1393.857115
 42
-0.000192
  0
VERTEX
  8
0
 10
4329.448004
 20
1381.702631
 42
-0.000584
  0
VERTEX
  8
0
 10
4337.355081
 20
1367.647440
 42
-0.000381
  0
VERTEX
  8
0
 10
4346.446119
 20
1351.414473
 42
0.000000
  0
VERTEX
  8
0
 10
4369.877752
 20
1309.500000
 42
0.000000
  0
VERTEX
  8
0
 10
4396.497769
 20
1309.233556
 42
0.001620
  0
VERTEX
  8
0
 10
4410.936066
 20
1309.135836
 42
0.011398
  0
VERTEX
  8
0
 10
4417.965171
 20
1309.271290
 42
0.017653
  0
VERTEX
  8
0
 10
4421.942474
 20
1309.579611
 42
0.545340
  0
VERTEX
  8
0
 10
4422.308893
 20
1310.319903
 42
-0.000576
  0
VERTEX
  8
0
 10
4407.001584
 20
1335.986943
 42
-0.000306
  0
VERTEX
  8
0
 10
4388.093877
 20
1367.818567
 42
-0.000005
  0
VERTEX
  8
0
 10
4367.593200
 20
1402.380948
 42
-0.134644
  0
VERTEX
  8
0
 10
4367.500000
 20
1402.720772
 42
-0.308018
  0
VERTEX
  8
0
 10
4367.621575
 20
1402.899398
 42
-0.001377
  0
VERTEX
  8
0
 10
4369.865945
 20
1403.777287
 42
-0.005701
  0
VERTEX
  8
0
 10
4372.466278
 20
1404.752201
 42
-0.003488
  0
VERTEX
  8
0
 10
4375.554282
 20
1405.845662
 42
0.050522
  0
VERTEX
  8
0
 10
4387.033262
 20
1411.170082
 42
0.064938
  0
VERTEX
  8
0
 10
4396.181376
 20
1418.342917
 42
0.064180
  0
VERTEX
  8
0
 10
4403.260864
 20
1427.695036
 42
0.047851
  0
VERTEX
  8
0
 10
4408.591494
 20
1439.500000
 42
0.018451
  0
VERTEX
  8
0
 10
4410.051510
 20
1444.363796
 42
0.028570
  0
VERTEX
  8
0
 10
4410.912130
 20
1448.662339
 42
0.021350
  0
VERTEX
  8
0
 10
4411.420442
 20
1453.844274
 42
0.005936
  0
VERTEX
  8
0
 10
4411.773116
 20
1462.000000
 42
0.016702
  0
VERTEX
  8
0
 10
4411.747337
 20
1474.541370
 42
0.033270
  0
VERTEX
  8
0
 10
4410.737107
 20
1484.413971
 42
0.038700
  0
VERTEX
  8
0
 10
4408.574004
 20
1493.034485
 42
0.033796
  0
VERTEX
  8
0
 10
4405.031380
 20
1501.633843
 42
0.060806
  0
VERTEX
  8
0
 10
4398.678438
 20
1511.334610
 42
0.058687
  0
VERTEX
  8
0
 10
4390.110063
 20
1519.353604
 42
0.054760
  0
VERTEX
  8
0
 10
4379.349621
 20
1525.595455
 42
0.042093
  0
VERTEX
  8
0
 10
4366.500000
 20
1530.026810
 42
0.037716
  0
VERTEX
  8
0
 10
4355.074300
 20
1532.018198
 42
0.013570
  0
VERTEX
  8
0
 10
4338.598088
 20
1533.173773
 42
0.008527
  0
VERTEX
  8
0
 10
4314.175189
 20
1533.804731
 42
0.002128
  0
VERTEX
  8
0
 10
4274.250000
 20
1533.985170
 42
0.000000
  0
VERTEX
  8
0
 10
4218.000000
 20
1534.000000
 42
0.000000
  0
SEQEND
  0
POLYLINE
  8
0
 66
1
 70
1
  0
VERTEX
  8
0
 10
4337.500000
 20
1492.962581
 42
-0.030613
  0
VERTEX
  8
0
 10
4347.018369
 20
1491.005384
 42
-0.069496
  0
VERTEX
  8
0
 10
4353.762384
 20
1488.131992
 42
-0.084459
  0
VERTEX
  8
0
 10
4358.642206
 20
1483.937141
 42
-0.065610
  0
VERTEX
  8
0
 10
4362.374324
 20
1478.000000
 42
-0.033737
  0
VERTEX
  8
0
 10
4363.376026
 20
1475.360452
 42
-0.035660
  0
VERTEX
  8
0
 10
4363.991542
 20
1472.658349
 42
-0.028308
  0
VERTEX
  8
0
 10
4364.304692
 20
1469.409089
 42
-0.011743
  0
VERTEX
  8
0
 10
4364.375278
 20
1464.996409
 42
-0.048671
  0
VERTEX
  8
0
 10
4363.366711
 20
1455.403799
 42
-0.101841
  0
VERTEX
  8
0
 10
4360.422580
 20
1448.536264
 42
-0.105613
  0
VERTEX
  8
0
 10
4355.089512
 20
1443.544389
 42
-0.055032
  0
VERTEX
  8
0
 10
4346.780627
 20
1439.713985
 42
-0.042347
  0
VERTEX
  8
0
 10
4341.841903
 20
1438.519172
 42
-0.024075
  0
VERTEX
  8
0
 10
4335.724442
 20
1437.877055
 42
-0.010355
  0
VERTEX
  8
0
 10
4325.665621
 20
1437.517479
 42
-0.001157
  0
VERTEX
  8
0
 10
4302.750000
 20
1437.226229
 42
0.000000
  0
VERTEX
  8
0
 10
4265.000000
 20
1436.833831
 42
0.000000
  0
VERTEX
  8
0
 10
4265.000000
 20
1465.416915
 42
0.000000
  0
VERTEX
  8
0
 10
4265.000000
 20
1494.000000
 42
0.000000
  0
VERTEX
  8
0
 10
4297.750000
 20
1493.980191
 42
-0.002784
  0
VERTEX
  8
0
 10
4310.802971
 20
1493.899618
 42
-0.003464
  0
VERTEX
  8
0
 10
4322.935937
 20
1493.673097
 42
-0.002824
  0
VERTEX
  8
0
 10
4333.114680
 20
1493.354973
 42
-0.026180
  0
SEQEND
  0
POLYLINE
  8
0
 66
1
 70
1
  0
VERTEX
  8
0
 10
4452.666667
 20
1533.333333
 42
0.197322
  0
VERTEX
  8
0
 10
4452.392587
 20
1532.677332
 42
0.000049
  0
VERTEX
  8
0
 10
4452.195833
 20
1500.011458
 42
0.000923
  0
VERTEX
  8
0
 10
4452.047942
 20
1463.761390
 42
0.000558
  0
VERTEX
  8
0
 10
4452.000000
 20
1420.833333
 42
0.000000
  0
VERTEX
  8
0
 10
4452.000000
 20
1309.000000
 42
0.000000
  0
VERTEX
  8
0
 10
4475.500000
 20
1309.000000
 42
0.000000
  0
VERTEX
  8
0
 10
4499.000000
 20
1309.000000
 42
0.000000
  0
VERTEX
  8
0
 10
4499.000000
 20
1364.559017
 42
-0.001363
  0
VERTEX
  8
0
 10
4499.060490
 20
1386.750563
 42
-0.002703
  0
VERTEX
  8
0
 10
4499.251538
 20
1404.344032
 42
-0.000381
  0
VERTEX
  8
0
 10
4499.507125
 20
1419.353392
 42
-0.581420
  0
VERTEX
  8
0
 10
4499.894782
 20
1419.565028
 42
-0.089494
  0
VERTEX
  8
0
 10
4500.516386
 20
1419.006403
 42
-0.000077
  0
VERTEX
  8
0
 10
4512.927345
 20
1403.016452
 42
-0.000823
  0
VERTEX
  8
0
 10
4526.754886
 20
1385.135080
 42
-0.000504
  0
VERTEX
  8
0
 10
4543.004451
 20
1364.006011
 42
0.000000
  0
VERTEX
  8
0
 10
4585.219336
 20
1309.000000
 42
0.000000
  0
VERTEX
  8
0
 10
4615.264656
 20
1309.000000
 42
0.000970
  0
VERTEX
  8
0
 10
4634.142174
 20
1309.036621
 42
0.014330
  0
VERTEX
  8
0
 10
4640.765908
 20
1309.252215
 42
0.060413
  0
VERTEX
  8
0
 10
4643.539539
 20
1309.762303
 42
0.537084
  0
VERTEX
  8
0
 10
4643.826228
 20
1310.750000
 42
-0.009085
  0
VERTEX
  8
0
 10
4633.399689
 20
1323.510520
 42
-0.000362
  0
VERTEX
  8
0
 10
4596.274307
 20
1370.740195
 42
-0.000024
  0
VERTEX
  8
0
 10
4555.363397
 20
1422.868519
 42
-0.167892
  0
VERTEX
  8
0
 10
4555.000000
 20
1423.920250
 42
-0.170750
  0
VERTEX
  8
0
 10
4555.266566
 20
1424.678065
 42
-0.000141
  0
VERTEX
  8
0
 10
4567.824885
 20
1440.311212
 42
-0.001490
  0
VERTEX
  8
0
 10
4581.919936
 20
1457.740569
 42
-0.000909
  0
VERTEX
  8
0
 10
4598.659184
 20
1478.237665
 42
0.000064
  0
VERTEX
  8
0
 10
4615.466174
 20
1498.746867
 42
0.000104
  0
VERTEX
  8
0
 10
4629.776441
 20
1516.221377
 42
0.000014
  0
VERTEX
  8
0
 10
4642.498122
 20
1531.763544
 42
0.007337
  0
VERTEX
  8
0
 10
4643.281629
 20
1532.750000
 42
0.590330
  0
VERTEX
  8
0
 10
4642.988615
 20
1533.424174
 42
0.012012
  0
VERTEX
  8
0
 10
4638.392582
 20
1533.747440
 42
0.009844
  0
VERTEX
  8
0
 10
4630.732569
 20
1533.950561
 42
0.001706
  0
VERTEX
  8
0
 10
4616.243218
 20
1534.000000
 42
0.000000
  0
VERTEX
  8
0
 10
4588.241546
 20
1534.000000
 42
0.000000
  0
VERTEX
  8
0
 10
4543.870773
 20
1479.887189
 42
0.000000
  0
VERTEX
  8
0
 10
4499.500000
 20
1425.774378
 42
0.000000
  0
VERTEX
  8
0
 10
4499.241388
 20
1479.887189
 42
0.000000
  0
VERTEX
  8
0
 10
4498.982775
 20
1534.000000
 42
0.000000
  0
VERTEX
  8
0
 10
4476.158054
 20
1534.000000
 42
0.002732
  0
VERTEX
  8
0
 10
4467.360234
 20
1533.951920
 42
0.004360
  0
VERTEX
  8
0
 10
4459.842262
 20
1533.804167
 42
0.001076
  0
VERTEX
  8
0
 10
4453.291418
 20
1533.604154
 42
0.190434
  0
SEQEND
  0
POLYLINE
  8
0
 66
1
 70
1
  0
VERTEX
  8
0
 10
483.500000
 20
1223.066136
 42
0.001400
  0
VERTEX
  8
0
 10
467.013281
 20
1211.554856
 42
0.002299
  0
VERTEX
  8
0
 10
453.131250
 20
1201.708629
 42
0.000259
  0
VERTEX
  8
0
 10
440.810998
 20
1192.875029
 42
0.241601
  0
VERTEX
  8
0
 10
440.500000
 20
1192.268981
 42
0.192811
  0
VERTEX
  8
0
 10
441.235515
 20
1190.432539
 42
0.000002
  0
VERTEX
  8
0
 10
787.907757
 20
827.070196
 42
0.000001
  0
VERTEX
  8
0
 10
1134.756686
 20
463.526643
 42
0.291921
  0
VERTEX
  8
0
 10
1136.085053
 20
463.200392
 42
0.103193
  0
VERTEX
  8
0
 10
1139.267772
 20
465.077529
 42
0.000015
  0
VERTEX
  8
0
 10
1300.432956
 20
611.812621
 42
0.000007
  0
VERTEX
  8
0
 10
1462.329799
 20
759.226842
 42
0.267928
  0
VERTEX
  8
0
 10
1462.790449
 20
760.671799
 42
0.060890
  0
VERTEX
  8
0
 10
1461.238600
 20
765.107045
 42
0.000012
  0
VERTEX
  8
0
 10
1358.292245
 20
973.817925
 42
0.000003
  0
VERTEX
  8
0
 10
1254.575940
 20
1184.073157
 42
0.527940
  0
VERTEX
  8
0
 10
1253.886940
 20
1184.170974
 42
0.116414
  0
VERTEX
  8
0
 10
1253.135364
 20
1182.822723
 42
0.000007
  0
VERTEX
  8
0
 10
1215.014126
 20
1048.607479
 42
0.000012
  0
VERTEX
  8
0
 10
1177.038729
 20
914.886113
 42
0.068025
  0
VERTEX
  8
0
 10
1176.672645
 20
912.304014
 42
-0.122777
  0
VERTEX
  8
0
 10
1176.558702
 20
911.856529
 42
-0.216263
  0
VERTEX
  8
0
 10
1176.260949
 20
911.629626
 42
-0.135451
  0
VERTEX
  8
0
 10
1175.768693
 20
911.651329
 42
-0.042636
  0
VERTEX
  8
0
 10
1175.083333
 20
911.939920
 42
-0.000318
  0
VERTEX
  8
0
 10
1173.786524
 20
912.622323
 42
-0.000000
  0
VERTEX
  8
0
 10
1079.149968
 20
962.498459
 42
-0.000001
  0
VERTEX
  8
0
 10
974.601394
 20
1017.598776
 42
-0.000001
  0
VERTEX
  8
0
 10
850.725069
 20
1082.885906
 42
0.000097
  0
VERTEX
  8
0
 10
726.906663
 20
1148.112018
 42
0.000161
  0
VERTEX
  8
0
 10
622.552286
 20
1203.015855
 42
0.000002
  0
VERTEX
  8
0
 10
527.787821
 20
1252.834640
 42
0.137245
  0
VERTEX
  8
0
 10
527.225069
 20
1252.955301
 42
0.135232
  0
VERTEX
  8
0
 10
526.689240
 20
1252.771526
 42
0.000095
  0
VERTEX
  8
0
 10
514.081739
 20
1244.156921
 42
0.001104
  0
VERTEX
  8
0
 10
500.038696
 20
1234.511940
 42
0.000674
  0
SEQEND
  0
POLYLINE
  8
0
 66
1
 70
1
  0
VERTEX
  8
0
 10
1188.000000
 20
905.448640
 42
-0.489263
  0
VERTEX
  8
0
 10
1187.848547
 20
905.330913
 42
-0.021951
  0
VERTEX
  8
0
 10
1187.118750
 20
905.551227
 42
-0.022668
  0
VERTEX
  8
0
 10
1186.150991
 20
905.940466
 42
-0.012379
  0
VERTEX
  8
0
 10
1185.000000
 20
906.500000
 42
-0.012286
  0
VERTEX
  8
0
 10
1183.850463
 20
907.130714
 42
-0.018345
  0
VERTEX
  8
0
 10
1182.881250
 20
907.742523
 42
-0.013630
  0
VERTEX
  8
0
 10
1182.130746
 20
908.286308
 42
-0.233226
  0
VERTEX
  8
0
 10
1182.000000
 20
908.551360
 42
-0.489263
  0
VERTEX
  8
0
 10
1182.151453
 20
908.669087
 42
-0.021951
  0
VERTEX
  8
0
 10
1182.881250
 20
908.448773
 42
-0.022668
  0
VERTEX
  8
0
 10
1183.849009
 20
908.059534
 42
-0.012379
  0
VERTEX
  8
0
 10
1185.000000
 20
907.500000
 42
-0.012286
  0
VERTEX
  8
0
 10
1186.149537
 20
906.869286
 42
-0.018345
  0
VERTEX
  8
0
 10
1187.118750
 20
906.257477
 42
-0.013630
  0
VERTEX
  8
0
 10
1187.869254
 20
905.713692
 42
-0.233226
  0
SEQEND
  0
POLYLINE
  8
0
 66
1
 70
1
  0
VERTEX
  8
0
 10
1205.000000
 20
896.429632
 42
-0.439016
  0
VERTEX
  8
0
 10
1204.867419
 20
896.307737
 42
-0.048507
  0
VERTEX
  8
0
 10
1204.412500
 20
896.390928
 42
-0.035050
  0
VERTEX
  8
0
 10
1203.767478
 20
896.624831
 42
-0.018363
  0
VERTEX
  8
0
 10
1203.000000
 20
897.000000
 42
-0.018122
  0
VERTEX
  8
0
 10
1202.233921
 20
897.446431
 42
-0.025446
  0
VERTEX
  8
0
 10
1201.587500
 20
897.902822
 42
-0.023718
  0
VERTEX
  8
0
 10
1201.108693
 20
898.316932
 42
-0.205392
  0
VERTEX
  8
0
 10
1201.000000
 20
898.570368
 42
-0.439016
  0
VERTEX
  8
0
 10
1201.132581
 20
898.692263
 42
-0.048507
  0
VERTEX
  8
0
 10
1201.587500
 20
898.609072
 42
-0.035050
  0
VERTEX
  8
0
 10
1202.232522
 20
898.375169
 42
-0.018363
  0
VERTEX
  8
0
 10
1203.000000
 20
898.000000
 42
-0.018122
  0
VERTEX
  8
0
 10
1203.766079
 20
897.553569
 42
-0.025446
  0
VERTEX
  8
0
 10
1204.412500
 20
897.097178
 42
-0.023718
  0
VERTEX
  8
0
 10
1204.891307
 20
896.683068
 42
-0.205392
  0
SEQEND
  0
POLYLINE
  8
0
 66
1
 70
1
  0
VERTEX
  8
0
 10
1220.526461
 20
888.193128
 42
-0.207420
  0
VERTEX
  8
0
 10
1220.220211
 20
888.072099
 42
-0.082976
  0
VERTEX
  8
0
 10
1219.768815
 20
888.162781
 42
-0.063152
  0
VERTEX
  8
0
 10
1219.246577
 20
888.441312
 42
-0.043285
  0
VERTEX
  8
0
 10
1218.733333
 20
888.875912
 42
-0.011214
  0
VERTEX
  8
0
 10
1218.106486
 20
889.536448
 42
-0.400052
  0
VERTEX
  8
0
 10
1218.111181
 20
889.729672
 42
-0.286372
  0
VERTEX
  8
0
 10
1218.336218
 20
889.781790
 42
-0.008399
  0
VERTEX
  8
0
 10
1219.293128
 20
889.435707
 42
-0.036269
  0
VERTEX
  8
0
 10
1219.940734
 20
889.133723
 42
-0.070189
  0
VERTEX
  8
0
 10
1220.395085
 20
888.789051
 42
-0.120343
  0
VERTEX
  8
0
 10
1220.592490
 20
888.461316
 42
-0.278911
  0
SEQEND
  0
ENDSEC
  0
EOF
