G04*
G04 #@! TF.GenerationSoftware,Altium Limited,Altium Designer,24.2.2 (26)*
G04*
G04 Layer_Color=16711935*
%FSLAX25Y25*%
%MOIN*%
G70*
G04*
G04 #@! TF.SameCoordinates,83FD6BF8-7FB9-4712-9294-79CC625926FD*
G04*
G04*
G04 #@! TF.FilePolarity,Positive*
G04*
G01*
G75*
%ADD12C,0.00787*%
D12*
X214583Y-233310D02*
X220536D01*
Y-230161D01*
X214583D02*
X220536D01*
X214583Y-233310D02*
Y-230161D01*
X204055Y-169671D02*
X210009D01*
X204055Y-172821D02*
Y-169671D01*
Y-172821D02*
X210009D01*
Y-169671D01*
X231937Y-88079D02*
X237890D01*
X231937Y-91229D02*
Y-88079D01*
Y-91229D02*
X237890D01*
Y-88079D01*
X260864Y-88040D02*
X266817D01*
X260864Y-91189D02*
Y-88040D01*
Y-91189D02*
X266817D01*
Y-88040D01*
X227847Y-153099D02*
X233800D01*
X227847Y-156248D02*
Y-153099D01*
Y-156248D02*
X233800D01*
Y-153099D01*
X255927Y-152955D02*
X261880D01*
X255927Y-156105D02*
Y-152955D01*
Y-156105D02*
X261880D01*
Y-152955D01*
X221718Y-247415D02*
Y-241461D01*
X218568D02*
X221718D01*
X218568Y-247415D02*
Y-241461D01*
Y-247415D02*
X221718D01*
X230180Y-262582D02*
X234904D01*
Y-272031D02*
Y-262582D01*
X230180Y-272031D02*
X234904D01*
X230180D02*
Y-262582D01*
X219657Y-267687D02*
X222807D01*
Y-273640D02*
Y-267687D01*
X219657Y-273640D02*
X222807D01*
X219657D02*
Y-267687D01*
X212951Y-260157D02*
Y-255432D01*
X222400D01*
Y-260157D02*
Y-255432D01*
X212951Y-260157D02*
X222400D01*
X210166Y-256467D02*
Y-253317D01*
X204212Y-256467D02*
X210166D01*
X204212D02*
Y-253317D01*
X210166D01*
X223481Y-266938D02*
Y-261197D01*
X211834Y-266938D02*
X223481D01*
X211834D02*
Y-261197D01*
X223481D01*
X208799Y-250433D02*
Y-245709D01*
X218248D01*
Y-250433D02*
Y-245709D01*
X208799Y-250433D02*
X218248D01*
X212826Y-241230D02*
X215976D01*
X212826D02*
Y-235276D01*
X215976D01*
Y-241230D02*
Y-235276D01*
X221355Y-233878D02*
X226080D01*
X221355D02*
Y-224429D01*
X226080D01*
Y-233878D02*
Y-224429D01*
X228294Y-241038D02*
Y-237888D01*
X234247D01*
Y-241038D02*
Y-237888D01*
X228294Y-241038D02*
X234247D01*
X216047Y-241748D02*
Y-236007D01*
X227694D01*
Y-241748D02*
Y-236007D01*
X216047Y-241748D02*
X227694D01*
X115378Y-102071D02*
X120103D01*
X115378D02*
Y-92622D01*
X120103D01*
Y-102071D02*
Y-92622D01*
X127414Y-99477D02*
X130564D01*
X127414D02*
Y-93524D01*
X130564D01*
Y-99477D02*
Y-93524D01*
X127458Y-105494D02*
Y-99753D01*
X139105D01*
Y-105494D02*
Y-99753D01*
X127458Y-105494D02*
X139105D01*
X139049Y-106993D02*
X143774D01*
X139049D02*
Y-97544D01*
X143774D01*
Y-106993D02*
Y-97544D01*
X149848Y-107411D02*
X152998D01*
X149848D02*
Y-101457D01*
X152998D01*
Y-107411D02*
Y-101457D01*
X116354Y-110338D02*
X121078D01*
Y-119787D02*
Y-110338D01*
X116354Y-119787D02*
X121078D01*
X116354D02*
Y-110338D01*
X127587Y-114519D02*
X130736D01*
Y-120472D02*
Y-114519D01*
X127587Y-120472D02*
X130736D01*
X127587D02*
Y-114519D01*
X127742Y-114157D02*
Y-108416D01*
X139388D01*
Y-114157D02*
Y-108416D01*
X127742Y-114157D02*
X139388D01*
X139850Y-110121D02*
X144574D01*
Y-119570D02*
Y-110121D01*
X139850Y-119570D02*
X144574D01*
X139850D02*
Y-110121D01*
X150203Y-109730D02*
X153353D01*
Y-115683D02*
Y-109730D01*
X150203Y-115683D02*
X153353D01*
X150203D02*
Y-109730D01*
X338919Y-117243D02*
X342068D01*
X338919D02*
Y-111290D01*
X342068D01*
Y-117243D02*
Y-111290D01*
X288414Y-112709D02*
X291563D01*
X288414D02*
Y-106756D01*
X291563D01*
Y-112709D02*
Y-106756D01*
X303681Y-186656D02*
X306830D01*
X303681D02*
Y-180702D01*
X306830D01*
Y-186656D02*
Y-180702D01*
X313501Y-304321D02*
Y-301171D01*
X319454D01*
Y-304321D02*
Y-301171D01*
X313501Y-304321D02*
X319454D01*
X357440Y-236835D02*
Y-230882D01*
X354290D02*
X357440D01*
X354290Y-236835D02*
Y-230882D01*
Y-236835D02*
X357440D01*
X361364Y-240521D02*
X365586D01*
X361364D02*
Y-232361D01*
X365586D01*
Y-240521D02*
Y-232361D01*
X120815Y-324178D02*
Y-320743D01*
X127793D01*
Y-324178D02*
Y-320743D01*
X120815Y-324178D02*
X127793D01*
X40395Y-354467D02*
Y-349743D01*
X49844D01*
Y-354467D02*
Y-349743D01*
X40395Y-354467D02*
X49844D01*
X169897Y-309272D02*
X173332D01*
Y-316250D02*
Y-309272D01*
X169897Y-316250D02*
X173332D01*
X169897D02*
Y-309272D01*
X163340Y-340169D02*
X166775D01*
X163340D02*
Y-333191D01*
X166775D01*
Y-340169D02*
Y-333191D01*
X158091Y-315516D02*
Y-310005D01*
X155139D02*
X158091D01*
X155139Y-315516D02*
Y-310005D01*
Y-315516D02*
X158091D01*
X159897Y-309272D02*
X163332D01*
Y-316250D02*
Y-309272D01*
X159897Y-316250D02*
X163332D01*
X159897D02*
Y-309272D01*
X164897Y-316250D02*
X168332D01*
X164897D02*
Y-309272D01*
X168332D01*
Y-316250D02*
Y-309272D01*
X91777Y-345665D02*
Y-342230D01*
X84799Y-345665D02*
X91777D01*
X84799D02*
Y-342230D01*
X91777D01*
X119035Y-345907D02*
X126013D01*
X119035Y-349342D02*
Y-345907D01*
Y-349342D02*
X126013D01*
Y-345907D01*
X107706Y-355704D02*
Y-348726D01*
X104271D02*
X107706D01*
X104271Y-355704D02*
Y-348726D01*
Y-355704D02*
X107706D01*
X126928Y-331918D02*
X132440D01*
X126928Y-334870D02*
Y-331918D01*
Y-334870D02*
X132440D01*
Y-331918D01*
X126929Y-337831D02*
X132440D01*
X126929Y-340783D02*
Y-337831D01*
Y-340783D02*
X132440D01*
Y-337831D01*
X116878Y-331161D02*
Y-325649D01*
Y-331161D02*
X119831D01*
Y-325649D01*
X116878D02*
X119831D01*
X110579Y-331161D02*
Y-325649D01*
Y-331161D02*
X113532D01*
Y-325649D01*
X110579D02*
X113532D01*
X103886Y-331161D02*
Y-325649D01*
Y-331161D02*
X106839D01*
Y-325649D01*
X103886D02*
X106839D01*
X99122Y-355704D02*
Y-348726D01*
Y-355704D02*
X102557D01*
Y-348726D01*
X99122D02*
X102557D01*
X93704Y-355042D02*
Y-348064D01*
Y-355042D02*
X97139D01*
Y-348064D01*
X93704D02*
X97139D01*
X88707Y-354012D02*
Y-347034D01*
Y-354012D02*
X92142D01*
Y-347034D01*
X88707D02*
X92142D01*
X99555Y-331161D02*
Y-325649D01*
Y-331161D02*
X102508D01*
Y-325649D01*
X99555D02*
X102508D01*
X91878Y-323681D02*
X97390D01*
X91878Y-326633D02*
Y-323681D01*
Y-326633D02*
X97390D01*
Y-323681D01*
X91878Y-318956D02*
X97390D01*
X91878Y-321909D02*
Y-318956D01*
Y-321909D02*
X97390D01*
Y-318956D01*
X85306Y-336654D02*
X90818D01*
Y-333701D01*
X85306D02*
X90818D01*
X85306Y-336654D02*
Y-333701D01*
X118704Y-318759D02*
Y-315807D01*
X124501D01*
Y-318759D02*
Y-315807D01*
X118704Y-318759D02*
X124501D01*
X118846Y-314035D02*
X124358D01*
Y-311082D01*
X118846D02*
X124358D01*
X118846Y-314035D02*
Y-311082D01*
Y-309311D02*
X124358D01*
Y-306358D01*
X118846D02*
X124358D01*
X118846Y-309311D02*
Y-306358D01*
X113532Y-304192D02*
Y-298681D01*
X110579D02*
X113532D01*
X110579Y-304192D02*
Y-298681D01*
Y-304192D02*
X113532D01*
X105658Y-304192D02*
Y-298681D01*
X102705D02*
X105658D01*
X102705Y-304192D02*
Y-298681D01*
Y-304192D02*
X105658D01*
X102508D02*
Y-298681D01*
X99555D02*
X102508D01*
X99555Y-304192D02*
Y-298681D01*
Y-304192D02*
X102508D01*
X118015Y-287702D02*
X121450D01*
Y-294680D02*
Y-287702D01*
X118015Y-294680D02*
X121450D01*
X118015D02*
Y-287702D01*
X92173Y-309588D02*
X97685D01*
X92173Y-312541D02*
Y-309588D01*
Y-312541D02*
X97685D01*
Y-309588D01*
X91878Y-314232D02*
X97390D01*
X91878Y-317184D02*
Y-314232D01*
Y-317184D02*
X97390D01*
Y-314232D01*
X91878Y-304783D02*
X97390D01*
X91878Y-307736D02*
Y-304783D01*
Y-307736D02*
X97390D01*
Y-304783D01*
X89846Y-301240D02*
X95358D01*
X89846Y-304192D02*
Y-301240D01*
Y-304192D02*
X95358D01*
Y-301240D01*
X124893Y-184305D02*
X136539D01*
Y-178564D01*
X124893D02*
X136539D01*
X124893Y-184305D02*
Y-178564D01*
X125748Y-190398D02*
Y-184444D01*
Y-190398D02*
X128897D01*
Y-184444D01*
X125748D02*
X128897D01*
X125284Y-169744D02*
X136931D01*
Y-164003D01*
X125284D02*
X136931D01*
X125284Y-169744D02*
Y-164003D01*
X128364Y-163659D02*
Y-157706D01*
X125214D02*
X128364D01*
X125214Y-163659D02*
Y-157706D01*
Y-163659D02*
X128364D01*
X118629Y-167687D02*
Y-158238D01*
X113905D02*
X118629D01*
X113905Y-167687D02*
Y-158238D01*
Y-167687D02*
X118629D01*
X139055Y-251875D02*
Y-242426D01*
Y-251875D02*
X143779D01*
Y-242426D01*
X139055D02*
X143779D01*
X150910Y-247338D02*
Y-241385D01*
Y-247338D02*
X154059D01*
Y-241385D01*
X150910D02*
X154059D01*
X150915Y-240580D02*
X154065D01*
X150915D02*
Y-234627D01*
X154065D01*
Y-240580D02*
Y-234627D01*
X139055Y-241043D02*
X143779D01*
X139055D02*
Y-231594D01*
X143779D01*
Y-241043D02*
Y-231594D01*
X149848Y-182197D02*
Y-176244D01*
Y-182197D02*
X152998D01*
Y-176244D01*
X149848D02*
X152998D01*
X152912Y-173664D02*
Y-167711D01*
X149762D02*
X152912D01*
X149762Y-173664D02*
Y-167711D01*
Y-173664D02*
X152912D01*
X144719Y-173608D02*
X149443D01*
X144719D02*
Y-164159D01*
X149443D01*
Y-173608D02*
Y-164159D01*
X126969Y-250056D02*
X138616D01*
Y-244315D01*
X126969D02*
X138616D01*
X126969Y-250056D02*
Y-244315D01*
X126414Y-238768D02*
Y-233027D01*
X138060D01*
Y-238768D02*
Y-233027D01*
X126414Y-238768D02*
X138060D01*
X143511Y-186110D02*
Y-176661D01*
Y-186110D02*
X148235D01*
Y-176661D01*
X143511D02*
X148235D01*
X116243Y-255602D02*
Y-246154D01*
Y-255602D02*
X120968D01*
Y-246154D01*
X116243D02*
X120968D01*
X128897Y-233363D02*
Y-227409D01*
X125748D02*
X128897D01*
X125748Y-233363D02*
Y-227409D01*
Y-233363D02*
X128897D01*
X120307Y-182464D02*
X125032D01*
Y-191913D02*
Y-182464D01*
X120307Y-191913D02*
X125032D01*
X120307D02*
Y-182464D01*
X119102Y-237473D02*
X123826D01*
X119102D02*
Y-228024D01*
X123826D01*
Y-237473D02*
Y-228024D01*
X298955Y-340639D02*
Y-334685D01*
Y-340639D02*
X302105D01*
Y-334685D01*
X298955D02*
X302105D01*
X217695Y-383577D02*
Y-377623D01*
X214545D02*
X217695D01*
X214545Y-383577D02*
Y-377623D01*
Y-383577D02*
X217695D01*
X289079Y-358443D02*
X292229D01*
X289079D02*
Y-352490D01*
X292229D01*
Y-358443D02*
Y-352490D01*
X308473Y-342671D02*
Y-339522D01*
X302520Y-342671D02*
X308473D01*
X302520D02*
Y-339522D01*
X308473D01*
X309456Y-350073D02*
Y-346923D01*
X303502Y-350073D02*
X309456D01*
X303502D02*
Y-346923D01*
X309456D01*
X282441Y-348851D02*
Y-345701D01*
X288394D01*
Y-348851D02*
Y-345701D01*
X282441Y-348851D02*
X288394D01*
X282441Y-342945D02*
Y-339795D01*
X288394D01*
Y-342945D02*
Y-339795D01*
X282441Y-342945D02*
X288394D01*
X285474Y-332505D02*
X288624D01*
Y-338459D02*
Y-332505D01*
X285474Y-338459D02*
X288624D01*
X285474D02*
Y-332505D01*
X291047Y-332609D02*
X294197D01*
Y-338563D02*
Y-332609D01*
X291047Y-338563D02*
X294197D01*
X291047D02*
Y-332609D01*
X379528Y-342850D02*
X382677D01*
Y-348803D02*
Y-342850D01*
X379528Y-348803D02*
X382677D01*
X379528D02*
Y-342850D01*
X218845Y-383577D02*
X221995D01*
X218845D02*
Y-377623D01*
X221995D01*
Y-383577D02*
Y-377623D01*
X230726Y-300527D02*
Y-297377D01*
X224773Y-300527D02*
X230726D01*
X224773D02*
Y-297377D01*
X230726D01*
X121331Y-246013D02*
Y-242863D01*
X115378Y-246013D02*
X121331D01*
X115378D02*
Y-242863D01*
X121331D01*
M02*
