G04*
G04 #@! TF.GenerationSoftware,Altium Limited,Altium Designer,25.1.2 (22)*
G04*
G04 Layer_Color=16711935*
%FSLAX44Y44*%
%MOMM*%
G71*
G04*
G04 #@! TF.SameCoordinates,95D3A89C-EAAA-4EA1-B578-E8640D1D2C9C*
G04*
G04*
G04 #@! TF.FilePolarity,Negative*
G04*
G01*
G75*
%ADD20R,0.5121X0.5811*%
%ADD21R,0.4000X0.5000*%
%ADD25R,0.7154X0.6725*%
%ADD33R,0.5200X0.5200*%
%ADD35R,0.5200X0.5200*%
%ADD37R,0.6000X0.5500*%
%ADD40R,1.2084X1.0121*%
%ADD44R,0.5811X0.5121*%
%ADD45R,0.5000X0.5000*%
%ADD48R,1.0121X1.2084*%
%ADD53R,0.5000X0.4000*%
%ADD54R,0.6725X0.7154*%
%ADD65R,0.4725X0.5153*%
%ADD69R,0.3541X0.2627*%
%ADD87R,0.4725X0.6725*%
%ADD93R,0.4500X0.6750*%
%ADD94R,0.6750X0.4500*%
%ADD101R,0.5000X0.5000*%
%ADD143R,0.4627X0.5541*%
%ADD144R,0.6000X0.6500*%
%ADD149R,2.3000X1.1500*%
%ADD150R,1.1500X1.1000*%
%ADD152R,0.5500X0.5500*%
%ADD153R,0.9000X1.0000*%
%ADD154R,0.7500X0.7000*%
%ADD158R,0.6500X0.7000*%
%ADD160R,0.7000X0.6500*%
%ADD161R,0.7000X0.7500*%
%ADD162R,0.8200X0.8200*%
%ADD180R,0.7500X0.7500*%
%ADD184R,0.8000X0.7500*%
%ADD195R,0.6500X0.6000*%
%ADD207O,1.3000X2.0000*%
%ADD208O,1.1500X1.3500*%
%ADD209C,2.3000*%
%ADD210C,1.6500*%
%ADD211R,1.6500X1.6500*%
%ADD212C,0.6500*%
G04:AMPARAMS|DCode=213|XSize=0.95mm|YSize=0.65mm|CornerRadius=0.325mm|HoleSize=0mm|Usage=FLASHONLY|Rotation=90.000|XOffset=0mm|YOffset=0mm|HoleType=Round|Shape=RoundedRectangle|*
%AMROUNDEDRECTD213*
21,1,0.9500,0.0000,0,0,90.0*
21,1,0.3000,0.6500,0,0,90.0*
1,1,0.6500,0.0000,0.1500*
1,1,0.6500,0.0000,-0.1500*
1,1,0.6500,0.0000,-0.1500*
1,1,0.6500,0.0000,0.1500*
%
%ADD213ROUNDEDRECTD213*%
G04:AMPARAMS|DCode=214|XSize=0.8mm|YSize=1.4mm|CornerRadius=0.4mm|HoleSize=0mm|Usage=FLASHONLY|Rotation=90.000|XOffset=0mm|YOffset=0mm|HoleType=Round|Shape=RoundedRectangle|*
%AMROUNDEDRECTD214*
21,1,0.8000,0.6000,0,0,90.0*
21,1,0.0000,1.4000,0,0,90.0*
1,1,0.8000,0.3000,0.0000*
1,1,0.8000,0.3000,0.0000*
1,1,0.8000,-0.3000,0.0000*
1,1,0.8000,-0.3000,0.0000*
%
%ADD214ROUNDEDRECTD214*%
%ADD215C,0.4064*%
%ADD233R,0.4000X0.3500*%
%ADD234R,0.5000X1.0000*%
%ADD239R,0.5725X0.6393*%
%ADD241R,0.5725X0.3725*%
%ADD242R,0.9062X0.9051*%
G04:AMPARAMS|DCode=246|XSize=0.4mm|YSize=0.62mm|CornerRadius=0.0995mm|HoleSize=0mm|Usage=FLASHONLY|Rotation=180.000|XOffset=0mm|YOffset=0mm|HoleType=Round|Shape=RoundedRectangle|*
%AMROUNDEDRECTD246*
21,1,0.4000,0.4210,0,0,180.0*
21,1,0.2010,0.6200,0,0,180.0*
1,1,0.1990,-0.1005,0.2105*
1,1,0.1990,0.1005,0.2105*
1,1,0.1990,0.1005,-0.2105*
1,1,0.1990,-0.1005,-0.2105*
%
%ADD246ROUNDEDRECTD246*%
G04:AMPARAMS|DCode=247|XSize=0.4mm|YSize=0.59mm|CornerRadius=0.0995mm|HoleSize=0mm|Usage=FLASHONLY|Rotation=180.000|XOffset=0mm|YOffset=0mm|HoleType=Round|Shape=RoundedRectangle|*
%AMROUNDEDRECTD247*
21,1,0.4000,0.3910,0,0,180.0*
21,1,0.2010,0.5900,0,0,180.0*
1,1,0.1990,-0.1005,0.1955*
1,1,0.1990,0.1005,0.1955*
1,1,0.1990,0.1005,-0.1955*
1,1,0.1990,-0.1005,-0.1955*
%
%ADD247ROUNDEDRECTD247*%
%ADD248R,0.7500X0.8000*%
%ADD249R,0.6600X0.6200*%
%ADD250R,1.1500X2.3000*%
%ADD251R,1.1000X1.1500*%
%ADD252R,0.7500X0.7500*%
%ADD253R,0.8500X0.8000*%
D20*
X213574Y404507D02*
D03*
Y397197D02*
D03*
X249000Y407345D02*
D03*
Y414655D02*
D03*
X318589Y798287D02*
D03*
X318815Y772154D02*
D03*
X301589Y797993D02*
D03*
X283589Y796905D02*
D03*
X339213Y642992D02*
D03*
X321589Y643215D02*
D03*
X370590Y618965D02*
D03*
X354589D02*
D03*
X337589Y617283D02*
D03*
X321714Y617013D02*
D03*
X307589Y618465D02*
D03*
X275821Y599715D02*
D03*
X240589Y608215D02*
D03*
X230966Y666904D02*
D03*
X213827Y769715D02*
D03*
X203097Y655905D02*
D03*
X192652Y638389D02*
D03*
X192589Y628215D02*
D03*
X248764Y398210D02*
D03*
X204433Y405040D02*
D03*
X240000Y422655D02*
D03*
X223071Y403582D02*
D03*
X204433Y397730D02*
D03*
X192589Y620904D02*
D03*
X203097Y663215D02*
D03*
X248764Y390900D02*
D03*
X223071Y396272D02*
D03*
X354589Y611654D02*
D03*
X240589Y600904D02*
D03*
X301589Y805304D02*
D03*
X307589Y611154D02*
D03*
X321714Y609702D02*
D03*
X337589Y609972D02*
D03*
X370590Y611654D02*
D03*
X339213Y635681D02*
D03*
X321589Y635905D02*
D03*
X275821Y592405D02*
D03*
X318589Y805598D02*
D03*
X230966Y674215D02*
D03*
X213827Y762404D02*
D03*
X283589Y804215D02*
D03*
X318815Y779465D02*
D03*
X192652Y645700D02*
D03*
X240000Y415345D02*
D03*
D21*
X190429Y861210D02*
D03*
X182429D02*
D03*
D25*
X69214Y1037000D02*
D03*
X78786D02*
D03*
X93214Y1137000D02*
D03*
X102786D02*
D03*
X223965Y986096D02*
D03*
X217214Y916693D02*
D03*
X153902Y977298D02*
D03*
X233536Y986096D02*
D03*
X144330Y977298D02*
D03*
X226785Y916693D02*
D03*
D33*
X261000Y235000D02*
D03*
X269000D02*
D03*
X34000Y523000D02*
D03*
X42000D02*
D03*
X88000Y564342D02*
D03*
X96000D02*
D03*
X49000Y540100D02*
D03*
X41000D02*
D03*
X78088Y933100D02*
D03*
X86088D02*
D03*
X88011Y945100D02*
D03*
X80011D02*
D03*
X320050Y892495D02*
D03*
X328050D02*
D03*
X328788Y1050250D02*
D03*
X336788D02*
D03*
X318256Y876770D02*
D03*
X326256D02*
D03*
X272787Y1108000D02*
D03*
X280788D02*
D03*
X368752Y928589D02*
D03*
X360752D02*
D03*
X343751Y928589D02*
D03*
X351751D02*
D03*
X399000Y1140000D02*
D03*
X407000D02*
D03*
X10000Y264000D02*
D03*
X18000D02*
D03*
X49000Y1161000D02*
D03*
X401000Y1126500D02*
D03*
X47843Y418000D02*
D03*
Y429061D02*
D03*
X222250Y859097D02*
D03*
X214000Y931693D02*
D03*
X213000Y967193D02*
D03*
X47000Y549500D02*
D03*
X157750Y967193D02*
D03*
X156250Y938096D02*
D03*
X126855Y220519D02*
D03*
X151327Y299000D02*
D03*
X402000Y315000D02*
D03*
X123314Y255000D02*
D03*
X197860Y243000D02*
D03*
X115314Y255000D02*
D03*
X118855Y220519D02*
D03*
X39843Y418000D02*
D03*
X214250Y859097D02*
D03*
X408999Y1126500D02*
D03*
X394000Y315000D02*
D03*
X39843Y429061D02*
D03*
X41000Y1161000D02*
D03*
X159327Y299000D02*
D03*
X205860Y243000D02*
D03*
X39000Y549500D02*
D03*
X148250Y938096D02*
D03*
X222000Y931693D02*
D03*
X221000Y967193D02*
D03*
X149750D02*
D03*
D35*
X246806Y244067D02*
D03*
Y236067D02*
D03*
X94000Y545000D02*
D03*
Y537000D02*
D03*
X58990Y586000D02*
D03*
Y594000D02*
D03*
X68990Y586762D02*
D03*
Y594762D02*
D03*
X40294Y906868D02*
D03*
Y914868D02*
D03*
X68042Y954000D02*
D03*
Y962000D02*
D03*
X56000D02*
D03*
Y954000D02*
D03*
X283788Y1053000D02*
D03*
Y1061000D02*
D03*
X374752Y857770D02*
D03*
Y849770D02*
D03*
X165965Y272764D02*
D03*
Y280763D02*
D03*
X81000Y1129638D02*
D03*
X72010Y544000D02*
D03*
X29000Y1161000D02*
D03*
X177442Y921693D02*
D03*
X177650Y836096D02*
D03*
X194000Y189821D02*
D03*
X156342Y264398D02*
D03*
X182000Y190270D02*
D03*
X229093Y226599D02*
D03*
X130000Y191488D02*
D03*
X139000Y192000D02*
D03*
X91410Y585900D02*
D03*
X351286Y389000D02*
D03*
X297000Y430000D02*
D03*
X194000Y181821D02*
D03*
X156342Y272398D02*
D03*
X351286Y397000D02*
D03*
X182000Y182270D02*
D03*
X81000Y1137638D02*
D03*
X29000Y1169000D02*
D03*
X139000Y184000D02*
D03*
X130000Y183488D02*
D03*
X229093Y234599D02*
D03*
X91410Y593900D02*
D03*
X72010Y536000D02*
D03*
X297000Y422000D02*
D03*
X177650Y844096D02*
D03*
X177442Y913693D02*
D03*
D37*
X58250Y470000D02*
D03*
X65750D02*
D03*
D40*
X374042Y1169500D02*
D03*
X358005D02*
D03*
X196019Y268160D02*
D03*
X179981D02*
D03*
X52019Y1188000D02*
D03*
X35981D02*
D03*
D44*
X380467Y815611D02*
D03*
X371245Y808560D02*
D03*
X388245Y737942D02*
D03*
X346934Y808560D02*
D03*
X335244Y811560D02*
D03*
X263934Y807560D02*
D03*
X254245D02*
D03*
X388245Y689833D02*
D03*
X381934Y675600D02*
D03*
X318245Y587560D02*
D03*
X239245Y725559D02*
D03*
X238747Y691553D02*
D03*
X229934Y807560D02*
D03*
X215245Y743560D02*
D03*
X214751Y725559D02*
D03*
X215245Y707560D02*
D03*
X214263Y691560D02*
D03*
X214245Y674560D02*
D03*
X261655Y381000D02*
D03*
X202102Y447467D02*
D03*
X194866Y446941D02*
D03*
X247311Y438000D02*
D03*
X240000Y403000D02*
D03*
X217716Y447291D02*
D03*
X216989Y436944D02*
D03*
X197172Y425006D02*
D03*
X247335Y361000D02*
D03*
X197368Y415774D02*
D03*
X197185Y435188D02*
D03*
X246655Y447000D02*
D03*
X199390Y466000D02*
D03*
X200140Y456907D02*
D03*
X240775Y371265D02*
D03*
X187555Y446941D02*
D03*
X232689Y403000D02*
D03*
X254345Y381000D02*
D03*
X206934Y674560D02*
D03*
X207441Y725559D02*
D03*
X206952Y691560D02*
D03*
X207934Y707560D02*
D03*
X237245Y807560D02*
D03*
X271245D02*
D03*
X363934Y808560D02*
D03*
X354245D02*
D03*
X389245Y675600D02*
D03*
X380934Y689833D02*
D03*
Y737942D02*
D03*
X240000Y438000D02*
D03*
X239345Y447000D02*
D03*
X310934Y587560D02*
D03*
X231437Y691553D02*
D03*
X387778Y815611D02*
D03*
X327934Y811560D02*
D03*
X207934Y743560D02*
D03*
X246934Y807560D02*
D03*
X231934Y725559D02*
D03*
X225026Y447291D02*
D03*
X189874Y435188D02*
D03*
X240025Y361000D02*
D03*
X233464Y371265D02*
D03*
X207451Y456907D02*
D03*
X206701Y466000D02*
D03*
X224300Y436944D02*
D03*
X209412Y447467D02*
D03*
X189861Y425006D02*
D03*
X190058Y415774D02*
D03*
D45*
X200000Y292000D02*
D03*
X210000D02*
D03*
X130000Y160000D02*
D03*
X57000Y405000D02*
D03*
X50000Y1171000D02*
D03*
X128000Y231000D02*
D03*
X140000Y160000D02*
D03*
X124178Y265000D02*
D03*
X65000Y166000D02*
D03*
X40000Y1171000D02*
D03*
X67000Y405000D02*
D03*
X114178Y265000D02*
D03*
X118000Y231000D02*
D03*
X75000Y166000D02*
D03*
D48*
X109061Y165481D02*
D03*
Y181519D02*
D03*
D53*
X348752Y912770D02*
D03*
Y904770D02*
D03*
D54*
X62000Y1010792D02*
D03*
Y1020363D02*
D03*
X51847Y917881D02*
D03*
Y908310D02*
D03*
X79000Y962786D02*
D03*
Y953214D02*
D03*
X188250Y835311D02*
D03*
X308000Y399215D02*
D03*
Y408786D02*
D03*
X188250Y844882D02*
D03*
D65*
X73000Y907425D02*
D03*
Y914996D02*
D03*
X358506Y912556D02*
D03*
Y904985D02*
D03*
X339007D02*
D03*
Y912556D02*
D03*
D69*
X45543Y816000D02*
D03*
X40457D02*
D03*
X45826Y840021D02*
D03*
X45606Y788750D02*
D03*
X45543Y809000D02*
D03*
X40519Y788750D02*
D03*
X40457Y809000D02*
D03*
X40739Y840021D02*
D03*
D87*
X325000Y192000D02*
D03*
X337000D02*
D03*
D93*
X259375Y224653D02*
D03*
X268625D02*
D03*
X78453Y180875D02*
D03*
X69204D02*
D03*
X19625Y282000D02*
D03*
X10375D02*
D03*
X57375Y332000D02*
D03*
X48125D02*
D03*
X77500Y192375D02*
D03*
X68250D02*
D03*
X379579Y805611D02*
D03*
X372214Y798985D02*
D03*
X389964Y748560D02*
D03*
X345964Y798985D02*
D03*
X263429Y797935D02*
D03*
X293979Y758867D02*
D03*
X255214Y797935D02*
D03*
X240964Y743560D02*
D03*
X390214Y699983D02*
D03*
X380964Y663560D02*
D03*
X345214Y595196D02*
D03*
X239464Y707426D02*
D03*
X239811Y655215D02*
D03*
X325400Y308625D02*
D03*
X362088Y302000D02*
D03*
X361625Y314000D02*
D03*
X229162Y797810D02*
D03*
X229965Y641560D02*
D03*
X228214Y626560D02*
D03*
X48125Y345000D02*
D03*
X169375Y425000D02*
D03*
X166791Y435518D02*
D03*
X199375Y476000D02*
D03*
X215622Y459612D02*
D03*
X241955Y381717D02*
D03*
X352375Y314000D02*
D03*
X238412Y797810D02*
D03*
X272679Y797935D02*
D03*
X362965Y798985D02*
D03*
X355214D02*
D03*
X390214Y663560D02*
D03*
X380964Y699983D02*
D03*
X380714Y748560D02*
D03*
X352838Y302000D02*
D03*
X334650Y308625D02*
D03*
X230561Y655215D02*
D03*
X388829Y805611D02*
D03*
X284729Y758867D02*
D03*
X245965Y797935D02*
D03*
X230214Y707426D02*
D03*
X231714Y743560D02*
D03*
X354464Y595196D02*
D03*
X220714Y641560D02*
D03*
X218964Y626560D02*
D03*
X176041Y435518D02*
D03*
X208625Y476000D02*
D03*
X224872Y459612D02*
D03*
X178625Y425000D02*
D03*
X232705Y381717D02*
D03*
X57375Y345000D02*
D03*
D94*
X385000Y365271D02*
D03*
Y374521D02*
D03*
X397333Y624375D02*
D03*
Y633625D02*
D03*
X383420Y782185D02*
D03*
X382043Y772469D02*
D03*
X367589Y770935D02*
D03*
X351589Y770435D02*
D03*
X334344Y770753D02*
D03*
X300589Y770935D02*
D03*
X282531Y770435D02*
D03*
X267589Y771184D02*
D03*
X250589Y771935D02*
D03*
X237590D02*
D03*
X381589Y725810D02*
D03*
X370943Y644192D02*
D03*
X383589Y638816D02*
D03*
X354720Y644847D02*
D03*
X306243Y642188D02*
D03*
X287319Y600752D02*
D03*
X298589Y579185D02*
D03*
X241590Y665935D02*
D03*
X256419Y579560D02*
D03*
X242690Y633185D02*
D03*
X224827Y769935D02*
D03*
X212589Y655462D02*
D03*
X203214Y637420D02*
D03*
Y629235D02*
D03*
X338000Y388411D02*
D03*
X308807Y431000D02*
D03*
X240000Y464625D02*
D03*
X256419Y570310D02*
D03*
X203214Y619985D02*
D03*
X212589Y664712D02*
D03*
X338000Y397660D02*
D03*
X240000Y455375D02*
D03*
X298589Y569935D02*
D03*
X351589Y779685D02*
D03*
X354720Y635597D02*
D03*
X242690Y623935D02*
D03*
X367589Y780185D02*
D03*
X267589Y780435D02*
D03*
X250589Y781184D02*
D03*
X382043Y763219D02*
D03*
X381589Y716560D02*
D03*
X383420Y791435D02*
D03*
X203214Y646670D02*
D03*
X370943Y634941D02*
D03*
X383589Y648067D02*
D03*
X306243Y632937D02*
D03*
X287319Y591502D02*
D03*
X241590Y675185D02*
D03*
X224827Y760685D02*
D03*
X300589Y780185D02*
D03*
X282531Y779685D02*
D03*
X237590Y781185D02*
D03*
X334344Y780003D02*
D03*
X308807Y421750D02*
D03*
D101*
X376000Y1155000D02*
D03*
Y1145000D02*
D03*
X171000Y191000D02*
D03*
X146017Y263532D02*
D03*
X171000Y181000D02*
D03*
X146017Y273532D02*
D03*
D143*
X40578Y830609D02*
D03*
Y823523D02*
D03*
D144*
X83000Y543850D02*
D03*
X183589Y717560D02*
D03*
Y710060D02*
D03*
X402000Y786250D02*
D03*
Y793750D02*
D03*
X83000Y536350D02*
D03*
D149*
X35000Y667750D02*
D03*
Y638250D02*
D03*
X34400Y717750D02*
D03*
Y688250D02*
D03*
D150*
X19750Y653000D02*
D03*
X19150Y703000D02*
D03*
D152*
X206000Y220000D02*
D03*
X198000D02*
D03*
D153*
X24000Y342123D02*
D03*
X33500Y362123D02*
D03*
X14500D02*
D03*
D154*
X39350Y559737D02*
D03*
X47850D02*
D03*
X315750Y175250D02*
D03*
X324250D02*
D03*
X59271Y1046500D02*
D03*
X50771D02*
D03*
X33750Y928000D02*
D03*
X42250D02*
D03*
X385750Y581000D02*
D03*
X394250D02*
D03*
X393250Y519625D02*
D03*
X384750D02*
D03*
X34351Y229250D02*
D03*
X25850D02*
D03*
X265250Y257000D02*
D03*
X157250Y927174D02*
D03*
X350664Y419625D02*
D03*
X194750Y172000D02*
D03*
X11750Y529000D02*
D03*
X245000Y914096D02*
D03*
X203250Y172000D02*
D03*
X337839Y587560D02*
D03*
X48840Y594000D02*
D03*
X329339Y587560D02*
D03*
X256750Y257000D02*
D03*
X40340Y594000D02*
D03*
X342164Y419625D02*
D03*
X40250Y988000D02*
D03*
X31750D02*
D03*
X322736Y420000D02*
D03*
X331236D02*
D03*
X148750Y927174D02*
D03*
X253500Y914096D02*
D03*
X20250Y529000D02*
D03*
D158*
X282000Y466087D02*
D03*
Y474586D02*
D03*
X372000Y327735D02*
D03*
Y336235D02*
D03*
X40327Y263000D02*
D03*
Y271500D02*
D03*
X30327Y263000D02*
D03*
Y271500D02*
D03*
X61577Y242500D02*
D03*
Y234000D02*
D03*
X52000Y289750D02*
D03*
Y298250D02*
D03*
X65000Y1145250D02*
D03*
Y1136750D02*
D03*
X117500Y943846D02*
D03*
Y952346D02*
D03*
D160*
X304000Y339000D02*
D03*
X295500D02*
D03*
X269750Y426000D02*
D03*
X278250D02*
D03*
X258750Y199691D02*
D03*
X267250D02*
D03*
X28200Y1073650D02*
D03*
X19699D02*
D03*
X28200Y1086000D02*
D03*
X19700D02*
D03*
X27644Y1099050D02*
D03*
X19144D02*
D03*
X92750Y1073650D02*
D03*
X101250D02*
D03*
X91800Y1087000D02*
D03*
X100300D02*
D03*
X304001Y851770D02*
D03*
X295502D02*
D03*
X71250Y1117000D02*
D03*
X353650Y338500D02*
D03*
X362150D02*
D03*
X258750Y212000D02*
D03*
X267250D02*
D03*
X304250Y350000D02*
D03*
X295750D02*
D03*
X381750Y169500D02*
D03*
X390250D02*
D03*
X381250Y180000D02*
D03*
X372750D02*
D03*
X243135Y954264D02*
D03*
X251635D02*
D03*
X254384Y944307D02*
D03*
X245884D02*
D03*
X244634Y933922D02*
D03*
X253134D02*
D03*
X253500Y924097D02*
D03*
X245000D02*
D03*
X62750Y1117000D02*
D03*
D161*
X80000Y585112D02*
D03*
Y593612D02*
D03*
X19000Y1168250D02*
D03*
Y1159750D02*
D03*
X54000Y988750D02*
D03*
Y997250D02*
D03*
X18000Y541750D02*
D03*
Y550250D02*
D03*
X34991Y948850D02*
D03*
Y957350D02*
D03*
X372500Y529529D02*
D03*
Y538029D02*
D03*
X408500Y563029D02*
D03*
Y554529D02*
D03*
X68345Y280414D02*
D03*
Y288914D02*
D03*
X17000Y584250D02*
D03*
X92000Y666250D02*
D03*
X351589Y673433D02*
D03*
X111000Y709750D02*
D03*
X132400Y665045D02*
D03*
X412000Y315250D02*
D03*
X188589Y681809D02*
D03*
X189081Y654560D02*
D03*
X225589Y595521D02*
D03*
X214589D02*
D03*
X201589Y595310D02*
D03*
X362589Y696310D02*
D03*
X160293Y190250D02*
D03*
X325656Y447750D02*
D03*
X347000Y447169D02*
D03*
X122700Y710750D02*
D03*
X136000D02*
D03*
X104000Y666250D02*
D03*
X122000Y665250D02*
D03*
X361589Y674433D02*
D03*
X317000Y370750D02*
D03*
X306000D02*
D03*
X293000Y370750D02*
D03*
X339000Y1154250D02*
D03*
X160293Y181750D02*
D03*
X362589Y704810D02*
D03*
X351589Y681933D02*
D03*
X92000Y657750D02*
D03*
X361589Y682933D02*
D03*
X188589Y673310D02*
D03*
X189081Y663060D02*
D03*
X225589Y604021D02*
D03*
X201589Y603810D02*
D03*
X214589Y604021D02*
D03*
X412000Y323750D02*
D03*
X104000Y657750D02*
D03*
X122700Y719250D02*
D03*
X111000Y718250D02*
D03*
X132400Y656545D02*
D03*
X136000Y719250D02*
D03*
X122000Y656750D02*
D03*
X317000Y379250D02*
D03*
X306000D02*
D03*
X293000Y379250D02*
D03*
X339000Y1145750D02*
D03*
X347000Y455668D02*
D03*
X325656Y456250D02*
D03*
X17000Y575750D02*
D03*
X12000Y325750D02*
D03*
Y334250D02*
D03*
D162*
X21000Y1019100D02*
D03*
X50884Y1019177D02*
D03*
X21000Y1008900D02*
D03*
X50884Y1008978D02*
D03*
D180*
X81767Y289414D02*
D03*
Y279414D02*
D03*
X49577Y228250D02*
D03*
Y218250D02*
D03*
D184*
X307288Y1106765D02*
D03*
X316788D02*
D03*
X345538Y1064000D02*
D03*
X336038D02*
D03*
X159561Y951132D02*
D03*
X150061D02*
D03*
D195*
X16250Y624000D02*
D03*
X23750D02*
D03*
X17250Y732000D02*
D03*
X24750D02*
D03*
X116750Y487000D02*
D03*
X109250D02*
D03*
X109500Y935096D02*
D03*
X109250Y477000D02*
D03*
Y466000D02*
D03*
X294517Y649487D02*
D03*
X287016D02*
D03*
X116750Y477000D02*
D03*
Y466000D02*
D03*
X117000Y935096D02*
D03*
D207*
X397250Y1251000D02*
D03*
X313750D02*
D03*
D208*
X377750Y1221000D02*
D03*
X333250D02*
D03*
D209*
X214714Y1199251D02*
D03*
Y1252551D02*
D03*
X161414Y1199251D02*
D03*
Y1252551D02*
D03*
D210*
X378000Y504200D02*
D03*
X403400D02*
D03*
X378000Y478800D02*
D03*
Y453400D02*
D03*
Y428000D02*
D03*
Y402600D02*
D03*
X403400Y478800D02*
D03*
Y453400D02*
D03*
Y428000D02*
D03*
D211*
Y402600D02*
D03*
D212*
X338600Y204000D02*
D03*
D213*
Y276000D02*
D03*
D214*
X351100Y198700D02*
D03*
Y281300D02*
D03*
X410600Y195100D02*
D03*
Y284900D02*
D03*
D215*
X349000Y355000D02*
D03*
X344000D02*
D03*
X339000D02*
D03*
X349000Y322000D02*
D03*
X344000D02*
D03*
X339000D02*
D03*
X349000Y345000D02*
D03*
X344000D02*
D03*
X339000D02*
D03*
X349000Y332000D02*
D03*
X344000D02*
D03*
X339000D02*
D03*
D233*
X40249Y802433D02*
D03*
Y795933D02*
D03*
D234*
X41500Y1002000D02*
D03*
X30500D02*
D03*
D239*
X367000Y366625D02*
D03*
Y374957D02*
D03*
D241*
X366000Y201000D02*
D03*
Y190000D02*
D03*
D242*
X407000Y368006D02*
D03*
Y355994D02*
D03*
D246*
X361172Y1213900D02*
D03*
D247*
X351172Y1213750D02*
D03*
X356172D02*
D03*
Y1221450D02*
D03*
X361172D02*
D03*
X351172D02*
D03*
D248*
X298288Y1052250D02*
D03*
Y1061750D02*
D03*
X49577Y253000D02*
D03*
Y243500D02*
D03*
D249*
X368651Y938000D02*
D03*
X360851D02*
D03*
D250*
X55750Y865000D02*
D03*
X26250D02*
D03*
X25511Y759022D02*
D03*
X55011D02*
D03*
D251*
X41000Y849750D02*
D03*
X40261Y774271D02*
D03*
D252*
X74578Y255250D02*
D03*
X64578D02*
D03*
D253*
X108500Y925096D02*
D03*
X118000D02*
D03*
M02*
