G04*
G04 #@! TF.GenerationSoftware,Altium Limited,Altium Designer,25.1.2 (22)*
G04*
G04 Layer_Color=255*
%FSLAX44Y44*%
%MOMM*%
G71*
G04*
G04 #@! TF.SameCoordinates,95D3A89C-EAAA-4EA1-B578-E8640D1D2C9C*
G04*
G04*
G04 #@! TF.FilePolarity,Positive*
G04*
G01*
G75*
%ADD11C,0.2000*%
%ADD15C,0.1000*%
%ADD254C,0.0500*%
D11*
X389500Y362021D02*
Y377771D01*
X380500D02*
X389500D01*
X380500Y362021D02*
Y377771D01*
Y362021D02*
X389500D01*
X242806Y232067D02*
Y248067D01*
Y232067D02*
X250806D01*
Y248067D01*
X242806D02*
X250806D01*
X257000Y231000D02*
X273000D01*
Y239000D01*
X257000D02*
X273000D01*
X257000Y231000D02*
Y239000D01*
X256125Y220154D02*
Y229154D01*
X271875D01*
Y220154D02*
Y229154D01*
X256125Y220154D02*
X271875D01*
X392833Y636875D02*
X401834D01*
Y621125D02*
Y636875D01*
X392833Y621125D02*
X401834D01*
X392833D02*
Y636875D01*
X67362Y1005215D02*
Y1025940D01*
X56638D02*
X67362D01*
X56638Y1005215D02*
Y1025940D01*
Y1005215D02*
X67362D01*
X63638Y1031638D02*
X84362D01*
Y1042362D01*
X63638D02*
X84362D01*
X63638Y1031638D02*
Y1042362D01*
X30000Y519000D02*
X46000D01*
Y527000D01*
X30000D02*
X46000D01*
X30000Y519000D02*
Y527000D01*
X84000Y560342D02*
X100000D01*
Y568342D01*
X84000D02*
X100000D01*
X84000Y560342D02*
Y568342D01*
X37000Y544100D02*
X53000D01*
X37000Y536100D02*
Y544100D01*
Y536100D02*
X53000D01*
Y544100D01*
X90000Y533000D02*
Y549000D01*
Y533000D02*
X98000D01*
Y549000D01*
X90000D02*
X98000D01*
X62990Y582000D02*
Y598000D01*
X54990D02*
X62990D01*
X54990Y582000D02*
Y598000D01*
Y582000D02*
X62990D01*
X72990Y582762D02*
Y598762D01*
X64990D02*
X72990D01*
X64990Y582762D02*
Y598762D01*
Y582762D02*
X72990D01*
X87638Y1131638D02*
X108362D01*
Y1142362D01*
X87638D02*
X108362D01*
X87638Y1131638D02*
Y1142362D01*
X90087Y929100D02*
Y937100D01*
X74088Y929100D02*
X90087D01*
X74088D02*
Y937100D01*
X90087D01*
X76011Y949100D02*
X92011D01*
X76011Y941100D02*
Y949100D01*
Y941100D02*
X92011D01*
Y949100D01*
X46484Y902734D02*
X57209D01*
X46484D02*
Y923458D01*
X57209D01*
Y902734D02*
Y923458D01*
X44294Y902868D02*
Y918868D01*
X36294D02*
X44294D01*
X36294Y902868D02*
Y918868D01*
Y902868D02*
X44294D01*
X76750Y903848D02*
Y918572D01*
X69250D02*
X76750D01*
X69250Y903848D02*
Y918572D01*
Y903848D02*
X76750D01*
X73638Y947638D02*
Y968362D01*
Y947638D02*
X84362D01*
Y968362D01*
X73638D02*
X84362D01*
X64042Y966000D02*
X72042D01*
Y950000D02*
Y966000D01*
X64042Y950000D02*
X72042D01*
X64042D02*
Y966000D01*
X52000Y950000D02*
Y966000D01*
Y950000D02*
X60000D01*
Y966000D01*
X52000D02*
X60000D01*
X37249Y793183D02*
Y805183D01*
Y793183D02*
X43249D01*
Y805183D01*
X37249D02*
X43249D01*
X37686Y818650D02*
X48314D01*
X37686Y813350D02*
Y818650D01*
Y813350D02*
X48314D01*
Y818650D01*
X36264Y818752D02*
Y835380D01*
Y818752D02*
X44891D01*
Y835380D01*
X36264D02*
X44891D01*
X26500Y1008500D02*
X45500D01*
X26500Y995500D02*
Y1008500D01*
Y995500D02*
X45500D01*
Y1008500D01*
X320638Y186638D02*
X341362D01*
Y197362D01*
X320638D02*
X341362D01*
X320638Y186638D02*
Y197362D01*
X209574Y393291D02*
X217574D01*
X209574D02*
Y408412D01*
X217574D01*
Y393291D02*
Y408412D01*
X245000Y418561D02*
X253000D01*
Y403439D02*
Y418561D01*
X245000Y403439D02*
X253000D01*
X245000D02*
Y418561D01*
X316050Y888495D02*
Y896495D01*
X332050D01*
Y888495D02*
Y896495D01*
X316050Y888495D02*
X332050D01*
X279788Y1065000D02*
X287788D01*
Y1049000D02*
Y1065000D01*
X279788Y1049000D02*
X287788D01*
X279788D02*
Y1065000D01*
X324788Y1054250D02*
X340788D01*
X324788Y1046250D02*
Y1054250D01*
Y1046250D02*
X340788D01*
Y1054250D01*
X354757Y901408D02*
Y916133D01*
Y901408D02*
X362256D01*
Y916133D01*
X354757D02*
X362256D01*
X345002Y901771D02*
Y915770D01*
Y901771D02*
X352502D01*
Y915770D01*
X345002D02*
X352502D01*
X314256Y872770D02*
Y880770D01*
X330256D01*
Y872770D02*
Y880770D01*
X314256Y872770D02*
X330256D01*
X268787Y1112000D02*
X284788D01*
X268787Y1104000D02*
Y1112000D01*
Y1104000D02*
X284788D01*
Y1112000D01*
X356752Y924589D02*
X372752D01*
Y932589D01*
X356752D02*
X372752D01*
X356752Y924589D02*
Y932589D01*
X355751Y924589D02*
Y932589D01*
X339751Y924589D02*
X355751D01*
X339751D02*
Y932589D01*
X355751D01*
X335257Y901408D02*
Y916133D01*
Y901408D02*
X342757D01*
Y916133D01*
X335257D02*
X342757D01*
X370752Y845770D02*
X378752D01*
X370752D02*
Y861770D01*
X378752D01*
Y845770D02*
Y861770D01*
X395000Y1136000D02*
X411000D01*
Y1144000D01*
X395000D02*
X411000D01*
X395000Y1136000D02*
Y1144000D01*
X371250Y1141250D02*
Y1158750D01*
Y1141250D02*
X380750D01*
Y1158750D01*
X371250D02*
X380750D01*
X346963Y1179561D02*
X385084D01*
X346963Y1159439D02*
Y1179561D01*
Y1159439D02*
X385084D01*
Y1179561D01*
X169965Y268764D02*
Y284764D01*
X161965D02*
X169965D01*
X161965Y268764D02*
Y284764D01*
Y268764D02*
X169965D01*
X196250Y287250D02*
X213750D01*
Y296750D01*
X196250D02*
X213750D01*
X196250Y287250D02*
Y296750D01*
X168939Y278221D02*
X207061D01*
X168939Y258100D02*
Y278221D01*
Y258100D02*
X207061D01*
Y278221D01*
X371362Y361929D02*
Y379654D01*
X362638D02*
X371362D01*
X362638Y361929D02*
Y379654D01*
Y361929D02*
X371362D01*
X65953Y176375D02*
Y185375D01*
X81703D01*
Y176375D02*
Y185375D01*
X65953Y176375D02*
X81703D01*
X22000Y260000D02*
Y268000D01*
X6000Y260000D02*
X22000D01*
X6000D02*
Y268000D01*
X22000D01*
X7125Y286500D02*
X22875D01*
X7125Y277500D02*
Y286500D01*
Y277500D02*
X22875D01*
Y286500D01*
X44875Y336500D02*
X60625D01*
X44875Y327500D02*
Y336500D01*
Y327500D02*
X60625D01*
Y336500D01*
X65000Y187875D02*
Y196875D01*
X80750D01*
Y187875D02*
Y196875D01*
X65000Y187875D02*
X80750D01*
X95410Y581900D02*
Y597900D01*
X87410D02*
X95410D01*
X87410Y581900D02*
Y597900D01*
Y581900D02*
X95410D01*
X307029Y583560D02*
Y591560D01*
X322150D01*
Y583560D02*
Y591560D01*
X307029Y583560D02*
X322150D01*
X294089Y566684D02*
X303089D01*
X294089D02*
Y582435D01*
X303089D01*
Y566684D02*
Y582435D01*
X251919Y567060D02*
X260919D01*
X251919D02*
Y582809D01*
X260919D01*
Y567060D02*
Y582809D01*
X347090Y782934D02*
X356089D01*
Y767185D02*
Y782934D01*
X347090Y767185D02*
X356089D01*
X347090D02*
Y782934D01*
X350589Y607749D02*
X358589D01*
X350589D02*
Y622870D01*
X358589D01*
Y607749D02*
Y622870D01*
X350220Y632346D02*
X359220D01*
X350220D02*
Y648096D01*
X359220D01*
Y632346D02*
Y648096D01*
X377714Y695483D02*
Y704483D01*
X393464D01*
Y695483D02*
Y704483D01*
X377714Y695483D02*
X393464D01*
X377029Y685833D02*
Y693833D01*
X392150D01*
Y685833D02*
Y693833D01*
X377029Y685833D02*
X392150D01*
X227531Y687553D02*
Y695553D01*
X242653D01*
Y687553D02*
Y695553D01*
X227531Y687553D02*
X242653D01*
X227311Y650715D02*
Y659715D01*
X243061D01*
Y650715D02*
Y659715D01*
X227311Y650715D02*
X243061D01*
X238190Y620685D02*
X247191D01*
X238190D02*
Y636435D01*
X247191D01*
Y620685D02*
Y636435D01*
X236589Y596999D02*
X244589D01*
X236589D02*
Y612121D01*
X244589D01*
Y596999D02*
Y612121D01*
X358464Y794485D02*
Y803485D01*
X342715Y794485D02*
X358464D01*
X342715D02*
Y803485D01*
X358464D01*
X359714Y794485D02*
Y803485D01*
X375464D01*
Y794485D02*
Y803485D01*
X359714Y794485D02*
X375464D01*
X203047Y687560D02*
Y695559D01*
X218168D01*
Y687560D02*
Y695559D01*
X203047Y687560D02*
X218168D01*
X208090Y667962D02*
X217089D01*
Y652212D02*
Y667962D01*
X208090Y652212D02*
X217089D01*
X208090D02*
Y667962D01*
X199097Y667120D02*
X207097D01*
Y651999D02*
Y667120D01*
X199097Y651999D02*
X207097D01*
X199097D02*
Y667120D01*
X391683Y811611D02*
Y819611D01*
X376562Y811611D02*
X391683D01*
X376562D02*
Y819611D01*
X391683D01*
X358150Y804560D02*
Y812560D01*
X343028Y804560D02*
X358150D01*
X343028D02*
Y812560D01*
X358150D01*
X360029Y804560D02*
Y812560D01*
X375150D01*
Y804560D02*
Y812560D01*
X360029Y804560D02*
X375150D01*
X392079Y801111D02*
Y810111D01*
X376329Y801111D02*
X392079D01*
X376329D02*
Y810111D01*
X392079D01*
X324029Y807560D02*
Y815560D01*
X339150D01*
Y807560D02*
Y815560D01*
X324029Y807560D02*
X339150D01*
X204028Y739560D02*
Y747560D01*
X219150D01*
Y739560D02*
Y747560D01*
X204028Y739560D02*
X219150D01*
X281479Y754368D02*
X297229D01*
Y763367D01*
X281479D02*
X297229D01*
X281479Y754368D02*
Y763367D01*
X363089Y783435D02*
X372089D01*
Y767685D02*
Y783435D01*
X363089Y767685D02*
X372089D01*
X363089D02*
Y783435D01*
X297589Y809209D02*
X305589D01*
Y794088D02*
Y809209D01*
X297589Y794088D02*
X305589D01*
X297589D02*
Y809209D01*
X263089Y783685D02*
X272089D01*
Y767935D02*
Y783685D01*
X263089Y767935D02*
X272089D01*
X263089D02*
Y783685D01*
X275150Y803560D02*
Y811560D01*
X260028Y803560D02*
X275150D01*
X260028D02*
Y811560D01*
X275150D01*
X242714Y793435D02*
Y802435D01*
X258464D01*
Y793435D02*
Y802435D01*
X242714Y793435D02*
X258464D01*
X243029Y803560D02*
Y811560D01*
X258150D01*
Y803560D02*
Y811560D01*
X243029Y803560D02*
X258150D01*
X275929Y793435D02*
Y802435D01*
X260179Y793435D02*
X275929D01*
X260179D02*
Y802435D01*
X275929D01*
X246089Y784435D02*
X255089D01*
Y768685D02*
Y784435D01*
X246089Y768685D02*
X255089D01*
X246089D02*
Y784435D01*
X226964Y702927D02*
Y711926D01*
X242714D01*
Y702927D02*
Y711926D01*
X226964Y702927D02*
X242714D01*
X228464Y739060D02*
Y748060D01*
X244214D01*
Y739060D02*
Y748060D01*
X228464Y739060D02*
X244214D01*
X377029Y733941D02*
Y741942D01*
X392150D01*
Y733941D02*
Y741942D01*
X377029Y733941D02*
X392150D01*
X377464Y744060D02*
Y753060D01*
X393214D01*
Y744060D02*
Y753060D01*
X377464Y744060D02*
X393214D01*
X377543Y759969D02*
X386543D01*
X377543D02*
Y775719D01*
X386543D01*
Y759969D02*
Y775719D01*
X377089Y713310D02*
X386089D01*
X377089D02*
Y729060D01*
X386089D01*
Y713310D02*
Y729060D01*
X378920Y794685D02*
X387920D01*
Y778934D02*
Y794685D01*
X378920Y778934D02*
X387920D01*
X378920D02*
Y794685D01*
X204028Y703559D02*
Y711560D01*
X219150D01*
Y703559D02*
Y711560D01*
X204028Y703559D02*
X219150D01*
X198714Y649920D02*
X207714D01*
Y634170D02*
Y649920D01*
X198714Y634170D02*
X207714D01*
X198714D02*
Y649920D01*
X303589Y607249D02*
X311589D01*
X303589D02*
Y622370D01*
X311589D01*
Y607249D02*
Y622370D01*
X317714Y605798D02*
X325714D01*
X317714D02*
Y620919D01*
X325714D01*
Y605798D02*
Y620919D01*
X333589Y606067D02*
X341589D01*
X333589D02*
Y621188D01*
X341589D01*
Y606067D02*
Y621188D01*
X366590Y607749D02*
X374590D01*
X366590D02*
Y622870D01*
X374590D01*
Y607749D02*
Y622870D01*
X357714Y590696D02*
Y599695D01*
X341964Y590696D02*
X357714D01*
X341964D02*
Y599695D01*
X357714D01*
X366442Y631692D02*
X375443D01*
X366442D02*
Y647442D01*
X375443D01*
Y631692D02*
Y647442D01*
X379089Y651316D02*
X388089D01*
Y635567D02*
Y651316D01*
X379089Y635567D02*
X388089D01*
X379089D02*
Y651316D01*
X335213Y631776D02*
X343213D01*
X335213D02*
Y646897D01*
X343213D01*
Y631776D02*
Y646897D01*
X317589Y631999D02*
X325589D01*
X317589D02*
Y647120D01*
X325589D01*
Y631999D02*
Y647120D01*
X301742Y629687D02*
X310743D01*
X301742D02*
Y645437D01*
X310743D01*
Y629687D02*
Y645437D01*
X282819Y588252D02*
X291819D01*
X282819D02*
Y604002D01*
X291819D01*
Y588252D02*
Y604002D01*
X393464Y659060D02*
Y668059D01*
X377714Y659060D02*
X393464D01*
X377714D02*
Y668059D01*
X393464D01*
X393150Y671600D02*
Y679600D01*
X378029Y671600D02*
X393150D01*
X378029D02*
Y679600D01*
X393150D01*
X237089Y678435D02*
X246089D01*
Y662685D02*
Y678435D01*
X237089Y662685D02*
X246089D01*
X237089D02*
Y678435D01*
X271821Y588499D02*
X279821D01*
X271821D02*
Y603620D01*
X279821D01*
Y588499D02*
Y603620D01*
X314589Y809503D02*
X322589D01*
Y794382D02*
Y809503D01*
X314589Y794382D02*
X322589D01*
X314589D02*
Y809503D01*
X203029Y670560D02*
Y678560D01*
X218150D01*
Y670560D02*
Y678560D01*
X203029Y670560D02*
X218150D01*
X226966Y678120D02*
X234966D01*
Y662999D02*
Y678120D01*
X226966Y662999D02*
X234966D01*
X226966D02*
Y678120D01*
X203535Y721560D02*
Y729559D01*
X218657D01*
Y721560D02*
Y729559D01*
X203535Y721560D02*
X218657D01*
X220327Y757434D02*
X229327D01*
X220327D02*
Y773185D01*
X229327D01*
Y757434D02*
Y773185D01*
X209827Y758499D02*
X217827D01*
X209827D02*
Y773620D01*
X217827D01*
Y758499D02*
Y773620D01*
X241150Y803560D02*
Y811560D01*
X226028Y803560D02*
X241150D01*
X226028D02*
Y811560D01*
X241150D01*
X241662Y793310D02*
Y802310D01*
X225912Y793310D02*
X241662D01*
X225912D02*
Y802310D01*
X241662D01*
X296089Y783435D02*
X305090D01*
Y767685D02*
Y783435D01*
X296089Y767685D02*
X305090D01*
X296089D02*
Y783435D01*
X279590Y808120D02*
X287589D01*
Y792999D02*
Y808120D01*
X279590Y792999D02*
X287589D01*
X279590D02*
Y808120D01*
X278031Y782934D02*
X287031D01*
Y767185D02*
Y782934D01*
X278031Y767185D02*
X287031D01*
X278031D02*
Y782934D01*
X233089Y784435D02*
X242089D01*
Y768685D02*
Y784435D01*
X233089Y768685D02*
X242089D01*
X233089D02*
Y784435D01*
X228029Y721560D02*
Y729559D01*
X243150D01*
Y721560D02*
Y729559D01*
X228029Y721560D02*
X243150D01*
X329844Y783253D02*
X338844D01*
Y767503D02*
Y783253D01*
X329844Y767503D02*
X338844D01*
X329844D02*
Y783253D01*
X314815Y783370D02*
X322815D01*
Y768249D02*
Y783370D01*
X314815Y768249D02*
X322815D01*
X314815D02*
Y783370D01*
X217465Y637060D02*
Y646059D01*
X233214D01*
Y637060D02*
Y646059D01*
X217465Y637060D02*
X233214D01*
X188589Y616999D02*
X196589D01*
X188589D02*
Y632121D01*
X196589D01*
Y616999D02*
Y632121D01*
X198714Y616735D02*
X207714D01*
X198714D02*
Y632485D01*
X207714D01*
Y616735D02*
Y632485D01*
X215715Y622060D02*
X231464D01*
Y631060D01*
X215715D02*
X231464D01*
X215715Y622060D02*
Y631060D01*
X188652Y649605D02*
X196652D01*
Y634484D02*
Y649605D01*
X188652Y634484D02*
X196652D01*
X188652D02*
Y649605D01*
X244500Y452125D02*
Y467875D01*
X235500D02*
X244500D01*
X235500Y452125D02*
Y467875D01*
Y452125D02*
X244500D01*
X228932Y443291D02*
Y451291D01*
X213810Y443291D02*
X228932D01*
X213810D02*
Y451291D01*
X228932D01*
X236095Y434000D02*
Y442000D01*
X251216D01*
Y434000D02*
Y442000D01*
X236095Y434000D02*
X251216D01*
X227071Y392366D02*
Y407488D01*
X219072D02*
X227071D01*
X219072Y392366D02*
Y407488D01*
Y392366D02*
X227071D01*
X235439Y443000D02*
X250561D01*
Y451000D01*
X235439D02*
X250561D01*
X235439Y443000D02*
Y451000D01*
X185969Y431188D02*
X201090D01*
Y439188D01*
X185969D02*
X201090D01*
X185969Y431188D02*
Y439188D01*
X236119Y357000D02*
X251241D01*
Y365000D01*
X236119D02*
X251241D01*
X236119Y357000D02*
Y365000D01*
X229559Y367265D02*
X244680D01*
Y375265D01*
X229559D02*
X244680D01*
X229559Y367265D02*
Y375265D01*
X211356Y452907D02*
Y460907D01*
X196235Y452907D02*
X211356D01*
X196235D02*
Y460907D01*
X211356D01*
X210606Y462000D02*
Y470000D01*
X195485Y462000D02*
X210606D01*
X195485D02*
Y470000D01*
X210606D01*
X163541Y440018D02*
X179291D01*
X163541Y431019D02*
Y440018D01*
Y431019D02*
X179291D01*
Y440018D01*
X228784Y399000D02*
Y407000D01*
X243906D01*
Y399000D02*
Y407000D01*
X228784Y399000D02*
X243906D01*
X196125Y480500D02*
X211875D01*
X196125Y471500D02*
Y480500D01*
Y471500D02*
X211875D01*
Y480500D01*
X213084Y440944D02*
X228206D01*
X213084Y432944D02*
Y440944D01*
Y432944D02*
X228206D01*
Y440944D01*
X236000Y411439D02*
X244000D01*
X236000D02*
Y426561D01*
X244000D01*
Y411439D02*
Y426561D01*
X228122Y455112D02*
Y464112D01*
X212372Y455112D02*
X228122D01*
X212372D02*
Y464112D01*
X228122D01*
X244764Y386994D02*
X252764D01*
X244764D02*
Y402116D01*
X252764D01*
Y386994D02*
Y402116D01*
X181875Y420500D02*
Y429500D01*
X166125Y420500D02*
X181875D01*
X166125D02*
Y429500D01*
X181875D01*
X198196Y451468D02*
X213318D01*
X198196Y443467D02*
Y451468D01*
Y443467D02*
X213318D01*
Y451468D01*
X183650Y442941D02*
Y450941D01*
X198771D01*
Y442941D02*
Y450941D01*
X183650Y442941D02*
X198771D01*
X185956Y421006D02*
X201077D01*
Y429006D01*
X185956D02*
X201077D01*
X185956Y421006D02*
Y429006D01*
X250439Y377000D02*
Y385000D01*
X265561D01*
Y377000D02*
Y385000D01*
X250439Y377000D02*
X265561D01*
X200433Y393825D02*
X208433D01*
X200433D02*
Y408946D01*
X208433D01*
Y393825D02*
Y408946D01*
X229455Y377217D02*
Y386217D01*
X245205D01*
Y377217D02*
Y386217D01*
X229455Y377217D02*
X245205D01*
X186152Y411774D02*
X201274D01*
Y419774D01*
X186152D02*
X201274D01*
X186152Y411774D02*
Y419774D01*
X35000Y553500D02*
X51000D01*
X35000Y545500D02*
Y553500D01*
Y545500D02*
X51000D01*
Y553500D01*
X24939Y1177939D02*
X63061D01*
Y1198061D01*
X24939D02*
X63061D01*
X24939Y1177939D02*
Y1198061D01*
X48376Y786100D02*
Y791400D01*
X37749Y786100D02*
X48376D01*
X37749D02*
Y791400D01*
X48376D01*
X126250Y155250D02*
Y164750D01*
X143750D01*
Y155250D02*
Y164750D01*
X126250Y155250D02*
X143750D01*
X114250Y226250D02*
Y235750D01*
X131750D01*
Y226250D02*
Y235750D01*
X114250Y226250D02*
X131750D01*
X110428Y260250D02*
Y269750D01*
X127928D01*
Y260250D02*
Y269750D01*
X110428Y260250D02*
X127928D01*
X190000Y193821D02*
X198000D01*
Y177821D02*
Y193821D01*
X190000Y177821D02*
X198000D01*
X190000D02*
Y193821D01*
X401000Y373531D02*
X413000D01*
Y350469D02*
Y373531D01*
X401000Y350469D02*
X413000D01*
X401000D02*
Y373531D01*
X99001Y154439D02*
X119122D01*
X99001D02*
Y192561D01*
X119122D01*
Y154439D02*
Y192561D01*
X48314Y806350D02*
Y811650D01*
X37686Y806350D02*
X48314D01*
X37686D02*
Y811650D01*
X48314D01*
X48596Y837371D02*
Y842671D01*
X37969Y837371D02*
X48596D01*
X37969D02*
Y842671D01*
X48596D01*
X337900Y304125D02*
Y313125D01*
X322150Y304125D02*
X337900D01*
X322150D02*
Y313125D01*
X337900D01*
X349588Y297500D02*
Y306500D01*
X365338D01*
Y297500D02*
Y306500D01*
X349588Y297500D02*
X365338D01*
X361638Y186638D02*
X370362D01*
X361638D02*
Y204362D01*
X370362D01*
Y186638D02*
Y204362D01*
X70750Y400250D02*
Y409750D01*
X53250Y400250D02*
X70750D01*
X53250D02*
Y409750D01*
X70750D01*
X141267Y277282D02*
X150767D01*
Y259782D02*
Y277282D01*
X141267Y259782D02*
X150767D01*
X141267D02*
Y277282D01*
X166250Y177250D02*
X175750D01*
X166250D02*
Y194750D01*
X175750D01*
Y177250D02*
Y194750D01*
X78750Y161250D02*
Y170750D01*
X61250Y161250D02*
X78750D01*
X61250D02*
Y170750D01*
X78750D01*
X25000Y1157000D02*
X33000D01*
X25000D02*
Y1173000D01*
X33000D01*
Y1157000D02*
Y1173000D01*
X53000Y1157000D02*
Y1165000D01*
X37000Y1157000D02*
X53000D01*
X37000D02*
Y1165000D01*
X53000D01*
X77000Y1125638D02*
X85000D01*
X77000D02*
Y1141638D01*
X85000D01*
Y1125638D02*
Y1141638D01*
X51843Y425061D02*
Y433061D01*
X35843Y425061D02*
X51843D01*
X35843D02*
Y433061D01*
X51843D01*
X68010Y548000D02*
X76010D01*
Y532000D02*
Y548000D01*
X68010Y532000D02*
X76010D01*
X68010D02*
Y548000D01*
X390000Y311000D02*
Y319000D01*
X406000D01*
Y311000D02*
Y319000D01*
X390000Y311000D02*
X406000D01*
X36250Y1166250D02*
Y1175750D01*
X53750D01*
Y1166250D02*
Y1175750D01*
X36250Y1166250D02*
X53750D01*
X397000Y1122500D02*
Y1130500D01*
X413000D01*
Y1122500D02*
Y1130500D01*
X397000Y1122500D02*
X413000D01*
X144250Y934096D02*
Y942096D01*
X160250D01*
Y934096D02*
Y942096D01*
X144250Y934096D02*
X160250D01*
X178000Y178270D02*
Y194270D01*
Y178270D02*
X186000D01*
Y194270D01*
X178000D02*
X186000D01*
X193860Y239000D02*
X209860D01*
Y247000D01*
X193860D02*
X209860D01*
X193860Y239000D02*
Y247000D01*
X333500Y400911D02*
X342500D01*
Y385161D02*
Y400911D01*
X333500Y385161D02*
X342500D01*
X333500D02*
Y400911D01*
X313307Y418500D02*
Y434250D01*
X304307D02*
X313307D01*
X304307Y418500D02*
Y434250D01*
Y418500D02*
X313307D01*
X301000Y418000D02*
Y434000D01*
X293000D02*
X301000D01*
X293000Y418000D02*
Y434000D01*
Y418000D02*
X301000D01*
X347286Y385000D02*
Y401000D01*
Y385000D02*
X355286D01*
Y401000D01*
X347286D02*
X355286D01*
X302638Y393638D02*
Y414362D01*
Y393638D02*
X313362D01*
Y414362D01*
X302638D02*
X313362D01*
X60625Y340500D02*
Y349500D01*
X44875Y340500D02*
X60625D01*
X44875D02*
Y349500D01*
X60625D01*
X210000Y935693D02*
X226000D01*
X210000Y927693D02*
Y935693D01*
Y927693D02*
X226000D01*
Y935693D01*
X218388Y980734D02*
Y991459D01*
X239112D01*
Y980734D02*
Y991459D01*
X218388Y980734D02*
X239112D01*
X159479Y971936D02*
Y982660D01*
X138754Y971936D02*
X159479D01*
X138754D02*
Y982660D01*
X159479D01*
X232362Y911330D02*
Y922055D01*
X211637Y911330D02*
X232362D01*
X211637D02*
Y922055D01*
X232362D01*
X173650Y848096D02*
X181650D01*
Y832096D02*
Y848096D01*
X173650Y832096D02*
X181650D01*
X173650D02*
Y848096D01*
X182888Y850458D02*
X193612D01*
Y829734D02*
Y850458D01*
X182888Y829734D02*
X193612D01*
X182888D02*
Y850458D01*
X179429Y856960D02*
Y865460D01*
X193430D01*
Y856960D02*
Y865460D01*
X179429Y856960D02*
X193430D01*
X210250Y855097D02*
Y863096D01*
X226250D01*
Y855097D02*
Y863096D01*
X210250Y855097D02*
X226250D01*
X225000Y963193D02*
Y971193D01*
X209000Y963193D02*
X225000D01*
X209000D02*
Y971193D01*
X225000D01*
X145750Y963193D02*
Y971193D01*
X161750D01*
Y963193D02*
Y971193D01*
X145750Y963193D02*
X161750D01*
X173442Y909693D02*
X181442D01*
X173442D02*
Y925693D01*
X181442D01*
Y909693D02*
Y925693D01*
X35843Y422000D02*
X51843D01*
X35843Y414000D02*
Y422000D01*
Y414000D02*
X51843D01*
Y422000D01*
X163327Y295000D02*
Y303000D01*
X147327Y295000D02*
X163327D01*
X147327D02*
Y303000D01*
X163327D01*
X225093Y238599D02*
X233092D01*
Y222599D02*
Y238599D01*
X225093Y222599D02*
X233092D01*
X225093D02*
Y238599D01*
X126000Y179488D02*
X134000D01*
X126000D02*
Y195488D01*
X134000D01*
Y179488D02*
Y195488D01*
X135000Y196000D02*
X143000D01*
Y180000D02*
Y196000D01*
X135000Y180000D02*
X143000D01*
X135000D02*
Y196000D01*
X130855Y216519D02*
Y224519D01*
X114855Y216519D02*
X130855D01*
X114855D02*
Y224519D01*
X130855D01*
X152342Y260398D02*
X160342D01*
X152342D02*
Y276398D01*
X160342D01*
Y260398D02*
Y276398D01*
X127314Y251000D02*
Y259000D01*
X111314Y251000D02*
X127314D01*
X111314D02*
Y259000D01*
X127314D01*
X349125Y309500D02*
Y318500D01*
X364874D01*
Y309500D02*
Y318500D01*
X349125Y309500D02*
X364874D01*
D15*
X35000Y648000D02*
Y658000D01*
X30000Y653000D02*
X40000D01*
X279250Y470336D02*
X284750D01*
X282000Y467587D02*
Y473087D01*
X81767Y281664D02*
Y287164D01*
X79017Y284414D02*
X84517D01*
X353672Y1217600D02*
X358672D01*
X356172Y1215100D02*
Y1220100D01*
X34400Y698000D02*
Y708000D01*
X29400Y703000D02*
X39400D01*
X299750Y336250D02*
Y341750D01*
X297000Y339000D02*
X302500D01*
X20000Y621000D02*
Y627000D01*
X17000Y624000D02*
X23000D01*
X21000Y729000D02*
Y735000D01*
X18000Y732000D02*
X24000D01*
X274000Y423250D02*
Y428750D01*
X271250Y426000D02*
X276750D01*
X369250Y331985D02*
X374750D01*
X372000Y329235D02*
Y334735D01*
X263000Y196941D02*
Y202441D01*
X260250Y199691D02*
X265750D01*
X80000Y586362D02*
Y592362D01*
X77000Y589362D02*
X83000D01*
X16000Y1164000D02*
X22000D01*
X19000Y1161000D02*
Y1167000D01*
X43600Y556737D02*
Y562737D01*
X40600Y559737D02*
X46600D01*
X320000Y172250D02*
Y178250D01*
X317000Y175250D02*
X323000D01*
X113000Y484000D02*
Y490000D01*
X110000Y487000D02*
X116000D01*
X54000Y990000D02*
Y996000D01*
X51000Y993000D02*
X57000D01*
X55021Y1043500D02*
Y1049500D01*
X52021Y1046500D02*
X58021D01*
X15000Y546000D02*
X21000D01*
X18000Y543000D02*
Y549000D01*
X38000Y925000D02*
Y931000D01*
X35000Y928000D02*
X41000D01*
X34991Y950100D02*
Y956100D01*
X31991Y953100D02*
X37991D01*
X23950Y1070900D02*
Y1076400D01*
X21200Y1073650D02*
X26700D01*
X23950Y1083250D02*
Y1088750D01*
X21200Y1086000D02*
X26700D01*
X23394Y1096300D02*
Y1101800D01*
X20644Y1099050D02*
X26144D01*
X97000Y1070900D02*
Y1076400D01*
X94250Y1073650D02*
X99750D01*
X96050Y1084250D02*
Y1089750D01*
X93300Y1087000D02*
X98800D01*
X19000Y352123D02*
X29000D01*
X24000Y347123D02*
Y357123D01*
X312038Y1104016D02*
Y1109516D01*
X309288Y1106765D02*
X314788D01*
X295538Y1057000D02*
X301038D01*
X298288Y1054250D02*
Y1059750D01*
X340788Y1061250D02*
Y1066750D01*
X338038Y1064000D02*
X343538D01*
X364751Y935250D02*
Y940750D01*
X362001Y938000D02*
X367502D01*
X299751Y849020D02*
Y854520D01*
X297001Y851770D02*
X302501D01*
X41000Y860000D02*
Y870000D01*
X36000Y865000D02*
X46000D01*
X369500Y533779D02*
X375500D01*
X372500Y530779D02*
Y536779D01*
X390000Y578000D02*
Y584000D01*
X387000Y581000D02*
X393000D01*
X386000Y519625D02*
X392000D01*
X389000Y516625D02*
Y522625D01*
X408500Y555779D02*
Y561779D01*
X405500Y558779D02*
X411500D01*
X40327Y264500D02*
Y270000D01*
X37578Y267250D02*
X43078D01*
X46828Y223250D02*
X52327D01*
X49577Y220500D02*
Y226000D01*
X27578Y267250D02*
X33078D01*
X30327Y264500D02*
Y270000D01*
X27101Y229250D02*
X33101D01*
X30101Y226250D02*
Y232250D01*
X69577Y252500D02*
Y258000D01*
X66828Y255250D02*
X72328D01*
X58828Y238250D02*
X64327D01*
X61577Y235500D02*
Y241000D01*
X68345Y281664D02*
Y287664D01*
X65345Y284664D02*
X71344D01*
X52000Y291250D02*
Y296750D01*
X49250Y294000D02*
X54750D01*
X46828Y248250D02*
X52327D01*
X49577Y245500D02*
Y251000D01*
X362589Y697560D02*
Y703559D01*
X359589Y700560D02*
X365589D01*
X348589Y677683D02*
X354589D01*
X351589Y674683D02*
Y680683D01*
X287767Y649487D02*
X293767D01*
X290766Y646487D02*
Y652487D01*
X330589Y587560D02*
X336589D01*
X333589Y584560D02*
Y590560D01*
X92000Y659000D02*
Y665000D01*
X89000Y662000D02*
X95000D01*
X361589Y675683D02*
Y681683D01*
X358589Y678683D02*
X364589D01*
X188589Y674560D02*
Y680560D01*
X185589Y677560D02*
X191589D01*
X189081Y655810D02*
Y661809D01*
X186081Y658810D02*
X192081D01*
X180589Y713810D02*
X186589D01*
X183589Y710810D02*
Y716810D01*
X225589Y596770D02*
Y602770D01*
X222589Y599771D02*
X228589D01*
X201589Y596559D02*
Y602560D01*
X198589Y599560D02*
X204589D01*
X214589Y596770D02*
Y602770D01*
X211589Y599771D02*
X217589D01*
X357900Y335750D02*
Y341250D01*
X355150Y338500D02*
X360650D01*
X196000Y172000D02*
X202000D01*
X199000Y169000D02*
Y175000D01*
X261000Y254000D02*
Y260000D01*
X258000Y257000D02*
X264000D01*
X412000Y316500D02*
Y322500D01*
X409000Y319500D02*
X415000D01*
X263000Y209250D02*
Y214750D01*
X260250Y212000D02*
X265750D01*
X300000Y347250D02*
Y352750D01*
X297250Y350000D02*
X302750D01*
X104000Y659000D02*
Y665000D01*
X101000Y662000D02*
X107000D01*
X122700Y712000D02*
Y718000D01*
X119700Y715000D02*
X125700D01*
X111000Y711000D02*
Y717000D01*
X108000Y714000D02*
X114000D01*
X132400Y657794D02*
Y663794D01*
X129400Y660795D02*
X135400D01*
X136000Y712000D02*
Y718000D01*
X133000Y715000D02*
X139000D01*
X122000Y658000D02*
Y664000D01*
X119000Y661000D02*
X125000D01*
X402000Y787000D02*
Y793000D01*
X399000Y790000D02*
X405000D01*
X317000Y372000D02*
Y378000D01*
X314000Y375000D02*
X320000D01*
X306000Y372000D02*
Y378000D01*
X303000Y375000D02*
X309000D01*
X293000Y372000D02*
Y378000D01*
X290000Y375000D02*
X296000D01*
X386000Y166750D02*
Y172250D01*
X383250Y169500D02*
X388750D01*
X377000Y177250D02*
Y182750D01*
X374250Y180000D02*
X379750D01*
X44590Y591000D02*
Y597000D01*
X41590Y594000D02*
X47590D01*
X62250Y1141000D02*
X67750D01*
X65000Y1138250D02*
Y1143750D01*
X80000Y540100D02*
X86000D01*
X83000Y537100D02*
Y543100D01*
X336000Y1150000D02*
X342000D01*
X339000Y1147000D02*
Y1153000D01*
X110000Y477000D02*
X116000D01*
X113000Y474000D02*
Y480000D01*
X110000Y466000D02*
X116000D01*
X113000Y463000D02*
Y469000D01*
X199250Y220000D02*
X204750D01*
X202000Y217250D02*
Y222750D01*
X18250Y1014000D02*
X23750D01*
X21000Y1011250D02*
Y1016750D01*
X48134Y1014078D02*
X53635D01*
X50884Y1011328D02*
Y1016827D01*
X110250Y935096D02*
X116250D01*
X113250Y932096D02*
Y938096D01*
X35261Y759022D02*
X45261D01*
X40261Y754022D02*
Y764022D01*
X110250Y925096D02*
X116250D01*
X113250Y922096D02*
Y928096D01*
X346414Y416624D02*
Y422624D01*
X343414Y419625D02*
X349414D01*
X36000Y985000D02*
Y991000D01*
X33000Y988000D02*
X39000D01*
X326986Y417000D02*
Y423000D01*
X323987Y420000D02*
X329986D01*
X344000Y451419D02*
X350000D01*
X347000Y448418D02*
Y454418D01*
X322656Y452000D02*
X328656D01*
X325656Y449000D02*
Y455000D01*
X160293Y183000D02*
Y189000D01*
X157293Y186000D02*
X163293D01*
X59250Y470000D02*
X64750D01*
X62000Y467250D02*
Y472750D01*
X152061Y951132D02*
X157561D01*
X154810Y948382D02*
Y953882D01*
X247385Y951514D02*
Y957013D01*
X244635Y954264D02*
X250135D01*
X247384Y944307D02*
X252884D01*
X250134Y941558D02*
Y947058D01*
X248884Y931172D02*
Y936673D01*
X246134Y933922D02*
X251634D01*
X114750Y948096D02*
X120250D01*
X117500Y945347D02*
Y950846D01*
X153000Y924174D02*
Y930174D01*
X150000Y927174D02*
X156000D01*
X246500Y924097D02*
X251999D01*
X249250Y921346D02*
Y926846D01*
Y911096D02*
Y917096D01*
X246250Y914096D02*
X252250D01*
X13000Y529000D02*
X19000D01*
X16000Y526000D02*
Y532000D01*
X14000Y580000D02*
X20000D01*
X17000Y577000D02*
Y583000D01*
X67000Y1114250D02*
Y1119750D01*
X64250Y1117000D02*
X69750D01*
X12000Y327000D02*
Y333000D01*
X9000Y330000D02*
X15000D01*
D254*
X56500Y632000D02*
Y674000D01*
X13500D02*
X56500D01*
X13500Y632000D02*
Y674000D01*
Y632000D02*
X56500D01*
X286500Y461337D02*
Y479337D01*
X277500Y461337D02*
Y479337D01*
Y461337D02*
X286500D01*
X277500Y479337D02*
X286500D01*
X76267Y294914D02*
X87267D01*
X76267Y273914D02*
X87267D01*
X76267D02*
Y294914D01*
X87267Y273914D02*
Y294914D01*
X348172Y1224900D02*
X364172D01*
X348172Y1210300D02*
Y1224900D01*
Y1210300D02*
X364172D01*
Y1224900D01*
X55900Y682000D02*
Y724000D01*
X12900D02*
X55900D01*
X12900Y682000D02*
Y724000D01*
Y682000D02*
X55900D01*
X290750Y343500D02*
X308750D01*
X290750Y334500D02*
X308750D01*
Y343500D01*
X290750Y334500D02*
Y343500D01*
X12500Y620000D02*
X27500D01*
X12500Y628000D02*
X27500D01*
X12500Y620000D02*
Y628000D01*
X27500Y620000D02*
Y628000D01*
X13500Y728000D02*
X28500D01*
X13500Y736000D02*
X28500D01*
X13500Y728000D02*
Y736000D01*
X28500Y728000D02*
Y736000D01*
X265000Y421500D02*
X283000D01*
X265000Y430500D02*
X283000D01*
X265000Y421500D02*
Y430500D01*
X283000Y421500D02*
Y430500D01*
X376500Y322985D02*
Y340985D01*
X367500Y322985D02*
Y340985D01*
Y322985D02*
X376500D01*
X367500Y340985D02*
X376500D01*
X254000Y195191D02*
X272000D01*
X254000Y204191D02*
X272000D01*
X254000Y195191D02*
Y204191D01*
X272000Y195191D02*
Y204191D01*
X75500Y580362D02*
X84500D01*
X75500Y598362D02*
X84500D01*
Y580362D02*
Y598362D01*
X75500Y580362D02*
Y598362D01*
X14500Y1155000D02*
Y1173000D01*
X23500Y1155000D02*
Y1173000D01*
X14500D02*
X23500D01*
X14500Y1155000D02*
X23500D01*
X34600Y555237D02*
X52600D01*
X34600Y564237D02*
X52600D01*
X34600Y555237D02*
Y564237D01*
X52600Y555237D02*
Y564237D01*
X311000Y170750D02*
X329000D01*
X311000Y179750D02*
X329000D01*
X311000Y170750D02*
Y179750D01*
X329000Y170750D02*
Y179750D01*
X105500Y491000D02*
X120500D01*
X105500Y483000D02*
X120500D01*
Y491000D01*
X105500Y483000D02*
Y491000D01*
X49500Y1002000D02*
X58500D01*
X49500Y984000D02*
X58500D01*
X49500D02*
Y1002000D01*
X58500Y984000D02*
Y1002000D01*
X46021Y1042000D02*
X64021D01*
X46021Y1051000D02*
X64021D01*
X46021Y1042000D02*
Y1051000D01*
X64021Y1042000D02*
Y1051000D01*
X22500Y537000D02*
Y555000D01*
X13500Y537000D02*
Y555000D01*
Y537000D02*
X22500D01*
X13500Y555000D02*
X22500D01*
X29000Y923500D02*
X47000D01*
X29000Y932500D02*
X47000D01*
X29000Y923500D02*
Y932500D01*
X47000Y923500D02*
Y932500D01*
X30491Y944100D02*
X39491D01*
X30491Y962100D02*
X39491D01*
Y944100D02*
Y962100D01*
X30491Y944100D02*
Y962100D01*
X14950Y1078150D02*
X32950D01*
X14950Y1069150D02*
X32950D01*
Y1078150D01*
X14950Y1069150D02*
Y1078150D01*
X14950Y1090500D02*
X32950D01*
X14950Y1081500D02*
X32950D01*
Y1090500D01*
X14950Y1081500D02*
Y1090500D01*
X14394Y1103550D02*
X32394D01*
X14394Y1094550D02*
X32394D01*
Y1103550D01*
X14394Y1094550D02*
Y1103550D01*
X88000Y1069150D02*
X106000D01*
X88000Y1078150D02*
X106000D01*
X88000Y1069150D02*
Y1078150D01*
X106000Y1069150D02*
Y1078150D01*
X87050Y1082500D02*
X105050D01*
X87050Y1091500D02*
X105050D01*
X87050Y1082500D02*
Y1091500D01*
X105050Y1082500D02*
Y1091500D01*
X39600Y336623D02*
Y367623D01*
X8400Y336623D02*
Y367623D01*
Y336623D02*
X39600D01*
X8400Y367623D02*
X39600D01*
X301538Y1101265D02*
X322538D01*
X301538Y1112265D02*
X322538D01*
X301538Y1101265D02*
Y1112265D01*
X322538Y1101265D02*
Y1112265D01*
X303788Y1046500D02*
Y1067500D01*
X292788Y1046500D02*
Y1067500D01*
Y1046500D02*
X303788D01*
X292788Y1067500D02*
X303788D01*
X330288Y1069500D02*
X351288D01*
X330288Y1058500D02*
X351288D01*
Y1069500D01*
X330288Y1058500D02*
Y1069500D01*
X356751Y934000D02*
X372751D01*
X356751Y942000D02*
X372751D01*
X356751Y934000D02*
Y942000D01*
X372751Y934000D02*
Y942000D01*
X290751Y856270D02*
X308751D01*
X290751Y847270D02*
X308751D01*
Y856270D01*
X290751Y847270D02*
Y856270D01*
X62000Y843500D02*
Y886500D01*
X20000Y843500D02*
X62000D01*
X20000D02*
Y886500D01*
X62000D01*
X377000Y524779D02*
Y542779D01*
X368000Y524779D02*
Y542779D01*
Y524779D02*
X377000D01*
X368000Y542779D02*
X377000D01*
X381000Y576500D02*
X399000D01*
X381000Y585500D02*
X399000D01*
X381000Y576500D02*
Y585500D01*
X399000Y576500D02*
Y585500D01*
X398000Y515125D02*
Y524125D01*
X380000Y515125D02*
Y524125D01*
X398000D01*
X380000Y515125D02*
X398000D01*
X404000Y567779D02*
X413000D01*
X404000Y549779D02*
X413000D01*
X404000D02*
Y567779D01*
X413000Y549779D02*
Y567779D01*
X35827Y258250D02*
X44828D01*
X35827Y276250D02*
X44828D01*
Y258250D02*
Y276250D01*
X35827Y258250D02*
Y276250D01*
X44077Y212750D02*
Y233750D01*
X55078Y212750D02*
Y233750D01*
X44077D02*
X55078D01*
X44077Y212750D02*
X55078D01*
X34828Y258250D02*
Y276250D01*
X25828Y258250D02*
Y276250D01*
Y258250D02*
X34828D01*
X25828Y276250D02*
X34828D01*
X39100Y224750D02*
Y233750D01*
X21100Y224750D02*
Y233750D01*
X39100D01*
X21100Y224750D02*
X39100D01*
X59078Y260750D02*
X80077D01*
X59078Y249750D02*
X80077D01*
Y260750D01*
X59078Y249750D02*
Y260750D01*
X57078Y229250D02*
Y247250D01*
X66077Y229250D02*
Y247250D01*
X57078D02*
X66077D01*
X57078Y229250D02*
X66077D01*
X63845Y275664D02*
X72845D01*
X63845Y293664D02*
X72845D01*
Y275664D02*
Y293664D01*
X63845Y275664D02*
Y293664D01*
X47500Y285000D02*
X56500D01*
X47500Y303000D02*
X56500D01*
Y285000D02*
Y303000D01*
X47500Y285000D02*
Y303000D01*
X44077Y237750D02*
Y258750D01*
X55078Y237750D02*
Y258750D01*
X44077D02*
X55078D01*
X44077Y237750D02*
X55078D01*
X358089Y691560D02*
X367089D01*
X358089Y709559D02*
X367089D01*
Y691560D02*
Y709559D01*
X358089Y691560D02*
Y709559D01*
X356089Y668683D02*
Y686683D01*
X347090Y668683D02*
Y686683D01*
Y668683D02*
X356089D01*
X347090Y686683D02*
X356089D01*
X298267Y645487D02*
Y653487D01*
X283266Y645487D02*
Y653487D01*
X298267D01*
X283266Y645487D02*
X298267D01*
X324589Y583060D02*
Y592060D01*
X342589Y583060D02*
Y592060D01*
X324589Y583060D02*
X342589D01*
X324589Y592060D02*
X342589D01*
X87500Y671000D02*
X96500D01*
X87500Y653000D02*
X96500D01*
X87500D02*
Y671000D01*
X96500Y653000D02*
Y671000D01*
X357090Y669682D02*
X366089D01*
X357090Y687683D02*
X366089D01*
Y669682D02*
Y687683D01*
X357090Y669682D02*
Y687683D01*
X184090Y668560D02*
X193089D01*
X184090Y686560D02*
X193089D01*
Y668560D02*
Y686560D01*
X184090Y668560D02*
Y686560D01*
X184581Y649810D02*
X193582D01*
X184581Y667810D02*
X193582D01*
Y649810D02*
Y667810D01*
X184581Y649810D02*
Y667810D01*
X179589Y706310D02*
Y721310D01*
X187589Y706310D02*
Y721310D01*
X179589D02*
X187589D01*
X179589Y706310D02*
X187589D01*
X221089Y608770D02*
X230089D01*
X221089Y590770D02*
X230089D01*
X221089D02*
Y608770D01*
X230089Y590770D02*
Y608770D01*
X197089Y608560D02*
X206089D01*
X197089Y590560D02*
X206089D01*
X197089D02*
Y608560D01*
X206089Y590560D02*
Y608560D01*
X210089Y608770D02*
X219089D01*
X210089Y590770D02*
X219089D01*
X210089D02*
Y608770D01*
X219089Y590770D02*
Y608770D01*
X348900Y334000D02*
X366900D01*
X348900Y343000D02*
X366900D01*
X348900Y334000D02*
Y343000D01*
X366900Y334000D02*
Y343000D01*
X208000Y167500D02*
Y176500D01*
X190000Y167500D02*
Y176500D01*
X208000D01*
X190000Y167500D02*
X208000D01*
X252000Y252500D02*
X270000D01*
X252000Y261500D02*
X270000D01*
X252000Y252500D02*
Y261500D01*
X270000Y252500D02*
Y261500D01*
X407500Y328500D02*
X416500D01*
X407500Y310500D02*
X416500D01*
X407500D02*
Y328500D01*
X416500Y310500D02*
Y328500D01*
X254000Y207500D02*
X272000D01*
X254000Y216500D02*
X272000D01*
X254000Y207500D02*
Y216500D01*
X272000Y207500D02*
Y216500D01*
X291000Y354500D02*
X309000D01*
X291000Y345500D02*
X309000D01*
Y354500D01*
X291000Y345500D02*
Y354500D01*
X99500Y653000D02*
X108500D01*
X99500Y671000D02*
X108500D01*
Y653000D02*
Y671000D01*
X99500Y653000D02*
Y671000D01*
X118200Y706000D02*
X127200D01*
X118200Y724000D02*
X127200D01*
Y706000D02*
Y724000D01*
X118200Y706000D02*
Y724000D01*
X106500Y705000D02*
X115500D01*
X106500Y723000D02*
X115500D01*
Y705000D02*
Y723000D01*
X106500Y705000D02*
Y723000D01*
X127900Y651794D02*
X136900D01*
X127900Y669794D02*
X136900D01*
Y651794D02*
Y669794D01*
X127900Y651794D02*
Y669794D01*
X131500Y706000D02*
X140500D01*
X131500Y724000D02*
X140500D01*
Y706000D02*
Y724000D01*
X131500Y706000D02*
Y724000D01*
X117500Y652000D02*
X126500D01*
X117500Y670000D02*
X126500D01*
Y652000D02*
Y670000D01*
X117500Y652000D02*
Y670000D01*
X398000Y782500D02*
X406000D01*
X398000Y797500D02*
X406000D01*
Y782500D02*
Y797500D01*
X398000Y782500D02*
Y797500D01*
X312500Y384000D02*
X321500D01*
X312500Y366000D02*
X321500D01*
X312500D02*
Y384000D01*
X321500Y366000D02*
Y384000D01*
X301500D02*
X310500D01*
X301500Y366000D02*
X310500D01*
X301500D02*
Y384000D01*
X310500Y366000D02*
Y384000D01*
X288500Y384000D02*
X297500D01*
X288500Y366000D02*
X297500D01*
X288500D02*
Y384000D01*
X297500Y366000D02*
Y384000D01*
X377000Y165000D02*
X395000D01*
X377000Y174000D02*
X395000D01*
X377000Y165000D02*
Y174000D01*
X395000Y165000D02*
Y174000D01*
X368000Y184500D02*
X386000D01*
X368000Y175500D02*
X386000D01*
Y184500D01*
X368000Y175500D02*
Y184500D01*
X35590Y589500D02*
X53590D01*
X35590Y598500D02*
X53590D01*
X35590Y589500D02*
Y598500D01*
X53590Y589500D02*
Y598500D01*
X60500Y1132000D02*
Y1150000D01*
X69500Y1132000D02*
Y1150000D01*
X60500D02*
X69500D01*
X60500Y1132000D02*
X69500D01*
X79000Y532600D02*
Y547600D01*
X87000Y532600D02*
Y547600D01*
X79000D02*
X87000D01*
X79000Y532600D02*
X87000D01*
X334500Y1141000D02*
Y1159000D01*
X343500Y1141000D02*
Y1159000D01*
X334500D02*
X343500D01*
X334500Y1141000D02*
X343500D01*
X105500Y473000D02*
Y481000D01*
X120500Y473000D02*
Y481000D01*
X105500Y473000D02*
X120500D01*
X105500Y481000D02*
X120500D01*
X105500Y462000D02*
Y470000D01*
X120500Y462000D02*
Y470000D01*
X105500Y462000D02*
X120500D01*
X105500Y470000D02*
X120500D01*
X194500Y216000D02*
Y224000D01*
X209500Y216000D02*
Y224000D01*
X194500Y216000D02*
X209500D01*
X194500Y224000D02*
X209500D01*
X27000Y1003000D02*
Y1025000D01*
X15000Y1003000D02*
Y1025000D01*
Y1003000D02*
X27000D01*
X15000Y1025000D02*
X27000D01*
X56884Y1003077D02*
Y1025078D01*
X44885Y1003077D02*
Y1025078D01*
Y1003077D02*
X56884D01*
X44885Y1025078D02*
X56884D01*
X105750Y931096D02*
Y939096D01*
X120750Y931096D02*
Y939096D01*
X105750Y931096D02*
X120750D01*
X105750Y939096D02*
X120750D01*
X19261Y737522D02*
X61261D01*
Y780521D01*
X19261D02*
X61261D01*
X19261Y737522D02*
Y780521D01*
X102750Y919596D02*
Y930596D01*
X123750Y919596D02*
Y930596D01*
X102750Y919596D02*
X123750D01*
X102750Y930596D02*
X123750D01*
X337414Y415125D02*
X355414D01*
X337414Y424124D02*
X355414D01*
X337414Y415125D02*
Y424124D01*
X355414Y415125D02*
Y424124D01*
X27000Y992500D02*
X45000D01*
X27000Y983500D02*
X45000D01*
Y992500D01*
X27000Y983500D02*
Y992500D01*
X317987Y415500D02*
X335987D01*
X317987Y424500D02*
X335987D01*
X317987Y415500D02*
Y424500D01*
X335987Y415500D02*
Y424500D01*
X351500Y442418D02*
Y460418D01*
X342500Y442418D02*
Y460418D01*
Y442418D02*
X351500D01*
X342500Y460418D02*
X351500D01*
X330156Y443000D02*
Y461000D01*
X321156Y443000D02*
Y461000D01*
Y443000D02*
X330156D01*
X321156Y461000D02*
X330156D01*
X155793Y195000D02*
X164793D01*
X155793Y177000D02*
X164793D01*
X155793D02*
Y195000D01*
X164793Y177000D02*
Y195000D01*
X69500Y466000D02*
Y474000D01*
X54500Y466000D02*
Y474000D01*
X69500D01*
X54500Y466000D02*
X69500D01*
X165311Y945632D02*
Y956632D01*
X144311Y945632D02*
Y956632D01*
X165311D01*
X144311Y945632D02*
X165311D01*
X238385Y949764D02*
X256385D01*
X238385Y958764D02*
X256385D01*
X238385Y949764D02*
Y958764D01*
X256385Y949764D02*
Y958764D01*
X259134Y939808D02*
Y948808D01*
X241134Y939808D02*
Y948808D01*
X259134D01*
X241134Y939808D02*
X259134D01*
X239884Y929422D02*
X257884D01*
X239884Y938423D02*
X257884D01*
X239884Y929422D02*
Y938423D01*
X257884Y929422D02*
Y938423D01*
X113000Y939096D02*
Y957097D01*
X122000Y939096D02*
Y957097D01*
X113000D02*
X122000D01*
X113000Y939096D02*
X122000D01*
X144000Y931674D02*
X162000D01*
X144000Y922674D02*
X162000D01*
Y931674D01*
X144000Y922674D02*
Y931674D01*
X240250Y919597D02*
Y928596D01*
X258250Y919597D02*
Y928596D01*
X240250Y919597D02*
X258250D01*
X240250Y928596D02*
X258250D01*
X240250Y909596D02*
X258250D01*
X240250Y918596D02*
X258250D01*
X240250Y909596D02*
Y918596D01*
X258250Y909596D02*
Y918596D01*
X7000Y524500D02*
Y533500D01*
X25000Y524500D02*
Y533500D01*
X7000Y524500D02*
X25000D01*
X7000Y533500D02*
X25000D01*
X21500Y571000D02*
Y589000D01*
X12500Y571000D02*
Y589000D01*
Y571000D02*
X21500D01*
X12500Y589000D02*
X21500D01*
X58000Y1121500D02*
X76000D01*
X58000Y1112500D02*
X76000D01*
Y1121500D01*
X58000Y1112500D02*
Y1121500D01*
X7500Y339000D02*
X16500D01*
X7500Y321000D02*
X16500D01*
X7500D02*
Y339000D01*
X16500Y321000D02*
Y339000D01*
M02*
