G04*
G04 #@! TF.GenerationSoftware,Altium Limited,Altium Designer,25.1.2 (22)*
G04*
G04 Layer_Physical_Order=12*
G04 Layer_Color=16737945*
%FSLAX44Y44*%
%MOMM*%
G71*
G04*
G04 #@! TF.SameCoordinates,95D3A89C-EAAA-4EA1-B578-E8640D1D2C9C*
G04*
G04*
G04 #@! TF.FilePolarity,Positive*
G04*
G01*
G75*
%ADD13C,0.1524*%
%ADD16C,0.1270*%
%ADD209C,2.3000*%
%ADD212C,0.6500*%
G04:AMPARAMS|DCode=213|XSize=0.95mm|YSize=0.65mm|CornerRadius=0.325mm|HoleSize=0mm|Usage=FLASHONLY|Rotation=90.000|XOffset=0mm|YOffset=0mm|HoleType=Round|Shape=RoundedRectangle|*
%AMROUNDEDRECTD213*
21,1,0.9500,0.0000,0,0,90.0*
21,1,0.3000,0.6500,0,0,90.0*
1,1,0.6500,0.0000,0.1500*
1,1,0.6500,0.0000,-0.1500*
1,1,0.6500,0.0000,-0.1500*
1,1,0.6500,0.0000,0.1500*
%
%ADD213ROUNDEDRECTD213*%
G04:AMPARAMS|DCode=214|XSize=0.8mm|YSize=1.4mm|CornerRadius=0.4mm|HoleSize=0mm|Usage=FLASHONLY|Rotation=90.000|XOffset=0mm|YOffset=0mm|HoleType=Round|Shape=RoundedRectangle|*
%AMROUNDEDRECTD214*
21,1,0.8000,0.6000,0,0,90.0*
21,1,0.0000,1.4000,0,0,90.0*
1,1,0.8000,0.3000,0.0000*
1,1,0.8000,0.3000,0.0000*
1,1,0.8000,-0.3000,0.0000*
1,1,0.8000,-0.3000,0.0000*
%
%ADD214ROUNDEDRECTD214*%
%ADD215C,0.4064*%
%ADD224C,0.1397*%
%ADD225O,1.2000X1.9000*%
%ADD226O,1.0500X1.2500*%
%ADD227C,1.5500*%
%ADD228R,1.5500X1.5500*%
%ADD229C,0.5000*%
%ADD230C,5.0000*%
D13*
X363040Y180413D02*
X363727D01*
X361741Y179114D02*
X363040Y180413D01*
X325390Y179114D02*
X361741D01*
X317485Y187020D02*
X325390Y179114D01*
X317485Y187020D02*
Y187844D01*
X311093Y194236D02*
X317485Y187844D01*
X326943Y190100D02*
X380990D01*
X397440Y173650D02*
X400502D01*
X380990Y190100D02*
X397440Y173650D01*
X317265Y199778D02*
X326943Y190100D01*
X64016Y973282D02*
Y973969D01*
X62846Y975140D02*
X64016Y973969D01*
X62846Y975140D02*
Y999485D01*
D16*
X330076Y222302D02*
G03*
X331981Y224207I0J1905D01*
G01*
X335791Y225542D02*
G03*
X331981Y225542I-1905J0D01*
G01*
X335791Y224207D02*
G03*
X339601Y224207I1905J0D01*
G01*
X343411Y225542D02*
G03*
X339601Y225542I-1905J0D01*
G01*
X343411Y224207D02*
G03*
X345316Y222302I1905J0D01*
G01*
X350714Y222206D02*
G03*
X350079Y222284I-1128J-6621D01*
G01*
X354335Y220335D02*
G03*
X350714Y222206I-4749J-4749D01*
G01*
X185823Y895790D02*
G03*
X183918Y893885I0J-1905D01*
G01*
X180108Y892421D02*
G03*
X183918Y892421I1905J0D01*
G01*
X180108Y893885D02*
G03*
X176298Y893885I-1905J0D01*
G01*
X172488Y892421D02*
G03*
X176298Y892421I1905J0D01*
G01*
X172488Y893885D02*
G03*
X170583Y895790I-1905J0D01*
G01*
X166773Y895663D02*
G03*
X166138Y895591I2539J-25273D01*
G01*
D02*
G03*
X151351Y888351I3174J-25201D01*
G01*
X225244Y832608D02*
G03*
X227938Y832608I1347J1347D01*
G01*
X224568Y833285D02*
G03*
X221874Y833285I-1347J-1347D01*
G01*
D02*
G03*
X221874Y830591I1347J-1347D01*
G01*
X222550Y827220D02*
G03*
X222550Y829914I-1347J1347D01*
G01*
X219856Y827220D02*
G03*
X222550Y827220I1347J1347D01*
G01*
X218660Y828416D02*
G03*
X215966Y828416I-1347J-1347D01*
G01*
D02*
G03*
X215966Y825722I1347J-1347D01*
G01*
X217162Y821832D02*
G03*
X217162Y824526I-1347J1347D01*
G01*
X172000Y600065D02*
G03*
X173905Y598160I1905J0D01*
G01*
X177646Y594350D02*
G03*
X177646Y598160I0J1905D01*
G01*
X173905Y594350D02*
G03*
X172000Y592445I0J-1905D01*
G01*
X83631Y495631D02*
G03*
X83631Y498325I-1347J1347D01*
G01*
X82121Y502529D02*
G03*
X82121Y499835I1347J-1347D01*
G01*
X84815Y502529D02*
G03*
X82121Y502529I-1347J-1347D01*
G01*
X86325Y501019D02*
G03*
X89019Y501019I1347J1347D01*
G01*
X91545Y503882D02*
G03*
X91926Y504399I-20247J15337D01*
G01*
X63000Y485000D02*
G03*
X80071Y492071I0J24142D01*
G01*
X91926Y504399D02*
G03*
X96698Y519219I-20628J14820D01*
G01*
X183935Y185772D02*
G03*
X185840Y187677I0J1905D01*
G01*
X189650Y189383D02*
G03*
X185840Y189383I-1905J0D01*
G01*
X189650Y187677D02*
G03*
X191555Y185772I1905J0D01*
G01*
X256995Y1178000D02*
G03*
X255090Y1176095I0J-1905D01*
G01*
X251280Y1173575D02*
G03*
X255090Y1173575I1905J0D01*
G01*
X251280Y1176095D02*
G03*
X249375Y1178000I-1905J0D01*
G01*
X196254Y1155746D02*
G03*
X205298Y1152000I9043J9043D01*
G01*
X197622Y1159048D02*
G03*
X206665Y1155302I9043J9043D01*
G01*
X193574Y1158426D02*
G03*
X187953Y1160754I-5621J-5621D01*
G01*
X180649D02*
G03*
X174000Y1158000I0J-9403D01*
G01*
D02*
G03*
X171302Y1151486I6514J-6514D01*
G01*
X195909Y1160761D02*
G03*
X187953Y1164056I-7956J-7956D01*
G01*
X180649D02*
G03*
X171665Y1160335I0J-12705D01*
G01*
D02*
G03*
X168000Y1151486I8849J-8849D01*
G01*
X363896Y215385D02*
G03*
X365015Y214922I1119J1119D01*
G01*
X363896Y215385D02*
G03*
X362777Y215849I-1119J-1119D01*
G01*
X352000Y218000D02*
G03*
X357193Y215849I5193J5193D01*
G01*
X352000Y218000D02*
G03*
X349586Y219000I-2414J-2414D01*
G01*
X325220D02*
G03*
X317398Y215760I0J-11061D01*
G01*
X310005Y212698D02*
G03*
X317398Y215760I0J10455D01*
G01*
X365015Y220078D02*
G03*
X363896Y219615I0J-1583D01*
G01*
X362777Y219151D02*
G03*
X363896Y219615I0J1583D01*
G01*
X354335Y220335D02*
G03*
X357193Y219151I2858J2858D01*
G01*
X325220Y222302D02*
G03*
X315063Y218095I0J-14363D01*
G01*
X310005Y216000D02*
G03*
X315063Y218095I0J7153D01*
G01*
X286665Y214665D02*
G03*
X291414Y212698I4749J4749D01*
G01*
X283829Y221512D02*
G03*
X286665Y214665I9683J0D01*
G01*
X287092Y233911D02*
G03*
X283829Y226035I7876J-7876D01*
G01*
X293306Y236485D02*
G03*
X287092Y233911I0J-8789D01*
G01*
X303696Y233024D02*
G03*
X295339Y236485I-8357J-8357D01*
G01*
X304873Y231847D02*
G03*
X305992Y231383I1119J1119D01*
G01*
X307111Y230920D02*
G03*
X305992Y231383I-1119J-1119D01*
G01*
X289000Y217000D02*
G03*
X291414Y216000I2414J2414D01*
G01*
X287131Y221512D02*
G03*
X289000Y217000I6381J0D01*
G01*
X289426Y231576D02*
G03*
X287131Y226035I5541J-5541D01*
G01*
X293306Y233183D02*
G03*
X289426Y231576I0J-5487D01*
G01*
X301361Y230689D02*
G03*
X295339Y233183I-6022J-6022D01*
G01*
X303002Y228393D02*
G03*
X302538Y229512I-1583J0D01*
G01*
X303002Y228393D02*
G03*
X303465Y227274I1583J0D01*
G01*
X368000Y254922D02*
G03*
X366709Y255457I-1291J-1291D01*
G01*
X365000Y256000D02*
G03*
X366312Y255457I1312J1312D01*
G01*
X348905Y258095D02*
G03*
X353963Y256000I5058J5058D01*
G01*
X322415Y258095D02*
G03*
X317890Y256221I0J-6399D01*
G01*
X300542Y243437D02*
G03*
X308335Y246665I0J11020D01*
G01*
X299771Y243437D02*
G03*
X298652Y242974I0J-1583D01*
G01*
X297533Y242510D02*
G03*
X298652Y242974I0J1583D01*
G01*
X366709Y259543D02*
G03*
X368000Y260078I0J1825D01*
G01*
X365583Y259543D02*
G03*
X365000Y259302I0J-825D01*
G01*
X351240Y260430D02*
G03*
X353963Y259302I2723J2723D01*
G01*
X351240Y260430D02*
G03*
X348905Y261397I-2335J-2335D01*
G01*
X322415D02*
G03*
X315556Y258556I0J-9701D01*
G01*
X300542Y246739D02*
G03*
X306000Y249000I0J7718D01*
G01*
X298652Y247203D02*
G03*
X299771Y246739I1119J1119D01*
G01*
X298652Y247203D02*
G03*
X297533Y247666I-1119J-1119D01*
G01*
X361328Y1206100D02*
G03*
X360865Y1207220I-1583J0D01*
G01*
X360401Y1208339D02*
G03*
X360865Y1207220I1583J0D01*
G01*
X360401Y1216476D02*
G03*
X354184Y1231486I-21228J0D01*
G01*
X350335Y1235335D02*
G03*
X340757Y1239302I-9578J-9578D01*
G01*
X333243D02*
G03*
X323665Y1235335I0J-13545D01*
G01*
D02*
G03*
X320000Y1226486I8849J-8849D01*
G01*
X314343Y1195343D02*
G03*
X320000Y1209000I-13657J13657D01*
G01*
X289781Y1181302D02*
G03*
X307742Y1188742I0J25400D01*
G01*
X356636Y1207220D02*
G03*
X356172Y1206100I1119J-1119D01*
G01*
X356636Y1207220D02*
G03*
X357099Y1208339I-1119J1119D01*
G01*
Y1215792D02*
G03*
X351365Y1229635I-19577J0D01*
G01*
X348000Y1233000D02*
G03*
X340757Y1236000I-7243J-7243D01*
G01*
X333243D02*
G03*
X326000Y1233000I0J-10243D01*
G01*
D02*
G03*
X323302Y1226486I6514J-6514D01*
G01*
X316678Y1193008D02*
G03*
X323302Y1209000I-15992J15992D01*
G01*
X289781Y1178000D02*
G03*
X310076Y1186407I0J28702D01*
G01*
X85191Y1178000D02*
G03*
X67230Y1170561I0J-25400D01*
G01*
X55072Y1165000D02*
G03*
X66335Y1169665I0J15928D01*
G01*
X38939Y1165000D02*
G03*
X31600Y1161960I0J-10379D01*
G01*
D02*
G03*
X27998Y1153263I8697J-8697D01*
G01*
X22000Y1128000D02*
G03*
X27998Y1142479I-14479J14479D01*
G01*
X22000Y1128000D02*
G03*
X20302Y1123901I4099J-4099D01*
G01*
X15000Y961000D02*
G03*
X20302Y973800I-12800J12800D01*
G01*
X15000Y961000D02*
G03*
X11000Y951343I9657J-9657D01*
G01*
Y926972D02*
G03*
X13335Y921335I7972J0D01*
G01*
X15651Y915743D02*
G03*
X13335Y921335I-7908J0D01*
G01*
X15651Y886489D02*
G03*
X16115Y885370I1583J0D01*
G01*
X16578Y884251D02*
G03*
X16115Y885370I-1583J0D01*
G01*
X85191Y1181302D02*
G03*
X64895Y1172895I0J-28702D01*
G01*
X55072Y1168302D02*
G03*
X64000Y1172000I0J12626D01*
G01*
X38939Y1168302D02*
G03*
X29265Y1164295I0J-13681D01*
G01*
D02*
G03*
X24695Y1153263I11032J-11032D01*
G01*
X19665Y1130335D02*
G03*
X24695Y1142479I-12144J12144D01*
G01*
X19665Y1130335D02*
G03*
X17000Y1123901I6434J-6434D01*
G01*
X12665Y963335D02*
G03*
X17000Y973800I-10465J10465D01*
G01*
X12665Y963335D02*
G03*
X7698Y951343I11992J-11992D01*
G01*
Y926972D02*
G03*
X11000Y919000I11274J0D01*
G01*
X12349Y915743D02*
G03*
X11000Y919000I-4606J0D01*
G01*
X11885Y885370D02*
G03*
X12349Y886489I-1119J1119D01*
G01*
X11885Y885370D02*
G03*
X11422Y884251I1119J-1119D01*
G01*
X203698Y678845D02*
G03*
X212105Y658549I28702J0D01*
G01*
X220537Y642419D02*
G03*
X215094Y655560I-18584J0D01*
G01*
X220537Y638999D02*
G03*
X228694Y619306I27850J0D01*
G01*
X230698Y614901D02*
G03*
X229000Y619000I-5797J0D01*
G01*
X230698Y593000D02*
G03*
X233816Y585473I10645J0D01*
G01*
X243940Y573209D02*
G03*
X242427Y576862I-5166J0D01*
G01*
X243940Y571817D02*
G03*
X252347Y551522I28702J0D01*
G01*
X263000Y535919D02*
G03*
X259500Y544369I-11950J0D01*
G01*
X207000Y678845D02*
G03*
X214440Y660884I25400J0D01*
G01*
X223839Y642419D02*
G03*
X217429Y657895I-21886J0D01*
G01*
X223839Y638999D02*
G03*
X231029Y621641I24548J0D01*
G01*
X234000Y614901D02*
G03*
X231335Y621335I-9099J0D01*
G01*
X234000Y593000D02*
G03*
X236151Y587808I7343J0D01*
G01*
X247242Y573209D02*
G03*
X244762Y579197I-8468J0D01*
G01*
X247242Y571817D02*
G03*
X254681Y553857I25400J0D01*
G01*
X266302Y535919D02*
G03*
X261835Y546703I-15252J0D01*
G01*
X245964Y182470D02*
G03*
X263335Y189665I0J24566D01*
G01*
D02*
G03*
X267828Y200512I-10847J10847D01*
G01*
Y214588D02*
G03*
X264182Y223391I-12449J0D01*
G01*
X263960Y223613D02*
G03*
X256590Y226666I-7369J-7369D01*
G01*
X250000D02*
G03*
X244839Y224528I0J-7299D01*
G01*
X233190Y213535D02*
G03*
X234309Y213998I0J1583D01*
G01*
X233190Y213535D02*
G03*
X232071Y213071I0J-1583D01*
G01*
X245964Y185772D02*
G03*
X261000Y192000I0J21264D01*
G01*
D02*
G03*
X264526Y200512I-8512J8512D01*
G01*
Y214588D02*
G03*
X261847Y221056I-9147J0D01*
G01*
X261625Y221278D02*
G03*
X256590Y223364I-5034J-5034D01*
G01*
X250000D02*
G03*
X247174Y222193I0J-3997D01*
G01*
X236644Y211663D02*
G03*
X236181Y210544I1119J-1119D01*
G01*
X235717Y209425D02*
G03*
X236181Y210544I-1119J1119D01*
G01*
X128935Y182470D02*
G03*
X117335Y177665I0J-16405D01*
G01*
X105734Y172860D02*
G03*
X117335Y177665I0J16406D01*
G01*
X53294Y181266D02*
G03*
X73589Y172860I20295J20295D01*
G01*
X46698Y194180D02*
G03*
X51165Y183395I15252J0D01*
G01*
X51665Y218335D02*
G03*
X46698Y206343I11992J-11992D01*
G01*
X64000Y224000D02*
G03*
X52614Y219284I0J-16102D01*
G01*
X64000Y224000D02*
G03*
X77657Y229657I0J19314D01*
G01*
X80000Y232000D02*
G03*
X86320Y247257I-15257J15257D01*
G01*
X94726Y358726D02*
G03*
X86320Y338431I20295J-20295D01*
G01*
X117561Y381561D02*
G03*
X125000Y399521I-17960J17960D01*
G01*
Y423766D02*
G03*
X118763Y438822I-21293J0D01*
G01*
X115000Y447908D02*
G03*
X118763Y438822I12849J0D01*
G01*
X115000Y529259D02*
G03*
X112621Y535002I-8121J0D01*
G01*
X112621D02*
G03*
X111502Y535465I-1119J-1119D01*
G01*
X110383Y535929D02*
G03*
X111502Y535465I1119J1119D01*
G01*
X128935Y185772D02*
G03*
X115000Y180000I0J-19707D01*
G01*
X105734Y176162D02*
G03*
X115000Y180000I0J13104D01*
G01*
X55629Y183601D02*
G03*
X73589Y176162I17960J17960D01*
G01*
X50000Y194180D02*
G03*
X53500Y185730I11950J0D01*
G01*
X54000Y216000D02*
G03*
X50000Y206343I9657J-9657D01*
G01*
X64000Y220698D02*
G03*
X54949Y216949I0J-12800D01*
G01*
X64000Y220698D02*
G03*
X79992Y227322I0J22616D01*
G01*
X82335Y229665D02*
G03*
X89622Y247257I-17592J17592D01*
G01*
X97061Y356391D02*
G03*
X89622Y338431I17960J-17960D01*
G01*
X119895Y379226D02*
G03*
X128302Y399521I-20295J20295D01*
G01*
Y423766D02*
G03*
X121098Y441157I-24595J0D01*
G01*
X118302Y447908D02*
G03*
X121098Y441157I9547J0D01*
G01*
X118302Y529259D02*
G03*
X114956Y537337I-11423J0D01*
G01*
X114493Y538456D02*
G03*
X114956Y537337I1583J0D01*
G01*
X114493Y538456D02*
G03*
X114029Y539575I-1583J0D01*
G01*
X34556Y376729D02*
G03*
X37550Y369514I10189J0D01*
G01*
X48840Y365372D02*
G03*
X60000Y370000I-13J15801D01*
G01*
X37704Y369360D02*
G03*
X47318Y365372I9614J9595D01*
G01*
X48827D02*
G03*
X48840Y365372I0J15801D01*
G01*
X30327Y383899D02*
G03*
X30791Y382780I1583J0D01*
G01*
X31254Y381661D02*
G03*
X30791Y382780I-1583J0D01*
G01*
X31254Y376729D02*
G03*
X35206Y367189I13491J0D01*
G01*
X35379Y367015D02*
G03*
X47318Y362070I11939J11939D01*
G01*
X35020Y382780D02*
G03*
X35483Y383899I-1119J1119D01*
G01*
X35020Y382780D02*
G03*
X34556Y381661I1119J-1119D01*
G01*
X48827Y362070D02*
G03*
X62335Y367665I0J19103D01*
G01*
Y367665D02*
G03*
X63302Y370000I-2335J2335D01*
G01*
X57897Y384161D02*
G03*
X57889Y384170I-13077J-13060D01*
G01*
X63302Y375583D02*
G03*
X61065Y380993I-7661J0D01*
G01*
X56302Y388000D02*
G03*
X57889Y384170I5417J0D01*
G01*
X56302Y388000D02*
G03*
X51389Y399861I-16774J0D01*
G01*
X41027Y420086D02*
G03*
X48000Y403250I23809J0D01*
G01*
X43000Y468000D02*
G03*
X41027Y463236I4764J-4764D01*
G01*
X63000Y481698D02*
G03*
X52242Y477242I0J-15215D01*
G01*
X63000Y481698D02*
G03*
X82406Y489736I0J27444D01*
G01*
X91593Y498924D02*
G03*
X100000Y519219I-20295J20295D01*
G01*
X104000Y554000D02*
G03*
X100000Y544343I9657J-9657D01*
G01*
X107257Y555349D02*
G03*
X104000Y554000I0J-4606D01*
G01*
X114780Y554885D02*
G03*
X113661Y555349I-1119J-1119D01*
G01*
X114780Y554885D02*
G03*
X115899Y554422I1119J1119D01*
G01*
X60000Y375583D02*
G03*
X58723Y378665I-4359J0D01*
G01*
X53000Y388000D02*
G03*
X55554Y381835I8719J0D01*
G01*
X53000Y388000D02*
G03*
X49054Y397526I-13472J0D01*
G01*
X37724Y420086D02*
G03*
X45665Y400915I27111J0D01*
G01*
X40665Y470335D02*
G03*
X37724Y463235I7099J-7099D01*
G01*
X63000Y485000D02*
G03*
X49907Y479577I0J-18516D01*
G01*
X101665Y556335D02*
G03*
X96698Y544343I11992J-11992D01*
G01*
X107257Y558651D02*
G03*
X101665Y556335I0J-7908D01*
G01*
X113661Y558651D02*
G03*
X114780Y559115I0J1583D01*
G01*
X115899Y559578D02*
G03*
X114780Y559115I0J-1583D01*
G01*
X416810Y1162465D02*
G03*
X417929Y1162929I0J1583D01*
G01*
X416810Y1162465D02*
G03*
X415691Y1162002I0J-1583D01*
G01*
X412681Y1160431D02*
G03*
X415137Y1161448I0J3474D01*
G01*
X406827Y1162232D02*
G03*
X411175Y1160431I4348J4348D01*
G01*
X406827Y1162232D02*
G03*
X402478Y1164033I-4348J-4348D01*
G01*
X398000Y1165000D02*
G03*
X400335Y1164033I2335J2335D01*
G01*
X398000Y1165000D02*
G03*
X389550Y1168500I-8450J-8450D01*
G01*
X376125D02*
G03*
X358165Y1161060I0J-25400D01*
G01*
X337620Y1152000D02*
G03*
X357225Y1160120I0J27725D01*
G01*
X414283Y1166575D02*
G03*
X413819Y1165456I1119J-1119D01*
G01*
X413356Y1164337D02*
G03*
X413819Y1165456I-1119J1119D01*
G01*
X411997Y1163733D02*
G03*
X413286Y1164267I0J1823D01*
G01*
X409021Y1164707D02*
G03*
X411374Y1163733I2353J2353D01*
G01*
X408194Y1165534D02*
G03*
X403846Y1167335I-4348J-4348D01*
G01*
X400335D02*
G03*
X389550Y1171802I-10785J-10785D01*
G01*
X376125D02*
G03*
X355830Y1163395I0J-28702D01*
G01*
X337620Y1155302D02*
G03*
X354890Y1162455I0J24423D01*
G01*
X160560Y1106230D02*
G03*
X168000Y1124191I-17960J17960D01*
G01*
X135407Y1081076D02*
G03*
X127000Y1060781I20295J-20295D01*
G01*
X119560Y1035561D02*
G03*
X127000Y1053521I-17960J17960D01*
G01*
X102520Y1027588D02*
G03*
X118000Y1034000I0J21892D01*
G01*
X100806Y1027588D02*
G03*
X97527Y1026229I0J-4638D01*
G01*
X162895Y1103895D02*
G03*
X171302Y1124191I-20295J20295D01*
G01*
X137741Y1078742D02*
G03*
X130302Y1060781I17960J-17960D01*
G01*
X121895Y1033226D02*
G03*
X130302Y1053521I-20295J20295D01*
G01*
X102520Y1024286D02*
G03*
X120335Y1031665I0J25194D01*
G01*
X100806Y1024286D02*
G03*
X99862Y1023895I0J-1336D01*
G01*
X86337Y1010370D02*
G03*
X82000Y999900I10470J-10470D01*
G01*
X101000Y707918D02*
G03*
X96635Y718457I-14904J0D01*
G01*
X82000Y743613D02*
G03*
X89439Y725652I25400J0D01*
G01*
X101000Y659191D02*
G03*
X108440Y641230I25400J0D01*
G01*
X116229Y626519D02*
G03*
X111335Y638335I-16710J0D01*
G01*
X84002Y1012705D02*
G03*
X78698Y999900I12805J-12805D01*
G01*
Y743613D02*
G03*
X87105Y723317I28702J0D01*
G01*
X97698Y707918D02*
G03*
X94300Y716122I-11601J0D01*
G01*
X97698Y659191D02*
G03*
X106105Y638895I28702J0D01*
G01*
X112927Y626519D02*
G03*
X109000Y636000I-13408J0D01*
G01*
X112464Y598220D02*
G03*
X112927Y599339I-1119J1119D01*
G01*
X112464Y598220D02*
G03*
X112000Y597100I1119J-1119D01*
G01*
X116229Y599339D02*
G03*
X116693Y598220I1583J0D01*
G01*
X117156Y597100D02*
G03*
X116693Y598220I-1583J0D01*
G01*
X81832Y1117832D02*
G03*
X90238Y1138127I-20295J20295D01*
G01*
Y1141911D02*
G03*
X86342Y1151328I-13327J0D01*
G01*
X84226Y1153444D02*
G03*
X77690Y1156151I-6536J-6536D01*
G01*
X76571Y1156615D02*
G03*
X77690Y1156151I1119J1119D01*
G01*
X76571Y1156615D02*
G03*
X75452Y1157078I-1119J-1119D01*
G01*
X79497Y1120167D02*
G03*
X86936Y1138127I-17960J17960D01*
G01*
Y1141911D02*
G03*
X84000Y1149000I-10025J0D01*
G01*
X81891Y1151109D02*
G03*
X77690Y1152849I-4201J-4201D01*
G01*
D02*
G03*
X76571Y1152385I0J-1583D01*
G01*
X75452Y1151922D02*
G03*
X76571Y1152385I0J1583D01*
G01*
X40440Y1076440D02*
G03*
X33000Y1058479I17960J-17960D01*
G01*
Y899000D02*
G03*
X39597Y883072I22525J0D01*
G01*
X60000Y850781D02*
G03*
X51593Y871076I-28702J0D01*
G01*
X60000Y674071D02*
G03*
X65000Y662000I17071J0D01*
G01*
D02*
G03*
X78756Y656302I13756J13756D01*
G01*
X86456Y653214D02*
G03*
X79000Y656302I-7456J-7456D01*
G01*
X97000Y638901D02*
G03*
X94335Y645335I-9100J0D01*
G01*
X97000Y598000D02*
G03*
X103294Y582806I21488J0D01*
G01*
X108240Y577859D02*
G03*
X112520Y576087I4280J4280D01*
G01*
X38105Y1078774D02*
G03*
X29698Y1058479I20295J-20295D01*
G01*
Y899000D02*
G03*
X37263Y880737I25827J0D01*
G01*
X56698Y850781D02*
G03*
X49258Y868742I-25400J0D01*
G01*
X56698Y674071D02*
G03*
X62665Y659665I20373J0D01*
G01*
D02*
G03*
X78756Y653000I16091J16091D01*
G01*
X84121Y650879D02*
G03*
X79000Y653000I-5121J-5121D01*
G01*
X93698Y638901D02*
G03*
X92000Y643000I-5798J0D01*
G01*
X93698Y596445D02*
G03*
X99860Y581570I21037J0D01*
G01*
X105905Y575524D02*
G03*
X112520Y572785I6615J6615D01*
G01*
X122543D02*
G03*
X126337Y574356I0J5365D01*
G01*
X127456Y574819D02*
G03*
X126337Y574356I0J-1583D01*
G01*
X127456Y574819D02*
G03*
X128575Y575283I0J1583D01*
G01*
X122543Y576087D02*
G03*
X124002Y576691I0J2063D01*
G01*
Y576691D02*
G03*
X124465Y577810I-1119J1119D01*
G01*
X124929Y578929D02*
G03*
X124465Y577810I1119J-1119D01*
G01*
X186623Y875194D02*
G03*
X190062Y866904I11713J0D01*
G01*
X182394Y882996D02*
G03*
X182858Y881877I1583J0D01*
G01*
X183321Y880758D02*
G03*
X182858Y881877I-1583J0D01*
G01*
X183321Y875194D02*
G03*
X187719Y864577I15015J0D01*
G01*
X199737Y848846D02*
G03*
X197112Y855185I-8964J0D01*
G01*
X199665Y831335D02*
G03*
X199737Y831756I-1198J421D01*
G01*
X199665Y831335D02*
G03*
X196809Y824440I6895J-6895D01*
G01*
X192398Y804068D02*
G03*
X196809Y814717I-10649J10649D01*
G01*
X183665Y795335D02*
G03*
X178698Y783343I11992J-11992D01*
G01*
Y767214D02*
G03*
X185000Y752000I21516J0D01*
G01*
X187698Y745487D02*
G03*
X185000Y752000I-9212J0D01*
G01*
X186698Y713431D02*
G03*
X187698Y715845I-2414J2414D01*
G01*
X186698Y713431D02*
G03*
X185698Y711016I2414J-2414D01*
G01*
Y679669D02*
G03*
X188495Y672917I9549J0D01*
G01*
X189119Y671410D02*
G03*
X188495Y672917I-2131J0D01*
G01*
X189119Y645770D02*
G03*
X197525Y625475I28702J0D01*
G01*
X207523Y611909D02*
G03*
X205000Y618000I-8614J0D01*
G01*
X187087Y881877D02*
G03*
X187551Y882996I-1119J1119D01*
G01*
X187087Y881877D02*
G03*
X186623Y880758I1119J-1119D01*
G01*
X203039Y848846D02*
G03*
X199446Y857520I-12266J0D01*
G01*
X202000Y829000D02*
G03*
X203039Y831508I-2508J2508D01*
G01*
X202000Y829000D02*
G03*
X200111Y824440I4560J-4560D01*
G01*
X194733Y801733D02*
G03*
X200111Y814717I-12984J12984D01*
G01*
X186000Y793000D02*
G03*
X182000Y783343I9657J-9657D01*
G01*
Y767214D02*
G03*
X187335Y754335I18214J0D01*
G01*
X191000Y745487D02*
G03*
X187335Y754335I-12514J0D01*
G01*
X190000Y712063D02*
G03*
X191000Y714477I-2414J2414D01*
G01*
X190000Y712063D02*
G03*
X189000Y709649I2414J-2414D01*
G01*
Y679669D02*
G03*
X190830Y675252I6247J0D01*
G01*
X192421Y671410D02*
G03*
X190830Y675252I-5433J0D01*
G01*
X192421Y645770D02*
G03*
X199860Y627809I25400J0D01*
G01*
X210825Y611909D02*
G03*
X207335Y620335I-11916J0D01*
G01*
X160672Y882996D02*
G03*
X161135Y881877I1583J0D01*
G01*
X161599Y880758D02*
G03*
X161135Y881877I-1583J0D01*
G01*
X161599Y859642D02*
G03*
X164652Y852271I10424J0D01*
G01*
D02*
G03*
X172119Y849178I7467J7467D01*
G01*
X173184Y848750D02*
G03*
X172150Y849178I-1034J-1034D01*
G01*
X180426Y838585D02*
G03*
X178359Y843576I-7058J0D01*
G01*
X176428Y820746D02*
G03*
X180426Y830398I-9652J9652D01*
G01*
X165267Y809585D02*
G03*
X161698Y800968I8617J-8617D01*
G01*
Y715800D02*
G03*
X167000Y703000I18102J0D01*
G01*
X168698Y698901D02*
G03*
X167000Y703000I-5798J0D01*
G01*
X168698Y571000D02*
G03*
X174141Y557859I18585J0D01*
G01*
X189698Y535658D02*
G03*
X185000Y547000I-16040J0D01*
G01*
X189698Y523191D02*
G03*
X198105Y502895I28702J0D01*
G01*
X202698Y494487D02*
G03*
X200000Y501000I-9212J0D01*
G01*
X202698Y483243D02*
G03*
X206665Y473665I13545J0D01*
G01*
X165364Y881877D02*
G03*
X165828Y882996I-1119J1119D01*
G01*
X165364Y881877D02*
G03*
X164901Y880758I1119J-1119D01*
G01*
Y859642D02*
G03*
X166987Y854606I7122J0D01*
G01*
D02*
G03*
X172119Y852480I5132J5132D01*
G01*
X175519Y851085D02*
G03*
X172150Y852480I-3369J-3369D01*
G01*
X183728Y838585D02*
G03*
X180694Y845910I-10360J0D01*
G01*
X178763Y818411D02*
G03*
X183728Y830398I-11987J11987D01*
G01*
X167602Y807250D02*
G03*
X165000Y800968I6282J-6282D01*
G01*
Y715800D02*
G03*
X169335Y705335I14800J0D01*
G01*
X172000Y698901D02*
G03*
X169335Y705335I-9100J0D01*
G01*
X172000Y571000D02*
G03*
X176476Y560193I15283J0D01*
G01*
X193000Y535658D02*
G03*
X187335Y549335I-19342J0D01*
G01*
X193000Y523191D02*
G03*
X200439Y505230I25400J0D01*
G01*
X206000Y494487D02*
G03*
X202335Y503335I-12514J0D01*
G01*
X206000Y483243D02*
G03*
X209000Y476000I10243J0D01*
G01*
X214748Y465582D02*
G03*
X225810Y461000I11061J11061D01*
G01*
X217083Y467917D02*
G03*
X225810Y464302I8727J8727D01*
G01*
X232486Y461000D02*
G03*
X237531Y462163I-4162J29583D01*
G01*
X232161Y464302D02*
G03*
X236994Y465465I-3601J25596D01*
G01*
Y465465D02*
G03*
X237312Y465631I-424J1197D01*
G01*
X238114Y462358D02*
G03*
X239241Y462951I-1543J4304D01*
G01*
X245125Y473683D02*
G03*
X242996Y474894I-1231J313D01*
G01*
X243257Y469908D02*
G03*
X244705Y472032I-2195J3052D01*
G01*
X247127Y479025D02*
G03*
X247127Y477229I898J-898D01*
G01*
X248325Y472868D02*
G03*
X247127Y477229I-4431J1128D01*
G01*
X245186Y467228D02*
G03*
X247905Y471217I-4124J5732D01*
G01*
X148665Y890335D02*
G03*
X145698Y883172I7163J-7163D01*
G01*
X169311Y899092D02*
G03*
X149016Y890686I0J-28702D01*
G01*
X151000Y888000D02*
G03*
X149000Y883172I4828J-4828D01*
G01*
X205335Y895335D02*
G03*
X196264Y899092I-9071J-9071D01*
G01*
X208901Y886726D02*
G03*
X205335Y895335I-12175J0D01*
G01*
X208901Y885435D02*
G03*
X209364Y884316I1583J0D01*
G01*
X209828Y883197D02*
G03*
X209364Y884316I-1583J0D01*
G01*
X203000Y893000D02*
G03*
X196264Y895790I-6737J-6737D01*
G01*
X205599Y886726D02*
G03*
X203000Y893000I-8873J0D01*
G01*
X205135Y884316D02*
G03*
X205599Y885435I-1119J1119D01*
G01*
X205135Y884316D02*
G03*
X204672Y883197I1119J-1119D01*
G01*
X207523Y508053D02*
G03*
X215930Y487757I28702J0D01*
G01*
X226530Y476138D02*
G03*
X225810Y477877I-2460J0D01*
G01*
X225810Y474398D02*
G03*
X226530Y476138I-1739J1739D01*
G01*
X225597Y474185D02*
G03*
X225062Y472894I1291J-1291D01*
G01*
X210825Y508053D02*
G03*
X218264Y490092I25400J0D01*
G01*
X228191Y480165D02*
G03*
X229818Y479491I1627J1627D01*
G01*
D02*
G03*
X231446Y480165I0J2301D01*
G01*
X233062Y481025D02*
G03*
X231771Y480491I0J-1825D01*
G01*
X207503Y766649D02*
G03*
X208405Y770393I-7310J3743D01*
G01*
X228379Y888918D02*
G03*
X229617Y891905I-2987J2987D01*
G01*
X231322Y898172D02*
G03*
X229617Y894055I4117J-4117D01*
G01*
X238878Y901302D02*
G03*
X231322Y898172I0J-10686D01*
G01*
X245427Y898640D02*
G03*
X239000Y901302I-6427J-6427D01*
G01*
X254302Y882934D02*
G03*
X249472Y894594I-16489J0D01*
G01*
X245895Y845895D02*
G03*
X254302Y866191I-20295J20295D01*
G01*
X214000Y814000D02*
G03*
X208405Y800493I13507J-13507D01*
G01*
X262438Y476164D02*
G03*
X266302Y485492I-9328J9328D01*
G01*
X260373Y475309D02*
G03*
X262438Y476164I0J2921D01*
G01*
X260373Y475309D02*
G03*
X258307Y474453I0J-2921D01*
G01*
X257284Y473429D02*
G03*
X257062Y472894I535J-535D01*
G01*
X232919Y891867D02*
G03*
X234129Y888945I4132J0D01*
G01*
X233657Y895837D02*
G03*
X232919Y894055I1782J-1782D01*
G01*
X238878Y898000D02*
G03*
X233657Y895837I0J-7384D01*
G01*
X243092Y896305D02*
G03*
X239000Y898000I-4092J-4092D01*
G01*
X251000Y882934D02*
G03*
X247138Y892259I-13187J0D01*
G01*
X243561Y848230D02*
G03*
X251000Y866191I-17960J17960D01*
G01*
X211665Y816335D02*
G03*
X205103Y800493I15841J-15841D01*
G01*
X204401Y769070D02*
G03*
X205103Y770767I-1696J1696D01*
G01*
X204401Y769070D02*
G03*
X203698Y767374I1696J-1696D01*
G01*
X259689Y478611D02*
G03*
X260611Y479047I-36J1269D01*
G01*
D02*
G03*
X263000Y485492I-7501J6446D01*
G01*
X258791Y478983D02*
G03*
X259689Y478611I898J898D01*
G01*
X257062Y481025D02*
G03*
X257284Y480490I757J0D01*
G01*
X186579Y477328D02*
G03*
X186766Y477084I1094J645D01*
G01*
X189046Y479839D02*
G03*
X191213Y479125I1258J173D01*
G01*
X185771Y479417D02*
G03*
X186366Y477689I4533J595D01*
G01*
X188302Y485596D02*
G03*
X188313Y485431I1270J0D01*
G01*
X185000Y485596D02*
G03*
X185039Y485002I4572J0D01*
G01*
X193006Y480964D02*
G03*
X193062Y481025I-911J885D01*
G01*
X192840Y480490D02*
G03*
X193062Y481025I-535J535D01*
G01*
X188302Y496000D02*
G03*
X182568Y509842I-19575J0D01*
G01*
X187686Y476164D02*
G03*
X189751Y475309I2065J2065D01*
G01*
X185000Y496000D02*
G03*
X180234Y507507I-16273J0D01*
G01*
X193062Y472894D02*
G03*
X192840Y473429I-757J0D01*
G01*
X191817Y474453D02*
G03*
X189751Y475309I-2066J-2066D01*
G01*
X154000Y545288D02*
G03*
X162165Y525575I27878J0D01*
G01*
X154000Y673809D02*
G03*
X146560Y691770I-25400J0D01*
G01*
X140601Y704890D02*
G03*
X145665Y692665I17289J0D01*
G01*
X146000Y791000D02*
G03*
X140601Y777967I13033J-13033D01*
G01*
X146000Y791000D02*
G03*
X151000Y803071I-12071J12071D01*
G01*
Y835028D02*
G03*
X148665Y840665I-7972J0D01*
G01*
X145698Y847828D02*
G03*
X148665Y840665I10130J0D01*
G01*
X157302Y545288D02*
G03*
X164500Y527910I24575J0D01*
G01*
X157302Y673809D02*
G03*
X148895Y694105I-28702J0D01*
G01*
X143903Y704890D02*
G03*
X148000Y695000I13987J0D01*
G01*
X148335Y788665D02*
G03*
X143903Y777967I10699J-10699D01*
G01*
X148335Y788665D02*
G03*
X154302Y803071I-14406J14406D01*
G01*
Y835028D02*
G03*
X151000Y843000I-11274J0D01*
G01*
X149000Y847828D02*
G03*
X151000Y843000I6828J0D01*
G01*
X116400Y744627D02*
G03*
X116698Y745347I-719J720D01*
G01*
X116400Y744627D02*
G03*
X114641Y741883I5389J-5389D01*
G01*
X122538Y761321D02*
G03*
X120000Y755201I6110J-6120D01*
G01*
X129544Y795827D02*
G03*
X133763Y803923I-10796J10773D01*
G01*
X129544Y795827D02*
G03*
X127578Y792809I6104J-6126D01*
G01*
D02*
G03*
X127556Y792723I17044J-4476D01*
G01*
X127485Y792439D02*
G03*
X127000Y788334I17137J-4106D01*
G01*
X133364Y880876D02*
G03*
X133828Y881996I-1119J1119D01*
G01*
X133364Y880876D02*
G03*
X132901Y879757I1119J-1119D01*
G01*
Y856026D02*
G03*
X133450Y854699I1876J0D01*
G01*
X134000Y853372D02*
G03*
X133450Y854699I-1876J0D01*
G01*
X124726Y763509D02*
G03*
X127000Y769000I-5491J5491D01*
G01*
X118735Y742293D02*
G03*
X120000Y745347I-3054J3054D01*
G01*
X118735Y742293D02*
G03*
X117470Y739239I3054J-3054D01*
G01*
Y692721D02*
G03*
X124909Y674760I25400J0D01*
G01*
X145302Y642479D02*
G03*
X136895Y662774I-28702J0D01*
G01*
X141000Y562000D02*
G03*
X145302Y572386I-10386J10386D01*
G01*
X141000Y562000D02*
G03*
X135000Y547515I14485J-14485D01*
G01*
Y527910D02*
G03*
X142439Y509950I25400J0D01*
G01*
X167342Y485048D02*
G03*
X177013Y481042I9671J9671D01*
G01*
X128672Y881996D02*
G03*
X129135Y880876I1583J0D01*
G01*
X129599Y879757D02*
G03*
X129135Y880876I-1583J0D01*
G01*
X129599Y854658D02*
G03*
X130148Y853331I1876J0D01*
G01*
X130698Y852005D02*
G03*
X130148Y853331I-1876J0D01*
G01*
X127198Y798151D02*
G03*
X130698Y806601I-8450J8450D01*
G01*
X127198Y798151D02*
G03*
X123698Y789701I8450J-8450D01*
G01*
X122391Y765844D02*
G03*
X123698Y769000I-3156J3156D01*
G01*
X120198Y763651D02*
G03*
X116698Y755201I8450J-8450D01*
G01*
X114168Y692721D02*
G03*
X122575Y672426I28702J0D01*
G01*
X142000Y642479D02*
G03*
X134560Y660440I-25400J0D01*
G01*
X138665Y564335D02*
G03*
X142000Y572386I-8051J8051D01*
G01*
X138665Y564335D02*
G03*
X131698Y547515I16820J-16820D01*
G01*
Y527910D02*
G03*
X140105Y507615I28702J0D01*
G01*
X169013Y472943D02*
G03*
X164937Y482782I-13915J0D01*
G01*
X325607Y222302D02*
X330076D01*
X331981Y224207D02*
Y225542D01*
X335791Y224207D02*
Y225542D01*
X339601Y224207D02*
Y225542D01*
X343411Y224207D02*
Y225542D01*
X345316Y222302D02*
X349586D01*
X350079Y222284D01*
X325220Y222302D02*
X325607D01*
X185823Y895790D02*
X188527D01*
X183918Y892421D02*
Y893885D01*
X180108Y892421D02*
Y893885D01*
X176298Y892421D02*
Y893885D01*
X172488Y892421D02*
Y893885D01*
X169311Y895790D02*
X170583D01*
X166773Y895663D02*
X169311Y895790D01*
X188527D02*
X196264D01*
X192688Y480638D02*
X193006Y480964D01*
X191213Y479125D02*
X192688Y480638D01*
X227938Y832608D02*
X231964Y836634D01*
X225244Y832608D02*
X225244Y832608D01*
X224568Y833285D02*
X225244Y832608D01*
X221874Y830591D02*
X222550Y829914D01*
X222550Y829914D02*
X222550Y829914D01*
X219856Y827220D02*
X219856Y827220D01*
X218660Y828416D02*
X219856Y827220D01*
X218660Y828416D02*
X218660Y828416D01*
X215966Y825722D02*
X215966Y825722D01*
X217162Y824526D01*
X216713Y821383D02*
X217162Y821832D01*
X231964Y836634D02*
X243561Y848230D01*
X211665Y816335D02*
X216713Y821383D01*
X172000Y600065D02*
Y611818D01*
X173905Y598160D02*
X177646D01*
X173905Y594350D02*
X177646D01*
X172000Y588000D02*
Y592445D01*
Y611818D02*
Y698901D01*
Y571000D02*
Y588000D01*
X168698Y571000D02*
Y698901D01*
X80071Y492071D02*
Y492071D01*
X83631Y495631D01*
X82121Y499835D02*
X83631Y498325D01*
X84815Y502529D02*
X86325Y501019D01*
X86325Y501019D02*
X86325Y501019D01*
X89019D02*
X89258Y501259D01*
X91545Y503882D01*
X171512Y185772D02*
X183935D01*
X185840Y187677D02*
Y189383D01*
X189650Y187677D02*
Y189383D01*
X191555Y185772D02*
X196000D01*
X128935D02*
X171512D01*
X196000D02*
X245964D01*
X256995Y1178000D02*
X283000D01*
X255090Y1173575D02*
Y1176095D01*
X251280Y1173575D02*
Y1176095D01*
X244930Y1178000D02*
X249375D01*
X283000D02*
X289781D01*
X85191D02*
X244930D01*
X205298Y1152000D02*
X337620D01*
X206665Y1155302D02*
X337620D01*
X168000Y1126000D02*
Y1151486D01*
X193574Y1158426D02*
X196254Y1155746D01*
X180649Y1160754D02*
X187953D01*
X171302Y1124191D02*
Y1151486D01*
X195909Y1160761D02*
X197622Y1159048D01*
X180649Y1164056D02*
X187953D01*
X168000Y1124191D02*
Y1126000D01*
X365015Y214922D02*
X365116D01*
X357193Y215849D02*
X362777D01*
X325220Y219000D02*
X349586D01*
X291414Y212698D02*
X310005D01*
X365015Y220078D02*
X365116D01*
X357193Y219151D02*
X362777D01*
X291414Y216000D02*
X310005D01*
X283829Y221512D02*
Y226035D01*
X293306Y236485D02*
X295339D01*
X303696Y233024D02*
X304873Y231847D01*
X307111Y230920D02*
X307183Y230849D01*
X287131Y221512D02*
Y226035D01*
X293306Y233183D02*
X295339D01*
X301361Y230689D02*
X302538Y229512D01*
X303465Y227274D02*
X303536Y227203D01*
X366312Y255457D02*
X366709D01*
X353963Y256000D02*
X365000D01*
X322415Y258095D02*
X348905D01*
X308335Y246665D02*
X317890Y256221D01*
X299771Y243437D02*
X300542D01*
X297433Y242510D02*
X297533D01*
X365583Y259543D02*
X366709D01*
X353963Y259302D02*
X365000D01*
X322415Y261397D02*
X348905D01*
X306000Y249000D02*
X315556Y258556D01*
X299771Y246739D02*
X300542D01*
X297433Y247666D02*
X297533D01*
X361328Y1206000D02*
Y1206100D01*
X360401Y1208339D02*
Y1216476D01*
X350335Y1235335D02*
X354184Y1231486D01*
X333243Y1239302D02*
X340757D01*
X320000Y1209000D02*
Y1226486D01*
X307742Y1188742D02*
X314343Y1195343D01*
X85191Y1181302D02*
X289781D01*
X356172Y1206000D02*
Y1206100D01*
X357099Y1208339D02*
Y1215792D01*
X348000Y1233000D02*
X351365Y1229635D01*
X333243Y1236000D02*
X340757D01*
X323302Y1209000D02*
Y1226486D01*
X310076Y1186407D02*
X316678Y1193008D01*
X66335Y1169665D02*
X67230Y1170561D01*
X38939Y1165000D02*
X55072D01*
X27998Y1142479D02*
Y1153263D01*
X20302Y973800D02*
Y1123901D01*
X11000Y926972D02*
Y951343D01*
X15651Y886489D02*
Y915743D01*
X16578Y884151D02*
Y884251D01*
X64000Y1172000D02*
X64895Y1172895D01*
X38939Y1168302D02*
X55072D01*
X24695Y1142479D02*
Y1153263D01*
X17000Y973800D02*
Y1123901D01*
X7698Y926972D02*
Y951343D01*
X12349Y886489D02*
Y915743D01*
X11422Y884151D02*
Y884251D01*
X212105Y658549D02*
X215094Y655560D01*
X220537Y638999D02*
Y642419D01*
X228694Y619306D02*
X229000Y619000D01*
X230698Y593000D02*
Y614901D01*
X233816Y585473D02*
X242427Y576862D01*
X243940Y571817D02*
Y573209D01*
X252347Y551522D02*
X259500Y544369D01*
X263000Y485492D02*
Y535919D01*
X203698Y678845D02*
Y767374D01*
X214440Y660884D02*
X217429Y657895D01*
X223839Y638999D02*
Y642419D01*
X231029Y621641D02*
X231335Y621335D01*
X234000Y593000D02*
Y614901D01*
X236151Y587808D02*
X244762Y579197D01*
X247242Y571817D02*
Y573209D01*
X254681Y553857D02*
X261835Y546703D01*
X266302Y485492D02*
Y535919D01*
X207000Y678845D02*
Y765798D01*
X267828Y200512D02*
Y214588D01*
X263960Y223613D02*
X264182Y223391D01*
X250000Y226666D02*
X256590D01*
X234309Y213998D02*
X244839Y224528D01*
X232000Y213000D02*
X232071Y213071D01*
X264526Y200512D02*
Y214588D01*
X261625Y221278D02*
X261847Y221056D01*
X250000Y223364D02*
X256590D01*
X236644Y211663D02*
X247174Y222193D01*
X235646Y209354D02*
X235717Y209425D01*
X128935Y182470D02*
X245964D01*
X73589Y172860D02*
X105734D01*
X51165Y183395D02*
X53294Y181266D01*
X46698Y194180D02*
Y206343D01*
X51665Y218335D02*
X52614Y219284D01*
X77657Y229657D02*
X80000Y232000D01*
X86320Y247257D02*
Y338431D01*
X94726Y358726D02*
X117561Y381561D01*
X125000Y399521D02*
Y423766D01*
X115000Y447908D02*
Y529259D01*
X110312Y536000D02*
X110383Y535929D01*
X73589Y176162D02*
X105734D01*
X53500Y185730D02*
X55629Y183601D01*
X50000Y194180D02*
Y206343D01*
X54000Y216000D02*
X54949Y216949D01*
X79992Y227322D02*
X82335Y229665D01*
X89622Y247257D02*
Y338431D01*
X97061Y356391D02*
X119895Y379226D01*
X128302Y399521D02*
Y423766D01*
X118302Y447908D02*
Y529259D01*
X113958Y539646D02*
X114029Y539575D01*
X37550Y369514D02*
X37704Y369360D01*
X47318Y365372D02*
X48827D01*
X34556Y376729D02*
Y381661D01*
X30327Y383899D02*
Y384000D01*
X31254Y376729D02*
Y381661D01*
X35206Y367189D02*
X35379Y367015D01*
X47318Y362070D02*
X48827D01*
X35483Y383899D02*
Y384000D01*
X57897Y384161D02*
X61065Y380993D01*
X63302Y370000D02*
Y375583D01*
X48000Y403250D02*
X51389Y399861D01*
X41027Y420086D02*
Y463236D01*
X43000Y468000D02*
X52242Y477242D01*
X82406Y489736D02*
X91593Y498924D01*
X100000Y519219D02*
Y544343D01*
X107257Y555349D02*
X113661D01*
X115899Y554422D02*
X116000D01*
X60000Y370000D02*
Y375583D01*
X55554Y381835D02*
X58723Y378665D01*
X45665Y400915D02*
X49054Y397526D01*
X37724Y420086D02*
Y463235D01*
X40665Y470335D02*
X49907Y479577D01*
X96698Y519219D02*
Y544343D01*
X107257Y558651D02*
X113661D01*
X115899Y559578D02*
X116000D01*
X417929Y1162929D02*
X418000Y1163000D01*
X415137Y1161448D02*
X415691Y1162002D01*
X411175Y1160431D02*
X412681D01*
X400335Y1164033D02*
X402478D01*
X376125Y1168500D02*
X389550D01*
X357225Y1160120D02*
X358165Y1161060D01*
X414283Y1166575D02*
X414354Y1166646D01*
X413286Y1164267D02*
X413356Y1164337D01*
X411374Y1163733D02*
X411997D01*
X408194Y1165534D02*
X409021Y1164707D01*
X400335Y1167335D02*
X403846D01*
X376125Y1171802D02*
X389550D01*
X354890Y1162455D02*
X355830Y1163395D01*
X135407Y1081076D02*
X160560Y1106230D01*
X127000Y1053521D02*
Y1060781D01*
X118000Y1034000D02*
X119560Y1035561D01*
X100806Y1027588D02*
X102520D01*
X84002Y1012705D02*
X97527Y1026229D01*
X137741Y1078742D02*
X162895Y1103895D01*
X130302Y1053521D02*
Y1060781D01*
X120335Y1031665D02*
X121895Y1033226D01*
X100806Y1024286D02*
X102520D01*
X86337Y1010370D02*
X99862Y1023895D01*
X89439Y725652D02*
X96635Y718457D01*
X82000Y743613D02*
Y999900D01*
X101000Y659191D02*
Y707918D01*
X108440Y641230D02*
X111335Y638335D01*
X116229Y599339D02*
Y626519D01*
X78698Y743613D02*
Y999900D01*
X87105Y723317D02*
X94300Y716122D01*
X97698Y659191D02*
Y707918D01*
X106105Y638895D02*
X109000Y636000D01*
X112927Y599339D02*
Y626519D01*
X112000Y597000D02*
Y597100D01*
X117156Y597000D02*
Y597100D01*
X40440Y1076440D02*
X81832Y1117832D01*
X90238Y1138127D02*
Y1141911D01*
X85359Y1152310D02*
X86342Y1151328D01*
X84226Y1153444D02*
X85360Y1152310D01*
X75351Y1157078D02*
X75452D01*
X38105Y1078774D02*
X79497Y1120167D01*
X86936Y1138127D02*
Y1141911D01*
X81891Y1151109D02*
X84000Y1149000D01*
X75351Y1151922D02*
X75452D01*
X33000Y899000D02*
Y1058479D01*
X39597Y883072D02*
X51593Y871076D01*
X60000Y674071D02*
Y850781D01*
X78756Y656302D02*
X79000D01*
X86456Y653214D02*
X94335Y645335D01*
X97000Y598000D02*
Y638901D01*
X103294Y582806D02*
X108240Y577859D01*
X29698Y899000D02*
Y1058479D01*
X37263Y880737D02*
X49258Y868742D01*
X56698Y674071D02*
Y850781D01*
X78756Y653000D02*
X79000D01*
X84121Y650879D02*
X92000Y643000D01*
X93698Y596445D02*
Y638901D01*
X99860Y581570D02*
X105905Y575524D01*
X112520Y572785D02*
X122543D01*
X128575Y575283D02*
X128646Y575354D01*
X112520Y576087D02*
X122543D01*
X124929Y578929D02*
X125000Y579000D01*
X190062Y866904D02*
X190080Y866886D01*
X186623Y875194D02*
Y880758D01*
X190080Y866886D02*
X199446Y857520D01*
X182394Y882996D02*
Y883096D01*
X183321Y875194D02*
Y880758D01*
X187719Y864577D02*
X197112Y855185D01*
X199737Y831756D02*
Y848846D01*
X196809Y814717D02*
Y824440D01*
X183665Y795335D02*
X192398Y804068D01*
X178698Y767214D02*
Y783343D01*
X187698Y715845D02*
Y745487D01*
X185698Y679669D02*
Y711016D01*
X189119Y645770D02*
Y671410D01*
X197525Y625475D02*
X205000Y618000D01*
X207523Y508053D02*
Y611909D01*
X187551Y882996D02*
Y883096D01*
X203039Y831508D02*
Y848846D01*
X200111Y814717D02*
Y824440D01*
X186000Y793000D02*
X194733Y801733D01*
X182000Y767214D02*
Y783343D01*
X191000Y714477D02*
Y745487D01*
X189000Y679669D02*
Y709649D01*
X192421Y645770D02*
Y671410D01*
X199860Y627809D02*
X207335Y620335D01*
X210825Y508053D02*
Y611909D01*
X160672Y882996D02*
Y883096D01*
X161599Y859642D02*
Y880758D01*
X172119Y849178D02*
X172150D01*
X173185Y848750D02*
X178359Y843576D01*
X180426Y830398D02*
Y838585D01*
X165267Y809585D02*
X176428Y820746D01*
X161698Y715800D02*
Y800968D01*
X174141Y557859D02*
X185000Y547000D01*
X189698Y523191D02*
Y535658D01*
X198105Y502895D02*
X200000Y501000D01*
X202698Y483243D02*
Y494487D01*
X165828Y882996D02*
Y883096D01*
X164901Y859642D02*
Y880758D01*
X172119Y852480D02*
X172150D01*
X175519Y851085D02*
X180694Y845910D01*
X183728Y830398D02*
Y838585D01*
X167602Y807250D02*
X178763Y818411D01*
X165000Y715800D02*
Y800968D01*
X176476Y560193D02*
X187335Y549335D01*
X193000Y523191D02*
Y535658D01*
X200439Y505230D02*
X202335Y503335D01*
X206000Y483243D02*
Y494487D01*
X206665Y473665D02*
X214748Y465582D01*
X225810Y461000D02*
X232486D01*
X209000Y476000D02*
X217083Y467917D01*
X225810Y464302D02*
X232161D01*
X237531Y462163D02*
X237918D01*
X238114Y462358D01*
X237312Y465631D02*
X243257Y469908D01*
X239241Y462951D02*
X245186Y467228D01*
X241062Y472960D02*
X242996Y474894D01*
X247127Y479025D02*
X249062Y480960D01*
X247905Y471217D02*
X248325Y472868D01*
X244705Y472032D02*
X245125Y473683D01*
X148665Y890335D02*
X149016Y890686D01*
X151000Y888000D02*
X151351Y888351D01*
X169311Y899092D02*
X196264D01*
X208901Y885435D02*
Y886726D01*
X209828Y883096D02*
Y883197D01*
X205599Y885435D02*
Y886726D01*
X204672Y883096D02*
Y883197D01*
X215930Y487757D02*
X225810Y477877D01*
X225597Y474185D02*
X225810Y474398D01*
X218264Y490092D02*
X228191Y480165D01*
X231446Y480165D02*
X231771Y480491D01*
X207000Y765798D02*
X207502Y766649D01*
X227142Y887627D02*
Y887681D01*
X228379Y888918D01*
X229617Y891905D02*
Y894055D01*
X238878Y901302D02*
X239000D01*
X245427Y898640D02*
X249472Y894594D01*
X254302Y866191D02*
Y882934D01*
X214000Y814000D02*
X245895Y845895D01*
X208405Y770393D02*
Y800493D01*
X257284Y473429D02*
X258307Y474453D01*
X235339Y887735D02*
X235393D01*
X234129Y888945D02*
X235339Y887735D01*
X232919Y891867D02*
Y894055D01*
X238878Y898000D02*
X239000D01*
X243092Y896305D02*
X247138Y892259D01*
X251000Y866191D02*
Y882934D01*
X205103Y770767D02*
Y800493D01*
X257284Y480490D02*
X258791Y478983D01*
X186766Y477084D02*
X187686Y476164D01*
X186366Y477689D02*
X186579Y477328D01*
X189045Y479846D02*
X189046Y479839D01*
X188302Y485596D02*
Y496000D01*
X192840Y480490D02*
X193062Y481025D01*
X185771Y479417D02*
Y479417D01*
X185039Y485002D02*
X185771Y479417D01*
X188313Y485431D02*
X189045Y479846D01*
X185000Y485596D02*
Y496000D01*
X162165Y525575D02*
X180234Y507507D01*
X164500Y527910D02*
X182568Y509842D01*
X191817Y474453D02*
X192840Y473429D01*
X154000Y545288D02*
Y673809D01*
X145665Y692665D02*
X146560Y691770D01*
X140601Y704890D02*
Y777967D01*
X151000Y803071D02*
Y835028D01*
X145698Y847828D02*
Y883172D01*
X157302Y545288D02*
Y673809D01*
X148000Y695000D02*
X148895Y694105D01*
X143903Y704890D02*
Y777967D01*
X154302Y803071D02*
Y835028D01*
X149000Y847828D02*
Y883172D01*
X116698Y745347D02*
Y755201D01*
X114168Y740606D02*
X114641Y741883D01*
X114168Y692721D02*
Y740606D01*
X120000Y745347D02*
Y755201D01*
X122538Y761321D02*
X122552Y761335D01*
X124726Y763509D01*
X133763Y803923D02*
X134000Y805233D01*
X127485Y792439D02*
X127556Y792723D01*
X134000Y805233D02*
Y853372D01*
X133828Y881996D02*
Y882096D01*
X132901Y856026D02*
Y879757D01*
X127000Y769000D02*
Y788334D01*
X117470Y692721D02*
Y739239D01*
X124909Y674760D02*
X136895Y662774D01*
X145302Y572386D02*
Y642479D01*
X135000Y527910D02*
Y547515D01*
X142439Y509950D02*
X167342Y485048D01*
X177013Y481042D02*
X177062Y481091D01*
X128672Y881996D02*
Y882096D01*
X129599Y854658D02*
Y879757D01*
X130698Y806601D02*
Y852005D01*
X123698Y769000D02*
Y789701D01*
X120198Y763651D02*
X122391Y765844D01*
X122575Y672426D02*
X134560Y660440D01*
X142000Y572386D02*
Y642479D01*
X131698Y527910D02*
Y547515D01*
X140105Y507615D02*
X164937Y482782D01*
X169013Y472943D02*
X169062Y472894D01*
D209*
X214714Y1199251D02*
D03*
Y1252551D02*
D03*
X161414Y1199251D02*
D03*
Y1252551D02*
D03*
D212*
X338600Y204000D02*
D03*
D213*
Y276000D02*
D03*
D214*
X351100Y198700D02*
D03*
Y281300D02*
D03*
X410600Y195100D02*
D03*
Y284900D02*
D03*
D215*
X349000Y355000D02*
D03*
X344000D02*
D03*
X339000D02*
D03*
X349000Y322000D02*
D03*
X344000D02*
D03*
X339000D02*
D03*
X349000Y345000D02*
D03*
X344000D02*
D03*
X339000D02*
D03*
X349000Y332000D02*
D03*
X344000D02*
D03*
X339000D02*
D03*
X41000Y1112000D02*
D03*
X407040Y651750D02*
D03*
X221936Y228030D02*
D03*
X222640Y220000D02*
D03*
X118672Y172000D02*
D03*
X99305Y928016D02*
D03*
X99000Y906000D02*
D03*
X97000Y469000D02*
D03*
X78783Y462000D02*
D03*
X72283Y463194D02*
D03*
X285437Y418963D02*
D03*
X284000Y390000D02*
D03*
X285114Y434886D02*
D03*
X285886Y449707D02*
D03*
X98351Y922268D02*
D03*
X77951Y1141396D02*
D03*
X356966Y244251D02*
D03*
X356740Y224426D02*
D03*
X324375Y227000D02*
D03*
X323809Y253152D02*
D03*
X255000Y218573D02*
D03*
X340294Y266500D02*
D03*
X158000Y1083343D02*
D03*
X300237Y827259D02*
D03*
X398083Y669025D02*
D03*
X394918Y675548D02*
D03*
X82000Y611000D02*
D03*
Y618000D02*
D03*
X110000Y646000D02*
D03*
X138000Y1110000D02*
D03*
X145000Y1120000D02*
D03*
X152000Y1126000D02*
D03*
X161000Y1132000D02*
D03*
X159000Y1141000D02*
D03*
X157000Y1149000D02*
D03*
X158000Y1158000D02*
D03*
X163000Y1165000D02*
D03*
X172000Y1171000D02*
D03*
X208000Y1170000D02*
D03*
X212000Y1161000D02*
D03*
X211000Y1145000D02*
D03*
Y1135000D02*
D03*
X220000Y1129000D02*
D03*
X227000Y1121000D02*
D03*
X191175Y1144312D02*
D03*
X182064Y1152534D02*
D03*
X30892Y460059D02*
D03*
X276000Y374712D02*
D03*
X275000Y386000D02*
D03*
X257646Y417143D02*
D03*
X257320Y401328D02*
D03*
X257376Y449443D02*
D03*
Y441186D02*
D03*
X249655Y425448D02*
D03*
X148077Y160344D02*
D03*
X316037Y737848D02*
D03*
X339846Y673559D02*
D03*
X332380Y689561D02*
D03*
X334000Y371586D02*
D03*
X362564Y391092D02*
D03*
X45605Y287520D02*
D03*
X70493Y247380D02*
D03*
X79000Y241000D02*
D03*
X74868Y160014D02*
D03*
X119756Y164916D02*
D03*
X60000Y161000D02*
D03*
X57000Y168000D02*
D03*
X13117Y177968D02*
D03*
X177506Y449090D02*
D03*
X185481Y409339D02*
D03*
X407600Y182000D02*
D03*
X334000Y470000D02*
D03*
X317265Y199778D02*
D03*
X233626Y167910D02*
D03*
X309456Y206329D02*
D03*
X311093Y194236D02*
D03*
X336015Y160745D02*
D03*
X336000Y183000D02*
D03*
X325000Y185000D02*
D03*
X116000Y402000D02*
D03*
X110000Y420000D02*
D03*
X161245Y433767D02*
D03*
X161574Y441495D02*
D03*
X313171Y229995D02*
D03*
X66373Y809255D02*
D03*
X66833Y815933D02*
D03*
X68000Y840000D02*
D03*
X16021Y741127D02*
D03*
X12246Y797201D02*
D03*
X79455Y1146975D02*
D03*
X272870Y1189520D02*
D03*
X243144Y1188427D02*
D03*
X298552Y1254435D02*
D03*
X238171Y1253683D02*
D03*
X299588Y1164277D02*
D03*
X334000Y1167000D02*
D03*
X345000Y1163000D02*
D03*
X345360Y1169713D02*
D03*
X416000Y1126000D02*
D03*
X410000Y842000D02*
D03*
X394000Y853000D02*
D03*
X271000Y902000D02*
D03*
X263194Y933530D02*
D03*
X261866Y944272D02*
D03*
X259000Y954000D02*
D03*
X48009Y974234D02*
D03*
X39952Y974278D02*
D03*
X84940Y1047633D02*
D03*
X92855Y1045391D02*
D03*
X59000Y1080000D02*
D03*
X45000Y1064000D02*
D03*
X53000Y1071000D02*
D03*
X109000Y874000D02*
D03*
X107697Y1127600D02*
D03*
X74997Y1129863D02*
D03*
X74054Y1123889D02*
D03*
X132401Y1118152D02*
D03*
X97681Y1127462D02*
D03*
X123639Y1202050D02*
D03*
X91000Y1202000D02*
D03*
X102000Y934000D02*
D03*
X50500Y884000D02*
D03*
X58000Y885000D02*
D03*
X70993Y1047369D02*
D03*
X78714Y1044375D02*
D03*
X68517Y1026744D02*
D03*
X9959Y1018884D02*
D03*
X371921Y1210655D02*
D03*
X342454Y1209437D02*
D03*
X367000Y1207000D02*
D03*
X350225Y1207362D02*
D03*
X361328Y1206000D02*
D03*
X356172D02*
D03*
X287752Y501510D02*
D03*
X295000Y549000D02*
D03*
X323846Y737848D02*
D03*
X356311Y717708D02*
D03*
X369890Y555177D02*
D03*
X370000Y561000D02*
D03*
X400085Y679180D02*
D03*
X405880Y677596D02*
D03*
X404500Y774000D02*
D03*
X364000Y662000D02*
D03*
X259908Y681781D02*
D03*
X72000Y616750D02*
D03*
X45000Y604000D02*
D03*
X215111Y715235D02*
D03*
X239785Y697818D02*
D03*
X241312Y732651D02*
D03*
X239097Y713783D02*
D03*
X22681Y611330D02*
D03*
X285000Y640674D02*
D03*
X310042Y649560D02*
D03*
X314968Y643940D02*
D03*
X240589Y619000D02*
D03*
X131000Y740000D02*
D03*
Y746000D02*
D03*
X27290Y615808D02*
D03*
X115184Y981080D02*
D03*
X39606Y373606D02*
D03*
X249737Y465811D02*
D03*
X257507Y465303D02*
D03*
X256654Y487343D02*
D03*
X225062Y472894D02*
D03*
X233062Y481025D02*
D03*
X241062Y472960D02*
D03*
X249062Y480960D02*
D03*
X193146Y465560D02*
D03*
X197531Y485596D02*
D03*
X169812Y465000D02*
D03*
X180117Y486851D02*
D03*
X51000Y795933D02*
D03*
X22000Y795000D02*
D03*
X34000Y742000D02*
D03*
X49000Y743000D02*
D03*
X71000Y753000D02*
D03*
X69000Y766000D02*
D03*
X13000Y862000D02*
D03*
Y874000D02*
D03*
X67000Y861000D02*
D03*
X68000Y872000D02*
D03*
X100948Y883670D02*
D03*
X100897Y893895D02*
D03*
X124766Y864134D02*
D03*
X96210Y818656D02*
D03*
X108810Y816792D02*
D03*
X122454Y817687D02*
D03*
X87487Y837891D02*
D03*
X156867Y792909D02*
D03*
X145073Y833783D02*
D03*
X191000Y810000D02*
D03*
X117569Y770885D02*
D03*
X401864Y799684D02*
D03*
X401981Y779482D02*
D03*
X406163Y765430D02*
D03*
X406000Y743000D02*
D03*
Y624000D02*
D03*
X405072Y633569D02*
D03*
X397333Y617000D02*
D03*
X400004Y599479D02*
D03*
X367777Y544139D02*
D03*
X371046Y522010D02*
D03*
X379007Y529450D02*
D03*
X384978Y529118D02*
D03*
X391280Y527934D02*
D03*
X417153Y549635D02*
D03*
X397008Y563029D02*
D03*
X389386Y561908D02*
D03*
X385451Y571622D02*
D03*
X379528Y566173D02*
D03*
X287703Y339051D02*
D03*
X295831Y357548D02*
D03*
X313250Y339134D02*
D03*
X313000Y350000D02*
D03*
X317000Y364000D02*
D03*
X316152Y386829D02*
D03*
X305617Y386249D02*
D03*
X292978Y385928D02*
D03*
X263658Y554164D02*
D03*
X257000Y538000D02*
D03*
X251000Y518000D02*
D03*
X362000Y537000D02*
D03*
X290154Y458010D02*
D03*
X290000Y479709D02*
D03*
X358000Y511000D02*
D03*
X359000Y481500D02*
D03*
X360000Y526279D02*
D03*
X285000Y510000D02*
D03*
X299793Y519892D02*
D03*
X361000Y448000D02*
D03*
X360000Y420000D02*
D03*
X311000Y447000D02*
D03*
X297334Y447000D02*
D03*
X304000Y447000D02*
D03*
X308000Y392000D02*
D03*
X300000Y406000D02*
D03*
X293000D02*
D03*
X353000Y367000D02*
D03*
X343900D02*
D03*
X331617Y377000D02*
D03*
X345869Y463217D02*
D03*
X327000Y463000D02*
D03*
X336674Y461873D02*
D03*
X336674Y406275D02*
D03*
X346854Y406473D02*
D03*
X376000Y359000D02*
D03*
Y365625D02*
D03*
X324000Y299000D02*
D03*
X323150Y319500D02*
D03*
X240924Y243639D02*
D03*
X214440Y168300D02*
D03*
X56000Y271375D02*
D03*
X90000Y188600D02*
D03*
Y181412D02*
D03*
Y195000D02*
D03*
X72487Y242165D02*
D03*
X92000Y220000D02*
D03*
X78639Y202182D02*
D03*
X61000Y201000D02*
D03*
X67500D02*
D03*
X43116Y234839D02*
D03*
X52327Y236000D02*
D03*
X57118Y255924D02*
D03*
X56788Y247632D02*
D03*
X57887Y265532D02*
D03*
X45093Y281291D02*
D03*
X51682Y280083D02*
D03*
X15000Y311000D02*
D03*
X7000D02*
D03*
Y272000D02*
D03*
Y227000D02*
D03*
Y237000D02*
D03*
X19000Y239000D02*
D03*
X20000Y271500D02*
D03*
X20984Y255830D02*
D03*
X48125Y353000D02*
D03*
X31000Y350000D02*
D03*
X30000Y333000D02*
D03*
X40000Y353000D02*
D03*
X70000Y337000D02*
D03*
Y344000D02*
D03*
X43678Y357713D02*
D03*
X13935Y372125D02*
D03*
X12467Y319157D02*
D03*
X103000Y391000D02*
D03*
X58222Y464000D02*
D03*
X16000Y388000D02*
D03*
X169637Y541381D02*
D03*
X219584Y560111D02*
D03*
X144000Y517000D02*
D03*
X109192Y494577D02*
D03*
X124000Y466000D02*
D03*
X124698Y477117D02*
D03*
X124241Y487019D02*
D03*
X109000Y459000D02*
D03*
X29059Y470277D02*
D03*
X15729Y482327D02*
D03*
X25682Y536532D02*
D03*
X109230Y550657D02*
D03*
X83000Y667000D02*
D03*
X148000Y676000D02*
D03*
X147998Y663499D02*
D03*
X86000Y710500D02*
D03*
X149389Y710626D02*
D03*
X87621Y744770D02*
D03*
X34000Y728000D02*
D03*
X44000Y728000D02*
D03*
X26000Y678000D02*
D03*
X35000D02*
D03*
X43000D02*
D03*
X32000Y629000D02*
D03*
X38000D02*
D03*
X45000D02*
D03*
X17000Y592000D02*
D03*
X164000Y624000D02*
D03*
X116228Y641308D02*
D03*
X134032Y610956D02*
D03*
X81720Y640915D02*
D03*
X70661Y642249D02*
D03*
X414000Y347000D02*
D03*
X378000Y380000D02*
D03*
X373000Y385000D02*
D03*
X365000D02*
D03*
X415000Y384000D02*
D03*
X415031Y376000D02*
D03*
X378269Y338446D02*
D03*
X376119Y346776D02*
D03*
X372000Y297138D02*
D03*
Y304000D02*
D03*
Y310000D02*
D03*
Y316000D02*
D03*
X377000Y322181D02*
D03*
X363727Y180413D02*
D03*
X348000Y175000D02*
D03*
X363605Y167561D02*
D03*
X400809Y180414D02*
D03*
X400502Y173650D02*
D03*
X394751Y332062D02*
D03*
X386000Y331000D02*
D03*
X401876Y331055D02*
D03*
X408724Y331137D02*
D03*
X381763Y314891D02*
D03*
X415129Y308000D02*
D03*
X407000Y299819D02*
D03*
X388070Y299052D02*
D03*
X397583Y299819D02*
D03*
X315647Y181710D02*
D03*
X308000Y171000D02*
D03*
X317677Y166332D02*
D03*
X28254Y522931D02*
D03*
X48000Y523000D02*
D03*
X135010Y728871D02*
D03*
X122613D02*
D03*
X109721Y728127D02*
D03*
X97000Y728000D02*
D03*
X122000Y646000D02*
D03*
X135368Y645641D02*
D03*
X134000Y572206D02*
D03*
X122410Y584000D02*
D03*
X123000Y598000D02*
D03*
X106000Y599000D02*
D03*
X128646Y575354D02*
D03*
X125000Y579000D02*
D03*
X117156Y597000D02*
D03*
X112000D02*
D03*
X120408Y562981D02*
D03*
X116988Y548571D02*
D03*
X120082Y539452D02*
D03*
X107000Y531000D02*
D03*
X116000Y559578D02*
D03*
Y554422D02*
D03*
X113958Y539646D02*
D03*
X110312Y536000D02*
D03*
X83024Y525146D02*
D03*
X77698Y529116D02*
D03*
X63842Y522322D02*
D03*
X55000Y523000D02*
D03*
X63078Y528000D02*
D03*
X57922D02*
D03*
X34115Y507634D02*
D03*
X419000Y983000D02*
D03*
Y992000D02*
D03*
X415000Y1002000D02*
D03*
X414000Y1013000D02*
D03*
Y1023000D02*
D03*
X412000Y1034000D02*
D03*
X410000Y1046000D02*
D03*
X406000Y1057000D02*
D03*
X359000Y1082000D02*
D03*
X367000Y1080000D02*
D03*
X351000Y1081000D02*
D03*
X340000Y1083000D02*
D03*
X333000Y1090000D02*
D03*
X330000Y1100000D02*
D03*
X320000Y1126000D02*
D03*
X314000Y1133000D02*
D03*
X298172Y1136000D02*
D03*
X284000Y1137000D02*
D03*
X272000Y1136000D02*
D03*
X261000Y1131000D02*
D03*
X252000Y1123000D02*
D03*
X245000Y1114000D02*
D03*
X235000Y1109000D02*
D03*
X283388Y1118250D02*
D03*
X273000Y1114000D02*
D03*
X264000Y1101000D02*
D03*
X256000Y1095000D02*
D03*
X249000Y1089000D02*
D03*
X241000Y1085000D02*
D03*
X231000Y1082000D02*
D03*
X217000Y1080000D02*
D03*
X211000Y1072000D02*
D03*
X200000Y1067000D02*
D03*
X214000Y1063000D02*
D03*
X216000Y1054000D02*
D03*
Y1042000D02*
D03*
Y1031000D02*
D03*
X196000Y1090344D02*
D03*
X188000Y1120000D02*
D03*
Y1108000D02*
D03*
Y1096527D02*
D03*
X189000Y1086000D02*
D03*
X177000Y1083000D02*
D03*
X167000Y1072000D02*
D03*
X164000Y1063000D02*
D03*
X163255Y1051000D02*
D03*
X165000Y1040000D02*
D03*
X176000Y1045000D02*
D03*
X179000Y1036000D02*
D03*
X181000Y1025790D02*
D03*
X183000Y1013596D02*
D03*
Y1003500D02*
D03*
X160000Y1002000D02*
D03*
X154000Y1006000D02*
D03*
X148000Y1013000D02*
D03*
X142000Y1021000D02*
D03*
X97000Y966000D02*
D03*
X101000Y975350D02*
D03*
X102000Y985000D02*
D03*
X100000Y994787D02*
D03*
X98000Y1005000D02*
D03*
X104000Y1010000D02*
D03*
X112000Y1012000D02*
D03*
X121000Y1015000D02*
D03*
X130000Y1021000D02*
D03*
X135000Y1030000D02*
D03*
X138000Y1040310D02*
D03*
X139000Y1050521D02*
D03*
X141000Y1061000D02*
D03*
X145000Y1071000D02*
D03*
X151000Y1079000D02*
D03*
X141000Y1096000D02*
D03*
X132000Y1089000D02*
D03*
X125000Y1078000D02*
D03*
X119000Y1067000D02*
D03*
X117000Y1056000D02*
D03*
X113000Y1046000D02*
D03*
X108000Y1038000D02*
D03*
X98970Y1036000D02*
D03*
X88000Y1033000D02*
D03*
X79000Y1030000D02*
D03*
X74000Y1022000D02*
D03*
X71000Y1012997D02*
D03*
Y1004000D02*
D03*
X73000Y994000D02*
D03*
X74000Y982686D02*
D03*
X73000Y975000D02*
D03*
X7000Y880000D02*
D03*
X23500Y884151D02*
D03*
X16578D02*
D03*
X11422D02*
D03*
X45000Y1147000D02*
D03*
X37000Y1154000D02*
D03*
X54000D02*
D03*
Y1138250D02*
D03*
X36000D02*
D03*
X38769Y379403D02*
D03*
X26000Y380000D02*
D03*
X35483Y384000D02*
D03*
X30327D02*
D03*
X53000Y375000D02*
D03*
X81285Y344450D02*
D03*
X65783Y392000D02*
D03*
X225348Y385522D02*
D03*
X233523Y392989D02*
D03*
X217415Y432994D02*
D03*
Y441244D02*
D03*
X209062Y440960D02*
D03*
X217312Y393164D02*
D03*
X209537D02*
D03*
X201229Y393164D02*
D03*
X185740Y417080D02*
D03*
X185799Y424973D02*
D03*
X185503Y433045D02*
D03*
X185621Y440938D02*
D03*
X372796Y251431D02*
D03*
X372168Y264417D02*
D03*
X369725Y211146D02*
D03*
X369864Y224411D02*
D03*
X365116Y220078D02*
D03*
Y214922D02*
D03*
X368000Y260078D02*
D03*
Y254922D02*
D03*
X302887Y238981D02*
D03*
Y251633D02*
D03*
X297672Y228250D02*
D03*
X307183Y230849D02*
D03*
X303536Y227203D02*
D03*
X297433Y247666D02*
D03*
Y242510D02*
D03*
X367488Y231491D02*
D03*
X367000Y244000D02*
D03*
X312550Y235795D02*
D03*
X314031Y246651D02*
D03*
X363000Y240078D02*
D03*
Y234922D02*
D03*
X318000Y242578D02*
D03*
Y237422D02*
D03*
X324108Y247332D02*
D03*
X324375Y232894D02*
D03*
X355000Y230000D02*
D03*
X356606Y250136D02*
D03*
X357187Y210159D02*
D03*
X339808Y212593D02*
D03*
X324459D02*
D03*
X355835Y264998D02*
D03*
X324730Y267567D02*
D03*
X418004Y882708D02*
D03*
X412573Y900656D02*
D03*
X276000Y969000D02*
D03*
X380788Y1001000D02*
D03*
X339788Y977000D02*
D03*
X339198Y990118D02*
D03*
X306788Y976087D02*
D03*
X303263Y996000D02*
D03*
X305788Y987327D02*
D03*
X298676Y1003000D02*
D03*
X338315Y1009420D02*
D03*
X338788Y1016000D02*
D03*
X303788Y1012000D02*
D03*
X380788Y1021000D02*
D03*
X370950Y1017358D02*
D03*
X381788Y1011000D02*
D03*
X380788Y979000D02*
D03*
X370568Y990684D02*
D03*
X380788Y989000D02*
D03*
X281788Y1078000D02*
D03*
X287678Y1107929D02*
D03*
X283788Y1087000D02*
D03*
X328788Y1108000D02*
D03*
X400788Y1064000D02*
D03*
X377788Y1058000D02*
D03*
X322038Y1050250D02*
D03*
X310788Y1058000D02*
D03*
X378788Y1073326D02*
D03*
X393788Y1067000D02*
D03*
X385788Y1072000D02*
D03*
X328139Y1069520D02*
D03*
X307683Y1073791D02*
D03*
X336585Y1040000D02*
D03*
X338586Y1028810D02*
D03*
X383161Y1035000D02*
D03*
X381788Y1045000D02*
D03*
X380788Y1052000D02*
D03*
X382788Y1028000D02*
D03*
X274788Y1012000D02*
D03*
X282788Y982476D02*
D03*
X279788Y974000D02*
D03*
X276788Y991000D02*
D03*
X293788Y1011000D02*
D03*
X275788Y1002000D02*
D03*
X272788Y1035000D02*
D03*
X270788Y1048000D02*
D03*
X271788Y1057000D02*
D03*
X294768Y1020000D02*
D03*
X274788Y1023000D02*
D03*
X419093Y970746D02*
D03*
X371272Y959858D02*
D03*
X383788Y936000D02*
D03*
X384788Y925000D02*
D03*
X383788Y946000D02*
D03*
Y955986D02*
D03*
X385431Y915091D02*
D03*
X371031Y951948D02*
D03*
X419000Y925000D02*
D03*
X418751Y914770D02*
D03*
X419000Y937000D02*
D03*
X418000Y948000D02*
D03*
X419000Y958000D02*
D03*
X380788Y968000D02*
D03*
X288083Y851770D02*
D03*
X296751Y897770D02*
D03*
X278788Y946000D02*
D03*
X281993Y914520D02*
D03*
X287752Y909770D02*
D03*
X278788Y937043D02*
D03*
X292751Y903770D02*
D03*
X371311Y842746D02*
D03*
X389341Y861548D02*
D03*
X310788Y925000D02*
D03*
X303752Y893770D02*
D03*
X308788Y884000D02*
D03*
X413788Y911000D02*
D03*
X407137Y904770D02*
D03*
X390752Y893995D02*
D03*
X399886Y899270D02*
D03*
X339788Y954000D02*
D03*
X306788Y958515D02*
D03*
Y968000D02*
D03*
X278788Y956000D02*
D03*
X278000Y963096D02*
D03*
X339788Y964000D02*
D03*
Y943367D02*
D03*
X376788Y928589D02*
D03*
X366152Y920770D02*
D03*
X353715Y920262D02*
D03*
X360006Y920357D02*
D03*
X336788Y933000D02*
D03*
X315072Y907770D02*
D03*
X318788Y922520D02*
D03*
X306766Y939406D02*
D03*
X309751Y913270D02*
D03*
X312788Y918000D02*
D03*
X308847Y933074D02*
D03*
X320818Y913000D02*
D03*
X309788Y946000D02*
D03*
X346911Y918592D02*
D03*
X332585Y843517D02*
D03*
X313752Y854771D02*
D03*
X312170Y868563D02*
D03*
X312752Y892770D02*
D03*
X314664Y887495D02*
D03*
X10500Y1074010D02*
D03*
X9840Y1099213D02*
D03*
Y1086116D02*
D03*
Y1061244D02*
D03*
X153876Y1020129D02*
D03*
X58000Y921000D02*
D03*
X45100Y921100D02*
D03*
X45000Y934000D02*
D03*
X58000D02*
D03*
X71000Y933100D02*
D03*
X70900Y921100D02*
D03*
X58000Y946000D02*
D03*
X70900D02*
D03*
X45100D02*
D03*
X98470Y940041D02*
D03*
X98234Y947991D02*
D03*
X92001Y952016D02*
D03*
Y928016D02*
D03*
Y920016D02*
D03*
X63991Y894216D02*
D03*
X68016Y900449D02*
D03*
X55991Y894216D02*
D03*
X60016Y900449D02*
D03*
X47991Y894216D02*
D03*
X39991D02*
D03*
X23000Y912000D02*
D03*
X17766Y936009D02*
D03*
X23998Y931984D02*
D03*
X17766Y944009D02*
D03*
X23998Y939984D02*
D03*
X17766Y952009D02*
D03*
X23998Y947984D02*
D03*
X43984Y968001D02*
D03*
X51984D02*
D03*
X56009Y974234D02*
D03*
X59948Y967958D02*
D03*
X64016Y973282D02*
D03*
X68042Y967742D02*
D03*
X413946Y1134319D02*
D03*
X381004Y1160284D02*
D03*
X216707Y208000D02*
D03*
X217006Y224114D02*
D03*
X217761Y191796D02*
D03*
X253885Y237605D02*
D03*
X217000Y264000D02*
D03*
X35000Y1178000D02*
D03*
X32698Y544507D02*
D03*
Y564507D02*
D03*
X61358Y602373D02*
D03*
X91000Y528000D02*
D03*
X32355Y421517D02*
D03*
X233062Y408829D02*
D03*
X193062Y400960D02*
D03*
X233062Y433025D02*
D03*
Y440894D02*
D03*
X177000Y166000D02*
D03*
X106774Y223997D02*
D03*
X99000Y260000D02*
D03*
X156997Y282226D02*
D03*
X196002Y674612D02*
D03*
X196812Y725559D02*
D03*
X196589Y707560D02*
D03*
X196763Y691560D02*
D03*
X196589Y658560D02*
D03*
X184589Y626560D02*
D03*
X374207Y738560D02*
D03*
X373589Y674560D02*
D03*
X252172Y593560D02*
D03*
X367589Y816560D02*
D03*
X351589Y815935D02*
D03*
X267589Y817460D02*
D03*
X234589Y817867D02*
D03*
X264659Y572560D02*
D03*
X207467Y860096D02*
D03*
X400589Y586922D02*
D03*
X373589Y689560D02*
D03*
X246206Y906547D02*
D03*
X348270Y585560D02*
D03*
X411229Y1171619D02*
D03*
X419000Y1157000D02*
D03*
X414354Y1166646D02*
D03*
X418000Y1163000D02*
D03*
X394707Y1093127D02*
D03*
X382221Y1091848D02*
D03*
X374289Y1093588D02*
D03*
X366000Y1094000D02*
D03*
X347835Y1115079D02*
D03*
X348653Y1121270D02*
D03*
X348764Y1127878D02*
D03*
X348854Y1134817D02*
D03*
X348000Y1141000D02*
D03*
X387402Y1160406D02*
D03*
X353192Y1193104D02*
D03*
X399114Y1176000D02*
D03*
X176707Y331940D02*
D03*
X149797Y310203D02*
D03*
X138000Y357000D02*
D03*
X277503Y212650D02*
D03*
X278000Y270088D02*
D03*
X225219Y292086D02*
D03*
X238981Y193176D02*
D03*
X241552Y210835D02*
D03*
X228000Y218000D02*
D03*
X235646Y209354D02*
D03*
X232000Y213000D02*
D03*
X216707Y216207D02*
D03*
X217342Y232336D02*
D03*
X255431Y264824D02*
D03*
X256934Y242559D02*
D03*
X217468Y244072D02*
D03*
X217362Y256094D02*
D03*
X225271Y259961D02*
D03*
X62846Y999485D02*
D03*
X10467Y1000577D02*
D03*
X10170Y1032184D02*
D03*
X62000Y1033000D02*
D03*
X76000Y1163000D02*
D03*
X75351Y1157078D02*
D03*
Y1151922D02*
D03*
X72743Y1138220D02*
D03*
X54798Y1177736D02*
D03*
X10140Y1157648D02*
D03*
X16188Y1151127D02*
D03*
X11087Y1144711D02*
D03*
X17000Y1138000D02*
D03*
X34962Y1120311D02*
D03*
X54630Y1119259D02*
D03*
X109551Y1062022D02*
D03*
X109771Y1074459D02*
D03*
X109330Y1087665D02*
D03*
X109660Y1100542D02*
D03*
X48119Y529214D02*
D03*
X32698Y554507D02*
D03*
X26007Y549993D02*
D03*
Y559993D02*
D03*
X26000Y570000D02*
D03*
X32540Y584507D02*
D03*
X32691Y574514D02*
D03*
X51618Y602322D02*
D03*
X68000Y604000D02*
D03*
X76600Y603000D02*
D03*
X88057Y601263D02*
D03*
X103394Y564342D02*
D03*
X59237Y394397D02*
D03*
X50000Y463000D02*
D03*
X64998Y463194D02*
D03*
X99434Y443929D02*
D03*
X101000Y435000D02*
D03*
X100651Y428099D02*
D03*
X106774Y207997D02*
D03*
X140997Y282226D02*
D03*
X257062Y360894D02*
D03*
X161062D02*
D03*
X201062Y360829D02*
D03*
X185111Y284281D02*
D03*
X153062Y376763D02*
D03*
X161062Y368960D02*
D03*
X153062Y384894D02*
D03*
Y392763D02*
D03*
Y368894D02*
D03*
X169062Y368960D02*
D03*
X153062Y360763D02*
D03*
X233062Y360829D02*
D03*
X249062Y368894D02*
D03*
X225062Y368960D02*
D03*
Y376828D02*
D03*
X217062Y368894D02*
D03*
X225062Y360829D02*
D03*
X217062Y376763D02*
D03*
Y360763D02*
D03*
X185062Y376763D02*
D03*
X193062Y368960D02*
D03*
X177062Y369025D02*
D03*
X185062Y368894D02*
D03*
X209062Y369025D02*
D03*
X185062Y360763D02*
D03*
X201062Y368960D02*
D03*
X225062Y408829D02*
D03*
X257062D02*
D03*
X217062Y408763D02*
D03*
X153062D02*
D03*
X265062Y392828D02*
D03*
X153062Y432960D02*
D03*
Y424828D02*
D03*
Y416894D02*
D03*
X265062Y408829D02*
D03*
X153062Y400894D02*
D03*
X273062Y360894D02*
D03*
Y408894D02*
D03*
X209062Y376894D02*
D03*
Y408894D02*
D03*
X193062Y376828D02*
D03*
Y408829D02*
D03*
Y392828D02*
D03*
X201062Y408829D02*
D03*
Y384960D02*
D03*
Y376828D02*
D03*
X209062Y417025D02*
D03*
Y433091D02*
D03*
Y424960D02*
D03*
X201062Y440894D02*
D03*
Y433025D02*
D03*
Y424894D02*
D03*
Y416960D02*
D03*
X161062Y400960D02*
D03*
Y416960D02*
D03*
Y408829D02*
D03*
Y424894D02*
D03*
Y384960D02*
D03*
Y376828D02*
D03*
Y392828D02*
D03*
X169062Y376828D02*
D03*
Y408829D02*
D03*
Y416960D02*
D03*
Y392828D02*
D03*
Y400960D02*
D03*
Y384960D02*
D03*
X185062Y384894D02*
D03*
X177062Y408894D02*
D03*
X185062Y392763D02*
D03*
X177062Y392894D02*
D03*
Y376894D02*
D03*
Y401025D02*
D03*
X185062Y400894D02*
D03*
X177062Y417025D02*
D03*
Y385025D02*
D03*
X273062Y472960D02*
D03*
X265062Y465025D02*
D03*
X273062Y465091D02*
D03*
X257062Y481025D02*
D03*
Y472894D02*
D03*
X273062Y481091D02*
D03*
X249062Y456828D02*
D03*
X225062Y433025D02*
D03*
Y440894D02*
D03*
Y416960D02*
D03*
X233062Y424894D02*
D03*
Y416960D02*
D03*
X225062Y424894D02*
D03*
X257062Y456894D02*
D03*
Y424894D02*
D03*
X153062Y480960D02*
D03*
X177062Y481091D02*
D03*
X193062Y481025D02*
D03*
X169062Y472894D02*
D03*
X193062D02*
D03*
X177062Y472960D02*
D03*
X217062Y416894D02*
D03*
Y424828D02*
D03*
Y480960D02*
D03*
X153062Y448960D02*
D03*
X185000Y166000D02*
D03*
X173003Y173774D02*
D03*
X169000Y166000D02*
D03*
X181003Y173774D02*
D03*
X149003D02*
D03*
X145000Y166000D02*
D03*
X137000D02*
D03*
X141003Y173774D02*
D03*
X157003D02*
D03*
X153000Y166000D02*
D03*
X161000D02*
D03*
X165003Y173774D02*
D03*
X125003D02*
D03*
X129000Y166000D02*
D03*
X133003Y173774D02*
D03*
X106774Y191997D02*
D03*
X99000Y196000D02*
D03*
Y204000D02*
D03*
X106774Y199997D02*
D03*
Y215997D02*
D03*
X99000Y220000D02*
D03*
Y212000D02*
D03*
X106774Y239997D02*
D03*
X99000Y244000D02*
D03*
Y252000D02*
D03*
X106774Y247997D02*
D03*
Y231997D02*
D03*
X99000Y236000D02*
D03*
Y228000D02*
D03*
X106774Y255997D02*
D03*
X196997Y282226D02*
D03*
X161000Y290000D02*
D03*
X169000D02*
D03*
X177000D02*
D03*
X172997Y282226D02*
D03*
X145000Y290000D02*
D03*
X148997Y282226D02*
D03*
X132997D02*
D03*
X137000Y290000D02*
D03*
X129000D02*
D03*
X124997Y282226D02*
D03*
X269864Y971475D02*
D03*
X373981Y815952D02*
D03*
X389964Y756938D02*
D03*
X394703Y737608D02*
D03*
X375589Y789560D02*
D03*
X374830Y771141D02*
D03*
X367589Y764560D02*
D03*
X343639Y812116D02*
D03*
X345410Y786095D02*
D03*
X310746Y798287D02*
D03*
X351589Y763560D02*
D03*
X338908D02*
D03*
X311483Y771184D02*
D03*
X323846Y729566D02*
D03*
X264250Y1007096D02*
D03*
X256250Y1002096D02*
D03*
X250250Y1005096D02*
D03*
X236000Y998693D02*
D03*
X250250Y995864D02*
D03*
X256250Y993823D02*
D03*
X250250Y988096D02*
D03*
X258250Y983096D02*
D03*
X242000Y993693D02*
D03*
X229000Y977693D02*
D03*
X263250Y977096D02*
D03*
X238250Y882096D02*
D03*
X235250Y869096D02*
D03*
X234156Y962188D02*
D03*
X228070Y927156D02*
D03*
X229398Y859097D02*
D03*
X216250Y1020096D02*
D03*
X215250Y1014096D02*
D03*
X213250Y1008096D02*
D03*
X209250Y1002096D02*
D03*
X204778Y994751D02*
D03*
X220885Y884651D02*
D03*
X216250Y879972D02*
D03*
X204500Y971693D02*
D03*
X205000Y958693D02*
D03*
X204500Y928693D02*
D03*
X204000Y941693D02*
D03*
X200826Y878599D02*
D03*
X292655Y800493D02*
D03*
X291175Y792062D02*
D03*
X229250Y846096D02*
D03*
X274995Y772154D02*
D03*
X293559Y770935D02*
D03*
X299846Y729566D02*
D03*
X283846D02*
D03*
X267847D02*
D03*
X260675Y817460D02*
D03*
X259964Y771184D02*
D03*
X258589Y787560D02*
D03*
X250589Y765938D02*
D03*
X239245Y751215D02*
D03*
X238211Y765528D02*
D03*
X390214Y707646D02*
D03*
X396589Y689833D02*
D03*
X374425Y724215D02*
D03*
X373589Y681060D02*
D03*
X372590Y663560D02*
D03*
X383589Y632691D02*
D03*
X363246Y643560D02*
D03*
X362590Y623560D02*
D03*
X323846Y721565D02*
D03*
Y697562D02*
D03*
Y705563D02*
D03*
X315847Y713564D02*
D03*
Y689561D02*
D03*
X331812Y643961D02*
D03*
X347164Y642071D02*
D03*
X323846Y681560D02*
D03*
Y673559D02*
D03*
X362589Y616560D02*
D03*
X314234Y618053D02*
D03*
X345344Y617283D02*
D03*
X329136Y617013D02*
D03*
X338229Y595167D02*
D03*
X318245Y594560D02*
D03*
X307847Y713564D02*
D03*
X299846D02*
D03*
X291847Y721565D02*
D03*
X283846D02*
D03*
X291847Y713564D02*
D03*
X283846Y705563D02*
D03*
X307847Y697562D02*
D03*
Y705563D02*
D03*
Y689561D02*
D03*
X299846D02*
D03*
X291847Y705563D02*
D03*
Y697562D02*
D03*
Y681560D02*
D03*
Y689561D02*
D03*
X267847Y721565D02*
D03*
Y713564D02*
D03*
X275847Y705563D02*
D03*
Y697562D02*
D03*
Y689561D02*
D03*
X267847Y705563D02*
D03*
Y681560D02*
D03*
X299846Y673559D02*
D03*
X295366Y599783D02*
D03*
X283846Y673559D02*
D03*
Y665558D02*
D03*
X267847Y673559D02*
D03*
X245654Y652093D02*
D03*
X242690Y639170D02*
D03*
X236589Y641560D02*
D03*
X268589Y600560D02*
D03*
X249175Y608215D02*
D03*
X250515Y579560D02*
D03*
X234645Y627616D02*
D03*
X239590Y572560D02*
D03*
X184736Y994977D02*
D03*
X166416Y993361D02*
D03*
X179500Y971693D02*
D03*
X193000Y958693D02*
D03*
X192500Y971693D02*
D03*
X192000Y941693D02*
D03*
X180000Y958693D02*
D03*
X179000Y941693D02*
D03*
X167500Y971693D02*
D03*
X168000Y958693D02*
D03*
X167000Y941693D02*
D03*
X137250Y994096D02*
D03*
X146250Y993718D02*
D03*
X117250Y991846D02*
D03*
X140857Y947344D02*
D03*
X135068Y962189D02*
D03*
X106250Y960096D02*
D03*
X108250Y950096D02*
D03*
X135000Y942693D02*
D03*
X108250Y943096D02*
D03*
X192500Y928693D02*
D03*
X179500D02*
D03*
X193595Y882996D02*
D03*
X192000Y905693D02*
D03*
X178333Y878383D02*
D03*
X167500Y928693D02*
D03*
X191250Y872096D02*
D03*
X195111Y839843D02*
D03*
X170138Y878096D02*
D03*
X175050Y826096D02*
D03*
X166250Y834827D02*
D03*
X140784Y927155D02*
D03*
X136000Y922193D02*
D03*
X116250Y914096D02*
D03*
X108250Y909096D02*
D03*
X129000Y907693D02*
D03*
X140250Y882096D02*
D03*
X122250D02*
D03*
X155759Y878550D02*
D03*
X116372Y889219D02*
D03*
X112250Y900096D02*
D03*
X222980Y807560D02*
D03*
X222649Y797810D02*
D03*
X224827Y777733D02*
D03*
X215245Y751199D02*
D03*
X214751Y733605D02*
D03*
X223721Y666842D02*
D03*
X214351Y699386D02*
D03*
X213827Y777577D02*
D03*
X181692Y698560D02*
D03*
X180589Y681560D02*
D03*
Y654184D02*
D03*
X212257Y648920D02*
D03*
X210589Y634560D02*
D03*
X183801Y633203D02*
D03*
X225589Y587560D02*
D03*
X231089Y573560D02*
D03*
X223589D02*
D03*
X214589Y589893D02*
D03*
X201589Y589209D02*
D03*
X188589Y762060D02*
D03*
X197722Y743560D02*
D03*
X182968Y726684D02*
D03*
X240589Y589819D02*
D03*
X294589Y592472D02*
D03*
X329589Y595196D02*
D03*
X297589Y562462D02*
D03*
X370590Y599560D02*
D03*
X321714D02*
D03*
X267847Y657557D02*
D03*
X291847D02*
D03*
X259847D02*
D03*
X331846D02*
D03*
X315847D02*
D03*
X307847D02*
D03*
X381589Y654445D02*
D03*
X283846Y657070D02*
D03*
X323846Y657557D02*
D03*
X354618Y628757D02*
D03*
X306156Y628484D02*
D03*
X307589Y600248D02*
D03*
X354464Y603560D02*
D03*
X337635Y601440D02*
D03*
X337718Y628890D02*
D03*
X382589Y626560D02*
D03*
X370971Y629030D02*
D03*
X321473Y628890D02*
D03*
X225589Y611593D02*
D03*
X258496Y619512D02*
D03*
X251847Y657557D02*
D03*
X318703Y762560D02*
D03*
X318589Y786560D02*
D03*
X301589Y786813D02*
D03*
X318589Y816560D02*
D03*
X328087Y819560D02*
D03*
X323846Y713564D02*
D03*
X339846D02*
D03*
X315847Y705563D02*
D03*
Y697562D02*
D03*
X339846D02*
D03*
X283846Y681560D02*
D03*
Y697562D02*
D03*
Y713564D02*
D03*
Y689561D02*
D03*
X299846Y705563D02*
D03*
X291847Y673559D02*
D03*
X299846Y681560D02*
D03*
Y697562D02*
D03*
X307847Y681560D02*
D03*
X323846Y665558D02*
D03*
X315847Y681560D02*
D03*
X331846Y673559D02*
D03*
X331847Y681560D02*
D03*
X339846D02*
D03*
X315847Y673559D02*
D03*
X307847Y665558D02*
D03*
X331846D02*
D03*
X307847Y673559D02*
D03*
X351589Y785560D02*
D03*
X338908Y786071D02*
D03*
X331846Y745568D02*
D03*
Y729566D02*
D03*
X339846D02*
D03*
Y745568D02*
D03*
X299846Y721565D02*
D03*
X291847Y729566D02*
D03*
X299846Y737567D02*
D03*
X307847Y745568D02*
D03*
Y721565D02*
D03*
X315847D02*
D03*
X307847Y729566D02*
D03*
X291847Y737567D02*
D03*
X299846Y745568D02*
D03*
X224680Y714116D02*
D03*
X176476Y709438D02*
D03*
X250589Y817671D02*
D03*
X214589Y613029D02*
D03*
X212320Y625479D02*
D03*
X223386Y658590D02*
D03*
X180589Y663435D02*
D03*
X395589Y816560D02*
D03*
X279179Y815560D02*
D03*
X224635Y674651D02*
D03*
X390761Y790465D02*
D03*
X214027Y642045D02*
D03*
X179589Y673560D02*
D03*
X250589Y786980D02*
D03*
X267589Y787134D02*
D03*
X281738Y786457D02*
D03*
X232820Y789583D02*
D03*
X367635Y786996D02*
D03*
X371262Y704810D02*
D03*
X381715Y709689D02*
D03*
X251847Y745568D02*
D03*
X225589Y743560D02*
D03*
X232434Y762404D02*
D03*
X259847Y745568D02*
D03*
X225054Y725763D02*
D03*
X259847Y737567D02*
D03*
X267847D02*
D03*
X259875Y729566D02*
D03*
X259818Y721593D02*
D03*
X251847Y713564D02*
D03*
Y721565D02*
D03*
X259703Y713707D02*
D03*
X267847Y697562D02*
D03*
Y665558D02*
D03*
X259847Y673559D02*
D03*
X267847Y689561D02*
D03*
X259847Y665558D02*
D03*
Y697562D02*
D03*
X251847Y665558D02*
D03*
Y697562D02*
D03*
X224947Y691763D02*
D03*
X251847Y673559D02*
D03*
Y705563D02*
D03*
X275847Y713564D02*
D03*
Y673559D02*
D03*
Y729566D02*
D03*
Y721565D02*
D03*
Y737567D02*
D03*
Y665558D02*
D03*
Y681560D02*
D03*
X382211Y757261D02*
D03*
X185214Y642045D02*
D03*
X201589Y611560D02*
D03*
X392000Y1117000D02*
D03*
X381000D02*
D03*
X370000D02*
D03*
X392000Y1128000D02*
D03*
X381000D02*
D03*
X370000D02*
D03*
X392000Y1139000D02*
D03*
X381000D02*
D03*
X370000D02*
D03*
X235393Y887735D02*
D03*
X227142Y887627D02*
D03*
X109000Y915889D02*
D03*
X222000Y1002096D02*
D03*
X204672Y883096D02*
D03*
X209828D02*
D03*
X172150Y857096D02*
D03*
X165828Y883096D02*
D03*
X160672D02*
D03*
X128672Y882096D02*
D03*
X133828D02*
D03*
X182394Y883096D02*
D03*
X187551D02*
D03*
X155250Y993096D02*
D03*
X161000Y994582D02*
D03*
X139000Y937193D02*
D03*
X134994Y932054D02*
D03*
X176000Y905693D02*
D03*
X233340Y922480D02*
D03*
X233636Y932352D02*
D03*
X228961Y937324D02*
D03*
X233934Y942669D02*
D03*
X234152Y952693D02*
D03*
X228918Y957693D02*
D03*
X229109Y967384D02*
D03*
X233000Y972693D02*
D03*
X225250Y994693D02*
D03*
X134845Y972061D02*
D03*
X139818Y967534D02*
D03*
X140412Y957216D02*
D03*
X135250Y951693D02*
D03*
D224*
X243000Y426572D02*
G03*
X246132Y419011I10692J0D01*
G01*
X251325Y409115D02*
G03*
X248000Y417143I-11353J0D01*
G01*
X251325Y391219D02*
G03*
X254538Y383462I10970J0D01*
G01*
X377051Y289809D02*
G03*
X395012Y297249I0J25400D01*
G01*
X340751D02*
G03*
X358712Y289809I17960J17960D01*
G01*
X330000Y318521D02*
G03*
X337439Y300560I25400J0D01*
G01*
X330000Y331479D02*
G03*
X322561Y349440I-25400J0D01*
G01*
X310077Y361923D02*
G03*
X292116Y369363I-17960J-17960D01*
G01*
X261198Y376802D02*
G03*
X279158Y369363I17960J17960D01*
G01*
X244918Y431201D02*
G03*
X243000Y426572I4629J-4629D01*
G01*
X256000Y436000D02*
G03*
X245273Y431557I0J-15170D01*
G01*
X256000Y436000D02*
G03*
X269657Y441657I0J19314D01*
G01*
X272561Y444561D02*
G03*
X280000Y462521I-17960J17960D01*
G01*
Y481586D02*
G03*
X279000Y484000I-3414J0D01*
G01*
X273000Y497131D02*
G03*
X278043Y484957I17217J0D01*
G01*
X257062Y408829D02*
G03*
X260078Y410078I0J4265D01*
G01*
X276000Y426000D02*
G03*
X279000Y433243I-7243J7243D01*
G01*
X280707Y439122D02*
G03*
X279000Y435000I4122J-4122D01*
G01*
X291650Y450065D02*
G03*
X297521Y464238I-14173J14173D01*
G01*
Y473795D02*
G03*
X292087Y486913I-18552J0D01*
G01*
X280622Y502504D02*
G03*
X283540Y495460I9961J0D01*
G01*
X280000Y507071D02*
G03*
X280622Y502504I17071J0D01*
G01*
X274934Y408894D02*
G03*
X292894Y416334I0J25400D01*
G01*
X311068Y434507D02*
G03*
X315000Y444000I-9493J9493D01*
G01*
X322439Y500439D02*
G03*
X315000Y482479I17960J-17960D01*
G01*
X280439Y563439D02*
G03*
X273000Y545479I17960J-17960D01*
G01*
X283000Y566000D02*
G03*
X287492Y576844I-10844J10844D01*
G01*
Y611987D02*
G03*
X280052Y629948I-25400J0D01*
G01*
X263825Y656323D02*
G03*
X271000Y639000I24499J0D01*
G01*
X263825Y672326D02*
G03*
X259908Y681781I-13372J0D01*
G01*
X283500Y519185D02*
G03*
X280000Y510735I8450J-8450D01*
G01*
X283500Y519185D02*
G03*
X290338Y535693I-16508J16508D01*
G01*
X297589Y570071D02*
G03*
X290338Y552564I17507J-17507D01*
G01*
X297589Y570071D02*
G03*
X300500Y577098I-7027J7027D01*
G01*
Y626979D02*
G03*
X293060Y644939I-25400J0D01*
G01*
X283846Y657070D02*
G03*
X285909Y652091I7042J0D01*
G01*
X288989Y501510D02*
G03*
X306949Y508949I0J25400D01*
G01*
X316560Y518560D02*
G03*
X324000Y536521I-17960J17960D01*
G01*
X328243Y601243D02*
G03*
X324000Y591000I10243J-10243D01*
G01*
X334000Y607000D02*
G03*
X336340Y612649I-5649J5649D01*
G01*
Y617278D02*
G03*
X334589Y621504I-5976J0D01*
G01*
X332089Y626645D02*
G03*
X333957Y622136I6376J0D01*
G01*
X336474Y637231D02*
G03*
X332089Y626645I10586J-10586D01*
G01*
X336683Y637440D02*
G03*
X338225Y641162I-3722J3722D01*
G01*
X339118Y646118D02*
G03*
X338225Y643961I2157J-2157D01*
G01*
X344000Y651000D02*
G03*
X349278Y663742I-12742J12742D01*
G01*
Y685915D02*
G03*
X348000Y689000I-4363J0D01*
G01*
X344000Y697000D02*
G03*
X346828Y690172I9657J0D01*
G01*
X344000Y697000D02*
G03*
X341879Y702121I-7243J0D01*
G01*
X334000Y714000D02*
G03*
X336828Y707172I9657J0D01*
G01*
X334000Y716200D02*
G03*
X331183Y723000I-9617J0D01*
G01*
D02*
G03*
X324679Y725694I-6504J-6504D01*
G01*
X273541Y725695D02*
G03*
X273620Y725694I79J9322D01*
G01*
X264024Y729518D02*
G03*
X267814Y725743I3822J48D01*
G01*
X264000Y731453D02*
G03*
X262614Y734799I-4733J0D01*
G01*
X343165Y732885D02*
G03*
X331183Y737848I-11982J-11982D01*
G01*
X346000Y726041D02*
G03*
X343165Y732885I-9678J0D01*
G01*
X346000Y705000D02*
G03*
X350243Y694757I14485J0D01*
G01*
X354000Y686757D02*
G03*
X351000Y694000I-10243J0D01*
G01*
X350720Y634859D02*
G03*
X354000Y642777I-7918J7918D01*
G01*
X350720Y634859D02*
G03*
X350000Y633120I1739J-1739D01*
G01*
X349090Y612231D02*
G03*
X350000Y614429I-2198J2198D01*
G01*
X349090Y612231D02*
G03*
X347000Y607186I5044J-5044D01*
G01*
X343278Y593504D02*
G03*
X347000Y602489I-8985J8985D01*
G01*
X343278Y593504D02*
G03*
X338000Y580761I12743J-12743D01*
G01*
X330560Y508560D02*
G03*
X338000Y526521I-17960J17960D01*
G01*
X328639Y707187D02*
G03*
X322625Y709677I-6014J-6014D01*
G01*
X331000Y701558D02*
G03*
X328690Y707136I-7888J0D01*
G01*
X331000Y701558D02*
G03*
X333752Y694915I9394J0D01*
G01*
X345000Y680838D02*
G03*
X343000Y685667I-6828J0D01*
G01*
X342172Y658172D02*
G03*
X345000Y665000I-6828J6828D01*
G01*
X333577Y652984D02*
G03*
X339393Y655393I0J8224D01*
G01*
X333577Y652984D02*
G03*
X328719Y650972I0J-6871D01*
G01*
X327454Y649707D02*
G03*
X326000Y646196I3511J-3511D01*
G01*
X323879Y639879D02*
G03*
X326000Y645000I-5121J5121D01*
G01*
X310000Y626000D02*
G03*
X307896Y620921I5079J-5079D01*
G01*
Y617493D02*
G03*
X311000Y610000I10596J0D01*
G01*
X313000Y605172D02*
G03*
X311000Y610000I-6829J0D01*
G01*
X308000Y558000D02*
G03*
X313000Y570071I-12071J12071D01*
G01*
X295000Y549000D02*
G03*
X301828Y551828I0J9657D01*
G01*
X377439Y582019D02*
G03*
X370000Y564058I17960J-17960D01*
G01*
X381561Y586140D02*
G03*
X389000Y604100I-17960J17960D01*
G01*
Y648000D02*
G03*
X383696Y660805I-18109J0D01*
G01*
X380695Y667370D02*
G03*
X383214Y661287I8603J0D01*
G01*
X380695Y697097D02*
G03*
X375479Y709689I-17807J0D01*
G01*
X372389Y715829D02*
G03*
X374546Y710621I7364J0D01*
G01*
X372389Y715829D02*
G03*
X368301Y725699I-13959J0D01*
G01*
X373359Y732581D02*
G03*
X381123Y729365I7764J7764D01*
G01*
X393439Y722561D02*
G03*
X381123Y729365I-17960J-17960D01*
G01*
X365800Y740140D02*
G03*
X365191Y740809I-7390J-6112D01*
G01*
X362071Y731929D02*
G03*
X345000Y739000I-17071J-17071D01*
G01*
X333757Y743657D02*
G03*
X345000Y739000I11243J11243D01*
G01*
X405880Y699599D02*
G03*
X398441Y717559I-25400J0D01*
G01*
X362439Y743560D02*
G03*
X344479Y751000I-17960J-17960D01*
G01*
X320961D02*
G03*
X307847Y745568I0J-18548D01*
G01*
X377561Y750440D02*
G03*
X395521Y743000I17960J17960D01*
G01*
X373000Y755000D02*
G03*
X362035Y759542I-10965J-10965D01*
G01*
X326611D02*
G03*
X308650Y752102I0J-25400D01*
G01*
X360439Y599440D02*
G03*
X353000Y581479I17960J-17960D01*
G01*
X367000Y606000D02*
G03*
X370029Y613312I-7312J7312D01*
G01*
Y618796D02*
G03*
X367590Y624685I-8328J0D01*
G01*
X366000Y628522D02*
G03*
X367590Y624685I5427J0D01*
G01*
X366943Y634335D02*
G03*
X366000Y632059I2276J-2276D01*
G01*
X366943Y634335D02*
G03*
X368382Y637810I-3475J3475D01*
G01*
Y640723D02*
G03*
X364746Y649501I-12414J0D01*
G01*
X360000Y657000D02*
G03*
X361947Y652299I6647J0D01*
G01*
X361000Y670000D02*
G03*
X360000Y667586I2414J-2414D01*
G01*
X361000Y670000D02*
G03*
X363000Y674828I-4828J4828D01*
G01*
Y701558D02*
G03*
X356311Y717708I-22839J0D01*
G01*
X268451Y405439D02*
G03*
X286411Y398000I17960J17960D01*
G01*
X303388D02*
G03*
X311362Y401303I0J11278D01*
G01*
X313561Y403501D02*
G03*
X321000Y421462I-17960J17960D01*
G01*
X326823Y474058D02*
G03*
X321000Y460000I14058J-14058D01*
G01*
X345560Y492796D02*
G03*
X353000Y510756I-17960J17960D01*
G01*
X303291Y735289D02*
G03*
X304000Y737000I-1711J1711D01*
G01*
Y744913D02*
G03*
X303989Y745097I-1524J0D01*
G01*
X304450Y747456D02*
G03*
X303989Y745097I3397J-1888D01*
G01*
X305523Y748975D02*
G03*
X304655Y747824I3677J-3677D01*
G01*
X261638Y739358D02*
G03*
X263817Y744619I-5260J5260D01*
G01*
X266589Y753336D02*
G03*
X263817Y746644I6692J-6692D01*
G01*
X267286Y754033D02*
G03*
X271000Y763000I-8967J8967D01*
G01*
X278440Y796486D02*
G03*
X271000Y778526I17960J-17960D01*
G01*
X281029Y799076D02*
G03*
X288083Y816105I-17030J17030D01*
G01*
X251847Y745568D02*
G03*
X246000Y731453I14115J-14115D01*
G01*
Y715434D02*
G03*
X247269Y712372I4331J0D01*
G01*
D02*
G03*
X247873Y711820I6478J6478D01*
G01*
X249355Y710581D02*
G03*
X251870Y709677I2492J2982D01*
G01*
X253746Y709689D02*
G03*
X253737Y709689I0J-1524D01*
G01*
X267587Y709686D02*
G03*
X267495Y709689I-92J-1521D01*
G01*
X267587Y709686D02*
G03*
X267960Y709679I260J3877D01*
G01*
X275587Y709686D02*
G03*
X275504Y709689I-92J-1521D01*
G01*
X275587Y709686D02*
G03*
X275847Y709677I260J3877D01*
G01*
X409067Y768333D02*
G03*
X411000Y773000I-4667J4667D01*
G01*
Y778172D02*
G03*
X409000Y783000I-6828J0D01*
G01*
D02*
G03*
X404172Y785000I-4828J-4828D01*
G01*
X398145D02*
G03*
X390761Y781942I0J-10442D01*
G01*
X381245Y778000D02*
G03*
X390761Y781942I0J13458D01*
G01*
X336858Y778000D02*
G03*
X318897Y770561I0J-25400D01*
G01*
X304048Y755712D02*
G03*
X299846Y745568I10144J-10144D01*
G01*
X298288Y738212D02*
G03*
X299846Y737567I1559J1559D01*
G01*
X295765Y743187D02*
G03*
X297500Y739000I5922J0D01*
G01*
X303205Y777912D02*
G03*
X295765Y759952I17960J-17960D01*
G01*
X309693Y785289D02*
G03*
X306661Y781368I13831J-13831D01*
G01*
X334610Y799684D02*
G03*
X316649Y792245I0J-25400D01*
G01*
X293201Y736212D02*
G03*
X299170Y733740I5970J5970D01*
G01*
D02*
G03*
X299860Y733680I676J3827D01*
G01*
X126000Y354753D02*
G03*
X127969Y352784I1969J0D01*
G01*
X129279Y348847D02*
G03*
X129279Y352784I0J1969D01*
G01*
X115919Y348847D02*
G03*
X115919Y344910I0J-1969D01*
G01*
X131086Y340973D02*
G03*
X131086Y344910I0J1969D01*
G01*
X115919Y340973D02*
G03*
X115919Y337036I0J-1969D01*
G01*
X131086Y333099D02*
G03*
X131086Y337036I0J1969D01*
G01*
X115919Y333099D02*
G03*
X115919Y329162I0J-1969D01*
G01*
X131086Y325225D02*
G03*
X131086Y329162I0J1969D01*
G01*
X115919Y325225D02*
G03*
X115919Y321288I0J-1969D01*
G01*
X126000Y319319D02*
G03*
X124031Y321288I-1969J0D01*
G01*
X237000Y324107D02*
G03*
X238969Y322138I1969J0D01*
G01*
X244368Y318201D02*
G03*
X244368Y322138I0J1969D01*
G01*
X235739Y318201D02*
G03*
X235739Y314264I0J-1969D01*
G01*
X247731Y310327D02*
G03*
X247731Y314264I0J1969D01*
G01*
X235739Y310327D02*
G03*
X235739Y306390I0J-1969D01*
G01*
X247731Y302453D02*
G03*
X247731Y306390I0J1969D01*
G01*
X235739Y302453D02*
G03*
X235739Y298516I0J-1969D01*
G01*
X247731Y294579D02*
G03*
X247731Y298516I0J1969D01*
G01*
X238969Y294579D02*
G03*
X237000Y292611I0J-1969D01*
G01*
X188885Y334742D02*
G03*
X186916Y336711I-1969J0D01*
G01*
X183573Y340648D02*
G03*
X183573Y336711I0J-1969D01*
G01*
X191599Y340648D02*
G03*
X191599Y344585I0J1969D01*
G01*
X175322Y348522D02*
G03*
X175322Y344585I0J-1969D01*
G01*
X191599Y348522D02*
G03*
X191599Y352459I0J1969D01*
G01*
X175322Y356396D02*
G03*
X175322Y352459I0J-1969D01*
G01*
X191599Y356396D02*
G03*
X191599Y360333I0J1969D01*
G01*
X188885Y362301D02*
G03*
X190853Y360333I1969J0D01*
G01*
X182247Y325331D02*
G03*
X185031Y325331I1392J1392D01*
G01*
X180268Y327310D02*
G03*
X177484Y327310I-1392J-1392D01*
G01*
X177484Y327310D02*
G03*
X177484Y324527I1392J-1392D01*
G01*
X179464Y319763D02*
G03*
X179464Y322547I-1392J1392D01*
G01*
X177000Y313711D02*
G03*
X178969Y311743I1969J0D01*
G01*
X181317Y307806D02*
G03*
X181317Y311743I0J1969D01*
G01*
X166269Y307806D02*
G03*
X166269Y303869I0J-1969D01*
G01*
X176830Y299932D02*
G03*
X176830Y303869I0J1969D01*
G01*
X166269Y299932D02*
G03*
X166269Y295995I0J-1969D01*
G01*
X177000Y294026D02*
G03*
X175032Y295995I-1969J0D01*
G01*
X253746Y709689D02*
X267495D01*
X299865Y733685D02*
X301687D01*
X246132Y419011D02*
X248000Y417143D01*
X251325Y391219D02*
Y409115D01*
X254538Y383462D02*
X261198Y376802D01*
X378000Y453400D02*
X390000Y441400D01*
Y382585D02*
Y441400D01*
X381625Y374210D02*
X390000Y382585D01*
X356790Y374210D02*
X381625D01*
X292978Y385928D02*
X298083Y380823D01*
X350177D01*
X356790Y374210D01*
X344000Y394000D02*
X378000Y428000D01*
X317826Y394000D02*
X344000D01*
X310075Y386249D02*
X317826Y394000D01*
X305617Y386249D02*
X310075D01*
X366100Y402600D02*
X378000D01*
X350329Y386829D02*
X366100Y402600D01*
X316152Y386829D02*
X350329D01*
X304230Y854771D02*
X313752D01*
X258000Y901000D02*
X304230Y854771D01*
X258000Y901000D02*
Y907624D01*
X243554Y922069D02*
X258000Y907624D01*
X243554Y922069D02*
Y976445D01*
X238485Y981515D02*
X243554Y976445D01*
X189037Y981515D02*
X238485D01*
X188602Y981080D02*
X189037Y981515D01*
X115184Y981080D02*
X188602D01*
X348854Y1134817D02*
X362000Y1121670D01*
Y1116000D02*
Y1121670D01*
Y1116000D02*
X370000Y1108000D01*
X398000D01*
X410000Y1096000D01*
Y1053000D02*
Y1096000D01*
X403960Y1046960D02*
X410000Y1053000D01*
X403960Y915332D02*
Y1046960D01*
Y915332D02*
X412573Y906719D01*
Y900656D02*
Y906719D01*
X410000Y841893D02*
Y842000D01*
X405107Y837000D02*
X410000Y841893D01*
X331000Y837000D02*
X405107D01*
X401000Y844893D02*
Y865704D01*
X390000Y844000D02*
X400107D01*
X401000Y844893D01*
Y865704D02*
X418004Y882708D01*
X333703Y860141D02*
X377559D01*
X384700Y853000D02*
X394000D01*
X377559Y860141D02*
X384700Y853000D01*
X325886Y867958D02*
X333703Y860141D01*
X321000Y847000D02*
X331000Y837000D01*
X321000Y847000D02*
Y856000D01*
X315100Y861900D02*
X321000Y856000D01*
X305100Y861900D02*
X315100D01*
X262000Y905000D02*
X305100Y861900D01*
X262000Y905000D02*
Y911000D01*
X250134Y922866D02*
X262000Y911000D01*
X250134Y922866D02*
Y945134D01*
X259000Y954000D01*
X267073Y975423D02*
Y992073D01*
X272000Y997000D01*
X259000Y967350D02*
X267073Y975423D01*
X259000Y954000D02*
Y967350D01*
X272000Y997000D02*
X279000D01*
X281000Y999000D01*
Y1041000D01*
X306000Y1066000D01*
X316000D01*
X350000Y1100000D01*
X387834D01*
X394707Y1093127D01*
X382000Y852000D02*
X390000Y844000D01*
X279421Y952039D02*
X280233D01*
X256134Y930005D02*
Y938539D01*
X334138Y852000D02*
X382000D01*
X288000Y959806D02*
Y1025250D01*
X261866Y944272D02*
X271654D01*
X280233Y952039D02*
X288000Y959806D01*
X256134Y938539D02*
X261866Y944272D01*
X271654D02*
X279421Y952039D01*
X256134Y930005D02*
X334138Y852000D01*
X288000Y1025250D02*
X319750Y1057000D01*
X331000D01*
X345000Y1071000D01*
Y1083000D01*
X356000Y1094000D01*
X366000D01*
X287000Y925000D02*
X325886Y886114D01*
Y867958D02*
Y886114D01*
X267000Y925000D02*
X287000D01*
X263194Y928806D02*
X267000Y925000D01*
X263194Y928806D02*
Y933530D01*
X263566Y933157D01*
X288945D01*
X316000Y960212D01*
Y1031000D01*
X332000Y1047000D01*
X343674D01*
X382221Y1085547D01*
Y1091848D01*
X395012Y297249D02*
X397583Y299819D01*
X358712Y289809D02*
X377051D01*
X337439Y300560D02*
X340751Y297249D01*
X330000Y318521D02*
Y331479D01*
X310077Y361923D02*
X322561Y349440D01*
X279158Y369363D02*
X292116D01*
X244918Y431201D02*
X245273Y431557D01*
X269657Y441657D02*
X272561Y444561D01*
X280000Y462521D02*
Y481586D01*
X278043Y484957D02*
X279000Y484000D01*
X273000Y497131D02*
Y545479D01*
X260078Y410078D02*
X276000Y426000D01*
X279000Y433243D02*
Y435000D01*
X280707Y439122D02*
X291650Y450065D01*
X297521Y464238D02*
Y473795D01*
X283540Y495460D02*
X292087Y486913D01*
X273062Y408894D02*
X274934D01*
X292894Y416334D02*
X311068Y434507D01*
X315000Y444000D02*
Y482479D01*
X322439Y500439D02*
X330560Y508560D01*
X280000Y507071D02*
Y510735D01*
X280439Y563439D02*
X283000Y566000D01*
X287492Y576844D02*
Y611987D01*
X271000Y639000D02*
X280052Y629948D01*
X263825Y656323D02*
Y672326D01*
X290338Y535693D02*
Y552564D01*
X300500Y577098D02*
Y626979D01*
X285909Y652091D02*
X293060Y644939D01*
X287752Y501510D02*
X288989D01*
X306949Y508949D02*
X316560Y518560D01*
X324000Y536521D02*
Y591000D01*
X328243Y601243D02*
X334000Y607000D01*
X336340Y612649D02*
Y617278D01*
X333957Y622136D02*
X334589Y621504D01*
X336474Y637231D02*
X336683Y637440D01*
X338225Y641162D02*
Y643961D01*
X339118Y646118D02*
X344000Y651000D01*
X349278Y663742D02*
Y685915D01*
X346828Y690172D02*
X348000Y689000D01*
X336828Y707172D02*
X341879Y702121D01*
X334000Y714000D02*
Y716200D01*
X273620Y725694D02*
X324679D01*
X267814Y725743D02*
X273541Y725695D01*
X264000Y731453D02*
X264024Y729518D01*
X259847Y737567D02*
X262614Y734799D01*
X323846Y737848D02*
X331183D01*
X346000Y705000D02*
Y726041D01*
X350243Y694757D02*
X351000Y694000D01*
X354000Y642777D02*
Y686757D01*
X350000Y614429D02*
Y633120D01*
X347000Y602489D02*
Y607186D01*
X338000Y526521D02*
Y580761D01*
X328639Y707187D02*
X328690Y707136D01*
X251870Y709677D02*
X253726D01*
X333752Y694915D02*
X343000Y685667D01*
X345000Y665000D02*
Y680838D01*
X339393Y655393D02*
X342172Y658172D01*
X327454Y649707D02*
X328719Y650972D01*
X326000Y645000D02*
Y646196D01*
X310000Y626000D02*
X323879Y639879D01*
X307896Y617493D02*
Y620921D01*
X313000Y570071D02*
Y605172D01*
X301828Y551828D02*
X308000Y558000D01*
X370000Y561000D02*
Y564058D01*
X377439Y582019D02*
X381561Y586140D01*
X389000Y604100D02*
Y648000D01*
X383214Y661287D02*
X383696Y660805D01*
X380695Y667370D02*
Y697097D01*
X374546Y710621D02*
X375479Y709689D01*
X365800Y740140D02*
X373359Y732581D01*
X362071Y731929D02*
X368301Y725699D01*
X331846Y745568D02*
X333757Y743657D01*
X405880Y677596D02*
Y699599D01*
X393439Y722561D02*
X398441Y717559D01*
X362439Y743560D02*
X365191Y740809D01*
X320961Y751000D02*
X344479D01*
X395521Y743000D02*
X406000D01*
X373000Y755000D02*
X377561Y750440D01*
X326611Y759542D02*
X362035D01*
X305523Y748975D02*
X308650Y752102D01*
X353000Y510756D02*
Y581479D01*
X360439Y599440D02*
X367000Y606000D01*
X370029Y613312D02*
Y618796D01*
X366000Y628522D02*
Y632059D01*
X368382Y637810D02*
Y640723D01*
X361947Y652299D02*
X364746Y649501D01*
X360000Y657000D02*
Y667586D01*
X363000Y674828D02*
Y701558D01*
X265062Y408829D02*
X268451Y405439D01*
X286411Y398000D02*
X303388D01*
X311362Y401303D02*
X313561Y403501D01*
X321000Y421462D02*
Y460000D01*
X326823Y474058D02*
X345560Y492796D01*
X301687Y733685D02*
X303291Y735289D01*
X304000Y737000D02*
Y744913D01*
X304450Y747456D02*
X304655Y747824D01*
X259847Y737567D02*
X261638Y739358D01*
X263817Y744619D02*
Y746644D01*
X266589Y753336D02*
X267286Y754033D01*
X271000Y763000D02*
Y778526D01*
X278440Y796486D02*
X281029Y799076D01*
X288083Y816105D02*
Y851770D01*
X246000Y715434D02*
Y731453D01*
X247873Y711820D02*
X249355Y710581D01*
X253746Y709689D02*
X253746Y709689D01*
X275847Y709677D02*
X323846D01*
X267960Y709679D02*
X268316Y709689D01*
X275504D01*
X253726Y709677D02*
X253737Y709689D01*
X406163Y765430D02*
X409067Y768333D01*
X411000Y773000D02*
Y778172D01*
X398145Y785000D02*
X404172D01*
X336858Y778000D02*
X381245D01*
X304048Y755712D02*
X318897Y770561D01*
X297500Y739000D02*
X298288Y738212D01*
X295765Y743187D02*
Y759952D01*
X303205Y777912D02*
X306661Y781368D01*
X309693Y785289D02*
X316649Y792245D01*
X334610Y799684D02*
X401864D01*
X291847Y737567D02*
X293201Y736212D01*
X299860Y733680D02*
X299865Y733685D01*
X126000Y359283D02*
X127040Y360323D01*
X126000Y354753D02*
Y359283D01*
X127969Y352784D02*
X129279D01*
X115919Y348847D02*
X129279D01*
X115919Y344910D02*
X131086D01*
X115919Y340973D02*
X131086D01*
X115919Y337036D02*
X131086D01*
X115919Y333099D02*
X131086D01*
X115919Y329162D02*
X131086D01*
X115919Y325225D02*
X131086D01*
X115919Y321288D02*
X124031D01*
X126000Y318621D02*
Y319319D01*
X127040Y360323D02*
X131587Y364870D01*
X126000Y316000D02*
Y318621D01*
X235907Y328093D02*
X237000Y327000D01*
Y324107D02*
Y327000D01*
X238969Y322138D02*
X244368D01*
X235739Y318201D02*
X244368D01*
X235739Y314264D02*
X247731D01*
X235739Y310327D02*
X247731D01*
X235739Y306390D02*
X247731D01*
X235739Y302453D02*
X247731D01*
X235739Y298516D02*
X247731D01*
X238969Y294579D02*
X247731D01*
X237000Y287975D02*
Y292611D01*
X233000Y331000D02*
X235907Y328093D01*
X237000Y286000D02*
Y287975D01*
X188885Y330682D02*
Y334742D01*
X183573Y336711D02*
X186916D01*
X183573Y340648D02*
X191599D01*
X175322Y344585D02*
X191599D01*
X175322Y348522D02*
X191599D01*
X175322Y352459D02*
X191599D01*
X175322Y356396D02*
X191599D01*
X190853Y360333D02*
X191599D01*
X188885Y362301D02*
Y363000D01*
Y329184D02*
Y330682D01*
Y363000D02*
Y365071D01*
X185031Y325331D02*
X187747Y328047D01*
X180268Y327310D02*
X182247Y325331D01*
X177484Y327310D02*
X177484Y327310D01*
Y324527D02*
X179464Y322547D01*
X179463Y322547D02*
X179464Y322547D01*
X178969Y319269D02*
X179464Y319763D01*
X187747Y328047D02*
X188885Y329184D01*
X178700Y319000D02*
X178969Y319269D01*
X177000Y317300D02*
X178700Y319000D01*
X177000Y313711D02*
Y317300D01*
X178969Y311743D02*
X181317D01*
X166269Y307806D02*
X181317D01*
X166269Y303869D02*
X176830D01*
X166269Y299932D02*
X176830D01*
X166269Y295995D02*
X175032D01*
X177000Y293328D02*
Y294026D01*
Y290000D02*
Y293328D01*
X115814Y198928D02*
Y205079D01*
X121000Y210265D02*
Y218814D01*
X115814Y205079D02*
X121000Y210265D01*
X115814Y224000D02*
X121000Y218814D01*
X115814Y224000D02*
Y246814D01*
X112886Y196000D02*
X115814Y198928D01*
X99000Y196000D02*
X112886D01*
X115814Y246814D02*
X131000Y262000D01*
X196885Y317885D02*
Y365137D01*
X185062Y368894D02*
X188885Y365071D01*
X138000Y357000D02*
X163060Y331940D01*
X176707D01*
X166288Y262000D02*
X181288Y277000D01*
X131000Y262000D02*
X166288D01*
X181288Y277000D02*
Y302288D01*
X156972Y364870D02*
X161062Y368960D01*
X131587Y364870D02*
X156972D01*
X126000Y316000D02*
X137000Y305000D01*
Y290000D02*
Y305000D01*
X201062Y360829D02*
X230890Y331000D01*
X233000D01*
X225078Y274078D02*
X237000Y286000D01*
X195314Y274078D02*
X225078D01*
X185111Y284281D02*
X195314Y274078D01*
X181288Y302288D02*
X196885Y317885D01*
X193062Y368960D02*
X196885Y365137D01*
D225*
X397250Y1251000D02*
D03*
X313750D02*
D03*
D226*
X377750Y1221000D02*
D03*
X333250D02*
D03*
D227*
X378000Y504200D02*
D03*
X403400D02*
D03*
X378000Y478800D02*
D03*
Y453400D02*
D03*
Y428000D02*
D03*
Y402600D02*
D03*
X403400Y478800D02*
D03*
Y453400D02*
D03*
Y428000D02*
D03*
D228*
Y402600D02*
D03*
D229*
X57000Y575500D02*
D03*
X68000D02*
D03*
X79000D02*
D03*
X57000Y564500D02*
D03*
X68000D02*
D03*
X79000D02*
D03*
X57000Y553500D02*
D03*
X68000D02*
D03*
X79000D02*
D03*
X368507Y897495D02*
D03*
X357506Y886495D02*
D03*
Y897495D02*
D03*
X346506Y886495D02*
D03*
X368507D02*
D03*
Y875495D02*
D03*
X346506D02*
D03*
X357506D02*
D03*
X335507Y897495D02*
D03*
X346506D02*
D03*
X335507Y864495D02*
D03*
Y886495D02*
D03*
Y875495D02*
D03*
X368507Y864495D02*
D03*
X357506D02*
D03*
X346506D02*
D03*
X139000Y206000D02*
D03*
Y217000D02*
D03*
Y228000D02*
D03*
Y239000D02*
D03*
Y250000D02*
D03*
X150000Y206000D02*
D03*
Y217000D02*
D03*
Y228000D02*
D03*
Y239000D02*
D03*
Y250000D02*
D03*
X161000Y206000D02*
D03*
Y217000D02*
D03*
Y228000D02*
D03*
Y239000D02*
D03*
Y250000D02*
D03*
X172000Y206000D02*
D03*
Y217000D02*
D03*
Y228000D02*
D03*
Y239000D02*
D03*
Y250000D02*
D03*
X183000Y206000D02*
D03*
Y217000D02*
D03*
Y228000D02*
D03*
Y239000D02*
D03*
Y250000D02*
D03*
X76783Y417000D02*
D03*
X65783D02*
D03*
X54783D02*
D03*
X76783Y428000D02*
D03*
X65783D02*
D03*
X54783D02*
D03*
X76783Y439000D02*
D03*
X65783D02*
D03*
X54783D02*
D03*
X331070Y433669D02*
D03*
X342070D02*
D03*
X275000Y252588D02*
D03*
Y240088D02*
D03*
Y227588D02*
D03*
D230*
X57000Y1233000D02*
D03*
X286869Y300762D02*
D03*
M02*
