G04*
G04 #@! TF.GenerationSoftware,Altium Limited,Altium Designer,25.1.2 (22)*
G04*
G04 Layer_Physical_Order=10*
G04 Layer_Color=32896*
%FSLAX44Y44*%
%MOMM*%
G71*
G04*
G04 #@! TF.SameCoordinates,95D3A89C-EAAA-4EA1-B578-E8640D1D2C9C*
G04*
G04*
G04 #@! TF.FilePolarity,Positive*
G04*
G01*
G75*
%ADD13C,0.1524*%
%ADD16C,0.1270*%
%ADD209C,2.3000*%
%ADD212C,0.6500*%
G04:AMPARAMS|DCode=213|XSize=0.95mm|YSize=0.65mm|CornerRadius=0.325mm|HoleSize=0mm|Usage=FLASHONLY|Rotation=90.000|XOffset=0mm|YOffset=0mm|HoleType=Round|Shape=RoundedRectangle|*
%AMROUNDEDRECTD213*
21,1,0.9500,0.0000,0,0,90.0*
21,1,0.3000,0.6500,0,0,90.0*
1,1,0.6500,0.0000,0.1500*
1,1,0.6500,0.0000,-0.1500*
1,1,0.6500,0.0000,-0.1500*
1,1,0.6500,0.0000,0.1500*
%
%ADD213ROUNDEDRECTD213*%
G04:AMPARAMS|DCode=214|XSize=0.8mm|YSize=1.4mm|CornerRadius=0.4mm|HoleSize=0mm|Usage=FLASHONLY|Rotation=90.000|XOffset=0mm|YOffset=0mm|HoleType=Round|Shape=RoundedRectangle|*
%AMROUNDEDRECTD214*
21,1,0.8000,0.6000,0,0,90.0*
21,1,0.0000,1.4000,0,0,90.0*
1,1,0.8000,0.3000,0.0000*
1,1,0.8000,0.3000,0.0000*
1,1,0.8000,-0.3000,0.0000*
1,1,0.8000,-0.3000,0.0000*
%
%ADD214ROUNDEDRECTD214*%
%ADD215C,0.4064*%
%ADD222C,0.3048*%
%ADD224C,0.1397*%
%ADD225O,1.2000X1.9000*%
%ADD226O,1.0500X1.2500*%
%ADD227C,1.5500*%
%ADD228R,1.5500X1.5500*%
%ADD229C,0.5000*%
%ADD230C,5.0000*%
G36*
X129000Y580162D02*
X127984Y579960D01*
X127649Y580770D01*
X126770Y581649D01*
X125622Y582124D01*
X125435Y583140D01*
X125534Y583379D01*
Y584621D01*
X125058Y585770D01*
X124179Y586649D01*
X123031Y587124D01*
X121788D01*
X120640Y586649D01*
X119761Y585770D01*
X119285Y584621D01*
Y583379D01*
X119761Y582230D01*
X120640Y581351D01*
X121788Y580876D01*
X121975Y579860D01*
X121876Y579621D01*
Y578379D01*
X122351Y577230D01*
X123230Y576351D01*
X124379Y575876D01*
X125522D01*
Y574733D01*
X125997Y573584D01*
X126876Y572705D01*
X128025Y572230D01*
X129000D01*
Y489000D01*
X126679D01*
X126011Y489668D01*
X124863Y490144D01*
X123620D01*
X122472Y489668D01*
X121804Y489000D01*
X45000D01*
Y435000D01*
X82404D01*
Y347906D01*
X81906Y347574D01*
X80664D01*
X79515Y347098D01*
X78636Y346219D01*
X78161Y345071D01*
Y343828D01*
X78636Y342680D01*
X79515Y341801D01*
X80664Y341326D01*
X81906D01*
X82404Y340993D01*
Y203911D01*
X81388Y203709D01*
X81287Y203952D01*
X80409Y204831D01*
X79260Y205306D01*
X78017D01*
X76869Y204831D01*
X75990Y203952D01*
X75515Y202804D01*
Y201561D01*
X75990Y200413D01*
X76869Y199534D01*
X78017Y199058D01*
X79260D01*
X80409Y199534D01*
X81287Y200413D01*
X81388Y200655D01*
X82404Y200453D01*
Y193000D01*
X9000D01*
Y224582D01*
X9649Y225230D01*
X10124Y226379D01*
Y227621D01*
X9649Y228770D01*
X9000Y229418D01*
Y234582D01*
X9649Y235230D01*
X10124Y236379D01*
Y237621D01*
X9649Y238770D01*
X9000Y239418D01*
Y269582D01*
X9649Y270230D01*
X10124Y271379D01*
Y272621D01*
X9649Y273770D01*
X9000Y274418D01*
Y308582D01*
X9649Y309230D01*
X10124Y310379D01*
Y311621D01*
X9649Y312770D01*
X9000Y313418D01*
Y316878D01*
X9091Y316934D01*
X10016Y317189D01*
X10697Y316509D01*
X11845Y316033D01*
X13088D01*
X14236Y316509D01*
X15115Y317387D01*
X15591Y318536D01*
Y319778D01*
X15115Y320927D01*
X14236Y321806D01*
X13088Y322281D01*
X11845D01*
X10697Y321806D01*
X10016Y321125D01*
X9091Y321380D01*
X9000Y321436D01*
Y631000D01*
X28347D01*
X29026Y629984D01*
X28876Y629621D01*
Y628379D01*
X29351Y627230D01*
X30230Y626351D01*
X31379Y625876D01*
X32621D01*
X33770Y626351D01*
X34368Y626950D01*
X35000Y627130D01*
X35632Y626950D01*
X36230Y626351D01*
X37379Y625876D01*
X38621D01*
X39770Y626351D01*
X40649Y627230D01*
X40950Y627958D01*
X42050D01*
X42351Y627230D01*
X43230Y626351D01*
X44379Y625876D01*
X45621D01*
X46770Y626351D01*
X47649Y627230D01*
X48124Y628379D01*
Y629621D01*
X47974Y629984D01*
X48653Y631000D01*
X129000D01*
Y580162D01*
D02*
G37*
%LPC*%
G36*
X27912Y618932D02*
X26669D01*
X25521Y618456D01*
X24642Y617578D01*
X24166Y616429D01*
Y615186D01*
X23383Y614421D01*
X23303Y614454D01*
X22060D01*
X20911Y613979D01*
X20033Y613100D01*
X19557Y611951D01*
Y610709D01*
X20033Y609560D01*
X20911Y608681D01*
X22060Y608206D01*
X23303D01*
X24451Y608681D01*
X25330Y609560D01*
X25805Y610709D01*
Y611951D01*
X26588Y612717D01*
X26669Y612684D01*
X27912D01*
X29060Y613159D01*
X29939Y614038D01*
X30414Y615186D01*
Y616429D01*
X29939Y617578D01*
X29060Y618456D01*
X27912Y618932D01*
D02*
G37*
G36*
X72621Y619874D02*
X71379D01*
X70230Y619399D01*
X69351Y618520D01*
X68876Y617371D01*
Y616129D01*
X69351Y614980D01*
X70230Y614101D01*
X71379Y613626D01*
X72621D01*
X73770Y614101D01*
X74649Y614980D01*
X75124Y616129D01*
Y617371D01*
X74649Y618520D01*
X73770Y619399D01*
X72621Y619874D01*
D02*
G37*
G36*
X68622Y607124D02*
X67379D01*
X66230Y606649D01*
X65351Y605770D01*
X64876Y604621D01*
Y604601D01*
X64556Y604432D01*
X63860Y604290D01*
X63128Y605021D01*
X61980Y605497D01*
X60737D01*
X59589Y605021D01*
X58710Y604143D01*
X58234Y602994D01*
Y601751D01*
X58710Y600603D01*
X59589Y599724D01*
X60737Y599249D01*
X61980D01*
X63128Y599724D01*
X64007Y600603D01*
X64483Y601751D01*
Y601772D01*
X64803Y601941D01*
X65499Y602083D01*
X66230Y601351D01*
X67379Y600876D01*
X68622D01*
X69770Y601351D01*
X70649Y602230D01*
X71124Y603379D01*
Y604621D01*
X70649Y605770D01*
X69770Y606649D01*
X68622Y607124D01*
D02*
G37*
G36*
X77221Y606124D02*
X75979D01*
X74830Y605649D01*
X73951Y604770D01*
X73476Y603621D01*
Y602379D01*
X73951Y601230D01*
X74830Y600351D01*
X75979Y599876D01*
X77221D01*
X78370Y600351D01*
X79249Y601230D01*
X79724Y602379D01*
Y603621D01*
X79249Y604770D01*
X78370Y605649D01*
X77221Y606124D01*
D02*
G37*
G36*
X45621Y607124D02*
X44379D01*
X43230Y606649D01*
X42351Y605770D01*
X41876Y604621D01*
Y603379D01*
X42351Y602230D01*
X43230Y601351D01*
X44379Y600876D01*
X45621D01*
X46770Y601351D01*
X47477Y602059D01*
X48285Y601866D01*
X48493Y601748D01*
Y601701D01*
X48969Y600552D01*
X49848Y599674D01*
X50996Y599198D01*
X52239D01*
X53387Y599674D01*
X54266Y600552D01*
X54742Y601701D01*
Y602944D01*
X54266Y604092D01*
X53387Y604971D01*
X52239Y605446D01*
X50996D01*
X49848Y604971D01*
X49140Y604263D01*
X48332Y604456D01*
X48124Y604575D01*
Y604621D01*
X47649Y605770D01*
X46770Y606649D01*
X45621Y607124D01*
D02*
G37*
G36*
X88678Y604387D02*
X87436D01*
X86287Y603911D01*
X85408Y603032D01*
X84933Y601884D01*
Y600641D01*
X85408Y599493D01*
X86287Y598614D01*
X87436Y598138D01*
X88678D01*
X89827Y598614D01*
X90705Y599493D01*
X91181Y600641D01*
Y601884D01*
X90705Y603032D01*
X89827Y603911D01*
X88678Y604387D01*
D02*
G37*
G36*
X106621Y602124D02*
X105379D01*
X104230Y601649D01*
X103351Y600770D01*
X102876Y599621D01*
Y598379D01*
X103351Y597230D01*
X104230Y596351D01*
X105379Y595876D01*
X106621D01*
X107770Y596351D01*
X107860Y596441D01*
X108198Y596421D01*
X108981Y596125D01*
X109351Y595230D01*
X110230Y594351D01*
X111379Y593876D01*
X112621D01*
X113770Y594351D01*
X114578Y595160D01*
X115386Y594351D01*
X116535Y593876D01*
X117778D01*
X118926Y594351D01*
X119805Y595230D01*
X119837Y595308D01*
X121035Y595546D01*
X121230Y595351D01*
X122379Y594876D01*
X123621D01*
X124770Y595351D01*
X125649Y596230D01*
X126124Y597379D01*
Y598621D01*
X125649Y599770D01*
X124770Y600649D01*
X123621Y601124D01*
X122379D01*
X121230Y600649D01*
X120351Y599770D01*
X120319Y599692D01*
X119121Y599454D01*
X118926Y599649D01*
X117778Y600124D01*
X116535D01*
X115386Y599649D01*
X114578Y598840D01*
X113770Y599649D01*
X112621Y600124D01*
X111379D01*
X110230Y599649D01*
X110140Y599558D01*
X109802Y599580D01*
X109019Y599874D01*
X108649Y600770D01*
X107770Y601649D01*
X106621Y602124D01*
D02*
G37*
G36*
X17621Y595124D02*
X16379D01*
X15230Y594649D01*
X14351Y593770D01*
X13876Y592621D01*
Y591379D01*
X14351Y590230D01*
X15230Y589351D01*
X16379Y588876D01*
X17621D01*
X18770Y589351D01*
X19649Y590230D01*
X20124Y591379D01*
Y592621D01*
X19649Y593770D01*
X18770Y594649D01*
X17621Y595124D01*
D02*
G37*
G36*
X33161Y587631D02*
X31918D01*
X30770Y587155D01*
X29891Y586276D01*
X29416Y585128D01*
Y583885D01*
X29891Y582737D01*
X30770Y581858D01*
X31918Y581382D01*
X33161D01*
X34309Y581858D01*
X35188Y582737D01*
X35664Y583885D01*
Y585128D01*
X35188Y586276D01*
X34309Y587155D01*
X33161Y587631D01*
D02*
G37*
G36*
X79714Y579092D02*
X78285D01*
X76965Y578545D01*
X75955Y577535D01*
X75408Y576214D01*
Y574785D01*
X75955Y573465D01*
X76965Y572455D01*
X78285Y571908D01*
X79714D01*
X81035Y572455D01*
X82045Y573465D01*
X82592Y574785D01*
Y576214D01*
X82045Y577535D01*
X81035Y578545D01*
X79714Y579092D01*
D02*
G37*
G36*
X68714D02*
X67285D01*
X65965Y578545D01*
X64955Y577535D01*
X64408Y576214D01*
Y574785D01*
X64955Y573465D01*
X65965Y572455D01*
X67285Y571908D01*
X68714D01*
X70035Y572455D01*
X71045Y573465D01*
X71592Y574785D01*
Y576214D01*
X71045Y577535D01*
X70035Y578545D01*
X68714Y579092D01*
D02*
G37*
G36*
X57715D02*
X56286D01*
X54965Y578545D01*
X53955Y577535D01*
X53408Y576214D01*
Y574785D01*
X53955Y573465D01*
X54965Y572455D01*
X56286Y571908D01*
X57715D01*
X59035Y572455D01*
X60045Y573465D01*
X60592Y574785D01*
Y576214D01*
X60045Y577535D01*
X59035Y578545D01*
X57715Y579092D01*
D02*
G37*
G36*
X33313Y577638D02*
X32070D01*
X30921Y577162D01*
X30043Y576283D01*
X29567Y575135D01*
Y573892D01*
X30043Y572744D01*
X30921Y571865D01*
X32070Y571389D01*
X33313D01*
X34461Y571865D01*
X35340Y572744D01*
X35815Y573892D01*
Y575135D01*
X35340Y576283D01*
X34461Y577162D01*
X33313Y577638D01*
D02*
G37*
G36*
X26621Y573124D02*
X25379D01*
X24230Y572649D01*
X23351Y571770D01*
X22876Y570621D01*
Y569379D01*
X23351Y568230D01*
X24230Y567351D01*
X25379Y566876D01*
X26621D01*
X27770Y567351D01*
X28649Y568230D01*
X29124Y569379D01*
Y570621D01*
X28649Y571770D01*
X27770Y572649D01*
X26621Y573124D01*
D02*
G37*
G36*
X33319Y567631D02*
X32076D01*
X30928Y567155D01*
X30049Y566277D01*
X29574Y565128D01*
Y563885D01*
X30049Y562737D01*
X30928Y561858D01*
X32076Y561382D01*
X33319D01*
X34468Y561858D01*
X35347Y562737D01*
X35822Y563885D01*
Y565128D01*
X35347Y566277D01*
X34468Y567155D01*
X33319Y567631D01*
D02*
G37*
G36*
X104016Y567467D02*
X102773D01*
X101625Y566991D01*
X100746Y566112D01*
X100270Y564964D01*
Y563721D01*
X100746Y562573D01*
X101625Y561694D01*
X102773Y561218D01*
X104016D01*
X105164Y561694D01*
X106043Y562573D01*
X106519Y563721D01*
Y564964D01*
X106043Y566112D01*
X105164Y566991D01*
X104016Y567467D01*
D02*
G37*
G36*
X79714Y568092D02*
X78285D01*
X76965Y567545D01*
X75955Y566535D01*
X75408Y565215D01*
Y563786D01*
X75955Y562465D01*
X76965Y561455D01*
X78285Y560908D01*
X79714D01*
X81035Y561455D01*
X82045Y562465D01*
X82592Y563786D01*
Y565215D01*
X82045Y566535D01*
X81035Y567545D01*
X79714Y568092D01*
D02*
G37*
G36*
X68714D02*
X67285D01*
X65965Y567545D01*
X64955Y566535D01*
X64408Y565215D01*
Y563786D01*
X64955Y562465D01*
X65965Y561455D01*
X67285Y560908D01*
X68714D01*
X70035Y561455D01*
X71045Y562465D01*
X71592Y563786D01*
Y565215D01*
X71045Y566535D01*
X70035Y567545D01*
X68714Y568092D01*
D02*
G37*
G36*
X57715D02*
X56286D01*
X54965Y567545D01*
X53955Y566535D01*
X53408Y565215D01*
Y563786D01*
X53955Y562465D01*
X54965Y561455D01*
X56286Y560908D01*
X57715D01*
X59035Y561455D01*
X60045Y562465D01*
X60592Y563786D01*
Y565215D01*
X60045Y566535D01*
X59035Y567545D01*
X57715Y568092D01*
D02*
G37*
G36*
X26628Y563117D02*
X25385D01*
X24237Y562642D01*
X23358Y561763D01*
X22883Y560615D01*
Y559372D01*
X23358Y558223D01*
X24237Y557345D01*
X25385Y556869D01*
X26628D01*
X27777Y557345D01*
X28655Y558223D01*
X29131Y559372D01*
Y560615D01*
X28655Y561763D01*
X27777Y562642D01*
X26628Y563117D01*
D02*
G37*
G36*
X33319Y557631D02*
X32076D01*
X30928Y557155D01*
X30049Y556277D01*
X29574Y555128D01*
Y553885D01*
X30049Y552737D01*
X30928Y551858D01*
X32076Y551382D01*
X33319D01*
X34468Y551858D01*
X35347Y552737D01*
X35822Y553885D01*
Y555128D01*
X35347Y556277D01*
X34468Y557155D01*
X33319Y557631D01*
D02*
G37*
G36*
X79714Y557092D02*
X78285D01*
X76965Y556545D01*
X75955Y555535D01*
X75408Y554215D01*
Y552785D01*
X75955Y551465D01*
X76965Y550455D01*
X78285Y549908D01*
X79714D01*
X81035Y550455D01*
X82045Y551465D01*
X82592Y552785D01*
Y554215D01*
X82045Y555535D01*
X81035Y556545D01*
X79714Y557092D01*
D02*
G37*
G36*
X68714D02*
X67285D01*
X65965Y556545D01*
X64955Y555535D01*
X64408Y554215D01*
Y552785D01*
X64955Y551465D01*
X65965Y550455D01*
X67285Y549908D01*
X68714D01*
X70035Y550455D01*
X71045Y551465D01*
X71592Y552785D01*
Y554215D01*
X71045Y555535D01*
X70035Y556545D01*
X68714Y557092D01*
D02*
G37*
G36*
X57715D02*
X56286D01*
X54965Y556545D01*
X53955Y555535D01*
X53408Y554215D01*
Y552785D01*
X53955Y551465D01*
X54965Y550455D01*
X56286Y549908D01*
X57715D01*
X59035Y550455D01*
X60045Y551465D01*
X60592Y552785D01*
Y554215D01*
X60045Y555535D01*
X59035Y556545D01*
X57715Y557092D01*
D02*
G37*
G36*
X109851Y553781D02*
X108609D01*
X107460Y553305D01*
X106581Y552426D01*
X106106Y551278D01*
Y550035D01*
X106581Y548887D01*
X107460Y548008D01*
X108609Y547532D01*
X109851D01*
X111000Y548008D01*
X111878Y548887D01*
X112354Y550035D01*
Y551278D01*
X111878Y552426D01*
X111000Y553305D01*
X109851Y553781D01*
D02*
G37*
G36*
X26628Y553117D02*
X25385D01*
X24237Y552642D01*
X23358Y551763D01*
X22883Y550615D01*
Y549372D01*
X23358Y548223D01*
X24237Y547345D01*
X25385Y546869D01*
X26628D01*
X27777Y547345D01*
X28655Y548223D01*
X29131Y549372D01*
Y550615D01*
X28655Y551763D01*
X27777Y552642D01*
X26628Y553117D01*
D02*
G37*
G36*
X121029Y566105D02*
X119786D01*
X118638Y565629D01*
X117759Y564751D01*
X117283Y563602D01*
Y563145D01*
X116621Y562702D01*
X115379D01*
X114230Y562227D01*
X113351Y561348D01*
X112876Y560200D01*
Y558957D01*
X113351Y557808D01*
X114160Y557000D01*
X113351Y556192D01*
X112876Y555043D01*
Y553801D01*
X113351Y552652D01*
X114230Y551773D01*
X114305Y551742D01*
X114543Y550544D01*
X114340Y550340D01*
X113864Y549192D01*
Y547949D01*
X114340Y546801D01*
X115218Y545922D01*
X116367Y545446D01*
X117610D01*
X118758Y545922D01*
X119637Y546801D01*
X120112Y547949D01*
Y549192D01*
X119637Y550340D01*
X118758Y551219D01*
X118683Y551250D01*
X118445Y552449D01*
X118649Y552652D01*
X119124Y553801D01*
Y555043D01*
X118649Y556192D01*
X117840Y557000D01*
X118649Y557808D01*
X119124Y558957D01*
Y559414D01*
X119786Y559857D01*
X121029D01*
X122177Y560332D01*
X123056Y561211D01*
X123532Y562359D01*
Y563602D01*
X123056Y564751D01*
X122177Y565629D01*
X121029Y566105D01*
D02*
G37*
G36*
X33319Y547631D02*
X32076D01*
X30928Y547155D01*
X30049Y546277D01*
X29574Y545128D01*
Y543885D01*
X30049Y542737D01*
X30928Y541858D01*
X32076Y541383D01*
X33319D01*
X34468Y541858D01*
X35347Y542737D01*
X35822Y543885D01*
Y545128D01*
X35347Y546277D01*
X34468Y547155D01*
X33319Y547631D01*
D02*
G37*
G36*
X114580Y542770D02*
X113337D01*
X112188Y542295D01*
X111310Y541416D01*
X110834Y540267D01*
Y539124D01*
X109691D01*
X108542Y538649D01*
X107664Y537770D01*
X107188Y536621D01*
Y535379D01*
X107287Y535140D01*
X106608Y534124D01*
X106379D01*
X105230Y533649D01*
X104351Y532770D01*
X103876Y531621D01*
Y530379D01*
X104351Y529230D01*
X105230Y528351D01*
X106379Y527876D01*
X107621D01*
X108770Y528351D01*
X109649Y529230D01*
X110124Y530379D01*
Y531621D01*
X110026Y531860D01*
X110704Y532876D01*
X110934D01*
X112082Y533351D01*
X112961Y534230D01*
X113436Y535379D01*
Y536522D01*
X114580D01*
X115728Y536997D01*
X116357Y537626D01*
X117206Y537671D01*
X117570Y537546D01*
X118312Y536804D01*
X119460Y536328D01*
X120703D01*
X121852Y536804D01*
X122730Y537682D01*
X123206Y538831D01*
Y540074D01*
X122730Y541222D01*
X121852Y542101D01*
X120703Y542576D01*
X119460D01*
X118312Y542101D01*
X117683Y541472D01*
X116833Y541427D01*
X116470Y541552D01*
X115728Y542295D01*
X114580Y542770D01*
D02*
G37*
G36*
X26304Y539656D02*
X25061D01*
X23913Y539180D01*
X23034Y538301D01*
X22558Y537153D01*
Y535910D01*
X23034Y534762D01*
X23913Y533883D01*
X25061Y533408D01*
X26304D01*
X27452Y533883D01*
X28331Y534762D01*
X28807Y535910D01*
Y537153D01*
X28331Y538301D01*
X27452Y539180D01*
X26304Y539656D01*
D02*
G37*
G36*
X91622Y531124D02*
X90379D01*
X89230Y530649D01*
X88351Y529770D01*
X87876Y528621D01*
Y527379D01*
X88351Y526230D01*
X89230Y525351D01*
X90379Y524876D01*
X91622D01*
X92770Y525351D01*
X93649Y526230D01*
X94124Y527379D01*
Y528621D01*
X93649Y529770D01*
X92770Y530649D01*
X91622Y531124D01*
D02*
G37*
G36*
X78319Y532240D02*
X77076D01*
X75928Y531764D01*
X75049Y530886D01*
X74574Y529737D01*
Y528494D01*
X75049Y527346D01*
X75928Y526467D01*
X77076Y525992D01*
X78319D01*
X79012Y526279D01*
X79380Y526067D01*
X79900Y525572D01*
Y524525D01*
X80376Y523377D01*
X81255Y522498D01*
X82403Y522022D01*
X83646D01*
X84794Y522498D01*
X85673Y523377D01*
X86148Y524525D01*
Y525768D01*
X85673Y526916D01*
X84794Y527795D01*
X83646Y528270D01*
X82403D01*
X81710Y527984D01*
X81342Y528195D01*
X80822Y528690D01*
Y529737D01*
X80346Y530886D01*
X79468Y531764D01*
X78319Y532240D01*
D02*
G37*
G36*
X28876Y526055D02*
X27633D01*
X26484Y525580D01*
X25606Y524701D01*
X25130Y523553D01*
Y522310D01*
X25606Y521161D01*
X26484Y520283D01*
X27633Y519807D01*
X28876D01*
X30024Y520283D01*
X30903Y521161D01*
X31378Y522310D01*
Y523553D01*
X30903Y524701D01*
X30024Y525580D01*
X28876Y526055D01*
D02*
G37*
G36*
X48741Y532338D02*
X47498D01*
X46350Y531863D01*
X45471Y530984D01*
X44995Y529836D01*
Y528593D01*
X45471Y527445D01*
X46186Y526730D01*
X46218Y525943D01*
X46136Y525554D01*
X45351Y524770D01*
X44876Y523621D01*
Y522379D01*
X45351Y521230D01*
X46230Y520351D01*
X47379Y519876D01*
X48621D01*
X49770Y520351D01*
X50649Y521230D01*
X50950Y521958D01*
X52050D01*
X52351Y521230D01*
X53230Y520351D01*
X54379Y519876D01*
X55621D01*
X56770Y520351D01*
X57649Y521230D01*
X58124Y522379D01*
Y523621D01*
X58025Y523860D01*
X58543Y524876D01*
X59692Y525351D01*
X60500Y526160D01*
X61308Y525351D01*
X61340Y524239D01*
X61193Y524092D01*
X60718Y522943D01*
Y521701D01*
X61193Y520552D01*
X62072Y519673D01*
X63221Y519198D01*
X64463D01*
X65612Y519673D01*
X66491Y520552D01*
X66966Y521701D01*
Y522943D01*
X66491Y524092D01*
X65612Y524971D01*
X65580Y526083D01*
X65727Y526230D01*
X66202Y527379D01*
Y528621D01*
X65727Y529770D01*
X64848Y530649D01*
X63699Y531124D01*
X62457D01*
X61308Y530649D01*
X60500Y529840D01*
X59692Y530649D01*
X58543Y531124D01*
X57301D01*
X56152Y530649D01*
X55273Y529770D01*
X54798Y528621D01*
Y527379D01*
X54896Y527140D01*
X54378Y526124D01*
X53230Y525649D01*
X52351Y524770D01*
X52050Y524042D01*
X50950D01*
X50649Y524770D01*
X49934Y525485D01*
X49901Y526272D01*
X49983Y526660D01*
X50768Y527445D01*
X51244Y528593D01*
Y529836D01*
X50768Y530984D01*
X49889Y531863D01*
X48741Y532338D01*
D02*
G37*
G36*
X34736Y510758D02*
X33494D01*
X32345Y510283D01*
X31466Y509404D01*
X30991Y508256D01*
Y507013D01*
X31466Y505864D01*
X32345Y504986D01*
X33494Y504510D01*
X34736D01*
X35885Y504986D01*
X36764Y505864D01*
X37239Y507013D01*
Y508256D01*
X36764Y509404D01*
X35885Y510283D01*
X34736Y510758D01*
D02*
G37*
G36*
X109813Y497701D02*
X108570D01*
X107422Y497225D01*
X106543Y496347D01*
X106068Y495198D01*
Y493955D01*
X106543Y492807D01*
X107422Y491928D01*
X108570Y491453D01*
X109813D01*
X110962Y491928D01*
X111840Y492807D01*
X112316Y493955D01*
Y495198D01*
X111840Y496347D01*
X110962Y497225D01*
X109813Y497701D01*
D02*
G37*
G36*
X16350Y485451D02*
X15107D01*
X13959Y484975D01*
X13080Y484096D01*
X12605Y482948D01*
Y481705D01*
X13080Y480557D01*
X13959Y479678D01*
X15107Y479202D01*
X16350D01*
X17499Y479678D01*
X18377Y480557D01*
X18853Y481705D01*
Y482948D01*
X18377Y484096D01*
X17499Y484975D01*
X16350Y485451D01*
D02*
G37*
G36*
X29681Y473401D02*
X28438D01*
X27290Y472926D01*
X26411Y472047D01*
X25935Y470899D01*
Y469656D01*
X26411Y468508D01*
X27290Y467629D01*
X28438Y467153D01*
X29681D01*
X30829Y467629D01*
X31708Y468508D01*
X32183Y469656D01*
Y470899D01*
X31708Y472047D01*
X30829Y472926D01*
X29681Y473401D01*
D02*
G37*
G36*
X31514Y463183D02*
X30271D01*
X29122Y462707D01*
X28244Y461828D01*
X27768Y460680D01*
Y459437D01*
X28244Y458289D01*
X29122Y457410D01*
X30271Y456935D01*
X31514D01*
X32662Y457410D01*
X33541Y458289D01*
X34016Y459437D01*
Y460680D01*
X33541Y461828D01*
X32662Y462707D01*
X31514Y463183D01*
D02*
G37*
G36*
X77497Y431592D02*
X76068D01*
X74748Y431045D01*
X73737Y430035D01*
X73190Y428715D01*
Y427285D01*
X73737Y425965D01*
X74748Y424955D01*
X76068Y424408D01*
X77497D01*
X78818Y424955D01*
X79828Y425965D01*
X80375Y427285D01*
Y428715D01*
X79828Y430035D01*
X78818Y431045D01*
X77497Y431592D01*
D02*
G37*
G36*
X66497D02*
X65068D01*
X63748Y431045D01*
X62737Y430035D01*
X62190Y428715D01*
Y427285D01*
X62737Y425965D01*
X63748Y424955D01*
X65068Y424408D01*
X66497D01*
X67818Y424955D01*
X68828Y425965D01*
X69375Y427285D01*
Y428715D01*
X68828Y430035D01*
X67818Y431045D01*
X66497Y431592D01*
D02*
G37*
G36*
X55497D02*
X54068D01*
X52748Y431045D01*
X51737Y430035D01*
X51191Y428715D01*
Y427285D01*
X51737Y425965D01*
X52748Y424955D01*
X54068Y424408D01*
X55497D01*
X56817Y424955D01*
X57828Y425965D01*
X58375Y427285D01*
Y428715D01*
X57828Y430035D01*
X56817Y431045D01*
X55497Y431592D01*
D02*
G37*
G36*
X32976Y424641D02*
X31733D01*
X30585Y424165D01*
X29706Y423287D01*
X29230Y422138D01*
Y420896D01*
X29706Y419747D01*
X30585Y418868D01*
X31733Y418393D01*
X32976D01*
X34124Y418868D01*
X35003Y419747D01*
X35479Y420896D01*
Y422138D01*
X35003Y423287D01*
X34124Y424165D01*
X32976Y424641D01*
D02*
G37*
G36*
X77497Y420592D02*
X76068D01*
X74748Y420045D01*
X73737Y419035D01*
X73190Y417715D01*
Y416286D01*
X73737Y414965D01*
X74748Y413955D01*
X76068Y413408D01*
X77497D01*
X78818Y413955D01*
X79828Y414965D01*
X80375Y416286D01*
Y417715D01*
X79828Y419035D01*
X78818Y420045D01*
X77497Y420592D01*
D02*
G37*
G36*
X66497D02*
X65068D01*
X63748Y420045D01*
X62737Y419035D01*
X62190Y417715D01*
Y416286D01*
X62737Y414965D01*
X63748Y413955D01*
X65068Y413408D01*
X66497D01*
X67818Y413955D01*
X68828Y414965D01*
X69375Y416286D01*
Y417715D01*
X68828Y419035D01*
X67818Y420045D01*
X66497Y420592D01*
D02*
G37*
G36*
X55497D02*
X54068D01*
X52748Y420045D01*
X51737Y419035D01*
X51191Y417715D01*
Y416286D01*
X51737Y414965D01*
X52748Y413955D01*
X54068Y413408D01*
X55497D01*
X56817Y413955D01*
X57828Y414965D01*
X58375Y416286D01*
Y417715D01*
X57828Y419035D01*
X56817Y420045D01*
X55497Y420592D01*
D02*
G37*
G36*
X59858Y397521D02*
X58615D01*
X57467Y397045D01*
X56588Y396166D01*
X56113Y395018D01*
Y393775D01*
X56588Y392627D01*
X57467Y391748D01*
X58615Y391273D01*
X59858D01*
X61007Y391748D01*
X61642Y392384D01*
X62659Y392040D01*
Y391379D01*
X63134Y390230D01*
X64013Y389351D01*
X65161Y388876D01*
X66404D01*
X67552Y389351D01*
X68431Y390230D01*
X68907Y391379D01*
Y392621D01*
X68431Y393770D01*
X67552Y394649D01*
X66404Y395124D01*
X65161D01*
X64013Y394649D01*
X63377Y394013D01*
X62361Y394356D01*
Y395018D01*
X61886Y396166D01*
X61007Y397045D01*
X59858Y397521D01*
D02*
G37*
G36*
X36105Y387124D02*
X34862D01*
X33713Y386649D01*
X32905Y385840D01*
X32097Y386649D01*
X30948Y387124D01*
X29706D01*
X28557Y386649D01*
X27678Y385770D01*
X27203Y384621D01*
Y383983D01*
X26702Y383243D01*
X26264Y383124D01*
X25379D01*
X24230Y382649D01*
X23351Y381770D01*
X22876Y380621D01*
Y379379D01*
X23351Y378230D01*
X24230Y377351D01*
X25379Y376876D01*
X26621D01*
X27770Y377351D01*
X28649Y378230D01*
X29124Y379379D01*
Y380017D01*
X29625Y380757D01*
X30063Y380876D01*
X30948D01*
X32097Y381351D01*
X32905Y382160D01*
X33713Y381351D01*
X34862Y380876D01*
X35083D01*
X35648Y380031D01*
X35645Y380024D01*
Y378782D01*
X36121Y377633D01*
X36999Y376754D01*
X37167Y375585D01*
X36957Y375376D01*
X36482Y374227D01*
Y372984D01*
X36957Y371836D01*
X37836Y370957D01*
X38984Y370482D01*
X40227D01*
X41375Y370957D01*
X42254Y371836D01*
X42730Y372984D01*
Y374227D01*
X42254Y375376D01*
X41375Y376254D01*
X41208Y377424D01*
X41418Y377633D01*
X41893Y378782D01*
Y380024D01*
X41418Y381173D01*
X40539Y382052D01*
X39390Y382527D01*
X39169D01*
X38605Y383372D01*
X38607Y383379D01*
Y384621D01*
X38132Y385770D01*
X37253Y386649D01*
X36105Y387124D01*
D02*
G37*
G36*
X16621Y391124D02*
X15379D01*
X14230Y390649D01*
X13351Y389770D01*
X12876Y388621D01*
Y387379D01*
X13351Y386230D01*
X14230Y385351D01*
X15379Y384876D01*
X16621D01*
X17770Y385351D01*
X18649Y386230D01*
X19124Y387379D01*
Y388621D01*
X18649Y389770D01*
X17770Y390649D01*
X16621Y391124D01*
D02*
G37*
G36*
X53621Y378124D02*
X52379D01*
X51230Y377649D01*
X50351Y376770D01*
X49876Y375621D01*
Y374379D01*
X50351Y373230D01*
X51230Y372351D01*
X52379Y371876D01*
X53621D01*
X54770Y372351D01*
X55649Y373230D01*
X56124Y374379D01*
Y375621D01*
X55649Y376770D01*
X54770Y377649D01*
X53621Y378124D01*
D02*
G37*
G36*
X14557Y375249D02*
X13314D01*
X12166Y374773D01*
X11287Y373894D01*
X10811Y372746D01*
Y371503D01*
X11287Y370355D01*
X12166Y369476D01*
X13314Y369000D01*
X14557D01*
X15705Y369476D01*
X16584Y370355D01*
X17060Y371503D01*
Y372746D01*
X16584Y373894D01*
X15705Y374773D01*
X14557Y375249D01*
D02*
G37*
G36*
X44299Y360837D02*
X43056D01*
X41908Y360361D01*
X41029Y359482D01*
X40554Y358334D01*
Y357091D01*
X39854Y356124D01*
X39379D01*
X38230Y355649D01*
X37351Y354770D01*
X36876Y353621D01*
Y352379D01*
X37351Y351230D01*
X38230Y350351D01*
X39379Y349876D01*
X40621D01*
X41770Y350351D01*
X42649Y351230D01*
X43124Y352379D01*
Y353621D01*
X43482Y354116D01*
X44123Y354158D01*
X44331Y354031D01*
X45001Y353300D01*
Y352379D01*
X45476Y351230D01*
X46355Y350351D01*
X47503Y349876D01*
X48746D01*
X49895Y350351D01*
X50774Y351230D01*
X51249Y352379D01*
Y353621D01*
X50774Y354770D01*
X49895Y355649D01*
X48746Y356124D01*
X47503D01*
X47501Y356123D01*
X46723Y356901D01*
X46802Y357091D01*
Y358334D01*
X46326Y359482D01*
X45448Y360361D01*
X44299Y360837D01*
D02*
G37*
G36*
X31621Y353124D02*
X30379D01*
X29230Y352649D01*
X28351Y351770D01*
X27876Y350621D01*
Y349379D01*
X28351Y348230D01*
X29230Y347351D01*
X30379Y346876D01*
X31621D01*
X32770Y347351D01*
X33649Y348230D01*
X34124Y349379D01*
Y350621D01*
X33649Y351770D01*
X32770Y352649D01*
X31621Y353124D01*
D02*
G37*
G36*
X70621Y347124D02*
X69379D01*
X68230Y346649D01*
X67351Y345770D01*
X66876Y344621D01*
Y343379D01*
X67351Y342230D01*
X68230Y341351D01*
X68958Y341050D01*
Y339950D01*
X68230Y339649D01*
X67351Y338770D01*
X66876Y337621D01*
Y336379D01*
X67351Y335230D01*
X68230Y334351D01*
X69379Y333876D01*
X70621D01*
X71770Y334351D01*
X72649Y335230D01*
X73124Y336379D01*
Y337621D01*
X72649Y338770D01*
X71770Y339649D01*
X71042Y339950D01*
Y341050D01*
X71770Y341351D01*
X72649Y342230D01*
X73124Y343379D01*
Y344621D01*
X72649Y345770D01*
X71770Y346649D01*
X70621Y347124D01*
D02*
G37*
G36*
X30621Y336124D02*
X29379D01*
X28230Y335649D01*
X27351Y334770D01*
X26876Y333621D01*
Y332379D01*
X27351Y331230D01*
X28230Y330351D01*
X29379Y329876D01*
X30621D01*
X31770Y330351D01*
X32649Y331230D01*
X33124Y332379D01*
Y333621D01*
X32649Y334770D01*
X31770Y335649D01*
X30621Y336124D01*
D02*
G37*
G36*
X15621Y314124D02*
X14379D01*
X13230Y313649D01*
X12351Y312770D01*
X11876Y311621D01*
Y310379D01*
X12351Y309230D01*
X13230Y308351D01*
X14379Y307876D01*
X15621D01*
X16770Y308351D01*
X17649Y309230D01*
X18124Y310379D01*
Y311621D01*
X17649Y312770D01*
X16770Y313649D01*
X15621Y314124D01*
D02*
G37*
G36*
X46227Y290644D02*
X44984D01*
X43835Y290168D01*
X42957Y289289D01*
X42481Y288141D01*
Y286898D01*
X42957Y285750D01*
X43566Y285140D01*
X43488Y284147D01*
X43405Y283974D01*
X43323Y283940D01*
X42444Y283061D01*
X41968Y281912D01*
Y280669D01*
X42444Y279521D01*
X43323Y278642D01*
X44471Y278167D01*
X45714D01*
X46862Y278642D01*
X47583Y279363D01*
X47752Y279380D01*
X48305Y279300D01*
X48687Y279149D01*
X49033Y278313D01*
X49912Y277434D01*
X51061Y276959D01*
X52303D01*
X53452Y277434D01*
X54331Y278313D01*
X54806Y279461D01*
Y280704D01*
X54331Y281853D01*
X53452Y282731D01*
X52303Y283207D01*
X51061D01*
X49912Y282731D01*
X49192Y282011D01*
X49023Y281994D01*
X48470Y282074D01*
X48088Y282225D01*
X47741Y283061D01*
X47131Y283671D01*
X47209Y284663D01*
X47292Y284837D01*
X47375Y284871D01*
X48254Y285750D01*
X48729Y286898D01*
Y288141D01*
X48254Y289289D01*
X47375Y290168D01*
X46227Y290644D01*
D02*
G37*
G36*
X20621Y274624D02*
X19379D01*
X18230Y274148D01*
X17351Y273270D01*
X16876Y272121D01*
Y270878D01*
X17351Y269730D01*
X18230Y268851D01*
X19379Y268376D01*
X20621D01*
X21770Y268851D01*
X22649Y269730D01*
X23124Y270878D01*
Y272121D01*
X22649Y273270D01*
X21770Y274148D01*
X20621Y274624D01*
D02*
G37*
G36*
X56621Y274499D02*
X55379D01*
X54230Y274024D01*
X53351Y273145D01*
X52876Y271997D01*
Y270754D01*
X53351Y269606D01*
X54230Y268727D01*
X54934Y268435D01*
X55243Y267333D01*
X55238Y267302D01*
X54763Y266154D01*
Y264911D01*
X55238Y263763D01*
X56117Y262884D01*
X57265Y262408D01*
X58508D01*
X59657Y262884D01*
X60535Y263763D01*
X61011Y264911D01*
Y266154D01*
X60535Y267302D01*
X59657Y268181D01*
X58952Y268473D01*
X58644Y269575D01*
X58649Y269606D01*
X59124Y270754D01*
Y271997D01*
X58649Y273145D01*
X57770Y274024D01*
X56621Y274499D01*
D02*
G37*
G36*
X57739Y259048D02*
X56496D01*
X55348Y258572D01*
X54469Y257693D01*
X53994Y256545D01*
Y255302D01*
X54469Y254154D01*
X55348Y253275D01*
X56496Y252799D01*
X57739D01*
X58888Y253275D01*
X59767Y254154D01*
X60242Y255302D01*
Y256545D01*
X59767Y257693D01*
X58888Y258572D01*
X57739Y259048D01*
D02*
G37*
G36*
X21605Y258954D02*
X20362D01*
X19214Y258478D01*
X18335Y257599D01*
X17860Y256451D01*
Y255208D01*
X18335Y254060D01*
X19214Y253181D01*
X20362Y252705D01*
X21605D01*
X22754Y253181D01*
X23632Y254060D01*
X24108Y255208D01*
Y256451D01*
X23632Y257599D01*
X22754Y258478D01*
X21605Y258954D01*
D02*
G37*
G36*
X57410Y250756D02*
X56167D01*
X55019Y250281D01*
X54140Y249402D01*
X53664Y248254D01*
Y247011D01*
X54140Y245862D01*
X55019Y244984D01*
X56167Y244508D01*
X57410D01*
X58558Y244984D01*
X59437Y245862D01*
X59913Y247011D01*
Y248254D01*
X59437Y249402D01*
X58558Y250281D01*
X57410Y250756D01*
D02*
G37*
G36*
X71114Y250504D02*
X69871D01*
X68723Y250028D01*
X67844Y249149D01*
X67368Y248001D01*
Y246758D01*
X67844Y245610D01*
X68723Y244731D01*
X69089Y244579D01*
X69787Y243979D01*
X69597Y243353D01*
X69363Y242787D01*
Y241544D01*
X69838Y240396D01*
X70717Y239517D01*
X71866Y239041D01*
X73108D01*
X74257Y239517D01*
X75136Y240396D01*
X75611Y241544D01*
Y242787D01*
X75136Y243935D01*
X74257Y244814D01*
X73890Y244966D01*
X73192Y245566D01*
X73382Y246192D01*
X73617Y246758D01*
Y248001D01*
X73141Y249149D01*
X72262Y250028D01*
X71114Y250504D01*
D02*
G37*
G36*
X19621Y242124D02*
X18379D01*
X17230Y241649D01*
X16351Y240770D01*
X15876Y239621D01*
Y238379D01*
X16351Y237230D01*
X17230Y236351D01*
X18379Y235876D01*
X19621D01*
X20770Y236351D01*
X21649Y237230D01*
X22124Y238379D01*
Y239621D01*
X21649Y240770D01*
X20770Y241649D01*
X19621Y242124D01*
D02*
G37*
G36*
X52949Y239124D02*
X51706D01*
X50558Y238649D01*
X49679Y237770D01*
X49203Y236621D01*
Y235379D01*
X49679Y234230D01*
X50558Y233351D01*
X51706Y232876D01*
X52949D01*
X54097Y233351D01*
X54976Y234230D01*
X55451Y235379D01*
Y236621D01*
X54976Y237770D01*
X54097Y238649D01*
X52949Y239124D01*
D02*
G37*
G36*
X43738Y237963D02*
X42495D01*
X41346Y237487D01*
X40468Y236608D01*
X39992Y235460D01*
Y234217D01*
X40468Y233069D01*
X41346Y232190D01*
X42495Y231714D01*
X43738D01*
X44886Y232190D01*
X45765Y233069D01*
X46240Y234217D01*
Y235460D01*
X45765Y236608D01*
X44886Y237487D01*
X43738Y237963D01*
D02*
G37*
%LPD*%
D13*
X361321Y297087D02*
G03*
X350638Y301512I-10684J-10684D01*
G01*
X345669Y303570D02*
G03*
X350638Y301512I4968J4968D01*
G01*
X326000Y333760D02*
G03*
X333439Y315800I25400J0D01*
G01*
X328255Y381863D02*
G03*
X326000Y376419I5444J-5444D01*
G01*
X335794Y385536D02*
G03*
X329193Y382802I0J-9336D01*
G01*
X335794Y385536D02*
G03*
X341404Y387859I0J7933D01*
G01*
X345000Y391455D02*
G03*
X352000Y408355I-16899J16899D01*
G01*
X363994Y294414D02*
G03*
X366000Y292000I14077J9657D01*
G01*
X287572Y339051D02*
G03*
X269611Y331612I0J-25400D01*
G01*
X260000Y322000D02*
G03*
X254000Y307515I14485J-14485D01*
G01*
Y294521D02*
G03*
X261439Y276560I25400J0D01*
G01*
X284000Y248343D02*
G03*
X280000Y258000I-13657J0D01*
G01*
X284000Y240385D02*
G03*
X290500Y224692I22192J0D01*
G01*
D02*
G03*
X301828Y220000I11328J11328D01*
G01*
X333343D02*
G03*
X343000Y224000I0J13657D01*
G01*
X355000Y230000D02*
G03*
X344757Y225757I0J-14485D01*
G01*
X317000Y255828D02*
G03*
X319000Y251000I6828J0D01*
G01*
X321649Y248351D02*
G03*
X324108Y247332I2459J2459D01*
G01*
X317000Y309479D02*
G03*
X309561Y327439I-25400J0D01*
G01*
X295831Y351690D02*
G03*
X303271Y333729I25400J0D01*
G01*
X89145Y938901D02*
G03*
X86000Y931309I7593J-7593D01*
G01*
Y878456D02*
G03*
X90565Y867435I15585J0D01*
G01*
X401981Y779482D02*
G03*
X398590Y771294I8187J-8187D01*
G01*
X395193Y749409D02*
G03*
X398590Y757608I-8199J8199D01*
G01*
X390969Y745185D02*
G03*
X389112Y740700I4485J-4485D01*
G01*
X384885Y725177D02*
G03*
X389112Y735381I-10204J10204D01*
G01*
X381018Y721310D02*
G03*
X377000Y711609I9701J-9701D01*
G01*
Y698550D02*
G03*
X384440Y680589I25400J0D01*
G01*
X395083Y663061D02*
G03*
X390214Y674815I-16623J0D01*
G01*
X392000Y622000D02*
G03*
X395083Y629442I-7442J7442D01*
G01*
X388000Y619000D02*
G03*
X389707Y619707I0J2414D01*
G01*
X370590Y622472D02*
G03*
X378971Y619000I8381J8381D01*
G01*
X358720Y638964D02*
G03*
X361989Y631072I11160J0D01*
G01*
X358720Y638964D02*
G03*
X354254Y649746I-15248J0D01*
G01*
X347165Y656835D02*
G03*
X335823Y661533I-11342J-11342D01*
G01*
X307847Y665558D02*
G03*
X317562Y661533I9716J9716D01*
G01*
X352425Y683053D02*
G03*
X359126Y666874I22881J0D01*
G01*
X263825Y711920D02*
G03*
X259818Y721593I-13680J0D01*
G01*
X259000Y644000D02*
G03*
X263825Y655647I-11647J11647D01*
G01*
X258000Y643000D02*
G03*
X254082Y633542I9458J-9458D01*
G01*
X250000Y616000D02*
G03*
X254082Y625855I-9855J9855D01*
G01*
X240589Y611774D02*
G03*
X249441Y615441I0J12518D01*
G01*
X240589Y611774D02*
G03*
X235784Y609784I0J-6796D01*
G01*
X226460Y600460D02*
G03*
X219021Y582500I17960J-17960D01*
G01*
Y575364D02*
G03*
X225651Y559357I22637J0D01*
G01*
X242000Y538315D02*
G03*
X238681Y546327I-11331J0D01*
G01*
X242000Y526071D02*
G03*
X247000Y514000I17071J0D01*
G01*
X248586Y512414D02*
G03*
X252000Y511000I3414J3414D01*
G01*
X257121Y508879D02*
G03*
X252000Y511000I-5121J-5121D01*
G01*
X267686Y488860D02*
G03*
X261000Y505000I-22826J0D01*
G01*
X267686Y476527D02*
G03*
X271970Y466183I14628J0D01*
G01*
X279000Y479000D02*
G03*
X280000Y481414I-2414J2414D01*
G01*
Y496000D02*
G03*
X275776Y506197I-14420J0D01*
G01*
X259611Y522362D02*
G03*
X259000Y523000I-15096J-13848D01*
G01*
X265062Y471436D02*
G03*
X264000Y474000I-3626J0D01*
G01*
X262282Y475718D02*
G03*
X259585Y476835I-2697J-2697D01*
G01*
X244164Y478000D02*
G03*
X246976Y476835I2812J2812D01*
G01*
X241000Y485639D02*
G03*
X244164Y478000I10803J0D01*
G01*
X241000Y504068D02*
G03*
X233561Y522029I-25400J0D01*
G01*
X203000Y563110D02*
G03*
X210439Y545150I25400J0D01*
G01*
X203000Y573000D02*
G03*
X199464Y581535I-12071J0D01*
G01*
X184000Y606899D02*
G03*
X191000Y590000I23900J0D01*
G01*
X186828Y619828D02*
G03*
X184000Y613000I6828J-6828D01*
G01*
X187000Y620000D02*
G03*
X189606Y626290I-6290J6290D01*
G01*
X193184Y645184D02*
G03*
X189606Y636545I8639J-8639D01*
G01*
X197000Y649000D02*
G03*
X203000Y663485I-14485J14485D01*
G01*
X210439Y685025D02*
G03*
X203000Y667065I17960J-17960D01*
G01*
X236868Y701557D02*
G03*
X219974Y694559I0J-23891D01*
G01*
X238542Y701557D02*
G03*
X238879Y701597I-9J1524D01*
G01*
X239898Y701702D02*
G03*
X238879Y701597I-112J-3885D01*
G01*
X245716Y701558D02*
G03*
X245753Y701557I38J1524D01*
G01*
X253122D02*
G03*
X256782Y703073I0J5177D01*
G01*
D02*
G03*
X259703Y710125I-7052J7052D01*
G01*
X243750Y448276D02*
G03*
X251763Y451595I0J11332D01*
G01*
X226587Y455386D02*
G03*
X243750Y448276I17163J17163D01*
G01*
X212000Y480493D02*
G03*
X219440Y462533I25400J0D01*
G01*
X212000Y487000D02*
G03*
X209172Y493828I-9657J0D01*
G01*
X158000Y555521D02*
G03*
X165439Y537561I25400J0D01*
G01*
Y689439D02*
G03*
X158000Y671479I17960J-17960D01*
G01*
X208086Y721565D02*
G03*
X190125Y714125I0J-25400D01*
G01*
X236001Y707000D02*
G03*
X251847Y713564I0J22409D01*
G01*
X213521Y707000D02*
G03*
X195560Y699560I0J-25400D01*
G01*
X194000Y698000D02*
G03*
X188156Y683892I14108J-14108D01*
G01*
X181830Y647467D02*
G03*
X188156Y662739I-15272J15272D01*
G01*
X179440Y645077D02*
G03*
X172000Y627116I17960J-17960D01*
G01*
Y570521D02*
G03*
X179440Y552561I25400J0D01*
G01*
X227000Y494479D02*
G03*
X219561Y512439I-25400J0D01*
G01*
X227000Y486000D02*
G03*
X232027Y473863I17164J0D01*
G01*
X261371Y728070D02*
G03*
X267572Y725501I6202J6202D01*
G01*
X270360Y724830D02*
G03*
X268740Y725501I-1620J-1620D01*
G01*
X271888Y722147D02*
G03*
X270360Y724830I-5654J-1443D01*
G01*
X271930Y721880D02*
G03*
X271888Y722147I-1521J-103D01*
G01*
X271969Y721301D02*
G03*
X271970Y721289I3877J263D01*
G01*
X272069Y719843D02*
G03*
X272065Y719951I-1524J0D01*
G01*
X271961Y713637D02*
G03*
X271960Y713564I3886J-73D01*
G01*
Y673559D02*
G03*
X272040Y672776I3886J0D01*
G01*
X272069Y672488D02*
G03*
X272040Y672776I-1524J-9D01*
G01*
X272039Y666335D02*
G03*
X272069Y666637I-1494J302D01*
G01*
X272039Y666335D02*
G03*
X272038Y664786I3808J-778D01*
G01*
X272069Y664478D02*
G03*
X272038Y664786I-1524J0D01*
G01*
X264630Y612630D02*
G03*
X272069Y630590I-17960J17960D01*
G01*
X258000Y579000D02*
G03*
X262826Y590652I-11652J11652D01*
G01*
X256439Y577439D02*
G03*
X249000Y559479I17960J-17960D01*
G01*
Y542000D02*
G03*
X255364Y526636I21728J0D01*
G01*
X397583Y294000D02*
G03*
X403725Y296544I0J8686D01*
G01*
X389968Y297154D02*
G03*
X397583Y294000I7614J7614D01*
G01*
X369885Y291000D02*
G03*
X378617Y294617I0J12348D01*
G01*
X384540Y299052D02*
G03*
X382000Y298000I0J-3593D01*
G01*
X366000Y292000D02*
G03*
X368414Y291000I2414J2414D01*
G01*
X352000Y468224D02*
G03*
X344561Y486185I-25400J0D01*
G01*
X308400Y522345D02*
G03*
X290440Y529785I-17960J-17960D01*
G01*
X268459Y536541D02*
G03*
X284770Y529785I16311J16311D01*
G01*
X257000Y551000D02*
G03*
X259121Y545879I7243J0D01*
G01*
X259000Y561000D02*
G03*
X257000Y556172I4828J-4828D01*
G01*
X267000Y565000D02*
G03*
X260172Y562172I0J-9657D01*
G01*
X267000Y565000D02*
G03*
X278950Y569950I0J16899D01*
G01*
X296000Y587000D02*
G03*
X301000Y599071I-12071J12071D01*
G01*
X308440Y622205D02*
G03*
X301000Y604245I17960J-17960D01*
G01*
X314885Y628651D02*
G03*
X320000Y641000I-12349J12349D01*
G01*
Y647529D02*
G03*
X315847Y657557I-14181J0D01*
G01*
X331846D02*
G03*
X327000Y645856I11700J-11700D01*
G01*
X322137Y617013D02*
G03*
X327000Y628753I-11740J11740D01*
G01*
X319440Y614315D02*
G03*
X312000Y596355I17960J-17960D01*
G01*
X306502Y581287D02*
G03*
X312000Y594560I-13272J13272D01*
G01*
X268858Y554164D02*
G03*
X286819Y561603I0J25400D01*
G01*
X322869Y864131D02*
G03*
X312170Y868563I-10700J-10700D01*
G01*
X359000Y817479D02*
G03*
X351561Y835440I-25400J0D01*
G01*
X357000Y751000D02*
G03*
X359000Y755828I-4828J4828D01*
G01*
X357000Y751000D02*
G03*
X352425Y739954I11046J-11046D01*
G01*
X329000Y766935D02*
G03*
X336440Y748975I25400J0D01*
G01*
X329000Y782479D02*
G03*
X321561Y800440I-25400J0D01*
G01*
X297439Y824560D02*
G03*
X279479Y832000I-17960J-17960D01*
G01*
X176560Y839439D02*
G03*
X194521Y832000I17960J17960D01*
G01*
X150000Y876521D02*
G03*
X157439Y858560I25400J0D01*
G01*
X150000Y879929D02*
G03*
X145000Y892000I-17071J0D01*
G01*
D02*
G03*
X135343Y896000I-9657J-9657D01*
G01*
X127396Y897493D02*
G03*
X131000Y896000I3604J3604D01*
G01*
X113237Y911641D02*
G03*
X113510Y911340I3013J2455D01*
G01*
X113237Y911641D02*
G03*
X113147Y911742I-1178J-967D01*
G01*
X116777Y841223D02*
G03*
X134738Y833783I17960J17960D01*
G01*
X361321Y297087D02*
X363994Y294414D01*
X333439Y315800D02*
X345669Y303570D01*
X326000Y333760D02*
Y376419D01*
X328255Y381863D02*
X329193Y382802D01*
X341404Y387859D02*
X345000Y391455D01*
X352000Y408355D02*
Y468224D01*
X244000Y399000D02*
X263000Y380000D01*
X309322D01*
X316152Y386829D01*
X218980Y399000D02*
X244000D01*
X213069Y404912D02*
X218980Y399000D01*
X175548Y404912D02*
X213069D01*
X172948Y407512D02*
X175548Y404912D01*
X172948Y407512D02*
Y413074D01*
X169062Y416960D02*
X172948Y413074D01*
X287572Y339051D02*
X287703D01*
X260000Y322000D02*
X269611Y331612D01*
X254000Y294521D02*
Y307515D01*
X261439Y276560D02*
X280000Y258000D01*
X284000Y240385D02*
Y248343D01*
X301828Y220000D02*
X333343D01*
X343000Y224000D02*
X344757Y225757D01*
X317000Y255828D02*
Y309479D01*
X319000Y251000D02*
X321649Y248351D01*
X303271Y333729D02*
X309561Y327439D01*
X295831Y351690D02*
Y357548D01*
X101260Y457597D02*
X106858Y452000D01*
X70595Y457597D02*
X101260D01*
X106858Y452000D02*
X120000D01*
X127000Y445000D01*
X64998Y463194D02*
X70595Y457597D01*
X64000Y449000D02*
X75000D01*
X85000Y439000D02*
X147022D01*
X75000Y449000D02*
X85000Y439000D01*
X177062Y417025D02*
Y431503D01*
X163183Y445382D02*
X177062Y431503D01*
X154980Y445382D02*
X163183D01*
X154598Y445000D02*
X154980Y445382D01*
X127000Y445000D02*
X154598D01*
X147022Y439000D02*
X153062Y432960D01*
X50000Y463000D02*
X64000Y449000D01*
X130557Y424213D02*
X137875Y416894D01*
X99041Y424213D02*
X130557D01*
X116992Y413008D02*
X162606D01*
X110000Y420000D02*
X116992Y413008D01*
X137875Y416894D02*
X153062D01*
X96765Y426489D02*
X99041Y424213D01*
X96765Y426489D02*
Y430765D01*
X101000Y435000D01*
X162606Y413008D02*
X164948Y415350D01*
Y421008D01*
X161062Y424894D02*
X164948Y421008D01*
X132901Y428099D02*
X140220Y420780D01*
X157241D01*
X161062Y416960D01*
X100651Y428099D02*
X132901D01*
X89145Y938901D02*
X98234Y947991D01*
X90565Y867435D02*
X91360Y866640D01*
X116777Y841223D01*
X86000Y878456D02*
Y931309D01*
X46526Y880908D02*
X49384Y878051D01*
X58000D01*
Y885000D01*
X46526Y880908D02*
Y890184D01*
X32000Y917100D02*
X43877Y905223D01*
Y892834D02*
Y905223D01*
Y892834D02*
X46526Y890184D01*
X32000Y917100D02*
Y959000D01*
X50500Y884000D02*
X55386Y888886D01*
X66886D01*
X75638Y897638D01*
Y952554D01*
X83000Y959916D01*
Y1033496D01*
X84940Y1035436D01*
Y1047633D01*
X60016Y900449D02*
X64938Y905371D01*
Y950500D01*
X71928Y957490D01*
Y970576D01*
X69114Y973390D02*
X71928Y970576D01*
X69114Y973390D02*
Y973681D01*
X43000Y999794D02*
X69114Y973681D01*
X43000Y999794D02*
Y1042000D01*
X63253Y1062253D01*
Y1075747D01*
X59000Y1080000D02*
X63253Y1075747D01*
X52483Y1009848D02*
Y1044483D01*
X69000Y1061000D02*
Y1087000D01*
X52483Y1044483D02*
X69000Y1061000D01*
X79000D02*
Y1102457D01*
X62000Y1033000D02*
Y1044000D01*
X79000Y1061000D01*
X23809Y1157648D02*
X79000Y1102457D01*
X64000Y1092000D02*
X69000Y1087000D01*
X10140Y1157648D02*
X23809D01*
X52483Y1009848D02*
X62846Y999485D01*
X38000Y1092000D02*
X64000D01*
X28000Y1102000D02*
X38000Y1092000D01*
X28000Y1102000D02*
Y1139315D01*
X16188Y1151127D02*
X28000Y1139315D01*
X58000Y1064000D02*
X59000Y1065000D01*
X45000Y1064000D02*
X58000D01*
X59000Y1065000D02*
Y1073000D01*
X56000Y1076000D02*
X59000Y1073000D01*
X38000Y1076000D02*
X56000D01*
X25136Y1063136D02*
X38000Y1076000D01*
X25136Y965864D02*
Y1063136D01*
Y965864D02*
X32000Y959000D01*
X43000Y1071000D02*
X53000D01*
X34000Y1062000D02*
X43000Y1071000D01*
X34000Y967000D02*
Y1062000D01*
Y967000D02*
X52591Y948409D01*
Y910481D02*
Y948409D01*
Y910481D02*
X55991Y907081D01*
Y894216D02*
Y907081D01*
X398590Y757608D02*
Y771294D01*
X390969Y745185D02*
X395193Y749409D01*
X389112Y735381D02*
Y740700D01*
X381018Y721310D02*
X384885Y725177D01*
X377000Y698550D02*
Y711609D01*
X384440Y680589D02*
X390214Y674815D01*
X395083Y629442D02*
Y663061D01*
X389707Y619707D02*
X392000Y622000D01*
X378971Y619000D02*
X388000D01*
X361989Y631072D02*
X370590Y622472D01*
X347165Y656835D02*
X354254Y649746D01*
X317562Y661533D02*
X335823D01*
X359126Y666874D02*
X364000Y662000D01*
X352425Y683053D02*
Y739954D01*
X263825Y655647D02*
Y711920D01*
X258000Y643000D02*
X259000Y644000D01*
X254082Y625855D02*
Y633542D01*
X249441Y615441D02*
X250000Y616000D01*
X226460Y600460D02*
X235784Y609784D01*
X219021Y575364D02*
Y582500D01*
X225651Y559357D02*
X238681Y546327D01*
X242000Y526071D02*
Y538315D01*
X247000Y514000D02*
X248586Y512414D01*
X257121Y508879D02*
X261000Y505000D01*
X267686Y476527D02*
Y488860D01*
X271970Y466183D02*
X273062Y465091D01*
Y472960D02*
Y473062D01*
X279000Y479000D01*
X280000Y481414D02*
Y496000D01*
X259611Y522362D02*
X275776Y506197D01*
X265062Y465025D02*
Y471436D01*
X262282Y475718D02*
X264000Y474000D01*
X246976Y476835D02*
X259585D01*
X241000Y485639D02*
Y504068D01*
X210439Y545150D02*
X233561Y522029D01*
X203000Y563110D02*
Y573000D01*
X191000Y590000D02*
X199464Y581535D01*
X184000Y606899D02*
Y613000D01*
X186828Y619828D02*
X187000Y620000D01*
X189606Y626290D02*
Y636545D01*
X193184Y645184D02*
X197000Y649000D01*
X203000Y663485D02*
Y667065D01*
X210439Y685025D02*
X219974Y694559D01*
X236868Y701557D02*
X238542D01*
X239898Y701702D02*
X245716Y701558D01*
X245753Y701557D02*
X253122D01*
X259703Y710125D02*
Y713707D01*
X251763Y451595D02*
X257062Y456894D01*
X219440Y462533D02*
X226587Y455386D01*
X212000Y480493D02*
Y487000D01*
X165439Y537561D02*
X209172Y493828D01*
X158000Y555521D02*
Y671479D01*
X165439Y689439D02*
X190125Y714125D01*
X208086Y721565D02*
X251847D01*
X213521Y707000D02*
X236001D01*
X194000Y698000D02*
X195560Y699560D01*
X188156Y662739D02*
Y683892D01*
X179440Y645077D02*
X181830Y647467D01*
X172000Y570521D02*
Y627116D01*
X179440Y552561D02*
X219561Y512439D01*
X227000Y486000D02*
Y494479D01*
X232027Y473863D02*
X249062Y456828D01*
X259875Y729566D02*
X261371Y728070D01*
X267572Y725501D02*
X268740D01*
X271930Y721880D02*
X271969Y721301D01*
X271970Y721289D02*
X272065Y719951D01*
X272069Y719830D02*
Y719843D01*
X271961Y713637D02*
X272069Y719830D01*
X271960Y673559D02*
Y713564D01*
X272069Y666637D02*
Y672488D01*
Y630590D02*
Y664478D01*
X262826Y610826D02*
X264630Y612630D01*
X262826Y590652D02*
Y610826D01*
X256439Y577439D02*
X258000Y579000D01*
X249000Y542000D02*
Y559479D01*
X255364Y526636D02*
X259000Y523000D01*
X403725Y296544D02*
X407000Y299819D01*
X388070Y299052D02*
X389968Y297154D01*
X378617Y294617D02*
X382000Y298000D01*
X384540Y299052D02*
X388070D01*
X368414Y291000D02*
X369885D01*
X308400Y522345D02*
X344561Y486185D01*
X284770Y529785D02*
X290440D01*
X259121Y545879D02*
X268459Y536541D01*
X257000Y551000D02*
Y556172D01*
X259000Y561000D02*
X260172Y562172D01*
X278950Y569950D02*
X296000Y587000D01*
X301000Y599071D02*
Y604245D01*
X308440Y622205D02*
X314885Y628651D01*
X320000Y641000D02*
Y647529D01*
X327000Y628753D02*
Y645856D01*
X319440Y614315D02*
X322137Y617013D01*
X312000Y594560D02*
Y596355D01*
X286819Y561603D02*
X306502Y581287D01*
X263658Y554164D02*
X268858D01*
X322869Y864131D02*
X351561Y835440D01*
X359000Y755828D02*
Y817479D01*
X336440Y748975D02*
X339846Y745568D01*
X329000Y766935D02*
Y782479D01*
X297439Y824560D02*
X321561Y800440D01*
X194521Y832000D02*
X279479D01*
X157439Y858560D02*
X176560Y839439D01*
X150000Y876521D02*
Y879929D01*
X131000Y896000D02*
X135343D01*
X113510Y911340D02*
X127396Y897493D01*
X109000Y915889D02*
X113147Y911742D01*
X90565Y867435D02*
X91360Y866640D01*
X134738Y833783D02*
X145073D01*
D16*
X332915Y238349D02*
G03*
X343335Y242665I0J14736D01*
G01*
D02*
G03*
X346615Y250584I-7919J7919D01*
G01*
X350232Y267232D02*
G03*
X346615Y258500I8732J-8732D01*
G01*
X332915Y241651D02*
G03*
X341000Y245000I0J11434D01*
G01*
D02*
G03*
X343313Y250584I-5584J5584D01*
G01*
X347897Y269566D02*
G03*
X343313Y258500I11066J-11066D01*
G01*
X318100Y237422D02*
G03*
X319220Y237885I0J1583D01*
G01*
X320339Y238349D02*
G03*
X319220Y237885I0J-1583D01*
G01*
X361465Y272335D02*
G03*
X351000Y268000I0J-14800D01*
G01*
X377000Y270000D02*
G03*
X371363Y272335I-5637J-5637D01*
G01*
X381000Y260343D02*
G03*
X377000Y270000I-13657J0D01*
G01*
X379000Y242000D02*
G03*
X381000Y246828I-4828J4828D01*
G01*
X372122Y239151D02*
G03*
X379000Y242000I0J9727D01*
G01*
X364220Y239615D02*
G03*
X365339Y239151I1119J1119D01*
G01*
X364220Y239615D02*
G03*
X363101Y240078I-1119J-1119D01*
G01*
X319220Y242115D02*
G03*
X318100Y242578I-1119J-1119D01*
G01*
X319220Y242115D02*
G03*
X320339Y241651I1119J1119D01*
G01*
X361465Y275637D02*
G03*
X348665Y270335I0J-18102D01*
G01*
X379335Y272335D02*
G03*
X371363Y275637I-7972J-7972D01*
G01*
X384302Y260343D02*
G03*
X379335Y272335I-16959J0D01*
G01*
X381335Y239665D02*
G03*
X384302Y246828I-7163J7163D01*
G01*
X372122Y235849D02*
G03*
X381335Y239665I0J13029D01*
G01*
X365339Y235849D02*
G03*
X364220Y235385I0J-1583D01*
G01*
X363101Y234922D02*
G03*
X364220Y235385I0J1583D01*
G01*
X346615Y250584D02*
Y258500D01*
X350232Y267232D02*
X351000Y268000D01*
X343313Y250584D02*
Y258500D01*
X347897Y269566D02*
X348665Y270335D01*
X318000Y237422D02*
X318100D01*
X320339Y238349D02*
X332915D01*
X361465Y272335D02*
X371363D01*
X381000Y246828D02*
Y260343D01*
X365339Y239151D02*
X372122D01*
X363000Y240078D02*
X363101D01*
X318000Y242578D02*
X318100D01*
X320339Y241651D02*
X332915D01*
X361465Y275637D02*
X371363D01*
X384302Y246828D02*
Y260343D01*
X365339Y235849D02*
X372122D01*
X363000Y234922D02*
X363101D01*
D209*
X214714Y1199251D02*
D03*
Y1252551D02*
D03*
X161414Y1199251D02*
D03*
Y1252551D02*
D03*
D212*
X338600Y204000D02*
D03*
D213*
Y276000D02*
D03*
D214*
X351100Y198700D02*
D03*
Y281300D02*
D03*
X410600Y195100D02*
D03*
Y284900D02*
D03*
D215*
X349000Y355000D02*
D03*
X344000D02*
D03*
X339000D02*
D03*
X349000Y322000D02*
D03*
X344000D02*
D03*
X339000D02*
D03*
X349000Y345000D02*
D03*
X344000D02*
D03*
X339000D02*
D03*
X349000Y332000D02*
D03*
X344000D02*
D03*
X339000D02*
D03*
X41000Y1112000D02*
D03*
X407040Y651750D02*
D03*
X221936Y228030D02*
D03*
X222640Y220000D02*
D03*
X118672Y172000D02*
D03*
X99305Y928016D02*
D03*
X99000Y906000D02*
D03*
X97000Y469000D02*
D03*
X78783Y462000D02*
D03*
X72283Y463194D02*
D03*
X285437Y418963D02*
D03*
X284000Y390000D02*
D03*
X285114Y434886D02*
D03*
X285886Y449707D02*
D03*
X98351Y922268D02*
D03*
X77951Y1141396D02*
D03*
X356966Y244251D02*
D03*
X356740Y224426D02*
D03*
X324375Y227000D02*
D03*
X323809Y253152D02*
D03*
X255000Y218573D02*
D03*
X340294Y266500D02*
D03*
X158000Y1083343D02*
D03*
X300237Y827259D02*
D03*
X398083Y669025D02*
D03*
X394918Y675548D02*
D03*
X82000Y611000D02*
D03*
Y618000D02*
D03*
X110000Y646000D02*
D03*
X138000Y1110000D02*
D03*
X145000Y1120000D02*
D03*
X152000Y1126000D02*
D03*
X161000Y1132000D02*
D03*
X159000Y1141000D02*
D03*
X157000Y1149000D02*
D03*
X158000Y1158000D02*
D03*
X163000Y1165000D02*
D03*
X172000Y1171000D02*
D03*
X208000Y1170000D02*
D03*
X212000Y1161000D02*
D03*
X211000Y1145000D02*
D03*
Y1135000D02*
D03*
X220000Y1129000D02*
D03*
X227000Y1121000D02*
D03*
X191175Y1144312D02*
D03*
X182064Y1152534D02*
D03*
X30892Y460059D02*
D03*
X276000Y374712D02*
D03*
X275000Y386000D02*
D03*
X257646Y417143D02*
D03*
X257320Y401328D02*
D03*
X257376Y449443D02*
D03*
Y441186D02*
D03*
X249655Y425448D02*
D03*
X148077Y160344D02*
D03*
X316037Y737848D02*
D03*
X339846Y673559D02*
D03*
X332380Y689561D02*
D03*
X334000Y371586D02*
D03*
X362564Y391092D02*
D03*
X45605Y287520D02*
D03*
X70493Y247380D02*
D03*
X79000Y241000D02*
D03*
X74868Y160014D02*
D03*
X119756Y164916D02*
D03*
X60000Y161000D02*
D03*
X57000Y168000D02*
D03*
X13117Y177968D02*
D03*
X177506Y449090D02*
D03*
X185481Y409339D02*
D03*
X407600Y182000D02*
D03*
X334000Y470000D02*
D03*
X317265Y199778D02*
D03*
X233626Y167910D02*
D03*
X309456Y206329D02*
D03*
X311093Y194236D02*
D03*
X336015Y160745D02*
D03*
X336000Y183000D02*
D03*
X325000Y185000D02*
D03*
X116000Y402000D02*
D03*
X110000Y420000D02*
D03*
X161245Y433767D02*
D03*
X161574Y441495D02*
D03*
X313171Y229995D02*
D03*
X66373Y809255D02*
D03*
X66833Y815933D02*
D03*
X68000Y840000D02*
D03*
X16021Y741127D02*
D03*
X12246Y797201D02*
D03*
X79455Y1146975D02*
D03*
X272870Y1189520D02*
D03*
X243144Y1188427D02*
D03*
X298552Y1254435D02*
D03*
X238171Y1253683D02*
D03*
X299588Y1164277D02*
D03*
X334000Y1167000D02*
D03*
X345000Y1163000D02*
D03*
X345360Y1169713D02*
D03*
X416000Y1126000D02*
D03*
X410000Y842000D02*
D03*
X394000Y853000D02*
D03*
X271000Y902000D02*
D03*
X263194Y933530D02*
D03*
X261866Y944272D02*
D03*
X259000Y954000D02*
D03*
X48009Y974234D02*
D03*
X39952Y974278D02*
D03*
X84940Y1047633D02*
D03*
X92855Y1045391D02*
D03*
X59000Y1080000D02*
D03*
X45000Y1064000D02*
D03*
X53000Y1071000D02*
D03*
X109000Y874000D02*
D03*
X107697Y1127600D02*
D03*
X74997Y1129863D02*
D03*
X74054Y1123889D02*
D03*
X132401Y1118152D02*
D03*
X97681Y1127462D02*
D03*
X123639Y1202050D02*
D03*
X91000Y1202000D02*
D03*
X102000Y934000D02*
D03*
X50500Y884000D02*
D03*
X58000Y885000D02*
D03*
X70993Y1047369D02*
D03*
X78714Y1044375D02*
D03*
X68517Y1026744D02*
D03*
X9959Y1018884D02*
D03*
X371921Y1210655D02*
D03*
X342454Y1209437D02*
D03*
X367000Y1207000D02*
D03*
X350225Y1207362D02*
D03*
X361328Y1206000D02*
D03*
X356172D02*
D03*
X287752Y501510D02*
D03*
X295000Y549000D02*
D03*
X323846Y737848D02*
D03*
X356311Y717708D02*
D03*
X369890Y555177D02*
D03*
X370000Y561000D02*
D03*
X400085Y679180D02*
D03*
X405880Y677596D02*
D03*
X404500Y774000D02*
D03*
X364000Y662000D02*
D03*
X259908Y681781D02*
D03*
X72000Y616750D02*
D03*
X45000Y604000D02*
D03*
X215111Y715235D02*
D03*
X239785Y697818D02*
D03*
X241312Y732651D02*
D03*
X239097Y713783D02*
D03*
X22681Y611330D02*
D03*
X285000Y640674D02*
D03*
X310042Y649560D02*
D03*
X314968Y643940D02*
D03*
X240589Y619000D02*
D03*
X131000Y740000D02*
D03*
Y746000D02*
D03*
X27290Y615808D02*
D03*
X115184Y981080D02*
D03*
X39606Y373606D02*
D03*
X249737Y465811D02*
D03*
X257507Y465303D02*
D03*
X256654Y487343D02*
D03*
X225062Y472894D02*
D03*
X233062Y481025D02*
D03*
X241062Y472960D02*
D03*
X249062Y480960D02*
D03*
X193146Y465560D02*
D03*
X197531Y485596D02*
D03*
X169812Y465000D02*
D03*
X180117Y486851D02*
D03*
X51000Y795933D02*
D03*
X22000Y795000D02*
D03*
X34000Y742000D02*
D03*
X49000Y743000D02*
D03*
X71000Y753000D02*
D03*
X69000Y766000D02*
D03*
X13000Y862000D02*
D03*
Y874000D02*
D03*
X67000Y861000D02*
D03*
X68000Y872000D02*
D03*
X100948Y883670D02*
D03*
X100897Y893895D02*
D03*
X124766Y864134D02*
D03*
X96210Y818656D02*
D03*
X108810Y816792D02*
D03*
X122454Y817687D02*
D03*
X87487Y837891D02*
D03*
X156867Y792909D02*
D03*
X145073Y833783D02*
D03*
X191000Y810000D02*
D03*
X117569Y770885D02*
D03*
X401864Y799684D02*
D03*
X401981Y779482D02*
D03*
X406163Y765430D02*
D03*
X406000Y743000D02*
D03*
Y624000D02*
D03*
X405072Y633569D02*
D03*
X397333Y617000D02*
D03*
X400004Y599479D02*
D03*
X367777Y544139D02*
D03*
X371046Y522010D02*
D03*
X379007Y529450D02*
D03*
X384978Y529118D02*
D03*
X391280Y527934D02*
D03*
X417153Y549635D02*
D03*
X397008Y563029D02*
D03*
X389386Y561908D02*
D03*
X385451Y571622D02*
D03*
X379528Y566173D02*
D03*
X287703Y339051D02*
D03*
X295831Y357548D02*
D03*
X313250Y339134D02*
D03*
X313000Y350000D02*
D03*
X317000Y364000D02*
D03*
X316152Y386829D02*
D03*
X305617Y386249D02*
D03*
X292978Y385928D02*
D03*
X263658Y554164D02*
D03*
X257000Y538000D02*
D03*
X251000Y518000D02*
D03*
X362000Y537000D02*
D03*
X290154Y458010D02*
D03*
X290000Y479709D02*
D03*
X358000Y511000D02*
D03*
X359000Y481500D02*
D03*
X360000Y526279D02*
D03*
X285000Y510000D02*
D03*
X299793Y519892D02*
D03*
X361000Y448000D02*
D03*
X360000Y420000D02*
D03*
X311000Y447000D02*
D03*
X297334Y447000D02*
D03*
X304000Y447000D02*
D03*
X308000Y392000D02*
D03*
X300000Y406000D02*
D03*
X293000D02*
D03*
X353000Y367000D02*
D03*
X343900D02*
D03*
X331617Y377000D02*
D03*
X345869Y463217D02*
D03*
X327000Y463000D02*
D03*
X336674Y461873D02*
D03*
X336674Y406275D02*
D03*
X346854Y406473D02*
D03*
X376000Y359000D02*
D03*
Y365625D02*
D03*
X324000Y299000D02*
D03*
X323150Y319500D02*
D03*
X240924Y243639D02*
D03*
X214440Y168300D02*
D03*
X56000Y271375D02*
D03*
X90000Y188600D02*
D03*
Y181412D02*
D03*
Y195000D02*
D03*
X72487Y242165D02*
D03*
X92000Y220000D02*
D03*
X78639Y202182D02*
D03*
X61000Y201000D02*
D03*
X67500D02*
D03*
X43116Y234839D02*
D03*
X52327Y236000D02*
D03*
X57118Y255924D02*
D03*
X56788Y247632D02*
D03*
X57887Y265532D02*
D03*
X45093Y281291D02*
D03*
X51682Y280083D02*
D03*
X15000Y311000D02*
D03*
X7000D02*
D03*
Y272000D02*
D03*
Y227000D02*
D03*
Y237000D02*
D03*
X19000Y239000D02*
D03*
X20000Y271500D02*
D03*
X20984Y255830D02*
D03*
X48125Y353000D02*
D03*
X31000Y350000D02*
D03*
X30000Y333000D02*
D03*
X40000Y353000D02*
D03*
X70000Y337000D02*
D03*
Y344000D02*
D03*
X43678Y357713D02*
D03*
X13935Y372125D02*
D03*
X12467Y319157D02*
D03*
X103000Y391000D02*
D03*
X58222Y464000D02*
D03*
X16000Y388000D02*
D03*
X169637Y541381D02*
D03*
X219584Y560111D02*
D03*
X144000Y517000D02*
D03*
X109192Y494577D02*
D03*
X124000Y466000D02*
D03*
X124698Y477117D02*
D03*
X124241Y487019D02*
D03*
X109000Y459000D02*
D03*
X29059Y470277D02*
D03*
X15729Y482327D02*
D03*
X25682Y536532D02*
D03*
X109230Y550657D02*
D03*
X83000Y667000D02*
D03*
X148000Y676000D02*
D03*
X147998Y663499D02*
D03*
X86000Y710500D02*
D03*
X149389Y710626D02*
D03*
X87621Y744770D02*
D03*
X34000Y728000D02*
D03*
X44000Y728000D02*
D03*
X26000Y678000D02*
D03*
X35000D02*
D03*
X43000D02*
D03*
X32000Y629000D02*
D03*
X38000D02*
D03*
X45000D02*
D03*
X17000Y592000D02*
D03*
X164000Y624000D02*
D03*
X116228Y641308D02*
D03*
X134032Y610956D02*
D03*
X81720Y640915D02*
D03*
X70661Y642249D02*
D03*
X414000Y347000D02*
D03*
X378000Y380000D02*
D03*
X373000Y385000D02*
D03*
X365000D02*
D03*
X415000Y384000D02*
D03*
X415031Y376000D02*
D03*
X378269Y338446D02*
D03*
X376119Y346776D02*
D03*
X372000Y297138D02*
D03*
Y304000D02*
D03*
Y310000D02*
D03*
Y316000D02*
D03*
X377000Y322181D02*
D03*
X363727Y180413D02*
D03*
X348000Y175000D02*
D03*
X363605Y167561D02*
D03*
X400809Y180414D02*
D03*
X400502Y173650D02*
D03*
X394751Y332062D02*
D03*
X386000Y331000D02*
D03*
X401876Y331055D02*
D03*
X408724Y331137D02*
D03*
X381763Y314891D02*
D03*
X415129Y308000D02*
D03*
X407000Y299819D02*
D03*
X388070Y299052D02*
D03*
X397583Y299819D02*
D03*
X315647Y181710D02*
D03*
X308000Y171000D02*
D03*
X317677Y166332D02*
D03*
X28254Y522931D02*
D03*
X48000Y523000D02*
D03*
X135010Y728871D02*
D03*
X122613D02*
D03*
X109721Y728127D02*
D03*
X97000Y728000D02*
D03*
X122000Y646000D02*
D03*
X135368Y645641D02*
D03*
X134000Y572206D02*
D03*
X122410Y584000D02*
D03*
X123000Y598000D02*
D03*
X106000Y599000D02*
D03*
X128646Y575354D02*
D03*
X125000Y579000D02*
D03*
X117156Y597000D02*
D03*
X112000D02*
D03*
X120408Y562981D02*
D03*
X116988Y548571D02*
D03*
X120082Y539452D02*
D03*
X107000Y531000D02*
D03*
X116000Y559578D02*
D03*
Y554422D02*
D03*
X113958Y539646D02*
D03*
X110312Y536000D02*
D03*
X83024Y525146D02*
D03*
X77698Y529116D02*
D03*
X63842Y522322D02*
D03*
X55000Y523000D02*
D03*
X63078Y528000D02*
D03*
X57922D02*
D03*
X34115Y507634D02*
D03*
X419000Y983000D02*
D03*
Y992000D02*
D03*
X415000Y1002000D02*
D03*
X414000Y1013000D02*
D03*
Y1023000D02*
D03*
X412000Y1034000D02*
D03*
X410000Y1046000D02*
D03*
X406000Y1057000D02*
D03*
X359000Y1082000D02*
D03*
X367000Y1080000D02*
D03*
X351000Y1081000D02*
D03*
X340000Y1083000D02*
D03*
X333000Y1090000D02*
D03*
X330000Y1100000D02*
D03*
X320000Y1126000D02*
D03*
X314000Y1133000D02*
D03*
X298172Y1136000D02*
D03*
X284000Y1137000D02*
D03*
X272000Y1136000D02*
D03*
X261000Y1131000D02*
D03*
X252000Y1123000D02*
D03*
X245000Y1114000D02*
D03*
X235000Y1109000D02*
D03*
X283388Y1118250D02*
D03*
X273000Y1114000D02*
D03*
X264000Y1101000D02*
D03*
X256000Y1095000D02*
D03*
X249000Y1089000D02*
D03*
X241000Y1085000D02*
D03*
X231000Y1082000D02*
D03*
X217000Y1080000D02*
D03*
X211000Y1072000D02*
D03*
X200000Y1067000D02*
D03*
X214000Y1063000D02*
D03*
X216000Y1054000D02*
D03*
Y1042000D02*
D03*
Y1031000D02*
D03*
X196000Y1090344D02*
D03*
X188000Y1120000D02*
D03*
Y1108000D02*
D03*
Y1096527D02*
D03*
X189000Y1086000D02*
D03*
X177000Y1083000D02*
D03*
X167000Y1072000D02*
D03*
X164000Y1063000D02*
D03*
X163255Y1051000D02*
D03*
X165000Y1040000D02*
D03*
X176000Y1045000D02*
D03*
X179000Y1036000D02*
D03*
X181000Y1025790D02*
D03*
X183000Y1013596D02*
D03*
Y1003500D02*
D03*
X160000Y1002000D02*
D03*
X154000Y1006000D02*
D03*
X148000Y1013000D02*
D03*
X142000Y1021000D02*
D03*
X97000Y966000D02*
D03*
X101000Y975350D02*
D03*
X102000Y985000D02*
D03*
X100000Y994787D02*
D03*
X98000Y1005000D02*
D03*
X104000Y1010000D02*
D03*
X112000Y1012000D02*
D03*
X121000Y1015000D02*
D03*
X130000Y1021000D02*
D03*
X135000Y1030000D02*
D03*
X138000Y1040310D02*
D03*
X139000Y1050521D02*
D03*
X141000Y1061000D02*
D03*
X145000Y1071000D02*
D03*
X151000Y1079000D02*
D03*
X141000Y1096000D02*
D03*
X132000Y1089000D02*
D03*
X125000Y1078000D02*
D03*
X119000Y1067000D02*
D03*
X117000Y1056000D02*
D03*
X113000Y1046000D02*
D03*
X108000Y1038000D02*
D03*
X98970Y1036000D02*
D03*
X88000Y1033000D02*
D03*
X79000Y1030000D02*
D03*
X74000Y1022000D02*
D03*
X71000Y1012997D02*
D03*
Y1004000D02*
D03*
X73000Y994000D02*
D03*
X74000Y982686D02*
D03*
X73000Y975000D02*
D03*
X7000Y880000D02*
D03*
X23500Y884151D02*
D03*
X16578D02*
D03*
X11422D02*
D03*
X45000Y1147000D02*
D03*
X37000Y1154000D02*
D03*
X54000D02*
D03*
Y1138250D02*
D03*
X36000D02*
D03*
X38769Y379403D02*
D03*
X26000Y380000D02*
D03*
X35483Y384000D02*
D03*
X30327D02*
D03*
X53000Y375000D02*
D03*
X81285Y344450D02*
D03*
X65783Y392000D02*
D03*
X225348Y385522D02*
D03*
X233523Y392989D02*
D03*
X217415Y432994D02*
D03*
Y441244D02*
D03*
X209062Y440960D02*
D03*
X217312Y393164D02*
D03*
X209537D02*
D03*
X201229Y393164D02*
D03*
X185740Y417080D02*
D03*
X185799Y424973D02*
D03*
X185503Y433045D02*
D03*
X185621Y440938D02*
D03*
X372796Y251431D02*
D03*
X372168Y264417D02*
D03*
X369725Y211146D02*
D03*
X369864Y224411D02*
D03*
X365116Y220078D02*
D03*
Y214922D02*
D03*
X368000Y260078D02*
D03*
Y254922D02*
D03*
X302887Y238981D02*
D03*
Y251633D02*
D03*
X297672Y228250D02*
D03*
X307183Y230849D02*
D03*
X303536Y227203D02*
D03*
X297433Y247666D02*
D03*
Y242510D02*
D03*
X367488Y231491D02*
D03*
X367000Y244000D02*
D03*
X312550Y235795D02*
D03*
X314031Y246651D02*
D03*
X363000Y240078D02*
D03*
Y234922D02*
D03*
X318000Y242578D02*
D03*
Y237422D02*
D03*
X324108Y247332D02*
D03*
X324375Y232894D02*
D03*
X355000Y230000D02*
D03*
X356606Y250136D02*
D03*
X357187Y210159D02*
D03*
X339808Y212593D02*
D03*
X324459D02*
D03*
X355835Y264998D02*
D03*
X324730Y267567D02*
D03*
X418004Y882708D02*
D03*
X412573Y900656D02*
D03*
X276000Y969000D02*
D03*
X380788Y1001000D02*
D03*
X339788Y977000D02*
D03*
X339198Y990118D02*
D03*
X306788Y976087D02*
D03*
X303263Y996000D02*
D03*
X305788Y987327D02*
D03*
X298676Y1003000D02*
D03*
X338315Y1009420D02*
D03*
X338788Y1016000D02*
D03*
X303788Y1012000D02*
D03*
X380788Y1021000D02*
D03*
X370950Y1017358D02*
D03*
X381788Y1011000D02*
D03*
X380788Y979000D02*
D03*
X370568Y990684D02*
D03*
X380788Y989000D02*
D03*
X281788Y1078000D02*
D03*
X287678Y1107929D02*
D03*
X283788Y1087000D02*
D03*
X328788Y1108000D02*
D03*
X400788Y1064000D02*
D03*
X377788Y1058000D02*
D03*
X322038Y1050250D02*
D03*
X310788Y1058000D02*
D03*
X378788Y1073326D02*
D03*
X393788Y1067000D02*
D03*
X385788Y1072000D02*
D03*
X328139Y1069520D02*
D03*
X307683Y1073791D02*
D03*
X336585Y1040000D02*
D03*
X338586Y1028810D02*
D03*
X383161Y1035000D02*
D03*
X381788Y1045000D02*
D03*
X380788Y1052000D02*
D03*
X382788Y1028000D02*
D03*
X274788Y1012000D02*
D03*
X282788Y982476D02*
D03*
X279788Y974000D02*
D03*
X276788Y991000D02*
D03*
X293788Y1011000D02*
D03*
X275788Y1002000D02*
D03*
X272788Y1035000D02*
D03*
X270788Y1048000D02*
D03*
X271788Y1057000D02*
D03*
X294768Y1020000D02*
D03*
X274788Y1023000D02*
D03*
X419093Y970746D02*
D03*
X371272Y959858D02*
D03*
X383788Y936000D02*
D03*
X384788Y925000D02*
D03*
X383788Y946000D02*
D03*
Y955986D02*
D03*
X385431Y915091D02*
D03*
X371031Y951948D02*
D03*
X419000Y925000D02*
D03*
X418751Y914770D02*
D03*
X419000Y937000D02*
D03*
X418000Y948000D02*
D03*
X419000Y958000D02*
D03*
X380788Y968000D02*
D03*
X288083Y851770D02*
D03*
X296751Y897770D02*
D03*
X278788Y946000D02*
D03*
X281993Y914520D02*
D03*
X287752Y909770D02*
D03*
X278788Y937043D02*
D03*
X292751Y903770D02*
D03*
X371311Y842746D02*
D03*
X389341Y861548D02*
D03*
X310788Y925000D02*
D03*
X303752Y893770D02*
D03*
X308788Y884000D02*
D03*
X413788Y911000D02*
D03*
X407137Y904770D02*
D03*
X390752Y893995D02*
D03*
X399886Y899270D02*
D03*
X339788Y954000D02*
D03*
X306788Y958515D02*
D03*
Y968000D02*
D03*
X278788Y956000D02*
D03*
X278000Y963096D02*
D03*
X339788Y964000D02*
D03*
Y943367D02*
D03*
X376788Y928589D02*
D03*
X366152Y920770D02*
D03*
X353715Y920262D02*
D03*
X360006Y920357D02*
D03*
X336788Y933000D02*
D03*
X315072Y907770D02*
D03*
X318788Y922520D02*
D03*
X306766Y939406D02*
D03*
X309751Y913270D02*
D03*
X312788Y918000D02*
D03*
X308847Y933074D02*
D03*
X320818Y913000D02*
D03*
X309788Y946000D02*
D03*
X346911Y918592D02*
D03*
X332585Y843517D02*
D03*
X313752Y854771D02*
D03*
X312170Y868563D02*
D03*
X312752Y892770D02*
D03*
X314664Y887495D02*
D03*
X10500Y1074010D02*
D03*
X9840Y1099213D02*
D03*
Y1086116D02*
D03*
Y1061244D02*
D03*
X153876Y1020129D02*
D03*
X58000Y921000D02*
D03*
X45100Y921100D02*
D03*
X45000Y934000D02*
D03*
X58000D02*
D03*
X71000Y933100D02*
D03*
X70900Y921100D02*
D03*
X58000Y946000D02*
D03*
X70900D02*
D03*
X45100D02*
D03*
X98470Y940041D02*
D03*
X98234Y947991D02*
D03*
X92001Y952016D02*
D03*
Y928016D02*
D03*
Y920016D02*
D03*
X63991Y894216D02*
D03*
X68016Y900449D02*
D03*
X55991Y894216D02*
D03*
X60016Y900449D02*
D03*
X47991Y894216D02*
D03*
X39991D02*
D03*
X23000Y912000D02*
D03*
X17766Y936009D02*
D03*
X23998Y931984D02*
D03*
X17766Y944009D02*
D03*
X23998Y939984D02*
D03*
X17766Y952009D02*
D03*
X23998Y947984D02*
D03*
X43984Y968001D02*
D03*
X51984D02*
D03*
X56009Y974234D02*
D03*
X59948Y967958D02*
D03*
X64016Y973282D02*
D03*
X68042Y967742D02*
D03*
X413946Y1134319D02*
D03*
X381004Y1160284D02*
D03*
X216707Y208000D02*
D03*
X217006Y224114D02*
D03*
X217761Y191796D02*
D03*
X253885Y237605D02*
D03*
X217000Y264000D02*
D03*
X35000Y1178000D02*
D03*
X32698Y544507D02*
D03*
Y564507D02*
D03*
X61358Y602373D02*
D03*
X91000Y528000D02*
D03*
X32355Y421517D02*
D03*
X233062Y408829D02*
D03*
X193062Y400960D02*
D03*
X233062Y433025D02*
D03*
Y440894D02*
D03*
X177000Y166000D02*
D03*
X106774Y223997D02*
D03*
X99000Y260000D02*
D03*
X156997Y282226D02*
D03*
X196002Y674612D02*
D03*
X196812Y725559D02*
D03*
X196589Y707560D02*
D03*
X196763Y691560D02*
D03*
X196589Y658560D02*
D03*
X184589Y626560D02*
D03*
X374207Y738560D02*
D03*
X373589Y674560D02*
D03*
X252172Y593560D02*
D03*
X367589Y816560D02*
D03*
X351589Y815935D02*
D03*
X267589Y817460D02*
D03*
X234589Y817867D02*
D03*
X264659Y572560D02*
D03*
X207467Y860096D02*
D03*
X400589Y586922D02*
D03*
X373589Y689560D02*
D03*
X246206Y906547D02*
D03*
X348270Y585560D02*
D03*
X411229Y1171619D02*
D03*
X419000Y1157000D02*
D03*
X414354Y1166646D02*
D03*
X418000Y1163000D02*
D03*
X394707Y1093127D02*
D03*
X382221Y1091848D02*
D03*
X374289Y1093588D02*
D03*
X366000Y1094000D02*
D03*
X347835Y1115079D02*
D03*
X348653Y1121270D02*
D03*
X348764Y1127878D02*
D03*
X348854Y1134817D02*
D03*
X348000Y1141000D02*
D03*
X387402Y1160406D02*
D03*
X353192Y1193104D02*
D03*
X399114Y1176000D02*
D03*
X176707Y331940D02*
D03*
X149797Y310203D02*
D03*
X138000Y357000D02*
D03*
X277503Y212650D02*
D03*
X278000Y270088D02*
D03*
X225219Y292086D02*
D03*
X238981Y193176D02*
D03*
X241552Y210835D02*
D03*
X228000Y218000D02*
D03*
X235646Y209354D02*
D03*
X232000Y213000D02*
D03*
X216707Y216207D02*
D03*
X217342Y232336D02*
D03*
X255431Y264824D02*
D03*
X256934Y242559D02*
D03*
X217468Y244072D02*
D03*
X217362Y256094D02*
D03*
X225271Y259961D02*
D03*
X62846Y999485D02*
D03*
X10467Y1000577D02*
D03*
X10170Y1032184D02*
D03*
X62000Y1033000D02*
D03*
X76000Y1163000D02*
D03*
X75351Y1157078D02*
D03*
Y1151922D02*
D03*
X72743Y1138220D02*
D03*
X54798Y1177736D02*
D03*
X10140Y1157648D02*
D03*
X16188Y1151127D02*
D03*
X11087Y1144711D02*
D03*
X17000Y1138000D02*
D03*
X34962Y1120311D02*
D03*
X54630Y1119259D02*
D03*
X109551Y1062022D02*
D03*
X109771Y1074459D02*
D03*
X109330Y1087665D02*
D03*
X109660Y1100542D02*
D03*
X48119Y529214D02*
D03*
X32698Y554507D02*
D03*
X26007Y549993D02*
D03*
Y559993D02*
D03*
X26000Y570000D02*
D03*
X32540Y584507D02*
D03*
X32691Y574514D02*
D03*
X51618Y602322D02*
D03*
X68000Y604000D02*
D03*
X76600Y603000D02*
D03*
X88057Y601263D02*
D03*
X103394Y564342D02*
D03*
X59237Y394397D02*
D03*
X50000Y463000D02*
D03*
X64998Y463194D02*
D03*
X99434Y443929D02*
D03*
X101000Y435000D02*
D03*
X100651Y428099D02*
D03*
X106774Y207997D02*
D03*
X140997Y282226D02*
D03*
X257062Y360894D02*
D03*
X161062D02*
D03*
X201062Y360829D02*
D03*
X185111Y284281D02*
D03*
X153062Y376763D02*
D03*
X161062Y368960D02*
D03*
X153062Y384894D02*
D03*
Y392763D02*
D03*
Y368894D02*
D03*
X169062Y368960D02*
D03*
X153062Y360763D02*
D03*
X233062Y360829D02*
D03*
X249062Y368894D02*
D03*
X225062Y368960D02*
D03*
Y376828D02*
D03*
X217062Y368894D02*
D03*
X225062Y360829D02*
D03*
X217062Y376763D02*
D03*
Y360763D02*
D03*
X185062Y376763D02*
D03*
X193062Y368960D02*
D03*
X177062Y369025D02*
D03*
X185062Y368894D02*
D03*
X209062Y369025D02*
D03*
X185062Y360763D02*
D03*
X201062Y368960D02*
D03*
X225062Y408829D02*
D03*
X257062D02*
D03*
X217062Y408763D02*
D03*
X153062D02*
D03*
X265062Y392828D02*
D03*
X153062Y432960D02*
D03*
Y424828D02*
D03*
Y416894D02*
D03*
X265062Y408829D02*
D03*
X153062Y400894D02*
D03*
X273062Y360894D02*
D03*
Y408894D02*
D03*
X209062Y376894D02*
D03*
Y408894D02*
D03*
X193062Y376828D02*
D03*
Y408829D02*
D03*
Y392828D02*
D03*
X201062Y408829D02*
D03*
Y384960D02*
D03*
Y376828D02*
D03*
X209062Y417025D02*
D03*
Y433091D02*
D03*
Y424960D02*
D03*
X201062Y440894D02*
D03*
Y433025D02*
D03*
Y424894D02*
D03*
Y416960D02*
D03*
X161062Y400960D02*
D03*
Y416960D02*
D03*
Y408829D02*
D03*
Y424894D02*
D03*
Y384960D02*
D03*
Y376828D02*
D03*
Y392828D02*
D03*
X169062Y376828D02*
D03*
Y408829D02*
D03*
Y416960D02*
D03*
Y392828D02*
D03*
Y400960D02*
D03*
Y384960D02*
D03*
X185062Y384894D02*
D03*
X177062Y408894D02*
D03*
X185062Y392763D02*
D03*
X177062Y392894D02*
D03*
Y376894D02*
D03*
Y401025D02*
D03*
X185062Y400894D02*
D03*
X177062Y417025D02*
D03*
Y385025D02*
D03*
X273062Y472960D02*
D03*
X265062Y465025D02*
D03*
X273062Y465091D02*
D03*
X257062Y481025D02*
D03*
Y472894D02*
D03*
X273062Y481091D02*
D03*
X249062Y456828D02*
D03*
X225062Y433025D02*
D03*
Y440894D02*
D03*
Y416960D02*
D03*
X233062Y424894D02*
D03*
Y416960D02*
D03*
X225062Y424894D02*
D03*
X257062Y456894D02*
D03*
Y424894D02*
D03*
X153062Y480960D02*
D03*
X177062Y481091D02*
D03*
X193062Y481025D02*
D03*
X169062Y472894D02*
D03*
X193062D02*
D03*
X177062Y472960D02*
D03*
X217062Y416894D02*
D03*
Y424828D02*
D03*
Y480960D02*
D03*
X153062Y448960D02*
D03*
X185000Y166000D02*
D03*
X173003Y173774D02*
D03*
X169000Y166000D02*
D03*
X181003Y173774D02*
D03*
X149003D02*
D03*
X145000Y166000D02*
D03*
X137000D02*
D03*
X141003Y173774D02*
D03*
X157003D02*
D03*
X153000Y166000D02*
D03*
X161000D02*
D03*
X165003Y173774D02*
D03*
X125003D02*
D03*
X129000Y166000D02*
D03*
X133003Y173774D02*
D03*
X106774Y191997D02*
D03*
X99000Y196000D02*
D03*
Y204000D02*
D03*
X106774Y199997D02*
D03*
Y215997D02*
D03*
X99000Y220000D02*
D03*
Y212000D02*
D03*
X106774Y239997D02*
D03*
X99000Y244000D02*
D03*
Y252000D02*
D03*
X106774Y247997D02*
D03*
Y231997D02*
D03*
X99000Y236000D02*
D03*
Y228000D02*
D03*
X106774Y255997D02*
D03*
X196997Y282226D02*
D03*
X161000Y290000D02*
D03*
X169000D02*
D03*
X177000D02*
D03*
X172997Y282226D02*
D03*
X145000Y290000D02*
D03*
X148997Y282226D02*
D03*
X132997D02*
D03*
X137000Y290000D02*
D03*
X129000D02*
D03*
X124997Y282226D02*
D03*
X269864Y971475D02*
D03*
X373981Y815952D02*
D03*
X389964Y756938D02*
D03*
X394703Y737608D02*
D03*
X375589Y789560D02*
D03*
X374830Y771141D02*
D03*
X367589Y764560D02*
D03*
X343639Y812116D02*
D03*
X345410Y786095D02*
D03*
X310746Y798287D02*
D03*
X351589Y763560D02*
D03*
X338908D02*
D03*
X311483Y771184D02*
D03*
X323846Y729566D02*
D03*
X264250Y1007096D02*
D03*
X256250Y1002096D02*
D03*
X250250Y1005096D02*
D03*
X236000Y998693D02*
D03*
X250250Y995864D02*
D03*
X256250Y993823D02*
D03*
X250250Y988096D02*
D03*
X258250Y983096D02*
D03*
X242000Y993693D02*
D03*
X229000Y977693D02*
D03*
X263250Y977096D02*
D03*
X238250Y882096D02*
D03*
X235250Y869096D02*
D03*
X234156Y962188D02*
D03*
X228070Y927156D02*
D03*
X229398Y859097D02*
D03*
X216250Y1020096D02*
D03*
X215250Y1014096D02*
D03*
X213250Y1008096D02*
D03*
X209250Y1002096D02*
D03*
X204778Y994751D02*
D03*
X220885Y884651D02*
D03*
X216250Y879972D02*
D03*
X204500Y971693D02*
D03*
X205000Y958693D02*
D03*
X204500Y928693D02*
D03*
X204000Y941693D02*
D03*
X200826Y878599D02*
D03*
X292655Y800493D02*
D03*
X291175Y792062D02*
D03*
X229250Y846096D02*
D03*
X274995Y772154D02*
D03*
X293559Y770935D02*
D03*
X299846Y729566D02*
D03*
X283846D02*
D03*
X267847D02*
D03*
X260675Y817460D02*
D03*
X259964Y771184D02*
D03*
X258589Y787560D02*
D03*
X250589Y765938D02*
D03*
X239245Y751215D02*
D03*
X238211Y765528D02*
D03*
X390214Y707646D02*
D03*
X396589Y689833D02*
D03*
X374425Y724215D02*
D03*
X373589Y681060D02*
D03*
X372590Y663560D02*
D03*
X383589Y632691D02*
D03*
X363246Y643560D02*
D03*
X362590Y623560D02*
D03*
X323846Y721565D02*
D03*
Y697562D02*
D03*
Y705563D02*
D03*
X315847Y713564D02*
D03*
Y689561D02*
D03*
X331812Y643961D02*
D03*
X347164Y642071D02*
D03*
X323846Y681560D02*
D03*
Y673559D02*
D03*
X362589Y616560D02*
D03*
X314234Y618053D02*
D03*
X345344Y617283D02*
D03*
X329136Y617013D02*
D03*
X338229Y595167D02*
D03*
X318245Y594560D02*
D03*
X307847Y713564D02*
D03*
X299846D02*
D03*
X291847Y721565D02*
D03*
X283846D02*
D03*
X291847Y713564D02*
D03*
X283846Y705563D02*
D03*
X307847Y697562D02*
D03*
Y705563D02*
D03*
Y689561D02*
D03*
X299846D02*
D03*
X291847Y705563D02*
D03*
Y697562D02*
D03*
Y681560D02*
D03*
Y689561D02*
D03*
X267847Y721565D02*
D03*
Y713564D02*
D03*
X275847Y705563D02*
D03*
Y697562D02*
D03*
Y689561D02*
D03*
X267847Y705563D02*
D03*
Y681560D02*
D03*
X299846Y673559D02*
D03*
X295366Y599783D02*
D03*
X283846Y673559D02*
D03*
Y665558D02*
D03*
X267847Y673559D02*
D03*
X245654Y652093D02*
D03*
X242690Y639170D02*
D03*
X236589Y641560D02*
D03*
X268589Y600560D02*
D03*
X249175Y608215D02*
D03*
X250515Y579560D02*
D03*
X234645Y627616D02*
D03*
X239590Y572560D02*
D03*
X184736Y994977D02*
D03*
X166416Y993361D02*
D03*
X179500Y971693D02*
D03*
X193000Y958693D02*
D03*
X192500Y971693D02*
D03*
X192000Y941693D02*
D03*
X180000Y958693D02*
D03*
X179000Y941693D02*
D03*
X167500Y971693D02*
D03*
X168000Y958693D02*
D03*
X167000Y941693D02*
D03*
X137250Y994096D02*
D03*
X146250Y993718D02*
D03*
X117250Y991846D02*
D03*
X140857Y947344D02*
D03*
X135068Y962189D02*
D03*
X106250Y960096D02*
D03*
X108250Y950096D02*
D03*
X135000Y942693D02*
D03*
X108250Y943096D02*
D03*
X192500Y928693D02*
D03*
X179500D02*
D03*
X193595Y882996D02*
D03*
X192000Y905693D02*
D03*
X178333Y878383D02*
D03*
X167500Y928693D02*
D03*
X191250Y872096D02*
D03*
X195111Y839843D02*
D03*
X170138Y878096D02*
D03*
X175050Y826096D02*
D03*
X166250Y834827D02*
D03*
X140784Y927155D02*
D03*
X136000Y922193D02*
D03*
X116250Y914096D02*
D03*
X108250Y909096D02*
D03*
X129000Y907693D02*
D03*
X140250Y882096D02*
D03*
X122250D02*
D03*
X155759Y878550D02*
D03*
X116372Y889219D02*
D03*
X112250Y900096D02*
D03*
X222980Y807560D02*
D03*
X222649Y797810D02*
D03*
X224827Y777733D02*
D03*
X215245Y751199D02*
D03*
X214751Y733605D02*
D03*
X223721Y666842D02*
D03*
X214351Y699386D02*
D03*
X213827Y777577D02*
D03*
X181692Y698560D02*
D03*
X180589Y681560D02*
D03*
Y654184D02*
D03*
X212257Y648920D02*
D03*
X210589Y634560D02*
D03*
X183801Y633203D02*
D03*
X225589Y587560D02*
D03*
X231089Y573560D02*
D03*
X223589D02*
D03*
X214589Y589893D02*
D03*
X201589Y589209D02*
D03*
X188589Y762060D02*
D03*
X197722Y743560D02*
D03*
X182968Y726684D02*
D03*
X240589Y589819D02*
D03*
X294589Y592472D02*
D03*
X329589Y595196D02*
D03*
X297589Y562462D02*
D03*
X370590Y599560D02*
D03*
X321714D02*
D03*
X267847Y657557D02*
D03*
X291847D02*
D03*
X259847D02*
D03*
X331846D02*
D03*
X315847D02*
D03*
X307847D02*
D03*
X381589Y654445D02*
D03*
X283846Y657070D02*
D03*
X323846Y657557D02*
D03*
X354618Y628757D02*
D03*
X306156Y628484D02*
D03*
X307589Y600248D02*
D03*
X354464Y603560D02*
D03*
X337635Y601440D02*
D03*
X337718Y628890D02*
D03*
X382589Y626560D02*
D03*
X370971Y629030D02*
D03*
X321473Y628890D02*
D03*
X225589Y611593D02*
D03*
X258496Y619512D02*
D03*
X251847Y657557D02*
D03*
X318703Y762560D02*
D03*
X318589Y786560D02*
D03*
X301589Y786813D02*
D03*
X318589Y816560D02*
D03*
X328087Y819560D02*
D03*
X323846Y713564D02*
D03*
X339846D02*
D03*
X315847Y705563D02*
D03*
Y697562D02*
D03*
X339846D02*
D03*
X283846Y681560D02*
D03*
Y697562D02*
D03*
Y713564D02*
D03*
Y689561D02*
D03*
X299846Y705563D02*
D03*
X291847Y673559D02*
D03*
X299846Y681560D02*
D03*
Y697562D02*
D03*
X307847Y681560D02*
D03*
X323846Y665558D02*
D03*
X315847Y681560D02*
D03*
X331846Y673559D02*
D03*
X331847Y681560D02*
D03*
X339846D02*
D03*
X315847Y673559D02*
D03*
X307847Y665558D02*
D03*
X331846D02*
D03*
X307847Y673559D02*
D03*
X351589Y785560D02*
D03*
X338908Y786071D02*
D03*
X331846Y745568D02*
D03*
Y729566D02*
D03*
X339846D02*
D03*
Y745568D02*
D03*
X299846Y721565D02*
D03*
X291847Y729566D02*
D03*
X299846Y737567D02*
D03*
X307847Y745568D02*
D03*
Y721565D02*
D03*
X315847D02*
D03*
X307847Y729566D02*
D03*
X291847Y737567D02*
D03*
X299846Y745568D02*
D03*
X224680Y714116D02*
D03*
X176476Y709438D02*
D03*
X250589Y817671D02*
D03*
X214589Y613029D02*
D03*
X212320Y625479D02*
D03*
X223386Y658590D02*
D03*
X180589Y663435D02*
D03*
X395589Y816560D02*
D03*
X279179Y815560D02*
D03*
X224635Y674651D02*
D03*
X390761Y790465D02*
D03*
X214027Y642045D02*
D03*
X179589Y673560D02*
D03*
X250589Y786980D02*
D03*
X267589Y787134D02*
D03*
X281738Y786457D02*
D03*
X232820Y789583D02*
D03*
X367635Y786996D02*
D03*
X371262Y704810D02*
D03*
X381715Y709689D02*
D03*
X251847Y745568D02*
D03*
X225589Y743560D02*
D03*
X232434Y762404D02*
D03*
X259847Y745568D02*
D03*
X225054Y725763D02*
D03*
X259847Y737567D02*
D03*
X267847D02*
D03*
X259875Y729566D02*
D03*
X259818Y721593D02*
D03*
X251847Y713564D02*
D03*
Y721565D02*
D03*
X259703Y713707D02*
D03*
X267847Y697562D02*
D03*
Y665558D02*
D03*
X259847Y673559D02*
D03*
X267847Y689561D02*
D03*
X259847Y665558D02*
D03*
Y697562D02*
D03*
X251847Y665558D02*
D03*
Y697562D02*
D03*
X224947Y691763D02*
D03*
X251847Y673559D02*
D03*
Y705563D02*
D03*
X275847Y713564D02*
D03*
Y673559D02*
D03*
Y729566D02*
D03*
Y721565D02*
D03*
Y737567D02*
D03*
Y665558D02*
D03*
Y681560D02*
D03*
X382211Y757261D02*
D03*
X185214Y642045D02*
D03*
X201589Y611560D02*
D03*
X392000Y1117000D02*
D03*
X381000D02*
D03*
X370000D02*
D03*
X392000Y1128000D02*
D03*
X381000D02*
D03*
X370000D02*
D03*
X392000Y1139000D02*
D03*
X381000D02*
D03*
X370000D02*
D03*
X235393Y887735D02*
D03*
X227142Y887627D02*
D03*
X109000Y915889D02*
D03*
X222000Y1002096D02*
D03*
X204672Y883096D02*
D03*
X209828D02*
D03*
X172150Y857096D02*
D03*
X165828Y883096D02*
D03*
X160672D02*
D03*
X128672Y882096D02*
D03*
X133828D02*
D03*
X182394Y883096D02*
D03*
X187551D02*
D03*
X155250Y993096D02*
D03*
X161000Y994582D02*
D03*
X139000Y937193D02*
D03*
X134994Y932054D02*
D03*
X176000Y905693D02*
D03*
X233340Y922480D02*
D03*
X233636Y932352D02*
D03*
X228961Y937324D02*
D03*
X233934Y942669D02*
D03*
X234152Y952693D02*
D03*
X228918Y957693D02*
D03*
X229109Y967384D02*
D03*
X233000Y972693D02*
D03*
X225250Y994693D02*
D03*
X134845Y972061D02*
D03*
X139818Y967534D02*
D03*
X140412Y957216D02*
D03*
X135250Y951693D02*
D03*
D222*
X297668Y166332D02*
X317677D01*
X225271Y238729D02*
X297668Y166332D01*
X225271Y238729D02*
Y259961D01*
D224*
X201062Y384960D02*
G03*
X210226Y381164I9164J9164D01*
G01*
X251000Y375523D02*
G03*
X237382Y381164I-13618J-13618D01*
G01*
X251000Y375523D02*
G03*
X265872Y369363I14872J14872D01*
G01*
X300456D02*
G03*
X316480Y376000I0J22661D01*
G01*
D02*
G03*
X321000Y386913I-10912J10912D01*
G01*
Y474663D02*
G03*
X313561Y492623I-25400J0D01*
G01*
X291556Y514627D02*
G03*
X281000Y519000I-10556J-10556D01*
G01*
X272465Y522536D02*
G03*
X281000Y519000I8536J8536D01*
G01*
X375009Y637503D02*
G03*
X373503Y641138I-5141J0D01*
G01*
X375009Y633802D02*
G03*
X377468Y628681I8520J940D01*
G01*
X373468Y641117D02*
G03*
X371958Y643042I-8715J-5280D01*
G01*
X344431Y678444D02*
G03*
X350000Y665000I19013J0D01*
G01*
X343993Y732189D02*
G03*
X339560Y734025I-4433J-4433D01*
G01*
X301528D02*
G03*
X301091Y733952I8J-1397D01*
G01*
X298603Y733952D02*
G03*
X301091Y733952I1244J3615D01*
G01*
X298603Y733952D02*
G03*
X298165Y734025I-446J-1324D01*
G01*
X293528D02*
G03*
X293092Y733952I8J-1397D01*
G01*
X290603Y733952D02*
G03*
X293092Y733952I1244J3615D01*
G01*
X290603Y733952D02*
G03*
X290165Y734025I-446J-1324D01*
G01*
X275847Y737567D02*
G03*
X284396Y734025I8550J8550D01*
G01*
X344431Y729237D02*
G03*
X343993Y732189I-10165J0D01*
G01*
X198243Y813000D02*
G03*
X191000Y810000I0J-10243D01*
G01*
X259839Y805561D02*
G03*
X241878Y813000I-17960J-17960D01*
G01*
X275948Y783392D02*
G03*
X271663Y793736I-14629J0D01*
G01*
X275948Y783392D02*
G03*
X279724Y774276I12892J0D01*
G01*
X289000Y765000D02*
G03*
X294891Y762560I5891J5891D01*
G01*
X190032Y314586D02*
G03*
X192000Y316554I0J1969D01*
G01*
X187807Y314586D02*
G03*
X187807Y310649I0J-1969D01*
G01*
X192000Y308680D02*
G03*
X190032Y310649I-1969J0D01*
G01*
X93000Y276078D02*
G03*
X94969Y274110I1969J0D01*
G01*
X96134Y270173D02*
G03*
X96134Y274110I0J1969D01*
G01*
X90066Y270173D02*
G03*
X90066Y266236I0J-1969D01*
G01*
X93000Y264268D02*
G03*
X91032Y266236I-1969J0D01*
G01*
X149913Y344697D02*
G03*
X152697Y344697I1392J1392D01*
G01*
X145006Y349605D02*
G03*
X142222Y349605I-1392J-1392D01*
G01*
D02*
G03*
X142222Y346821I1392J-1392D01*
G01*
X153332Y332927D02*
G03*
X153332Y335711I-1392J1392D01*
G01*
X150548Y332927D02*
G03*
X153332Y332927I1392J1392D01*
G01*
X139438Y344037D02*
G03*
X136654Y344037I-1392J-1392D01*
G01*
X136654Y344037D02*
G03*
X136654Y341253I1392J-1392D01*
G01*
X148981Y326142D02*
G03*
X148982Y328926I-1392J1392D01*
G01*
X146198Y326142D02*
G03*
X148981Y326142I1392J1392D01*
G01*
X135665Y336675D02*
G03*
X132881Y336675I-1392J-1392D01*
G01*
X132881Y336675D02*
G03*
X132881Y333891I1392J-1392D01*
G01*
X135994Y327994D02*
G03*
X135994Y330778I-1392J1392D01*
G01*
X155245Y320622D02*
G03*
X157213Y322591I0J1969D01*
G01*
X150155Y320622D02*
G03*
X150155Y316686I0J-1969D01*
G01*
X157213Y314717D02*
G03*
X155245Y316686I-1969J0D01*
G01*
X132679Y266967D02*
G03*
X135463Y266967I1392J1392D01*
G01*
X126482Y273163D02*
G03*
X123698Y273163I-1392J-1392D01*
G01*
D02*
G03*
X123698Y270380I1392J-1392D01*
G01*
X132635Y258659D02*
G03*
X132635Y261443I-1392J1392D01*
G01*
X129851Y258659D02*
G03*
X132635Y258659I1392J1392D01*
G01*
X120914Y267596D02*
G03*
X118131Y267596I-1392J-1392D01*
G01*
X118131Y267596D02*
G03*
X118131Y264812I1392J-1392D01*
G01*
X127067Y253092D02*
G03*
X127067Y255875I-1392J1392D01*
G01*
X124283Y253092D02*
G03*
X127067Y253092I1392J1392D01*
G01*
X115347Y262028D02*
G03*
X112563Y262028I-1392J-1392D01*
G01*
X112563Y262028D02*
G03*
X112563Y259244I1392J-1392D01*
G01*
X118759Y250264D02*
G03*
X118759Y253048I-1392J1392D01*
G01*
X127031Y333100D02*
G03*
X129000Y335069I0J1969D01*
G01*
X126790Y333100D02*
G03*
X126790Y329163I0J-1969D01*
G01*
X128550Y325226D02*
G03*
X128550Y329163I0J1969D01*
G01*
X115947Y325226D02*
G03*
X115947Y321289I0J-1969D01*
G01*
X128128Y317352D02*
G03*
X128128Y321289I0J1969D01*
G01*
X115947Y317352D02*
G03*
X115947Y313415I0J-1969D01*
G01*
X127039Y309478D02*
G03*
X127039Y313415I0J1969D01*
G01*
X115947Y309478D02*
G03*
X115947Y305541I0J-1969D01*
G01*
X127039Y301604D02*
G03*
X127039Y305541I0J1969D01*
G01*
X115947Y301604D02*
G03*
X115947Y297667I0J-1969D01*
G01*
X129000Y295699D02*
G03*
X127031Y297667I-1969J0D01*
G01*
X196885Y343258D02*
G03*
X198853Y341289I1969J0D01*
G01*
X200493Y337352D02*
G03*
X200493Y341289I0J1969D01*
G01*
X196458Y337352D02*
G03*
X196458Y333415I0J-1969D01*
G01*
X207616Y329478D02*
G03*
X207616Y333415I0J1969D01*
G01*
X196458Y329478D02*
G03*
X196458Y325541I0J-1969D01*
G01*
X207616Y321604D02*
G03*
X207616Y325541I0J1969D01*
G01*
X198853Y321604D02*
G03*
X196885Y319636I0J-1969D01*
G01*
X173309Y321093D02*
G03*
X176093Y321093I1392J1392D01*
G01*
X167551Y326850D02*
G03*
X164767Y326850I-1392J-1392D01*
G01*
D02*
G03*
X164767Y324066I1392J-1392D01*
G01*
X179505Y306544D02*
G03*
X179505Y309328I-1392J1392D01*
G01*
X176721Y306544D02*
G03*
X179505Y306544I1392J1392D01*
G01*
X163878Y319388D02*
G03*
X161094Y319388I-1392J-1392D01*
G01*
D02*
G03*
X161094Y316604I1392J-1392D01*
G01*
X173937Y300977D02*
G03*
X173937Y303761I-1392J1392D01*
G01*
X171153Y300977D02*
G03*
X173937Y300977I1392J1392D01*
G01*
X161717Y310413D02*
G03*
X158933Y310413I-1392J-1392D01*
G01*
X158933Y310413D02*
G03*
X158933Y307629I1392J-1392D01*
G01*
X164634Y299144D02*
G03*
X164634Y301928I-1392J1392D01*
G01*
X161850Y299144D02*
G03*
X164634Y299144I1392J1392D01*
G01*
X156149Y304845D02*
G03*
X153365Y304845I-1392J-1392D01*
G01*
X153365Y304845D02*
G03*
X153365Y302061I1392J-1392D01*
G01*
X153821Y298822D02*
G03*
X153821Y301605I-1392J1392D01*
G01*
X180885Y336012D02*
G03*
X178916Y337981I-1969J0D01*
G01*
X172558Y341918D02*
G03*
X172558Y337981I0J-1969D01*
G01*
X184427Y341918D02*
G03*
X184427Y345855I0J1969D01*
G01*
X180885Y347823D02*
G03*
X182853Y345855I1969J0D01*
G01*
X132997Y322298D02*
G03*
X134965Y320329I1969J0D01*
G01*
X143728Y316392D02*
G03*
X143728Y320329I0J1969D01*
G01*
X133458Y316392D02*
G03*
X133458Y312455I0J-1969D01*
G01*
X143728Y308518D02*
G03*
X143728Y312455I0J1969D01*
G01*
X133458Y308518D02*
G03*
X133458Y304581I0J-1969D01*
G01*
X140155Y300644D02*
G03*
X140155Y304581I0J1969D01*
G01*
X134965Y300644D02*
G03*
X132997Y298676I0J-1969D01*
G01*
X377468Y628681D02*
G03*
X382589Y626560I5121J5121D01*
G01*
X57000Y168000D02*
X84182D01*
X85000Y168818D01*
Y219182D01*
X85818Y220000D01*
X92000D01*
X266410Y430590D02*
X279000Y418000D01*
X245590Y430590D02*
X266410D01*
X235848Y420848D02*
X245590Y430590D01*
X199702Y420848D02*
X235848D01*
X265062Y392828D02*
X273829D01*
X279000Y398000D01*
Y418000D01*
X367777Y544139D02*
X368000Y543915D01*
Y532000D02*
Y543915D01*
X366000Y530000D02*
X368000Y532000D01*
X366000Y407950D02*
Y530000D01*
X357892Y399843D02*
X366000Y407950D01*
X357892Y385440D02*
Y399843D01*
X344038Y371586D02*
X357892Y385440D01*
X334000Y371586D02*
X344038D01*
X210226Y381164D02*
X237382D01*
X265872Y369363D02*
X300456D01*
X321000Y386913D02*
Y474663D01*
X291556Y514627D02*
X313561Y492623D01*
X257000Y538000D02*
X272464Y522536D01*
X192810Y427740D02*
Y443921D01*
Y427740D02*
X199702Y420848D01*
X16021Y733248D02*
Y741127D01*
Y733248D02*
X52966Y696303D01*
X157743Y456190D02*
X180540D01*
X141810Y561540D02*
Y624460D01*
X137191Y476743D02*
Y556921D01*
X180540Y456190D02*
X192810Y443921D01*
X128809Y637460D02*
X141810Y624460D01*
X93428Y696303D02*
X128809Y660921D01*
X52966Y696303D02*
X93428D01*
X137191Y556921D02*
X141810Y561540D01*
X128809Y637460D02*
Y660921D01*
X137191Y476743D02*
X157743Y456190D01*
X366500Y1101377D02*
X374289Y1093588D01*
X366500Y1101377D02*
Y1103988D01*
X362488Y1108000D02*
X366500Y1103988D01*
X328788Y1108000D02*
X362488D01*
X375009Y633802D02*
Y637503D01*
X350000Y665000D02*
X371958Y643042D01*
X344431Y678444D02*
Y729237D01*
X301528Y734025D02*
X339560D01*
X293528D02*
X298165D01*
X284396D02*
X290165D01*
X198243Y813000D02*
X241878D01*
X259839Y805561D02*
X271663Y793736D01*
X279724Y774276D02*
X289000Y765000D01*
X294891Y762560D02*
X318703D01*
X192000Y316554D02*
Y330000D01*
X187807Y314586D02*
X190032D01*
X187807Y310649D02*
X190032D01*
X192000Y307982D02*
Y308680D01*
Y330000D02*
Y341002D01*
Y304000D02*
Y307982D01*
X93000Y276078D02*
Y306752D01*
X94969Y274110D02*
X96134D01*
X90066Y270173D02*
X96134D01*
X90066Y266236D02*
X91032D01*
X93000Y263569D02*
Y264268D01*
Y306752D02*
Y315000D01*
Y242000D02*
Y263569D01*
X156885Y348885D02*
Y348971D01*
X152697Y344697D02*
X156885Y348885D01*
X145006Y349605D02*
X149913Y344697D01*
X142222Y346821D02*
X153332Y335711D01*
X139438Y344037D02*
X150548Y332927D01*
X136654Y344037D02*
X136654Y344037D01*
Y341253D02*
X148981Y328926D01*
X135665Y336675D02*
X146198Y326142D01*
X132881Y336675D02*
X132881Y336675D01*
Y333891D02*
X135994Y330778D01*
X135994Y330778D02*
X135994Y330778D01*
X135500Y327500D02*
X135994Y327994D01*
X156885Y348971D02*
Y372651D01*
X157213Y322591D02*
Y335624D01*
X150155Y320622D02*
X155245D01*
X150155Y316686D02*
X155245D01*
X157213Y314018D02*
Y314717D01*
Y335624D02*
Y336792D01*
Y312213D02*
Y314018D01*
X137174Y268678D02*
Y270826D01*
X135463Y266967D02*
X137174Y268678D01*
X126482Y273163D02*
X132679Y266967D01*
X123698Y270380D02*
X132635Y261443D01*
X120914Y267596D02*
X129851Y258659D01*
X118131Y267596D02*
X118131Y267596D01*
Y264812D02*
X127067Y255875D01*
X115347Y262028D02*
X124283Y253092D01*
X112563Y262028D02*
X112563Y262028D01*
Y259244D02*
X118759Y253048D01*
X118759Y253048D02*
X118759Y253048D01*
X118265Y249770D02*
X118759Y250264D01*
X137174Y270826D02*
Y283810D01*
X116493Y247997D02*
X118265Y249770D01*
X129000Y335069D02*
Y344000D01*
X126790Y333100D02*
X127031D01*
X126790Y329163D02*
X128550D01*
X115947Y325226D02*
X128550D01*
X115947Y321289D02*
X128128D01*
X115947Y317352D02*
X128128D01*
X115947Y313415D02*
X127039D01*
X115947Y309478D02*
X127039D01*
X115947Y305541D02*
X127039D01*
X115947Y301604D02*
X127039D01*
X115947Y297667D02*
X127031D01*
X129000Y295000D02*
Y295699D01*
Y344000D02*
Y375000D01*
Y290000D02*
Y295000D01*
X196885Y343258D02*
Y351836D01*
X198853Y341289D02*
X200493D01*
X196458Y337352D02*
X200493D01*
X196458Y333415D02*
X207616D01*
X196458Y329478D02*
X207616D01*
X196458Y325541D02*
X207616D01*
X198853Y321604D02*
X207616D01*
X196885Y315000D02*
Y319636D01*
Y351836D02*
Y395557D01*
Y308115D02*
Y315000D01*
X176093Y321093D02*
X179500Y324500D01*
X167551Y326850D02*
X173309Y321093D01*
X164767Y324066D02*
X179505Y309328D01*
Y306544D02*
X179505Y306544D01*
X163878Y319388D02*
X176721Y306544D01*
X161094Y316604D02*
X173937Y303761D01*
X161717Y310413D02*
X171153Y300977D01*
X158933Y310413D02*
X158933Y310413D01*
Y307629D02*
X164634Y301928D01*
X156149Y304845D02*
X161850Y299144D01*
X153365Y304845D02*
X153365Y304845D01*
Y302061D02*
X153821Y301605D01*
X153821Y301605D02*
X153821Y301605D01*
X153328Y298328D02*
X153821Y298822D01*
X180885Y329795D02*
Y336012D01*
X172558Y337981D02*
X178916D01*
X172558Y341918D02*
X184427D01*
X182853Y345855D02*
X184427D01*
X180885Y347823D02*
Y348522D01*
Y325885D02*
Y329795D01*
Y348522D02*
Y381203D01*
X179500Y324500D02*
X180885Y325885D01*
X145000Y290000D02*
X153328Y298328D01*
X172885Y352464D02*
Y373006D01*
X157213Y336792D02*
X172885Y352464D01*
X188885Y344117D02*
X192000Y341002D01*
X183263Y295263D02*
X192000Y304000D01*
X159107Y295263D02*
X183263D01*
X188885Y344117D02*
Y388651D01*
X152847Y291483D02*
X155327D01*
X159107Y295263D01*
X134000Y326000D02*
X135500Y327500D01*
X132997Y324997D02*
X134000Y326000D01*
X132997Y322298D02*
Y324997D01*
X134965Y320329D02*
X143728D01*
X133458Y316392D02*
X143728D01*
X133458Y312455D02*
X143728D01*
X133458Y308518D02*
X143728D01*
X133458Y304581D02*
X140155D01*
X134965Y300644D02*
X140155D01*
X132997Y294040D02*
Y298676D01*
Y282226D02*
Y294040D01*
X99000Y212000D02*
X102350Y215350D01*
Y216979D01*
X105190Y219820D01*
X115227D01*
X117698Y222291D01*
Y240203D01*
X173239Y396717D02*
X177062Y392894D01*
X173239Y396717D02*
Y402189D01*
X170645Y404782D02*
X173239Y402189D01*
X136783Y404782D02*
X170645D01*
X122000Y390000D02*
X136783Y404782D01*
X122000Y344000D02*
Y390000D01*
X93000Y315000D02*
X122000Y344000D01*
X93000Y242000D02*
X99000Y236000D01*
X117698Y240203D02*
X144819Y267324D01*
Y283455D01*
X152847Y291483D01*
X188885Y388651D02*
X193062Y392828D01*
X106774Y247997D02*
X116493D01*
X137174Y283810D02*
X140823Y287458D01*
Y295823D01*
X157213Y312213D01*
X169062Y376828D02*
X172885Y373006D01*
X165174Y397071D02*
X169062Y400960D01*
X151071Y397071D02*
X165174D01*
X129000Y375000D02*
X151071Y397071D01*
X156885Y372651D02*
X161062Y376828D01*
X177062Y385025D02*
X180885Y381203D01*
X148997Y282226D02*
X157145Y274078D01*
X205182D01*
X206000Y274896D01*
Y299000D01*
X196885Y308115D02*
X206000Y299000D01*
X185062Y392763D02*
X189162Y396862D01*
X195579D01*
X196885Y395557D01*
D225*
X397250Y1251000D02*
D03*
X313750D02*
D03*
D226*
X377750Y1221000D02*
D03*
X333250D02*
D03*
D227*
X378000Y504200D02*
D03*
X403400D02*
D03*
X378000Y478800D02*
D03*
Y453400D02*
D03*
Y428000D02*
D03*
Y402600D02*
D03*
X403400Y478800D02*
D03*
Y453400D02*
D03*
Y428000D02*
D03*
D228*
Y402600D02*
D03*
D229*
X57000Y575500D02*
D03*
X68000D02*
D03*
X79000D02*
D03*
X57000Y564500D02*
D03*
X68000D02*
D03*
X79000D02*
D03*
X57000Y553500D02*
D03*
X68000D02*
D03*
X79000D02*
D03*
X368507Y897495D02*
D03*
X357506Y886495D02*
D03*
Y897495D02*
D03*
X346506Y886495D02*
D03*
X368507D02*
D03*
Y875495D02*
D03*
X346506D02*
D03*
X357506D02*
D03*
X335507Y897495D02*
D03*
X346506D02*
D03*
X335507Y864495D02*
D03*
Y886495D02*
D03*
Y875495D02*
D03*
X368507Y864495D02*
D03*
X357506D02*
D03*
X346506D02*
D03*
X139000Y206000D02*
D03*
Y217000D02*
D03*
Y228000D02*
D03*
Y239000D02*
D03*
Y250000D02*
D03*
X150000Y206000D02*
D03*
Y217000D02*
D03*
Y228000D02*
D03*
Y239000D02*
D03*
Y250000D02*
D03*
X161000Y206000D02*
D03*
Y217000D02*
D03*
Y228000D02*
D03*
Y239000D02*
D03*
Y250000D02*
D03*
X172000Y206000D02*
D03*
Y217000D02*
D03*
Y228000D02*
D03*
Y239000D02*
D03*
Y250000D02*
D03*
X183000Y206000D02*
D03*
Y217000D02*
D03*
Y228000D02*
D03*
Y239000D02*
D03*
Y250000D02*
D03*
X76783Y417000D02*
D03*
X65783D02*
D03*
X54783D02*
D03*
X76783Y428000D02*
D03*
X65783D02*
D03*
X54783D02*
D03*
X76783Y439000D02*
D03*
X65783D02*
D03*
X54783D02*
D03*
X331070Y433669D02*
D03*
X342070D02*
D03*
X275000Y252588D02*
D03*
Y240088D02*
D03*
Y227588D02*
D03*
D230*
X57000Y1233000D02*
D03*
X286869Y300762D02*
D03*
M02*
