G04*
G04 #@! TF.GenerationSoftware,Altium Limited,Altium Designer,24.1.2 (44)*
G04*
G04 Layer_Color=128*
%FSLAX25Y25*%
%MOIN*%
G70*
G04*
G04 #@! TF.SameCoordinates,59DD8EBB-DCD7-4209-94D2-A0ED0100978B*
G04*
G04*
G04 #@! TF.FilePolarity,Positive*
G04*
G01*
G75*
%ADD146C,0.00200*%
D146*
X2941Y-195297D02*
X6878D01*
X4909Y-197265D02*
Y-193328D01*
X12941Y-195297D02*
X16878D01*
X14909Y-197265D02*
Y-193328D01*
X22941Y-195297D02*
X26878D01*
X24909Y-197265D02*
Y-193328D01*
X32941Y-195297D02*
X36878D01*
X34909Y-197265D02*
Y-193328D01*
X42941Y-195297D02*
X46878D01*
X44909Y-197265D02*
Y-193328D01*
X52941Y-195297D02*
X56878D01*
X54909Y-197265D02*
Y-193328D01*
X62941Y-195297D02*
X66878D01*
X64909Y-197265D02*
Y-193328D01*
X72941Y-195297D02*
X76878D01*
X74909Y-197265D02*
Y-193328D01*
X82941Y-195297D02*
X86878D01*
X84909Y-197265D02*
Y-193328D01*
X92941Y-195297D02*
X96878D01*
X94909Y-197265D02*
Y-193328D01*
X102941Y-195297D02*
X106878D01*
X104909Y-197265D02*
Y-193328D01*
X112941Y-195297D02*
X116878D01*
X114909Y-197265D02*
Y-193328D01*
X122941Y-195297D02*
X126878D01*
X124909Y-197265D02*
Y-193328D01*
X132941Y-195297D02*
X136878D01*
X134909Y-197265D02*
Y-193328D01*
X142941Y-195297D02*
X146878D01*
X144909Y-197265D02*
Y-193328D01*
X152941Y-195297D02*
X156878D01*
X154909Y-197265D02*
Y-193328D01*
X162941Y-195297D02*
X166878D01*
X164909Y-197265D02*
Y-193328D01*
X172941Y-195297D02*
X176878D01*
X174909Y-197265D02*
Y-193328D01*
X182941Y-195297D02*
X186878D01*
X184909Y-197265D02*
Y-193328D01*
X192941Y-195297D02*
X196878D01*
X194909Y-197265D02*
Y-193328D01*
X2941Y-185297D02*
X6878D01*
X4909Y-187265D02*
Y-183328D01*
X12941Y-185297D02*
X16878D01*
X14909Y-187265D02*
Y-183328D01*
X22941Y-185297D02*
X26878D01*
X24909Y-187265D02*
Y-183328D01*
X32941Y-185297D02*
X36878D01*
X34909Y-187265D02*
Y-183328D01*
X42941Y-185297D02*
X46878D01*
X44909Y-187265D02*
Y-183328D01*
X52941Y-185297D02*
X56878D01*
X54909Y-187265D02*
Y-183328D01*
X62941Y-185297D02*
X66878D01*
X64909Y-187265D02*
Y-183328D01*
X72941Y-185297D02*
X76878D01*
X74909Y-187265D02*
Y-183328D01*
X82941Y-185297D02*
X86878D01*
X84909Y-187265D02*
Y-183328D01*
X92941Y-185297D02*
X96878D01*
X94909Y-187265D02*
Y-183328D01*
X102941Y-185297D02*
X106878D01*
X104909Y-187265D02*
Y-183328D01*
X112941Y-185297D02*
X116878D01*
X114909Y-187265D02*
Y-183328D01*
X122941Y-185297D02*
X126878D01*
X124909Y-187265D02*
Y-183328D01*
X132941Y-185297D02*
X136878D01*
X134909Y-187265D02*
Y-183328D01*
X142941Y-185297D02*
X146878D01*
X144909Y-187265D02*
Y-183328D01*
X152941Y-185297D02*
X156878D01*
X154909Y-187265D02*
Y-183328D01*
X162941Y-185297D02*
X166878D01*
X164909Y-187265D02*
Y-183328D01*
X172941Y-185297D02*
X176878D01*
X174909Y-187265D02*
Y-183328D01*
X182941Y-185297D02*
X186878D01*
X184909Y-187265D02*
Y-183328D01*
X192941Y-185297D02*
X196878D01*
X194909Y-187265D02*
Y-183328D01*
X136573Y-339042D02*
X140077D01*
X138325Y-340794D02*
Y-337290D01*
X146573Y-351042D02*
X150077D01*
X148325Y-352794D02*
Y-349290D01*
X146573Y-343042D02*
X150077D01*
X148325Y-344794D02*
Y-341290D01*
X146573Y-335042D02*
X150077D01*
X148325Y-336794D02*
Y-333290D01*
X146573Y-327042D02*
X150077D01*
X148325Y-328794D02*
Y-325290D01*
X146573Y-319042D02*
X150077D01*
X148325Y-320794D02*
Y-317290D01*
X136573Y-355042D02*
X140077D01*
X138325Y-356794D02*
Y-353290D01*
X136573Y-347042D02*
X140077D01*
X138325Y-348794D02*
Y-345290D01*
X136573Y-323042D02*
X140077D01*
X138325Y-324794D02*
Y-321290D01*
X136573Y-315042D02*
X140077D01*
X138325Y-316794D02*
Y-313290D01*
X146573Y-311042D02*
X150077D01*
X148325Y-312794D02*
Y-309290D01*
X136573Y-307042D02*
X140077D01*
X138325Y-308794D02*
Y-305290D01*
X171235Y-296442D02*
X177416D01*
X174325Y-299532D02*
Y-293351D01*
X171235Y-365642D02*
X177416D01*
X174325Y-368732D02*
Y-362551D01*
X206825Y-301442D02*
X211825D01*
X209325Y-303942D02*
Y-298942D01*
X196825Y-301442D02*
X201825D01*
X199325Y-303942D02*
Y-298942D01*
X196825Y-360642D02*
X201825D01*
X199325Y-363142D02*
Y-358142D01*
X206825Y-360642D02*
X211825D01*
X209325Y-363142D02*
Y-358142D01*
X186825Y-360642D02*
X191825D01*
X189325Y-363142D02*
Y-358142D01*
X167928Y-312042D02*
X180723D01*
X174325Y-318439D02*
Y-305644D01*
X167928Y-350042D02*
X180723D01*
X174325Y-356439D02*
Y-343644D01*
X-1728Y-227621D02*
X4335D01*
X1304Y-230652D02*
Y-224589D01*
X-1728Y-247621D02*
X4335D01*
X1304Y-250652D02*
Y-244589D01*
X-21728Y-247621D02*
X-15665D01*
X-18696Y-250652D02*
Y-244589D01*
X-21728Y-227621D02*
X-15665D01*
X-18696Y-230652D02*
Y-224589D01*
X-11728Y-237621D02*
X-5665D01*
X-8696Y-240652D02*
Y-234589D01*
X-1728Y-327289D02*
X4335D01*
X1304Y-330321D02*
Y-324258D01*
X-1728Y-347289D02*
X4335D01*
X1304Y-350321D02*
Y-344258D01*
X-21728Y-347289D02*
X-15665D01*
X-18696Y-350321D02*
Y-344258D01*
X-21728Y-327289D02*
X-15665D01*
X-18696Y-330321D02*
Y-324258D01*
X-11728Y-337289D02*
X-5665D01*
X-8696Y-340321D02*
Y-334258D01*
X209161Y-190297D02*
X219004D01*
X214083Y-195218D02*
Y-185375D01*
X-19185Y-190297D02*
X-9343D01*
X-14264Y-195218D02*
Y-185375D01*
X209161Y-383210D02*
X219004D01*
X214083Y-388131D02*
Y-378289D01*
X-19185Y-383210D02*
X-9343D01*
X-14264Y-388131D02*
Y-378289D01*
X202579Y-244264D02*
X219115D01*
X210847Y-252531D02*
Y-235996D01*
X48544Y-204893D02*
X54843D01*
X51694Y-208043D02*
Y-201744D01*
X49528Y-283634D02*
X53859D01*
X51694Y-285799D02*
Y-281468D01*
X102666Y-378481D02*
X103666D01*
X103166Y-378981D02*
Y-377981D01*
X-2252Y-370384D02*
X-1252D01*
X-1752Y-370884D02*
Y-369884D01*
X21939Y-363340D02*
X22939D01*
X22439Y-363840D02*
Y-362840D01*
X3188Y-367440D02*
X4188D01*
X3688Y-367940D02*
Y-366940D01*
X40849Y-363340D02*
X41849D01*
X41349Y-363840D02*
Y-362840D01*
X28105Y-371302D02*
X29105D01*
X28605Y-371802D02*
Y-370802D01*
X36951Y-371302D02*
X37951D01*
X37451Y-371802D02*
Y-370802D01*
X-5398Y-370228D02*
X-4398D01*
X-4898Y-370727D02*
Y-369727D01*
X66417Y-369593D02*
X67417D01*
X66917Y-370093D02*
Y-369093D01*
X76354Y-377473D02*
X77354D01*
X76854Y-377973D02*
Y-376973D01*
X61442Y-394938D02*
X62442D01*
X61942Y-395438D02*
Y-394438D01*
X-5161Y-384954D02*
X-4161D01*
X-4661Y-385454D02*
Y-384454D01*
X-11435Y-372472D02*
X-10435D01*
X-10935Y-372972D02*
Y-371972D01*
X28043Y-394549D02*
X29043D01*
X28543Y-395049D02*
Y-394049D01*
X35345Y-391313D02*
X36345D01*
X35845Y-391813D02*
Y-390813D01*
X67205Y-392821D02*
X68205D01*
X67705Y-393321D02*
Y-392321D01*
X69469Y-394590D02*
X70469D01*
X69969Y-395090D02*
Y-394090D01*
X51264Y-372527D02*
X52264D01*
X51764Y-373027D02*
Y-372027D01*
X61554Y-364334D02*
X62554D01*
X62054Y-364834D02*
Y-363834D01*
X69510Y-373006D02*
X70510D01*
X70010Y-373506D02*
Y-372506D01*
X72323Y-372806D02*
X73323D01*
X72823Y-373306D02*
Y-372306D01*
X116923Y-383547D02*
X117923D01*
X117423Y-384047D02*
Y-383047D01*
X114276Y-385452D02*
X115276D01*
X114776Y-385951D02*
Y-384951D01*
X89905Y-372550D02*
X90905D01*
X90405Y-373050D02*
Y-372050D01*
X99824Y-372550D02*
X100824D01*
X100324Y-373050D02*
Y-372050D01*
X89379Y-380774D02*
X90379D01*
X89879Y-381274D02*
Y-380274D01*
X119926Y-384063D02*
X120926D01*
X120426Y-384563D02*
Y-383563D01*
X118184Y-378194D02*
X119184D01*
X118684Y-378694D02*
Y-377694D01*
X88816Y-387376D02*
X89816D01*
X89316Y-387876D02*
Y-386876D01*
X95668Y-391313D02*
X96668D01*
X96168Y-391813D02*
Y-390813D01*
X133536Y-391217D02*
X134536D01*
X134036Y-391717D02*
Y-390717D01*
X124218Y-358115D02*
X125218D01*
X124718Y-358615D02*
Y-357615D01*
X126058Y-360217D02*
X127058D01*
X126558Y-360717D02*
Y-359717D01*
X125896Y-369464D02*
X126896D01*
X126396Y-369964D02*
Y-368964D01*
X130898Y-359503D02*
X131898D01*
X131398Y-360003D02*
Y-359003D01*
X94712Y-372550D02*
X95711D01*
X95211Y-373050D02*
Y-372050D01*
X83404Y-372868D02*
X84404D01*
X83904Y-373368D02*
Y-372368D01*
X107591Y-368150D02*
X108591D01*
X108091Y-368650D02*
Y-367650D01*
X131940Y-375710D02*
X132940D01*
X132440Y-376210D02*
Y-375210D01*
X112539Y-378580D02*
X113539D01*
X113039Y-379080D02*
Y-378080D01*
X98003Y-364822D02*
X99003D01*
X98503Y-365322D02*
Y-364322D01*
X103387Y-367099D02*
X104387D01*
X103887Y-367599D02*
Y-366599D01*
X224241Y-378096D02*
X225241D01*
X224741Y-378595D02*
Y-377595D01*
X224241Y-373795D02*
X225241D01*
X224741Y-374295D02*
Y-373295D01*
X224241Y-369586D02*
X225241D01*
X224741Y-370087D02*
Y-369087D01*
X224241Y-293933D02*
X225241D01*
X224741Y-294433D02*
Y-293433D01*
X224241Y-290505D02*
X225241D01*
X224741Y-291005D02*
Y-290005D01*
X224241Y-281632D02*
X225241D01*
X224741Y-282133D02*
Y-281133D01*
X224241Y-277138D02*
X225241D01*
X224741Y-277638D02*
Y-276638D01*
X224241Y-268907D02*
X225241D01*
X224741Y-269407D02*
Y-268407D01*
X224241Y-285433D02*
X225241D01*
X224741Y-285933D02*
Y-284933D01*
X224241Y-194829D02*
X225241D01*
X224741Y-195329D02*
Y-194329D01*
X224241Y-272883D02*
X225241D01*
X224741Y-273382D02*
Y-272382D01*
X224241Y-263386D02*
X225241D01*
X224741Y-263886D02*
Y-262886D01*
X224241Y-256953D02*
X225241D01*
X224741Y-257453D02*
Y-256453D01*
X224241Y-250896D02*
X225241D01*
X224741Y-251396D02*
Y-250396D01*
X224241Y-240158D02*
X225241D01*
X224741Y-240657D02*
Y-239657D01*
X224241Y-235762D02*
X225241D01*
X224741Y-236262D02*
Y-235262D01*
X224241Y-230851D02*
X225241D01*
X224741Y-231350D02*
Y-230350D01*
X224241Y-224964D02*
X225241D01*
X224741Y-225464D02*
Y-224464D01*
X224241Y-220106D02*
X225241D01*
X224741Y-220606D02*
Y-219606D01*
X224241Y-215507D02*
X225241D01*
X224741Y-216007D02*
Y-215007D01*
X224241Y-209815D02*
X225241D01*
X224741Y-210315D02*
Y-209315D01*
X224241Y-204008D02*
X225241D01*
X224741Y-204508D02*
Y-203508D01*
X224241Y-199016D02*
X225241D01*
X224741Y-199516D02*
Y-198516D01*
X135163Y-176836D02*
X136163D01*
X135663Y-177336D02*
Y-176336D01*
X13599Y-176832D02*
X14599D01*
X14099Y-177332D02*
Y-176332D01*
X128986Y-176832D02*
X129986D01*
X129486Y-177332D02*
Y-176332D01*
X123029Y-176832D02*
X124029D01*
X123529Y-177332D02*
Y-176332D01*
X115459Y-176832D02*
X116459D01*
X115959Y-177332D02*
Y-176332D01*
X108881Y-176832D02*
X109881D01*
X109381Y-177332D02*
Y-176332D01*
X102629Y-176832D02*
X103629D01*
X103129Y-177332D02*
Y-176332D01*
X96791Y-176832D02*
X97791D01*
X97291Y-177332D02*
Y-176332D01*
X89698Y-176832D02*
X90698D01*
X90198Y-177332D02*
Y-176332D01*
X83084Y-176832D02*
X84084D01*
X83584Y-177332D02*
Y-176332D01*
X76870Y-176832D02*
X77870D01*
X77370Y-177332D02*
Y-176332D01*
X70818Y-176832D02*
X71818D01*
X71318Y-177332D02*
Y-176332D01*
X64372Y-176832D02*
X65373D01*
X64872Y-177332D02*
Y-176332D01*
X57960Y-176832D02*
X58960D01*
X58460Y-177332D02*
Y-176332D01*
X49844Y-176832D02*
X50844D01*
X50344Y-177332D02*
Y-176332D01*
X42045Y-176832D02*
X43045D01*
X42545Y-177332D02*
Y-176332D01*
X33720Y-176832D02*
X34720D01*
X34220Y-177332D02*
Y-176332D01*
X27029Y-176832D02*
X28029D01*
X27529Y-177332D02*
Y-176332D01*
X20572Y-176832D02*
X21572D01*
X21072Y-177332D02*
Y-176332D01*
X8659Y-177352D02*
X9659D01*
X9159Y-177852D02*
Y-176852D01*
X2252Y-177482D02*
X3252D01*
X2752Y-177982D02*
Y-176982D01*
X224241Y-189545D02*
X225241D01*
X224741Y-190045D02*
Y-189045D01*
X221457Y-177486D02*
X222457D01*
X221957Y-177986D02*
Y-176986D01*
X224241Y-183139D02*
X225241D01*
X224741Y-183639D02*
Y-182639D01*
X215248Y-176836D02*
X216248D01*
X215748Y-177336D02*
Y-176336D01*
X208015Y-176836D02*
X209015D01*
X208515Y-177336D02*
Y-176336D01*
X201300Y-176836D02*
X202300D01*
X201800Y-177336D02*
Y-176336D01*
X194961Y-176836D02*
X195961D01*
X195461Y-177336D02*
Y-176336D01*
X185936Y-176836D02*
X186936D01*
X186436Y-177336D02*
Y-176336D01*
X175927Y-176836D02*
X176927D01*
X176427Y-177336D02*
Y-176336D01*
X165398Y-176836D02*
X166398D01*
X165898Y-177336D02*
Y-176336D01*
X156156Y-176832D02*
X157156D01*
X156656Y-177332D02*
Y-176332D01*
X149862Y-176836D02*
X150862D01*
X150362Y-177336D02*
Y-176336D01*
X142677Y-176832D02*
X143677D01*
X143177Y-177332D02*
Y-176332D01*
X-16885Y-177352D02*
X-15885D01*
X-16385Y-177852D02*
Y-176852D01*
X-25794Y-187208D02*
X-24794D01*
X-25294Y-187708D02*
Y-186708D01*
X-4576Y-177482D02*
X-3576D01*
X-4076Y-177982D02*
Y-176982D01*
X-10875Y-177352D02*
X-9875D01*
X-10375Y-177852D02*
Y-176852D01*
X-22638Y-177987D02*
X-21638D01*
X-22138Y-178487D02*
Y-177487D01*
X-25794Y-181822D02*
X-24794D01*
X-25294Y-182322D02*
Y-181322D01*
X-25794Y-191988D02*
X-24794D01*
X-25294Y-192488D02*
Y-191488D01*
X-25794Y-196297D02*
X-24794D01*
X-25294Y-196797D02*
Y-195797D01*
X-25794Y-201244D02*
X-24794D01*
X-25294Y-201744D02*
Y-200744D01*
X-25416Y-206847D02*
X-24416D01*
X-24916Y-207347D02*
Y-206347D01*
X-25416Y-217619D02*
X-24416D01*
X-24916Y-218119D02*
Y-217119D01*
X-25794Y-223594D02*
X-24794D01*
X-25294Y-224094D02*
Y-223094D01*
X-25794Y-229184D02*
X-24794D01*
X-25294Y-229684D02*
Y-228684D01*
X-25794Y-337341D02*
X-24794D01*
X-25294Y-337841D02*
Y-336841D01*
X-25794Y-343722D02*
X-24794D01*
X-25294Y-344222D02*
Y-343222D01*
X-25794Y-349329D02*
X-24794D01*
X-25294Y-349829D02*
Y-348829D01*
X-26393Y-331031D02*
X-25393D01*
X-25893Y-331531D02*
Y-330531D01*
X-25794Y-233585D02*
X-24794D01*
X-25294Y-234085D02*
Y-233085D01*
X-25794Y-238110D02*
X-24794D01*
X-25294Y-238610D02*
Y-237610D01*
X-25794Y-242886D02*
X-24794D01*
X-25294Y-243386D02*
Y-242386D01*
X-25794Y-247953D02*
X-24794D01*
X-25294Y-248453D02*
Y-247453D01*
X-21781Y-366910D02*
X-20781D01*
X-21281Y-367410D02*
Y-366410D01*
X-4220Y-360738D02*
X-3220D01*
X-3720Y-361238D02*
Y-360238D01*
X-25090Y-212177D02*
X-24090D01*
X-24590Y-212677D02*
Y-211677D01*
X-25416Y-325122D02*
X-24416D01*
X-24916Y-325622D02*
Y-324622D01*
X-25416Y-353690D02*
X-24416D01*
X-24916Y-354190D02*
Y-353190D01*
X-25416Y-358459D02*
X-24416D01*
X-24916Y-358959D02*
Y-357959D01*
X-25416Y-364133D02*
X-24416D01*
X-24916Y-364633D02*
Y-363633D01*
X-25416Y-369015D02*
X-24416D01*
X-24916Y-369515D02*
Y-368515D01*
X-25416Y-374273D02*
X-24416D01*
X-24916Y-374773D02*
Y-373773D01*
X-8214Y-252493D02*
X-7214D01*
X-7714Y-252993D02*
Y-251993D01*
X-6446Y-256468D02*
X-5446D01*
X-5946Y-256968D02*
Y-255968D01*
X-9455Y-321836D02*
X-8455D01*
X-8955Y-322336D02*
Y-321336D01*
X-22050Y-358219D02*
X-21050D01*
X-21550Y-358719D02*
Y-357719D01*
X-13905Y-218524D02*
X-12905D01*
X-13405Y-219024D02*
Y-218024D01*
X-13913Y-213524D02*
X-12913D01*
X-13413Y-214024D02*
Y-213024D01*
X-13913Y-208524D02*
X-12913D01*
X-13413Y-209024D02*
Y-208024D01*
X-13767Y-203524D02*
X-12766D01*
X-13266Y-204024D02*
Y-203024D01*
X191358Y-394815D02*
X192358D01*
X191858Y-395315D02*
Y-394315D01*
X180542Y-394727D02*
X181542D01*
X181042Y-395227D02*
Y-394227D01*
X168977Y-394683D02*
X169977D01*
X169477Y-395183D02*
Y-394183D01*
X158557Y-394727D02*
X159557D01*
X159057Y-395227D02*
Y-394227D01*
X147608Y-394815D02*
X148608D01*
X148108Y-395315D02*
Y-394315D01*
X138551Y-394683D02*
X139551D01*
X139051Y-395183D02*
Y-394183D01*
X129537Y-394938D02*
X130537D01*
X130037Y-395438D02*
Y-394438D01*
X118307Y-394938D02*
X119307D01*
X118807Y-395438D02*
Y-394438D01*
X200157Y-393917D02*
X201157D01*
X200657Y-394417D02*
Y-393417D01*
X206122Y-393917D02*
X207122D01*
X206623Y-394417D02*
Y-393417D01*
X106010Y-394938D02*
X107010D01*
X106510Y-395438D02*
Y-394438D01*
X212844Y-393917D02*
X213844D01*
X213345Y-394417D02*
Y-393417D01*
X218398Y-393917D02*
X219398D01*
X218898Y-394417D02*
Y-393417D01*
X223485Y-392625D02*
X224485D01*
X223985Y-393125D02*
Y-392125D01*
X224241Y-388289D02*
X225241D01*
X224741Y-388789D02*
Y-387789D01*
X224235Y-383210D02*
X225235D01*
X224735Y-383710D02*
Y-382710D01*
X94709Y-394938D02*
X95709D01*
X95209Y-395438D02*
Y-394438D01*
X85238Y-394938D02*
X86238D01*
X85738Y-395438D02*
Y-394438D01*
X77314Y-394938D02*
X78314D01*
X77814Y-395438D02*
Y-394438D01*
X-10029Y-394354D02*
X-9030D01*
X-9529Y-394854D02*
Y-393854D01*
X-4721Y-394354D02*
X-3721D01*
X-4221Y-394854D02*
Y-393854D01*
X9009Y-394537D02*
X10009D01*
X9509Y-395037D02*
Y-394037D01*
X42548Y-394938D02*
X43548D01*
X43048Y-395438D02*
Y-394438D01*
X28197Y-389714D02*
X29197D01*
X28697Y-390214D02*
Y-389214D01*
X185282Y-386392D02*
X186282D01*
X185782Y-386892D02*
Y-385892D01*
X173277Y-383400D02*
X174277D01*
X173777Y-383900D02*
Y-382900D01*
X173861Y-387552D02*
X174861D01*
X174361Y-388053D02*
Y-387052D01*
X184574Y-380986D02*
X185574D01*
X185074Y-381486D02*
Y-380486D01*
X173277Y-380710D02*
X174277D01*
X173777Y-381210D02*
Y-380210D01*
X184602Y-383439D02*
X185602D01*
X185102Y-383939D02*
Y-382939D01*
X130639Y-379396D02*
X131639D01*
X131139Y-379895D02*
Y-378895D01*
X123959Y-381775D02*
X124959D01*
X124459Y-382275D02*
Y-381275D01*
X132418Y-385710D02*
X133418D01*
X132918Y-386210D02*
Y-385210D01*
X67932Y-389876D02*
X68932D01*
X68432Y-390376D02*
Y-389376D01*
X-25416Y-379661D02*
X-24416D01*
X-24916Y-380161D02*
Y-379161D01*
X-24666Y-391490D02*
X-23666D01*
X-24166Y-391990D02*
Y-390990D01*
X-20332Y-393917D02*
X-19332D01*
X-19832Y-394417D02*
Y-393417D01*
X-14764Y-394354D02*
X-13764D01*
X-14264Y-394854D02*
Y-393854D01*
X-25416Y-385354D02*
X-24416D01*
X-24916Y-385854D02*
Y-384854D01*
X121328Y-266768D02*
X122328D01*
X121828Y-267268D02*
Y-266268D01*
X93699Y-297939D02*
X94699D01*
X94199Y-298439D02*
Y-297439D01*
X122407Y-271232D02*
X123407D01*
X122907Y-271732D02*
Y-270732D01*
X114694Y-276451D02*
X115694D01*
X115194Y-276952D02*
Y-275952D01*
X65456Y-230484D02*
X66456D01*
X65956Y-230984D02*
Y-229984D01*
X66087Y-233825D02*
X67087D01*
X66587Y-234325D02*
Y-233325D01*
X65672Y-236390D02*
X66672D01*
X66172Y-236890D02*
Y-235890D01*
X70227Y-269338D02*
X71227D01*
X70727Y-269838D02*
Y-268838D01*
X73499Y-267504D02*
X74499D01*
X73999Y-268004D02*
Y-267004D01*
X17078Y-222928D02*
X18078D01*
X17578Y-223428D02*
Y-222428D01*
X54862Y-363417D02*
X55862D01*
X55362Y-363917D02*
Y-362917D01*
X72560Y-347683D02*
X73560D01*
X73060Y-348183D02*
Y-347183D01*
X80775Y-232846D02*
X81775D01*
X81275Y-233346D02*
Y-232346D01*
X142221Y-273304D02*
X143221D01*
X142721Y-273804D02*
Y-272804D01*
X137059Y-254106D02*
X138059D01*
X137559Y-254606D02*
Y-253606D01*
X78828Y-318999D02*
X79828D01*
X79328Y-319499D02*
Y-318499D01*
X76517Y-321173D02*
X77517D01*
X77017Y-321673D02*
Y-320673D01*
X87072Y-283648D02*
X88072D01*
X87572Y-284149D02*
Y-283149D01*
X52345Y-292892D02*
X53345D01*
X52845Y-293392D02*
Y-292392D01*
X64199Y-295012D02*
X65199D01*
X64699Y-295513D02*
Y-294513D01*
X68307Y-343055D02*
X69307D01*
X68807Y-343555D02*
Y-342555D01*
X66755Y-341637D02*
X67755D01*
X67255Y-342137D02*
Y-341137D01*
X54862Y-297622D02*
X55862D01*
X55362Y-298122D02*
Y-297122D01*
X53401Y-295099D02*
X54401D01*
X53901Y-295599D02*
Y-294599D01*
X85260Y-289686D02*
X86260D01*
X85760Y-290187D02*
Y-289187D01*
X96249Y-362406D02*
X97249D01*
X96749Y-362906D02*
Y-361906D01*
X94519Y-359503D02*
X95519D01*
X95019Y-360003D02*
Y-359003D01*
X110323Y-353387D02*
X111323D01*
X110823Y-353887D02*
Y-352887D01*
X110685Y-335012D02*
X111685D01*
X111185Y-335512D02*
Y-334512D01*
X112588Y-324286D02*
X113588D01*
X113088Y-324786D02*
Y-323786D01*
X108372Y-329560D02*
X109372D01*
X108872Y-330060D02*
Y-329060D01*
X101456Y-323500D02*
X102456D01*
X101956Y-324000D02*
Y-323000D01*
X116416Y-349391D02*
X117416D01*
X116916Y-349890D02*
Y-348890D01*
X116416Y-344235D02*
X117416D01*
X116916Y-344735D02*
Y-343735D01*
X116906Y-336792D02*
X117906D01*
X117406Y-337292D02*
Y-336292D01*
X116239Y-329671D02*
X117239D01*
X116739Y-330171D02*
Y-329171D01*
X89617Y-320775D02*
X90617D01*
X90117Y-321275D02*
Y-320275D01*
X86404Y-318566D02*
X87404D01*
X86904Y-319066D02*
Y-318066D01*
X84312Y-318377D02*
X85312D01*
X84812Y-318878D02*
Y-317878D01*
X131305Y-262571D02*
X132305D01*
X131805Y-263071D02*
Y-262071D01*
X129486Y-277694D02*
X130486D01*
X129986Y-278194D02*
Y-277194D01*
X134806Y-277138D02*
X135806D01*
X135306Y-277638D02*
Y-276638D01*
X26606Y-291635D02*
X27606D01*
X27106Y-292135D02*
Y-291135D01*
X25122Y-293120D02*
X26122D01*
X25622Y-293620D02*
Y-292620D01*
X22738Y-295437D02*
X23738D01*
X23238Y-295937D02*
Y-294937D01*
X90015Y-229106D02*
X91015D01*
X90515Y-229606D02*
Y-228606D01*
X130639Y-285799D02*
X131639D01*
X131139Y-286299D02*
Y-285299D01*
X49564Y-334075D02*
X50564D01*
X50064Y-334575D02*
Y-333575D01*
X64199Y-346839D02*
X65199D01*
X64699Y-347339D02*
Y-346339D01*
X65684Y-348324D02*
X66684D01*
X66184Y-348824D02*
Y-347824D01*
X47083Y-355099D02*
X48083D01*
X47583Y-355599D02*
Y-354599D01*
X22247Y-316244D02*
X23247D01*
X22747Y-316744D02*
Y-315744D01*
X22162Y-313735D02*
X23162D01*
X22662Y-314235D02*
Y-313235D01*
X61155Y-357966D02*
X62155D01*
X61655Y-358466D02*
Y-357466D01*
X62639Y-359451D02*
X63639D01*
X63139Y-359951D02*
Y-358951D01*
X64486Y-290574D02*
X65486D01*
X64986Y-291074D02*
Y-290074D01*
X66565Y-332425D02*
X67565D01*
X67065Y-332925D02*
Y-331925D01*
X73063Y-328195D02*
X74063D01*
X73563Y-328695D02*
Y-327695D01*
X71840Y-329902D02*
X72840D01*
X72340Y-330402D02*
Y-329402D01*
X31074Y-342277D02*
X32074D01*
X31574Y-342777D02*
Y-341777D01*
X70818Y-358717D02*
X71818D01*
X71318Y-359218D02*
Y-358218D01*
X62850Y-337063D02*
X63850D01*
X63350Y-337563D02*
Y-336563D01*
X134409Y-211742D02*
X135409D01*
X134909Y-212242D02*
Y-211242D01*
X126566Y-212012D02*
X127566D01*
X127066Y-212512D02*
Y-211512D01*
X24667Y-255090D02*
X25667D01*
X25167Y-255590D02*
Y-254590D01*
X24916Y-249775D02*
X25916D01*
X25416Y-250275D02*
Y-249275D01*
X25406Y-243279D02*
X26406D01*
X25906Y-243779D02*
Y-242779D01*
X25342Y-237621D02*
X26342D01*
X25842Y-238121D02*
Y-237121D01*
X25444Y-231656D02*
X26444D01*
X25944Y-232156D02*
Y-231156D01*
X25342Y-225563D02*
X26342D01*
X25842Y-226063D02*
Y-225063D01*
X25122Y-210209D02*
X26122D01*
X25622Y-210708D02*
Y-209708D01*
X35443Y-212244D02*
X36443D01*
X35943Y-212744D02*
Y-211744D01*
X35443Y-208830D02*
X36443D01*
X35943Y-209330D02*
Y-208330D01*
X24965Y-204428D02*
X25965D01*
X25465Y-204928D02*
Y-203928D01*
X25028Y-202228D02*
X26028D01*
X25528Y-202728D02*
Y-201728D01*
X9386Y-202228D02*
X10386D01*
X9886Y-202728D02*
Y-201728D01*
X79755Y-240917D02*
X80755D01*
X80255Y-241417D02*
Y-240417D01*
X71683Y-237374D02*
X72683D01*
X72183Y-237874D02*
Y-236874D01*
X89876Y-240917D02*
X90876D01*
X90376Y-241417D02*
Y-240417D01*
X79576Y-248791D02*
X80576D01*
X80076Y-249291D02*
Y-248291D01*
X68068Y-224127D02*
X69068D01*
X68568Y-224627D02*
Y-223627D01*
X96055Y-209872D02*
X97054D01*
X96554Y-210372D02*
Y-209372D01*
X96567Y-205016D02*
X97567D01*
X97067Y-205516D02*
Y-204516D01*
X69714Y-244854D02*
X70714D01*
X70214Y-245354D02*
Y-244354D01*
X70177Y-219041D02*
X71177D01*
X70677Y-219541D02*
Y-218541D01*
X122407Y-353524D02*
X123407D01*
X122907Y-354024D02*
Y-353024D01*
X63974Y-329798D02*
X64974D01*
X64474Y-330298D02*
Y-329298D01*
X62476Y-319294D02*
X63476D01*
X62976Y-319794D02*
Y-318794D01*
X62639Y-315429D02*
X63639D01*
X63139Y-315929D02*
Y-314929D01*
X61562Y-311976D02*
X62562D01*
X62062Y-312475D02*
Y-311475D01*
X42476Y-352065D02*
X43476D01*
X42976Y-352565D02*
Y-351565D01*
X31236Y-346497D02*
X32236D01*
X31736Y-346997D02*
Y-345997D01*
X8799Y-340122D02*
X9799D01*
X9299Y-340622D02*
Y-339622D01*
X8799Y-344570D02*
X9799D01*
X9299Y-345071D02*
Y-344071D01*
X30981Y-339274D02*
X31981D01*
X31481Y-339774D02*
Y-338774D01*
X30981Y-336210D02*
X31981D01*
X31481Y-336710D02*
Y-335710D01*
X15785Y-243279D02*
X16785D01*
X16285Y-243779D02*
Y-242779D01*
X74969Y-280285D02*
X75969D01*
X75469Y-280785D02*
Y-279785D01*
X75178Y-276152D02*
X76178D01*
X75678Y-276652D02*
Y-275652D01*
X65672Y-279529D02*
X66672D01*
X66172Y-280029D02*
Y-279029D01*
X65672Y-277373D02*
X66672D01*
X66172Y-277873D02*
Y-276873D01*
X112539Y-292308D02*
X113539D01*
X113039Y-292808D02*
Y-291808D01*
X132308Y-292308D02*
X133308D01*
X132808Y-292808D02*
Y-291808D01*
X182177Y-376067D02*
X183177D01*
X182677Y-376568D02*
Y-375568D01*
X172836Y-375710D02*
X173836D01*
X173336Y-376210D02*
Y-375210D01*
X18662Y-203524D02*
X19662D01*
X19162Y-204024D02*
Y-203024D01*
X18298Y-208524D02*
X19298D01*
X18798Y-209024D02*
Y-208024D01*
X18808Y-213524D02*
X19808D01*
X19308Y-214024D02*
Y-213024D01*
X19272Y-218524D02*
X20272D01*
X19772Y-219024D02*
Y-218024D01*
X26141Y-360256D02*
X27141D01*
X26641Y-360756D02*
Y-359756D01*
X22364Y-359958D02*
X23364D01*
X22864Y-360458D02*
Y-359458D01*
X17078Y-360017D02*
X18078D01*
X17578Y-360517D02*
Y-359517D01*
X13584Y-359821D02*
X14584D01*
X14084Y-360321D02*
Y-359321D01*
X33438Y-307524D02*
X34438D01*
X33938Y-308024D02*
Y-307024D01*
X33438Y-303870D02*
X34438D01*
X33938Y-304370D02*
Y-303370D01*
X33789Y-316084D02*
X34789D01*
X34289Y-316584D02*
Y-315584D01*
X33789Y-311421D02*
X34789D01*
X34289Y-311921D02*
Y-310921D01*
X32157Y-331871D02*
X33157D01*
X32657Y-332370D02*
Y-331370D01*
X32248Y-328426D02*
X33248D01*
X32748Y-328925D02*
Y-327925D01*
X13362Y-318982D02*
X14362D01*
X13862Y-319482D02*
Y-318482D01*
X15798Y-318982D02*
X16798D01*
X16298Y-319482D02*
Y-318482D01*
X18493Y-318772D02*
X19493D01*
X18993Y-319272D02*
Y-318272D01*
X28867Y-320737D02*
X29867D01*
X29367Y-321237D02*
Y-320237D01*
X33789Y-322847D02*
X34789D01*
X34289Y-323347D02*
Y-322347D01*
X33789Y-319389D02*
X34789D01*
X34289Y-319889D02*
Y-318889D01*
X24916Y-263063D02*
X25916D01*
X25416Y-263563D02*
Y-262563D01*
X22162Y-263063D02*
X23162D01*
X22662Y-263563D02*
Y-262563D01*
X22162Y-265536D02*
X23162D01*
X22662Y-266036D02*
Y-265036D01*
X25028Y-265536D02*
X26028D01*
X25528Y-266036D02*
Y-265036D01*
X68337Y-334840D02*
X69337D01*
X68837Y-335340D02*
Y-334340D01*
X24667Y-247216D02*
X25667D01*
X25167Y-247716D02*
Y-246716D01*
X25122Y-215720D02*
X26122D01*
X25622Y-216220D02*
Y-215220D01*
X35807Y-279303D02*
X36808D01*
X36307Y-279803D02*
Y-278803D01*
X35781Y-276744D02*
X36781D01*
X36281Y-277244D02*
Y-276244D01*
X35781Y-270838D02*
X36781D01*
X36281Y-271338D02*
Y-270338D01*
X23536Y-279777D02*
X24536D01*
X24036Y-280277D02*
Y-279277D01*
X23536Y-277677D02*
X24536D01*
X24036Y-278177D02*
Y-277177D01*
X67932Y-348294D02*
X68932D01*
X68432Y-348794D02*
Y-347794D01*
X61942Y-346421D02*
X62942D01*
X62442Y-346920D02*
Y-345920D01*
X65194Y-360738D02*
X66194D01*
X65694Y-361238D02*
Y-360238D01*
X59683Y-355698D02*
X60683D01*
X60183Y-356198D02*
Y-355198D01*
X70512Y-342999D02*
X71512D01*
X71012Y-343499D02*
Y-342499D01*
X64981Y-340255D02*
X65981D01*
X65481Y-340755D02*
Y-339755D01*
X76408Y-216363D02*
X77408D01*
X76908Y-216863D02*
Y-215863D01*
X76408Y-212032D02*
X77408D01*
X76908Y-212532D02*
Y-211532D01*
X76408Y-207846D02*
X77408D01*
X76908Y-208346D02*
Y-207346D01*
X65785Y-212767D02*
X66785D01*
X66285Y-213267D02*
Y-212267D01*
X65785Y-210209D02*
X66785D01*
X66285Y-210708D02*
Y-209708D01*
X65785Y-207649D02*
X66785D01*
X66285Y-208149D02*
Y-207149D01*
X8799Y-255484D02*
X9799D01*
X9299Y-255984D02*
Y-254984D01*
X11752Y-255484D02*
X12752D01*
X12252Y-255984D02*
Y-254984D01*
X14223Y-255484D02*
X15223D01*
X14723Y-255984D02*
Y-254984D01*
X16806Y-255484D02*
X17806D01*
X17306Y-255984D02*
Y-254984D01*
X11358Y-317589D02*
X12358D01*
X11858Y-318089D02*
Y-317089D01*
X25626Y-280681D02*
X26626D01*
X26126Y-281181D02*
Y-280181D01*
X25136Y-295448D02*
X26136D01*
X25636Y-295948D02*
Y-294948D01*
X28683Y-290574D02*
X29683D01*
X29183Y-291074D02*
Y-290074D01*
X21881Y-293491D02*
X22882D01*
X22381Y-293991D02*
Y-292991D01*
X25626Y-283058D02*
X26626D01*
X26126Y-283558D02*
Y-282558D01*
X25773Y-285429D02*
X26773D01*
X26273Y-285929D02*
Y-284929D01*
X24288Y-286914D02*
X25288D01*
X24788Y-287414D02*
Y-286414D01*
X21691Y-287605D02*
X22692D01*
X22192Y-288105D02*
Y-287105D01*
X22786Y-282102D02*
X23786D01*
X23286Y-282603D02*
Y-281603D01*
X22887Y-275366D02*
X23887D01*
X23387Y-275866D02*
Y-274866D01*
X81832Y-331969D02*
X82832D01*
X82332Y-332469D02*
Y-331469D01*
X81832Y-336299D02*
X82832D01*
X82332Y-336800D02*
Y-335800D01*
X81832Y-340630D02*
X82832D01*
X82332Y-341130D02*
Y-340130D01*
X81832Y-344961D02*
X82832D01*
X82332Y-345461D02*
Y-344461D01*
X81832Y-349292D02*
X82832D01*
X82332Y-349792D02*
Y-348792D01*
X86163Y-331969D02*
X87163D01*
X86663Y-332469D02*
Y-331469D01*
X86163Y-336299D02*
X87163D01*
X86663Y-336800D02*
Y-335800D01*
X86163Y-340630D02*
X87163D01*
X86663Y-341130D02*
Y-340130D01*
X86163Y-344961D02*
X87163D01*
X86663Y-345461D02*
Y-344461D01*
X86163Y-349292D02*
X87163D01*
X86663Y-349792D02*
Y-348792D01*
X90493Y-331969D02*
X91493D01*
X90993Y-332469D02*
Y-331469D01*
X90493Y-336299D02*
X91493D01*
X90993Y-336800D02*
Y-335800D01*
X90493Y-340630D02*
X91493D01*
X90993Y-341130D02*
Y-340130D01*
X90493Y-344961D02*
X91493D01*
X90993Y-345461D02*
Y-344461D01*
X90493Y-349292D02*
X91493D01*
X90993Y-349792D02*
Y-348792D01*
X94824Y-331969D02*
X95824D01*
X95324Y-332469D02*
Y-331469D01*
X94824Y-336299D02*
X95824D01*
X95324Y-336800D02*
Y-335800D01*
X94824Y-340630D02*
X95824D01*
X95324Y-341130D02*
Y-340130D01*
X94824Y-344961D02*
X95824D01*
X95324Y-345461D02*
Y-344461D01*
X94824Y-349292D02*
X95824D01*
X95324Y-349792D02*
Y-348792D01*
X99155Y-331969D02*
X100155D01*
X99655Y-332469D02*
Y-331469D01*
X99155Y-336299D02*
X100155D01*
X99655Y-336800D02*
Y-335800D01*
X99155Y-340630D02*
X100155D01*
X99655Y-341130D02*
Y-340130D01*
X99155Y-344961D02*
X100155D01*
X99655Y-345461D02*
Y-344461D01*
X99155Y-349292D02*
X100155D01*
X99655Y-349792D02*
Y-348792D01*
X123019Y-324046D02*
X124019D01*
X123519Y-324546D02*
Y-323546D01*
X107983Y-325037D02*
X108983D01*
X108483Y-325537D02*
Y-324537D01*
X101671Y-358717D02*
X102671D01*
X102171Y-359218D02*
Y-358218D01*
X108187Y-339843D02*
X109187D01*
X108687Y-340343D02*
Y-339343D01*
X90887Y-317960D02*
X91887D01*
X91387Y-318460D02*
Y-317460D01*
X88213Y-323021D02*
X89213D01*
X88713Y-323521D02*
Y-322521D01*
X100451Y-317589D02*
X101451D01*
X100951Y-318089D02*
Y-317089D01*
X102403Y-319673D02*
X103403D01*
X102903Y-320173D02*
Y-319173D01*
X72714Y-342988D02*
X73714D01*
X73214Y-343489D02*
Y-342489D01*
X72710Y-338268D02*
X73710D01*
X73210Y-338768D02*
Y-337768D01*
X74760Y-358250D02*
X75760D01*
X75260Y-358750D02*
Y-357750D01*
X74971Y-367682D02*
X75971D01*
X75471Y-368182D02*
Y-367182D01*
X86106Y-358458D02*
X87106D01*
X86606Y-358958D02*
Y-357958D01*
X78345Y-357136D02*
X79345D01*
X78845Y-357636D02*
Y-356636D01*
X68068Y-303870D02*
X69068D01*
X68568Y-304370D02*
Y-303370D01*
X68734Y-289666D02*
X69734D01*
X69234Y-290166D02*
Y-289166D01*
X64486Y-305116D02*
X65486D01*
X64986Y-305616D02*
Y-304616D01*
X66868Y-297832D02*
X67868D01*
X67368Y-298332D02*
Y-297332D01*
X74457Y-316244D02*
X75457D01*
X74957Y-316744D02*
Y-315744D01*
X74322Y-322157D02*
X75322D01*
X74822Y-322657D02*
Y-321657D01*
X77314Y-325321D02*
X78314D01*
X77814Y-325821D02*
Y-324821D01*
X69510Y-326277D02*
X70510D01*
X70010Y-326777D02*
Y-325777D01*
X132418Y-323042D02*
X133417D01*
X132917Y-323542D02*
Y-322542D01*
X97772Y-316909D02*
X98772D01*
X98272Y-317409D02*
Y-316409D01*
X132495Y-336128D02*
X133495D01*
X132995Y-336628D02*
Y-335628D01*
X109465Y-349410D02*
X110465D01*
X109965Y-349910D02*
Y-348910D01*
X108660Y-344630D02*
X109660D01*
X109160Y-345129D02*
Y-344129D01*
X122223Y-340726D02*
X123223D01*
X122723Y-341227D02*
Y-340227D01*
X72042Y-361958D02*
X73042D01*
X72542Y-362458D02*
Y-361458D01*
M02*
