G04*
G04 #@! TF.GenerationSoftware,Altium Limited,Altium Designer,24.1.2 (44)*
G04*
G04 Layer_Color=16711935*
%FSLAX25Y25*%
%MOIN*%
G70*
G04*
G04 #@! TF.SameCoordinates,59DD8EBB-DCD7-4209-94D2-A0ED0100978B*
G04*
G04*
G04 #@! TF.FilePolarity,Positive*
G04*
G01*
G75*
%ADD13C,0.01000*%
%ADD92C,0.00600*%
D13*
X-147638Y-174550D02*
X-145638Y-180550D01*
X-149638D02*
X-147638Y-174550D01*
X-149638Y-390990D02*
X-147638Y-396990D01*
X-145638Y-390990D01*
X-147638Y-266276D02*
Y-174550D01*
Y-396990D02*
Y-308464D01*
X-148638Y-174550D02*
X221862D01*
X-148638Y-396990D02*
X-24043D01*
X-28043Y38737D02*
X-22043Y40737D01*
X-28043Y38737D02*
X-22043Y36737D01*
X625102D02*
X631102Y38737D01*
X625102Y40737D02*
X631102Y38737D01*
X-28043D02*
X279336D01*
X320523D02*
X631102D01*
X-28043Y-389990D02*
Y39737D01*
X631102Y21260D02*
Y39737D01*
D92*
X-144039Y-302865D02*
Y-306864D01*
X-148038Y-302865D01*
X-149037D01*
X-150037Y-303865D01*
Y-305864D01*
X-149037Y-306864D01*
X-144039Y-296867D02*
Y-300866D01*
X-148038Y-296867D01*
X-149037D01*
X-150037Y-297867D01*
Y-299866D01*
X-149037Y-300866D01*
X-144039Y-290869D02*
Y-294867D01*
X-148038Y-290869D01*
X-149037D01*
X-150037Y-291868D01*
Y-293868D01*
X-149037Y-294867D01*
X-144039Y-285870D02*
X-150037D01*
X-147038Y-288870D01*
Y-284871D01*
X-144039Y-282871D02*
X-145038D01*
Y-281872D01*
X-144039D01*
Y-282871D01*
X-149037Y-277873D02*
X-150037Y-276873D01*
Y-274874D01*
X-149037Y-273874D01*
X-148038D01*
X-147038Y-274874D01*
Y-275874D01*
Y-274874D01*
X-146038Y-273874D01*
X-145038D01*
X-144039Y-274874D01*
Y-276873D01*
X-145038Y-277873D01*
Y-271875D02*
X-144039Y-270875D01*
Y-268876D01*
X-145038Y-267876D01*
X-149037D01*
X-150037Y-268876D01*
Y-270875D01*
X-149037Y-271875D01*
X-148038D01*
X-147038Y-270875D01*
Y-267876D01*
X284934Y41136D02*
X282935Y40137D01*
X280936Y38137D01*
Y36138D01*
X281935Y35138D01*
X283935D01*
X284934Y36138D01*
Y37137D01*
X283935Y38137D01*
X280936D01*
X290932Y41136D02*
X286934D01*
Y38137D01*
X288933Y39137D01*
X289933D01*
X290932Y38137D01*
Y36138D01*
X289933Y35138D01*
X287933D01*
X286934Y36138D01*
X292932D02*
X293932Y35138D01*
X295931D01*
X296931Y36138D01*
Y40137D01*
X295931Y41136D01*
X293932D01*
X292932Y40137D01*
Y39137D01*
X293932Y38137D01*
X296931D01*
X298930Y35138D02*
X300929D01*
X299930D01*
Y41136D01*
X298930Y40137D01*
X303928Y35138D02*
Y36138D01*
X304928D01*
Y35138D01*
X303928D01*
X311926D02*
Y41136D01*
X308927Y38137D01*
X312925D01*
X318923Y41136D02*
X316924Y40137D01*
X314925Y38137D01*
Y36138D01*
X315924Y35138D01*
X317924D01*
X318923Y36138D01*
Y37137D01*
X317924Y38137D01*
X314925D01*
M02*
