G04*
G04 #@! TF.GenerationSoftware,Altium Limited,Altium Designer,24.1.2 (44)*
G04*
G04 Layer_Color=16711935*
%FSLAX25Y25*%
%MOIN*%
G70*
G04*
G04 #@! TF.SameCoordinates,59DD8EBB-DCD7-4209-94D2-A0ED0100978B*
G04*
G04*
G04 #@! TF.FilePolarity,Negative*
G04*
G01*
G75*
%ADD29R,0.02237X0.02254*%
%ADD30R,0.01575X0.01968*%
%ADD31R,0.02288X0.02016*%
%ADD64R,0.02769X0.02965*%
%ADD65R,0.02965X0.02769*%
%ADD67R,0.02926X0.03084*%
%ADD71R,0.06312X0.06312*%
%ADD79R,0.06102X0.06102*%
%ADD80C,0.06102*%
%ADD81C,0.06312*%
%ADD82C,0.09068*%
%ADD83C,0.07887*%
%ADD84C,0.12414*%
%ADD85C,0.08871*%
%ADD86R,0.08871X0.08871*%
%ADD87C,0.16548*%
%ADD88C,0.26391*%
%ADD89C,0.06299*%
%ADD90C,0.04331*%
%ADD91C,0.02400*%
%ADD113R,0.02200X0.05900*%
%ADD114R,0.05900X0.02200*%
%ADD115R,0.04700X0.03500*%
%ADD116R,0.01968X0.01575*%
%ADD117R,0.02254X0.02237*%
%ADD127R,0.01843X0.01860*%
%ADD132C,0.03800*%
%ADD133R,0.05721X0.04147*%
%ADD134R,0.03359X0.05721*%
%ADD135R,0.03556X0.03359*%
%ADD136R,0.02572X0.02572*%
%ADD137R,0.03162X0.03359*%
%ADD138R,0.03359X0.03162*%
%ADD139R,0.03359X0.03556*%
G04:AMPARAMS|DCode=140|XSize=15.87mil|YSize=30.24mil|CornerRadius=5.97mil|HoleSize=0mil|Usage=FLASHONLY|Rotation=90.000|XOffset=0mil|YOffset=0mil|HoleType=Round|Shape=RoundedRectangle|*
%AMROUNDEDRECTD140*
21,1,0.01587,0.01831,0,0,90.0*
21,1,0.00394,0.03024,0,0,90.0*
1,1,0.01194,0.00915,0.00197*
1,1,0.01194,0.00915,-0.00197*
1,1,0.01194,-0.00915,-0.00197*
1,1,0.01194,-0.00915,0.00197*
%
%ADD140ROUNDEDRECTD140*%
G04:AMPARAMS|DCode=141|XSize=23.75mil|YSize=30.24mil|CornerRadius=5.97mil|HoleSize=0mil|Usage=FLASHONLY|Rotation=90.000|XOffset=0mil|YOffset=0mil|HoleType=Round|Shape=RoundedRectangle|*
%AMROUNDEDRECTD141*
21,1,0.02375,0.01831,0,0,90.0*
21,1,0.01181,0.03024,0,0,90.0*
1,1,0.01194,0.00915,0.00591*
1,1,0.01194,0.00915,-0.00591*
1,1,0.01194,-0.00915,-0.00591*
1,1,0.01194,-0.00915,0.00591*
%
%ADD141ROUNDEDRECTD141*%
%ADD142R,0.02965X0.02965*%
G36*
X176684Y-218633D02*
X175740D01*
Y-217555D01*
X176684D01*
Y-218633D01*
D02*
G37*
G36*
X165341D02*
X164396D01*
Y-217555D01*
X165341D01*
Y-218633D01*
D02*
G37*
G36*
X155197Y-219555D02*
X155442Y-219600D01*
X155664Y-219666D01*
X155853Y-219733D01*
X156008Y-219800D01*
X156119Y-219866D01*
X156164Y-219889D01*
X156197Y-219911D01*
X156208Y-219922D01*
X156219D01*
X156408Y-220066D01*
X156575Y-220244D01*
X156719Y-220411D01*
X156842Y-220577D01*
X156930Y-220733D01*
X156997Y-220855D01*
X157019Y-220900D01*
X157042Y-220933D01*
X157053Y-220955D01*
Y-220966D01*
X157153Y-221222D01*
X157219Y-221477D01*
X157275Y-221722D01*
X157308Y-221944D01*
X157330Y-222144D01*
Y-222222D01*
X157342Y-222299D01*
Y-222355D01*
Y-222399D01*
Y-222422D01*
Y-222433D01*
X157330Y-222644D01*
X157319Y-222855D01*
X157241Y-223233D01*
X157197Y-223410D01*
X157141Y-223566D01*
X157086Y-223722D01*
X157030Y-223855D01*
X156975Y-223988D01*
X156919Y-224099D01*
X156864Y-224188D01*
X156819Y-224277D01*
X156775Y-224333D01*
X156742Y-224388D01*
X156730Y-224410D01*
X156719Y-224421D01*
X156597Y-224566D01*
X156464Y-224688D01*
X156319Y-224799D01*
X156175Y-224899D01*
X156019Y-224977D01*
X155875Y-225044D01*
X155731Y-225099D01*
X155586Y-225144D01*
X155453Y-225177D01*
X155331Y-225199D01*
X155219Y-225221D01*
X155120Y-225233D01*
X155042D01*
X154986Y-225244D01*
X154931D01*
X154764Y-225233D01*
X154597Y-225210D01*
X154442Y-225177D01*
X154297Y-225132D01*
X154042Y-225010D01*
X153808Y-224877D01*
X153720Y-224810D01*
X153631Y-224744D01*
X153553Y-224677D01*
X153498Y-224621D01*
X153453Y-224577D01*
X153420Y-224544D01*
X153398Y-224521D01*
X153386Y-224510D01*
Y-224677D01*
Y-224821D01*
X153398Y-224966D01*
Y-225088D01*
Y-225199D01*
X153409Y-225299D01*
Y-225388D01*
X153420Y-225466D01*
X153431Y-225577D01*
X153442Y-225666D01*
X153453Y-225710D01*
Y-225721D01*
X153509Y-225888D01*
X153586Y-226032D01*
X153664Y-226155D01*
X153742Y-226266D01*
X153820Y-226343D01*
X153886Y-226410D01*
X153931Y-226444D01*
X153942Y-226455D01*
X154086Y-226543D01*
X154253Y-226610D01*
X154420Y-226655D01*
X154575Y-226688D01*
X154731Y-226710D01*
X154842Y-226721D01*
X154953D01*
X155164Y-226710D01*
X155364Y-226677D01*
X155531Y-226632D01*
X155664Y-226577D01*
X155775Y-226532D01*
X155853Y-226488D01*
X155897Y-226455D01*
X155919Y-226444D01*
X156008Y-226366D01*
X156075Y-226266D01*
X156131Y-226166D01*
X156175Y-226066D01*
X156197Y-225966D01*
X156219Y-225888D01*
X156230Y-225844D01*
Y-225821D01*
X157153Y-225699D01*
Y-225866D01*
X157130Y-226010D01*
X157108Y-226155D01*
X157075Y-226288D01*
X156975Y-226521D01*
X156864Y-226710D01*
X156753Y-226854D01*
X156664Y-226955D01*
X156586Y-227021D01*
X156575Y-227032D01*
X156564Y-227043D01*
X156319Y-227199D01*
X156053Y-227310D01*
X155786Y-227388D01*
X155531Y-227443D01*
X155408Y-227466D01*
X155297Y-227477D01*
X155208Y-227488D01*
X155120D01*
X155053Y-227499D01*
X154953D01*
X154653Y-227488D01*
X154375Y-227443D01*
X154131Y-227399D01*
X153931Y-227332D01*
X153764Y-227277D01*
X153697Y-227255D01*
X153642Y-227221D01*
X153597Y-227210D01*
X153564Y-227188D01*
X153553Y-227177D01*
X153542D01*
X153342Y-227055D01*
X153164Y-226910D01*
X153020Y-226766D01*
X152898Y-226632D01*
X152809Y-226510D01*
X152753Y-226410D01*
X152709Y-226343D01*
X152698Y-226332D01*
Y-226321D01*
X152653Y-226210D01*
X152609Y-226088D01*
X152575Y-225955D01*
X152542Y-225810D01*
X152498Y-225499D01*
X152464Y-225199D01*
X152453Y-225055D01*
X152442Y-224921D01*
Y-224799D01*
X152431Y-224699D01*
Y-224610D01*
Y-224544D01*
Y-224499D01*
Y-224488D01*
Y-219666D01*
X153297D01*
Y-220355D01*
X153420Y-220211D01*
X153553Y-220089D01*
X153686Y-219977D01*
X153820Y-219889D01*
X153964Y-219811D01*
X154097Y-219744D01*
X154231Y-219689D01*
X154353Y-219644D01*
X154475Y-219611D01*
X154586Y-219589D01*
X154686Y-219566D01*
X154764Y-219555D01*
X154831Y-219544D01*
X154931D01*
X155197Y-219555D01*
D02*
G37*
G36*
X171973D02*
X172162Y-219589D01*
X172329Y-219622D01*
X172473Y-219666D01*
X172596Y-219722D01*
X172684Y-219755D01*
X172740Y-219789D01*
X172762Y-219800D01*
X172918Y-219900D01*
X173051Y-220011D01*
X173173Y-220122D01*
X173273Y-220233D01*
X173351Y-220322D01*
X173418Y-220400D01*
X173451Y-220444D01*
X173462Y-220466D01*
Y-219666D01*
X174306D01*
Y-225244D01*
X173362D01*
Y-222355D01*
X173351Y-222088D01*
X173340Y-221855D01*
X173318Y-221655D01*
X173284Y-221488D01*
X173251Y-221366D01*
X173229Y-221277D01*
X173218Y-221222D01*
X173207Y-221199D01*
X173140Y-221055D01*
X173062Y-220933D01*
X172984Y-220822D01*
X172907Y-220733D01*
X172829Y-220666D01*
X172773Y-220622D01*
X172729Y-220588D01*
X172718Y-220577D01*
X172584Y-220511D01*
X172462Y-220455D01*
X172329Y-220422D01*
X172218Y-220389D01*
X172129Y-220377D01*
X172051Y-220366D01*
X171985D01*
X171796Y-220377D01*
X171640Y-220411D01*
X171507Y-220466D01*
X171407Y-220522D01*
X171329Y-220588D01*
X171274Y-220633D01*
X171240Y-220677D01*
X171229Y-220689D01*
X171151Y-220822D01*
X171096Y-220966D01*
X171051Y-221122D01*
X171029Y-221277D01*
X171007Y-221411D01*
X170996Y-221533D01*
Y-221577D01*
Y-221600D01*
Y-221622D01*
Y-221633D01*
Y-225244D01*
X170051D01*
Y-222011D01*
X170029Y-221711D01*
X169985Y-221455D01*
X169929Y-221244D01*
X169851Y-221066D01*
X169785Y-220933D01*
X169718Y-220844D01*
X169674Y-220789D01*
X169662Y-220766D01*
X169507Y-220633D01*
X169340Y-220533D01*
X169174Y-220466D01*
X169018Y-220411D01*
X168885Y-220389D01*
X168774Y-220377D01*
X168729Y-220366D01*
X168674D01*
X168552Y-220377D01*
X168451Y-220389D01*
X168351Y-220411D01*
X168274Y-220444D01*
X168196Y-220477D01*
X168151Y-220500D01*
X168118Y-220511D01*
X168107Y-220522D01*
X168018Y-220588D01*
X167952Y-220655D01*
X167896Y-220722D01*
X167852Y-220789D01*
X167818Y-220844D01*
X167796Y-220888D01*
X167774Y-220922D01*
Y-220933D01*
X167740Y-221033D01*
X167718Y-221166D01*
X167707Y-221300D01*
X167696Y-221433D01*
X167685Y-221555D01*
Y-221655D01*
Y-221722D01*
Y-221733D01*
Y-221744D01*
Y-225244D01*
X166741D01*
Y-221422D01*
Y-221244D01*
X166763Y-221088D01*
X166785Y-220933D01*
X166807Y-220800D01*
X166841Y-220666D01*
X166885Y-220555D01*
X166918Y-220455D01*
X166963Y-220355D01*
X167007Y-220277D01*
X167041Y-220200D01*
X167118Y-220100D01*
X167163Y-220033D01*
X167185Y-220011D01*
X167363Y-219855D01*
X167574Y-219744D01*
X167785Y-219655D01*
X167985Y-219600D01*
X168174Y-219566D01*
X168252Y-219555D01*
X168329D01*
X168385Y-219544D01*
X168463D01*
X168663Y-219555D01*
X168840Y-219589D01*
X169018Y-219633D01*
X169185Y-219700D01*
X169340Y-219777D01*
X169485Y-219855D01*
X169607Y-219944D01*
X169729Y-220033D01*
X169840Y-220133D01*
X169929Y-220222D01*
X170007Y-220300D01*
X170074Y-220377D01*
X170129Y-220444D01*
X170162Y-220489D01*
X170185Y-220522D01*
X170196Y-220533D01*
X170262Y-220366D01*
X170351Y-220222D01*
X170451Y-220100D01*
X170540Y-220000D01*
X170629Y-219911D01*
X170696Y-219855D01*
X170740Y-219822D01*
X170762Y-219811D01*
X170918Y-219722D01*
X171085Y-219655D01*
X171251Y-219611D01*
X171418Y-219578D01*
X171551Y-219555D01*
X171673Y-219544D01*
X171773D01*
X171973Y-219555D01*
D02*
G37*
G36*
X113424Y-219555D02*
X113613Y-219589D01*
X113779Y-219622D01*
X113924Y-219666D01*
X114046Y-219722D01*
X114135Y-219755D01*
X114190Y-219789D01*
X114213Y-219800D01*
X114368Y-219900D01*
X114501Y-220011D01*
X114624Y-220122D01*
X114724Y-220233D01*
X114801Y-220322D01*
X114868Y-220400D01*
X114901Y-220444D01*
X114912Y-220466D01*
Y-219666D01*
X115757D01*
Y-225244D01*
X114812D01*
Y-222355D01*
X114801Y-222088D01*
X114790Y-221855D01*
X114768Y-221655D01*
X114735Y-221488D01*
X114701Y-221366D01*
X114679Y-221277D01*
X114668Y-221222D01*
X114657Y-221199D01*
X114590Y-221055D01*
X114513Y-220933D01*
X114435Y-220822D01*
X114357Y-220733D01*
X114279Y-220666D01*
X114224Y-220622D01*
X114179Y-220588D01*
X114168Y-220577D01*
X114035Y-220511D01*
X113912Y-220455D01*
X113779Y-220422D01*
X113668Y-220389D01*
X113579Y-220377D01*
X113502Y-220366D01*
X113435D01*
X113246Y-220377D01*
X113090Y-220411D01*
X112957Y-220466D01*
X112857Y-220522D01*
X112779Y-220588D01*
X112724Y-220633D01*
X112690Y-220677D01*
X112679Y-220689D01*
X112601Y-220822D01*
X112546Y-220966D01*
X112502Y-221122D01*
X112479Y-221277D01*
X112457Y-221411D01*
X112446Y-221533D01*
Y-221577D01*
Y-221600D01*
Y-221622D01*
Y-221633D01*
Y-225244D01*
X111502D01*
Y-222011D01*
X111479Y-221711D01*
X111435Y-221455D01*
X111379Y-221244D01*
X111302Y-221066D01*
X111235Y-220933D01*
X111168Y-220844D01*
X111124Y-220789D01*
X111113Y-220766D01*
X110957Y-220633D01*
X110791Y-220533D01*
X110624Y-220466D01*
X110468Y-220411D01*
X110335Y-220389D01*
X110224Y-220377D01*
X110180Y-220366D01*
X110124D01*
X110002Y-220377D01*
X109902Y-220389D01*
X109802Y-220411D01*
X109724Y-220444D01*
X109646Y-220477D01*
X109602Y-220500D01*
X109569Y-220511D01*
X109557Y-220522D01*
X109468Y-220588D01*
X109402Y-220655D01*
X109346Y-220722D01*
X109302Y-220789D01*
X109269Y-220844D01*
X109246Y-220888D01*
X109224Y-220922D01*
Y-220933D01*
X109191Y-221033D01*
X109169Y-221166D01*
X109157Y-221300D01*
X109146Y-221433D01*
X109135Y-221555D01*
Y-221655D01*
Y-221722D01*
Y-221733D01*
Y-221744D01*
Y-225244D01*
X108191D01*
Y-221422D01*
Y-221244D01*
X108213Y-221089D01*
X108235Y-220933D01*
X108257Y-220800D01*
X108291Y-220666D01*
X108335Y-220555D01*
X108369Y-220455D01*
X108413Y-220355D01*
X108458Y-220277D01*
X108491Y-220200D01*
X108569Y-220100D01*
X108613Y-220033D01*
X108635Y-220011D01*
X108813Y-219855D01*
X109024Y-219744D01*
X109235Y-219655D01*
X109435Y-219600D01*
X109624Y-219566D01*
X109702Y-219555D01*
X109780D01*
X109835Y-219544D01*
X109913D01*
X110113Y-219555D01*
X110291Y-219589D01*
X110468Y-219633D01*
X110635Y-219700D01*
X110791Y-219777D01*
X110935Y-219855D01*
X111057Y-219944D01*
X111179Y-220033D01*
X111291Y-220133D01*
X111379Y-220222D01*
X111457Y-220300D01*
X111524Y-220377D01*
X111579Y-220444D01*
X111613Y-220489D01*
X111635Y-220522D01*
X111646Y-220533D01*
X111713Y-220366D01*
X111802Y-220222D01*
X111902Y-220100D01*
X111990Y-220000D01*
X112079Y-219911D01*
X112146Y-219855D01*
X112190Y-219822D01*
X112213Y-219811D01*
X112368Y-219722D01*
X112535Y-219655D01*
X112701Y-219611D01*
X112868Y-219578D01*
X113002Y-219555D01*
X113124Y-219544D01*
X113224D01*
X113424Y-219555D01*
D02*
G37*
G36*
X143532Y-219555D02*
X143765Y-219578D01*
X143987Y-219611D01*
X144165Y-219644D01*
X144321Y-219677D01*
X144432Y-219711D01*
X144476Y-219722D01*
X144509Y-219733D01*
X144521Y-219744D01*
X144532D01*
X144721Y-219822D01*
X144887Y-219922D01*
X145032Y-220011D01*
X145154Y-220100D01*
X145243Y-220188D01*
X145309Y-220255D01*
X145354Y-220300D01*
X145365Y-220311D01*
X145465Y-220455D01*
X145554Y-220611D01*
X145621Y-220766D01*
X145676Y-220911D01*
X145721Y-221055D01*
X145754Y-221155D01*
X145765Y-221199D01*
Y-221233D01*
X145776Y-221244D01*
Y-221255D01*
X144854Y-221377D01*
X144787Y-221177D01*
X144721Y-221000D01*
X144643Y-220855D01*
X144576Y-220744D01*
X144509Y-220655D01*
X144454Y-220600D01*
X144410Y-220566D01*
X144398Y-220555D01*
X144265Y-220477D01*
X144109Y-220422D01*
X143943Y-220377D01*
X143787Y-220355D01*
X143632Y-220333D01*
X143521Y-220322D01*
X143410D01*
X143154Y-220333D01*
X142932Y-220366D01*
X142754Y-220422D01*
X142599Y-220477D01*
X142487Y-220544D01*
X142399Y-220588D01*
X142343Y-220633D01*
X142332Y-220644D01*
X142243Y-220744D01*
X142176Y-220866D01*
X142121Y-221000D01*
X142087Y-221133D01*
X142065Y-221255D01*
X142054Y-221366D01*
Y-221433D01*
Y-221444D01*
Y-221455D01*
Y-221477D01*
Y-221522D01*
Y-221600D01*
X142065Y-221666D01*
Y-221688D01*
Y-221700D01*
X142176Y-221733D01*
X142299Y-221766D01*
X142554Y-221833D01*
X142843Y-221888D01*
X143110Y-221944D01*
X143243Y-221966D01*
X143365Y-221977D01*
X143476Y-222000D01*
X143565Y-222011D01*
X143643Y-222022D01*
X143698D01*
X143743Y-222033D01*
X143754D01*
X143954Y-222055D01*
X144121Y-222088D01*
X144265Y-222111D01*
X144376Y-222133D01*
X144465Y-222144D01*
X144532Y-222166D01*
X144576Y-222177D01*
X144587D01*
X144732Y-222222D01*
X144854Y-222266D01*
X144976Y-222322D01*
X145076Y-222366D01*
X145165Y-222410D01*
X145220Y-222455D01*
X145265Y-222477D01*
X145276Y-222488D01*
X145387Y-222566D01*
X145476Y-222655D01*
X145565Y-222744D01*
X145632Y-222833D01*
X145687Y-222910D01*
X145732Y-222977D01*
X145754Y-223022D01*
X145765Y-223033D01*
X145820Y-223155D01*
X145865Y-223288D01*
X145898Y-223410D01*
X145920Y-223533D01*
X145931Y-223633D01*
X145943Y-223710D01*
Y-223755D01*
Y-223777D01*
X145931Y-223910D01*
X145920Y-224022D01*
X145865Y-224255D01*
X145787Y-224444D01*
X145698Y-224610D01*
X145609Y-224744D01*
X145532Y-224844D01*
X145476Y-224899D01*
X145454Y-224921D01*
X145254Y-225066D01*
X145032Y-225177D01*
X144787Y-225255D01*
X144565Y-225310D01*
X144365Y-225344D01*
X144276Y-225355D01*
X144198D01*
X144132Y-225366D01*
X144043D01*
X143843Y-225355D01*
X143643Y-225332D01*
X143465Y-225310D01*
X143310Y-225277D01*
X143187Y-225244D01*
X143087Y-225210D01*
X143021Y-225199D01*
X142999Y-225188D01*
X142810Y-225110D01*
X142632Y-225010D01*
X142465Y-224899D01*
X142299Y-224799D01*
X142165Y-224699D01*
X142065Y-224621D01*
X141999Y-224566D01*
X141988Y-224544D01*
X141976D01*
X141954Y-224688D01*
X141932Y-224821D01*
X141910Y-224944D01*
X141876Y-225044D01*
X141843Y-225132D01*
X141821Y-225188D01*
X141810Y-225233D01*
X141799Y-225244D01*
X140810D01*
X140865Y-225121D01*
X140921Y-224999D01*
X140965Y-224888D01*
X140988Y-224788D01*
X141021Y-224699D01*
X141032Y-224633D01*
X141043Y-224588D01*
Y-224577D01*
X141054Y-224499D01*
X141065Y-224399D01*
Y-224288D01*
X141077Y-224166D01*
X141088Y-223888D01*
Y-223610D01*
X141099Y-223344D01*
Y-223222D01*
Y-223122D01*
Y-223033D01*
Y-222966D01*
Y-222922D01*
Y-222910D01*
Y-221644D01*
Y-221433D01*
X141110Y-221244D01*
X141121Y-221099D01*
Y-220977D01*
X141132Y-220888D01*
X141143Y-220822D01*
X141154Y-220789D01*
Y-220777D01*
X141188Y-220633D01*
X141232Y-220511D01*
X141277Y-220411D01*
X141332Y-220311D01*
X141376Y-220244D01*
X141410Y-220188D01*
X141432Y-220155D01*
X141443Y-220144D01*
X141532Y-220055D01*
X141632Y-219966D01*
X141743Y-219900D01*
X141854Y-219833D01*
X141954Y-219789D01*
X142032Y-219755D01*
X142087Y-219733D01*
X142110Y-219722D01*
X142288Y-219666D01*
X142476Y-219622D01*
X142665Y-219589D01*
X142854Y-219566D01*
X143021Y-219555D01*
X143143Y-219544D01*
X143265D01*
X143532Y-219555D01*
D02*
G37*
G36*
X204926Y-225244D02*
X203926D01*
X202804Y-220955D01*
X202581Y-221911D01*
X201693Y-225244D01*
X200726D01*
X198971Y-219666D01*
X199893D01*
X200848Y-222899D01*
X201170Y-223977D01*
X201448Y-222910D01*
X202281Y-219666D01*
X203248D01*
X204137Y-222944D01*
X204181Y-223133D01*
X204226Y-223299D01*
X204259Y-223444D01*
X204292Y-223566D01*
X204326Y-223677D01*
X204348Y-223766D01*
X204370Y-223844D01*
X204381Y-223910D01*
X204392Y-223966D01*
X204403Y-223999D01*
X204415Y-224055D01*
X204426Y-224077D01*
Y-224088D01*
X204737Y-222888D01*
X205626Y-219666D01*
X206614D01*
X204926Y-225244D01*
D02*
G37*
G36*
X197171D02*
X196171D01*
X195049Y-220955D01*
X194827Y-221911D01*
X193938Y-225244D01*
X192971D01*
X191216Y-219666D01*
X192138D01*
X193094Y-222899D01*
X193416Y-223977D01*
X193693Y-222910D01*
X194527Y-219666D01*
X195493D01*
X196382Y-222944D01*
X196426Y-223133D01*
X196471Y-223299D01*
X196504Y-223444D01*
X196538Y-223566D01*
X196571Y-223677D01*
X196593Y-223766D01*
X196615Y-223844D01*
X196626Y-223910D01*
X196638Y-223966D01*
X196649Y-223999D01*
X196660Y-224055D01*
X196671Y-224077D01*
Y-224088D01*
X196982Y-222888D01*
X197871Y-219666D01*
X198860D01*
X197171Y-225244D01*
D02*
G37*
G36*
X189416D02*
X188416D01*
X187294Y-220955D01*
X187072Y-221911D01*
X186183Y-225244D01*
X185216D01*
X183461Y-219666D01*
X184383D01*
X185339Y-222899D01*
X185661Y-223977D01*
X185939Y-222910D01*
X186772Y-219666D01*
X187739D01*
X188627Y-222944D01*
X188672Y-223133D01*
X188716Y-223299D01*
X188750Y-223444D01*
X188783Y-223566D01*
X188816Y-223677D01*
X188838Y-223766D01*
X188861Y-223844D01*
X188872Y-223910D01*
X188883Y-223966D01*
X188894Y-223999D01*
X188905Y-224055D01*
X188916Y-224077D01*
Y-224088D01*
X189227Y-222888D01*
X190116Y-219666D01*
X191105D01*
X189416Y-225244D01*
D02*
G37*
G36*
X179517Y-218289D02*
Y-219666D01*
X180217D01*
Y-220400D01*
X179517D01*
Y-223622D01*
Y-223777D01*
Y-223910D01*
X179506Y-224033D01*
X179495Y-224155D01*
Y-224255D01*
X179484Y-224344D01*
X179462Y-224488D01*
X179439Y-224599D01*
X179428Y-224677D01*
X179406Y-224721D01*
Y-224732D01*
X179361Y-224833D01*
X179295Y-224910D01*
X179228Y-224988D01*
X179173Y-225044D01*
X179106Y-225099D01*
X179062Y-225132D01*
X179028Y-225155D01*
X179017Y-225166D01*
X178895Y-225221D01*
X178773Y-225255D01*
X178639Y-225288D01*
X178506Y-225299D01*
X178395Y-225310D01*
X178306Y-225321D01*
X178217D01*
X177973Y-225310D01*
X177851Y-225299D01*
X177740Y-225277D01*
X177639Y-225266D01*
X177562Y-225255D01*
X177517Y-225244D01*
X177495D01*
X177617Y-224410D01*
X177706Y-224421D01*
X177795Y-224432D01*
X177873D01*
X177928Y-224444D01*
X178040Y-224444D01*
X178184Y-224432D01*
X178284Y-224410D01*
X178339Y-224388D01*
X178362Y-224377D01*
X178439Y-224321D01*
X178484Y-224266D01*
X178517Y-224221D01*
X178528Y-224199D01*
X178539Y-224144D01*
X178551Y-224066D01*
X178562Y-223888D01*
X178573Y-223810D01*
Y-223744D01*
Y-223699D01*
Y-223677D01*
Y-220400D01*
X177617Y-220400D01*
Y-219666D01*
X178573Y-219666D01*
Y-217722D01*
X179517Y-218289D01*
D02*
G37*
G36*
X149009Y-219555D02*
X149253Y-219600D01*
X149487Y-219655D01*
X149676Y-219711D01*
X149842Y-219777D01*
X149909Y-219811D01*
X149964Y-219833D01*
X150009Y-219855D01*
X150042Y-219877D01*
X150065Y-219889D01*
X150076D01*
X150287Y-220022D01*
X150476Y-220188D01*
X150631Y-220355D01*
X150764Y-220522D01*
X150864Y-220666D01*
X150931Y-220789D01*
X150953Y-220833D01*
X150976Y-220866D01*
X150987Y-220888D01*
Y-220900D01*
X151087Y-221166D01*
X151153Y-221433D01*
X151209Y-221700D01*
X151242Y-221944D01*
X151253Y-222055D01*
X151264Y-222155D01*
Y-222244D01*
X151276Y-222322D01*
Y-222388D01*
Y-222433D01*
Y-222466D01*
Y-222477D01*
X151264Y-222733D01*
X151242Y-222966D01*
X151209Y-223199D01*
X151164Y-223399D01*
X151120Y-223599D01*
X151053Y-223766D01*
X150998Y-223933D01*
X150931Y-224077D01*
X150864Y-224199D01*
X150809Y-224310D01*
X150742Y-224410D01*
X150698Y-224488D01*
X150653Y-224544D01*
X150620Y-224588D01*
X150598Y-224610D01*
X150587Y-224621D01*
X150453Y-224755D01*
X150309Y-224866D01*
X150164Y-224966D01*
X150009Y-225055D01*
X149853Y-225121D01*
X149709Y-225188D01*
X149409Y-225277D01*
X149276Y-225299D01*
X149153Y-225321D01*
X149042Y-225344D01*
X148942Y-225355D01*
X148865Y-225366D01*
X148753D01*
X148587Y-225355D01*
X148420Y-225344D01*
X148131Y-225277D01*
X147865Y-225199D01*
X147643Y-225099D01*
X147554Y-225044D01*
X147465Y-224999D01*
X147387Y-224955D01*
X147331Y-224910D01*
X147287Y-224877D01*
X147254Y-224855D01*
X147231Y-224844D01*
X147220Y-224833D01*
X147109Y-224721D01*
X147009Y-224610D01*
X146832Y-224366D01*
X146687Y-224110D01*
X146587Y-223877D01*
X146509Y-223655D01*
X146487Y-223566D01*
X146465Y-223477D01*
X146454Y-223410D01*
X146443Y-223366D01*
X146432Y-223333D01*
Y-223322D01*
X147365Y-223199D01*
X147409Y-223444D01*
X147476Y-223666D01*
X147565Y-223844D01*
X147643Y-223988D01*
X147720Y-224110D01*
X147787Y-224188D01*
X147820Y-224244D01*
X147843Y-224255D01*
X147987Y-224366D01*
X148142Y-224444D01*
X148298Y-224510D01*
X148442Y-224544D01*
X148565Y-224566D01*
X148676Y-224577D01*
X148742Y-224588D01*
X148765D01*
X148887Y-224577D01*
X149009Y-224566D01*
X149231Y-224510D01*
X149420Y-224432D01*
X149587Y-224333D01*
X149709Y-224244D01*
X149809Y-224166D01*
X149864Y-224110D01*
X149887Y-224088D01*
X149964Y-223988D01*
X150031Y-223866D01*
X150131Y-223622D01*
X150209Y-223344D01*
X150253Y-223077D01*
X150287Y-222833D01*
X150298Y-222733D01*
Y-222633D01*
X150309Y-222566D01*
Y-222499D01*
Y-222466D01*
Y-222455D01*
Y-222255D01*
X150287Y-222066D01*
X150265Y-221888D01*
X150242Y-221733D01*
X150209Y-221588D01*
X150164Y-221455D01*
X150131Y-221333D01*
X150087Y-221222D01*
X150042Y-221133D01*
X150009Y-221055D01*
X149964Y-220988D01*
X149931Y-220933D01*
X149909Y-220888D01*
X149887Y-220855D01*
X149864Y-220844D01*
Y-220833D01*
X149776Y-220744D01*
X149687Y-220666D01*
X149498Y-220533D01*
X149298Y-220444D01*
X149120Y-220389D01*
X148953Y-220344D01*
X148831Y-220333D01*
X148776Y-220322D01*
X148709D01*
X148542Y-220333D01*
X148387Y-220366D01*
X148254Y-220411D01*
X148131Y-220466D01*
X148043Y-220522D01*
X147965Y-220566D01*
X147920Y-220600D01*
X147909Y-220611D01*
X147798Y-220722D01*
X147698Y-220855D01*
X147609Y-221000D01*
X147554Y-221133D01*
X147498Y-221255D01*
X147465Y-221355D01*
X147454Y-221422D01*
X147442Y-221433D01*
Y-221444D01*
X146520Y-221300D01*
X146598Y-221000D01*
X146709Y-220744D01*
X146832Y-220522D01*
X146954Y-220344D01*
X147076Y-220200D01*
X147176Y-220100D01*
X147242Y-220033D01*
X147254Y-220011D01*
X147265D01*
X147498Y-219855D01*
X147742Y-219744D01*
X147987Y-219655D01*
X148220Y-219600D01*
X148431Y-219566D01*
X148520Y-219555D01*
X148587D01*
X148653Y-219544D01*
X148742D01*
X149009Y-219555D01*
D02*
G37*
G36*
X125111D02*
X125356Y-219600D01*
X125589Y-219655D01*
X125778Y-219711D01*
X125945Y-219777D01*
X126011Y-219811D01*
X126067Y-219833D01*
X126111Y-219855D01*
X126145Y-219877D01*
X126167Y-219889D01*
X126178D01*
X126389Y-220022D01*
X126578Y-220188D01*
X126734Y-220355D01*
X126867Y-220522D01*
X126967Y-220666D01*
X127033Y-220789D01*
X127056Y-220833D01*
X127078Y-220866D01*
X127089Y-220888D01*
Y-220900D01*
X127189Y-221166D01*
X127256Y-221433D01*
X127311Y-221700D01*
X127345Y-221944D01*
X127356Y-222055D01*
X127367Y-222155D01*
Y-222244D01*
X127378Y-222322D01*
Y-222388D01*
Y-222433D01*
Y-222466D01*
Y-222477D01*
X127367Y-222733D01*
X127345Y-222966D01*
X127311Y-223199D01*
X127267Y-223399D01*
X127222Y-223599D01*
X127156Y-223766D01*
X127100Y-223933D01*
X127033Y-224077D01*
X126967Y-224199D01*
X126911Y-224310D01*
X126845Y-224410D01*
X126800Y-224488D01*
X126756Y-224544D01*
X126722Y-224588D01*
X126700Y-224610D01*
X126689Y-224621D01*
X126556Y-224755D01*
X126411Y-224866D01*
X126267Y-224966D01*
X126111Y-225055D01*
X125956Y-225121D01*
X125811Y-225188D01*
X125511Y-225277D01*
X125378Y-225299D01*
X125256Y-225321D01*
X125145Y-225344D01*
X125045Y-225355D01*
X124967Y-225366D01*
X124856D01*
X124689Y-225355D01*
X124523Y-225344D01*
X124234Y-225277D01*
X123967Y-225199D01*
X123745Y-225099D01*
X123656Y-225044D01*
X123567Y-224999D01*
X123489Y-224955D01*
X123434Y-224910D01*
X123389Y-224877D01*
X123356Y-224855D01*
X123334Y-224844D01*
X123323Y-224833D01*
X123212Y-224721D01*
X123112Y-224610D01*
X122934Y-224366D01*
X122789Y-224110D01*
X122689Y-223877D01*
X122612Y-223655D01*
X122589Y-223566D01*
X122567Y-223477D01*
X122556Y-223410D01*
X122545Y-223366D01*
X122534Y-223333D01*
Y-223322D01*
X123467Y-223199D01*
X123512Y-223444D01*
X123578Y-223666D01*
X123667Y-223844D01*
X123745Y-223988D01*
X123823Y-224110D01*
X123889Y-224188D01*
X123923Y-224244D01*
X123945Y-224255D01*
X124089Y-224366D01*
X124245Y-224444D01*
X124400Y-224510D01*
X124545Y-224544D01*
X124667Y-224566D01*
X124778Y-224577D01*
X124845Y-224588D01*
X124867D01*
X124989Y-224577D01*
X125111Y-224566D01*
X125334Y-224510D01*
X125522Y-224432D01*
X125689Y-224333D01*
X125811Y-224244D01*
X125911Y-224166D01*
X125967Y-224110D01*
X125989Y-224088D01*
X126067Y-223988D01*
X126134Y-223866D01*
X126233Y-223622D01*
X126311Y-223344D01*
X126356Y-223077D01*
X126389Y-222833D01*
X126400Y-222733D01*
Y-222633D01*
X126411Y-222566D01*
Y-222499D01*
Y-222466D01*
Y-222455D01*
Y-222255D01*
X126389Y-222066D01*
X126367Y-221888D01*
X126345Y-221733D01*
X126311Y-221588D01*
X126267Y-221455D01*
X126233Y-221333D01*
X126189Y-221222D01*
X126145Y-221133D01*
X126111Y-221055D01*
X126067Y-220988D01*
X126033Y-220933D01*
X126011Y-220888D01*
X125989Y-220855D01*
X125967Y-220844D01*
Y-220833D01*
X125878Y-220744D01*
X125789Y-220666D01*
X125600Y-220533D01*
X125400Y-220444D01*
X125223Y-220389D01*
X125056Y-220344D01*
X124934Y-220333D01*
X124878Y-220322D01*
X124811D01*
X124645Y-220333D01*
X124489Y-220366D01*
X124356Y-220411D01*
X124234Y-220466D01*
X124145Y-220522D01*
X124067Y-220566D01*
X124023Y-220600D01*
X124012Y-220611D01*
X123900Y-220722D01*
X123800Y-220855D01*
X123712Y-221000D01*
X123656Y-221133D01*
X123600Y-221255D01*
X123567Y-221355D01*
X123556Y-221422D01*
X123545Y-221433D01*
Y-221444D01*
X122623Y-221300D01*
X122701Y-221000D01*
X122812Y-220744D01*
X122934Y-220522D01*
X123056Y-220344D01*
X123178Y-220200D01*
X123278Y-220100D01*
X123345Y-220033D01*
X123356Y-220011D01*
X123367D01*
X123600Y-219855D01*
X123845Y-219744D01*
X124089Y-219655D01*
X124323Y-219600D01*
X124534Y-219566D01*
X124623Y-219555D01*
X124689D01*
X124756Y-219544D01*
X124845D01*
X125111Y-219555D01*
D02*
G37*
G36*
X182395Y-225244D02*
X181317D01*
Y-224166D01*
X182395D01*
Y-225244D01*
D02*
G37*
G36*
X176684Y-225244D02*
X175740D01*
Y-219666D01*
X176684D01*
Y-225244D01*
D02*
G37*
G36*
X165341D02*
X164396D01*
Y-219666D01*
X165341D01*
Y-225244D01*
D02*
G37*
G36*
X160552Y-219555D02*
X160752Y-219589D01*
X160930Y-219633D01*
X161108Y-219689D01*
X161263Y-219755D01*
X161408Y-219833D01*
X161541Y-219922D01*
X161652Y-220000D01*
X161763Y-220089D01*
X161852Y-220177D01*
X161930Y-220255D01*
X161997Y-220322D01*
X162041Y-220377D01*
X162074Y-220422D01*
X162097Y-220455D01*
X162108Y-220466D01*
Y-219666D01*
X162952D01*
Y-225244D01*
X162008D01*
Y-222211D01*
Y-222022D01*
X161986Y-221833D01*
X161963Y-221677D01*
X161941Y-221533D01*
X161908Y-221399D01*
X161874Y-221277D01*
X161830Y-221166D01*
X161785Y-221077D01*
X161752Y-221000D01*
X161708Y-220933D01*
X161674Y-220877D01*
X161641Y-220833D01*
X161597Y-220777D01*
X161574Y-220755D01*
X161408Y-220622D01*
X161230Y-220533D01*
X161052Y-220466D01*
X160897Y-220411D01*
X160752Y-220389D01*
X160641Y-220377D01*
X160597Y-220366D01*
X160541D01*
X160408Y-220377D01*
X160275Y-220389D01*
X160163Y-220422D01*
X160075Y-220455D01*
X159997Y-220489D01*
X159930Y-220511D01*
X159897Y-220533D01*
X159886Y-220544D01*
X159786Y-220611D01*
X159697Y-220689D01*
X159630Y-220766D01*
X159575Y-220833D01*
X159541Y-220900D01*
X159508Y-220955D01*
X159486Y-220988D01*
Y-221000D01*
X159452Y-221122D01*
X159419Y-221255D01*
X159397Y-221399D01*
X159386Y-221544D01*
X159375Y-221666D01*
Y-221766D01*
Y-221844D01*
Y-221855D01*
Y-221866D01*
Y-225244D01*
X158430D01*
Y-221822D01*
Y-221588D01*
X158441Y-221399D01*
X158452Y-221244D01*
Y-221111D01*
X158464Y-221022D01*
X158475Y-220955D01*
X158486Y-220911D01*
Y-220900D01*
X158519Y-220755D01*
X158575Y-220622D01*
X158619Y-220511D01*
X158664Y-220400D01*
X158719Y-220322D01*
X158753Y-220266D01*
X158775Y-220222D01*
X158786Y-220211D01*
X158875Y-220100D01*
X158975Y-220011D01*
X159075Y-219922D01*
X159186Y-219855D01*
X159275Y-219800D01*
X159352Y-219766D01*
X159397Y-219744D01*
X159419Y-219733D01*
X159575Y-219666D01*
X159741Y-219622D01*
X159897Y-219589D01*
X160041Y-219566D01*
X160163Y-219555D01*
X160252Y-219544D01*
X160341D01*
X160552Y-219555D01*
D02*
G37*
G36*
X137721D02*
X137832Y-219578D01*
X137943Y-219611D01*
X138032Y-219644D01*
X138099Y-219677D01*
X138166Y-219711D01*
X138199Y-219733D01*
X138210Y-219744D01*
X138310Y-219833D01*
X138410Y-219944D01*
X138510Y-220077D01*
X138599Y-220200D01*
X138688Y-220322D01*
X138743Y-220422D01*
X138788Y-220500D01*
X138799Y-220511D01*
Y-219666D01*
X139654D01*
Y-225244D01*
X138710D01*
Y-222333D01*
X138699Y-222111D01*
X138688Y-221911D01*
X138666Y-221722D01*
X138632Y-221555D01*
X138599Y-221422D01*
X138577Y-221322D01*
X138566Y-221255D01*
X138555Y-221233D01*
X138510Y-221111D01*
X138454Y-221011D01*
X138399Y-220922D01*
X138343Y-220844D01*
X138288Y-220789D01*
X138254Y-220744D01*
X138221Y-220722D01*
X138210Y-220711D01*
X138121Y-220644D01*
X138021Y-220600D01*
X137921Y-220566D01*
X137844Y-220544D01*
X137766Y-220533D01*
X137710Y-220522D01*
X137655D01*
X137532Y-220533D01*
X137410Y-220555D01*
X137288Y-220588D01*
X137188Y-220622D01*
X137099Y-220655D01*
X137032Y-220689D01*
X136988Y-220711D01*
X136977Y-220722D01*
X136633Y-219855D01*
X136821Y-219755D01*
X136999Y-219677D01*
X137155Y-219622D01*
X137299Y-219578D01*
X137421Y-219555D01*
X137521Y-219544D01*
X137599D01*
X137721Y-219555D01*
D02*
G37*
G36*
X129822Y-225244D02*
X128744D01*
Y-224166D01*
X129822D01*
Y-225244D01*
D02*
G37*
G36*
X132533Y-220311D02*
X132633Y-220188D01*
X132744Y-220089D01*
X132844Y-219988D01*
X132955Y-219911D01*
X133044Y-219855D01*
X133111Y-219800D01*
X133155Y-219777D01*
X133177Y-219766D01*
X133322Y-219689D01*
X133477Y-219633D01*
X133633Y-219600D01*
X133777Y-219566D01*
X133899Y-219555D01*
X133988Y-219544D01*
X134077D01*
X134322Y-219555D01*
X134555Y-219600D01*
X134766Y-219655D01*
X134944Y-219722D01*
X135099Y-219800D01*
X135210Y-219855D01*
X135255Y-219877D01*
X135288Y-219900D01*
X135299Y-219911D01*
X135310D01*
X135510Y-220055D01*
X135677Y-220233D01*
X135821Y-220400D01*
X135933Y-220566D01*
X136021Y-220722D01*
X136088Y-220844D01*
X136110Y-220888D01*
X136133Y-220922D01*
X136144Y-220944D01*
Y-220955D01*
X136232Y-221211D01*
X136299Y-221477D01*
X136355Y-221733D01*
X136388Y-221966D01*
X136410Y-222166D01*
Y-222255D01*
X136421Y-222322D01*
Y-222388D01*
Y-222433D01*
Y-222455D01*
Y-222466D01*
X136410Y-222777D01*
X136377Y-223066D01*
X136321Y-223322D01*
X136266Y-223544D01*
X136244Y-223644D01*
X136221Y-223722D01*
X136188Y-223799D01*
X136166Y-223866D01*
X136144Y-223910D01*
X136133Y-223944D01*
X136121Y-223966D01*
Y-223977D01*
X135999Y-224210D01*
X135855Y-224410D01*
X135710Y-224588D01*
X135566Y-224732D01*
X135444Y-224844D01*
X135344Y-224933D01*
X135277Y-224977D01*
X135266Y-224999D01*
X135255D01*
X135044Y-225121D01*
X134833Y-225210D01*
X134622Y-225277D01*
X134433Y-225321D01*
X134277Y-225344D01*
X134144Y-225355D01*
X134099Y-225366D01*
X134033D01*
X133844Y-225355D01*
X133666Y-225332D01*
X133500Y-225288D01*
X133355Y-225233D01*
X133211Y-225177D01*
X133077Y-225110D01*
X132966Y-225032D01*
X132866Y-224955D01*
X132766Y-224877D01*
X132688Y-224799D01*
X132622Y-224732D01*
X132566Y-224677D01*
X132522Y-224621D01*
X132488Y-224577D01*
X132477Y-224555D01*
X132466Y-224544D01*
Y-225244D01*
X131588D01*
Y-217555D01*
X132533D01*
Y-220311D01*
D02*
G37*
G36*
X119656Y-219555D02*
X119834Y-219566D01*
X120179Y-219644D01*
X120478Y-219744D01*
X120612Y-219800D01*
X120734Y-219855D01*
X120845Y-219911D01*
X120934Y-219966D01*
X121023Y-220022D01*
X121090Y-220066D01*
X121145Y-220111D01*
X121190Y-220144D01*
X121212Y-220155D01*
X121223Y-220166D01*
X121378Y-220311D01*
X121501Y-220477D01*
X121623Y-220655D01*
X121712Y-220833D01*
X121801Y-221022D01*
X121867Y-221222D01*
X121923Y-221411D01*
X121967Y-221588D01*
X122012Y-221766D01*
X122034Y-221922D01*
X122056Y-222077D01*
X122067Y-222199D01*
Y-222310D01*
X122078Y-222388D01*
Y-222433D01*
Y-222455D01*
X122067Y-222710D01*
X122045Y-222955D01*
X122012Y-223177D01*
X121967Y-223388D01*
X121912Y-223577D01*
X121856Y-223755D01*
X121790Y-223921D01*
X121723Y-224066D01*
X121656Y-224199D01*
X121590Y-224310D01*
X121534Y-224399D01*
X121478Y-224477D01*
X121434Y-224544D01*
X121401Y-224588D01*
X121378Y-224610D01*
X121367Y-224621D01*
X121223Y-224755D01*
X121079Y-224866D01*
X120923Y-224966D01*
X120767Y-225055D01*
X120612Y-225121D01*
X120445Y-225188D01*
X120145Y-225277D01*
X120012Y-225299D01*
X119879Y-225321D01*
X119767Y-225344D01*
X119667Y-225355D01*
X119579Y-225366D01*
X119467D01*
X119201Y-225355D01*
X118956Y-225310D01*
X118723Y-225255D01*
X118534Y-225199D01*
X118368Y-225132D01*
X118301Y-225110D01*
X118245Y-225088D01*
X118190Y-225066D01*
X118157Y-225044D01*
X118145Y-225032D01*
X118134D01*
X117912Y-224888D01*
X117723Y-224732D01*
X117557Y-224577D01*
X117423Y-224422D01*
X117323Y-224288D01*
X117245Y-224177D01*
X117223Y-224133D01*
X117201Y-224099D01*
X117190Y-224088D01*
Y-224077D01*
X117079Y-223821D01*
X117001Y-223544D01*
X116934Y-223266D01*
X116901Y-222988D01*
X116879Y-222866D01*
Y-222755D01*
X116868Y-222644D01*
X116857Y-222555D01*
Y-222477D01*
Y-222422D01*
Y-222388D01*
Y-222377D01*
X116868Y-222133D01*
X116890Y-221911D01*
X116923Y-221700D01*
X116968Y-221499D01*
X117023Y-221311D01*
X117090Y-221144D01*
X117157Y-220977D01*
X117223Y-220844D01*
X117290Y-220722D01*
X117357Y-220611D01*
X117423Y-220511D01*
X117479Y-220433D01*
X117523Y-220377D01*
X117557Y-220333D01*
X117579Y-220311D01*
X117590Y-220300D01*
X117734Y-220166D01*
X117879Y-220055D01*
X118034Y-219944D01*
X118190Y-219866D01*
X118345Y-219789D01*
X118501Y-219733D01*
X118801Y-219633D01*
X118945Y-219611D01*
X119068Y-219589D01*
X119179Y-219566D01*
X119279Y-219555D01*
X119356Y-219544D01*
X119467D01*
X119656Y-219555D01*
D02*
G37*
%LPC*%
G36*
X154920Y-220322D02*
X154742D01*
X154631Y-220344D01*
X154420Y-220400D01*
X154231Y-220489D01*
X154075Y-220577D01*
X153942Y-220677D01*
X153842Y-220766D01*
X153786Y-220822D01*
X153764Y-220833D01*
Y-220844D01*
X153686Y-220944D01*
X153609Y-221055D01*
X153498Y-221311D01*
X153420Y-221566D01*
X153364Y-221822D01*
X153331Y-222044D01*
X153320Y-222144D01*
Y-222233D01*
X153309Y-222299D01*
Y-222355D01*
Y-222388D01*
Y-222399D01*
Y-222588D01*
X153331Y-222777D01*
X153353Y-222944D01*
X153375Y-223088D01*
X153409Y-223233D01*
X153453Y-223366D01*
X153486Y-223477D01*
X153531Y-223577D01*
X153575Y-223677D01*
X153609Y-223755D01*
X153653Y-223821D01*
X153686Y-223866D01*
X153709Y-223910D01*
X153731Y-223944D01*
X153753Y-223955D01*
Y-223966D01*
X153842Y-224055D01*
X153931Y-224133D01*
X154109Y-224255D01*
X154297Y-224344D01*
X154464Y-224399D01*
X154620Y-224444D01*
X154742Y-224455D01*
X154786Y-224466D01*
X154853D01*
X154975Y-224455D01*
X155086Y-224444D01*
X155297Y-224388D01*
X155486Y-224310D01*
X155642Y-224210D01*
X155775Y-224121D01*
X155864Y-224044D01*
X155919Y-223988D01*
X155942Y-223966D01*
X156019Y-223866D01*
X156086Y-223755D01*
X156197Y-223499D01*
X156264Y-223244D01*
X156319Y-222977D01*
X156353Y-222744D01*
X156364Y-222633D01*
Y-222544D01*
X156375Y-222466D01*
Y-222410D01*
Y-222377D01*
Y-222366D01*
Y-222177D01*
X156353Y-222011D01*
X156331Y-221855D01*
X156308Y-221700D01*
X156275Y-221566D01*
X156242Y-221444D01*
X156197Y-221322D01*
X156153Y-221222D01*
X156119Y-221133D01*
X156075Y-221055D01*
X156042Y-220988D01*
X156008Y-220944D01*
X155986Y-220900D01*
X155964Y-220866D01*
X155942Y-220855D01*
Y-220844D01*
X155853Y-220755D01*
X155764Y-220666D01*
X155586Y-220544D01*
X155408Y-220444D01*
X155231Y-220389D01*
X155086Y-220344D01*
X154964Y-220333D01*
X154920Y-220322D01*
D02*
G37*
G36*
X142065Y-222444D02*
X142054D01*
X142065Y-222799D01*
X142076Y-223022D01*
X142087Y-223210D01*
X142110Y-223366D01*
X142143Y-223499D01*
X142176Y-223599D01*
X142199Y-223677D01*
X142210Y-223722D01*
X142221Y-223733D01*
X142310Y-223877D01*
X142399Y-224010D01*
X142510Y-224121D01*
X142610Y-224210D01*
X142699Y-224288D01*
X142776Y-224344D01*
X142821Y-224377D01*
X142843Y-224388D01*
X143010Y-224466D01*
X143176Y-224521D01*
X143332Y-224566D01*
X143487Y-224588D01*
X143610Y-224610D01*
X143721Y-224621D01*
X143809D01*
X144009Y-224610D01*
X144176Y-224588D01*
X144321Y-224544D01*
X144443Y-224499D01*
X144532Y-224455D01*
X144598Y-224410D01*
X144643Y-224388D01*
X144654Y-224377D01*
X144743Y-224277D01*
X144809Y-224166D01*
X144865Y-224066D01*
X144898Y-223966D01*
X144921Y-223877D01*
X144932Y-223810D01*
Y-223755D01*
Y-223744D01*
X144921Y-223655D01*
X144909Y-223566D01*
X144887Y-223499D01*
X144865Y-223433D01*
X144843Y-223377D01*
X144832Y-223333D01*
X144809Y-223310D01*
Y-223299D01*
X144698Y-223166D01*
X144565Y-223077D01*
X144521Y-223044D01*
X144476Y-223022D01*
X144443Y-222999D01*
X144432D01*
X144321Y-222955D01*
X144198Y-222922D01*
X144065Y-222888D01*
X143932Y-222866D01*
X143809Y-222844D01*
X143698Y-222822D01*
X143632Y-222811D01*
X143610D01*
X143421Y-222777D01*
X143243Y-222755D01*
X143087Y-222722D01*
X142932Y-222688D01*
X142787Y-222655D01*
X142665Y-222622D01*
X142543Y-222599D01*
X142443Y-222566D01*
X142354Y-222544D01*
X142276Y-222522D01*
X142210Y-222499D01*
X142154Y-222477D01*
X142110Y-222466D01*
X142076Y-222455D01*
X142065Y-222444D01*
D02*
G37*
G36*
X134033Y-220322D02*
X133977D01*
X133855Y-220333D01*
X133744Y-220344D01*
X133533Y-220411D01*
X133344Y-220489D01*
X133188Y-220588D01*
X133066Y-220689D01*
X132966Y-220777D01*
X132911Y-220844D01*
X132888Y-220855D01*
Y-220866D01*
X132811Y-220977D01*
X132744Y-221088D01*
X132633Y-221355D01*
X132555Y-221633D01*
X132500Y-221900D01*
X132477Y-222033D01*
X132466Y-222155D01*
X132455Y-222266D01*
Y-222355D01*
X132444Y-222433D01*
Y-222488D01*
Y-222533D01*
Y-222544D01*
Y-222733D01*
X132466Y-222910D01*
X132488Y-223066D01*
X132511Y-223222D01*
X132544Y-223355D01*
X132588Y-223488D01*
X132622Y-223599D01*
X132666Y-223699D01*
X132711Y-223788D01*
X132744Y-223877D01*
X132788Y-223933D01*
X132822Y-223988D01*
X132844Y-224033D01*
X132866Y-224066D01*
X132888Y-224077D01*
Y-224088D01*
X132966Y-224177D01*
X133055Y-224255D01*
X133233Y-224377D01*
X133411Y-224466D01*
X133577Y-224521D01*
X133722Y-224566D01*
X133844Y-224577D01*
X133888Y-224588D01*
X133944D01*
X134055Y-224577D01*
X134166Y-224566D01*
X134366Y-224510D01*
X134555Y-224421D01*
X134710Y-224322D01*
X134833Y-224233D01*
X134933Y-224144D01*
X134988Y-224088D01*
X134999Y-224066D01*
X135010D01*
X135088Y-223955D01*
X135155Y-223844D01*
X135266Y-223588D01*
X135344Y-223322D01*
X135399Y-223066D01*
X135433Y-222833D01*
X135444Y-222733D01*
Y-222644D01*
X135455Y-222566D01*
Y-222511D01*
Y-222477D01*
Y-222466D01*
Y-222266D01*
X135433Y-222077D01*
X135410Y-221900D01*
X135388Y-221744D01*
X135355Y-221600D01*
X135321Y-221466D01*
X135288Y-221344D01*
X135244Y-221233D01*
X135199Y-221144D01*
X135166Y-221066D01*
X135133Y-221000D01*
X135099Y-220944D01*
X135066Y-220900D01*
X135055Y-220866D01*
X135033Y-220855D01*
Y-220844D01*
X134955Y-220755D01*
X134866Y-220666D01*
X134688Y-220544D01*
X134511Y-220444D01*
X134344Y-220389D01*
X134199Y-220344D01*
X134077Y-220333D01*
X134033Y-220322D01*
D02*
G37*
G36*
X119534Y-220322D02*
X119467D01*
X119334Y-220333D01*
X119212Y-220344D01*
X118990Y-220400D01*
X118790Y-220489D01*
X118623Y-220588D01*
X118490Y-220689D01*
X118390Y-220766D01*
X118323Y-220833D01*
X118301Y-220844D01*
Y-220855D01*
X118212Y-220955D01*
X118145Y-221077D01*
X118023Y-221322D01*
X117934Y-221588D01*
X117879Y-221833D01*
X117845Y-222066D01*
X117834Y-222166D01*
Y-222255D01*
X117823Y-222322D01*
Y-222377D01*
Y-222410D01*
Y-222422D01*
Y-222622D01*
X117845Y-222811D01*
X117868Y-222977D01*
X117901Y-223144D01*
X117934Y-223288D01*
X117979Y-223422D01*
X118012Y-223544D01*
X118057Y-223655D01*
X118101Y-223744D01*
X118145Y-223833D01*
X118190Y-223899D01*
X118223Y-223955D01*
X118256Y-223999D01*
X118279Y-224033D01*
X118290Y-224044D01*
X118301Y-224055D01*
X118390Y-224144D01*
X118490Y-224233D01*
X118679Y-224366D01*
X118879Y-224455D01*
X119056Y-224521D01*
X119223Y-224555D01*
X119345Y-224577D01*
X119401Y-224588D01*
X119467D01*
X119601Y-224577D01*
X119723Y-224566D01*
X119956Y-224510D01*
X120156Y-224422D01*
X120323Y-224322D01*
X120456Y-224233D01*
X120556Y-224144D01*
X120623Y-224088D01*
X120634Y-224066D01*
X120645D01*
X120723Y-223955D01*
X120801Y-223844D01*
X120912Y-223588D01*
X121001Y-223322D01*
X121056Y-223055D01*
X121090Y-222822D01*
X121101Y-222722D01*
Y-222633D01*
X121112Y-222555D01*
Y-222499D01*
Y-222466D01*
Y-222455D01*
X121101Y-222266D01*
X121090Y-222077D01*
X121067Y-221911D01*
X121034Y-221755D01*
X121001Y-221611D01*
X120967Y-221477D01*
X120923Y-221366D01*
X120879Y-221255D01*
X120834Y-221166D01*
X120790Y-221077D01*
X120756Y-221011D01*
X120723Y-220955D01*
X120690Y-220911D01*
X120667Y-220877D01*
X120645Y-220866D01*
Y-220855D01*
X120556Y-220766D01*
X120456Y-220677D01*
X120267Y-220544D01*
X120068Y-220455D01*
X119879Y-220389D01*
X119712Y-220344D01*
X119590Y-220333D01*
X119534Y-220322D01*
D02*
G37*
%LPD*%
D29*
X31103Y-380132D02*
D03*
X34663D02*
D03*
X31255Y-384583D02*
D03*
X34816D02*
D03*
X71957Y-384583D02*
D03*
X68397D02*
D03*
X78367Y-307927D02*
D03*
X74807D02*
D03*
X76587Y-333091D02*
D03*
X73027D02*
D03*
X109043Y-311604D02*
D03*
X112603D02*
D03*
D30*
X75934Y-342992D02*
D03*
X79084D02*
D03*
X71002Y-322157D02*
D03*
X67852D02*
D03*
X71002Y-316244D02*
D03*
X67852D02*
D03*
X106053Y-330394D02*
D03*
X102903D02*
D03*
X105757Y-344486D02*
D03*
X102608D02*
D03*
X106053Y-349292D02*
D03*
X102903D02*
D03*
X106052Y-339843D02*
D03*
X102903D02*
D03*
X106053Y-335119D02*
D03*
X102903D02*
D03*
X108084Y-352835D02*
D03*
X104935D02*
D03*
X109475Y-320374D02*
D03*
X112624D02*
D03*
X75934Y-347717D02*
D03*
X79084D02*
D03*
D31*
X15769Y-203524D02*
D03*
X12890D02*
D03*
X36266Y-300754D02*
D03*
X39144D02*
D03*
X18278Y-281217D02*
D03*
X15399D02*
D03*
X18278Y-277227D02*
D03*
X15399D02*
D03*
X72391Y-280302D02*
D03*
X69513D02*
D03*
X73337Y-213949D02*
D03*
X70459D02*
D03*
X73337Y-209618D02*
D03*
X70459D02*
D03*
X72462Y-276365D02*
D03*
X69584D02*
D03*
X73297Y-205681D02*
D03*
X70419D02*
D03*
X36307Y-296972D02*
D03*
X39186D02*
D03*
D64*
X128411Y-208732D02*
D03*
Y-205779D02*
D03*
X134909Y-208597D02*
D03*
Y-205644D02*
D03*
X5570Y-202441D02*
D03*
Y-205394D02*
D03*
X87572Y-302576D02*
D03*
Y-299623D02*
D03*
X83907Y-302666D02*
D03*
Y-299714D02*
D03*
X90206Y-328623D02*
D03*
Y-325670D02*
D03*
D65*
X39631Y-345634D02*
D03*
X42584D02*
D03*
X7682Y-277512D02*
D03*
X10635D02*
D03*
X7682Y-281019D02*
D03*
X10635D02*
D03*
X74951Y-224767D02*
D03*
X77904D02*
D03*
X76219Y-220341D02*
D03*
X79172D02*
D03*
X84284Y-244657D02*
D03*
X87236D02*
D03*
X73660Y-244767D02*
D03*
X76613D02*
D03*
X74901Y-237374D02*
D03*
X77854D02*
D03*
X84228Y-203516D02*
D03*
X81275D02*
D03*
X26989Y-207120D02*
D03*
X24036D02*
D03*
X13924Y-290551D02*
D03*
X10971D02*
D03*
X13972Y-286892D02*
D03*
X11019D02*
D03*
X128116Y-258437D02*
D03*
X131069D02*
D03*
X128116Y-273201D02*
D03*
X131069D02*
D03*
X115833Y-266520D02*
D03*
X118786D02*
D03*
X68695Y-377501D02*
D03*
X71648D02*
D03*
X-1255Y-367099D02*
D03*
X-4208D02*
D03*
X-73Y-357638D02*
D03*
X-3026D02*
D03*
D67*
X60199Y-372100D02*
D03*
Y-369030D02*
D03*
D71*
X138325Y-347042D02*
D03*
D79*
X4909Y-195297D02*
D03*
D80*
X14909D02*
D03*
X24909D02*
D03*
X34909D02*
D03*
X44909D02*
D03*
X54909D02*
D03*
X64909D02*
D03*
X74909D02*
D03*
X84909D02*
D03*
X94909D02*
D03*
X104909D02*
D03*
X114909D02*
D03*
X124909D02*
D03*
X134909D02*
D03*
X144909D02*
D03*
X154909D02*
D03*
X164909D02*
D03*
X174909D02*
D03*
X184909D02*
D03*
X194909D02*
D03*
X4909Y-185297D02*
D03*
X14909D02*
D03*
X24909D02*
D03*
X34909D02*
D03*
X44909D02*
D03*
X54909D02*
D03*
X64909D02*
D03*
X74909D02*
D03*
X84909D02*
D03*
X94909D02*
D03*
X104909D02*
D03*
X114909D02*
D03*
X124909D02*
D03*
X134909D02*
D03*
X144909D02*
D03*
X154909D02*
D03*
X164909D02*
D03*
X174909D02*
D03*
X184909D02*
D03*
X194909D02*
D03*
D81*
X138325Y-339042D02*
D03*
X148325Y-351042D02*
D03*
Y-343042D02*
D03*
Y-335042D02*
D03*
Y-327042D02*
D03*
Y-319042D02*
D03*
X138325Y-355042D02*
D03*
Y-323042D02*
D03*
Y-315042D02*
D03*
X148325Y-311042D02*
D03*
X138325Y-307042D02*
D03*
D82*
X174325Y-296442D02*
D03*
Y-365642D02*
D03*
D83*
X209325Y-301442D02*
D03*
X199325D02*
D03*
Y-360642D02*
D03*
X209325D02*
D03*
X189325D02*
D03*
D84*
X174325Y-312042D02*
D03*
Y-350042D02*
D03*
D85*
X1304Y-227621D02*
D03*
Y-247621D02*
D03*
X-18696D02*
D03*
Y-227621D02*
D03*
X1304Y-327289D02*
D03*
Y-347289D02*
D03*
X-18696D02*
D03*
Y-327289D02*
D03*
D86*
X-8696Y-237621D02*
D03*
X-8696Y-337289D02*
D03*
D87*
X214083Y-190297D02*
D03*
X-14264Y-190297D02*
D03*
X214083Y-383210D02*
D03*
X-14264Y-383210D02*
D03*
D88*
X210847Y-244264D02*
D03*
D89*
X51694Y-204893D02*
D03*
D90*
Y-283634D02*
D03*
D91*
X121828Y-266768D02*
D03*
X94199Y-297939D02*
D03*
D113*
X54264Y-388804D02*
D03*
X49539D02*
D03*
Y-378904D02*
D03*
X54264D02*
D03*
D114*
X43401Y-383854D02*
D03*
X60401D02*
D03*
D115*
X59480Y-388382D02*
D03*
X44323D02*
D03*
Y-379327D02*
D03*
X59480D02*
D03*
D116*
X63156Y-368911D02*
D03*
Y-372061D02*
D03*
X-4661Y-391669D02*
D03*
Y-388520D02*
D03*
X98080Y-325571D02*
D03*
Y-328721D02*
D03*
X87056Y-325571D02*
D03*
Y-328721D02*
D03*
X93749Y-325571D02*
D03*
Y-328721D02*
D03*
X80757Y-325571D02*
D03*
Y-328721D02*
D03*
X87056Y-355689D02*
D03*
Y-352540D02*
D03*
X94930Y-355689D02*
D03*
Y-352540D02*
D03*
X98080Y-355689D02*
D03*
Y-352540D02*
D03*
D117*
X-4661Y-376449D02*
D03*
Y-372889D02*
D03*
X98272Y-301556D02*
D03*
Y-305116D02*
D03*
X93123Y-305116D02*
D03*
Y-301556D02*
D03*
X103690Y-302218D02*
D03*
Y-305778D02*
D03*
X108687Y-303248D02*
D03*
Y-306808D02*
D03*
X79379Y-366140D02*
D03*
Y-362580D02*
D03*
D127*
X79092Y-338268D02*
D03*
X75926D02*
D03*
D132*
X11858Y-369593D02*
D03*
X6875Y-369641D02*
D03*
D133*
X577Y-378616D02*
D03*
X23215D02*
D03*
Y-388616D02*
D03*
X577D02*
D03*
D134*
X6896Y-376234D02*
D03*
X11896D02*
D03*
X16896D02*
D03*
Y-390998D02*
D03*
X11896D02*
D03*
X6896D02*
D03*
D135*
X119180Y-270838D02*
D03*
X115440D02*
D03*
D136*
X76484Y-259633D02*
D03*
X73335D02*
D03*
X76476Y-256075D02*
D03*
X73326D02*
D03*
X80615Y-313643D02*
D03*
X83765D02*
D03*
X91017D02*
D03*
X87868D02*
D03*
D137*
X199325Y-377402D02*
D03*
Y-374055D02*
D03*
X189325Y-377796D02*
D03*
Y-374449D02*
D03*
X35793Y-346027D02*
D03*
Y-342681D02*
D03*
D138*
X89807Y-209872D02*
D03*
X93153D02*
D03*
X93275Y-204893D02*
D03*
X89929D02*
D03*
X76820Y-248594D02*
D03*
X73474D02*
D03*
X83808Y-240917D02*
D03*
X87155D02*
D03*
X74361Y-232644D02*
D03*
X77707D02*
D03*
X187652Y-282859D02*
D03*
X190998D02*
D03*
X12656Y-213524D02*
D03*
X16003D02*
D03*
X12656Y-208524D02*
D03*
X16003D02*
D03*
X12656Y-218524D02*
D03*
X16003D02*
D03*
X-5355Y-203150D02*
D03*
X-8702D02*
D03*
X-5355Y-208524D02*
D03*
X-8702D02*
D03*
X-5749Y-213457D02*
D03*
X-9096D02*
D03*
X127138Y-253900D02*
D03*
X123792D02*
D03*
X138838Y-273201D02*
D03*
X135492D02*
D03*
X134612Y-253900D02*
D03*
X131266D02*
D03*
D139*
X43174Y-340452D02*
D03*
Y-336712D02*
D03*
D140*
X126797Y-332191D02*
D03*
Y-334159D02*
D03*
Y-338096D02*
D03*
Y-340065D02*
D03*
X130085D02*
D03*
Y-338096D02*
D03*
Y-334159D02*
D03*
Y-332191D02*
D03*
X126797Y-319105D02*
D03*
Y-321073D02*
D03*
Y-325010D02*
D03*
Y-326979D02*
D03*
X130085D02*
D03*
Y-325010D02*
D03*
Y-321073D02*
D03*
Y-319105D02*
D03*
D141*
X126797Y-336128D02*
D03*
X130085D02*
D03*
X126797Y-323042D02*
D03*
X130085D02*
D03*
D142*
X101230Y-355886D02*
D03*
Y-352343D02*
D03*
M02*
