G04*
G04 #@! TF.GenerationSoftware,Altium Limited,Altium Designer,24.1.2 (44)*
G04*
G04 Layer_Color=32896*
%FSLAX25Y25*%
%MOIN*%
G70*
G04*
G04 #@! TF.SameCoordinates,59DD8EBB-DCD7-4209-94D2-A0ED0100978B*
G04*
G04*
G04 #@! TF.FilePolarity,Positive*
G04*
G01*
G75*
%ADD10C,0.00984*%
%ADD11C,0.00787*%
%ADD13C,0.01000*%
%ADD144C,0.00394*%
%ADD145C,0.00300*%
G36*
X239134Y-287723D02*
X239256Y-287746D01*
X239361Y-287779D01*
X239450Y-287812D01*
X239522Y-287846D01*
X239578Y-287879D01*
X239611Y-287901D01*
X239622Y-287907D01*
X239705Y-287984D01*
X239778Y-288068D01*
X239833Y-288156D01*
X239878Y-288245D01*
X239911Y-288323D01*
X239933Y-288384D01*
X239939Y-288406D01*
X239944Y-288423D01*
X239950Y-288434D01*
Y-288439D01*
X240000Y-288345D01*
X240050Y-288267D01*
X240105Y-288201D01*
X240155Y-288145D01*
X240199Y-288101D01*
X240238Y-288068D01*
X240261Y-288051D01*
X240272Y-288045D01*
X240349Y-288001D01*
X240427Y-287968D01*
X240505Y-287940D01*
X240577Y-287923D01*
X240638Y-287912D01*
X240682Y-287907D01*
X240716D01*
X240727D01*
X240821Y-287912D01*
X240915Y-287929D01*
X240999Y-287951D01*
X241071Y-287979D01*
X241132Y-288007D01*
X241182Y-288029D01*
X241210Y-288045D01*
X241221Y-288051D01*
X241304Y-288106D01*
X241376Y-288173D01*
X241437Y-288240D01*
X241493Y-288306D01*
X241531Y-288362D01*
X241565Y-288412D01*
X241581Y-288445D01*
X241587Y-288451D01*
Y-288456D01*
X241594Y-288473D01*
X241639Y-288483D01*
X241705Y-288500D01*
X241766Y-288522D01*
X241822Y-288539D01*
X241866Y-288550D01*
X241899Y-288566D01*
X241927Y-288572D01*
X241944Y-288583D01*
X241949D01*
X242116Y-288666D01*
X242266Y-288761D01*
X242393Y-288861D01*
X242443Y-288910D01*
X242461Y-288926D01*
X244021D01*
Y-289437D01*
X242989D01*
Y-289912D01*
X243036Y-289906D01*
X243158Y-289890D01*
X243275Y-289884D01*
X243325D01*
X243369Y-289878D01*
X244781D01*
X244784Y-289867D01*
Y-288948D01*
X245768D01*
X245806Y-288940D01*
X245850Y-288934D01*
X245883Y-288929D01*
X245911D01*
X245928D01*
X245933D01*
X246066Y-288934D01*
X246143Y-288948D01*
X246315D01*
Y-287986D01*
X250155D01*
Y-288496D01*
X248451D01*
Y-288948D01*
X248625D01*
Y-289459D01*
X248504D01*
X248518Y-289490D01*
X248534Y-289523D01*
X248551Y-289557D01*
X248562Y-289579D01*
X248568Y-289590D01*
X248573Y-289595D01*
X248607Y-289640D01*
X248645Y-289684D01*
X248729Y-289768D01*
X248768Y-289806D01*
X248801Y-289834D01*
X248823Y-289851D01*
X248829Y-289856D01*
X248906Y-289912D01*
X248990Y-289973D01*
X248995Y-289977D01*
X250222D01*
Y-290282D01*
X250127Y-290338D01*
X250039Y-290399D01*
X249950Y-290471D01*
X249872Y-290537D01*
X249865Y-290544D01*
X250155Y-290728D01*
Y-290958D01*
X250203Y-290938D01*
X250353Y-290882D01*
X250443Y-290862D01*
Y-289257D01*
X250914D01*
Y-290817D01*
X250996Y-290827D01*
X251091Y-290844D01*
X251174Y-290866D01*
X251252Y-290893D01*
X251329Y-290921D01*
X251396Y-290954D01*
X251457Y-290982D01*
X251512Y-291016D01*
X251562Y-291049D01*
X251601Y-291077D01*
X251640Y-291104D01*
X251668Y-291126D01*
X251684Y-291143D01*
X251696Y-291154D01*
X251701Y-291160D01*
X251762Y-291226D01*
X251818Y-291293D01*
X251862Y-291365D01*
X251901Y-291437D01*
X251940Y-291510D01*
X251968Y-291582D01*
X252006Y-291715D01*
X252023Y-291776D01*
X252034Y-291831D01*
X252040Y-291881D01*
X252045Y-291926D01*
X252051Y-291959D01*
Y-292081D01*
X252040Y-292148D01*
X252020Y-292241D01*
X252841D01*
Y-292249D01*
X252844D01*
Y-290993D01*
X253294D01*
Y-292902D01*
X252852Y-292986D01*
Y-293883D01*
X252883Y-293863D01*
X252906Y-293841D01*
X252917Y-293829D01*
X252922Y-293824D01*
X253294D01*
Y-294264D01*
X253314Y-294296D01*
X253347Y-294247D01*
X253369Y-294208D01*
X253385Y-294186D01*
X253397Y-294169D01*
X253402Y-294163D01*
X253474Y-294086D01*
X253552Y-294019D01*
X253630Y-293964D01*
X253707Y-293914D01*
X253791Y-293869D01*
X253868Y-293836D01*
X253946Y-293808D01*
X254024Y-293786D01*
X254090Y-293770D01*
X254157Y-293753D01*
X254212Y-293742D01*
X254262Y-293736D01*
X254307D01*
X254335Y-293731D01*
X254362D01*
X254490Y-293736D01*
X254607Y-293758D01*
X254712Y-293780D01*
X254806Y-293814D01*
X254878Y-293842D01*
X254934Y-293869D01*
X254956Y-293875D01*
X254973Y-293886D01*
X254978Y-293892D01*
X254984D01*
X255078Y-293958D01*
X255167Y-294036D01*
X255239Y-294113D01*
X255300Y-294191D01*
X255350Y-294263D01*
X255383Y-294319D01*
X255395Y-294341D01*
X255406Y-294358D01*
X255411Y-294363D01*
Y-294369D01*
X255467Y-294485D01*
X255506Y-294607D01*
X255533Y-294719D01*
X255550Y-294824D01*
X255567Y-294913D01*
Y-294946D01*
X255572Y-294979D01*
Y-295007D01*
Y-295024D01*
Y-295035D01*
Y-295040D01*
X255567Y-295140D01*
X255556Y-295235D01*
X255539Y-295329D01*
X255529Y-295381D01*
X255980D01*
Y-299221D01*
X255470D01*
Y-297517D01*
X254975D01*
X254917Y-297549D01*
X254795Y-297593D01*
X254756Y-297603D01*
Y-298836D01*
X253344Y-299102D01*
Y-299987D01*
X253407Y-299963D01*
X253518Y-299930D01*
X253613Y-299908D01*
X253652Y-299902D01*
X253691D01*
X253718Y-299897D01*
X253740D01*
X253751D01*
X253757D01*
X253874Y-299902D01*
X253979Y-299919D01*
X254079Y-299946D01*
X254162Y-299974D01*
X254234Y-300008D01*
X254290Y-300030D01*
X254323Y-300052D01*
X254329Y-300058D01*
X254334D01*
X254423Y-300124D01*
X254501Y-300191D01*
X254567Y-300263D01*
X254617Y-300329D01*
X254656Y-300391D01*
X254678Y-300441D01*
X254695Y-300474D01*
X254701Y-300479D01*
Y-300485D01*
X254717Y-300535D01*
X254734Y-300596D01*
X254762Y-300718D01*
X254778Y-300851D01*
X254795Y-300973D01*
X254801Y-301090D01*
Y-301140D01*
X254806Y-301184D01*
Y-302966D01*
X250965D01*
Y-302455D01*
X252669D01*
Y-301800D01*
X252664Y-301739D01*
Y-301695D01*
X252658Y-301656D01*
X252653Y-301628D01*
Y-301606D01*
X252647Y-301595D01*
Y-301589D01*
X252619Y-301501D01*
X252603Y-301462D01*
X252586Y-301428D01*
X252569Y-301395D01*
X252558Y-301373D01*
X252553Y-301362D01*
X252547Y-301356D01*
X252514Y-301312D01*
X252475Y-301267D01*
X252392Y-301184D01*
X252353Y-301145D01*
X252320Y-301117D01*
X252297Y-301101D01*
X252292Y-301095D01*
X252214Y-301040D01*
X252131Y-300979D01*
X252042Y-300918D01*
X251959Y-300857D01*
X251881Y-300807D01*
X251820Y-300768D01*
X251798Y-300751D01*
X251781Y-300740D01*
X251770Y-300729D01*
X251765D01*
X250965Y-300224D01*
Y-300092D01*
X250938Y-300113D01*
X250866Y-300163D01*
X250810Y-300196D01*
X250788Y-300207D01*
X250771Y-300219D01*
X250766Y-300224D01*
X250760D01*
X250644Y-300280D01*
X250522Y-300318D01*
X250411Y-300346D01*
X250305Y-300363D01*
X250217Y-300379D01*
X250183D01*
X250150Y-300385D01*
X250122D01*
X250106D01*
X250098D01*
X250111Y-300418D01*
X250138Y-300496D01*
X250177Y-300646D01*
X250194Y-300712D01*
X250205Y-300774D01*
X250211Y-300829D01*
X250216Y-300879D01*
X250222Y-300918D01*
Y-300973D01*
X250216Y-301079D01*
X250205Y-301173D01*
X250188Y-301268D01*
X250172Y-301356D01*
X250144Y-301434D01*
X250116Y-301512D01*
X250089Y-301584D01*
X250055Y-301645D01*
X250022Y-301700D01*
X249994Y-301750D01*
X249966Y-301789D01*
X249939Y-301828D01*
X249922Y-301856D01*
X249905Y-301872D01*
X249894Y-301884D01*
X249889Y-301889D01*
X249822Y-301950D01*
X249756Y-302006D01*
X249689Y-302050D01*
X249617Y-302089D01*
X249550Y-302128D01*
X249478Y-302155D01*
X249350Y-302194D01*
X249289Y-302211D01*
X249234Y-302222D01*
X249184Y-302228D01*
X249145Y-302233D01*
X249112Y-302239D01*
X249084D01*
X249067D01*
X249062D01*
X248934Y-302233D01*
X248817Y-302211D01*
X248712Y-302178D01*
X248623Y-302144D01*
X248551Y-302111D01*
X248496Y-302078D01*
X248462Y-302056D01*
X248457Y-302050D01*
X248451D01*
X248362Y-301972D01*
X248285Y-301889D01*
X248224Y-301800D01*
X248168Y-301717D01*
X248129Y-301639D01*
X248102Y-301573D01*
X248091Y-301551D01*
X248085Y-301534D01*
X248079Y-301523D01*
Y-301517D01*
X248035Y-301617D01*
X247985Y-301700D01*
X247935Y-301773D01*
X247885Y-301834D01*
X247841Y-301878D01*
X247808Y-301911D01*
X247785Y-301934D01*
X247774Y-301939D01*
X247696Y-301989D01*
X247619Y-302022D01*
X247541Y-302050D01*
X247509Y-302057D01*
X247511Y-302079D01*
X247516Y-302129D01*
X247522Y-302168D01*
Y-302223D01*
X247511Y-302406D01*
X247483Y-302584D01*
X247449Y-302739D01*
X247427Y-302811D01*
X247405Y-302878D01*
X247383Y-302939D01*
X247361Y-302994D01*
X247344Y-303039D01*
X247327Y-303083D01*
X247311Y-303111D01*
X247300Y-303133D01*
X247294Y-303150D01*
X247288Y-303155D01*
X247194Y-303305D01*
X247083Y-303433D01*
X246972Y-303544D01*
X246861Y-303638D01*
X246761Y-303710D01*
X246717Y-303738D01*
X246678Y-303760D01*
X246650Y-303783D01*
X246628Y-303794D01*
X246611Y-303799D01*
X246606Y-303805D01*
X246434Y-303883D01*
X246256Y-303938D01*
X246079Y-303977D01*
X245918Y-304005D01*
X245846Y-304016D01*
X245773Y-304021D01*
X245718Y-304027D01*
X245662D01*
X245623Y-304032D01*
X245590D01*
X245568D01*
X245563D01*
X245363Y-304021D01*
X245168Y-303999D01*
X244996Y-303971D01*
X244913Y-303949D01*
X244841Y-303932D01*
X244774Y-303916D01*
X244713Y-303894D01*
X244658Y-303877D01*
X244613Y-303866D01*
X244580Y-303849D01*
X244552Y-303844D01*
X244536Y-303833D01*
X244530D01*
X244364Y-303749D01*
X244214Y-303655D01*
X244086Y-303555D01*
X244036Y-303505D01*
X243986Y-303461D01*
X243942Y-303416D01*
X243903Y-303372D01*
X243870Y-303333D01*
X243847Y-303300D01*
X243825Y-303277D01*
X243809Y-303255D01*
X243803Y-303244D01*
X243798Y-303239D01*
X243753Y-303161D01*
X243714Y-303083D01*
X243653Y-302917D01*
X243647Y-302893D01*
X243634Y-302927D01*
X243612Y-302971D01*
X243590Y-303005D01*
X243573Y-303038D01*
X243562Y-303060D01*
X243551Y-303077D01*
X243540Y-303088D01*
Y-303093D01*
X243445Y-303204D01*
X243340Y-303304D01*
X243229Y-303382D01*
X243124Y-303449D01*
X243029Y-303504D01*
X242985Y-303526D01*
X242951Y-303543D01*
X242918Y-303554D01*
X242896Y-303565D01*
X242885Y-303571D01*
X242879D01*
X242796Y-303598D01*
X242702Y-303626D01*
X242513Y-303665D01*
X242313Y-303693D01*
X242125Y-303709D01*
X242041Y-303720D01*
X241958Y-303726D01*
X241886D01*
X241825Y-303732D01*
X241775D01*
X241736D01*
X241708D01*
X241703D01*
X241575D01*
X241453Y-303726D01*
X241342Y-303715D01*
X241237Y-303704D01*
X241142Y-303693D01*
X241053Y-303682D01*
X240970Y-303665D01*
X240898Y-303648D01*
X240837Y-303632D01*
X240781Y-303621D01*
X240732Y-303604D01*
X240693Y-303593D01*
X240665Y-303582D01*
X240643Y-303571D01*
X240632Y-303565D01*
X240626D01*
X240493Y-303499D01*
X240376Y-303426D01*
X240276Y-303343D01*
X240193Y-303271D01*
X240132Y-303199D01*
X240088Y-303143D01*
X240071Y-303121D01*
X240060Y-303104D01*
X240049Y-303099D01*
Y-303093D01*
X239982Y-302977D01*
X239932Y-302860D01*
X239894Y-302744D01*
X239871Y-302638D01*
X239855Y-302544D01*
X239849Y-302505D01*
Y-302477D01*
X239844Y-302450D01*
Y-302411D01*
X239849Y-302316D01*
X239860Y-302228D01*
X239864Y-302205D01*
X237216D01*
Y-301695D01*
X238919D01*
Y-301040D01*
X238914Y-300979D01*
Y-300935D01*
X238908Y-300896D01*
X238903Y-300868D01*
Y-300846D01*
X238897Y-300835D01*
Y-300829D01*
X238870Y-300740D01*
X238853Y-300701D01*
X238836Y-300668D01*
X238820Y-300635D01*
X238808Y-300613D01*
X238803Y-300602D01*
X238797Y-300596D01*
X238764Y-300552D01*
X238725Y-300507D01*
X238642Y-300424D01*
X238603Y-300385D01*
X238570Y-300357D01*
X238548Y-300341D01*
X238542Y-300335D01*
X238495Y-300302D01*
X238116D01*
X238062Y-300438D01*
X238034Y-300504D01*
X238001Y-300560D01*
X237968Y-300615D01*
X237940Y-300660D01*
X237907Y-300698D01*
X237884Y-300732D01*
X237862Y-300760D01*
X237845Y-300776D01*
X237834Y-300787D01*
X237829Y-300793D01*
X237762Y-300854D01*
X237690Y-300904D01*
X237612Y-300948D01*
X237535Y-300987D01*
X237463Y-301015D01*
X237385Y-301043D01*
X237235Y-301081D01*
X237168Y-301098D01*
X237107Y-301109D01*
X237052Y-301115D01*
X237002Y-301120D01*
X236963Y-301126D01*
X236908D01*
X236802Y-301120D01*
X236708Y-301109D01*
X236613Y-301093D01*
X236525Y-301076D01*
X236447Y-301048D01*
X236369Y-301020D01*
X236297Y-300993D01*
X236236Y-300959D01*
X236180Y-300926D01*
X236131Y-300898D01*
X236092Y-300871D01*
X236053Y-300843D01*
X236025Y-300826D01*
X236009Y-300810D01*
X235997Y-300798D01*
X235992Y-300793D01*
X235931Y-300726D01*
X235875Y-300660D01*
X235831Y-300593D01*
X235792Y-300521D01*
X235753Y-300454D01*
X235725Y-300382D01*
X235687Y-300255D01*
X235670Y-300194D01*
X235659Y-300138D01*
X235653Y-300088D01*
X235648Y-300049D01*
X235642Y-300016D01*
Y-299988D01*
Y-299972D01*
Y-299966D01*
X235648Y-299838D01*
X235670Y-299722D01*
X235703Y-299616D01*
X235736Y-299528D01*
X235770Y-299455D01*
X235803Y-299400D01*
X235825Y-299366D01*
X235831Y-299361D01*
Y-299355D01*
X235909Y-299267D01*
X235992Y-299189D01*
X236081Y-299128D01*
X236164Y-299072D01*
X236242Y-299033D01*
X236308Y-299006D01*
X236330Y-298995D01*
X236347Y-298989D01*
X236358Y-298984D01*
X236364D01*
X236264Y-298939D01*
X236180Y-298889D01*
X236108Y-298839D01*
X236047Y-298789D01*
X236003Y-298745D01*
X235970Y-298712D01*
X235947Y-298689D01*
X235942Y-298678D01*
X235892Y-298601D01*
X235859Y-298523D01*
X235831Y-298445D01*
X235814Y-298368D01*
X235803Y-298306D01*
X235798Y-298256D01*
Y-298223D01*
Y-298218D01*
Y-298212D01*
X235803Y-298134D01*
X235809Y-298062D01*
X235847Y-297923D01*
X235897Y-297801D01*
X235953Y-297696D01*
X235986Y-297646D01*
X235384D01*
X235282Y-297660D01*
X235166Y-297666D01*
X235116D01*
X235071Y-297671D01*
X233290D01*
Y-293830D01*
X233801D01*
Y-295534D01*
X234455D01*
X234517Y-295529D01*
X234561D01*
X234600Y-295523D01*
X234628Y-295518D01*
X234650D01*
X234661Y-295512D01*
X234666D01*
X234755Y-295484D01*
X234793Y-295468D01*
Y-295076D01*
X234801D01*
X234798Y-295065D01*
X234787Y-294999D01*
X234782Y-294938D01*
X234776Y-294893D01*
Y-294866D01*
Y-294854D01*
X234782Y-294771D01*
X234793Y-294693D01*
X234804Y-294616D01*
X234826Y-294549D01*
X234881Y-294416D01*
X234937Y-294311D01*
X234970Y-294261D01*
X234998Y-294222D01*
X235026Y-294183D01*
X235053Y-294155D01*
X235076Y-294133D01*
X235087Y-294111D01*
X235098Y-294105D01*
X235104Y-294100D01*
X235164Y-294044D01*
X235231Y-293994D01*
X235303Y-293955D01*
X235314Y-293950D01*
Y-292590D01*
X235697D01*
X236012Y-293034D01*
X236011Y-293029D01*
X236006Y-292985D01*
X236000Y-292946D01*
Y-292918D01*
Y-292902D01*
Y-292896D01*
X236000Y-292892D01*
X235980Y-292848D01*
X235958Y-292776D01*
X235936Y-292709D01*
X235919Y-292643D01*
X235908Y-292582D01*
X235897Y-292526D01*
X235892Y-292482D01*
X235886Y-292443D01*
Y-292388D01*
X235897Y-292238D01*
X235919Y-292099D01*
X235958Y-291982D01*
X235971Y-291949D01*
Y-291904D01*
X235965Y-291843D01*
Y-291793D01*
Y-291754D01*
Y-291727D01*
Y-291721D01*
Y-291593D01*
X235971Y-291471D01*
X235982Y-291360D01*
X235993Y-291255D01*
X236004Y-291160D01*
X236015Y-291072D01*
X236032Y-290988D01*
X236049Y-290916D01*
X236065Y-290855D01*
X236076Y-290800D01*
X236093Y-290750D01*
X236104Y-290711D01*
X236115Y-290683D01*
X236126Y-290661D01*
X236132Y-290650D01*
Y-290644D01*
X236183Y-290542D01*
Y-290404D01*
X236265D01*
X236271Y-290395D01*
X236354Y-290295D01*
X236426Y-290211D01*
X236498Y-290150D01*
X236554Y-290106D01*
X236576Y-290089D01*
X236593Y-290078D01*
X236598Y-290067D01*
X236604D01*
X236720Y-290001D01*
X236837Y-289951D01*
X236953Y-289912D01*
X237059Y-289890D01*
X237153Y-289873D01*
X237192Y-289867D01*
X237216D01*
Y-288948D01*
X237671D01*
Y-289931D01*
X237786Y-289978D01*
X237852Y-290006D01*
X237908Y-290039D01*
X237964Y-290078D01*
X238008Y-290106D01*
X238052Y-290139D01*
X238086Y-290167D01*
X238113Y-290189D01*
X238130Y-290206D01*
X238141Y-290217D01*
X238147Y-290223D01*
X238208Y-290289D01*
X238221Y-290311D01*
X238287Y-290230D01*
X238320Y-290191D01*
X238353Y-290158D01*
X238376Y-290130D01*
X238392Y-290108D01*
X238403Y-290097D01*
X238409Y-290091D01*
X238413Y-290087D01*
X238368Y-290060D01*
X238313Y-290027D01*
X238263Y-289994D01*
X238224Y-289960D01*
X238185Y-289932D01*
X238157Y-289905D01*
X238135Y-289888D01*
X238118Y-289871D01*
X238107Y-289860D01*
X238102Y-289855D01*
X238052Y-289788D01*
X238002Y-289721D01*
X237963Y-289655D01*
X237930Y-289583D01*
X237874Y-289444D01*
X237841Y-289311D01*
X237830Y-289250D01*
X237819Y-289194D01*
X237813Y-289144D01*
X237807Y-289100D01*
X237802Y-289067D01*
Y-289017D01*
X237807Y-288911D01*
X237819Y-288817D01*
X237835Y-288722D01*
X237857Y-288634D01*
X237885Y-288550D01*
X237913Y-288478D01*
X237946Y-288406D01*
X237980Y-288345D01*
X238007Y-288284D01*
X238040Y-288234D01*
X238068Y-288190D01*
X238096Y-288156D01*
X238118Y-288129D01*
X238135Y-288106D01*
X238146Y-288095D01*
X238152Y-288090D01*
X238218Y-288023D01*
X238290Y-287968D01*
X238362Y-287918D01*
X238435Y-287873D01*
X238501Y-287840D01*
X238573Y-287807D01*
X238706Y-287762D01*
X238768Y-287751D01*
X238823Y-287740D01*
X238873Y-287729D01*
X238917Y-287723D01*
X238951Y-287718D01*
X238979D01*
X238995D01*
X239001D01*
X239134Y-287723D01*
D02*
G37*
G36*
X170698Y-203829D02*
X170848Y-203856D01*
X170976Y-203901D01*
X171087Y-203945D01*
X171137Y-203973D01*
X171176Y-203995D01*
X171214Y-204017D01*
X171242Y-204039D01*
X171264Y-204056D01*
X171281Y-204067D01*
X171292Y-204073D01*
X171298Y-204078D01*
X171403Y-204184D01*
X171486Y-204300D01*
X171553Y-204422D01*
X171608Y-204544D01*
X171642Y-204650D01*
X171658Y-204694D01*
X171669Y-204733D01*
X171675Y-204766D01*
X171680Y-204789D01*
X171686Y-204805D01*
Y-204811D01*
X171214Y-204894D01*
X171192Y-204772D01*
X171159Y-204666D01*
X171120Y-204578D01*
X171081Y-204506D01*
X171042Y-204450D01*
X171009Y-204411D01*
X170987Y-204383D01*
X170981Y-204378D01*
X170909Y-204322D01*
X170831Y-204278D01*
X170759Y-204250D01*
X170687Y-204228D01*
X170621Y-204217D01*
X170571Y-204206D01*
X170526D01*
X170426Y-204211D01*
X170337Y-204234D01*
X170260Y-204261D01*
X170193Y-204289D01*
X170143Y-204322D01*
X170104Y-204350D01*
X170077Y-204372D01*
X170071Y-204378D01*
X170010Y-204445D01*
X169966Y-204517D01*
X169938Y-204589D01*
X169916Y-204655D01*
X169904Y-204716D01*
X169893Y-204761D01*
Y-204794D01*
Y-204800D01*
Y-204805D01*
Y-204866D01*
X169904Y-204922D01*
X169932Y-205016D01*
X169971Y-205099D01*
X170016Y-205172D01*
X170060Y-205222D01*
X170099Y-205260D01*
X170126Y-205283D01*
X170132Y-205288D01*
X170138D01*
X170232Y-205338D01*
X170321Y-205377D01*
X170415Y-205405D01*
X170498Y-205421D01*
X170571Y-205432D01*
X170632Y-205444D01*
X170704D01*
X170726Y-205438D01*
X170754D01*
X170809Y-205854D01*
X170737Y-205838D01*
X170670Y-205826D01*
X170615Y-205815D01*
X170565Y-205810D01*
X170526Y-205804D01*
X170476D01*
X170360Y-205815D01*
X170254Y-205838D01*
X170160Y-205871D01*
X170082Y-205910D01*
X170021Y-205949D01*
X169977Y-205982D01*
X169949Y-206004D01*
X169938Y-206015D01*
X169866Y-206098D01*
X169810Y-206187D01*
X169771Y-206276D01*
X169749Y-206365D01*
X169732Y-206437D01*
X169727Y-206498D01*
X169721Y-206520D01*
Y-206537D01*
Y-206548D01*
Y-206554D01*
X169732Y-206676D01*
X169760Y-206787D01*
X169793Y-206881D01*
X169838Y-206964D01*
X169882Y-207031D01*
X169916Y-207081D01*
X169943Y-207114D01*
X169955Y-207125D01*
X170043Y-207203D01*
X170138Y-207258D01*
X170232Y-207297D01*
X170321Y-207325D01*
X170398Y-207342D01*
X170459Y-207347D01*
X170482Y-207353D01*
X170515D01*
X170615Y-207347D01*
X170709Y-207325D01*
X170792Y-207297D01*
X170859Y-207264D01*
X170915Y-207236D01*
X170959Y-207208D01*
X170981Y-207186D01*
X170992Y-207181D01*
X171059Y-207103D01*
X171114Y-207014D01*
X171164Y-206920D01*
X171203Y-206820D01*
X171231Y-206737D01*
X171242Y-206698D01*
X171248Y-206664D01*
X171253Y-206637D01*
X171259Y-206615D01*
X171264Y-206604D01*
Y-206598D01*
X171736Y-206659D01*
X171725Y-206748D01*
X171708Y-206831D01*
X171658Y-206986D01*
X171597Y-207120D01*
X171564Y-207175D01*
X171531Y-207231D01*
X171497Y-207281D01*
X171464Y-207319D01*
X171436Y-207358D01*
X171409Y-207386D01*
X171392Y-207408D01*
X171375Y-207425D01*
X171364Y-207436D01*
X171359Y-207441D01*
X171292Y-207491D01*
X171225Y-207541D01*
X171159Y-207580D01*
X171087Y-207614D01*
X170948Y-207669D01*
X170815Y-207702D01*
X170754Y-207714D01*
X170698Y-207725D01*
X170648Y-207730D01*
X170604Y-207736D01*
X170571Y-207741D01*
X170521D01*
X170415Y-207736D01*
X170321Y-207725D01*
X170226Y-207708D01*
X170138Y-207686D01*
X170054Y-207658D01*
X169982Y-207630D01*
X169910Y-207597D01*
X169849Y-207564D01*
X169788Y-207536D01*
X169738Y-207503D01*
X169694Y-207475D01*
X169660Y-207447D01*
X169633Y-207425D01*
X169610Y-207408D01*
X169599Y-207397D01*
X169594Y-207392D01*
X169527Y-207325D01*
X169472Y-207253D01*
X169422Y-207181D01*
X169377Y-207108D01*
X169344Y-207042D01*
X169311Y-206970D01*
X169266Y-206837D01*
X169255Y-206775D01*
X169244Y-206720D01*
X169233Y-206670D01*
X169227Y-206626D01*
X169222Y-206592D01*
Y-206565D01*
Y-206548D01*
Y-206542D01*
X169227Y-206409D01*
X169250Y-206287D01*
X169283Y-206182D01*
X169316Y-206093D01*
X169350Y-206021D01*
X169383Y-205965D01*
X169405Y-205932D01*
X169411Y-205921D01*
X169488Y-205838D01*
X169571Y-205765D01*
X169660Y-205710D01*
X169749Y-205665D01*
X169827Y-205632D01*
X169888Y-205610D01*
X169910Y-205605D01*
X169927Y-205599D01*
X169938Y-205593D01*
X169943D01*
X169849Y-205543D01*
X169771Y-205493D01*
X169705Y-205438D01*
X169649Y-205388D01*
X169605Y-205344D01*
X169571Y-205305D01*
X169555Y-205283D01*
X169549Y-205272D01*
X169505Y-205194D01*
X169472Y-205116D01*
X169444Y-205038D01*
X169427Y-204966D01*
X169416Y-204905D01*
X169411Y-204861D01*
Y-204827D01*
Y-204816D01*
X169416Y-204722D01*
X169433Y-204628D01*
X169455Y-204544D01*
X169483Y-204472D01*
X169510Y-204411D01*
X169533Y-204361D01*
X169549Y-204333D01*
X169555Y-204322D01*
X169610Y-204239D01*
X169677Y-204167D01*
X169744Y-204106D01*
X169810Y-204050D01*
X169866Y-204012D01*
X169916Y-203978D01*
X169949Y-203962D01*
X169955Y-203956D01*
X169960D01*
X170060Y-203912D01*
X170160Y-203878D01*
X170260Y-203851D01*
X170349Y-203834D01*
X170421Y-203823D01*
X170482Y-203817D01*
X170621D01*
X170698Y-203829D01*
D02*
G37*
G36*
X172890Y-206481D02*
Y-206598D01*
X172901Y-206698D01*
X172907Y-206781D01*
X172918Y-206848D01*
X172929Y-206898D01*
X172935Y-206937D01*
X172946Y-206959D01*
Y-206964D01*
X172968Y-207020D01*
X172996Y-207064D01*
X173029Y-207103D01*
X173057Y-207142D01*
X173090Y-207164D01*
X173112Y-207186D01*
X173129Y-207197D01*
X173135Y-207203D01*
X173190Y-207231D01*
X173246Y-207253D01*
X173301Y-207264D01*
X173351Y-207275D01*
X173401Y-207281D01*
X173434Y-207286D01*
X173468D01*
X173556Y-207281D01*
X173640Y-207258D01*
X173706Y-207236D01*
X173767Y-207203D01*
X173812Y-207175D01*
X173845Y-207147D01*
X173867Y-207131D01*
X173873Y-207125D01*
X173900Y-207092D01*
X173923Y-207053D01*
X173956Y-206964D01*
X173989Y-206864D01*
X174006Y-206764D01*
X174023Y-206670D01*
Y-206631D01*
X174028Y-206598D01*
X174034Y-206565D01*
Y-206542D01*
Y-206531D01*
Y-206526D01*
X174494Y-206592D01*
Y-206698D01*
X174489Y-206792D01*
X174472Y-206887D01*
X174461Y-206970D01*
X174439Y-207048D01*
X174417Y-207114D01*
X174395Y-207181D01*
X174372Y-207236D01*
X174345Y-207286D01*
X174322Y-207330D01*
X174300Y-207369D01*
X174278Y-207397D01*
X174261Y-207419D01*
X174250Y-207441D01*
X174245Y-207447D01*
X174239Y-207453D01*
X174184Y-207503D01*
X174128Y-207547D01*
X174067Y-207586D01*
X174000Y-207619D01*
X173873Y-207669D01*
X173751Y-207702D01*
X173634Y-207725D01*
X173590Y-207730D01*
X173545Y-207736D01*
X173512Y-207741D01*
X173462D01*
X173340Y-207736D01*
X173229Y-207719D01*
X173129Y-207697D01*
X173040Y-207669D01*
X172968Y-207647D01*
X172918Y-207625D01*
X172885Y-207608D01*
X172874Y-207603D01*
X172785Y-207547D01*
X172707Y-207480D01*
X172646Y-207414D01*
X172591Y-207353D01*
X172552Y-207292D01*
X172524Y-207247D01*
X172508Y-207214D01*
X172502Y-207208D01*
Y-207203D01*
X172463Y-207092D01*
X172430Y-206975D01*
X172408Y-206848D01*
X172397Y-206726D01*
X172385Y-206620D01*
Y-206576D01*
X172380Y-206531D01*
Y-206498D01*
Y-206476D01*
Y-206459D01*
Y-206454D01*
Y-203834D01*
X172890D01*
Y-206481D01*
D02*
G37*
G36*
X127910Y-311123D02*
X127971Y-311212D01*
X128043Y-311300D01*
X128110Y-311378D01*
X128176Y-311445D01*
X128226Y-311500D01*
X128248Y-311517D01*
X128265Y-311533D01*
X128271Y-311539D01*
X128276Y-311545D01*
X128393Y-311639D01*
X128509Y-311728D01*
X128620Y-311806D01*
X128731Y-311866D01*
X128826Y-311922D01*
X128865Y-311944D01*
X128898Y-311961D01*
X128926Y-311978D01*
X128948Y-311983D01*
X128959Y-311994D01*
X128964D01*
Y-312449D01*
X128881Y-312416D01*
X128798Y-312377D01*
X128715Y-312338D01*
X128637Y-312299D01*
X128570Y-312266D01*
X128515Y-312238D01*
X128481Y-312216D01*
X128476Y-312211D01*
X128470D01*
X128370Y-312150D01*
X128282Y-312088D01*
X128204Y-312033D01*
X128143Y-311983D01*
X128087Y-311944D01*
X128054Y-311911D01*
X128026Y-311889D01*
X128021Y-311883D01*
Y-314886D01*
X127549D01*
Y-311029D01*
X127854D01*
X127910Y-311123D01*
D02*
G37*
G36*
X132999Y-313265D02*
Y-313376D01*
X132994Y-313482D01*
X132988Y-313581D01*
X132977Y-313676D01*
X132966Y-313759D01*
X132955Y-313837D01*
X132938Y-313909D01*
X132927Y-313976D01*
X132916Y-314037D01*
X132899Y-314087D01*
X132888Y-314131D01*
X132877Y-314164D01*
X132866Y-314192D01*
X132861Y-314214D01*
X132855Y-314225D01*
Y-314231D01*
X132794Y-314353D01*
X132716Y-314464D01*
X132639Y-314553D01*
X132555Y-314630D01*
X132483Y-314691D01*
X132422Y-314736D01*
X132400Y-314747D01*
X132383Y-314758D01*
X132372Y-314769D01*
X132367D01*
X132228Y-314830D01*
X132083Y-314875D01*
X131934Y-314908D01*
X131795Y-314930D01*
X131734Y-314936D01*
X131673Y-314941D01*
X131617Y-314947D01*
X131573D01*
X131534Y-314952D01*
X131484D01*
X131284Y-314941D01*
X131195Y-314930D01*
X131112Y-314919D01*
X131029Y-314902D01*
X130957Y-314886D01*
X130890Y-314869D01*
X130829Y-314847D01*
X130774Y-314825D01*
X130729Y-314808D01*
X130685Y-314791D01*
X130652Y-314775D01*
X130624Y-314758D01*
X130607Y-314753D01*
X130596Y-314741D01*
X130590D01*
X130468Y-314658D01*
X130368Y-314564D01*
X130291Y-314475D01*
X130224Y-314386D01*
X130174Y-314309D01*
X130141Y-314247D01*
X130130Y-314225D01*
X130119Y-314209D01*
X130113Y-314197D01*
Y-314192D01*
X130091Y-314125D01*
X130069Y-314053D01*
X130035Y-313903D01*
X130013Y-313748D01*
X129997Y-313598D01*
X129991Y-313531D01*
X129986Y-313465D01*
Y-313409D01*
X129980Y-313359D01*
Y-313321D01*
Y-313293D01*
Y-313271D01*
Y-313265D01*
Y-311045D01*
X130491D01*
Y-313265D01*
Y-313393D01*
X130502Y-313515D01*
X130513Y-313620D01*
X130529Y-313720D01*
X130546Y-313809D01*
X130568Y-313892D01*
X130585Y-313964D01*
X130607Y-314025D01*
X130629Y-314075D01*
X130652Y-314125D01*
X130674Y-314159D01*
X130690Y-314192D01*
X130707Y-314214D01*
X130718Y-314231D01*
X130724Y-314236D01*
X130729Y-314242D01*
X130779Y-314286D01*
X130835Y-314325D01*
X130957Y-314386D01*
X131085Y-314431D01*
X131218Y-314458D01*
X131340Y-314481D01*
X131390Y-314486D01*
X131440D01*
X131473Y-314492D01*
X131528D01*
X131645Y-314486D01*
X131751Y-314470D01*
X131850Y-314453D01*
X131928Y-314425D01*
X131995Y-314403D01*
X132045Y-314386D01*
X132072Y-314370D01*
X132083Y-314364D01*
X132161Y-314314D01*
X132228Y-314253D01*
X132283Y-314192D01*
X132322Y-314137D01*
X132355Y-314081D01*
X132383Y-314042D01*
X132394Y-314014D01*
X132400Y-314003D01*
X132416Y-313953D01*
X132428Y-313903D01*
X132450Y-313787D01*
X132466Y-313665D01*
X132477Y-313543D01*
X132483Y-313437D01*
Y-313387D01*
X132489Y-313348D01*
Y-313315D01*
Y-313287D01*
Y-313271D01*
Y-313265D01*
Y-311045D01*
X132999D01*
Y-313265D01*
D02*
G37*
G36*
X126500Y-313531D02*
Y-313964D01*
X124830D01*
Y-314886D01*
X124358D01*
Y-313964D01*
X123836D01*
Y-313531D01*
X124358D01*
Y-311045D01*
X124741D01*
X126500Y-313531D01*
D02*
G37*
G36*
X124856Y-344864D02*
X124950Y-344869D01*
X125039Y-344886D01*
X125122Y-344902D01*
X125200Y-344925D01*
X125272Y-344947D01*
X125338Y-344975D01*
X125399Y-345002D01*
X125455Y-345030D01*
X125499Y-345058D01*
X125538Y-345080D01*
X125572Y-345102D01*
X125599Y-345119D01*
X125616Y-345136D01*
X125627Y-345141D01*
X125633Y-345147D01*
X125688Y-345202D01*
X125738Y-345263D01*
X125788Y-345330D01*
X125827Y-345396D01*
X125893Y-345530D01*
X125938Y-345663D01*
X125954Y-345724D01*
X125971Y-345785D01*
X125982Y-345835D01*
X125993Y-345879D01*
X125999Y-345918D01*
Y-345946D01*
X126004Y-345963D01*
Y-345968D01*
X125522Y-346018D01*
X125511Y-345890D01*
X125488Y-345779D01*
X125455Y-345679D01*
X125416Y-345602D01*
X125383Y-345535D01*
X125349Y-345491D01*
X125327Y-345463D01*
X125316Y-345452D01*
X125233Y-345385D01*
X125144Y-345335D01*
X125050Y-345297D01*
X124967Y-345274D01*
X124889Y-345258D01*
X124822Y-345252D01*
X124800Y-345247D01*
X124767D01*
X124650Y-345252D01*
X124545Y-345274D01*
X124456Y-345308D01*
X124378Y-345341D01*
X124317Y-345380D01*
X124278Y-345408D01*
X124251Y-345430D01*
X124240Y-345441D01*
X124173Y-345518D01*
X124123Y-345596D01*
X124084Y-345674D01*
X124062Y-345752D01*
X124045Y-345813D01*
X124040Y-345868D01*
X124034Y-345901D01*
Y-345907D01*
Y-345913D01*
X124045Y-346012D01*
X124067Y-346118D01*
X124106Y-346212D01*
X124145Y-346301D01*
X124190Y-346373D01*
X124228Y-346434D01*
X124240Y-346457D01*
X124251Y-346473D01*
X124262Y-346479D01*
Y-346484D01*
X124306Y-346545D01*
X124362Y-346606D01*
X124423Y-346673D01*
X124489Y-346740D01*
X124628Y-346873D01*
X124767Y-347006D01*
X124839Y-347067D01*
X124900Y-347123D01*
X124961Y-347172D01*
X125011Y-347217D01*
X125050Y-347250D01*
X125083Y-347278D01*
X125105Y-347294D01*
X125111Y-347300D01*
X125250Y-347417D01*
X125377Y-347528D01*
X125483Y-347627D01*
X125566Y-347711D01*
X125638Y-347783D01*
X125688Y-347833D01*
X125716Y-347866D01*
X125727Y-347872D01*
Y-347877D01*
X125805Y-347972D01*
X125866Y-348060D01*
X125921Y-348149D01*
X125966Y-348227D01*
X125999Y-348293D01*
X126021Y-348343D01*
X126032Y-348377D01*
X126038Y-348382D01*
Y-348388D01*
X126060Y-348449D01*
X126071Y-348504D01*
X126082Y-348560D01*
X126088Y-348610D01*
X126093Y-348654D01*
Y-348688D01*
Y-348710D01*
Y-348715D01*
X123546D01*
Y-348260D01*
X125438D01*
X125372Y-348166D01*
X125338Y-348127D01*
X125311Y-348088D01*
X125283Y-348055D01*
X125261Y-348033D01*
X125244Y-348016D01*
X125239Y-348010D01*
X125211Y-347983D01*
X125178Y-347955D01*
X125100Y-347883D01*
X125011Y-347800D01*
X124917Y-347716D01*
X124828Y-347644D01*
X124789Y-347611D01*
X124756Y-347578D01*
X124728Y-347555D01*
X124706Y-347539D01*
X124695Y-347528D01*
X124689Y-347522D01*
X124600Y-347444D01*
X124512Y-347372D01*
X124434Y-347300D01*
X124362Y-347239D01*
X124295Y-347178D01*
X124240Y-347123D01*
X124184Y-347073D01*
X124140Y-347028D01*
X124095Y-346984D01*
X124062Y-346950D01*
X124034Y-346923D01*
X124006Y-346895D01*
X123979Y-346862D01*
X123968Y-346850D01*
X123890Y-346756D01*
X123823Y-346673D01*
X123768Y-346590D01*
X123723Y-346523D01*
X123690Y-346462D01*
X123668Y-346418D01*
X123657Y-346390D01*
X123651Y-346379D01*
X123618Y-346295D01*
X123596Y-346212D01*
X123574Y-346135D01*
X123562Y-346068D01*
X123557Y-346007D01*
X123551Y-345963D01*
Y-345935D01*
Y-345924D01*
X123557Y-345840D01*
X123568Y-345763D01*
X123579Y-345685D01*
X123601Y-345618D01*
X123657Y-345485D01*
X123712Y-345380D01*
X123746Y-345330D01*
X123773Y-345291D01*
X123801Y-345252D01*
X123829Y-345224D01*
X123851Y-345202D01*
X123862Y-345180D01*
X123873Y-345174D01*
X123879Y-345169D01*
X123940Y-345113D01*
X124006Y-345063D01*
X124079Y-345025D01*
X124151Y-344991D01*
X124295Y-344936D01*
X124439Y-344897D01*
X124500Y-344886D01*
X124561Y-344875D01*
X124617Y-344869D01*
X124661Y-344864D01*
X124700Y-344858D01*
X124756D01*
X124856Y-344864D01*
D02*
G37*
G36*
X127597Y-344952D02*
X127658Y-345041D01*
X127731Y-345130D01*
X127797Y-345208D01*
X127864Y-345274D01*
X127914Y-345330D01*
X127936Y-345346D01*
X127953Y-345363D01*
X127958Y-345369D01*
X127964Y-345374D01*
X128080Y-345469D01*
X128197Y-345557D01*
X128308Y-345635D01*
X128419Y-345696D01*
X128513Y-345752D01*
X128552Y-345774D01*
X128585Y-345791D01*
X128613Y-345807D01*
X128635Y-345813D01*
X128646Y-345824D01*
X128652D01*
Y-346279D01*
X128568Y-346246D01*
X128485Y-346207D01*
X128402Y-346168D01*
X128324Y-346129D01*
X128258Y-346096D01*
X128202Y-346068D01*
X128169Y-346046D01*
X128163Y-346040D01*
X128158D01*
X128058Y-345979D01*
X127969Y-345918D01*
X127891Y-345863D01*
X127830Y-345813D01*
X127775Y-345774D01*
X127742Y-345741D01*
X127714Y-345718D01*
X127708Y-345713D01*
Y-348715D01*
X127236D01*
Y-344858D01*
X127542D01*
X127597Y-344952D01*
D02*
G37*
G36*
X132687Y-347095D02*
Y-347206D01*
X132681Y-347311D01*
X132676Y-347411D01*
X132664Y-347505D01*
X132653Y-347589D01*
X132642Y-347666D01*
X132626Y-347739D01*
X132615Y-347805D01*
X132603Y-347866D01*
X132587Y-347916D01*
X132576Y-347960D01*
X132564Y-347994D01*
X132553Y-348022D01*
X132548Y-348044D01*
X132542Y-348055D01*
Y-348060D01*
X132481Y-348183D01*
X132404Y-348293D01*
X132326Y-348382D01*
X132243Y-348460D01*
X132170Y-348521D01*
X132109Y-348566D01*
X132087Y-348577D01*
X132071Y-348588D01*
X132060Y-348599D01*
X132054D01*
X131915Y-348660D01*
X131771Y-348704D01*
X131621Y-348738D01*
X131482Y-348760D01*
X131421Y-348765D01*
X131360Y-348771D01*
X131305Y-348776D01*
X131260D01*
X131221Y-348782D01*
X131172D01*
X130972Y-348771D01*
X130883Y-348760D01*
X130800Y-348749D01*
X130716Y-348732D01*
X130644Y-348715D01*
X130578Y-348699D01*
X130517Y-348676D01*
X130461Y-348654D01*
X130417Y-348638D01*
X130372Y-348621D01*
X130339Y-348604D01*
X130311Y-348588D01*
X130295Y-348582D01*
X130283Y-348571D01*
X130278D01*
X130156Y-348488D01*
X130056Y-348393D01*
X129978Y-348305D01*
X129912Y-348216D01*
X129862Y-348138D01*
X129828Y-348077D01*
X129817Y-348055D01*
X129806Y-348038D01*
X129801Y-348027D01*
Y-348022D01*
X129778Y-347955D01*
X129756Y-347883D01*
X129723Y-347733D01*
X129701Y-347578D01*
X129684Y-347428D01*
X129678Y-347361D01*
X129673Y-347294D01*
Y-347239D01*
X129667Y-347189D01*
Y-347150D01*
Y-347123D01*
Y-347100D01*
Y-347095D01*
Y-344875D01*
X130178D01*
Y-347095D01*
Y-347222D01*
X130189Y-347344D01*
X130200Y-347450D01*
X130217Y-347550D01*
X130234Y-347639D01*
X130256Y-347722D01*
X130272Y-347794D01*
X130295Y-347855D01*
X130317Y-347905D01*
X130339Y-347955D01*
X130361Y-347988D01*
X130378Y-348022D01*
X130394Y-348044D01*
X130406Y-348060D01*
X130411Y-348066D01*
X130417Y-348072D01*
X130467Y-348116D01*
X130522Y-348155D01*
X130644Y-348216D01*
X130772Y-348260D01*
X130905Y-348288D01*
X131027Y-348310D01*
X131077Y-348316D01*
X131127D01*
X131160Y-348321D01*
X131216D01*
X131332Y-348316D01*
X131438Y-348299D01*
X131538Y-348282D01*
X131615Y-348255D01*
X131682Y-348233D01*
X131732Y-348216D01*
X131760Y-348199D01*
X131771Y-348194D01*
X131849Y-348144D01*
X131915Y-348083D01*
X131971Y-348022D01*
X132009Y-347966D01*
X132043Y-347911D01*
X132071Y-347872D01*
X132082Y-347844D01*
X132087Y-347833D01*
X132104Y-347783D01*
X132115Y-347733D01*
X132137Y-347616D01*
X132154Y-347494D01*
X132165Y-347372D01*
X132170Y-347267D01*
Y-347217D01*
X132176Y-347178D01*
Y-347145D01*
Y-347117D01*
Y-347100D01*
Y-347095D01*
Y-344875D01*
X132687D01*
Y-347095D01*
D02*
G37*
G36*
X-109258Y-232367D02*
X-109335Y-232478D01*
X-109407Y-232578D01*
X-109480Y-232661D01*
X-109541Y-232739D01*
X-109596Y-232794D01*
X-109641Y-232839D01*
X-109668Y-232867D01*
X-109679Y-232878D01*
X-109724Y-232911D01*
X-109774Y-232950D01*
X-109874Y-233011D01*
X-109918Y-233033D01*
X-109951Y-233055D01*
X-109974Y-233066D01*
X-109985Y-233072D01*
X-109885Y-233088D01*
X-109791Y-233105D01*
X-109707Y-233133D01*
X-109624Y-233155D01*
X-109552Y-233183D01*
X-109485Y-233216D01*
X-109424Y-233244D01*
X-109369Y-233272D01*
X-109324Y-233305D01*
X-109280Y-233333D01*
X-109247Y-233355D01*
X-109219Y-233377D01*
X-109197Y-233394D01*
X-109180Y-233410D01*
X-109174Y-233416D01*
X-109169Y-233421D01*
X-109125Y-233477D01*
X-109080Y-233533D01*
X-109013Y-233649D01*
X-108969Y-233766D01*
X-108936Y-233877D01*
X-108914Y-233971D01*
X-108908Y-234010D01*
Y-234049D01*
X-108903Y-234076D01*
Y-234099D01*
Y-234110D01*
Y-234115D01*
X-108908Y-234232D01*
X-108925Y-234337D01*
X-108952Y-234437D01*
X-108980Y-234520D01*
X-109013Y-234593D01*
X-109036Y-234648D01*
X-109058Y-234681D01*
X-109063Y-234687D01*
Y-234693D01*
X-109130Y-234781D01*
X-109197Y-234859D01*
X-109269Y-234926D01*
X-109335Y-234976D01*
X-109396Y-235014D01*
X-109446Y-235037D01*
X-109480Y-235053D01*
X-109485Y-235059D01*
X-109491D01*
X-109541Y-235075D01*
X-109602Y-235092D01*
X-109724Y-235120D01*
X-109857Y-235137D01*
X-109979Y-235153D01*
X-110096Y-235159D01*
X-110146D01*
X-110190Y-235164D01*
X-111972D01*
Y-231324D01*
X-111461D01*
Y-233028D01*
X-110806D01*
X-110745Y-233022D01*
X-110701D01*
X-110662Y-233016D01*
X-110634Y-233011D01*
X-110612D01*
X-110601Y-233005D01*
X-110595D01*
X-110506Y-232978D01*
X-110468Y-232961D01*
X-110434Y-232944D01*
X-110401Y-232928D01*
X-110379Y-232916D01*
X-110368Y-232911D01*
X-110362Y-232905D01*
X-110318Y-232872D01*
X-110273Y-232833D01*
X-110190Y-232750D01*
X-110151Y-232711D01*
X-110124Y-232678D01*
X-110107Y-232656D01*
X-110101Y-232650D01*
X-110046Y-232572D01*
X-109985Y-232489D01*
X-109924Y-232400D01*
X-109863Y-232317D01*
X-109813Y-232239D01*
X-109774Y-232178D01*
X-109757Y-232156D01*
X-109746Y-232139D01*
X-109735Y-232128D01*
Y-232123D01*
X-109230Y-231324D01*
X-108597D01*
X-109258Y-232367D01*
D02*
G37*
G36*
X-106971Y-231263D02*
X-106877Y-231274D01*
X-106782Y-231290D01*
X-106694Y-231313D01*
X-106610Y-231340D01*
X-106538Y-231368D01*
X-106466Y-231401D01*
X-106405Y-231435D01*
X-106344Y-231462D01*
X-106294Y-231496D01*
X-106250Y-231523D01*
X-106216Y-231551D01*
X-106188Y-231573D01*
X-106166Y-231590D01*
X-106155Y-231601D01*
X-106150Y-231607D01*
X-106083Y-231673D01*
X-106028Y-231745D01*
X-105978Y-231818D01*
X-105933Y-231890D01*
X-105900Y-231956D01*
X-105867Y-232029D01*
X-105822Y-232162D01*
X-105811Y-232223D01*
X-105800Y-232278D01*
X-105789Y-232328D01*
X-105783Y-232373D01*
X-105778Y-232406D01*
Y-232434D01*
Y-232450D01*
Y-232456D01*
X-105783Y-232589D01*
X-105806Y-232711D01*
X-105839Y-232817D01*
X-105872Y-232905D01*
X-105905Y-232978D01*
X-105939Y-233033D01*
X-105961Y-233066D01*
X-105966Y-233077D01*
X-106044Y-233161D01*
X-106128Y-233233D01*
X-106216Y-233288D01*
X-106305Y-233333D01*
X-106383Y-233366D01*
X-106444Y-233388D01*
X-106466Y-233394D01*
X-106483Y-233399D01*
X-106494Y-233405D01*
X-106499D01*
X-106405Y-233455D01*
X-106327Y-233505D01*
X-106261Y-233560D01*
X-106205Y-233610D01*
X-106161Y-233655D01*
X-106128Y-233694D01*
X-106111Y-233716D01*
X-106105Y-233727D01*
X-106061Y-233804D01*
X-106028Y-233882D01*
X-106000Y-233960D01*
X-105983Y-234032D01*
X-105972Y-234093D01*
X-105966Y-234138D01*
Y-234171D01*
Y-234182D01*
X-105972Y-234276D01*
X-105989Y-234371D01*
X-106011Y-234454D01*
X-106039Y-234526D01*
X-106066Y-234587D01*
X-106089Y-234637D01*
X-106105Y-234665D01*
X-106111Y-234676D01*
X-106166Y-234759D01*
X-106233Y-234831D01*
X-106299Y-234892D01*
X-106366Y-234948D01*
X-106422Y-234987D01*
X-106472Y-235020D01*
X-106505Y-235037D01*
X-106510Y-235042D01*
X-106516D01*
X-106616Y-235086D01*
X-106716Y-235120D01*
X-106816Y-235148D01*
X-106904Y-235164D01*
X-106977Y-235175D01*
X-107038Y-235181D01*
X-107176D01*
X-107254Y-235170D01*
X-107404Y-235142D01*
X-107532Y-235098D01*
X-107643Y-235053D01*
X-107693Y-235026D01*
X-107731Y-235003D01*
X-107770Y-234981D01*
X-107798Y-234959D01*
X-107820Y-234942D01*
X-107837Y-234931D01*
X-107848Y-234926D01*
X-107853Y-234920D01*
X-107959Y-234815D01*
X-108042Y-234698D01*
X-108109Y-234576D01*
X-108164Y-234454D01*
X-108198Y-234348D01*
X-108214Y-234304D01*
X-108225Y-234265D01*
X-108231Y-234232D01*
X-108237Y-234210D01*
X-108242Y-234193D01*
Y-234187D01*
X-107770Y-234104D01*
X-107748Y-234226D01*
X-107715Y-234332D01*
X-107676Y-234421D01*
X-107637Y-234493D01*
X-107598Y-234548D01*
X-107565Y-234587D01*
X-107543Y-234615D01*
X-107537Y-234620D01*
X-107465Y-234676D01*
X-107387Y-234720D01*
X-107315Y-234748D01*
X-107243Y-234770D01*
X-107176Y-234781D01*
X-107126Y-234792D01*
X-107082D01*
X-106982Y-234787D01*
X-106893Y-234765D01*
X-106816Y-234737D01*
X-106749Y-234709D01*
X-106699Y-234676D01*
X-106660Y-234648D01*
X-106632Y-234626D01*
X-106627Y-234620D01*
X-106566Y-234554D01*
X-106521Y-234482D01*
X-106494Y-234409D01*
X-106472Y-234343D01*
X-106460Y-234282D01*
X-106449Y-234237D01*
Y-234204D01*
Y-234198D01*
Y-234193D01*
Y-234132D01*
X-106460Y-234076D01*
X-106488Y-233982D01*
X-106527Y-233899D01*
X-106571Y-233827D01*
X-106616Y-233777D01*
X-106655Y-233738D01*
X-106683Y-233716D01*
X-106688Y-233710D01*
X-106694D01*
X-106788Y-233660D01*
X-106877Y-233621D01*
X-106971Y-233594D01*
X-107054Y-233577D01*
X-107126Y-233566D01*
X-107187Y-233555D01*
X-107260D01*
X-107282Y-233560D01*
X-107310D01*
X-107365Y-233144D01*
X-107293Y-233161D01*
X-107226Y-233172D01*
X-107171Y-233183D01*
X-107121Y-233189D01*
X-107082Y-233194D01*
X-107032D01*
X-106916Y-233183D01*
X-106810Y-233161D01*
X-106716Y-233127D01*
X-106638Y-233088D01*
X-106577Y-233050D01*
X-106533Y-233016D01*
X-106505Y-232994D01*
X-106494Y-232983D01*
X-106422Y-232900D01*
X-106366Y-232811D01*
X-106327Y-232722D01*
X-106305Y-232633D01*
X-106288Y-232561D01*
X-106283Y-232500D01*
X-106277Y-232478D01*
Y-232461D01*
Y-232450D01*
Y-232445D01*
X-106288Y-232323D01*
X-106316Y-232212D01*
X-106350Y-232117D01*
X-106394Y-232034D01*
X-106438Y-231967D01*
X-106472Y-231918D01*
X-106499Y-231884D01*
X-106510Y-231873D01*
X-106599Y-231795D01*
X-106694Y-231740D01*
X-106788Y-231701D01*
X-106877Y-231673D01*
X-106954Y-231657D01*
X-107016Y-231651D01*
X-107038Y-231646D01*
X-107071D01*
X-107171Y-231651D01*
X-107265Y-231673D01*
X-107349Y-231701D01*
X-107415Y-231734D01*
X-107471Y-231762D01*
X-107515Y-231790D01*
X-107537Y-231812D01*
X-107548Y-231818D01*
X-107615Y-231895D01*
X-107670Y-231984D01*
X-107720Y-232079D01*
X-107759Y-232178D01*
X-107787Y-232262D01*
X-107798Y-232300D01*
X-107804Y-232334D01*
X-107809Y-232362D01*
X-107815Y-232384D01*
X-107820Y-232395D01*
Y-232400D01*
X-108292Y-232339D01*
X-108281Y-232250D01*
X-108264Y-232167D01*
X-108214Y-232012D01*
X-108153Y-231879D01*
X-108120Y-231823D01*
X-108087Y-231768D01*
X-108053Y-231718D01*
X-108020Y-231679D01*
X-107992Y-231640D01*
X-107965Y-231612D01*
X-107948Y-231590D01*
X-107931Y-231573D01*
X-107920Y-231562D01*
X-107915Y-231557D01*
X-107848Y-231507D01*
X-107781Y-231457D01*
X-107715Y-231418D01*
X-107643Y-231385D01*
X-107504Y-231329D01*
X-107371Y-231296D01*
X-107310Y-231285D01*
X-107254Y-231274D01*
X-107204Y-231268D01*
X-107160Y-231263D01*
X-107126Y-231257D01*
X-107077D01*
X-106971Y-231263D01*
D02*
G37*
G36*
X-103908Y-231268D02*
X-103769Y-231290D01*
X-103652Y-231329D01*
X-103552Y-231368D01*
X-103469Y-231407D01*
X-103441Y-231429D01*
X-103413Y-231446D01*
X-103391Y-231457D01*
X-103375Y-231468D01*
X-103369Y-231479D01*
X-103364D01*
X-103264Y-231573D01*
X-103180Y-231673D01*
X-103108Y-231784D01*
X-103053Y-231884D01*
X-103008Y-231979D01*
X-102986Y-232017D01*
X-102975Y-232056D01*
X-102964Y-232084D01*
X-102953Y-232106D01*
X-102947Y-232117D01*
Y-232123D01*
X-102920Y-232206D01*
X-102897Y-232289D01*
X-102864Y-232467D01*
X-102836Y-232650D01*
X-102820Y-232828D01*
X-102814Y-232905D01*
X-102809Y-232978D01*
Y-233044D01*
X-102803Y-233105D01*
Y-233150D01*
Y-233189D01*
Y-233211D01*
Y-233216D01*
Y-233322D01*
X-102809Y-233421D01*
Y-233510D01*
X-102814Y-233599D01*
X-102825Y-233677D01*
X-102831Y-233755D01*
X-102836Y-233821D01*
X-102847Y-233882D01*
X-102853Y-233938D01*
X-102864Y-233988D01*
X-102870Y-234027D01*
X-102875Y-234060D01*
X-102881Y-234088D01*
X-102886Y-234104D01*
X-102892Y-234115D01*
Y-234121D01*
X-102925Y-234243D01*
X-102964Y-234354D01*
X-103008Y-234448D01*
X-103042Y-234532D01*
X-103080Y-234604D01*
X-103103Y-234654D01*
X-103125Y-234681D01*
X-103130Y-234693D01*
X-103191Y-234776D01*
X-103253Y-234848D01*
X-103319Y-234909D01*
X-103380Y-234964D01*
X-103436Y-235003D01*
X-103480Y-235031D01*
X-103508Y-235048D01*
X-103513Y-235053D01*
X-103519D01*
X-103608Y-235098D01*
X-103702Y-235125D01*
X-103791Y-235148D01*
X-103874Y-235164D01*
X-103946Y-235175D01*
X-104007Y-235181D01*
X-104057D01*
X-104207Y-235170D01*
X-104346Y-235148D01*
X-104463Y-235109D01*
X-104562Y-235070D01*
X-104646Y-235026D01*
X-104679Y-235009D01*
X-104707Y-234987D01*
X-104729Y-234976D01*
X-104745Y-234964D01*
X-104751Y-234953D01*
X-104757D01*
X-104857Y-234865D01*
X-104940Y-234759D01*
X-105012Y-234654D01*
X-105067Y-234554D01*
X-105112Y-234459D01*
X-105134Y-234421D01*
X-105145Y-234382D01*
X-105156Y-234354D01*
X-105167Y-234332D01*
X-105173Y-234321D01*
Y-234315D01*
X-105195Y-234232D01*
X-105217Y-234149D01*
X-105251Y-233965D01*
X-105278Y-233782D01*
X-105295Y-233610D01*
X-105300Y-233527D01*
X-105306Y-233455D01*
Y-233388D01*
X-105312Y-233327D01*
Y-233283D01*
Y-233244D01*
Y-233222D01*
Y-233216D01*
X-105306Y-233022D01*
X-105295Y-232839D01*
X-105278Y-232672D01*
X-105251Y-232517D01*
X-105223Y-232373D01*
X-105190Y-232245D01*
X-105156Y-232128D01*
X-105123Y-232029D01*
X-105090Y-231940D01*
X-105051Y-231862D01*
X-105023Y-231795D01*
X-104995Y-231745D01*
X-104967Y-231701D01*
X-104951Y-231673D01*
X-104940Y-231657D01*
X-104934Y-231651D01*
X-104873Y-231585D01*
X-104807Y-231523D01*
X-104734Y-231468D01*
X-104662Y-231423D01*
X-104590Y-231385D01*
X-104518Y-231351D01*
X-104446Y-231329D01*
X-104379Y-231307D01*
X-104313Y-231290D01*
X-104252Y-231279D01*
X-104196Y-231268D01*
X-104152Y-231263D01*
X-104113Y-231257D01*
X-104057D01*
X-103908Y-231268D01*
D02*
G37*
G36*
X-104163Y-213360D02*
X-104241Y-213471D01*
X-104313Y-213571D01*
X-104385Y-213654D01*
X-104446Y-213732D01*
X-104502Y-213787D01*
X-104546Y-213831D01*
X-104574Y-213859D01*
X-104585Y-213870D01*
X-104630Y-213904D01*
X-104680Y-213942D01*
X-104780Y-214003D01*
X-104824Y-214026D01*
X-104857Y-214048D01*
X-104879Y-214059D01*
X-104891Y-214065D01*
X-104791Y-214081D01*
X-104696Y-214098D01*
X-104613Y-214126D01*
X-104530Y-214148D01*
X-104458Y-214176D01*
X-104391Y-214209D01*
X-104330Y-214237D01*
X-104274Y-214264D01*
X-104230Y-214298D01*
X-104186Y-214325D01*
X-104152Y-214348D01*
X-104125Y-214370D01*
X-104102Y-214386D01*
X-104086Y-214403D01*
X-104080Y-214409D01*
X-104075Y-214414D01*
X-104030Y-214470D01*
X-103986Y-214525D01*
X-103919Y-214642D01*
X-103875Y-214758D01*
X-103841Y-214869D01*
X-103819Y-214964D01*
X-103814Y-215002D01*
Y-215041D01*
X-103808Y-215069D01*
Y-215091D01*
Y-215102D01*
Y-215108D01*
X-103814Y-215225D01*
X-103830Y-215330D01*
X-103858Y-215430D01*
X-103886Y-215513D01*
X-103919Y-215585D01*
X-103941Y-215641D01*
X-103964Y-215674D01*
X-103969Y-215680D01*
Y-215685D01*
X-104036Y-215774D01*
X-104102Y-215852D01*
X-104174Y-215918D01*
X-104241Y-215968D01*
X-104302Y-216007D01*
X-104352Y-216029D01*
X-104385Y-216046D01*
X-104391Y-216051D01*
X-104396D01*
X-104446Y-216068D01*
X-104508Y-216085D01*
X-104630Y-216112D01*
X-104763Y-216129D01*
X-104885Y-216146D01*
X-105001Y-216151D01*
X-105051D01*
X-105096Y-216157D01*
X-106877D01*
Y-212316D01*
X-106367D01*
Y-214020D01*
X-105712D01*
X-105651Y-214015D01*
X-105606D01*
X-105568Y-214009D01*
X-105540Y-214003D01*
X-105518D01*
X-105507Y-213998D01*
X-105501D01*
X-105412Y-213970D01*
X-105373Y-213953D01*
X-105340Y-213937D01*
X-105307Y-213920D01*
X-105285Y-213909D01*
X-105273Y-213904D01*
X-105268Y-213898D01*
X-105224Y-213865D01*
X-105179Y-213826D01*
X-105096Y-213743D01*
X-105057Y-213704D01*
X-105029Y-213670D01*
X-105013Y-213648D01*
X-105007Y-213643D01*
X-104952Y-213565D01*
X-104891Y-213482D01*
X-104829Y-213393D01*
X-104768Y-213310D01*
X-104718Y-213232D01*
X-104680Y-213171D01*
X-104663Y-213149D01*
X-104652Y-213132D01*
X-104641Y-213121D01*
Y-213116D01*
X-104136Y-212316D01*
X-103503D01*
X-104163Y-213360D01*
D02*
G37*
G36*
X-100722Y-212771D02*
X-102615D01*
X-102548Y-212866D01*
X-102515Y-212905D01*
X-102487Y-212943D01*
X-102460Y-212977D01*
X-102437Y-212999D01*
X-102421Y-213016D01*
X-102415Y-213021D01*
X-102387Y-213049D01*
X-102354Y-213077D01*
X-102276Y-213149D01*
X-102188Y-213232D01*
X-102093Y-213315D01*
X-102005Y-213387D01*
X-101966Y-213421D01*
X-101932Y-213454D01*
X-101905Y-213476D01*
X-101882Y-213493D01*
X-101871Y-213504D01*
X-101866Y-213509D01*
X-101777Y-213587D01*
X-101688Y-213659D01*
X-101610Y-213732D01*
X-101538Y-213793D01*
X-101472Y-213854D01*
X-101416Y-213909D01*
X-101361Y-213959D01*
X-101316Y-214003D01*
X-101272Y-214048D01*
X-101239Y-214081D01*
X-101211Y-214109D01*
X-101183Y-214137D01*
X-101155Y-214170D01*
X-101144Y-214181D01*
X-101067Y-214275D01*
X-101000Y-214359D01*
X-100944Y-214442D01*
X-100900Y-214509D01*
X-100867Y-214570D01*
X-100845Y-214614D01*
X-100833Y-214642D01*
X-100828Y-214653D01*
X-100795Y-214736D01*
X-100772Y-214819D01*
X-100750Y-214897D01*
X-100739Y-214964D01*
X-100733Y-215025D01*
X-100728Y-215069D01*
Y-215097D01*
Y-215108D01*
X-100733Y-215191D01*
X-100745Y-215269D01*
X-100756Y-215347D01*
X-100778Y-215413D01*
X-100833Y-215546D01*
X-100889Y-215652D01*
X-100922Y-215702D01*
X-100950Y-215741D01*
X-100978Y-215779D01*
X-101005Y-215807D01*
X-101028Y-215829D01*
X-101039Y-215852D01*
X-101050Y-215857D01*
X-101055Y-215863D01*
X-101117Y-215918D01*
X-101183Y-215968D01*
X-101255Y-216007D01*
X-101327Y-216040D01*
X-101472Y-216096D01*
X-101616Y-216135D01*
X-101677Y-216146D01*
X-101738Y-216157D01*
X-101794Y-216162D01*
X-101838Y-216168D01*
X-101877Y-216174D01*
X-101932D01*
X-102032Y-216168D01*
X-102127Y-216162D01*
X-102215Y-216146D01*
X-102299Y-216129D01*
X-102376Y-216107D01*
X-102448Y-216085D01*
X-102515Y-216057D01*
X-102576Y-216029D01*
X-102632Y-216002D01*
X-102676Y-215974D01*
X-102715Y-215951D01*
X-102748Y-215929D01*
X-102776Y-215913D01*
X-102793Y-215896D01*
X-102804Y-215891D01*
X-102809Y-215885D01*
X-102865Y-215829D01*
X-102915Y-215768D01*
X-102965Y-215702D01*
X-103004Y-215635D01*
X-103070Y-215502D01*
X-103114Y-215369D01*
X-103131Y-215308D01*
X-103148Y-215247D01*
X-103159Y-215197D01*
X-103170Y-215152D01*
X-103175Y-215113D01*
Y-215086D01*
X-103181Y-215069D01*
Y-215064D01*
X-102698Y-215014D01*
X-102687Y-215141D01*
X-102665Y-215252D01*
X-102632Y-215352D01*
X-102593Y-215430D01*
X-102559Y-215496D01*
X-102526Y-215541D01*
X-102504Y-215569D01*
X-102493Y-215580D01*
X-102410Y-215646D01*
X-102321Y-215696D01*
X-102226Y-215735D01*
X-102143Y-215757D01*
X-102066Y-215774D01*
X-101999Y-215779D01*
X-101977Y-215785D01*
X-101943D01*
X-101827Y-215779D01*
X-101721Y-215757D01*
X-101633Y-215724D01*
X-101555Y-215691D01*
X-101494Y-215652D01*
X-101455Y-215624D01*
X-101427Y-215602D01*
X-101416Y-215591D01*
X-101350Y-215513D01*
X-101300Y-215435D01*
X-101261Y-215358D01*
X-101239Y-215280D01*
X-101222Y-215219D01*
X-101216Y-215163D01*
X-101211Y-215130D01*
Y-215125D01*
Y-215119D01*
X-101222Y-215019D01*
X-101244Y-214914D01*
X-101283Y-214819D01*
X-101322Y-214731D01*
X-101366Y-214658D01*
X-101405Y-214597D01*
X-101416Y-214575D01*
X-101427Y-214559D01*
X-101438Y-214553D01*
Y-214547D01*
X-101483Y-214486D01*
X-101538Y-214425D01*
X-101599Y-214359D01*
X-101666Y-214292D01*
X-101805Y-214159D01*
X-101943Y-214026D01*
X-102016Y-213965D01*
X-102077Y-213909D01*
X-102138Y-213859D01*
X-102188Y-213815D01*
X-102226Y-213781D01*
X-102260Y-213754D01*
X-102282Y-213737D01*
X-102287Y-213732D01*
X-102426Y-213615D01*
X-102554Y-213504D01*
X-102659Y-213404D01*
X-102743Y-213321D01*
X-102815Y-213249D01*
X-102865Y-213199D01*
X-102892Y-213165D01*
X-102904Y-213160D01*
Y-213154D01*
X-102981Y-213060D01*
X-103042Y-212971D01*
X-103098Y-212882D01*
X-103142Y-212805D01*
X-103175Y-212738D01*
X-103198Y-212688D01*
X-103209Y-212655D01*
X-103214Y-212649D01*
Y-212644D01*
X-103237Y-212583D01*
X-103248Y-212527D01*
X-103259Y-212472D01*
X-103264Y-212422D01*
X-103270Y-212377D01*
Y-212344D01*
Y-212322D01*
Y-212316D01*
X-100722D01*
Y-212771D01*
D02*
G37*
G36*
X-98852Y-212255D02*
X-98758Y-212266D01*
X-98663Y-212283D01*
X-98575Y-212300D01*
X-98497Y-212327D01*
X-98419Y-212355D01*
X-98347Y-212383D01*
X-98286Y-212416D01*
X-98230Y-212450D01*
X-98181Y-212477D01*
X-98142Y-212505D01*
X-98103Y-212533D01*
X-98075Y-212549D01*
X-98058Y-212566D01*
X-98047Y-212577D01*
X-98042Y-212583D01*
X-97981Y-212649D01*
X-97925Y-212716D01*
X-97881Y-212783D01*
X-97842Y-212855D01*
X-97803Y-212921D01*
X-97775Y-212993D01*
X-97737Y-213121D01*
X-97720Y-213182D01*
X-97709Y-213238D01*
X-97703Y-213287D01*
X-97698Y-213326D01*
X-97692Y-213360D01*
Y-213387D01*
Y-213404D01*
Y-213410D01*
X-97698Y-213537D01*
X-97720Y-213654D01*
X-97753Y-213759D01*
X-97786Y-213848D01*
X-97820Y-213920D01*
X-97853Y-213976D01*
X-97875Y-214009D01*
X-97881Y-214015D01*
Y-214020D01*
X-97958Y-214109D01*
X-98042Y-214187D01*
X-98131Y-214248D01*
X-98214Y-214303D01*
X-98291Y-214342D01*
X-98358Y-214370D01*
X-98380Y-214381D01*
X-98397Y-214386D01*
X-98408Y-214392D01*
X-98414D01*
X-98314Y-214436D01*
X-98230Y-214486D01*
X-98158Y-214536D01*
X-98097Y-214586D01*
X-98053Y-214631D01*
X-98020Y-214664D01*
X-97997Y-214686D01*
X-97992Y-214697D01*
X-97942Y-214775D01*
X-97909Y-214853D01*
X-97881Y-214930D01*
X-97864Y-215008D01*
X-97853Y-215069D01*
X-97847Y-215119D01*
Y-215152D01*
Y-215158D01*
Y-215163D01*
X-97853Y-215241D01*
X-97859Y-215313D01*
X-97897Y-215452D01*
X-97947Y-215574D01*
X-98003Y-215680D01*
X-98058Y-215763D01*
X-98086Y-215796D01*
X-98108Y-215829D01*
X-98131Y-215852D01*
X-98147Y-215868D01*
X-98153Y-215874D01*
X-98158Y-215879D01*
X-98219Y-215929D01*
X-98280Y-215979D01*
X-98347Y-216018D01*
X-98414Y-216051D01*
X-98547Y-216101D01*
X-98680Y-216135D01*
X-98735Y-216151D01*
X-98791Y-216157D01*
X-98841Y-216162D01*
X-98885Y-216168D01*
X-98919Y-216174D01*
X-98969D01*
X-99057Y-216168D01*
X-99146Y-216162D01*
X-99302Y-216129D01*
X-99374Y-216107D01*
X-99440Y-216085D01*
X-99501Y-216057D01*
X-99557Y-216029D01*
X-99601Y-216002D01*
X-99646Y-215974D01*
X-99685Y-215951D01*
X-99712Y-215929D01*
X-99734Y-215913D01*
X-99751Y-215896D01*
X-99762Y-215891D01*
X-99768Y-215885D01*
X-99818Y-215829D01*
X-99868Y-215774D01*
X-99907Y-215713D01*
X-99940Y-215652D01*
X-99995Y-215535D01*
X-100029Y-215424D01*
X-100051Y-215330D01*
X-100056Y-215285D01*
X-100062Y-215252D01*
X-100067Y-215219D01*
Y-215197D01*
Y-215186D01*
Y-215180D01*
X-100062Y-215080D01*
X-100045Y-214986D01*
X-100023Y-214903D01*
X-99995Y-214830D01*
X-99973Y-214775D01*
X-99951Y-214731D01*
X-99934Y-214708D01*
X-99929Y-214697D01*
X-99868Y-214631D01*
X-99801Y-214570D01*
X-99729Y-214514D01*
X-99657Y-214470D01*
X-99590Y-214436D01*
X-99540Y-214414D01*
X-99518Y-214403D01*
X-99501Y-214398D01*
X-99496Y-214392D01*
X-99490D01*
X-99618Y-214353D01*
X-99723Y-214303D01*
X-99818Y-214242D01*
X-99896Y-214187D01*
X-99957Y-214131D01*
X-100001Y-214087D01*
X-100023Y-214059D01*
X-100034Y-214053D01*
Y-214048D01*
X-100095Y-213948D01*
X-100145Y-213843D01*
X-100179Y-213743D01*
X-100201Y-213643D01*
X-100212Y-213554D01*
X-100217Y-213515D01*
Y-213482D01*
X-100223Y-213460D01*
Y-213437D01*
Y-213426D01*
Y-213421D01*
X-100217Y-213332D01*
X-100206Y-213243D01*
X-100190Y-213160D01*
X-100167Y-213077D01*
X-100112Y-212938D01*
X-100084Y-212871D01*
X-100051Y-212816D01*
X-100018Y-212760D01*
X-99990Y-212716D01*
X-99957Y-212677D01*
X-99934Y-212644D01*
X-99912Y-212616D01*
X-99896Y-212599D01*
X-99884Y-212588D01*
X-99879Y-212583D01*
X-99812Y-212522D01*
X-99740Y-212472D01*
X-99662Y-212427D01*
X-99585Y-212388D01*
X-99512Y-212361D01*
X-99435Y-212333D01*
X-99285Y-212294D01*
X-99218Y-212277D01*
X-99157Y-212266D01*
X-99102Y-212261D01*
X-99052Y-212255D01*
X-99013Y-212250D01*
X-98958D01*
X-98852Y-212255D01*
D02*
G37*
G36*
X-197568Y-340439D02*
X-197462Y-340450D01*
X-197362Y-340461D01*
X-197268Y-340483D01*
X-197179Y-340511D01*
X-197096Y-340539D01*
X-197018Y-340567D01*
X-196946Y-340600D01*
X-196885Y-340628D01*
X-196824Y-340655D01*
X-196780Y-340683D01*
X-196735Y-340711D01*
X-196708Y-340733D01*
X-196680Y-340744D01*
X-196669Y-340755D01*
X-196663Y-340761D01*
X-196586Y-340827D01*
X-196519Y-340894D01*
X-196458Y-340972D01*
X-196397Y-341050D01*
X-196297Y-341205D01*
X-196219Y-341360D01*
X-196186Y-341432D01*
X-196158Y-341499D01*
X-196136Y-341560D01*
X-196119Y-341610D01*
X-196103Y-341654D01*
X-196092Y-341688D01*
X-196086Y-341710D01*
Y-341716D01*
X-196597Y-341843D01*
X-196619Y-341754D01*
X-196647Y-341671D01*
X-196674Y-341593D01*
X-196702Y-341521D01*
X-196735Y-341455D01*
X-196769Y-341399D01*
X-196808Y-341344D01*
X-196841Y-341294D01*
X-196869Y-341249D01*
X-196902Y-341216D01*
X-196930Y-341183D01*
X-196952Y-341155D01*
X-196974Y-341138D01*
X-196991Y-341122D01*
X-196996Y-341116D01*
X-197002Y-341110D01*
X-197057Y-341066D01*
X-197118Y-341033D01*
X-197240Y-340972D01*
X-197357Y-340927D01*
X-197474Y-340900D01*
X-197573Y-340877D01*
X-197612Y-340872D01*
X-197651D01*
X-197684Y-340866D01*
X-197723D01*
X-197851Y-340872D01*
X-197973Y-340894D01*
X-198084Y-340922D01*
X-198184Y-340955D01*
X-198262Y-340988D01*
X-198295Y-341005D01*
X-198323Y-341016D01*
X-198345Y-341027D01*
X-198362Y-341038D01*
X-198373Y-341044D01*
X-198378D01*
X-198484Y-341122D01*
X-198572Y-341205D01*
X-198650Y-341299D01*
X-198711Y-341388D01*
X-198761Y-341466D01*
X-198794Y-341532D01*
X-198805Y-341560D01*
X-198817Y-341577D01*
X-198822Y-341588D01*
Y-341593D01*
X-198867Y-341738D01*
X-198900Y-341882D01*
X-198928Y-342026D01*
X-198944Y-342160D01*
X-198950Y-342220D01*
X-198955Y-342276D01*
Y-342326D01*
X-198961Y-342365D01*
Y-342398D01*
Y-342426D01*
Y-342442D01*
Y-342448D01*
X-198955Y-342592D01*
X-198944Y-342726D01*
X-198922Y-342848D01*
X-198900Y-342959D01*
X-198883Y-343053D01*
X-198872Y-343092D01*
X-198861Y-343125D01*
X-198855Y-343153D01*
X-198850Y-343170D01*
X-198844Y-343181D01*
Y-343186D01*
X-198789Y-343314D01*
X-198728Y-343430D01*
X-198661Y-343525D01*
X-198589Y-343608D01*
X-198528Y-343675D01*
X-198478Y-343719D01*
X-198439Y-343747D01*
X-198434Y-343758D01*
X-198428D01*
X-198312Y-343830D01*
X-198184Y-343885D01*
X-198062Y-343924D01*
X-197945Y-343947D01*
X-197840Y-343963D01*
X-197795Y-343969D01*
X-197757D01*
X-197729Y-343974D01*
X-197684D01*
X-197546Y-343969D01*
X-197418Y-343947D01*
X-197313Y-343913D01*
X-197218Y-343880D01*
X-197146Y-343841D01*
X-197091Y-343813D01*
X-197057Y-343791D01*
X-197046Y-343780D01*
X-196957Y-343697D01*
X-196874Y-343602D01*
X-196808Y-343503D01*
X-196752Y-343403D01*
X-196708Y-343314D01*
X-196691Y-343269D01*
X-196680Y-343236D01*
X-196669Y-343208D01*
X-196658Y-343186D01*
X-196652Y-343175D01*
Y-343170D01*
X-196153Y-343286D01*
X-196186Y-343386D01*
X-196219Y-343475D01*
X-196264Y-343558D01*
X-196302Y-343641D01*
X-196347Y-343713D01*
X-196397Y-343780D01*
X-196441Y-343847D01*
X-196486Y-343902D01*
X-196530Y-343947D01*
X-196569Y-343991D01*
X-196608Y-344030D01*
X-196635Y-344058D01*
X-196663Y-344085D01*
X-196685Y-344102D01*
X-196696Y-344108D01*
X-196702Y-344113D01*
X-196780Y-344163D01*
X-196858Y-344213D01*
X-196935Y-344252D01*
X-197018Y-344285D01*
X-197185Y-344335D01*
X-197335Y-344368D01*
X-197407Y-344385D01*
X-197468Y-344391D01*
X-197529Y-344396D01*
X-197579Y-344402D01*
X-197618Y-344407D01*
X-197673D01*
X-197856Y-344396D01*
X-198034Y-344368D01*
X-198189Y-344335D01*
X-198262Y-344313D01*
X-198328Y-344291D01*
X-198389Y-344268D01*
X-198445Y-344246D01*
X-198489Y-344230D01*
X-198534Y-344213D01*
X-198561Y-344196D01*
X-198583Y-344185D01*
X-198600Y-344180D01*
X-198606Y-344174D01*
X-198756Y-344080D01*
X-198883Y-343969D01*
X-198994Y-343858D01*
X-199089Y-343747D01*
X-199161Y-343647D01*
X-199188Y-343602D01*
X-199211Y-343564D01*
X-199233Y-343536D01*
X-199244Y-343514D01*
X-199249Y-343497D01*
X-199255Y-343492D01*
X-199333Y-343319D01*
X-199388Y-343142D01*
X-199427Y-342964D01*
X-199455Y-342803D01*
X-199466Y-342731D01*
X-199471Y-342659D01*
X-199477Y-342603D01*
Y-342548D01*
X-199483Y-342509D01*
Y-342476D01*
Y-342454D01*
Y-342448D01*
X-199471Y-342248D01*
X-199449Y-342054D01*
X-199422Y-341882D01*
X-199399Y-341799D01*
X-199383Y-341727D01*
X-199366Y-341660D01*
X-199344Y-341599D01*
X-199327Y-341543D01*
X-199316Y-341499D01*
X-199300Y-341466D01*
X-199294Y-341438D01*
X-199283Y-341421D01*
Y-341416D01*
X-199200Y-341249D01*
X-199105Y-341099D01*
X-199005Y-340972D01*
X-198955Y-340922D01*
X-198911Y-340872D01*
X-198867Y-340827D01*
X-198822Y-340789D01*
X-198783Y-340755D01*
X-198750Y-340733D01*
X-198728Y-340711D01*
X-198706Y-340694D01*
X-198695Y-340689D01*
X-198689Y-340683D01*
X-198611Y-340639D01*
X-198534Y-340600D01*
X-198367Y-340539D01*
X-198201Y-340494D01*
X-198040Y-340467D01*
X-197962Y-340456D01*
X-197895Y-340444D01*
X-197834Y-340439D01*
X-197784D01*
X-197740Y-340433D01*
X-197679D01*
X-197568Y-340439D01*
D02*
G37*
G36*
X-194305D02*
X-194193Y-340456D01*
X-194088Y-340478D01*
X-193994Y-340506D01*
X-193905Y-340544D01*
X-193822Y-340583D01*
X-193744Y-340622D01*
X-193677Y-340667D01*
X-193616Y-340711D01*
X-193561Y-340750D01*
X-193516Y-340794D01*
X-193477Y-340827D01*
X-193450Y-340855D01*
X-193428Y-340877D01*
X-193417Y-340894D01*
X-193411Y-340900D01*
X-193355Y-340972D01*
X-193311Y-341050D01*
X-193267Y-341122D01*
X-193233Y-341199D01*
X-193178Y-341349D01*
X-193145Y-341494D01*
X-193133Y-341554D01*
X-193122Y-341616D01*
X-193117Y-341666D01*
X-193111Y-341710D01*
X-193106Y-341749D01*
Y-341776D01*
Y-341793D01*
Y-341799D01*
X-193111Y-341899D01*
X-193122Y-341993D01*
X-193139Y-342087D01*
X-193161Y-342171D01*
X-193189Y-342248D01*
X-193217Y-342326D01*
X-193250Y-342393D01*
X-193278Y-342454D01*
X-193311Y-342509D01*
X-193344Y-342559D01*
X-193372Y-342598D01*
X-193400Y-342637D01*
X-193422Y-342665D01*
X-193439Y-342681D01*
X-193450Y-342692D01*
X-193455Y-342698D01*
X-193522Y-342759D01*
X-193588Y-342814D01*
X-193661Y-342859D01*
X-193733Y-342898D01*
X-193805Y-342936D01*
X-193877Y-342964D01*
X-194010Y-343003D01*
X-194071Y-343020D01*
X-194127Y-343031D01*
X-194177Y-343036D01*
X-194221Y-343042D01*
X-194255Y-343047D01*
X-194377D01*
X-194443Y-343036D01*
X-194576Y-343009D01*
X-194699Y-342970D01*
X-194809Y-342925D01*
X-194898Y-342881D01*
X-194937Y-342859D01*
X-194971Y-342842D01*
X-194998Y-342826D01*
X-195015Y-342814D01*
X-195026Y-342809D01*
X-195031Y-342803D01*
X-194826Y-343841D01*
X-193289D01*
Y-344291D01*
X-195198D01*
X-195570Y-342315D01*
X-195126Y-342254D01*
X-195087Y-342315D01*
X-195037Y-342365D01*
X-194993Y-342415D01*
X-194948Y-342454D01*
X-194904Y-342481D01*
X-194871Y-342509D01*
X-194848Y-342520D01*
X-194843Y-342526D01*
X-194771Y-342559D01*
X-194699Y-342587D01*
X-194632Y-342603D01*
X-194565Y-342620D01*
X-194510Y-342626D01*
X-194465Y-342631D01*
X-194360D01*
X-194293Y-342620D01*
X-194177Y-342592D01*
X-194077Y-342553D01*
X-193988Y-342515D01*
X-193921Y-342470D01*
X-193872Y-342431D01*
X-193844Y-342404D01*
X-193833Y-342398D01*
Y-342393D01*
X-193755Y-342298D01*
X-193700Y-342198D01*
X-193661Y-342093D01*
X-193633Y-341987D01*
X-193616Y-341899D01*
X-193611Y-341860D01*
Y-341827D01*
X-193605Y-341799D01*
Y-341776D01*
Y-341765D01*
Y-341760D01*
Y-341682D01*
X-193616Y-341610D01*
X-193644Y-341471D01*
X-193683Y-341355D01*
X-193722Y-341260D01*
X-193766Y-341183D01*
X-193805Y-341122D01*
X-193822Y-341105D01*
X-193833Y-341088D01*
X-193838Y-341083D01*
X-193844Y-341077D01*
X-193888Y-341033D01*
X-193933Y-340994D01*
X-194033Y-340927D01*
X-194127Y-340883D01*
X-194221Y-340855D01*
X-194299Y-340833D01*
X-194366Y-340827D01*
X-194388Y-340822D01*
X-194421D01*
X-194527Y-340827D01*
X-194621Y-340850D01*
X-194704Y-340877D01*
X-194771Y-340911D01*
X-194832Y-340944D01*
X-194876Y-340972D01*
X-194898Y-340994D01*
X-194909Y-341000D01*
X-194976Y-341077D01*
X-195031Y-341160D01*
X-195076Y-341255D01*
X-195109Y-341338D01*
X-195131Y-341421D01*
X-195148Y-341482D01*
X-195154Y-341510D01*
X-195159Y-341527D01*
Y-341538D01*
Y-341543D01*
X-195653Y-341505D01*
X-195642Y-341416D01*
X-195625Y-341333D01*
X-195575Y-341177D01*
X-195514Y-341044D01*
X-195481Y-340983D01*
X-195448Y-340933D01*
X-195420Y-340883D01*
X-195387Y-340839D01*
X-195359Y-340805D01*
X-195331Y-340777D01*
X-195309Y-340755D01*
X-195298Y-340733D01*
X-195287Y-340728D01*
X-195281Y-340722D01*
X-195215Y-340672D01*
X-195148Y-340628D01*
X-195076Y-340589D01*
X-195004Y-340556D01*
X-194865Y-340506D01*
X-194726Y-340472D01*
X-194665Y-340456D01*
X-194604Y-340450D01*
X-194554Y-340444D01*
X-194510Y-340439D01*
X-194471Y-340433D01*
X-194421D01*
X-194305Y-340439D01*
D02*
G37*
%LPC*%
G36*
X240754Y-288389D02*
X240749D01*
X240743D01*
X240738D01*
X240677D01*
X240621Y-288401D01*
X240613Y-288403D01*
X240634Y-288400D01*
X240706Y-288394D01*
X240754Y-288389D01*
D02*
G37*
G36*
X241000Y-288905D02*
X240967D01*
X240939D01*
X240923D01*
X240917D01*
X240773Y-288910D01*
X240640Y-288921D01*
X240615Y-288926D01*
X241241D01*
X241206Y-288921D01*
X241145Y-288916D01*
X241089Y-288910D01*
X241039D01*
X241000Y-288905D01*
D02*
G37*
G36*
X248013Y-288496D02*
X246742D01*
Y-288948D01*
X248013D01*
Y-288496D01*
D02*
G37*
G36*
X246998Y-289459D02*
X246921D01*
Y-289577D01*
X246932Y-289556D01*
X246982Y-289478D01*
X246998Y-289459D01*
D02*
G37*
G36*
X241196Y-289437D02*
X240882D01*
X240906Y-289481D01*
X240940Y-289553D01*
X240964Y-289617D01*
X240965Y-289616D01*
X241038Y-289577D01*
X241093Y-289538D01*
X241132Y-289505D01*
X241160Y-289483D01*
X241165Y-289477D01*
X241196Y-289437D01*
D02*
G37*
G36*
X239023Y-288217D02*
X239006D01*
X238995D01*
X238990D01*
X238867Y-288229D01*
X238756Y-288256D01*
X238662Y-288290D01*
X238579Y-288334D01*
X238512Y-288378D01*
X238462Y-288412D01*
X238429Y-288439D01*
X238418Y-288451D01*
X238340Y-288539D01*
X238285Y-288634D01*
X238246Y-288728D01*
X238218Y-288817D01*
X238201Y-288895D01*
X238196Y-288956D01*
X238190Y-288978D01*
Y-289011D01*
X238196Y-289111D01*
X238218Y-289205D01*
X238246Y-289289D01*
X238279Y-289355D01*
X238307Y-289411D01*
X238335Y-289455D01*
X238357Y-289477D01*
X238362Y-289488D01*
X238440Y-289555D01*
X238529Y-289611D01*
X238623Y-289661D01*
X238723Y-289699D01*
X238745Y-289706D01*
X238753Y-289697D01*
X238808Y-289642D01*
X238858Y-289586D01*
X238903Y-289542D01*
X238947Y-289498D01*
X238981Y-289464D01*
X239008Y-289437D01*
X239036Y-289409D01*
X239069Y-289381D01*
X239080Y-289370D01*
X239175Y-289292D01*
X239175Y-289292D01*
X239180Y-289282D01*
X239186Y-289266D01*
X239191Y-289260D01*
X239285Y-289110D01*
X239396Y-288983D01*
X239507Y-288872D01*
X239618Y-288777D01*
X239695Y-288722D01*
X239672Y-288656D01*
X239633Y-288578D01*
X239595Y-288517D01*
X239561Y-288473D01*
X239539Y-288445D01*
X239528Y-288434D01*
X239445Y-288362D01*
X239356Y-288306D01*
X239267Y-288267D01*
X239178Y-288245D01*
X239106Y-288229D01*
X239045Y-288223D01*
X239023Y-288217D01*
D02*
G37*
G36*
X240608Y-289823D02*
Y-289909D01*
X240648Y-289923D01*
X240623Y-289858D01*
X240608Y-289823D01*
D02*
G37*
G36*
X247929Y-289661D02*
Y-289977D01*
X247982D01*
X247985Y-289962D01*
X247996Y-289873D01*
X248002Y-289784D01*
X248007Y-289706D01*
X248008Y-289702D01*
X247959Y-289672D01*
X247929Y-289661D01*
D02*
G37*
G36*
X247457Y-289640D02*
X247376Y-289678D01*
X247304Y-289722D01*
X247254Y-289767D01*
X247215Y-289806D01*
X247193Y-289833D01*
X247188Y-289839D01*
Y-289844D01*
X247138Y-289939D01*
X247121Y-289977D01*
X247457D01*
Y-289640D01*
D02*
G37*
G36*
X238962Y-290131D02*
X238925Y-290169D01*
X238886Y-290215D01*
X238884Y-290232D01*
X238873Y-290231D01*
X238864Y-290241D01*
X238808Y-290302D01*
X238758Y-290363D01*
X238714Y-290413D01*
X238681Y-290452D01*
X238653Y-290486D01*
X238636Y-290508D01*
X238631Y-290513D01*
X238514Y-290652D01*
X238427Y-290752D01*
X238446Y-290822D01*
X238453Y-290850D01*
X238501Y-290826D01*
X238573Y-290793D01*
X238706Y-290748D01*
X238768Y-290737D01*
X238823Y-290726D01*
X238873Y-290715D01*
X238917Y-290709D01*
X238951Y-290704D01*
X238979D01*
X238995D01*
X239001D01*
X239037Y-290705D01*
X239030Y-290681D01*
X238997Y-290531D01*
X238980Y-290459D01*
X238975Y-290398D01*
X238969Y-290337D01*
X238964Y-290287D01*
X238958Y-290248D01*
Y-290193D01*
X238962Y-290131D01*
D02*
G37*
G36*
X240029Y-289437D02*
X240024D01*
X240018D01*
X239918Y-289448D01*
X239813Y-289470D01*
X239719Y-289509D01*
X239630Y-289548D01*
X239558Y-289592D01*
X239504Y-289626D01*
X239480Y-289682D01*
X239441Y-289804D01*
X239419Y-289920D01*
X239402Y-290026D01*
X239396Y-290070D01*
Y-290109D01*
X239391Y-290137D01*
Y-290181D01*
X239393Y-290232D01*
X239412Y-290211D01*
X239479Y-290150D01*
X239545Y-290095D01*
X239601Y-290056D01*
X239651Y-290023D01*
X239684Y-290006D01*
X239689Y-290001D01*
X239695D01*
X239795Y-289956D01*
X239895Y-289923D01*
X239995Y-289895D01*
X240084Y-289878D01*
X240156Y-289867D01*
X240181Y-289865D01*
Y-289465D01*
X240179Y-289464D01*
X240118Y-289448D01*
X240063Y-289442D01*
X240029Y-289437D01*
D02*
G37*
G36*
X242318Y-289482D02*
Y-290091D01*
X242323Y-290153D01*
Y-290197D01*
X242329Y-290236D01*
X242329Y-290238D01*
X242376Y-290184D01*
X242448Y-290117D01*
X242478Y-290094D01*
Y-289933D01*
X242471Y-289893D01*
X242443Y-289782D01*
X242410Y-289682D01*
X242377Y-289604D01*
X242360Y-289571D01*
X242349Y-289543D01*
X242338Y-289521D01*
X242327Y-289504D01*
X242321Y-289493D01*
Y-289488D01*
X242318Y-289482D01*
D02*
G37*
G36*
X246122Y-289459D02*
X245725D01*
X245212Y-290269D01*
Y-290292D01*
X246364D01*
Y-290258D01*
X246359Y-290234D01*
X246342Y-290101D01*
X246326Y-289978D01*
X246320Y-289862D01*
Y-289812D01*
X246315Y-289768D01*
Y-289533D01*
X246288Y-289517D01*
X246200Y-289478D01*
X246122Y-289459D01*
D02*
G37*
G36*
X241879Y-289437D02*
X241655D01*
X241642Y-289472D01*
X241598Y-289583D01*
X241570Y-289633D01*
X241548Y-289672D01*
X241526Y-289710D01*
X241504Y-289738D01*
X241487Y-289760D01*
X241476Y-289777D01*
X241470Y-289788D01*
X241465Y-289794D01*
X241359Y-289899D01*
X241243Y-289982D01*
X241121Y-290049D01*
X241069Y-290073D01*
X241073Y-290103D01*
Y-290158D01*
X241073Y-290163D01*
X241138Y-290228D01*
X241221Y-290345D01*
X241227Y-290354D01*
X241879D01*
Y-289437D01*
D02*
G37*
G36*
X240608Y-290346D02*
Y-290354D01*
X240622D01*
X240608Y-290346D01*
D02*
G37*
G36*
X237216Y-290250D02*
X237170D01*
X237114Y-290261D01*
X237014Y-290289D01*
X236926Y-290328D01*
X236848Y-290367D01*
X236797Y-290404D01*
X237216D01*
Y-290250D01*
D02*
G37*
G36*
X240181Y-290255D02*
X240161Y-290256D01*
X240072Y-290278D01*
X239995Y-290306D01*
X239928Y-290334D01*
X239878Y-290367D01*
X239839Y-290395D01*
X239812Y-290417D01*
X239806Y-290422D01*
X239786Y-290445D01*
X239791Y-290443D01*
X239852Y-290426D01*
X239974Y-290399D01*
X240107Y-290382D01*
X240181Y-290372D01*
Y-290255D01*
D02*
G37*
G36*
X244425Y-290475D02*
X244403D01*
X244392D01*
X244386D01*
X244242Y-290487D01*
X244114Y-290509D01*
X244009Y-290542D01*
X243920Y-290581D01*
X243848Y-290625D01*
X243798Y-290659D01*
X243765Y-290681D01*
X243754Y-290692D01*
X243676Y-290775D01*
X243640Y-290832D01*
X244096D01*
X244132Y-290805D01*
X244177Y-290767D01*
X244260Y-290683D01*
X244299Y-290644D01*
X244326Y-290611D01*
X244343Y-290589D01*
X244349Y-290583D01*
X244404Y-290506D01*
X244426Y-290476D01*
X244425Y-290475D01*
D02*
G37*
G36*
X243615Y-290425D02*
X243570D01*
X243543D01*
X243526D01*
X243520D01*
X243409Y-290431D01*
X243304Y-290437D01*
X243210Y-290448D01*
X243121Y-290459D01*
X243049Y-290475D01*
X242993Y-290487D01*
X242989Y-290488D01*
Y-290832D01*
X243239D01*
X243243Y-290825D01*
X243249Y-290814D01*
X243304Y-290725D01*
X243365Y-290648D01*
X243426Y-290581D01*
X243482Y-290525D01*
X243537Y-290487D01*
X243576Y-290453D01*
X243604Y-290431D01*
X243615Y-290425D01*
D02*
G37*
G36*
X241711Y-290782D02*
X241405D01*
X241410Y-290811D01*
X241415Y-290832D01*
X241711D01*
Y-290782D01*
D02*
G37*
G36*
X240187Y-290819D02*
X240113Y-290837D01*
X240029Y-290870D01*
X239957Y-290904D01*
X239927Y-290923D01*
X240040Y-290913D01*
X240152Y-290891D01*
X240190Y-290878D01*
X240187Y-290819D01*
D02*
G37*
G36*
X240925Y-290809D02*
X240901Y-290857D01*
X240873Y-290902D01*
X240870Y-290907D01*
X240915Y-290915D01*
X240947Y-290923D01*
X240927Y-290816D01*
X240925Y-290809D01*
D02*
G37*
G36*
X249511Y-290953D02*
X249445Y-291048D01*
X249442Y-291053D01*
X249584Y-291061D01*
X249704Y-291075D01*
X249511Y-290953D01*
D02*
G37*
G36*
X239914Y-290931D02*
X239913Y-290931D01*
X239885Y-290954D01*
X239874Y-290959D01*
X239813Y-291025D01*
X239863Y-291058D01*
X239931Y-291096D01*
X239914Y-290931D01*
D02*
G37*
G36*
X241339Y-290870D02*
X240983Y-290933D01*
X240999Y-290937D01*
X241071Y-290965D01*
X241132Y-290992D01*
X241182Y-291015D01*
X241210Y-291031D01*
X241221Y-291037D01*
X241304Y-291092D01*
X241339Y-291125D01*
X241339D01*
Y-290870D01*
D02*
G37*
G36*
X237216Y-290854D02*
X236526D01*
X236515Y-290905D01*
X236498Y-290994D01*
X236493Y-291033D01*
Y-291072D01*
X236487Y-291099D01*
Y-291122D01*
Y-291133D01*
Y-291138D01*
X236498Y-291283D01*
X236515Y-291382D01*
X236608Y-291339D01*
X236646Y-291316D01*
X236685Y-291305D01*
X236713Y-291294D01*
X236735Y-291283D01*
X236746Y-291278D01*
X236752D01*
X236835Y-291250D01*
X236918Y-291228D01*
X237096Y-291194D01*
X237216Y-291176D01*
Y-290854D01*
D02*
G37*
G36*
X248780Y-290449D02*
X248729D01*
Y-290803D01*
X248526D01*
X248503Y-290844D01*
X248481Y-290882D01*
X248459Y-290921D01*
X248436Y-290949D01*
X248420Y-290971D01*
X248409Y-290988D01*
X248403Y-290999D01*
X248397Y-291004D01*
X248292Y-291110D01*
X248176Y-291193D01*
X248053Y-291260D01*
X247990Y-291289D01*
X248156Y-291393D01*
X248185Y-291372D01*
X248230Y-291344D01*
X248268Y-291322D01*
X248296Y-291300D01*
X248318Y-291289D01*
X248335Y-291283D01*
X248341Y-291278D01*
X248513Y-291200D01*
X248690Y-291144D01*
X248868Y-291106D01*
X248936Y-291094D01*
X248951Y-291065D01*
X248984Y-290998D01*
X249012Y-290943D01*
X249034Y-290909D01*
X249040Y-290904D01*
Y-290898D01*
X249101Y-290798D01*
X249151Y-290725D01*
X249112Y-290700D01*
X249001Y-290622D01*
X248901Y-290550D01*
X248817Y-290478D01*
X248780Y-290449D01*
D02*
G37*
G36*
X246468Y-290803D02*
X245564D01*
X245574Y-290825D01*
X245594Y-290886D01*
X245656Y-290910D01*
X245739Y-290938D01*
X245778Y-290949D01*
X245811Y-290954D01*
X245839Y-290960D01*
X245861Y-290966D01*
X245872Y-290971D01*
X245878D01*
X245817Y-291443D01*
X245728Y-291432D01*
X245651Y-291417D01*
X245646Y-291458D01*
X245646Y-291460D01*
X245678Y-291473D01*
X245745Y-291484D01*
X245795Y-291490D01*
X245828Y-291496D01*
X245833D01*
X245839D01*
X245905Y-291490D01*
X245972Y-291479D01*
X246028Y-291462D01*
X246078Y-291446D01*
X246122Y-291424D01*
X246155Y-291407D01*
X246178Y-291396D01*
X246183Y-291390D01*
X246238Y-291351D01*
X246288Y-291301D01*
X246327Y-291251D01*
X246361Y-291201D01*
X246383Y-291157D01*
X246399Y-291124D01*
X246411Y-291102D01*
X246416Y-291090D01*
X246438Y-291013D01*
X246455Y-290924D01*
X246466Y-290835D01*
X246468Y-290803D01*
D02*
G37*
G36*
X244132Y-291399D02*
X244117D01*
Y-291479D01*
X244640D01*
Y-291476D01*
X244632Y-291471D01*
X244621Y-291466D01*
X244543Y-291444D01*
X244454Y-291427D01*
X244365Y-291416D01*
X244277Y-291410D01*
X244199Y-291405D01*
X244132Y-291399D01*
D02*
G37*
G36*
X247025Y-291180D02*
Y-291457D01*
X247031Y-291518D01*
Y-291563D01*
X247036Y-291602D01*
X247041Y-291623D01*
X247457D01*
Y-291574D01*
X247371Y-291512D01*
X247288Y-291440D01*
X247210Y-291379D01*
X247154Y-291324D01*
X247110Y-291279D01*
X247082Y-291251D01*
X247071Y-291240D01*
X247038Y-291196D01*
X247025Y-291180D01*
D02*
G37*
G36*
X237819Y-291616D02*
X237673D01*
X237518Y-291627D01*
X237379Y-291638D01*
X237270Y-291647D01*
X237271D01*
X237338Y-291658D01*
X237471Y-291686D01*
X237593Y-291725D01*
X237704Y-291770D01*
X237761Y-291798D01*
X237780Y-291782D01*
X237791Y-291771D01*
X237819Y-291738D01*
Y-291616D01*
D02*
G37*
G36*
X249467Y-291572D02*
X249434D01*
X249406D01*
X249390D01*
X249384D01*
X249240Y-291577D01*
X249107Y-291588D01*
X248984Y-291611D01*
X248873Y-291633D01*
X248779Y-291649D01*
X248740Y-291660D01*
X248707Y-291671D01*
X248679Y-291677D01*
X248662Y-291683D01*
X248651Y-291688D01*
X248646D01*
X248625Y-291697D01*
Y-291932D01*
X248639Y-291924D01*
X248689Y-291901D01*
X248722Y-291885D01*
X248728Y-291879D01*
X248733D01*
X248783Y-291863D01*
X248844Y-291846D01*
X248966Y-291818D01*
X248992Y-291815D01*
X249027Y-291804D01*
X249177Y-291771D01*
X249249Y-291754D01*
X249310Y-291749D01*
X249372Y-291743D01*
X249393Y-291741D01*
X249421Y-291723D01*
X249494Y-291684D01*
X249520Y-291672D01*
X249548Y-291609D01*
X249562Y-291578D01*
X249556Y-291577D01*
X249506D01*
X249467Y-291572D01*
D02*
G37*
G36*
X238843Y-291945D02*
X238799D01*
X238704Y-291951D01*
X238697Y-291953D01*
X238709Y-291956D01*
X238797Y-291990D01*
X238870Y-292023D01*
X238925Y-292056D01*
X238958Y-292078D01*
X238969Y-292084D01*
X239045Y-292154D01*
X239051Y-292137D01*
X239085Y-292065D01*
X239112Y-292019D01*
X239109Y-292017D01*
X239032Y-291990D01*
X238960Y-291967D01*
X238893Y-291956D01*
X238843Y-291945D01*
D02*
G37*
G36*
X250914Y-291323D02*
Y-291581D01*
X250960Y-291622D01*
X251005Y-291666D01*
X251043Y-291710D01*
X251077Y-291749D01*
X251093Y-291774D01*
X251214D01*
Y-291963D01*
X251232Y-291999D01*
X251293Y-292165D01*
X251313Y-292241D01*
X251626D01*
X251629Y-292214D01*
X251635Y-292170D01*
Y-292064D01*
X251623Y-291998D01*
X251596Y-291881D01*
X251557Y-291781D01*
X251518Y-291693D01*
X251474Y-291626D01*
X251435Y-291576D01*
X251407Y-291548D01*
X251401Y-291537D01*
X251396D01*
X251302Y-291459D01*
X251202Y-291404D01*
X251096Y-291365D01*
X250991Y-291337D01*
X250914Y-291323D01*
D02*
G37*
G36*
X238316Y-292400D02*
X238310Y-292401D01*
X238311Y-292404D01*
X238316Y-292400D01*
D02*
G37*
G36*
X249474Y-292425D02*
X249472Y-292426D01*
X249456Y-292442D01*
X249450Y-292448D01*
X249423Y-292476D01*
X249395Y-292509D01*
X249357Y-292549D01*
X249349Y-292582D01*
X249398Y-292576D01*
X249509Y-292570D01*
X249509Y-292569D01*
X249476Y-292431D01*
X249474Y-292425D01*
D02*
G37*
G36*
X252105Y-292677D02*
X251844D01*
X251829Y-292703D01*
X251818Y-292719D01*
X251812Y-292730D01*
X251807Y-292736D01*
X252105Y-292677D01*
D02*
G37*
G36*
X238914Y-292987D02*
X238910Y-293018D01*
X238922Y-293015D01*
X238974Y-293000D01*
X238914Y-292987D01*
D02*
G37*
G36*
X236784Y-292250D02*
X236766Y-292263D01*
X236738Y-292291D01*
X236727Y-292297D01*
Y-292302D01*
X236649Y-292397D01*
X236594Y-292496D01*
X236555Y-292602D01*
X236536Y-292676D01*
X236537Y-292681D01*
X236565Y-292770D01*
X236593Y-292848D01*
X236620Y-292914D01*
X236643Y-292964D01*
X236648Y-292973D01*
X236652Y-292976D01*
X236730Y-293009D01*
X236818Y-293042D01*
X236913Y-293065D01*
X237013Y-293087D01*
X237118Y-293104D01*
X237154Y-293108D01*
X237155Y-293089D01*
X237166Y-292994D01*
X237182Y-292900D01*
X237205Y-292811D01*
X237232Y-292728D01*
X237260Y-292656D01*
X237293Y-292583D01*
X237327Y-292522D01*
X237354Y-292461D01*
X237385Y-292415D01*
X237358D01*
X237253Y-292409D01*
X237153Y-292393D01*
X237064Y-292370D01*
X236981Y-292343D01*
X236920Y-292320D01*
X236870Y-292298D01*
X236837Y-292282D01*
X236826Y-292276D01*
X236784Y-292250D01*
D02*
G37*
G36*
X237702Y-292701D02*
X237687Y-292717D01*
X237632Y-292811D01*
X237593Y-292905D01*
X237565Y-292994D01*
X237549Y-293072D01*
X237543Y-293133D01*
X237539Y-293148D01*
X237618Y-293153D01*
X237690D01*
X237697Y-293154D01*
X237722Y-293106D01*
X237755Y-293056D01*
X237783Y-293017D01*
X237804Y-292988D01*
X237783Y-292955D01*
X237750Y-292878D01*
X237722Y-292800D01*
X237705Y-292722D01*
X237702Y-292701D01*
D02*
G37*
G36*
X250534Y-293021D02*
X250508Y-293358D01*
X250419Y-293347D01*
X250336Y-293330D01*
X250306Y-293320D01*
X250310Y-293371D01*
X250322Y-293437D01*
X250332Y-293472D01*
X250704D01*
Y-293163D01*
X250663Y-293122D01*
X250655Y-293114D01*
X250609D01*
X250565Y-293039D01*
X250534Y-293021D01*
D02*
G37*
G36*
X238574Y-293584D02*
X238563Y-293586D01*
X238566Y-293588D01*
X238574Y-293584D01*
D02*
G37*
G36*
X252331Y-293084D02*
X251733Y-293196D01*
X251752Y-293287D01*
X251780Y-293448D01*
X251791Y-293520D01*
X251797Y-293592D01*
X251802Y-293647D01*
Y-293703D01*
X251807Y-293736D01*
X251843Y-293731D01*
X251898D01*
X252081Y-293742D01*
X252200Y-293760D01*
X252214Y-293758D01*
X252242D01*
X252259D01*
X252264D01*
X252331Y-293762D01*
Y-293084D01*
D02*
G37*
G36*
X235786Y-293355D02*
Y-293806D01*
X235842Y-293800D01*
X235886Y-293794D01*
X235925Y-293789D01*
X235980D01*
X236080Y-293794D01*
X236095Y-293795D01*
X235786Y-293355D01*
D02*
G37*
G36*
X236775Y-293654D02*
X236783Y-293662D01*
X236827Y-293701D01*
X236927Y-293767D01*
X237021Y-293812D01*
X237116Y-293840D01*
X237177Y-293857D01*
X237193Y-293850D01*
X237221Y-293841D01*
X237227Y-293825D01*
X237243Y-293779D01*
X237187Y-293775D01*
X237048Y-293752D01*
X236920Y-293713D01*
X236815Y-293669D01*
X236775Y-293654D01*
D02*
G37*
G36*
X235799Y-294199D02*
X235786Y-294202D01*
Y-294219D01*
X235799Y-294199D01*
D02*
G37*
G36*
X251910Y-294386D02*
X251742D01*
X251725Y-294452D01*
X251709Y-294521D01*
X251946D01*
X251980Y-294501D01*
X251954Y-294458D01*
X251920Y-294402D01*
X251910Y-294386D01*
D02*
G37*
G36*
X237153Y-294372D02*
X237143Y-294383D01*
X237108Y-294440D01*
X237118Y-294460D01*
X237162Y-294594D01*
X237173Y-294631D01*
X237193Y-294621D01*
X237195Y-294620D01*
X237193Y-294613D01*
X237177Y-294546D01*
X237166Y-294485D01*
X237160Y-294430D01*
X237155Y-294380D01*
X237153Y-294372D01*
D02*
G37*
G36*
X236383Y-294274D02*
X236018Y-294852D01*
X236322D01*
Y-294546D01*
X236571D01*
X236586Y-294492D01*
X236467Y-294323D01*
X236458Y-294316D01*
X236383Y-294274D01*
D02*
G37*
G36*
X235314Y-294594D02*
X235309Y-294605D01*
X235287Y-294682D01*
X235270Y-294743D01*
X235264Y-294799D01*
X235259Y-294832D01*
Y-294838D01*
Y-294843D01*
X235270Y-294943D01*
X235280Y-294991D01*
X235314Y-294941D01*
Y-294594D01*
D02*
G37*
G36*
X235953Y-294947D02*
X235926Y-294985D01*
X235860Y-295076D01*
X235953D01*
Y-294947D01*
D02*
G37*
G36*
X254756Y-294257D02*
Y-295381D01*
X255025D01*
X255039Y-295340D01*
X255062Y-295240D01*
X255078Y-295151D01*
X255084Y-295113D01*
Y-295079D01*
X255089Y-295052D01*
Y-295029D01*
Y-295018D01*
Y-295013D01*
X255078Y-294863D01*
X255056Y-294735D01*
X255023Y-294624D01*
X254984Y-294530D01*
X254940Y-294458D01*
X254906Y-294402D01*
X254884Y-294369D01*
X254873Y-294363D01*
Y-294358D01*
X254834Y-294313D01*
X254790Y-294280D01*
X254756Y-294257D01*
D02*
G37*
G36*
X254307Y-294123D02*
X254279Y-294125D01*
X254207Y-294136D01*
X254140Y-294158D01*
X254085Y-294180D01*
X254035Y-294197D01*
X253996Y-294219D01*
X253974Y-294230D01*
X253963Y-294236D01*
X253896Y-294286D01*
X253841Y-294336D01*
X253791Y-294397D01*
X253752Y-294446D01*
X253718Y-294496D01*
X253696Y-294535D01*
X253680Y-294563D01*
X253674Y-294574D01*
X253641Y-294657D01*
X253619Y-294741D01*
X253596Y-294818D01*
X253585Y-294890D01*
X253584Y-294903D01*
X253613Y-294996D01*
X253652Y-295174D01*
X253680Y-295335D01*
X253691Y-295407D01*
X253693Y-295434D01*
X253732Y-295425D01*
X253866Y-295408D01*
X253988Y-295392D01*
X254104Y-295386D01*
X254154D01*
X254199Y-295381D01*
X254307D01*
Y-294123D01*
D02*
G37*
G36*
X252029Y-294996D02*
X251979Y-295028D01*
X251929Y-295056D01*
X251884Y-295078D01*
X251856Y-295095D01*
X251834Y-295106D01*
X251829Y-295111D01*
X251607Y-295222D01*
X251391Y-295319D01*
X251390Y-295326D01*
Y-295431D01*
X251851D01*
X251858Y-295470D01*
X252001D01*
X252015Y-295446D01*
X252029Y-295408D01*
Y-294996D01*
D02*
G37*
G36*
X237033Y-295509D02*
X236955D01*
X236932Y-295554D01*
X236921Y-295581D01*
X236916Y-295589D01*
X236960Y-295570D01*
X237021Y-295548D01*
X237043Y-295543D01*
X237054Y-295539D01*
X237033Y-295509D01*
D02*
G37*
G36*
X250521Y-295880D02*
X250516D01*
X250516Y-295883D01*
X250519Y-295881D01*
X250521Y-295880D01*
D02*
G37*
G36*
X236322Y-295509D02*
X235786D01*
Y-295727D01*
X235837Y-295751D01*
X235893Y-295778D01*
X235937Y-295812D01*
X235982Y-295840D01*
X236015Y-295862D01*
X236043Y-295884D01*
X236065Y-295901D01*
X236082Y-295917D01*
X236087Y-295923D01*
X236093Y-295928D01*
X236137Y-295984D01*
X236181Y-296039D01*
X236248Y-296156D01*
X236249Y-296159D01*
X236266Y-296174D01*
X236277Y-296075D01*
X236305Y-295903D01*
X236322Y-295841D01*
Y-295509D01*
D02*
G37*
G36*
X252029Y-296115D02*
X251987Y-296139D01*
X251985Y-296141D01*
X251999Y-296220D01*
X252029D01*
Y-296115D01*
D02*
G37*
G36*
X237258Y-295827D02*
X237215Y-295848D01*
X237154Y-295887D01*
X237110Y-295920D01*
X237082Y-295942D01*
X237071Y-295953D01*
X236999Y-296037D01*
X236943Y-296125D01*
X236905Y-296214D01*
X236895Y-296250D01*
X237487D01*
X237536Y-296246D01*
Y-296221D01*
X237258Y-295827D01*
D02*
G37*
G36*
X255470Y-295808D02*
X255340D01*
X255317Y-295840D01*
X255289Y-295879D01*
X255273Y-295906D01*
X255256Y-295923D01*
X255245Y-295934D01*
X255239Y-295939D01*
X255178Y-296001D01*
X255112Y-296056D01*
X255039Y-296100D01*
X254973Y-296139D01*
X254906Y-296178D01*
X254840Y-296206D01*
X254712Y-296245D01*
X254657Y-296261D01*
X254601Y-296272D01*
X254557Y-296278D01*
X254512Y-296284D01*
X254479Y-296289D01*
X254434D01*
X254335Y-296284D01*
X254240Y-296267D01*
X254151Y-296250D01*
X254074Y-296228D01*
X254007Y-296200D01*
X253957Y-296184D01*
X253924Y-296167D01*
X253918Y-296162D01*
X253913D01*
X253824Y-296106D01*
X253746Y-296045D01*
X253742Y-296041D01*
X253678Y-296054D01*
X253674Y-296084D01*
X253646Y-296256D01*
X253624Y-296339D01*
X253608Y-296411D01*
X253591Y-296478D01*
X253583Y-296500D01*
X253591Y-296533D01*
X253602Y-296572D01*
X253608Y-296605D01*
X253619Y-296628D01*
X253624Y-296644D01*
X253630Y-296656D01*
Y-296661D01*
X253685Y-296772D01*
X253741Y-296872D01*
X253802Y-296950D01*
X253857Y-297016D01*
X253859Y-297018D01*
X253916Y-297035D01*
X254004Y-297051D01*
X254093Y-297062D01*
X254182Y-297068D01*
X254260Y-297073D01*
X254307Y-297077D01*
Y-296927D01*
X254756D01*
Y-297079D01*
X254838D01*
X254845Y-297072D01*
X254856Y-297061D01*
X254895Y-297011D01*
X254934Y-296950D01*
X254967Y-296883D01*
X254990Y-296816D01*
X255012Y-296755D01*
X255028Y-296705D01*
X255034Y-296672D01*
X255039Y-296667D01*
Y-296661D01*
X255470Y-296696D01*
Y-295808D01*
D02*
G37*
G36*
X252762Y-296090D02*
X252581D01*
Y-296785D01*
X252636Y-296800D01*
X252714Y-296827D01*
X252791Y-296855D01*
X252841Y-296880D01*
X252875Y-296839D01*
X252936Y-296750D01*
X252958Y-296715D01*
X252944Y-296668D01*
X252922Y-296574D01*
X252917Y-296535D01*
Y-296496D01*
X252911Y-296468D01*
Y-296446D01*
Y-296435D01*
Y-296430D01*
X252917Y-296313D01*
X252917Y-296310D01*
X252839D01*
Y-296211D01*
X252780Y-296222D01*
X252762Y-296090D01*
D02*
G37*
G36*
X251633Y-296658D02*
X251415D01*
X251354Y-296664D01*
X251310D01*
X251271Y-296669D01*
X251268Y-296670D01*
X251249Y-296711D01*
X251245Y-296718D01*
X251351Y-296751D01*
X251463Y-296796D01*
X251551Y-296840D01*
X251590Y-296863D01*
X251623Y-296879D01*
X251634Y-296885D01*
X251665Y-296872D01*
X251675Y-296868D01*
X251633Y-296658D01*
D02*
G37*
G36*
X255470Y-296878D02*
X255428Y-296994D01*
X255389Y-297079D01*
X255470D01*
Y-296878D01*
D02*
G37*
G36*
X237299Y-296689D02*
X236884D01*
X236893Y-296725D01*
X236904Y-296755D01*
X236913Y-296764D01*
X236941Y-296797D01*
X236952Y-296802D01*
Y-296808D01*
X237029Y-296902D01*
X237090Y-296991D01*
X237146Y-297080D01*
X237165Y-297114D01*
X237166Y-297111D01*
X237182Y-297016D01*
X237205Y-296927D01*
X237232Y-296844D01*
X237260Y-296772D01*
X237293Y-296700D01*
X237299Y-296689D01*
D02*
G37*
G36*
X236298Y-296977D02*
X236281Y-297027D01*
X236248Y-297099D01*
X236243Y-297111D01*
X236322Y-297161D01*
Y-297087D01*
X236299Y-296986D01*
X236298Y-296977D01*
D02*
G37*
G36*
X234944Y-295973D02*
X233801D01*
Y-297244D01*
X234770D01*
Y-297191D01*
X235388D01*
X235399Y-297188D01*
X235482Y-297155D01*
X235554Y-297122D01*
X235599Y-297094D01*
X235627Y-297072D01*
X235638Y-297066D01*
X235704Y-296994D01*
X235754Y-296922D01*
X235788Y-296844D01*
X235815Y-296778D01*
X235826Y-296711D01*
X235832Y-296661D01*
X235837Y-296628D01*
Y-296622D01*
Y-296617D01*
X235832Y-296550D01*
X235821Y-296483D01*
X235804Y-296428D01*
X235788Y-296378D01*
X235786Y-296375D01*
Y-296430D01*
X235314D01*
Y-296010D01*
X235266Y-296001D01*
X235177Y-295989D01*
X235088Y-295984D01*
X235011Y-295978D01*
X234944Y-295973D01*
D02*
G37*
G36*
X250781Y-297474D02*
X250841Y-297526D01*
X250919Y-297587D01*
X250969Y-297638D01*
X250971Y-297632D01*
X250995Y-297578D01*
X250932Y-297549D01*
X250849Y-297516D01*
X250781Y-297474D01*
D02*
G37*
G36*
X252070Y-297698D02*
X252059Y-297699D01*
X252009D01*
X251965Y-297704D01*
X251904D01*
X251812Y-297700D01*
X251801Y-297714D01*
X251768Y-297764D01*
X251746Y-297809D01*
X251729Y-297842D01*
X251718Y-297864D01*
X251712Y-297875D01*
X251690Y-297953D01*
X251673Y-298042D01*
X251662Y-298131D01*
X251657Y-298219D01*
X251651Y-298297D01*
X251646Y-298364D01*
Y-298619D01*
X251684Y-298561D01*
X251729Y-298466D01*
X251762Y-298383D01*
X251784Y-298300D01*
X251801Y-298239D01*
X251807Y-298211D01*
X251812Y-298195D01*
Y-298183D01*
Y-298178D01*
X252070Y-298198D01*
Y-297698D01*
D02*
G37*
G36*
X237172Y-297646D02*
X237153D01*
X237199Y-297696D01*
X237214Y-297710D01*
X237201Y-297656D01*
X237172Y-297646D01*
D02*
G37*
G36*
X253236Y-297175D02*
X253280Y-297227D01*
X253324Y-297299D01*
X253363Y-297371D01*
X253402Y-297443D01*
X253430Y-297516D01*
X253468Y-297649D01*
X253485Y-297710D01*
X253496Y-297765D01*
X253502Y-297815D01*
X253507Y-297859D01*
X253549Y-297806D01*
X253605Y-297750D01*
X253649Y-297706D01*
X253677Y-297678D01*
X253688Y-297667D01*
X253732Y-297634D01*
X253782Y-297595D01*
X253882Y-297534D01*
X253835Y-297516D01*
X253763Y-297471D01*
X253696Y-297432D01*
X253641Y-297394D01*
X253638Y-297391D01*
X253632Y-297390D01*
X253560Y-297362D01*
X253494Y-297329D01*
X253433Y-297301D01*
X253377Y-297273D01*
X253333Y-297240D01*
X253288Y-297212D01*
X253255Y-297190D01*
X253236Y-297175D01*
D02*
G37*
G36*
X250280Y-297767D02*
X250269Y-297823D01*
X250264Y-297862D01*
Y-297895D01*
X250258Y-297921D01*
X250311Y-297932D01*
X250427Y-297960D01*
X250533Y-297993D01*
X250627Y-298032D01*
X250705Y-298065D01*
X250734Y-298079D01*
X250669Y-298031D01*
X250580Y-297970D01*
X250497Y-297909D01*
X250419Y-297859D01*
X250358Y-297820D01*
X250336Y-297803D01*
X250319Y-297792D01*
X250308Y-297781D01*
X250303D01*
X250280Y-297767D01*
D02*
G37*
G36*
X240326Y-298404D02*
X240240Y-298431D01*
X240237Y-298432D01*
X240244Y-298445D01*
X240265Y-298497D01*
X240302Y-298469D01*
X240308Y-298444D01*
X240325Y-298410D01*
X240326Y-298404D01*
D02*
G37*
G36*
X249576Y-298538D02*
X249528Y-298576D01*
X249508Y-298592D01*
X249534Y-298576D01*
X249550Y-298559D01*
X249567Y-298548D01*
X249572Y-298542D01*
X249576Y-298538D01*
X249576Y-298538D01*
D02*
G37*
G36*
X254307Y-297690D02*
X254282Y-297712D01*
X254199Y-297795D01*
X254160Y-297834D01*
X254132Y-297867D01*
X254115Y-297889D01*
X254110Y-297895D01*
X254054Y-297972D01*
X253993Y-298056D01*
X253932Y-298145D01*
X253871Y-298228D01*
X253821Y-298306D01*
X253782Y-298366D01*
X253766Y-298389D01*
X253755Y-298405D01*
X253744Y-298416D01*
Y-298422D01*
X253632Y-298598D01*
X254307Y-298465D01*
Y-297690D01*
D02*
G37*
G36*
X241790Y-298772D02*
X241764Y-298777D01*
X241736D01*
X241714Y-298776D01*
X241715Y-298778D01*
X241720Y-298821D01*
X241790Y-298772D01*
D02*
G37*
G36*
X236322Y-297994D02*
X236303Y-298051D01*
X236292Y-298112D01*
X236280Y-298162D01*
Y-298196D01*
Y-298201D01*
Y-298207D01*
X236286Y-298295D01*
X236308Y-298379D01*
X236336Y-298451D01*
X236369Y-298512D01*
X236403Y-298562D01*
X236430Y-298595D01*
X236453Y-298623D01*
X236458Y-298628D01*
X236525Y-298684D01*
X236602Y-298728D01*
X236674Y-298756D01*
X236747Y-298778D01*
X236813Y-298789D01*
X236863Y-298795D01*
X236896Y-298800D01*
X236908D01*
X237007Y-298795D01*
X237096Y-298773D01*
X237174Y-298745D01*
X237241Y-298712D01*
X237291Y-298684D01*
X237329Y-298656D01*
X237357Y-298634D01*
X237363Y-298628D01*
X237418Y-298562D01*
X237419Y-298560D01*
X237379Y-298520D01*
X237340Y-298481D01*
X237307Y-298454D01*
X237285Y-298437D01*
X237279Y-298431D01*
X237217Y-298387D01*
X236333D01*
D01*
X236322D01*
Y-297994D01*
D02*
G37*
G36*
X245646Y-298755D02*
Y-298803D01*
X245651Y-298808D01*
X245664Y-298818D01*
X245683Y-298807D01*
X245646Y-298755D01*
D02*
G37*
G36*
X250359Y-298423D02*
X250375Y-298461D01*
X250419Y-298539D01*
X250458Y-298600D01*
X250475Y-298616D01*
X250486Y-298633D01*
X250491Y-298639D01*
X250497Y-298644D01*
X250541Y-298688D01*
X250586Y-298727D01*
X250686Y-298794D01*
X250780Y-298838D01*
X250874Y-298866D01*
X250945Y-298886D01*
X250932Y-298848D01*
X250910Y-298809D01*
X250899Y-298787D01*
X250894Y-298776D01*
X250844Y-298709D01*
X250794Y-298654D01*
X250733Y-298604D01*
X250683Y-298565D01*
X250633Y-298531D01*
X250594Y-298509D01*
X250566Y-298493D01*
X250555Y-298487D01*
X250472Y-298454D01*
X250389Y-298431D01*
X250359Y-298423D01*
D02*
G37*
G36*
X247357Y-298894D02*
X247366Y-298913D01*
X247389Y-298970D01*
X247415Y-298956D01*
X247440Y-298946D01*
X247438Y-298926D01*
X247401Y-298915D01*
X247357Y-298894D01*
D02*
G37*
G36*
X237625Y-298895D02*
X237607Y-298906D01*
X237540Y-298939D01*
X237490Y-298961D01*
X237468Y-298973D01*
X237452Y-298978D01*
X237450Y-298979D01*
X237472Y-298993D01*
X237568Y-299022D01*
X237651Y-299062D01*
Y-299031D01*
X237645Y-298992D01*
X237640Y-298964D01*
Y-298942D01*
X237634Y-298931D01*
Y-298925D01*
X237625Y-298895D01*
D02*
G37*
G36*
X239899Y-298984D02*
X239866D01*
X239793Y-298991D01*
Y-299112D01*
X239846Y-299103D01*
X239898Y-299090D01*
X239910Y-299047D01*
X239928Y-298990D01*
X239921Y-298989D01*
X239899Y-298984D01*
D02*
G37*
G36*
X238968Y-298354D02*
X238694D01*
X238629Y-298384D01*
X238551Y-298423D01*
X238496Y-298462D01*
X238479Y-298473D01*
X238462Y-298484D01*
X238462Y-298486D01*
Y-298686D01*
X238359D01*
Y-299131D01*
X238818D01*
X238833Y-299106D01*
X238861Y-299056D01*
X238889Y-299017D01*
X238917Y-298978D01*
X238933Y-298950D01*
X238950Y-298934D01*
X238961Y-298922D01*
X238967Y-298917D01*
X239028Y-298856D01*
X239094Y-298800D01*
X239166Y-298756D01*
X239233Y-298717D01*
X239245Y-298710D01*
X239005D01*
X238989Y-298500D01*
X238968Y-298354D01*
D02*
G37*
G36*
X245207Y-299139D02*
X245180D01*
Y-299246D01*
X245259Y-299265D01*
X245224Y-299171D01*
X245207Y-299139D01*
D02*
G37*
G36*
X252637Y-297583D02*
X252592Y-297599D01*
X252581Y-297602D01*
Y-298362D01*
X252284D01*
X252278Y-298389D01*
X252228Y-298544D01*
X252167Y-298677D01*
X252134Y-298738D01*
X252101Y-298788D01*
X252073Y-298838D01*
X252040Y-298883D01*
X252012Y-298916D01*
X251998Y-298929D01*
X251970Y-299292D01*
X251881Y-299281D01*
X251798Y-299264D01*
X251646Y-299215D01*
Y-299507D01*
X252917D01*
Y-299221D01*
X252606D01*
X252751Y-298992D01*
X252719Y-298764D01*
X252780Y-298726D01*
X252830Y-298676D01*
X252880Y-298631D01*
X252917Y-298589D01*
Y-298297D01*
X252911Y-298147D01*
X252889Y-298020D01*
X252861Y-297909D01*
X252828Y-297825D01*
X252795Y-297753D01*
X252767Y-297709D01*
X252745Y-297681D01*
X252739Y-297670D01*
X252667Y-297603D01*
X252637Y-297583D01*
D02*
G37*
G36*
X239197Y-299558D02*
X239157D01*
X239144Y-299616D01*
X239137Y-299656D01*
X239164Y-299603D01*
X239197Y-299558D01*
D02*
G37*
G36*
X249991Y-298719D02*
X249989Y-298726D01*
X249977Y-298753D01*
X249966Y-298776D01*
X249961Y-298787D01*
Y-298792D01*
X249894Y-298925D01*
X249822Y-299042D01*
X249739Y-299142D01*
X249667Y-299225D01*
X249595Y-299286D01*
X249539Y-299330D01*
X249517Y-299347D01*
X249500Y-299358D01*
X249495Y-299369D01*
X249489D01*
X249373Y-299436D01*
X249326Y-299456D01*
X249328Y-299464D01*
X249373Y-299541D01*
X249417Y-299603D01*
X249451Y-299647D01*
X249478Y-299675D01*
X249489Y-299686D01*
X249503Y-299696D01*
Y-299507D01*
X250913D01*
X250949Y-299425D01*
X250982Y-299347D01*
X250997Y-299284D01*
X250957Y-299282D01*
X250846Y-299266D01*
X250741Y-299243D01*
X250647Y-299216D01*
X250558Y-299177D01*
X250475Y-299138D01*
X250397Y-299099D01*
X250330Y-299055D01*
X250269Y-299010D01*
X250214Y-298972D01*
X250169Y-298927D01*
X250131Y-298894D01*
X250103Y-298866D01*
X250080Y-298844D01*
X250069Y-298827D01*
X250064Y-298822D01*
X250008Y-298749D01*
X249991Y-298719D01*
D02*
G37*
G36*
X238662Y-299558D02*
X238415D01*
X238418Y-299561D01*
X238423Y-299572D01*
X238429D01*
X238523Y-299644D01*
X238629Y-299700D01*
X238641Y-299704D01*
X238650Y-299622D01*
X238662Y-299558D01*
D02*
G37*
G36*
X241753D02*
X241565D01*
X241548Y-299583D01*
X241531Y-299616D01*
X241520Y-299639D01*
X241509Y-299655D01*
X241498Y-299666D01*
Y-299672D01*
X241482Y-299691D01*
X241601Y-299766D01*
X241624Y-299782D01*
X241681Y-299777D01*
X241711Y-299772D01*
X241725Y-299758D01*
X241782Y-299698D01*
X241772Y-299659D01*
X241756Y-299576D01*
X241753Y-299558D01*
D02*
G37*
G36*
X236958Y-299183D02*
X236924D01*
X236802Y-299195D01*
X236691Y-299217D01*
X236591Y-299255D01*
X236508Y-299294D01*
X236441Y-299339D01*
X236391Y-299378D01*
X236364Y-299400D01*
X236353Y-299411D01*
X236275Y-299500D01*
X236219Y-299594D01*
X236180Y-299688D01*
X236153Y-299772D01*
X236149Y-299791D01*
X237656D01*
Y-299742D01*
X237216Y-299464D01*
Y-299242D01*
X237207Y-299239D01*
X237119Y-299211D01*
X237041Y-299195D01*
X236980Y-299189D01*
X236958Y-299183D01*
D02*
G37*
G36*
X246882Y-299010D02*
X246814Y-299058D01*
Y-299092D01*
X246766D01*
X246601Y-299209D01*
Y-299815D01*
X246410D01*
X246234Y-299567D01*
X246225Y-299581D01*
X246202Y-299609D01*
X246186Y-299626D01*
X246175Y-299637D01*
X246169Y-299642D01*
X246103Y-299703D01*
X246036Y-299759D01*
X246002Y-299780D01*
X246001Y-299802D01*
X245990Y-299896D01*
X245973Y-299991D01*
X245965Y-300024D01*
Y-300465D01*
X245842D01*
X245898Y-300501D01*
X245976Y-300540D01*
X246054Y-300562D01*
X246115Y-300579D01*
X246170Y-300584D01*
X246203Y-300590D01*
X246209D01*
X246215D01*
X246315Y-300579D01*
X246361Y-300569D01*
X246364Y-300557D01*
X246387Y-300490D01*
X246414Y-300429D01*
X246442Y-300374D01*
X246470Y-300330D01*
X246498Y-300285D01*
X246520Y-300246D01*
X246542Y-300219D01*
X246559Y-300196D01*
X246575Y-300180D01*
X246581Y-300169D01*
X246586Y-300163D01*
X246642Y-300113D01*
X246697Y-300063D01*
X246759Y-300024D01*
X246819Y-299991D01*
X246936Y-299936D01*
X247047Y-299902D01*
X247065Y-299898D01*
X247078Y-299818D01*
X247083Y-299773D01*
Y-299734D01*
X247089Y-299707D01*
Y-299662D01*
X247083Y-299524D01*
X247061Y-299396D01*
X247028Y-299290D01*
X246994Y-299196D01*
X246955Y-299124D01*
X246928Y-299068D01*
X246906Y-299035D01*
X246895Y-299024D01*
X246882Y-299010D01*
D02*
G37*
G36*
X239884Y-299814D02*
X239861Y-299833D01*
X239850Y-299838D01*
X239891D01*
X239884Y-299814D01*
D02*
G37*
G36*
X248266Y-299441D02*
X248260Y-299463D01*
X248235Y-299524D01*
X248208Y-299577D01*
X248180Y-299619D01*
X248166Y-299635D01*
X248155Y-299652D01*
X248144Y-299663D01*
X248136Y-299671D01*
X248133Y-299674D01*
X248130Y-299677D01*
X248105Y-299697D01*
X248119Y-299708D01*
X248180Y-299747D01*
X248246Y-299780D01*
X248313Y-299802D01*
X248374Y-299825D01*
X248424Y-299841D01*
X248457Y-299847D01*
X248463Y-299852D01*
X248467D01*
Y-299522D01*
X248457Y-299519D01*
X248307Y-299458D01*
X248266Y-299441D01*
D02*
G37*
G36*
X248467Y-299869D02*
X248467Y-299870D01*
X248467Y-299870D01*
Y-299869D01*
D02*
G37*
G36*
X245570Y-299959D02*
X245554Y-299964D01*
X245554Y-299974D01*
X245558Y-299993D01*
X245559D01*
X245563Y-299985D01*
X245570Y-299959D01*
D02*
G37*
G36*
X241048Y-300189D02*
X241047Y-300191D01*
X241052Y-300190D01*
X241048Y-300189D01*
D02*
G37*
G36*
X240084Y-300288D02*
X240083Y-300288D01*
X240000Y-300299D01*
X239916Y-300305D01*
X239844D01*
X239783Y-300310D01*
X239733D01*
X239694D01*
X239667D01*
X239661D01*
X239533D01*
X239411Y-300305D01*
X239384Y-300302D01*
X239377D01*
X239374Y-300318D01*
X239369Y-300407D01*
X239364Y-300485D01*
X239360Y-300529D01*
X239372Y-300543D01*
X239416Y-300576D01*
X239505Y-300638D01*
X239594Y-300676D01*
X239671Y-300710D01*
X239744Y-300726D01*
X239799Y-300732D01*
X239821Y-300737D01*
X239849D01*
X239927Y-300732D01*
X239999Y-300721D01*
X240066Y-300698D01*
X240121Y-300676D01*
X240171Y-300660D01*
X240210Y-300638D01*
X240232Y-300626D01*
X240243Y-300621D01*
X240310Y-300571D01*
X240356Y-300529D01*
X240315Y-300501D01*
X240276Y-300474D01*
X240238Y-300446D01*
X240210Y-300418D01*
X240188Y-300396D01*
X240165Y-300385D01*
X240160Y-300374D01*
X240154Y-300368D01*
X240099Y-300307D01*
X240084Y-300288D01*
D02*
G37*
G36*
X242311Y-300465D02*
X242292D01*
X242301Y-300482D01*
X242306Y-300493D01*
X242311Y-300465D01*
D02*
G37*
G36*
X248467Y-300447D02*
X248439Y-300479D01*
X248467Y-300519D01*
Y-300447D01*
D02*
G37*
G36*
X237617Y-300302D02*
X236201D01*
X236236Y-300371D01*
X236275Y-300432D01*
X236314Y-300482D01*
X236336Y-300510D01*
X236347Y-300521D01*
X236436Y-300593D01*
X236525Y-300649D01*
X236619Y-300682D01*
X236708Y-300710D01*
X236786Y-300726D01*
X236852Y-300732D01*
X236874Y-300737D01*
X236908D01*
X236985Y-300732D01*
X237063Y-300721D01*
X237135Y-300704D01*
X237196Y-300687D01*
X237246Y-300671D01*
X237285Y-300654D01*
X237307Y-300643D01*
X237318Y-300638D01*
X237385Y-300593D01*
X237440Y-300549D01*
X237490Y-300499D01*
X237529Y-300449D01*
X237562Y-300410D01*
X237585Y-300377D01*
X237596Y-300349D01*
X237601Y-300343D01*
X237617Y-300302D01*
D02*
G37*
G36*
X241640Y-300436D02*
X241575Y-300479D01*
X241509Y-300524D01*
X241447Y-300557D01*
X241403Y-300579D01*
X241375Y-300590D01*
X241364Y-300596D01*
X241281Y-300629D01*
X241198Y-300651D01*
X241149Y-300665D01*
X241185Y-300691D01*
X241191Y-300702D01*
X241196D01*
X241313Y-300775D01*
X241441Y-300830D01*
X241563Y-300869D01*
X241679Y-300891D01*
X241785Y-300908D01*
X241829Y-300913D01*
X241868D01*
X241896Y-300919D01*
X241940D01*
X242079Y-300913D01*
X242157Y-300900D01*
X242151Y-300887D01*
X242145Y-300876D01*
X242140Y-300870D01*
X242107Y-300826D01*
X242068Y-300782D01*
X241984Y-300698D01*
X241946Y-300659D01*
X241912Y-300632D01*
X241890Y-300615D01*
X241884Y-300609D01*
X241807Y-300554D01*
X241724Y-300493D01*
X241640Y-300436D01*
D02*
G37*
G36*
X253273Y-300018D02*
X251639D01*
X252009Y-300252D01*
X252120Y-300329D01*
X252220Y-300402D01*
X252303Y-300474D01*
X252381Y-300535D01*
X252436Y-300590D01*
X252481Y-300635D01*
X252508Y-300662D01*
X252519Y-300674D01*
X252553Y-300718D01*
X252592Y-300768D01*
X252653Y-300868D01*
X252675Y-300912D01*
X252697Y-300945D01*
X252708Y-300968D01*
X252714Y-300979D01*
X252730Y-300879D01*
X252747Y-300784D01*
X252775Y-300701D01*
X252797Y-300618D01*
X252825Y-300546D01*
X252858Y-300479D01*
X252886Y-300418D01*
X252913Y-300363D01*
X252947Y-300318D01*
X252975Y-300274D01*
X252997Y-300241D01*
X253019Y-300213D01*
X253036Y-300191D01*
X253052Y-300174D01*
X253058Y-300168D01*
X253063Y-300163D01*
X253119Y-300119D01*
X253174Y-300074D01*
X253273Y-300018D01*
D02*
G37*
G36*
X240629Y-300855D02*
X240576Y-300893D01*
X240498Y-300943D01*
X240415Y-300987D01*
X240337Y-301020D01*
X240260Y-301048D01*
X240182Y-301070D01*
X240115Y-301087D01*
X240049Y-301104D01*
X239993Y-301115D01*
X239943Y-301120D01*
X239899D01*
X239871Y-301126D01*
X239844D01*
X239716Y-301120D01*
X239599Y-301098D01*
X239494Y-301076D01*
X239400Y-301043D01*
X239358Y-301027D01*
Y-301695D01*
X240084D01*
X240088Y-301689D01*
X240121Y-301645D01*
X240149Y-301611D01*
X240171Y-301584D01*
X240188Y-301567D01*
X240199Y-301556D01*
X240204Y-301551D01*
X240271Y-301489D01*
X240349Y-301439D01*
X240421Y-301390D01*
X240498Y-301351D01*
X240582Y-301317D01*
X240629Y-301301D01*
Y-300855D01*
D02*
G37*
G36*
X241056Y-301137D02*
Y-301211D01*
X241087Y-301206D01*
X241114D01*
X241137D01*
X241142D01*
X241230Y-301211D01*
X241180Y-301191D01*
X241135Y-301174D01*
X241091Y-301157D01*
X241063Y-301141D01*
X241056Y-301137D01*
D02*
G37*
G36*
X249084Y-300191D02*
X249062D01*
X249051D01*
X249017Y-300194D01*
Y-301078D01*
X248939D01*
Y-301285D01*
X248556D01*
X248285Y-300902D01*
X248279Y-300923D01*
Y-300957D01*
X248290Y-301079D01*
X248312Y-301190D01*
X248351Y-301290D01*
X248390Y-301373D01*
X248435Y-301440D01*
X248474Y-301489D01*
X248496Y-301517D01*
X248507Y-301528D01*
X248596Y-301606D01*
X248690Y-301661D01*
X248784Y-301700D01*
X248868Y-301728D01*
X248951Y-301745D01*
X249012Y-301750D01*
X249034Y-301756D01*
X249051D01*
X249062D01*
X249067D01*
X249184Y-301745D01*
X249295Y-301723D01*
X249389Y-301684D01*
X249467Y-301645D01*
X249528Y-301606D01*
X249578Y-301567D01*
X249606Y-301545D01*
X249617Y-301534D01*
X249689Y-301445D01*
X249744Y-301356D01*
X249778Y-301262D01*
X249805Y-301173D01*
X249822Y-301095D01*
X249828Y-301029D01*
X249833Y-301007D01*
Y-300973D01*
X249828Y-300896D01*
X249817Y-300818D01*
X249800Y-300746D01*
X249783Y-300685D01*
X249767Y-300635D01*
X249750Y-300596D01*
X249739Y-300574D01*
X249733Y-300563D01*
X249689Y-300496D01*
X249644Y-300441D01*
X249594Y-300391D01*
X249545Y-300352D01*
X249506Y-300318D01*
X249472Y-300296D01*
X249445Y-300285D01*
X249439Y-300280D01*
X249367Y-300252D01*
X249300Y-300230D01*
X249234Y-300213D01*
X249173Y-300202D01*
X249123Y-300196D01*
X249084Y-300191D01*
D02*
G37*
G36*
X242262Y-301319D02*
X242217Y-301329D01*
X242157Y-301335D01*
X242095Y-301341D01*
X242045Y-301346D01*
X242007Y-301352D01*
X241951D01*
X241768Y-301341D01*
X241739Y-301336D01*
X241747Y-301340D01*
X241808Y-301373D01*
X241864Y-301401D01*
X241914Y-301428D01*
X241952Y-301456D01*
X241991Y-301484D01*
X242019Y-301506D01*
X242036Y-301517D01*
X242047Y-301528D01*
X242052Y-301534D01*
X242113Y-301595D01*
X242163Y-301661D01*
X242213Y-301728D01*
X242252Y-301800D01*
X242262Y-301820D01*
Y-301319D01*
D02*
G37*
G36*
X247607Y-300434D02*
X247591Y-300460D01*
X247491Y-300588D01*
X247442Y-300638D01*
X247397Y-300687D01*
X247353Y-300732D01*
X247308Y-300771D01*
X247269Y-300804D01*
X247236Y-300826D01*
X247214Y-300848D01*
X247192Y-300865D01*
X247181Y-300871D01*
X247175Y-300876D01*
X247097Y-300921D01*
X247020Y-300959D01*
X246963Y-300980D01*
X246955Y-300987D01*
X246961Y-300991D01*
X247017Y-301035D01*
X247061Y-301080D01*
X247105Y-301119D01*
X247144Y-301157D01*
X247172Y-301185D01*
X247200Y-301213D01*
X247216Y-301235D01*
X247222Y-301246D01*
X247228Y-301252D01*
X247277Y-301329D01*
X247327Y-301407D01*
X247366Y-301485D01*
X247399Y-301568D01*
X247406Y-301591D01*
X247474Y-301573D01*
X247547Y-301545D01*
X247608Y-301512D01*
X247658Y-301478D01*
X247691Y-301451D01*
X247719Y-301429D01*
X247724Y-301423D01*
X247780Y-301356D01*
X247824Y-301279D01*
X247852Y-301206D01*
X247874Y-301134D01*
X247885Y-301068D01*
X247891Y-301018D01*
X247896Y-300985D01*
Y-300973D01*
X247891Y-300873D01*
X247868Y-300785D01*
X247841Y-300707D01*
X247808Y-300640D01*
X247780Y-300590D01*
X247752Y-300552D01*
X247730Y-300524D01*
X247724Y-300518D01*
X247658Y-300463D01*
X247607Y-300434D01*
D02*
G37*
G36*
X243786Y-300647D02*
X243770D01*
X243731D01*
X243709D01*
X243704D01*
X243701D01*
Y-300701D01*
X243478D01*
X243459Y-300712D01*
X243381Y-300745D01*
X243304Y-300773D01*
X243232Y-300790D01*
X243176Y-300800D01*
X243139Y-300847D01*
X243094Y-300891D01*
X243056Y-300935D01*
X243017Y-300974D01*
X242989Y-301002D01*
X242961Y-301030D01*
X242939Y-301046D01*
X242928Y-301052D01*
X242922Y-301058D01*
X242845Y-301108D01*
X242767Y-301157D01*
X242700Y-301191D01*
Y-301969D01*
X243256D01*
X243246Y-301956D01*
X243240Y-301950D01*
X243179Y-301895D01*
X243107Y-301850D01*
X243029Y-301811D01*
X242951Y-301784D01*
X242885Y-301761D01*
X242824Y-301745D01*
X242802Y-301739D01*
X242791D01*
X242779Y-301734D01*
X242774D01*
X242813Y-301278D01*
X242974Y-301312D01*
X243112Y-301356D01*
X243235Y-301412D01*
X243335Y-301467D01*
X243412Y-301523D01*
X243445Y-301551D01*
X243473Y-301573D01*
X243490Y-301589D01*
X243507Y-301606D01*
X243512Y-301611D01*
X243518Y-301617D01*
X243562Y-301673D01*
X243601Y-301734D01*
X243615Y-301762D01*
X243625Y-301729D01*
X243653Y-301646D01*
X243681Y-301568D01*
X243714Y-301496D01*
X243742Y-301435D01*
X243770Y-301374D01*
X243798Y-301329D01*
X243825Y-301285D01*
X243847Y-301257D01*
X243859Y-301230D01*
X243870Y-301219D01*
X243875Y-301213D01*
X243942Y-301135D01*
X243971Y-301106D01*
Y-300874D01*
X243942Y-300845D01*
X243903Y-300800D01*
X243870Y-300761D01*
X243847Y-300728D01*
X243825Y-300706D01*
X243809Y-300683D01*
X243803Y-300672D01*
X243798Y-300667D01*
X243786Y-300647D01*
D02*
G37*
G36*
X241192Y-301689D02*
X241176D01*
X241164D01*
X241159D01*
X241056Y-301697D01*
Y-301969D01*
X241805D01*
X241786Y-301944D01*
X241764Y-301917D01*
X241753Y-301906D01*
X241664Y-301834D01*
X241564Y-301778D01*
X241464Y-301745D01*
X241370Y-301717D01*
X241286Y-301700D01*
X241253Y-301695D01*
X241220D01*
X241192Y-301689D01*
D02*
G37*
G36*
X253763Y-300418D02*
X253757D01*
X253751D01*
X253685Y-300424D01*
X253618Y-300435D01*
X253563Y-300451D01*
X253513Y-300468D01*
X253468Y-300490D01*
X253435Y-300507D01*
X253413Y-300518D01*
X253407Y-300524D01*
X253352Y-300563D01*
X253302Y-300612D01*
X253263Y-300662D01*
X253230Y-300712D01*
X253208Y-300757D01*
X253191Y-300790D01*
X253180Y-300812D01*
X253174Y-300823D01*
X253152Y-300901D01*
X253135Y-300990D01*
X253124Y-301079D01*
X253119Y-301167D01*
X253113Y-301245D01*
X253108Y-301312D01*
Y-302455D01*
X254379D01*
Y-301245D01*
X254373Y-301095D01*
X254351Y-300968D01*
X254323Y-300857D01*
X254290Y-300774D01*
X254257Y-300701D01*
X254229Y-300657D01*
X254207Y-300629D01*
X254201Y-300618D01*
X254129Y-300552D01*
X254057Y-300501D01*
X253979Y-300468D01*
X253912Y-300441D01*
X253846Y-300429D01*
X253796Y-300424D01*
X253763Y-300418D01*
D02*
G37*
G36*
X240558Y-302205D02*
X240290D01*
X240265Y-302283D01*
X240243Y-302355D01*
X240238Y-302416D01*
X240232Y-302438D01*
Y-302527D01*
X240243Y-302583D01*
X240271Y-302683D01*
X240310Y-302771D01*
X240349Y-302849D01*
X240393Y-302910D01*
X240432Y-302955D01*
X240460Y-302982D01*
X240465Y-302993D01*
X240471D01*
X240565Y-303066D01*
X240670Y-303121D01*
X240781Y-303160D01*
X240887Y-303182D01*
X240976Y-303199D01*
X241015Y-303204D01*
X241053D01*
X241081Y-303210D01*
X241103D01*
X241114D01*
X241120D01*
X241264Y-303199D01*
X241392Y-303177D01*
X241497Y-303143D01*
X241586Y-303104D01*
X241658Y-303060D01*
X241708Y-303027D01*
X241742Y-303005D01*
X241753Y-302993D01*
X241830Y-302910D01*
X241886Y-302821D01*
X241925Y-302733D01*
X241952Y-302644D01*
X241969Y-302572D01*
X241975Y-302511D01*
X241980Y-302488D01*
Y-302480D01*
X240558D01*
Y-302205D01*
D02*
G37*
G36*
X243369Y-302480D02*
X242385D01*
X242374Y-302544D01*
X242352Y-302633D01*
X242324Y-302716D01*
X242302Y-302777D01*
X242280Y-302827D01*
X242263Y-302860D01*
X242258Y-302871D01*
X242202Y-302960D01*
X242141Y-303038D01*
X242080Y-303104D01*
X242025Y-303160D01*
X241969Y-303199D01*
X241930Y-303232D01*
X241903Y-303254D01*
X241892Y-303260D01*
X241936D01*
X241964D01*
X241980D01*
X241986D01*
X242097Y-303254D01*
X242202Y-303249D01*
X242297Y-303238D01*
X242385Y-303227D01*
X242458Y-303210D01*
X242513Y-303199D01*
X242535Y-303193D01*
X242552D01*
X242558Y-303188D01*
X242563D01*
X242663Y-303160D01*
X242752Y-303132D01*
X242829Y-303104D01*
X242896Y-303077D01*
X242946Y-303054D01*
X242985Y-303032D01*
X243013Y-303021D01*
X243018Y-303016D01*
X243079Y-302971D01*
X243129Y-302927D01*
X243174Y-302883D01*
X243212Y-302838D01*
X243246Y-302805D01*
X243268Y-302771D01*
X243279Y-302749D01*
X243285Y-302744D01*
X243318Y-302683D01*
X243340Y-302616D01*
X243357Y-302555D01*
X243368Y-302494D01*
X243369Y-302480D01*
D02*
G37*
G36*
X244582Y-301278D02*
X244569Y-301285D01*
X244514Y-301318D01*
X244458Y-301357D01*
X244408Y-301391D01*
X244399Y-301396D01*
Y-302480D01*
X244001D01*
X244008Y-302523D01*
X244036Y-302634D01*
X244070Y-302734D01*
X244103Y-302811D01*
X244120Y-302845D01*
X244131Y-302872D01*
X244142Y-302895D01*
X244153Y-302911D01*
X244158Y-302922D01*
Y-302928D01*
X244236Y-303033D01*
X244319Y-303122D01*
X244414Y-303200D01*
X244502Y-303261D01*
X244580Y-303311D01*
X244647Y-303344D01*
X244674Y-303355D01*
X244691Y-303366D01*
X244702Y-303372D01*
X244708D01*
X244852Y-303416D01*
X244996Y-303450D01*
X245141Y-303477D01*
X245274Y-303494D01*
X245335Y-303500D01*
X245390Y-303505D01*
X245440D01*
X245479Y-303511D01*
X245513D01*
X245540D01*
X245557D01*
X245563D01*
X245707Y-303505D01*
X245840Y-303494D01*
X245962Y-303472D01*
X246073Y-303450D01*
X246167Y-303433D01*
X246206Y-303422D01*
X246240Y-303411D01*
X246267Y-303405D01*
X246284Y-303400D01*
X246295Y-303394D01*
X246301D01*
X246428Y-303339D01*
X246545Y-303277D01*
X246639Y-303211D01*
X246722Y-303139D01*
X246789Y-303078D01*
X246833Y-303028D01*
X246861Y-302989D01*
X246872Y-302983D01*
Y-302978D01*
X246944Y-302861D01*
X247000Y-302734D01*
X247039Y-302611D01*
X247061Y-302495D01*
X247078Y-302390D01*
X247083Y-302345D01*
Y-302306D01*
X247089Y-302278D01*
Y-302234D01*
X247083Y-302095D01*
X247075Y-302049D01*
X247019Y-302033D01*
X246897Y-301983D01*
X246792Y-301928D01*
X246709Y-301872D01*
X246675Y-301845D01*
X246642Y-301822D01*
X246620Y-301800D01*
X246603Y-301784D01*
X246598Y-301778D01*
X246592Y-301773D01*
X246542Y-301712D01*
X246492Y-301651D01*
X246453Y-301584D01*
X246420Y-301517D01*
X246370Y-301384D01*
X246358Y-301335D01*
X246256Y-301366D01*
X246079Y-301405D01*
X245918Y-301433D01*
X245846Y-301444D01*
X245773Y-301449D01*
X245718Y-301455D01*
X245662D01*
X245623Y-301461D01*
X245590D01*
X245568D01*
X245563D01*
X245363Y-301449D01*
X245168Y-301427D01*
X244996Y-301399D01*
X244913Y-301377D01*
X244841Y-301361D01*
X244774Y-301344D01*
X244713Y-301322D01*
X244658Y-301305D01*
X244613Y-301294D01*
X244582Y-301278D01*
D02*
G37*
G36*
X124830Y-311811D02*
Y-313531D01*
X126040D01*
X124830Y-311811D01*
D02*
G37*
G36*
X-110318Y-233466D02*
X-111461D01*
Y-234737D01*
X-110251D01*
X-110101Y-234731D01*
X-109974Y-234709D01*
X-109863Y-234681D01*
X-109779Y-234648D01*
X-109707Y-234615D01*
X-109663Y-234587D01*
X-109635Y-234565D01*
X-109624Y-234559D01*
X-109557Y-234487D01*
X-109507Y-234415D01*
X-109474Y-234337D01*
X-109446Y-234271D01*
X-109435Y-234204D01*
X-109430Y-234154D01*
X-109424Y-234121D01*
Y-234115D01*
Y-234110D01*
X-109430Y-234043D01*
X-109441Y-233977D01*
X-109458Y-233921D01*
X-109474Y-233871D01*
X-109496Y-233827D01*
X-109513Y-233793D01*
X-109524Y-233771D01*
X-109530Y-233766D01*
X-109569Y-233710D01*
X-109618Y-233660D01*
X-109668Y-233621D01*
X-109718Y-233588D01*
X-109763Y-233566D01*
X-109796Y-233549D01*
X-109818Y-233538D01*
X-109829Y-233533D01*
X-109907Y-233510D01*
X-109996Y-233494D01*
X-110085Y-233483D01*
X-110173Y-233477D01*
X-110251Y-233471D01*
X-110318Y-233466D01*
D02*
G37*
G36*
X-104024Y-231646D02*
X-104057D01*
X-104118Y-231651D01*
X-104174Y-231657D01*
X-104279Y-231696D01*
X-104374Y-231745D01*
X-104457Y-231801D01*
X-104518Y-231856D01*
X-104568Y-231906D01*
X-104596Y-231945D01*
X-104607Y-231951D01*
Y-231956D01*
X-104646Y-232023D01*
X-104679Y-232101D01*
X-104712Y-232189D01*
X-104734Y-232284D01*
X-104757Y-232384D01*
X-104773Y-232489D01*
X-104801Y-232706D01*
X-104812Y-232805D01*
X-104818Y-232900D01*
X-104823Y-232989D01*
Y-233061D01*
X-104829Y-233127D01*
Y-233177D01*
Y-233205D01*
Y-233216D01*
X-104823Y-233388D01*
X-104818Y-233544D01*
X-104807Y-233688D01*
X-104790Y-233821D01*
X-104773Y-233938D01*
X-104751Y-234043D01*
X-104729Y-234138D01*
X-104707Y-234221D01*
X-104684Y-234293D01*
X-104668Y-234354D01*
X-104646Y-234404D01*
X-104629Y-234448D01*
X-104612Y-234476D01*
X-104601Y-234498D01*
X-104590Y-234509D01*
Y-234515D01*
X-104551Y-234565D01*
X-104512Y-234609D01*
X-104468Y-234643D01*
X-104424Y-234676D01*
X-104335Y-234726D01*
X-104252Y-234759D01*
X-104179Y-234776D01*
X-104118Y-234787D01*
X-104096Y-234792D01*
X-104063D01*
X-104002Y-234787D01*
X-103941Y-234781D01*
X-103885Y-234765D01*
X-103835Y-234742D01*
X-103741Y-234693D01*
X-103658Y-234637D01*
X-103597Y-234576D01*
X-103547Y-234526D01*
X-103530Y-234504D01*
X-103519Y-234487D01*
X-103508Y-234482D01*
Y-234476D01*
X-103469Y-234409D01*
X-103436Y-234332D01*
X-103402Y-234243D01*
X-103380Y-234149D01*
X-103358Y-234049D01*
X-103341Y-233943D01*
X-103314Y-233732D01*
X-103303Y-233627D01*
X-103297Y-233533D01*
X-103291Y-233444D01*
Y-233372D01*
X-103286Y-233305D01*
Y-233255D01*
Y-233227D01*
Y-233222D01*
Y-233216D01*
Y-233044D01*
X-103297Y-232889D01*
X-103308Y-232750D01*
X-103319Y-232617D01*
X-103336Y-232506D01*
X-103358Y-232400D01*
X-103380Y-232312D01*
X-103397Y-232228D01*
X-103419Y-232162D01*
X-103441Y-232106D01*
X-103458Y-232056D01*
X-103480Y-232017D01*
X-103491Y-231990D01*
X-103502Y-231973D01*
X-103513Y-231962D01*
Y-231956D01*
X-103558Y-231901D01*
X-103602Y-231856D01*
X-103647Y-231812D01*
X-103691Y-231779D01*
X-103785Y-231723D01*
X-103869Y-231684D01*
X-103946Y-231662D01*
X-104002Y-231651D01*
X-104024Y-231646D01*
D02*
G37*
G36*
X-105224Y-214459D02*
X-106367D01*
Y-215729D01*
X-105157D01*
X-105007Y-215724D01*
X-104879Y-215702D01*
X-104768Y-215674D01*
X-104685Y-215641D01*
X-104613Y-215607D01*
X-104569Y-215580D01*
X-104541Y-215558D01*
X-104530Y-215552D01*
X-104463Y-215480D01*
X-104413Y-215408D01*
X-104380Y-215330D01*
X-104352Y-215263D01*
X-104341Y-215197D01*
X-104335Y-215147D01*
X-104330Y-215113D01*
Y-215108D01*
Y-215102D01*
X-104335Y-215036D01*
X-104347Y-214969D01*
X-104363Y-214914D01*
X-104380Y-214864D01*
X-104402Y-214819D01*
X-104419Y-214786D01*
X-104430Y-214764D01*
X-104435Y-214758D01*
X-104474Y-214703D01*
X-104524Y-214653D01*
X-104574Y-214614D01*
X-104624Y-214581D01*
X-104668Y-214559D01*
X-104702Y-214542D01*
X-104724Y-214531D01*
X-104735Y-214525D01*
X-104813Y-214503D01*
X-104902Y-214486D01*
X-104990Y-214475D01*
X-105079Y-214470D01*
X-105157Y-214464D01*
X-105224Y-214459D01*
D02*
G37*
G36*
X-98924Y-212638D02*
X-98958D01*
X-99035Y-212644D01*
X-99113Y-212655D01*
X-99185Y-212671D01*
X-99246Y-212688D01*
X-99296Y-212705D01*
X-99335Y-212721D01*
X-99357Y-212733D01*
X-99368Y-212738D01*
X-99435Y-212783D01*
X-99490Y-212827D01*
X-99540Y-212877D01*
X-99579Y-212927D01*
X-99612Y-212966D01*
X-99635Y-212999D01*
X-99646Y-213027D01*
X-99651Y-213032D01*
X-99679Y-213104D01*
X-99701Y-213171D01*
X-99718Y-213238D01*
X-99729Y-213299D01*
X-99734Y-213349D01*
X-99740Y-213387D01*
Y-213410D01*
Y-213421D01*
X-99729Y-213537D01*
X-99707Y-213643D01*
X-99673Y-213737D01*
X-99629Y-213820D01*
X-99590Y-213881D01*
X-99557Y-213931D01*
X-99535Y-213959D01*
X-99524Y-213970D01*
X-99440Y-214042D01*
X-99346Y-214098D01*
X-99257Y-214137D01*
X-99168Y-214164D01*
X-99091Y-214181D01*
X-99030Y-214187D01*
X-99007Y-214192D01*
X-98974D01*
X-98852Y-214181D01*
X-98741Y-214159D01*
X-98641Y-214120D01*
X-98558Y-214081D01*
X-98491Y-214037D01*
X-98441Y-213998D01*
X-98414Y-213976D01*
X-98403Y-213965D01*
X-98325Y-213876D01*
X-98269Y-213781D01*
X-98230Y-213687D01*
X-98203Y-213604D01*
X-98186Y-213521D01*
X-98181Y-213460D01*
X-98175Y-213437D01*
Y-213421D01*
Y-213410D01*
Y-213404D01*
X-98186Y-213287D01*
X-98208Y-213176D01*
X-98247Y-213082D01*
X-98286Y-213004D01*
X-98325Y-212943D01*
X-98364Y-212894D01*
X-98386Y-212866D01*
X-98397Y-212855D01*
X-98486Y-212783D01*
X-98575Y-212727D01*
X-98669Y-212694D01*
X-98758Y-212666D01*
X-98835Y-212649D01*
X-98902Y-212644D01*
X-98924Y-212638D01*
D02*
G37*
G36*
X-98946Y-214575D02*
X-98958D01*
X-99057Y-214581D01*
X-99146Y-214603D01*
X-99224Y-214631D01*
X-99291Y-214664D01*
X-99340Y-214692D01*
X-99379Y-214719D01*
X-99407Y-214742D01*
X-99413Y-214747D01*
X-99468Y-214814D01*
X-99512Y-214892D01*
X-99540Y-214964D01*
X-99563Y-215036D01*
X-99574Y-215097D01*
X-99579Y-215147D01*
X-99585Y-215180D01*
Y-215186D01*
Y-215191D01*
X-99579Y-215280D01*
X-99557Y-215358D01*
X-99529Y-215430D01*
X-99496Y-215491D01*
X-99468Y-215541D01*
X-99440Y-215580D01*
X-99418Y-215602D01*
X-99413Y-215607D01*
X-99340Y-215669D01*
X-99268Y-215713D01*
X-99191Y-215741D01*
X-99119Y-215763D01*
X-99052Y-215774D01*
X-99002Y-215785D01*
X-98958D01*
X-98863Y-215779D01*
X-98774Y-215757D01*
X-98702Y-215729D01*
X-98636Y-215696D01*
X-98586Y-215663D01*
X-98547Y-215635D01*
X-98519Y-215613D01*
X-98514Y-215607D01*
X-98453Y-215535D01*
X-98408Y-215463D01*
X-98375Y-215391D01*
X-98353Y-215324D01*
X-98342Y-215263D01*
X-98330Y-215213D01*
Y-215180D01*
Y-215175D01*
Y-215169D01*
X-98336Y-215080D01*
X-98358Y-214997D01*
X-98386Y-214925D01*
X-98419Y-214864D01*
X-98453Y-214814D01*
X-98480Y-214780D01*
X-98502Y-214753D01*
X-98508Y-214747D01*
X-98575Y-214692D01*
X-98652Y-214647D01*
X-98724Y-214619D01*
X-98797Y-214597D01*
X-98863Y-214586D01*
X-98913Y-214581D01*
X-98946Y-214575D01*
D02*
G37*
%LPD*%
D10*
X-3437Y-195297D02*
G03*
X-3437Y-195297I-492J0D01*
G01*
D11*
X65617Y-372553D02*
Y-368419D01*
X30137Y-387285D02*
X35934D01*
X29984Y-377430D02*
X35781D01*
X67279Y-387284D02*
X73076D01*
X67279Y-381881D02*
X73076D01*
X-1884Y-393458D02*
Y-391490D01*
Y-393458D02*
X4022D01*
X-1884Y-385978D02*
Y-381254D01*
Y-375742D02*
Y-373773D01*
X4022D01*
X25675Y-375742D02*
Y-373773D01*
X19770D02*
X25675D01*
Y-393458D02*
Y-391490D01*
X19770Y-393458D02*
X25675D01*
Y-385978D02*
Y-381254D01*
X11747Y-206279D02*
X16913D01*
X11747Y-200768D02*
X16913D01*
X35122Y-297998D02*
X40288D01*
X35122Y-303510D02*
X40288D01*
X14255Y-283973D02*
X19421D01*
X14255Y-278461D02*
X19421D01*
X14255Y-279983D02*
X19421D01*
X14255Y-274471D02*
X19421D01*
X68369Y-283058D02*
X73535D01*
X68369Y-277546D02*
X73535D01*
X69315Y-216705D02*
X74481D01*
X69315Y-211193D02*
X74481D01*
X69315Y-212374D02*
X74481D01*
X69315Y-206862D02*
X74481D01*
X68440Y-279121D02*
X73606D01*
X68440Y-273609D02*
X73606D01*
X69275Y-208437D02*
X74441D01*
X69275Y-202925D02*
X74441D01*
X-1567Y-180080D02*
X201386D01*
Y-200513D02*
Y-180080D01*
X-1567Y-200513D02*
X201386D01*
X-1567D02*
Y-180080D01*
X35164Y-294216D02*
X40330D01*
X35164Y-299728D02*
X40330D01*
X100974Y-306235D02*
Y-300438D01*
X95570Y-306235D02*
Y-300438D01*
X90422Y-306235D02*
Y-300438D01*
X95825Y-306235D02*
Y-300438D01*
X106392Y-306896D02*
Y-301099D01*
X100989Y-306896D02*
Y-301099D01*
X130606Y-330419D02*
X131098D01*
Y-330892D02*
Y-330419D01*
X126866Y-341837D02*
X130016D01*
X126276Y-330419D02*
X130606D01*
X111389Y-307927D02*
Y-302130D01*
X105985Y-307927D02*
Y-302130D01*
X73689Y-310629D02*
X79486D01*
X73689Y-305225D02*
X79486D01*
X71909Y-335792D02*
X77706D01*
X71909Y-330389D02*
X77706D01*
X75004Y-340926D02*
X80014D01*
X75004Y-335611D02*
X80014D01*
X75442Y-345453D02*
X79576D01*
X75442Y-340532D02*
X79576D01*
X67360Y-319697D02*
X71494D01*
X67360Y-324618D02*
X71494D01*
X67360Y-313784D02*
X71494D01*
X67360Y-318705D02*
X71494D01*
X102411Y-327934D02*
X106545D01*
X102411Y-332855D02*
X106545D01*
X102115Y-342026D02*
X106249D01*
X102115Y-346947D02*
X106249D01*
X102411Y-346831D02*
X106545D01*
X102411Y-351752D02*
X106545D01*
X102411Y-337382D02*
X106545D01*
X102411Y-342304D02*
X106545D01*
X102411Y-332658D02*
X106545D01*
X102411Y-337579D02*
X106545D01*
X104443Y-350375D02*
X108577D01*
X104443Y-355296D02*
X108577D01*
X95619Y-329213D02*
Y-325079D01*
X100541Y-329213D02*
Y-325079D01*
X84596Y-329213D02*
Y-325079D01*
X89517Y-329213D02*
Y-325079D01*
X91289Y-329213D02*
Y-325079D01*
X96210Y-329213D02*
Y-325079D01*
X78297Y-329213D02*
Y-325079D01*
X83218Y-329213D02*
Y-325079D01*
X89517Y-356182D02*
Y-352047D01*
X84596Y-356182D02*
Y-352047D01*
X97391Y-356181D02*
Y-352048D01*
X92470Y-356181D02*
Y-352048D01*
X100541Y-356181D02*
Y-352048D01*
X95619Y-356181D02*
Y-352048D01*
X130606Y-317333D02*
X131098D01*
Y-317806D02*
Y-317333D01*
X126866Y-328750D02*
X130016D01*
X126276Y-317333D02*
X130606D01*
X107925Y-308902D02*
X113722D01*
X107925Y-314306D02*
X113722D01*
X108982Y-322834D02*
X113116D01*
X108982Y-317913D02*
X113116D01*
X76678Y-367258D02*
Y-361461D01*
X82081Y-367258D02*
Y-361461D01*
X75442Y-350178D02*
X79576D01*
X75442Y-345256D02*
X79576D01*
D13*
X52905Y-363962D02*
Y-368960D01*
X51906Y-369959D01*
X49906D01*
X48907Y-368960D01*
Y-363962D01*
X43908Y-369959D02*
Y-363962D01*
X46907Y-366961D01*
X42909D01*
X24703Y-363962D02*
X20705Y-369959D01*
Y-363962D02*
X24703Y-369959D01*
X18705D02*
X16706D01*
X17706D01*
Y-363962D01*
X18705Y-364961D01*
D144*
X-3458Y-378616D02*
G03*
X-3852Y-378616I-197J0D01*
G01*
D02*
G03*
X-3458Y-378616I197J0D01*
G01*
D145*
X59791Y-395504D02*
X56459Y-392172D01*
Y-395504D02*
X59791Y-392172D01*
X58125Y-395504D02*
Y-392172D01*
X56459Y-393838D02*
X59791D01*
M02*
