G04*
G04 #@! TF.GenerationSoftware,Altium Limited,Altium Designer,21.6.4 (81)*
G04*
G04 Layer_Color=32768*
%FSAX25Y25*%
%MOIN*%
G70*
G04*
G04 #@! TF.SameCoordinates,7F8DAD8D-1828-4383-9AFE-05E1B4F186B9*
G04*
G04*
G04 #@! TF.FilePolarity,Positive*
G04*
G01*
G75*
%ADD15C,0.00787*%
G54D15*
X0595236Y-0287728D02*
Y-0283791D01*
Y-0287728D02*
X0597204D01*
Y-0283791D01*
X0595236D02*
X0597204D01*
X0545455Y-0273819D02*
Y-0269882D01*
X0543487D02*
X0545455D01*
X0543487Y-0273819D02*
Y-0269882D01*
Y-0273819D02*
X0545455D01*
X0581850Y-0279460D02*
Y-0275523D01*
X0579882D02*
X0581850D01*
X0579882Y-0279460D02*
Y-0275523D01*
Y-0279460D02*
X0581850D01*
X0579882Y-0287334D02*
Y-0283398D01*
Y-0287334D02*
X0581850D01*
Y-0283398D01*
X0579882D02*
X0581850D01*
X0554967Y-0279770D02*
X0558904D01*
X0554967Y-0281739D02*
Y-0279770D01*
Y-0281739D02*
X0558904D01*
Y-0279770D01*
X0587192Y-0282453D02*
X0592113D01*
Y-0277532D01*
X0587192D02*
X0592113D01*
X0587192Y-0282453D02*
Y-0277532D01*
X0597204Y-0280248D02*
Y-0276311D01*
X0595236D02*
X0597204D01*
X0595236Y-0280248D02*
Y-0276311D01*
Y-0280248D02*
X0597204D01*
X0476888Y-0302356D02*
Y-0298418D01*
Y-0302356D02*
X0478857D01*
Y-0298418D01*
X0476888D02*
X0478857D01*
X0482283Y-0266732D02*
Y-0264764D01*
X0478346Y-0266732D02*
X0482283D01*
X0478346D02*
Y-0264764D01*
X0482283D01*
X0188779Y-0092520D02*
X0190748D01*
Y-0096457D02*
Y-0092520D01*
X0188779Y-0096457D02*
X0190748D01*
X0188779D02*
Y-0092520D01*
X0150766Y0005912D02*
X0152735D01*
Y0001975D02*
Y0005912D01*
X0150766Y0001975D02*
X0152735D01*
X0150766D02*
Y0005912D01*
X0499213Y-0253346D02*
Y-0251378D01*
X0495276Y-0253346D02*
X0499213D01*
X0495276D02*
Y-0251378D01*
X0499213D01*
X0505709Y-0261120D02*
Y-0259152D01*
X0509646D01*
Y-0261120D02*
Y-0259152D01*
X0505709Y-0261120D02*
X0509646D01*
X0499606Y-0260827D02*
Y-0258858D01*
X0495669Y-0260827D02*
X0499606D01*
X0495669D02*
Y-0258858D01*
X0499606D01*
X0567913Y-0262104D02*
Y-0260135D01*
X0563976Y-0262104D02*
X0567913D01*
X0563976D02*
Y-0260135D01*
X0567913D01*
X0571358Y-0262106D02*
Y-0260138D01*
X0575295D01*
Y-0262106D02*
Y-0260138D01*
X0571358Y-0262106D02*
X0575295D01*
X0208465Y0000787D02*
X0210433D01*
X0208465D02*
Y0004724D01*
X0210433D01*
Y0000787D02*
Y0004724D01*
X0202854Y-0004921D02*
X0204823D01*
X0202854D02*
Y-0000984D01*
X0204823D01*
Y-0004921D02*
Y-0000984D01*
X0213189Y-0005118D02*
X0215158D01*
X0213189D02*
Y-0001181D01*
X0215158D01*
Y-0005118D02*
Y-0001181D01*
X0203553Y-0073032D02*
X0205521D01*
Y-0076968D02*
Y-0073032D01*
X0203553Y-0076968D02*
X0205521D01*
X0203553D02*
Y-0073032D01*
X0213189Y-0072835D02*
X0215158D01*
Y-0076772D02*
Y-0072835D01*
X0213189Y-0076772D02*
X0215158D01*
X0213189D02*
Y-0072835D01*
X0408071Y-0128445D02*
X0412402D01*
X0408071Y-0130610D02*
Y-0128445D01*
Y-0130610D02*
X0412402D01*
Y-0128445D01*
X0413779Y-0123425D02*
X0417717D01*
X0413779Y-0125394D02*
Y-0123425D01*
Y-0125394D02*
X0417717D01*
Y-0123425D01*
X0427953Y-0131693D02*
X0431890D01*
X0427953Y-0133661D02*
Y-0131693D01*
Y-0133661D02*
X0431890D01*
Y-0131693D01*
X0055741Y-0035728D02*
X0057907D01*
X0055741D02*
Y-0031398D01*
X0057907D01*
Y-0035728D02*
Y-0031398D01*
X0111024Y-0015157D02*
X0114961D01*
X0111024Y-0017126D02*
Y-0015157D01*
Y-0017126D02*
X0114961D01*
Y-0015157D01*
X0093701Y-0078150D02*
Y-0076181D01*
X0097638D01*
Y-0078150D02*
Y-0076181D01*
X0093701Y-0078150D02*
X0097638D01*
X0107677Y-0044230D02*
X0109646D01*
Y-0048167D02*
Y-0044230D01*
X0107677Y-0048167D02*
X0109646D01*
X0107677D02*
Y-0044230D01*
X0280906Y-0193307D02*
X0282874D01*
Y-0197244D02*
Y-0193307D01*
X0280906Y-0197244D02*
X0282874D01*
X0280906D02*
Y-0193307D01*
X0337402Y-0291929D02*
X0341339D01*
X0337402Y-0293898D02*
Y-0291929D01*
Y-0293898D02*
X0341339D01*
Y-0291929D01*
X0318504Y-0292717D02*
X0322441D01*
X0318504Y-0294685D02*
Y-0292717D01*
Y-0294685D02*
X0322441D01*
Y-0292717D01*
X0323622Y-0238779D02*
X0327559D01*
X0323622Y-0240748D02*
Y-0238779D01*
Y-0240748D02*
X0327559D01*
Y-0238779D01*
X0375984Y-0233957D02*
X0379921D01*
Y-0231988D01*
X0375984D02*
X0379921D01*
X0375984Y-0233957D02*
Y-0231988D01*
X0552756Y-0327461D02*
X0561417D01*
X0552756Y-0333169D02*
Y-0327461D01*
Y-0333169D02*
X0561417D01*
Y-0327461D01*
X0528888Y-0331692D02*
X0537550D01*
Y-0325983D01*
X0528888D02*
X0537550D01*
X0528888Y-0331692D02*
Y-0325983D01*
X0561811Y-0312697D02*
X0570472D01*
Y-0306988D01*
X0561811D02*
X0570472D01*
X0561811Y-0312697D02*
Y-0306988D01*
X0528888Y-0315127D02*
X0537550D01*
Y-0309418D01*
X0528888D02*
X0537550D01*
X0528888Y-0315127D02*
Y-0309418D01*
X0117717Y-0033366D02*
X0126378D01*
X0117717Y-0039075D02*
Y-0033366D01*
Y-0039075D02*
X0126378D01*
Y-0033366D01*
X0121073Y-0077429D02*
X0129734D01*
Y-0071720D01*
X0121073D02*
X0129734D01*
X0121073Y-0077429D02*
Y-0071720D01*
X0152364Y-0073927D02*
Y-0068218D01*
X0143702Y-0073927D02*
X0152364D01*
X0143702D02*
Y-0068218D01*
X0152364D01*
X0145778Y-0041387D02*
X0151486D01*
Y-0050049D02*
Y-0041387D01*
X0145778Y-0050049D02*
X0151486D01*
X0145778D02*
Y-0041387D01*
X0611024Y-0239567D02*
X0614961D01*
Y-0237598D01*
X0611024D02*
X0614961D01*
X0611024Y-0239567D02*
Y-0237598D01*
X0612357Y-0232087D02*
X0616294D01*
Y-0230118D01*
X0612357D02*
X0616294D01*
X0612357Y-0232087D02*
Y-0230118D01*
X0612303Y-0303740D02*
X0616240D01*
Y-0301772D01*
X0612303D02*
X0616240D01*
X0612303Y-0303740D02*
Y-0301772D01*
X0382413Y-0133071D02*
X0389500D01*
X0382413Y-0137008D02*
Y-0133071D01*
Y-0137008D02*
X0389500D01*
Y-0133071D01*
X0066496Y-0059517D02*
Y-0052430D01*
X0062559D02*
X0066496D01*
X0062559Y-0059517D02*
Y-0052430D01*
Y-0059517D02*
X0066496D01*
X0095079Y-0044882D02*
X0097047D01*
Y-0048819D02*
Y-0044882D01*
X0095079Y-0048819D02*
X0097047D01*
X0095079D02*
Y-0044882D01*
X0100000Y-0042913D02*
X0103937D01*
Y-0050000D02*
Y-0042913D01*
X0100000Y-0050000D02*
X0103937D01*
X0100000D02*
Y-0042913D01*
X0607480Y-0062992D02*
X0614567D01*
X0607480Y-0066929D02*
Y-0062992D01*
Y-0066929D02*
X0614567D01*
Y-0062992D01*
X0149445Y-0123228D02*
X0153382D01*
X0149445Y-0125197D02*
Y-0123228D01*
Y-0125197D02*
X0153382D01*
Y-0123228D01*
X0162992Y-0105118D02*
Y-0098032D01*
Y-0105118D02*
X0166929D01*
Y-0098032D01*
X0162992D02*
X0166929D01*
X0152165Y-0103543D02*
Y-0099606D01*
Y-0103543D02*
X0154134D01*
Y-0099606D01*
X0152165D02*
X0154134D01*
X0159646Y-0101958D02*
Y-0098021D01*
X0157677D02*
X0159646D01*
X0157677Y-0101958D02*
Y-0098021D01*
Y-0101958D02*
X0159646D01*
M02*
