G04*
G04 #@! TF.GenerationSoftware,Altium Limited,Altium Designer,21.6.4 (81)*
G04*
G04 Layer_Color=32896*
%FSLAX44Y44*%
%MOMM*%
G71*
G04*
G04 #@! TF.SameCoordinates,3EDC82D6-234A-4603-B505-91B76C251D76*
G04*
G04*
G04 #@! TF.FilePolarity,Positive*
G04*
G01*
G75*
%ADD10C,0.2500*%
%ADD14C,0.2000*%
%ADD20C,0.2032*%
G54D10*
X99575Y291000D02*
X97700Y292083D01*
Y289918D01*
X99575Y291000D01*
X99750Y357000D02*
X97875Y358083D01*
Y355917D01*
X99750Y357000D01*
X24250Y296000D02*
X22375Y297083D01*
Y294918D01*
X24250Y296000D01*
X74925Y304000D02*
X73050Y305082D01*
Y302917D01*
X74925Y304000D01*
G54D14*
X280709Y394709D02*
Y423291D01*
X299291Y394709D02*
Y423291D01*
X405750Y541250D02*
X416250D01*
X405750Y528750D02*
X416250D01*
X336000Y239469D02*
Y260531D01*
X318000Y239469D02*
Y260531D01*
X103250Y122750D02*
Y133250D01*
X115750Y122750D02*
Y133250D01*
Y107750D02*
Y118250D01*
X103250Y107750D02*
Y118250D01*
X77750Y133480D02*
X83250D01*
X77750Y104520D02*
Y133480D01*
Y104520D02*
X83250D01*
Y133480D01*
X86750Y134020D02*
X99250D01*
X80325Y266250D02*
X91325D01*
X80325Y295750D02*
X91325D01*
X80500Y332250D02*
X91500D01*
X80500Y361750D02*
X91500D01*
X29000Y290000D02*
X30250D01*
X55750D02*
X57000D01*
Y336750D02*
Y338000D01*
Y290000D02*
Y291250D01*
X29000Y338000D02*
X30250D01*
X55750D02*
X57000D01*
X29000Y336750D02*
Y338000D01*
Y290000D02*
Y291250D01*
X299000Y370469D02*
Y391531D01*
X281000Y370469D02*
Y391531D01*
X280500Y462969D02*
Y484031D01*
X298500Y462969D02*
Y484031D01*
X324500Y462969D02*
Y484031D01*
X306500Y462969D02*
Y484031D01*
X293209Y455970D02*
Y484552D01*
X311791Y455970D02*
Y484552D01*
X501000Y287710D02*
Y312772D01*
X479000Y287710D02*
Y312772D01*
X19850Y270000D02*
Y280000D01*
X7150Y270000D02*
Y280000D01*
X258750Y323400D02*
X268750D01*
X258750Y336100D02*
X268750D01*
X134811Y584469D02*
Y617531D01*
X112189Y584469D02*
Y617531D01*
X87219Y584669D02*
Y613831D01*
X109781Y584669D02*
Y613831D01*
X390250Y481750D02*
Y492250D01*
X377750Y481750D02*
Y492250D01*
X405750Y531250D02*
X416250D01*
X405750Y518750D02*
X416250D01*
X386500Y561500D02*
Y572000D01*
X399000Y561500D02*
Y572000D01*
X325250Y510750D02*
X335750D01*
X325250Y523250D02*
X335750D01*
X350250Y561500D02*
Y572000D01*
X362750Y561500D02*
Y572000D01*
X325250Y522500D02*
X335750D01*
X325250Y535000D02*
X335750D01*
X325250Y546750D02*
X335750D01*
X325250Y559250D02*
X335750D01*
X362500Y561500D02*
Y572000D01*
X375000Y561500D02*
Y572000D01*
X374500Y561500D02*
Y572000D01*
X387000Y561500D02*
Y572000D01*
X465750Y291750D02*
X476250D01*
X465750Y304250D02*
X476250D01*
X479000Y314469D02*
Y339531D01*
X501000Y314469D02*
Y339531D01*
X80675Y299250D02*
X91675D01*
X80675Y328750D02*
X91675D01*
X349750Y481750D02*
Y492250D01*
X362250Y481750D02*
Y492250D01*
X388750Y481750D02*
Y492250D01*
X401250Y481750D02*
Y492250D01*
X315750Y509250D02*
X326250Y509250D01*
X315750Y496750D02*
X326250Y496750D01*
X325250Y547250D02*
X335750Y547250D01*
X325250Y534750D02*
X335750Y534750D01*
X405750Y538750D02*
X416250D01*
X405750Y551250D02*
X416250D01*
X350750Y561500D02*
Y572000D01*
X338250Y561500D02*
Y572000D01*
X338750Y247750D02*
Y258250D01*
X351250Y247750D02*
Y258250D01*
X465750Y325750D02*
X476250D01*
X465750Y338250D02*
X476250D01*
X416250Y384750D02*
Y395250D01*
X403750Y384750D02*
Y395250D01*
X330750Y337250D02*
X341250D01*
X330750Y324750D02*
X341250D01*
X330750Y311750D02*
X341250D01*
X330750Y324250D02*
X341250D01*
X316469Y289000D02*
X341531D01*
X316469Y311000D02*
X341531D01*
X393000Y384469D02*
Y405531D01*
X375000Y384469D02*
Y405531D01*
X406250Y384750D02*
Y395250D01*
X393750Y384750D02*
Y395250D01*
X465750Y313750D02*
X476250D01*
X465750Y326250D02*
X476250D01*
X465750Y302750D02*
X476250D01*
X465750Y315250D02*
X476250D01*
X462469Y351000D02*
X483531D01*
X462469Y369000D02*
X483531D01*
X465750Y338750D02*
X476250D01*
X465750Y351250D02*
X476250D01*
G54D20*
X275809Y407718D02*
Y402640D01*
X272000D01*
Y405179D01*
Y402640D01*
X268191D01*
X275809Y410257D02*
X268191D01*
Y414066D01*
X269461Y415335D01*
X270730D01*
X272000Y414066D01*
Y410257D01*
Y414066D01*
X273270Y415335D01*
X274539D01*
X275809Y414066D01*
Y410257D01*
Y417875D02*
Y422953D01*
X274539D01*
X269461Y417875D01*
X268191D01*
X392890Y579776D02*
X400508Y579735D01*
X400528Y583544D01*
X399265Y584820D01*
X396726Y584834D01*
X395450Y583571D01*
X395429Y579762D01*
X395443Y582301D02*
X392917Y584854D01*
X392931Y587393D02*
X392945Y589933D01*
X392938Y588663D01*
X400555Y588622D01*
X399279Y587359D01*
X399313Y593707D02*
X400589Y594970D01*
X400603Y597509D01*
X399340Y598785D01*
X398071Y598792D01*
X396795Y597529D01*
X395532Y598806D01*
X394262Y598813D01*
X392986Y597550D01*
X392972Y595011D01*
X394235Y593734D01*
X395504Y593728D01*
X396781Y594990D01*
X398044Y593714D01*
X399313Y593707D01*
X396781Y594990D02*
X396795Y597529D01*
X312961Y503578D02*
X311691Y504848D01*
Y507387D01*
X312961Y508657D01*
X318039D01*
X319309Y507387D01*
Y504848D01*
X318039Y503578D01*
X319309Y495961D02*
Y501039D01*
X314230Y495961D01*
X312961D01*
X311691Y497230D01*
Y499770D01*
X312961Y501039D01*
Y493422D02*
X311691Y492152D01*
Y489613D01*
X312961Y488343D01*
X318039D01*
X319309Y489613D01*
Y492152D01*
X318039Y493422D01*
X312961D01*
X282461Y452943D02*
X281191Y454213D01*
Y456752D01*
X282461Y458022D01*
X287539D01*
X288809Y456752D01*
Y454213D01*
X287539Y452943D01*
X288809Y450404D02*
Y447865D01*
Y449135D01*
X281191D01*
X282461Y450404D01*
X287539Y444056D02*
X288809Y442787D01*
Y440248D01*
X287539Y438978D01*
X282461D01*
X281191Y440248D01*
Y442787D01*
X282461Y444056D01*
X283730D01*
X285000Y442787D01*
Y438978D01*
X93075Y156207D02*
Y149859D01*
X91805Y148590D01*
X89266D01*
X87997Y149859D01*
Y156207D01*
X81649Y148590D02*
Y156207D01*
X85457Y152399D01*
X80379D01*
X273229Y343191D02*
Y350809D01*
X269420D01*
X268150Y349539D01*
Y347000D01*
X269420Y345730D01*
X273229D01*
X270690D02*
X268150Y343191D01*
X261802D02*
Y350809D01*
X265611Y347000D01*
X260533D01*
X252915Y350809D02*
X255454Y349539D01*
X257994Y347000D01*
Y344461D01*
X256724Y343191D01*
X254185D01*
X252915Y344461D01*
Y345730D01*
X254185Y347000D01*
X257994D01*
X379523Y458007D02*
X371905D01*
Y454198D01*
X373175Y452928D01*
X375714D01*
X376983Y454198D01*
Y458007D01*
Y455467D02*
X379523Y452928D01*
Y446580D02*
X371905D01*
X375714Y450389D01*
Y445311D01*
X379523Y437693D02*
Y442771D01*
X374444Y437693D01*
X373175D01*
X371905Y438963D01*
Y441502D01*
X373175Y442771D01*
X395763Y456071D02*
X388146D01*
Y452262D01*
X389415Y450993D01*
X391954D01*
X393224Y452262D01*
Y456071D01*
Y453532D02*
X395763Y450993D01*
Y444645D02*
X388146D01*
X391954Y448453D01*
Y443375D01*
X395763Y440836D02*
Y438297D01*
Y439566D01*
X388146D01*
X389415Y440836D01*
X410172Y458157D02*
X402554D01*
Y454348D01*
X403824Y453078D01*
X406363D01*
X407633Y454348D01*
Y458157D01*
Y455617D02*
X410172Y453078D01*
X403824Y450539D02*
X402554Y449269D01*
Y446730D01*
X403824Y445461D01*
X405094D01*
X406363Y446730D01*
Y448000D01*
Y446730D01*
X407633Y445461D01*
X408902D01*
X410172Y446730D01*
Y449269D01*
X408902Y450539D01*
Y442922D02*
X410172Y441652D01*
Y439113D01*
X408902Y437843D01*
X403824D01*
X402554Y439113D01*
Y441652D01*
X403824Y442922D01*
X405094D01*
X406363Y441652D01*
Y437843D01*
X433717Y458157D02*
X426100D01*
Y454348D01*
X427369Y453078D01*
X429908D01*
X431178Y454348D01*
Y458157D01*
Y455617D02*
X433717Y453078D01*
X427369Y450539D02*
X426100Y449269D01*
Y446730D01*
X427369Y445461D01*
X428639D01*
X429908Y446730D01*
Y448000D01*
Y446730D01*
X431178Y445461D01*
X432448D01*
X433717Y446730D01*
Y449269D01*
X432448Y450539D01*
X427369Y442922D02*
X426100Y441652D01*
Y439113D01*
X427369Y437843D01*
X428639D01*
X429908Y439113D01*
X431178Y437843D01*
X432448D01*
X433717Y439113D01*
Y441652D01*
X432448Y442922D01*
X431178D01*
X429908Y441652D01*
X428639Y442922D01*
X427369D01*
X429908Y441652D02*
Y439113D01*
X421263Y458157D02*
X413645D01*
Y454348D01*
X414915Y453078D01*
X417454D01*
X418723Y454348D01*
Y458157D01*
Y455617D02*
X421263Y453078D01*
X414915Y450539D02*
X413645Y449269D01*
Y446730D01*
X414915Y445461D01*
X416184D01*
X417454Y446730D01*
Y448000D01*
Y446730D01*
X418723Y445461D01*
X419993D01*
X421263Y446730D01*
Y449269D01*
X419993Y450539D01*
X413645Y437843D02*
X414915Y440382D01*
X417454Y442922D01*
X419993D01*
X421263Y441652D01*
Y439113D01*
X419993Y437843D01*
X418723D01*
X417454Y439113D01*
Y442922D01*
X444808Y458157D02*
X437191D01*
Y454348D01*
X438460Y453078D01*
X440999D01*
X442269Y454348D01*
Y458157D01*
Y455617D02*
X444808Y453078D01*
X438460Y450539D02*
X437191Y449269D01*
Y446730D01*
X438460Y445461D01*
X439730D01*
X440999Y446730D01*
Y448000D01*
Y446730D01*
X442269Y445461D01*
X443539D01*
X444808Y446730D01*
Y449269D01*
X443539Y450539D01*
X437191Y437843D02*
Y442922D01*
X440999D01*
X439730Y440382D01*
Y439113D01*
X440999Y437843D01*
X443539D01*
X444808Y439113D01*
Y441652D01*
X443539Y442922D01*
X484285Y275206D02*
Y280285D01*
X488094D01*
Y277745D01*
Y280285D01*
X491902D01*
X484285Y272667D02*
X491902D01*
Y268858D01*
X490633Y267589D01*
X489363D01*
X488094Y268858D01*
Y272667D01*
Y268858D01*
X486824Y267589D01*
X485554D01*
X484285Y268858D01*
Y272667D01*
X491902Y265050D02*
Y262510D01*
Y263780D01*
X484285D01*
X485554Y265050D01*
Y258702D02*
X484285Y257432D01*
Y254893D01*
X485554Y253623D01*
X490633D01*
X491902Y254893D01*
Y257432D01*
X490633Y258702D01*
X485554D01*
X486191Y359078D02*
Y364157D01*
X490000D01*
Y361618D01*
Y364157D01*
X493809D01*
X486191Y356539D02*
X493809D01*
Y352730D01*
X492539Y351461D01*
X491270D01*
X490000Y352730D01*
Y356539D01*
Y352730D01*
X488730Y351461D01*
X487461D01*
X486191Y352730D01*
Y356539D01*
X492539Y348922D02*
X493809Y347652D01*
Y345113D01*
X492539Y343843D01*
X487461D01*
X486191Y345113D01*
Y347652D01*
X487461Y348922D01*
X488730D01*
X490000Y347652D01*
Y343843D01*
X361078Y303809D02*
X366157D01*
Y300000D01*
X363618D01*
X366157D01*
Y296191D01*
X358539Y303809D02*
Y296191D01*
X354730D01*
X353461Y297461D01*
Y298731D01*
X354730Y300000D01*
X358539D01*
X354730D01*
X353461Y301270D01*
Y302539D01*
X354730Y303809D01*
X358539D01*
X350922Y302539D02*
X349652Y303809D01*
X347113D01*
X345843Y302539D01*
Y301270D01*
X347113Y300000D01*
X345843Y298731D01*
Y297461D01*
X347113Y296191D01*
X349652D01*
X350922Y297461D01*
Y298731D01*
X349652Y300000D01*
X350922Y301270D01*
Y302539D01*
X349652Y300000D02*
X347113D01*
X105809Y305478D02*
X99461D01*
X98191Y306748D01*
Y309287D01*
X99461Y310557D01*
X105809D01*
X98191Y313096D02*
Y315635D01*
Y314365D01*
X105809D01*
X104539Y313096D01*
X98191Y323252D02*
X105809D01*
X102000Y319444D01*
Y324522D01*
X105459Y267478D02*
X99111D01*
X97841Y268748D01*
Y271287D01*
X99111Y272556D01*
X105459D01*
X97841Y275096D02*
Y277635D01*
Y276365D01*
X105459D01*
X104189Y275096D01*
Y281444D02*
X105459Y282713D01*
Y285252D01*
X104189Y286522D01*
X102920D01*
X101650Y285252D01*
Y283983D01*
Y285252D01*
X100380Y286522D01*
X99111D01*
X97841Y285252D01*
Y282713D01*
X99111Y281444D01*
X104809Y332478D02*
X98461D01*
X97191Y333748D01*
Y336287D01*
X98461Y337556D01*
X104809D01*
X97191Y340096D02*
Y342635D01*
Y341365D01*
X104809D01*
X103539Y340096D01*
X97191Y351522D02*
Y346444D01*
X102270Y351522D01*
X103539D01*
X104809Y350252D01*
Y347713D01*
X103539Y346444D01*
X56252Y351809D02*
Y345461D01*
X54983Y344191D01*
X52444D01*
X51174Y345461D01*
Y351809D01*
X48635Y344191D02*
X46096D01*
X47365D01*
Y351809D01*
X48635Y350539D01*
X42287Y344191D02*
X39748D01*
X41017D01*
Y351809D01*
X42287Y350539D01*
X298691Y447339D02*
Y452417D01*
X302500D01*
Y449878D01*
Y452417D01*
X306309D01*
X298691Y444800D02*
X306309D01*
Y440991D01*
X305039Y439722D01*
X303770D01*
X302500Y440991D01*
Y444800D01*
Y440991D01*
X301230Y439722D01*
X299961D01*
X298691Y440991D01*
Y444800D01*
X306309Y433374D02*
X298691D01*
X302500Y437182D01*
Y432104D01*
X269211Y383078D02*
X267941Y384348D01*
Y386887D01*
X269211Y388157D01*
X274289D01*
X275559Y386887D01*
Y384348D01*
X274289Y383078D01*
X267941Y375461D02*
Y380539D01*
X271750D01*
X270480Y378000D01*
Y376730D01*
X271750Y375461D01*
X274289D01*
X275559Y376730D01*
Y379270D01*
X274289Y380539D01*
Y372922D02*
X275559Y371652D01*
Y369113D01*
X274289Y367843D01*
X269211D01*
X267941Y369113D01*
Y371652D01*
X269211Y372922D01*
X270480D01*
X271750Y371652D01*
Y367843D01*
X359289Y501922D02*
X360559Y500652D01*
Y498113D01*
X359289Y496843D01*
X354211D01*
X352941Y498113D01*
Y500652D01*
X354211Y501922D01*
X359289Y504461D02*
X360559Y505730D01*
Y508270D01*
X359289Y509539D01*
X358020D01*
X356750Y508270D01*
Y507000D01*
Y508270D01*
X355480Y509539D01*
X354211D01*
X352941Y508270D01*
Y505730D01*
X354211Y504461D01*
Y512078D02*
X352941Y513348D01*
Y515887D01*
X354211Y517157D01*
X359289D01*
X360559Y515887D01*
Y513348D01*
X359289Y512078D01*
X358020D01*
X356750Y513348D01*
Y517157D01*
X396078Y528039D02*
X397348Y529309D01*
X399887D01*
X401157Y528039D01*
Y522961D01*
X399887Y521691D01*
X397348D01*
X396078Y522961D01*
X388461Y521691D02*
X393539D01*
X388461Y526770D01*
Y528039D01*
X389730Y529309D01*
X392270D01*
X393539Y528039D01*
X385922D02*
X384652Y529309D01*
X382113D01*
X380843Y528039D01*
Y526770D01*
X382113Y525500D01*
X380843Y524230D01*
Y522961D01*
X382113Y521691D01*
X384652D01*
X385922Y522961D01*
Y524230D01*
X384652Y525500D01*
X385922Y526770D01*
Y528039D01*
X384652Y525500D02*
X382113D01*
X137691Y580478D02*
X145309D01*
Y584287D01*
X144039Y585556D01*
X141500D01*
X140230Y584287D01*
Y580478D01*
Y583017D02*
X137691Y585556D01*
Y588096D02*
Y590635D01*
Y589365D01*
X145309D01*
X144039Y588096D01*
X137691Y599522D02*
Y594444D01*
X142770Y599522D01*
X144039D01*
X145309Y598252D01*
Y595713D01*
X144039Y594444D01*
X107038Y629867D02*
X108355Y631087D01*
X110892Y630990D01*
X112112Y629673D01*
X111918Y624598D01*
X110600Y623378D01*
X108063Y623475D01*
X106843Y624792D01*
X104257Y623621D02*
X101720Y623718D01*
X102988Y623670D01*
X103280Y631282D01*
X104500Y629964D01*
X92839Y624059D02*
X97914Y623864D01*
X93034Y629133D01*
X93082Y630402D01*
X94400Y631622D01*
X96937Y631525D01*
X98157Y630208D01*
X639809Y58922D02*
X641079Y57652D01*
Y55113D01*
X639809Y53843D01*
X634731D01*
X633461Y55113D01*
Y57652D01*
X634731Y58922D01*
X633461Y65270D02*
X641079D01*
X637270Y61461D01*
Y66539D01*
X641079Y69078D02*
Y74157D01*
X639809D01*
X634731Y69078D01*
X633461D01*
X627809Y58922D02*
X629079Y57652D01*
Y55113D01*
X627809Y53843D01*
X622731D01*
X621461Y55113D01*
Y57652D01*
X622731Y58922D01*
X621461Y65270D02*
X629079D01*
X625270Y61461D01*
Y66539D01*
X629079Y74157D02*
X627809Y71618D01*
X625270Y69078D01*
X622731D01*
X621461Y70348D01*
Y72887D01*
X622731Y74157D01*
X624000D01*
X625270Y72887D01*
Y69078D01*
X609809Y58922D02*
X611079Y57652D01*
Y55113D01*
X609809Y53843D01*
X604731D01*
X603461Y55113D01*
Y57652D01*
X604731Y58922D01*
X603461Y65270D02*
X611079D01*
X607270Y61461D01*
Y66539D01*
X611079Y74157D02*
Y69078D01*
X607270D01*
X608540Y71618D01*
Y72887D01*
X607270Y74157D01*
X604731D01*
X603461Y72887D01*
Y70348D01*
X604731Y69078D01*
X597809Y58922D02*
X599079Y57652D01*
Y55113D01*
X597809Y53843D01*
X592731D01*
X591461Y55113D01*
Y57652D01*
X592731Y58922D01*
X591461Y65270D02*
X599079D01*
X595270Y61461D01*
Y66539D01*
X591461Y72887D02*
X599079D01*
X595270Y69078D01*
Y74157D01*
M02*
