M48
;Layer_Color=9474304
;FILE_FORMAT=4:4
METRIC,TZ
;TYPE=PLATED
T8F00S00C0.5000
T9F00S00C0.6000
T10F00S00C0.6500
;TYPE=NON_PLATED
%
G90
G05
T08
G00X95000Y251000
M15
G01X105000
M16
G00X151800Y251000
M15
G01X161800
M16
G00X151800Y378500
M15
G01X161800
M16
G00X95000Y378500
M15
G01X105000
M16
T09
G00X154250Y614700
M15
G01Y609200
M16
G00X225750Y614700
M15
G01Y609200
M16
T10
G00X20250Y134000
M15
G01X30750
M16
G00X53850Y134000
M15
G01X64350
M16
G00X53850Y196000
M15
G01X64350
M16
G00X20250Y196000
M15
G01X30750
M16
M17
M30
