M48
;Layer_Color=9474304
;FILE_FORMAT=4:4
METRIC,LZ
T7F00S00C5.0800
%
G90
G05
T07
G00X00502528Y-000254
M15
G01X00503759Y-00025487
G01X00507955Y-0002501
G01X00509906Y-00024622
G01X00514759Y-0002314
G01X00519062Y-00020829
G01X00520716Y-00019724
G01X00524632Y-00016498
G01X00527724Y-00012716
G01X00528829Y-00011062
G01X00531213Y-00006583
G01X00532622Y-00001906
G01X0053301Y00000045
G01X00533498Y00005005
G01X005334Y00502528
G01X00533487Y00503759
G01X0053301Y00507955
G01X00532622Y00509906
G01X0053114Y00514759
G01X00528829Y00519062
G01X00527724Y00520716
G01X00524498Y00524632
G01X00520716Y00527724
G01X00519062Y00528829
G01X00514583Y00531213
G01X00509906Y00532622
G01X00507955Y0053301
G01X00502995Y00533498
G01X0000566Y005334
G01X00004241Y00533499
G01X00000045Y00533023
G01X-00001906Y00532635
G01X-00006759Y00531153
G01X-00011062Y00528842
G01X-00012716Y00527737
G01X-00016632Y00524511
G01X-00019724Y00520729
G01X-00020829Y00519075
G01X-00023213Y00514596
G01X-00024622Y00509919
G01X-0002501Y00507968
G01X-00025498Y00503008
G01X-000254Y00005472
G01X-00025487Y00004241
G01X-0002501Y00000045
G01X-00024622Y-00001906
G01X-0002314Y-00006759
G01X-00020829Y-00011062
G01X-00019724Y-00012716
G01X-00016498Y-00016632
G01X-00012716Y-00019724
G01X-00011062Y-00020829
G01X-00006583Y-00023213
G01X-00001906Y-00024622
G01X00000045Y-0002501
G01X00005005Y-00025498
G01X00502528Y-000254
M16
M17
M30
