G04*
G04 #@! TF.GenerationSoftware,Altium Limited,Altium Designer,24.1.2 (44)*
G04*
G04 Layer_Color=2752767*
%FSLAX25Y25*%
%MOIN*%
G70*
G04*
G04 #@! TF.SameCoordinates,59DD8EBB-DCD7-4209-94D2-A0ED0100978B*
G04*
G04*
G04 #@! TF.FilePolarity,Positive*
G04*
G01*
G75*
%ADD146C,0.00200*%
%ADD150C,0.00267*%
D146*
X4109Y-195297D02*
X4909Y-194497D01*
X5709Y-195297D01*
X4909Y-196097D01*
X4109Y-195297D01*
X14109D02*
X14909Y-194497D01*
X15709Y-195297D01*
X14909Y-196097D01*
X14109Y-195297D01*
X24109D02*
X24909Y-194497D01*
X25709Y-195297D01*
X24909Y-196097D01*
X24109Y-195297D01*
X34109D02*
X34909Y-194497D01*
X35709Y-195297D01*
X34909Y-196097D01*
X34109Y-195297D01*
X44109D02*
X44909Y-194497D01*
X45709Y-195297D01*
X44909Y-196097D01*
X44109Y-195297D01*
X54109D02*
X54909Y-194497D01*
X55709Y-195297D01*
X54909Y-196097D01*
X54109Y-195297D01*
X64109D02*
X64909Y-194497D01*
X65709Y-195297D01*
X64909Y-196097D01*
X64109Y-195297D01*
X74109D02*
X74909Y-194497D01*
X75709Y-195297D01*
X74909Y-196097D01*
X74109Y-195297D01*
X84109D02*
X84909Y-194497D01*
X85709Y-195297D01*
X84909Y-196097D01*
X84109Y-195297D01*
X94109D02*
X94909Y-194497D01*
X95709Y-195297D01*
X94909Y-196097D01*
X94109Y-195297D01*
X104109D02*
X104909Y-194497D01*
X105709Y-195297D01*
X104909Y-196097D01*
X104109Y-195297D01*
X114109D02*
X114909Y-194497D01*
X115709Y-195297D01*
X114909Y-196097D01*
X114109Y-195297D01*
X124109D02*
X124909Y-194497D01*
X125709Y-195297D01*
X124909Y-196097D01*
X124109Y-195297D01*
X134109D02*
X134909Y-194497D01*
X135709Y-195297D01*
X134909Y-196097D01*
X134109Y-195297D01*
X144109D02*
X144909Y-194497D01*
X145709Y-195297D01*
X144909Y-196097D01*
X144109Y-195297D01*
X154109D02*
X154909Y-194497D01*
X155709Y-195297D01*
X154909Y-196097D01*
X154109Y-195297D01*
X164109D02*
X164909Y-194497D01*
X165709Y-195297D01*
X164909Y-196097D01*
X164109Y-195297D01*
X174109D02*
X174909Y-194497D01*
X175709Y-195297D01*
X174909Y-196097D01*
X174109Y-195297D01*
X184109D02*
X184909Y-194497D01*
X185709Y-195297D01*
X184909Y-196097D01*
X184109Y-195297D01*
X194109D02*
X194909Y-194497D01*
X195709Y-195297D01*
X194909Y-196097D01*
X194109Y-195297D01*
X4109Y-185297D02*
X4909Y-184497D01*
X5709Y-185297D01*
X4909Y-186097D01*
X4109Y-185297D01*
X14109D02*
X14909Y-184497D01*
X15709Y-185297D01*
X14909Y-186097D01*
X14109Y-185297D01*
X24109D02*
X24909Y-184497D01*
X25709Y-185297D01*
X24909Y-186097D01*
X24109Y-185297D01*
X34109D02*
X34909Y-184497D01*
X35709Y-185297D01*
X34909Y-186097D01*
X34109Y-185297D01*
X44109D02*
X44909Y-184497D01*
X45709Y-185297D01*
X44909Y-186097D01*
X44109Y-185297D01*
X54109D02*
X54909Y-184497D01*
X55709Y-185297D01*
X54909Y-186097D01*
X54109Y-185297D01*
X64109D02*
X64909Y-184497D01*
X65709Y-185297D01*
X64909Y-186097D01*
X64109Y-185297D01*
X74109D02*
X74909Y-184497D01*
X75709Y-185297D01*
X74909Y-186097D01*
X74109Y-185297D01*
X84109D02*
X84909Y-184497D01*
X85709Y-185297D01*
X84909Y-186097D01*
X84109Y-185297D01*
X94109D02*
X94909Y-184497D01*
X95709Y-185297D01*
X94909Y-186097D01*
X94109Y-185297D01*
X104109D02*
X104909Y-184497D01*
X105709Y-185297D01*
X104909Y-186097D01*
X104109Y-185297D01*
X114109D02*
X114909Y-184497D01*
X115709Y-185297D01*
X114909Y-186097D01*
X114109Y-185297D01*
X124109D02*
X124909Y-184497D01*
X125709Y-185297D01*
X124909Y-186097D01*
X124109Y-185297D01*
X134109D02*
X134909Y-184497D01*
X135709Y-185297D01*
X134909Y-186097D01*
X134109Y-185297D01*
X144109D02*
X144909Y-184497D01*
X145709Y-185297D01*
X144909Y-186097D01*
X144109Y-185297D01*
X154109D02*
X154909Y-184497D01*
X155709Y-185297D01*
X154909Y-186097D01*
X154109Y-185297D01*
X164109D02*
X164909Y-184497D01*
X165709Y-185297D01*
X164909Y-186097D01*
X164109Y-185297D01*
X174109D02*
X174909Y-184497D01*
X175709Y-185297D01*
X174909Y-186097D01*
X174109Y-185297D01*
X184109D02*
X184909Y-184497D01*
X185709Y-185297D01*
X184909Y-186097D01*
X184109Y-185297D01*
X194109D02*
X194909Y-184497D01*
X195709Y-185297D01*
X194909Y-186097D01*
X194109Y-185297D01*
X137925Y-339442D02*
Y-339842D01*
X138725D01*
Y-339442D01*
X139125D01*
Y-338642D01*
X138725D01*
Y-338242D01*
X137925D01*
Y-338642D01*
X137525D01*
Y-339442D01*
X137925D01*
X147925Y-351442D02*
Y-351842D01*
X148725D01*
Y-351442D01*
X149125D01*
Y-350642D01*
X148725D01*
Y-350242D01*
X147925D01*
Y-350642D01*
X147525D01*
Y-351442D01*
X147925D01*
Y-343442D02*
Y-343842D01*
X148725D01*
Y-343442D01*
X149125D01*
Y-342642D01*
X148725D01*
Y-342242D01*
X147925D01*
Y-342642D01*
X147525D01*
Y-343442D01*
X147925D01*
Y-335442D02*
Y-335842D01*
X148725D01*
Y-335442D01*
X149125D01*
Y-334642D01*
X148725D01*
Y-334242D01*
X147925D01*
Y-334642D01*
X147525D01*
Y-335442D01*
X147925D01*
Y-327442D02*
Y-327842D01*
X148725D01*
Y-327442D01*
X149125D01*
Y-326642D01*
X148725D01*
Y-326242D01*
X147925D01*
Y-326642D01*
X147525D01*
Y-327442D01*
X147925D01*
Y-319442D02*
Y-319842D01*
X148725D01*
Y-319442D01*
X149125D01*
Y-318642D01*
X148725D01*
Y-318242D01*
X147925D01*
Y-318642D01*
X147525D01*
Y-319442D01*
X147925D01*
X137925Y-355442D02*
Y-355842D01*
X138725D01*
Y-355442D01*
X139125D01*
Y-354642D01*
X138725D01*
Y-354242D01*
X137925D01*
Y-354642D01*
X137525D01*
Y-355442D01*
X137925D01*
Y-347442D02*
Y-347842D01*
X138725D01*
Y-347442D01*
X139125D01*
Y-346642D01*
X138725D01*
Y-346242D01*
X137925D01*
Y-346642D01*
X137525D01*
Y-347442D01*
X137925D01*
Y-323442D02*
Y-323842D01*
X138725D01*
Y-323442D01*
X139125D01*
Y-322642D01*
X138725D01*
Y-322242D01*
X137925D01*
Y-322642D01*
X137525D01*
Y-323442D01*
X137925D01*
Y-315442D02*
Y-315842D01*
X138725D01*
Y-315442D01*
X139125D01*
Y-314642D01*
X138725D01*
Y-314242D01*
X137925D01*
Y-314642D01*
X137525D01*
Y-315442D01*
X137925D01*
X147925Y-311442D02*
Y-311842D01*
X148725D01*
Y-311442D01*
X149125D01*
Y-310642D01*
X148725D01*
Y-310242D01*
X147925D01*
Y-310642D01*
X147525D01*
Y-311442D01*
X147925D01*
X137925Y-307442D02*
Y-307842D01*
X138725D01*
Y-307442D01*
X139125D01*
Y-306642D01*
X138725D01*
Y-306242D01*
X137925D01*
Y-306642D01*
X137525D01*
Y-307442D01*
X137925D01*
X173525Y-297242D02*
X173925Y-296442D01*
X173525Y-295642D01*
X174325Y-296042D01*
X175125Y-295642D01*
X174725Y-296442D01*
X175125Y-297242D01*
X174325Y-296842D01*
X173525Y-297242D01*
Y-366442D02*
X173925Y-365642D01*
X173525Y-364842D01*
X174325Y-365242D01*
X175125Y-364842D01*
X174725Y-365642D01*
X175125Y-366442D01*
X174325Y-366042D01*
X173525Y-366442D01*
X209325Y-302242D02*
X209725Y-301842D01*
X210125D01*
X209725Y-301442D01*
X210125Y-301042D01*
X209725D01*
X209325Y-300642D01*
X208925Y-301042D01*
X208525D01*
X208925Y-301442D01*
X208525Y-301842D01*
X208925D01*
X209325Y-302242D01*
X199325D02*
X199725Y-301842D01*
X200125D01*
X199725Y-301442D01*
X200125Y-301042D01*
X199725D01*
X199325Y-300642D01*
X198925Y-301042D01*
X198525D01*
X198925Y-301442D01*
X198525Y-301842D01*
X198925D01*
X199325Y-302242D01*
Y-361442D02*
X199725Y-361042D01*
X200125D01*
X199725Y-360642D01*
X200125Y-360242D01*
X199725D01*
X199325Y-359842D01*
X198925Y-360242D01*
X198525D01*
X198925Y-360642D01*
X198525Y-361042D01*
X198925D01*
X199325Y-361442D01*
X209325D02*
X209725Y-361042D01*
X210125D01*
X209725Y-360642D01*
X210125Y-360242D01*
X209725D01*
X209325Y-359842D01*
X208925Y-360242D01*
X208525D01*
X208925Y-360642D01*
X208525Y-361042D01*
X208925D01*
X209325Y-361442D01*
X189325D02*
X189725Y-361042D01*
X190125D01*
X189725Y-360642D01*
X190125Y-360242D01*
X189725D01*
X189325Y-359842D01*
X188925Y-360242D01*
X188525D01*
X188925Y-360642D01*
X188525Y-361042D01*
X188925D01*
X189325Y-361442D01*
X1304Y-228421D02*
X1704Y-228021D01*
X2104D01*
X1704Y-227621D01*
X2104Y-227221D01*
X1704D01*
X1304Y-226821D01*
X904Y-227221D01*
X504D01*
X904Y-227621D01*
X504Y-228021D01*
X904D01*
X1304Y-228421D01*
Y-228021D02*
X1504Y-227821D01*
X1704D01*
X1504Y-227621D01*
X1704Y-227421D01*
X1504D01*
X1304Y-227221D01*
X1104Y-227421D01*
X904D01*
X1104Y-227621D01*
X904Y-227821D01*
X1104D01*
X1304Y-228021D01*
Y-248421D02*
X1704Y-248021D01*
X2104D01*
X1704Y-247621D01*
X2104Y-247221D01*
X1704D01*
X1304Y-246821D01*
X904Y-247221D01*
X504D01*
X904Y-247621D01*
X504Y-248021D01*
X904D01*
X1304Y-248421D01*
Y-248021D02*
X1504Y-247821D01*
X1704D01*
X1504Y-247621D01*
X1704Y-247421D01*
X1504D01*
X1304Y-247221D01*
X1104Y-247421D01*
X904D01*
X1104Y-247621D01*
X904Y-247821D01*
X1104D01*
X1304Y-248021D01*
X-18696Y-248421D02*
X-18296Y-248021D01*
X-17896D01*
X-18296Y-247621D01*
X-17896Y-247221D01*
X-18296D01*
X-18696Y-246821D01*
X-19096Y-247221D01*
X-19496D01*
X-19096Y-247621D01*
X-19496Y-248021D01*
X-19096D01*
X-18696Y-248421D01*
Y-248021D02*
X-18496Y-247821D01*
X-18296D01*
X-18496Y-247621D01*
X-18296Y-247421D01*
X-18496D01*
X-18696Y-247221D01*
X-18896Y-247421D01*
X-19096D01*
X-18896Y-247621D01*
X-19096Y-247821D01*
X-18896D01*
X-18696Y-248021D01*
Y-228421D02*
X-18296Y-228021D01*
X-17896D01*
X-18296Y-227621D01*
X-17896Y-227221D01*
X-18296D01*
X-18696Y-226821D01*
X-19096Y-227221D01*
X-19496D01*
X-19096Y-227621D01*
X-19496Y-228021D01*
X-19096D01*
X-18696Y-228421D01*
Y-228021D02*
X-18496Y-227821D01*
X-18296D01*
X-18496Y-227621D01*
X-18296Y-227421D01*
X-18496D01*
X-18696Y-227221D01*
X-18896Y-227421D01*
X-19096D01*
X-18896Y-227621D01*
X-19096Y-227821D01*
X-18896D01*
X-18696Y-228021D01*
X-8696Y-238421D02*
X-8296Y-238021D01*
X-7896D01*
X-8296Y-237621D01*
X-7896Y-237221D01*
X-8296D01*
X-8696Y-236821D01*
X-9096Y-237221D01*
X-9496D01*
X-9096Y-237621D01*
X-9496Y-238021D01*
X-9096D01*
X-8696Y-238421D01*
Y-238021D02*
X-8496Y-237821D01*
X-8296D01*
X-8496Y-237621D01*
X-8296Y-237421D01*
X-8496D01*
X-8696Y-237221D01*
X-8896Y-237421D01*
X-9096D01*
X-8896Y-237621D01*
X-9096Y-237821D01*
X-8896D01*
X-8696Y-238021D01*
X1304Y-328089D02*
X1704Y-327689D01*
X2104D01*
X1704Y-327289D01*
X2104Y-326889D01*
X1704D01*
X1304Y-326489D01*
X904Y-326889D01*
X504D01*
X904Y-327289D01*
X504Y-327689D01*
X904D01*
X1304Y-328089D01*
Y-327689D02*
X1504Y-327489D01*
X1704D01*
X1504Y-327289D01*
X1704Y-327089D01*
X1504D01*
X1304Y-326889D01*
X1104Y-327089D01*
X904D01*
X1104Y-327289D01*
X904Y-327489D01*
X1104D01*
X1304Y-327689D01*
Y-348089D02*
X1704Y-347689D01*
X2104D01*
X1704Y-347289D01*
X2104Y-346889D01*
X1704D01*
X1304Y-346489D01*
X904Y-346889D01*
X504D01*
X904Y-347289D01*
X504Y-347689D01*
X904D01*
X1304Y-348089D01*
Y-347689D02*
X1504Y-347489D01*
X1704D01*
X1504Y-347289D01*
X1704Y-347089D01*
X1504D01*
X1304Y-346889D01*
X1104Y-347089D01*
X904D01*
X1104Y-347289D01*
X904Y-347489D01*
X1104D01*
X1304Y-347689D01*
X-18696Y-348089D02*
X-18296Y-347689D01*
X-17896D01*
X-18296Y-347289D01*
X-17896Y-346889D01*
X-18296D01*
X-18696Y-346489D01*
X-19096Y-346889D01*
X-19496D01*
X-19096Y-347289D01*
X-19496Y-347689D01*
X-19096D01*
X-18696Y-348089D01*
Y-347689D02*
X-18496Y-347489D01*
X-18296D01*
X-18496Y-347289D01*
X-18296Y-347089D01*
X-18496D01*
X-18696Y-346889D01*
X-18896Y-347089D01*
X-19096D01*
X-18896Y-347289D01*
X-19096Y-347489D01*
X-18896D01*
X-18696Y-347689D01*
Y-328089D02*
X-18296Y-327689D01*
X-17896D01*
X-18296Y-327289D01*
X-17896Y-326889D01*
X-18296D01*
X-18696Y-326489D01*
X-19096Y-326889D01*
X-19496D01*
X-19096Y-327289D01*
X-19496Y-327689D01*
X-19096D01*
X-18696Y-328089D01*
Y-327689D02*
X-18496Y-327489D01*
X-18296D01*
X-18496Y-327289D01*
X-18296Y-327089D01*
X-18496D01*
X-18696Y-326889D01*
X-18896Y-327089D01*
X-19096D01*
X-18896Y-327289D01*
X-19096Y-327489D01*
X-18896D01*
X-18696Y-327689D01*
X-8696Y-338089D02*
X-8296Y-337689D01*
X-7896D01*
X-8296Y-337289D01*
X-7896Y-336889D01*
X-8296D01*
X-8696Y-336489D01*
X-9096Y-336889D01*
X-9496D01*
X-9096Y-337289D01*
X-9496Y-337689D01*
X-9096D01*
X-8696Y-338089D01*
Y-337689D02*
X-8496Y-337489D01*
X-8296D01*
X-8496Y-337289D01*
X-8296Y-337089D01*
X-8496D01*
X-8696Y-336889D01*
X-8896Y-337089D01*
X-9096D01*
X-8896Y-337289D01*
X-9096Y-337489D01*
X-8896D01*
X-8696Y-337689D01*
X213283Y-191097D02*
Y-189497D01*
X214883D01*
Y-191097D01*
X213283D01*
X213683Y-190697D02*
Y-189897D01*
X214483D01*
Y-190697D01*
X213683D01*
X-15064Y-191097D02*
Y-189497D01*
X-13464D01*
Y-191097D01*
X-15064D01*
X-14664Y-190697D02*
Y-189897D01*
X-13864D01*
Y-190697D01*
X-14664D01*
X213283Y-384010D02*
Y-382410D01*
X214883D01*
Y-384010D01*
X213283D01*
X213683Y-383610D02*
Y-382810D01*
X214483D01*
Y-383610D01*
X213683D01*
X-15064Y-384010D02*
Y-382410D01*
X-13464D01*
Y-384010D01*
X-15064D01*
X-14664Y-383610D02*
Y-382810D01*
X-13864D01*
Y-383610D01*
X-14664D01*
X210047Y-245064D02*
Y-243464D01*
X211647D01*
Y-245064D01*
X210047D01*
X53026Y-203227D02*
X52693Y-202894D01*
X52027D01*
X51694Y-203227D01*
Y-204560D01*
X52027Y-204893D01*
X52693D01*
X53026Y-204560D01*
X51694Y-281634D02*
Y-283634D01*
X52693D01*
X53026Y-283300D01*
Y-281967D01*
X52693Y-281634D01*
X51694D01*
X103166Y-379281D02*
X102366Y-377681D01*
X103966D01*
X103166Y-379281D01*
X-1752Y-371184D02*
X-2552Y-369584D01*
X-952D01*
X-1752Y-371184D01*
X22439Y-364140D02*
X21639Y-362540D01*
X23239D01*
X22439Y-364140D01*
X3688Y-368240D02*
X2888Y-366640D01*
X4488D01*
X3688Y-368240D01*
X41349Y-364140D02*
X40549Y-362540D01*
X42149D01*
X41349Y-364140D01*
X28605Y-372102D02*
X27805Y-370502D01*
X29405D01*
X28605Y-372102D01*
X37451D02*
X36651Y-370502D01*
X38251D01*
X37451Y-372102D01*
X-4898Y-371027D02*
X-5698Y-369427D01*
X-4098D01*
X-4898Y-371027D01*
X66917Y-370393D02*
X66117Y-368793D01*
X67717D01*
X66917Y-370393D01*
X76854Y-378273D02*
X76054Y-376673D01*
X77654D01*
X76854Y-378273D01*
X61942Y-395738D02*
X61142Y-394138D01*
X62742D01*
X61942Y-395738D01*
X-4661Y-385754D02*
X-5461Y-384154D01*
X-3861D01*
X-4661Y-385754D01*
X-10935Y-373272D02*
X-11735Y-371672D01*
X-10135D01*
X-10935Y-373272D01*
X28543Y-395349D02*
X27743Y-393749D01*
X29343D01*
X28543Y-395349D01*
X35845Y-392113D02*
X35045Y-390513D01*
X36645D01*
X35845Y-392113D01*
X67705Y-393621D02*
X66905Y-392021D01*
X68505D01*
X67705Y-393621D01*
X69969Y-395390D02*
X69169Y-393790D01*
X70770D01*
X69969Y-395390D01*
X51764Y-373327D02*
X50964Y-371727D01*
X52564D01*
X51764Y-373327D01*
X62054Y-365134D02*
X61254Y-363534D01*
X62854D01*
X62054Y-365134D01*
X70010Y-373806D02*
X69210Y-372206D01*
X70810D01*
X70010Y-373806D01*
X72823Y-373606D02*
X72023Y-372006D01*
X73623D01*
X72823Y-373606D01*
X117423Y-384347D02*
X116623Y-382747D01*
X118223D01*
X117423Y-384347D01*
X114776Y-386251D02*
X113976Y-384651D01*
X115576D01*
X114776Y-386251D01*
X90405Y-373350D02*
X89605Y-371750D01*
X91205D01*
X90405Y-373350D01*
X100324D02*
X99524Y-371750D01*
X101124D01*
X100324Y-373350D01*
X89879Y-381574D02*
X89079Y-379974D01*
X90679D01*
X89879Y-381574D01*
X120426Y-384863D02*
X119626Y-383263D01*
X121226D01*
X120426Y-384863D01*
X118684Y-378994D02*
X117884Y-377394D01*
X119484D01*
X118684Y-378994D01*
X89316Y-388176D02*
X88516Y-386576D01*
X90116D01*
X89316Y-388176D01*
X96168Y-392113D02*
X95368Y-390513D01*
X96968D01*
X96168Y-392113D01*
X134036Y-392017D02*
X133236Y-390417D01*
X134836D01*
X134036Y-392017D01*
X124718Y-358915D02*
X123918Y-357315D01*
X125518D01*
X124718Y-358915D01*
X126558Y-361017D02*
X125758Y-359417D01*
X127358D01*
X126558Y-361017D01*
X126396Y-370264D02*
X125596Y-368664D01*
X127196D01*
X126396Y-370264D01*
X131398Y-360303D02*
X130598Y-358703D01*
X132198D01*
X131398Y-360303D01*
X95211Y-373350D02*
X94411Y-371750D01*
X96012D01*
X95211Y-373350D01*
X83904Y-373668D02*
X83104Y-372068D01*
X84704D01*
X83904Y-373668D01*
X108091Y-368950D02*
X107291Y-367350D01*
X108891D01*
X108091Y-368950D01*
X132440Y-376510D02*
X131640Y-374910D01*
X133240D01*
X132440Y-376510D01*
X113039Y-379380D02*
X112239Y-377780D01*
X113839D01*
X113039Y-379380D01*
X98503Y-365622D02*
X97703Y-364022D01*
X99303D01*
X98503Y-365622D01*
X103887Y-367899D02*
X103087Y-366299D01*
X104687D01*
X103887Y-367899D01*
X224741Y-378895D02*
X223941Y-377295D01*
X225541D01*
X224741Y-378895D01*
Y-374595D02*
X223941Y-372995D01*
X225541D01*
X224741Y-374595D01*
Y-370387D02*
X223941Y-368787D01*
X225541D01*
X224741Y-370387D01*
Y-294733D02*
X223941Y-293133D01*
X225541D01*
X224741Y-294733D01*
Y-291305D02*
X223941Y-289705D01*
X225541D01*
X224741Y-291305D01*
Y-282433D02*
X223941Y-280833D01*
X225541D01*
X224741Y-282433D01*
Y-277938D02*
X223941Y-276338D01*
X225541D01*
X224741Y-277938D01*
Y-269707D02*
X223941Y-268107D01*
X225541D01*
X224741Y-269707D01*
Y-286233D02*
X223941Y-284633D01*
X225541D01*
X224741Y-286233D01*
Y-195629D02*
X223941Y-194029D01*
X225541D01*
X224741Y-195629D01*
Y-273682D02*
X223941Y-272082D01*
X225541D01*
X224741Y-273682D01*
Y-264186D02*
X223941Y-262586D01*
X225541D01*
X224741Y-264186D01*
Y-257753D02*
X223941Y-256153D01*
X225541D01*
X224741Y-257753D01*
Y-251696D02*
X223941Y-250096D01*
X225541D01*
X224741Y-251696D01*
Y-240957D02*
X223941Y-239357D01*
X225541D01*
X224741Y-240957D01*
Y-236562D02*
X223941Y-234962D01*
X225541D01*
X224741Y-236562D01*
Y-231650D02*
X223941Y-230050D01*
X225541D01*
X224741Y-231650D01*
Y-225764D02*
X223941Y-224164D01*
X225541D01*
X224741Y-225764D01*
Y-220906D02*
X223941Y-219306D01*
X225541D01*
X224741Y-220906D01*
Y-216307D02*
X223941Y-214707D01*
X225541D01*
X224741Y-216307D01*
Y-210615D02*
X223941Y-209015D01*
X225541D01*
X224741Y-210615D01*
Y-204808D02*
X223941Y-203208D01*
X225541D01*
X224741Y-204808D01*
Y-199816D02*
X223941Y-198216D01*
X225541D01*
X224741Y-199816D01*
X135663Y-177636D02*
X134863Y-176036D01*
X136463D01*
X135663Y-177636D01*
X14099Y-177632D02*
X13299Y-176032D01*
X14899D01*
X14099Y-177632D01*
X129486D02*
X128686Y-176032D01*
X130286D01*
X129486Y-177632D01*
X123529D02*
X122729Y-176032D01*
X124328D01*
X123529Y-177632D01*
X115959D02*
X115159Y-176032D01*
X116759D01*
X115959Y-177632D01*
X109381D02*
X108581Y-176032D01*
X110181D01*
X109381Y-177632D01*
X103129D02*
X102329Y-176032D01*
X103928D01*
X103129Y-177632D01*
X97291D02*
X96491Y-176032D01*
X98091D01*
X97291Y-177632D01*
X90198D02*
X89398Y-176032D01*
X90998D01*
X90198Y-177632D01*
X83584D02*
X82784Y-176032D01*
X84384D01*
X83584Y-177632D01*
X77370D02*
X76570Y-176032D01*
X78170D01*
X77370Y-177632D01*
X71318D02*
X70518Y-176032D01*
X72118D01*
X71318Y-177632D01*
X64872D02*
X64073Y-176032D01*
X65672D01*
X64872Y-177632D01*
X58460D02*
X57661Y-176032D01*
X59260D01*
X58460Y-177632D01*
X50344D02*
X49544Y-176032D01*
X51144D01*
X50344Y-177632D01*
X42545D02*
X41745Y-176032D01*
X43345D01*
X42545Y-177632D01*
X34220D02*
X33420Y-176032D01*
X35020D01*
X34220Y-177632D01*
X27529D02*
X26729Y-176032D01*
X28329D01*
X27529Y-177632D01*
X21072D02*
X20272Y-176032D01*
X21872D01*
X21072Y-177632D01*
X9159Y-178152D02*
X8359Y-176552D01*
X9959D01*
X9159Y-178152D01*
X2752Y-178282D02*
X1952Y-176682D01*
X3552D01*
X2752Y-178282D01*
X224741Y-190345D02*
X223941Y-188745D01*
X225541D01*
X224741Y-190345D01*
X221957Y-178286D02*
X221157Y-176686D01*
X222757D01*
X221957Y-178286D01*
X224741Y-183939D02*
X223941Y-182339D01*
X225541D01*
X224741Y-183939D01*
X215748Y-177636D02*
X214948Y-176036D01*
X216548D01*
X215748Y-177636D01*
X208515D02*
X207715Y-176036D01*
X209315D01*
X208515Y-177636D01*
X201800D02*
X201000Y-176036D01*
X202600D01*
X201800Y-177636D01*
X195461D02*
X194661Y-176036D01*
X196261D01*
X195461Y-177636D01*
X186436D02*
X185636Y-176036D01*
X187236D01*
X186436Y-177636D01*
X176427D02*
X175627Y-176036D01*
X177227D01*
X176427Y-177636D01*
X165898D02*
X165098Y-176036D01*
X166698D01*
X165898Y-177636D01*
X156656Y-177632D02*
X155856Y-176032D01*
X157456D01*
X156656Y-177632D01*
X150362Y-177636D02*
X149562Y-176036D01*
X151162D01*
X150362Y-177636D01*
X143177Y-177632D02*
X142377Y-176032D01*
X143977D01*
X143177Y-177632D01*
X-16385Y-178152D02*
X-17185Y-176552D01*
X-15585D01*
X-16385Y-178152D01*
X-25294Y-188008D02*
X-26094Y-186408D01*
X-24494D01*
X-25294Y-188008D01*
X-4076Y-178282D02*
X-4876Y-176682D01*
X-3276D01*
X-4076Y-178282D01*
X-10375Y-178152D02*
X-11175Y-176552D01*
X-9575D01*
X-10375Y-178152D01*
X-22138Y-178787D02*
X-22938Y-177187D01*
X-21338D01*
X-22138Y-178787D01*
X-25294Y-182622D02*
X-26094Y-181022D01*
X-24494D01*
X-25294Y-182622D01*
Y-192788D02*
X-26094Y-191188D01*
X-24494D01*
X-25294Y-192788D01*
Y-197097D02*
X-26094Y-195497D01*
X-24494D01*
X-25294Y-197097D01*
Y-202044D02*
X-26094Y-200444D01*
X-24494D01*
X-25294Y-202044D01*
X-24916Y-207647D02*
X-25716Y-206047D01*
X-24116D01*
X-24916Y-207647D01*
Y-218419D02*
X-25716Y-216819D01*
X-24116D01*
X-24916Y-218419D01*
X-25294Y-224394D02*
X-26094Y-222794D01*
X-24494D01*
X-25294Y-224394D01*
Y-229984D02*
X-26094Y-228384D01*
X-24494D01*
X-25294Y-229984D01*
X-25294Y-338141D02*
X-26094Y-336541D01*
X-24494D01*
X-25294Y-338141D01*
Y-344522D02*
X-26094Y-342922D01*
X-24494D01*
X-25294Y-344522D01*
Y-350129D02*
X-26094Y-348529D01*
X-24494D01*
X-25294Y-350129D01*
X-25893Y-331831D02*
X-26693Y-330231D01*
X-25093D01*
X-25893Y-331831D01*
X-25294Y-234385D02*
X-26094Y-232785D01*
X-24494D01*
X-25294Y-234385D01*
Y-238910D02*
X-26094Y-237310D01*
X-24494D01*
X-25294Y-238910D01*
Y-243686D02*
X-26094Y-242086D01*
X-24494D01*
X-25294Y-243686D01*
Y-248753D02*
X-26094Y-247153D01*
X-24494D01*
X-25294Y-248753D01*
X-21281Y-367710D02*
X-22081Y-366110D01*
X-20481D01*
X-21281Y-367710D01*
X-3720Y-361538D02*
X-4520Y-359938D01*
X-2920D01*
X-3720Y-361538D01*
X-24590Y-212977D02*
X-25390Y-211377D01*
X-23790D01*
X-24590Y-212977D01*
X-24916Y-325922D02*
X-25716Y-324322D01*
X-24116D01*
X-24916Y-325922D01*
Y-354490D02*
X-25716Y-352890D01*
X-24116D01*
X-24916Y-354490D01*
Y-359259D02*
X-25716Y-357659D01*
X-24116D01*
X-24916Y-359259D01*
Y-364933D02*
X-25716Y-363333D01*
X-24116D01*
X-24916Y-364933D01*
Y-369815D02*
X-25716Y-368215D01*
X-24116D01*
X-24916Y-369815D01*
Y-375073D02*
X-25716Y-373473D01*
X-24116D01*
X-24916Y-375073D01*
X-7714Y-253293D02*
X-8514Y-251693D01*
X-6914D01*
X-7714Y-253293D01*
X-5946Y-257268D02*
X-6746Y-255668D01*
X-5146D01*
X-5946Y-257268D01*
X-8955Y-322636D02*
X-9755Y-321036D01*
X-8155D01*
X-8955Y-322636D01*
X-21550Y-359019D02*
X-22350Y-357419D01*
X-20750D01*
X-21550Y-359019D01*
X-13405Y-219324D02*
X-14205Y-217724D01*
X-12605D01*
X-13405Y-219324D01*
X-13413Y-214324D02*
X-14213Y-212724D01*
X-12613D01*
X-13413Y-214324D01*
Y-209324D02*
X-14213Y-207724D01*
X-12613D01*
X-13413Y-209324D01*
X-13266Y-204324D02*
X-14066Y-202724D01*
X-12466D01*
X-13266Y-204324D01*
X191858Y-395615D02*
X191058Y-394015D01*
X192658D01*
X191858Y-395615D01*
X181042Y-395527D02*
X180242Y-393927D01*
X181842D01*
X181042Y-395527D01*
X169477Y-395483D02*
X168677Y-393883D01*
X170278D01*
X169477Y-395483D01*
X159057Y-395527D02*
X158257Y-393927D01*
X159857D01*
X159057Y-395527D01*
X148108Y-395615D02*
X147308Y-394015D01*
X148908D01*
X148108Y-395615D01*
X139051Y-395483D02*
X138251Y-393883D01*
X139851D01*
X139051Y-395483D01*
X130037Y-395738D02*
X129237Y-394138D01*
X130837D01*
X130037Y-395738D01*
X118807D02*
X118007Y-394138D01*
X119607D01*
X118807Y-395738D01*
X200657Y-394717D02*
X199857Y-393117D01*
X201457D01*
X200657Y-394717D01*
X206623D02*
X205822Y-393117D01*
X207422D01*
X206623Y-394717D01*
X106510Y-395738D02*
X105710Y-394138D01*
X107310D01*
X106510Y-395738D01*
X213345Y-394717D02*
X212544Y-393117D01*
X214144D01*
X213345Y-394717D01*
X218898D02*
X218098Y-393117D01*
X219698D01*
X218898Y-394717D01*
X223985Y-393425D02*
X223185Y-391825D01*
X224785D01*
X223985Y-393425D01*
X224741Y-389089D02*
X223941Y-387489D01*
X225541D01*
X224741Y-389089D01*
X224735Y-384010D02*
X223935Y-382410D01*
X225535D01*
X224735Y-384010D01*
X95209Y-395738D02*
X94409Y-394138D01*
X96009D01*
X95209Y-395738D01*
X85738D02*
X84939Y-394138D01*
X86538D01*
X85738Y-395738D01*
X77814D02*
X77014Y-394138D01*
X78614D01*
X77814Y-395738D01*
X-9529Y-395154D02*
X-10329Y-393554D01*
X-8730D01*
X-9529Y-395154D01*
X-4221D02*
X-5021Y-393554D01*
X-3421D01*
X-4221Y-395154D01*
X9509Y-395337D02*
X8709Y-393737D01*
X10309D01*
X9509Y-395337D01*
X43048Y-395738D02*
X42248Y-394138D01*
X43848D01*
X43048Y-395738D01*
X28697Y-390514D02*
X27897Y-388914D01*
X29497D01*
X28697Y-390514D01*
X185782Y-387192D02*
X184982Y-385592D01*
X186582D01*
X185782Y-387192D01*
X173777Y-384200D02*
X172977Y-382600D01*
X174577D01*
X173777Y-384200D01*
X174361Y-388352D02*
X173561Y-386753D01*
X175161D01*
X174361Y-388352D01*
X185074Y-381786D02*
X184274Y-380186D01*
X185874D01*
X185074Y-381786D01*
X173777Y-381510D02*
X172977Y-379910D01*
X174577D01*
X173777Y-381510D01*
X185102Y-384239D02*
X184302Y-382639D01*
X185902D01*
X185102Y-384239D01*
X131139Y-380195D02*
X130339Y-378595D01*
X131939D01*
X131139Y-380195D01*
X124459Y-382575D02*
X123659Y-380975D01*
X125259D01*
X124459Y-382575D01*
X132918Y-386510D02*
X132118Y-384910D01*
X133718D01*
X132918Y-386510D01*
X68432Y-390676D02*
X67632Y-389076D01*
X69232D01*
X68432Y-390676D01*
X-24916Y-380461D02*
X-25716Y-378861D01*
X-24116D01*
X-24916Y-380461D01*
X-24166Y-392290D02*
X-24966Y-390690D01*
X-23366D01*
X-24166Y-392290D01*
X-19832Y-394717D02*
X-20632Y-393117D01*
X-19032D01*
X-19832Y-394717D01*
X-14264Y-395154D02*
X-15064Y-393554D01*
X-13464D01*
X-14264Y-395154D01*
X-24916Y-386154D02*
X-25716Y-384554D01*
X-24116D01*
X-24916Y-386154D01*
X121828Y-267568D02*
X121028Y-265968D01*
X122628D01*
X121828Y-267568D01*
X94199Y-298739D02*
X93399Y-297139D01*
X94999D01*
X94199Y-298739D01*
X122907Y-272032D02*
X122107Y-270432D01*
X123707D01*
X122907Y-272032D01*
X115194Y-277252D02*
X114394Y-275652D01*
X115994D01*
X115194Y-277252D01*
X65956Y-231284D02*
X65156Y-229684D01*
X66756D01*
X65956Y-231284D01*
X66587Y-234625D02*
X65787Y-233025D01*
X67387D01*
X66587Y-234625D01*
X66172Y-237190D02*
X65373Y-235590D01*
X66973D01*
X66172Y-237190D01*
X70727Y-270138D02*
X69927Y-268538D01*
X71527D01*
X70727Y-270138D01*
X73999Y-268304D02*
X73199Y-266704D01*
X74799D01*
X73999Y-268304D01*
X17578Y-223728D02*
X16778Y-222128D01*
X18378D01*
X17578Y-223728D01*
X55362Y-364217D02*
X54562Y-362617D01*
X56162D01*
X55362Y-364217D01*
X73060Y-348483D02*
X72260Y-346883D01*
X73860D01*
X73060Y-348483D01*
X81275Y-233646D02*
X80475Y-232046D01*
X82075D01*
X81275Y-233646D01*
X142721Y-274104D02*
X141921Y-272504D01*
X143521D01*
X142721Y-274104D01*
X137559Y-254906D02*
X136759Y-253306D01*
X138359D01*
X137559Y-254906D01*
X79328Y-319799D02*
X78528Y-318199D01*
X80128D01*
X79328Y-319799D01*
X77017Y-321973D02*
X76217Y-320373D01*
X77817D01*
X77017Y-321973D01*
X87572Y-284449D02*
X86772Y-282849D01*
X88372D01*
X87572Y-284449D01*
X52845Y-293692D02*
X52045Y-292092D01*
X53645D01*
X52845Y-293692D01*
X64699Y-295813D02*
X63899Y-294213D01*
X65499D01*
X64699Y-295813D01*
X68807Y-343855D02*
X68007Y-342255D01*
X69607D01*
X68807Y-343855D01*
X67255Y-342437D02*
X66454Y-340837D01*
X68054D01*
X67255Y-342437D01*
X55362Y-298422D02*
X54562Y-296822D01*
X56162D01*
X55362Y-298422D01*
X53901Y-295899D02*
X53101Y-294299D01*
X54701D01*
X53901Y-295899D01*
X85760Y-290487D02*
X84960Y-288886D01*
X86560D01*
X85760Y-290487D01*
X96749Y-363206D02*
X95949Y-361606D01*
X97549D01*
X96749Y-363206D01*
X95019Y-360303D02*
X94219Y-358703D01*
X95819D01*
X95019Y-360303D01*
X110823Y-354187D02*
X110023Y-352587D01*
X111623D01*
X110823Y-354187D01*
X111185Y-335812D02*
X110385Y-334212D01*
X111985D01*
X111185Y-335812D01*
X113088Y-325086D02*
X112288Y-323486D01*
X113888D01*
X113088Y-325086D01*
X108872Y-330360D02*
X108072Y-328760D01*
X109672D01*
X108872Y-330360D01*
X101956Y-324300D02*
X101156Y-322700D01*
X102756D01*
X101956Y-324300D01*
X116916Y-350190D02*
X116116Y-348590D01*
X117716D01*
X116916Y-350190D01*
Y-345035D02*
X116116Y-343435D01*
X117716D01*
X116916Y-345035D01*
X117406Y-337592D02*
X116606Y-335992D01*
X118206D01*
X117406Y-337592D01*
X116739Y-330471D02*
X115939Y-328871D01*
X117539D01*
X116739Y-330471D01*
X90117Y-321575D02*
X89317Y-319975D01*
X90917D01*
X90117Y-321575D01*
X86904Y-319366D02*
X86104Y-317766D01*
X87704D01*
X86904Y-319366D01*
X84812Y-319178D02*
X84013Y-317578D01*
X85612D01*
X84812Y-319178D01*
X131805Y-263371D02*
X131005Y-261771D01*
X132605D01*
X131805Y-263371D01*
X129986Y-278494D02*
X129186Y-276894D01*
X130786D01*
X129986Y-278494D01*
X135306Y-277938D02*
X134506Y-276338D01*
X136106D01*
X135306Y-277938D01*
X27106Y-292435D02*
X26306Y-290835D01*
X27906D01*
X27106Y-292435D01*
X25622Y-293920D02*
X24822Y-292320D01*
X26421D01*
X25622Y-293920D01*
X23238Y-296237D02*
X22438Y-294637D01*
X24038D01*
X23238Y-296237D01*
X90515Y-229906D02*
X89715Y-228306D01*
X91315D01*
X90515Y-229906D01*
X131139Y-286599D02*
X130339Y-284999D01*
X131939D01*
X131139Y-286599D01*
X50064Y-334875D02*
X49264Y-333275D01*
X50864D01*
X50064Y-334875D01*
X64699Y-347639D02*
X63899Y-346039D01*
X65499D01*
X64699Y-347639D01*
X66184Y-349124D02*
X65384Y-347524D01*
X66984D01*
X66184Y-349124D01*
X47583Y-355899D02*
X46783Y-354299D01*
X48383D01*
X47583Y-355899D01*
X22747Y-317044D02*
X21947Y-315444D01*
X23547D01*
X22747Y-317044D01*
X22662Y-314535D02*
X21862Y-312935D01*
X23462D01*
X22662Y-314535D01*
X61655Y-358766D02*
X60855Y-357166D01*
X62454D01*
X61655Y-358766D01*
X63139Y-360251D02*
X62339Y-358651D01*
X63939D01*
X63139Y-360251D01*
X64986Y-291374D02*
X64186Y-289774D01*
X65786D01*
X64986Y-291374D01*
X67065Y-333225D02*
X66265Y-331625D01*
X67865D01*
X67065Y-333225D01*
X73563Y-328995D02*
X72763Y-327395D01*
X74363D01*
X73563Y-328995D01*
X72340Y-330702D02*
X71540Y-329102D01*
X73140D01*
X72340Y-330702D01*
X31574Y-343077D02*
X30774Y-341477D01*
X32374D01*
X31574Y-343077D01*
X71318Y-359518D02*
X70518Y-357917D01*
X72118D01*
X71318Y-359518D01*
X63350Y-337863D02*
X62550Y-336263D01*
X64150D01*
X63350Y-337863D01*
X134909Y-212542D02*
X134109Y-210942D01*
X135709D01*
X134909Y-212542D01*
X127066Y-212812D02*
X126266Y-211212D01*
X127866D01*
X127066Y-212812D01*
X25167Y-255890D02*
X24367Y-254290D01*
X25967D01*
X25167Y-255890D01*
X25416Y-250575D02*
X24616Y-248975D01*
X26216D01*
X25416Y-250575D01*
X25906Y-244079D02*
X25106Y-242479D01*
X26706D01*
X25906Y-244079D01*
X25842Y-238421D02*
X25042Y-236821D01*
X26642D01*
X25842Y-238421D01*
X25944Y-232456D02*
X25144Y-230856D01*
X26744D01*
X25944Y-232456D01*
X25842Y-226363D02*
X25042Y-224763D01*
X26642D01*
X25842Y-226363D01*
X25622Y-211009D02*
X24822Y-209408D01*
X26421D01*
X25622Y-211009D01*
X35943Y-213044D02*
X35143Y-211444D01*
X36743D01*
X35943Y-213044D01*
Y-209630D02*
X35143Y-208030D01*
X36743D01*
X35943Y-209630D01*
X25465Y-205228D02*
X24665Y-203628D01*
X26265D01*
X25465Y-205228D01*
X25528Y-203028D02*
X24728Y-201428D01*
X26328D01*
X25528Y-203028D01*
X9886D02*
X9086Y-201428D01*
X10686D01*
X9886Y-203028D01*
X80255Y-241717D02*
X79455Y-240117D01*
X81055D01*
X80255Y-241717D01*
X72183Y-238174D02*
X71383Y-236574D01*
X72983D01*
X72183Y-238174D01*
X90376Y-241717D02*
X89576Y-240117D01*
X91176D01*
X90376Y-241717D01*
X80076Y-249591D02*
X79276Y-247991D01*
X80876D01*
X80076Y-249591D01*
X68568Y-224927D02*
X67768Y-223327D01*
X69368D01*
X68568Y-224927D01*
X96554Y-210672D02*
X95754Y-209072D01*
X97355D01*
X96554Y-210672D01*
X97067Y-205816D02*
X96267Y-204216D01*
X97867D01*
X97067Y-205816D01*
X70214Y-245654D02*
X69415Y-244054D01*
X71014D01*
X70214Y-245654D01*
X70677Y-219841D02*
X69877Y-218241D01*
X71477D01*
X70677Y-219841D01*
X122907Y-354324D02*
X122107Y-352724D01*
X123707D01*
X122907Y-354324D01*
X64474Y-330598D02*
X63674Y-328998D01*
X65274D01*
X64474Y-330598D01*
X62976Y-320094D02*
X62176Y-318494D01*
X63776D01*
X62976Y-320094D01*
X63139Y-316229D02*
X62339Y-314629D01*
X63939D01*
X63139Y-316229D01*
X62062Y-312775D02*
X61262Y-311175D01*
X62862D01*
X62062Y-312775D01*
X42976Y-352865D02*
X42176Y-351265D01*
X43776D01*
X42976Y-352865D01*
X31736Y-347297D02*
X30936Y-345697D01*
X32536D01*
X31736Y-347297D01*
X9299Y-340922D02*
X8499Y-339322D01*
X10099D01*
X9299Y-340922D01*
Y-345371D02*
X8499Y-343771D01*
X10099D01*
X9299Y-345371D01*
X31481Y-340074D02*
X30681Y-338474D01*
X32281D01*
X31481Y-340074D01*
Y-337010D02*
X30681Y-335410D01*
X32281D01*
X31481Y-337010D01*
X16285Y-244079D02*
X15485Y-242479D01*
X17085D01*
X16285Y-244079D01*
X75469Y-281085D02*
X74669Y-279485D01*
X76269D01*
X75469Y-281085D01*
X75678Y-276952D02*
X74878Y-275352D01*
X76478D01*
X75678Y-276952D01*
X66172Y-280329D02*
X65373Y-278729D01*
X66973D01*
X66172Y-280329D01*
Y-278173D02*
X65373Y-276573D01*
X66973D01*
X66172Y-278173D01*
X113039Y-293108D02*
X112239Y-291508D01*
X113839D01*
X113039Y-293108D01*
X132808D02*
X132008Y-291508D01*
X133608D01*
X132808Y-293108D01*
X182677Y-376868D02*
X181878Y-375268D01*
X183477D01*
X182677Y-376868D01*
X173336Y-376510D02*
X172536Y-374910D01*
X174135D01*
X173336Y-376510D01*
X19162Y-204324D02*
X18362Y-202724D01*
X19962D01*
X19162Y-204324D01*
X18798Y-209324D02*
X17998Y-207724D01*
X19598D01*
X18798Y-209324D01*
X19308Y-214324D02*
X18508Y-212724D01*
X20108D01*
X19308Y-214324D01*
X19772Y-219324D02*
X18972Y-217724D01*
X20572D01*
X19772Y-219324D01*
X26641Y-361056D02*
X25841Y-359456D01*
X27441D01*
X26641Y-361056D01*
X22864Y-360758D02*
X22064Y-359158D01*
X23664D01*
X22864Y-360758D01*
X17578Y-360817D02*
X16778Y-359217D01*
X18378D01*
X17578Y-360817D01*
X14084Y-360621D02*
X13284Y-359021D01*
X14884D01*
X14084Y-360621D01*
X33938Y-308324D02*
X33138Y-306724D01*
X34738D01*
X33938Y-308324D01*
Y-304670D02*
X33138Y-303070D01*
X34738D01*
X33938Y-304670D01*
X34289Y-316884D02*
X33489Y-315284D01*
X35089D01*
X34289Y-316884D01*
Y-312221D02*
X33489Y-310621D01*
X35089D01*
X34289Y-312221D01*
X32657Y-332670D02*
X31857Y-331070D01*
X33457D01*
X32657Y-332670D01*
X32748Y-329225D02*
X31948Y-327625D01*
X33548D01*
X32748Y-329225D01*
X13862Y-319782D02*
X13062Y-318182D01*
X14662D01*
X13862Y-319782D01*
X16298D02*
X15498Y-318182D01*
X17098D01*
X16298Y-319782D01*
X18993Y-319572D02*
X18193Y-317972D01*
X19793D01*
X18993Y-319572D01*
X29367Y-321537D02*
X28567Y-319937D01*
X30167D01*
X29367Y-321537D01*
X34289Y-323647D02*
X33489Y-322047D01*
X35089D01*
X34289Y-323647D01*
Y-320189D02*
X33489Y-318589D01*
X35089D01*
X34289Y-320189D01*
X25416Y-263863D02*
X24616Y-262263D01*
X26216D01*
X25416Y-263863D01*
X22662D02*
X21862Y-262263D01*
X23462D01*
X22662Y-263863D01*
Y-266336D02*
X21862Y-264736D01*
X23462D01*
X22662Y-266336D01*
X25528D02*
X24728Y-264736D01*
X26328D01*
X25528Y-266336D01*
X68837Y-335640D02*
X68037Y-334040D01*
X69637D01*
X68837Y-335640D01*
X25167Y-248016D02*
X24367Y-246416D01*
X25967D01*
X25167Y-248016D01*
X25622Y-216520D02*
X24822Y-214920D01*
X26421D01*
X25622Y-216520D01*
X36307Y-280103D02*
X35508Y-278503D01*
X37108D01*
X36307Y-280103D01*
X36281Y-277544D02*
X35481Y-275944D01*
X37081D01*
X36281Y-277544D01*
Y-271638D02*
X35481Y-270038D01*
X37081D01*
X36281Y-271638D01*
X24036Y-280577D02*
X23236Y-278977D01*
X24836D01*
X24036Y-280577D01*
Y-278477D02*
X23236Y-276877D01*
X24836D01*
X24036Y-278477D01*
X68432Y-349094D02*
X67632Y-347494D01*
X69232D01*
X68432Y-349094D01*
X62442Y-347220D02*
X61642Y-345620D01*
X63242D01*
X62442Y-347220D01*
X65694Y-361538D02*
X64894Y-359938D01*
X66494D01*
X65694Y-361538D01*
X60183Y-356498D02*
X59383Y-354898D01*
X60983D01*
X60183Y-356498D01*
X71012Y-343799D02*
X70212Y-342199D01*
X71812D01*
X71012Y-343799D01*
X65481Y-341055D02*
X64681Y-339455D01*
X66281D01*
X65481Y-341055D01*
X76908Y-217163D02*
X76108Y-215563D01*
X77708D01*
X76908Y-217163D01*
Y-212832D02*
X76108Y-211232D01*
X77708D01*
X76908Y-212832D01*
Y-208646D02*
X76108Y-207046D01*
X77708D01*
X76908Y-208646D01*
X66285Y-213567D02*
X65485Y-211967D01*
X67085D01*
X66285Y-213567D01*
Y-211009D02*
X65485Y-209408D01*
X67085D01*
X66285Y-211009D01*
Y-208449D02*
X65485Y-206849D01*
X67085D01*
X66285Y-208449D01*
X9299Y-256284D02*
X8499Y-254684D01*
X10099D01*
X9299Y-256284D01*
X12252D02*
X11452Y-254684D01*
X13052D01*
X12252Y-256284D01*
X14723D02*
X13923Y-254684D01*
X15523D01*
X14723Y-256284D01*
X17306D02*
X16506Y-254684D01*
X18106D01*
X17306Y-256284D01*
X11858Y-318389D02*
X11058Y-316789D01*
X12658D01*
X11858Y-318389D01*
X26126Y-281481D02*
X25326Y-279881D01*
X26926D01*
X26126Y-281481D01*
X25636Y-296248D02*
X24836Y-294648D01*
X26436D01*
X25636Y-296248D01*
X29183Y-291374D02*
X28383Y-289774D01*
X29983D01*
X29183Y-291374D01*
X22381Y-294291D02*
X21581Y-292691D01*
X23181D01*
X22381Y-294291D01*
X26126Y-283858D02*
X25326Y-282258D01*
X26926D01*
X26126Y-283858D01*
X26273Y-286229D02*
X25473Y-284629D01*
X27073D01*
X26273Y-286229D01*
X24788Y-287714D02*
X23988Y-286114D01*
X25588D01*
X24788Y-287714D01*
X22192Y-288405D02*
X21392Y-286805D01*
X22991D01*
X22192Y-288405D01*
X23286Y-282903D02*
X22486Y-281302D01*
X24086D01*
X23286Y-282903D01*
X23387Y-276166D02*
X22587Y-274566D01*
X24187D01*
X23387Y-276166D01*
X82332Y-332769D02*
X81532Y-331169D01*
X83132D01*
X82332Y-332769D01*
Y-337100D02*
X81532Y-335500D01*
X83132D01*
X82332Y-337100D01*
Y-341430D02*
X81532Y-339830D01*
X83132D01*
X82332Y-341430D01*
Y-345761D02*
X81532Y-344161D01*
X83132D01*
X82332Y-345761D01*
Y-350092D02*
X81532Y-348492D01*
X83132D01*
X82332Y-350092D01*
X86663Y-332769D02*
X85863Y-331169D01*
X87463D01*
X86663Y-332769D01*
Y-337100D02*
X85863Y-335500D01*
X87463D01*
X86663Y-337100D01*
Y-341430D02*
X85863Y-339830D01*
X87463D01*
X86663Y-341430D01*
Y-345761D02*
X85863Y-344161D01*
X87463D01*
X86663Y-345761D01*
Y-350092D02*
X85863Y-348492D01*
X87463D01*
X86663Y-350092D01*
X90993Y-332769D02*
X90193Y-331169D01*
X91793D01*
X90993Y-332769D01*
Y-337100D02*
X90193Y-335500D01*
X91793D01*
X90993Y-337100D01*
Y-341430D02*
X90193Y-339830D01*
X91793D01*
X90993Y-341430D01*
Y-345761D02*
X90193Y-344161D01*
X91793D01*
X90993Y-345761D01*
Y-350092D02*
X90193Y-348492D01*
X91793D01*
X90993Y-350092D01*
X95324Y-332769D02*
X94524Y-331169D01*
X96124D01*
X95324Y-332769D01*
Y-337100D02*
X94524Y-335500D01*
X96124D01*
X95324Y-337100D01*
Y-341430D02*
X94524Y-339830D01*
X96124D01*
X95324Y-341430D01*
Y-345761D02*
X94524Y-344161D01*
X96124D01*
X95324Y-345761D01*
Y-350092D02*
X94524Y-348492D01*
X96124D01*
X95324Y-350092D01*
X99655Y-332769D02*
X98855Y-331169D01*
X100455D01*
X99655Y-332769D01*
Y-337100D02*
X98855Y-335500D01*
X100455D01*
X99655Y-337100D01*
Y-341430D02*
X98855Y-339830D01*
X100455D01*
X99655Y-341430D01*
Y-345761D02*
X98855Y-344161D01*
X100455D01*
X99655Y-345761D01*
Y-350092D02*
X98855Y-348492D01*
X100455D01*
X99655Y-350092D01*
X123519Y-324846D02*
X122719Y-323246D01*
X124319D01*
X123519Y-324846D01*
X108483Y-325837D02*
X107683Y-324237D01*
X109283D01*
X108483Y-325837D01*
X102171Y-359518D02*
X101371Y-357917D01*
X102971D01*
X102171Y-359518D01*
X108687Y-340643D02*
X107887Y-339043D01*
X109487D01*
X108687Y-340643D01*
X91387Y-318760D02*
X90587Y-317160D01*
X92187D01*
X91387Y-318760D01*
X88713Y-323821D02*
X87913Y-322221D01*
X89513D01*
X88713Y-323821D01*
X100951Y-318389D02*
X100151Y-316789D01*
X101751D01*
X100951Y-318389D01*
X102903Y-320473D02*
X102103Y-318873D01*
X103703D01*
X102903Y-320473D01*
X73214Y-343789D02*
X72414Y-342189D01*
X74014D01*
X73214Y-343789D01*
X73210Y-339068D02*
X72410Y-337468D01*
X74010D01*
X73210Y-339068D01*
X75260Y-359050D02*
X74460Y-357450D01*
X76060D01*
X75260Y-359050D01*
X75471Y-368482D02*
X74671Y-366882D01*
X76271D01*
X75471Y-368482D01*
X86606Y-359258D02*
X85806Y-357658D01*
X87406D01*
X86606Y-359258D01*
X78845Y-357936D02*
X78045Y-356336D01*
X79645D01*
X78845Y-357936D01*
X68568Y-304670D02*
X67768Y-303070D01*
X69368D01*
X68568Y-304670D01*
X69234Y-290466D02*
X68434Y-288866D01*
X70034D01*
X69234Y-290466D01*
X64986Y-305916D02*
X64186Y-304316D01*
X65786D01*
X64986Y-305916D01*
X67368Y-298632D02*
X66568Y-297032D01*
X68168D01*
X67368Y-298632D01*
X74957Y-317044D02*
X74157Y-315444D01*
X75757D01*
X74957Y-317044D01*
X74822Y-322957D02*
X74022Y-321357D01*
X75622D01*
X74822Y-322957D01*
X77814Y-326121D02*
X77014Y-324521D01*
X78614D01*
X77814Y-326121D01*
X70010Y-327077D02*
X69210Y-325477D01*
X70810D01*
X70010Y-327077D01*
X132917Y-323842D02*
X132117Y-322242D01*
X133718D01*
X132917Y-323842D01*
X98272Y-317709D02*
X97472Y-316109D01*
X99072D01*
X98272Y-317709D01*
X132995Y-336928D02*
X132195Y-335328D01*
X133795D01*
X132995Y-336928D01*
X109965Y-350210D02*
X109165Y-348610D01*
X110765D01*
X109965Y-350210D01*
X109160Y-345429D02*
X108360Y-343829D01*
X109960D01*
X109160Y-345429D01*
X122723Y-341527D02*
X121923Y-339927D01*
X123523D01*
X122723Y-341527D01*
X72542Y-362758D02*
X71742Y-361158D01*
X73342D01*
X72542Y-362758D01*
D150*
X175125Y-312042D02*
G03*
X175125Y-312042I-800J0D01*
G01*
Y-350042D02*
G03*
X175125Y-350042I-800J0D01*
G01*
M02*
