G04*
G04 #@! TF.GenerationSoftware,Altium Limited,Altium Designer,24.9.1 (31)*
G04*
G04 Layer_Color=128*
%FSLAX44Y44*%
%MOMM*%
G71*
G04*
G04 #@! TF.SameCoordinates,C615B3E7-4A0B-44CC-A6BC-150B9DE6E2D7*
G04*
G04*
G04 #@! TF.FilePolarity,Positive*
G04*
G01*
G75*
%ADD121C,0.1270*%
D121*
X117150Y606350D02*
X132150D01*
X124650Y598850D02*
Y613850D01*
X63850Y606350D02*
X78850D01*
X71350Y598850D02*
Y613850D01*
X117150Y659650D02*
X132150D01*
X124650Y652150D02*
Y667150D01*
X63850Y659650D02*
X78850D01*
X71350Y652150D02*
Y667150D01*
X269200Y400100D02*
X279400D01*
X274300Y395000D02*
Y405200D01*
X294600Y400100D02*
X304800D01*
X299700Y395000D02*
Y405200D01*
X269200Y374700D02*
X279400D01*
X274300Y369600D02*
Y379800D01*
X294600Y374700D02*
X304800D01*
X299700Y369600D02*
Y379800D01*
X269200Y349300D02*
X279400D01*
X274300Y344200D02*
Y354400D01*
X294600Y349300D02*
X304800D01*
X299700Y344200D02*
Y354400D01*
X269200Y323900D02*
X279400D01*
X274300Y318800D02*
Y329000D01*
X294600Y323900D02*
X304800D01*
X299700Y318800D02*
Y329000D01*
X149800Y628300D02*
X160000D01*
X154900Y623200D02*
Y633400D01*
X149800Y653700D02*
X160000D01*
X154900Y648600D02*
Y658800D01*
X175200Y628300D02*
X185400D01*
X180300Y623200D02*
Y633400D01*
X175200Y653700D02*
X185400D01*
X180300Y648600D02*
Y658800D01*
X200600Y628300D02*
X210800D01*
X205700Y623200D02*
Y633400D01*
X200600Y653700D02*
X210800D01*
X205700Y648600D02*
Y658800D01*
X226000Y628300D02*
X236200D01*
X231100Y623200D02*
Y633400D01*
X226000Y653700D02*
X236200D01*
X231100Y648600D02*
Y658800D01*
X18500Y141000D02*
X24500D01*
X21500Y138000D02*
Y144000D01*
X18500Y71000D02*
X24500D01*
X21500Y68000D02*
Y74000D01*
X44250Y131000D02*
X52750D01*
X48500Y126750D02*
Y135250D01*
X44250Y81000D02*
X52750D01*
X48500Y76750D02*
Y85250D01*
X116470Y443740D02*
X119010D01*
X117740Y442470D02*
Y445010D01*
X58730Y119709D02*
X61270D01*
X60000Y118439D02*
Y120979D01*
X121730Y446000D02*
X124270D01*
X123000Y444730D02*
Y447270D01*
X128257Y424601D02*
X130797D01*
X129527Y423331D02*
Y425871D01*
X130730Y410000D02*
X133270D01*
X132000Y408730D02*
Y411270D01*
X107965Y418262D02*
X110506D01*
X109235Y416992D02*
Y419533D01*
X103730Y404000D02*
X106270D01*
X105000Y402730D02*
Y405270D01*
X101780Y418714D02*
X104320D01*
X103050Y417444D02*
Y419984D01*
X162730Y353629D02*
X165270D01*
X164000Y352359D02*
Y354899D01*
X306581Y473062D02*
X309121D01*
X307851Y471792D02*
Y474332D01*
X269589Y426354D02*
X272129D01*
X270859Y425084D02*
Y427624D01*
X276674Y419065D02*
X279214D01*
X277944Y417795D02*
Y420335D01*
X207844Y380621D02*
X210384D01*
X209114Y379351D02*
Y381891D01*
X305161Y484478D02*
X307701D01*
X306431Y483208D02*
Y485748D01*
X304730Y490230D02*
X307270D01*
X306000Y488960D02*
Y491500D01*
X306643Y478724D02*
X309183D01*
X307913Y477454D02*
Y479994D01*
X299247Y464884D02*
X301787D01*
X300517Y463614D02*
Y466154D01*
X216759Y512383D02*
X219299D01*
X218029Y511114D02*
Y513653D01*
X205103Y406077D02*
X207643D01*
X206373Y404807D02*
Y407347D01*
X206987Y400851D02*
X209527D01*
X208257Y399581D02*
Y402121D01*
X202362Y414303D02*
X204902D01*
X203632Y413033D02*
Y415573D01*
X197582Y410130D02*
X200123D01*
X198853Y408860D02*
Y411400D01*
X196351Y385638D02*
X198891D01*
X197621Y384368D02*
Y386908D01*
X195730Y379991D02*
X198270D01*
X197000Y378721D02*
Y381261D01*
X192798Y357532D02*
X195338D01*
X194068Y356262D02*
Y358802D01*
X207951Y345410D02*
X210491D01*
X209221Y344140D02*
Y346680D01*
X212744Y429686D02*
X215284D01*
X214014Y428416D02*
Y430956D01*
X104616Y243377D02*
X107156D01*
X105886Y242107D02*
Y244647D01*
X206612Y450992D02*
X209152D01*
X207882Y449722D02*
Y452262D01*
X212844Y446612D02*
X215384D01*
X214114Y445342D02*
Y447882D01*
X306117Y457000D02*
X308657D01*
X307387Y455730D02*
Y458270D01*
X254710Y446026D02*
X257250D01*
X255980Y444756D02*
Y447296D01*
X261480Y446580D02*
X264020D01*
X262750Y445310D02*
Y447850D01*
X175979Y451365D02*
X178519D01*
X177249Y450095D02*
Y452635D01*
X193147Y467086D02*
X195687D01*
X194417Y465816D02*
Y468356D01*
X270476Y519114D02*
X273016D01*
X271746Y517844D02*
Y520384D01*
X145604Y456379D02*
X148144D01*
X146874Y455109D02*
Y457649D01*
X221730Y295649D02*
X224270D01*
X223000Y294379D02*
Y296919D01*
X106691Y374990D02*
X109230D01*
X107961Y373720D02*
Y376260D01*
X112730Y369302D02*
X115270D01*
X114000Y368032D02*
Y370572D01*
X113150Y399996D02*
X115690D01*
X114420Y398726D02*
Y401266D01*
X244165Y616173D02*
X246705D01*
X245435Y614903D02*
Y617443D01*
X271980Y578649D02*
X274520D01*
X273250Y577379D02*
Y579919D01*
X252601Y581000D02*
X255141D01*
X253871Y579730D02*
Y582270D01*
X298730Y506538D02*
X301270D01*
X300000Y505268D02*
Y507808D01*
X279730Y558000D02*
X282270D01*
X281000Y556730D02*
Y559270D01*
X306730Y610000D02*
X309270D01*
X308000Y608730D02*
Y611270D01*
X259730Y630250D02*
X262270D01*
X261000Y628980D02*
Y631520D01*
X272730Y584750D02*
X275270D01*
X274000Y583480D02*
Y586020D01*
X111982Y507748D02*
X114522D01*
X113252Y506478D02*
Y509018D01*
X220414Y425000D02*
X222954D01*
X221684Y423730D02*
Y426270D01*
X221500Y419458D02*
X224040D01*
X222770Y418187D02*
Y420728D01*
X265730Y234023D02*
X268270D01*
X267000Y232753D02*
Y235293D01*
X246785Y204250D02*
X249325D01*
X248055Y202980D02*
Y205520D01*
X245730Y226300D02*
X248270D01*
X247000Y225030D02*
Y227570D01*
X199730Y453695D02*
X202270D01*
X201000Y452425D02*
Y454965D01*
X186730Y462000D02*
X189270D01*
X188000Y460730D02*
Y463270D01*
X199730Y448000D02*
X202270D01*
X201000Y446730D02*
Y449270D01*
X83727Y201855D02*
X86267D01*
X84997Y200585D02*
Y203125D01*
X89942Y110035D02*
X92482D01*
X91212Y108765D02*
Y111306D01*
X8816Y203250D02*
X11356D01*
X10086Y201980D02*
Y204520D01*
X14472Y194632D02*
X17012D01*
X15742Y193363D02*
Y195903D01*
X12702Y188902D02*
X15242D01*
X13972Y187632D02*
Y190172D01*
X247155Y111521D02*
X249695D01*
X248425Y110251D02*
Y112790D01*
X8730Y362000D02*
X11270D01*
X10000Y360730D02*
Y363270D01*
X199615Y599203D02*
X202155D01*
X200884Y597934D02*
Y600474D01*
X200482Y363248D02*
X203022D01*
X201752Y361978D02*
Y364518D01*
X243230Y93561D02*
X245770D01*
X244500Y92291D02*
Y94831D01*
X243695Y84000D02*
X246235D01*
X244965Y82730D02*
Y85270D01*
X239730Y59000D02*
X242270D01*
X241000Y57730D02*
Y60270D01*
X258730Y58000D02*
X261270D01*
X260000Y56730D02*
Y59270D01*
X303730Y63500D02*
X306270D01*
X305000Y62230D02*
Y64770D01*
X296730Y74000D02*
X299270D01*
X298000Y72730D02*
Y75270D01*
X297971Y225000D02*
X300511D01*
X299241Y223730D02*
Y226270D01*
X252161Y129000D02*
X254701D01*
X253431Y127730D02*
Y130270D01*
X242730Y299000D02*
X245270D01*
X244000Y297730D02*
Y300270D01*
X263730Y307000D02*
X266270D01*
X265000Y305730D02*
Y308270D01*
X249730Y141000D02*
X252270D01*
X251000Y139730D02*
Y142270D01*
X249730Y148000D02*
X252270D01*
X251000Y146730D02*
Y149270D01*
X249700Y155000D02*
X252240D01*
X250970Y153730D02*
Y156270D01*
X243730Y145000D02*
X246270D01*
X245000Y143730D02*
Y146270D01*
X243706Y150975D02*
X246246D01*
X244976Y149705D02*
Y152245D01*
X243730Y157000D02*
X246270D01*
X245000Y155730D02*
Y158270D01*
X64605Y224000D02*
X67145D01*
X65875Y222730D02*
Y225270D01*
X64605Y230600D02*
X67145D01*
X65875Y229330D02*
Y231870D01*
X78210Y79690D02*
X80750D01*
X79480Y78420D02*
Y80960D01*
X61987Y80756D02*
X64527D01*
X63257Y79486D02*
Y82026D01*
X72730Y82000D02*
X75270D01*
X74000Y80730D02*
Y83270D01*
X67574Y82000D02*
X70114D01*
X68844Y80730D02*
Y83270D01*
X88747Y86113D02*
X91287D01*
X90017Y84843D02*
Y87383D01*
X96056Y93124D02*
X98596D01*
X97326Y91854D02*
Y94394D01*
X97030Y108266D02*
X99570D01*
X98300Y106996D02*
Y109536D01*
X99730Y103000D02*
X102270D01*
X101000Y101730D02*
Y104270D01*
X99730Y97844D02*
X102270D01*
X101000Y96574D02*
Y99114D01*
X309736Y546400D02*
X312276D01*
X311006Y545130D02*
Y547670D01*
X256030Y290000D02*
X258570D01*
X257300Y288730D02*
Y291270D01*
X263341Y290000D02*
X265881D01*
X264611Y288730D02*
Y291270D01*
X104986Y258713D02*
X107526D01*
X106256Y257443D02*
Y259983D01*
X122730Y280750D02*
X125270D01*
X124000Y279480D02*
Y282020D01*
X157663Y309000D02*
X160203D01*
X158933Y307730D02*
Y310270D01*
X211674Y482944D02*
X214214D01*
X212944Y481674D02*
Y484214D01*
X208730Y514000D02*
X211270D01*
X210000Y512730D02*
Y515270D01*
X5038Y560849D02*
X7577D01*
X6308Y559579D02*
Y562119D01*
X4952Y552506D02*
X7492D01*
X6222Y551236D02*
Y553776D01*
X4952Y585279D02*
X7492D01*
X6222Y584009D02*
Y586549D01*
X4980Y576164D02*
X7520D01*
X6250Y574894D02*
Y577434D01*
X5409Y622738D02*
X7949D01*
X6679Y621469D02*
Y624008D01*
X5409Y638739D02*
X7949D01*
X6679Y637468D02*
Y640008D01*
X5409Y629739D02*
X7949D01*
X6679Y628469D02*
Y631008D01*
X5871Y657000D02*
X8411D01*
X7140Y655730D02*
Y658270D01*
X5409Y647738D02*
X7949D01*
X6679Y646469D02*
Y649008D01*
X32730Y665000D02*
X35270D01*
X34000Y663730D02*
Y666270D01*
X23730Y665000D02*
X26270D01*
X25000Y663730D02*
Y666270D01*
X50730Y665000D02*
X53270D01*
X52000Y663730D02*
Y666270D01*
X41730Y665000D02*
X44270D01*
X43000Y663730D02*
Y666270D01*
X259730Y665000D02*
X262270D01*
X261000Y663730D02*
Y666270D01*
X250730Y665000D02*
X253270D01*
X252000Y663730D02*
Y666270D01*
X275730Y665000D02*
X278270D01*
X277000Y663730D02*
Y666270D01*
X266730Y665000D02*
X269270D01*
X268000Y663730D02*
Y666270D01*
X309730Y654000D02*
X312270D01*
X311000Y652730D02*
Y655270D01*
X307706Y663230D02*
X310246D01*
X308976Y661960D02*
Y664500D01*
X285730Y665000D02*
X288270D01*
X287000Y663730D02*
Y666270D01*
X294730Y665000D02*
X297270D01*
X296000Y663730D02*
Y666270D01*
X308730Y643870D02*
X311270D01*
X310000Y642600D02*
Y645140D01*
X309351Y634870D02*
X311891D01*
X310621Y633600D02*
Y636140D01*
X308730Y625000D02*
X311270D01*
X310000Y623730D02*
Y626270D01*
X308730Y616000D02*
X311270D01*
X310000Y614730D02*
Y617270D01*
X309730Y593000D02*
X312270D01*
X311000Y591730D02*
Y594270D01*
X309730Y584000D02*
X312270D01*
X311000Y582730D02*
Y585270D01*
X309730Y575000D02*
X312270D01*
X311000Y573730D02*
Y576270D01*
X309730Y509934D02*
X312270D01*
X311000Y508664D02*
Y511204D01*
X310075Y461063D02*
X312615D01*
X311345Y459793D02*
Y462333D01*
X310109Y430000D02*
X312649D01*
X311379Y428730D02*
Y431270D01*
X310109Y420686D02*
X312649D01*
X311379Y419417D02*
Y421956D01*
X310109Y449284D02*
X312649D01*
X311379Y448014D02*
Y450554D01*
X310109Y440000D02*
X312649D01*
X311379Y438730D02*
Y441270D01*
X310109Y269366D02*
X312649D01*
X311379Y268096D02*
Y270636D01*
X310109Y260000D02*
X312649D01*
X311379Y258730D02*
Y261270D01*
X4836Y487830D02*
X7376D01*
X6106Y486560D02*
Y489100D01*
X4836Y496830D02*
X7376D01*
X6106Y495560D02*
Y498100D01*
X4836Y467580D02*
X7376D01*
X6106Y466310D02*
Y468850D01*
X4836Y476580D02*
X7376D01*
X6106Y475310D02*
Y477850D01*
X4978Y420001D02*
X7518D01*
X6248Y418731D02*
Y421271D01*
X5188Y428899D02*
X7728D01*
X6458Y427629D02*
Y430169D01*
X4941Y370200D02*
X7481D01*
X6211Y368930D02*
Y371470D01*
X4941Y379200D02*
X7481D01*
X6211Y377930D02*
Y380470D01*
X5324Y357220D02*
X7864D01*
X6594Y355950D02*
Y358490D01*
X5882Y327509D02*
X8422D01*
X7153Y326240D02*
Y328779D01*
X5823Y336398D02*
X8363D01*
X7093Y335128D02*
Y337668D01*
X4824Y231000D02*
X7364D01*
X6094Y229730D02*
Y232270D01*
X4824Y240000D02*
X7364D01*
X6094Y238730D02*
Y241270D01*
X4824Y252995D02*
X7364D01*
X6094Y251725D02*
Y254265D01*
X4824Y261995D02*
X7364D01*
X6094Y260725D02*
Y263265D01*
X5457Y272892D02*
X7997D01*
X6727Y271622D02*
Y274162D01*
X4775Y282008D02*
X7315D01*
X6045Y280738D02*
Y283278D01*
X5730Y152000D02*
X8270D01*
X7000Y150730D02*
Y153270D01*
X5730Y161000D02*
X8270D01*
X7000Y159730D02*
Y162270D01*
X5730Y41000D02*
X8270D01*
X7000Y39730D02*
Y42270D01*
X5730Y50000D02*
X8270D01*
X7000Y48730D02*
Y51270D01*
X5730Y17400D02*
X8270D01*
X7000Y16130D02*
Y18670D01*
X5730Y26400D02*
X8270D01*
X7000Y25130D02*
Y27670D01*
X49730Y7000D02*
X52270D01*
X51000Y5730D02*
Y8270D01*
X58730Y7000D02*
X61270D01*
X60000Y5730D02*
Y8270D01*
X29730Y7000D02*
X32270D01*
X31000Y5730D02*
Y8270D01*
X38730Y7000D02*
X41270D01*
X40000Y5730D02*
Y8270D01*
X18730Y7000D02*
X21270D01*
X20000Y5730D02*
Y8270D01*
X9730Y7000D02*
X12270D01*
X11000Y5730D02*
Y8270D01*
X128730Y7000D02*
X131270D01*
X130000Y5730D02*
Y8270D01*
X137730Y7000D02*
X140270D01*
X139000Y5730D02*
Y8270D01*
X108730Y7000D02*
X111270D01*
X110000Y5730D02*
Y8270D01*
X117730Y7000D02*
X120270D01*
X119000Y5730D02*
Y8270D01*
X77730Y7000D02*
X80270D01*
X79000Y5730D02*
Y8270D01*
X68730Y7000D02*
X71270D01*
X70000Y5730D02*
Y8270D01*
X97730Y7000D02*
X100270D01*
X99000Y5730D02*
Y8270D01*
X88730Y7000D02*
X91270D01*
X90000Y5730D02*
Y8270D01*
X208730Y7000D02*
X211270D01*
X210000Y5730D02*
Y8270D01*
X217730Y7000D02*
X220270D01*
X219000Y5730D02*
Y8270D01*
X188730Y7000D02*
X191270D01*
X190000Y5730D02*
Y8270D01*
X197730Y7000D02*
X200270D01*
X199000Y5730D02*
Y8270D01*
X157730Y7000D02*
X160270D01*
X159000Y5730D02*
Y8270D01*
X148730Y7000D02*
X151270D01*
X150000Y5730D02*
Y8270D01*
X177730Y7000D02*
X180270D01*
X179000Y5730D02*
Y8270D01*
X168730Y7000D02*
X171270D01*
X170000Y5730D02*
Y8270D01*
X249730Y7000D02*
X252270D01*
X251000Y5730D02*
Y8270D01*
X258730Y7000D02*
X261270D01*
X260000Y5730D02*
Y8270D01*
X229730Y7000D02*
X232270D01*
X231000Y5730D02*
Y8270D01*
X238730Y7000D02*
X241270D01*
X240000Y5730D02*
Y8270D01*
X310096Y20074D02*
X312636D01*
X311366Y18804D02*
Y21344D01*
X306730Y11000D02*
X309270D01*
X308000Y9730D02*
Y12270D01*
X278730Y7000D02*
X281270D01*
X280000Y5730D02*
Y8270D01*
X269730Y7000D02*
X272270D01*
X271000Y5730D02*
Y8270D01*
X298730Y7000D02*
X301270D01*
X300000Y5730D02*
Y8270D01*
X289730Y7000D02*
X292270D01*
X291000Y5730D02*
Y8270D01*
X310096Y49074D02*
X312636D01*
X311366Y47804D02*
Y50344D01*
X310096Y58074D02*
X312636D01*
X311366Y56804D02*
Y59344D01*
X310096Y29074D02*
X312636D01*
X311366Y27804D02*
Y30344D01*
X310096Y38074D02*
X312636D01*
X311366Y36804D02*
Y39344D01*
X310109Y92000D02*
X312649D01*
X311379Y90730D02*
Y93270D01*
X310109Y101000D02*
X312649D01*
X311379Y99730D02*
Y102270D01*
X310096Y72074D02*
X312636D01*
X311366Y70804D02*
Y73344D01*
X310096Y81074D02*
X312636D01*
X311366Y79804D02*
Y82344D01*
X310109Y121000D02*
X312649D01*
X311379Y119730D02*
Y122270D01*
X310109Y112000D02*
X312649D01*
X311379Y110730D02*
Y113270D01*
X310109Y141000D02*
X312649D01*
X311379Y139730D02*
Y142270D01*
X310109Y132000D02*
X312649D01*
X311379Y130730D02*
Y133270D01*
X310109Y163000D02*
X312649D01*
X311379Y161730D02*
Y164270D01*
X310109Y154000D02*
X312649D01*
X311379Y152730D02*
Y155270D01*
X309897Y200983D02*
X312437D01*
X311168Y199713D02*
Y202253D01*
X309897Y191983D02*
X312437D01*
X311168Y190713D02*
Y193253D01*
X309897Y219983D02*
X312437D01*
X311168Y218713D02*
Y221253D01*
X309897Y210983D02*
X312437D01*
X311168Y209713D02*
Y212253D01*
X310109Y230000D02*
X312649D01*
X311379Y228730D02*
Y231270D01*
X310109Y239000D02*
X312649D01*
X311379Y237730D02*
Y240270D01*
X209109Y100000D02*
X211649D01*
X210379Y98730D02*
Y101270D01*
X209730Y113000D02*
X212270D01*
X211000Y111730D02*
Y114270D01*
X213730Y103422D02*
X216270D01*
X215000Y102152D02*
Y104692D01*
X213730Y108578D02*
X216270D01*
X215000Y107308D02*
Y109848D01*
X259347Y226121D02*
X261887D01*
X260617Y224851D02*
Y227391D01*
X270880Y225735D02*
X273420D01*
X272150Y224464D02*
Y227005D01*
X229730Y64000D02*
X232270D01*
X231000Y62730D02*
Y65270D01*
X229730Y71000D02*
X232270D01*
X231000Y69730D02*
Y72270D01*
X229730Y78000D02*
X232270D01*
X231000Y76730D02*
Y79270D01*
X176730Y61000D02*
X179270D01*
X178000Y59730D02*
Y62270D01*
X176730Y70000D02*
X179270D01*
X178000Y68730D02*
Y71270D01*
X176730Y78000D02*
X179270D01*
X178000Y76730D02*
Y79270D01*
X92730Y59000D02*
X95270D01*
X94000Y57730D02*
Y60270D01*
X92730Y68000D02*
X95270D01*
X94000Y66730D02*
Y69270D01*
X92730Y76000D02*
X95270D01*
X94000Y74730D02*
Y77270D01*
X144730Y59000D02*
X147270D01*
X146000Y57730D02*
Y60270D01*
X144730Y68000D02*
X147270D01*
X146000Y66730D02*
Y69270D01*
X144730Y75000D02*
X147270D01*
X146000Y73730D02*
Y76270D01*
X180334Y38754D02*
X182874D01*
X181604Y37484D02*
Y40024D01*
X159320Y73109D02*
X161860D01*
X160590Y71839D02*
Y74379D01*
X137544Y36077D02*
X140084D01*
X138814Y34807D02*
Y37347D01*
X109230Y186000D02*
X111770D01*
X110500Y184730D02*
Y187270D01*
X19730Y236000D02*
X22270D01*
X21000Y234730D02*
Y237270D01*
X10730Y234000D02*
X13270D01*
X12000Y232730D02*
Y235270D01*
X42808Y350207D02*
X45348D01*
X44078Y348937D02*
Y351477D01*
X37652Y350207D02*
X40192D01*
X38922Y348937D02*
Y351477D01*
X68244Y383351D02*
X70784D01*
X69514Y382081D02*
Y384621D01*
X68730Y390377D02*
X71270D01*
X70000Y389107D02*
Y391647D01*
X57730Y413250D02*
X60270D01*
X59000Y411980D02*
Y414520D01*
X258730Y649000D02*
X261270D01*
X260000Y647730D02*
Y650270D01*
X254730Y334000D02*
X257270D01*
X256000Y332730D02*
Y335270D01*
X268364Y616538D02*
X270904D01*
X269634Y615268D02*
Y617808D01*
X266730Y531373D02*
X269270D01*
X268000Y530103D02*
Y532643D01*
X303097Y495617D02*
X305637D01*
X304367Y494347D02*
Y496887D01*
X79303Y419000D02*
X81843D01*
X80573Y417730D02*
Y420270D01*
X19540Y499174D02*
X22080D01*
X20810Y497904D02*
Y500444D01*
X76893Y424000D02*
X79433D01*
X78163Y422730D02*
Y425270D01*
X49730Y441682D02*
X52270D01*
X51000Y440412D02*
Y442952D01*
X54730Y447000D02*
X57270D01*
X56000Y445730D02*
Y448270D01*
X79730Y469000D02*
X82270D01*
X81000Y467730D02*
Y470270D01*
X69730Y473000D02*
X72270D01*
X71000Y471730D02*
Y474270D01*
X66730Y481950D02*
X69270D01*
X68000Y480680D02*
Y483220D01*
X92730Y468750D02*
X95270D01*
X94000Y467480D02*
Y470020D01*
X116375Y453209D02*
X118915D01*
X117645Y451939D02*
Y454479D01*
X108730Y458000D02*
X111270D01*
X110000Y456730D02*
Y459270D01*
X137730Y457000D02*
X140270D01*
X139000Y455730D02*
Y458270D01*
X130730Y464000D02*
X133270D01*
X132000Y462730D02*
Y465270D01*
X114730Y480000D02*
X117270D01*
X116000Y478730D02*
Y481270D01*
X104761Y486000D02*
X107301D01*
X106031Y484730D02*
Y487270D01*
X92730Y495061D02*
X95270D01*
X94000Y493791D02*
Y496331D01*
X83730Y476000D02*
X86270D01*
X85000Y474730D02*
Y477270D01*
X75730Y482000D02*
X78270D01*
X77000Y480730D02*
Y483270D01*
X70730Y492000D02*
X73270D01*
X72000Y490730D02*
Y493270D01*
X59730Y500900D02*
X62270D01*
X61000Y499630D02*
Y502170D01*
X24730Y482000D02*
X27270D01*
X26000Y480730D02*
Y483270D01*
X24730Y491000D02*
X27270D01*
X26000Y489730D02*
Y492270D01*
X97730Y512000D02*
X100270D01*
X99000Y510730D02*
Y513270D01*
X93730Y519000D02*
X96270D01*
X95000Y517730D02*
Y520270D01*
X83730Y522000D02*
X86270D01*
X85000Y520730D02*
Y523270D01*
X73730Y525000D02*
X76270D01*
X75000Y523730D02*
Y526270D01*
X73730Y533000D02*
X76270D01*
X75000Y531730D02*
Y534270D01*
X83730Y531000D02*
X86270D01*
X85000Y529730D02*
Y532270D01*
X45730Y548000D02*
X48270D01*
X47000Y546730D02*
Y549270D01*
X56965Y557500D02*
X59505D01*
X58235Y556230D02*
Y558770D01*
X63730Y561000D02*
X66270D01*
X65000Y559730D02*
Y562270D01*
X78730Y567000D02*
X81270D01*
X80000Y565730D02*
Y568270D01*
X80730Y576000D02*
X83270D01*
X82000Y574730D02*
Y577270D01*
X111730Y582000D02*
X114270D01*
X113000Y580730D02*
Y583270D01*
X111730Y589000D02*
X114270D01*
X113000Y587730D02*
Y590270D01*
X134868Y501000D02*
X137408D01*
X136138Y499730D02*
Y502270D01*
X134730Y509000D02*
X137270D01*
X136000Y507730D02*
Y510270D01*
X134730Y516000D02*
X137270D01*
X136000Y514730D02*
Y517270D01*
X140730Y522000D02*
X143270D01*
X142000Y520730D02*
Y523270D01*
X170034Y501000D02*
X172574D01*
X171304Y499730D02*
Y502270D01*
X161225Y502100D02*
X163765D01*
X162495Y500830D02*
Y503370D01*
X169730Y494100D02*
X172270D01*
X171000Y492830D02*
Y495370D01*
X188730Y472561D02*
X191270D01*
X190000Y471291D02*
Y473831D01*
X197730Y474000D02*
X200270D01*
X199000Y472730D02*
Y475270D01*
X201730Y479000D02*
X204270D01*
X203000Y477730D02*
Y480270D01*
X198730Y506000D02*
X201270D01*
X200000Y504730D02*
Y507270D01*
X209730Y505000D02*
X212270D01*
X211000Y503730D02*
Y506270D01*
X214730Y519000D02*
X217270D01*
X216000Y517730D02*
Y520270D01*
X200980Y512053D02*
X203520D01*
X202250Y510783D02*
Y513323D01*
X196730Y533000D02*
X199270D01*
X198000Y531730D02*
Y534270D01*
X199230Y541200D02*
X201770D01*
X200500Y539930D02*
Y542470D01*
X198730Y551000D02*
X201270D01*
X200000Y549730D02*
Y552270D01*
X202730Y556000D02*
X205270D01*
X204000Y554730D02*
Y557270D01*
X209730Y550000D02*
X212270D01*
X211000Y548730D02*
Y551270D01*
X214730Y543000D02*
X217270D01*
X216000Y541730D02*
Y544270D01*
X219730Y537000D02*
X222270D01*
X221000Y535730D02*
Y538270D01*
X223730Y520000D02*
X226270D01*
X225000Y518730D02*
Y521270D01*
X241230Y521000D02*
X243770D01*
X242500Y519730D02*
Y522270D01*
X240730Y545000D02*
X243270D01*
X242000Y543730D02*
Y546270D01*
X235730Y550000D02*
X238270D01*
X237000Y548730D02*
Y551270D01*
X231730Y557000D02*
X234270D01*
X233000Y555730D02*
Y558270D01*
X225730Y563000D02*
X228270D01*
X227000Y561730D02*
Y564270D01*
X220730Y570000D02*
X223270D01*
X222000Y568730D02*
Y571270D01*
X217730Y577000D02*
X220270D01*
X219000Y575730D02*
Y578270D01*
X218730Y584000D02*
X221270D01*
X220000Y582730D02*
Y585270D01*
X208323Y588000D02*
X210863D01*
X209593Y586730D02*
Y589270D01*
X199730Y584000D02*
X202270D01*
X201000Y582730D02*
Y585270D01*
X189730Y580000D02*
X192270D01*
X191000Y578730D02*
Y581270D01*
X179528Y580000D02*
X182068D01*
X180798Y578730D02*
Y581270D01*
X182730Y588000D02*
X185270D01*
X184000Y586730D02*
Y589270D01*
X171730Y591000D02*
X174270D01*
X173000Y589730D02*
Y592270D01*
X159730Y592000D02*
X162270D01*
X161000Y590730D02*
Y593270D01*
X147730Y585000D02*
X150270D01*
X149000Y583730D02*
Y586270D01*
X146730Y575000D02*
X149270D01*
X148000Y573730D02*
Y576270D01*
X146730Y565597D02*
X149270D01*
X148000Y564327D02*
Y566867D01*
X142730Y530000D02*
X145270D01*
X144000Y528730D02*
Y531270D01*
X134730Y529000D02*
X137270D01*
X136000Y527730D02*
Y530270D01*
X124730Y529000D02*
X127270D01*
X126000Y527730D02*
Y530270D01*
X114730Y529000D02*
X117270D01*
X116000Y527730D02*
Y530270D01*
X104730Y529000D02*
X107270D01*
X106000Y527730D02*
Y530270D01*
X95730Y529000D02*
X98270D01*
X97000Y527730D02*
Y530270D01*
X150730Y464900D02*
X153270D01*
X152000Y463630D02*
Y466170D01*
X184581Y468856D02*
X187121D01*
X185851Y467586D02*
Y470126D01*
X300112Y556890D02*
X302652D01*
X301382Y555620D02*
Y558160D01*
X142730Y466000D02*
X145270D01*
X144000Y464730D02*
Y467270D01*
X91436Y409693D02*
X93976D01*
X92706Y408424D02*
Y410964D01*
X90130Y401820D02*
X92670D01*
X91400Y400550D02*
Y403091D01*
X115310Y354945D02*
X117850D01*
X116580Y353675D02*
Y356215D01*
X40812Y372433D02*
X43352D01*
X42082Y371163D02*
Y373703D01*
X41730Y378000D02*
X44270D01*
X43000Y376730D02*
Y379270D01*
X41730Y385000D02*
X44270D01*
X43000Y383730D02*
Y386270D01*
X180730Y298110D02*
X183270D01*
X182000Y296840D02*
Y299380D01*
X168223Y309585D02*
X170763D01*
X169493Y308315D02*
Y310855D01*
X158500Y295021D02*
X161040D01*
X159770Y293751D02*
Y296291D01*
X152730Y242000D02*
X155270D01*
X154000Y240730D02*
Y243270D01*
X121709Y249555D02*
X124249D01*
X122979Y248284D02*
Y250825D01*
X225576Y582104D02*
X228116D01*
X226846Y580834D02*
Y583374D01*
X242457Y556908D02*
X244997D01*
X243727Y555638D02*
Y558178D01*
X231063Y573000D02*
X233603D01*
X232334Y571730D02*
Y574270D01*
X129730Y320715D02*
X132270D01*
X131000Y319445D02*
Y321985D01*
X49730Y429000D02*
X52270D01*
X51000Y427730D02*
Y430270D01*
X9162Y413299D02*
X11702D01*
X10432Y412029D02*
Y414569D01*
X166320Y164707D02*
X168860D01*
X167590Y163437D02*
Y165977D01*
X196730Y124886D02*
X199270D01*
X198000Y123616D02*
Y126156D01*
X95486Y139000D02*
X98026D01*
X96756Y137730D02*
Y140270D01*
X95486Y147000D02*
X98026D01*
X96756Y145730D02*
Y148270D01*
X96193Y131000D02*
X98733D01*
X97463Y129730D02*
Y132270D01*
X208714Y167556D02*
X211254D01*
X209984Y166286D02*
Y168826D01*
X201730Y174000D02*
X204270D01*
X203000Y172730D02*
Y175270D01*
X220730Y143000D02*
X223270D01*
X222000Y141730D02*
Y144270D01*
X217871Y135409D02*
X220411D01*
X219141Y134139D02*
Y136679D01*
X176730Y144000D02*
X179270D01*
X178000Y142730D02*
Y145270D01*
X166320Y157245D02*
X168860D01*
X167590Y155975D02*
Y158515D01*
X172867Y163613D02*
X175407D01*
X174137Y162343D02*
Y164883D01*
X277730Y426000D02*
X280270D01*
X279000Y424730D02*
Y427270D01*
X285739Y427331D02*
X288279D01*
X287009Y426061D02*
Y428601D01*
X205730Y395000D02*
X208270D01*
X207000Y393730D02*
Y396270D01*
X236730Y93000D02*
X239270D01*
X238000Y91730D02*
Y94270D01*
X225713Y94497D02*
X228253D01*
X226983Y93227D02*
Y95767D01*
X144730Y102250D02*
X147270D01*
X146000Y100980D02*
Y103520D01*
X250716Y646491D02*
X253256D01*
X251987Y645221D02*
Y647761D01*
X228066Y600032D02*
X230606D01*
X229336Y598762D02*
Y601302D01*
X291786Y563620D02*
X294326D01*
X293056Y562350D02*
Y564890D01*
X62980Y411000D02*
X65520D01*
X64250Y409730D02*
Y412270D01*
X51730Y411000D02*
X54270D01*
X53000Y409730D02*
Y412270D01*
X249730Y539000D02*
X252270D01*
X251000Y537730D02*
Y540270D01*
X215730Y364000D02*
X218270D01*
X217000Y362730D02*
Y365270D01*
X112730Y267457D02*
X115270D01*
X114000Y266187D02*
Y268727D01*
X93016Y256630D02*
X95556D01*
X94286Y255360D02*
Y257900D01*
X97645Y280464D02*
X100185D01*
X98915Y279194D02*
Y281734D01*
X141730Y308625D02*
X144270D01*
X143000Y307355D02*
Y309895D01*
X226730Y326000D02*
X229270D01*
X228000Y324730D02*
Y327270D01*
X207239Y322318D02*
X209779D01*
X208509Y321048D02*
Y323588D01*
X214854Y304912D02*
X217394D01*
X216124Y303642D02*
Y306182D01*
X211322Y316522D02*
X213862D01*
X212592Y315252D02*
Y317792D01*
X182152Y307000D02*
X184692D01*
X183422Y305730D02*
Y308270D01*
X235039Y379000D02*
X237579D01*
X236308Y377730D02*
Y380270D01*
X104730Y507000D02*
X107270D01*
X106000Y505730D02*
Y508270D01*
X260944Y591000D02*
X263484D01*
X262214Y589730D02*
Y592270D01*
X271092Y592250D02*
X273632D01*
X272362Y590980D02*
Y593520D01*
X49913Y281348D02*
X52453D01*
X51183Y280078D02*
Y282618D01*
X32730Y283000D02*
X35270D01*
X34000Y281730D02*
Y284270D01*
X248235Y55592D02*
X250775D01*
X249505Y54322D02*
Y56862D01*
X258369Y51697D02*
X260909D01*
X259639Y50427D02*
Y52967D01*
X247984Y21546D02*
X250524D01*
X249254Y20276D02*
Y22816D01*
X155980Y357000D02*
X158520D01*
X157250Y355730D02*
Y358270D01*
X147091Y357000D02*
X149631D01*
X148361Y355730D02*
Y358270D01*
X155980Y351000D02*
X158520D01*
X157250Y349730D02*
Y352270D01*
X122730Y350000D02*
X125270D01*
X124000Y348730D02*
Y351270D01*
X124061Y357000D02*
X126601D01*
X125331Y355730D02*
Y358270D01*
X153480Y381000D02*
X156020D01*
X154750Y379730D02*
Y382270D01*
X138730Y381000D02*
X141270D01*
X140000Y379730D02*
Y382270D01*
X248631Y447201D02*
X251171D01*
X249901Y445931D02*
Y448471D01*
X241391Y447000D02*
X243931D01*
X242661Y445730D02*
Y448270D01*
X253730Y421000D02*
X256270D01*
X255000Y419730D02*
Y422270D01*
X226862Y424000D02*
X229402D01*
X228132Y422730D02*
Y425270D01*
X301142Y452328D02*
X303682D01*
X302412Y451058D02*
Y453598D01*
X88730Y157000D02*
X91270D01*
X90000Y155730D02*
Y158270D01*
X70730Y118000D02*
X73270D01*
X72000Y116730D02*
Y119270D01*
X64730Y118000D02*
X67270D01*
X66000Y116730D02*
Y119270D01*
X58761Y151000D02*
X61301D01*
X60031Y149730D02*
Y152270D01*
X7078Y96165D02*
X9618D01*
X8349Y94895D02*
Y97435D01*
X7730Y116000D02*
X10270D01*
X9000Y114730D02*
Y117270D01*
X58982Y92808D02*
X61522D01*
X60252Y91538D02*
Y94078D01*
X5730Y299000D02*
X8270D01*
X7000Y297730D02*
Y300270D01*
X26554Y343392D02*
X29094D01*
X27824Y342122D02*
Y344662D01*
X19326Y280000D02*
X21866D01*
X20596Y278730D02*
Y281270D01*
X40730Y281000D02*
X43270D01*
X42000Y279730D02*
Y282270D01*
X86346Y336000D02*
X88886D01*
X87616Y334730D02*
Y337270D01*
X84709Y346134D02*
X87249D01*
X85979Y344864D02*
Y347404D01*
X108007Y354980D02*
X110547D01*
X109277Y353710D02*
Y356250D01*
X144730Y294000D02*
X147270D01*
X146000Y292730D02*
Y295270D01*
X133890Y293000D02*
X136430D01*
X135160Y291730D02*
Y294270D01*
X170730Y267000D02*
X173270D01*
X172000Y265730D02*
Y268270D01*
X160734Y346335D02*
X163274D01*
X162004Y345065D02*
Y347605D01*
X171730Y331000D02*
X174270D01*
X173000Y329730D02*
Y332270D01*
X179315Y312444D02*
X181855D01*
X180585Y311174D02*
Y313714D01*
X179086Y326914D02*
X181626D01*
X180357Y325644D02*
Y328184D01*
X170976Y347171D02*
X173516D01*
X172246Y345901D02*
Y348441D01*
X187768Y354140D02*
X190308D01*
X189038Y352870D02*
Y355410D01*
X195960Y296000D02*
X198500D01*
X197230Y294730D02*
Y297270D01*
X210730Y293000D02*
X213270D01*
X212000Y291730D02*
Y294270D01*
X227025Y307761D02*
X229565D01*
X228295Y306491D02*
Y309031D01*
X208572Y354733D02*
X211112D01*
X209842Y353463D02*
Y356003D01*
X266154Y245471D02*
X268694D01*
X267424Y244201D02*
Y246741D01*
X259820Y259032D02*
X262360D01*
X261090Y257761D02*
Y260301D01*
X277824Y225748D02*
X280364D01*
X279094Y224478D02*
Y227018D01*
X288730Y274000D02*
X291270D01*
X290000Y272730D02*
Y275270D01*
X277730Y274000D02*
X280270D01*
X279000Y272730D02*
Y275270D01*
X309051Y249668D02*
X311591D01*
X310321Y248398D02*
Y250938D01*
X305730Y274000D02*
X308270D01*
X307000Y272730D02*
Y275270D01*
X254848Y326408D02*
X257388D01*
X256118Y325138D02*
Y327678D01*
X230524Y330255D02*
X233064D01*
X231794Y328985D02*
Y331525D01*
X265191Y263112D02*
X267731D01*
X266461Y261842D02*
Y264382D01*
X213730Y244344D02*
X216270D01*
X215000Y243074D02*
Y245614D01*
X230730Y254500D02*
X233270D01*
X232000Y253230D02*
Y255770D01*
X217253Y250055D02*
X219793D01*
X218523Y248785D02*
Y251325D01*
X252216Y226121D02*
X254756D01*
X253486Y224851D02*
Y227391D01*
X222620Y185189D02*
X225160D01*
X223890Y183919D02*
Y186459D01*
X223312Y195700D02*
X225852D01*
X224582Y194430D02*
Y196970D01*
X239160Y176553D02*
X241700D01*
X240430Y175283D02*
Y177823D01*
X219616Y211221D02*
X222156D01*
X220886Y209951D02*
Y212491D01*
X180355Y225000D02*
X182895D01*
X181625Y223730D02*
Y226270D01*
X215730Y205000D02*
X218270D01*
X217000Y203730D02*
Y206270D01*
X230730Y144000D02*
X233270D01*
X232000Y142730D02*
Y145270D01*
X237442Y151000D02*
X239982D01*
X238712Y149730D02*
Y152270D01*
X194730Y201000D02*
X197270D01*
X196000Y199730D02*
Y202270D01*
X237730Y159000D02*
X240270D01*
X239000Y157730D02*
Y160270D01*
X205730Y198000D02*
X208270D01*
X207000Y196730D02*
Y199270D01*
X189730Y187000D02*
X192270D01*
X191000Y185730D02*
Y188270D01*
X170151Y180066D02*
X172691D01*
X171421Y178796D02*
Y181336D01*
X144730Y186000D02*
X147270D01*
X146000Y184730D02*
Y187270D01*
X62730Y193000D02*
X65270D01*
X64000Y191730D02*
Y194270D01*
X62730Y199000D02*
X65270D01*
X64000Y197730D02*
Y200270D01*
X112730Y210000D02*
X115270D01*
X114000Y208730D02*
Y211270D01*
X140730Y192000D02*
X143270D01*
X142000Y190730D02*
Y193270D01*
X115730Y189000D02*
X118270D01*
X117000Y187730D02*
Y190270D01*
X109230Y196000D02*
X111770D01*
X110500Y194730D02*
Y197270D01*
X143500Y224500D02*
X146040D01*
X144770Y223230D02*
Y225770D01*
X159487Y224000D02*
X162027D01*
X160757Y222730D02*
Y225270D01*
X150730Y224000D02*
X153270D01*
X152000Y222730D02*
Y225270D01*
X87565Y303178D02*
X90105D01*
X88835Y301908D02*
Y304448D01*
X93730Y305000D02*
X96270D01*
X95000Y303730D02*
Y306270D01*
X121828Y305046D02*
X124368D01*
X123098Y303776D02*
Y306316D01*
X104730Y278191D02*
X107270D01*
X106000Y276921D02*
Y279461D01*
X90730Y249000D02*
X93270D01*
X92000Y247730D02*
Y250270D01*
X68730Y267000D02*
X71270D01*
X70000Y265730D02*
Y268270D01*
X99355Y274941D02*
X101895D01*
X100625Y273671D02*
Y276211D01*
X68480Y275000D02*
X71020D01*
X69750Y273730D02*
Y276270D01*
X59730Y283000D02*
X62270D01*
X61000Y281730D02*
Y284270D01*
X82500Y216982D02*
X85040D01*
X83770Y215712D02*
Y218252D01*
X86730Y221000D02*
X89270D01*
X88000Y219730D02*
Y222270D01*
X92730Y221000D02*
X95270D01*
X94000Y219730D02*
Y222270D01*
X95730Y198000D02*
X98270D01*
X97000Y196730D02*
Y199270D01*
X88730Y192000D02*
X91270D01*
X90000Y190730D02*
Y193270D01*
X95730Y192000D02*
X98270D01*
X97000Y190730D02*
Y193270D01*
X90396Y200592D02*
X92936D01*
X91666Y199322D02*
Y201862D01*
X81730Y162000D02*
X84270D01*
X83000Y160730D02*
Y163270D01*
X75730Y162000D02*
X78270D01*
X77000Y160730D02*
Y163270D01*
X69730Y162000D02*
X72270D01*
X71000Y160730D02*
Y163270D01*
X50230Y237000D02*
X52770D01*
X51500Y235730D02*
Y238270D01*
X56230Y237000D02*
X58770D01*
X57500Y235730D02*
Y238270D01*
X62230Y237000D02*
X64770D01*
X63500Y235730D02*
Y238270D01*
X140980Y351889D02*
X143520D01*
X142250Y350619D02*
Y353159D01*
X61884Y345000D02*
X64424D01*
X63154Y343730D02*
Y346270D01*
X53730Y345000D02*
X56270D01*
X55000Y343730D02*
Y346270D01*
X12625Y486837D02*
X15165D01*
X13895Y485567D02*
Y488107D01*
X34730Y412000D02*
X37270D01*
X36000Y410730D02*
Y413270D01*
X20730Y412000D02*
X23270D01*
X22000Y410730D02*
Y413270D01*
X27730Y462000D02*
X30270D01*
X29000Y460730D02*
Y463270D01*
X20730Y462000D02*
X23270D01*
X22000Y460730D02*
Y463270D01*
X57201Y441682D02*
X59742D01*
X58471Y440412D02*
Y442952D01*
X69381Y422548D02*
X71921D01*
X70651Y421278D02*
Y423818D01*
X25506Y468075D02*
X28046D01*
X26776Y466805D02*
Y469346D01*
X29386Y499579D02*
X31926D01*
X30656Y498309D02*
Y500849D01*
X40644Y528049D02*
X43184D01*
X41914Y526779D02*
Y529319D01*
X40336Y534964D02*
X42876D01*
X41606Y533694D02*
Y536234D01*
X72730Y585000D02*
X75270D01*
X74000Y583730D02*
Y586270D01*
X70265Y562205D02*
X72805D01*
X71535Y560935D02*
Y563475D01*
X87593Y512989D02*
X90133D01*
X88863Y511719D02*
Y514259D01*
X169504Y461353D02*
X172044D01*
X170774Y460084D02*
Y462623D01*
X130393Y482330D02*
X132934D01*
X131664Y481060D02*
Y483600D01*
X148730Y526000D02*
X151270D01*
X150000Y524730D02*
Y527270D01*
X167730Y537750D02*
X170270D01*
X169000Y536480D02*
Y539020D01*
X161730Y533000D02*
X164270D01*
X163000Y531730D02*
Y534270D01*
X211304Y581760D02*
X213844D01*
X212574Y580490D02*
Y583030D01*
X169119Y582951D02*
X171659D01*
X170389Y581681D02*
Y584221D01*
X158567Y583903D02*
X161107D01*
X159837Y582633D02*
Y585173D01*
X152653Y604004D02*
X155193D01*
X153923Y602734D02*
Y605274D01*
X144730Y557000D02*
X147270D01*
X146000Y555730D02*
Y558270D01*
X131167Y582304D02*
X133707D01*
X132437Y581034D02*
Y583574D01*
X128730Y496000D02*
X131270D01*
X130000Y494730D02*
Y497270D01*
X37625Y543374D02*
X40165D01*
X38895Y542104D02*
Y544644D01*
X11864Y584000D02*
X14404D01*
X13134Y582730D02*
Y585270D01*
X4762Y568000D02*
X7302D01*
X6032Y566730D02*
Y569270D01*
X55861Y568365D02*
X58401D01*
X57131Y567095D02*
Y569635D01*
X55186Y599584D02*
X57726D01*
X56456Y598313D02*
Y600854D01*
X68730Y344000D02*
X71270D01*
X70000Y342730D02*
Y345270D01*
X101980Y351844D02*
X104520D01*
X103250Y350574D02*
Y353114D01*
X71894Y351000D02*
X74434D01*
X73164Y349730D02*
Y352270D01*
X95766Y351844D02*
X98306D01*
X97036Y350574D02*
Y353114D01*
X77730Y352000D02*
X80270D01*
X79000Y350730D02*
Y353270D01*
X87425Y352239D02*
X89965D01*
X88695Y350969D02*
Y353508D01*
X87079Y394683D02*
X89620D01*
X88350Y393413D02*
Y395953D01*
X77209Y395177D02*
X79749D01*
X78479Y393907D02*
Y396446D01*
X243004Y510149D02*
X245544D01*
X244274Y508879D02*
Y511419D01*
X20382Y286668D02*
X22922D01*
X21652Y285398D02*
Y287938D01*
X6740Y308133D02*
X9280D01*
X8010Y306863D02*
Y309403D01*
X6730Y320000D02*
X9270D01*
X8000Y318730D02*
Y321270D01*
X20730Y342000D02*
X23270D01*
X22000Y340730D02*
Y343270D01*
X83019Y307791D02*
X85559D01*
X84289Y306521D02*
Y309061D01*
X82730Y320000D02*
X85270D01*
X84000Y318730D02*
Y321270D01*
X262730Y536000D02*
X265270D01*
X264000Y534730D02*
Y537270D01*
X268088Y554117D02*
X270628D01*
X269358Y552847D02*
Y555387D01*
X305730Y519000D02*
X308270D01*
X307000Y517730D02*
Y520270D01*
X309114Y538852D02*
X311654D01*
X310384Y537582D02*
Y540122D01*
X299351Y521518D02*
X301891D01*
X300621Y520248D02*
Y522788D01*
X268906Y538852D02*
X271446D01*
X270176Y537582D02*
Y540122D01*
X189730Y237000D02*
X192270D01*
X191000Y235730D02*
Y238270D01*
X189730Y247000D02*
X192270D01*
X191000Y245730D02*
Y248270D01*
X190730Y262000D02*
X193270D01*
X192000Y260730D02*
Y263270D01*
X189730Y254000D02*
X192270D01*
X191000Y252730D02*
Y255270D01*
X144562Y265770D02*
X147102D01*
X145832Y264500D02*
Y267040D01*
X153562Y268000D02*
X156102D01*
X154832Y266730D02*
Y269270D01*
X266470Y144880D02*
X269010D01*
X267740Y143610D02*
Y146150D01*
X291847Y144677D02*
X294387D01*
X293117Y143407D02*
Y145947D01*
X310217Y171700D02*
X312757D01*
X311487Y170430D02*
Y172970D01*
X310217Y184000D02*
X312757D01*
X311487Y182730D02*
Y185270D01*
X291426Y224904D02*
X293966D01*
X292696Y223634D02*
Y226174D01*
X246785Y184584D02*
X249325D01*
X248055Y183314D02*
Y185854D01*
X246785Y196713D02*
X249325D01*
X248055Y195443D02*
Y197983D01*
X192230Y269500D02*
X194770D01*
X193500Y268230D02*
Y270770D01*
X192230Y224500D02*
X194770D01*
X193500Y223230D02*
Y225770D01*
X177230Y269000D02*
X179770D01*
X178500Y267730D02*
Y270270D01*
X177730Y254000D02*
X180270D01*
X179000Y252730D02*
Y255270D01*
X177730Y239000D02*
X180270D01*
X179000Y237730D02*
Y240270D01*
X162230Y270000D02*
X164770D01*
X163500Y268730D02*
Y271270D01*
X162730Y255000D02*
X165270D01*
X164000Y253730D02*
Y256270D01*
X162730Y240000D02*
X165270D01*
X164000Y238730D02*
Y241270D01*
X147730Y254500D02*
X150270D01*
X149000Y253230D02*
Y255770D01*
X125730Y224500D02*
X128270D01*
X127000Y223230D02*
Y225770D01*
X121709Y219555D02*
X124249D01*
X122979Y218284D02*
Y220825D01*
X125703Y234500D02*
X128243D01*
X126973Y233230D02*
Y235770D01*
X121682Y229555D02*
X124222D01*
X122952Y228284D02*
Y230825D01*
X125730Y244500D02*
X128270D01*
X127000Y243230D02*
Y245770D01*
X121709Y239555D02*
X124249D01*
X122979Y238284D02*
Y240825D01*
X125730Y264500D02*
X128270D01*
X127000Y263230D02*
Y265770D01*
X121709Y259554D02*
X124249D01*
X122979Y258284D02*
Y260824D01*
X121709Y269555D02*
X124249D01*
X122979Y268284D02*
Y270825D01*
X167230Y291000D02*
X169770D01*
X168500Y289730D02*
Y292270D01*
X152284Y295021D02*
X154824D01*
X153554Y293751D02*
Y296291D01*
X177230Y291000D02*
X179770D01*
X178500Y289730D02*
Y292270D01*
X172285Y295021D02*
X174825D01*
X173554Y293751D02*
Y296291D01*
X187230Y291456D02*
X189770D01*
X188500Y290186D02*
Y292726D01*
X213730Y269500D02*
X216270D01*
X215000Y268230D02*
Y270770D01*
X213730Y259500D02*
X216270D01*
X215000Y258230D02*
Y260770D01*
X217751Y264445D02*
X220291D01*
X219021Y263176D02*
Y265716D01*
X218207Y234445D02*
X220747D01*
X219477Y233176D02*
Y235716D01*
X217751Y224445D02*
X220291D01*
X219021Y223176D02*
Y225716D01*
X187176Y198979D02*
X189715D01*
X188445Y197709D02*
Y200249D01*
X172230Y203000D02*
X174770D01*
X173500Y201730D02*
Y204270D01*
X177176Y198979D02*
X179715D01*
X178445Y197709D02*
Y200249D01*
X162230Y203000D02*
X164770D01*
X163500Y201730D02*
Y204270D01*
X152230Y203000D02*
X154770D01*
X153500Y201730D02*
Y204270D01*
X157176Y198979D02*
X159715D01*
X158446Y197709D02*
Y200249D01*
X147176Y198979D02*
X149715D01*
X148446Y197709D02*
Y200249D01*
X142230Y203000D02*
X144770D01*
X143500Y201730D02*
Y204270D01*
X66730Y368066D02*
X69270D01*
X68000Y366796D02*
Y369336D01*
X107730Y383493D02*
X110270D01*
X109000Y382223D02*
Y384762D01*
X28584Y353171D02*
X31124D01*
X29855Y351901D02*
Y354441D01*
X66730Y377000D02*
X69270D01*
X68000Y375730D02*
Y378270D01*
X27657Y410884D02*
X30196D01*
X28926Y409614D02*
Y412154D01*
X47730Y392000D02*
X50270D01*
X49000Y390730D02*
Y393270D01*
X27730Y392000D02*
X30270D01*
X29000Y390730D02*
Y393270D01*
X42733Y410279D02*
X45273D01*
X44003Y409009D02*
Y411549D01*
X49730Y353000D02*
X52270D01*
X51000Y351730D02*
Y354270D01*
X32775Y346249D02*
X35315D01*
X34045Y344979D02*
Y347519D01*
X47284Y346375D02*
X49824D01*
X48554Y345105D02*
Y347645D01*
X27730Y372000D02*
X30270D01*
X29000Y370730D02*
Y373270D01*
X9730Y382000D02*
X12270D01*
X11000Y380730D02*
Y383270D01*
X233701Y591003D02*
X236241D01*
X234971Y589733D02*
Y592273D01*
X252367Y556429D02*
X254907D01*
X253637Y555159D02*
Y557699D01*
X261980Y558000D02*
X264520D01*
X263250Y556730D02*
Y559270D01*
X261677Y615405D02*
X264217D01*
X262947Y614135D02*
Y616675D01*
X275100Y616688D02*
X277640D01*
X276370Y615418D02*
Y617958D01*
X290980Y598000D02*
X293520D01*
X292250Y596730D02*
Y599270D01*
X293773Y591078D02*
X296313D01*
X295043Y589808D02*
Y592348D01*
X293773Y585922D02*
X296313D01*
X295043Y584652D02*
Y587192D01*
X297605Y595554D02*
X300145D01*
X298875Y594284D02*
Y596824D01*
X297731Y581045D02*
X300271D01*
X299001Y579775D02*
Y582315D01*
X93730Y164000D02*
X96270D01*
X95000Y162730D02*
Y165270D01*
X168867Y130000D02*
X171408D01*
X170138Y128730D02*
Y131270D01*
X168867Y137279D02*
X171408D01*
X170138Y136009D02*
Y138549D01*
X131876Y185936D02*
X134416D01*
X133146Y184666D02*
Y187206D01*
X251980Y596000D02*
X254520D01*
X253250Y594730D02*
Y597270D01*
X261980Y585000D02*
X264520D01*
X263250Y583730D02*
Y586270D01*
X162730Y100000D02*
X165270D01*
X164000Y98730D02*
Y101270D01*
X162804Y114000D02*
X165344D01*
X164074Y112730D02*
Y115270D01*
X156730Y110000D02*
X159270D01*
X158000Y108730D02*
Y111270D01*
X156730Y104844D02*
X159270D01*
X158000Y103574D02*
Y106114D01*
X136730Y106364D02*
X139270D01*
X138000Y105094D02*
Y107634D01*
X120730Y107000D02*
X123270D01*
X122000Y105730D02*
Y108270D01*
X131808Y110000D02*
X134348D01*
X133078Y108730D02*
Y111270D01*
X126652Y110000D02*
X129192D01*
X127922Y108730D02*
Y111270D01*
X277729Y460996D02*
X280269D01*
X278999Y459726D02*
Y462266D01*
X277729Y476001D02*
X280269D01*
X278999Y474731D02*
Y477271D01*
X277979Y445992D02*
X280519D01*
X279249Y444722D02*
Y447262D01*
X277979Y491004D02*
X280519D01*
X279249Y489734D02*
Y492274D01*
X175730Y394995D02*
X178270D01*
X177000Y393725D02*
Y396265D01*
X175730Y410000D02*
X178270D01*
X177000Y408730D02*
Y411270D01*
X175980Y379991D02*
X178520D01*
X177250Y378721D02*
Y381261D01*
X175980Y425003D02*
X178520D01*
X177250Y423732D02*
Y426273D01*
X232980Y491004D02*
X235520D01*
X234250Y489734D02*
Y492274D01*
X232980Y445992D02*
X235520D01*
X234250Y444722D02*
Y447262D01*
X232730Y476001D02*
X235270D01*
X234000Y474731D02*
Y477271D01*
X232730Y460996D02*
X235270D01*
X234000Y459726D02*
Y462266D01*
X247730Y460996D02*
X250270D01*
X249000Y459726D02*
Y462266D01*
X247730Y476001D02*
X250270D01*
X249000Y474731D02*
Y477271D01*
X247980Y491004D02*
X250520D01*
X249250Y489734D02*
Y492274D01*
X262730Y460996D02*
X265270D01*
X264000Y459726D02*
Y462266D01*
X262730Y476001D02*
X265270D01*
X264000Y474731D02*
Y477271D01*
X262980Y491004D02*
X265520D01*
X264250Y489734D02*
Y492274D01*
X160980Y425003D02*
X163520D01*
X162250Y423732D02*
Y426273D01*
X160980Y379991D02*
X163520D01*
X162250Y378721D02*
Y381261D01*
X160730Y410000D02*
X163270D01*
X162000Y408730D02*
Y411270D01*
X160730Y394995D02*
X163270D01*
X162000Y393725D02*
Y396265D01*
X145980Y425003D02*
X148520D01*
X147250Y423732D02*
Y426273D01*
X145980Y379991D02*
X148520D01*
X147250Y378721D02*
Y381261D01*
X145730Y410000D02*
X148270D01*
X147000Y408730D02*
Y411270D01*
X145730Y394995D02*
X148270D01*
X147000Y393725D02*
Y396265D01*
X130730Y394995D02*
X133270D01*
X132000Y393725D02*
Y396265D01*
X130980Y379991D02*
X133520D01*
X132250Y378721D02*
Y381261D01*
X5979Y220583D02*
X8519D01*
X7249Y219313D02*
Y221853D01*
X5786Y213767D02*
X8327D01*
X7056Y212497D02*
Y215037D01*
X41730Y195000D02*
X44270D01*
X43000Y193730D02*
Y196270D01*
X42730Y229000D02*
X45270D01*
X44000Y227730D02*
Y230270D01*
X42370Y205000D02*
X44910D01*
X43640Y203730D02*
Y206270D01*
X42730Y221000D02*
X45270D01*
X44000Y219730D02*
Y222270D01*
X42370Y213879D02*
X44910D01*
X43640Y212609D02*
Y215149D01*
X273005Y512601D02*
X275545D01*
X274275Y511330D02*
Y513871D01*
X253005Y512601D02*
X255545D01*
X254275Y511330D02*
Y513871D01*
X224296Y512740D02*
X226836D01*
X225566Y511470D02*
Y514010D01*
X263003Y512601D02*
X265543D01*
X264273Y511330D02*
Y513871D01*
X257978Y517366D02*
X260518D01*
X259247Y516096D02*
Y518636D01*
X283003Y512601D02*
X285543D01*
X284273Y511330D02*
Y513871D01*
X277978Y517366D02*
X280518D01*
X279247Y516096D02*
Y518636D01*
X206612Y470998D02*
X209152D01*
X207882Y469728D02*
Y472267D01*
X211378Y476023D02*
X213918D01*
X212648Y474753D02*
Y477293D01*
X206612Y460995D02*
X209152D01*
X207882Y459725D02*
Y462265D01*
X211378Y466021D02*
X213918D01*
X212648Y464751D02*
Y467291D01*
X211378Y456018D02*
X213918D01*
X212648Y454748D02*
Y457288D01*
X237981Y419630D02*
X240521D01*
X239251Y418360D02*
Y420900D01*
X242955Y424396D02*
X245495D01*
X244225Y423126D02*
Y425666D01*
X299583Y470975D02*
X302122D01*
X300853Y469705D02*
Y472245D01*
X304348Y445994D02*
X306888D01*
X305618Y444724D02*
Y447264D01*
X299583Y440968D02*
X302122D01*
X300853Y439698D02*
Y442238D01*
X104612Y394994D02*
X107152D01*
X105882Y393724D02*
Y396264D01*
X109378Y390017D02*
X111918D01*
X110648Y388747D02*
Y391287D01*
X135955Y358394D02*
X138495D01*
X137225Y357124D02*
Y359664D01*
X175955Y358394D02*
X178495D01*
X177225Y357124D02*
Y359664D01*
X165953Y358394D02*
X168493D01*
X167223Y357124D02*
Y359664D01*
X170979Y353629D02*
X173519D01*
X172249Y352359D02*
Y354899D01*
X202348Y420003D02*
X204888D01*
X203618Y418732D02*
Y421273D01*
X202348Y430005D02*
X204888D01*
X203618Y428735D02*
Y431275D01*
X197582Y424979D02*
X200123D01*
X198853Y423709D02*
Y426249D01*
X181005Y446599D02*
X183545D01*
X182275Y445329D02*
Y447869D01*
X171005Y446599D02*
X173545D01*
X172275Y445329D02*
Y447869D01*
X161005Y446599D02*
X163545D01*
X162275Y445329D02*
Y447869D01*
X165979Y451365D02*
X168519D01*
X167249Y450095D02*
Y452635D01*
X155979Y451365D02*
X158519D01*
X157249Y450095D02*
Y452635D01*
X151005Y446599D02*
X153545D01*
X152275Y445329D02*
Y447869D01*
X141132Y446587D02*
X143672D01*
X142402Y445317D02*
Y447857D01*
X120730Y138000D02*
X123270D01*
X122000Y136730D02*
Y139270D01*
X120730Y149000D02*
X123270D01*
X122000Y147730D02*
Y150270D01*
X120730Y160000D02*
X123270D01*
X122000Y158730D02*
Y161270D01*
X131730Y138000D02*
X134270D01*
X133000Y136730D02*
Y139270D01*
X131730Y149000D02*
X134270D01*
X133000Y147730D02*
Y150270D01*
X131730Y160000D02*
X134270D01*
X133000Y158730D02*
Y161270D01*
X142730Y138000D02*
X145270D01*
X144000Y136730D02*
Y139270D01*
X142730Y149000D02*
X145270D01*
X144000Y147730D02*
Y150270D01*
X142730Y160000D02*
X145270D01*
X144000Y158730D02*
Y161270D01*
M02*
