G04*
G04 #@! TF.GenerationSoftware,Altium Limited,Altium Designer,24.9.1 (31)*
G04*
G04 Layer_Physical_Order=10*
G04 Layer_Color=16711680*
%FSLAX44Y44*%
%MOMM*%
G71*
G04*
G04 #@! TF.SameCoordinates,C615B3E7-4A0B-44CC-A6BC-150B9DE6E2D7*
G04*
G04*
G04 #@! TF.FilePolarity,Positive*
G04*
G01*
G75*
%ADD12C,0.1524*%
%ADD13C,0.2540*%
%ADD22R,0.6500X0.6000*%
%ADD23R,0.4000X0.5000*%
%ADD24R,0.5500X0.6000*%
%ADD25R,0.5121X0.5811*%
%ADD27R,0.6000X0.5500*%
%ADD29R,0.6725X0.7154*%
%ADD40R,0.5393X0.4725*%
%ADD41R,0.4725X0.5393*%
%ADD42R,0.5200X0.5200*%
%ADD44R,0.7200X0.7600*%
%ADD48R,0.5000X0.4000*%
%ADD49R,0.5200X0.5200*%
%ADD53R,0.6750X0.6000*%
%ADD54R,0.4500X0.6750*%
%ADD57R,0.6000X0.6500*%
%ADD59R,0.6000X0.6750*%
%ADD60R,0.5500X0.5500*%
%ADD61R,0.5811X0.5121*%
%ADD62R,0.6750X0.4500*%
%ADD71R,0.5153X0.4725*%
%ADD115C,2.3000*%
%ADD116C,1.5700*%
%ADD117R,1.5700X1.5700*%
%ADD118R,1.5700X1.5700*%
%ADD121C,0.1270*%
%ADD126C,0.3810*%
%ADD127C,0.3048*%
%ADD130C,1.4500*%
%ADD131C,0.4064*%
%ADD133R,0.9000X0.8000*%
%ADD134R,0.9500X0.7000*%
G04:AMPARAMS|DCode=135|XSize=0.3mm|YSize=0.49mm|CornerRadius=0.0495mm|HoleSize=0mm|Usage=FLASHONLY|Rotation=270.000|XOffset=0mm|YOffset=0mm|HoleType=Round|Shape=RoundedRectangle|*
%AMROUNDEDRECTD135*
21,1,0.3000,0.3910,0,0,270.0*
21,1,0.2010,0.4900,0,0,270.0*
1,1,0.0990,-0.1955,-0.1005*
1,1,0.0990,-0.1955,0.1005*
1,1,0.0990,0.1955,0.1005*
1,1,0.0990,0.1955,-0.1005*
%
%ADD135ROUNDEDRECTD135*%
G04:AMPARAMS|DCode=136|XSize=0.3mm|YSize=0.52mm|CornerRadius=0.0495mm|HoleSize=0mm|Usage=FLASHONLY|Rotation=270.000|XOffset=0mm|YOffset=0mm|HoleType=Round|Shape=RoundedRectangle|*
%AMROUNDEDRECTD136*
21,1,0.3000,0.4210,0,0,270.0*
21,1,0.2010,0.5200,0,0,270.0*
1,1,0.0990,-0.2105,-0.1005*
1,1,0.0990,-0.2105,0.1005*
1,1,0.0990,0.2105,0.1005*
1,1,0.0990,0.2105,-0.1005*
%
%ADD136ROUNDEDRECTD136*%
%ADD137R,0.7154X0.6725*%
%ADD138R,0.5500X0.5500*%
%ADD139R,0.4500X0.5000*%
%ADD140R,0.5000X0.5000*%
%ADD141R,0.5800X0.5400*%
%ADD142R,0.5500X0.5000*%
%ADD143R,0.6500X0.6500*%
%ADD144R,0.5500X0.4500*%
%ADD145R,0.7000X0.7500*%
%ADD146R,0.4500X0.4500*%
%ADD147R,0.5600X0.5200*%
%ADD148R,0.5000X0.5000*%
%ADD149R,0.4750X0.5000*%
%ADD150R,0.5000X0.4500*%
%ADD151R,0.4725X0.5153*%
%ADD152R,1.0000X1.2500*%
%ADD153R,1.0582X1.3061*%
%ADD154R,0.7581X0.8121*%
G36*
X307439Y668097D02*
X308976Y667460D01*
X310359Y666536D01*
X311536Y665359D01*
X312460Y663976D01*
X313097Y662439D01*
X313422Y660807D01*
X313422Y659975D01*
X313426Y560539D01*
X312410Y560231D01*
X312342Y560331D01*
X308968Y563706D01*
X308355Y564115D01*
X307631Y564259D01*
X298369D01*
X297645Y564115D01*
X297032Y563706D01*
X289663Y556337D01*
X289253Y555723D01*
X289109Y555000D01*
Y538400D01*
X289253Y537677D01*
X289663Y537063D01*
X297063Y529663D01*
X297677Y529253D01*
X298400Y529109D01*
X303217D01*
X309109Y523217D01*
Y517783D01*
X303030Y511704D01*
X302621Y511091D01*
X302477Y510367D01*
Y498145D01*
X301719Y497387D01*
X301243Y496238D01*
Y494995D01*
X301719Y493847D01*
X302598Y492968D01*
X302799Y492885D01*
X303351Y492000D01*
X303224Y491693D01*
X302876Y490852D01*
Y489609D01*
X303351Y488461D01*
X304010Y487802D01*
X304229Y487575D01*
X304079Y486545D01*
X303783Y486248D01*
X303631Y485883D01*
X302344D01*
X301620Y485739D01*
X301007Y485329D01*
X300568Y484891D01*
X297028D01*
Y487528D01*
X278972D01*
Y485860D01*
X278711Y484952D01*
X275749Y484562D01*
X272989Y483419D01*
X270620Y481601D01*
X270636Y481585D01*
X269244Y479771D01*
X268369Y477659D01*
X268071Y475392D01*
X268109D01*
Y473903D01*
X266871Y472952D01*
X265004Y472179D01*
X263000Y471915D01*
Y471890D01*
X231243D01*
Y471959D01*
X228085Y471543D01*
X225142Y470324D01*
X223018Y468694D01*
X222615Y468385D01*
X222615Y468385D01*
X222276Y468043D01*
X222273Y468040D01*
X222273Y468040D01*
X219628Y464817D01*
X217663Y461140D01*
X216540Y457440D01*
X215548Y457320D01*
X215485Y457332D01*
X215296Y457788D01*
X214417Y458667D01*
X213269Y459142D01*
X212026D01*
X211507Y458928D01*
X210730Y459705D01*
X211007Y460373D01*
Y461616D01*
X210705Y462344D01*
X211483Y463122D01*
X212026Y462897D01*
X213269D01*
X214417Y463372D01*
X215296Y464251D01*
X215772Y465399D01*
Y466642D01*
X215296Y467791D01*
X214417Y468669D01*
X213269Y469145D01*
X212026D01*
X211507Y468930D01*
X210730Y469708D01*
X211007Y470376D01*
Y471619D01*
X210705Y472347D01*
X211483Y473124D01*
X212026Y472899D01*
X213269D01*
X214417Y473375D01*
X215296Y474254D01*
X215772Y475402D01*
Y476645D01*
X215296Y477793D01*
X214417Y478672D01*
X213913Y478881D01*
X213933Y479972D01*
X214602Y480249D01*
X215622D01*
Y479622D01*
X224378D01*
Y488378D01*
X215622D01*
Y486361D01*
X213374D01*
X212204Y486128D01*
X211774Y485841D01*
X211174Y485592D01*
X210295Y484714D01*
X210148Y484357D01*
X209132Y484560D01*
Y488340D01*
X209158D01*
X209414Y490281D01*
X210163Y492091D01*
X211355Y493644D01*
X212203Y494051D01*
X212379Y494124D01*
X212426Y494114D01*
X215426D01*
Y494081D01*
X217536Y494359D01*
X219501Y495173D01*
X221189Y496468D01*
X221165Y496492D01*
X235508Y510835D01*
X235526Y510817D01*
X237129Y512048D01*
X238996Y512821D01*
X241000Y513085D01*
X241204Y512913D01*
X241488Y512242D01*
X241438Y511566D01*
X240029Y510157D01*
X239366Y509166D01*
X239134Y507996D01*
Y506755D01*
X237117D01*
Y497999D01*
X245873D01*
Y506755D01*
X245873Y506755D01*
X246185Y507642D01*
X246706Y508163D01*
X247706Y507862D01*
X247722Y507851D01*
Y493583D01*
X250027D01*
X250860Y493140D01*
Y482431D01*
X261140D01*
Y493140D01*
X261140D01*
X261278Y493583D01*
X261278Y493583D01*
X261278Y494099D01*
Y509639D01*
X261049D01*
X261004Y510006D01*
X261018Y510024D01*
X261968Y510488D01*
X262071Y510385D01*
X262722Y509639D01*
Y493583D01*
X276278D01*
Y498944D01*
X277860D01*
Y496860D01*
X288569D01*
Y507140D01*
X277860D01*
Y505056D01*
X276278D01*
Y509639D01*
X276278Y509639D01*
X276278D01*
X276278Y509639D01*
X276610Y510518D01*
X276923Y510831D01*
X277399Y511979D01*
Y513222D01*
X277185Y513739D01*
X277962Y514516D01*
X278626Y514242D01*
X279869D01*
X280597Y514543D01*
X281374Y513765D01*
X281149Y513222D01*
Y511979D01*
X281625Y510831D01*
X282504Y509952D01*
X283652Y509476D01*
X284895D01*
X286043Y509952D01*
X286922Y510831D01*
X287398Y511979D01*
Y513222D01*
X286922Y514370D01*
X286043Y515249D01*
X284895Y515725D01*
X283652D01*
X282924Y515423D01*
X282147Y516201D01*
X282372Y516744D01*
Y517987D01*
X281896Y519136D01*
X281017Y520014D01*
X280826Y520093D01*
X281028Y521110D01*
X297043D01*
Y521079D01*
X297497Y520989D01*
Y520897D01*
X297973Y519748D01*
X298851Y518870D01*
X300000Y518394D01*
X301243D01*
X302391Y518870D01*
X303270Y519748D01*
X303745Y520897D01*
Y522140D01*
X303270Y523288D01*
X302391Y524167D01*
X301243Y524642D01*
X300000D01*
X299465Y524421D01*
X298848Y524676D01*
X297043Y524914D01*
Y524891D01*
X264028D01*
Y527291D01*
X264870Y527402D01*
X267146Y528345D01*
X267379Y528249D01*
X268621D01*
X269770Y528725D01*
X270649Y529603D01*
X271124Y530752D01*
Y531995D01*
X270649Y533143D01*
X269770Y534022D01*
X268621Y534497D01*
X267379D01*
X266230Y534022D01*
X265351Y533143D01*
X265044Y532401D01*
X264028Y532603D01*
Y533528D01*
X245972D01*
Y530891D01*
X242528D01*
Y533028D01*
X233472D01*
Y530891D01*
X231028D01*
Y533528D01*
X212972D01*
Y530891D01*
X209528D01*
Y534028D01*
X200472D01*
Y524472D01*
Y515972D01*
X206336D01*
X207014Y514956D01*
X206876Y514621D01*
Y513379D01*
X207351Y512230D01*
X208230Y511351D01*
X209379Y510876D01*
X210621D01*
X211770Y511351D01*
X212649Y512230D01*
X213124Y513379D01*
Y514621D01*
X212649Y515770D01*
X211891Y516528D01*
Y520750D01*
X211747Y521474D01*
X211337Y522087D01*
X210723Y522497D01*
X210000Y522640D01*
X209528D01*
Y527109D01*
X212972D01*
Y524472D01*
X231028D01*
Y527109D01*
X233472D01*
Y523972D01*
X242528D01*
Y527109D01*
X245972D01*
Y524472D01*
X250649D01*
X250794Y523498D01*
X247506Y521741D01*
X244624Y519376D01*
X244663Y519337D01*
X243078Y517751D01*
X243077Y517751D01*
X243053Y517776D01*
X242111Y517146D01*
X241028Y516931D01*
X241000Y516954D01*
Y516954D01*
X237995Y516558D01*
X235195Y515398D01*
X232790Y513553D01*
X232835Y513508D01*
X218492Y499165D01*
X218486Y499170D01*
X217082Y498232D01*
X215426Y497903D01*
Y497896D01*
X212426D01*
Y497963D01*
X210364Y497552D01*
X208616Y496384D01*
X208620Y496380D01*
X206813Y494025D01*
X205677Y491283D01*
X205290Y488340D01*
X205351D01*
Y481988D01*
X205325D01*
X205573Y480099D01*
X206303Y478339D01*
X207459Y476832D01*
X207462Y476827D01*
X207481Y476846D01*
X208458Y475868D01*
X208458Y475868D01*
X208403Y475812D01*
X209076Y475362D01*
X209122Y474965D01*
X208949Y474730D01*
X208197Y474122D01*
X207261D01*
X206113Y473646D01*
X205234Y472767D01*
X204758Y471619D01*
Y470376D01*
X205234Y469228D01*
X206113Y468349D01*
X207261Y467873D01*
X208504D01*
X209023Y468088D01*
X209800Y467310D01*
X209523Y466642D01*
Y465399D01*
X209825Y464672D01*
X209047Y463894D01*
X208504Y464119D01*
X207261D01*
X206113Y463643D01*
X205234Y462765D01*
X204758Y461616D01*
Y460373D01*
X205234Y459225D01*
X206113Y458346D01*
X207261Y457871D01*
X208504D01*
X209023Y458086D01*
X209800Y457308D01*
X209523Y456640D01*
Y455397D01*
X209825Y454669D01*
X209047Y453892D01*
X208504Y454117D01*
X207261D01*
X206113Y453641D01*
X205234Y452762D01*
X204758Y451614D01*
Y450371D01*
X205234Y449223D01*
X206113Y448344D01*
X207261Y447868D01*
X208504D01*
X209652Y448344D01*
X210531Y449223D01*
X211007Y450371D01*
Y451614D01*
X210705Y452342D01*
X211483Y453119D01*
X212026Y452894D01*
X213269D01*
X214417Y453370D01*
X215129Y454081D01*
X215971Y453831D01*
X216116Y453741D01*
X216043Y453000D01*
X216110D01*
Y450267D01*
X215093Y449588D01*
X214735Y449737D01*
X213492D01*
X212344Y449261D01*
X211465Y448382D01*
X210990Y447234D01*
Y445991D01*
X211465Y444843D01*
X212187Y444121D01*
X212180Y443359D01*
X212076Y442975D01*
X210367Y442267D01*
X209894Y442205D01*
X209165Y442507D01*
X209161Y442512D01*
X204124Y447549D01*
Y448621D01*
X203649Y449770D01*
X202770Y450649D01*
X201621Y451124D01*
X200379D01*
X199230Y450649D01*
X198351Y449770D01*
X197876Y448621D01*
Y447379D01*
X198351Y446230D01*
X199230Y445351D01*
X200379Y444876D01*
X201451D01*
X206488Y439839D01*
X206488Y439839D01*
X206444Y439795D01*
X208093Y438694D01*
X209456Y438423D01*
X209473Y438419D01*
X209473Y438419D01*
X210037Y438307D01*
X210420Y438374D01*
Y438374D01*
X210957Y438537D01*
X210958Y438537D01*
X210986Y438546D01*
X213290Y439245D01*
X215994Y440690D01*
X216906Y441438D01*
X217824Y441004D01*
Y431306D01*
X216808Y431104D01*
X216663Y431455D01*
X215784Y432334D01*
X214636Y432810D01*
X213393D01*
X212244Y432334D01*
X211366Y431455D01*
X210890Y430307D01*
Y429064D01*
X211366Y427916D01*
X212244Y427037D01*
X213393Y426562D01*
X214636D01*
X215784Y427037D01*
X216663Y427916D01*
X216921Y428541D01*
X217964Y428403D01*
X218081Y427514D01*
X218712Y425991D01*
X218559Y425621D01*
Y424379D01*
X219035Y423230D01*
X219914Y422351D01*
X221062Y421876D01*
X222305D01*
X223453Y422351D01*
X224076Y422974D01*
X225040Y422906D01*
X225243Y422813D01*
X225484Y422230D01*
X226363Y421351D01*
X226410Y421332D01*
X226643Y421099D01*
Y418705D01*
X225321D01*
Y409949D01*
X234077D01*
Y418705D01*
X232755D01*
Y422365D01*
X232522Y423534D01*
X231860Y424526D01*
X231140Y425246D01*
Y429916D01*
X230907Y431086D01*
X230245Y432077D01*
X229278Y433044D01*
Y436778D01*
X221605D01*
Y442417D01*
X222246Y443252D01*
X223493Y446263D01*
X223919Y449494D01*
X223919D01*
X223856Y449562D01*
X224206Y453111D01*
X225261Y456589D01*
X226974Y459795D01*
X229280Y462605D01*
X230068Y463157D01*
X230937Y463738D01*
X232818Y464112D01*
X232828Y464109D01*
X277598D01*
Y464056D01*
X278602Y464188D01*
X278851Y463970D01*
Y463970D01*
X296907D01*
X297718Y463476D01*
X297868Y463114D01*
X298747Y462235D01*
X299895Y461759D01*
X301138D01*
X302287Y462235D01*
X303165Y463114D01*
X303641Y464262D01*
Y465505D01*
X303165Y466653D01*
X302601Y467218D01*
X302620Y468218D01*
X302721Y468425D01*
X303501Y469206D01*
X303977Y470354D01*
Y471597D01*
X303501Y472745D01*
X302622Y473624D01*
X301474Y474100D01*
X300231D01*
X299083Y473624D01*
X298204Y472745D01*
X297923Y472066D01*
X296907Y472268D01*
Y473026D01*
X278851D01*
Y468090D01*
X277598Y467925D01*
Y467891D01*
X267328D01*
X267126Y468907D01*
X268805Y469602D01*
X271210Y471447D01*
X271165Y471492D01*
X271337Y471663D01*
X271747Y472276D01*
X271891Y473000D01*
Y475392D01*
X271888Y475403D01*
X272262Y477283D01*
X272796Y478081D01*
X273355Y478865D01*
X274924Y480069D01*
X276750Y480826D01*
X277956Y480984D01*
X278972Y480151D01*
Y478472D01*
X297028D01*
Y481110D01*
X301351D01*
X302075Y481253D01*
X302688Y481663D01*
X303127Y482102D01*
X304389D01*
X304662Y481830D01*
X305016Y481683D01*
X305265Y480494D01*
X304789Y479346D01*
Y478103D01*
X305265Y476955D01*
X305632Y476588D01*
X306006Y475857D01*
X305632Y475260D01*
X305203Y474832D01*
X304727Y473683D01*
Y472440D01*
X305203Y471292D01*
X306082Y470413D01*
X307230Y469938D01*
X308473D01*
X309621Y470413D01*
X310500Y471292D01*
X310976Y472440D01*
Y473683D01*
X310500Y474832D01*
X310133Y475199D01*
X309758Y475929D01*
X310133Y476526D01*
X310562Y476955D01*
X311037Y478103D01*
Y479346D01*
X310562Y480494D01*
X309683Y481373D01*
X309328Y481520D01*
X309080Y482709D01*
X309555Y483857D01*
Y485100D01*
X309080Y486248D01*
X308422Y486906D01*
X308202Y487134D01*
X308352Y488164D01*
X308649Y488461D01*
X309124Y489609D01*
Y490852D01*
X308649Y492000D01*
X307770Y492879D01*
X307568Y492962D01*
X307016Y493847D01*
X307143Y494154D01*
X307491Y494995D01*
Y496238D01*
X307016Y497387D01*
X306258Y498145D01*
Y509584D01*
X312337Y515663D01*
X312411Y515775D01*
X313427Y515467D01*
X313438Y252407D01*
X312422Y251986D01*
X312091Y252317D01*
X310942Y252792D01*
X309699D01*
X308551Y252317D01*
X307793Y251559D01*
X305778D01*
Y254028D01*
X296722D01*
Y244136D01*
X295906Y243530D01*
X294224Y244040D01*
X291051Y245737D01*
X288269Y248020D01*
X288267Y248018D01*
X281280Y255006D01*
X280571Y255727D01*
X280571Y255734D01*
X280571Y255734D01*
X280569Y255737D01*
X280569D01*
X278590Y258148D01*
X277117Y260903D01*
X276211Y263892D01*
X276028Y265745D01*
X276124Y266228D01*
Y285400D01*
X276185D01*
X275800Y288321D01*
X274673Y291042D01*
X272879Y293379D01*
X272885Y293385D01*
X270358Y295324D01*
X268500Y296094D01*
X268702Y297110D01*
X269500D01*
X270224Y297253D01*
X270837Y297663D01*
X272396Y299222D01*
X279778D01*
Y308778D01*
X269722D01*
Y301896D01*
X268717Y300891D01*
X255958D01*
X254978Y300977D01*
Y309655D01*
X245611D01*
Y308372D01*
X243966D01*
Y312029D01*
X234410D01*
Y306044D01*
X228839Y300473D01*
X228177Y299482D01*
X227944Y298312D01*
Y279266D01*
X226671Y277993D01*
X220506D01*
X219336Y277760D01*
X218345Y277098D01*
X213754Y272507D01*
X212951D01*
X211782Y272275D01*
X210791Y271612D01*
X208331Y269153D01*
X204597D01*
Y258847D01*
X203646Y258691D01*
X202610D01*
Y250014D01*
X207310D01*
X209430Y247894D01*
X209436Y247890D01*
Y246668D01*
X209118Y246456D01*
X208585Y245923D01*
X203726D01*
Y235617D01*
X211782D01*
Y240476D01*
X212545Y241239D01*
X214331D01*
X214379Y241220D01*
X215621D01*
X215786Y241288D01*
X224344D01*
X225513Y241521D01*
X226505Y242183D01*
X230266Y245944D01*
X233734D01*
X234327Y245352D01*
X235318Y244689D01*
X236488Y244457D01*
X237222D01*
Y240889D01*
X246778D01*
Y242811D01*
X248403D01*
Y241353D01*
X257769D01*
Y250030D01*
X248403D01*
Y248923D01*
X246778D01*
Y251196D01*
X237222D01*
X236402Y251668D01*
X236169Y251823D01*
X235343Y251988D01*
X235154Y252189D01*
X234856Y252752D01*
X234790Y253072D01*
X235124Y253879D01*
Y255121D01*
X234985Y255457D01*
X235166Y255728D01*
X236241Y256177D01*
X237410Y255944D01*
X241347D01*
Y253847D01*
X249403D01*
Y264153D01*
X248743D01*
Y266847D01*
X250778D01*
Y277153D01*
X241222D01*
Y266847D01*
X242632D01*
Y264153D01*
X241347D01*
Y262056D01*
X238494D01*
X238050Y262353D01*
X236881Y262585D01*
X227997D01*
X226828Y262353D01*
X225836Y261690D01*
X217257Y253111D01*
X212857D01*
X211977Y253991D01*
Y256668D01*
X212993Y257089D01*
X213230Y256851D01*
X214379Y256376D01*
X215621D01*
X216770Y256851D01*
X217649Y257730D01*
X218124Y258879D01*
Y260121D01*
X218016Y260383D01*
X218124Y260647D01*
X218727Y261321D01*
X219642D01*
X220791Y261797D01*
X221609Y262615D01*
X224926Y262942D01*
X229494Y264328D01*
X233704Y266578D01*
X237394Y269606D01*
X237364Y269636D01*
X238756Y271450D01*
X239631Y273562D01*
X239929Y275828D01*
X239890D01*
Y283000D01*
X239894D01*
X240206Y285369D01*
X241222Y285303D01*
Y278847D01*
X250778D01*
Y281223D01*
X252617D01*
Y280219D01*
X254135D01*
Y278153D01*
X253053D01*
Y267847D01*
X261109D01*
Y278153D01*
X260246D01*
Y280219D01*
X261984D01*
Y288896D01*
X261325D01*
X260424Y289379D01*
Y290621D01*
X259949Y291770D01*
X259625Y292094D01*
X260046Y293109D01*
X264257D01*
Y293090D01*
X266414Y292806D01*
X268424Y291974D01*
X270143Y290654D01*
X270144Y290644D01*
X270144Y290644D01*
X270144Y290644D01*
X271322Y289108D01*
X272063Y287319D01*
X272316Y285400D01*
X272343D01*
Y267858D01*
X272253Y267724D01*
X272110Y267000D01*
X272050D01*
X272431Y263140D01*
X273557Y259428D01*
X275385Y256007D01*
X277208Y253785D01*
X277846Y253009D01*
X277887Y253051D01*
X285593Y245345D01*
X285544Y245295D01*
X288909Y242532D01*
X292750Y240480D01*
X296722Y239275D01*
Y235972D01*
X305778D01*
Y247778D01*
X307793D01*
X308551Y247019D01*
X309699Y246544D01*
X310942D01*
X312091Y247019D01*
X312422Y247351D01*
X313438Y246930D01*
X313440Y187672D01*
X312424Y186993D01*
X312108Y187124D01*
X310865D01*
X309717Y186649D01*
X308959Y185891D01*
X303778D01*
Y190222D01*
Y200278D01*
X302056D01*
Y202836D01*
X301823Y204006D01*
X301161Y204997D01*
X298328Y207830D01*
Y213064D01*
X296356D01*
Y215034D01*
X301353Y220031D01*
X302015Y221023D01*
X302248Y222192D01*
Y224096D01*
X302365Y224379D01*
Y225621D01*
X301889Y226770D01*
X301010Y227649D01*
X299862Y228124D01*
X298619D01*
X297471Y227649D01*
X296592Y226770D01*
X296117Y225621D01*
Y224379D01*
X296136Y224331D01*
Y223458D01*
X291139Y218461D01*
X290477Y217470D01*
X290244Y216300D01*
Y213064D01*
X279772D01*
Y210177D01*
X272928D01*
Y217685D01*
X273768Y220453D01*
X274039Y223205D01*
X274799Y223965D01*
X275274Y225113D01*
Y226356D01*
X274799Y227504D01*
X273920Y228383D01*
X272771Y228859D01*
X271529D01*
X270380Y228383D01*
X269501Y227504D01*
X269026Y226356D01*
Y225113D01*
X269501Y223965D01*
X270222Y223244D01*
X269846Y220390D01*
X268930Y218178D01*
X261290D01*
Y223018D01*
X262387Y223472D01*
X263266Y224351D01*
X263742Y225499D01*
Y226742D01*
X263266Y227890D01*
X262387Y228769D01*
X261239Y229245D01*
X259996D01*
X258848Y228769D01*
X257969Y227890D01*
X257864Y227639D01*
X256675Y227421D01*
X256363Y227753D01*
Y229685D01*
X257990D01*
Y238362D01*
X248623D01*
Y237089D01*
X246778D01*
Y239195D01*
X237222D01*
Y228890D01*
X243844D01*
X244270Y227873D01*
X243876Y226922D01*
Y225679D01*
X243899Y225623D01*
X243334Y224778D01*
X235222D01*
Y223336D01*
X233153D01*
Y224653D01*
X227169D01*
X225264Y226558D01*
X224273Y227220D01*
X223103Y227453D01*
X220266D01*
X218978Y228741D01*
X217987Y229403D01*
X217888Y229423D01*
X217179Y230600D01*
X217246Y230827D01*
X218648Y231407D01*
X218855Y231321D01*
X220098D01*
X221246Y231797D01*
X222125Y232676D01*
X222601Y233824D01*
Y235067D01*
X222125Y236215D01*
X221246Y237094D01*
X220098Y237570D01*
X218855D01*
X217707Y237094D01*
X216828Y236215D01*
X216353Y235067D01*
Y234548D01*
X216058Y234351D01*
X213658Y233874D01*
X213573Y233890D01*
X191828D01*
X191818Y233888D01*
X189937Y234262D01*
X188343Y235328D01*
X188337Y235337D01*
X188328Y235343D01*
X187262Y236937D01*
X186888Y238818D01*
X186891Y238828D01*
Y241000D01*
X186912D01*
X186682Y242745D01*
X186009Y244370D01*
X185043Y245629D01*
X184938Y245766D01*
X184364Y246364D01*
X184364D01*
X184234Y246464D01*
X182551Y247756D01*
X180439Y248631D01*
X178172Y248929D01*
Y248890D01*
X176028D01*
Y251528D01*
X158825D01*
X157972Y251528D01*
X157891Y252510D01*
Y254500D01*
X157922D01*
X157651Y256560D01*
X156856Y258479D01*
X156005Y259587D01*
X155983Y259616D01*
X155982Y259619D01*
X155592Y260127D01*
X155384Y260384D01*
X155384Y260384D01*
X153641Y261549D01*
X151586Y261957D01*
Y261891D01*
X137864D01*
X137789Y261876D01*
X134370Y262326D01*
X131115Y263674D01*
X130124Y264434D01*
Y265121D01*
X129649Y266270D01*
X128770Y267149D01*
X127621Y267624D01*
X126661D01*
X126084Y268244D01*
X125942Y268543D01*
X126103Y268933D01*
Y270176D01*
X125628Y271324D01*
X124749Y272203D01*
X123601Y272679D01*
X122358D01*
X121209Y272203D01*
X120331Y271324D01*
X119855Y270176D01*
Y268933D01*
X120331Y267785D01*
X121209Y266906D01*
X122358Y266430D01*
X123318D01*
X123896Y265810D01*
X124037Y265511D01*
X123876Y265121D01*
Y263878D01*
X123984Y263617D01*
X123876Y263353D01*
X123273Y262679D01*
X122358D01*
X121209Y262203D01*
X120331Y261324D01*
X119855Y260176D01*
Y258933D01*
X120331Y257785D01*
X121209Y256906D01*
X122358Y256430D01*
X123601D01*
X124749Y256906D01*
X125628Y257785D01*
X126103Y258933D01*
Y260176D01*
X125995Y260437D01*
X126103Y260702D01*
X126706Y261376D01*
X127621D01*
X127718Y261416D01*
X128252Y260978D01*
X131243Y259380D01*
X134489Y258395D01*
X134897Y258355D01*
X134847Y257339D01*
X129661D01*
Y252067D01*
X129584Y251990D01*
X124962D01*
X124749Y252203D01*
X123601Y252679D01*
X122358D01*
X122193Y252610D01*
X106711D01*
X102371Y256950D01*
Y258713D01*
X102139Y259883D01*
X101476Y260874D01*
X97889Y264461D01*
Y269719D01*
X90926D01*
X90568Y269790D01*
X86361D01*
Y271418D01*
X77684D01*
Y263268D01*
X77278Y262420D01*
X76821Y262420D01*
X71138D01*
X70749Y263359D01*
X71722Y264332D01*
X71770Y264351D01*
X72649Y265230D01*
X73124Y266379D01*
Y267621D01*
X72649Y268770D01*
X71770Y269649D01*
X70621Y270124D01*
X69379D01*
X68230Y269649D01*
X67351Y268770D01*
X67235Y268487D01*
X63934Y265187D01*
X63272Y264196D01*
X63039Y263026D01*
Y262420D01*
X60778D01*
Y276278D01*
X53896D01*
X52944Y277230D01*
X52330Y277640D01*
X51607Y277784D01*
X49890D01*
X48891Y278783D01*
Y282000D01*
X48747Y282724D01*
X48337Y283337D01*
X45278Y286396D01*
Y292278D01*
X44056D01*
Y293722D01*
X46569D01*
Y302278D01*
X45056D01*
Y303931D01*
X49069D01*
Y309183D01*
X56931D01*
Y303931D01*
X66230D01*
X66619Y302992D01*
X60663Y297037D01*
X60253Y296423D01*
X60110Y295700D01*
Y292878D01*
X60253Y292154D01*
X60663Y291541D01*
X64395Y287809D01*
X65009Y287399D01*
X65732Y287255D01*
X72710D01*
X73222Y286913D01*
Y279222D01*
X83278D01*
Y288778D01*
X83278D01*
Y288922D01*
X84251Y289325D01*
X85847Y287729D01*
Y282347D01*
X96153D01*
Y283632D01*
X98847D01*
Y282222D01*
X100944D01*
Y280259D01*
X101177Y279090D01*
X101839Y278099D01*
X103235Y276703D01*
X103351Y276421D01*
X104230Y275542D01*
X105379Y275067D01*
X106621D01*
X107770Y275542D01*
X108649Y276421D01*
X109124Y277569D01*
Y278812D01*
X108649Y279960D01*
X107770Y280839D01*
X107707Y281243D01*
X108461Y282222D01*
X109153D01*
Y291778D01*
X105693D01*
Y293520D01*
X106976D01*
Y296313D01*
X107107D01*
X107831Y296457D01*
X108444Y296866D01*
X109337Y297759D01*
X109609Y298166D01*
X110625Y297975D01*
Y293429D01*
X112944D01*
Y291778D01*
X110847D01*
Y282222D01*
X120128D01*
X120876Y281371D01*
X120876Y281321D01*
Y280129D01*
X121351Y278980D01*
X122230Y278102D01*
X123379Y277626D01*
X124621D01*
X125770Y278102D01*
X126649Y278980D01*
X127124Y280129D01*
Y281199D01*
X127317Y281559D01*
X127908Y282135D01*
X133382D01*
Y281163D01*
X143688D01*
Y289219D01*
X141870D01*
Y289346D01*
X141637Y290516D01*
X140975Y291507D01*
X137877Y294605D01*
X137809Y294770D01*
X136930Y295649D01*
X135782Y296124D01*
X134539D01*
X133390Y295649D01*
X132512Y294770D01*
X132036Y293621D01*
Y292379D01*
X132512Y291230D01*
X133390Y290351D01*
X133397Y290206D01*
X133382Y289219D01*
Y289219D01*
X133276Y288247D01*
X128890D01*
X127977Y289161D01*
X126985Y289823D01*
X125816Y290056D01*
X121153D01*
Y291778D01*
X119056D01*
Y293429D01*
X119302D01*
Y302795D01*
X110907D01*
X110625Y302795D01*
X109890Y303476D01*
Y313000D01*
X109747Y313724D01*
X109337Y314337D01*
X107337Y316337D01*
X106723Y316747D01*
X106000Y316891D01*
X105278D01*
Y319778D01*
X87124D01*
Y320621D01*
X86649Y321770D01*
X85770Y322649D01*
X84621Y323124D01*
X83811D01*
X83303Y323719D01*
X83627Y324722D01*
X85778D01*
Y334778D01*
X76222D01*
Y324722D01*
X79110D01*
Y323106D01*
X79253Y322383D01*
X79663Y321770D01*
X80876Y320557D01*
Y319379D01*
X81351Y318230D01*
X82230Y317351D01*
X83379Y316876D01*
X84451D01*
X85716Y315610D01*
X86330Y315200D01*
X86722Y315122D01*
Y311181D01*
X86595Y311039D01*
X85706Y310586D01*
X84910Y310915D01*
X83667D01*
X82519Y310440D01*
X81761Y309682D01*
X74091D01*
X73368Y309538D01*
X72755Y309128D01*
X72008Y308381D01*
X71069Y308770D01*
Y319452D01*
Y336069D01*
X66210D01*
Y344214D01*
X66278Y344379D01*
Y345621D01*
X65803Y346770D01*
X64924Y347649D01*
X63776Y348124D01*
X62533D01*
X61384Y347649D01*
X60506Y346770D01*
X60030Y345621D01*
Y344379D01*
X60098Y344214D01*
Y336069D01*
X56931D01*
Y319452D01*
Y315295D01*
X49069D01*
Y319452D01*
Y331747D01*
X56675Y339353D01*
X57337Y340345D01*
X57570Y341514D01*
Y343152D01*
X57649Y343230D01*
X58124Y344379D01*
Y345621D01*
X57649Y346770D01*
X56770Y347649D01*
X55621Y348124D01*
X54379D01*
X53230Y347649D01*
X52351Y346770D01*
X52245Y346513D01*
X51691Y345684D01*
X51458Y344514D01*
Y342780D01*
X44747Y336069D01*
X34931D01*
Y319452D01*
Y303931D01*
X38944D01*
Y302278D01*
X38013D01*
Y297056D01*
X37944Y296709D01*
Y292278D01*
X36722D01*
Y290044D01*
X32395Y285717D01*
X32230Y285649D01*
X31351Y284770D01*
X30876Y283621D01*
Y282379D01*
X31351Y281230D01*
X32230Y280351D01*
X33379Y279876D01*
X34621D01*
X35770Y280351D01*
X36649Y281230D01*
X36717Y281395D01*
X38365Y283043D01*
X39226Y282468D01*
X38876Y281621D01*
Y280379D01*
X39351Y279230D01*
X40230Y278351D01*
X40919Y278066D01*
Y263778D01*
X36532D01*
Y252222D01*
X49088D01*
Y263778D01*
X44700D01*
Y276275D01*
X45489Y276593D01*
X45717Y276610D01*
X47770Y274557D01*
X48383Y274147D01*
X49107Y274003D01*
X50824D01*
X51222Y273604D01*
Y266222D01*
Y257722D01*
X54239D01*
Y255729D01*
X48271Y249761D01*
X29088D01*
Y254278D01*
X16532D01*
Y246028D01*
X7593D01*
Y235972D01*
X8335D01*
X9014Y234956D01*
X8876Y234621D01*
Y233379D01*
X9351Y232230D01*
X10230Y231351D01*
X11379Y230876D01*
X12621D01*
X13770Y231351D01*
X14649Y232230D01*
X15124Y233379D01*
Y234621D01*
X14986Y234956D01*
X15664Y235972D01*
X17649Y235972D01*
X17876Y235378D01*
X18351Y234230D01*
X19230Y233351D01*
X20379Y232876D01*
X21621D01*
X22770Y233351D01*
X23649Y234230D01*
X24124Y235379D01*
Y236621D01*
X23973Y236987D01*
X24417Y237431D01*
X24827Y238044D01*
X24971Y238768D01*
Y242722D01*
X28536D01*
X29144Y242596D01*
X29472Y241865D01*
Y234544D01*
X29472Y234472D01*
Y233528D01*
X29472Y233456D01*
Y228146D01*
X28151Y226825D01*
X27741Y226211D01*
X27597Y225488D01*
Y224778D01*
X21972D01*
Y222473D01*
X9777D01*
X9019Y223231D01*
X7871Y223707D01*
X6628D01*
X5480Y223231D01*
X5094Y222846D01*
X4078Y223267D01*
Y306806D01*
X5094Y307008D01*
X5361Y306364D01*
X6240Y305485D01*
X7388Y305009D01*
X8631D01*
X9779Y305485D01*
X10538Y306243D01*
X11722D01*
Y302222D01*
X21778D01*
Y311778D01*
X11722D01*
Y310024D01*
X10538D01*
X9779Y310782D01*
X8631Y311257D01*
X7388D01*
X6240Y310782D01*
X5361Y309903D01*
X5094Y309259D01*
X4078Y309461D01*
Y318649D01*
X5094Y318851D01*
X5351Y318230D01*
X6230Y317351D01*
X7379Y316876D01*
X8621D01*
X9770Y317351D01*
X10528Y318109D01*
X11954D01*
Y315422D01*
X30510D01*
Y324978D01*
X27373D01*
Y328209D01*
X29919D01*
Y337765D01*
X29714D01*
Y340864D01*
X30472Y341623D01*
X30948Y342771D01*
Y344014D01*
X30472Y345162D01*
X29594Y346041D01*
X28445Y346516D01*
X27202D01*
X26054Y346041D01*
X25175Y345162D01*
X25034Y344821D01*
X23836Y344583D01*
X23770Y344649D01*
X22621Y345124D01*
X21379D01*
X20230Y344649D01*
X19351Y343770D01*
X18876Y342621D01*
Y341549D01*
X17542Y340216D01*
X17132Y339602D01*
X16988Y338879D01*
Y337765D01*
X11363D01*
Y328209D01*
X23592D01*
Y324978D01*
X11954D01*
Y321890D01*
X10528D01*
X9770Y322649D01*
X8621Y323124D01*
X7379D01*
X6230Y322649D01*
X5351Y321770D01*
X5094Y321149D01*
X4078Y321351D01*
X4078Y659975D01*
Y660807D01*
X4403Y662439D01*
X5040Y663976D01*
X5964Y665359D01*
X7140Y666536D01*
X8524Y667460D01*
X10061Y668097D01*
X11693Y668422D01*
X12525Y668422D01*
X59029D01*
X59616Y667406D01*
X58267Y665069D01*
X57310Y661498D01*
Y660920D01*
X85390D01*
Y661498D01*
X84433Y665069D01*
X83084Y667406D01*
X83671Y668422D01*
X112329D01*
X112916Y667406D01*
X111567Y665069D01*
X110610Y661498D01*
Y660920D01*
X138690D01*
Y661498D01*
X137733Y665069D01*
X136384Y667406D01*
X136971Y668422D01*
X305807D01*
X307439Y668097D01*
D02*
G37*
G36*
X309115Y558211D02*
Y548928D01*
X308357Y548170D01*
X307882Y547021D01*
Y545779D01*
X308176Y545069D01*
X307622Y544087D01*
X307579Y544056D01*
X305378D01*
Y545378D01*
X296622D01*
Y536889D01*
X295715Y536358D01*
X292890Y539183D01*
Y554217D01*
X299152Y560478D01*
X306848D01*
X309115Y558211D01*
D02*
G37*
G36*
X106110Y309776D02*
Y302886D01*
X98299D01*
Y293520D01*
X99581D01*
Y291778D01*
X98847D01*
Y289743D01*
X96153D01*
Y290403D01*
X88521D01*
X86179Y292744D01*
Y299000D01*
X86035Y299723D01*
X85626Y300337D01*
X83626Y302337D01*
X83012Y302747D01*
X82289Y302890D01*
X73192D01*
X72803Y303829D01*
X74874Y305901D01*
X81761D01*
X82519Y305143D01*
X83667Y304667D01*
X84910D01*
X86059Y305143D01*
X86937Y306021D01*
X87413Y307170D01*
Y308413D01*
X87084Y309206D01*
X87540Y310098D01*
X87680Y310222D01*
X105278D01*
X106110Y309776D01*
D02*
G37*
G36*
X241351Y300770D02*
X240876Y299621D01*
Y298379D01*
X241351Y297230D01*
X242230Y296351D01*
X242663Y296172D01*
X242671Y296158D01*
X242761Y295032D01*
X240883Y293590D01*
X240615Y293385D01*
D01*
X240139Y292932D01*
Y292932D01*
X239930Y292659D01*
X237907Y290023D01*
X236504Y286635D01*
X236026Y283000D01*
X236110D01*
Y275828D01*
X236112Y275818D01*
X235738Y273937D01*
X234672Y272343D01*
X234663Y272337D01*
X234648Y272314D01*
X231563Y269782D01*
X228020Y267888D01*
X224175Y266722D01*
X221433Y266452D01*
X220791Y267094D01*
X219642Y267570D01*
X218897D01*
X218476Y268586D01*
X221771Y271881D01*
X227937D01*
X229106Y272113D01*
X230098Y272776D01*
X233161Y275839D01*
X233823Y276831D01*
X234056Y278000D01*
Y297046D01*
X238732Y301723D01*
X240867D01*
X241351Y300770D01*
D02*
G37*
G36*
X87583Y261663D02*
X92045D01*
X92045Y261662D01*
X96260Y257448D01*
Y255685D01*
X96492Y254515D01*
X97155Y253524D01*
X103285Y247394D01*
X103851Y247015D01*
X103929Y246723D01*
X103933Y245852D01*
X103926Y245836D01*
X103238Y245147D01*
X102762Y243999D01*
Y242756D01*
X103238Y241607D01*
X104116Y240729D01*
X105265Y240253D01*
X106508D01*
X107656Y240729D01*
X108535Y241607D01*
X109010Y242756D01*
Y243999D01*
X108535Y245147D01*
X108199Y245483D01*
X108620Y246499D01*
X122193D01*
X122358Y246430D01*
X123318D01*
X123896Y245810D01*
X124037Y245511D01*
X123876Y245121D01*
Y243879D01*
X123984Y243617D01*
X123876Y243353D01*
X123273Y242679D01*
X122358D01*
X121209Y242203D01*
X120331Y241324D01*
X119855Y240176D01*
Y238933D01*
X120331Y237785D01*
X121209Y236906D01*
X122358Y236430D01*
X123291D01*
X123883Y235779D01*
X124004Y235498D01*
X123849Y235121D01*
Y233879D01*
X123957Y233617D01*
X123849Y233353D01*
X123246Y232679D01*
X122331D01*
X121182Y232203D01*
X120303Y231324D01*
X119907Y230366D01*
X118890Y230568D01*
Y232000D01*
X118747Y232724D01*
X118337Y233337D01*
X116337Y235337D01*
X115723Y235747D01*
X115000Y235891D01*
X114278D01*
Y238778D01*
X95722D01*
Y238778D01*
X94706Y238524D01*
X93893Y239337D01*
X93280Y239747D01*
X92556Y239890D01*
X91153D01*
Y242028D01*
X89269D01*
X87461Y243836D01*
X86625Y244182D01*
X77490D01*
X75367Y246305D01*
X74531Y246651D01*
X51578D01*
X51158Y247667D01*
X57245Y253755D01*
X57627Y254326D01*
X57761Y255000D01*
Y257722D01*
X60722D01*
Y253864D01*
X77278D01*
X77661Y253007D01*
Y252114D01*
X86339D01*
Y261481D01*
X86339D01*
X86361Y262051D01*
X86361D01*
X86361Y262487D01*
Y263678D01*
X87583D01*
Y261663D01*
D02*
G37*
G36*
X77000Y243000D02*
X86625D01*
X89375Y240250D01*
Y235750D01*
X76656D01*
X76125Y235219D01*
X37781D01*
X36750Y236250D01*
X31250D01*
Y243179D01*
X33540Y245469D01*
X74531D01*
X77000Y243000D01*
D02*
G37*
G36*
X152082Y257931D02*
X152887Y257423D01*
X153784Y256082D01*
X154098Y254500D01*
X154109D01*
Y251414D01*
X154043D01*
X154452Y249359D01*
X155616Y247616D01*
X155636Y247636D01*
X157450Y246244D01*
X157972Y246028D01*
Y242472D01*
X176028D01*
Y245109D01*
X178172D01*
X178183Y245111D01*
X180063Y244737D01*
X181507Y243772D01*
X182224Y243053D01*
X182854Y242111D01*
X183075Y241000D01*
X183109D01*
Y238828D01*
X183071D01*
X183369Y236562D01*
X184244Y234450D01*
X185636Y232636D01*
X187450Y231244D01*
X189562Y230369D01*
X191828Y230071D01*
Y230110D01*
X205425D01*
Y222241D01*
X214792D01*
Y222906D01*
X215808Y223268D01*
X216353Y222723D01*
X216372Y222676D01*
X217251Y221797D01*
X218399Y221321D01*
X219642D01*
X219690Y221341D01*
X221837D01*
X222847Y220331D01*
Y216597D01*
X233153D01*
Y217224D01*
X235222D01*
Y214472D01*
X244778D01*
Y222776D01*
X245794Y223418D01*
X246379Y223176D01*
X247621D01*
X248770Y223652D01*
X249649Y224530D01*
X249654Y224543D01*
X249664Y224548D01*
X250756D01*
X250837Y224351D01*
X251716Y223472D01*
X252864Y222997D01*
X254107D01*
X255256Y223472D01*
X256134Y224351D01*
X256253Y224638D01*
X257420Y224799D01*
X257637Y224523D01*
X257671Y224401D01*
X257428Y223182D01*
X257509D01*
Y218178D01*
X254372D01*
Y208622D01*
X267521D01*
X267910Y207683D01*
X266367Y206140D01*
X250583D01*
X249825Y206899D01*
X248677Y207374D01*
X247434D01*
X246286Y206899D01*
X245794Y206407D01*
X244778Y206828D01*
Y212778D01*
X235222D01*
Y202472D01*
X236950D01*
Y199952D01*
X234817D01*
Y191275D01*
X236950D01*
Y189979D01*
X235983D01*
Y179673D01*
X236955D01*
Y176971D01*
X237188Y175802D01*
X237638Y175128D01*
X237781Y174783D01*
X238660Y173904D01*
X239808Y173428D01*
X241051D01*
X241099Y173448D01*
X246901D01*
X248508Y171841D01*
X249499Y171179D01*
X250669Y170946D01*
X260760D01*
X261732Y170839D01*
X261732Y169930D01*
Y159162D01*
X263816D01*
Y158140D01*
X261191D01*
Y149860D01*
X265073D01*
Y146604D01*
X264616Y145501D01*
Y144259D01*
X265092Y143110D01*
X265970Y142231D01*
X267119Y141756D01*
X268362D01*
X269464Y142213D01*
X284333D01*
Y142000D01*
X284536Y140979D01*
X285114Y140114D01*
X286011Y139217D01*
X285622Y138278D01*
X274222D01*
Y136222D01*
X273140D01*
Y137806D01*
X264860D01*
Y137085D01*
X251348D01*
X250179Y136852D01*
X249187Y136190D01*
X246241Y133244D01*
X245579Y132253D01*
X245346Y131083D01*
Y112252D01*
X245301Y112142D01*
Y110899D01*
X245776Y109751D01*
X246655Y108872D01*
X247803Y108396D01*
X249046D01*
X250194Y108872D01*
X251073Y109751D01*
X251549Y110899D01*
Y112142D01*
X251458Y112361D01*
Y129817D01*
X252614Y130973D01*
X264860D01*
Y128857D01*
X273140D01*
Y130110D01*
X274222D01*
Y127722D01*
X287278D01*
Y136622D01*
X288216Y137011D01*
X290722Y134506D01*
Y127722D01*
X303778D01*
Y138278D01*
X294494D01*
X292158Y140615D01*
X292339Y141117D01*
X292656Y141553D01*
X293738D01*
X294887Y142029D01*
X295645Y142787D01*
X298678D01*
X299401Y142931D01*
X300014Y143341D01*
X303137Y146463D01*
X303547Y147077D01*
X303691Y147800D01*
Y149673D01*
X306828D01*
Y159229D01*
X288272D01*
Y153445D01*
X285114Y150287D01*
X284536Y149422D01*
X284333Y148401D01*
Y147548D01*
X270408D01*
Y151925D01*
X270205Y152946D01*
X270140Y153042D01*
Y158140D01*
X269151D01*
Y159162D01*
X272869D01*
Y170839D01*
X266187D01*
X265873Y171797D01*
X265872Y171855D01*
X266746Y172728D01*
X267408Y173720D01*
X267641Y174889D01*
Y176372D01*
X270958D01*
Y185928D01*
X268986D01*
Y192222D01*
X269278D01*
Y201778D01*
X268617D01*
X268309Y202794D01*
X268487Y202913D01*
X271969Y206396D01*
X279772D01*
Y203508D01*
X294006D01*
X295944Y201570D01*
Y200278D01*
X294222D01*
Y196961D01*
X292137D01*
X290967Y196728D01*
X289976Y196066D01*
X286839Y192929D01*
X286177Y191938D01*
X285944Y190768D01*
Y176500D01*
X286177Y175331D01*
X286839Y174339D01*
X288722Y172456D01*
Y167222D01*
X307278D01*
Y169810D01*
X308959D01*
X309717Y169052D01*
X310866Y168576D01*
X312109D01*
X312425Y168707D01*
X313441Y168028D01*
X313447Y12525D01*
Y11693D01*
X313122Y10061D01*
X312486Y8524D01*
X311561Y7141D01*
X310385Y5964D01*
X309001Y5040D01*
X307464Y4403D01*
X305832Y4078D01*
X305000Y4078D01*
X12525Y4078D01*
X11693D01*
X10061Y4403D01*
X8524Y5040D01*
X7141Y5964D01*
X5964Y7140D01*
X5040Y8524D01*
X4403Y10061D01*
X4078Y11693D01*
X4078Y12525D01*
Y162972D01*
X9854D01*
X10109Y162717D01*
Y131000D01*
X10253Y130276D01*
X10663Y129663D01*
X18663Y121663D01*
X19276Y121253D01*
X20000Y121110D01*
X24038D01*
X26776Y118372D01*
X27389Y117962D01*
X28112Y117818D01*
X55568D01*
Y115500D01*
X55914Y114664D01*
X58414Y112164D01*
X59250Y111818D01*
X78724D01*
X79633Y111446D01*
Y105681D01*
X79459Y105646D01*
X78707Y105144D01*
X78204Y104392D01*
X78028Y103505D01*
Y101495D01*
X78204Y100608D01*
X78611Y100000D01*
X78204Y99392D01*
X78028Y98505D01*
Y96495D01*
X78204Y95608D01*
X78611Y95000D01*
X78204Y94392D01*
X78028Y93505D01*
Y91495D01*
X78204Y90608D01*
X78707Y89857D01*
X79459Y89354D01*
X80346Y89178D01*
X84256D01*
X85142Y89354D01*
X85894Y89857D01*
X86397Y90608D01*
X86573Y91495D01*
Y93505D01*
X86569Y93526D01*
X86752Y93783D01*
X87452Y94296D01*
X88045Y94178D01*
X91955D01*
X92842Y94354D01*
X93594Y94856D01*
X94096Y95608D01*
X94132Y95786D01*
X94913Y96352D01*
D01*
X95848Y96538D01*
X95939Y96599D01*
X96318Y96756D01*
X98069D01*
X98351Y96074D01*
X99230Y95195D01*
X100379Y94720D01*
X101621D01*
X102770Y95195D01*
X103649Y96074D01*
X104124Y97222D01*
Y98465D01*
X103649Y99614D01*
X102840Y100422D01*
X103649Y101230D01*
X104124Y102379D01*
Y103621D01*
X103649Y104770D01*
X102770Y105649D01*
X101621Y106124D01*
X100379D01*
X99230Y105649D01*
X98351Y104770D01*
X98069Y104088D01*
X95233D01*
X94278Y104101D01*
X94097Y104392D01*
X93594Y105144D01*
X92842Y105646D01*
X91955Y105823D01*
X87745D01*
X86859Y105646D01*
X86805Y105610D01*
X86000Y105198D01*
X85196Y105610D01*
X85142Y105646D01*
X84968Y105681D01*
Y111446D01*
X85007D01*
X84904Y112232D01*
X89894Y117222D01*
X94359D01*
Y115856D01*
X91663Y113160D01*
X90591D01*
X89443Y112684D01*
X88564Y111805D01*
X88088Y110657D01*
Y109414D01*
X88564Y108266D01*
X89443Y107387D01*
X90591Y106911D01*
X91834D01*
X92982Y107387D01*
X93861Y108266D01*
X94337Y109414D01*
Y110486D01*
X97586Y113736D01*
X97996Y114350D01*
X98140Y115073D01*
Y117222D01*
X101278D01*
Y126778D01*
X91182D01*
Y135000D01*
X92121Y135268D01*
X92164Y135164D01*
X94526Y132802D01*
X94784Y132695D01*
X94339Y131621D01*
Y130379D01*
X94815Y129230D01*
X95694Y128351D01*
X96842Y127876D01*
X98085D01*
X99233Y128351D01*
X100112Y129230D01*
X100588Y130379D01*
Y131621D01*
X100747Y131860D01*
X108569D01*
Y140140D01*
X109130Y140661D01*
X109130D01*
Y149339D01*
X99763D01*
Y147455D01*
X98706Y146397D01*
X98616Y146180D01*
X98450Y146013D01*
X98313Y145683D01*
Y145650D01*
X98283Y145579D01*
X97939Y145437D01*
X97856Y145354D01*
X97142Y145058D01*
X96370D01*
X95439Y145444D01*
X95256D01*
X94949Y145571D01*
X94642Y145444D01*
X94634D01*
X91156Y148922D01*
X90165Y149584D01*
X88995Y149817D01*
X86069D01*
Y155069D01*
X87068Y155110D01*
X87472D01*
X88230Y154351D01*
X89379Y153876D01*
X90621D01*
X91770Y154351D01*
X92649Y155230D01*
X93124Y156379D01*
Y157621D01*
X92649Y158770D01*
X91770Y159649D01*
X90621Y160124D01*
X90233D01*
X89812Y161140D01*
X92892Y164220D01*
X92982Y164437D01*
X93148Y164603D01*
X93444Y165317D01*
Y165519D01*
X93557Y165793D01*
Y171847D01*
X94153D01*
Y179903D01*
X83847D01*
Y179307D01*
X80153D01*
Y180403D01*
X69847D01*
Y179807D01*
X67922D01*
X67086Y179461D01*
X66473Y178848D01*
X61161Y184161D01*
X60170Y184823D01*
X59000Y185056D01*
X51768D01*
X49945Y186879D01*
X50334Y187818D01*
X53005D01*
X53841Y188164D01*
X56461Y190784D01*
X56807Y191620D01*
Y199475D01*
X57403D01*
Y207530D01*
X47097D01*
Y207530D01*
X46136Y207663D01*
X44836Y208963D01*
X44000Y209310D01*
X40784D01*
X39948Y208963D01*
X39244Y208260D01*
X38945Y207539D01*
X38358Y206766D01*
X27802D01*
Y203128D01*
X22110D01*
Y208278D01*
X12554D01*
Y206527D01*
X11538Y206030D01*
X10707Y206374D01*
X9464D01*
X8316Y205898D01*
X7437Y205020D01*
X6962Y203871D01*
Y202628D01*
X7437Y201480D01*
X8316Y200601D01*
X9464Y200126D01*
X10707D01*
X11538Y200470D01*
X12554Y199973D01*
Y198222D01*
X13589D01*
X13861Y197555D01*
X13897Y197206D01*
X13094Y196402D01*
X12618Y195254D01*
Y194011D01*
X12870Y193402D01*
X12133Y192528D01*
X4078D01*
Y217899D01*
X5094Y218319D01*
X5480Y217934D01*
X6628Y217458D01*
X7871D01*
X9019Y217934D01*
X9777Y218692D01*
X21972D01*
Y215222D01*
X32028D01*
Y224778D01*
X32757Y225472D01*
X38528D01*
Y233021D01*
X38528Y233528D01*
X39333Y234037D01*
X41428D01*
X41849Y233021D01*
X40164Y231336D01*
X39818Y230500D01*
Y220000D01*
X40164Y219164D01*
X42164Y217164D01*
X43000Y216818D01*
X52500D01*
X53336Y217164D01*
X54336Y218164D01*
X54682Y219000D01*
Y223722D01*
X55278D01*
Y232278D01*
X53394D01*
X52669Y233003D01*
X52662Y233047D01*
X53072Y234037D01*
X56490D01*
X56879Y233876D01*
X58121D01*
X58510Y234037D01*
X62490D01*
X62879Y233876D01*
X64121D01*
X64510Y234037D01*
X67597D01*
Y233441D01*
X77903D01*
Y234568D01*
X80847D01*
Y233972D01*
X91153D01*
Y235293D01*
X92169Y235714D01*
X92982Y234901D01*
X93595Y234491D01*
X94319Y234347D01*
X95722D01*
Y229222D01*
X98840D01*
Y227984D01*
X95702D01*
Y218428D01*
X111064D01*
X111274Y218218D01*
X111888Y217808D01*
X112611Y217664D01*
X120451D01*
X121209Y216906D01*
X122358Y216430D01*
X123601D01*
X124749Y216906D01*
X125628Y217785D01*
X126103Y218933D01*
Y220176D01*
X125995Y220437D01*
X126103Y220702D01*
X126706Y221376D01*
X127621D01*
X128770Y221851D01*
X129649Y222730D01*
X130124Y223878D01*
Y225121D01*
X129649Y226270D01*
X129217Y226701D01*
X129552Y227803D01*
X129573Y227808D01*
X129669Y227871D01*
X131242D01*
Y227222D01*
X141298D01*
Y236778D01*
X133569D01*
X133180Y237717D01*
X133916Y238452D01*
X141298D01*
Y248008D01*
X139773D01*
X139028Y248661D01*
Y257093D01*
X139028Y257339D01*
X139620Y258109D01*
X151586D01*
X151630Y258118D01*
X152082Y257931D01*
D02*
G37*
G36*
X53500Y230500D02*
Y226538D01*
Y219000D01*
X52500Y218000D01*
X43000D01*
X41000Y220000D01*
Y230500D01*
X43500Y233000D01*
X51000D01*
X53500Y230500D01*
D02*
G37*
G36*
X46375Y205752D02*
X55625D01*
Y191620D01*
X53005Y189000D01*
X47824D01*
X44693Y192132D01*
X43701Y192794D01*
X43507Y192833D01*
X42532Y193027D01*
X42183D01*
X42132Y193077D01*
X41141Y193740D01*
X40947Y193778D01*
X40080Y193951D01*
Y207424D01*
X40784Y208127D01*
X44000D01*
X46375Y205752D01*
D02*
G37*
G36*
X78875Y178125D02*
X91829D01*
X92375Y177579D01*
Y165793D01*
X92351Y165770D01*
X92056Y165056D01*
X86000Y159000D01*
X68000D01*
X63422Y163578D01*
Y174125D01*
X67922Y178625D01*
X78375D01*
X78875Y178125D01*
D02*
G37*
G36*
X26190Y181511D02*
Y181454D01*
X26334Y180731D01*
X26743Y180117D01*
X28698Y178163D01*
X29311Y177753D01*
X30034Y177610D01*
X32722D01*
Y173722D01*
X45278D01*
Y181575D01*
X46217Y181964D01*
X48342Y179839D01*
X49333Y179177D01*
X50503Y178944D01*
X57734D01*
X62331Y174347D01*
X62239Y174125D01*
Y163578D01*
X62586Y162743D01*
X67164Y158164D01*
X68000Y157818D01*
X69817D01*
X70205Y156879D01*
X62331Y149004D01*
X59204D01*
X58110Y150099D01*
X57497Y150509D01*
X56773Y150653D01*
X56278D01*
Y155778D01*
X37722D01*
Y152891D01*
X29783D01*
X20891Y161783D01*
Y164222D01*
X25278D01*
Y175778D01*
X12722D01*
X12528Y176714D01*
Y181028D01*
X9890D01*
Y182972D01*
X12528D01*
Y185228D01*
X13351Y185777D01*
X14594D01*
X15742Y186253D01*
X16621Y187132D01*
X17097Y188280D01*
Y189167D01*
X18067Y189634D01*
X26190Y181511D01*
D02*
G37*
G36*
X106791Y147000D02*
Y133638D01*
X99244D01*
X99233Y133649D01*
X98085Y134124D01*
X96842D01*
X95694Y133649D01*
X95683Y133638D01*
X95362D01*
X93000Y136000D01*
Y142439D01*
X94949Y144389D01*
X94986Y144351D01*
X96135Y143876D01*
X97378D01*
X98526Y144351D01*
X98775Y144601D01*
X99262D01*
Y145087D01*
X99405Y145230D01*
X99542Y145561D01*
X101541Y147561D01*
X106007D01*
X106791Y147000D01*
D02*
G37*
G36*
X17110Y161000D02*
X17253Y160277D01*
X17663Y159663D01*
X27663Y149663D01*
X28277Y149253D01*
X29000Y149109D01*
X37722D01*
Y146222D01*
X56278D01*
X57104Y145764D01*
X57698Y145367D01*
X58421Y145223D01*
X63114D01*
X63837Y145367D01*
X64451Y145777D01*
X70992Y152319D01*
X71931Y151930D01*
Y138453D01*
Y134603D01*
X68760Y131432D01*
X66778D01*
Y132278D01*
X58290D01*
Y132289D01*
X57623Y134779D01*
X56334Y137011D01*
X54511Y138834D01*
X52279Y140123D01*
X49789Y140790D01*
X49770D01*
Y131000D01*
X48500D01*
Y129730D01*
X38710D01*
Y129711D01*
X39377Y127221D01*
X40666Y124989D01*
X42489Y123166D01*
X43442Y122615D01*
X43170Y121599D01*
X28895D01*
X26158Y124337D01*
X25545Y124747D01*
X24821Y124890D01*
X20783D01*
X13891Y131783D01*
Y135861D01*
X14907Y136404D01*
X15838Y135781D01*
X18000Y135351D01*
X20230D01*
Y141000D01*
Y146649D01*
X18000D01*
X15838Y146219D01*
X14907Y145596D01*
X13891Y146139D01*
Y163500D01*
X14483Y164222D01*
X17110D01*
Y161000D01*
D02*
G37*
G36*
X90000Y135000D02*
Y119000D01*
X84000Y113000D01*
X59250D01*
X56750Y115500D01*
Y122623D01*
X60000Y125873D01*
X60250Y130250D01*
X69250D01*
X73709Y134709D01*
Y137769D01*
X87231D01*
X90000Y135000D01*
D02*
G37*
%LPC*%
G36*
X256569Y663140D02*
X245860D01*
Y661056D01*
X240042D01*
Y662642D01*
X222158D01*
Y644758D01*
X240042D01*
Y654944D01*
X245860D01*
Y652860D01*
X256569D01*
Y663140D01*
D02*
G37*
G36*
X290401Y658328D02*
X288892D01*
X288880Y658326D01*
X288868Y658328D01*
X288425Y658325D01*
X286939D01*
X286545Y658247D01*
X286143D01*
X283210Y657663D01*
X282838Y657510D01*
X282445Y657431D01*
X279681Y656287D01*
X279347Y656064D01*
X278976Y655910D01*
X276489Y654248D01*
X276205Y653964D01*
X275871Y653741D01*
X273756Y651626D01*
X273533Y651292D01*
X273249Y651008D01*
X271588Y648521D01*
X271434Y648150D01*
X271211Y647816D01*
X270066Y645053D01*
X269988Y644659D01*
X269834Y644288D01*
X269251Y641354D01*
Y640953D01*
X269172Y640559D01*
Y637209D01*
X269251Y636815D01*
Y636414D01*
X269846Y633422D01*
X269999Y633051D01*
X270078Y632657D01*
X271245Y629839D01*
X271468Y629505D01*
X271622Y629134D01*
X272263Y628174D01*
X271784Y627278D01*
X266722D01*
Y619789D01*
X266164Y619558D01*
X265818Y618722D01*
Y616201D01*
X265157Y615540D01*
X265025Y615221D01*
X264833Y614935D01*
X264776Y614647D01*
X264347Y614005D01*
X263704Y613576D01*
X262947Y613425D01*
X262189Y613576D01*
X262012Y613694D01*
X261674Y613761D01*
X261355Y613893D01*
X260121D01*
X259285Y613547D01*
X257856Y612118D01*
X255972D01*
Y603441D01*
X258811D01*
X259117Y603315D01*
X263587D01*
Y602140D01*
X262992D01*
Y593860D01*
X271701D01*
Y595744D01*
X275336Y599379D01*
X275682Y600215D01*
Y604655D01*
X281425D01*
X281846Y603639D01*
X279545Y601339D01*
X277661D01*
Y591972D01*
X285156D01*
Y585616D01*
X284870Y585497D01*
X284524Y584661D01*
Y584102D01*
X279604Y579182D01*
X276363D01*
X276146Y579092D01*
X275911D01*
X275744Y578926D01*
X275527Y578836D01*
X275437Y578619D01*
X275271Y578452D01*
X274896Y577548D01*
X274350Y577002D01*
X273636Y576707D01*
X272864D01*
X272150Y577002D01*
X271604Y577548D01*
X271229Y578452D01*
X271063Y578619D01*
X270973Y578836D01*
X270756Y578926D01*
X270590Y579092D01*
X270354D01*
X270137Y579182D01*
X254793D01*
X254576Y579092D01*
X254340D01*
X254258Y579058D01*
X253485D01*
X253403Y579092D01*
X253167D01*
X252950Y579182D01*
X247884D01*
Y586743D01*
X244358D01*
Y589750D01*
X244214Y590473D01*
X243804Y591087D01*
X242551Y592340D01*
X241937Y592750D01*
X241214Y592894D01*
X237499D01*
X236740Y593652D01*
X235592Y594127D01*
X234349D01*
X233201Y593652D01*
X232322Y592773D01*
X231847Y591625D01*
Y590382D01*
X232322Y589234D01*
X233201Y588355D01*
X234349Y587879D01*
X235592D01*
X236740Y588355D01*
X237499Y589113D01*
X240431D01*
X240577Y588967D01*
Y586743D01*
X229828D01*
Y584977D01*
X228812Y584556D01*
X228615Y584753D01*
X227467Y585228D01*
X226224D01*
X225076Y584753D01*
X224197Y583874D01*
X223721Y582726D01*
Y581483D01*
X224197Y580335D01*
X225076Y579456D01*
X226224Y578980D01*
X227467D01*
X227659Y579059D01*
X228416Y578274D01*
X228259Y577931D01*
X228164Y577836D01*
X227818Y577000D01*
Y571000D01*
X228164Y570164D01*
X230164Y568164D01*
X231000Y567818D01*
X239972D01*
Y561472D01*
X242610D01*
Y559827D01*
X241957Y559556D01*
X241079Y558678D01*
X240603Y557529D01*
Y556286D01*
X240262Y555777D01*
X235382D01*
X234659Y555633D01*
X234045Y555223D01*
X233827Y555004D01*
X224535D01*
X214203Y565337D01*
X213589Y565747D01*
X212866Y565891D01*
X189783D01*
X178802Y576871D01*
Y599222D01*
X179528D01*
Y608778D01*
X160972D01*
Y605894D01*
X156451D01*
X155693Y606652D01*
X154545Y607128D01*
X153302D01*
X152154Y606652D01*
X151275Y605774D01*
X150799Y604625D01*
Y603382D01*
X151275Y602234D01*
X152154Y601355D01*
X153302Y600880D01*
X154545D01*
X155693Y601355D01*
X156451Y602113D01*
X160972D01*
Y599222D01*
X175021D01*
Y576088D01*
X175165Y575365D01*
X175575Y574752D01*
X187663Y562663D01*
X188277Y562253D01*
X189000Y562109D01*
X212083D01*
X222415Y551777D01*
X223029Y551367D01*
X223752Y551223D01*
X234610D01*
X235333Y551367D01*
X235947Y551777D01*
X236165Y551996D01*
X240470D01*
X248802Y543663D01*
X249416Y543253D01*
X250139Y543110D01*
X250304D01*
X250378Y542124D01*
X249230Y541649D01*
X248351Y540770D01*
X247876Y539621D01*
Y538379D01*
X248351Y537230D01*
X249230Y536351D01*
X250379Y535876D01*
X251621D01*
X252770Y536351D01*
X253649Y537230D01*
X254124Y538379D01*
Y539621D01*
X253649Y540770D01*
X252770Y541649D01*
X251621Y542124D01*
X251696Y543110D01*
X277000D01*
X277724Y543253D01*
X278337Y543663D01*
X282337Y547663D01*
X282747Y548276D01*
X282890Y549000D01*
Y555472D01*
X283649Y556230D01*
X284124Y557379D01*
Y558621D01*
X283649Y559770D01*
X282770Y560649D01*
X281621Y561124D01*
X280379D01*
X279230Y560649D01*
X278351Y559770D01*
X277876Y558621D01*
Y557379D01*
X278351Y556230D01*
X279109Y555472D01*
Y549783D01*
X276217Y546890D01*
X250922D01*
X244900Y552912D01*
X245139Y554111D01*
X245497Y554259D01*
X246376Y555138D01*
X246851Y556286D01*
Y557529D01*
X246390Y558642D01*
Y561472D01*
X251747D01*
Y558957D01*
X250989Y558199D01*
X250513Y557050D01*
Y555807D01*
X250989Y554659D01*
X251868Y553780D01*
X253016Y553305D01*
X254259D01*
X255407Y553780D01*
X256286Y554659D01*
X256762Y555807D01*
Y557050D01*
X256286Y558199D01*
X255528Y558957D01*
Y561472D01*
X258028D01*
Y567818D01*
X280000D01*
X280836Y568164D01*
X292808Y580136D01*
X293154Y580972D01*
Y582223D01*
X294170Y582902D01*
X294422Y582798D01*
X295665D01*
X296813Y583273D01*
X297692Y584152D01*
X298167Y585300D01*
Y586543D01*
X297692Y587692D01*
X296883Y588500D01*
X297692Y589308D01*
X298167Y590457D01*
Y591699D01*
X297692Y592848D01*
X296813Y593727D01*
X295665Y594202D01*
X295533D01*
X295112Y595218D01*
X297555Y597661D01*
X303528D01*
Y606339D01*
X301644D01*
X301147Y606836D01*
X300311Y607182D01*
X294028D01*
Y615278D01*
X292144D01*
X289266Y618156D01*
X289687Y619172D01*
X291199D01*
X291593Y619250D01*
X291994D01*
X294783Y619805D01*
X295155Y619958D01*
X295549Y620037D01*
X298176Y621125D01*
X298510Y621348D01*
X298881Y621502D01*
X301245Y623082D01*
X301530Y623366D01*
X301864Y623589D01*
X303874Y625600D01*
X304098Y625934D01*
X304382Y626218D01*
X305961Y628582D01*
X306115Y628954D01*
X306338Y629288D01*
X307427Y631915D01*
X307505Y632309D01*
X307659Y632680D01*
X308214Y635469D01*
Y635871D01*
X308292Y636265D01*
Y640436D01*
X308214Y640830D01*
Y641232D01*
X307625Y644192D01*
X307471Y644563D01*
X307393Y644957D01*
X306238Y647746D01*
X306014Y648080D01*
X305861Y648451D01*
X304184Y650960D01*
X303900Y651245D01*
X303677Y651579D01*
X301543Y653713D01*
X301209Y653936D01*
X300924Y654220D01*
X298415Y655897D01*
X298044Y656050D01*
X297710Y656273D01*
X294921Y657429D01*
X294527Y657507D01*
X294156Y657661D01*
X291196Y658250D01*
X290795D01*
X290401Y658328D01*
D02*
G37*
G36*
X30401D02*
X28891D01*
X28880Y658326D01*
X28868Y658328D01*
X28425Y658325D01*
X26939D01*
X26545Y658247D01*
X26143D01*
X23210Y657663D01*
X22838Y657510D01*
X22445Y657431D01*
X19681Y656287D01*
X19347Y656064D01*
X18976Y655910D01*
X16489Y654248D01*
X16205Y653964D01*
X15871Y653741D01*
X13756Y651626D01*
X13533Y651292D01*
X13249Y651008D01*
X11588Y648521D01*
X11434Y648150D01*
X11211Y647816D01*
X10066Y645053D01*
X9988Y644659D01*
X9834Y644288D01*
X9251Y641354D01*
Y640953D01*
X9172Y640559D01*
Y637209D01*
X9251Y636815D01*
Y636414D01*
X9846Y633422D01*
X9999Y633051D01*
X10078Y632657D01*
X11245Y629839D01*
X11468Y629505D01*
X11622Y629134D01*
X13316Y626598D01*
X13600Y626314D01*
X13824Y625980D01*
X15980Y623823D01*
X16314Y623600D01*
X16598Y623316D01*
X19135Y621621D01*
X19506Y621468D01*
X19840Y621244D01*
X22658Y620077D01*
X23052Y619999D01*
X23423Y619845D01*
X26414Y619250D01*
X26816D01*
X27210Y619172D01*
X31199D01*
X31593Y619250D01*
X31994D01*
X34783Y619805D01*
X35155Y619958D01*
X35549Y620037D01*
X38176Y621125D01*
X38510Y621348D01*
X38881Y621502D01*
X41245Y623082D01*
X41530Y623366D01*
X41863Y623589D01*
X43874Y625600D01*
X44098Y625934D01*
X44382Y626218D01*
X45961Y628582D01*
X46115Y628954D01*
X46338Y629288D01*
X47427Y631915D01*
X47505Y632309D01*
X47659Y632680D01*
X48214Y635469D01*
Y635871D01*
X48292Y636265D01*
Y640436D01*
X48214Y640830D01*
Y641232D01*
X47625Y644192D01*
X47471Y644563D01*
X47393Y644957D01*
X46238Y647746D01*
X46014Y648080D01*
X45861Y648451D01*
X44184Y650960D01*
X43900Y651245D01*
X43677Y651579D01*
X41543Y653713D01*
X41209Y653936D01*
X40925Y654220D01*
X38415Y655897D01*
X38044Y656050D01*
X37710Y656273D01*
X34922Y657429D01*
X34527Y657507D01*
X34156Y657661D01*
X31196Y658250D01*
X30794D01*
X30401Y658328D01*
D02*
G37*
G36*
X156268Y664090D02*
X156170D01*
Y654970D01*
X165290D01*
Y655068D01*
X164582Y657710D01*
X163214Y660080D01*
X161280Y662014D01*
X158910Y663382D01*
X156268Y664090D01*
D02*
G37*
G36*
X153630D02*
X153532D01*
X150890Y663382D01*
X148520Y662014D01*
X146586Y660080D01*
X145218Y657710D01*
X144510Y655068D01*
Y654970D01*
X153630D01*
Y664090D01*
D02*
G37*
G36*
X138690Y658380D02*
X125920D01*
Y645610D01*
X126498D01*
X130069Y646567D01*
X133271Y648415D01*
X135885Y651029D01*
X137733Y654231D01*
X138690Y657802D01*
Y658380D01*
D02*
G37*
G36*
X123380D02*
X110610D01*
Y657802D01*
X111567Y654231D01*
X113415Y651029D01*
X116029Y648415D01*
X119231Y646567D01*
X122802Y645610D01*
X123380D01*
Y658380D01*
D02*
G37*
G36*
X85390D02*
X72620D01*
Y645610D01*
X73198D01*
X76769Y646567D01*
X79971Y648415D01*
X82585Y651029D01*
X84433Y654231D01*
X85390Y657802D01*
Y658380D01*
D02*
G37*
G36*
X70080D02*
X57310D01*
Y657802D01*
X58267Y654231D01*
X60115Y651029D01*
X62729Y648415D01*
X65931Y646567D01*
X69502Y645610D01*
X70080D01*
Y658380D01*
D02*
G37*
G36*
X206877Y662642D02*
X204523D01*
X202248Y662033D01*
X200209Y660855D01*
X198545Y659191D01*
X197367Y657151D01*
X196758Y654877D01*
Y652523D01*
X197367Y650248D01*
X198545Y648209D01*
X200209Y646544D01*
X202248Y645367D01*
X204523Y644758D01*
X206877D01*
X209152Y645367D01*
X211191Y646544D01*
X212855Y648209D01*
X214033Y650248D01*
X214642Y652523D01*
Y654877D01*
X214033Y657151D01*
X212855Y659191D01*
X211191Y660855D01*
X209152Y662033D01*
X206877Y662642D01*
D02*
G37*
G36*
X252608Y649615D02*
X251365D01*
X250217Y649140D01*
X249338Y648261D01*
X248862Y647113D01*
Y645870D01*
X249338Y644722D01*
X250217Y643843D01*
X251365Y643367D01*
X252608D01*
X253756Y643843D01*
X254635Y644722D01*
X255111Y645870D01*
Y647113D01*
X254635Y648261D01*
X253756Y649140D01*
X252608Y649615D01*
D02*
G37*
G36*
X165290Y652430D02*
X156170D01*
Y643310D01*
X156268D01*
X158910Y644018D01*
X161280Y645386D01*
X163214Y647320D01*
X164582Y649690D01*
X165290Y652332D01*
Y652430D01*
D02*
G37*
G36*
X153630D02*
X144510D01*
Y652332D01*
X145218Y649690D01*
X146586Y647320D01*
X148520Y645386D01*
X150890Y644018D01*
X153532Y643310D01*
X153630D01*
Y652430D01*
D02*
G37*
G36*
X156268Y638690D02*
X156170D01*
Y629570D01*
X165290D01*
Y629668D01*
X164582Y632310D01*
X163214Y634680D01*
X161280Y636614D01*
X158910Y637982D01*
X156268Y638690D01*
D02*
G37*
G36*
X153630D02*
X153532D01*
X150890Y637982D01*
X148520Y636614D01*
X146586Y634680D01*
X145218Y632310D01*
X144510Y629668D01*
Y629570D01*
X153630D01*
Y638690D01*
D02*
G37*
G36*
X181477Y637242D02*
X179123D01*
X176848Y636633D01*
X174809Y635456D01*
X173144Y633791D01*
X171967Y631752D01*
X171358Y629477D01*
Y627123D01*
X171967Y624848D01*
X173144Y622809D01*
X174809Y621144D01*
X176848Y619967D01*
X179123Y619358D01*
X181477D01*
X183752Y619967D01*
X185791Y621144D01*
X187456Y622809D01*
X188633Y624848D01*
X189242Y627123D01*
Y629477D01*
X188633Y631752D01*
X187456Y633791D01*
X185791Y635456D01*
X183752Y636633D01*
X181477Y637242D01*
D02*
G37*
G36*
X165290Y627030D02*
X156170D01*
Y617910D01*
X156268D01*
X158910Y618618D01*
X161280Y619986D01*
X163214Y621920D01*
X164582Y624290D01*
X165290Y626932D01*
Y627030D01*
D02*
G37*
G36*
X153630D02*
X144510D01*
Y626932D01*
X145218Y624290D01*
X146586Y621920D01*
X148520Y619986D01*
X150890Y618618D01*
X153532Y617910D01*
X153630D01*
Y627030D01*
D02*
G37*
G36*
X232277Y637242D02*
X229923D01*
X227648Y636633D01*
X225609Y635456D01*
X223944Y633791D01*
X222767Y631752D01*
X222158Y629477D01*
Y627123D01*
X222767Y624848D01*
X223944Y622809D01*
X225609Y621144D01*
X226497Y620632D01*
Y619671D01*
X222604Y615778D01*
X209646D01*
X207591Y617833D01*
Y619549D01*
X209152Y619967D01*
X211191Y621144D01*
X212855Y622809D01*
X214033Y624848D01*
X214642Y627123D01*
Y629477D01*
X214033Y631752D01*
X212855Y633791D01*
X211191Y635456D01*
X209152Y636633D01*
X206877Y637242D01*
X204523D01*
X202248Y636633D01*
X200209Y635456D01*
X198545Y633791D01*
X197367Y631752D01*
X196758Y629477D01*
Y627123D01*
X197367Y624848D01*
X198545Y622809D01*
X200209Y621144D01*
X202248Y619967D01*
X203810Y619549D01*
Y617050D01*
X203953Y616326D01*
X204363Y615713D01*
X206722Y613354D01*
Y606222D01*
X225278D01*
Y613104D01*
X229724Y617551D01*
X230134Y618164D01*
X230278Y618887D01*
Y619358D01*
X232277D01*
X234552Y619967D01*
X236591Y621144D01*
X238256Y622809D01*
X239433Y624848D01*
X240042Y627123D01*
Y629477D01*
X239433Y631752D01*
X238256Y633791D01*
X236591Y635456D01*
X234552Y636633D01*
X232277Y637242D01*
D02*
G37*
G36*
X126498Y620390D02*
X125920D01*
Y607620D01*
X138690D01*
Y608198D01*
X137733Y611769D01*
X135885Y614971D01*
X133271Y617585D01*
X130069Y619433D01*
X126498Y620390D01*
D02*
G37*
G36*
X123380D02*
X122802D01*
X119231Y619433D01*
X116029Y617585D01*
X113415Y614971D01*
X111567Y611769D01*
X110610Y608198D01*
Y607620D01*
X123380D01*
Y620390D01*
D02*
G37*
G36*
X73198D02*
X72620D01*
Y607620D01*
X85390D01*
Y608198D01*
X84433Y611769D01*
X82585Y614971D01*
X79971Y617585D01*
X76769Y619433D01*
X73198Y620390D01*
D02*
G37*
G36*
X70080D02*
X69502D01*
X65931Y619433D01*
X62729Y617585D01*
X60115Y614971D01*
X58267Y611769D01*
X57310Y608198D01*
Y607620D01*
X70080D01*
Y620390D01*
D02*
G37*
G36*
Y605080D02*
X57310D01*
Y604502D01*
X57573Y603518D01*
X56739Y602708D01*
X55834D01*
X54686Y602232D01*
X53928Y601474D01*
X52778D01*
Y604612D01*
X43222D01*
Y594556D01*
X52778D01*
Y597693D01*
X53928D01*
X54686Y596935D01*
X55834Y596459D01*
X57077D01*
X58226Y596935D01*
X58970Y597680D01*
X60098Y597759D01*
X60115Y597729D01*
X62729Y595115D01*
X65931Y593267D01*
X69502Y592310D01*
X70080D01*
Y605080D01*
D02*
G37*
G36*
X246056Y619298D02*
X244814D01*
X243665Y618822D01*
X242786Y617943D01*
X242311Y616795D01*
Y615723D01*
X240163Y613575D01*
X239753Y612962D01*
X239667Y612528D01*
X227972D01*
Y603472D01*
X227526Y602641D01*
X226687Y601802D01*
X226212Y600653D01*
Y599411D01*
X226687Y598262D01*
X227566Y597383D01*
X228715Y596908D01*
X229957D01*
X231106Y597383D01*
X231985Y598262D01*
X232460Y599411D01*
Y600483D01*
X234087Y602109D01*
X234497Y602723D01*
X234641Y603446D01*
Y603472D01*
X246028D01*
Y612528D01*
X246639Y613291D01*
X247205Y613525D01*
X248084Y614404D01*
X248559Y615552D01*
Y616795D01*
X248084Y617943D01*
X247205Y618822D01*
X246056Y619298D01*
D02*
G37*
G36*
X181477Y662642D02*
X179123D01*
X176848Y662033D01*
X174809Y660855D01*
X173144Y659191D01*
X171967Y657151D01*
X171358Y654877D01*
Y652523D01*
X171967Y650248D01*
X173144Y648209D01*
X174809Y646544D01*
X176848Y645367D01*
X179123Y644758D01*
X181477D01*
X183752Y645367D01*
X185151Y646175D01*
X191110Y640217D01*
Y613278D01*
X188222D01*
Y603222D01*
Y594722D01*
X197778D01*
Y596694D01*
X198976D01*
X199115Y596555D01*
X200263Y596079D01*
X201506D01*
X202654Y596555D01*
X203533Y597434D01*
X204009Y598582D01*
Y599825D01*
X203533Y600973D01*
X202654Y601852D01*
X202477Y601926D01*
X201507Y602573D01*
X200338Y602806D01*
X197778D01*
Y613278D01*
X194890D01*
Y641000D01*
X194747Y641723D01*
X194337Y642337D01*
X187825Y648849D01*
X188633Y650248D01*
X189242Y652523D01*
Y654877D01*
X188633Y657151D01*
X187456Y659191D01*
X185791Y660855D01*
X183752Y662033D01*
X181477Y662642D01*
D02*
G37*
G36*
X138690Y605080D02*
X125920D01*
Y592310D01*
X126498D01*
X130069Y593267D01*
X133271Y595115D01*
X135885Y597729D01*
X137733Y600931D01*
X138690Y604502D01*
Y605080D01*
D02*
G37*
G36*
X123380D02*
X110610D01*
Y604502D01*
X111567Y600931D01*
X113415Y597729D01*
X116029Y595115D01*
X119231Y593267D01*
X122802Y592310D01*
X123380D01*
Y605080D01*
D02*
G37*
G36*
X85390D02*
X72620D01*
Y592310D01*
X73198D01*
X76769Y593267D01*
X79971Y595115D01*
X82585Y597729D01*
X84433Y600931D01*
X85390Y604502D01*
Y605080D01*
D02*
G37*
G36*
X13755Y587124D02*
X12512D01*
X11364Y586649D01*
X10485Y585770D01*
X10009Y584621D01*
Y583379D01*
X10485Y582230D01*
X11364Y581351D01*
X11529Y581283D01*
X22574Y570238D01*
X9589Y557254D01*
X8927Y556263D01*
X8694Y555093D01*
Y512778D01*
X6722D01*
Y503222D01*
X18919D01*
Y501701D01*
X18161Y500943D01*
X17685Y499795D01*
Y498552D01*
X18161Y497404D01*
X19040Y496525D01*
X20188Y496049D01*
X21431D01*
X22579Y496525D01*
X23458Y497404D01*
X23934Y498552D01*
Y499795D01*
X23458Y500943D01*
X22700Y501701D01*
Y503222D01*
X25278D01*
Y512778D01*
X14806D01*
Y553827D01*
X26895Y565917D01*
X34223Y558589D01*
X35214Y557927D01*
X36384Y557694D01*
X42356D01*
Y555722D01*
X51912D01*
Y566475D01*
X54604D01*
X55362Y565717D01*
X56510Y565241D01*
X57753D01*
X58901Y565717D01*
X59780Y566596D01*
X60255Y567744D01*
Y568987D01*
X59780Y570135D01*
X58901Y571014D01*
X57753Y571489D01*
X56510D01*
X55362Y571014D01*
X54604Y570256D01*
X51912D01*
Y574278D01*
X42356D01*
Y563806D01*
X37649D01*
X29056Y572399D01*
X29056Y572399D01*
X29056Y572399D01*
X15850Y585605D01*
X15782Y585770D01*
X14903Y586649D01*
X13755Y587124D01*
D02*
G37*
G36*
X113874Y510872D02*
X112631D01*
X111482Y510396D01*
X110604Y509518D01*
X110128Y508369D01*
X110128Y507651D01*
X109124Y507621D01*
X108948Y508047D01*
X108649Y508770D01*
X107770Y509649D01*
X106621Y510124D01*
X105379D01*
X104230Y509649D01*
X103351Y508770D01*
X102876Y507621D01*
Y506379D01*
X103351Y505230D01*
X104230Y504351D01*
X105379Y503876D01*
X106621D01*
X107770Y504351D01*
X108649Y505230D01*
X109124Y506379D01*
X109124Y507097D01*
X110128Y507127D01*
X110304Y506701D01*
X110604Y505978D01*
X111482Y505099D01*
X112109Y504840D01*
Y499839D01*
X107752D01*
Y490283D01*
X126308D01*
Y493170D01*
X127732D01*
Y493107D01*
X128467Y493253D01*
X129379Y492876D01*
X130621D01*
X131770Y493351D01*
X132649Y494230D01*
X133124Y495379D01*
Y496621D01*
X132649Y497770D01*
X131770Y498649D01*
X130621Y499124D01*
X129379D01*
X128230Y498649D01*
X127351Y497770D01*
X127324Y497705D01*
X126308Y497907D01*
Y499839D01*
X115891D01*
Y505968D01*
X115901Y505978D01*
X116376Y507127D01*
Y508369D01*
X115901Y509518D01*
X115022Y510396D01*
X113874Y510872D01*
D02*
G37*
G36*
X218650Y515508D02*
X217407D01*
X216259Y515032D01*
X215380Y514153D01*
X214904Y513005D01*
Y511933D01*
X213549Y510578D01*
X213140Y509964D01*
X212996Y509241D01*
Y504173D01*
X211827Y503004D01*
X210173D01*
X209965Y503213D01*
X209352Y503622D01*
X208628Y503766D01*
X205245D01*
X204522Y503622D01*
X203909Y503213D01*
X193920Y493224D01*
X193510Y492611D01*
X193366Y491887D01*
Y491833D01*
X193223Y491114D01*
Y471885D01*
X193367Y471161D01*
X193382Y471139D01*
X193056Y469915D01*
X193032Y469894D01*
X192647Y469734D01*
X191768Y468856D01*
X191292Y467707D01*
Y466464D01*
X191768Y465316D01*
X192647Y464437D01*
X193795Y463962D01*
X195038D01*
X196186Y464437D01*
X196462Y464713D01*
X197478Y464292D01*
Y463152D01*
X192447Y458121D01*
X182339D01*
Y466028D01*
X173661D01*
Y464405D01*
X171571D01*
X171395Y464478D01*
X170152D01*
X169376Y464156D01*
X167378D01*
Y466678D01*
X156622D01*
Y459830D01*
X155683Y459442D01*
X152902Y462223D01*
X152289Y462633D01*
X151565Y462777D01*
X146632D01*
X146211Y463793D01*
X146649Y464230D01*
X147124Y465379D01*
Y466621D01*
X146649Y467770D01*
X145770Y468649D01*
X144621Y469124D01*
X143549D01*
X141337Y471337D01*
X140723Y471747D01*
X140000Y471890D01*
X127028D01*
Y474528D01*
X108972D01*
Y472141D01*
X106528D01*
Y475028D01*
X97472D01*
Y465472D01*
Y456972D01*
X100110D01*
Y455528D01*
X88972D01*
Y446472D01*
X91609D01*
Y444278D01*
X88227D01*
Y435222D01*
X88298D01*
X88472Y434278D01*
X88472D01*
Y424722D01*
Y416222D01*
X91110D01*
Y412414D01*
X90936Y412342D01*
X90058Y411463D01*
X89582Y410315D01*
Y409072D01*
X90058Y407924D01*
X90936Y407045D01*
X92085Y406569D01*
X93328D01*
X94476Y407045D01*
X95355Y407924D01*
X95830Y409072D01*
Y410315D01*
X95355Y411463D01*
X94890Y411927D01*
Y416222D01*
X96223D01*
Y414890D01*
X96367Y414167D01*
X96777Y413554D01*
X102792Y407538D01*
X103230Y406649D01*
X102351Y405770D01*
X101876Y404621D01*
Y403379D01*
X102351Y402230D01*
X103230Y401351D01*
X104379Y400876D01*
X105621D01*
X106770Y401351D01*
X107649Y402230D01*
X108124Y403379D01*
Y404621D01*
X107996Y404932D01*
X108674Y405948D01*
X111947D01*
X112529Y405366D01*
Y402524D01*
X111771Y401766D01*
X111296Y400618D01*
Y399375D01*
X111771Y398227D01*
X112650Y397348D01*
X113799Y396872D01*
X115042D01*
X116190Y397348D01*
X117069Y398227D01*
X117544Y399375D01*
Y400618D01*
X117069Y401766D01*
X116311Y402524D01*
Y406149D01*
X116167Y406872D01*
X115757Y407486D01*
X114067Y409175D01*
X113454Y409585D01*
X112730Y409729D01*
X107350D01*
X107070Y409916D01*
X106347Y410059D01*
X105618D01*
X100004Y415673D01*
Y421331D01*
X101337Y422663D01*
X101747Y423276D01*
X101890Y424000D01*
Y426713D01*
X114962Y439784D01*
X115333Y440339D01*
X115388Y440404D01*
X116502Y440871D01*
X117118Y440615D01*
X118190D01*
X123722Y435084D01*
X124335Y434674D01*
X125059Y434530D01*
X125797D01*
X131523Y428804D01*
Y418374D01*
X122413Y409265D01*
X122003Y408651D01*
X121860Y407928D01*
Y396433D01*
X122003Y395710D01*
X122413Y395097D01*
X130847Y386663D01*
X131460Y386253D01*
X132184Y386110D01*
X164217D01*
X167110Y383217D01*
Y373783D01*
X162000Y368674D01*
X161590Y368060D01*
X161446Y367337D01*
Y356785D01*
X161590Y356061D01*
X161623Y356011D01*
Y355671D01*
X161351Y355399D01*
X160876Y354251D01*
Y353008D01*
X159937Y352677D01*
X159899Y352770D01*
X159300Y353368D01*
X159120Y354000D01*
X159300Y354632D01*
X159899Y355230D01*
X160374Y356379D01*
Y357621D01*
X159899Y358770D01*
X159020Y359649D01*
X158549Y359844D01*
X158751Y360860D01*
X160140D01*
Y369569D01*
X151860D01*
Y365181D01*
X150317Y363638D01*
X149378Y364027D01*
Y369378D01*
X140622D01*
Y367620D01*
X138729D01*
Y369201D01*
X130173D01*
Y363826D01*
X129235Y363437D01*
X128028Y364644D01*
Y369688D01*
X119472D01*
Y362132D01*
X120068D01*
Y357445D01*
X119098Y357092D01*
X118471Y357630D01*
Y360420D01*
X118327Y361143D01*
X117917Y361756D01*
X115337Y364337D01*
X114724Y364747D01*
X114000Y364891D01*
X112739D01*
X112563Y365470D01*
X113379Y366178D01*
X114621D01*
X115770Y366654D01*
X116649Y367532D01*
X117124Y368681D01*
Y369924D01*
X116649Y371072D01*
X115770Y371951D01*
X114621Y372426D01*
X113379D01*
X112230Y371951D01*
X111351Y371072D01*
X110876Y369924D01*
Y368681D01*
X110932Y368544D01*
X110253Y367528D01*
X103691D01*
X103223Y368350D01*
Y377350D01*
Y386406D01*
X103223D01*
X102692Y387062D01*
Y392329D01*
X103708Y392749D01*
X104113Y392345D01*
X105261Y391870D01*
X106504D01*
X107022Y392084D01*
X107800Y391307D01*
X107523Y390639D01*
Y389396D01*
X107999Y388247D01*
X108614Y387633D01*
X108461Y386972D01*
X108309Y386588D01*
X107230Y386141D01*
X106351Y385262D01*
X105876Y384114D01*
Y382871D01*
X106351Y381723D01*
X107230Y380844D01*
X108379Y380368D01*
X109621D01*
X110770Y380844D01*
X111649Y381723D01*
X112124Y382871D01*
Y384114D01*
X111649Y385262D01*
X111034Y385877D01*
X111187Y386538D01*
X111338Y386922D01*
X112417Y387369D01*
X113296Y388247D01*
X113772Y389396D01*
Y390639D01*
X113296Y391787D01*
X112417Y392666D01*
X111269Y393141D01*
X110026D01*
X109507Y392926D01*
X108730Y393704D01*
X109007Y394372D01*
Y395615D01*
X108531Y396763D01*
X107652Y397642D01*
X106504Y398118D01*
X105261D01*
X104113Y397642D01*
X103337Y396866D01*
X103234Y396763D01*
X102485Y396118D01*
X93636Y396117D01*
Y393480D01*
X92333D01*
X91714Y393899D01*
X91474Y394430D01*
Y395304D01*
X91357Y395587D01*
Y396872D01*
X91124Y398041D01*
X90462Y399033D01*
X87551Y401944D01*
Y406378D01*
X78795D01*
Y398301D01*
X77858D01*
X76709Y397825D01*
X75830Y396946D01*
X75355Y395798D01*
Y394555D01*
X75830Y393407D01*
X76709Y392528D01*
X77858Y392052D01*
X79100D01*
X80249Y392528D01*
X81128Y393407D01*
X81603Y394555D01*
Y395798D01*
X81269Y396606D01*
X81779Y397622D01*
X83229D01*
X85245Y395606D01*
Y395352D01*
X85225Y395304D01*
Y394062D01*
X85701Y392913D01*
X86580Y392034D01*
X87728Y391559D01*
X87762D01*
X88183Y390543D01*
X87327Y389687D01*
X86918Y389074D01*
X86909Y389028D01*
X82472D01*
Y379472D01*
Y370972D01*
X85110D01*
Y360783D01*
X79451Y355124D01*
X78379D01*
X77230Y354649D01*
X76351Y353770D01*
X75876Y352621D01*
Y351379D01*
X76351Y350230D01*
X77230Y349351D01*
X78379Y348876D01*
X79621D01*
X80770Y349351D01*
X81649Y350230D01*
X82124Y351379D01*
Y352451D01*
X88337Y358663D01*
X88747Y359277D01*
X88890Y360000D01*
Y370972D01*
X91528D01*
Y379472D01*
Y388540D01*
X92620Y389633D01*
X93636Y389539D01*
Y387062D01*
X93636D01*
X94167Y386406D01*
Y377350D01*
Y368350D01*
X94167Y368350D01*
X93972Y367528D01*
X93972Y367528D01*
X93972Y367415D01*
Y358472D01*
X107023D01*
X107138Y358271D01*
X107334Y357456D01*
X106628Y356750D01*
X106153Y355602D01*
Y354359D01*
X106186Y354278D01*
Y349339D01*
X100276D01*
X99801Y350355D01*
X100160Y351222D01*
Y352465D01*
X99684Y353613D01*
X98805Y354492D01*
X97657Y354968D01*
X96414D01*
X95266Y354492D01*
X94387Y353613D01*
X93912Y352465D01*
Y351222D01*
X94387Y350074D01*
X95266Y349195D01*
X96414Y348719D01*
X97657D01*
X97972Y348509D01*
Y340661D01*
X97972D01*
Y340339D01*
X97972D01*
Y331661D01*
X98361D01*
Y322222D01*
X108667D01*
Y331778D01*
X107339D01*
Y340339D01*
X107339D01*
Y340661D01*
X107339D01*
Y342638D01*
X108317Y342832D01*
X109309Y343495D01*
X111403Y345589D01*
X112065Y346581D01*
X112298Y347750D01*
Y354110D01*
X112401Y354359D01*
Y355602D01*
X111926Y356750D01*
X111220Y357456D01*
X111416Y358271D01*
X111531Y358472D01*
X112028D01*
Y361110D01*
X113217D01*
X114690Y359636D01*
Y357473D01*
X113932Y356715D01*
X113456Y355567D01*
Y354324D01*
X113932Y353176D01*
X114811Y352297D01*
X115959Y351821D01*
X117202D01*
X118350Y352297D01*
X119229Y353176D01*
X119587Y354040D01*
X119642Y354073D01*
X120486Y354273D01*
X120694Y354260D01*
X122666Y352288D01*
X123502Y351942D01*
X124386D01*
X125100Y351646D01*
X125646Y351100D01*
X125942Y350386D01*
Y349796D01*
X126288Y348960D01*
X127124Y348614D01*
X127642D01*
Y348018D01*
X136398D01*
Y356774D01*
X135639D01*
X135456Y357216D01*
X131965Y360707D01*
X132354Y361645D01*
X138729D01*
Y362803D01*
X140622D01*
Y360622D01*
X141559D01*
Y355017D01*
X141504Y354962D01*
X140480Y354538D01*
X139601Y353659D01*
X139126Y352511D01*
Y351268D01*
X139601Y350120D01*
X140480Y349241D01*
X141629Y348765D01*
X142871D01*
X144020Y349241D01*
X144456Y349677D01*
X145472Y349256D01*
Y344711D01*
X144698Y344126D01*
X135642D01*
Y334570D01*
Y328744D01*
X130737Y323839D01*
X130379D01*
X129230Y323363D01*
X128351Y322484D01*
X127876Y321336D01*
Y320093D01*
X128351Y318945D01*
X129230Y318066D01*
X130379Y317590D01*
X131621D01*
X132770Y318066D01*
X133649Y318945D01*
X134124Y320093D01*
Y321336D01*
X133965Y321720D01*
X138316Y326070D01*
X144268D01*
X144698Y326070D01*
X145284Y325297D01*
Y323044D01*
X147484D01*
Y321368D01*
X146615D01*
Y311062D01*
X147587D01*
Y298172D01*
X147180Y297881D01*
X146608Y297714D01*
X126548Y317774D01*
Y319397D01*
X126315Y320566D01*
X125653Y321558D01*
X120667Y326544D01*
Y331778D01*
X119103D01*
Y333738D01*
X120919D01*
Y343105D01*
X112242D01*
Y333738D01*
X112991D01*
Y331778D01*
X110361D01*
Y322222D01*
X116346D01*
X120436Y318131D01*
Y316508D01*
X120669Y315338D01*
X121331Y314347D01*
X143283Y292395D01*
X143351Y292230D01*
X144230Y291351D01*
X144278Y291332D01*
X145806Y289804D01*
Y288255D01*
X145179D01*
Y280200D01*
X155485D01*
Y284795D01*
X156501Y285338D01*
X156661Y285231D01*
Y280949D01*
X165339D01*
Y284094D01*
X166355Y284561D01*
X166847Y284155D01*
Y279597D01*
X177153D01*
Y286971D01*
X177907Y287710D01*
X177996Y287702D01*
X178757Y287210D01*
Y280737D01*
X189063D01*
Y284472D01*
X190506Y285915D01*
X190946Y285850D01*
X191522Y285554D01*
Y279614D01*
X200199D01*
Y288981D01*
X198916D01*
Y293296D01*
X198952Y293332D01*
X199000Y293351D01*
X199879Y294230D01*
X199947Y294395D01*
X204496Y298944D01*
X205195D01*
X206364Y299177D01*
X207356Y299839D01*
X219461Y311945D01*
X223195D01*
Y322251D01*
X222223D01*
Y324882D01*
X225515D01*
Y335188D01*
X215959D01*
Y324882D01*
X216112D01*
Y322251D01*
X215140D01*
Y316266D01*
X203929Y305056D01*
X203230D01*
X202061Y304823D01*
X201069Y304161D01*
X195625Y298717D01*
X195460Y298649D01*
X194581Y297770D01*
X194464Y297488D01*
X193700Y296723D01*
X193037Y295731D01*
X192805Y294562D01*
Y289699D01*
X192532Y289426D01*
X191509Y289841D01*
X191507Y289991D01*
Y290552D01*
X191624Y290835D01*
Y292077D01*
X191507Y292360D01*
Y314947D01*
X192691D01*
Y316901D01*
X193782Y317118D01*
X194773Y317781D01*
X198609Y321616D01*
X203843D01*
Y331922D01*
X194287D01*
Y325938D01*
X191974Y323624D01*
X183325D01*
Y314947D01*
X185396D01*
Y310664D01*
X184379Y309985D01*
X184044Y310124D01*
X182801D01*
X181653Y309649D01*
X180774Y308770D01*
X180298Y307621D01*
X179666Y306908D01*
X179282Y306908D01*
X162548D01*
X161869Y307924D01*
X162057Y308379D01*
Y309621D01*
X161582Y310770D01*
X161223Y311129D01*
X161644Y312145D01*
X166522D01*
Y320822D01*
X165147D01*
Y323044D01*
X167590D01*
Y332600D01*
X165147D01*
Y334661D01*
X167028D01*
Y343339D01*
X165401D01*
Y345994D01*
X165168Y347164D01*
X164837Y347659D01*
X164652Y348105D01*
X163773Y348984D01*
X162625Y349459D01*
X161382D01*
X161033Y349315D01*
X160256Y350093D01*
X160374Y350379D01*
Y351621D01*
X161313Y351952D01*
X161351Y351859D01*
X162230Y350981D01*
X163379Y350505D01*
X164621D01*
X165770Y350981D01*
X166649Y351859D01*
X167124Y353008D01*
Y354251D01*
X167052Y354425D01*
X167616Y355270D01*
X167844D01*
X168572Y355572D01*
X169350Y354794D01*
X169125Y354251D01*
Y353008D01*
X169600Y351859D01*
X170479Y350981D01*
X171627Y350505D01*
X172870D01*
X174018Y350981D01*
X174897Y351859D01*
X175373Y353008D01*
Y354251D01*
X175158Y354769D01*
X175936Y355547D01*
X176604Y355270D01*
X177847D01*
X178995Y355746D01*
X179874Y356625D01*
X180350Y357773D01*
Y359016D01*
X179874Y360164D01*
X179835Y360203D01*
X180256Y361219D01*
X185982D01*
Y355349D01*
X185434Y354528D01*
X185201Y353359D01*
Y350388D01*
X184229D01*
Y340082D01*
X185201D01*
Y338719D01*
X182265D01*
Y330041D01*
X191631D01*
Y336386D01*
X194287D01*
Y333616D01*
X203843D01*
Y343922D01*
X194287D01*
Y342498D01*
X192285D01*
Y350388D01*
X191313D01*
Y351996D01*
X191687Y352370D01*
X192163Y353519D01*
Y353840D01*
X193179Y354519D01*
X193446Y354408D01*
X194689D01*
X195837Y354884D01*
X196716Y355763D01*
X197192Y356911D01*
Y358154D01*
X196716Y359302D01*
X195837Y360181D01*
X194689Y360657D01*
X193446D01*
X193110Y360517D01*
X192967Y360613D01*
X192202Y361219D01*
Y370775D01*
X173646D01*
Y361219D01*
X174195D01*
X174616Y360203D01*
X174577Y360164D01*
X174101Y359016D01*
Y357773D01*
X174316Y357254D01*
X173538Y356477D01*
X172870Y356753D01*
X171627D01*
X170900Y356452D01*
X170122Y357230D01*
X170347Y357773D01*
Y359016D01*
X169872Y360164D01*
X168993Y361043D01*
X167844Y361519D01*
X166601D01*
X166243Y361370D01*
X165227Y362049D01*
Y366554D01*
X170337Y371663D01*
X170747Y372276D01*
X170891Y373000D01*
Y384000D01*
X170747Y384724D01*
X170337Y385337D01*
X166337Y389337D01*
X165723Y389747D01*
X165000Y389891D01*
X132966D01*
X125640Y397216D01*
Y407145D01*
X134750Y416254D01*
X135937Y416202D01*
X136110Y416074D01*
Y404000D01*
X136253Y403276D01*
X136663Y402663D01*
X139663Y399663D01*
X140276Y399253D01*
X141000Y399109D01*
X162693D01*
X163416Y399253D01*
X164030Y399663D01*
X165734Y401368D01*
X184104D01*
Y392218D01*
X188416D01*
Y390711D01*
X187094D01*
Y381955D01*
X193332D01*
X194011Y380939D01*
X193876Y380613D01*
Y379370D01*
X194351Y378222D01*
X195230Y377343D01*
X196379Y376867D01*
X197621D01*
X198770Y377343D01*
X199649Y378222D01*
X200124Y379370D01*
Y380613D01*
X199649Y381761D01*
X199482Y381928D01*
X199391Y382990D01*
X200270Y383869D01*
X200746Y385017D01*
Y386260D01*
X200270Y387408D01*
X199391Y388287D01*
X198243Y388763D01*
X197000D01*
X196835Y388694D01*
X195850D01*
Y390711D01*
X194528D01*
Y394406D01*
X194295Y395575D01*
X193660Y396527D01*
Y400718D01*
Y410774D01*
X184104D01*
Y405149D01*
X164951D01*
X164228Y405005D01*
X163614Y404595D01*
X161910Y402891D01*
X141783D01*
X139890Y404783D01*
Y425178D01*
X139747Y425901D01*
X139337Y426515D01*
X138761Y427090D01*
Y434622D01*
X146046D01*
Y426972D01*
X149415D01*
X149860Y426140D01*
Y415431D01*
X160140D01*
Y426140D01*
X160047D01*
X159602Y426972D01*
Y443028D01*
X158952D01*
Y444067D01*
X159968Y444487D01*
X160505Y443951D01*
X160663Y443885D01*
X161046Y443028D01*
Y426972D01*
X164415D01*
X164860Y426140D01*
Y415431D01*
X175140D01*
Y426140D01*
X175047D01*
X174602Y426972D01*
Y443028D01*
X174449D01*
X174194Y443610D01*
X174138Y444044D01*
X174923Y444830D01*
X175399Y445978D01*
Y447221D01*
X175184Y447738D01*
X175962Y448516D01*
X176627Y448240D01*
X177870D01*
X178598Y448542D01*
X179375Y447764D01*
X179150Y447221D01*
Y445978D01*
X179626Y444830D01*
X180505Y443951D01*
X181653Y443475D01*
X182896D01*
X184044Y443951D01*
X184923Y444830D01*
X185399Y445978D01*
Y447221D01*
X184923Y448369D01*
X184834Y448458D01*
X185255Y449474D01*
X186971D01*
X202445Y434001D01*
X202206Y432802D01*
X201848Y432654D01*
X200969Y431775D01*
X200494Y430626D01*
Y429384D01*
X200795Y428656D01*
X200017Y427878D01*
X199474Y428103D01*
X198231D01*
X197083Y427628D01*
X196204Y426749D01*
X195728Y425601D01*
Y424358D01*
X196204Y423209D01*
X197083Y422331D01*
X198231Y421855D01*
X199474D01*
X199993Y422070D01*
X200770Y421292D01*
X200494Y420624D01*
Y419381D01*
X200969Y418233D01*
X201392Y417809D01*
X201747Y417161D01*
X201392Y416482D01*
X200983Y416073D01*
X200508Y414924D01*
Y413926D01*
X199934Y413374D01*
X199608Y413199D01*
X199474Y413255D01*
X198231D01*
X197083Y412779D01*
X196204Y411900D01*
X195728Y410752D01*
Y409509D01*
X196204Y408361D01*
X197083Y407482D01*
X198231Y407006D01*
X199474D01*
X200622Y407482D01*
X201501Y408361D01*
X201977Y409509D01*
Y410507D01*
X202550Y411059D01*
X202877Y411234D01*
X203010Y411179D01*
X204253D01*
X205401Y411654D01*
X206280Y412533D01*
X206756Y413681D01*
Y414924D01*
X206280Y416073D01*
X205857Y416496D01*
X205502Y417144D01*
X205857Y417823D01*
X206266Y418233D01*
X207127Y418404D01*
X221867Y403663D01*
X222481Y403253D01*
X223204Y403110D01*
X245190D01*
X245913Y403253D01*
X246527Y403663D01*
X267574Y424711D01*
X268211Y424584D01*
X269090Y423705D01*
X270238Y423230D01*
X271481D01*
X272629Y423705D01*
X273508Y424584D01*
X273983Y425732D01*
Y426975D01*
X274079Y427119D01*
X275102Y427205D01*
X275876Y426450D01*
Y425379D01*
X276351Y424230D01*
X277230Y423351D01*
X277583Y423205D01*
X277381Y422189D01*
X277322D01*
X276174Y421714D01*
X275295Y420835D01*
X275144Y420470D01*
X273696D01*
X272973Y420326D01*
X272359Y419916D01*
X270078Y417635D01*
X268711D01*
X267988Y417491D01*
X267375Y417081D01*
X264630Y414337D01*
X264221Y413723D01*
X264077Y413000D01*
Y412750D01*
X253217Y401890D01*
X244298D01*
X243574Y401747D01*
X242961Y401337D01*
X224136Y382512D01*
X211642D01*
X210884Y383270D01*
X209735Y383746D01*
X208492D01*
X207344Y383270D01*
X206465Y382391D01*
X205990Y381243D01*
Y380000D01*
X206465Y378852D01*
X207344Y377973D01*
X208492Y377497D01*
X209735D01*
X210884Y377973D01*
X211642Y378731D01*
X224919D01*
X225643Y378875D01*
X226256Y379285D01*
X245081Y398110D01*
X254000D01*
X254723Y398253D01*
X255337Y398663D01*
X267304Y410630D01*
X267714Y411244D01*
X267858Y411967D01*
Y412217D01*
X269494Y413854D01*
X270861D01*
X271584Y413998D01*
X272198Y414407D01*
X274479Y416689D01*
X275902D01*
X276174Y416417D01*
X277322Y415941D01*
X278565D01*
X279713Y416417D01*
X280592Y417296D01*
X281068Y418444D01*
Y419687D01*
X280592Y420835D01*
X279713Y421714D01*
X279361Y421860D01*
X279563Y422876D01*
X279621D01*
X280770Y423351D01*
X281649Y424230D01*
X282124Y425379D01*
Y426621D01*
X281649Y427770D01*
X280770Y428649D01*
X279621Y429124D01*
X278778D01*
X277528Y430374D01*
Y437756D01*
X268890D01*
Y450109D01*
X279000D01*
X279723Y450253D01*
X280337Y450663D01*
X286783Y457109D01*
X288346D01*
X289792Y455663D01*
X289867Y455613D01*
X290122Y455372D01*
Y446616D01*
X298878D01*
Y448633D01*
X301704D01*
X302575Y448806D01*
X302674Y448722D01*
X302969Y447763D01*
X302493Y446615D01*
Y445372D01*
X302795Y444645D01*
X302017Y443867D01*
X301474Y444092D01*
X300231D01*
X299083Y443616D01*
X298204Y442738D01*
X297728Y441589D01*
Y440346D01*
X298137Y439361D01*
X296305Y437529D01*
X289423D01*
Y430663D01*
X288407Y430133D01*
X287631Y430455D01*
X286388D01*
X285239Y429979D01*
X284360Y429100D01*
X283885Y427952D01*
Y426709D01*
X284360Y425561D01*
X285239Y424682D01*
X286388Y424207D01*
X287631D01*
X288188Y424437D01*
X289116Y423910D01*
X289203Y423076D01*
X284839Y418712D01*
X284177Y417720D01*
X283944Y416551D01*
Y406139D01*
X282963Y405876D01*
X282614Y406480D01*
X280680Y408414D01*
X278310Y409782D01*
X275668Y410490D01*
X275570D01*
Y400100D01*
X274300D01*
D01*
X275570D01*
Y389710D01*
X275668D01*
X278310Y390418D01*
X280680Y391786D01*
X282614Y393720D01*
X282963Y394324D01*
X283944Y394061D01*
Y377183D01*
X282928Y377050D01*
X282633Y378152D01*
X281455Y380191D01*
X279791Y381856D01*
X277752Y383033D01*
X275477Y383642D01*
X273123D01*
X270849Y383033D01*
X268809Y381856D01*
X267145Y380191D01*
X265967Y378152D01*
X265358Y375877D01*
Y373523D01*
X265967Y371249D01*
X267145Y369209D01*
X268809Y367545D01*
X270849Y366367D01*
X273123Y365758D01*
X275477D01*
X277752Y366367D01*
X279791Y367545D01*
X281455Y369209D01*
X282633Y371249D01*
X282928Y372350D01*
X283944Y372217D01*
Y351783D01*
X282928Y351650D01*
X282633Y352752D01*
X281455Y354791D01*
X279791Y356455D01*
X277752Y357633D01*
X275477Y358242D01*
X273123D01*
X270849Y357633D01*
X268809Y356455D01*
X267145Y354791D01*
X266192Y353140D01*
X261778D01*
Y356278D01*
X258890D01*
Y376500D01*
X258747Y377224D01*
X258337Y377837D01*
X258278Y377896D01*
Y384778D01*
X248222D01*
Y375222D01*
X255110D01*
Y356278D01*
X252222D01*
Y346222D01*
Y337722D01*
X259354D01*
X267415Y329661D01*
X267145Y329391D01*
X265967Y327352D01*
X265358Y325077D01*
Y322723D01*
X265967Y320448D01*
X267145Y318409D01*
X268809Y316744D01*
X270849Y315567D01*
X273123Y314958D01*
X275477D01*
X277752Y315567D01*
X279791Y316744D01*
X281455Y318409D01*
X282633Y320448D01*
X283242Y322723D01*
Y325077D01*
X282633Y327352D01*
X282428Y327706D01*
X289161Y334439D01*
X289823Y335430D01*
X290056Y336600D01*
Y346817D01*
X291072Y346950D01*
X291367Y345849D01*
X292544Y343809D01*
X294209Y342145D01*
X296248Y340967D01*
X298523Y340358D01*
X300877D01*
X303152Y340967D01*
X305191Y342145D01*
X306856Y343809D01*
X308033Y345849D01*
X308642Y348123D01*
Y350477D01*
X308033Y352752D01*
X306856Y354791D01*
X305191Y356455D01*
X303152Y357633D01*
X300877Y358242D01*
X298523D01*
X296248Y357633D01*
X294209Y356455D01*
X292544Y354791D01*
X291367Y352752D01*
X291072Y351650D01*
X290056Y351783D01*
Y372217D01*
X291072Y372350D01*
X291367Y371249D01*
X292544Y369209D01*
X294209Y367545D01*
X296248Y366367D01*
X298523Y365758D01*
X300877D01*
X303152Y366367D01*
X305191Y367545D01*
X306856Y369209D01*
X308033Y371249D01*
X308642Y373523D01*
Y375877D01*
X308033Y378152D01*
X306856Y380191D01*
X305191Y381856D01*
X303152Y383033D01*
X300877Y383642D01*
X298523D01*
X296248Y383033D01*
X294209Y381856D01*
X292544Y380191D01*
X291367Y378152D01*
X291072Y377050D01*
X290056Y377183D01*
Y394061D01*
X291037Y394324D01*
X291386Y393720D01*
X293320Y391786D01*
X295690Y390418D01*
X298332Y389710D01*
X298430D01*
Y400100D01*
Y410490D01*
X298332D01*
X295690Y409782D01*
X293320Y408414D01*
X291386Y406480D01*
X291037Y405876D01*
X290056Y406139D01*
Y415285D01*
X293744Y418973D01*
X298979D01*
Y420913D01*
X300453D01*
Y418909D01*
X310009D01*
Y427408D01*
Y437465D01*
X307508D01*
Y443466D01*
X308266Y444224D01*
X308742Y445372D01*
Y446615D01*
X308266Y447763D01*
X307387Y448642D01*
X306239Y449118D01*
X305057D01*
X304909Y449284D01*
X304525Y450022D01*
X305061Y450558D01*
X305536Y451707D01*
Y452949D01*
X305368Y453355D01*
X306146Y454133D01*
X306766Y453876D01*
X308009D01*
X309157Y454351D01*
X310036Y455230D01*
X310512Y456379D01*
Y457621D01*
X310036Y458770D01*
X309157Y459649D01*
X308009Y460124D01*
X306766D01*
X305618Y459649D01*
X304860Y458890D01*
X291912D01*
X290466Y460337D01*
X289852Y460747D01*
X289129Y460891D01*
X286000D01*
X285277Y460747D01*
X284663Y460337D01*
X278217Y453890D01*
X267893D01*
X267169Y453747D01*
X266556Y453337D01*
X265663Y452444D01*
X265253Y451831D01*
X265110Y451107D01*
Y433992D01*
X258125D01*
Y429604D01*
X255743Y427222D01*
X254727Y427643D01*
Y434263D01*
X246171D01*
Y433541D01*
X243039D01*
Y435745D01*
X234283D01*
Y426989D01*
X241169D01*
Y425182D01*
X241101Y425017D01*
Y423774D01*
X241577Y422626D01*
X242456Y421747D01*
X243604Y421271D01*
X244847D01*
X245995Y421747D01*
X246874Y422626D01*
X247350Y423774D01*
Y425017D01*
X247281Y425182D01*
Y426707D01*
X253791D01*
X254212Y425691D01*
X252888Y424367D01*
X252225Y423375D01*
X251993Y422206D01*
Y421904D01*
X251876Y421621D01*
Y420379D01*
X252351Y419230D01*
X253230Y418351D01*
X254079Y418000D01*
X254453Y416937D01*
X244407Y406890D01*
X223987D01*
X209394Y421483D01*
Y431615D01*
X209251Y432338D01*
X208841Y432952D01*
X189091Y452701D01*
X188478Y453111D01*
X187754Y453255D01*
X180779D01*
X180733Y453324D01*
X181276Y454340D01*
X193231D01*
X193954Y454484D01*
X194567Y454894D01*
X200706Y461032D01*
X201115Y461645D01*
X201259Y462369D01*
Y467630D01*
X201115Y468353D01*
X200706Y468966D01*
X197004Y472668D01*
Y490538D01*
X197110Y491066D01*
X206028Y499985D01*
X207845D01*
X208053Y499777D01*
X208667Y499367D01*
X209390Y499223D01*
X212610D01*
X213333Y499367D01*
X213946Y499777D01*
X216223Y502053D01*
X216633Y502667D01*
X216777Y503390D01*
Y508458D01*
X217578Y509259D01*
X218650D01*
X219798Y509735D01*
X220677Y510614D01*
X221153Y511762D01*
Y513005D01*
X220677Y514153D01*
X219798Y515032D01*
X218650Y515508D01*
D02*
G37*
G36*
X14517Y489961D02*
X13274D01*
X12126Y489486D01*
X11247Y488607D01*
X10771Y487458D01*
Y486216D01*
X11247Y485067D01*
X12126Y484188D01*
X13274Y483713D01*
X14517D01*
X15665Y484188D01*
X16544Y485067D01*
X17020Y486216D01*
Y487458D01*
X16544Y488607D01*
X15665Y489486D01*
X14517Y489961D01*
D02*
G37*
G36*
X48528Y433028D02*
X39472D01*
Y423972D01*
Y414972D01*
X42113D01*
Y412807D01*
X41355Y412049D01*
X40879Y410901D01*
Y409658D01*
X41355Y408509D01*
X42234Y407631D01*
X43382Y407155D01*
X44625D01*
X45773Y407631D01*
X46652Y408509D01*
X47127Y409658D01*
Y410901D01*
X46652Y412049D01*
X45894Y412807D01*
Y414972D01*
X48528D01*
Y425726D01*
X49544Y426222D01*
X50379Y425876D01*
X51621D01*
X52770Y426351D01*
X53649Y427230D01*
X54124Y428379D01*
Y429621D01*
X53649Y430770D01*
X52770Y431649D01*
X51621Y432124D01*
X50379D01*
X49544Y431778D01*
X48528Y432274D01*
Y433028D01*
D02*
G37*
G36*
X122378Y422378D02*
X113622D01*
Y421056D01*
X110655D01*
X109857Y421387D01*
X108614D01*
X107466Y420911D01*
X106587Y420032D01*
X106111Y418884D01*
Y417641D01*
X106587Y416493D01*
X107466Y415614D01*
X108195Y415312D01*
X108397Y415177D01*
X109567Y414944D01*
X113622D01*
Y413622D01*
X122378D01*
Y422378D01*
D02*
G37*
G36*
X68698Y426570D02*
X59331D01*
Y417893D01*
X68698D01*
Y419444D01*
X69982D01*
X70030Y419424D01*
X71273D01*
X72421Y419900D01*
X73300Y420778D01*
X73775Y421927D01*
Y423170D01*
X73300Y424318D01*
X72421Y425197D01*
X71273Y425672D01*
X70030D01*
X69747Y425555D01*
X68698D01*
Y426570D01*
D02*
G37*
G36*
X11053Y416423D02*
X9810D01*
X8662Y415947D01*
X7783Y415069D01*
X7308Y413920D01*
Y412677D01*
X7783Y411529D01*
X8662Y410650D01*
X9810Y410175D01*
X11053D01*
X12201Y410650D01*
X13080Y411529D01*
X13556Y412677D01*
Y413920D01*
X13080Y415069D01*
X12201Y415947D01*
X11053Y416423D01*
D02*
G37*
G36*
X64871Y414124D02*
X63629D01*
X62480Y413649D01*
X61601Y412770D01*
X61126Y411621D01*
Y410379D01*
X61264Y410044D01*
X60585Y409028D01*
X57146D01*
X56028Y410146D01*
X56124Y410379D01*
Y411621D01*
X55649Y412770D01*
X54770Y413649D01*
X53621Y414124D01*
X52379D01*
X51230Y413649D01*
X50351Y412770D01*
X49876Y411621D01*
Y410379D01*
X50351Y409230D01*
X51230Y408351D01*
X52379Y407876D01*
X52951D01*
X54472Y406354D01*
Y399472D01*
Y390972D01*
X60854D01*
X63583Y388243D01*
X64197Y387833D01*
X64920Y387690D01*
X66444D01*
X67167Y387833D01*
X67417Y388000D01*
X67958D01*
X68230Y387728D01*
X69379Y387253D01*
X70621D01*
X71770Y387728D01*
X72649Y388607D01*
X73124Y389755D01*
Y390998D01*
X72649Y392147D01*
X71770Y393025D01*
X70621Y393501D01*
X69379D01*
X68230Y393025D01*
X67351Y392147D01*
X67200Y391781D01*
X66755D01*
X66031Y391637D01*
X65781Y391471D01*
X65703D01*
X63528Y393646D01*
Y399472D01*
Y407809D01*
X63629Y407876D01*
X64871D01*
X66020Y408351D01*
X66899Y409230D01*
X67374Y410379D01*
Y411621D01*
X66899Y412770D01*
X66020Y413649D01*
X64871Y414124D01*
D02*
G37*
G36*
X301068Y410490D02*
X300970D01*
Y401370D01*
X310090D01*
Y401468D01*
X309382Y404110D01*
X308014Y406480D01*
X306080Y408414D01*
X303710Y409782D01*
X301068Y410490D01*
D02*
G37*
G36*
X273030D02*
X272932D01*
X270290Y409782D01*
X267920Y408414D01*
X265986Y406480D01*
X264618Y404110D01*
X263910Y401468D01*
Y401370D01*
X273030D01*
Y410490D01*
D02*
G37*
G36*
X30689Y416182D02*
X26000D01*
X25164Y415836D01*
X23848Y414520D01*
X23758Y414303D01*
X23592Y414137D01*
Y413901D01*
X23502Y413684D01*
X23592Y413467D01*
Y413232D01*
X23942Y412386D01*
Y411614D01*
X23646Y410900D01*
X23100Y410354D01*
X22213Y409986D01*
X22047Y409820D01*
X21830Y409730D01*
X21192Y409092D01*
X20880Y408339D01*
X19972D01*
Y399661D01*
X20915D01*
Y386420D01*
X20387Y385630D01*
X20155Y384460D01*
Y366021D01*
X20387Y364852D01*
X21050Y363861D01*
X23071Y361839D01*
X24062Y361177D01*
X25232Y360944D01*
X26825D01*
X30457Y357312D01*
X30036Y356296D01*
X29233D01*
X28085Y355820D01*
X27206Y354941D01*
X26730Y353793D01*
Y352550D01*
X27206Y351401D01*
X28085Y350523D01*
X29233Y350047D01*
X30476D01*
X31624Y350523D01*
X32503Y351401D01*
X32979Y352550D01*
Y353502D01*
X33666Y354015D01*
X33917Y354096D01*
X34171Y353927D01*
X35340Y353694D01*
X36663D01*
X36768Y353514D01*
X36975Y352678D01*
X36273Y351977D01*
X35798Y350828D01*
Y349585D01*
X36273Y348437D01*
X37152Y347558D01*
X38300Y347083D01*
X39543D01*
X40692Y347558D01*
X41500Y348367D01*
X42308Y347558D01*
X43457Y347083D01*
X44700D01*
X45848Y347558D01*
X46727Y348437D01*
X47202Y349585D01*
Y350320D01*
X47985Y351173D01*
X48132Y351238D01*
X48351Y351230D01*
X49230Y350351D01*
X50379Y349876D01*
X51621D01*
X52770Y350351D01*
X53649Y351230D01*
X54124Y352379D01*
Y353621D01*
X53649Y354770D01*
X52770Y355649D01*
X52488Y355765D01*
X49342Y358911D01*
X48351Y359573D01*
X47181Y359806D01*
X36606D01*
X30251Y366161D01*
X29260Y366823D01*
X28091Y367056D01*
X26498D01*
X26266Y367287D01*
Y383262D01*
X26794Y384052D01*
X27027Y385221D01*
Y399661D01*
X29339D01*
Y400790D01*
X30911D01*
Y400194D01*
X39589D01*
Y409560D01*
X37705D01*
X37525Y409740D01*
X37308Y409830D01*
X37142Y409996D01*
X36906D01*
X36689Y410086D01*
X36621Y410058D01*
X35614D01*
X34900Y410354D01*
X34354Y410900D01*
X34058Y411614D01*
Y412621D01*
X34114Y412757D01*
X34024Y412975D01*
X34024Y413210D01*
X33858Y413376D01*
X33768Y413593D01*
X31525Y415836D01*
X30689Y416182D01*
D02*
G37*
G36*
X206995Y409201D02*
X205752D01*
X204604Y408726D01*
X203725Y407847D01*
X203249Y406699D01*
Y405456D01*
X203725Y404307D01*
X204604Y403428D01*
X204879Y403314D01*
X205608Y402621D01*
X205133Y401473D01*
Y400230D01*
X205608Y399081D01*
X205733Y398956D01*
X205495Y397758D01*
X205230Y397649D01*
X204351Y396770D01*
X203876Y395621D01*
Y394379D01*
X204351Y393230D01*
X205230Y392351D01*
X206379Y391876D01*
X207621D01*
X208770Y392351D01*
X209649Y393230D01*
X210124Y394379D01*
Y395621D01*
X209649Y396770D01*
X209524Y396895D01*
X209762Y398093D01*
X210026Y398203D01*
X210905Y399081D01*
X211381Y400230D01*
Y401473D01*
X210905Y402621D01*
X210026Y403500D01*
X209751Y403614D01*
X209022Y404307D01*
X209498Y405456D01*
Y406699D01*
X209022Y407847D01*
X208143Y408726D01*
X206995Y409201D01*
D02*
G37*
G36*
X310090Y398830D02*
X300970D01*
Y389710D01*
X301068D01*
X303710Y390418D01*
X306080Y391786D01*
X308014Y393720D01*
X309382Y396090D01*
X310090Y398732D01*
Y398830D01*
D02*
G37*
G36*
X273030D02*
X263910D01*
Y398732D01*
X264618Y396090D01*
X265986Y393720D01*
X267920Y391786D01*
X270290Y390418D01*
X272932Y389710D01*
X273030D01*
Y398830D01*
D02*
G37*
G36*
X108582Y378114D02*
X107339D01*
X106191Y377639D01*
X105312Y376760D01*
X104836Y375611D01*
Y374369D01*
X105312Y373220D01*
X106191Y372341D01*
X107339Y371866D01*
X108582D01*
X109730Y372341D01*
X110609Y373220D01*
X111085Y374369D01*
Y375611D01*
X110609Y376760D01*
X109730Y377639D01*
X108582Y378114D01*
D02*
G37*
G36*
X62140Y388140D02*
X53431D01*
Y379860D01*
X53096Y379244D01*
X53096D01*
Y370567D01*
X53096D01*
X53404Y369825D01*
X51856Y368278D01*
X49972D01*
Y359722D01*
X58278D01*
X58722Y358890D01*
Y358722D01*
X67278D01*
Y359318D01*
X74500D01*
X75336Y359664D01*
X78836Y363164D01*
X79182Y364000D01*
Y370000D01*
X79028Y370372D01*
Y380028D01*
X77144D01*
X75336Y381836D01*
X74500Y382182D01*
X71582D01*
X70746Y381836D01*
X70614Y381704D01*
X69900Y381409D01*
X69128D01*
X68414Y381704D01*
X68282Y381836D01*
X67446Y382182D01*
X66214D01*
X62140Y386256D01*
Y388140D01*
D02*
G37*
G36*
X202374Y366372D02*
X201131D01*
X199982Y365897D01*
X199104Y365018D01*
X198628Y363869D01*
Y362626D01*
X199104Y361478D01*
X199982Y360599D01*
X201131Y360124D01*
X202374D01*
X203522Y360599D01*
X204401Y361478D01*
X204876Y362626D01*
Y363869D01*
X204401Y365018D01*
X203522Y365897D01*
X202374Y366372D01*
D02*
G37*
G36*
X10621Y365124D02*
X9379D01*
X8230Y364649D01*
X7351Y363770D01*
X6876Y362621D01*
Y361379D01*
X7351Y360230D01*
X8230Y359351D01*
X9379Y358876D01*
X10621D01*
X11770Y359351D01*
X12649Y360230D01*
X13124Y361379D01*
Y362621D01*
X12649Y363770D01*
X11770Y364649D01*
X10621Y365124D01*
D02*
G37*
G36*
X225413Y359105D02*
X216047D01*
Y357822D01*
X210549D01*
X210464Y357857D01*
X209221D01*
X208073Y357382D01*
X207194Y356503D01*
X206718Y355354D01*
Y354112D01*
X207194Y352963D01*
X208073Y352084D01*
X209221Y351609D01*
X210464D01*
X210708Y351710D01*
X216047D01*
Y350427D01*
X217678D01*
Y347188D01*
X215959D01*
Y336882D01*
X225515D01*
Y347188D01*
X223790D01*
Y350427D01*
X225413D01*
Y359105D01*
D02*
G37*
G36*
X209842Y348534D02*
X208599D01*
X207451Y348059D01*
X206572Y347180D01*
X206097Y346031D01*
Y344789D01*
X206572Y343640D01*
X207451Y342761D01*
X208599Y342286D01*
X209842D01*
X210991Y342761D01*
X211870Y343640D01*
X212345Y344789D01*
Y346031D01*
X211870Y347180D01*
X210991Y348059D01*
X209842Y348534D01*
D02*
G37*
G36*
X243118Y336927D02*
X235062D01*
Y334830D01*
X233314D01*
X232144Y334598D01*
X231153Y333935D01*
X230189Y332972D01*
X230025Y332904D01*
X229146Y332025D01*
X228670Y330876D01*
Y329633D01*
X229146Y328485D01*
X230025Y327606D01*
X231173Y327131D01*
X232416D01*
X233564Y327606D01*
X234046Y328088D01*
X235062Y327667D01*
Y326621D01*
X236083D01*
Y324029D01*
X234410D01*
Y313722D01*
X243966D01*
Y315946D01*
X245502D01*
Y314790D01*
X254869D01*
Y323467D01*
X245502D01*
Y322058D01*
X243966D01*
Y324029D01*
X242195D01*
Y326621D01*
X243118D01*
Y336927D01*
D02*
G37*
G36*
X308642Y332842D02*
X290758D01*
Y314958D01*
X295944D01*
Y310140D01*
X293860D01*
Y299431D01*
X304140D01*
Y310140D01*
X302056D01*
Y314958D01*
X308642D01*
Y332842D01*
D02*
G37*
G36*
X223621Y298773D02*
X222379D01*
X221230Y298297D01*
X220351Y297418D01*
X219876Y296270D01*
Y295027D01*
X220351Y293879D01*
X221230Y293000D01*
X222379Y292524D01*
X223621D01*
X224770Y293000D01*
X225649Y293879D01*
X226124Y295027D01*
Y296270D01*
X225649Y297418D01*
X224770Y298297D01*
X223621Y298773D01*
D02*
G37*
G36*
X212621Y296124D02*
X211379D01*
X210230Y295649D01*
X209351Y294770D01*
X208876Y293621D01*
Y292379D01*
X209351Y291230D01*
X210230Y290351D01*
X211379Y289876D01*
X212621D01*
X213770Y290351D01*
X214649Y291230D01*
X215124Y292379D01*
Y293621D01*
X214649Y294770D01*
X213770Y295649D01*
X212621Y296124D01*
D02*
G37*
G36*
X17339Y292339D02*
X8661D01*
Y282972D01*
X17339D01*
Y284599D01*
X19302D01*
X19882Y284019D01*
X21030Y283544D01*
X22273D01*
X23422Y284019D01*
X24300Y284898D01*
X24776Y286047D01*
Y287289D01*
X24300Y288438D01*
X23422Y289317D01*
X23139Y289433D01*
X22757Y289816D01*
X21765Y290479D01*
X20596Y290711D01*
X17339D01*
Y292339D01*
D02*
G37*
G36*
X307621Y277124D02*
X306379D01*
X305230Y276649D01*
X304351Y275770D01*
X303876Y274621D01*
Y273379D01*
X304351Y272230D01*
X305230Y271351D01*
X306379Y270876D01*
X307621D01*
X308770Y271351D01*
X309649Y272230D01*
X310124Y273379D01*
Y274621D01*
X309649Y275770D01*
X308770Y276649D01*
X307621Y277124D01*
D02*
G37*
%LPD*%
G36*
X269778Y618678D02*
X269944Y618511D01*
X270734Y618184D01*
X271280Y617638D01*
X271607Y616848D01*
X271773Y616682D01*
X271863Y616465D01*
X274500Y613828D01*
Y612711D01*
X273972D01*
Y604655D01*
X274500D01*
Y600215D01*
X269923Y595638D01*
X269629Y595932D01*
X264769D01*
Y604399D01*
X264867Y604497D01*
X259117D01*
X258028Y605585D01*
Y610618D01*
X260121Y612711D01*
X261355D01*
X261728Y612462D01*
X262947Y612220D01*
X264166Y612462D01*
X265199Y613153D01*
X265890Y614186D01*
X265993Y614704D01*
X267000Y615711D01*
Y618722D01*
X269671D01*
X269778Y618678D01*
D02*
G37*
G36*
X275980Y623823D02*
X276314Y623600D01*
X276598Y623316D01*
X276857Y623143D01*
X282000Y618000D01*
X287750D01*
X292250Y613500D01*
Y608500D01*
X290932Y607182D01*
X285879D01*
X285043Y606836D01*
X284640Y606433D01*
X275750D01*
Y614250D01*
X272699Y617301D01*
X272282Y618308D01*
X271403Y619187D01*
X270396Y619604D01*
X269500Y620500D01*
X268500D01*
Y625500D01*
X274303D01*
X275980Y623823D01*
D02*
G37*
G36*
X301472Y604838D02*
Y599439D01*
X297661D01*
X291972Y593750D01*
Y591828D01*
X291919Y591699D01*
Y590457D01*
X291972Y590328D01*
Y586672D01*
X291919Y586543D01*
Y585300D01*
X291972Y585172D01*
Y580972D01*
X280000Y569000D01*
X258028D01*
Y570528D01*
X239972D01*
Y569000D01*
X231000D01*
X229000Y571000D01*
Y577000D01*
X229095Y577095D01*
X229828Y577687D01*
Y577687D01*
X229828Y577687D01*
X247884D01*
Y578000D01*
X252950D01*
X253250Y577876D01*
X254493D01*
X254793Y578000D01*
X270137D01*
X270601Y576879D01*
X271480Y576000D01*
X272629Y575524D01*
X273871D01*
X275020Y576000D01*
X275899Y576879D01*
X276363Y578000D01*
X280094D01*
X285706Y583612D01*
Y584661D01*
X286339D01*
Y593750D01*
Y594028D01*
X279439D01*
Y599561D01*
X285879Y606000D01*
X300311D01*
X301472Y604838D01*
D02*
G37*
G36*
X144156Y457980D02*
X143750Y457000D01*
Y455757D01*
X144102Y454907D01*
X143616Y453890D01*
X137763D01*
X137040Y453747D01*
X136427Y453337D01*
X135534Y452444D01*
X135124Y451831D01*
X134980Y451107D01*
Y432130D01*
X133964Y431710D01*
X127916Y437757D01*
X127303Y438167D01*
X126580Y438311D01*
X125842D01*
X120864Y443289D01*
Y444361D01*
X120388Y445509D01*
X119509Y446388D01*
X118361Y446864D01*
X117118D01*
X116531Y446621D01*
X115515Y447261D01*
Y454516D01*
X117108Y456110D01*
X131496D01*
X132219Y456253D01*
X132833Y456663D01*
X135165Y458996D01*
X143745D01*
X144156Y457980D01*
D02*
G37*
G36*
X108972Y465472D02*
X127028D01*
Y468110D01*
X139217D01*
X140876Y466451D01*
Y465379D01*
X141351Y464230D01*
X141789Y463793D01*
X141368Y462777D01*
X134382D01*
X133659Y462633D01*
X133045Y462223D01*
X130713Y459891D01*
X116325D01*
X115602Y459747D01*
X114989Y459337D01*
X112288Y456636D01*
X111878Y456023D01*
X111734Y455300D01*
Y441904D01*
X98663Y428833D01*
X98544Y428654D01*
X97528Y428963D01*
Y434278D01*
X97457D01*
X97283Y435222D01*
X97283D01*
Y444278D01*
X95391D01*
Y446472D01*
X107028D01*
Y455528D01*
X103890D01*
Y456972D01*
X106528D01*
Y468359D01*
X108972D01*
Y465472D01*
D02*
G37*
G36*
X126250Y364750D02*
X134620Y356380D01*
Y349796D01*
X127124D01*
Y350621D01*
X126649Y351770D01*
X125770Y352649D01*
X124621Y353124D01*
X123502D01*
X121250Y355376D01*
Y367910D01*
X126250D01*
Y364750D01*
D02*
G37*
G36*
X265358Y348123D02*
X265967Y345849D01*
X267145Y343809D01*
X268809Y342145D01*
X270849Y340967D01*
X273123Y340358D01*
X275477D01*
X277752Y340967D01*
X279791Y342145D01*
X281455Y343809D01*
X282633Y345849D01*
X282928Y346950D01*
X283944Y346817D01*
Y337866D01*
X278106Y332028D01*
X277752Y332233D01*
X275477Y332842D01*
X273123D01*
X270849Y332233D01*
X270431Y331992D01*
X261778Y340646D01*
Y349360D01*
X265358D01*
Y348123D01*
D02*
G37*
G36*
X156629Y347876D02*
X157872D01*
X158220Y348020D01*
X158998Y347243D01*
X158879Y346957D01*
Y345714D01*
X159289Y344725D01*
Y343339D01*
X157661D01*
Y334661D01*
X159036D01*
Y332600D01*
X157284D01*
Y323044D01*
X159036D01*
Y320822D01*
X157155D01*
Y312745D01*
X157155Y312145D01*
X156793Y311278D01*
X156285Y310770D01*
X155809Y309621D01*
Y308379D01*
X156285Y307230D01*
X156937Y306578D01*
X156971Y305576D01*
X156971D01*
X157398Y303431D01*
X158613Y301613D01*
X158634Y301634D01*
X159948Y300756D01*
X161498Y300448D01*
X161610Y299478D01*
Y298740D01*
X160594Y298061D01*
X160391Y298145D01*
X159149D01*
X158000Y297669D01*
X157250Y296919D01*
X156662Y296847D01*
X156075Y296919D01*
X155324Y297669D01*
X155277Y297689D01*
X153699Y299267D01*
Y311062D01*
X154671D01*
Y321368D01*
X153596D01*
Y323044D01*
X155590D01*
Y332600D01*
X146310D01*
X145406Y333489D01*
X145464Y333915D01*
X145519Y333972D01*
X154528D01*
Y342472D01*
Y347598D01*
X155051D01*
X155774Y347741D01*
X156225Y348043D01*
X156629Y347876D01*
D02*
G37*
G36*
X32932Y412757D02*
X32876Y412621D01*
Y411379D01*
X33351Y410230D01*
X34230Y409351D01*
X35379Y408876D01*
X36621D01*
X36689Y408904D01*
X37811Y407782D01*
Y402250D01*
X30911D01*
Y401972D01*
X28093D01*
X27561Y401439D01*
X22028D01*
Y408256D01*
X22666Y408894D01*
X23770Y409351D01*
X24649Y410230D01*
X25124Y411379D01*
Y412621D01*
X24684Y413684D01*
X26000Y415000D01*
X30689D01*
X32932Y412757D01*
D02*
G37*
G36*
X65725Y381000D02*
X67446D01*
X67744Y380702D01*
X68893Y380227D01*
X70135D01*
X71284Y380702D01*
X71582Y381000D01*
X74500D01*
X77250Y378250D01*
Y373250D01*
X72750D01*
X72028Y372528D01*
X70972D01*
Y371472D01*
X70250Y370750D01*
X69684D01*
X68621Y371190D01*
X67379D01*
X66316Y370750D01*
X57263D01*
X55209Y372804D01*
Y386362D01*
X60362D01*
X65725Y381000D01*
D02*
G37*
G36*
X78000Y370000D02*
Y364000D01*
X74500Y360500D01*
X60500D01*
X59500Y361500D01*
X51750D01*
Y366500D01*
X55796Y370546D01*
X56427Y369914D01*
X57263Y369568D01*
X66316D01*
X66533Y369658D01*
X66768D01*
X67614Y370008D01*
X68386D01*
X69232Y369658D01*
X69467D01*
X69684Y369568D01*
X70250D01*
X71086Y369914D01*
X71808Y370636D01*
X71855Y370750D01*
X77250D01*
X78000Y370000D01*
D02*
G37*
%LPC*%
G36*
X160798Y218708D02*
X151431D01*
Y214008D01*
X151339Y213916D01*
X150942Y213322D01*
X140847D01*
Y212350D01*
X139339D01*
Y215931D01*
X130661D01*
Y206564D01*
X131944D01*
Y205339D01*
X130661D01*
Y205056D01*
X128278D01*
Y206278D01*
X115833D01*
X115631Y207294D01*
X115770Y207351D01*
X116649Y208230D01*
X117124Y209379D01*
Y210621D01*
X116649Y211770D01*
X115770Y212649D01*
X114621Y213124D01*
X113379D01*
X112230Y212649D01*
X111351Y211770D01*
X110876Y210621D01*
Y209379D01*
X111351Y208230D01*
X112230Y207351D01*
X112369Y207294D01*
X112167Y206278D01*
X111722D01*
Y202044D01*
X108388Y198709D01*
X107725Y197718D01*
X107628Y197232D01*
X107376Y196621D01*
Y195379D01*
X107851Y194230D01*
X108730Y193351D01*
X109879Y192876D01*
X111121D01*
X112270Y193351D01*
X113148Y194230D01*
X113570Y195249D01*
X116044Y197722D01*
X118804D01*
X119661Y197339D01*
Y187972D01*
X128339D01*
Y196731D01*
X128339Y197339D01*
X128339Y197339D01*
X128278Y197722D01*
X128278D01*
Y198944D01*
X130661D01*
Y195972D01*
X139339D01*
Y205339D01*
X139339D01*
X139620Y206238D01*
X140847D01*
Y205266D01*
X140847Y205266D01*
X140667Y204324D01*
X140376Y203621D01*
Y202379D01*
X140851Y201230D01*
X141730Y200351D01*
X142879Y199876D01*
X144121D01*
X144383Y199984D01*
X144647Y199876D01*
X145321Y199273D01*
Y198358D01*
X145797Y197209D01*
X146676Y196331D01*
X147824Y195855D01*
X149067D01*
X150215Y196331D01*
X151094Y197209D01*
X151570Y198358D01*
Y199318D01*
X152190Y199895D01*
X152488Y200037D01*
X152879Y199876D01*
X153159D01*
X155354Y197680D01*
Y195153D01*
X154347D01*
Y184847D01*
X155272D01*
Y182778D01*
X152847D01*
Y173222D01*
X155272D01*
Y171339D01*
X153597D01*
Y162661D01*
X154667D01*
X155550Y162339D01*
Y153661D01*
X164916D01*
Y158017D01*
X168674Y161775D01*
X169359Y162059D01*
X170238Y162937D01*
X170714Y164086D01*
Y165329D01*
X170238Y166477D01*
X169359Y167356D01*
X168211Y167831D01*
X166968D01*
X166178Y167504D01*
X166067Y167482D01*
X165972Y167419D01*
X165820Y167356D01*
X165704Y167239D01*
X165075Y166819D01*
X163902Y165646D01*
X162964Y166035D01*
Y171339D01*
X161384D01*
Y173222D01*
X163153D01*
Y182778D01*
X161384D01*
Y184847D01*
X162403D01*
Y195153D01*
X161466D01*
Y198108D01*
X161570Y198358D01*
Y199318D01*
X162190Y199895D01*
X162488Y200037D01*
X162878Y199876D01*
X164121D01*
X165270Y200351D01*
X166149Y201230D01*
X166624Y202379D01*
Y203621D01*
X166149Y204770D01*
X165270Y205649D01*
X164121Y206124D01*
X162878D01*
X161730Y205649D01*
X160851Y204770D01*
X160376Y203621D01*
Y202739D01*
X159403Y202275D01*
X156565Y205112D01*
X156556Y205119D01*
Y210031D01*
X160798D01*
Y218708D01*
D02*
G37*
G36*
X217621Y208124D02*
X216379D01*
X215230Y207649D01*
X214351Y206770D01*
X213876Y205621D01*
Y204379D01*
X214351Y203230D01*
X215230Y202351D01*
X216379Y201876D01*
X217621D01*
X218770Y202351D01*
X219649Y203230D01*
X220124Y204379D01*
Y205621D01*
X219649Y206770D01*
X218770Y207649D01*
X217621Y208124D01*
D02*
G37*
G36*
X94778Y213612D02*
X76222D01*
Y204056D01*
X81452D01*
X82106Y203040D01*
X81873Y202477D01*
Y201234D01*
X82349Y200086D01*
X83228Y199207D01*
X84376Y198731D01*
X85619D01*
X86767Y199207D01*
X87527Y199967D01*
X88021Y199968D01*
X88620Y199782D01*
X89017Y198822D01*
X89896Y197943D01*
X91045Y197467D01*
X92287D01*
X93436Y197943D01*
X94314Y198822D01*
X94790Y199970D01*
Y201213D01*
X94314Y202361D01*
X93636Y203040D01*
X93896Y203974D01*
X93947Y204056D01*
X94778D01*
Y213612D01*
D02*
G37*
G36*
X190153Y213403D02*
X179847D01*
Y205347D01*
X181944D01*
Y202425D01*
X182177Y201255D01*
X182839Y200264D01*
X184124Y198979D01*
X182080Y196936D01*
X181219Y197511D01*
X181570Y198358D01*
Y199601D01*
X181094Y200749D01*
X180215Y201628D01*
X179067Y202103D01*
X177824D01*
X177563Y201995D01*
X177298Y202103D01*
X176624Y202706D01*
Y203621D01*
X176149Y204770D01*
X175270Y205649D01*
X174121Y206124D01*
X172878D01*
X171730Y205649D01*
X170851Y204770D01*
X170376Y203621D01*
Y202379D01*
X170851Y201230D01*
X171730Y200351D01*
X172878Y199876D01*
X174121D01*
X174383Y199984D01*
X174647Y199876D01*
X175321Y199273D01*
Y198358D01*
X175797Y197209D01*
X176676Y196331D01*
X177824Y195855D01*
X179067D01*
X179913Y196206D01*
X180489Y195344D01*
X179839Y194694D01*
X179177Y193703D01*
X178944Y192534D01*
Y180778D01*
X176847D01*
Y171339D01*
X176661D01*
Y161972D01*
X185339D01*
Y170504D01*
X186057Y171222D01*
X186711Y171222D01*
X187048Y171166D01*
X187240Y171122D01*
X187252Y171117D01*
X187772Y170572D01*
X187840Y170104D01*
X187847Y170040D01*
X187847Y170010D01*
Y162847D01*
X198153D01*
X198661Y162041D01*
Y160972D01*
X207339D01*
Y170339D01*
X206056D01*
Y173214D01*
X206124Y173379D01*
Y174621D01*
X205649Y175770D01*
X204770Y176649D01*
X203621Y177124D01*
X202379D01*
X201230Y176649D01*
X200351Y175770D01*
X200169Y175329D01*
X199153Y175531D01*
Y180778D01*
X188847D01*
Y171643D01*
X188078Y171075D01*
X187661Y171099D01*
X187208Y171574D01*
X187153Y172085D01*
X187153Y172183D01*
Y180778D01*
X185056D01*
Y191268D01*
X190050Y196262D01*
X190215Y196331D01*
X191094Y197209D01*
X191570Y198358D01*
Y199601D01*
X191094Y200749D01*
X190215Y201628D01*
X190050Y201696D01*
X188056Y203690D01*
Y205347D01*
X190153D01*
Y213403D01*
D02*
G37*
G36*
X191621Y190124D02*
X190379D01*
X189230Y189649D01*
X188351Y188770D01*
X187876Y187621D01*
Y186379D01*
X188351Y185230D01*
X189230Y184351D01*
X190379Y183876D01*
X191621D01*
X192770Y184351D01*
X193649Y185230D01*
X194124Y186379D01*
Y187621D01*
X193649Y188770D01*
X192770Y189649D01*
X191621Y190124D01*
D02*
G37*
G36*
X146621Y189124D02*
X145379D01*
X144230Y188649D01*
X143351Y187770D01*
X142876Y186621D01*
Y185379D01*
X142944Y185214D01*
Y182778D01*
X140847D01*
Y182144D01*
X140339Y181339D01*
X131661D01*
Y171972D01*
X140339D01*
Y172417D01*
X140847Y173222D01*
X151153D01*
Y182778D01*
X149056D01*
Y185214D01*
X149124Y185379D01*
Y186621D01*
X148649Y187770D01*
X147770Y188649D01*
X146621Y189124D01*
D02*
G37*
G36*
X111121D02*
X109879D01*
X108730Y188649D01*
X107851Y187770D01*
X107376Y186621D01*
Y185379D01*
X107493Y185096D01*
Y181537D01*
X107725Y180368D01*
X108388Y179376D01*
X112954Y174810D01*
Y169765D01*
X121631D01*
Y179132D01*
X117276D01*
X113604Y182803D01*
Y185331D01*
X113624Y185379D01*
Y186621D01*
X113148Y187770D01*
X112270Y188649D01*
X111121Y189124D01*
D02*
G37*
G36*
X200339Y215028D02*
X191661D01*
Y205661D01*
X192944D01*
Y201786D01*
X192876Y201621D01*
Y200379D01*
X192993Y200096D01*
Y196951D01*
X193225Y195782D01*
X193888Y194791D01*
X195839Y192839D01*
X196831Y192177D01*
X198000Y191944D01*
X200734D01*
X215944Y176734D01*
Y174778D01*
X213847D01*
Y165222D01*
X215897D01*
Y163676D01*
X213754D01*
Y155620D01*
X224060D01*
Y163676D01*
X222009D01*
Y165222D01*
X224153D01*
Y174778D01*
X222056D01*
Y178000D01*
X221823Y179169D01*
X221161Y180161D01*
X207385Y193937D01*
X207806Y194952D01*
X208770Y195351D01*
X209649Y196230D01*
X210124Y197379D01*
Y198621D01*
X209649Y199770D01*
X208770Y200649D01*
X207621Y201124D01*
X206379D01*
X205230Y200649D01*
X204351Y199770D01*
X203876Y198621D01*
Y198573D01*
X203628Y198310D01*
X203099Y197946D01*
X202860Y197885D01*
X202000Y198056D01*
X199266D01*
X199104Y198217D01*
Y200331D01*
X199124Y200379D01*
Y201621D01*
X199056Y201786D01*
Y205661D01*
X200339D01*
Y215028D01*
D02*
G37*
G36*
X236153Y174778D02*
X225847D01*
Y165222D01*
X227833D01*
Y163971D01*
X226440D01*
Y154605D01*
X235117D01*
Y156232D01*
X237518D01*
X238379Y155876D01*
X239621D01*
X240770Y156351D01*
X240860Y156441D01*
X241198Y156420D01*
X241981Y156125D01*
X242351Y155230D01*
X242960Y154621D01*
X243121Y153968D01*
X242950Y153368D01*
X242327Y152745D01*
X241852Y151596D01*
Y150353D01*
X242327Y149205D01*
X242915Y148618D01*
X243114Y148005D01*
X242925Y147343D01*
X242351Y146770D01*
X241876Y145621D01*
Y144379D01*
X242351Y143230D01*
X243230Y142351D01*
X244379Y141876D01*
X245621D01*
X246770Y142351D01*
X247649Y143230D01*
X248124Y144379D01*
Y145621D01*
X247649Y146770D01*
X247061Y147357D01*
X246862Y147970D01*
X247051Y148632D01*
X247624Y149205D01*
X248100Y150353D01*
Y151596D01*
X247624Y152745D01*
X247015Y153353D01*
X246854Y154007D01*
X247025Y154607D01*
X247649Y155230D01*
X248124Y156379D01*
Y157621D01*
X247649Y158770D01*
X246770Y159649D01*
X245621Y160124D01*
X244379D01*
X243230Y159649D01*
X243140Y159558D01*
X242802Y159579D01*
X242019Y159874D01*
X241649Y160770D01*
X240770Y161649D01*
X240255Y161862D01*
X239881Y162111D01*
X238712Y162344D01*
X235117D01*
Y163971D01*
X233945D01*
Y165222D01*
X236153D01*
Y174778D01*
D02*
G37*
G36*
X186500Y153182D02*
X170189D01*
X169353Y152836D01*
X167856Y151339D01*
X165972D01*
Y142661D01*
X167856D01*
X169175Y141342D01*
X169182Y141223D01*
X168794Y140287D01*
X167360D01*
Y141328D01*
X157994D01*
Y132650D01*
X158839D01*
X158926Y131670D01*
X158926Y131634D01*
Y123614D01*
X166522D01*
Y116622D01*
X169339D01*
Y115528D01*
X166972D01*
Y111053D01*
X165956Y110510D01*
X165502Y110813D01*
X163881Y111136D01*
Y111088D01*
X160931D01*
X160649Y111770D01*
X159770Y112649D01*
X158621Y113124D01*
X157379D01*
X156230Y112649D01*
X155351Y111770D01*
X154876Y110622D01*
Y109379D01*
X155351Y108230D01*
X156160Y107422D01*
X155351Y106614D01*
X154876Y105465D01*
Y104222D01*
X155351Y103074D01*
X156230Y102195D01*
X157379Y101720D01*
X158621D01*
X159770Y102195D01*
X160649Y103074D01*
X160931Y103756D01*
X161819D01*
X162740Y103527D01*
X162740Y103527D01*
X164115Y102609D01*
X165736Y102286D01*
Y102334D01*
X166972D01*
Y96472D01*
X169739D01*
Y95378D01*
X167522D01*
Y86622D01*
X176678D01*
Y95378D01*
X173261D01*
Y96472D01*
X185028D01*
Y102334D01*
X211527D01*
X211534Y102330D01*
X212119Y102213D01*
X212351Y101652D01*
X213230Y100773D01*
X214379Y100298D01*
X215621D01*
X216770Y100773D01*
X217649Y101652D01*
X218124Y102801D01*
Y104043D01*
X217649Y105192D01*
X216840Y106000D01*
X217649Y106808D01*
X218124Y107957D01*
Y109200D01*
X217649Y110348D01*
X216770Y111227D01*
X215621Y111702D01*
X214379D01*
X213230Y111227D01*
X212351Y110348D01*
X212119Y109787D01*
X211534Y109670D01*
X211527Y109666D01*
X185028D01*
Y115528D01*
X172861D01*
Y116622D01*
X175678D01*
Y125378D01*
X169632D01*
X169474Y125596D01*
X169235Y126380D01*
X169721Y126876D01*
X170759D01*
X171907Y127351D01*
X172786Y128230D01*
X173262Y129379D01*
Y130621D01*
X172786Y131770D01*
X171907Y132649D01*
X170759Y133124D01*
X169516D01*
X168368Y132649D01*
X167360Y133078D01*
Y134175D01*
X169469D01*
X169516Y134155D01*
X170759D01*
X171907Y134630D01*
X172725Y134145D01*
X182069Y124800D01*
X182905Y124454D01*
X184661D01*
Y123858D01*
X193339D01*
Y132472D01*
X199028D01*
Y133068D01*
X202571D01*
X203407Y133414D01*
X206514Y136522D01*
X208778D01*
Y145478D01*
X206894D01*
X202036Y150336D01*
X201200Y150682D01*
X198278D01*
Y151278D01*
X188894D01*
X187336Y152836D01*
X186500Y153182D01*
D02*
G37*
G36*
X140678Y122378D02*
X131522D01*
Y116906D01*
X131209Y116593D01*
X130139Y116543D01*
X129452Y117235D01*
Y122351D01*
X120296D01*
Y113595D01*
X125781D01*
X126050Y112909D01*
X126082Y112579D01*
X125273Y111770D01*
X124798Y110622D01*
Y109379D01*
X125273Y108230D01*
X126152Y107351D01*
X126590Y107170D01*
Y106063D01*
X126724Y105389D01*
X126834Y105224D01*
Y104028D01*
X121472D01*
Y94972D01*
Y85972D01*
X126391D01*
X127036Y85187D01*
X126883Y84416D01*
X125558Y82434D01*
X125499Y82394D01*
X124294Y81190D01*
X124294Y81189D01*
X122712Y80132D01*
X121277Y79846D01*
X120264Y79839D01*
Y79839D01*
X116881Y79394D01*
X113729Y78088D01*
X111022Y76011D01*
X111077Y75956D01*
X111077Y75956D01*
X108591Y73469D01*
X108554Y73506D01*
X106356Y70827D01*
X104723Y67772D01*
X103717Y64456D01*
X103378Y61008D01*
X103429D01*
X103429Y61008D01*
Y57287D01*
X103438Y57245D01*
X103010Y55093D01*
X102316Y54055D01*
X101711Y53289D01*
X101194Y52945D01*
X100586Y52824D01*
Y52761D01*
X92000D01*
Y52787D01*
X89963Y53055D01*
X88065Y53841D01*
X86435Y55092D01*
X86417Y55074D01*
X79035Y62455D01*
X79035Y62455D01*
X79034Y62456D01*
X78421Y63218D01*
X76872Y65237D01*
X75525Y68488D01*
X75075Y71910D01*
X75088Y71977D01*
Y79069D01*
X75770Y79351D01*
X76649Y80230D01*
X77124Y81379D01*
Y82621D01*
X76649Y83770D01*
X75770Y84649D01*
X74621Y85124D01*
X73379D01*
X72230Y84649D01*
X71422Y83840D01*
X70613Y84649D01*
X69465Y85124D01*
X68222D01*
X67074Y84649D01*
X66195Y83770D01*
X65720Y82621D01*
Y81379D01*
X66195Y80230D01*
X67074Y79351D01*
X67756Y79069D01*
Y71977D01*
X67689D01*
X68090Y67908D01*
X69277Y63996D01*
X71204Y60390D01*
X73798Y57229D01*
X73845Y57276D01*
X73845Y57276D01*
X81242Y49879D01*
X81242Y49879D01*
X81214Y49851D01*
X83523Y47957D01*
X86156Y46549D01*
X89014Y45682D01*
X91986Y45389D01*
Y45429D01*
X100604D01*
Y45386D01*
X102929Y45692D01*
X105096Y46590D01*
X106217Y47449D01*
X107000Y48011D01*
X107000Y48011D01*
X107000Y48011D01*
X109083Y50725D01*
X110393Y53887D01*
X110839Y57279D01*
X110761D01*
Y61000D01*
X110766D01*
X111117Y63667D01*
X112147Y66153D01*
X113190Y67513D01*
X113783Y68285D01*
X113784Y68287D01*
X113784D01*
X113784Y68287D01*
X113784Y68294D01*
X116245Y70755D01*
X116269Y70791D01*
X118093Y72010D01*
X119837Y72357D01*
X120853Y72358D01*
Y72358D01*
X124026Y72776D01*
X126984Y74001D01*
X129524Y75950D01*
X129473Y76000D01*
X129473Y76000D01*
X130693Y77220D01*
X130693Y77220D01*
X130752Y77161D01*
X132921Y79987D01*
X134284Y83279D01*
X134639Y85972D01*
X140528D01*
Y94972D01*
Y104028D01*
X134534D01*
Y104989D01*
X134400Y105663D01*
X134166Y106013D01*
Y106066D01*
X134171Y106073D01*
X134305Y106746D01*
Y107126D01*
X134848Y107351D01*
X135727Y108230D01*
X136202Y109379D01*
Y110622D01*
X135727Y111770D01*
X134890Y112606D01*
X134903Y112826D01*
X135153Y113622D01*
X140678D01*
Y122378D01*
D02*
G37*
G36*
X227604Y97622D02*
X226361D01*
X225213Y97146D01*
X224334Y96267D01*
X223859Y95119D01*
Y93876D01*
X224334Y92728D01*
X225213Y91849D01*
X226361Y91373D01*
X227604D01*
X228752Y91849D01*
X229631Y92728D01*
X230107Y93876D01*
Y95119D01*
X229631Y96267D01*
X228752Y97146D01*
X227604Y97622D01*
D02*
G37*
G36*
X146621Y105374D02*
X145379D01*
X144230Y104899D01*
X143351Y104020D01*
X142876Y102871D01*
Y101629D01*
X143351Y100480D01*
X144230Y99601D01*
X144278Y99582D01*
X144661Y99198D01*
Y89972D01*
X153339D01*
Y99339D01*
X151400D01*
Y99837D01*
X151168Y101006D01*
X150505Y101998D01*
X148765Y103737D01*
X148649Y104020D01*
X147770Y104899D01*
X146621Y105374D01*
D02*
G37*
G36*
X238621Y96124D02*
X237379D01*
X236230Y95649D01*
X235351Y94770D01*
X234876Y93621D01*
Y92379D01*
X235351Y91230D01*
X236230Y90351D01*
X237379Y89876D01*
X238621D01*
X239770Y90351D01*
X240649Y91230D01*
X241124Y92379D01*
Y93621D01*
X240649Y94770D01*
X239770Y95649D01*
X238621Y96124D01*
D02*
G37*
G36*
X49789Y90790D02*
X49770D01*
Y82270D01*
X58290D01*
Y82289D01*
X57623Y84779D01*
X56334Y87011D01*
X54511Y88834D01*
X52279Y90123D01*
X49789Y90790D01*
D02*
G37*
G36*
X47230D02*
X47211D01*
X44721Y90123D01*
X42489Y88834D01*
X40666Y87011D01*
X39377Y84779D01*
X38710Y82289D01*
Y82270D01*
X47230D01*
Y90790D01*
D02*
G37*
G36*
X25000Y76649D02*
X22770D01*
Y72270D01*
X30396D01*
X30219Y73162D01*
X28994Y74994D01*
X27162Y76219D01*
X25000Y76649D01*
D02*
G37*
G36*
X20230D02*
X18000D01*
X15838Y76219D01*
X14006Y74994D01*
X12781Y73162D01*
X12604Y72270D01*
X20230D01*
Y76649D01*
D02*
G37*
G36*
X58290Y79730D02*
X49770D01*
Y71210D01*
X49789D01*
X52279Y71877D01*
X54511Y73166D01*
X56334Y74989D01*
X57623Y77221D01*
X58290Y79711D01*
Y79730D01*
D02*
G37*
G36*
X47230D02*
X38710D01*
Y79711D01*
X39377Y77221D01*
X40666Y74989D01*
X42489Y73166D01*
X44721Y71877D01*
X47211Y71210D01*
X47230D01*
Y79730D01*
D02*
G37*
G36*
X298621Y77124D02*
X297379D01*
X296230Y76649D01*
X295351Y75770D01*
X294876Y74621D01*
Y73379D01*
X295351Y72230D01*
X296230Y71351D01*
X297379Y70876D01*
X298621D01*
X299770Y71351D01*
X300649Y72230D01*
X301124Y73379D01*
Y74621D01*
X300649Y75770D01*
X299770Y76649D01*
X298621Y77124D01*
D02*
G37*
G36*
X161211Y76233D02*
X159968D01*
X158820Y75757D01*
X157941Y74879D01*
X157466Y73730D01*
Y72487D01*
X157941Y71339D01*
X158820Y70460D01*
X159968Y69985D01*
X161211D01*
X162360Y70460D01*
X163238Y71339D01*
X163714Y72487D01*
Y73730D01*
X163238Y74879D01*
X162360Y75757D01*
X161211Y76233D01*
D02*
G37*
G36*
X30396Y69730D02*
X22770D01*
Y65351D01*
X25000D01*
X27162Y65781D01*
X28994Y67006D01*
X30219Y68838D01*
X30396Y69730D01*
D02*
G37*
G36*
X20230D02*
X12604D01*
X12781Y68838D01*
X14006Y67006D01*
X15838Y65781D01*
X18000Y65351D01*
X20230D01*
Y69730D01*
D02*
G37*
G36*
X290401Y53328D02*
X288892D01*
X288880Y53326D01*
X288868Y53328D01*
X288425Y53325D01*
X286939D01*
X286545Y53247D01*
X286143D01*
X283210Y52663D01*
X282838Y52510D01*
X282445Y52431D01*
X279681Y51287D01*
X279347Y51063D01*
X278976Y50910D01*
X276489Y49248D01*
X276205Y48964D01*
X275871Y48741D01*
X273756Y46626D01*
X273533Y46292D01*
X273249Y46008D01*
X271588Y43521D01*
X271434Y43150D01*
X271211Y42816D01*
X270066Y40053D01*
X269988Y39659D01*
X269834Y39288D01*
X269251Y36354D01*
Y35953D01*
X269172Y35559D01*
Y32209D01*
X269251Y31815D01*
Y31414D01*
X269846Y28422D01*
X269999Y28051D01*
X270078Y27657D01*
X271245Y24839D01*
X271468Y24505D01*
X271622Y24134D01*
X273316Y21598D01*
X273600Y21314D01*
X273824Y20980D01*
X275980Y18823D01*
X276314Y18600D01*
X276598Y18316D01*
X279135Y16621D01*
X279506Y16467D01*
X279840Y16244D01*
X282658Y15077D01*
X283051Y14999D01*
X283423Y14845D01*
X286414Y14250D01*
X286816D01*
X287210Y14172D01*
X291199D01*
X291593Y14250D01*
X291994D01*
X294783Y14805D01*
X295155Y14958D01*
X295549Y15037D01*
X298176Y16125D01*
X298510Y16348D01*
X298881Y16502D01*
X301245Y18082D01*
X301530Y18366D01*
X301864Y18589D01*
X303874Y20600D01*
X304098Y20934D01*
X304382Y21218D01*
X305961Y23582D01*
X306115Y23954D01*
X306338Y24288D01*
X307427Y26915D01*
X307505Y27309D01*
X307659Y27680D01*
X308214Y30469D01*
Y30871D01*
X308292Y31265D01*
Y35436D01*
X308214Y35830D01*
Y36232D01*
X307625Y39192D01*
X307471Y39563D01*
X307393Y39957D01*
X306238Y42746D01*
X306014Y43080D01*
X305861Y43451D01*
X304184Y45960D01*
X303900Y46245D01*
X303677Y46578D01*
X301543Y48713D01*
X301209Y48936D01*
X300924Y49220D01*
X298415Y50897D01*
X298044Y51050D01*
X297710Y51274D01*
X294921Y52429D01*
X294527Y52507D01*
X294156Y52661D01*
X291196Y53250D01*
X290795D01*
X290401Y53328D01*
D02*
G37*
G36*
X30401D02*
X28891D01*
X28880Y53326D01*
X28868Y53328D01*
X28425Y53325D01*
X26939D01*
X26545Y53247D01*
X26143D01*
X23210Y52663D01*
X22838Y52510D01*
X22445Y52431D01*
X19681Y51287D01*
X19347Y51063D01*
X18976Y50910D01*
X16489Y49248D01*
X16205Y48964D01*
X15871Y48741D01*
X13756Y46626D01*
X13533Y46292D01*
X13249Y46008D01*
X11588Y43521D01*
X11434Y43150D01*
X11211Y42816D01*
X10066Y40053D01*
X9988Y39659D01*
X9834Y39288D01*
X9251Y36354D01*
Y35953D01*
X9172Y35559D01*
Y32209D01*
X9251Y31815D01*
Y31414D01*
X9846Y28422D01*
X9999Y28051D01*
X10078Y27657D01*
X11245Y24839D01*
X11468Y24505D01*
X11622Y24134D01*
X13316Y21598D01*
X13600Y21314D01*
X13824Y20980D01*
X15980Y18823D01*
X16314Y18600D01*
X16598Y18316D01*
X19135Y16621D01*
X19506Y16467D01*
X19840Y16244D01*
X22658Y15077D01*
X23052Y14999D01*
X23423Y14845D01*
X26414Y14250D01*
X26816D01*
X27210Y14172D01*
X31199D01*
X31593Y14250D01*
X31994D01*
X34783Y14805D01*
X35155Y14958D01*
X35549Y15037D01*
X38176Y16125D01*
X38510Y16348D01*
X38881Y16502D01*
X41245Y18082D01*
X41530Y18366D01*
X41863Y18589D01*
X43874Y20600D01*
X44098Y20934D01*
X44382Y21218D01*
X45961Y23582D01*
X46115Y23954D01*
X46338Y24288D01*
X47427Y26915D01*
X47505Y27309D01*
X47659Y27680D01*
X48214Y30469D01*
Y30871D01*
X48292Y31265D01*
Y35436D01*
X48214Y35830D01*
Y36232D01*
X47625Y39192D01*
X47471Y39563D01*
X47393Y39957D01*
X46238Y42746D01*
X46014Y43080D01*
X45861Y43451D01*
X44184Y45960D01*
X43900Y46245D01*
X43677Y46578D01*
X41543Y48713D01*
X41209Y48936D01*
X40925Y49220D01*
X38415Y50897D01*
X38044Y51050D01*
X37710Y51274D01*
X34922Y52429D01*
X34527Y52507D01*
X34156Y52661D01*
X31196Y53250D01*
X30794D01*
X30401Y53328D01*
D02*
G37*
G36*
X250126Y58716D02*
X248884D01*
X247735Y58240D01*
X246856Y57362D01*
X246381Y56213D01*
Y54970D01*
X246856Y53822D01*
X247735Y52943D01*
X248884Y52468D01*
X250126D01*
X251275Y52943D01*
X252154Y53822D01*
X252629Y54970D01*
Y56213D01*
X252154Y57362D01*
X251275Y58240D01*
X250126Y58716D01*
D02*
G37*
G36*
X260261Y54822D02*
X259018D01*
X258853Y54753D01*
X256447D01*
X255278Y54521D01*
X254286Y53858D01*
X249706Y49278D01*
X244222D01*
Y39222D01*
Y30722D01*
X246149D01*
Y22215D01*
X246129Y22168D01*
Y20925D01*
X246605Y19776D01*
X247484Y18898D01*
X248632Y18422D01*
X249875D01*
X251023Y18898D01*
X251902Y19776D01*
X252378Y20925D01*
Y22168D01*
X252261Y22450D01*
Y30722D01*
X253778D01*
Y39222D01*
Y44706D01*
X257713Y48642D01*
X258853D01*
X259018Y48573D01*
X260261D01*
X261409Y49049D01*
X262288Y49928D01*
X262763Y51076D01*
Y52319D01*
X262288Y53467D01*
X261409Y54346D01*
X260261Y54822D01*
D02*
G37*
G36*
X182226Y41878D02*
X180983D01*
X179835Y41402D01*
X178956Y40524D01*
X178480Y39375D01*
Y38132D01*
X178956Y36984D01*
X179835Y36105D01*
X180983Y35629D01*
X182226D01*
X183374Y36105D01*
X184253Y36984D01*
X184729Y38132D01*
Y39375D01*
X184253Y40524D01*
X183374Y41402D01*
X182226Y41878D01*
D02*
G37*
G36*
X139436Y39201D02*
X138193D01*
X137044Y38726D01*
X136166Y37847D01*
X135690Y36699D01*
Y35456D01*
X136166Y34307D01*
X137044Y33429D01*
X138193Y32953D01*
X139436D01*
X140584Y33429D01*
X141463Y34307D01*
X141938Y35456D01*
Y36699D01*
X141463Y37847D01*
X140584Y38726D01*
X139436Y39201D01*
D02*
G37*
%LPD*%
G36*
X207000Y143700D02*
Y138679D01*
X202571Y134250D01*
X191750D01*
Y143750D01*
X191000Y144500D01*
Y149500D01*
X201200D01*
X207000Y143700D01*
D02*
G37*
G36*
X189000Y149500D02*
Y140500D01*
X188250Y139750D01*
Y134757D01*
X189972Y133035D01*
Y132472D01*
X190536D01*
X191561Y131447D01*
Y125914D01*
X184661D01*
Y125636D01*
X182905D01*
X173561Y134981D01*
Y138629D01*
X168028Y144162D01*
Y149838D01*
X170189Y152000D01*
X186500D01*
X189000Y149500D01*
D02*
G37*
%LPC*%
G36*
X25000Y146649D02*
X22770D01*
Y142270D01*
X30396D01*
X30219Y143162D01*
X28994Y144994D01*
X27162Y146219D01*
X25000Y146649D01*
D02*
G37*
G36*
X30396Y139730D02*
X22770D01*
Y135351D01*
X25000D01*
X27162Y135781D01*
X28994Y137006D01*
X30219Y138838D01*
X30396Y139730D01*
D02*
G37*
G36*
X47230Y140790D02*
X47211D01*
X44721Y140123D01*
X42489Y138834D01*
X40666Y137011D01*
X39377Y134779D01*
X38710Y132289D01*
Y132270D01*
X47230D01*
Y140790D01*
D02*
G37*
%LPD*%
D12*
X274300Y323900D02*
G03*
X273204Y326546I-3742J0D01*
G01*
X112780Y495061D02*
G03*
X114000Y498005I-2944J2944D01*
G01*
X127732Y495061D02*
G03*
X130000Y496000I0J3207D01*
G01*
X219715Y429753D02*
G03*
X221680Y425004I6722J0D01*
G01*
X219715Y443000D02*
G03*
X221958Y449494I-8279J6494D01*
G01*
X221680Y425004D02*
G03*
X221684Y425000I4757J4750D01*
G01*
X210037Y440259D02*
G03*
X217000Y444000I-2732J13436D01*
G01*
X207824Y441175D02*
G03*
X210037Y440259I2212J2212D01*
G01*
X223657Y466657D02*
G03*
X218000Y453000I13657J-13657D01*
G01*
X231243Y470000D02*
G03*
X224000Y467000I0J-10243D01*
G01*
X263000Y470000D02*
G03*
X269828Y472828I0J9657D01*
G01*
X272000Y480220D02*
G03*
X270000Y475392I4828J-4828D01*
G01*
X278711Y483000D02*
G03*
X272000Y480220I0J-9490D01*
G01*
X217000Y444000D02*
G03*
X218000Y446414I-2414J2414D01*
G01*
X227943Y463942D02*
G03*
X221958Y449494I14449J-14449D01*
G01*
X232828Y466000D02*
G03*
X228000Y464000I0J-6828D01*
G01*
X277598Y466000D02*
G03*
X283629Y468498I0J8529D01*
G01*
X294872D02*
G03*
X300853Y470975I0J8458D01*
G01*
X220176Y264445D02*
G03*
X236000Y271000I0J22378D01*
G01*
D02*
G03*
X238000Y275828I-4828J4828D01*
G01*
X241536Y291535D02*
G03*
X238000Y283000I8536J-8536D01*
G01*
X249243Y295000D02*
G03*
X242000Y292000I0J-10243D01*
G01*
X271500D02*
G03*
X264257Y295000I-7243J-7243D01*
G01*
X274234Y285400D02*
G03*
X271500Y292000I-9334J0D01*
G01*
X274000Y267000D02*
G03*
X279222Y254390I17837J0D01*
G01*
D02*
G03*
X279224Y254388I12615J12610D01*
G01*
X286930Y246681D02*
G03*
X301250Y240750I14319J14319D01*
G01*
X302259Y249668D02*
G03*
X301250Y249250I0J-1427D01*
G01*
X158933Y305576D02*
G03*
X160000Y303000I3643J0D01*
G01*
D02*
G03*
X161498Y302379I1498J1498D01*
G01*
X208815Y478185D02*
G03*
X208818Y478182I3809J3803D01*
G01*
X207241Y481988D02*
G03*
X208815Y478185I5382J0D01*
G01*
X209795Y477205D02*
G03*
X210728Y476509I2852J2852D01*
G01*
D02*
G03*
X212648Y476023I1919J3548D01*
G01*
X210000Y495000D02*
G03*
X207241Y488340I6660J-6660D01*
G01*
X212426Y496005D02*
G03*
X210000Y495000I0J-3431D01*
G01*
X215426Y496005D02*
G03*
X219828Y497828I0J6225D01*
G01*
X241000Y515000D02*
G03*
X234172Y512172I0J-9657D01*
G01*
X241000Y515000D02*
G03*
X244414Y516414I0J4828D01*
G01*
X258071Y523000D02*
G03*
X246000Y518000I0J-17071D01*
G01*
X300621Y521518D02*
G03*
X297043Y523000I-3578J-3578D01*
G01*
X205000Y529250D02*
G03*
X205604Y529000I604J604D01*
G01*
X262271D02*
G03*
X268000Y531373I0J8102D01*
G01*
X259582Y224398D02*
G03*
X259400Y223182I3974J-1216D01*
G01*
X260617Y226121D02*
G03*
X259582Y224398I2939J-2939D01*
G01*
X267900Y213400D02*
G03*
X272150Y223661I-10261J10261D01*
G01*
X274300Y349300D02*
G03*
X269592Y351250I-4708J-4708D01*
G01*
X213573Y232000D02*
G03*
X219477Y234445I0J8350D01*
G01*
X187000Y234000D02*
G03*
X191828Y232000I4828J4828D01*
G01*
X185000Y238828D02*
G03*
X187000Y234000I6828J0D01*
G01*
X185000Y241000D02*
G03*
X183586Y244414I-4828J0D01*
G01*
X183000Y245000D02*
G03*
X178172Y247000I-4828J-4828D01*
G01*
X127000Y264500D02*
G03*
X137864Y260000I10864J10864D01*
G01*
X154000Y259000D02*
G03*
X151586Y260000I-2414J-2414D01*
G01*
X154233Y258767D02*
G03*
X154232Y258768I-4269J-4267D01*
G01*
X156000Y254500D02*
G03*
X154233Y258767I-6036J0D01*
G01*
X156000Y251414D02*
G03*
X157000Y249000I3414J0D01*
G01*
D02*
G03*
X161829Y247000I4829J4829D01*
G01*
X205000Y520750D02*
X210000D01*
Y514000D02*
Y520750D01*
X174888Y302379D02*
X175138D01*
X178922Y298596D01*
X181514D02*
X182000Y298110D01*
X178922Y298596D02*
X181514D01*
X117740Y443740D02*
X125059Y436420D01*
X126580D02*
X133413Y429587D01*
X125059Y436420D02*
X126580D01*
X113625Y455300D02*
X116325Y458000D01*
X113625Y441121D02*
Y455300D01*
X100000Y427496D02*
X113625Y441121D01*
X133413Y417591D02*
Y429587D01*
X20000Y123000D02*
X24821D01*
X28112Y119709D01*
X60000D01*
X12000Y234000D02*
Y240378D01*
X12621Y241000D01*
X123750Y396433D02*
Y407928D01*
X133413Y417591D01*
X136871Y426307D02*
Y451107D01*
X137763Y452000D01*
X136871Y426307D02*
X138000Y425178D01*
X137763Y452000D02*
X146874D01*
X131496Y458000D02*
X134382Y460886D01*
X116325Y458000D02*
X131496D01*
X106677Y407838D02*
X112730D01*
X106347Y408169D02*
X106677Y407838D01*
X112730D02*
X114420Y406149D01*
X98114Y414890D02*
X104835Y408169D01*
X106347D01*
X123750Y396433D02*
X132184Y388000D01*
X165000D01*
X169000Y384000D01*
Y373000D02*
Y384000D01*
X163337Y356785D02*
X163514Y356607D01*
X163337Y367337D02*
X169000Y373000D01*
X163514Y354115D02*
X164000Y353629D01*
X163514Y354115D02*
Y356607D01*
X163337Y356785D02*
Y367337D01*
X277458Y418579D02*
X277944Y419065D01*
X270861Y415744D02*
X273696Y418579D01*
X265967Y413000D02*
X268711Y415744D01*
X273696Y418579D02*
X277458D01*
X268711Y415744D02*
X270861D01*
X265967Y411967D02*
Y413000D01*
X254000Y400000D02*
X265967Y411967D01*
X244298Y400000D02*
X254000D01*
X224919Y380621D02*
X244298Y400000D01*
X209114Y380621D02*
X224919D01*
X302344Y483992D02*
X305945D01*
X306431Y484478D01*
X292250Y483000D02*
X301351D01*
X302344Y483992D01*
X171965Y456231D02*
X193231D01*
X209390Y501114D02*
X212610D01*
X214886Y503390D01*
X205245Y501876D02*
X208628D01*
X214886Y503390D02*
Y509241D01*
X195257Y491887D02*
X205245Y501876D01*
X208628D02*
X209390Y501114D01*
X214886Y509241D02*
X218029Y512383D01*
X195257Y491257D02*
Y491887D01*
X195114Y491114D02*
X195257Y491257D01*
X195114Y471885D02*
Y491114D01*
Y471885D02*
X199369Y467630D01*
Y462369D02*
Y467630D01*
X193231Y456231D02*
X199369Y462369D01*
X134382Y460886D02*
X151565D01*
X157006Y455446D01*
X100000Y424000D02*
Y427496D01*
X157006Y455446D02*
X171180D01*
X171965Y456231D01*
X98114Y422114D02*
X100000Y424000D01*
X98114Y414890D02*
Y422114D01*
X114420Y399996D02*
Y406149D01*
X158933Y305576D02*
Y309000D01*
X286000Y459000D02*
X289129D01*
X291129Y457000D02*
X307387D01*
X289129Y459000D02*
X291129Y457000D01*
X223204Y405000D02*
X245190D01*
X279000Y452000D02*
X286000Y459000D01*
X267000Y451107D02*
X267893Y452000D01*
X279000D01*
X267000Y426810D02*
Y451107D01*
X245190Y405000D02*
X267000Y426810D01*
X207504Y420700D02*
X223204Y405000D01*
X207504Y420700D02*
Y431615D01*
X187754Y451365D02*
X207504Y431615D01*
X177249Y451365D02*
X187754D01*
X272750Y432478D02*
X279000Y426228D01*
Y426000D02*
Y426228D01*
X272750Y432478D02*
Y432728D01*
X257000Y342750D02*
X273204Y326546D01*
X305618Y432823D02*
Y445994D01*
X305231Y432436D02*
X305618Y432823D01*
X294201Y432751D02*
X300366Y438917D01*
Y440482D02*
X300853Y440968D01*
X294201Y432501D02*
Y432751D01*
X300366Y438917D02*
Y440482D01*
X241500Y608250D02*
Y612238D01*
X245435Y616173D01*
X241250Y608000D02*
X241500Y608250D01*
X277000Y545000D02*
X281000Y549000D01*
Y558000D01*
X250139Y545000D02*
X277000D01*
X241253Y553886D02*
X250139Y545000D01*
X235382Y553886D02*
X241253D01*
X234610Y553114D02*
X235382Y553886D01*
X223752Y553114D02*
X234610D01*
X212866Y564000D02*
X223752Y553114D01*
X189000Y564000D02*
X212866D01*
X174674Y604000D02*
X176912Y601762D01*
X174500Y604000D02*
X174674D01*
X176912Y576088D02*
Y601762D01*
Y576088D02*
X189000Y564000D01*
X153923Y604004D02*
X165996D01*
X166000Y604000D01*
X180300Y653700D02*
X193000Y641000D01*
Y608250D02*
Y641000D01*
X113252Y507748D02*
X114000Y507000D01*
Y498005D02*
Y507000D01*
X121280Y495061D02*
X127732D01*
X219715Y429753D02*
Y443000D01*
X248055Y204250D02*
X267150D01*
X271186Y208286D01*
X201000Y448000D02*
X207825Y441175D01*
X218000Y446414D02*
Y453000D01*
X223657Y466657D02*
X224000Y467000D01*
X231243Y470000D02*
X263000D01*
X269828Y472828D02*
X270000Y473000D01*
Y475392D01*
X278711Y483000D02*
X283750D01*
X227943Y463942D02*
X228000Y464000D01*
X232828Y466000D02*
X277598D01*
X292129Y468498D02*
X294872D01*
X78250Y288625D02*
Y294000D01*
Y284000D02*
Y288625D01*
X62000Y292878D02*
Y295700D01*
X74091Y307791D01*
X84289D01*
X62000Y292878D02*
X65732Y289146D01*
X73476D01*
X73997Y288625D01*
X78250D01*
X271186Y208286D02*
X284800D01*
X81500Y208834D02*
X83738Y206596D01*
Y206346D02*
X84511Y205573D01*
Y202341D02*
X84997Y201855D01*
X81250Y208834D02*
X81500D01*
X83738Y206346D02*
Y206596D01*
X84511Y202341D02*
Y205573D01*
X89750Y203195D02*
X91666Y201279D01*
X89750Y203195D02*
Y208834D01*
X91666Y200592D02*
Y201279D01*
X27250Y220000D02*
X29488Y222238D01*
Y225488D02*
X33500Y229500D01*
X27000Y220000D02*
X27250D01*
X29488Y222238D02*
Y225488D01*
X33500Y229500D02*
X34000D01*
X26417Y220583D02*
X27000Y220000D01*
X7249Y220583D02*
X26417D01*
X129057Y229762D02*
X134032D01*
X122952Y229555D02*
X128850D01*
X134032Y229762D02*
X136270Y232000D01*
X128850Y229555D02*
X129057Y229762D01*
X127290Y234500D02*
X136020Y243230D01*
X126973Y234500D02*
X127290D01*
X136020Y243230D02*
X136270D01*
X91212Y110035D02*
X96250Y115073D01*
Y122000D01*
X39000Y160500D02*
X57500D01*
X60031Y151000D02*
Y157969D01*
X57500Y160500D02*
X60031Y157969D01*
X73000Y157000D02*
X90000D01*
X63114Y147114D02*
X73000Y157000D01*
X56773Y148762D02*
X58421Y147114D01*
X63114D01*
X51250Y151000D02*
X53488Y148762D01*
X56773D01*
X19000Y161000D02*
X29000Y151000D01*
X42750D01*
X19000Y161000D02*
Y170000D01*
X28080Y181454D02*
Y182294D01*
X15742Y194632D02*
X28080Y182294D01*
X30034Y179500D02*
X39000D01*
X28080Y181454D02*
X30034Y179500D01*
X10086Y203250D02*
X17332D01*
X19344Y201238D01*
X9152Y188902D02*
X13972D01*
X8000Y187750D02*
X9152Y188902D01*
X8000Y176250D02*
Y187750D01*
X167490Y127642D02*
X169848Y130000D01*
X162954Y127642D02*
X167490D01*
X169848Y130000D02*
X170138D01*
X84289Y291961D02*
X89875Y286375D01*
X91000D01*
X84289Y291961D02*
Y299000D01*
X71000Y301000D02*
X82289D01*
X84289Y299000D01*
X69750Y294000D02*
Y299750D01*
X71000Y301000D01*
X177225Y358394D02*
Y364549D01*
X178674Y365997D01*
X249939Y183388D02*
X255192D01*
X248055Y184584D02*
X248743D01*
X255192Y183388D02*
X257430Y181150D01*
X248743Y184584D02*
X249939Y183388D01*
X248055Y196713D02*
X255463D01*
X255750Y197000D01*
X299000Y186500D02*
X301238Y184262D01*
X301488D02*
X301750Y184000D01*
X299000Y186500D02*
Y186750D01*
X301238Y184262D02*
X301488D01*
X301750Y184000D02*
X311487D01*
X302550Y171700D02*
X311487D01*
X302250Y172000D02*
X302550Y171700D01*
X293117Y144677D02*
X298678D01*
X301800Y147800D01*
Y154451D01*
X19344Y201238D02*
X33080D01*
X269500Y299000D02*
X274500Y304000D01*
X244000Y299000D02*
X269500D01*
X274500Y304000D02*
X274750D01*
X41000Y288000D02*
X47000Y282000D01*
X40000Y289000D02*
X41000Y288000D01*
X40000Y289000D02*
X40000D01*
X47000Y278000D02*
Y282000D01*
Y278000D02*
X49107Y275893D01*
X56000Y271250D02*
Y271500D01*
X51607Y275893D02*
X56000Y271500D01*
X49107Y275893D02*
X51607D01*
X19000Y248500D02*
X21887Y245613D01*
X12000Y131000D02*
X20000Y123000D01*
X12000Y131000D02*
Y163500D01*
X8000Y167500D02*
Y167750D01*
Y167500D02*
X12000Y163500D01*
X307631Y562369D02*
X311006Y558994D01*
Y546400D02*
Y558994D01*
X219021Y264445D02*
X220176D01*
X238000Y275828D02*
Y283000D01*
X241536Y291536D02*
X242000Y292000D01*
X249243Y295000D02*
X264257D01*
X274234Y266228D02*
Y285400D01*
X279224Y254388D02*
X286930Y246681D01*
X279222Y254390D02*
X279224Y254388D01*
X302259Y249668D02*
X310321D01*
X161498Y302379D02*
X166388D01*
X207241Y481988D02*
Y488340D01*
X208818Y478182D02*
X209795Y477205D01*
X219828Y497828D02*
X234172Y512172D01*
X212426Y496005D02*
X215426D01*
X244414Y516414D02*
X246000Y518000D01*
X258071Y523000D02*
X297043D01*
X304367Y495617D02*
Y510367D01*
X291000Y538400D02*
X298400Y531000D01*
X291000Y538400D02*
Y555000D01*
X298400Y531000D02*
X304000D01*
X311000Y524000D01*
Y517000D02*
Y524000D01*
X304367Y510367D02*
X311000Y517000D01*
X205604Y529000D02*
X217500D01*
X226500D02*
X250750D01*
X259250D02*
X262271D01*
X259400Y213400D02*
Y223182D01*
X272150Y223661D02*
Y225735D01*
X23080Y238768D02*
Y245262D01*
X21000Y236000D02*
Y236687D01*
X23080Y238768D01*
X22730Y245613D02*
X23080Y245262D01*
X21887Y245613D02*
X22730D01*
X69514Y389891D02*
X70000Y390377D01*
X66444Y389580D02*
X66755Y389891D01*
X59000Y395500D02*
X64920Y389580D01*
X66755Y389891D02*
X69514D01*
X64920Y389580D02*
X66444D01*
X186644Y403258D02*
X188882Y405496D01*
X162693Y401000D02*
X164951Y403258D01*
X188882Y405496D02*
Y405746D01*
X164951Y403258D02*
X186644D01*
X141000Y401000D02*
X162693D01*
X138000Y404000D02*
X141000Y401000D01*
X138000Y404000D02*
Y425178D01*
X146874Y452000D02*
X152275Y446599D01*
X257000Y351250D02*
X269592D01*
X253500Y380000D02*
X257000Y376500D01*
Y351250D02*
Y376500D01*
X253250Y380000D02*
X253500D01*
X298369Y562369D02*
X307631D01*
X291000Y555000D02*
X298369Y562369D01*
X20810Y499174D02*
Y507440D01*
X20250Y508000D02*
X20810Y507440D01*
X48018Y568365D02*
X57131D01*
X47134Y569250D02*
X48018Y568365D01*
X48000Y599584D02*
X56456D01*
X140000Y470000D02*
X144000Y466000D01*
X122250Y470000D02*
X140000D01*
X113500Y470250D02*
X113750Y470000D01*
X102000Y470250D02*
X113500D01*
X92755Y429745D02*
X93000Y429500D01*
X92755Y429745D02*
Y439750D01*
X93500Y440495D01*
Y451000D01*
X102000Y451500D02*
X102500Y451000D01*
X102000Y451500D02*
Y461750D01*
X92706Y409693D02*
X93000Y409987D01*
Y421000D01*
X79000Y352000D02*
X87000Y360000D01*
Y375750D01*
X88664Y385914D02*
Y388350D01*
X87000Y384250D02*
X88664Y385914D01*
Y388350D02*
X91904Y391590D01*
X98164D01*
Y382410D02*
Y391590D01*
Y382410D02*
X98695Y381878D01*
Y372878D02*
X98750Y372824D01*
Y363000D02*
Y372824D01*
X114000Y363000D02*
X116580Y360420D01*
Y354945D02*
Y360420D01*
X107250Y363000D02*
X114000D01*
X53000Y410500D02*
Y411000D01*
X59000Y404250D02*
Y404500D01*
X53000Y410500D02*
X59000Y404500D01*
Y395500D02*
Y395750D01*
X226846Y582104D02*
X226957Y582215D01*
X234356D01*
X243727Y556908D02*
X244500Y557681D01*
Y566000D01*
X253637Y556429D02*
Y565863D01*
X253500Y566000D02*
X253637Y565863D01*
X242467Y583104D02*
Y589750D01*
Y583104D02*
X243356Y582215D01*
X234971Y591003D02*
X241214D01*
X242467Y589750D01*
X150000Y347500D02*
X151988Y349488D01*
X155051D02*
X156563Y351000D01*
X150000Y347250D02*
Y347500D01*
X151988Y349488D02*
X155051D01*
X156563Y351000D02*
X157250D01*
X140768Y338750D02*
X150000D01*
X140170Y339348D02*
X140768Y338750D01*
X131486Y321914D02*
X140170Y330598D01*
Y330848D01*
X131486Y321201D02*
Y321914D01*
X131000Y320715D02*
X131486Y321201D01*
X44500Y429000D02*
X51000D01*
X44000Y428500D02*
X44500Y429000D01*
X44003Y410279D02*
Y419497D01*
X44000Y419500D02*
X44003Y419497D01*
X42810Y258000D02*
Y279503D01*
X42000Y280313D02*
Y281000D01*
Y280313D02*
X42810Y279503D01*
X220500Y611000D02*
X228388Y618887D01*
Y625588D02*
X231100Y628300D01*
X220250Y611000D02*
X220500D01*
X228388Y618887D02*
Y625588D01*
X209262Y613238D02*
X211500Y611000D01*
X205700Y617050D02*
X209262Y613488D01*
X211500Y611000D02*
X211750D01*
X209262Y613238D02*
Y613488D01*
X205700Y617050D02*
Y628300D01*
X191828Y232000D02*
X213573D01*
X185000Y238828D02*
Y241000D01*
X171250Y247000D02*
X178172D01*
X183000Y245000D02*
X183586Y244414D01*
X137864Y260000D02*
X151586D01*
X154232Y258768D02*
X154233Y258767D01*
X154000Y259000D02*
X154232Y258768D01*
X156000Y251414D02*
Y254500D01*
X161829Y247000D02*
X162750D01*
X229336Y600032D02*
X232750Y603446D01*
Y608000D01*
X7000Y299000D02*
X23000D01*
X25250Y301250D01*
Y307000D01*
X25482Y320200D02*
Y332396D01*
X24891Y332987D02*
X25482Y332396D01*
X27824Y335920D02*
Y343392D01*
X24891Y332987D02*
X27824Y335920D01*
X16641Y332987D02*
X18879Y335225D01*
Y338879D02*
X22000Y342000D01*
X16391Y332987D02*
X16641D01*
X18879Y335225D02*
Y338879D01*
X8000Y320000D02*
X16782D01*
X16982Y320200D01*
X15617Y308133D02*
X16750Y307000D01*
X8010Y308133D02*
X15617D01*
X258738Y505849D02*
Y516169D01*
X259247Y516679D02*
Y517366D01*
X254500Y501611D02*
X258738Y505849D01*
Y516169D02*
X259247Y516679D01*
X267327Y503784D02*
X269500Y501611D01*
X267327Y503784D02*
Y509547D01*
X264273Y512601D02*
X267327Y509547D01*
X157062Y451177D02*
X157249Y451365D01*
X157062Y439238D02*
Y451177D01*
X152824Y435000D02*
X157062Y439238D01*
X165328Y437496D02*
Y443546D01*
Y437496D02*
X167824Y435000D01*
X162275Y446599D02*
X165328Y443546D01*
X102637Y298203D02*
X107107D01*
X108000Y299096D02*
Y313000D01*
X107107Y298203D02*
X108000Y299096D01*
X100250Y315000D02*
X106000D01*
X108000Y313000D01*
X89803Y316947D02*
X91750Y315000D01*
X87053Y316947D02*
X89803D01*
X84000Y320000D02*
X87053Y316947D01*
X78762Y340738D02*
X81000Y338500D01*
X78512Y340738D02*
X78762D01*
X75250Y344000D02*
X78512Y340738D01*
X70000Y344000D02*
X75250D01*
X81000Y338250D02*
Y338500D01*
Y323106D02*
X84000Y320107D01*
X81000Y323106D02*
Y329750D01*
X84000Y320000D02*
Y320107D01*
X92556Y238000D02*
X94319Y236238D01*
X98512D02*
X100750Y234000D01*
X94319Y236238D02*
X98512D01*
X86000Y238000D02*
X92556D01*
X100730Y233980D02*
X100750Y234000D01*
X100730Y223206D02*
Y233980D01*
X118706Y224500D02*
X127000D01*
X117000Y226206D02*
X118706Y224500D01*
X117000Y226206D02*
Y232000D01*
X115000Y234000D02*
X117000Y232000D01*
X109250Y234000D02*
X115000D01*
X109230Y223206D02*
X109480D01*
X111718Y220447D02*
Y220968D01*
X109480Y223206D02*
X111718Y220968D01*
Y220447D02*
X112611Y219555D01*
X122979D01*
X63154Y328607D02*
X64000Y327761D01*
D13*
X123006Y249582D02*
X130582D01*
X134000Y253000D01*
X134345D01*
X122979Y249555D02*
X123006Y249582D01*
X143967Y354019D02*
Y363967D01*
X142250Y351889D02*
Y352302D01*
X143967Y363967D02*
X145000Y365000D01*
X142250Y352302D02*
X143967Y354019D01*
X134663Y365212D02*
X144788D01*
X134451Y365423D02*
X134663Y365212D01*
X144788D02*
X145000Y365000D01*
D22*
X283250Y304000D02*
D03*
X274750D02*
D03*
X144770Y243230D02*
D03*
X136270D02*
D03*
X112780Y495061D02*
D03*
X121280D02*
D03*
X174500Y604000D02*
D03*
X166000D02*
D03*
X284800Y208286D02*
D03*
X293300D02*
D03*
X136270Y232000D02*
D03*
X144770D02*
D03*
X11750Y508000D02*
D03*
X20250D02*
D03*
X187174Y365997D02*
D03*
X178674D02*
D03*
X96250Y122000D02*
D03*
X87750D02*
D03*
X35500Y220000D02*
D03*
X27000D02*
D03*
X89750Y208834D02*
D03*
X81250D02*
D03*
X51250Y151000D02*
D03*
X42750D02*
D03*
X220250Y611000D02*
D03*
X211750D02*
D03*
X253250Y380000D02*
D03*
X244750D02*
D03*
X293750Y172000D02*
D03*
X302250D02*
D03*
X109250Y234000D02*
D03*
X100750D02*
D03*
X109230Y223206D02*
D03*
X100730D02*
D03*
X69750Y284000D02*
D03*
X78250D02*
D03*
X25250Y307000D02*
D03*
X16750D02*
D03*
X24891Y332987D02*
D03*
X16391D02*
D03*
X25482Y320200D02*
D03*
X16982D02*
D03*
X293300Y154451D02*
D03*
X301800D02*
D03*
X259400Y213400D02*
D03*
X267900D02*
D03*
X264250Y197000D02*
D03*
X255750D02*
D03*
X265930Y181150D02*
D03*
X257430D02*
D03*
X78250Y294000D02*
D03*
X69750D02*
D03*
X91750Y315000D02*
D03*
X100250D02*
D03*
D23*
X59500Y228000D02*
D03*
X51500D02*
D03*
D24*
X102000Y470250D02*
D03*
Y461750D02*
D03*
X93000Y429500D02*
D03*
Y421000D02*
D03*
X87000Y384250D02*
D03*
Y375750D02*
D03*
X59000Y395750D02*
D03*
Y404250D02*
D03*
X205000Y520750D02*
D03*
Y529250D02*
D03*
X301250Y240750D02*
D03*
Y249250D02*
D03*
X140170Y330848D02*
D03*
Y339348D02*
D03*
X150000Y347250D02*
D03*
Y338750D02*
D03*
X8000Y167750D02*
D03*
Y176250D02*
D03*
Y187750D02*
D03*
Y196250D02*
D03*
D25*
X178000Y468655D02*
D03*
Y461345D02*
D03*
X149000Y87345D02*
D03*
Y94655D02*
D03*
X117293Y167138D02*
D03*
Y174448D02*
D03*
X189000Y128542D02*
D03*
Y121231D02*
D03*
X282000Y589345D02*
D03*
Y596655D02*
D03*
X35250Y397566D02*
D03*
Y404877D02*
D03*
X124000Y192655D02*
D03*
Y185345D02*
D03*
X13000Y287655D02*
D03*
Y280345D02*
D03*
X181000Y166655D02*
D03*
Y159345D02*
D03*
X82000Y256797D02*
D03*
Y249487D02*
D03*
X195861Y276987D02*
D03*
Y284297D02*
D03*
X230779Y151977D02*
D03*
Y159288D02*
D03*
X161000Y278322D02*
D03*
Y285633D02*
D03*
X116580Y345732D02*
D03*
Y338422D02*
D03*
X203000Y158345D02*
D03*
Y165655D02*
D03*
X196000Y217655D02*
D03*
Y210345D02*
D03*
X102637Y305514D02*
D03*
Y298203D02*
D03*
X114963Y305423D02*
D03*
Y298112D02*
D03*
X135000Y193345D02*
D03*
Y200655D02*
D03*
Y218558D02*
D03*
Y211247D02*
D03*
X136000Y169345D02*
D03*
Y176655D02*
D03*
X82023Y274045D02*
D03*
Y266734D02*
D03*
D27*
X113750Y470000D02*
D03*
X122250D02*
D03*
X283750Y483000D02*
D03*
X292250D02*
D03*
X107250Y363000D02*
D03*
X98750D02*
D03*
X250750Y529000D02*
D03*
X259250D02*
D03*
X174888Y302379D02*
D03*
X166388D02*
D03*
X292129Y468498D02*
D03*
X283629D02*
D03*
X171250Y247000D02*
D03*
X162750D02*
D03*
X241250Y608000D02*
D03*
X232750D02*
D03*
D29*
X299000Y295214D02*
D03*
Y304786D02*
D03*
X155000Y411214D02*
D03*
Y420786D02*
D03*
X170000Y411214D02*
D03*
Y420786D02*
D03*
X256000Y478214D02*
D03*
Y487786D02*
D03*
D40*
X258334Y154000D02*
D03*
X265666D02*
D03*
D41*
X269000Y133331D02*
D03*
Y126000D02*
D03*
D42*
X229699Y414328D02*
D03*
X221699D02*
D03*
X126000Y418000D02*
D03*
X118000D02*
D03*
X183472Y386333D02*
D03*
X191472D02*
D03*
X228000Y484000D02*
D03*
X220000D02*
D03*
X286500Y450994D02*
D03*
X294500D02*
D03*
D44*
X162000Y461100D02*
D03*
Y470900D02*
D03*
D48*
X134451Y373423D02*
D03*
Y365423D02*
D03*
X123750Y373910D02*
D03*
Y365910D02*
D03*
X250449Y438485D02*
D03*
Y430485D02*
D03*
X225000Y441000D02*
D03*
Y433000D02*
D03*
D49*
X301000Y549000D02*
D03*
Y541000D02*
D03*
X83173Y410000D02*
D03*
Y402000D02*
D03*
X132020Y352396D02*
D03*
Y344396D02*
D03*
X145000Y373000D02*
D03*
Y365000D02*
D03*
X142000Y431000D02*
D03*
Y439000D02*
D03*
X238661Y439367D02*
D03*
Y431367D02*
D03*
X241495Y494377D02*
D03*
Y502377D02*
D03*
D53*
X182000Y176000D02*
D03*
X194000D02*
D03*
X116000Y287000D02*
D03*
X104000D02*
D03*
X115514Y327000D02*
D03*
X103514D02*
D03*
X219000Y170000D02*
D03*
X231000D02*
D03*
X150437Y327822D02*
D03*
X162437D02*
D03*
X158000Y178000D02*
D03*
X146000D02*
D03*
D54*
X240011Y184826D02*
D03*
X230761D02*
D03*
X219167Y317098D02*
D03*
X228417D02*
D03*
X158375Y190000D02*
D03*
X167625D02*
D03*
X179007Y345235D02*
D03*
X188257D02*
D03*
X141393Y316215D02*
D03*
X150643D02*
D03*
X266331Y273000D02*
D03*
X257081D02*
D03*
X199375Y264000D02*
D03*
X208625D02*
D03*
X248340Y331774D02*
D03*
X239090D02*
D03*
X254625Y259000D02*
D03*
X245375D02*
D03*
X198504Y240770D02*
D03*
X207754D02*
D03*
D57*
X47134Y560750D02*
D03*
Y569250D02*
D03*
X48000Y599584D02*
D03*
Y608083D02*
D03*
X294201Y432501D02*
D03*
Y424001D02*
D03*
X272750Y432728D02*
D03*
Y441228D02*
D03*
X56000Y271250D02*
D03*
Y262750D02*
D03*
X17332Y211750D02*
D03*
Y203250D02*
D03*
X188882Y397246D02*
D03*
Y405746D02*
D03*
X193000Y608250D02*
D03*
Y599750D02*
D03*
X305231Y432436D02*
D03*
Y423937D02*
D03*
X257000Y342750D02*
D03*
Y351250D02*
D03*
X299000Y195250D02*
D03*
Y186750D02*
D03*
X249000Y44250D02*
D03*
Y35750D02*
D03*
X81000Y329750D02*
D03*
Y338250D02*
D03*
D59*
X240000Y219625D02*
D03*
Y207625D02*
D03*
X199065Y326769D02*
D03*
Y338769D02*
D03*
X239188Y306875D02*
D03*
Y318876D02*
D03*
X242000Y246042D02*
D03*
Y234042D02*
D03*
X220737Y330035D02*
D03*
Y342035D02*
D03*
X246000Y284000D02*
D03*
Y272000D02*
D03*
D60*
X98695Y372878D02*
D03*
Y381878D02*
D03*
X98164Y400589D02*
D03*
Y391590D02*
D03*
X238000Y537500D02*
D03*
Y528500D02*
D03*
X44000Y419500D02*
D03*
Y428500D02*
D03*
X136000Y99500D02*
D03*
Y90500D02*
D03*
X126000Y99500D02*
D03*
Y90500D02*
D03*
D61*
X56704Y422231D02*
D03*
X64015D02*
D03*
X134345Y253000D02*
D03*
X141655D02*
D03*
X152922Y158000D02*
D03*
X160233D02*
D03*
X155366Y136989D02*
D03*
X162677D02*
D03*
X111757Y145000D02*
D03*
X104447D02*
D03*
X170655Y147000D02*
D03*
X163345D02*
D03*
X50469Y374905D02*
D03*
X57780D02*
D03*
X306155Y602000D02*
D03*
X298845D02*
D03*
X17345Y404000D02*
D03*
X24655D02*
D03*
X250294Y305316D02*
D03*
X257605D02*
D03*
X188008Y319286D02*
D03*
X180697D02*
D03*
X239500Y195613D02*
D03*
X232189D02*
D03*
X210109Y226580D02*
D03*
X202798D02*
D03*
X186948Y334380D02*
D03*
X179637D02*
D03*
X102655Y336000D02*
D03*
X95345D02*
D03*
X156115Y214370D02*
D03*
X163425D02*
D03*
X253345Y607780D02*
D03*
X260655D02*
D03*
X169149Y316483D02*
D03*
X161838D02*
D03*
X169655Y339000D02*
D03*
X162345D02*
D03*
X150970Y167000D02*
D03*
X158280D02*
D03*
X257496Y319129D02*
D03*
X250185D02*
D03*
X260617Y234023D02*
D03*
X253307D02*
D03*
X260397Y245692D02*
D03*
X253086D02*
D03*
X264611Y284558D02*
D03*
X257300D02*
D03*
X199983Y254352D02*
D03*
X207293D02*
D03*
X95345Y345000D02*
D03*
X102655D02*
D03*
X228041Y354766D02*
D03*
X220730D02*
D03*
D62*
X172000Y283625D02*
D03*
Y274375D02*
D03*
X52250Y212752D02*
D03*
Y203502D02*
D03*
X228000Y220625D02*
D03*
Y211375D02*
D03*
X183910Y284765D02*
D03*
Y275515D02*
D03*
X92736Y265691D02*
D03*
Y274941D02*
D03*
X86000Y238000D02*
D03*
Y228750D02*
D03*
X91000Y295625D02*
D03*
Y286375D02*
D03*
X150332Y274977D02*
D03*
Y284227D02*
D03*
X185000Y218625D02*
D03*
Y209375D02*
D03*
X193000Y157625D02*
D03*
Y166875D02*
D03*
X218906Y150398D02*
D03*
Y159648D02*
D03*
X138535Y275941D02*
D03*
Y285191D02*
D03*
X146000Y218544D02*
D03*
Y209294D02*
D03*
X75000Y185625D02*
D03*
Y176375D02*
D03*
X72750Y228219D02*
D03*
Y237469D02*
D03*
X89000Y185125D02*
D03*
Y175875D02*
D03*
D71*
X111786Y136000D02*
D03*
X104214D02*
D03*
X50214Y384000D02*
D03*
X57786D02*
D03*
X259775Y598000D02*
D03*
X267346D02*
D03*
D115*
X124650Y606350D02*
D03*
X71350D02*
D03*
X124650Y659650D02*
D03*
X71350D02*
D03*
D116*
X274300Y400100D02*
D03*
X299700D02*
D03*
X274300Y374700D02*
D03*
X299700D02*
D03*
X274300Y349300D02*
D03*
X299700D02*
D03*
X274300Y323900D02*
D03*
X154900Y628300D02*
D03*
Y653700D02*
D03*
X180300Y628300D02*
D03*
Y653700D02*
D03*
X205700Y628300D02*
D03*
Y653700D02*
D03*
X231100Y628300D02*
D03*
D117*
X299700Y323900D02*
D03*
D118*
X231100Y653700D02*
D03*
D121*
X158673Y105517D02*
G03*
X158000Y104844I0J-673D01*
G01*
Y110000D02*
G03*
X158673Y109327I673J0D01*
G01*
X101000Y97844D02*
G03*
X100327Y98517I-673J0D01*
G01*
Y102327D02*
G03*
X101000Y103000I0J673D01*
G01*
X95857Y98517D02*
G03*
X95385Y98322I0J-667D01*
G01*
X69517Y81327D02*
G03*
X68844Y82000I-673J0D01*
G01*
X74000D02*
G03*
X73327Y81327I0J-673D01*
G01*
X184175Y104095D02*
G03*
X182782Y103518I0J-1970D01*
G01*
X182782D02*
G03*
X182615Y103115I403J-403D01*
G01*
Y108885D02*
G03*
X182782Y108482I570J0D01*
G01*
D02*
G03*
X184175Y107905I1393J1393D01*
G01*
X128518Y88218D02*
G03*
X128115Y88385I-403J-403D01*
G01*
X129095Y86825D02*
G03*
X128518Y88218I-1970J0D01*
G01*
X120845Y78000D02*
G03*
X125540Y79945I0J6639D01*
G01*
X120264Y78000D02*
G03*
X112322Y74710I0J-11231D01*
G01*
X73327Y71977D02*
G03*
X77790Y61210I15219J0D01*
G01*
X100586Y51000D02*
G03*
X103000Y52000I0J3414D01*
G01*
X85172Y53828D02*
G03*
X92000Y51000I6828J6828D01*
G01*
X133885Y88385D02*
G03*
X133482Y88218I0J-570D01*
G01*
D02*
G03*
X132905Y86825I1393J-1393D01*
G01*
X120853Y74190D02*
G03*
X128228Y77245I0J10430D01*
G01*
X120287Y74190D02*
G03*
X115000Y72000I0J-7477D01*
G01*
X112536Y69535D02*
G03*
X112533Y69533I8536J-8536D01*
G01*
D02*
G03*
X109000Y61000I8538J-8533D01*
G01*
X105700Y49311D02*
G03*
X109000Y57279I-7968J7968D01*
G01*
X82487Y51124D02*
G03*
X91986Y47190I9499J9499D01*
G01*
X69517Y71977D02*
G03*
X75090Y58521I19029J0D01*
G01*
X100604Y47190D02*
G03*
X105681Y49293I0J7180D01*
G01*
X109836Y72224D02*
G03*
X105190Y61008I11216J-11216D01*
G01*
X103000Y52000D02*
G03*
X105190Y57287I-5287J5287D01*
G01*
X89850Y102500D02*
G03*
X91212Y101936I1362J1362D01*
G01*
X93335D02*
G03*
X93807Y102132I0J667D01*
G01*
X94278Y102327D02*
G03*
X93807Y102132I0J-667D01*
G01*
X91512Y98126D02*
G03*
X90000Y97500I0J-2138D01*
G01*
X94913Y98126D02*
G03*
X95385Y98322I0J667D01*
G01*
X126744Y81149D02*
G03*
X129095Y86825I-5676J5676D01*
G01*
X129448Y78465D02*
G03*
X132905Y86811I-8346J8346D01*
G01*
X169551Y102949D02*
G03*
X169552Y102948I404J402D01*
G01*
X169385Y103351D02*
G03*
X169551Y102949I570J0D01*
G01*
X169012Y103724D02*
G03*
X168115Y104095I-897J-900D01*
G01*
X164019Y104806D02*
G03*
X165736Y104095I1716J1716D01*
G01*
X164019Y104806D02*
G03*
X162303Y105517I-1716J-1716D01*
G01*
X169552Y109052D02*
G03*
X169385Y108649I403J-403D01*
G01*
X168115Y107905D02*
G03*
X169012Y108275I0J1270D01*
G01*
X165597Y108616D02*
G03*
X167314Y107905I1716J1716D01*
G01*
X165597Y108616D02*
G03*
X163881Y109327I-1716J-1716D01*
G01*
X184175Y104095D02*
X212069D01*
X212208Y103956D02*
X214465D01*
X215000Y103422D01*
X212069Y104095D02*
X212208Y103956D01*
X184175Y107905D02*
X212069D01*
X212208Y108043D02*
X214465D01*
X215000Y108578D01*
X212069Y107905D02*
X212208Y108043D01*
X128588Y113695D02*
Y115264D01*
X128456Y110535D02*
Y113564D01*
X127922Y110000D02*
X128456Y110535D01*
Y113564D02*
X128588Y113695D01*
X132398Y113720D02*
Y115291D01*
X132543Y110535D02*
Y113574D01*
Y110535D02*
X133078Y110000D01*
X132398Y113720D02*
X132543Y113574D01*
X132405Y105357D02*
Y106608D01*
X132543Y106746D02*
Y109465D01*
X133078Y110000D01*
X132405Y106608D02*
X132543Y106746D01*
X128595Y103779D02*
Y105819D01*
X128351Y106063D02*
Y109571D01*
Y106063D02*
X128595Y105819D01*
X127922Y110000D02*
X128351Y109571D01*
X158673Y105517D02*
X162303D01*
X158673Y109327D02*
X163881D01*
X95857Y98517D02*
X100327D01*
X94278Y102327D02*
X100327D01*
X69517Y71977D02*
Y81327D01*
X73327Y71977D02*
Y81327D01*
X180500Y101000D02*
X182615Y103115D01*
X180500Y111000D02*
X182615Y108885D01*
X23310Y248000D02*
X49000D01*
X22810Y248500D02*
X23310Y248000D01*
X49000D02*
X56000Y255000D01*
Y262750D01*
X126000Y90500D02*
X128115Y88385D01*
X120264Y78000D02*
X120845D01*
X77790Y61210D02*
X77809Y61191D01*
X92000Y51000D02*
X100586D01*
X77809Y61191D02*
X85172Y53828D01*
X133885Y88385D02*
X136000Y90500D01*
X132905Y86811D02*
Y86825D01*
X128228Y77245D02*
X129448Y78465D01*
X120287Y74190D02*
X120853D01*
X112536Y69535D02*
X115000Y72000D01*
X109000Y57279D02*
Y61000D01*
X75090Y58521D02*
X82487Y51124D01*
X105681Y49293D02*
X105700Y49311D01*
X91986Y47190D02*
X100604D01*
X109836Y72224D02*
X112322Y74710D01*
X105190Y57287D02*
Y61008D01*
X91212Y101936D02*
X93335D01*
X91512Y98126D02*
X94913D01*
X125540Y79945D02*
X126744Y81149D01*
X169552Y102948D02*
X171500Y101000D01*
Y91600D02*
X172100Y91000D01*
X171500Y91600D02*
Y101000D01*
X169552Y109052D02*
X171500Y111000D01*
X171100Y111400D02*
Y121000D01*
Y111400D02*
X171500Y111000D01*
X128219Y101615D02*
X128963Y102359D01*
X126000Y99500D02*
X128115Y101615D01*
X128963Y102359D02*
Y103411D01*
X128115Y101615D02*
X128219D01*
X132773Y102491D02*
Y104989D01*
X133649Y101615D02*
X133885D01*
X132773Y102491D02*
X133649Y101615D01*
X133885D02*
X136000Y99500D01*
X132405Y105357D02*
X132773Y104989D01*
X128595Y103779D02*
X128963Y103411D01*
X133142Y116035D02*
X134135D01*
X127844Y116008D02*
X128588Y115264D01*
X126839Y116008D02*
X127844D01*
X134135Y116035D02*
X136100Y118000D01*
X132398Y115291D02*
X133142Y116035D01*
X124874Y117973D02*
X126839Y116008D01*
X169012Y103724D02*
X169385Y103351D01*
X165736Y104095D02*
X168115D01*
X169012Y108275D02*
X169385Y108649D01*
X167314Y107905D02*
X168115D01*
D126*
X212951Y269451D02*
X214951D01*
X208625Y264000D02*
Y265125D01*
X212951Y269451D01*
X214951D02*
X215000Y269500D01*
X110548Y181537D02*
Y185951D01*
X117293Y174448D02*
Y174793D01*
X110548Y181537D02*
X117293Y174793D01*
X110500Y186000D02*
X110548Y185951D01*
X142353Y441353D02*
Y446539D01*
X142402Y446587D01*
X109567Y418000D02*
X118000D01*
X109304Y418262D02*
X109567Y418000D01*
X109235Y418262D02*
X109304D01*
X192167Y385638D02*
X197621D01*
X262265Y437208D02*
Y446026D01*
X262750Y446511D02*
Y446580D01*
X262265Y446026D02*
X262750Y446511D01*
X168912Y421874D02*
X170000Y420786D01*
X168912Y421874D02*
Y433912D01*
X167824Y435000D02*
X168912Y433912D01*
X153912Y421874D02*
Y433912D01*
Y421874D02*
X155000Y420786D01*
X152824Y435000D02*
X153912Y433912D01*
X274300Y323900D02*
X287000Y336600D01*
Y416551D01*
X294201Y423751D01*
Y424001D01*
X294233Y423969D02*
X305199D01*
X294201Y424001D02*
X294233Y423969D01*
X305199D02*
X305231Y423937D01*
X269889Y502000D02*
X283214D01*
X269500Y501611D02*
X269889Y502000D01*
X254500Y489500D02*
X256000Y488000D01*
Y487786D02*
Y488000D01*
X254500Y489500D02*
Y501611D01*
X24627Y404000D02*
X24655D01*
X23971Y385221D02*
Y403344D01*
X23210Y366021D02*
Y384460D01*
X25232Y364000D02*
X28091D01*
X23971Y403344D02*
X24627Y404000D01*
X23210Y384460D02*
X23971Y385221D01*
X23210Y366021D02*
X25232Y364000D01*
X28091D02*
X35340Y356750D01*
X47181D02*
X50931Y353000D01*
X51000D01*
X35340Y356750D02*
X47181D01*
X88301Y394731D02*
X88350Y394683D01*
X83173Y402000D02*
X88301Y396872D01*
Y394731D02*
Y396872D01*
X222394Y415023D02*
Y419013D01*
X222770Y419389D02*
Y419458D01*
X222394Y419013D02*
X222770Y419389D01*
X221699Y414328D02*
X222394Y415023D01*
X260617Y234023D02*
X267000D01*
X160578Y158000D02*
X167236Y164659D01*
X167541D02*
X167590Y164707D01*
X160233Y158000D02*
X160578D01*
X167236Y164659D02*
X167541D01*
X148344Y95311D02*
Y99837D01*
X146000Y102181D02*
Y102250D01*
X148344Y95311D02*
X149000Y94655D01*
X146000Y102181D02*
X148344Y99837D01*
X40917Y189971D02*
X42532D01*
X33080Y191738D02*
X33902Y190917D01*
X39971D01*
X50503Y182000D02*
X59000D01*
X39971Y190917D02*
X40917Y189971D01*
X42532D02*
X50503Y182000D01*
X79000Y146761D02*
X88995D01*
X96756Y139000D01*
X162919Y137231D02*
X170089D01*
X170138Y137279D01*
X162677Y136989D02*
X162919Y137231D01*
X248402Y111543D02*
X248425Y111521D01*
X248402Y111543D02*
Y131083D01*
X251348Y134029D02*
X268543D01*
X269000Y133331D02*
Y133572D01*
X268543Y134029D02*
X269000Y133572D01*
X248402Y131083D02*
X251348Y134029D01*
X269166Y133166D02*
X280584D01*
X269000Y133331D02*
X269166Y133166D01*
X308168Y541000D02*
X310316Y538852D01*
X301000Y541000D02*
X308168D01*
X310316Y538852D02*
X310384D01*
X200338Y599750D02*
X200884Y599203D01*
X193000Y599750D02*
X200338D01*
X228132Y423931D02*
X229699Y422365D01*
Y414328D02*
Y422365D01*
X228132Y423931D02*
Y424000D01*
X187424Y365997D02*
X188519Y364902D01*
Y364652D02*
X189038Y364132D01*
X187174Y365997D02*
X187424D01*
X188519Y364652D02*
Y364902D01*
X189038Y354140D02*
Y364132D01*
X264500Y197000D02*
X265930Y195570D01*
Y181150D02*
Y195570D01*
X264250Y197000D02*
X264500D01*
X265680Y181150D02*
X265930D01*
X264585Y174889D02*
Y180055D01*
X250669Y174002D02*
X263698D01*
X264585Y180055D02*
X265680Y181150D01*
X263698Y174002D02*
X264585Y174889D01*
X240478Y176504D02*
X248167D01*
X240430Y176553D02*
X240478Y176504D01*
X248167D02*
X250669Y174002D01*
X299000Y195000D02*
Y195250D01*
X292137Y193905D02*
X297905D01*
X299000Y195000D01*
X289000Y190768D02*
X292137Y193905D01*
X293500Y172000D02*
X293750D01*
X289000Y176500D02*
X293500Y172000D01*
X289000Y176500D02*
Y190768D01*
X293300Y216300D02*
X299192Y222192D01*
Y224951D02*
X299241Y225000D01*
X293300Y208286D02*
Y216300D01*
X299192Y222192D02*
Y224951D01*
X293550Y208286D02*
X299000Y202836D01*
Y195250D02*
Y202836D01*
X293300Y208286D02*
X293550D01*
X253431Y129000D02*
X256431Y126000D01*
X269000D01*
X280584Y133166D02*
X280750Y133000D01*
X16237Y213095D02*
X17332Y212000D01*
X15315Y213767D02*
X15987Y213095D01*
X17332Y211750D02*
Y212000D01*
X15987Y213095D02*
X16237D01*
X7056Y213767D02*
X15315D01*
X59000Y182000D02*
X69000Y172000D01*
X41000Y289000D02*
Y296709D01*
X90000Y86130D02*
X90017Y86113D01*
X90000Y86130D02*
Y92500D01*
X257300Y284558D02*
Y290000D01*
X94206Y263823D02*
Y265346D01*
X91611Y265691D02*
X93861D01*
X105445Y249555D02*
X122979D01*
X93861Y265691D02*
X94206Y265346D01*
X99316Y255685D02*
X105445Y249555D01*
X99316Y255685D02*
Y258713D01*
X94206Y263823D02*
X99316Y258713D01*
X212944Y482944D02*
X213013D01*
X213374Y483305D01*
X219305D01*
X220000Y484000D01*
X56704Y415599D02*
X59000Y413303D01*
X56704Y415599D02*
Y422231D01*
X59000Y413250D02*
Y413303D01*
X64283Y422500D02*
X70602D01*
X64015Y422231D02*
X64283Y422500D01*
X70602D02*
X70651Y422548D01*
X260000Y649000D02*
X260786Y649786D01*
Y658000D01*
X235400D02*
X251214D01*
X231100Y653700D02*
X235400Y658000D01*
X299000Y323200D02*
X299700Y323900D01*
X299000Y304786D02*
Y323200D01*
X170778Y461349D02*
X177996D01*
X178000Y461345D01*
X170774Y461353D02*
X170778Y461349D01*
X170452Y461100D02*
X170705Y461353D01*
X162000Y461100D02*
X170452D01*
X170705Y461353D02*
X170774D01*
X188882Y396996D02*
X191472Y394406D01*
Y386333D02*
Y394406D01*
X188882Y396996D02*
Y397246D01*
X26895Y570238D02*
X36384Y560750D01*
X13134Y584000D02*
X26895Y570238D01*
X11750Y508000D02*
Y555093D01*
X26895Y570238D01*
X36384Y560750D02*
X47134D01*
X48867Y607217D02*
X70483D01*
X48000Y608083D02*
X48867Y607217D01*
X70483D02*
X71350Y606350D01*
X152000Y464969D02*
X154232Y467201D01*
Y470000D01*
X161100D01*
X152000Y464900D02*
Y464969D01*
X161100Y470000D02*
X162000Y470900D01*
X185651Y468655D02*
X185851Y468856D01*
X178000Y468655D02*
X185651D01*
X301000Y556508D02*
X301382Y556890D01*
X301000Y549000D02*
Y556508D01*
X91400Y401820D02*
X96933D01*
X98164Y400589D01*
X169149Y309997D02*
Y316483D01*
X169493Y309585D02*
Y309653D01*
X169149Y309997D02*
X169493Y309653D01*
X203000Y166000D02*
Y174000D01*
X218906Y146093D02*
X222000Y143000D01*
X218906Y146093D02*
Y150398D01*
X217491Y135409D02*
X219141D01*
X211900Y141000D02*
X217491Y135409D01*
X178549Y143951D02*
X185500Y137000D01*
X178000Y144000D02*
X178049Y143951D01*
X178549D01*
X180344Y160345D02*
X181000Y159689D01*
X174206Y163613D02*
X177474Y160345D01*
X181000Y159345D02*
Y159689D01*
X177474Y160345D02*
X180344D01*
X174137Y163613D02*
X174206D01*
X203000Y165655D02*
Y166000D01*
X193155Y166875D02*
X201780D01*
X193155D02*
X193500Y167220D01*
Y175500D02*
X194000Y176000D01*
X193000Y166875D02*
X193155D01*
X193500Y167220D02*
Y175500D01*
X202000Y166656D02*
X202344D01*
X203000Y166000D01*
X201780Y166875D02*
X202000Y166656D01*
X225809Y364000D02*
X228041Y361768D01*
Y354766D02*
Y361768D01*
X217000Y364000D02*
X225809D01*
X141738Y309956D02*
X143000Y308694D01*
X141393Y316215D02*
X141738Y315870D01*
Y309956D02*
Y315870D01*
X143000Y308625D02*
Y308694D01*
X51183Y281348D02*
Y287817D01*
X51000Y288000D02*
X51183Y287817D01*
X51000Y288000D02*
X52291Y289291D01*
Y298000D01*
X41000Y296709D02*
X42291Y298000D01*
X42000D02*
Y312239D01*
X34000Y283000D02*
X40000Y289000D01*
X256447Y51697D02*
X259639D01*
X249000Y44250D02*
X256447Y51697D01*
X249205Y21595D02*
Y35545D01*
X249000Y35750D02*
X249205Y35545D01*
Y21595D02*
X249254Y21546D01*
X242190Y503072D02*
Y507996D01*
X244274Y510080D02*
Y510149D01*
X241495Y502377D02*
X242190Y503072D01*
Y507996D02*
X244274Y510080D01*
X295195Y451689D02*
X301704D01*
X302343Y452328D02*
X302412D01*
X294500Y450994D02*
X295195Y451689D01*
X301704D02*
X302343Y452328D01*
X249901Y447132D02*
X250449Y446584D01*
Y438485D02*
Y446584D01*
X249901Y447132D02*
Y447201D01*
X242613Y443318D02*
Y446951D01*
X238661Y439367D02*
X242613Y443318D01*
Y446951D02*
X242661Y447000D01*
X225500Y441000D02*
X230444Y445944D01*
X234201D02*
X234250Y445992D01*
X225000Y441000D02*
X225500D01*
X230444Y445944D02*
X234201D01*
X225500Y433000D02*
X225595Y432905D01*
Y432405D02*
Y432905D01*
X228084Y424049D02*
Y429916D01*
Y424049D02*
X228132Y424000D01*
X225000Y433000D02*
X225500D01*
X225595Y432405D02*
X228084Y429916D01*
X255049Y421049D02*
Y422206D01*
X262265Y429423D02*
Y429637D01*
X255049Y422206D02*
X262265Y429423D01*
X255000Y421000D02*
X255049Y421049D01*
X244225Y430485D02*
X250449D01*
X242234D02*
X244225D01*
Y424396D02*
Y430485D01*
X239356Y430672D02*
X242047D01*
X238661Y431367D02*
X239356Y430672D01*
X242047D02*
X242234Y430485D01*
X191472Y386333D02*
X192167Y385638D01*
X148410Y357410D02*
X156000Y365000D01*
X148361Y357000D02*
X148410Y357049D01*
X156000Y365000D02*
Y365214D01*
X148410Y357049D02*
Y357410D01*
X116580Y346077D02*
X120455Y349951D01*
X123951D01*
X116580Y345732D02*
Y346077D01*
X123951Y349951D02*
X124000Y350000D01*
X42000Y312239D02*
X64000D01*
X20547Y269047D02*
Y279951D01*
X20596Y280000D01*
X20251Y280345D02*
X20596Y280000D01*
X13000Y280345D02*
X20251D01*
X20596Y287655D02*
X21583Y286668D01*
X13000Y287655D02*
X20596D01*
X21583Y286668D02*
X21652D01*
X116047Y327533D02*
Y337889D01*
X116580Y338422D01*
X115514Y327000D02*
X116047Y327533D01*
X87616Y336000D02*
X87616Y336000D01*
X95345D01*
X85979Y346134D02*
X87113Y345000D01*
X95345D01*
X103085Y327429D02*
Y344571D01*
X102655Y345000D02*
X103085Y344571D01*
Y327429D02*
X103514Y327000D01*
X103311Y345656D02*
X107148D01*
X109242Y354945D02*
X109277Y354980D01*
X109242Y347750D02*
Y354945D01*
X107148Y345656D02*
X109242Y347750D01*
X102655Y345000D02*
X103311Y345656D01*
X123492Y316508D02*
X146000Y294000D01*
X115514Y327000D02*
X115889D01*
X123492Y319397D01*
Y316508D02*
Y319397D01*
X148862Y284573D02*
Y291069D01*
X146000Y293931D02*
X148862Y291069D01*
X146000Y293931D02*
Y294000D01*
X139159Y285191D02*
X139531D01*
X138814Y285536D02*
X139159Y285191D01*
X135160Y293000D02*
X138814Y289346D01*
Y285536D02*
Y289346D01*
X127625Y285191D02*
X139531D01*
X148862Y284573D02*
X149207Y284227D01*
X150332D01*
X172000Y267000D02*
Y274375D01*
X170530Y283970D02*
X170875Y283625D01*
X168549Y287076D02*
X170530Y285095D01*
X168500Y291000D02*
X168549Y290951D01*
X170875Y283625D02*
X172000D01*
X170530Y283970D02*
Y285095D01*
X168549Y287076D02*
Y290951D01*
X153603Y293374D02*
Y294972D01*
X153554Y295021D02*
X153603Y294972D01*
X161000Y285633D02*
Y285977D01*
X153603Y293374D02*
X161000Y285977D01*
X150643Y298001D02*
X153554Y295089D01*
X150643Y298001D02*
Y316215D01*
X153554Y295021D02*
Y295089D01*
X150540Y316318D02*
Y327719D01*
X150437Y327822D02*
X150540Y327719D01*
Y316318D02*
X150643Y316215D01*
X162092Y316736D02*
Y338747D01*
X162345Y339000D01*
X161838Y316483D02*
X162092Y316736D01*
X162004Y346335D02*
X162345Y345994D01*
Y339000D02*
Y345994D01*
X170000Y339000D02*
X170656Y338344D01*
Y333413D02*
X173000Y331069D01*
X169655Y339000D02*
X170000D01*
X170656Y333413D02*
Y338344D01*
X173000Y331000D02*
Y331069D01*
X180585Y312444D02*
X180697Y312556D01*
Y319286D01*
X179637Y327633D02*
X180357Y326914D01*
X179637Y327633D02*
Y334380D01*
X172246Y347171D02*
X174182Y345235D01*
X179007D01*
X188257Y339442D02*
Y345235D01*
Y335344D02*
Y339442D01*
X198393D01*
X199065Y338769D01*
X187293Y334380D02*
X188257Y335344D01*
X186948Y334380D02*
X187293D01*
X188257Y353359D02*
X189038Y354140D01*
X188257Y345235D02*
Y353359D01*
X188451Y291505D02*
X188500Y291456D01*
X188008Y319286D02*
X188451Y318842D01*
Y291505D02*
Y318842D01*
X192612Y319941D02*
X199065Y326394D01*
X188008Y319286D02*
X188663Y319941D01*
X199065Y326394D02*
Y326769D01*
X188663Y319941D02*
X192612D01*
X185035Y284765D02*
X188451Y288182D01*
Y291407D02*
X188500Y291456D01*
X183910Y284765D02*
X185035D01*
X188451Y288182D02*
Y291407D01*
X197230Y295931D02*
Y296000D01*
X195861Y284297D02*
Y294562D01*
X197230Y295931D01*
X203230Y302000D02*
X205195D01*
X197230Y296000D02*
X203230Y302000D01*
X205195D02*
X219167Y315973D01*
Y317098D01*
X228295Y307761D02*
X228417Y307884D01*
Y317098D01*
X219642Y326662D02*
Y328940D01*
X219167Y317098D02*
Y326188D01*
X219642Y328940D02*
X220737Y330035D01*
X219167Y326188D02*
X219642Y326662D01*
X220734Y342039D02*
X220737Y342035D01*
X220730Y354766D02*
X220734Y354762D01*
Y342039D02*
Y354762D01*
X209842Y354733D02*
X209875Y354766D01*
X220730D01*
X267203Y245692D02*
X267424Y245471D01*
X260397Y245692D02*
X267203D01*
X261059Y259000D02*
X261090Y259032D01*
X254625Y259000D02*
X261059D01*
X231794Y330255D02*
X233314Y331774D01*
X239090D01*
X239139Y318925D02*
Y331725D01*
Y318925D02*
X239188Y318876D01*
X239090Y331774D02*
X239139Y331725D01*
X239315Y319002D02*
X250059D01*
X239188Y318876D02*
X239315Y319002D01*
X250059D02*
X250185Y319129D01*
X239188Y306500D02*
X240283Y305406D01*
X240658D02*
X240748Y305316D01*
X239188Y306500D02*
Y306875D01*
X240283Y305406D02*
X240658D01*
X240748Y305316D02*
X250294D01*
X231000Y298312D02*
X239188Y306500D01*
X231000Y278000D02*
Y298312D01*
X227937Y274937D02*
X231000Y278000D01*
X215000Y269500D02*
X215069D01*
X220506Y274937D01*
X227937D01*
X257190Y284448D02*
X257300Y284558D01*
X257021Y284279D02*
X257190Y284448D01*
X246279Y284279D02*
X257021D01*
X246000Y284000D02*
X246279Y284279D01*
X257190Y273110D02*
Y284448D01*
X257081Y273000D02*
X257190Y273110D01*
X245688Y259312D02*
Y271688D01*
X245375Y259000D02*
X245688Y259312D01*
Y271688D02*
X246000Y272000D01*
X236881Y259529D02*
X237410Y259000D01*
X218523Y250055D02*
X227997Y259529D01*
X237410Y259000D02*
X245375D01*
X227997Y259529D02*
X236881D01*
X215000Y244344D02*
X224344D01*
X211279Y244295D02*
X214951D01*
X224344Y244344D02*
X229000Y249000D01*
X214951Y244295D02*
X215000Y244344D01*
X209224Y242240D02*
X211279Y244295D01*
X211591Y250055D02*
X218523D01*
X207638Y254352D02*
X208294Y253697D01*
Y253352D02*
Y253697D01*
Y253352D02*
X211591Y250055D01*
X207293Y254352D02*
X207638D01*
X208099Y242240D02*
X209224D01*
X207754Y240770D02*
Y241895D01*
X208099Y242240D01*
X229000Y249000D02*
X235000D01*
X236488Y247512D02*
X240905D01*
X242000Y246042D02*
Y246418D01*
X240905Y247512D02*
X242000Y246418D01*
X235000Y249000D02*
X236488Y247512D01*
X242175Y245867D02*
X252911D01*
X253086Y245692D01*
X242000Y246042D02*
X242175Y245867D01*
X242010Y234033D02*
X253297D01*
X242000Y234042D02*
X242010Y234033D01*
X253297D02*
X253307Y234023D01*
Y226300D02*
X253486Y226121D01*
X253307Y226300D02*
Y234023D01*
X240006Y184832D02*
Y207619D01*
Y184832D02*
X240011Y184826D01*
X240000Y207625D02*
X240006Y207619D01*
X240011Y176971D02*
X240430Y176553D01*
X240011Y176971D02*
Y184826D01*
X228345Y220280D02*
X239345D01*
X228000Y220625D02*
X228345Y220280D01*
X239345D02*
X240000Y219625D01*
X226875Y220625D02*
X228000D01*
X223103Y224397D02*
X226875Y220625D01*
X219069Y224397D02*
X223103D01*
X219021Y224445D02*
X219069Y224397D01*
X216817Y226580D02*
X218952Y224445D01*
X210109Y226580D02*
X216817D01*
X218952Y224445D02*
X219021D01*
X196000Y201000D02*
X196049Y200951D01*
Y196951D02*
Y200951D01*
Y196951D02*
X198000Y195000D01*
X196000Y201000D02*
Y210345D01*
X198000Y195000D02*
X202000D01*
X219000Y178000D01*
Y170000D02*
Y178000D01*
X218953Y159694D02*
Y169953D01*
X218906Y159648D02*
X218953Y159694D01*
Y169953D02*
X219000Y170000D01*
X230889Y159399D02*
Y169889D01*
X230779Y159288D02*
X230889Y159399D01*
Y169889D02*
X231000Y170000D01*
X238712Y159288D02*
X239000Y159000D01*
X230779Y159288D02*
X238712D01*
X185000Y202425D02*
X188445Y198979D01*
X185000Y202425D02*
Y209375D01*
X181500Y167155D02*
Y175500D01*
X181000Y166655D02*
X181500Y167155D01*
Y175500D02*
X182000Y176000D01*
Y192534D02*
X188445Y198979D01*
X182000Y176000D02*
Y192534D01*
X155114Y213714D02*
X155770Y214370D01*
X153500Y211755D02*
X155114Y213369D01*
X155770Y214370D02*
X156115D01*
X155114Y213369D02*
Y213714D01*
X153500Y203000D02*
Y211755D01*
X154405Y202951D02*
X158377Y198979D01*
X153500Y203000D02*
X153549Y202951D01*
X158377Y198979D02*
X158446D01*
X153549Y202951D02*
X154405D01*
X158328Y167047D02*
Y189953D01*
X158410Y190035D02*
Y198944D01*
X158375Y190000D02*
X158410Y190035D01*
X142298Y176655D02*
X142548Y176905D01*
X136000Y176655D02*
X142298D01*
X144905Y176905D02*
X146000Y178000D01*
X142548Y176905D02*
X144905D01*
X146000Y186000D02*
X146000Y186000D01*
Y178000D02*
Y186000D01*
X158280Y167000D02*
X158328Y167047D01*
Y189953D02*
X158375Y190000D01*
X135000Y201000D02*
Y210903D01*
X136609Y209294D02*
X144875D01*
X144530Y208949D02*
X144875Y209294D01*
X143500Y203069D02*
X144530Y204099D01*
X144875Y209294D02*
X146000D01*
X144530Y204099D02*
Y208949D01*
X143500Y203000D02*
Y203069D01*
X135000Y210903D02*
X136609Y209294D01*
X135000Y210903D02*
Y211247D01*
Y200655D02*
Y201000D01*
X134000Y202000D02*
X135000Y201000D01*
X123750Y202000D02*
X134000D01*
X123875Y192780D02*
Y201875D01*
X123750Y202000D02*
X123875Y201875D01*
Y192780D02*
X124000Y192655D01*
X110548Y196549D02*
X116000Y202000D01*
X110500Y196000D02*
X110548Y196049D01*
X116000Y202000D02*
X116250D01*
X110548Y196049D02*
Y196549D01*
X90568Y266734D02*
X91611Y265691D01*
X82023Y266734D02*
X90568D01*
X82011Y256809D02*
Y266723D01*
X82000Y256797D02*
X82011Y256809D01*
Y266723D02*
X82023Y266734D01*
X81000Y258142D02*
X82000Y257142D01*
X72750Y258142D02*
X81000D01*
X82000Y256797D02*
Y257142D01*
X125816Y287000D02*
X127625Y285191D01*
X116000Y287000D02*
X125816D01*
X114963Y297768D02*
X116000Y296731D01*
Y287000D02*
Y296731D01*
X114963Y297768D02*
Y298112D01*
X104000Y280259D02*
X106000Y278260D01*
X104000Y280259D02*
Y287000D01*
X106000Y278191D02*
Y278260D01*
X102637Y288095D02*
X103732Y287000D01*
X104000D01*
X102637Y288095D02*
Y298203D01*
X91313Y286688D02*
X103687D01*
X91000Y286375D02*
X91313Y286688D01*
X103687D02*
X104000Y287000D01*
X65500Y258142D02*
X66095Y258737D01*
Y263026D01*
X70000Y266931D02*
Y267000D01*
X65250Y258142D02*
X65500D01*
X66095Y263026D02*
X70000Y266931D01*
X63154Y328607D02*
Y345000D01*
X42000Y329000D02*
X54514Y341514D01*
Y344514D02*
X55000Y345000D01*
X42000Y327761D02*
Y329000D01*
X54514Y341514D02*
Y344514D01*
D127*
X82301Y111446D02*
G03*
X80000Y117000I-7855J0D01*
G01*
X287000Y145201D02*
Y148401D01*
Y142000D02*
Y145201D01*
X286679Y144880D02*
X287000Y145201D01*
X267740Y144880D02*
X286679D01*
X266000Y154000D02*
X266838Y153161D01*
Y152827D02*
X267740Y151925D01*
X265666Y154000D02*
X266000D01*
X266838Y152827D02*
Y153161D01*
X267740Y144880D02*
Y151925D01*
X266483Y154817D02*
Y164183D01*
X265666Y154000D02*
X266483Y154817D01*
Y164183D02*
X267301Y165000D01*
X287000Y148401D02*
X293050Y154451D01*
X293300D01*
X296000Y133000D02*
X297250D01*
X287000Y142000D02*
X296000Y133000D01*
X257605Y305316D02*
X258642Y306353D01*
X264078D02*
X264725Y307000D01*
X258642Y306353D02*
X264078D01*
X264725Y307000D02*
X265000D01*
X82301Y102500D02*
Y111446D01*
X264611Y284558D02*
Y290000D01*
X248340Y331774D02*
X253745D01*
X255971Y334000D01*
X256000D01*
X256118Y320507D02*
Y326408D01*
Y320507D02*
X257496Y319129D01*
X266331Y263242D02*
X266461Y263112D01*
X266331Y263242D02*
Y273000D01*
X223890Y185189D02*
X224252Y184826D01*
X230761D01*
X224582Y195700D02*
X224669Y195613D01*
X232189D01*
X220886Y211221D02*
X220963Y211298D01*
X227923D02*
X228000Y211375D01*
X220963Y211298D02*
X227923D01*
X171421Y180066D02*
Y186204D01*
X167625Y190000D02*
X171421Y186204D01*
X88835Y297790D02*
Y303178D01*
Y297790D02*
X91000Y295625D01*
X95000Y305000D02*
X95275D01*
X95789Y305514D02*
X102637D01*
X95275Y305000D02*
X95789Y305514D01*
X115340Y305046D02*
X123098D01*
X114963Y305423D02*
X115340Y305046D01*
X92736Y274941D02*
X100625D01*
X69944Y274806D02*
X81262D01*
X82023Y274045D01*
X69750Y275000D02*
X69944Y274806D01*
X61275Y283000D02*
X62275Y284000D01*
X69750D01*
X61000Y283000D02*
X61275D01*
D130*
X48500Y131000D02*
D03*
Y81000D02*
D03*
D131*
X117740Y443740D02*
D03*
X60000Y119709D02*
D03*
X123000Y446000D02*
D03*
X129527Y424601D02*
D03*
X132000Y410000D02*
D03*
X109235Y418262D02*
D03*
X105000Y404000D02*
D03*
X103050Y418714D02*
D03*
X164000Y353629D02*
D03*
X307851Y473062D02*
D03*
X270859Y426354D02*
D03*
X277944Y419065D02*
D03*
X209114Y380621D02*
D03*
X306431Y484478D02*
D03*
X306000Y490230D02*
D03*
X307913Y478724D02*
D03*
X300517Y464884D02*
D03*
X218029Y512383D02*
D03*
X206373Y406077D02*
D03*
X208257Y400851D02*
D03*
X203632Y414303D02*
D03*
X198853Y410130D02*
D03*
X197621Y385638D02*
D03*
X197000Y379991D02*
D03*
X194068Y357532D02*
D03*
X209221Y345410D02*
D03*
X214014Y429686D02*
D03*
X105886Y243377D02*
D03*
X207882Y450992D02*
D03*
X214114Y446612D02*
D03*
X307387Y457000D02*
D03*
X255980Y446026D02*
D03*
X262750Y446580D02*
D03*
X177249Y451365D02*
D03*
X194417Y467086D02*
D03*
X271746Y519114D02*
D03*
X146874Y456379D02*
D03*
X223000Y295649D02*
D03*
X107961Y374990D02*
D03*
X114000Y369302D02*
D03*
X114420Y399996D02*
D03*
X245435Y616173D02*
D03*
X273250Y578649D02*
D03*
X253871Y581000D02*
D03*
X300000Y506538D02*
D03*
X281000Y558000D02*
D03*
X308000Y610000D02*
D03*
X261000Y630250D02*
D03*
X274000Y584750D02*
D03*
X113252Y507748D02*
D03*
X221684Y425000D02*
D03*
X222770Y419458D02*
D03*
X267000Y234023D02*
D03*
X248055Y204250D02*
D03*
X247000Y226300D02*
D03*
X201000Y453695D02*
D03*
X188000Y462000D02*
D03*
X201000Y448000D02*
D03*
X84997Y201855D02*
D03*
X91212Y110035D02*
D03*
X10086Y203250D02*
D03*
X15742Y194632D02*
D03*
X13972Y188902D02*
D03*
X248425Y111521D02*
D03*
X10000Y362000D02*
D03*
X200884Y599203D02*
D03*
X201752Y363248D02*
D03*
X244500Y93561D02*
D03*
X244965Y84000D02*
D03*
X241000Y59000D02*
D03*
X260000Y58000D02*
D03*
X305000Y63500D02*
D03*
X298000Y74000D02*
D03*
X299241Y225000D02*
D03*
X253431Y129000D02*
D03*
X244000Y299000D02*
D03*
X265000Y307000D02*
D03*
X251000Y141000D02*
D03*
Y148000D02*
D03*
X250970Y155000D02*
D03*
X245000Y145000D02*
D03*
X244976Y150975D02*
D03*
X245000Y157000D02*
D03*
X65875Y224000D02*
D03*
Y230600D02*
D03*
X79480Y79690D02*
D03*
X63257Y80756D02*
D03*
X74000Y82000D02*
D03*
X68844D02*
D03*
X90017Y86113D02*
D03*
X97326Y93124D02*
D03*
X98300Y108266D02*
D03*
X101000Y103000D02*
D03*
Y97844D02*
D03*
X311006Y546400D02*
D03*
X257300Y290000D02*
D03*
X264611D02*
D03*
X106256Y258713D02*
D03*
X124000Y280750D02*
D03*
X158933Y309000D02*
D03*
X212944Y482944D02*
D03*
X210000Y514000D02*
D03*
X6308Y560849D02*
D03*
X6222Y552506D02*
D03*
Y585279D02*
D03*
X6250Y576164D02*
D03*
X6679Y622738D02*
D03*
Y638739D02*
D03*
Y629739D02*
D03*
X7140Y657000D02*
D03*
X6679Y647738D02*
D03*
X34000Y665000D02*
D03*
X25000D02*
D03*
X52000D02*
D03*
X43000D02*
D03*
X261000D02*
D03*
X252000D02*
D03*
X277000D02*
D03*
X268000D02*
D03*
X311000Y654000D02*
D03*
X308976Y663230D02*
D03*
X287000Y665000D02*
D03*
X296000D02*
D03*
X310000Y643870D02*
D03*
X310621Y634870D02*
D03*
X310000Y625000D02*
D03*
Y616000D02*
D03*
X311000Y593000D02*
D03*
Y584000D02*
D03*
Y575000D02*
D03*
Y509934D02*
D03*
X311345Y461063D02*
D03*
X311379Y430000D02*
D03*
Y420686D02*
D03*
Y449284D02*
D03*
Y440000D02*
D03*
Y269366D02*
D03*
Y260000D02*
D03*
X6106Y487830D02*
D03*
Y496830D02*
D03*
Y467580D02*
D03*
Y476580D02*
D03*
X6248Y420001D02*
D03*
X6458Y428899D02*
D03*
X6211Y370200D02*
D03*
Y379200D02*
D03*
X6594Y357220D02*
D03*
X7153Y327509D02*
D03*
X7093Y336398D02*
D03*
X6094Y231000D02*
D03*
Y240000D02*
D03*
Y252995D02*
D03*
Y261995D02*
D03*
X6727Y272892D02*
D03*
X6045Y282008D02*
D03*
X7000Y152000D02*
D03*
Y161000D02*
D03*
Y41000D02*
D03*
Y50000D02*
D03*
Y17400D02*
D03*
Y26400D02*
D03*
X51000Y7000D02*
D03*
X60000D02*
D03*
X31000D02*
D03*
X40000D02*
D03*
X20000D02*
D03*
X11000D02*
D03*
X130000D02*
D03*
X139000D02*
D03*
X110000D02*
D03*
X119000D02*
D03*
X79000D02*
D03*
X70000D02*
D03*
X99000D02*
D03*
X90000D02*
D03*
X210000D02*
D03*
X219000D02*
D03*
X190000D02*
D03*
X199000D02*
D03*
X159000D02*
D03*
X150000D02*
D03*
X179000D02*
D03*
X170000D02*
D03*
X251000D02*
D03*
X260000D02*
D03*
X231000D02*
D03*
X240000D02*
D03*
X311366Y20074D02*
D03*
X308000Y11000D02*
D03*
X280000Y7000D02*
D03*
X271000D02*
D03*
X300000D02*
D03*
X291000D02*
D03*
X311366Y49074D02*
D03*
Y58074D02*
D03*
Y29074D02*
D03*
Y38074D02*
D03*
X311379Y92000D02*
D03*
Y101000D02*
D03*
X311366Y72074D02*
D03*
Y81074D02*
D03*
X311379Y121000D02*
D03*
Y112000D02*
D03*
Y141000D02*
D03*
Y132000D02*
D03*
Y163000D02*
D03*
Y154000D02*
D03*
X311168Y200983D02*
D03*
Y191983D02*
D03*
Y219983D02*
D03*
Y210983D02*
D03*
X311379Y230000D02*
D03*
Y239000D02*
D03*
X210379Y100000D02*
D03*
X211000Y113000D02*
D03*
X215000Y103422D02*
D03*
Y108578D02*
D03*
X260617Y226121D02*
D03*
X272150Y225735D02*
D03*
X231000Y64000D02*
D03*
Y71000D02*
D03*
Y78000D02*
D03*
X178000Y61000D02*
D03*
Y70000D02*
D03*
Y78000D02*
D03*
X94000Y59000D02*
D03*
Y68000D02*
D03*
Y76000D02*
D03*
X146000Y59000D02*
D03*
Y68000D02*
D03*
Y75000D02*
D03*
X181604Y38754D02*
D03*
X160590Y73109D02*
D03*
X138814Y36077D02*
D03*
X110500Y186000D02*
D03*
X21000Y236000D02*
D03*
X12000Y234000D02*
D03*
X44078Y350207D02*
D03*
X38922D02*
D03*
X69514Y383351D02*
D03*
X70000Y390377D02*
D03*
X59000Y413250D02*
D03*
X260000Y649000D02*
D03*
X256000Y334000D02*
D03*
X269634Y616538D02*
D03*
X268000Y531373D02*
D03*
X304367Y495617D02*
D03*
X80573Y419000D02*
D03*
X20810Y499174D02*
D03*
X78163Y424000D02*
D03*
X51000Y441682D02*
D03*
X56000Y447000D02*
D03*
X81000Y469000D02*
D03*
X71000Y473000D02*
D03*
X68000Y481950D02*
D03*
X94000Y468750D02*
D03*
X117645Y453209D02*
D03*
X110000Y458000D02*
D03*
X139000Y457000D02*
D03*
X132000Y464000D02*
D03*
X116000Y480000D02*
D03*
X106031Y486000D02*
D03*
X94000Y495061D02*
D03*
X85000Y476000D02*
D03*
X77000Y482000D02*
D03*
X72000Y492000D02*
D03*
X61000Y500900D02*
D03*
X26000Y482000D02*
D03*
Y491000D02*
D03*
X99000Y512000D02*
D03*
X95000Y519000D02*
D03*
X85000Y522000D02*
D03*
X75000Y525000D02*
D03*
Y533000D02*
D03*
X85000Y531000D02*
D03*
X47000Y548000D02*
D03*
X58235Y557500D02*
D03*
X65000Y561000D02*
D03*
X80000Y567000D02*
D03*
X82000Y576000D02*
D03*
X113000Y582000D02*
D03*
Y589000D02*
D03*
X136138Y501000D02*
D03*
X136000Y509000D02*
D03*
Y516000D02*
D03*
X142000Y522000D02*
D03*
X171304Y501000D02*
D03*
X162495Y502100D02*
D03*
X171000Y494100D02*
D03*
X190000Y472561D02*
D03*
X199000Y474000D02*
D03*
X203000Y479000D02*
D03*
X200000Y506000D02*
D03*
X211000Y505000D02*
D03*
X216000Y519000D02*
D03*
X202250Y512053D02*
D03*
X198000Y533000D02*
D03*
X200500Y541200D02*
D03*
X200000Y551000D02*
D03*
X204000Y556000D02*
D03*
X211000Y550000D02*
D03*
X216000Y543000D02*
D03*
X221000Y537000D02*
D03*
X225000Y520000D02*
D03*
X242500Y521000D02*
D03*
X242000Y545000D02*
D03*
X237000Y550000D02*
D03*
X233000Y557000D02*
D03*
X227000Y563000D02*
D03*
X222000Y570000D02*
D03*
X219000Y577000D02*
D03*
X220000Y584000D02*
D03*
X209593Y588000D02*
D03*
X201000Y584000D02*
D03*
X191000Y580000D02*
D03*
X180798D02*
D03*
X184000Y588000D02*
D03*
X173000Y591000D02*
D03*
X161000Y592000D02*
D03*
X149000Y585000D02*
D03*
X148000Y575000D02*
D03*
Y565597D02*
D03*
X144000Y530000D02*
D03*
X136000Y529000D02*
D03*
X126000D02*
D03*
X116000D02*
D03*
X106000D02*
D03*
X97000D02*
D03*
X152000Y464900D02*
D03*
X185851Y468856D02*
D03*
X301382Y556890D02*
D03*
X144000Y466000D02*
D03*
X92706Y409693D02*
D03*
X91400Y401820D02*
D03*
X116580Y354945D02*
D03*
X42082Y372433D02*
D03*
X43000Y378000D02*
D03*
Y385000D02*
D03*
X182000Y298110D02*
D03*
X169493Y309585D02*
D03*
X159770Y295021D02*
D03*
X154000Y242000D02*
D03*
X122979Y249555D02*
D03*
X226846Y582104D02*
D03*
X243727Y556908D02*
D03*
X232334Y573000D02*
D03*
X131000Y320715D02*
D03*
X51000Y429000D02*
D03*
X10432Y413299D02*
D03*
X167590Y164707D02*
D03*
X198000Y124886D02*
D03*
X96756Y139000D02*
D03*
Y147000D02*
D03*
X97463Y131000D02*
D03*
X209984Y167556D02*
D03*
X203000Y174000D02*
D03*
X222000Y143000D02*
D03*
X219141Y135409D02*
D03*
X178000Y144000D02*
D03*
X167590Y157245D02*
D03*
X174137Y163613D02*
D03*
X279000Y426000D02*
D03*
X287009Y427331D02*
D03*
X207000Y395000D02*
D03*
X238000Y93000D02*
D03*
X226983Y94497D02*
D03*
X146000Y102250D02*
D03*
X251987Y646491D02*
D03*
X229336Y600032D02*
D03*
X293056Y563620D02*
D03*
X64250Y411000D02*
D03*
X53000D02*
D03*
X251000Y539000D02*
D03*
X217000Y364000D02*
D03*
X114000Y267457D02*
D03*
X94286Y256630D02*
D03*
X98915Y280464D02*
D03*
X143000Y308625D02*
D03*
X228000Y326000D02*
D03*
X208509Y322318D02*
D03*
X216124Y304912D02*
D03*
X212592Y316522D02*
D03*
X183422Y307000D02*
D03*
X236308Y379000D02*
D03*
X106000Y507000D02*
D03*
X262214Y591000D02*
D03*
X272362Y592250D02*
D03*
X51183Y281348D02*
D03*
X34000Y283000D02*
D03*
X249505Y55592D02*
D03*
X259639Y51697D02*
D03*
X249254Y21546D02*
D03*
X157250Y357000D02*
D03*
X148361D02*
D03*
X157250Y351000D02*
D03*
X124000Y350000D02*
D03*
X125331Y357000D02*
D03*
X154750Y381000D02*
D03*
X140000D02*
D03*
X249901Y447201D02*
D03*
X242661Y447000D02*
D03*
X255000Y421000D02*
D03*
X228132Y424000D02*
D03*
X302412Y452328D02*
D03*
X90000Y157000D02*
D03*
X72000Y118000D02*
D03*
X66000D02*
D03*
X60031Y151000D02*
D03*
X8349Y96165D02*
D03*
X9000Y116000D02*
D03*
X60252Y92808D02*
D03*
X7000Y299000D02*
D03*
X27824Y343392D02*
D03*
X20596Y280000D02*
D03*
X42000Y281000D02*
D03*
X87616Y336000D02*
D03*
X85979Y346134D02*
D03*
X109277Y354980D02*
D03*
X146000Y294000D02*
D03*
X135160Y293000D02*
D03*
X172000Y267000D02*
D03*
X162004Y346335D02*
D03*
X173000Y331000D02*
D03*
X180585Y312444D02*
D03*
X180357Y326914D02*
D03*
X172246Y347171D02*
D03*
X189038Y354140D02*
D03*
X197230Y296000D02*
D03*
X212000Y293000D02*
D03*
X228295Y307761D02*
D03*
X209842Y354733D02*
D03*
X267424Y245471D02*
D03*
X261090Y259032D02*
D03*
X279094Y225748D02*
D03*
X290000Y274000D02*
D03*
X279000D02*
D03*
X310321Y249668D02*
D03*
X307000Y274000D02*
D03*
X256118Y326408D02*
D03*
X231794Y330255D02*
D03*
X266461Y263112D02*
D03*
X215000Y244344D02*
D03*
X232000Y254500D02*
D03*
X218523Y250055D02*
D03*
X253486Y226121D02*
D03*
X223890Y185189D02*
D03*
X224582Y195700D02*
D03*
X240430Y176553D02*
D03*
X220886Y211221D02*
D03*
X181625Y225000D02*
D03*
X217000Y205000D02*
D03*
X232000Y144000D02*
D03*
X238712Y151000D02*
D03*
X196000Y201000D02*
D03*
X239000Y159000D02*
D03*
X207000Y198000D02*
D03*
X191000Y187000D02*
D03*
X171421Y180066D02*
D03*
X146000Y186000D02*
D03*
X64000Y193000D02*
D03*
X64000Y199000D02*
D03*
X114000Y210000D02*
D03*
X142000Y192000D02*
D03*
X117000Y189000D02*
D03*
X110500Y196000D02*
D03*
X144770Y224500D02*
D03*
X160757Y224000D02*
D03*
X152000D02*
D03*
X88835Y303178D02*
D03*
X95000Y305000D02*
D03*
X123098Y305046D02*
D03*
X106000Y278191D02*
D03*
X92000Y249000D02*
D03*
X70000Y267000D02*
D03*
X100625Y274941D02*
D03*
X69750Y275000D02*
D03*
X61000Y283000D02*
D03*
X83770Y216982D02*
D03*
X88000Y221000D02*
D03*
X94000D02*
D03*
X97000Y198000D02*
D03*
X90000Y192000D02*
D03*
X97000D02*
D03*
X91666Y200592D02*
D03*
X83000Y162000D02*
D03*
X77000D02*
D03*
X71000D02*
D03*
X51500Y237000D02*
D03*
X57500D02*
D03*
X63500D02*
D03*
X142250Y351889D02*
D03*
X63154Y345000D02*
D03*
X55000Y345000D02*
D03*
X13895Y486837D02*
D03*
X36000Y412000D02*
D03*
X22000D02*
D03*
X29000Y462000D02*
D03*
X22000D02*
D03*
X58471Y441682D02*
D03*
X70651Y422548D02*
D03*
X26776Y468075D02*
D03*
X30656Y499579D02*
D03*
X41914Y528049D02*
D03*
X41606Y534964D02*
D03*
X74000Y585000D02*
D03*
X71535Y562205D02*
D03*
X88863Y512989D02*
D03*
X170774Y461353D02*
D03*
X131664Y482330D02*
D03*
X150000Y526000D02*
D03*
X169000Y537750D02*
D03*
X163000Y533000D02*
D03*
X212574Y581760D02*
D03*
X170389Y582951D02*
D03*
X159837Y583903D02*
D03*
X153923Y604004D02*
D03*
X146000Y557000D02*
D03*
X132437Y582304D02*
D03*
X130000Y496000D02*
D03*
X38895Y543374D02*
D03*
X13134Y584000D02*
D03*
X6032Y568000D02*
D03*
X57131Y568365D02*
D03*
X56456Y599584D02*
D03*
X70000Y344000D02*
D03*
X103250Y351844D02*
D03*
X73164Y351000D02*
D03*
X97036Y351844D02*
D03*
X79000Y352000D02*
D03*
X88695Y352239D02*
D03*
X88350Y394683D02*
D03*
X78479Y395177D02*
D03*
X244274Y510149D02*
D03*
X21652Y286668D02*
D03*
X8010Y308133D02*
D03*
X8000Y320000D02*
D03*
X22000Y342000D02*
D03*
X84289Y307791D02*
D03*
X84000Y320000D02*
D03*
X264000Y536000D02*
D03*
X269358Y554117D02*
D03*
X307000Y519000D02*
D03*
X310384Y538852D02*
D03*
X300621Y521518D02*
D03*
X270176Y538852D02*
D03*
X191000Y237000D02*
D03*
Y247000D02*
D03*
X192000Y262000D02*
D03*
X191000Y254000D02*
D03*
X145832Y265770D02*
D03*
X154832Y268000D02*
D03*
X267740Y144880D02*
D03*
X293117Y144677D02*
D03*
X311487Y171700D02*
D03*
X311487Y184000D02*
D03*
X292696Y224904D02*
D03*
X248055Y184584D02*
D03*
Y196713D02*
D03*
X193500Y269500D02*
D03*
Y224500D02*
D03*
X178500Y269000D02*
D03*
X179000Y254000D02*
D03*
Y239000D02*
D03*
X163500Y270000D02*
D03*
X164000Y255000D02*
D03*
Y240000D02*
D03*
X149000Y254500D02*
D03*
X127000Y224500D02*
D03*
X122979Y219555D02*
D03*
X126973Y234500D02*
D03*
X122952Y229555D02*
D03*
X127000Y244500D02*
D03*
X122979Y239555D02*
D03*
X127000Y264500D02*
D03*
X122979Y259554D02*
D03*
Y269555D02*
D03*
X168500Y291000D02*
D03*
X153554Y295021D02*
D03*
X178500Y291000D02*
D03*
X173554Y295021D02*
D03*
X188500Y291456D02*
D03*
X215000Y269500D02*
D03*
Y259500D02*
D03*
X219021Y264445D02*
D03*
X219477Y234445D02*
D03*
X219021Y224445D02*
D03*
X188445Y198979D02*
D03*
X173500Y203000D02*
D03*
X178445Y198979D02*
D03*
X163500Y203000D02*
D03*
X153500D02*
D03*
X158446Y198979D02*
D03*
X148446D02*
D03*
X143500Y203000D02*
D03*
X68000Y368066D02*
D03*
X109000Y383493D02*
D03*
X29855Y353171D02*
D03*
X68000Y377000D02*
D03*
X28926Y410884D02*
D03*
X49000Y392000D02*
D03*
X29000D02*
D03*
X44003Y410279D02*
D03*
X51000Y353000D02*
D03*
X34045Y346249D02*
D03*
X48554Y346375D02*
D03*
X29000Y372000D02*
D03*
X11000Y382000D02*
D03*
X234971Y591003D02*
D03*
X253637Y556429D02*
D03*
X263250Y558000D02*
D03*
X262947Y615405D02*
D03*
X276370Y616688D02*
D03*
X292250Y598000D02*
D03*
X295043Y591078D02*
D03*
Y585922D02*
D03*
X298875Y595554D02*
D03*
X299001Y581045D02*
D03*
X95000Y164000D02*
D03*
X170138Y130000D02*
D03*
Y137279D02*
D03*
X133146Y185936D02*
D03*
X253250Y596000D02*
D03*
X263250Y585000D02*
D03*
X164000Y100000D02*
D03*
X164074Y114000D02*
D03*
X158000Y110000D02*
D03*
Y104844D02*
D03*
X138000Y106364D02*
D03*
X122000Y107000D02*
D03*
X133078Y110000D02*
D03*
X127922D02*
D03*
X278999Y460996D02*
D03*
Y476001D02*
D03*
X279249Y445992D02*
D03*
Y491004D02*
D03*
X177000Y394995D02*
D03*
Y410000D02*
D03*
X177250Y379991D02*
D03*
Y425003D02*
D03*
X234250Y491004D02*
D03*
Y445992D02*
D03*
X234000Y476001D02*
D03*
Y460996D02*
D03*
X249000D02*
D03*
Y476001D02*
D03*
X249250Y491004D02*
D03*
X264000Y460996D02*
D03*
Y476001D02*
D03*
X264250Y491004D02*
D03*
X162250Y425003D02*
D03*
Y379991D02*
D03*
X162000Y410000D02*
D03*
Y394995D02*
D03*
X147250Y425003D02*
D03*
Y379991D02*
D03*
X147000Y410000D02*
D03*
Y394995D02*
D03*
X132000D02*
D03*
X132250Y379991D02*
D03*
X7249Y220583D02*
D03*
X7056Y213767D02*
D03*
X43000Y195000D02*
D03*
X44000Y229000D02*
D03*
X43640Y205000D02*
D03*
X44000Y221000D02*
D03*
X43640Y213879D02*
D03*
X274275Y512601D02*
D03*
X254275D02*
D03*
X225566Y512740D02*
D03*
X264273Y512601D02*
D03*
X259247Y517366D02*
D03*
X284273Y512601D02*
D03*
X279247Y517366D02*
D03*
X207882Y470998D02*
D03*
X212648Y476023D02*
D03*
X207882Y460995D02*
D03*
X212648Y466021D02*
D03*
Y456018D02*
D03*
X239251Y419630D02*
D03*
X244225Y424396D02*
D03*
X300853Y470975D02*
D03*
X305618Y445994D02*
D03*
X300853Y440968D02*
D03*
X105882Y394994D02*
D03*
X110648Y390017D02*
D03*
X137225Y358394D02*
D03*
X177225D02*
D03*
X167223D02*
D03*
X172249Y353629D02*
D03*
X203618Y420003D02*
D03*
Y430005D02*
D03*
X198853Y424979D02*
D03*
X182275Y446599D02*
D03*
X172275D02*
D03*
X162275D02*
D03*
X167249Y451365D02*
D03*
X157249D02*
D03*
X152275Y446599D02*
D03*
X142402Y446587D02*
D03*
X122000Y138000D02*
D03*
Y149000D02*
D03*
Y160000D02*
D03*
X133000Y138000D02*
D03*
Y149000D02*
D03*
Y160000D02*
D03*
X144000Y138000D02*
D03*
Y149000D02*
D03*
Y160000D02*
D03*
D133*
X39000Y179500D02*
D03*
Y160500D02*
D03*
X19000Y170000D02*
D03*
X42810Y258000D02*
D03*
X22810Y267500D02*
D03*
Y248500D02*
D03*
D134*
X280750Y133000D02*
D03*
X297250D02*
D03*
D135*
X82301Y102500D02*
D03*
X90000Y97500D02*
D03*
X82301Y92500D02*
D03*
X90000D02*
D03*
X82301Y97500D02*
D03*
D136*
X89850Y102500D02*
D03*
D137*
X260786Y658000D02*
D03*
X251214D02*
D03*
X292786Y502000D02*
D03*
X283214D02*
D03*
D138*
X102500Y451000D02*
D03*
X93500D02*
D03*
X101755Y439750D02*
D03*
X92755D02*
D03*
X217500Y529000D02*
D03*
X226500D02*
D03*
X243356Y582215D02*
D03*
X234356D02*
D03*
X253500Y566000D02*
D03*
X244500D02*
D03*
X185500Y137000D02*
D03*
X194500D02*
D03*
X171500Y111000D02*
D03*
X180500D02*
D03*
X171500Y101000D02*
D03*
X180500D02*
D03*
D139*
X75000Y368250D02*
D03*
Y375750D02*
D03*
D140*
X62500Y138000D02*
D03*
Y128000D02*
D03*
X63000Y353000D02*
D03*
Y363000D02*
D03*
D141*
X211900Y141000D02*
D03*
X204100D02*
D03*
D142*
X186250Y147000D02*
D03*
X193750D02*
D03*
X123750Y202000D02*
D03*
X116250D02*
D03*
X65250Y258142D02*
D03*
X72750D02*
D03*
D143*
X12621Y251000D02*
D03*
Y241000D02*
D03*
D144*
X34000Y238500D02*
D03*
Y229500D02*
D03*
D145*
X33080Y201238D02*
D03*
Y191738D02*
D03*
D146*
X154954Y127642D02*
D03*
X162954D02*
D03*
D147*
X171100Y121000D02*
D03*
X178900D02*
D03*
X172100Y91000D02*
D03*
X179900D02*
D03*
X124874Y117973D02*
D03*
X117074D02*
D03*
X136100Y118000D02*
D03*
X143900D02*
D03*
D148*
X261000Y623000D02*
D03*
X271000D02*
D03*
X52291Y298000D02*
D03*
X42291D02*
D03*
X51000Y288000D02*
D03*
X41000D02*
D03*
D149*
X289875Y611000D02*
D03*
X300125D02*
D03*
X54125Y364000D02*
D03*
X43875D02*
D03*
D150*
X278250Y608683D02*
D03*
X270750D02*
D03*
D151*
X156000Y372786D02*
D03*
Y365214D02*
D03*
X262265Y437208D02*
D03*
Y429637D02*
D03*
D152*
X152824Y435000D02*
D03*
X167824D02*
D03*
X254500Y501611D02*
D03*
X269500D02*
D03*
D153*
X64000Y327761D02*
D03*
Y312239D02*
D03*
X42000Y327761D02*
D03*
Y312239D02*
D03*
X79000Y146761D02*
D03*
Y131239D02*
D03*
D154*
X267301Y165000D02*
D03*
X254761D02*
D03*
M02*
