G04*
G04 #@! TF.GenerationSoftware,Altium Limited,Altium Designer,24.9.1 (31)*
G04*
G04 Layer_Color=8388736*
%FSLAX44Y44*%
%MOMM*%
G71*
G04*
G04 #@! TF.SameCoordinates,C615B3E7-4A0B-44CC-A6BC-150B9DE6E2D7*
G04*
G04*
G04 #@! TF.FilePolarity,Positive*
G04*
G01*
G75*
%ADD15C,0.1000*%
D15*
X24000Y170000D02*
X34000D01*
X29000Y165000D02*
Y175000D01*
X264000Y129666D02*
X274000D01*
X269000Y124666D02*
Y134666D01*
X289000Y128000D02*
Y138000D01*
X284000Y133000D02*
X294000D01*
X173000Y465000D02*
X183000D01*
X178000Y460000D02*
Y470000D01*
X294000Y300000D02*
X304000D01*
X299000Y295000D02*
Y305000D01*
X256000Y653000D02*
Y663000D01*
X251000Y658000D02*
X261000D01*
X60359Y417231D02*
Y427231D01*
X55360Y422231D02*
X65359D01*
X296000Y545000D02*
X306000D01*
X301000Y540000D02*
Y550000D01*
X78173Y406000D02*
X88173D01*
X83173Y401000D02*
Y411000D01*
X133000Y253000D02*
X143000D01*
X138000Y248000D02*
Y258000D01*
X150000Y416000D02*
X160000D01*
X155000Y411000D02*
Y421000D01*
X165000Y416000D02*
X175000D01*
X170000Y411000D02*
Y421000D01*
X156578Y153000D02*
Y163000D01*
X151578Y158000D02*
X161578D01*
X159022Y131989D02*
Y141989D01*
X154022Y136989D02*
X164022D01*
X144000Y91000D02*
X154000D01*
X149000Y86000D02*
Y96000D01*
X112293Y170793D02*
X122293D01*
X117293Y165793D02*
Y175793D01*
X108000Y131000D02*
Y141000D01*
X103000Y136000D02*
X113000D01*
X108000Y131000D02*
Y141000D01*
X103000Y136000D02*
X113000D01*
X108102Y140000D02*
Y150000D01*
X103102Y145000D02*
X113102D01*
X57500Y133000D02*
X67500D01*
X62500Y128000D02*
Y138000D01*
X162000Y147000D02*
X172000D01*
X167000Y142000D02*
Y152000D01*
X189000Y119886D02*
Y129886D01*
X184000Y124886D02*
X194000D01*
X251000Y483000D02*
X261000D01*
X256000Y478000D02*
Y488000D01*
X288000Y497000D02*
Y507000D01*
X283000Y502000D02*
X293000D01*
X127020Y348396D02*
X137020D01*
X132020Y343396D02*
Y353396D01*
X225699Y409328D02*
Y419328D01*
X220699Y414328D02*
X230699D01*
X54124Y369905D02*
Y379905D01*
X49124Y374905D02*
X59124D01*
X54000Y379000D02*
Y389000D01*
X49000Y384000D02*
X59000D01*
X54000Y379000D02*
Y389000D01*
X49000Y384000D02*
X59000D01*
X277000Y593000D02*
X287000D01*
X282000Y588000D02*
Y598000D01*
X302500Y597000D02*
Y607000D01*
X297500Y602000D02*
X307500D01*
X266000Y618000D02*
Y628000D01*
X261000Y623000D02*
X271000D01*
X295000Y606000D02*
Y616000D01*
X290000Y611000D02*
X300000D01*
X30250Y401222D02*
X40250D01*
X35250Y396222D02*
Y406222D01*
X21000Y399000D02*
Y409000D01*
X16000Y404000D02*
X26000D01*
X49000Y359000D02*
Y369000D01*
X44000Y364000D02*
X54000D01*
X263561Y593000D02*
Y603000D01*
X258561Y598000D02*
X268561D01*
X263561Y593000D02*
Y603000D01*
X258561Y598000D02*
X268561D01*
X47291Y293000D02*
Y303000D01*
X42291Y298000D02*
X52291D01*
X140000Y369000D02*
X150000D01*
X145000Y364000D02*
Y374000D01*
X129451Y369423D02*
X139451D01*
X134451Y364423D02*
Y374423D01*
X118750Y369910D02*
X128750D01*
X123750Y364910D02*
Y374910D01*
X122000Y413000D02*
Y423000D01*
X117000Y418000D02*
X127000D01*
X137000Y435000D02*
X147000D01*
X142000Y430000D02*
Y440000D01*
X187472Y381334D02*
Y391333D01*
X182472Y386333D02*
X192472D01*
X151000Y369000D02*
X161000D01*
X156000Y364000D02*
Y374000D01*
X233661Y435367D02*
X243661D01*
X238661Y430367D02*
Y440367D01*
X245449Y434485D02*
X255449D01*
X250449Y429485D02*
Y439485D01*
X220000Y437000D02*
X230000D01*
X225000Y432000D02*
Y442000D01*
X224000Y479000D02*
Y489000D01*
X219000Y484000D02*
X229000D01*
X236495Y498377D02*
X246495D01*
X241495Y493377D02*
Y503377D01*
X290500Y445994D02*
Y455994D01*
X285500Y450994D02*
X295500D01*
X257265Y433423D02*
X267265D01*
X262265Y428423D02*
Y438423D01*
X172000Y274000D02*
Y284000D01*
X167000Y279000D02*
X177000D01*
X248950Y305316D02*
X258950D01*
X253950Y300316D02*
Y310316D01*
X47250Y208127D02*
X57250D01*
X52250Y203127D02*
Y213127D01*
X124000Y184000D02*
Y194000D01*
X119000Y189000D02*
X129000D01*
X13000Y279000D02*
Y289000D01*
X8000Y284000D02*
X18000D01*
X160324Y430000D02*
Y440000D01*
X155324Y435000D02*
X165324D01*
X262000Y496611D02*
Y506611D01*
X257000Y501611D02*
X267000D01*
X59000Y320000D02*
X69000D01*
X64000Y315000D02*
Y325000D01*
X37000Y320000D02*
X47000D01*
X42000Y315000D02*
Y325000D01*
X74000Y139000D02*
X84000D01*
X79000Y134000D02*
Y144000D01*
X181000Y158000D02*
Y168000D01*
X176000Y163000D02*
X186000D01*
X179352Y319286D02*
X189352D01*
X184352Y314286D02*
Y324286D01*
X230386Y184826D02*
X240386D01*
X235386Y179826D02*
Y189826D01*
X230844Y195613D02*
X240844D01*
X235844Y190613D02*
Y200613D01*
X228000Y211000D02*
Y221000D01*
X223000Y216000D02*
X233000D01*
X201453Y226580D02*
X211453D01*
X206453Y221580D02*
Y231580D01*
X178293Y334380D02*
X188293D01*
X183293Y329380D02*
Y339380D01*
X183910Y275140D02*
Y285140D01*
X178910Y280140D02*
X188910D01*
X92736Y265316D02*
Y275316D01*
X87736Y270316D02*
X97736D01*
X82000Y248142D02*
Y258142D01*
X77000Y253142D02*
X87000D01*
X94000Y336000D02*
X104000D01*
X99000Y331000D02*
Y341000D01*
X218792Y317098D02*
X228792D01*
X223792Y312098D02*
Y322098D01*
X158000Y190000D02*
X168000D01*
X163000Y185000D02*
Y195000D01*
X154770Y214370D02*
X164770D01*
X159770Y209370D02*
Y219370D01*
X55500Y223000D02*
Y233000D01*
X50500Y228000D02*
X60500D01*
X86000Y228375D02*
Y238375D01*
X81000Y233375D02*
X91000D01*
X58000Y358000D02*
X68000D01*
X63000Y353000D02*
Y363000D01*
X46000Y283000D02*
Y293000D01*
X41000Y288000D02*
X51000D01*
X257000Y602780D02*
Y612780D01*
X252000Y607780D02*
X262000D01*
X262000Y149000D02*
Y159000D01*
X257000Y154000D02*
X267000D01*
X261031Y160000D02*
Y170000D01*
X256031Y165000D02*
X266031D01*
X32810Y253000D02*
Y263000D01*
X27810Y258000D02*
X37810D01*
X190861Y280642D02*
X200861D01*
X195861Y275642D02*
Y285642D01*
X183632Y340235D02*
Y350235D01*
X178632Y345235D02*
X188632D01*
X146018Y311215D02*
Y321215D01*
X141018Y316215D02*
X151018D01*
X261706Y268000D02*
Y278000D01*
X256706Y273000D02*
X266706D01*
X86000Y291000D02*
X96000D01*
X91000Y286000D02*
Y296000D01*
X225779Y155633D02*
X235779D01*
X230779Y150633D02*
Y160633D01*
X165494Y311483D02*
Y321483D01*
X160494Y316483D02*
X170494D01*
X156000Y281977D02*
X166000D01*
X161000Y276977D02*
Y286977D01*
X166000Y334000D02*
Y344000D01*
X161000Y339000D02*
X171000D01*
X154625Y162000D02*
Y172000D01*
X149625Y167000D02*
X159625D01*
X145332Y279602D02*
X155332D01*
X150332Y274602D02*
Y284602D01*
X180000Y214000D02*
X190000D01*
X185000Y209000D02*
Y219000D01*
X188000Y162250D02*
X198000D01*
X193000Y157250D02*
Y167250D01*
X213907Y155023D02*
X223906D01*
X218906Y150023D02*
Y160023D01*
X133535Y280566D02*
X143535D01*
X138535Y275566D02*
Y285566D01*
X204000Y259000D02*
Y269000D01*
X199000Y264000D02*
X209000D01*
X243715Y326774D02*
Y336774D01*
X238715Y331774D02*
X248715D01*
X141000Y213919D02*
X151000D01*
X146000Y208919D02*
Y218919D01*
X250000Y254000D02*
Y264000D01*
X245000Y259000D02*
X255000D01*
X111580Y342077D02*
X121580D01*
X116580Y337077D02*
Y347077D01*
X198000Y162000D02*
X208000D01*
X203000Y157000D02*
Y167000D01*
X191000Y214000D02*
X201000D01*
X196000Y209000D02*
Y219000D01*
X97637Y301859D02*
X107637D01*
X102637Y296859D02*
Y306859D01*
X109963Y301768D02*
X119963D01*
X114963Y296768D02*
Y306768D01*
X253841Y314129D02*
Y324129D01*
X248841Y319129D02*
X258841D01*
X256962Y229023D02*
Y239023D01*
X251962Y234023D02*
X261962D01*
X256742Y240692D02*
Y250692D01*
X251742Y245692D02*
X261742D01*
X130000Y197000D02*
X140000D01*
X135000Y192000D02*
Y202000D01*
X130000Y214903D02*
X140000D01*
X135000Y209903D02*
Y219903D01*
X260956Y279558D02*
Y289558D01*
X255956Y284558D02*
X265956D01*
X203638Y249352D02*
Y259352D01*
X198638Y254352D02*
X208638D01*
X131000Y173000D02*
X141000D01*
X136000Y168000D02*
Y178000D01*
X99000Y340000D02*
Y350000D01*
X94000Y345000D02*
X104000D01*
X77023Y270390D02*
X87023D01*
X82023Y265390D02*
Y275389D01*
X203129Y235770D02*
Y245770D01*
X198129Y240770D02*
X208129D01*
X224385Y349766D02*
Y359766D01*
X219385Y354766D02*
X229385D01*
X70000Y181000D02*
X80000D01*
X75000Y176000D02*
Y186000D01*
X67750Y232844D02*
X77750D01*
X72750Y227844D02*
Y237844D01*
X84000Y180500D02*
X94000D01*
X89000Y175500D02*
Y185500D01*
M02*
