G04*
G04 #@! TF.GenerationSoftware,Altium Limited,Altium Designer,21.6.4 (81)*
G04*
G04 Layer_Color=8388736*
%FSLAX44Y44*%
%MOMM*%
G71*
G04*
G04 #@! TF.SameCoordinates,2686D9AD-387F-486B-B8E0-4D59B8EDC849*
G04*
G04*
G04 #@! TF.FilePolarity,Negative*
G04*
G01*
G75*
%ADD13R,0.4032X0.9032*%
%ADD14C,2.9032*%
G54D13*
X152000Y15800D02*
D03*
Y46600D02*
D03*
X156000Y15800D02*
D03*
Y46600D02*
D03*
X160000Y15800D02*
D03*
Y46600D02*
D03*
X164000Y15800D02*
D03*
Y46600D02*
D03*
X168000Y15800D02*
D03*
Y46600D02*
D03*
X172000Y15800D02*
D03*
Y46600D02*
D03*
X176000Y15800D02*
D03*
Y46600D02*
D03*
X180000Y15800D02*
D03*
Y46600D02*
D03*
X184000Y15800D02*
D03*
Y46600D02*
D03*
X188000Y15800D02*
D03*
Y46600D02*
D03*
X192000Y15800D02*
D03*
Y46600D02*
D03*
X196000Y15800D02*
D03*
Y46600D02*
D03*
X200000Y15800D02*
D03*
Y46600D02*
D03*
X204000Y15800D02*
D03*
Y46600D02*
D03*
X208000Y15800D02*
D03*
Y46600D02*
D03*
X212000Y15800D02*
D03*
Y46600D02*
D03*
X216000Y15800D02*
D03*
Y46600D02*
D03*
X220000Y15800D02*
D03*
Y46600D02*
D03*
X224000Y15800D02*
D03*
Y46600D02*
D03*
X228000Y15800D02*
D03*
Y46600D02*
D03*
X232000Y15800D02*
D03*
Y46600D02*
D03*
X236000Y15800D02*
D03*
Y46600D02*
D03*
X240000Y15800D02*
D03*
Y46600D02*
D03*
X244000Y15800D02*
D03*
Y46600D02*
D03*
X248000Y15800D02*
D03*
Y46600D02*
D03*
X252000Y15800D02*
D03*
Y46600D02*
D03*
X256000Y15800D02*
D03*
Y46600D02*
D03*
X260000Y15800D02*
D03*
Y46600D02*
D03*
X264000Y15800D02*
D03*
Y46600D02*
D03*
X268000Y15800D02*
D03*
Y46600D02*
D03*
X272000Y15800D02*
D03*
Y46600D02*
D03*
X276000Y15800D02*
D03*
Y46600D02*
D03*
X280000Y15800D02*
D03*
Y46600D02*
D03*
X284000Y15800D02*
D03*
Y46600D02*
D03*
X288000Y15800D02*
D03*
Y46600D02*
D03*
X292000Y15800D02*
D03*
Y46600D02*
D03*
X296000Y15800D02*
D03*
Y46600D02*
D03*
X300000Y15800D02*
D03*
Y46600D02*
D03*
X304000Y15800D02*
D03*
Y46600D02*
D03*
X308000Y15800D02*
D03*
Y46600D02*
D03*
X312000Y15800D02*
D03*
Y46600D02*
D03*
X316000Y15800D02*
D03*
Y46600D02*
D03*
X320000Y15800D02*
D03*
Y46600D02*
D03*
X324000Y15800D02*
D03*
Y46600D02*
D03*
X328000Y15800D02*
D03*
Y46600D02*
D03*
X332000Y15800D02*
D03*
Y46600D02*
D03*
X336000Y15800D02*
D03*
Y46600D02*
D03*
X340000Y15800D02*
D03*
Y46600D02*
D03*
X344000Y15800D02*
D03*
Y46600D02*
D03*
X348000Y15800D02*
D03*
Y46600D02*
D03*
X152000Y355000D02*
D03*
Y385800D02*
D03*
X156000Y355000D02*
D03*
Y385800D02*
D03*
X160000Y355000D02*
D03*
Y385800D02*
D03*
X164000Y355000D02*
D03*
Y385800D02*
D03*
X168000Y355000D02*
D03*
Y385800D02*
D03*
X172000Y355000D02*
D03*
Y385800D02*
D03*
X176000Y355000D02*
D03*
Y385800D02*
D03*
X180000Y355000D02*
D03*
Y385800D02*
D03*
X184000Y355000D02*
D03*
Y385800D02*
D03*
X188000Y355000D02*
D03*
Y385800D02*
D03*
X192000Y355000D02*
D03*
Y385800D02*
D03*
X196000Y355000D02*
D03*
Y385800D02*
D03*
X200000Y355000D02*
D03*
Y385800D02*
D03*
X204000Y355000D02*
D03*
Y385800D02*
D03*
X208000Y355000D02*
D03*
Y385800D02*
D03*
X212000Y355000D02*
D03*
Y385800D02*
D03*
X216000Y355000D02*
D03*
Y385800D02*
D03*
X220000Y355000D02*
D03*
Y385800D02*
D03*
X224000Y355000D02*
D03*
Y385800D02*
D03*
X228000Y355000D02*
D03*
Y385800D02*
D03*
X232000Y355000D02*
D03*
Y385800D02*
D03*
X236000Y355000D02*
D03*
Y385800D02*
D03*
X240000Y355000D02*
D03*
Y385800D02*
D03*
X244000Y355000D02*
D03*
Y385800D02*
D03*
X248000Y355000D02*
D03*
Y385800D02*
D03*
X252000Y355000D02*
D03*
Y385800D02*
D03*
X256000Y355000D02*
D03*
Y385800D02*
D03*
X260000Y355000D02*
D03*
Y385800D02*
D03*
X264000Y355000D02*
D03*
Y385800D02*
D03*
X268000Y355000D02*
D03*
Y385800D02*
D03*
X272000Y355000D02*
D03*
Y385800D02*
D03*
X276000Y355000D02*
D03*
Y385800D02*
D03*
X280000Y355000D02*
D03*
Y385800D02*
D03*
X284000Y355000D02*
D03*
Y385800D02*
D03*
X288000Y355000D02*
D03*
Y385800D02*
D03*
X292000Y355000D02*
D03*
Y385800D02*
D03*
X296000Y355000D02*
D03*
Y385800D02*
D03*
X300000Y355000D02*
D03*
Y385800D02*
D03*
X304000Y355000D02*
D03*
Y385800D02*
D03*
X308000Y355000D02*
D03*
Y385800D02*
D03*
X312000Y355000D02*
D03*
Y385800D02*
D03*
X316000Y355000D02*
D03*
Y385800D02*
D03*
X320000Y355000D02*
D03*
Y385800D02*
D03*
X324000Y355000D02*
D03*
Y385800D02*
D03*
X328000Y355000D02*
D03*
Y385800D02*
D03*
X332000Y355000D02*
D03*
Y385800D02*
D03*
X336000Y355000D02*
D03*
Y385800D02*
D03*
X340000Y355000D02*
D03*
Y385800D02*
D03*
X344000Y355000D02*
D03*
Y385800D02*
D03*
X348000Y355000D02*
D03*
Y385800D02*
D03*
G54D14*
X515000Y365036D02*
D03*
X35000Y365000D02*
D03*
X515000Y35000D02*
D03*
X35000D02*
D03*
M02*
