G04*
G04 #@! TF.GenerationSoftware,Altium Limited,Altium Designer,24.2.2 (26)*
G04*
G04 Layer_Physical_Order=2*
G04 Layer_Color=36540*
%FSLAX44Y44*%
%MOMM*%
G71*
G04*
G04 #@! TF.SameCoordinates,E5005945-8A51-4B8D-8BE1-141B8C32279E*
G04*
G04*
G04 #@! TF.FilePolarity,Positive*
G04*
G01*
G75*
%ADD127C,1.1900*%
%ADD144C,1.4500*%
%ADD145C,0.4064*%
%ADD146C,0.5000*%
G36*
X307439Y668097D02*
X308976Y667460D01*
X310359Y666536D01*
X311536Y665359D01*
X312460Y663976D01*
X313097Y662439D01*
X313422Y660807D01*
X313422Y659975D01*
X313432Y391634D01*
X312162Y391120D01*
X311646Y391636D01*
X310498Y392112D01*
X309255D01*
X308107Y391636D01*
X307228Y390757D01*
X306753Y389609D01*
Y388366D01*
X307228Y387218D01*
X308107Y386339D01*
X309255Y385863D01*
X310498D01*
X311646Y386339D01*
X312162Y386855D01*
X313432Y386342D01*
X313433Y364197D01*
X312163Y363349D01*
X312101Y363374D01*
X310858D01*
X309710Y362899D01*
X308831Y362020D01*
X308356Y360871D01*
Y359628D01*
X308831Y358480D01*
X309710Y357601D01*
X310858Y357126D01*
X312101D01*
X312164Y357152D01*
X313434Y356303D01*
X313439Y218768D01*
X312169Y218242D01*
X311990Y218421D01*
X310842Y218897D01*
X309599D01*
X308451Y218421D01*
X307572Y217542D01*
X307096Y216394D01*
Y216298D01*
X307071Y215150D01*
X305923Y215125D01*
X305827D01*
X304679Y214649D01*
X303800Y213771D01*
X303325Y212622D01*
Y211379D01*
X303800Y210231D01*
X304679Y209352D01*
X305827Y208876D01*
X307070D01*
X308218Y209352D01*
X309097Y210231D01*
X309573Y211379D01*
Y211475D01*
X309599Y212623D01*
X310746Y212648D01*
X310842D01*
X311990Y213124D01*
X312169Y213303D01*
X313439Y212777D01*
X313447Y12525D01*
Y11693D01*
X313122Y10061D01*
X312486Y8524D01*
X311561Y7141D01*
X310385Y5964D01*
X309001Y5040D01*
X307464Y4403D01*
X305832Y4078D01*
X305000Y4078D01*
X12525Y4078D01*
X11693D01*
X10061Y4403D01*
X8524Y5040D01*
X7141Y5964D01*
X5964Y7140D01*
X5040Y8524D01*
X4403Y10061D01*
X4078Y11693D01*
X4078Y12525D01*
Y72364D01*
X5348Y72617D01*
X5351Y72609D01*
X6230Y71730D01*
X7379Y71254D01*
X8621D01*
X9770Y71730D01*
X10649Y72609D01*
X11124Y73757D01*
Y75000D01*
X10649Y76148D01*
X9770Y77027D01*
Y78351D01*
X10649Y79230D01*
X11124Y80379D01*
Y81621D01*
X10649Y82770D01*
X9770Y83649D01*
X8621Y84124D01*
X7379D01*
X6230Y83649D01*
X5351Y82770D01*
X5348Y82762D01*
X4078Y83015D01*
Y90207D01*
X4769Y90593D01*
X5348Y90802D01*
X6379Y90376D01*
X7621D01*
X8770Y90851D01*
X9649Y91730D01*
X10124Y92879D01*
Y94121D01*
X9649Y95270D01*
X8770Y96149D01*
X7621Y96624D01*
X6379D01*
X5348Y96197D01*
X4769Y96407D01*
X4078Y96793D01*
Y193135D01*
X5348Y193984D01*
X5609Y193876D01*
X6852D01*
X8000Y194351D01*
X8879Y195230D01*
X9355Y196379D01*
Y197621D01*
X8879Y198770D01*
X8000Y199649D01*
X6852Y200124D01*
X5609D01*
X5348Y200016D01*
X4078Y200865D01*
Y202985D01*
X5348Y203238D01*
X5351Y203230D01*
X6230Y202351D01*
X7379Y201876D01*
X8621D01*
X9770Y202351D01*
X10649Y203230D01*
X11124Y204379D01*
Y205621D01*
X10649Y206770D01*
X9770Y207649D01*
X9417Y207794D01*
X9070Y209243D01*
X9545Y210391D01*
Y211634D01*
X9070Y212782D01*
X8191Y213661D01*
X7615Y213899D01*
Y215274D01*
X7802Y215351D01*
X8680Y216230D01*
X9156Y217379D01*
Y218621D01*
X8680Y219770D01*
X7802Y220649D01*
X6653Y221124D01*
X5410D01*
X5348Y221098D01*
X4078Y221947D01*
X4078Y427985D01*
X5348Y428238D01*
X5351Y428230D01*
X6230Y427351D01*
X7379Y426876D01*
X8621D01*
X9770Y427351D01*
X10649Y428230D01*
X11124Y429379D01*
Y430621D01*
X10649Y431770D01*
X9770Y432649D01*
X8621Y433124D01*
X7379D01*
X6230Y432649D01*
X5351Y431770D01*
X5348Y431762D01*
X4078Y432015D01*
Y595868D01*
X5348Y596121D01*
X5401Y595994D01*
X6279Y595116D01*
X7428Y594640D01*
X8670D01*
X9819Y595116D01*
X10698Y595994D01*
X11173Y597143D01*
Y598386D01*
X10698Y599534D01*
X9819Y600413D01*
X8670Y600888D01*
X7428D01*
X6279Y600413D01*
X5401Y599534D01*
X5348Y599408D01*
X4078Y599660D01*
Y659975D01*
Y660807D01*
X4403Y662439D01*
X5040Y663976D01*
X5964Y665359D01*
X7140Y666536D01*
X8524Y667460D01*
X10061Y668097D01*
X11693Y668422D01*
X12525Y668422D01*
X305807D01*
X307439Y668097D01*
D02*
G37*
%LPC*%
G36*
X290401Y658328D02*
X288892D01*
X288880Y658326D01*
X288868Y658328D01*
X288425Y658325D01*
X286939D01*
X286545Y658247D01*
X286143D01*
X283210Y657663D01*
X282838Y657510D01*
X282445Y657431D01*
X279681Y656287D01*
X279347Y656064D01*
X278976Y655910D01*
X276489Y654248D01*
X276205Y653964D01*
X275871Y653741D01*
X273756Y651626D01*
X273533Y651292D01*
X273249Y651008D01*
X271588Y648521D01*
X271434Y648150D01*
X271211Y647816D01*
X270066Y645053D01*
X269988Y644659D01*
X269834Y644288D01*
X269251Y641354D01*
Y640953D01*
X269172Y640559D01*
Y637209D01*
X269251Y636815D01*
Y636414D01*
X269846Y633422D01*
X269999Y633051D01*
X270078Y632657D01*
X271245Y629839D01*
X271468Y629505D01*
X271622Y629134D01*
X273316Y626598D01*
X273600Y626314D01*
X273824Y625980D01*
X275980Y623823D01*
X276314Y623600D01*
X276598Y623316D01*
X279135Y621621D01*
X279506Y621468D01*
X279840Y621244D01*
X282658Y620077D01*
X283051Y619999D01*
X283423Y619845D01*
X286414Y619250D01*
X286816D01*
X287210Y619172D01*
X291199D01*
X291593Y619250D01*
X291994D01*
X294783Y619805D01*
X295155Y619958D01*
X295549Y620037D01*
X298176Y621125D01*
X298510Y621348D01*
X298881Y621502D01*
X301245Y623082D01*
X301530Y623366D01*
X301864Y623589D01*
X303874Y625600D01*
X304098Y625934D01*
X304382Y626218D01*
X305961Y628582D01*
X306115Y628954D01*
X306338Y629288D01*
X307427Y631915D01*
X307505Y632309D01*
X307659Y632680D01*
X308214Y635469D01*
Y635871D01*
X308292Y636265D01*
Y640436D01*
X308214Y640830D01*
Y641232D01*
X307625Y644192D01*
X307471Y644563D01*
X307393Y644957D01*
X306238Y647746D01*
X306014Y648080D01*
X305861Y648451D01*
X304184Y650960D01*
X303900Y651245D01*
X303677Y651579D01*
X301543Y653713D01*
X301209Y653936D01*
X300924Y654220D01*
X298415Y655897D01*
X298044Y656050D01*
X297710Y656273D01*
X294921Y657429D01*
X294527Y657507D01*
X294156Y657661D01*
X291196Y658250D01*
X290795D01*
X290401Y658328D01*
D02*
G37*
G36*
X30401D02*
X28891D01*
X28880Y658326D01*
X28868Y658328D01*
X28425Y658325D01*
X26939D01*
X26545Y658247D01*
X26143D01*
X23210Y657663D01*
X22838Y657510D01*
X22445Y657431D01*
X19681Y656287D01*
X19347Y656064D01*
X18976Y655910D01*
X16489Y654248D01*
X16205Y653964D01*
X15871Y653741D01*
X13756Y651626D01*
X13533Y651292D01*
X13249Y651008D01*
X11588Y648521D01*
X11434Y648150D01*
X11211Y647816D01*
X10066Y645053D01*
X9988Y644659D01*
X9834Y644288D01*
X9251Y641354D01*
Y640953D01*
X9172Y640559D01*
Y637209D01*
X9251Y636815D01*
Y636414D01*
X9846Y633422D01*
X9999Y633051D01*
X10078Y632657D01*
X11245Y629839D01*
X11468Y629505D01*
X11622Y629134D01*
X13316Y626598D01*
X13600Y626314D01*
X13824Y625980D01*
X15980Y623823D01*
X16314Y623600D01*
X16598Y623316D01*
X19135Y621621D01*
X19506Y621468D01*
X19840Y621244D01*
X22658Y620077D01*
X23052Y619999D01*
X23423Y619845D01*
X26414Y619250D01*
X26816D01*
X27210Y619172D01*
X31199D01*
X31593Y619250D01*
X31994D01*
X34783Y619805D01*
X35155Y619958D01*
X35549Y620037D01*
X38176Y621125D01*
X38510Y621348D01*
X38881Y621502D01*
X41245Y623082D01*
X41530Y623366D01*
X41863Y623589D01*
X43874Y625600D01*
X44098Y625934D01*
X44382Y626218D01*
X45961Y628582D01*
X46115Y628954D01*
X46338Y629288D01*
X47427Y631915D01*
X47505Y632309D01*
X47659Y632680D01*
X48214Y635469D01*
Y635871D01*
X48292Y636265D01*
Y640436D01*
X48214Y640830D01*
Y641232D01*
X47625Y644192D01*
X47471Y644563D01*
X47393Y644957D01*
X46238Y647746D01*
X46014Y648080D01*
X45861Y648451D01*
X44184Y650960D01*
X43900Y651245D01*
X43677Y651579D01*
X41543Y653713D01*
X41209Y653936D01*
X40925Y654220D01*
X38415Y655897D01*
X38044Y656050D01*
X37710Y656273D01*
X34922Y657429D01*
X34527Y657507D01*
X34156Y657661D01*
X31196Y658250D01*
X30794D01*
X30401Y658328D01*
D02*
G37*
G36*
X219621Y652124D02*
X218379D01*
X217230Y651649D01*
X216351Y650770D01*
X215876Y649621D01*
Y648379D01*
X216351Y647230D01*
X217230Y646351D01*
X218379Y645876D01*
X219621D01*
X220770Y646351D01*
X221649Y647230D01*
X222124Y648379D01*
Y649621D01*
X221649Y650770D01*
X220770Y651649D01*
X219621Y652124D01*
D02*
G37*
G36*
X140270Y635894D02*
X139027D01*
X137879Y635418D01*
X137000Y634539D01*
X136524Y633391D01*
Y632148D01*
X137000Y631000D01*
X137879Y630121D01*
X139027Y629646D01*
X140270D01*
X141418Y630121D01*
X142297Y631000D01*
X142773Y632148D01*
Y633391D01*
X142297Y634539D01*
X141418Y635418D01*
X140270Y635894D01*
D02*
G37*
G36*
X107975Y634124D02*
X106732D01*
X105584Y633649D01*
X104705Y632770D01*
X104230Y631621D01*
Y630379D01*
X104705Y629230D01*
X105584Y628351D01*
X106732Y627876D01*
X107975D01*
X109124Y628351D01*
X110002Y629230D01*
X110478Y630379D01*
Y631621D01*
X110002Y632770D01*
X109124Y633649D01*
X107975Y634124D01*
D02*
G37*
G36*
X202751Y632124D02*
X201509D01*
X200360Y631649D01*
X199481Y630770D01*
X199006Y629621D01*
Y628379D01*
X199481Y627230D01*
X200360Y626351D01*
X201509Y625876D01*
X202751D01*
X203900Y626351D01*
X204779Y627230D01*
X205254Y628379D01*
Y629621D01*
X204779Y630770D01*
X203900Y631649D01*
X202751Y632124D01*
D02*
G37*
G36*
X57621D02*
X56379D01*
X55230Y631649D01*
X54351Y630770D01*
X53876Y629621D01*
Y628379D01*
X54351Y627230D01*
X55230Y626351D01*
X56379Y625876D01*
X57621D01*
X58770Y626351D01*
X59649Y627230D01*
X60124Y628379D01*
Y629621D01*
X59649Y630770D01*
X58770Y631649D01*
X57621Y632124D01*
D02*
G37*
G36*
X215406Y630166D02*
X214164D01*
X213015Y629691D01*
X212136Y628812D01*
X211661Y627663D01*
Y626421D01*
X212136Y625272D01*
X213015Y624394D01*
X214164Y623918D01*
X215406D01*
X216555Y624394D01*
X217434Y625272D01*
X217909Y626421D01*
Y627663D01*
X217434Y628812D01*
X216555Y629691D01*
X215406Y630166D01*
D02*
G37*
G36*
X241621Y628124D02*
X240379D01*
X239230Y627649D01*
X238351Y626770D01*
X237876Y625621D01*
Y624379D01*
X238351Y623230D01*
X239230Y622351D01*
X240379Y621876D01*
X241621D01*
X242770Y622351D01*
X243649Y623230D01*
X244124Y624379D01*
Y625621D01*
X243649Y626770D01*
X242770Y627649D01*
X241621Y628124D01*
D02*
G37*
G36*
X224871Y620945D02*
X223629D01*
X222480Y620469D01*
X221601Y619590D01*
X221126Y618442D01*
Y617199D01*
X221601Y616051D01*
X222480Y615172D01*
X223629Y614696D01*
X224871D01*
X226020Y615172D01*
X226899Y616051D01*
X227374Y617199D01*
Y618442D01*
X226899Y619590D01*
X226020Y620469D01*
X224871Y620945D01*
D02*
G37*
G36*
X128588Y618841D02*
X127345D01*
X126197Y618365D01*
X125318Y617487D01*
X124843Y616338D01*
Y615095D01*
X125318Y613947D01*
X126197Y613068D01*
X127345Y612593D01*
X128588D01*
X129737Y613068D01*
X130615Y613947D01*
X131091Y615095D01*
Y616338D01*
X130615Y617487D01*
X129737Y618365D01*
X128588Y618841D01*
D02*
G37*
G36*
X101129Y613437D02*
X99886D01*
X98738Y612961D01*
X97859Y612082D01*
X97383Y610934D01*
Y609691D01*
X97859Y608543D01*
X98738Y607664D01*
X99886Y607188D01*
X101129D01*
X102277Y607664D01*
X103156Y608543D01*
X103631Y609691D01*
Y610934D01*
X103156Y612082D01*
X102277Y612961D01*
X101129Y613437D01*
D02*
G37*
G36*
X80014Y609135D02*
X78771D01*
X77623Y608660D01*
X76744Y607781D01*
X76269Y606632D01*
Y605390D01*
X76744Y604241D01*
X77623Y603363D01*
X78771Y602887D01*
X80014D01*
X81162Y603363D01*
X82041Y604241D01*
X82517Y605390D01*
Y606632D01*
X82041Y607781D01*
X81162Y608660D01*
X80014Y609135D01*
D02*
G37*
G36*
X32327Y600807D02*
X31084D01*
X29936Y600331D01*
X29057Y599452D01*
X28581Y598304D01*
Y597061D01*
X29057Y595913D01*
X29936Y595034D01*
X31084Y594558D01*
X32327D01*
X33475Y595034D01*
X34354Y595913D01*
X34829Y597061D01*
Y598304D01*
X34354Y599452D01*
X33475Y600331D01*
X32327Y600807D01*
D02*
G37*
G36*
X142318Y588189D02*
X141075D01*
X139927Y587714D01*
X139048Y586835D01*
X138572Y585686D01*
Y584443D01*
X139048Y583295D01*
X139927Y582416D01*
X141075Y581941D01*
X142318D01*
X143466Y582416D01*
X144345Y583295D01*
X144821Y584443D01*
Y585686D01*
X144345Y586835D01*
X143466Y587714D01*
X142318Y588189D01*
D02*
G37*
G36*
X118621Y588124D02*
X117379D01*
X116230Y587649D01*
X115351Y586770D01*
X114876Y585621D01*
Y584379D01*
X115351Y583230D01*
X116230Y582351D01*
X117379Y581876D01*
X118621D01*
X119770Y582351D01*
X120649Y583230D01*
X121124Y584379D01*
Y585621D01*
X120649Y586770D01*
X119770Y587649D01*
X118621Y588124D01*
D02*
G37*
G36*
X246621Y587630D02*
X245379D01*
X244230Y587154D01*
X243351Y586276D01*
X242876Y585127D01*
Y583884D01*
X243351Y582736D01*
X244230Y581857D01*
X245379Y581382D01*
X246621D01*
X247770Y581857D01*
X248649Y582736D01*
X249124Y583884D01*
Y585127D01*
X248649Y586276D01*
X247770Y587154D01*
X246621Y587630D01*
D02*
G37*
G36*
X58621Y587075D02*
X57379D01*
X56230Y586599D01*
X55351Y585720D01*
X54876Y584572D01*
Y583329D01*
X55351Y582181D01*
X56230Y581302D01*
X57379Y580826D01*
X58621D01*
X59770Y581302D01*
X60649Y582181D01*
X61124Y583329D01*
Y584572D01*
X60649Y585720D01*
X59770Y586599D01*
X58621Y587075D01*
D02*
G37*
G36*
X104778Y585822D02*
X103535D01*
X102387Y585347D01*
X101508Y584468D01*
X101032Y583319D01*
Y582077D01*
X101508Y580928D01*
X102387Y580049D01*
X103535Y579574D01*
X104778D01*
X105926Y580049D01*
X106805Y580928D01*
X107280Y582077D01*
Y583319D01*
X106805Y584468D01*
X105926Y585347D01*
X104778Y585822D01*
D02*
G37*
G36*
X31621Y584124D02*
X30379D01*
X29230Y583649D01*
X28351Y582770D01*
X27876Y581621D01*
Y580379D01*
X28351Y579230D01*
X29230Y578351D01*
X30379Y577876D01*
X31621D01*
X32770Y578351D01*
X33649Y579230D01*
X34124Y580379D01*
Y581621D01*
X33649Y582770D01*
X32770Y583649D01*
X31621Y584124D01*
D02*
G37*
G36*
X16958Y582862D02*
X15715D01*
X14567Y582386D01*
X13688Y581507D01*
X13212Y580359D01*
Y579116D01*
X13688Y577968D01*
X14567Y577089D01*
X15715Y576614D01*
X16958D01*
X18106Y577089D01*
X18985Y577968D01*
X19461Y579116D01*
Y580359D01*
X18985Y581507D01*
X18106Y582386D01*
X16958Y582862D01*
D02*
G37*
G36*
X201621Y582124D02*
X200379D01*
X199230Y581649D01*
X198351Y580770D01*
X197876Y579621D01*
Y578379D01*
X198351Y577230D01*
X199230Y576351D01*
X200379Y575876D01*
X201621D01*
X202770Y576351D01*
X203649Y577230D01*
X204124Y578379D01*
Y579621D01*
X203649Y580770D01*
X202770Y581649D01*
X201621Y582124D01*
D02*
G37*
G36*
X41621Y574699D02*
X40379D01*
X39230Y574223D01*
X38351Y573344D01*
X37876Y572196D01*
Y570953D01*
X38351Y569805D01*
X39230Y568926D01*
X40379Y568450D01*
X41621D01*
X42770Y568926D01*
X43649Y569805D01*
X44124Y570953D01*
Y572196D01*
X43649Y573344D01*
X42770Y574223D01*
X41621Y574699D01*
D02*
G37*
G36*
X243787Y573124D02*
X242544D01*
X241396Y572649D01*
X240517Y571770D01*
X240041Y570621D01*
Y569379D01*
X240517Y568230D01*
X241396Y567351D01*
X242544Y566876D01*
X243787D01*
X244935Y567351D01*
X245814Y568230D01*
X246290Y569379D01*
Y570621D01*
X245814Y571770D01*
X244935Y572649D01*
X243787Y573124D01*
D02*
G37*
G36*
X205528D02*
X204286D01*
X203137Y572649D01*
X202258Y571770D01*
X201783Y570621D01*
Y569379D01*
X202258Y568230D01*
X203137Y567351D01*
X204286Y566876D01*
X205528D01*
X206677Y567351D01*
X207556Y568230D01*
X208031Y569379D01*
Y570621D01*
X207556Y571770D01*
X206677Y572649D01*
X205528Y573124D01*
D02*
G37*
G36*
X71007Y562601D02*
X69764D01*
X68616Y562125D01*
X67737Y561246D01*
X67262Y560098D01*
Y558855D01*
X67737Y557707D01*
X68616Y556828D01*
X69764Y556352D01*
X71007D01*
X72155Y556828D01*
X73034Y557707D01*
X73510Y558855D01*
Y560098D01*
X73034Y561246D01*
X72155Y562125D01*
X71007Y562601D01*
D02*
G37*
G36*
X98621Y556124D02*
X97379D01*
X96230Y555649D01*
X95351Y554770D01*
X94971Y553850D01*
X94144Y553683D01*
X93648Y553724D01*
X93324Y554507D01*
X92445Y555386D01*
X91297Y555862D01*
X90054D01*
X88905Y555386D01*
X88027Y554507D01*
X87551Y553359D01*
Y552116D01*
X88027Y550968D01*
X88905Y550089D01*
X90054Y549614D01*
X91297D01*
X92445Y550089D01*
X93324Y550968D01*
X93705Y551888D01*
X94531Y552055D01*
X95027Y552014D01*
X95351Y551230D01*
X96230Y550351D01*
X97379Y549876D01*
X98621D01*
X99770Y550351D01*
X100649Y551230D01*
X101124Y552379D01*
Y553621D01*
X100649Y554770D01*
X99770Y555649D01*
X98621Y556124D01*
D02*
G37*
G36*
X78811Y555633D02*
X77568D01*
X76420Y555157D01*
X75541Y554278D01*
X75065Y553130D01*
Y551887D01*
X75541Y550739D01*
X76420Y549860D01*
X77568Y549384D01*
X78811D01*
X79960Y549860D01*
X80838Y550739D01*
X81314Y551887D01*
Y553130D01*
X80838Y554278D01*
X79960Y555157D01*
X78811Y555633D01*
D02*
G37*
G36*
X69137Y553124D02*
X67894D01*
X66746Y552649D01*
X65867Y551770D01*
X65391Y550621D01*
Y549379D01*
X65867Y548230D01*
X66746Y547351D01*
X67894Y546876D01*
X69137D01*
X70285Y547351D01*
X71164Y548230D01*
X71639Y549379D01*
Y550621D01*
X71164Y551770D01*
X70285Y552649D01*
X69137Y553124D01*
D02*
G37*
G36*
X184819Y543666D02*
X183577D01*
X182428Y543190D01*
X181549Y542311D01*
X181074Y541163D01*
Y539920D01*
X181549Y538772D01*
X182428Y537893D01*
X183577Y537417D01*
X184819D01*
X185968Y537893D01*
X186847Y538772D01*
X187322Y539920D01*
Y541163D01*
X186847Y542311D01*
X185968Y543190D01*
X184819Y543666D01*
D02*
G37*
G36*
X104019Y532391D02*
X102776D01*
X101628Y531915D01*
X100749Y531036D01*
X100274Y529888D01*
Y528645D01*
X100749Y527497D01*
X101628Y526618D01*
X102776Y526143D01*
X104019D01*
X105168Y526618D01*
X106046Y527497D01*
X106522Y528645D01*
Y529888D01*
X106046Y531036D01*
X105168Y531915D01*
X104019Y532391D01*
D02*
G37*
G36*
X152121Y529049D02*
X150878D01*
X149730Y528573D01*
X148851Y527694D01*
X148376Y526546D01*
Y525303D01*
X148851Y524155D01*
X149730Y523276D01*
X150878Y522800D01*
X152121D01*
X153269Y523276D01*
X154148Y524155D01*
X154624Y525303D01*
Y526546D01*
X154148Y527694D01*
X153269Y528573D01*
X152121Y529049D01*
D02*
G37*
G36*
X32454Y517688D02*
X31211D01*
X30063Y517213D01*
X29184Y516334D01*
X27890Y516529D01*
X27770Y516649D01*
X26621Y517124D01*
X25378D01*
X24230Y516649D01*
X23351Y515770D01*
X22876Y514621D01*
Y513379D01*
X23351Y512230D01*
X22439Y511368D01*
X22436Y511370D01*
X21288Y511846D01*
X20045D01*
X18897Y511370D01*
X18018Y510491D01*
X17542Y509343D01*
Y508100D01*
X18018Y506952D01*
X18897Y506073D01*
X20045Y505597D01*
X21288D01*
X22436Y506073D01*
X23315Y506952D01*
X23791Y508100D01*
Y509343D01*
X23315Y510491D01*
X24228Y511354D01*
X24230Y511351D01*
X25378Y510876D01*
X26621D01*
X27770Y511351D01*
X28649Y512230D01*
X29943Y512036D01*
X30063Y511916D01*
X31211Y511440D01*
X31486D01*
X31782Y511074D01*
X32174Y510170D01*
X31813Y509298D01*
Y508055D01*
X32288Y506907D01*
X33167Y506028D01*
X34316Y505552D01*
X35558D01*
X36707Y506028D01*
X37585Y506907D01*
X38061Y508055D01*
Y509298D01*
X37585Y510446D01*
X36707Y511325D01*
X35558Y511801D01*
X35283D01*
X34987Y512167D01*
X34595Y513071D01*
X34957Y513943D01*
Y515186D01*
X34481Y516334D01*
X33602Y517213D01*
X32454Y517688D01*
D02*
G37*
G36*
X90104Y515127D02*
X88861D01*
X87713Y514651D01*
X86834Y513773D01*
X86358Y512624D01*
Y511381D01*
X86660Y510653D01*
X85583Y509934D01*
X85301Y510216D01*
X84153Y510691D01*
X82910D01*
X81762Y510216D01*
X80883Y509337D01*
X80407Y508189D01*
Y506946D01*
X80883Y505798D01*
X81762Y504919D01*
X82910Y504443D01*
X84153D01*
X84192Y504459D01*
X84417Y504380D01*
X85365Y503571D01*
Y502805D01*
X85841Y501656D01*
X86720Y500778D01*
X87868Y500302D01*
X89111D01*
X90259Y500778D01*
X91138Y501656D01*
X91614Y502805D01*
Y504048D01*
X91138Y505196D01*
X90259Y506075D01*
X89111Y506550D01*
X87868D01*
X87829Y506534D01*
X87605Y506613D01*
X86656Y507423D01*
Y508189D01*
X86354Y508917D01*
X87431Y509636D01*
X87713Y509354D01*
X88861Y508879D01*
X90104D01*
X91252Y509354D01*
X92131Y510233D01*
X92607Y511381D01*
Y512624D01*
X92131Y513773D01*
X91252Y514651D01*
X90104Y515127D01*
D02*
G37*
G36*
X44584Y511388D02*
X43342D01*
X42193Y510912D01*
X41315Y510033D01*
X40839Y508885D01*
Y507642D01*
X41315Y506494D01*
X42193Y505615D01*
X43342Y505139D01*
X44584D01*
X45733Y505615D01*
X46612Y506494D01*
X47087Y507642D01*
Y508885D01*
X46612Y510033D01*
X45733Y510912D01*
X44584Y511388D01*
D02*
G37*
G36*
X74621Y501394D02*
X73379D01*
X72230Y500919D01*
X71351Y500040D01*
X70876Y498891D01*
Y497648D01*
X71351Y496500D01*
X72230Y495621D01*
X73379Y495146D01*
X74621D01*
X75770Y495621D01*
X76649Y496500D01*
X77124Y497648D01*
Y498891D01*
X76649Y500040D01*
X75770Y500919D01*
X74621Y501394D01*
D02*
G37*
G36*
X157470Y504213D02*
X156227D01*
X155079Y503738D01*
X154200Y502859D01*
X153725Y501711D01*
Y500468D01*
X154200Y499319D01*
X155079Y498440D01*
X156227Y497965D01*
X157470D01*
X158733Y497113D01*
X159058Y496330D01*
X159937Y495451D01*
X161085Y494976D01*
X162328D01*
X163476Y495451D01*
X164355Y496330D01*
X164831Y497478D01*
Y498721D01*
X164355Y499869D01*
X163476Y500748D01*
X162328Y501224D01*
X161085D01*
X159822Y502075D01*
X159497Y502859D01*
X158619Y503738D01*
X157470Y504213D01*
D02*
G37*
G36*
X168524Y495027D02*
X167282D01*
X166133Y494552D01*
X165254Y493673D01*
X164779Y492524D01*
Y491282D01*
X165254Y490133D01*
X166133Y489254D01*
X167282Y488779D01*
X168524D01*
X169673Y489254D01*
X170552Y490133D01*
X171027Y491282D01*
Y492524D01*
X170552Y493673D01*
X169673Y494552D01*
X168524Y495027D01*
D02*
G37*
G36*
X92054Y494033D02*
X90811D01*
X89663Y493558D01*
X88784Y492679D01*
X88308Y491531D01*
Y490288D01*
X88784Y489139D01*
X89663Y488260D01*
X90811Y487785D01*
X92054D01*
X93202Y488260D01*
X94081Y489139D01*
X94557Y490288D01*
Y491531D01*
X94081Y492679D01*
X93202Y493558D01*
X92054Y494033D01*
D02*
G37*
G36*
X179621Y490124D02*
X178379D01*
X177230Y489649D01*
X176351Y488770D01*
X175876Y487621D01*
Y486379D01*
X176351Y485230D01*
X177230Y484351D01*
X178379Y483876D01*
X179621D01*
X180770Y484351D01*
X181649Y485230D01*
X182124Y486379D01*
Y487621D01*
X181649Y488770D01*
X180770Y489649D01*
X179621Y490124D01*
D02*
G37*
G36*
X162561Y486874D02*
X161318D01*
X160170Y486398D01*
X159291Y485519D01*
X158815Y484371D01*
Y483128D01*
X159291Y481980D01*
X160170Y481101D01*
X161318Y480625D01*
X162561D01*
X163709Y481101D01*
X164588Y481980D01*
X165063Y483128D01*
Y484371D01*
X164588Y485519D01*
X163709Y486398D01*
X162561Y486874D01*
D02*
G37*
G36*
X48621Y473124D02*
X47379D01*
X46230Y472649D01*
X45351Y471770D01*
X44876Y470621D01*
Y469379D01*
X45351Y468230D01*
X46230Y467351D01*
X47379Y466876D01*
X48621D01*
X49770Y467351D01*
X50649Y468230D01*
X51124Y469379D01*
Y470621D01*
X50649Y471770D01*
X49770Y472649D01*
X48621Y473124D01*
D02*
G37*
G36*
X121547Y464661D02*
X120304D01*
X119156Y464185D01*
X118277Y463307D01*
X117802Y462158D01*
Y461367D01*
X116891Y460576D01*
X116628Y460479D01*
X116583Y460497D01*
X115340D01*
X114192Y460022D01*
X113313Y459143D01*
X112838Y457995D01*
Y456752D01*
X113313Y455603D01*
X114192Y454725D01*
X115340Y454249D01*
X116583D01*
X117732Y454725D01*
X118610Y455603D01*
X119086Y456752D01*
X120115Y457412D01*
X120876Y456621D01*
Y455379D01*
X121351Y454230D01*
X122230Y453351D01*
X123379Y452876D01*
X124621D01*
X125770Y453351D01*
X126649Y454230D01*
X127124Y455379D01*
Y456621D01*
X126649Y457770D01*
X125770Y458649D01*
X124621Y459124D01*
X124591D01*
X123834Y460394D01*
X124050Y460915D01*
Y462158D01*
X123574Y463307D01*
X122696Y464185D01*
X121547Y464661D01*
D02*
G37*
G36*
X139269Y465842D02*
X138026D01*
X136878Y465366D01*
X135999Y464487D01*
X135524Y463339D01*
Y462096D01*
X135999Y460948D01*
X136878Y460069D01*
X138026Y459593D01*
X139269D01*
X140417Y460069D01*
X141296Y460948D01*
X141772Y462096D01*
Y463339D01*
X141296Y464487D01*
X140417Y465366D01*
X139269Y465842D01*
D02*
G37*
G36*
X150444Y464422D02*
X149201D01*
X148053Y463946D01*
X147174Y463067D01*
X146698Y461919D01*
Y460676D01*
X147174Y459528D01*
X148053Y458649D01*
X149201Y458173D01*
X150444D01*
X151592Y458649D01*
X152471Y459528D01*
X152946Y460676D01*
Y461919D01*
X152471Y463067D01*
X151592Y463946D01*
X150444Y464422D01*
D02*
G37*
G36*
X70621Y470934D02*
X69378D01*
X68230Y470458D01*
X67351Y469579D01*
X66876Y468431D01*
Y467188D01*
X67351Y466040D01*
X68230Y465161D01*
X68901Y464883D01*
X68909Y463512D01*
X68852Y463488D01*
X67973Y462609D01*
X67497Y461461D01*
Y460218D01*
X67973Y459070D01*
X68852Y458191D01*
X70000Y457715D01*
X71243D01*
X72391Y458191D01*
X73270Y459070D01*
X73746Y460218D01*
Y461461D01*
X73270Y462609D01*
X72391Y463488D01*
X71721Y463766D01*
X71712Y465137D01*
X71770Y465161D01*
X72649Y466040D01*
X73124Y467188D01*
Y468431D01*
X72649Y469579D01*
X71770Y470458D01*
X70621Y470934D01*
D02*
G37*
G36*
X89276Y461485D02*
X88033D01*
X86884Y461010D01*
X86005Y460131D01*
X85530Y458982D01*
Y457740D01*
X86005Y456591D01*
X85625Y455194D01*
X84746Y454315D01*
X84270Y453167D01*
Y451924D01*
X84746Y450776D01*
X85625Y449897D01*
X86773Y449422D01*
X88016D01*
X89164Y449897D01*
X90043Y450776D01*
X90519Y451924D01*
Y453167D01*
X90043Y454315D01*
X90424Y455712D01*
X91303Y456591D01*
X91778Y457740D01*
Y458982D01*
X91303Y460131D01*
X90424Y461010D01*
X89276Y461485D01*
D02*
G37*
G36*
X158267Y449161D02*
X157024D01*
X155876Y448685D01*
X154997Y447806D01*
X154646Y446957D01*
X153466Y446787D01*
X153313Y446805D01*
X152470Y447649D01*
X151321Y448124D01*
X150078D01*
X148930Y447649D01*
X148051Y446770D01*
X147576Y445621D01*
Y444379D01*
X148051Y443230D01*
X148930Y442351D01*
X150078Y441876D01*
X151321D01*
X152470Y442351D01*
X153349Y443230D01*
X153700Y444079D01*
X154879Y444250D01*
X155033Y444231D01*
X155876Y443388D01*
X157024Y442912D01*
X158267D01*
X159415Y443388D01*
X160294Y444267D01*
X160770Y445415D01*
Y446658D01*
X160294Y447806D01*
X159415Y448685D01*
X158267Y449161D01*
D02*
G37*
G36*
X107134Y456694D02*
X105891D01*
X104743Y456218D01*
X103864Y455340D01*
X103388Y454191D01*
Y452948D01*
X103864Y451800D01*
X104743Y450921D01*
X105097Y450774D01*
X105716Y449714D01*
X105614Y449290D01*
X105284Y448492D01*
Y447249D01*
X105759Y446101D01*
X106638Y445222D01*
X107786Y444746D01*
X109029D01*
X110177Y445222D01*
X111056Y446101D01*
X111532Y447249D01*
Y448492D01*
X111056Y449640D01*
X110177Y450519D01*
X109823Y450666D01*
X109205Y451726D01*
X109306Y452150D01*
X109637Y452948D01*
Y454191D01*
X109161Y455340D01*
X108282Y456218D01*
X107134Y456694D01*
D02*
G37*
G36*
X264621Y450124D02*
X263379D01*
X262230Y449649D01*
X261351Y448770D01*
X260876Y447621D01*
Y446379D01*
X261351Y445230D01*
X262230Y444351D01*
X263379Y443876D01*
X264621D01*
X265770Y444351D01*
X266649Y445230D01*
X267124Y446379D01*
Y447621D01*
X266649Y448770D01*
X265770Y449649D01*
X264621Y450124D01*
D02*
G37*
G36*
X98640Y449225D02*
X97397D01*
X96248Y448749D01*
X95370Y447870D01*
X94894Y446722D01*
Y445479D01*
X95370Y444331D01*
X96248Y443452D01*
X97397Y442976D01*
X98640D01*
X99788Y443452D01*
X100667Y444331D01*
X101142Y445479D01*
Y446722D01*
X100667Y447870D01*
X99788Y448749D01*
X98640Y449225D01*
D02*
G37*
G36*
X31621Y445723D02*
X30379D01*
X29230Y445248D01*
X28351Y444369D01*
X27876Y443221D01*
Y441978D01*
X28351Y440830D01*
X29230Y439951D01*
X30379Y439475D01*
X31621D01*
X32770Y439951D01*
X33649Y440830D01*
X34124Y441978D01*
Y443221D01*
X33649Y444369D01*
X32770Y445248D01*
X31621Y445723D01*
D02*
G37*
G36*
X59722Y443098D02*
X58479D01*
X57331Y442623D01*
X56452Y441744D01*
X55977Y440596D01*
Y439353D01*
X56452Y438204D01*
X57331Y437326D01*
X58479Y436850D01*
X59722D01*
X60871Y437326D01*
X61750Y438204D01*
X62225Y439353D01*
Y440596D01*
X61750Y441744D01*
X60871Y442623D01*
X59722Y443098D01*
D02*
G37*
G36*
X46657Y442263D02*
X45414D01*
X44266Y441787D01*
X43387Y440908D01*
X42912Y439760D01*
Y438517D01*
X43387Y437369D01*
X44266Y436490D01*
X45414Y436014D01*
X46657D01*
X47806Y436490D01*
X48685Y437369D01*
X49160Y438517D01*
Y439760D01*
X48685Y440908D01*
X47806Y441787D01*
X46657Y442263D01*
D02*
G37*
G36*
X96535Y441715D02*
X95292D01*
X94144Y441239D01*
X93265Y440360D01*
X92790Y439212D01*
Y437969D01*
X93265Y436820D01*
X94144Y435942D01*
X95292Y435466D01*
X96535D01*
X97683Y435942D01*
X98562Y436820D01*
X99038Y437969D01*
Y439212D01*
X98562Y440360D01*
X97683Y441239D01*
X96535Y441715D01*
D02*
G37*
G36*
X220621Y428124D02*
X219379D01*
X218230Y427649D01*
X217351Y426770D01*
X216876Y425621D01*
Y424379D01*
X217351Y423230D01*
X218230Y422351D01*
X219379Y421876D01*
X220621D01*
X221770Y422351D01*
X222649Y423230D01*
X223124Y424379D01*
Y425621D01*
X222649Y426770D01*
X221770Y427649D01*
X220621Y428124D01*
D02*
G37*
G36*
X93621Y426124D02*
X92379D01*
X91230Y425649D01*
X90351Y424770D01*
X89876Y423621D01*
Y422379D01*
X90351Y421230D01*
X91230Y420351D01*
X92379Y419876D01*
X93621D01*
X94770Y420351D01*
X95649Y421230D01*
X96124Y422379D01*
Y423621D01*
X95649Y424770D01*
X94770Y425649D01*
X93621Y426124D01*
D02*
G37*
G36*
X82490Y423607D02*
X81248D01*
X80099Y423132D01*
X79220Y422253D01*
X78745Y421105D01*
Y419862D01*
X79220Y418713D01*
X80099Y417835D01*
X81248Y417359D01*
X82490D01*
X83639Y417835D01*
X84517Y418713D01*
X84993Y419862D01*
Y421105D01*
X84517Y422253D01*
X83639Y423132D01*
X82490Y423607D01*
D02*
G37*
G36*
X68826Y423329D02*
X67583D01*
X66435Y422853D01*
X65556Y421974D01*
X65080Y420826D01*
Y419583D01*
X65556Y418435D01*
X66435Y417556D01*
X67583Y417080D01*
X68826D01*
X69974Y417556D01*
X70853Y418435D01*
X71329Y419583D01*
Y420826D01*
X70853Y421974D01*
X69974Y422853D01*
X68826Y423329D01*
D02*
G37*
G36*
X55826Y422729D02*
X54583D01*
X53434Y422253D01*
X52555Y421374D01*
X52080Y420226D01*
Y418983D01*
X52555Y417835D01*
X53434Y416956D01*
X54583Y416480D01*
X55826D01*
X56974Y416956D01*
X57853Y417835D01*
X58328Y418983D01*
Y420226D01*
X57853Y421374D01*
X56974Y422253D01*
X55826Y422729D01*
D02*
G37*
G36*
X180315Y424425D02*
X179073D01*
X177924Y423950D01*
X177045Y423071D01*
X176570Y421922D01*
Y420680D01*
X177045Y419531D01*
X177924Y418652D01*
X178319Y418489D01*
X179039Y417834D01*
X178954Y416956D01*
X178766Y416502D01*
Y415259D01*
X179242Y414110D01*
X180121Y413232D01*
X181269Y412756D01*
X182512D01*
X183660Y413232D01*
X184539Y414110D01*
X185014Y415259D01*
Y416502D01*
X184539Y417650D01*
X183660Y418529D01*
X183265Y418692D01*
X182545Y419347D01*
X182630Y420225D01*
X182818Y420680D01*
Y421922D01*
X182343Y423071D01*
X181464Y423950D01*
X180315Y424425D01*
D02*
G37*
G36*
X250877Y419674D02*
X249634D01*
X248485Y419198D01*
X247607Y418320D01*
X247131Y417171D01*
Y415928D01*
X247607Y414780D01*
X248485Y413901D01*
X249634Y413426D01*
X250877D01*
X252025Y413901D01*
X252549Y414426D01*
X253829Y414314D01*
X254007Y414225D01*
X254107Y413985D01*
X254985Y413106D01*
X256134Y412631D01*
X257376D01*
X258525Y413106D01*
X259404Y413985D01*
X259879Y415134D01*
Y416376D01*
X259404Y417525D01*
X258525Y418404D01*
X257376Y418879D01*
X256134D01*
X254985Y418404D01*
X254461Y417879D01*
X253181Y417990D01*
X253003Y418080D01*
X252904Y418320D01*
X252025Y419198D01*
X250877Y419674D01*
D02*
G37*
G36*
X83689Y415338D02*
X82446D01*
X81298Y414863D01*
X80419Y413984D01*
X79944Y412836D01*
Y412817D01*
X78674Y412565D01*
X78649Y412625D01*
X77770Y413504D01*
X76621Y413980D01*
X75379D01*
X74230Y413504D01*
X73351Y412625D01*
X72876Y411477D01*
Y410234D01*
X73351Y409086D01*
X74230Y408207D01*
X75379Y407731D01*
X76621D01*
X77770Y408207D01*
X78649Y409086D01*
X79124Y410234D01*
Y410252D01*
X80394Y410505D01*
X80419Y410444D01*
X81298Y409566D01*
X82446Y409090D01*
X83689D01*
X84838Y409566D01*
X85716Y410444D01*
X86192Y411593D01*
Y412836D01*
X85716Y413984D01*
X84838Y414863D01*
X83689Y415338D01*
D02*
G37*
G36*
X131621Y415124D02*
X130379D01*
X129230Y414649D01*
X128351Y413770D01*
X127876Y412621D01*
Y411379D01*
X128351Y410230D01*
X129230Y409351D01*
X130379Y408876D01*
X131621D01*
X132770Y409351D01*
X133649Y410230D01*
X134124Y411379D01*
Y412621D01*
X133649Y413770D01*
X132770Y414649D01*
X131621Y415124D01*
D02*
G37*
G36*
X139662Y415070D02*
X138419D01*
X137271Y414595D01*
X136392Y413716D01*
X135916Y412568D01*
Y411325D01*
X136392Y410177D01*
X137271Y409298D01*
X138419Y408822D01*
X139662D01*
X140810Y409298D01*
X141689Y410177D01*
X142165Y411325D01*
Y412568D01*
X141689Y413716D01*
X140810Y414595D01*
X139662Y415070D01*
D02*
G37*
G36*
X123621Y414124D02*
X122379D01*
X121230Y413649D01*
X120351Y412770D01*
X119876Y411621D01*
Y410379D01*
X120351Y409230D01*
X121230Y408351D01*
X122379Y407876D01*
X123621D01*
X124770Y408351D01*
X125649Y409230D01*
X126124Y410379D01*
Y411621D01*
X125649Y412770D01*
X124770Y413649D01*
X123621Y414124D01*
D02*
G37*
G36*
X16799Y417356D02*
X15556D01*
X14408Y416880D01*
X13529Y416001D01*
X13053Y414853D01*
Y413610D01*
X13529Y412462D01*
X14408Y411583D01*
X15556Y411107D01*
X16447D01*
X16731Y409975D01*
X16734Y409837D01*
X15880Y408983D01*
X15404Y407835D01*
Y406592D01*
X15880Y405444D01*
X16759Y404565D01*
X17907Y404089D01*
X19150D01*
X20298Y404565D01*
X21177Y405444D01*
X21653Y406592D01*
Y407835D01*
X21177Y408983D01*
X20298Y409862D01*
X19150Y410338D01*
X18259D01*
X17975Y411470D01*
X17972Y411608D01*
X18826Y412462D01*
X19302Y413610D01*
Y414853D01*
X18826Y416001D01*
X17947Y416880D01*
X16799Y417356D01*
D02*
G37*
G36*
X159006Y413167D02*
X157763D01*
X156615Y412692D01*
X155736Y411813D01*
X155260Y410665D01*
Y409422D01*
X155736Y408273D01*
X156529Y407481D01*
X156490Y407072D01*
X156154Y406211D01*
X155747D01*
X154598Y405735D01*
X153719Y404856D01*
X153244Y403708D01*
Y402465D01*
X153719Y401317D01*
X154598Y400438D01*
X155747Y399962D01*
X156989D01*
X158138Y400438D01*
X159017Y401317D01*
X159492Y402465D01*
Y403708D01*
X159017Y404856D01*
X158224Y405649D01*
X158263Y406057D01*
X158598Y406919D01*
X159006D01*
X160154Y407395D01*
X161033Y408273D01*
X161509Y409422D01*
Y410665D01*
X161033Y411813D01*
X160154Y412692D01*
X159006Y413167D01*
D02*
G37*
G36*
X100826Y407329D02*
X99583D01*
X98435Y406853D01*
X97556Y405974D01*
X97080Y404826D01*
Y403583D01*
X97556Y402435D01*
X98435Y401556D01*
X99583Y401080D01*
X100826D01*
X101974Y401556D01*
X102025Y401607D01*
X103523Y401309D01*
X103556Y401230D01*
X104434Y400351D01*
X105583Y399876D01*
X106826D01*
X107974Y400351D01*
X108853Y401230D01*
X109328Y402379D01*
Y403621D01*
X108853Y404770D01*
X107974Y405649D01*
X106826Y406124D01*
X105583D01*
X104434Y405649D01*
X104383Y405598D01*
X102886Y405896D01*
X102853Y405974D01*
X101974Y406853D01*
X100826Y407329D01*
D02*
G37*
G36*
X39792Y405902D02*
X38549D01*
X37400Y405426D01*
X36521Y404548D01*
X36046Y403399D01*
Y402156D01*
X36521Y401008D01*
X37400Y400129D01*
X38549Y399654D01*
X39792D01*
X40940Y400129D01*
X41819Y401008D01*
X42294Y402156D01*
Y403399D01*
X41819Y404548D01*
X40940Y405426D01*
X39792Y405902D01*
D02*
G37*
G36*
X165621Y405124D02*
X164379D01*
X163230Y404649D01*
X162351Y403770D01*
X161876Y402621D01*
Y401379D01*
X162351Y400230D01*
X163230Y399351D01*
X164379Y398876D01*
X165621D01*
X166770Y399351D01*
X167649Y400230D01*
X168124Y401379D01*
Y402621D01*
X167649Y403770D01*
X166770Y404649D01*
X165621Y405124D01*
D02*
G37*
G36*
X132035Y404711D02*
X130792D01*
X129643Y404235D01*
X128764Y403357D01*
X128289Y402208D01*
Y400965D01*
X128764Y399817D01*
X129643Y398938D01*
X130792Y398463D01*
X132035D01*
X133183Y398938D01*
X134062Y399817D01*
X134537Y400965D01*
Y402208D01*
X134062Y403357D01*
X133183Y404235D01*
X132035Y404711D01*
D02*
G37*
G36*
X200808Y400270D02*
X199566D01*
X198417Y399794D01*
X197538Y398915D01*
X197063Y397767D01*
Y396524D01*
X197538Y395376D01*
X198417Y394497D01*
X199566Y394021D01*
X200808D01*
X201957Y394497D01*
X202836Y395376D01*
X203311Y396524D01*
Y397767D01*
X202836Y398915D01*
X201957Y399794D01*
X200808Y400270D01*
D02*
G37*
G36*
X59621Y399124D02*
X58379D01*
X57230Y398649D01*
X56351Y397770D01*
X55876Y396621D01*
Y395379D01*
X56351Y394230D01*
X57230Y393351D01*
X58379Y392876D01*
X59621D01*
X60770Y393351D01*
X61649Y394230D01*
X62124Y395379D01*
Y396621D01*
X61649Y397770D01*
X60770Y398649D01*
X59621Y399124D01*
D02*
G37*
G36*
X16430D02*
X15187D01*
X14038Y398649D01*
X13160Y397770D01*
X12684Y396621D01*
Y395379D01*
X13160Y394230D01*
X14038Y393351D01*
X15187Y392876D01*
X16430D01*
X17578Y393351D01*
X18457Y394230D01*
X18932Y395379D01*
Y396621D01*
X18457Y397770D01*
X17578Y398649D01*
X16430Y399124D01*
D02*
G37*
G36*
X28727Y398399D02*
X27484D01*
X26335Y397923D01*
X25457Y397044D01*
X24981Y395896D01*
Y394653D01*
X25457Y393505D01*
X26335Y392626D01*
X27484Y392150D01*
X28727D01*
X29875Y392626D01*
X30754Y393505D01*
X31229Y394653D01*
Y395896D01*
X30754Y397044D01*
X29875Y397923D01*
X28727Y398399D01*
D02*
G37*
G36*
X305621Y398124D02*
X304379D01*
X303230Y397649D01*
X302351Y396770D01*
X301876Y395621D01*
Y394379D01*
X302351Y393230D01*
X303230Y392351D01*
X304379Y391876D01*
X305621D01*
X306770Y392351D01*
X307649Y393230D01*
X308124Y394379D01*
Y395621D01*
X307649Y396770D01*
X306770Y397649D01*
X305621Y398124D01*
D02*
G37*
G36*
X123621D02*
X122379D01*
X121230Y397649D01*
X120351Y396770D01*
X119876Y395621D01*
Y394379D01*
X120351Y393230D01*
X121230Y392351D01*
X122379Y391876D01*
X123621D01*
X124770Y392351D01*
X125649Y393230D01*
X126124Y394379D01*
Y395621D01*
X125649Y396770D01*
X124770Y397649D01*
X123621Y398124D01*
D02*
G37*
G36*
X115182D02*
X113939D01*
X112790Y397649D01*
X111911Y396770D01*
X111436Y395621D01*
Y394379D01*
X111911Y393230D01*
X112790Y392351D01*
X113939Y391876D01*
X115182D01*
X116330Y392351D01*
X117209Y393230D01*
X117684Y394379D01*
Y395621D01*
X117209Y396770D01*
X116330Y397649D01*
X115182Y398124D01*
D02*
G37*
G36*
X77444D02*
X76201D01*
X75053Y397649D01*
X74174Y396770D01*
X73699Y395621D01*
Y394379D01*
X74174Y393230D01*
X75053Y392351D01*
X76201Y391876D01*
X77444D01*
X78592Y392351D01*
X79471Y393230D01*
X79947Y394379D01*
Y395621D01*
X79471Y396770D01*
X78592Y397649D01*
X77444Y398124D01*
D02*
G37*
G36*
X44243Y398746D02*
X43000D01*
X41852Y398271D01*
X40973Y397392D01*
X40497Y396244D01*
Y395001D01*
X40973Y393852D01*
X41852Y392974D01*
X43000Y392498D01*
X44243D01*
X45391Y392974D01*
X46270Y393852D01*
X46390Y394143D01*
X47227Y394153D01*
X47713Y394016D01*
X48130Y393009D01*
X49009Y392131D01*
X50157Y391655D01*
X51400D01*
X52548Y392131D01*
X53427Y393009D01*
X53903Y394158D01*
Y395401D01*
X53427Y396549D01*
X52548Y397428D01*
X51400Y397903D01*
X50157D01*
X49009Y397428D01*
X48130Y396549D01*
X48010Y396258D01*
X47173Y396249D01*
X46687Y396385D01*
X46270Y397392D01*
X45391Y398271D01*
X44243Y398746D01*
D02*
G37*
G36*
X178845Y395884D02*
X177602D01*
X176453Y395409D01*
X175575Y394530D01*
X175099Y393382D01*
Y392139D01*
X175575Y390990D01*
X176453Y390111D01*
X177602Y389636D01*
X178845D01*
X179993Y390111D01*
X180872Y390990D01*
X181347Y392139D01*
Y393382D01*
X180872Y394530D01*
X179993Y395409D01*
X178845Y395884D01*
D02*
G37*
G36*
X131882Y390124D02*
X130639D01*
X129491Y389649D01*
X128612Y388770D01*
X128472Y388433D01*
X127696Y388339D01*
X127071Y388368D01*
X126284Y389154D01*
X125136Y389630D01*
X123893D01*
X122745Y389154D01*
X122666Y389076D01*
X121574Y388547D01*
X121007Y389076D01*
X120669Y389413D01*
X119521Y389889D01*
X118278D01*
X117130Y389413D01*
X116492Y388775D01*
X115444Y388745D01*
X115011Y388859D01*
X114254Y389616D01*
X113106Y390091D01*
X111863D01*
X110715Y389616D01*
X109836Y388737D01*
X109360Y387588D01*
Y386345D01*
X109836Y385197D01*
X110715Y384318D01*
X111863Y383843D01*
X113106D01*
X114254Y384318D01*
X114892Y384957D01*
X115940Y384986D01*
X116373Y384873D01*
X117130Y384116D01*
X118278Y383640D01*
X119521D01*
X120669Y384116D01*
X120748Y384194D01*
X121840Y384723D01*
X122407Y384194D01*
X122745Y383857D01*
X123893Y383381D01*
X125136D01*
X126284Y383857D01*
X127163Y384736D01*
X127303Y385073D01*
X128080Y385166D01*
X128704Y385138D01*
X129491Y384351D01*
X130639Y383876D01*
X131882D01*
X133030Y384351D01*
X133909Y385230D01*
X134385Y386379D01*
Y387621D01*
X133909Y388770D01*
X133030Y389649D01*
X131882Y390124D01*
D02*
G37*
G36*
X192621Y394124D02*
X191379D01*
X190230Y393649D01*
X189351Y392770D01*
X188876Y391621D01*
Y390379D01*
X189351Y389230D01*
X190230Y388351D01*
X191379Y387876D01*
X192621D01*
X193770Y388351D01*
X194649Y389230D01*
X195124Y390379D01*
Y391621D01*
X194649Y392770D01*
X193770Y393649D01*
X192621Y394124D01*
D02*
G37*
G36*
X296894Y392124D02*
X295651D01*
X294503Y391649D01*
X293624Y390770D01*
X293148Y389621D01*
Y388379D01*
X293624Y387230D01*
X294503Y386351D01*
X295651Y385876D01*
X296894D01*
X298042Y386351D01*
X298921Y387230D01*
X299397Y388379D01*
Y389621D01*
X298921Y390770D01*
X298042Y391649D01*
X296894Y392124D01*
D02*
G37*
G36*
X91826Y391124D02*
X90583D01*
X89435Y390649D01*
X88556Y389770D01*
X88080Y388621D01*
Y387379D01*
X88556Y386230D01*
X89435Y385351D01*
X90583Y384876D01*
X91826D01*
X92974Y385351D01*
X93853Y386230D01*
X94329Y387379D01*
Y388621D01*
X93853Y389770D01*
X92974Y390649D01*
X91826Y391124D01*
D02*
G37*
G36*
X147773Y390973D02*
X146530D01*
X145382Y390497D01*
X144503Y389618D01*
X144027Y388470D01*
Y387227D01*
X144503Y386079D01*
X145382Y385200D01*
X146530Y384724D01*
X147773D01*
X148921Y385200D01*
X149800Y386079D01*
X150276Y387227D01*
Y388470D01*
X149800Y389618D01*
X148921Y390497D01*
X147773Y390973D01*
D02*
G37*
G36*
X156330Y390833D02*
X155087D01*
X153939Y390357D01*
X153060Y389478D01*
X152584Y388330D01*
Y387087D01*
X153060Y385939D01*
X153939Y385060D01*
X155087Y384584D01*
X156330D01*
X157478Y385060D01*
X158357Y385939D01*
X158833Y387087D01*
Y388330D01*
X158357Y389478D01*
X157478Y390357D01*
X156330Y390833D01*
D02*
G37*
G36*
X83689Y390758D02*
X82446D01*
X81298Y390282D01*
X80419Y389403D01*
X79944Y388255D01*
Y387012D01*
X80419Y385864D01*
X81298Y384985D01*
X82446Y384510D01*
X83689D01*
X84838Y384985D01*
X85716Y385864D01*
X86192Y387012D01*
Y388255D01*
X85716Y389403D01*
X84838Y390282D01*
X83689Y390758D01*
D02*
G37*
G36*
X66621Y390544D02*
X65379D01*
X64230Y390068D01*
X63351Y389189D01*
X62876Y388041D01*
Y386798D01*
X63351Y385650D01*
X64230Y384771D01*
X65379Y384295D01*
X66621D01*
X67770Y384771D01*
X68649Y385650D01*
X69124Y386798D01*
Y388041D01*
X68649Y389189D01*
X67770Y390068D01*
X66621Y390544D01*
D02*
G37*
G36*
X104414Y389941D02*
X103171D01*
X102022Y389466D01*
X101144Y388587D01*
X100668Y387438D01*
Y386196D01*
X101144Y385047D01*
X102022Y384168D01*
X103171Y383693D01*
X104414D01*
X105562Y384168D01*
X106441Y385047D01*
X106916Y386196D01*
Y387438D01*
X106441Y388587D01*
X105562Y389466D01*
X104414Y389941D01*
D02*
G37*
G36*
X39698Y389904D02*
X38455D01*
X37306Y389428D01*
X36428Y388549D01*
X35952Y387401D01*
Y386158D01*
X36428Y385010D01*
X37306Y384131D01*
X38455Y383656D01*
X39698D01*
X40846Y384131D01*
X41725Y385010D01*
X42200Y386158D01*
Y387401D01*
X41725Y388549D01*
X40846Y389428D01*
X39698Y389904D01*
D02*
G37*
G36*
X20252Y391945D02*
X19009D01*
X17861Y391469D01*
X16982Y390591D01*
X16507Y389442D01*
Y388199D01*
X16982Y387051D01*
X17225Y386808D01*
X17741Y385979D01*
X17225Y385149D01*
X16982Y384906D01*
X16507Y383758D01*
Y382515D01*
X16982Y381367D01*
X17861Y380488D01*
X19009Y380012D01*
X20252D01*
X21401Y380488D01*
X22280Y381367D01*
X22755Y382515D01*
Y383758D01*
X22280Y384906D01*
X22037Y385149D01*
X21521Y385979D01*
X22037Y386808D01*
X22280Y387051D01*
X22755Y388199D01*
Y389442D01*
X22280Y390591D01*
X21401Y391469D01*
X20252Y391945D01*
D02*
G37*
G36*
X182136Y386012D02*
X180893D01*
X179745Y385537D01*
X178866Y384658D01*
X178391Y383510D01*
Y382267D01*
X178866Y381119D01*
X179745Y380240D01*
X180893Y379764D01*
X182136D01*
X183284Y380240D01*
X184163Y381119D01*
X184639Y382267D01*
Y383510D01*
X184163Y384658D01*
X183284Y385537D01*
X182136Y386012D01*
D02*
G37*
G36*
X139674Y380989D02*
X138431D01*
X137283Y380513D01*
X136404Y379634D01*
X135928Y378486D01*
Y377243D01*
X136404Y376095D01*
X137283Y375216D01*
X138431Y374740D01*
X139674D01*
X140822Y375216D01*
X141701Y376095D01*
X142177Y377243D01*
Y378486D01*
X141701Y379634D01*
X140822Y380513D01*
X139674Y380989D01*
D02*
G37*
G36*
X177965Y378874D02*
X176722D01*
X175574Y378399D01*
X174695Y377520D01*
X174219Y376371D01*
Y375129D01*
X174695Y373980D01*
X175574Y373101D01*
X176722Y372626D01*
X177965D01*
X179113Y373101D01*
X179992Y373980D01*
X180467Y375129D01*
Y376371D01*
X179992Y377520D01*
X179113Y378399D01*
X177965Y378874D01*
D02*
G37*
G36*
X44558Y378586D02*
X43315D01*
X42167Y378110D01*
X41288Y377231D01*
X40812Y376083D01*
Y374840D01*
X41288Y373692D01*
X42167Y372813D01*
X43315Y372337D01*
X44558D01*
X45706Y372813D01*
X46585Y373692D01*
X47061Y374840D01*
Y376083D01*
X46585Y377231D01*
X45706Y378110D01*
X44558Y378586D01*
D02*
G37*
G36*
X36314Y378510D02*
X35071D01*
X33923Y378035D01*
X33044Y377156D01*
X32568Y376008D01*
Y374765D01*
X33044Y373616D01*
X33923Y372738D01*
X35071Y372262D01*
X36314D01*
X37462Y372738D01*
X38341Y373616D01*
X38817Y374765D01*
Y376008D01*
X38341Y377156D01*
X37462Y378035D01*
X36314Y378510D01*
D02*
G37*
G36*
X28253Y378329D02*
X27010D01*
X25861Y377854D01*
X24983Y376975D01*
X24507Y375826D01*
Y374584D01*
X24983Y373435D01*
X25861Y372556D01*
X27010Y372081D01*
X28253D01*
X29401Y372556D01*
X30280Y373435D01*
X30755Y374584D01*
Y375826D01*
X30280Y376975D01*
X29401Y377854D01*
X28253Y378329D01*
D02*
G37*
G36*
X20252Y378260D02*
X19009D01*
X17861Y377785D01*
X16982Y376906D01*
X16507Y375758D01*
Y374515D01*
X16982Y373367D01*
X17861Y372488D01*
X19009Y372012D01*
X20252D01*
X21401Y372488D01*
X22280Y373367D01*
X22755Y374515D01*
Y375758D01*
X22280Y376906D01*
X21401Y377785D01*
X20252Y378260D01*
D02*
G37*
G36*
X52161Y375662D02*
X50918D01*
X49770Y375187D01*
X48891Y374308D01*
X48416Y373160D01*
Y371917D01*
X48891Y370768D01*
X49770Y369889D01*
X50918Y369414D01*
X52161D01*
X53310Y369889D01*
X54189Y370768D01*
X54664Y371917D01*
Y373160D01*
X54189Y374308D01*
X53310Y375187D01*
X52161Y375662D01*
D02*
G37*
G36*
X115621Y375124D02*
X114379D01*
X113230Y374649D01*
X112351Y373770D01*
X111876Y372621D01*
Y371379D01*
X112351Y370230D01*
X113230Y369351D01*
X114379Y368876D01*
X115621D01*
X116770Y369351D01*
X117649Y370230D01*
X118124Y371379D01*
Y372621D01*
X117649Y373770D01*
X116770Y374649D01*
X115621Y375124D01*
D02*
G37*
G36*
X186475Y372801D02*
X185232D01*
X184084Y372325D01*
X183205Y371446D01*
X182730Y370298D01*
Y370151D01*
X182394Y369033D01*
X181556Y368978D01*
X181134D01*
X179986Y368502D01*
X179107Y367623D01*
X179013Y367397D01*
X177639D01*
X177545Y367623D01*
X176666Y368502D01*
X175518Y368978D01*
X174275D01*
X173126Y368502D01*
X172247Y367623D01*
X171772Y366475D01*
Y365232D01*
X172247Y364084D01*
X173126Y363205D01*
X174275Y362730D01*
X175518D01*
X176666Y363205D01*
X177545Y364084D01*
X177639Y364311D01*
X179013D01*
X179107Y364084D01*
X179986Y363205D01*
X181134Y362730D01*
X182377D01*
X183525Y363205D01*
X184404Y364084D01*
X184880Y365232D01*
Y365379D01*
X185216Y366497D01*
X186053Y366552D01*
X186475D01*
X187624Y367028D01*
X188502Y367907D01*
X188978Y369055D01*
Y370298D01*
X188502Y371446D01*
X187624Y372325D01*
X186475Y372801D01*
D02*
G37*
G36*
X154426Y373229D02*
X153183D01*
X152035Y372753D01*
X151156Y371874D01*
X150680Y370726D01*
Y369483D01*
X151156Y368335D01*
X152035Y367456D01*
X153183Y366980D01*
X154426D01*
X155574Y367456D01*
X156453Y368335D01*
X156929Y369483D01*
Y370726D01*
X156453Y371874D01*
X155574Y372753D01*
X154426Y373229D01*
D02*
G37*
G36*
X131704Y372775D02*
X130461D01*
X129313Y372299D01*
X128434Y371420D01*
X127958Y370272D01*
Y369029D01*
X128434Y367881D01*
X129313Y367002D01*
X130461Y366526D01*
X131704D01*
X132852Y367002D01*
X133731Y367881D01*
X134207Y369029D01*
Y370272D01*
X133731Y371420D01*
X132852Y372299D01*
X131704Y372775D01*
D02*
G37*
G36*
X206621Y393349D02*
X205379D01*
X204230Y392873D01*
X203351Y391995D01*
X202876Y390846D01*
Y389603D01*
X203351Y388455D01*
X204230Y387576D01*
X204420Y387498D01*
X204526Y387276D01*
X204621Y386040D01*
X204076Y385495D01*
X203601Y384346D01*
Y383104D01*
X204076Y381955D01*
X204680Y381352D01*
X204928Y380891D01*
X204767Y379780D01*
X204382Y379395D01*
X203907Y378246D01*
Y377004D01*
X204382Y375855D01*
X204458Y375780D01*
X204761Y374531D01*
X203882Y373652D01*
X203407Y372504D01*
Y372230D01*
X202794Y371190D01*
X202233Y371125D01*
X201513D01*
X200365Y370650D01*
X199486Y369771D01*
X199010Y368622D01*
Y367379D01*
X199486Y366231D01*
X200365Y365352D01*
X201513Y364877D01*
X202756D01*
X203904Y365352D01*
X204783Y366231D01*
X205259Y367379D01*
Y367653D01*
X205871Y368693D01*
X206432Y368758D01*
X207152D01*
X208301Y369234D01*
X209179Y370113D01*
X209655Y371261D01*
Y372504D01*
X209179Y373652D01*
X209104Y373727D01*
X208801Y374976D01*
X209680Y375855D01*
X210155Y377004D01*
Y378246D01*
X209680Y379395D01*
X209076Y379998D01*
X208828Y380459D01*
X208989Y381570D01*
X209374Y381955D01*
X209849Y383104D01*
Y384346D01*
X209374Y385495D01*
X208495Y386374D01*
X208305Y386452D01*
X208199Y386674D01*
X208104Y387910D01*
X208649Y388455D01*
X209124Y389603D01*
Y390846D01*
X208649Y391995D01*
X207770Y392873D01*
X206621Y393349D01*
D02*
G37*
G36*
X20252Y370261D02*
X19009D01*
X17861Y369785D01*
X16982Y368906D01*
X16507Y367758D01*
Y366515D01*
X16982Y365367D01*
X17861Y364488D01*
X19009Y364012D01*
X20252D01*
X21401Y364488D01*
X22280Y365367D01*
X22755Y366515D01*
Y367758D01*
X22280Y368906D01*
X21401Y369785D01*
X20252Y370261D01*
D02*
G37*
G36*
X27621Y367124D02*
X26379D01*
X25230Y366649D01*
X24351Y365770D01*
X23876Y364621D01*
Y363379D01*
X24351Y362230D01*
X25230Y361351D01*
X26379Y360876D01*
X27621D01*
X28770Y361351D01*
X29649Y362230D01*
X30124Y363379D01*
Y364621D01*
X29649Y365770D01*
X28770Y366649D01*
X27621Y367124D01*
D02*
G37*
G36*
X209436Y366277D02*
X208193D01*
X207045Y365801D01*
X206166Y364922D01*
X205690Y363774D01*
Y362531D01*
X206166Y361383D01*
X205754Y360822D01*
X204783Y360849D01*
X203904Y361728D01*
X202756Y362204D01*
X201513D01*
X200365Y361728D01*
X199856Y361220D01*
X199133Y360946D01*
X198251Y361187D01*
X197789Y361649D01*
X196641Y362124D01*
X195398D01*
X194250Y361649D01*
X193371Y360770D01*
X192895Y359621D01*
Y358379D01*
X193371Y357230D01*
X194250Y356351D01*
X195398Y355876D01*
X196641D01*
X197789Y356351D01*
X198298Y356860D01*
X199021Y357134D01*
X199903Y356893D01*
X200365Y356431D01*
X201513Y355955D01*
X202756D01*
X203718Y356354D01*
X204069Y356363D01*
X205174Y355905D01*
X205451Y355237D01*
X206330Y354358D01*
X207478Y353883D01*
X208721D01*
X209869Y354358D01*
X210748Y355237D01*
X211224Y356386D01*
Y357629D01*
X210748Y358777D01*
X210451Y359074D01*
X210583Y360494D01*
X210632Y360552D01*
X211463Y361383D01*
X211939Y362531D01*
Y363774D01*
X211463Y364922D01*
X210584Y365801D01*
X209436Y366277D01*
D02*
G37*
G36*
X140180Y366802D02*
X138937D01*
X137789Y366326D01*
X136910Y365448D01*
X136434Y364299D01*
Y363056D01*
X136910Y361908D01*
X137789Y361029D01*
X138937Y360554D01*
X140180D01*
X141328Y361029D01*
X142207Y361908D01*
X142683Y363056D01*
Y364299D01*
X142207Y365448D01*
X141328Y366326D01*
X140180Y366802D01*
D02*
G37*
G36*
X52161Y366124D02*
X50918D01*
X49770Y365649D01*
X48891Y364770D01*
X48416Y363621D01*
Y362379D01*
X48891Y361230D01*
X49770Y360351D01*
X50918Y359876D01*
X52161D01*
X53310Y360351D01*
X54189Y361230D01*
X54664Y362379D01*
Y363621D01*
X54189Y364770D01*
X53310Y365649D01*
X52161Y366124D01*
D02*
G37*
G36*
X155611Y364044D02*
X154368D01*
X153220Y363568D01*
X152341Y362689D01*
X151865Y361541D01*
Y360298D01*
X152341Y359150D01*
X153220Y358271D01*
X154368Y357795D01*
X155611D01*
X156759Y358271D01*
X157638Y359150D01*
X158114Y360298D01*
Y361541D01*
X157638Y362689D01*
X156759Y363568D01*
X155611Y364044D01*
D02*
G37*
G36*
X27330Y358569D02*
X26087D01*
X24939Y358094D01*
X24060Y357215D01*
X23584Y356066D01*
Y354824D01*
X24060Y353675D01*
X24939Y352796D01*
X26087Y352321D01*
X27330D01*
X28478Y352796D01*
X29357Y353675D01*
X29833Y354824D01*
Y356066D01*
X29357Y357215D01*
X28478Y358094D01*
X27330Y358569D01*
D02*
G37*
G36*
X131952Y358329D02*
X130709D01*
X129561Y357854D01*
X128682Y356975D01*
X128206Y355826D01*
Y354584D01*
X128682Y353435D01*
X129561Y352556D01*
X130709Y352081D01*
X131952D01*
X133100Y352556D01*
X133979Y353435D01*
X134455Y354584D01*
Y355826D01*
X133979Y356975D01*
X133100Y357854D01*
X131952Y358329D01*
D02*
G37*
G36*
X123826Y364716D02*
X122583D01*
X121435Y364240D01*
X120556Y363362D01*
X120080Y362213D01*
Y360970D01*
X120556Y359822D01*
X121233Y359145D01*
X121350Y358398D01*
X121233Y357652D01*
X120556Y356975D01*
X120080Y355826D01*
Y354584D01*
X120556Y353435D01*
X121435Y352556D01*
X122583Y352081D01*
X123826D01*
X124974Y352556D01*
X125853Y353435D01*
X126329Y354584D01*
Y355826D01*
X125853Y356975D01*
X125176Y357652D01*
X125059Y358398D01*
X125176Y359145D01*
X125853Y359822D01*
X126329Y360970D01*
Y362213D01*
X125853Y363362D01*
X124974Y364240D01*
X123826Y364716D01*
D02*
G37*
G36*
X51621Y358124D02*
X50379D01*
X49230Y357649D01*
X48351Y356770D01*
X47876Y355621D01*
Y354379D01*
X48351Y353230D01*
X49230Y352351D01*
X50379Y351876D01*
X51621D01*
X52770Y352351D01*
X53649Y353230D01*
X54124Y354379D01*
Y355621D01*
X53649Y356770D01*
X52770Y357649D01*
X51621Y358124D01*
D02*
G37*
G36*
X35621D02*
X34379D01*
X33230Y357649D01*
X32351Y356770D01*
X31876Y355621D01*
Y354379D01*
X32351Y353230D01*
X33230Y352351D01*
X34379Y351876D01*
X35621D01*
X36770Y352351D01*
X37649Y353230D01*
X38124Y354379D01*
Y355621D01*
X37649Y356770D01*
X36770Y357649D01*
X35621Y358124D01*
D02*
G37*
G36*
X18621Y353534D02*
X17379D01*
X16230Y353058D01*
X15351Y352179D01*
X14876Y351031D01*
Y349788D01*
X15351Y348640D01*
X16230Y347761D01*
X17379Y347285D01*
X18621D01*
X19770Y347761D01*
X20649Y348640D01*
X21124Y349788D01*
Y351031D01*
X20649Y352179D01*
X19770Y353058D01*
X18621Y353534D01*
D02*
G37*
G36*
X174839Y353407D02*
X173596D01*
X172448Y352931D01*
X171569Y352052D01*
X171093Y350904D01*
Y349661D01*
X171569Y348513D01*
X172448Y347634D01*
X173596Y347158D01*
X174839D01*
X175987Y347634D01*
X176866Y348513D01*
X177342Y349661D01*
Y350904D01*
X176866Y352052D01*
X175987Y352931D01*
X174839Y353407D01*
D02*
G37*
G36*
X51621Y350054D02*
X50379D01*
X49230Y349578D01*
X48351Y348699D01*
X47876Y347551D01*
Y346308D01*
X48351Y345160D01*
X49230Y344281D01*
X50379Y343806D01*
X51621D01*
X52770Y344281D01*
X53649Y345160D01*
X54124Y346308D01*
Y347551D01*
X53649Y348699D01*
X52770Y349578D01*
X51621Y350054D01*
D02*
G37*
G36*
X123679Y349454D02*
X122436D01*
X121288Y348978D01*
X120409Y348099D01*
X119933Y346951D01*
Y345708D01*
X120409Y344560D01*
X121288Y343681D01*
X122436Y343205D01*
X123679D01*
X124827Y343681D01*
X125706Y344560D01*
X126182Y345708D01*
Y346951D01*
X125706Y348099D01*
X124827Y348978D01*
X123679Y349454D01*
D02*
G37*
G36*
X182898Y348124D02*
X181656D01*
X180507Y347649D01*
X179628Y346770D01*
X179153Y345621D01*
Y344379D01*
X179628Y343230D01*
X180507Y342351D01*
X181656Y341876D01*
X182898D01*
X184047Y342351D01*
X184926Y343230D01*
X185401Y344379D01*
Y345621D01*
X184926Y346770D01*
X184047Y347649D01*
X182898Y348124D01*
D02*
G37*
G36*
X244377Y342981D02*
X243134D01*
X241985Y342506D01*
X241106Y341627D01*
X241078Y341559D01*
X240734Y341417D01*
X239621Y341359D01*
X239025Y341955D01*
X237876Y342430D01*
X236634D01*
X235485Y341955D01*
X234800Y341269D01*
X233614Y341278D01*
X233404Y341321D01*
X232525Y342200D01*
X231376Y342675D01*
X230134D01*
X228985Y342200D01*
X228106Y341321D01*
X227631Y340173D01*
Y338930D01*
X228106Y337781D01*
X228985Y336903D01*
X230134Y336427D01*
X231376D01*
X232525Y336903D01*
X233210Y337588D01*
X234396Y337579D01*
X234606Y337537D01*
X235485Y336658D01*
X236634Y336182D01*
X237876D01*
X239025Y336658D01*
X239904Y337537D01*
X239932Y337605D01*
X240276Y337746D01*
X241389Y337805D01*
X241985Y337209D01*
X243134Y336733D01*
X244377D01*
X245525Y337209D01*
X246173Y337857D01*
X247239Y337829D01*
X247607Y337715D01*
X248485Y336836D01*
X249634Y336361D01*
X250877D01*
X252025Y336836D01*
X252787Y337599D01*
X253475Y337668D01*
X254233Y337606D01*
X254985Y336853D01*
X256134Y336377D01*
X257376D01*
X258525Y336853D01*
X259243Y337572D01*
X260240Y337592D01*
X260689Y337517D01*
X261485Y336721D01*
X262634Y336245D01*
X263876D01*
X265025Y336721D01*
X265457Y337153D01*
X266893Y336921D01*
X267106Y336404D01*
X267985Y335525D01*
X269134Y335049D01*
X270376D01*
X271525Y335525D01*
X272404Y336404D01*
X272879Y337552D01*
Y338795D01*
X272404Y339943D01*
X271525Y340822D01*
X270376Y341298D01*
X269134D01*
X267985Y340822D01*
X267553Y340389D01*
X266118Y340622D01*
X265904Y341139D01*
X265025Y342018D01*
X263876Y342493D01*
X262634D01*
X261485Y342018D01*
X260767Y341299D01*
X259770Y341279D01*
X259321Y341354D01*
X258525Y342150D01*
X257376Y342626D01*
X256134D01*
X254985Y342150D01*
X254223Y341388D01*
X253535Y341319D01*
X252777Y341381D01*
X252025Y342133D01*
X250877Y342609D01*
X249634D01*
X248485Y342133D01*
X247837Y341485D01*
X246771Y341513D01*
X246404Y341627D01*
X245525Y342506D01*
X244377Y342981D01*
D02*
G37*
G36*
X285852Y347305D02*
X284609D01*
X283461Y346829D01*
X282582Y345950D01*
X282106Y344802D01*
Y343559D01*
X282582Y342411D01*
X283461Y341532D01*
X284609Y341056D01*
X285852D01*
X287000Y341532D01*
X287879Y342411D01*
X288354Y343559D01*
Y344802D01*
X287879Y345950D01*
X287000Y346829D01*
X285852Y347305D01*
D02*
G37*
G36*
X201799Y346624D02*
X200556D01*
X199408Y346149D01*
X198529Y345270D01*
X198053Y344121D01*
Y342879D01*
X198529Y341730D01*
X199408Y340851D01*
X200556Y340376D01*
X201799D01*
X202947Y340851D01*
X203826Y341730D01*
X204301Y342879D01*
Y344121D01*
X203826Y345270D01*
X202947Y346149D01*
X201799Y346624D01*
D02*
G37*
G36*
X160799Y343571D02*
X159556D01*
X158408Y343096D01*
X157529Y342217D01*
X157053Y341068D01*
Y340909D01*
X156382Y339819D01*
X155880Y339813D01*
X155136D01*
X154217Y339433D01*
X153496Y339623D01*
X152852Y339998D01*
X152471Y340917D01*
X151592Y341796D01*
X150444Y342272D01*
X149201D01*
X148053Y341796D01*
X147174Y340917D01*
X146699Y339769D01*
Y338526D01*
X147174Y337378D01*
X148053Y336499D01*
X149201Y336023D01*
X150444D01*
X151363Y336404D01*
X152084Y336213D01*
X152728Y335839D01*
X153109Y334919D01*
X153988Y334040D01*
X155136Y333565D01*
X156379D01*
X157527Y334040D01*
X158406Y334919D01*
X158882Y336068D01*
Y336227D01*
X159553Y337318D01*
X160055Y337323D01*
X160799D01*
X161947Y337798D01*
X162826Y338677D01*
X163302Y339826D01*
Y341068D01*
X162826Y342217D01*
X161947Y343096D01*
X160799Y343571D01*
D02*
G37*
G36*
X211712Y344537D02*
X210470D01*
X209321Y344062D01*
X208442Y343183D01*
X207967Y342034D01*
Y340792D01*
X208442Y339643D01*
X209321Y338764D01*
X210470Y338289D01*
X211712D01*
X212861Y338764D01*
X213740Y339643D01*
X214215Y340792D01*
Y342034D01*
X213740Y343183D01*
X212861Y344062D01*
X211712Y344537D01*
D02*
G37*
G36*
X172171Y342329D02*
X170928D01*
X169780Y341853D01*
X168901Y340974D01*
X168425Y339826D01*
Y338583D01*
X168901Y337435D01*
X169780Y336556D01*
X170928Y336080D01*
X172171D01*
X173319Y336556D01*
X174198Y337435D01*
X174674Y338583D01*
Y339826D01*
X174198Y340974D01*
X173319Y341853D01*
X172171Y342329D01*
D02*
G37*
G36*
X46621Y342124D02*
X45379D01*
X44230Y341649D01*
X43351Y340770D01*
X42876Y339621D01*
Y338379D01*
X43351Y337230D01*
X44230Y336351D01*
X45379Y335876D01*
X46621D01*
X47770Y336351D01*
X48649Y337230D01*
X49124Y338379D01*
Y339621D01*
X48649Y340770D01*
X47770Y341649D01*
X46621Y342124D01*
D02*
G37*
G36*
X35826D02*
X34583D01*
X33434Y341649D01*
X32556Y340770D01*
X32080Y339621D01*
Y338379D01*
X32556Y337230D01*
X33434Y336351D01*
X34583Y335876D01*
X35826D01*
X36974Y336351D01*
X37853Y337230D01*
X38328Y338379D01*
Y339621D01*
X37853Y340770D01*
X36974Y341649D01*
X35826Y342124D01*
D02*
G37*
G36*
X27621D02*
X26379D01*
X25230Y341649D01*
X24351Y340770D01*
X23876Y339621D01*
Y338379D01*
X24351Y337230D01*
X25230Y336351D01*
X26379Y335876D01*
X27621D01*
X28770Y336351D01*
X29649Y337230D01*
X30124Y338379D01*
Y339621D01*
X29649Y340770D01*
X28770Y341649D01*
X27621Y342124D01*
D02*
G37*
G36*
X139965Y341781D02*
X138722D01*
X137574Y341305D01*
X136695Y340426D01*
X136219Y339278D01*
Y338035D01*
X136695Y336887D01*
X137574Y336008D01*
X138722Y335532D01*
X139965D01*
X141113Y336008D01*
X141992Y336887D01*
X142468Y338035D01*
Y339278D01*
X141992Y340426D01*
X141113Y341305D01*
X139965Y341781D01*
D02*
G37*
G36*
X278621Y338124D02*
X277379D01*
X276230Y337649D01*
X275351Y336770D01*
X274876Y335621D01*
Y334379D01*
X275351Y333230D01*
X276230Y332351D01*
X277379Y331876D01*
X278621D01*
X279770Y332351D01*
X280649Y333230D01*
X281124Y334379D01*
Y335621D01*
X280649Y336770D01*
X279770Y337649D01*
X278621Y338124D01*
D02*
G37*
G36*
X131952Y341124D02*
X130709D01*
X129561Y340649D01*
X128682Y339770D01*
X128206Y338621D01*
Y337379D01*
X128682Y336230D01*
X129209Y335703D01*
X129435Y334913D01*
X129209Y334123D01*
X128682Y333596D01*
X128206Y332447D01*
Y331205D01*
X128682Y330056D01*
X129561Y329177D01*
X130709Y328702D01*
X131952D01*
X133100Y329177D01*
X133979Y330056D01*
X134455Y331205D01*
Y332447D01*
X133979Y333596D01*
X133452Y334123D01*
X133226Y334913D01*
X133452Y335703D01*
X133979Y336230D01*
X134455Y337379D01*
Y338621D01*
X133979Y339770D01*
X133100Y340649D01*
X131952Y341124D01*
D02*
G37*
G36*
X123931D02*
X122688D01*
X121540Y340649D01*
X120661Y339770D01*
X120185Y338621D01*
Y337379D01*
X120661Y336230D01*
X121191Y335700D01*
X121415Y334911D01*
X121191Y334121D01*
X120661Y333591D01*
X120185Y332443D01*
Y331200D01*
X120661Y330052D01*
X121540Y329173D01*
X122688Y328697D01*
X123931D01*
X125079Y329173D01*
X125958Y330052D01*
X126433Y331200D01*
Y332443D01*
X125958Y333591D01*
X125428Y334121D01*
X125204Y334911D01*
X125428Y335700D01*
X125958Y336230D01*
X126433Y337379D01*
Y338621D01*
X125958Y339770D01*
X125079Y340649D01*
X123931Y341124D01*
D02*
G37*
G36*
X51621Y334329D02*
X50379D01*
X49230Y333854D01*
X48351Y332975D01*
X47876Y331826D01*
Y330583D01*
X48351Y329435D01*
X49230Y328556D01*
X50379Y328081D01*
X51621D01*
X52770Y328556D01*
X53649Y329435D01*
X54124Y330583D01*
Y331826D01*
X53649Y332975D01*
X52770Y333854D01*
X51621Y334329D01*
D02*
G37*
G36*
X258199Y332478D02*
X256957D01*
X255808Y332002D01*
X254929Y331123D01*
X254454Y329975D01*
Y328732D01*
X254929Y327584D01*
X255808Y326705D01*
X256957Y326229D01*
X258199D01*
X259348Y326705D01*
X260226Y327584D01*
X260702Y328732D01*
Y329975D01*
X260226Y331123D01*
X259348Y332002D01*
X258199Y332478D01*
D02*
G37*
G36*
X43621Y326263D02*
X42379D01*
X41230Y325787D01*
X40351Y324908D01*
X40033Y324797D01*
X38912Y324753D01*
X38291Y325374D01*
X37142Y325850D01*
X35899D01*
X34751Y325374D01*
X33872Y324495D01*
X33397Y323347D01*
Y322104D01*
X33872Y320956D01*
X34751Y320077D01*
X35899Y319601D01*
X37142D01*
X38291Y320077D01*
X39169Y320956D01*
X39488Y321067D01*
X40609Y321112D01*
X41230Y320490D01*
X42379Y320014D01*
X43621D01*
X44770Y320490D01*
X45649Y321369D01*
X46124Y322517D01*
Y323760D01*
X45649Y324908D01*
X44770Y325787D01*
X43621Y326263D01*
D02*
G37*
G36*
X164621Y331117D02*
X163379D01*
X162230Y330641D01*
X161351Y329762D01*
X160876Y328614D01*
Y327371D01*
X161351Y326223D01*
X162230Y325344D01*
X163379Y324868D01*
X164621D01*
X165770Y325344D01*
X166274Y325848D01*
X167481Y325845D01*
X167790Y325705D01*
X168529Y324965D01*
X169677Y324490D01*
X170920D01*
X172068Y324965D01*
X172947Y325844D01*
X173423Y326992D01*
Y328235D01*
X172947Y329384D01*
X172068Y330262D01*
X170920Y330738D01*
X169677D01*
X168529Y330262D01*
X168025Y329758D01*
X166817Y329762D01*
X166509Y329902D01*
X165770Y330641D01*
X164621Y331117D01*
D02*
G37*
G36*
X20252Y330261D02*
X19009D01*
X17861Y329785D01*
X16982Y328906D01*
X16507Y327758D01*
Y326515D01*
X16982Y325367D01*
X17861Y324488D01*
X19009Y324012D01*
X20252D01*
X21401Y324488D01*
X22280Y325367D01*
X22755Y326515D01*
Y327758D01*
X22280Y328906D01*
X21401Y329785D01*
X20252Y330261D01*
D02*
G37*
G36*
X211712Y336524D02*
X210470D01*
X209321Y336049D01*
X208442Y335170D01*
X207967Y334021D01*
Y332779D01*
X208442Y331630D01*
X209321Y330751D01*
X209597Y330637D01*
Y329263D01*
X209321Y329149D01*
X208442Y328270D01*
X207967Y327121D01*
Y325879D01*
X208442Y324730D01*
X209321Y323851D01*
X210470Y323376D01*
X211712D01*
X212861Y323851D01*
X213740Y324730D01*
X214215Y325879D01*
Y327121D01*
X213740Y328270D01*
X212861Y329149D01*
X212585Y329263D01*
Y330637D01*
X212861Y330751D01*
X213740Y331630D01*
X214215Y332779D01*
Y334021D01*
X213740Y335170D01*
X212861Y336049D01*
X211712Y336524D01*
D02*
G37*
G36*
X131621Y326314D02*
X130379D01*
X129230Y325839D01*
X128351Y324960D01*
X127876Y323811D01*
Y322569D01*
X128351Y321420D01*
X129230Y320541D01*
X130379Y320066D01*
X131621D01*
X132770Y320541D01*
X133649Y321420D01*
X134124Y322569D01*
Y323811D01*
X133649Y324960D01*
X132770Y325839D01*
X131621Y326314D01*
D02*
G37*
G36*
X51621Y326263D02*
X50379D01*
X49230Y325787D01*
X48351Y324908D01*
X47876Y323760D01*
Y322517D01*
X48351Y321369D01*
X49230Y320490D01*
X50379Y320014D01*
X51621D01*
X52770Y320490D01*
X53649Y321369D01*
X54124Y322517D01*
Y323760D01*
X53649Y324908D01*
X52770Y325787D01*
X51621Y326263D01*
D02*
G37*
G36*
X93621Y318755D02*
X92379D01*
X91230Y318280D01*
X90966Y318015D01*
X90136Y317527D01*
X89307Y318015D01*
X89042Y318280D01*
X87894Y318755D01*
X86651D01*
X85503Y318280D01*
X84624Y317401D01*
X84148Y316252D01*
Y315010D01*
X84624Y313861D01*
X85503Y312982D01*
X86651Y312507D01*
X87894D01*
X89042Y312982D01*
X89307Y313247D01*
X90136Y313735D01*
X90966Y313247D01*
X91230Y312982D01*
X92379Y312507D01*
X93621D01*
X94770Y312982D01*
X95649Y313861D01*
X96124Y315010D01*
Y316252D01*
X95649Y317401D01*
X94770Y318280D01*
X93621Y318755D01*
D02*
G37*
G36*
X215763Y319770D02*
X214520D01*
X213372Y319294D01*
X212493Y318415D01*
X212017Y317267D01*
Y316024D01*
X212493Y314876D01*
X213372Y313997D01*
X214520Y313521D01*
X215763D01*
X216911Y313997D01*
X217790Y314876D01*
X218266Y316024D01*
Y317267D01*
X217790Y318415D01*
X216911Y319294D01*
X215763Y319770D01*
D02*
G37*
G36*
X71825Y318756D02*
X70583D01*
X69434Y318280D01*
X68555Y317401D01*
X68080Y316253D01*
Y315010D01*
X68555Y313862D01*
X69434Y312983D01*
X70583Y312507D01*
X71825D01*
X72974Y312983D01*
X73853Y313862D01*
X74328Y315010D01*
Y316253D01*
X73853Y317401D01*
X72974Y318280D01*
X71825Y318756D01*
D02*
G37*
G36*
X63894D02*
X62651D01*
X61503Y318280D01*
X60624Y317401D01*
X60149Y316253D01*
Y315010D01*
X60624Y313862D01*
X61503Y312983D01*
X62651Y312507D01*
X63894D01*
X65042Y312983D01*
X65921Y313862D01*
X66397Y315010D01*
Y316253D01*
X65921Y317401D01*
X65042Y318280D01*
X63894Y318756D01*
D02*
G37*
G36*
X79768Y318755D02*
X78525D01*
X77377Y318280D01*
X76498Y317401D01*
X76023Y316253D01*
Y315010D01*
X76498Y313861D01*
X77377Y312983D01*
X78525Y312507D01*
X79768D01*
X80916Y312983D01*
X81795Y313861D01*
X82271Y315010D01*
Y316253D01*
X81795Y317401D01*
X80916Y318280D01*
X79768Y318755D01*
D02*
G37*
G36*
X103895Y318755D02*
X102652D01*
X101503Y318280D01*
X100625Y317401D01*
X100149Y316252D01*
Y315010D01*
X100625Y313861D01*
X101503Y312982D01*
X102652Y312507D01*
X103895D01*
X105043Y312982D01*
X105922Y313861D01*
X106397Y315010D01*
Y316252D01*
X105922Y317401D01*
X105043Y318280D01*
X103895Y318755D01*
D02*
G37*
G36*
X119605Y318754D02*
X118362D01*
X117214Y318279D01*
X116335Y317400D01*
X115860Y316251D01*
Y315009D01*
X116335Y313860D01*
X117214Y312981D01*
X118362Y312506D01*
X119605D01*
X120753Y312981D01*
X121632Y313860D01*
X122108Y315009D01*
Y316251D01*
X121632Y317400D01*
X120753Y318279D01*
X119605Y318754D01*
D02*
G37*
G36*
X27976Y318508D02*
X26733D01*
X25585Y318033D01*
X24706Y317154D01*
X24230Y316006D01*
Y314763D01*
X24706Y313615D01*
X25585Y312736D01*
X26733Y312260D01*
X27976D01*
X29124Y312736D01*
X30003Y313615D01*
X30479Y314763D01*
Y316006D01*
X30003Y317154D01*
X29124Y318033D01*
X27976Y318508D01*
D02*
G37*
G36*
X203012Y318355D02*
X201770D01*
X200621Y317879D01*
X199742Y317001D01*
X199267Y315852D01*
Y314609D01*
X199742Y313461D01*
X200621Y312582D01*
X201770Y312107D01*
X203012D01*
X204161Y312582D01*
X205040Y313461D01*
X205515Y314609D01*
Y315852D01*
X205040Y317001D01*
X204161Y317879D01*
X203012Y318355D01*
D02*
G37*
G36*
X43621Y318124D02*
X42379D01*
X41230Y317649D01*
X40351Y316770D01*
X39876Y315621D01*
Y314379D01*
X40351Y313230D01*
X41230Y312351D01*
X42379Y311876D01*
X43621D01*
X44770Y312351D01*
X45649Y313230D01*
X46124Y314379D01*
Y315621D01*
X45649Y316770D01*
X44770Y317649D01*
X43621Y318124D01*
D02*
G37*
G36*
X35621D02*
X34379D01*
X33230Y317649D01*
X32351Y316770D01*
X31876Y315621D01*
Y314379D01*
X32351Y313230D01*
X33230Y312351D01*
X34379Y311876D01*
X35621D01*
X36770Y312351D01*
X37649Y313230D01*
X38124Y314379D01*
Y315621D01*
X37649Y316770D01*
X36770Y317649D01*
X35621Y318124D01*
D02*
G37*
G36*
X127251Y318119D02*
X126008D01*
X124860Y317643D01*
X123981Y316764D01*
X123505Y315616D01*
Y314373D01*
X123981Y313225D01*
X124860Y312346D01*
X126008Y311870D01*
X127251D01*
X128399Y312346D01*
X129278Y313225D01*
X129753Y314373D01*
Y315616D01*
X129278Y316764D01*
X128399Y317643D01*
X127251Y318119D01*
D02*
G37*
G36*
X231138Y319518D02*
X229895D01*
X228747Y319043D01*
X227868Y318164D01*
X227392Y317015D01*
Y315772D01*
X227868Y314624D01*
X228747Y313745D01*
X229895Y313270D01*
X231138D01*
X232286Y313745D01*
X232425Y313884D01*
X233907Y313570D01*
X234074Y313166D01*
X234953Y312287D01*
X236101Y311812D01*
X237344D01*
X238492Y312287D01*
X239371Y313166D01*
X239847Y314314D01*
Y315557D01*
X239371Y316706D01*
X238492Y317584D01*
X237344Y318060D01*
X236101D01*
X234953Y317584D01*
X234814Y317446D01*
X233332Y317760D01*
X233165Y318164D01*
X232286Y319043D01*
X231138Y319518D01*
D02*
G37*
G36*
X137360Y317389D02*
X136117D01*
X134969Y316913D01*
X134090Y316034D01*
X133614Y314886D01*
Y313643D01*
X134090Y312495D01*
X134969Y311616D01*
X136117Y311140D01*
X137360D01*
X138508Y311616D01*
X139387Y312495D01*
X139863Y313643D01*
Y314886D01*
X139387Y316034D01*
X138508Y316913D01*
X137360Y317389D01*
D02*
G37*
G36*
X146426Y317229D02*
X145183D01*
X144035Y316753D01*
X143156Y315874D01*
X142680Y314726D01*
Y313483D01*
X143156Y312335D01*
X144035Y311456D01*
X145183Y310980D01*
X146426D01*
X147574Y311456D01*
X148453Y312335D01*
X148929Y313483D01*
Y314726D01*
X148453Y315874D01*
X147574Y316753D01*
X146426Y317229D01*
D02*
G37*
G36*
X222621Y307124D02*
X221379D01*
X220230Y306649D01*
X219422Y305840D01*
X218613Y306649D01*
X217465Y307124D01*
X216222D01*
X215074Y306649D01*
X214195Y305770D01*
X213720Y304621D01*
Y304613D01*
X212450Y304360D01*
X212299Y304723D01*
X211420Y305602D01*
X210272Y306078D01*
X209029D01*
X207881Y305602D01*
X207002Y304723D01*
X206526Y303575D01*
Y302332D01*
X207002Y301184D01*
X207881Y300305D01*
X209029Y299830D01*
X210272D01*
X211420Y300305D01*
X212299Y301184D01*
X212775Y302332D01*
Y302341D01*
X214045Y302594D01*
X214195Y302230D01*
X215074Y301351D01*
X216222Y300876D01*
X217465D01*
X218613Y301351D01*
X219422Y302160D01*
X220230Y301351D01*
X221379Y300876D01*
X222621D01*
X223770Y301351D01*
X224649Y302230D01*
X225124Y303379D01*
Y304621D01*
X224649Y305770D01*
X223770Y306649D01*
X222621Y307124D01*
D02*
G37*
G36*
X164621Y316483D02*
X163379D01*
X162230Y316007D01*
X161351Y315128D01*
X160876Y313980D01*
Y312737D01*
X161351Y311589D01*
X162230Y310710D01*
X163379Y310235D01*
X164621D01*
X165770Y310710D01*
X166497Y309808D01*
D01*
X166497Y309808D01*
X166088Y308705D01*
X166053Y308621D01*
Y307379D01*
X166529Y306230D01*
X167408Y305351D01*
X168556Y304876D01*
X169799D01*
X170947Y305351D01*
X171826Y306230D01*
X172302Y307379D01*
Y308621D01*
X171826Y309770D01*
X170947Y310649D01*
X169799Y311124D01*
X168556D01*
X167408Y310649D01*
X166680Y311550D01*
D01*
X166680Y311550D01*
X167090Y312654D01*
X167124Y312737D01*
Y313980D01*
X166649Y315128D01*
X165770Y316007D01*
X164621Y316483D01*
D02*
G37*
G36*
X19621Y318124D02*
X18379D01*
X17230Y317649D01*
X16351Y316770D01*
X15876Y315621D01*
Y314379D01*
X16351Y313230D01*
X17188Y312394D01*
X17177Y312167D01*
X16874Y311124D01*
X16690D01*
X15542Y310649D01*
X14663Y309770D01*
X14187Y308621D01*
Y307379D01*
X14663Y306230D01*
X15542Y305351D01*
X16690Y304876D01*
X17933D01*
X19081Y305351D01*
X19960Y306230D01*
X20436Y307379D01*
Y308621D01*
X19960Y309770D01*
X19124Y310606D01*
X19135Y310833D01*
X19437Y311876D01*
X19621D01*
X20770Y312351D01*
X21649Y313230D01*
X22124Y314379D01*
Y315621D01*
X21649Y316770D01*
X20770Y317649D01*
X19621Y318124D01*
D02*
G37*
G36*
X67621Y310896D02*
X66379D01*
X65230Y310421D01*
X64351Y309542D01*
X63876Y308394D01*
Y307151D01*
X64351Y306003D01*
X65230Y305124D01*
X66379Y304648D01*
X67621D01*
X68770Y305124D01*
X69649Y306003D01*
X70124Y307151D01*
Y308394D01*
X69649Y309542D01*
X68770Y310421D01*
X67621Y310896D01*
D02*
G37*
G36*
X127265Y309953D02*
X126022D01*
X124874Y309478D01*
X123995Y308599D01*
X123519Y307451D01*
Y306208D01*
X123995Y305060D01*
X124874Y304181D01*
X126022Y303705D01*
X127265D01*
X128413Y304181D01*
X129292Y305060D01*
X129768Y306208D01*
Y307451D01*
X129292Y308599D01*
X128413Y309478D01*
X127265Y309953D01*
D02*
G37*
G36*
X146426Y309229D02*
X145183D01*
X144035Y308753D01*
X143156Y307874D01*
X142680Y306726D01*
Y305483D01*
X143156Y304335D01*
X144035Y303456D01*
X145183Y302980D01*
X146426D01*
X147574Y303456D01*
X148453Y304335D01*
X148929Y305483D01*
Y306726D01*
X148453Y307874D01*
X147574Y308753D01*
X146426Y309229D01*
D02*
G37*
G36*
X135917Y309218D02*
X134674D01*
X133525Y308742D01*
X132647Y307863D01*
X132171Y306715D01*
Y305472D01*
X132647Y304324D01*
X133525Y303445D01*
X134674Y302969D01*
X135917D01*
X137065Y303445D01*
X137944Y304324D01*
X138419Y305472D01*
Y306715D01*
X137944Y307863D01*
X137065Y308742D01*
X135917Y309218D01*
D02*
G37*
G36*
X59621Y304124D02*
X58379D01*
X57230Y303649D01*
X56351Y302770D01*
X56162Y302313D01*
X54759Y301927D01*
X54735Y301933D01*
X53606Y302401D01*
X52363D01*
X51215Y301925D01*
X50336Y301046D01*
X49860Y299898D01*
Y298655D01*
X50336Y297507D01*
X51215Y296628D01*
X52363Y296152D01*
X53606D01*
X54754Y296628D01*
X55633Y297507D01*
X55822Y297964D01*
X57225Y298350D01*
X57249Y298344D01*
X58379Y297876D01*
X59621D01*
X60770Y298351D01*
X61649Y299230D01*
X62124Y300379D01*
Y301621D01*
X61649Y302770D01*
X60770Y303649D01*
X59621Y304124D01*
D02*
G37*
G36*
X267727Y305384D02*
X266484D01*
X265336Y304908D01*
X264457Y304030D01*
X263981Y302881D01*
Y301638D01*
X264457Y300490D01*
X265336Y299611D01*
X266484Y299136D01*
X267727D01*
X268875Y299611D01*
X269754Y300490D01*
X269765Y300518D01*
X271140D01*
X271259Y300230D01*
X272138Y299351D01*
X273286Y298876D01*
X274529D01*
X275677Y299351D01*
X276556Y300230D01*
X277032Y301379D01*
Y302621D01*
X276556Y303770D01*
X275677Y304649D01*
X274529Y305124D01*
X273286D01*
X272138Y304649D01*
X271259Y303770D01*
X271248Y303742D01*
X269873D01*
X269754Y304030D01*
X268875Y304908D01*
X267727Y305384D01*
D02*
G37*
G36*
X255092Y316541D02*
X253849D01*
X252701Y316065D01*
X251822Y315186D01*
X251347Y314038D01*
Y312795D01*
X251822Y311647D01*
X252701Y310768D01*
X253849Y310292D01*
X254553D01*
X255137Y309080D01*
X254662Y307932D01*
Y306689D01*
X255137Y305541D01*
X256016Y304662D01*
X256110Y304623D01*
X256351Y303408D01*
X255876Y302260D01*
Y301017D01*
X256351Y299869D01*
X257230Y298990D01*
X258379Y298514D01*
X259621D01*
X260770Y298990D01*
X261649Y299869D01*
X262124Y301017D01*
Y302260D01*
X261649Y303408D01*
X260770Y304287D01*
X260676Y304326D01*
X260434Y305541D01*
X260910Y306689D01*
Y307932D01*
X260434Y309080D01*
X259555Y309959D01*
X258407Y310434D01*
X257703D01*
X257119Y311647D01*
X257595Y312795D01*
Y314038D01*
X257119Y315186D01*
X256241Y316065D01*
X255092Y316541D01*
D02*
G37*
G36*
X245700Y304124D02*
X244457D01*
X243309Y303649D01*
X242430Y302770D01*
X241955Y301621D01*
Y300379D01*
X242430Y299230D01*
X243309Y298351D01*
X244457Y297876D01*
X245700D01*
X246849Y298351D01*
X247728Y299230D01*
X248203Y300379D01*
Y301621D01*
X247728Y302770D01*
X246849Y303649D01*
X245700Y304124D01*
D02*
G37*
G36*
X236791D02*
X235548D01*
X234400Y303649D01*
X233521Y302770D01*
X233046Y301621D01*
Y300379D01*
X233521Y299230D01*
X234400Y298351D01*
X235548Y297876D01*
X236791D01*
X237939Y298351D01*
X238818Y299230D01*
X239294Y300379D01*
Y301621D01*
X238818Y302770D01*
X237939Y303649D01*
X236791Y304124D01*
D02*
G37*
G36*
X303127Y303124D02*
X301884D01*
X300735Y302649D01*
X299856Y301770D01*
X299381Y300621D01*
Y299379D01*
X299856Y298230D01*
X300735Y297351D01*
X301884Y296876D01*
X303127D01*
X304275Y297351D01*
X305154Y298230D01*
X305629Y299379D01*
Y300621D01*
X305154Y301770D01*
X304275Y302649D01*
X303127Y303124D01*
D02*
G37*
G36*
X91621D02*
X90379D01*
X89230Y302649D01*
X88351Y301770D01*
X87876Y300621D01*
Y299379D01*
X88351Y298230D01*
X89230Y297351D01*
X90379Y296876D01*
X91621D01*
X92770Y297351D01*
X93649Y298230D01*
X94124Y299379D01*
Y300621D01*
X93649Y301770D01*
X92770Y302649D01*
X91621Y303124D01*
D02*
G37*
G36*
X103799Y302920D02*
X102556D01*
X101408Y302444D01*
X100529Y301565D01*
X100053Y300417D01*
Y299174D01*
X100529Y298026D01*
X101408Y297147D01*
X102556Y296671D01*
X103799D01*
X104947Y297147D01*
X105826Y298026D01*
X106301Y299174D01*
Y300417D01*
X105826Y301565D01*
X104947Y302444D01*
X103799Y302920D01*
D02*
G37*
G36*
X115765Y302407D02*
X114522D01*
X113374Y301931D01*
X112495Y301052D01*
X112020Y299904D01*
Y298661D01*
X112495Y297513D01*
X113374Y296634D01*
X114522Y296159D01*
X115765D01*
X116914Y296634D01*
X117793Y297513D01*
X118268Y298661D01*
Y299904D01*
X117793Y301052D01*
X116914Y301931D01*
X115765Y302407D01*
D02*
G37*
G36*
X28621Y302124D02*
X27379D01*
X26230Y301649D01*
X25351Y300770D01*
X24876Y299621D01*
Y298379D01*
X25351Y297230D01*
X26230Y296351D01*
X27379Y295876D01*
X28621D01*
X29770Y296351D01*
X30649Y297230D01*
X31124Y298379D01*
Y299621D01*
X30649Y300770D01*
X29770Y301649D01*
X28621Y302124D01*
D02*
G37*
G36*
X287508Y307999D02*
X286265D01*
X285117Y307523D01*
X284238Y306644D01*
X283762Y305496D01*
Y304253D01*
X284238Y303105D01*
X285117Y302226D01*
X285811Y301938D01*
X285857Y301861D01*
X286098Y300633D01*
X286086Y300554D01*
X285549Y300017D01*
X285074Y298869D01*
Y297626D01*
X285549Y296478D01*
X286428Y295599D01*
X287577Y295124D01*
X288819D01*
X289968Y295599D01*
X290847Y296478D01*
X291322Y297626D01*
Y298869D01*
X290847Y300017D01*
X289968Y300896D01*
X289273Y301184D01*
X289227Y301261D01*
X288986Y302489D01*
X288998Y302568D01*
X289535Y303105D01*
X290010Y304253D01*
Y305496D01*
X289535Y306644D01*
X288656Y307523D01*
X287508Y307999D01*
D02*
G37*
G36*
X9444Y301124D02*
X8201D01*
X7053Y300649D01*
X6174Y299770D01*
X5699Y298621D01*
Y297379D01*
X6174Y296230D01*
X7053Y295351D01*
X8201Y294876D01*
X9444D01*
X10592Y295351D01*
X11471Y296230D01*
X11947Y297379D01*
Y298621D01*
X11471Y299770D01*
X10592Y300649D01*
X9444Y301124D01*
D02*
G37*
G36*
X198503Y301090D02*
X197260D01*
X196112Y300614D01*
X195233Y299735D01*
X194757Y298587D01*
Y297344D01*
X195233Y296196D01*
X196112Y295317D01*
X197260Y294841D01*
X198503D01*
X199651Y295317D01*
X200530Y296196D01*
X201006Y297344D01*
Y298587D01*
X200530Y299735D01*
X199651Y300614D01*
X198503Y301090D01*
D02*
G37*
G36*
X190621Y298124D02*
X189379D01*
X188230Y297649D01*
X187351Y296770D01*
X186876Y295621D01*
Y294379D01*
X187351Y293230D01*
X188230Y292351D01*
X189379Y291876D01*
X190621D01*
X191770Y292351D01*
X192649Y293230D01*
X193124Y294379D01*
Y295621D01*
X192649Y296770D01*
X191770Y297649D01*
X190621Y298124D01*
D02*
G37*
G36*
X111895Y294755D02*
X110652D01*
X109503Y294280D01*
X108624Y293401D01*
X108149Y292253D01*
Y291010D01*
X108624Y289862D01*
X109503Y288983D01*
X110652Y288507D01*
X111895D01*
X113043Y288983D01*
X113922Y289862D01*
X114397Y291010D01*
Y292253D01*
X113922Y293401D01*
X113043Y294280D01*
X111895Y294755D01*
D02*
G37*
G36*
X53435Y294229D02*
X52192D01*
X51044Y293754D01*
X50165Y292875D01*
X49690Y291727D01*
Y290484D01*
X50165Y289335D01*
X51044Y288456D01*
X52192Y287981D01*
X53435D01*
X54584Y288456D01*
X55462Y289335D01*
X55938Y290484D01*
Y291727D01*
X55462Y292875D01*
X54584Y293754D01*
X53435Y294229D01*
D02*
G37*
G36*
X172706Y299699D02*
X171464D01*
X170315Y299224D01*
X169436Y298345D01*
X168961Y297197D01*
Y295954D01*
X169436Y294806D01*
X170315Y293927D01*
Y292649D01*
X169436Y291770D01*
X168961Y290621D01*
Y289379D01*
X169436Y288230D01*
X170315Y287351D01*
X171464Y286876D01*
X172706D01*
X173855Y287351D01*
X174734Y288230D01*
X175209Y289379D01*
Y290621D01*
X174734Y291770D01*
X173855Y292649D01*
Y293927D01*
X174734Y294806D01*
X175209Y295954D01*
Y297197D01*
X174734Y298345D01*
X173855Y299224D01*
X172706Y299699D01*
D02*
G37*
G36*
X296922Y298517D02*
X295679D01*
X294530Y298041D01*
X293652Y297163D01*
X293176Y296014D01*
Y294771D01*
X293352Y294346D01*
X292749Y293101D01*
X292627Y293031D01*
X291588Y292600D01*
X290709Y291721D01*
X290234Y290573D01*
Y289330D01*
X290709Y288182D01*
X291588Y287303D01*
X292736Y286828D01*
X293979D01*
X295128Y287303D01*
X296006Y288182D01*
X296482Y289330D01*
Y290573D01*
X296306Y290999D01*
X296910Y292244D01*
X297031Y292314D01*
X298070Y292744D01*
X298949Y293623D01*
X299424Y294771D01*
Y296014D01*
X298949Y297163D01*
X298070Y298041D01*
X296922Y298517D01*
D02*
G37*
G36*
X303279Y292973D02*
X302036D01*
X300888Y292497D01*
X300009Y291618D01*
X299533Y290470D01*
Y289227D01*
X300009Y288079D01*
X300888Y287200D01*
X302036Y286724D01*
X303279D01*
X304427Y287200D01*
X305306Y288079D01*
X305782Y289227D01*
Y290470D01*
X305306Y291618D01*
X304427Y292497D01*
X303279Y292973D01*
D02*
G37*
G36*
X182824Y292921D02*
X181582D01*
X180433Y292446D01*
X179555Y291567D01*
X179079Y290418D01*
Y289175D01*
X179555Y288027D01*
X180433Y287148D01*
X181582Y286673D01*
X182824D01*
X183973Y287148D01*
X184852Y288027D01*
X185327Y289175D01*
Y290418D01*
X184852Y291567D01*
X183973Y292446D01*
X182824Y292921D01*
D02*
G37*
G36*
X123249Y294497D02*
X122006D01*
X120857Y294021D01*
X119979Y293143D01*
X119503Y291994D01*
Y290751D01*
X119979Y289603D01*
X120857Y288724D01*
X120805Y287377D01*
X119926Y286499D01*
X119450Y285350D01*
Y284107D01*
X119926Y282959D01*
X120805Y282080D01*
X121953Y281604D01*
X123196D01*
X124344Y282080D01*
X125223Y282959D01*
X125698Y284107D01*
Y285350D01*
X125223Y286499D01*
X124344Y287377D01*
X124397Y288724D01*
X125276Y289603D01*
X125751Y290751D01*
Y291994D01*
X125276Y293143D01*
X124397Y294021D01*
X123249Y294497D01*
D02*
G37*
G36*
X27826Y288895D02*
X26583D01*
X25434Y288419D01*
X24556Y287540D01*
X24080Y286392D01*
Y285149D01*
X24556Y284001D01*
X25434Y283122D01*
X26274Y282774D01*
X26426Y282453D01*
X26560Y281813D01*
X26549Y281390D01*
X25928Y280770D01*
X25453Y279621D01*
Y278379D01*
X25928Y277230D01*
X26807Y276351D01*
X27956Y275876D01*
X29199D01*
X30347Y276351D01*
X31226Y277230D01*
X31701Y278379D01*
Y279621D01*
X31277Y280645D01*
X32351Y281230D01*
X33230Y280351D01*
X34379Y279876D01*
X35621D01*
X36770Y280351D01*
X37649Y281230D01*
X38124Y282379D01*
Y283621D01*
X37649Y284770D01*
X36770Y285649D01*
X35621Y286124D01*
X34379D01*
X33230Y285649D01*
X32351Y284770D01*
X31876Y283621D01*
Y282379D01*
X32300Y281355D01*
X31226Y280770D01*
X30347Y281649D01*
X29507Y281996D01*
X29355Y282317D01*
X29221Y282957D01*
X29232Y283380D01*
X29853Y284001D01*
X30328Y285149D01*
Y286392D01*
X29853Y287540D01*
X28974Y288419D01*
X27826Y288895D01*
D02*
G37*
G36*
X55584Y285639D02*
X54341D01*
X53193Y285164D01*
X52314Y284285D01*
X51838Y283137D01*
Y281894D01*
X52314Y280745D01*
X53193Y279867D01*
X54341Y279391D01*
X55584D01*
X56732Y279867D01*
X57611Y280745D01*
X58087Y281894D01*
Y283137D01*
X57611Y284285D01*
X56732Y285164D01*
X55584Y285639D01*
D02*
G37*
G36*
X139959Y284353D02*
X138716D01*
X137568Y283878D01*
X136689Y282999D01*
X136213Y281850D01*
Y280607D01*
X136689Y279459D01*
X137568Y278580D01*
X138716Y278105D01*
X139959D01*
X141107Y278580D01*
X141986Y279459D01*
X142461Y280607D01*
Y281850D01*
X141986Y282999D01*
X141107Y283878D01*
X139959Y284353D01*
D02*
G37*
G36*
X299820Y284323D02*
X298578D01*
X297429Y283848D01*
X296551Y282969D01*
X296075Y281821D01*
Y280578D01*
X296551Y279429D01*
X297429Y278550D01*
X298578Y278075D01*
X299820D01*
X300969Y278550D01*
X301848Y279429D01*
X302323Y280578D01*
Y281821D01*
X301848Y282969D01*
X300969Y283848D01*
X299820Y284323D01*
D02*
G37*
G36*
X172706Y284124D02*
X171464D01*
X170315Y283649D01*
X169436Y282770D01*
X168961Y281621D01*
Y280379D01*
X169436Y279230D01*
X170315Y278351D01*
X171464Y277876D01*
X172706D01*
X173855Y278351D01*
X174734Y279230D01*
X175209Y280379D01*
Y281621D01*
X174734Y282770D01*
X173855Y283649D01*
X172706Y284124D01*
D02*
G37*
G36*
X130621Y283182D02*
X129378D01*
X128230Y282706D01*
X127351Y281827D01*
X126876Y280679D01*
Y279436D01*
X127351Y278288D01*
X128230Y277409D01*
X129378Y276933D01*
X130621D01*
X131770Y277409D01*
X132648Y278288D01*
X133124Y279436D01*
Y280679D01*
X132648Y281827D01*
X131770Y282706D01*
X130621Y283182D01*
D02*
G37*
G36*
X181621Y280481D02*
X180379D01*
X179230Y280006D01*
X178351Y279127D01*
X177876Y277979D01*
Y276736D01*
X178351Y275588D01*
X179230Y274709D01*
X180379Y274233D01*
X181621D01*
X182770Y274709D01*
X183649Y275588D01*
X184124Y276736D01*
Y277979D01*
X183649Y279127D01*
X182770Y280006D01*
X181621Y280481D01*
D02*
G37*
G36*
X102701Y284621D02*
X101458D01*
X100310Y284145D01*
X99431Y283266D01*
X98955Y282118D01*
Y280875D01*
X99431Y279727D01*
X99716Y278527D01*
X99344Y278155D01*
X98837Y277648D01*
X98362Y276500D01*
Y275485D01*
X98361Y275256D01*
X97379Y274312D01*
X97117D01*
X95968Y273836D01*
X95090Y272957D01*
X94614Y271809D01*
X93344Y271579D01*
X93235Y271624D01*
X91992D01*
X91857Y271568D01*
X90587Y271809D01*
X90111Y272957D01*
X89232Y273836D01*
X88084Y274312D01*
X86841D01*
X85693Y273836D01*
X84814Y272957D01*
X84544Y272307D01*
X84070Y271775D01*
X83068Y271648D01*
X82569Y271855D01*
X81326D01*
X80894Y271676D01*
X79815Y271847D01*
X79432Y272341D01*
X79149Y273025D01*
X78270Y273904D01*
X77121Y274380D01*
X75879D01*
X74730Y273904D01*
X73851Y273025D01*
X73376Y271877D01*
X72121Y271855D01*
X70879D01*
X70098Y271532D01*
X69662Y271421D01*
X68611Y272056D01*
X68474Y272387D01*
X67595Y273266D01*
X66476Y273730D01*
X66446Y273743D01*
X65737Y275012D01*
X65878Y275353D01*
Y276595D01*
X65402Y277744D01*
X64524Y278623D01*
X63375Y279098D01*
X62132D01*
X60984Y278623D01*
X60105Y277744D01*
X59630Y276595D01*
Y275353D01*
X60105Y274204D01*
X60984Y273326D01*
X62104Y272862D01*
X62133Y272849D01*
X62842Y271580D01*
X62701Y271239D01*
Y269996D01*
X63177Y268848D01*
X64056Y267969D01*
X65204Y267493D01*
X66447D01*
X67227Y267816D01*
X67663Y267928D01*
X68714Y267292D01*
X68851Y266961D01*
X69730Y266082D01*
X70879Y265607D01*
X72121D01*
X73270Y266082D01*
X74149Y266961D01*
X74624Y268109D01*
X75879Y268131D01*
X77121D01*
X77553Y268310D01*
X78632Y268140D01*
X79015Y267646D01*
X79299Y266961D01*
X80178Y266082D01*
X81326Y265607D01*
X82569D01*
X83717Y266082D01*
X84596Y266961D01*
X84866Y267611D01*
X85340Y268143D01*
X86342Y268270D01*
X86841Y268063D01*
X88084D01*
X88220Y268119D01*
X89490Y267878D01*
X89965Y266730D01*
X90844Y265851D01*
X91992Y265376D01*
X93235D01*
X94383Y265851D01*
X95262Y266730D01*
X95738Y267878D01*
X97008Y268108D01*
X97117Y268063D01*
X98359D01*
X98887Y268281D01*
X99490Y267878D01*
X99965Y266730D01*
X100844Y265851D01*
X101992Y265376D01*
X103235D01*
X104383Y265851D01*
X105262Y266730D01*
X105738Y267879D01*
Y269121D01*
X105706Y269198D01*
X105896Y269581D01*
X106608Y270339D01*
X107513D01*
X108662Y270814D01*
X109541Y271693D01*
X110016Y272841D01*
Y274084D01*
X109541Y275233D01*
X109157Y276351D01*
X110035Y277230D01*
X110511Y278379D01*
Y279621D01*
X110035Y280770D01*
X109157Y281649D01*
X108008Y282124D01*
X106765D01*
X106474Y282003D01*
X105328Y282107D01*
X104981Y282655D01*
X104728Y283266D01*
X103849Y284145D01*
X102701Y284621D01*
D02*
G37*
G36*
X10172Y281124D02*
X8929D01*
X7781Y280649D01*
X6902Y279770D01*
X6426Y278621D01*
Y277379D01*
X6902Y276230D01*
X7781Y275351D01*
X8205Y275176D01*
Y273801D01*
X7837Y273649D01*
X6958Y272770D01*
X6483Y271621D01*
Y270379D01*
X6958Y269230D01*
X7837Y268351D01*
X8986Y267876D01*
X10228D01*
X11377Y268351D01*
X12256Y269230D01*
X12731Y270379D01*
Y271621D01*
X12256Y272770D01*
X11377Y273649D01*
X10952Y273824D01*
Y275199D01*
X11320Y275351D01*
X12199Y276230D01*
X12675Y277379D01*
Y278621D01*
X12199Y279770D01*
X11320Y280649D01*
X10172Y281124D01*
D02*
G37*
G36*
X156375Y276352D02*
X155133D01*
X153984Y275876D01*
X153105Y274997D01*
X152630Y273849D01*
Y272606D01*
X153105Y271458D01*
X153696Y270867D01*
X153873Y270095D01*
X153696Y269324D01*
X153105Y268733D01*
X152630Y267584D01*
Y266342D01*
X153105Y265193D01*
X153984Y264314D01*
X155133Y263839D01*
X156375D01*
X157524Y264314D01*
X158403Y265193D01*
X158878Y266342D01*
Y267584D01*
X158403Y268733D01*
X157812Y269324D01*
X157635Y270095D01*
X157812Y270867D01*
X158403Y271458D01*
X158878Y272606D01*
Y273849D01*
X158403Y274997D01*
X157524Y275876D01*
X156375Y276352D01*
D02*
G37*
G36*
X115286Y276797D02*
X114043D01*
X112895Y276322D01*
X112016Y275443D01*
X111540Y274295D01*
Y273052D01*
X112016Y271903D01*
X112895Y271025D01*
X113456Y270792D01*
X114043Y270548D01*
X114100Y269279D01*
X114064Y269194D01*
Y267951D01*
X114540Y266803D01*
X115419Y265924D01*
X116567Y265448D01*
X117810D01*
X118952Y265921D01*
X118959Y265924D01*
X120377Y265547D01*
X120529Y265180D01*
X121408Y264301D01*
X122556Y263826D01*
X123799D01*
X124947Y264301D01*
X125826Y265180D01*
X126301Y266329D01*
Y267571D01*
X125826Y268720D01*
X124947Y269599D01*
X123799Y270074D01*
X122556D01*
X121414Y269601D01*
X121407Y269599D01*
X119989Y269976D01*
X119837Y270342D01*
X118958Y271221D01*
X118397Y271454D01*
X117810Y271697D01*
X117753Y272967D01*
X117788Y273052D01*
Y274295D01*
X117313Y275443D01*
X116434Y276322D01*
X115286Y276797D01*
D02*
G37*
G36*
X297894Y269381D02*
X296652D01*
X295503Y268905D01*
X294625Y268027D01*
X294149Y266878D01*
Y265635D01*
X294625Y264487D01*
X295490Y263622D01*
X295504Y263603D01*
X295714Y262146D01*
X295344Y261777D01*
X294869Y260629D01*
Y259386D01*
X295344Y258237D01*
X295746Y257836D01*
X295563Y256393D01*
X295546Y256369D01*
X294683Y255506D01*
X294207Y254357D01*
Y253114D01*
X294683Y251966D01*
X295562Y251087D01*
X296710Y250612D01*
X297953D01*
X299101Y251087D01*
X299980Y251966D01*
X300456Y253114D01*
Y254357D01*
X299980Y255506D01*
X299578Y255907D01*
X299762Y257350D01*
X299778Y257374D01*
X300641Y258237D01*
X301117Y259386D01*
Y260629D01*
X301078Y260724D01*
X302154Y261443D01*
X302246Y261351D01*
X303394Y260876D01*
X304637D01*
X305785Y261351D01*
X306664Y262230D01*
X307140Y263379D01*
Y264621D01*
X306664Y265770D01*
X305785Y266649D01*
X304637Y267124D01*
X303394D01*
X302246Y266649D01*
X301667Y266070D01*
X300397Y266494D01*
Y266878D01*
X299922Y268027D01*
X299043Y268905D01*
X297894Y269381D01*
D02*
G37*
G36*
X139561Y266124D02*
X138318D01*
X137170Y265649D01*
X136291Y264770D01*
X135815Y263621D01*
Y262379D01*
X136291Y261230D01*
X137170Y260351D01*
X138318Y259876D01*
X139561D01*
X140709Y260351D01*
X141588Y261230D01*
X142064Y262379D01*
Y263621D01*
X141588Y264770D01*
X140709Y265649D01*
X139561Y266124D01*
D02*
G37*
G36*
X189654Y284011D02*
X188411D01*
X187263Y283535D01*
X186384Y282656D01*
X185909Y281508D01*
Y280265D01*
X186384Y279117D01*
X187263Y278238D01*
X187319Y276840D01*
X187260Y276780D01*
X186784Y275632D01*
Y274389D01*
X186036Y273134D01*
X184888Y272658D01*
X184009Y271779D01*
X183533Y270631D01*
Y269388D01*
X184009Y268240D01*
X184888Y267361D01*
X186036Y266885D01*
X186742D01*
X187604Y265982D01*
X187701Y265712D01*
Y264638D01*
X187917Y264116D01*
X186975Y263131D01*
X185732D01*
X184584Y262656D01*
X183705Y261777D01*
X183230Y260629D01*
Y259386D01*
X183705Y258237D01*
X184584Y257358D01*
X185732Y256883D01*
X186975D01*
X188124Y257358D01*
X189002Y258237D01*
X189478Y259386D01*
Y260629D01*
X189262Y261150D01*
X190203Y262135D01*
X191446D01*
X192595Y262610D01*
X193473Y263489D01*
X193949Y264638D01*
Y265880D01*
X193473Y267029D01*
X192595Y267908D01*
X191446Y268383D01*
X190740D01*
X189879Y269286D01*
X189782Y269557D01*
Y270631D01*
X190530Y271887D01*
X191678Y272362D01*
X192557Y273241D01*
X193032Y274389D01*
Y275632D01*
X192557Y276780D01*
X191678Y277659D01*
X191622Y279057D01*
X191681Y279117D01*
X192157Y280265D01*
Y281508D01*
X191681Y282656D01*
X190802Y283535D01*
X189654Y284011D01*
D02*
G37*
G36*
X148894Y260375D02*
X147651D01*
X146503Y259899D01*
X145624Y259021D01*
X145148Y257872D01*
Y256629D01*
X145624Y255481D01*
X146503Y254602D01*
X147651Y254127D01*
X148894D01*
X150042Y254602D01*
X150921Y255481D01*
X151397Y256629D01*
Y257872D01*
X150921Y259021D01*
X150042Y259899D01*
X148894Y260375D01*
D02*
G37*
G36*
X35314Y259963D02*
X34071D01*
X32923Y259487D01*
X32044Y258608D01*
X31568Y257460D01*
Y256217D01*
X32044Y255069D01*
X32545Y254568D01*
X32415Y253242D01*
X32344Y253110D01*
X32084Y253003D01*
X31205Y252124D01*
X30730Y250975D01*
Y249733D01*
X31205Y248584D01*
X32084Y247705D01*
X33232Y247230D01*
X34475D01*
X35624Y247705D01*
X36502Y248584D01*
X36978Y249733D01*
Y250975D01*
X36502Y252124D01*
X36002Y252625D01*
X36132Y253950D01*
X36203Y254083D01*
X36462Y254190D01*
X37341Y255069D01*
X37817Y256217D01*
Y257460D01*
X37341Y258608D01*
X36462Y259487D01*
X35314Y259963D01*
D02*
G37*
G36*
X39444Y241124D02*
X38201D01*
X37053Y240649D01*
X36174Y239770D01*
X35698Y238621D01*
Y237379D01*
X36174Y236230D01*
X37053Y235351D01*
X38201Y234876D01*
X39444D01*
X40592Y235351D01*
X41471Y236230D01*
X41947Y237379D01*
Y238621D01*
X41471Y239770D01*
X40592Y240649D01*
X39444Y241124D01*
D02*
G37*
G36*
X306879Y238125D02*
X305636D01*
X304488Y237649D01*
X303609Y236770D01*
X303133Y235622D01*
Y234379D01*
X303609Y233231D01*
X304488Y232352D01*
X305636Y231877D01*
X306879D01*
X308027Y232352D01*
X308906Y233231D01*
X309382Y234379D01*
Y235622D01*
X308906Y236770D01*
X308027Y237649D01*
X306879Y238125D01*
D02*
G37*
G36*
X297331Y249340D02*
X296089D01*
X294940Y248865D01*
X294061Y247986D01*
X293586Y246837D01*
Y245595D01*
X294061Y244446D01*
X294940Y243567D01*
X294941Y243563D01*
X294950Y242188D01*
X294264Y241502D01*
X293788Y240353D01*
Y239111D01*
X294264Y237962D01*
X295142Y237083D01*
X295517Y236928D01*
Y235554D01*
X295142Y235399D01*
X294264Y234520D01*
X293788Y233372D01*
Y232129D01*
X294264Y230980D01*
X295142Y230101D01*
X296291Y229626D01*
X297534D01*
X298682Y230101D01*
X299561Y230980D01*
X300036Y232129D01*
Y233372D01*
X299561Y234520D01*
X298682Y235399D01*
X298307Y235554D01*
Y236928D01*
X298682Y237083D01*
X299561Y237962D01*
X300036Y239111D01*
Y240353D01*
X299561Y241502D01*
X298682Y242381D01*
X298681Y242384D01*
X298672Y243759D01*
X299359Y244446D01*
X299834Y245595D01*
Y246837D01*
X299359Y247986D01*
X298480Y248865D01*
X297331Y249340D01*
D02*
G37*
G36*
X155279Y234125D02*
X154036D01*
X152888Y233649D01*
X152009Y232771D01*
X151533Y231622D01*
Y230379D01*
X152009Y229231D01*
X152888Y228352D01*
X154036Y227876D01*
X155279D01*
X156427Y228352D01*
X157306Y229231D01*
X157782Y230379D01*
Y231622D01*
X157306Y232771D01*
X156427Y233649D01*
X155279Y234125D01*
D02*
G37*
G36*
X181634Y233437D02*
X180391D01*
X179243Y232961D01*
X178364Y232083D01*
X177889Y230934D01*
Y229691D01*
X178364Y228543D01*
X179243Y227664D01*
X180391Y227189D01*
X181634D01*
X182782Y227664D01*
X183661Y228543D01*
X184137Y229691D01*
Y230934D01*
X183661Y232083D01*
X182782Y232961D01*
X181634Y233437D01*
D02*
G37*
G36*
X190155Y234003D02*
X188913D01*
X187764Y233528D01*
X186885Y232649D01*
X186410Y231500D01*
Y230257D01*
X186885Y229109D01*
X186993Y229001D01*
X187041Y227647D01*
X186163Y226768D01*
X185687Y225620D01*
Y224377D01*
X186163Y223228D01*
X187041Y222350D01*
X188190Y221874D01*
X189433D01*
X190581Y222350D01*
X191460Y223228D01*
X191936Y224377D01*
Y225620D01*
X191460Y226768D01*
X191352Y226876D01*
X191304Y228230D01*
X192183Y229109D01*
X192658Y230257D01*
Y231500D01*
X192183Y232649D01*
X191304Y233528D01*
X190155Y234003D01*
D02*
G37*
G36*
X140978Y258408D02*
X139735D01*
X138587Y257932D01*
X137708Y257054D01*
X137233Y255905D01*
Y254662D01*
X137708Y253514D01*
X137855Y253368D01*
X138215Y252199D01*
X137822Y251741D01*
X137351Y251270D01*
X136876Y250121D01*
Y248879D01*
X136021Y247624D01*
X135711D01*
X134563Y247149D01*
X133684Y246270D01*
X133208Y245121D01*
Y243879D01*
X133684Y242730D01*
X134563Y241851D01*
X135711Y241376D01*
X136521D01*
X137296Y240494D01*
X137409Y240202D01*
X137376Y240121D01*
Y238879D01*
X137418Y238777D01*
X137247Y238410D01*
X136521Y237624D01*
X135640D01*
X134492Y237149D01*
X133613Y236270D01*
X133137Y235121D01*
Y233879D01*
X133613Y232730D01*
X134492Y231851D01*
X135640Y231376D01*
X136360Y230121D01*
Y229139D01*
X136358Y228877D01*
X135363Y227965D01*
X135109D01*
X133961Y227489D01*
X133082Y226611D01*
X132606Y225462D01*
Y224219D01*
X133082Y223071D01*
X133961Y222192D01*
X134390Y222015D01*
X135092Y221471D01*
X135025Y220481D01*
X134876Y220121D01*
Y218879D01*
X135351Y217730D01*
X136230Y216851D01*
X137379Y216376D01*
X138621D01*
X139770Y216851D01*
X140649Y217730D01*
X141124Y218879D01*
Y220121D01*
X140649Y221270D01*
X139770Y222149D01*
X139340Y222326D01*
X138638Y222870D01*
X138705Y223859D01*
X138855Y224219D01*
Y225203D01*
X138856Y225464D01*
X139851Y226376D01*
X140105D01*
X141253Y226851D01*
X142132Y227730D01*
X142608Y228879D01*
Y230121D01*
X142132Y231270D01*
X141253Y232149D01*
X140105Y232624D01*
X139386Y233879D01*
Y235121D01*
X139344Y235223D01*
X139514Y235590D01*
X140241Y236376D01*
X141121D01*
X142270Y236851D01*
X143149Y237730D01*
X143624Y238879D01*
Y240121D01*
X143149Y241270D01*
X142270Y242149D01*
X141121Y242624D01*
X140312D01*
X139537Y243505D01*
X139423Y243798D01*
X139457Y243879D01*
Y245121D01*
X140312Y246376D01*
X140621D01*
X141770Y246851D01*
X142649Y247730D01*
X143124Y248879D01*
Y250121D01*
X142649Y251270D01*
X142502Y251416D01*
X142142Y252584D01*
X142535Y253043D01*
X143006Y253514D01*
X143481Y254662D01*
Y255905D01*
X143006Y257054D01*
X142127Y257932D01*
X140978Y258408D01*
D02*
G37*
G36*
X152621Y218124D02*
X151379D01*
X150230Y217649D01*
X149351Y216770D01*
X148876Y215621D01*
Y214379D01*
X149351Y213230D01*
X150230Y212351D01*
X151379Y211876D01*
X152621D01*
X153770Y212351D01*
X154649Y213230D01*
X155124Y214379D01*
Y215621D01*
X154649Y216770D01*
X153770Y217649D01*
X152621Y218124D01*
D02*
G37*
G36*
X189799Y213889D02*
X188556D01*
X187408Y213413D01*
X186529Y212535D01*
X186053Y211386D01*
Y210143D01*
X186529Y208995D01*
X187408Y208116D01*
X188556Y207641D01*
X189799D01*
X190947Y208116D01*
X191826Y208995D01*
X192302Y210143D01*
Y211386D01*
X191826Y212535D01*
X190947Y213413D01*
X189799Y213889D01*
D02*
G37*
G36*
X163611Y212797D02*
X162368D01*
X161220Y212322D01*
X160341Y211443D01*
X159865Y210295D01*
Y209052D01*
X160341Y207903D01*
X161220Y207025D01*
X162368Y206549D01*
X163611D01*
X164759Y207025D01*
X165638Y207903D01*
X166114Y209052D01*
Y210295D01*
X165638Y211443D01*
X164759Y212322D01*
X163611Y212797D01*
D02*
G37*
G36*
X51621Y262124D02*
X50379D01*
X49230Y261649D01*
X48351Y260770D01*
X47876Y259621D01*
Y258379D01*
X48351Y257230D01*
X49230Y256351D01*
X49514Y256234D01*
X49261Y254964D01*
X49043D01*
X47894Y254489D01*
X47016Y253610D01*
X46540Y252461D01*
Y251218D01*
X47016Y250070D01*
X47393Y249693D01*
X47718Y248801D01*
X47378Y248049D01*
X46949Y247620D01*
X46473Y246471D01*
Y245229D01*
X45640Y243922D01*
X44981Y243649D01*
X44102Y242770D01*
X43626Y241621D01*
Y240379D01*
X44102Y239230D01*
X44981Y238351D01*
X45015Y238337D01*
X45494Y237020D01*
X45018Y235871D01*
Y234628D01*
X45494Y233480D01*
X45769Y233205D01*
X46244Y232375D01*
X45769Y231545D01*
X45494Y231270D01*
X45018Y230121D01*
Y228879D01*
X45494Y227730D01*
X46373Y226851D01*
X47039Y226575D01*
X47529Y226319D01*
X47701Y225106D01*
X47607Y224880D01*
Y224259D01*
X47164Y223447D01*
X46439Y223138D01*
X45751D01*
X44603Y222662D01*
X43724Y221784D01*
X43249Y220635D01*
Y219392D01*
X43724Y218244D01*
X43214Y216958D01*
X42526Y216270D01*
X42050Y215121D01*
Y213879D01*
X42526Y212730D01*
X43404Y211851D01*
X44553Y211376D01*
X44756D01*
X45661Y210243D01*
Y209001D01*
X46137Y207852D01*
X47016Y206973D01*
X48164Y206498D01*
X48420Y205228D01*
X48376Y205121D01*
Y203879D01*
X48851Y202730D01*
X49730Y201851D01*
X50879Y201376D01*
X52121D01*
X53270Y201851D01*
X54149Y202730D01*
X54624Y203879D01*
Y205121D01*
X54149Y206270D01*
X53270Y207149D01*
X52122Y207624D01*
X51866Y208894D01*
X51910Y209001D01*
Y210243D01*
X51878Y210320D01*
X52403Y211106D01*
X52787Y211445D01*
X53767Y211851D01*
X54646Y212730D01*
X55122Y213879D01*
Y215121D01*
X54646Y216270D01*
X53767Y217149D01*
X52619Y217624D01*
X51376D01*
X50228Y217149D01*
X50051Y216971D01*
X48425Y217105D01*
X48254Y217356D01*
X48333Y217556D01*
X49021Y218244D01*
X49497Y219392D01*
Y220014D01*
X49941Y220825D01*
X50665Y221134D01*
X51353D01*
X52501Y221610D01*
X53380Y222489D01*
X53856Y223637D01*
Y224880D01*
X53380Y226028D01*
X52501Y226907D01*
X51835Y227183D01*
X51345Y227440D01*
X51173Y228653D01*
X51267Y228879D01*
Y230121D01*
X50791Y231270D01*
X50516Y231545D01*
X50041Y232375D01*
X50516Y233205D01*
X50791Y233480D01*
X51267Y234628D01*
Y235871D01*
X50791Y237020D01*
X49912Y237898D01*
X49877Y237913D01*
X49399Y239230D01*
X49874Y240379D01*
Y241621D01*
X50708Y242928D01*
X51367Y243201D01*
X52246Y244080D01*
X52722Y245229D01*
Y246471D01*
X52246Y247620D01*
X51869Y247997D01*
X51544Y248889D01*
X51884Y249641D01*
X52313Y250070D01*
X52788Y251218D01*
Y252461D01*
X52313Y253610D01*
X51434Y254489D01*
X51151Y254606D01*
X51403Y255876D01*
X51621D01*
X52770Y256351D01*
X53649Y257230D01*
X54124Y258379D01*
Y259621D01*
X53649Y260770D01*
X52770Y261649D01*
X51621Y262124D01*
D02*
G37*
G36*
X181511Y207032D02*
X180269D01*
X179120Y206556D01*
X178242Y205677D01*
X177766Y204529D01*
Y203286D01*
X178242Y202138D01*
X179120Y201259D01*
X180269Y200783D01*
X181511D01*
X182660Y201259D01*
X183539Y202138D01*
X184014Y203286D01*
Y204529D01*
X183539Y205677D01*
X182660Y206556D01*
X181511Y207032D01*
D02*
G37*
G36*
X138525Y201124D02*
X137282D01*
X136134Y200649D01*
X135255Y199770D01*
X134779Y198621D01*
Y197379D01*
X135255Y196230D01*
X136134Y195351D01*
X137282Y194876D01*
X138525D01*
X139673Y195351D01*
X140552Y196230D01*
X141027Y197379D01*
Y198621D01*
X140552Y199770D01*
X139673Y200649D01*
X138525Y201124D01*
D02*
G37*
G36*
X219400Y195134D02*
X218157D01*
X217008Y194659D01*
X216130Y193780D01*
X215940Y193323D01*
X215466Y193193D01*
X214508Y193183D01*
X213828Y193862D01*
X212679Y194338D01*
X211437D01*
X210288Y193862D01*
X209611Y193185D01*
X208817Y193083D01*
X208124Y193199D01*
X207427Y193896D01*
X206279Y194371D01*
X205036D01*
X203888Y193896D01*
X203009Y193017D01*
X202533Y191869D01*
Y190626D01*
X203009Y189478D01*
X203888Y188599D01*
X205036Y188123D01*
X206279D01*
X207427Y188599D01*
X208104Y189276D01*
X208898Y189378D01*
X209592Y189262D01*
X210288Y188565D01*
X211437Y188090D01*
X212679D01*
X213828Y188565D01*
X214706Y189444D01*
X214896Y189901D01*
X215371Y190031D01*
X216329Y190041D01*
X217008Y189361D01*
X218157Y188886D01*
X219400D01*
X220548Y189361D01*
X221427Y190240D01*
X221902Y191389D01*
Y192632D01*
X221427Y193780D01*
X220548Y194659D01*
X219400Y195134D01*
D02*
G37*
G36*
X294861Y199125D02*
X293618D01*
X292470Y198649D01*
X291591Y197770D01*
X291116Y196622D01*
Y195379D01*
X291591Y194231D01*
X292470Y193352D01*
X293618Y192876D01*
X294861D01*
X296010Y193352D01*
X296888Y194231D01*
X297364Y195379D01*
Y196622D01*
X296888Y197770D01*
X296010Y198649D01*
X294861Y199125D01*
D02*
G37*
G36*
X272700Y197553D02*
X271457D01*
X270308Y197078D01*
X269430Y196199D01*
X268954Y195050D01*
Y193808D01*
X269248Y193098D01*
X268323Y192107D01*
X268279Y192125D01*
X267036D01*
X265888Y191649D01*
X265009Y190770D01*
X264533Y189622D01*
Y188379D01*
X265009Y187231D01*
X265888Y186352D01*
X267036Y185877D01*
X268279D01*
X269427Y186352D01*
X270306Y187231D01*
X270782Y188379D01*
Y189622D01*
X270488Y190331D01*
X271413Y191323D01*
X271457Y191305D01*
X272700D01*
X273848Y191780D01*
X274727Y192659D01*
X275202Y193808D01*
Y195050D01*
X274727Y196199D01*
X273848Y197078D01*
X272700Y197553D01*
D02*
G37*
G36*
X262725Y198124D02*
X261483D01*
X260334Y197649D01*
X259455Y196770D01*
X258980Y195621D01*
Y194379D01*
X259455Y193230D01*
X260334Y192351D01*
X261483Y191876D01*
X262725D01*
X263874Y192351D01*
X264753Y193230D01*
X265228Y194379D01*
Y195621D01*
X264753Y196770D01*
X263874Y197649D01*
X262725Y198124D01*
D02*
G37*
G36*
X153693Y197056D02*
X152450D01*
X151301Y196580D01*
X150422Y195701D01*
X149947Y194553D01*
Y193310D01*
X150422Y192162D01*
X151301Y191283D01*
X152450Y190807D01*
X153693D01*
X154841Y191283D01*
X155720Y192162D01*
X156195Y193310D01*
Y194553D01*
X155720Y195701D01*
X154841Y196580D01*
X153693Y197056D01*
D02*
G37*
G36*
X197708Y197043D02*
X196465D01*
X195317Y196568D01*
X194438Y195689D01*
X193962Y194540D01*
Y193298D01*
X194438Y192149D01*
X195317Y191270D01*
X196465Y190795D01*
X197708D01*
X198856Y191270D01*
X199735Y192149D01*
X200211Y193298D01*
Y194540D01*
X199735Y195689D01*
X198856Y196568D01*
X197708Y197043D01*
D02*
G37*
G36*
X162381Y196985D02*
X161138D01*
X159990Y196509D01*
X159111Y195630D01*
X158635Y194482D01*
Y193239D01*
X159111Y192091D01*
X159990Y191212D01*
X161138Y190736D01*
X162381D01*
X163529Y191212D01*
X164408Y192091D01*
X164883Y193239D01*
Y194482D01*
X164408Y195630D01*
X163529Y196509D01*
X162381Y196985D01*
D02*
G37*
G36*
X171621Y196124D02*
X170379D01*
X169230Y195649D01*
X168351Y194770D01*
X167876Y193621D01*
Y192379D01*
X168351Y191230D01*
X169230Y190351D01*
X170379Y189876D01*
X171621D01*
X172770Y190351D01*
X173649Y191230D01*
X174124Y192379D01*
Y193621D01*
X173649Y194770D01*
X172770Y195649D01*
X171621Y196124D01*
D02*
G37*
G36*
X111973Y189915D02*
X110730D01*
X109582Y189439D01*
X108851Y188707D01*
X108460Y188517D01*
X107219Y188294D01*
X106496Y188594D01*
X105253D01*
X104105Y188118D01*
X103226Y187239D01*
X102750Y186091D01*
Y184848D01*
X103226Y183700D01*
X104105Y182821D01*
X105253Y182345D01*
X106496D01*
X107644Y182821D01*
X108376Y183552D01*
X108766Y183743D01*
X110008Y183965D01*
X110730Y183666D01*
X111973D01*
X113122Y184142D01*
X113690Y184710D01*
X114544Y184871D01*
X115234Y184681D01*
X115844Y184071D01*
X116992Y183596D01*
X118235D01*
X119383Y184071D01*
X120262Y184950D01*
X120738Y186098D01*
Y187341D01*
X120262Y188490D01*
X119383Y189368D01*
X118235Y189844D01*
X116992D01*
X115844Y189368D01*
X115276Y188800D01*
X114421Y188639D01*
X113731Y188829D01*
X113122Y189439D01*
X111973Y189915D01*
D02*
G37*
G36*
X187621Y194124D02*
X186379D01*
X185230Y193649D01*
X184351Y192770D01*
X183876Y191621D01*
Y190379D01*
X184351Y189230D01*
X185230Y188351D01*
X186379Y187876D01*
X187621D01*
X188770Y188351D01*
X189649Y189230D01*
X190124Y190379D01*
Y191621D01*
X189649Y192770D01*
X188770Y193649D01*
X187621Y194124D01*
D02*
G37*
G36*
X97121Y188624D02*
X95878D01*
X94730Y188149D01*
X93851Y187270D01*
X93574Y186601D01*
X92295Y186242D01*
X92162Y186257D01*
X91770Y186649D01*
X90621Y187124D01*
X89379D01*
X88230Y186649D01*
X87351Y185770D01*
X86876Y184621D01*
Y183379D01*
X87351Y182230D01*
X88230Y181351D01*
X89379Y180876D01*
X90621D01*
X91770Y181351D01*
X92649Y182230D01*
X92683Y182313D01*
X94099Y182739D01*
X94523Y182458D01*
X94851Y181252D01*
X94376Y180104D01*
Y178861D01*
X94851Y177713D01*
X95730Y176834D01*
X96879Y176358D01*
X98121D01*
X99270Y176834D01*
X100149Y177713D01*
X100624Y178861D01*
Y180104D01*
X100149Y181252D01*
X99270Y182131D01*
X99025Y183607D01*
X99149Y183730D01*
X99624Y184879D01*
Y186121D01*
X99149Y187270D01*
X98270Y188149D01*
X97121Y188624D01*
D02*
G37*
G36*
X280729Y192125D02*
X279486D01*
X278338Y191649D01*
X277459Y190770D01*
X276984Y189622D01*
Y188379D01*
X277459Y187231D01*
X278338Y186352D01*
X279486Y185877D01*
X280729D01*
X281877Y186352D01*
X282756Y187231D01*
X283232Y188379D01*
Y189622D01*
X282756Y190770D01*
X281877Y191649D01*
X280729Y192125D01*
D02*
G37*
G36*
X33799Y192124D02*
X32556D01*
X31408Y191649D01*
X30529Y190770D01*
X30053Y189621D01*
Y188379D01*
X30529Y187230D01*
X31408Y186351D01*
X32556Y185876D01*
X33799D01*
X34947Y186351D01*
X35826Y187230D01*
X36302Y188379D01*
Y189621D01*
X35826Y190770D01*
X34947Y191649D01*
X33799Y192124D01*
D02*
G37*
G36*
X257779Y192099D02*
X256536D01*
X255388Y191623D01*
X254509Y190744D01*
X254034Y189596D01*
Y188353D01*
X254509Y187205D01*
X255388Y186326D01*
X256536Y185850D01*
X257779D01*
X258927Y186326D01*
X259806Y187205D01*
X260282Y188353D01*
Y189596D01*
X259806Y190744D01*
X258927Y191623D01*
X257779Y192099D01*
D02*
G37*
G36*
X13621Y190124D02*
X12379D01*
X11230Y189649D01*
X10351Y188770D01*
X9876Y187621D01*
Y186379D01*
X10351Y185230D01*
X11230Y184351D01*
X12379Y183876D01*
X13621D01*
X14770Y184351D01*
X15649Y185230D01*
X16124Y186379D01*
Y187621D01*
X15649Y188770D01*
X14770Y189649D01*
X13621Y190124D01*
D02*
G37*
G36*
X235279Y197125D02*
X234036D01*
X232888Y196649D01*
X232009Y195770D01*
X231533Y194622D01*
Y193379D01*
X232009Y192231D01*
X232888Y191352D01*
X234036Y190877D01*
X235279D01*
X236427Y191352D01*
X236730Y191655D01*
X237942Y191071D01*
Y190272D01*
X238417Y189124D01*
X239296Y188245D01*
X240445Y187769D01*
X241151D01*
X241853Y187480D01*
X242325Y186658D01*
Y186044D01*
X242800Y184895D01*
X243679Y184016D01*
X244827Y183541D01*
X246070D01*
X247218Y184016D01*
X248097Y184895D01*
X248573Y186044D01*
Y187286D01*
X248097Y188435D01*
X247218Y189314D01*
X246070Y189789D01*
X245364D01*
X244662Y190078D01*
X244190Y190900D01*
Y191515D01*
X243715Y192663D01*
X242836Y193542D01*
X241688Y194018D01*
X240445D01*
X239296Y193542D01*
X238994Y193239D01*
X237782Y193823D01*
Y194622D01*
X237306Y195770D01*
X236427Y196649D01*
X235279Y197125D01*
D02*
G37*
G36*
X24174Y194000D02*
X22931D01*
X21783Y193525D01*
X20904Y192646D01*
X20428Y191497D01*
Y190254D01*
X20904Y189106D01*
X21783Y188227D01*
X22341Y187996D01*
X22942Y187490D01*
X22984Y186482D01*
X22807Y186055D01*
Y184812D01*
X23283Y183664D01*
X24162Y182785D01*
X25310Y182309D01*
X26553D01*
X27701Y182785D01*
X28580Y183664D01*
X29056Y184812D01*
Y186055D01*
X28580Y187203D01*
X27701Y188082D01*
X27143Y188314D01*
X26542Y188819D01*
X26500Y189828D01*
X26677Y190254D01*
Y191497D01*
X26201Y192646D01*
X25322Y193525D01*
X24174Y194000D01*
D02*
G37*
G36*
X72121Y189523D02*
X70879D01*
X69730Y189047D01*
X68851Y188168D01*
X68376Y187020D01*
Y185777D01*
X68851Y184629D01*
X69730Y183750D01*
X70879Y183274D01*
X72121D01*
X72162Y183291D01*
X73432Y182867D01*
X73907Y181719D01*
X74786Y180840D01*
X75935Y180365D01*
X77178D01*
X77470Y180485D01*
X78675Y180216D01*
X78902Y179809D01*
X79215Y179053D01*
X80094Y178174D01*
X81242Y177698D01*
X82485D01*
X83633Y178174D01*
X84512Y179053D01*
X84988Y180201D01*
Y181444D01*
X84512Y182592D01*
X83633Y183471D01*
X82485Y183947D01*
X81242D01*
X80950Y183826D01*
X79745Y184096D01*
X79518Y184503D01*
X79205Y185259D01*
X78326Y186137D01*
X77178Y186613D01*
X75935D01*
X75894Y186596D01*
X74624Y187020D01*
X74149Y188168D01*
X73270Y189047D01*
X72121Y189523D01*
D02*
G37*
G36*
X214621Y183124D02*
X213379D01*
X212230Y182649D01*
X211351Y181770D01*
X210876Y180621D01*
Y179379D01*
X211351Y178230D01*
X212230Y177351D01*
X213379Y176876D01*
X214621D01*
X215770Y177351D01*
X216649Y178230D01*
X217124Y179379D01*
Y180621D01*
X216649Y181770D01*
X215770Y182649D01*
X214621Y183124D01*
D02*
G37*
G36*
X122121Y182276D02*
X120878D01*
X119730Y181801D01*
X118851Y180922D01*
X118376Y179774D01*
Y178531D01*
X118851Y177383D01*
X119730Y176504D01*
X120878Y176028D01*
X122121D01*
X123270Y176504D01*
X124149Y177383D01*
X124624Y178531D01*
Y179774D01*
X124149Y180922D01*
X123270Y181801D01*
X122121Y182276D01*
D02*
G37*
G36*
X292177Y180152D02*
X290934D01*
X289786Y179677D01*
X288907Y178798D01*
X288431Y177649D01*
Y176407D01*
X288907Y175258D01*
X289786Y174379D01*
X290934Y173904D01*
X292177D01*
X293325Y174379D01*
X294204Y175258D01*
X294680Y176407D01*
Y177649D01*
X294204Y178798D01*
X293325Y179677D01*
X292177Y180152D01*
D02*
G37*
G36*
X257641Y174125D02*
X256399D01*
X255250Y173649D01*
X254371Y172770D01*
X253896Y171622D01*
Y170379D01*
X254371Y169231D01*
X255250Y168352D01*
X256399Y167876D01*
X257641D01*
X258790Y168352D01*
X259669Y169231D01*
X260144Y170379D01*
Y171622D01*
X259669Y172770D01*
X258790Y173649D01*
X257641Y174125D01*
D02*
G37*
G36*
X308622Y167624D02*
X307379D01*
X306230Y167149D01*
X305352Y166270D01*
X304876Y165122D01*
Y163879D01*
X305352Y162731D01*
X306230Y161852D01*
X307379Y161376D01*
X308622D01*
X309770Y161852D01*
X310649Y162731D01*
X311124Y163879D01*
Y165122D01*
X310649Y166270D01*
X309770Y167149D01*
X308622Y167624D01*
D02*
G37*
G36*
X143621Y165874D02*
X142379D01*
X141230Y165399D01*
X140351Y164520D01*
X139876Y163371D01*
Y162129D01*
X140351Y160980D01*
X141230Y160101D01*
X142379Y159626D01*
X143621D01*
X144770Y160101D01*
X145649Y160980D01*
X146124Y162129D01*
Y163371D01*
X145649Y164520D01*
X144770Y165399D01*
X143621Y165874D01*
D02*
G37*
G36*
X183621Y165395D02*
X182379D01*
X181230Y164919D01*
X180351Y164040D01*
X179876Y162892D01*
Y161649D01*
X180351Y160501D01*
X181230Y159622D01*
X182379Y159146D01*
X183621D01*
X184770Y159622D01*
X185649Y160501D01*
X186124Y161649D01*
Y162892D01*
X185649Y164040D01*
X184770Y164919D01*
X183621Y165395D01*
D02*
G37*
G36*
X241621Y164770D02*
X240379D01*
X239230Y164294D01*
X238351Y163415D01*
X237876Y162267D01*
Y161024D01*
X238351Y159876D01*
X239230Y158997D01*
X240379Y158521D01*
X241621D01*
X242770Y158997D01*
X243649Y159876D01*
X244124Y161024D01*
Y162267D01*
X243649Y163415D01*
X242770Y164294D01*
X241621Y164770D01*
D02*
G37*
G36*
X249621Y164124D02*
X248379D01*
X247230Y163649D01*
X246351Y162770D01*
X245876Y161621D01*
Y160379D01*
X246351Y159230D01*
X247230Y158351D01*
X248379Y157876D01*
X249621D01*
X250770Y158351D01*
X251649Y159230D01*
X252124Y160379D01*
Y161621D01*
X251649Y162770D01*
X250770Y163649D01*
X249621Y164124D01*
D02*
G37*
G36*
X184621Y157624D02*
X183379D01*
X182230Y157149D01*
X181351Y156270D01*
X180876Y155121D01*
Y153879D01*
X181351Y152730D01*
X182230Y151851D01*
X183379Y151376D01*
X184621D01*
X185770Y151851D01*
X186649Y152730D01*
X187124Y153879D01*
Y155121D01*
X186649Y156270D01*
X185770Y157149D01*
X184621Y157624D01*
D02*
G37*
G36*
X141744Y157146D02*
X140501D01*
X139353Y156671D01*
X138474Y155792D01*
X137999Y154643D01*
Y153401D01*
X138474Y152252D01*
X139353Y151374D01*
X140501Y150898D01*
X141744D01*
X142893Y151374D01*
X143771Y152252D01*
X144247Y153401D01*
Y154643D01*
X143771Y155792D01*
X142893Y156671D01*
X141744Y157146D01*
D02*
G37*
G36*
X74292Y145794D02*
X73049D01*
X71900Y145319D01*
X71021Y144440D01*
X70546Y143292D01*
Y142148D01*
X69403D01*
X68254Y141673D01*
X67375Y140794D01*
X66900Y139646D01*
Y138403D01*
X67375Y137254D01*
X68254Y136376D01*
X69403Y135900D01*
X70645D01*
X71794Y136376D01*
X72673Y137254D01*
X73148Y138403D01*
Y139546D01*
X74292D01*
X75440Y140021D01*
X76319Y140900D01*
X76794Y142049D01*
Y143292D01*
X76319Y144440D01*
X75440Y145319D01*
X74292Y145794D01*
D02*
G37*
G36*
X78871Y160124D02*
X77628D01*
X76480Y159649D01*
X75601Y158770D01*
X75126Y157621D01*
Y156379D01*
X75601Y155230D01*
X76480Y154351D01*
X77628Y153876D01*
X78703D01*
X78921Y153828D01*
X79876Y152917D01*
Y152379D01*
X80351Y151230D01*
X81230Y150351D01*
X82379Y149876D01*
X83621D01*
X84770Y150351D01*
X85006Y150588D01*
X86276Y150061D01*
Y149879D01*
X86373Y149644D01*
X85878Y148374D01*
X84730Y147899D01*
X83851Y147020D01*
X83376Y145871D01*
Y144629D01*
X83851Y143480D01*
X84432Y142900D01*
X84617Y142125D01*
X84432Y141350D01*
X83851Y140770D01*
X83376Y139621D01*
Y138379D01*
X83851Y137230D01*
X84730Y136351D01*
X85878Y135876D01*
X87121D01*
X88270Y136351D01*
X89149Y137230D01*
X89624Y138379D01*
Y139621D01*
X89149Y140770D01*
X88568Y141350D01*
X88383Y142125D01*
X88568Y142900D01*
X89149Y143480D01*
X89624Y144629D01*
Y145871D01*
X89527Y146106D01*
X90021Y147376D01*
X91170Y147851D01*
X92049Y148730D01*
X92524Y149879D01*
Y151121D01*
X92049Y152270D01*
X91170Y153149D01*
X90021Y153624D01*
X88779D01*
X87630Y153149D01*
X87394Y152913D01*
X86124Y153439D01*
Y153621D01*
X85649Y154770D01*
X84770Y155649D01*
X83621Y156124D01*
X82548D01*
X82329Y156172D01*
X81374Y157083D01*
Y157621D01*
X80899Y158770D01*
X80020Y159649D01*
X78871Y160124D01*
D02*
G37*
G36*
X248621Y135124D02*
X247379D01*
X246230Y134649D01*
X245351Y133770D01*
X245299Y133643D01*
X243924D01*
X243872Y133770D01*
X242993Y134649D01*
X241845Y135124D01*
X240602D01*
X239453Y134649D01*
X238575Y133770D01*
X238099Y132621D01*
Y131379D01*
X238575Y130230D01*
X239453Y129351D01*
X240602Y128876D01*
X241845D01*
X242993Y129351D01*
X243872Y130230D01*
X243924Y130357D01*
X245299D01*
X245351Y130230D01*
X246230Y129351D01*
X247379Y128876D01*
X248621D01*
X249770Y129351D01*
X250649Y130230D01*
X251124Y131379D01*
Y132621D01*
X250649Y133770D01*
X249770Y134649D01*
X248621Y135124D01*
D02*
G37*
G36*
X142621Y138947D02*
X141379D01*
X140230Y138472D01*
X139351Y137593D01*
X138876Y136445D01*
Y135202D01*
X139351Y134054D01*
X140230Y133175D01*
X141379Y132699D01*
X142621D01*
X143770Y133175D01*
X144649Y134054D01*
X145124Y135202D01*
Y136445D01*
X144649Y137593D01*
X143770Y138472D01*
X142621Y138947D01*
D02*
G37*
G36*
X181621Y135124D02*
X180379D01*
X179230Y134649D01*
X178351Y133770D01*
X177876Y132621D01*
Y131379D01*
X178351Y130230D01*
X179230Y129351D01*
X180379Y128876D01*
X181621D01*
X182770Y129351D01*
X183649Y130230D01*
X184124Y131379D01*
Y132621D01*
X183649Y133770D01*
X182770Y134649D01*
X181621Y135124D01*
D02*
G37*
G36*
X171889Y133747D02*
X170646D01*
X169497Y133271D01*
X168619Y132392D01*
X168143Y131244D01*
Y130001D01*
X168619Y128853D01*
X169497Y127974D01*
X170646Y127499D01*
X171889D01*
X173037Y127974D01*
X173916Y128853D01*
X174391Y130001D01*
Y131244D01*
X173916Y132392D01*
X173037Y133271D01*
X171889Y133747D01*
D02*
G37*
G36*
X154895Y132895D02*
X153652D01*
X152504Y132419D01*
X151625Y131540D01*
X151149Y130392D01*
Y129149D01*
X151625Y128001D01*
X152504Y127122D01*
X153652Y126646D01*
X154895D01*
X156043Y127122D01*
X156922Y128001D01*
X157398Y129149D01*
Y130392D01*
X156922Y131540D01*
X156043Y132419D01*
X154895Y132895D01*
D02*
G37*
G36*
X308621Y129124D02*
X307379D01*
X306230Y128649D01*
X305351Y127770D01*
X304876Y126621D01*
Y125379D01*
X305351Y124230D01*
X306230Y123351D01*
X307379Y122876D01*
X308621D01*
X309770Y123351D01*
X310649Y124230D01*
X311124Y125379D01*
Y126621D01*
X310649Y127770D01*
X309770Y128649D01*
X308621Y129124D01*
D02*
G37*
G36*
X220083D02*
X218841D01*
X217692Y128649D01*
X216813Y127770D01*
X216338Y126621D01*
Y125379D01*
X216813Y124230D01*
X217692Y123351D01*
X218841Y122876D01*
X220083D01*
X221232Y123351D01*
X222111Y124230D01*
X222586Y125379D01*
Y126621D01*
X222111Y127770D01*
X221232Y128649D01*
X220083Y129124D01*
D02*
G37*
G36*
X204621D02*
X203379D01*
X202230Y128649D01*
X201351Y127770D01*
X200876Y126621D01*
Y125379D01*
X201351Y124230D01*
X202230Y123351D01*
X203379Y122876D01*
X204621D01*
X205770Y123351D01*
X206649Y124230D01*
X207124Y125379D01*
Y126621D01*
X206649Y127770D01*
X205770Y128649D01*
X204621Y129124D01*
D02*
G37*
G36*
X276228Y128958D02*
X274985D01*
X273837Y128482D01*
X272958Y127603D01*
X272482Y126455D01*
Y125212D01*
X272958Y124064D01*
X273837Y123185D01*
X274985Y122709D01*
X276228D01*
X277376Y123185D01*
X278255Y124064D01*
X278731Y125212D01*
Y126455D01*
X278255Y127603D01*
X277376Y128482D01*
X276228Y128958D01*
D02*
G37*
G36*
X267621D02*
X266379D01*
X265230Y128482D01*
X264351Y127603D01*
X263876Y126455D01*
Y125212D01*
X264351Y124064D01*
X265230Y123185D01*
X266379Y122709D01*
X267621D01*
X268770Y123185D01*
X269649Y124064D01*
X270124Y125212D01*
Y126455D01*
X269649Y127603D01*
X268770Y128482D01*
X267621Y128958D01*
D02*
G37*
G36*
X292221Y128124D02*
X290979D01*
X289830Y127649D01*
X288951Y126770D01*
X288476Y125621D01*
Y124379D01*
X288951Y123230D01*
X289830Y122351D01*
X290979Y121876D01*
X292221D01*
X293370Y122351D01*
X294249Y123230D01*
X294724Y124379D01*
Y125621D01*
X294249Y126770D01*
X293370Y127649D01*
X292221Y128124D01*
D02*
G37*
G36*
X192574Y122572D02*
X191331D01*
X190182Y122097D01*
X189303Y121218D01*
X188828Y120069D01*
Y118827D01*
X189303Y117678D01*
X190182Y116799D01*
X191331Y116324D01*
X192574D01*
X193722Y116799D01*
X194601Y117678D01*
X195076Y118827D01*
Y120069D01*
X194601Y121218D01*
X193722Y122097D01*
X192574Y122572D01*
D02*
G37*
G36*
X233621Y120124D02*
X232379D01*
X231230Y119649D01*
X230351Y118770D01*
X229876Y117621D01*
Y116379D01*
X230351Y115230D01*
X231230Y114352D01*
X232379Y113876D01*
X233621D01*
X234770Y114352D01*
X235648Y115230D01*
X236124Y116379D01*
Y117621D01*
X235648Y118770D01*
X234770Y119649D01*
X233621Y120124D01*
D02*
G37*
G36*
X79621Y108929D02*
X78379D01*
X77230Y108454D01*
X76351Y107575D01*
X75876Y106427D01*
Y105979D01*
X74632Y105120D01*
X74621Y105124D01*
X73379D01*
X72230Y104649D01*
X71351Y103770D01*
X70876Y102621D01*
Y101379D01*
X71351Y100230D01*
X72230Y99351D01*
X73379Y98876D01*
X74621D01*
X75770Y99351D01*
X76649Y100230D01*
X77124Y101379D01*
Y101491D01*
X78187Y102326D01*
X78849Y102206D01*
X79557Y100943D01*
X79504Y100814D01*
Y99572D01*
X79980Y98423D01*
X80859Y97544D01*
X82007Y97069D01*
X83250D01*
X84398Y97544D01*
X85277Y98423D01*
X85753Y99572D01*
Y100814D01*
X85277Y101963D01*
X84398Y102842D01*
X83250Y103317D01*
X82621D01*
X82563Y103360D01*
X81850Y104522D01*
X82124Y105184D01*
Y106427D01*
X81649Y107575D01*
X80770Y108454D01*
X79621Y108929D01*
D02*
G37*
G36*
X211621Y109124D02*
X210379D01*
X209230Y108649D01*
X208351Y107770D01*
X207876Y106621D01*
Y105379D01*
X208351Y104230D01*
X209230Y103351D01*
X210379Y102876D01*
X211621D01*
X212770Y103351D01*
X213649Y104230D01*
X214124Y105379D01*
Y106621D01*
X213649Y107770D01*
X212770Y108649D01*
X211621Y109124D01*
D02*
G37*
G36*
X110074Y105700D02*
X108831D01*
X107683Y105224D01*
X106804Y104345D01*
X106328Y103197D01*
Y102714D01*
X106078Y102570D01*
X105058Y102324D01*
X104396Y102987D01*
X103247Y103463D01*
X102004D01*
X100856Y102987D01*
X99977Y102108D01*
X99502Y100960D01*
Y99717D01*
X99977Y98569D01*
X100856Y97690D01*
X102004Y97214D01*
X103247D01*
X104396Y97690D01*
X105274Y98569D01*
X105750Y99717D01*
Y100200D01*
X106000Y100344D01*
X107020Y100590D01*
X107683Y99927D01*
X108831Y99451D01*
X110074D01*
X111222Y99927D01*
X112101Y100806D01*
X112577Y101954D01*
Y103197D01*
X112101Y104345D01*
X111222Y105224D01*
X110074Y105700D01*
D02*
G37*
G36*
X203455Y106124D02*
X202212D01*
X201064Y105649D01*
X200185Y104770D01*
X199709Y103621D01*
Y102379D01*
X200185Y101230D01*
X201064Y100351D01*
X202212Y99876D01*
X203455D01*
X204603Y100351D01*
X205482Y101230D01*
X205958Y102379D01*
Y103621D01*
X205482Y104770D01*
X204603Y105649D01*
X203455Y106124D01*
D02*
G37*
G36*
X130611Y102124D02*
X129368D01*
X128220Y101649D01*
X127341Y100770D01*
X126868Y99628D01*
X126841Y99617D01*
X125595Y99382D01*
X125346Y99984D01*
X124467Y100863D01*
X123319Y101338D01*
X122076D01*
X120927Y100863D01*
X120049Y99984D01*
X119573Y98836D01*
Y97593D01*
X120049Y96444D01*
X120927Y95566D01*
X122076Y95090D01*
X123319D01*
X124467Y95566D01*
X125346Y96444D01*
X125819Y97586D01*
X125845Y97597D01*
X127091Y97833D01*
X127341Y97230D01*
X128220Y96351D01*
X129368Y95876D01*
X130611D01*
X131759Y96351D01*
X132638Y97230D01*
X133114Y98379D01*
Y99621D01*
X132638Y100770D01*
X131759Y101649D01*
X130611Y102124D01*
D02*
G37*
G36*
X166465Y110092D02*
X165222D01*
X164074Y109617D01*
X163195Y108738D01*
X162719Y107589D01*
Y106347D01*
X163151Y105304D01*
X162847Y104722D01*
X162402Y104196D01*
X161265D01*
X160117Y103720D01*
X159238Y102841D01*
X158762Y101693D01*
Y100450D01*
X159238Y99302D01*
X160117Y98423D01*
X161265Y97947D01*
X162508D01*
X163656Y98423D01*
X164535Y99302D01*
X165010Y100450D01*
Y101693D01*
X164942Y101858D01*
X165177Y102593D01*
X165715Y103114D01*
X166626Y102621D01*
Y101379D01*
X167101Y100230D01*
X167980Y99351D01*
X169129Y98876D01*
X170371D01*
X171520Y99351D01*
X171710Y99542D01*
X172175Y99493D01*
X173095Y99131D01*
X173456Y98261D01*
X174335Y97382D01*
X175483Y96907D01*
X176726D01*
X177874Y97382D01*
X178138Y97647D01*
X179636Y97349D01*
X179677Y97251D01*
X180556Y96372D01*
X181704Y95896D01*
X182947D01*
X184095Y96372D01*
X184974Y97251D01*
X185450Y98399D01*
Y99642D01*
X184974Y100790D01*
X184095Y101669D01*
X182947Y102145D01*
X181704D01*
X180556Y101669D01*
X180292Y101405D01*
X178793Y101703D01*
X178753Y101801D01*
X177874Y102680D01*
X176726Y103155D01*
X175483D01*
X174335Y102680D01*
X174144Y102489D01*
X173679Y102538D01*
X172759Y102900D01*
X172399Y103770D01*
X171520Y104649D01*
X170371Y105124D01*
X169836D01*
X168958Y106324D01*
X168968Y106347D01*
Y107589D01*
X168492Y108738D01*
X167613Y109617D01*
X166465Y110092D01*
D02*
G37*
G36*
X27122Y99124D02*
X25879D01*
X24730Y98649D01*
X23851Y97770D01*
X23376Y96621D01*
Y95379D01*
X23851Y94230D01*
X24730Y93351D01*
X25879Y92876D01*
X27122D01*
X28270Y93351D01*
X29149Y94230D01*
X29624Y95379D01*
Y96621D01*
X29149Y97770D01*
X28270Y98649D01*
X27122Y99124D01*
D02*
G37*
G36*
X56621Y100124D02*
X55379D01*
X54230Y99649D01*
X53351Y98770D01*
X52876Y97621D01*
Y96379D01*
X53351Y95230D01*
X54230Y94351D01*
X55379Y93876D01*
X56621D01*
X57639Y94297D01*
X57875Y94313D01*
X59086Y93871D01*
X59351Y93230D01*
X60230Y92351D01*
X61379Y91876D01*
X62621D01*
X63770Y92351D01*
X64649Y93230D01*
X65124Y94379D01*
Y95621D01*
X64649Y96770D01*
X63770Y97649D01*
X62621Y98124D01*
X61379D01*
X60361Y97703D01*
X60125Y97687D01*
X58914Y98128D01*
X58649Y98770D01*
X57770Y99649D01*
X56621Y100124D01*
D02*
G37*
G36*
X237495Y83124D02*
X236252D01*
X235103Y82649D01*
X234225Y81770D01*
X233749Y80621D01*
Y79379D01*
X234225Y78230D01*
X235103Y77351D01*
X236252Y76876D01*
X237495D01*
X238643Y77351D01*
X239522Y78230D01*
X239997Y79379D01*
Y80621D01*
X239522Y81770D01*
X238643Y82649D01*
X237495Y83124D01*
D02*
G37*
G36*
X44621Y65124D02*
X43379D01*
X42230Y64649D01*
X41351Y63770D01*
X41187Y63374D01*
X39813D01*
X39649Y63770D01*
X38770Y64649D01*
X37621Y65124D01*
X36379D01*
X35230Y64649D01*
X34351Y63770D01*
X33876Y62621D01*
Y61379D01*
X34351Y60230D01*
X35230Y59351D01*
X36379Y58876D01*
X37621D01*
X38770Y59351D01*
X39649Y60230D01*
X39813Y60626D01*
X41187D01*
X41351Y60230D01*
X42230Y59351D01*
X43379Y58876D01*
X44621D01*
X45770Y59351D01*
X46649Y60230D01*
X47124Y61379D01*
Y62621D01*
X46649Y63770D01*
X45770Y64649D01*
X44621Y65124D01*
D02*
G37*
G36*
X307621Y64124D02*
X306379D01*
X305230Y63649D01*
X304351Y62770D01*
X303876Y61621D01*
Y60379D01*
X304351Y59230D01*
X305230Y58351D01*
X306379Y57876D01*
X307621D01*
X308770Y58351D01*
X309649Y59230D01*
X310124Y60379D01*
Y61621D01*
X309649Y62770D01*
X308770Y63649D01*
X307621Y64124D01*
D02*
G37*
G36*
X290621Y63124D02*
X289379D01*
X288230Y62649D01*
X287351Y61770D01*
X286876Y60621D01*
Y59379D01*
X287351Y58230D01*
X288230Y57351D01*
X289379Y56876D01*
X290621D01*
X291770Y57351D01*
X292649Y58230D01*
X293124Y59379D01*
Y60621D01*
X292649Y61770D01*
X291770Y62649D01*
X290621Y63124D01*
D02*
G37*
G36*
X268621Y62124D02*
X267379D01*
X266230Y61649D01*
X265351Y60770D01*
X264876Y59621D01*
Y58379D01*
X265351Y57230D01*
X266230Y56351D01*
X267379Y55876D01*
X268621D01*
X269770Y56351D01*
X270649Y57230D01*
X271124Y58379D01*
Y59621D01*
X270649Y60770D01*
X269770Y61649D01*
X268621Y62124D01*
D02*
G37*
G36*
X242621Y60124D02*
X241379D01*
X240230Y59649D01*
X239351Y58770D01*
X238876Y57621D01*
Y56379D01*
X239351Y55230D01*
X240230Y54351D01*
X241379Y53876D01*
X242621D01*
X243770Y54351D01*
X244649Y55230D01*
X245124Y56379D01*
Y57621D01*
X244649Y58770D01*
X243770Y59649D01*
X242621Y60124D01*
D02*
G37*
G36*
X290401Y53328D02*
X288892D01*
X288880Y53326D01*
X288868Y53328D01*
X288425Y53325D01*
X286939D01*
X286545Y53247D01*
X286143D01*
X283210Y52663D01*
X282838Y52510D01*
X282445Y52431D01*
X279681Y51287D01*
X279347Y51063D01*
X278976Y50910D01*
X276489Y49248D01*
X276205Y48964D01*
X275871Y48741D01*
X273756Y46626D01*
X273533Y46292D01*
X273249Y46008D01*
X271588Y43521D01*
X271434Y43150D01*
X271211Y42816D01*
X270066Y40053D01*
X269988Y39659D01*
X269834Y39288D01*
X269251Y36354D01*
Y35953D01*
X269172Y35559D01*
Y32209D01*
X269251Y31815D01*
Y31414D01*
X269846Y28422D01*
X269999Y28051D01*
X270078Y27657D01*
X271245Y24839D01*
X271468Y24505D01*
X271622Y24134D01*
X273316Y21598D01*
X273600Y21314D01*
X273824Y20980D01*
X275980Y18823D01*
X276314Y18600D01*
X276598Y18316D01*
X279135Y16621D01*
X279506Y16467D01*
X279840Y16244D01*
X282658Y15077D01*
X283051Y14999D01*
X283423Y14845D01*
X286414Y14250D01*
X286816D01*
X287210Y14172D01*
X291199D01*
X291593Y14250D01*
X291994D01*
X294783Y14805D01*
X295155Y14958D01*
X295549Y15037D01*
X298176Y16125D01*
X298510Y16348D01*
X298881Y16502D01*
X301245Y18082D01*
X301530Y18366D01*
X301864Y18589D01*
X303874Y20600D01*
X304098Y20934D01*
X304382Y21218D01*
X305961Y23582D01*
X306115Y23954D01*
X306338Y24288D01*
X307427Y26915D01*
X307505Y27309D01*
X307659Y27680D01*
X308214Y30469D01*
Y30871D01*
X308292Y31265D01*
Y35436D01*
X308214Y35830D01*
Y36232D01*
X307625Y39192D01*
X307471Y39563D01*
X307393Y39957D01*
X306238Y42746D01*
X306014Y43080D01*
X305861Y43451D01*
X304184Y45960D01*
X303900Y46245D01*
X303677Y46578D01*
X301543Y48713D01*
X301209Y48936D01*
X300924Y49220D01*
X298415Y50897D01*
X298044Y51050D01*
X297710Y51274D01*
X294921Y52429D01*
X294527Y52507D01*
X294156Y52661D01*
X291196Y53250D01*
X290795D01*
X290401Y53328D01*
D02*
G37*
G36*
X30401D02*
X28891D01*
X28880Y53326D01*
X28868Y53328D01*
X28425Y53325D01*
X26939D01*
X26545Y53247D01*
X26143D01*
X23210Y52663D01*
X22838Y52510D01*
X22445Y52431D01*
X19681Y51287D01*
X19347Y51063D01*
X18976Y50910D01*
X16489Y49248D01*
X16205Y48964D01*
X15871Y48741D01*
X13756Y46626D01*
X13533Y46292D01*
X13249Y46008D01*
X11588Y43521D01*
X11434Y43150D01*
X11211Y42816D01*
X10066Y40053D01*
X9988Y39659D01*
X9834Y39288D01*
X9251Y36354D01*
Y35953D01*
X9172Y35559D01*
Y32209D01*
X9251Y31815D01*
Y31414D01*
X9846Y28422D01*
X9999Y28051D01*
X10078Y27657D01*
X11245Y24839D01*
X11468Y24505D01*
X11622Y24134D01*
X13316Y21598D01*
X13600Y21314D01*
X13824Y20980D01*
X15980Y18823D01*
X16314Y18600D01*
X16598Y18316D01*
X19135Y16621D01*
X19506Y16467D01*
X19840Y16244D01*
X22658Y15077D01*
X23052Y14999D01*
X23423Y14845D01*
X26414Y14250D01*
X26816D01*
X27210Y14172D01*
X31199D01*
X31593Y14250D01*
X31994D01*
X34783Y14805D01*
X35155Y14958D01*
X35549Y15037D01*
X38176Y16125D01*
X38510Y16348D01*
X38881Y16502D01*
X41245Y18082D01*
X41530Y18366D01*
X41863Y18589D01*
X43874Y20600D01*
X44098Y20934D01*
X44382Y21218D01*
X45961Y23582D01*
X46115Y23954D01*
X46338Y24288D01*
X47427Y26915D01*
X47505Y27309D01*
X47659Y27680D01*
X48214Y30469D01*
Y30871D01*
X48292Y31265D01*
Y35436D01*
X48214Y35830D01*
Y36232D01*
X47625Y39192D01*
X47471Y39563D01*
X47393Y39957D01*
X46238Y42746D01*
X46014Y43080D01*
X45861Y43451D01*
X44184Y45960D01*
X43900Y46245D01*
X43677Y46578D01*
X41543Y48713D01*
X41209Y48936D01*
X40925Y49220D01*
X38415Y50897D01*
X38044Y51050D01*
X37710Y51274D01*
X34922Y52429D01*
X34527Y52507D01*
X34156Y52661D01*
X31196Y53250D01*
X30794D01*
X30401Y53328D01*
D02*
G37*
G36*
X251372Y59374D02*
X250129D01*
X248981Y58898D01*
X248102Y58019D01*
X247626Y56871D01*
Y55628D01*
X248102Y54480D01*
X248981Y53601D01*
X250129Y53126D01*
X251372D01*
X252520Y53601D01*
X253399Y54480D01*
X253874Y55628D01*
Y56871D01*
X253399Y58019D01*
X252520Y58898D01*
X251372Y59374D01*
D02*
G37*
G36*
X259872Y59124D02*
X258629D01*
X257480Y58649D01*
X256602Y57770D01*
X256126Y56621D01*
Y55379D01*
X256602Y54230D01*
X257480Y53351D01*
X258629Y52876D01*
X259872D01*
X261020Y53351D01*
X261899Y54230D01*
X262374Y55379D01*
Y56621D01*
X261899Y57770D01*
X261020Y58649D01*
X259872Y59124D01*
D02*
G37*
G36*
X58121Y59000D02*
X56879D01*
X55730Y58524D01*
X54851Y57646D01*
X54376Y56497D01*
Y55254D01*
X54851Y54106D01*
X55730Y53227D01*
X56879Y52752D01*
X58121D01*
X59270Y53227D01*
X60149Y54106D01*
X60624Y55254D01*
Y56497D01*
X60149Y57646D01*
X59270Y58524D01*
X58121Y59000D01*
D02*
G37*
G36*
X213487Y65017D02*
X211633D01*
X209842Y64537D01*
X208236Y63610D01*
X206925Y62298D01*
X205998Y60693D01*
X205518Y58902D01*
Y57047D01*
X205998Y55256D01*
X206925Y53650D01*
X208236Y52339D01*
X209842Y51412D01*
X211633Y50932D01*
X213487D01*
X215278Y51412D01*
X216884Y52339D01*
X218195Y53650D01*
X219122Y55256D01*
X219602Y57047D01*
Y58902D01*
X219122Y60693D01*
X218195Y62298D01*
X216884Y63610D01*
X215278Y64537D01*
X213487Y65017D01*
D02*
G37*
G36*
X93487D02*
X91633D01*
X89842Y64537D01*
X88236Y63610D01*
X86925Y62298D01*
X85998Y60693D01*
X85518Y58902D01*
Y57047D01*
X85998Y55256D01*
X86925Y53650D01*
X88236Y52339D01*
X89842Y51412D01*
X91633Y50932D01*
X93487D01*
X95278Y51412D01*
X96884Y52339D01*
X98195Y53650D01*
X99122Y55256D01*
X99602Y57047D01*
Y58902D01*
X99122Y60693D01*
X98195Y62298D01*
X96884Y63610D01*
X95278Y64537D01*
X93487Y65017D01*
D02*
G37*
G36*
X64621Y49124D02*
X63379D01*
X62230Y48649D01*
X61351Y47770D01*
X60876Y46621D01*
Y45379D01*
X61351Y44230D01*
X62230Y43351D01*
X63379Y42876D01*
X64621D01*
X65770Y43351D01*
X66649Y44230D01*
X67124Y45379D01*
Y46621D01*
X66649Y47770D01*
X65770Y48649D01*
X64621Y49124D01*
D02*
G37*
G36*
X242621Y26380D02*
X241379D01*
X240230Y25904D01*
X239352Y25025D01*
X238876Y23877D01*
Y22634D01*
X239352Y21486D01*
X240230Y20607D01*
X241379Y20131D01*
X242621D01*
X243770Y20607D01*
X244649Y21486D01*
X245124Y22634D01*
Y23877D01*
X244649Y25025D01*
X243770Y25904D01*
X242621Y26380D01*
D02*
G37*
G36*
X81114Y18140D02*
X79871D01*
X78723Y17665D01*
X78031Y16973D01*
X77288Y16866D01*
X76546Y16973D01*
X75855Y17665D01*
X74706Y18140D01*
X73463D01*
X72315Y17665D01*
X71436Y16786D01*
X70960Y15638D01*
Y14395D01*
X71436Y13246D01*
X72315Y12368D01*
X73463Y11892D01*
X74706D01*
X75855Y12368D01*
X76546Y13060D01*
X77288Y13166D01*
X78031Y13060D01*
X78723Y12368D01*
X79871Y11892D01*
X81114D01*
X82262Y12368D01*
X82882Y12988D01*
X83674Y13133D01*
X84404Y12978D01*
X85038Y12343D01*
X86187Y11868D01*
X87430D01*
X88578Y12343D01*
X89457Y13222D01*
X89932Y14370D01*
Y15613D01*
X89457Y16762D01*
X88578Y17641D01*
X87430Y18116D01*
X86187D01*
X85038Y17641D01*
X84418Y17020D01*
X83627Y16875D01*
X82896Y17030D01*
X82262Y17665D01*
X81114Y18140D01*
D02*
G37*
G36*
X166621Y16124D02*
X165379D01*
X164230Y15649D01*
X163351Y14770D01*
X163187Y14374D01*
X161813D01*
X161649Y14770D01*
X160770Y15649D01*
X159621Y16124D01*
X158379D01*
X157230Y15649D01*
X156351Y14770D01*
X156187Y14374D01*
X154813D01*
X154649Y14770D01*
X153770Y15649D01*
X152621Y16124D01*
X151379D01*
X150230Y15649D01*
X149351Y14770D01*
X148876Y13621D01*
Y12379D01*
X149351Y11230D01*
X150230Y10351D01*
X151379Y9876D01*
X152621D01*
X153770Y10351D01*
X154649Y11230D01*
X154813Y11626D01*
X156187D01*
X156351Y11230D01*
X157230Y10351D01*
X158379Y9876D01*
X159621D01*
X160770Y10351D01*
X161649Y11230D01*
X161813Y11626D01*
X163187D01*
X163351Y11230D01*
X164230Y10351D01*
X165379Y9876D01*
X166621D01*
X167770Y10351D01*
X168649Y11230D01*
X169124Y12379D01*
Y13621D01*
X168649Y14770D01*
X167770Y15649D01*
X166621Y16124D01*
D02*
G37*
G36*
X134000Y20124D02*
X132757D01*
X131609Y19649D01*
X130730Y18770D01*
X130254Y17621D01*
Y16379D01*
X130730Y15230D01*
X131609Y14351D01*
X132757Y13876D01*
X134000D01*
X135148Y14351D01*
X136027Y15230D01*
X136503Y16379D01*
Y17621D01*
X136027Y18770D01*
X135148Y19649D01*
X134000Y20124D01*
D02*
G37*
G36*
X196232Y19231D02*
X194990D01*
X193841Y18756D01*
X192962Y17877D01*
X192487Y16728D01*
Y15486D01*
X192962Y14337D01*
X193841Y13458D01*
X194990Y12983D01*
X196232D01*
X197381Y13458D01*
X198260Y14337D01*
X198735Y15486D01*
Y16728D01*
X198260Y17877D01*
X197381Y18756D01*
X196232Y19231D01*
D02*
G37*
G36*
X174621Y19124D02*
X173379D01*
X172230Y18649D01*
X171351Y17770D01*
X170876Y16621D01*
Y15379D01*
X171351Y14230D01*
X172230Y13351D01*
X173379Y12876D01*
X174621D01*
X175770Y13351D01*
X176649Y14230D01*
X177124Y15379D01*
Y16621D01*
X176649Y17770D01*
X175770Y18649D01*
X174621Y19124D01*
D02*
G37*
G36*
X143621Y18124D02*
X142379D01*
X141230Y17649D01*
X140351Y16770D01*
X139876Y15621D01*
Y14379D01*
X140351Y13230D01*
X141230Y12351D01*
X142379Y11876D01*
X143621D01*
X144770Y12351D01*
X145649Y13230D01*
X146124Y14379D01*
Y15621D01*
X145649Y16770D01*
X144770Y17649D01*
X143621Y18124D01*
D02*
G37*
G36*
X124871Y16374D02*
X123629D01*
X122480Y15898D01*
X121601Y15020D01*
X121126Y13871D01*
Y12629D01*
X121601Y11480D01*
X122480Y10601D01*
X123629Y10126D01*
X124871D01*
X126020Y10601D01*
X126898Y11480D01*
X127374Y12629D01*
Y13871D01*
X126898Y15020D01*
X126020Y15898D01*
X124871Y16374D01*
D02*
G37*
G36*
X187621Y15862D02*
X186379D01*
X185230Y15386D01*
X184351Y14507D01*
X183876Y13359D01*
Y12116D01*
X184351Y10968D01*
X185230Y10089D01*
X186379Y9613D01*
X187621D01*
X188770Y10089D01*
X189649Y10968D01*
X190124Y12116D01*
Y13359D01*
X189649Y14507D01*
X188770Y15386D01*
X187621Y15862D01*
D02*
G37*
G36*
X102442Y15603D02*
X101200D01*
X100051Y15127D01*
X99172Y14248D01*
X98697Y13100D01*
Y11857D01*
X99172Y10709D01*
X100051Y9830D01*
X101200Y9355D01*
X102442D01*
X103591Y9830D01*
X104470Y10709D01*
X104945Y11857D01*
Y13100D01*
X104470Y14248D01*
X103591Y15127D01*
X102442Y15603D01*
D02*
G37*
G36*
X203181Y14445D02*
X201938D01*
X200790Y13969D01*
X199911Y13090D01*
X199436Y11942D01*
Y10699D01*
X199911Y9551D01*
X200790Y8672D01*
X201938Y8196D01*
X203181D01*
X204330Y8672D01*
X205208Y9551D01*
X205684Y10699D01*
Y11942D01*
X205208Y13090D01*
X204330Y13969D01*
X203181Y14445D01*
D02*
G37*
G36*
X219621Y14124D02*
X218379D01*
X217230Y13649D01*
X216351Y12770D01*
X215876Y11621D01*
Y10379D01*
X216351Y9230D01*
X217230Y8351D01*
X218379Y7876D01*
X219621D01*
X220770Y8351D01*
X221649Y9230D01*
X222124Y10379D01*
Y11621D01*
X221649Y12770D01*
X220770Y13649D01*
X219621Y14124D01*
D02*
G37*
%LPD*%
D127*
X212560Y57975D02*
D03*
X92560D02*
D03*
D144*
X53500Y116000D02*
D03*
Y166000D02*
D03*
D145*
X102614Y268500D02*
D03*
X92614D02*
D03*
X101486Y275878D02*
D03*
X97738Y271187D02*
D03*
X87462D02*
D03*
X81948Y268731D02*
D03*
X89400Y150500D02*
D03*
X84000Y161000D02*
D03*
X97500Y179482D02*
D03*
X79000Y105805D02*
D03*
X81000Y235000D02*
D03*
X48142Y229500D02*
D03*
X78000Y227000D02*
D03*
X81000Y244000D02*
D03*
X311477Y432740D02*
D03*
X311477Y442215D02*
D03*
X311476Y452711D02*
D03*
X311476Y463520D02*
D03*
X311352Y471794D02*
D03*
X311475Y482069D02*
D03*
X311475Y489720D02*
D03*
X311219Y500929D02*
D03*
X311474Y509960D02*
D03*
X311352Y519879D02*
D03*
X311397Y528686D02*
D03*
X311473Y539673D02*
D03*
X311421Y594557D02*
D03*
X311166Y584647D02*
D03*
X299199Y281199D02*
D03*
X311486Y192484D02*
D03*
X294240Y196001D02*
D03*
X6032Y218000D02*
D03*
X293358Y289952D02*
D03*
X296300Y295393D02*
D03*
X18529Y407214D02*
D03*
X28105Y395274D02*
D03*
X234802Y598053D02*
D03*
X165844Y106968D02*
D03*
X155757Y336689D02*
D03*
X160177Y340447D02*
D03*
X311470Y607293D02*
D03*
X224250Y617821D02*
D03*
X214785Y627042D02*
D03*
X254471Y313416D02*
D03*
X257578Y329353D02*
D03*
X108408Y447870D02*
D03*
X57500Y55876D02*
D03*
X285230Y344181D02*
D03*
X177000Y579000D02*
D03*
X236722Y314936D02*
D03*
X209650Y302954D02*
D03*
X203572Y305599D02*
D03*
X207031Y377625D02*
D03*
X208814Y363153D02*
D03*
X206531Y371882D02*
D03*
X202135Y359080D02*
D03*
X19631Y388821D02*
D03*
Y383136D02*
D03*
X174896Y365854D02*
D03*
X181756D02*
D03*
X170299Y327614D02*
D03*
X164000Y327993D02*
D03*
X170299Y321752D02*
D03*
X158385Y410043D02*
D03*
X157646Y446036D02*
D03*
X142000Y135823D02*
D03*
X135730Y224841D02*
D03*
X139484Y229500D02*
D03*
X117614Y186720D02*
D03*
X111352Y186790D02*
D03*
X117189Y268573D02*
D03*
X123177Y266950D02*
D03*
X114664Y273673D02*
D03*
X102079Y281497D02*
D03*
X107387Y279000D02*
D03*
X106892Y273463D02*
D03*
X71500Y268731D02*
D03*
X76500Y271255D02*
D03*
X65826Y270617D02*
D03*
X62754Y275974D02*
D03*
X49597Y245850D02*
D03*
X46750Y241000D02*
D03*
X46373Y220014D02*
D03*
X50732Y224259D02*
D03*
X48786Y209622D02*
D03*
X45174Y214500D02*
D03*
X34693Y256839D02*
D03*
X33854Y250354D02*
D03*
X297331Y253736D02*
D03*
X297273Y266257D02*
D03*
X296912Y232750D02*
D03*
X286886Y304874D02*
D03*
X288198Y298248D02*
D03*
X267105Y302260D02*
D03*
X23552Y190876D02*
D03*
X257786Y307310D02*
D03*
X273908Y302000D02*
D03*
X144821Y579551D02*
D03*
X125148Y598510D02*
D03*
X266000Y636000D02*
D03*
X292000Y662000D02*
D03*
X305000Y658000D02*
D03*
X310000Y649000D02*
D03*
X311000Y638000D02*
D03*
X267000Y629000D02*
D03*
X222000Y502500D02*
D03*
Y511000D02*
D03*
Y519869D02*
D03*
X217992Y474939D02*
D03*
X222000Y494000D02*
D03*
Y527647D02*
D03*
X122627Y291373D02*
D03*
X122574Y284729D02*
D03*
X188535Y199782D02*
D03*
X311485Y238488D02*
D03*
X182810Y6961D02*
D03*
X194990D02*
D03*
X187000Y12738D02*
D03*
X195611Y16107D02*
D03*
X155754Y273228D02*
D03*
Y266963D02*
D03*
X180000Y571000D02*
D03*
X8823Y298000D02*
D03*
X140357Y255284D02*
D03*
X191952Y119448D02*
D03*
X142000Y130000D02*
D03*
X186000Y103750D02*
D03*
X191952Y126390D02*
D03*
X9550Y278000D02*
D03*
X35000Y315000D02*
D03*
X208099Y357007D02*
D03*
X202135Y368001D02*
D03*
X230516Y316394D02*
D03*
X223770Y309770D02*
D03*
X215142Y316645D02*
D03*
X216844Y304000D02*
D03*
X222000D02*
D03*
X90801Y291986D02*
D03*
X311480Y360250D02*
D03*
X309877Y388987D02*
D03*
X87394Y452546D02*
D03*
X46000Y339000D02*
D03*
X171549Y339205D02*
D03*
X149823Y339147D02*
D03*
X156368Y403087D02*
D03*
X157763Y416505D02*
D03*
X150700Y445000D02*
D03*
X211091Y341413D02*
D03*
X185854Y369677D02*
D03*
X305000Y395000D02*
D03*
X155754Y284000D02*
D03*
X200187Y397146D02*
D03*
X188893Y457000D02*
D03*
X189000Y448000D02*
D03*
X123000Y395000D02*
D03*
X197882Y297965D02*
D03*
X190000Y295000D02*
D03*
X189177Y210765D02*
D03*
X181013Y230313D02*
D03*
X180890Y203908D02*
D03*
X187000Y191000D02*
D03*
X148272Y257251D02*
D03*
X262104Y195000D02*
D03*
X311483Y281392D02*
D03*
X302658Y289848D02*
D03*
X302505Y300000D02*
D03*
X153071Y193932D02*
D03*
X161759Y193860D02*
D03*
X115144Y299283D02*
D03*
X241000Y625000D02*
D03*
X219000Y649000D02*
D03*
X251000Y557000D02*
D03*
X248000Y544000D02*
D03*
Y566000D02*
D03*
X249000Y575000D02*
D03*
X253000Y582464D02*
D03*
X98000Y553000D02*
D03*
X106513Y453570D02*
D03*
X131260Y387000D02*
D03*
X124515Y386506D02*
D03*
X139558Y347023D02*
D03*
X139344Y338657D02*
D03*
X6032Y404049D02*
D03*
X16177Y414232D02*
D03*
X15808Y396000D02*
D03*
X51998Y214500D02*
D03*
X83204Y309771D02*
D03*
X91000Y300000D02*
D03*
X118984Y315630D02*
D03*
X278000Y335000D02*
D03*
X67000Y307772D02*
D03*
X181000Y277357D02*
D03*
X130000Y280058D02*
D03*
X95914Y438590D02*
D03*
X98018Y446101D02*
D03*
X88654Y458361D02*
D03*
X82854Y397000D02*
D03*
X74000Y498270D02*
D03*
X133379Y17000D02*
D03*
X38823Y238000D02*
D03*
X131330Y338000D02*
D03*
X123309D02*
D03*
X52814Y291105D02*
D03*
X171000Y193000D02*
D03*
X172085Y296575D02*
D03*
X27355Y315384D02*
D03*
X214000Y180000D02*
D03*
X161886Y101072D02*
D03*
X126643Y306829D02*
D03*
X126629Y314994D02*
D03*
X59000Y301000D02*
D03*
X59436Y290532D02*
D03*
X75000Y300000D02*
D03*
X52984Y299277D02*
D03*
X54962Y282515D02*
D03*
X25932Y185434D02*
D03*
X204000Y126000D02*
D03*
X211000Y106000D02*
D03*
X169750Y102000D02*
D03*
X296710Y246216D02*
D03*
X296912Y239732D02*
D03*
X304016Y264000D02*
D03*
X50778Y394779D02*
D03*
X43621Y395622D02*
D03*
X33177Y189000D02*
D03*
X152000Y13000D02*
D03*
X159000D02*
D03*
X166000D02*
D03*
X243165Y570000D02*
D03*
X37000Y62000D02*
D03*
X44000D02*
D03*
X7000Y93500D02*
D03*
X8000Y74379D02*
D03*
Y81000D02*
D03*
X26500Y96000D02*
D03*
X56000Y97000D02*
D03*
X62000Y95000D02*
D03*
X6230Y197000D02*
D03*
X6421Y211012D02*
D03*
X13000Y187000D02*
D03*
X219462Y126000D02*
D03*
X267000Y125833D02*
D03*
X233000Y117000D02*
D03*
X308000Y140000D02*
D03*
X174000Y16000D02*
D03*
X122000Y119000D02*
D03*
X121058Y109977D02*
D03*
X86808Y14992D02*
D03*
X80492Y15016D02*
D03*
X74085D02*
D03*
X143000Y15000D02*
D03*
X124250Y13250D02*
D03*
X101821Y12479D02*
D03*
X301000Y55000D02*
D03*
X290000Y60000D02*
D03*
X250750Y56250D02*
D03*
X251000Y35000D02*
D03*
X242000Y57000D02*
D03*
X242000Y23256D02*
D03*
X219000Y11000D02*
D03*
X202560Y11321D02*
D03*
X241223Y132000D02*
D03*
X248000D02*
D03*
X241000Y161646D02*
D03*
X249000Y161000D02*
D03*
X308000Y164500D02*
D03*
X247000Y142625D02*
D03*
Y151375D02*
D03*
X86500Y139000D02*
D03*
Y145250D02*
D03*
X196019Y359000D02*
D03*
X192000Y346000D02*
D03*
X93000Y423000D02*
D03*
X103177Y299795D02*
D03*
X68000Y62000D02*
D03*
Y95000D02*
D03*
X64000Y46000D02*
D03*
X8000Y148000D02*
D03*
Y156000D02*
D03*
X12000Y125000D02*
D03*
Y134000D02*
D03*
X83000Y153000D02*
D03*
X78250Y157000D02*
D03*
X63850Y128000D02*
D03*
X236873Y80000D02*
D03*
X232000Y109000D02*
D03*
X246000Y584506D02*
D03*
X204907Y570000D02*
D03*
X201000Y579000D02*
D03*
X202130Y629000D02*
D03*
X288000Y599000D02*
D03*
X287000Y590000D02*
D03*
X285000Y580500D02*
D03*
X284000Y568000D02*
D03*
Y558000D02*
D03*
Y548000D02*
D03*
X288000Y538000D02*
D03*
X297000Y533000D02*
D03*
Y524000D02*
D03*
Y515115D02*
D03*
Y506750D02*
D03*
Y498250D02*
D03*
X310000Y629288D02*
D03*
X311000Y575825D02*
D03*
Y569517D02*
D03*
X264000Y447000D02*
D03*
X301000Y400695D02*
D03*
X308000Y409000D02*
D03*
X311000Y421000D02*
D03*
X225000Y533863D02*
D03*
X257000Y455000D02*
D03*
X258000Y471000D02*
D03*
Y481000D02*
D03*
Y489000D02*
D03*
X255000Y509000D02*
D03*
X251000Y516464D02*
D03*
Y524000D02*
D03*
Y532000D02*
D03*
X254000Y499000D02*
D03*
X255000Y464000D02*
D03*
X250476Y441000D02*
D03*
X275000Y448000D02*
D03*
X276000Y457000D02*
D03*
X277000Y466000D02*
D03*
Y474000D02*
D03*
Y482000D02*
D03*
Y489000D02*
D03*
X297000Y490000D02*
D03*
Y483000D02*
D03*
Y475000D02*
D03*
Y466000D02*
D03*
Y457000D02*
D03*
Y448000D02*
D03*
X292000Y437000D02*
D03*
X286000Y428000D02*
D03*
X277000Y422000D02*
D03*
X252000Y429000D02*
D03*
X241000Y427000D02*
D03*
X235000Y421000D02*
D03*
X220000Y425000D02*
D03*
X200000Y532000D02*
D03*
X196000Y523000D02*
D03*
X195000Y513000D02*
D03*
Y504564D02*
D03*
X194000Y487000D02*
D03*
Y477000D02*
D03*
X192906Y467604D02*
D03*
X211000Y406000D02*
D03*
X207000Y414000D02*
D03*
Y422000D02*
D03*
X205970Y431000D02*
D03*
X212983Y460983D02*
D03*
X27204Y285771D02*
D03*
X28000Y299000D02*
D03*
X296273Y389000D02*
D03*
X206725Y383725D02*
D03*
X206000Y390225D02*
D03*
X141123Y154022D02*
D03*
X143000Y162750D02*
D03*
X162371Y164821D02*
D03*
X156000Y186114D02*
D03*
X173000Y187000D02*
D03*
X183000Y162271D02*
D03*
X184000Y154500D02*
D03*
X181000Y132000D02*
D03*
X171267Y130623D02*
D03*
X162377Y131205D02*
D03*
X154274Y129771D02*
D03*
X66000Y134339D02*
D03*
X79000Y146000D02*
D03*
X70024Y139024D02*
D03*
X73670Y142670D02*
D03*
X259250Y56000D02*
D03*
X268000Y59000D02*
D03*
X307000Y61000D02*
D03*
X308000Y126000D02*
D03*
X291600Y125000D02*
D03*
X275607Y125833D02*
D03*
X201177Y343500D02*
D03*
X211091Y333400D02*
D03*
Y326500D02*
D03*
X202391Y315231D02*
D03*
X190000Y315032D02*
D03*
X182277Y345000D02*
D03*
X71500Y186399D02*
D03*
X81864Y180823D02*
D03*
X172085Y290000D02*
D03*
Y281000D02*
D03*
X162990Y209673D02*
D03*
X182203Y289797D02*
D03*
X35204Y339000D02*
D03*
X35000Y355000D02*
D03*
X26708Y355445D02*
D03*
X35000Y283000D02*
D03*
X17311Y308000D02*
D03*
X27718Y236931D02*
D03*
X152000Y215000D02*
D03*
X169177Y308000D02*
D03*
X121500Y179152D02*
D03*
X192000Y391000D02*
D03*
X18000Y350409D02*
D03*
X95000Y249000D02*
D03*
X115500Y250180D02*
D03*
X110000Y232000D02*
D03*
X111000Y218000D02*
D03*
X109250Y204000D02*
D03*
X90000D02*
D03*
X78000Y214000D02*
D03*
X76556Y183489D02*
D03*
X83068Y387634D02*
D03*
X76823Y395000D02*
D03*
X106204Y403000D02*
D03*
X76000Y410856D02*
D03*
X18500Y237000D02*
D03*
X202833Y103000D02*
D03*
X212000Y308000D02*
D03*
X236170Y301000D02*
D03*
X245079D02*
D03*
X259000Y301638D02*
D03*
X246770Y317000D02*
D03*
X297993Y260007D02*
D03*
X287000Y356000D02*
D03*
X269755Y338174D02*
D03*
X230755Y339551D02*
D03*
X237255Y339306D02*
D03*
X243755Y339857D02*
D03*
X250255Y339485D02*
D03*
X256755Y339502D02*
D03*
X263255Y339369D02*
D03*
X51500Y204500D02*
D03*
X48142Y235250D02*
D03*
X49664Y251840D02*
D03*
X51000Y259000D02*
D03*
X138940Y263000D02*
D03*
X140000Y249500D02*
D03*
X136333Y244500D02*
D03*
X140500Y239500D02*
D03*
X136261Y234500D02*
D03*
X138000Y219500D02*
D03*
X137903Y198000D02*
D03*
X105875Y185469D02*
D03*
X96500Y185500D02*
D03*
X90000Y184000D02*
D03*
X225000Y101000D02*
D03*
X219000D02*
D03*
X8000Y205000D02*
D03*
X219841Y172498D02*
D03*
X218778Y192010D02*
D03*
X205658Y191247D02*
D03*
X234658Y194001D02*
D03*
X197087Y193919D02*
D03*
X212058Y191214D02*
D03*
X245449Y186665D02*
D03*
X241066Y190893D02*
D03*
X235996Y186943D02*
D03*
X257020Y171001D02*
D03*
X282658Y180358D02*
D03*
X280108Y189001D02*
D03*
X267658D02*
D03*
X272078Y194429D02*
D03*
X188811Y224998D02*
D03*
X306258Y235001D02*
D03*
X306449Y212001D02*
D03*
X310221Y215772D02*
D03*
X291556Y177028D02*
D03*
X307162Y182803D02*
D03*
X238295Y169847D02*
D03*
X257158Y188974D02*
D03*
X260658Y243001D02*
D03*
X250658Y253001D02*
D03*
X260658D02*
D03*
X250658Y263001D02*
D03*
X260658D02*
D03*
X250658Y243001D02*
D03*
X260658Y233001D02*
D03*
X250658D02*
D03*
X190825Y265259D02*
D03*
X189908Y275011D02*
D03*
X189033Y280887D02*
D03*
X189534Y230879D02*
D03*
X230658Y253001D02*
D03*
Y263001D02*
D03*
X240658D02*
D03*
Y233001D02*
D03*
Y243001D02*
D03*
X230658D02*
D03*
X240658Y253001D02*
D03*
X230658Y233001D02*
D03*
X148658Y238001D02*
D03*
X186354Y260007D02*
D03*
X180216Y240749D02*
D03*
X186658Y270010D02*
D03*
X154658Y231001D02*
D03*
X250255Y416550D02*
D03*
X243755Y415117D02*
D03*
X263255Y414955D02*
D03*
X256755Y415755D02*
D03*
X101115Y633759D02*
D03*
X139649Y632770D02*
D03*
X100507Y610312D02*
D03*
X27000Y364000D02*
D03*
X105240Y595647D02*
D03*
X98362Y584538D02*
D03*
X75327Y601939D02*
D03*
X79393Y606011D02*
D03*
X58000Y583951D02*
D03*
X69316Y601713D02*
D03*
X132235Y627578D02*
D03*
X102000Y647000D02*
D03*
X104156Y582698D02*
D03*
X100415Y627472D02*
D03*
X107354Y631000D02*
D03*
X62737Y601713D02*
D03*
X129000Y610029D02*
D03*
X99488Y621760D02*
D03*
X57000Y629000D02*
D03*
X101661Y664735D02*
D03*
X127967Y615717D02*
D03*
X162000Y646000D02*
D03*
X169000Y657000D02*
D03*
X153870Y644973D02*
D03*
X24000Y8000D02*
D03*
X33000D02*
D03*
X16337Y579738D02*
D03*
X90555Y417818D02*
D03*
X88489Y503426D02*
D03*
X83532Y507567D02*
D03*
X70621Y460840D02*
D03*
X149822Y461297D02*
D03*
X154793Y464982D02*
D03*
X31832Y514564D02*
D03*
X26226Y508237D02*
D03*
X35007Y592862D02*
D03*
X147000Y548000D02*
D03*
X144000Y539266D02*
D03*
X106407Y544690D02*
D03*
Y551000D02*
D03*
X113000Y575451D02*
D03*
X107000Y570809D02*
D03*
X126000Y554690D02*
D03*
Y562905D02*
D03*
X27516Y432061D02*
D03*
X64200Y469680D02*
D03*
X51000Y482000D02*
D03*
Y491000D02*
D03*
Y503000D02*
D03*
Y511063D02*
D03*
X65000Y497000D02*
D03*
Y507000D02*
D03*
Y516209D02*
D03*
Y524209D02*
D03*
Y531000D02*
D03*
Y539000D02*
D03*
X66312Y544691D02*
D03*
X47000Y571575D02*
D03*
X50000Y562343D02*
D03*
X51000Y519000D02*
D03*
Y526000D02*
D03*
Y534000D02*
D03*
Y544000D02*
D03*
Y552000D02*
D03*
X58000Y578250D02*
D03*
X51379Y583951D02*
D03*
X43000Y592862D02*
D03*
X46415Y597682D02*
D03*
X39060D02*
D03*
X34000Y617500D02*
D03*
X68165Y628000D02*
D03*
X63000Y632000D02*
D03*
X154989Y360919D02*
D03*
X153804Y370105D02*
D03*
X131083Y369650D02*
D03*
X139052Y377865D02*
D03*
X181515Y382888D02*
D03*
X187000Y410000D02*
D03*
X190000Y501000D02*
D03*
X191000Y491663D02*
D03*
X190000Y482513D02*
D03*
X189000Y471982D02*
D03*
X187000Y421301D02*
D03*
Y396000D02*
D03*
Y387037D02*
D03*
X188000Y377790D02*
D03*
X187000Y354534D02*
D03*
X188379Y463231D02*
D03*
X57000Y20000D02*
D03*
X53000Y33927D02*
D03*
X47000Y46000D02*
D03*
X21000Y56000D02*
D03*
X12000Y57000D02*
D03*
X7000Y48000D02*
D03*
Y23000D02*
D03*
Y12525D02*
D03*
X14000Y7000D02*
D03*
X41000D02*
D03*
X50000D02*
D03*
X60000D02*
D03*
X134000Y6398D02*
D03*
X266000Y32972D02*
D03*
X264000Y16000D02*
D03*
X272000Y9000D02*
D03*
X284000Y8000D02*
D03*
X295301Y10000D02*
D03*
X305000Y12000D02*
D03*
X310000Y18000D02*
D03*
X311000Y27000D02*
D03*
Y36000D02*
D03*
Y46245D02*
D03*
X298881Y619000D02*
D03*
X273000Y621468D02*
D03*
X280069Y659482D02*
D03*
X180000Y666000D02*
D03*
X169000D02*
D03*
X31196Y664000D02*
D03*
X18976Y666000D02*
D03*
X16000Y619000D02*
D03*
X43846Y621445D02*
D03*
X49000Y629666D02*
D03*
X37346Y659254D02*
D03*
X25000Y661000D02*
D03*
X16640Y658000D02*
D03*
X7392Y606000D02*
D03*
X7000Y619000D02*
D03*
Y626598D02*
D03*
X6457Y636813D02*
D03*
X7000Y646255D02*
D03*
X8000Y655000D02*
D03*
X67352Y299120D02*
D03*
X155709Y387709D02*
D03*
X147152Y387848D02*
D03*
X147390Y378226D02*
D03*
X178223Y392760D02*
D03*
X103792Y386817D02*
D03*
X28577Y279000D02*
D03*
X131000Y323190D02*
D03*
X174218Y350282D02*
D03*
X181890Y415880D02*
D03*
X123309Y331821D02*
D03*
X131330Y331826D02*
D03*
X93000Y315631D02*
D03*
X39170Y402778D02*
D03*
X123057Y346329D02*
D03*
X138648Y462718D02*
D03*
X81869Y420483D02*
D03*
X164000Y313359D02*
D03*
X35156Y394518D02*
D03*
X39076Y386780D02*
D03*
X27000Y339000D02*
D03*
X161939Y483750D02*
D03*
X139041Y411946D02*
D03*
X114560Y395000D02*
D03*
X123204Y361592D02*
D03*
X139558Y363678D02*
D03*
X68515Y550000D02*
D03*
X131330Y355205D02*
D03*
X43963Y508263D02*
D03*
X129989Y99000D02*
D03*
X167903Y491903D02*
D03*
X74000Y102000D02*
D03*
X177343Y375750D02*
D03*
X151500Y525924D02*
D03*
X109452Y102576D02*
D03*
X188000Y438820D02*
D03*
X179000Y487000D02*
D03*
X35692Y375386D02*
D03*
X19000Y315000D02*
D03*
X136738Y314265D02*
D03*
X120926Y461537D02*
D03*
X145804Y306105D02*
D03*
X124000Y456000D02*
D03*
X82628Y100193D02*
D03*
X70000Y467809D02*
D03*
X115962Y457373D02*
D03*
X182325Y99020D02*
D03*
X122697Y98214D02*
D03*
X102626Y100339D02*
D03*
X46036Y439138D02*
D03*
X48000Y470000D02*
D03*
X20666Y508722D02*
D03*
X27631Y375205D02*
D03*
X19631Y375136D02*
D03*
Y367136D02*
D03*
X51540Y372538D02*
D03*
X31705Y597682D02*
D03*
X100204Y404205D02*
D03*
X165000Y402000D02*
D03*
X123000Y411000D02*
D03*
X139337Y281229D02*
D03*
X19631Y327136D02*
D03*
X90675Y552738D02*
D03*
X36521Y322726D02*
D03*
X141696Y585065D02*
D03*
X103398Y529267D02*
D03*
X89483Y512003D02*
D03*
X91432Y490909D02*
D03*
X41000Y571575D02*
D03*
X156849Y501089D02*
D03*
X161706Y498100D02*
D03*
X31000Y581000D02*
D03*
X34937Y508676D02*
D03*
X59000Y396000D02*
D03*
X131413Y401587D02*
D03*
X118900Y386764D02*
D03*
X43937Y375461D02*
D03*
X43000Y315000D02*
D03*
Y323139D02*
D03*
X145804Y314105D02*
D03*
X135295Y306094D02*
D03*
X9607Y271000D02*
D03*
X70386Y559477D02*
D03*
X176104Y100031D02*
D03*
X111273Y291631D02*
D03*
X83068Y412214D02*
D03*
X68204Y420205D02*
D03*
X55204Y419604D02*
D03*
X131000Y412000D02*
D03*
X78190Y552508D02*
D03*
X139000Y323190D02*
D03*
X91000Y283000D02*
D03*
X305961Y623000D02*
D03*
X192000D02*
D03*
X191520Y610545D02*
D03*
X151172Y567248D02*
D03*
X174267Y525407D02*
D03*
X164840Y526674D02*
D03*
X150000Y559809D02*
D03*
X144678Y531920D02*
D03*
X117741Y579238D02*
D03*
X127329Y537833D02*
D03*
X136130Y527000D02*
D03*
X134000Y503579D02*
D03*
X126250Y525924D02*
D03*
X123500Y495000D02*
D03*
X123500Y485000D02*
D03*
X186318Y430985D02*
D03*
X179747Y408698D02*
D03*
X162000Y433615D02*
D03*
X114000Y485000D02*
D03*
X114204Y424000D02*
D03*
X115217Y405282D02*
D03*
X139485Y404198D02*
D03*
X136808Y297784D02*
D03*
X152892Y101072D02*
D03*
X147000Y101000D02*
D03*
X141000D02*
D03*
X100000Y656320D02*
D03*
X110657Y526944D02*
D03*
X113000Y504000D02*
D03*
X104746Y560754D02*
D03*
X95000Y664000D02*
D03*
Y649000D02*
D03*
X86750Y586000D02*
D03*
X91432Y497547D02*
D03*
X80000Y541809D02*
D03*
Y535209D02*
D03*
X74000Y535000D02*
D03*
X89593Y481370D02*
D03*
X46000Y665000D02*
D03*
Y658000D02*
D03*
X53374Y600125D02*
D03*
X26371Y613788D02*
D03*
X45000Y537000D02*
D03*
Y531000D02*
D03*
X47000Y476000D02*
D03*
X22329Y580151D02*
D03*
X7357Y591901D02*
D03*
X67238Y437781D02*
D03*
X64200Y459327D02*
D03*
X49000Y463947D02*
D03*
X53307Y403205D02*
D03*
X47141Y419205D02*
D03*
X6900Y444010D02*
D03*
X27000Y412000D02*
D03*
X99205Y347205D02*
D03*
Y363480D02*
D03*
Y355205D02*
D03*
Y339205D02*
D03*
X91205Y363480D02*
D03*
Y355205D02*
D03*
Y347205D02*
D03*
X83205Y363205D02*
D03*
Y354930D02*
D03*
Y346930D02*
D03*
X91205Y339205D02*
D03*
X83205Y338930D02*
D03*
X103147Y291986D02*
D03*
X75205Y354930D02*
D03*
Y363205D02*
D03*
Y346930D02*
D03*
Y338930D02*
D03*
X35000Y363000D02*
D03*
X27000Y323000D02*
D03*
X17247Y284659D02*
D03*
X50125Y266251D02*
D03*
X45062Y262803D02*
D03*
X51000Y355000D02*
D03*
Y346930D02*
D03*
Y331205D02*
D03*
Y323139D02*
D03*
X184198Y540541D02*
D03*
X179694Y421301D02*
D03*
X123204Y355205D02*
D03*
X118000Y585000D02*
D03*
X112484Y386967D02*
D03*
X91205Y388000D02*
D03*
X115000Y372000D02*
D03*
X59101Y439974D02*
D03*
X31000Y442599D02*
D03*
X8049Y597764D02*
D03*
X26000Y514000D02*
D03*
X66000Y387420D02*
D03*
X8000Y430000D02*
D03*
X103273Y315631D02*
D03*
X71204Y315632D02*
D03*
X87273Y315631D02*
D03*
X79147Y315631D02*
D03*
X51540Y363000D02*
D03*
X63273Y315632D02*
D03*
D146*
X244755Y360725D02*
D03*
X255755D02*
D03*
X266755D02*
D03*
X233755Y371725D02*
D03*
Y382725D02*
D03*
Y360725D02*
D03*
X244755Y393725D02*
D03*
X233755D02*
D03*
X255755Y371725D02*
D03*
X244755D02*
D03*
X266755D02*
D03*
Y382725D02*
D03*
X244755D02*
D03*
X255755Y393725D02*
D03*
Y382725D02*
D03*
X266755Y393725D02*
D03*
M02*
