G04*
G04 #@! TF.GenerationSoftware,Altium Limited,Altium Designer,21.6.4 (81)*
G04*
G04 Layer_Color=16711935*
%FSLAX44Y44*%
%MOMM*%
G71*
G04*
G04 #@! TF.SameCoordinates,3EDC82D6-234A-4603-B505-91B76C251D76*
G04*
G04*
G04 #@! TF.FilePolarity,Positive*
G04*
G01*
G75*
%ADD14C,0.2000*%
%ADD15C,0.1000*%
%ADD17C,0.1270*%
G54D14*
X200670Y574220D02*
X198670D01*
X200670D01*
X878950Y115500D02*
Y160500D01*
X765050D02*
X878950D01*
X765050Y115500D02*
Y160500D01*
Y115500D02*
X878950D01*
G54D15*
X342250Y560500D02*
X341580Y563000D01*
X339750Y564830D01*
X337250Y565500D01*
X334750Y564830D01*
X332920Y563000D01*
X332250Y560500D01*
X332920Y558000D01*
X334750Y556170D01*
X337250Y555500D01*
X339750Y556170D01*
X341580Y558000D01*
X342250Y560500D01*
X328250Y488500D02*
X409250D01*
X328250Y569500D02*
X409250D01*
Y488500D02*
Y569500D01*
X328250Y488500D02*
Y569500D01*
X240250Y134750D02*
Y145250D01*
X245750Y134750D02*
Y145250D01*
X240250Y134750D02*
X245750D01*
X240250Y145250D02*
X245750D01*
X244000Y169000D02*
X252000D01*
X244000Y153000D02*
X252000D01*
X244000D02*
Y169000D01*
X252000Y153000D02*
Y169000D01*
X72500Y133480D02*
X88500D01*
X72500Y104520D02*
Y133480D01*
Y104520D02*
X88500D01*
Y133480D01*
X78980D02*
X88500Y123960D01*
X716000Y152000D02*
X732000D01*
X716000D02*
Y182000D01*
X732000D01*
Y152000D02*
Y182000D01*
X722500Y152000D02*
X732000Y161500D01*
X227000Y282250D02*
X232500D01*
X227000Y271750D02*
X232500D01*
Y282250D01*
X227000Y271750D02*
Y282250D01*
X185000Y115500D02*
Y156500D01*
X171500Y170000D02*
X185000Y156500D01*
X117000Y170000D02*
X171500D01*
X117000Y102000D02*
Y170000D01*
Y102000D02*
X171500D01*
X185000Y115500D01*
X258500Y322750D02*
X269000D01*
X258500Y317250D02*
X269000D01*
Y322750D01*
X258500Y317250D02*
Y322750D01*
Y308250D02*
Y313750D01*
X269000Y308250D02*
Y313750D01*
X258500Y308250D02*
X269000D01*
X258500Y313750D02*
X269000D01*
X239250Y351500D02*
X244750D01*
X239250Y362000D02*
X244750D01*
Y351500D02*
Y362000D01*
X239250Y351500D02*
Y362000D01*
X46000Y280000D02*
X51500D01*
X46000Y269500D02*
X51500D01*
X46000D02*
Y280000D01*
X51500Y269500D02*
Y280000D01*
X185000Y184500D02*
Y225500D01*
X171500Y239000D02*
X185000Y225500D01*
X117000Y239000D02*
X171500D01*
X117000Y171000D02*
Y239000D01*
Y171000D02*
X171500D01*
X185000Y184500D01*
X229250Y155250D02*
Y160750D01*
X218750Y155250D02*
Y160750D01*
Y155250D02*
X229250D01*
X218750Y160750D02*
X229250D01*
X449750Y237250D02*
Y247750D01*
X455250Y237250D02*
Y247750D01*
X449750D02*
X455250D01*
X449750Y237250D02*
X455250D01*
X437250Y247750D02*
X442750D01*
X437250Y237250D02*
X442750D01*
X437250D02*
Y247750D01*
X442750Y237250D02*
Y247750D01*
X424750D02*
X430250D01*
X424750Y237250D02*
X430250D01*
X424750D02*
Y247750D01*
X430250Y237250D02*
Y247750D01*
X412250D02*
X417750D01*
X412250Y237250D02*
X417750D01*
X412250D02*
Y247750D01*
X417750Y237250D02*
Y247750D01*
X399750D02*
X405250D01*
X399750Y237250D02*
X405250D01*
X399750D02*
Y247750D01*
X405250Y237250D02*
Y247750D01*
X387250D02*
X392750D01*
X387250Y237250D02*
X392750D01*
X387250D02*
Y247750D01*
X392750Y237250D02*
Y247750D01*
X366250Y249250D02*
X371750D01*
X366250Y238750D02*
X371750D01*
X366250D02*
Y249250D01*
X371750Y238750D02*
Y249250D01*
X522250Y365250D02*
Y370750D01*
X511750Y365250D02*
Y370750D01*
X522250D01*
X511750Y365250D02*
X522250D01*
X902800Y507500D02*
Y648000D01*
X770800D02*
X902800D01*
X770800Y507500D02*
Y648000D01*
Y507500D02*
X902800D01*
X321750Y279250D02*
X332250D01*
X321750Y284750D02*
X332250D01*
X321750Y279250D02*
Y284750D01*
X332250Y279250D02*
Y284750D01*
X55000Y280000D02*
X60500D01*
X55000Y269500D02*
X60500D01*
X55000D02*
Y280000D01*
X60500Y269500D02*
Y280000D01*
X28500D02*
X34000D01*
X28500Y269500D02*
X34000D01*
X28500D02*
Y280000D01*
X34000Y269500D02*
Y280000D01*
X24750Y269500D02*
Y280000D01*
X19250Y269500D02*
Y280000D01*
Y269500D02*
X24750D01*
X19250Y280000D02*
X24750D01*
X282000Y330068D02*
X292500D01*
X282000Y335568D02*
X292500D01*
X282000Y330068D02*
Y335568D01*
X292500Y330068D02*
Y335568D01*
X360000Y306500D02*
X382500Y284000D01*
X360000D02*
X450000D01*
Y374000D01*
X360000D02*
X450000D01*
X360000Y284000D02*
Y374000D01*
X329500Y415500D02*
X339000Y425000D01*
X329500Y395000D02*
Y425000D01*
Y395000D02*
X345500D01*
Y425000D01*
X329500D02*
X345500D01*
X292750Y297250D02*
Y302750D01*
X282250Y297250D02*
Y302750D01*
X292750D01*
X282250Y297250D02*
X292750D01*
X292500Y322000D02*
Y327500D01*
X282000Y322000D02*
Y327500D01*
X292500D01*
X282000Y322000D02*
X292500D01*
X292750Y338000D02*
Y343500D01*
X282250Y338000D02*
Y343500D01*
X292750D01*
X282250Y338000D02*
X292750D01*
X282000Y346137D02*
Y351637D01*
X292500Y346137D02*
Y351637D01*
X282000Y346137D02*
X292500D01*
X282000Y351637D02*
X292500D01*
X282000Y355659D02*
Y361159D01*
X292500Y355659D02*
Y361159D01*
X282000Y355659D02*
X292500D01*
X282000Y361159D02*
X292500D01*
X511750Y288250D02*
Y293750D01*
X522250Y288250D02*
Y293750D01*
X511750Y288250D02*
X522250D01*
X511750Y293750D02*
X522250D01*
X282250Y290750D02*
X292750D01*
X282250Y285250D02*
X292750D01*
Y290750D01*
X282250Y285250D02*
Y290750D01*
X511750Y332250D02*
X522250D01*
X511750Y337750D02*
X522250D01*
X511750Y332250D02*
Y337750D01*
X522250Y332250D02*
Y337750D01*
X511750Y326750D02*
X522250D01*
X511750Y321250D02*
X522250D01*
Y326750D01*
X511750Y321250D02*
Y326750D01*
Y315750D02*
X522250D01*
X511750Y310250D02*
X522250D01*
Y315750D01*
X511750Y310250D02*
Y315750D01*
Y359750D02*
X522250D01*
X511750Y354250D02*
X522250D01*
Y359750D01*
X511750Y354250D02*
Y359750D01*
Y304750D02*
X522250D01*
X511750Y299250D02*
X522250D01*
Y304750D01*
X511750Y299250D02*
Y304750D01*
Y348750D02*
X522250D01*
X511750Y343250D02*
X522250D01*
Y348750D01*
X511750Y343250D02*
Y348750D01*
X382386Y418750D02*
Y429250D01*
X376886Y418750D02*
Y429250D01*
Y418750D02*
X382386D01*
X376886Y429250D02*
X382386D01*
X394659Y418750D02*
Y429250D01*
X389159Y418750D02*
Y429250D01*
Y418750D02*
X394659D01*
X389159Y429250D02*
X394659D01*
X431204Y418750D02*
Y429250D01*
X425704Y418750D02*
Y429250D01*
Y418750D02*
X431204D01*
X425704Y429250D02*
X431204D01*
X419477Y418750D02*
Y429250D01*
X413977Y418750D02*
Y429250D01*
Y418750D02*
X419477D01*
X413977Y429250D02*
X419477D01*
X443750Y418750D02*
Y429250D01*
X438250Y418750D02*
Y429250D01*
Y418750D02*
X443750D01*
X438250Y429250D02*
X443750D01*
X406931Y418750D02*
Y429250D01*
X401432Y418750D02*
Y429250D01*
Y418750D02*
X406931D01*
X401432Y429250D02*
X406931D01*
X406750Y502250D02*
X417250D01*
X406750Y507750D02*
X417250D01*
X406750Y502250D02*
Y507750D01*
X417250Y502250D02*
Y507750D01*
X405500Y570750D02*
X416000D01*
X405500Y565250D02*
X416000D01*
Y570750D01*
X405500Y565250D02*
Y570750D01*
X281750Y164500D02*
Y170000D01*
X292250Y164500D02*
Y170000D01*
X281750D02*
X292250D01*
X281750Y164500D02*
X292250D01*
X401750Y244250D02*
Y249750D01*
X391250Y244250D02*
Y249750D01*
Y244250D02*
X401750D01*
X391250Y249750D02*
X401750D01*
X401250Y391250D02*
X406750D01*
X401250Y380750D02*
X406750D01*
Y391250D01*
X401250Y380750D02*
Y391250D01*
X383250D02*
X388750D01*
X383250Y380750D02*
X388750D01*
Y391250D01*
X383250Y380750D02*
Y391250D01*
X392250Y380750D02*
X397750D01*
X392250Y391250D02*
X397750D01*
X392250Y380750D02*
Y391250D01*
X397750Y380750D02*
Y391250D01*
X374250Y380750D02*
X379750D01*
X374250Y391250D02*
X379750D01*
X374250Y380750D02*
Y391250D01*
X379750Y380750D02*
Y391250D01*
X474250Y390250D02*
X479750D01*
X474250Y379750D02*
X479750D01*
Y390250D01*
X474250Y379750D02*
Y390250D01*
X482250Y379750D02*
X487750D01*
X482250Y390250D02*
X487750D01*
X482250Y379750D02*
Y390250D01*
X487750Y379750D02*
Y390250D01*
X288750Y277250D02*
Y282750D01*
X299250Y277250D02*
Y282750D01*
X288750D02*
X299250D01*
X288750Y277250D02*
X299250D01*
X251250Y145250D02*
X256750D01*
X251250Y134750D02*
X256750D01*
Y145250D01*
X251250Y134750D02*
Y145250D01*
X317250Y442250D02*
Y447750D01*
X327750Y442250D02*
Y447750D01*
X317250D02*
X327750D01*
X317250Y442250D02*
X327750D01*
X374250Y397250D02*
Y402750D01*
X363750Y397250D02*
Y402750D01*
Y397250D02*
X374250D01*
X363750Y402750D02*
X374250D01*
X327750Y432250D02*
Y437750D01*
X317250Y432250D02*
Y437750D01*
Y432250D02*
X327750D01*
X317250Y437750D02*
X327750D01*
X372750Y407000D02*
Y412500D01*
X362250Y407000D02*
Y412500D01*
Y407000D02*
X372750D01*
X362250Y412500D02*
X372750D01*
X229750Y580250D02*
X240250D01*
X229750Y574750D02*
X240250D01*
X229750D02*
Y580250D01*
X240250Y574750D02*
Y580250D01*
X229750Y584750D02*
X240250D01*
X229750Y590250D02*
X240250D01*
Y584750D02*
Y590250D01*
X229750Y584750D02*
Y590250D01*
X151000Y595550D02*
X229000D01*
Y635550D01*
X151000Y595550D02*
Y635550D01*
X229000D01*
X633270Y27400D02*
Y38400D01*
X639270Y27400D02*
Y38400D01*
X633270D02*
X639270D01*
X633270Y27400D02*
X639270D01*
X623270D02*
Y38400D01*
X629270Y27400D02*
Y38400D01*
X623270D02*
X629270D01*
X623270Y27400D02*
X629270D01*
X603270D02*
X609270D01*
X603270Y38400D02*
X609270D01*
Y27400D02*
Y38400D01*
X603270Y27400D02*
Y38400D01*
X593270Y27400D02*
X599270D01*
X593270Y38400D02*
X599270D01*
Y27400D02*
Y38400D01*
X593270Y27400D02*
Y38400D01*
X242250Y606500D02*
X247750D01*
X242250Y617000D02*
X247750D01*
X242250Y606500D02*
Y617000D01*
X247750Y606500D02*
Y617000D01*
X253750Y606500D02*
X259250D01*
X253750Y617000D02*
X259250D01*
X253750Y606500D02*
Y617000D01*
X259250Y606500D02*
Y617000D01*
X642250Y27250D02*
Y37750D01*
X647750Y27250D02*
Y37750D01*
X642250Y27250D02*
X647750D01*
X642250Y37750D02*
X647750D01*
G54D17*
X300Y407650D02*
X213300D01*
Y568650D01*
X300D02*
X213300D01*
X300Y407650D02*
Y568650D01*
M02*
