G04*
G04 #@! TF.GenerationSoftware,Altium Limited,Altium Designer,24.2.2 (26)*
G04*
G04 Layer_Color=16711935*
%FSLAX44Y44*%
%MOMM*%
G71*
G04*
G04 #@! TF.SameCoordinates,ED65E515-8F89-4409-9B4D-6018ACB33687*
G04*
G04*
G04 #@! TF.FilePolarity,Negative*
G04*
G01*
G75*
%ADD22R,0.7581X0.8121*%
%ADD24R,0.5000X0.4000*%
%ADD26R,0.6725X0.7154*%
%ADD28R,0.5200X0.5200*%
%ADD29R,0.7154X0.6725*%
%ADD40R,0.4500X0.6750*%
%ADD41R,0.4000X0.5000*%
%ADD49R,0.4725X0.5153*%
%ADD57R,0.8121X0.7581*%
%ADD61R,0.5153X0.4725*%
%ADD68R,0.6153X0.5725*%
%ADD73R,0.4100X0.6600*%
%ADD80R,0.6750X0.4500*%
%ADD81R,0.5200X0.5200*%
%ADD115R,0.6500X0.7000*%
%ADD116R,0.7000X0.6500*%
%ADD125R,0.8200X0.8200*%
%ADD127R,0.7000X0.7500*%
%ADD141R,0.7500X0.7000*%
%ADD143R,0.6200X0.6600*%
%ADD146C,1.5200*%
G04:AMPARAMS|DCode=147|XSize=1.52mm|YSize=1.52mm|CornerRadius=0.405mm|HoleSize=0mm|Usage=FLASHONLY|Rotation=270.000|XOffset=0mm|YOffset=0mm|HoleType=Round|Shape=RoundedRectangle|*
%AMROUNDEDRECTD147*
21,1,1.5200,0.7100,0,0,270.0*
21,1,0.7100,1.5200,0,0,270.0*
1,1,0.8100,-0.3550,-0.3550*
1,1,0.8100,-0.3550,0.3550*
1,1,0.8100,0.3550,0.3550*
1,1,0.8100,0.3550,-0.3550*
%
%ADD147ROUNDEDRECTD147*%
%ADD148C,3.5500*%
%ADD149R,1.5700X1.5700*%
%ADD150C,1.5700*%
%ADD151C,1.5500*%
%ADD152C,2.2000*%
%ADD153C,0.5000*%
%ADD154C,1.9000*%
%ADD155C,3.0500*%
%ADD156C,1.5000*%
%ADD157R,1.5000X1.5000*%
%ADD158C,0.5064*%
%ADD159C,0.6000*%
%ADD177R,0.8500X0.9000*%
%ADD178R,0.6725X0.5274*%
%ADD181R,1.0000X0.5000*%
%ADD184R,0.5725X0.6153*%
%ADD188R,0.7000X0.7000*%
%ADD194R,0.4725X0.5393*%
%ADD197C,0.1750*%
%ADD198R,0.5500X0.5500*%
%ADD199R,0.7500X0.8000*%
%ADD200R,0.8000X0.7500*%
%ADD201R,0.6000X0.6500*%
G04:AMPARAMS|DCode=202|XSize=0.4mm|YSize=0.59mm|CornerRadius=0.0995mm|HoleSize=0mm|Usage=FLASHONLY|Rotation=270.000|XOffset=0mm|YOffset=0mm|HoleType=Round|Shape=RoundedRectangle|*
%AMROUNDEDRECTD202*
21,1,0.4000,0.3910,0,0,270.0*
21,1,0.2010,0.5900,0,0,270.0*
1,1,0.1990,-0.1955,-0.1005*
1,1,0.1990,-0.1955,0.1005*
1,1,0.1990,0.1955,0.1005*
1,1,0.1990,0.1955,-0.1005*
%
%ADD202ROUNDEDRECTD202*%
G04:AMPARAMS|DCode=203|XSize=0.4mm|YSize=0.62mm|CornerRadius=0.0995mm|HoleSize=0mm|Usage=FLASHONLY|Rotation=270.000|XOffset=0mm|YOffset=0mm|HoleType=Round|Shape=RoundedRectangle|*
%AMROUNDEDRECTD203*
21,1,0.4000,0.4210,0,0,270.0*
21,1,0.2010,0.6200,0,0,270.0*
1,1,0.1990,-0.2105,-0.1005*
1,1,0.1990,-0.2105,0.1005*
1,1,0.1990,0.2105,0.1005*
1,1,0.1990,0.2105,-0.1005*
%
%ADD203ROUNDEDRECTD203*%
G04:AMPARAMS|DCode=204|XSize=0.3mm|YSize=0.665mm|CornerRadius=0.1mm|HoleSize=0mm|Usage=FLASHONLY|Rotation=270.000|XOffset=0mm|YOffset=0mm|HoleType=Round|Shape=RoundedRectangle|*
%AMROUNDEDRECTD204*
21,1,0.3000,0.4650,0,0,270.0*
21,1,0.1000,0.6650,0,0,270.0*
1,1,0.2000,-0.2325,-0.0500*
1,1,0.2000,-0.2325,0.0500*
1,1,0.2000,0.2325,0.0500*
1,1,0.2000,0.2325,-0.0500*
%
%ADD204ROUNDEDRECTD204*%
G04:AMPARAMS|DCode=205|XSize=0.5mm|YSize=0.665mm|CornerRadius=0.1mm|HoleSize=0mm|Usage=FLASHONLY|Rotation=270.000|XOffset=0mm|YOffset=0mm|HoleType=Round|Shape=RoundedRectangle|*
%AMROUNDEDRECTD205*
21,1,0.5000,0.4650,0,0,270.0*
21,1,0.3000,0.6650,0,0,270.0*
1,1,0.2000,-0.2325,-0.1500*
1,1,0.2000,-0.2325,0.1500*
1,1,0.2000,0.2325,0.1500*
1,1,0.2000,0.2325,-0.1500*
%
%ADD205ROUNDEDRECTD205*%
G04:AMPARAMS|DCode=206|XSize=1.71mm|YSize=0.68mm|CornerRadius=0.1225mm|HoleSize=0mm|Usage=FLASHONLY|Rotation=0.000|XOffset=0mm|YOffset=0mm|HoleType=Round|Shape=RoundedRectangle|*
%AMROUNDEDRECTD206*
21,1,1.7100,0.4350,0,0,0.0*
21,1,1.4650,0.6800,0,0,0.0*
1,1,0.2450,0.7325,-0.2175*
1,1,0.2450,-0.7325,-0.2175*
1,1,0.2450,-0.7325,0.2175*
1,1,0.2450,0.7325,0.2175*
%
%ADD206ROUNDEDRECTD206*%
%ADD207R,0.7500X0.7500*%
%ADD208R,0.5500X0.6500*%
D22*
X370730Y660000D02*
D03*
X383270D02*
D03*
D24*
X296000Y686791D02*
D03*
Y694791D02*
D03*
X207000Y94000D02*
D03*
Y102000D02*
D03*
X73000Y578000D02*
D03*
Y570000D02*
D03*
X191000Y323000D02*
D03*
X98680Y453638D02*
D03*
X88600D02*
D03*
X79000Y454000D02*
D03*
X168000Y482000D02*
D03*
X88600Y445638D02*
D03*
X98680D02*
D03*
X191000Y331000D02*
D03*
X79000Y446000D02*
D03*
X168000Y474000D02*
D03*
D26*
X350000Y756214D02*
D03*
Y765786D02*
D03*
X253054Y873786D02*
D03*
Y864214D02*
D03*
X184000Y704214D02*
D03*
Y713786D02*
D03*
X308000Y687214D02*
D03*
Y696786D02*
D03*
X177000Y872786D02*
D03*
Y863214D02*
D03*
X211014Y154036D02*
D03*
Y144464D02*
D03*
X197000Y84614D02*
D03*
Y94186D02*
D03*
D28*
X40000Y395000D02*
D03*
Y403000D02*
D03*
X418000Y678729D02*
D03*
Y686729D02*
D03*
X440000Y749000D02*
D03*
Y741000D02*
D03*
X24000Y775000D02*
D03*
Y767000D02*
D03*
X61537Y356944D02*
D03*
Y364944D02*
D03*
X33125Y361922D02*
D03*
Y353922D02*
D03*
X99000Y523000D02*
D03*
Y515000D02*
D03*
X143000Y68500D02*
D03*
Y76500D02*
D03*
X163000Y60600D02*
D03*
Y68600D02*
D03*
X152000Y50000D02*
D03*
Y42000D02*
D03*
X417000Y406414D02*
D03*
Y398414D02*
D03*
X164000Y625000D02*
D03*
Y633000D02*
D03*
X230442Y637000D02*
D03*
Y645000D02*
D03*
X295000Y654000D02*
D03*
Y646000D02*
D03*
X189000Y125000D02*
D03*
Y133000D02*
D03*
X188000Y100000D02*
D03*
Y92000D02*
D03*
X265000Y487000D02*
D03*
Y479000D02*
D03*
X230000Y518573D02*
D03*
Y526573D02*
D03*
X239038D02*
D03*
Y518573D02*
D03*
X250000Y519535D02*
D03*
Y527535D02*
D03*
X265000Y587923D02*
D03*
Y579923D02*
D03*
X324000Y745000D02*
D03*
Y753000D02*
D03*
X200000Y770000D02*
D03*
Y762000D02*
D03*
X223000Y235000D02*
D03*
Y243000D02*
D03*
Y218000D02*
D03*
Y210000D02*
D03*
X143331Y217167D02*
D03*
Y209168D02*
D03*
X496642Y501595D02*
D03*
Y493595D02*
D03*
X191577Y374437D02*
D03*
Y382437D02*
D03*
X192639Y430681D02*
D03*
Y422681D02*
D03*
X176901Y430221D02*
D03*
Y422221D02*
D03*
X167992Y374271D02*
D03*
Y382271D02*
D03*
X182533Y375871D02*
D03*
Y383871D02*
D03*
X156000Y474000D02*
D03*
Y482000D02*
D03*
X497000Y560400D02*
D03*
X362000Y561000D02*
D03*
X461000Y442000D02*
D03*
X415897Y446803D02*
D03*
X461000Y450000D02*
D03*
X415897Y454803D02*
D03*
X362000Y553000D02*
D03*
X497000Y552400D02*
D03*
D29*
X476903Y532342D02*
D03*
X467332D02*
D03*
X391214Y719000D02*
D03*
X400786D02*
D03*
X486214Y683000D02*
D03*
X495786D02*
D03*
X402214Y741000D02*
D03*
X411786D02*
D03*
X356577Y657000D02*
D03*
X347006D02*
D03*
X288786Y708000D02*
D03*
X279214D02*
D03*
X279786Y640000D02*
D03*
X270214D02*
D03*
X335786Y684000D02*
D03*
X326215D02*
D03*
X227214Y144000D02*
D03*
X236786D02*
D03*
X183569Y143811D02*
D03*
X173998D02*
D03*
X28786Y482000D02*
D03*
X19215D02*
D03*
X57796Y446205D02*
D03*
X67367D02*
D03*
D40*
X272225Y469000D02*
D03*
X262975D02*
D03*
X247625Y499000D02*
D03*
X238375D02*
D03*
X396720Y370467D02*
D03*
X387470D02*
D03*
X396720Y386967D02*
D03*
X387470D02*
D03*
X482375Y369000D02*
D03*
X491625D02*
D03*
X483345Y381574D02*
D03*
X492595D02*
D03*
D41*
X250600Y439000D02*
D03*
X258600D02*
D03*
X326000Y673000D02*
D03*
X334000D02*
D03*
X255000Y395000D02*
D03*
X263000D02*
D03*
X171000Y133000D02*
D03*
X179000D02*
D03*
X150933Y407460D02*
D03*
X158933D02*
D03*
X206871Y407554D02*
D03*
X198871D02*
D03*
D49*
X63255Y570214D02*
D03*
Y577786D02*
D03*
X82755D02*
D03*
Y570214D02*
D03*
D57*
X340000Y521000D02*
D03*
Y533540D02*
D03*
X217000Y15730D02*
D03*
Y28270D02*
D03*
D61*
X403114Y750917D02*
D03*
X410686D02*
D03*
D68*
X304286Y26000D02*
D03*
X295714D02*
D03*
D73*
X58888Y394957D02*
D03*
X48788D02*
D03*
D80*
X445015Y430741D02*
D03*
Y421492D02*
D03*
X70000Y385375D02*
D03*
X496000Y420622D02*
D03*
X70000Y394625D02*
D03*
X496000Y429872D02*
D03*
D81*
X487000Y693000D02*
D03*
X495000D02*
D03*
X354391Y682000D02*
D03*
X346391D02*
D03*
X355791Y671182D02*
D03*
X347791D02*
D03*
X325000Y434000D02*
D03*
X333000D02*
D03*
X68000Y593819D02*
D03*
X76000D02*
D03*
X42204Y359933D02*
D03*
X50205D02*
D03*
X84000Y328150D02*
D03*
X76000D02*
D03*
X93000Y593819D02*
D03*
X85000D02*
D03*
X42505Y542000D02*
D03*
X50505D02*
D03*
X44299Y557725D02*
D03*
X52299D02*
D03*
X448000Y406000D02*
D03*
X440000D02*
D03*
X448000Y386000D02*
D03*
X456000D02*
D03*
X200395Y661672D02*
D03*
X208395D02*
D03*
X202750Y690500D02*
D03*
X210750D02*
D03*
X266000Y690500D02*
D03*
X274000D02*
D03*
X267000Y655000D02*
D03*
X275000D02*
D03*
X335000Y695000D02*
D03*
X327000D02*
D03*
X102000Y720168D02*
D03*
X110000D02*
D03*
X183667Y155000D02*
D03*
X175667D02*
D03*
X247000Y489000D02*
D03*
X239000D02*
D03*
X253500Y607000D02*
D03*
X245500D02*
D03*
X209393Y544786D02*
D03*
X201393D02*
D03*
X27000Y493000D02*
D03*
X19000D02*
D03*
X189605Y260140D02*
D03*
X197605D02*
D03*
X207867Y260355D02*
D03*
X215867D02*
D03*
X199407Y242000D02*
D03*
X207407D02*
D03*
X181000D02*
D03*
X189000D02*
D03*
X454622Y299592D02*
D03*
X462622D02*
D03*
X426784Y581440D02*
D03*
X434784D02*
D03*
X151110Y425654D02*
D03*
X159110D02*
D03*
X150920Y416605D02*
D03*
X158920D02*
D03*
X252000Y450000D02*
D03*
X260000D02*
D03*
X207250Y389397D02*
D03*
X199251D02*
D03*
X207102Y380147D02*
D03*
X199102D02*
D03*
X150987Y387122D02*
D03*
X158987D02*
D03*
X207313Y398411D02*
D03*
X199313D02*
D03*
X151679Y377380D02*
D03*
X159679D02*
D03*
X251000Y422000D02*
D03*
X259000D02*
D03*
X206794Y416740D02*
D03*
X198794D02*
D03*
X151234Y396469D02*
D03*
X159234D02*
D03*
X251000Y362000D02*
D03*
X259000D02*
D03*
X261000Y373000D02*
D03*
X59795Y433409D02*
D03*
X86000D02*
D03*
X487449Y459522D02*
D03*
X429449Y453803D02*
D03*
X210000Y535748D02*
D03*
X497400Y472000D02*
D03*
X489400D02*
D03*
X437449Y453803D02*
D03*
X202000Y535748D02*
D03*
X78000Y433409D02*
D03*
X253000Y373000D02*
D03*
X67796Y433409D02*
D03*
X465658Y480803D02*
D03*
X473657D02*
D03*
X465658Y490566D02*
D03*
X473657D02*
D03*
X479449Y459522D02*
D03*
D115*
X495000Y667250D02*
D03*
Y658750D02*
D03*
X223000Y81500D02*
D03*
Y73000D02*
D03*
X60000Y498250D02*
D03*
Y489750D02*
D03*
X74256Y500187D02*
D03*
Y491687D02*
D03*
X85286Y491620D02*
D03*
Y500120D02*
D03*
X94979Y497179D02*
D03*
Y488679D02*
D03*
X301000Y623250D02*
D03*
Y614750D02*
D03*
X153000Y68850D02*
D03*
Y60350D02*
D03*
X163000Y50250D02*
D03*
Y41750D02*
D03*
X427000Y406250D02*
D03*
Y397750D02*
D03*
X164000Y615250D02*
D03*
Y606750D02*
D03*
X174000Y624750D02*
D03*
Y633250D02*
D03*
X228000Y169750D02*
D03*
Y178250D02*
D03*
X377000Y457250D02*
D03*
Y448750D02*
D03*
X426475Y321967D02*
D03*
Y330467D02*
D03*
X347000Y557250D02*
D03*
Y565750D02*
D03*
D116*
X455250Y589000D02*
D03*
X446750D02*
D03*
X375750Y610000D02*
D03*
X384250D02*
D03*
X406750Y807000D02*
D03*
X415250D02*
D03*
X406250Y796000D02*
D03*
X397750D02*
D03*
X176250Y109000D02*
D03*
X167750D02*
D03*
X28250Y517000D02*
D03*
X19750D02*
D03*
X33250Y506000D02*
D03*
X24750D02*
D03*
X448250Y396000D02*
D03*
X439750D02*
D03*
X318250Y657000D02*
D03*
X309750D02*
D03*
X267750Y407000D02*
D03*
X276250D02*
D03*
X298884Y667615D02*
D03*
X307384D02*
D03*
X304635Y677571D02*
D03*
X296135D02*
D03*
X212750Y191000D02*
D03*
X221250D02*
D03*
X307250Y560000D02*
D03*
X298750D02*
D03*
X263816Y385314D02*
D03*
X255316D02*
D03*
X269250Y496000D02*
D03*
X260750D02*
D03*
X432250Y312000D02*
D03*
X423750D02*
D03*
X395966Y348092D02*
D03*
X404466D02*
D03*
X99250Y364000D02*
D03*
X90750D02*
D03*
X18750Y532000D02*
D03*
X27250D02*
D03*
X402914Y571852D02*
D03*
X411413D02*
D03*
D125*
X407000Y785100D02*
D03*
Y774900D02*
D03*
X483750Y660900D02*
D03*
Y671100D02*
D03*
X457000Y680900D02*
D03*
Y691100D02*
D03*
D127*
X485000Y714486D02*
D03*
Y705986D02*
D03*
X497000Y714486D02*
D03*
Y705986D02*
D03*
X498000Y729750D02*
D03*
Y738250D02*
D03*
X485000Y729750D02*
D03*
Y738250D02*
D03*
X100000Y333750D02*
D03*
Y342250D02*
D03*
X281000Y137750D02*
D03*
Y146250D02*
D03*
X268022Y142000D02*
D03*
Y150500D02*
D03*
X271000Y105250D02*
D03*
Y96750D02*
D03*
X282000Y106250D02*
D03*
Y97750D02*
D03*
X214501Y121689D02*
D03*
Y130189D02*
D03*
X161000Y677750D02*
D03*
Y686250D02*
D03*
X176000Y687250D02*
D03*
Y678750D02*
D03*
X161000Y650750D02*
D03*
Y659250D02*
D03*
X175000D02*
D03*
Y650750D02*
D03*
X476541Y560250D02*
D03*
Y551750D02*
D03*
X262000Y520818D02*
D03*
Y529318D02*
D03*
X234047Y584998D02*
D03*
Y576498D02*
D03*
X222000Y586250D02*
D03*
Y577750D02*
D03*
X395812Y337948D02*
D03*
Y329449D02*
D03*
X495658Y527053D02*
D03*
X476408Y521785D02*
D03*
X411657Y483177D02*
D03*
X401657Y482720D02*
D03*
X391657D02*
D03*
X202908Y58000D02*
D03*
X192908Y59250D02*
D03*
X391657Y474220D02*
D03*
X401657D02*
D03*
X411657Y474677D02*
D03*
X465395Y516703D02*
D03*
Y508202D02*
D03*
X476408Y513285D02*
D03*
X495658Y518553D02*
D03*
X154908Y30800D02*
D03*
X202908Y66500D02*
D03*
X192908Y67750D02*
D03*
X213857Y64700D02*
D03*
X154908Y22300D02*
D03*
X213857Y56200D02*
D03*
D141*
X299750Y528000D02*
D03*
X308250D02*
D03*
X299750Y539000D02*
D03*
X308250D02*
D03*
X391750Y730000D02*
D03*
X400250D02*
D03*
X367250Y732000D02*
D03*
X358750D02*
D03*
X460250Y101000D02*
D03*
X451750D02*
D03*
X167889Y119500D02*
D03*
X176389D02*
D03*
X201750Y650481D02*
D03*
X210250D02*
D03*
X301250Y604000D02*
D03*
X292750D02*
D03*
X105569Y237000D02*
D03*
X97068D02*
D03*
X271250Y568000D02*
D03*
X262750D02*
D03*
X396250Y449000D02*
D03*
X387750D02*
D03*
X423750Y425000D02*
D03*
X432250D02*
D03*
X485652Y589802D02*
D03*
X477152D02*
D03*
X169250Y529000D02*
D03*
X160750D02*
D03*
X451750Y350000D02*
D03*
X460250D02*
D03*
X416750Y360000D02*
D03*
X425250D02*
D03*
Y350000D02*
D03*
X416750D02*
D03*
X437595Y372809D02*
D03*
X446095D02*
D03*
X444345Y321342D02*
D03*
X452845D02*
D03*
X393908Y513804D02*
D03*
X394907Y553814D02*
D03*
Y533809D02*
D03*
Y543812D02*
D03*
X392907Y503802D02*
D03*
X391408Y492803D02*
D03*
X195250Y23000D02*
D03*
X159058Y12900D02*
D03*
X481099Y447000D02*
D03*
X472598D02*
D03*
X437150Y444000D02*
D03*
X445650D02*
D03*
X384408Y503802D02*
D03*
X382907Y492803D02*
D03*
X385407Y513804D02*
D03*
X386408Y553814D02*
D03*
Y533809D02*
D03*
Y543812D02*
D03*
X186750Y23000D02*
D03*
X167558Y12900D02*
D03*
D143*
X93000Y570100D02*
D03*
Y577900D02*
D03*
D146*
X123900Y103000D02*
D03*
Y123000D02*
D03*
Y78000D02*
D03*
D147*
Y148000D02*
D03*
D148*
X96800Y178700D02*
D03*
Y47300D02*
D03*
D149*
X373400Y628250D02*
D03*
D150*
X348000D02*
D03*
X322600D02*
D03*
D151*
X50000Y264000D02*
D03*
Y214000D02*
D03*
D152*
X388040Y234364D02*
D03*
Y58596D02*
D03*
D153*
X418500Y729500D02*
D03*
X411000Y722000D02*
D03*
Y707000D02*
D03*
X426000D02*
D03*
X418500Y699500D02*
D03*
X433500D02*
D03*
X441000Y707000D02*
D03*
Y722000D02*
D03*
X426000D02*
D03*
X433500Y729500D02*
D03*
Y714500D02*
D03*
X418500D02*
D03*
X68000Y323400D02*
D03*
X59000D02*
D03*
X50000D02*
D03*
X41000D02*
D03*
X68000Y332400D02*
D03*
X59000D02*
D03*
X50000D02*
D03*
X41000D02*
D03*
X68000Y341400D02*
D03*
X59000D02*
D03*
X50000D02*
D03*
X41000D02*
D03*
X68000Y350400D02*
D03*
X59000D02*
D03*
X50000D02*
D03*
X41000D02*
D03*
D154*
X476940Y221664D02*
D03*
X451540Y71296D02*
D03*
X426140D02*
D03*
X476940D02*
D03*
X451540Y221664D02*
D03*
D155*
X388040Y98220D02*
D03*
Y194740D02*
D03*
D156*
X296600Y207440D02*
D03*
X322000Y197280D02*
D03*
X296600Y187120D02*
D03*
Y166800D02*
D03*
Y85520D02*
D03*
X322000Y176960D02*
D03*
Y156640D02*
D03*
Y136320D02*
D03*
Y116000D02*
D03*
Y95680D02*
D03*
X296600Y126160D02*
D03*
D157*
Y105840D02*
D03*
D158*
X330173Y499579D02*
D03*
X366000Y575000D02*
D03*
X250000Y534000D02*
D03*
X239038Y533000D02*
D03*
X218000Y540000D02*
D03*
X230000D02*
D03*
X243000D02*
D03*
X255000D02*
D03*
X218000Y556000D02*
D03*
X230000D02*
D03*
X243000D02*
D03*
X255000D02*
D03*
X218000Y569000D02*
D03*
X230000D02*
D03*
X243000D02*
D03*
X255000D02*
D03*
X220500Y652000D02*
D03*
X232500D02*
D03*
X245500D02*
D03*
X257500D02*
D03*
X220000Y665000D02*
D03*
X232000D02*
D03*
X245000D02*
D03*
X257000D02*
D03*
X221000Y682000D02*
D03*
X233000D02*
D03*
X246000D02*
D03*
X258000D02*
D03*
X220500Y695000D02*
D03*
X232500D02*
D03*
X245500D02*
D03*
X257500D02*
D03*
X413000Y506000D02*
D03*
X425000D02*
D03*
X438000D02*
D03*
X450000D02*
D03*
X413000Y518000D02*
D03*
X425000D02*
D03*
X438000D02*
D03*
X450000D02*
D03*
X413000Y530000D02*
D03*
X425000D02*
D03*
X438000D02*
D03*
X450000D02*
D03*
Y542000D02*
D03*
X438000D02*
D03*
X425000D02*
D03*
X413000D02*
D03*
D159*
X234500Y114500D02*
D03*
Y124500D02*
D03*
Y134500D02*
D03*
X224500Y114500D02*
D03*
Y124500D02*
D03*
Y134500D02*
D03*
X244500Y114500D02*
D03*
Y124500D02*
D03*
Y134500D02*
D03*
D177*
X268500Y75000D02*
D03*
X255500D02*
D03*
D178*
X364791Y681262D02*
D03*
Y671812D02*
D03*
D181*
X471000Y681500D02*
D03*
Y670500D02*
D03*
D184*
X67000Y218286D02*
D03*
Y209714D02*
D03*
D188*
X352000Y305000D02*
D03*
Y291000D02*
D03*
Y333000D02*
D03*
Y319000D02*
D03*
X380314Y332585D02*
D03*
Y318585D02*
D03*
D194*
X239000Y18334D02*
D03*
Y25666D02*
D03*
D197*
X46345Y483771D02*
G03*
X46345Y483771I-875J0D01*
G01*
Y493771D02*
G03*
X46345Y493771I-875J0D01*
G01*
X50445D02*
G03*
X50445Y493771I-875J0D01*
G01*
Y483771D02*
G03*
X50445Y483771I-875J0D01*
G01*
D198*
X438000Y196000D02*
D03*
X430000D02*
D03*
X72000Y357150D02*
D03*
X80000D02*
D03*
X253600Y478500D02*
D03*
X245600D02*
D03*
D199*
X87000Y375250D02*
D03*
Y384750D02*
D03*
X235000Y80750D02*
D03*
Y71250D02*
D03*
X255000Y179250D02*
D03*
Y188750D02*
D03*
X90876Y751250D02*
D03*
Y760750D02*
D03*
X63045Y411857D02*
D03*
Y421356D02*
D03*
D200*
X43750Y763000D02*
D03*
X34250D02*
D03*
X203061Y674439D02*
D03*
X212561D02*
D03*
X145250Y719000D02*
D03*
X154750D02*
D03*
X340750Y576000D02*
D03*
X331250D02*
D03*
X332750Y544000D02*
D03*
X323250D02*
D03*
X337910Y745000D02*
D03*
X347410D02*
D03*
X186750Y773000D02*
D03*
X177250D02*
D03*
X142333Y513000D02*
D03*
X151833D02*
D03*
D201*
X426753Y98070D02*
D03*
Y90570D02*
D03*
X476000Y100750D02*
D03*
Y93250D02*
D03*
X451000Y196250D02*
D03*
Y203750D02*
D03*
D202*
X49973Y239750D02*
D03*
Y234750D02*
D03*
X57673Y239750D02*
D03*
X49973Y244750D02*
D03*
X57673Y234750D02*
D03*
X110850Y106000D02*
D03*
Y111000D02*
D03*
X103150D02*
D03*
Y116000D02*
D03*
Y106000D02*
D03*
D203*
X57523Y244750D02*
D03*
X110700Y116000D02*
D03*
D204*
X346000Y168000D02*
D03*
Y173000D02*
D03*
Y183000D02*
D03*
Y188000D02*
D03*
X337650D02*
D03*
Y183000D02*
D03*
Y173000D02*
D03*
Y168000D02*
D03*
X346175Y104000D02*
D03*
Y109000D02*
D03*
Y119000D02*
D03*
Y124000D02*
D03*
X337825D02*
D03*
Y119000D02*
D03*
Y109000D02*
D03*
Y104000D02*
D03*
D205*
X337650Y178000D02*
D03*
X346000D02*
D03*
X337825Y114000D02*
D03*
X346175D02*
D03*
D206*
X408950Y604950D02*
D03*
Y617650D02*
D03*
Y630350D02*
D03*
X481050Y643050D02*
D03*
Y630350D02*
D03*
Y617650D02*
D03*
Y604950D02*
D03*
X408950Y643050D02*
D03*
D207*
X440095Y332112D02*
D03*
X450095D02*
D03*
D208*
X451500Y360000D02*
D03*
X460500D02*
D03*
M02*
