M48
;Layer_Color=9474304
;FILE_FORMAT=4:4
METRIC,LZ
;TYPE=PLATED
T01F00S00C0.3000
T02F00S00C0.3300
T03F00S00C0.3302
%
T01
X00046109Y00191339
X00044897Y00201849
X00051602Y00210033
X00062147Y00210899
X00070105Y00203927
X00080684Y00203805
X00084414Y00192195
X00073834
X00064966Y00186424
X00054498Y00184892
X00094994Y00192195
X00091264Y00203805
X00101844
X0011241Y00204354
X00122976Y00203805
X00133555
X00144033Y00205276
X00147587Y001943
X00137212Y00192229
X00126632Y00192195
X00116052
X00156682Y00199706
X00164283Y00207065
X00171765Y00214546
X00179246Y00222027
X00186727Y00229508
X00167427Y00226629
X00159946Y00219147
X00152465Y00211666
X00174908Y0023411
X0018239Y00241591
X0019016Y00248771
X00199634Y00253481
X00210131Y00254805
X00220711
X00231291
X00241871
X00252362Y00255974
X00255209Y00245785
X00234995Y00243195
X00224415
X00213835
X00203283Y00242429
X00194208Y00236989
T02
X00561Y00103
Y00123
X0056Y00143
X00536Y00208
X00523Y00208039
X00536Y00232691
X00522965Y00242
T03
X0002324Y000524
X0004864
X0007404
Y000778
Y001032
Y001286
Y00154
Y001794
Y002302
X0004864Y00154
Y001286
Y001032
Y000778
X0002324
Y001032
Y001286
Y00154
X0007404Y00027
X0009944
X0012484
X0015024
X0017564
X0020104
X0022644
X0025184Y000524
X0027724
X0030264
X0032804
X0035344
X0037884
X0040424
X0042964
X0045504
X0048044
Y001032
Y001286
X0045504
X0042964
X0040424
X00404029Y00103411
X0042964Y001032
Y000778
X0040424
X0042964Y00154
X0045504
X0048044
Y001794
Y002048
X0045504Y001794
X0042964Y002302
X0040424
Y002048
X0037884Y001794
X0035344
Y00154
X0032804
Y001794
X0030264
Y00154
Y001286
X0032804
X0027724
Y00154
Y001794
X0025184
Y00154
Y001286
X0022644
Y00154
Y001794
Y002048
Y002302
X0020104
Y002048
Y001794
Y00154
Y001286
X0017564
Y00154
Y001794
Y002048
X0015024Y002302
X0012484
Y00154
X0015024
Y001794
Y001032
Y000778
X0017564
Y000524
X0020104
Y001032
X0022644
X0027724Y000778
X0015024Y000524
X0012484
Y000778
X0009944
Y000524
Y00154
X0030264Y002302
X0050584Y002048
Y001794
Y00154
Y001286
X0055664Y00154
X0058204
X0063284
Y002048
Y002302
X0060744
Y001794
X0055664
Y002048
Y000524
X0058204
X0060744
X0063284
X0060744Y00027
X0053124Y000524
X0050584
X0053124Y002556
X0055664
X0058204
X0060744
X0063284
X0060744Y00281
X0058204
X0055664
X0053124
X0050584
X0048044
Y002556
X0045504
Y00281
X0042964
Y002556
X0040424
Y00281
X0037884
X0035344
Y002556
X0032804Y00281
X0030264
X0027724
X0025184
X0022644
X0020104
X0017564
Y002556
X0015024
Y00281
X0012484
Y002556
X0009944
Y00281
X0007404
Y002556
X0004864
X0002324
M30
