G04*
G04 #@! TF.GenerationSoftware,Altium Limited,Altium Designer,24.4.1 (13)*
G04*
G04 Layer_Color=39423*
%FSLAX44Y44*%
%MOMM*%
G71*
G04*
G04 #@! TF.SameCoordinates,7548388F-C7DE-4074-AD92-A7CCF3990386*
G04*
G04*
G04 #@! TF.FilePolarity,Positive*
G04*
G01*
G75*
%ADD15C,0.1524*%
%ADD58C,0.2540*%
%ADD71C,0.3810*%
%ADD72C,0.0254*%
D15*
X72927Y-75142D02*
X78005D01*
X75466D01*
Y-59907D01*
X72927Y-62446D01*
X85623Y-72602D02*
X88162Y-75142D01*
X93240D01*
X95779Y-72602D01*
Y-62446D01*
X93240Y-59907D01*
X88162D01*
X85623Y-62446D01*
Y-64985D01*
X88162Y-67524D01*
X95779D01*
X100858Y-75142D02*
Y-72602D01*
X103397D01*
Y-75142D01*
X100858D01*
X113553Y-62446D02*
X116093Y-59907D01*
X121171D01*
X123710Y-62446D01*
Y-64985D01*
X121171Y-67524D01*
X123710Y-70063D01*
Y-72602D01*
X121171Y-75142D01*
X116093D01*
X113553Y-72602D01*
Y-70063D01*
X116093Y-67524D01*
X113553Y-64985D01*
Y-62446D01*
X116093Y-67524D02*
X121171D01*
X138945Y-59907D02*
X128789D01*
Y-67524D01*
X133867Y-64985D01*
X136406D01*
X138945Y-67524D01*
Y-72602D01*
X136406Y-75142D01*
X131328D01*
X128789Y-72602D01*
X-30108Y179275D02*
X-45343D01*
X-37726Y171657D01*
Y181814D01*
X-30108Y197049D02*
Y186892D01*
X-40265Y197049D01*
X-42804D01*
X-45343Y194510D01*
Y189431D01*
X-42804Y186892D01*
X-30108Y202127D02*
X-32648D01*
Y204666D01*
X-30108D01*
Y202127D01*
X-42804Y214823D02*
X-45343Y217362D01*
Y222441D01*
X-42804Y224980D01*
X-32648D01*
X-30108Y222441D01*
Y217362D01*
X-32648Y214823D01*
X-42804D01*
Y230058D02*
X-45343Y232597D01*
Y237676D01*
X-42804Y240215D01*
X-32648D01*
X-30108Y237676D01*
Y232597D01*
X-32648Y230058D01*
X-42804D01*
X81814Y-96142D02*
X71657D01*
X81814Y-85985D01*
Y-83446D01*
X79275Y-80906D01*
X74196D01*
X71657Y-83446D01*
X97049Y-96142D02*
X86892D01*
X97049Y-85985D01*
Y-83446D01*
X94510Y-80906D01*
X89431D01*
X86892Y-83446D01*
X102127Y-96142D02*
Y-93602D01*
X104666D01*
Y-96142D01*
X102127D01*
X114823Y-83446D02*
X117362Y-80906D01*
X122441D01*
X124980Y-83446D01*
Y-93602D01*
X122441Y-96142D01*
X117362D01*
X114823Y-93602D01*
Y-83446D01*
X130058D02*
X132597Y-80906D01*
X137676D01*
X140215Y-83446D01*
Y-93602D01*
X137676Y-96142D01*
X132597D01*
X130058Y-93602D01*
Y-83446D01*
D58*
X10750Y-66000D02*
X20750Y-62667D01*
X10750Y-66000D02*
X20750Y-69333D01*
X199250D02*
X209250Y-66000D01*
X199250Y-62667D02*
X209250Y-66000D01*
X10750D02*
X68863D01*
X143009D02*
X209250D01*
X10750Y-68540D02*
Y-3048D01*
X209250Y-68540D02*
Y-3048D01*
X-42583Y10000D02*
X-39250Y0D01*
X-35917Y10000D01*
X-39250Y420000D02*
X-35917Y410000D01*
X-42583D02*
X-39250Y420000D01*
Y0D02*
Y167593D01*
Y244279D02*
Y420000D01*
X-41790Y0D02*
X10750D01*
X-41790Y420000D02*
X-3048D01*
X0Y-87000D02*
X10000Y-83667D01*
X0Y-87000D02*
X10000Y-90333D01*
X210000D02*
X220000Y-87000D01*
X210000Y-83667D02*
X220000Y-87000D01*
X0D02*
X67593D01*
X144279D02*
X220000D01*
X0Y-89540D02*
Y28452D01*
X220000Y-89540D02*
Y28452D01*
X17780Y893135D02*
Y877900D01*
X27937D01*
X35554Y888057D02*
X40633D01*
X43172Y885518D01*
Y877900D01*
X35554D01*
X33015Y880439D01*
X35554Y882978D01*
X43172D01*
X48250Y888057D02*
Y880439D01*
X50789Y877900D01*
X58407D01*
Y875361D01*
X55868Y872822D01*
X53328D01*
X58407Y877900D02*
Y888057D01*
X71103Y877900D02*
X66024D01*
X63485Y880439D01*
Y885518D01*
X66024Y888057D01*
X71103D01*
X73642Y885518D01*
Y882978D01*
X63485D01*
X78720Y888057D02*
Y877900D01*
Y882978D01*
X81259Y885518D01*
X83799Y888057D01*
X86338D01*
X25398Y603580D02*
Y618815D01*
X17780Y611198D01*
X27937D01*
X17780Y677236D02*
X20319Y679775D01*
X25398D01*
X27937Y677236D01*
Y674697D01*
X25398Y672158D01*
X22858D01*
X25398D01*
X27937Y669618D01*
Y667079D01*
X25398Y664540D01*
X20319D01*
X17780Y667079D01*
X27937Y725500D02*
X17780D01*
X27937Y735657D01*
Y738196D01*
X25398Y740735D01*
X20319D01*
X17780Y738196D01*
Y786460D02*
X22858D01*
X20319D01*
Y801695D01*
X17780Y799156D01*
X121898Y877900D02*
Y893135D01*
X132055Y877900D01*
Y893135D01*
X139672Y888057D02*
X144750D01*
X147290Y885518D01*
Y877900D01*
X139672D01*
X137133Y880439D01*
X139672Y882978D01*
X147290D01*
X152368Y877900D02*
Y888057D01*
X154907D01*
X157446Y885518D01*
Y877900D01*
Y885518D01*
X159986Y888057D01*
X162525Y885518D01*
Y877900D01*
X175221D02*
X170142D01*
X167603Y880439D01*
Y885518D01*
X170142Y888057D01*
X175221D01*
X177760Y885518D01*
Y882978D01*
X167603D01*
X121898Y557855D02*
Y542620D01*
X129515D01*
X132055Y545159D01*
Y547698D01*
X129515Y550238D01*
X121898D01*
X129515D01*
X132055Y552777D01*
Y555316D01*
X129515Y557855D01*
X121898D01*
X139672Y542620D02*
X144750D01*
X147290Y545159D01*
Y550238D01*
X144750Y552777D01*
X139672D01*
X137133Y550238D01*
Y545159D01*
X139672Y542620D01*
X154907Y555316D02*
Y552777D01*
X152368D01*
X157446D01*
X154907D01*
Y545159D01*
X157446Y542620D01*
X167603Y555316D02*
Y552777D01*
X165064D01*
X170142D01*
X167603D01*
Y545159D01*
X170142Y542620D01*
X180299D02*
X185377D01*
X187917Y545159D01*
Y550238D01*
X185377Y552777D01*
X180299D01*
X177760Y550238D01*
Y545159D01*
X180299Y542620D01*
X192995D02*
Y552777D01*
X195534D01*
X198073Y550238D01*
Y542620D01*
Y550238D01*
X200612Y552777D01*
X203151Y550238D01*
Y542620D01*
X231082Y557855D02*
X226004D01*
X223465Y555316D01*
Y545159D01*
X226004Y542620D01*
X231082D01*
X233622Y545159D01*
Y555316D01*
X231082Y557855D01*
X238700Y552777D02*
X243778Y542620D01*
X248857Y552777D01*
X261553Y542620D02*
X256474D01*
X253935Y545159D01*
Y550238D01*
X256474Y552777D01*
X261553D01*
X264092Y550238D01*
Y547698D01*
X253935D01*
X269170Y552777D02*
Y542620D01*
Y547698D01*
X271709Y550238D01*
X274249Y552777D01*
X276788D01*
X284405Y542620D02*
X289484D01*
X286944D01*
Y557855D01*
X284405D01*
X299640Y552777D02*
X304719D01*
X307258Y550238D01*
Y542620D01*
X299640D01*
X297101Y545159D01*
X299640Y547698D01*
X307258D01*
X312336Y552777D02*
Y545159D01*
X314875Y542620D01*
X322493D01*
Y540081D01*
X319954Y537542D01*
X317415D01*
X322493Y542620D02*
Y552777D01*
X121898Y588335D02*
Y573100D01*
X129515D01*
X132055Y575639D01*
Y578178D01*
X129515Y580718D01*
X121898D01*
X129515D01*
X132055Y583257D01*
Y585796D01*
X129515Y588335D01*
X121898D01*
X139672Y573100D02*
X144750D01*
X147290Y575639D01*
Y580718D01*
X144750Y583257D01*
X139672D01*
X137133Y580718D01*
Y575639D01*
X139672Y573100D01*
X154907Y585796D02*
Y583257D01*
X152368D01*
X157446D01*
X154907D01*
Y575639D01*
X157446Y573100D01*
X167603Y585796D02*
Y583257D01*
X165064D01*
X170142D01*
X167603D01*
Y575639D01*
X170142Y573100D01*
X180299D02*
X185377D01*
X187917Y575639D01*
Y580718D01*
X185377Y583257D01*
X180299D01*
X177760Y580718D01*
Y575639D01*
X180299Y573100D01*
X192995D02*
Y583257D01*
X195534D01*
X198073Y580718D01*
Y573100D01*
Y580718D01*
X200612Y583257D01*
X203151Y580718D01*
Y573100D01*
X233622Y585796D02*
X231082Y588335D01*
X226004D01*
X223465Y585796D01*
Y583257D01*
X226004Y580718D01*
X231082D01*
X233622Y578178D01*
Y575639D01*
X231082Y573100D01*
X226004D01*
X223465Y575639D01*
X241239Y573100D02*
X246318D01*
X248857Y575639D01*
Y580718D01*
X246318Y583257D01*
X241239D01*
X238700Y580718D01*
Y575639D01*
X241239Y573100D01*
X253935D02*
X259014D01*
X256474D01*
Y588335D01*
X253935D01*
X276788D02*
Y573100D01*
X269170D01*
X266631Y575639D01*
Y580718D01*
X269170Y583257D01*
X276788D01*
X289484Y573100D02*
X284405D01*
X281866Y575639D01*
Y580718D01*
X284405Y583257D01*
X289484D01*
X292023Y580718D01*
Y578178D01*
X281866D01*
X297101Y583257D02*
Y573100D01*
Y578178D01*
X299640Y580718D01*
X302180Y583257D01*
X304719D01*
X121898Y618815D02*
Y603580D01*
X132055D01*
X137133Y616276D02*
X139672Y618815D01*
X144750D01*
X147290Y616276D01*
Y606119D01*
X144750Y603580D01*
X139672D01*
X137133Y606119D01*
Y616276D01*
X159986Y603580D02*
Y618815D01*
X152368Y611198D01*
X162525D01*
X167603D02*
X177760D01*
X182838Y618815D02*
Y603580D01*
X190456D01*
X192995Y606119D01*
Y608658D01*
X190456Y611198D01*
X182838D01*
X190456D01*
X192995Y613737D01*
Y616276D01*
X190456Y618815D01*
X182838D01*
X200612Y603580D02*
X205691D01*
X208230Y606119D01*
Y611198D01*
X205691Y613737D01*
X200612D01*
X198073Y611198D01*
Y606119D01*
X200612Y603580D01*
X215847Y616276D02*
Y613737D01*
X213308D01*
X218387D01*
X215847D01*
Y606119D01*
X218387Y603580D01*
X228543Y616276D02*
Y613737D01*
X226004D01*
X231082D01*
X228543D01*
Y606119D01*
X231082Y603580D01*
X241239D02*
X246318D01*
X248857Y606119D01*
Y611198D01*
X246318Y613737D01*
X241239D01*
X238700Y611198D01*
Y606119D01*
X241239Y603580D01*
X253935D02*
Y613737D01*
X256474D01*
X259014Y611198D01*
Y603580D01*
Y611198D01*
X261553Y613737D01*
X264092Y611198D01*
Y603580D01*
X284405Y618815D02*
Y603580D01*
X294562D01*
X302180Y613737D02*
X307258D01*
X309797Y611198D01*
Y603580D01*
X302180D01*
X299640Y606119D01*
X302180Y608658D01*
X309797D01*
X314875Y613737D02*
Y606119D01*
X317415Y603580D01*
X325032D01*
Y601041D01*
X322493Y598502D01*
X319954D01*
X325032Y603580D02*
Y613737D01*
X337728Y603580D02*
X332650D01*
X330111Y606119D01*
Y611198D01*
X332650Y613737D01*
X337728D01*
X340267Y611198D01*
Y608658D01*
X330111D01*
X345345Y613737D02*
Y603580D01*
Y608658D01*
X347885Y611198D01*
X350424Y613737D01*
X352963D01*
X121898Y649295D02*
Y634060D01*
X129515D01*
X132055Y636599D01*
Y646756D01*
X129515Y649295D01*
X121898D01*
X137133Y634060D02*
X142211D01*
X139672D01*
Y644217D01*
X137133D01*
X157446Y634060D02*
X152368D01*
X149829Y636599D01*
Y641677D01*
X152368Y644217D01*
X157446D01*
X159986Y641677D01*
Y639138D01*
X149829D01*
X165064Y634060D02*
X170142D01*
X167603D01*
Y649295D01*
X165064D01*
X185377Y634060D02*
X180299D01*
X177760Y636599D01*
Y641677D01*
X180299Y644217D01*
X185377D01*
X187917Y641677D01*
Y639138D01*
X177760D01*
X203151Y644217D02*
X195534D01*
X192995Y641677D01*
Y636599D01*
X195534Y634060D01*
X203151D01*
X210769Y646756D02*
Y644217D01*
X208230D01*
X213308D01*
X210769D01*
Y636599D01*
X213308Y634060D01*
X220926Y644217D02*
Y634060D01*
Y639138D01*
X223465Y641677D01*
X226004Y644217D01*
X228543D01*
X236161Y634060D02*
X241239D01*
X238700D01*
Y644217D01*
X236161D01*
X259014D02*
X251396D01*
X248857Y641677D01*
Y636599D01*
X251396Y634060D01*
X259014D01*
X279327Y646756D02*
X281866Y649295D01*
X286944D01*
X289484Y646756D01*
Y644217D01*
X286944Y641677D01*
X284405D01*
X286944D01*
X289484Y639138D01*
Y636599D01*
X286944Y634060D01*
X281866D01*
X279327Y636599D01*
X121898Y679775D02*
Y664540D01*
X132055D01*
X137133Y677236D02*
X139672Y679775D01*
X144750D01*
X147290Y677236D01*
Y667079D01*
X144750Y664540D01*
X139672D01*
X137133Y667079D01*
Y677236D01*
X152368D02*
X154907Y679775D01*
X159986D01*
X162525Y677236D01*
Y674697D01*
X159986Y672158D01*
X157446D01*
X159986D01*
X162525Y669618D01*
Y667079D01*
X159986Y664540D01*
X154907D01*
X152368Y667079D01*
X167603Y672158D02*
X177760D01*
X182838Y679775D02*
X187917D01*
X185377D01*
Y664540D01*
X182838D01*
X187917D01*
X195534D02*
Y674697D01*
X203151D01*
X205691Y672158D01*
Y664540D01*
X210769D02*
Y674697D01*
X218387D01*
X220926Y672158D01*
Y664540D01*
X233622D02*
X228543D01*
X226004Y667079D01*
Y672158D01*
X228543Y674697D01*
X233622D01*
X236161Y672158D01*
Y669618D01*
X226004D01*
X241239Y674697D02*
Y664540D01*
Y669618D01*
X243778Y672158D01*
X246318Y674697D01*
X248857D01*
X271709Y679775D02*
Y664540D01*
X281866D01*
X289484Y674697D02*
X294562D01*
X297101Y672158D01*
Y664540D01*
X289484D01*
X286944Y667079D01*
X289484Y669618D01*
X297101D01*
X302180Y674697D02*
Y667079D01*
X304719Y664540D01*
X312336D01*
Y662001D01*
X309797Y659462D01*
X307258D01*
X312336Y664540D02*
Y674697D01*
X325032Y664540D02*
X319954D01*
X317415Y667079D01*
Y672158D01*
X319954Y674697D01*
X325032D01*
X327571Y672158D01*
Y669618D01*
X317415D01*
X332650Y674697D02*
Y664540D01*
Y669618D01*
X335189Y672158D01*
X337728Y674697D01*
X340267D01*
X121898Y710255D02*
Y695020D01*
X129515D01*
X132055Y697559D01*
Y707716D01*
X129515Y710255D01*
X121898D01*
X137133Y695020D02*
X142211D01*
X139672D01*
Y705177D01*
X137133D01*
X157446Y695020D02*
X152368D01*
X149829Y697559D01*
Y702637D01*
X152368Y705177D01*
X157446D01*
X159986Y702637D01*
Y700098D01*
X149829D01*
X165064Y695020D02*
X170142D01*
X167603D01*
Y710255D01*
X165064D01*
X185377Y695020D02*
X180299D01*
X177760Y697559D01*
Y702637D01*
X180299Y705177D01*
X185377D01*
X187917Y702637D01*
Y700098D01*
X177760D01*
X203151Y705177D02*
X195534D01*
X192995Y702637D01*
Y697559D01*
X195534Y695020D01*
X203151D01*
X210769Y707716D02*
Y705177D01*
X208230D01*
X213308D01*
X210769D01*
Y697559D01*
X213308Y695020D01*
X220926Y705177D02*
Y695020D01*
Y700098D01*
X223465Y702637D01*
X226004Y705177D01*
X228543D01*
X236161Y695020D02*
X241239D01*
X238700D01*
Y705177D01*
X236161D01*
X259014D02*
X251396D01*
X248857Y702637D01*
Y697559D01*
X251396Y695020D01*
X259014D01*
X289484D02*
X279327D01*
X289484Y705177D01*
Y707716D01*
X286944Y710255D01*
X281866D01*
X279327Y707716D01*
X121898Y740735D02*
Y725500D01*
X132055D01*
X137133Y738196D02*
X139672Y740735D01*
X144750D01*
X147290Y738196D01*
Y728039D01*
X144750Y725500D01*
X139672D01*
X137133Y728039D01*
Y738196D01*
X162525Y725500D02*
X152368D01*
X162525Y735657D01*
Y738196D01*
X159986Y740735D01*
X154907D01*
X152368Y738196D01*
X167603Y733118D02*
X177760D01*
X182838Y740735D02*
X187917D01*
X185377D01*
Y725500D01*
X182838D01*
X187917D01*
X195534D02*
Y735657D01*
X203151D01*
X205691Y733118D01*
Y725500D01*
X210769D02*
Y735657D01*
X218387D01*
X220926Y733118D01*
Y725500D01*
X233622D02*
X228543D01*
X226004Y728039D01*
Y733118D01*
X228543Y735657D01*
X233622D01*
X236161Y733118D01*
Y730578D01*
X226004D01*
X241239Y735657D02*
Y725500D01*
Y730578D01*
X243778Y733118D01*
X246318Y735657D01*
X248857D01*
X271709Y740735D02*
Y725500D01*
X281866D01*
X289484Y735657D02*
X294562D01*
X297101Y733118D01*
Y725500D01*
X289484D01*
X286944Y728039D01*
X289484Y730578D01*
X297101D01*
X302180Y735657D02*
Y728039D01*
X304719Y725500D01*
X312336D01*
Y722961D01*
X309797Y720422D01*
X307258D01*
X312336Y725500D02*
Y735657D01*
X325032Y725500D02*
X319954D01*
X317415Y728039D01*
Y733118D01*
X319954Y735657D01*
X325032D01*
X327571Y733118D01*
Y730578D01*
X317415D01*
X332650Y735657D02*
Y725500D01*
Y730578D01*
X335189Y733118D01*
X337728Y735657D01*
X340267D01*
X121898Y771215D02*
Y755980D01*
X129515D01*
X132055Y758519D01*
Y768676D01*
X129515Y771215D01*
X121898D01*
X137133Y755980D02*
X142211D01*
X139672D01*
Y766137D01*
X137133D01*
X157446Y755980D02*
X152368D01*
X149829Y758519D01*
Y763597D01*
X152368Y766137D01*
X157446D01*
X159986Y763597D01*
Y761058D01*
X149829D01*
X165064Y755980D02*
X170142D01*
X167603D01*
Y771215D01*
X165064D01*
X185377Y755980D02*
X180299D01*
X177760Y758519D01*
Y763597D01*
X180299Y766137D01*
X185377D01*
X187917Y763597D01*
Y761058D01*
X177760D01*
X203151Y766137D02*
X195534D01*
X192995Y763597D01*
Y758519D01*
X195534Y755980D01*
X203151D01*
X210769Y768676D02*
Y766137D01*
X208230D01*
X213308D01*
X210769D01*
Y758519D01*
X213308Y755980D01*
X220926Y766137D02*
Y755980D01*
Y761058D01*
X223465Y763597D01*
X226004Y766137D01*
X228543D01*
X236161Y755980D02*
X241239D01*
X238700D01*
Y766137D01*
X236161D01*
X259014D02*
X251396D01*
X248857Y763597D01*
Y758519D01*
X251396Y755980D01*
X259014D01*
X279327D02*
X284405D01*
X281866D01*
Y771215D01*
X279327Y768676D01*
X121898Y801695D02*
Y786460D01*
X132055D01*
X137133Y799156D02*
X139672Y801695D01*
X144750D01*
X147290Y799156D01*
Y788999D01*
X144750Y786460D01*
X139672D01*
X137133Y788999D01*
Y799156D01*
X152368Y786460D02*
X157446D01*
X154907D01*
Y801695D01*
X152368Y799156D01*
X165064Y794078D02*
X175221D01*
X180299Y801695D02*
X190456D01*
X185377D01*
Y786460D01*
X198073D02*
X203151D01*
X205691Y788999D01*
Y794078D01*
X203151Y796617D01*
X198073D01*
X195534Y794078D01*
Y788999D01*
X198073Y786460D01*
X210769Y781382D02*
Y796617D01*
X218387D01*
X220926Y794078D01*
Y788999D01*
X218387Y786460D01*
X210769D01*
X241239Y801695D02*
Y786460D01*
X251396D01*
X259014Y796617D02*
X264092D01*
X266631Y794078D01*
Y786460D01*
X259014D01*
X256474Y788999D01*
X259014Y791538D01*
X266631D01*
X271709Y796617D02*
Y788999D01*
X274249Y786460D01*
X281866D01*
Y783921D01*
X279327Y781382D01*
X276788D01*
X281866Y786460D02*
Y796617D01*
X294562Y786460D02*
X289484D01*
X286944Y788999D01*
Y794078D01*
X289484Y796617D01*
X294562D01*
X297101Y794078D01*
Y791538D01*
X286944D01*
X302180Y796617D02*
Y786460D01*
Y791538D01*
X304719Y794078D01*
X307258Y796617D01*
X309797D01*
X121898Y832175D02*
X132055D01*
X126976D01*
Y816940D01*
X139672D02*
X144750D01*
X147290Y819479D01*
Y824557D01*
X144750Y827097D01*
X139672D01*
X137133Y824557D01*
Y819479D01*
X139672Y816940D01*
X152368Y811862D02*
Y827097D01*
X159986D01*
X162525Y824557D01*
Y819479D01*
X159986Y816940D01*
X152368D01*
X192995Y829636D02*
X190456Y832175D01*
X185377D01*
X182838Y829636D01*
Y827097D01*
X185377Y824557D01*
X190456D01*
X192995Y822018D01*
Y819479D01*
X190456Y816940D01*
X185377D01*
X182838Y819479D01*
X200612Y816940D02*
X205691D01*
X208230Y819479D01*
Y824557D01*
X205691Y827097D01*
X200612D01*
X198073Y824557D01*
Y819479D01*
X200612Y816940D01*
X213308D02*
X218387D01*
X215847D01*
Y832175D01*
X213308D01*
X236161D02*
Y816940D01*
X228543D01*
X226004Y819479D01*
Y824557D01*
X228543Y827097D01*
X236161D01*
X248857Y816940D02*
X243778D01*
X241239Y819479D01*
Y824557D01*
X243778Y827097D01*
X248857D01*
X251396Y824557D01*
Y822018D01*
X241239D01*
X256474Y827097D02*
Y816940D01*
Y822018D01*
X259014Y824557D01*
X261553Y827097D01*
X264092D01*
X121898Y862655D02*
X132055D01*
X126976D01*
Y847420D01*
X139672D02*
X144750D01*
X147290Y849959D01*
Y855038D01*
X144750Y857577D01*
X139672D01*
X137133Y855038D01*
Y849959D01*
X139672Y847420D01*
X152368Y842342D02*
Y857577D01*
X159986D01*
X162525Y855038D01*
Y849959D01*
X159986Y847420D01*
X152368D01*
X190456Y862655D02*
X185377D01*
X182838Y860116D01*
Y849959D01*
X185377Y847420D01*
X190456D01*
X192995Y849959D01*
Y860116D01*
X190456Y862655D01*
X198073Y857577D02*
X203151Y847420D01*
X208230Y857577D01*
X220926Y847420D02*
X215847D01*
X213308Y849959D01*
Y855038D01*
X215847Y857577D01*
X220926D01*
X223465Y855038D01*
Y852498D01*
X213308D01*
X228543Y857577D02*
Y847420D01*
Y852498D01*
X231082Y855038D01*
X233622Y857577D01*
X236161D01*
X243778Y847420D02*
X248857D01*
X246318D01*
Y862655D01*
X243778D01*
X259014Y857577D02*
X264092D01*
X266631Y855038D01*
Y847420D01*
X259014D01*
X256474Y849959D01*
X259014Y852498D01*
X266631D01*
X271709Y857577D02*
Y849959D01*
X274249Y847420D01*
X281866D01*
Y844881D01*
X279327Y842342D01*
X276788D01*
X281866Y847420D02*
Y857577D01*
X388523Y877900D02*
Y893135D01*
X393601Y888057D01*
X398680Y893135D01*
Y877900D01*
X406297Y888057D02*
X411376D01*
X413915Y885518D01*
Y877900D01*
X406297D01*
X403758Y880439D01*
X406297Y882978D01*
X413915D01*
X421532Y890596D02*
Y888057D01*
X418993D01*
X424072D01*
X421532D01*
Y880439D01*
X424072Y877900D01*
X439307D02*
X434228D01*
X431689Y880439D01*
Y885518D01*
X434228Y888057D01*
X439307D01*
X441846Y885518D01*
Y882978D01*
X431689D01*
X446924Y888057D02*
Y877900D01*
Y882978D01*
X449463Y885518D01*
X452002Y888057D01*
X454542D01*
X462159Y877900D02*
X467238D01*
X464698D01*
Y888057D01*
X462159D01*
X477394D02*
X482473D01*
X485012Y885518D01*
Y877900D01*
X477394D01*
X474855Y880439D01*
X477394Y882978D01*
X485012D01*
X490090Y877900D02*
X495169D01*
X492629D01*
Y893135D01*
X490090D01*
X398680Y585796D02*
X396141Y588335D01*
X391062D01*
X388523Y585796D01*
Y583257D01*
X391062Y580718D01*
X396141D01*
X398680Y578178D01*
Y575639D01*
X396141Y573100D01*
X391062D01*
X388523Y575639D01*
X406297Y573100D02*
X411376D01*
X413915Y575639D01*
Y580718D01*
X411376Y583257D01*
X406297D01*
X403758Y580718D01*
Y575639D01*
X406297Y573100D01*
X418993D02*
X424072D01*
X421532D01*
Y588335D01*
X418993D01*
X441846D02*
Y573100D01*
X434228D01*
X431689Y575639D01*
Y580718D01*
X434228Y583257D01*
X441846D01*
X454542Y573100D02*
X449463D01*
X446924Y575639D01*
Y580718D01*
X449463Y583257D01*
X454542D01*
X457081Y580718D01*
Y578178D01*
X446924D01*
X462159Y583257D02*
Y573100D01*
Y578178D01*
X464698Y580718D01*
X467238Y583257D01*
X469777D01*
X492629Y573100D02*
Y588335D01*
X500247D01*
X502786Y585796D01*
Y580718D01*
X500247Y578178D01*
X492629D01*
X497708D02*
X502786Y573100D01*
X515482D02*
X510404D01*
X507864Y575639D01*
Y580718D01*
X510404Y583257D01*
X515482D01*
X518021Y580718D01*
Y578178D01*
X507864D01*
X523100Y573100D02*
X530717D01*
X533256Y575639D01*
X530717Y578178D01*
X525639D01*
X523100Y580718D01*
X525639Y583257D01*
X533256D01*
X538335Y573100D02*
X543413D01*
X540874D01*
Y583257D01*
X538335D01*
X551031Y573100D02*
X558648D01*
X561187Y575639D01*
X558648Y578178D01*
X553570D01*
X551031Y580718D01*
X553570Y583257D01*
X561187D01*
X568805Y585796D02*
Y583257D01*
X566266D01*
X571344D01*
X568805D01*
Y575639D01*
X571344Y573100D01*
X398680Y634060D02*
X388523D01*
X398680Y644217D01*
Y646756D01*
X396141Y649295D01*
X391062D01*
X388523Y646756D01*
X403758Y634060D02*
X408837D01*
X406297D01*
Y649295D01*
X403758Y646756D01*
X416454Y634060D02*
X421532D01*
X418993D01*
Y649295D01*
X416454Y646756D01*
X439307Y649295D02*
X434228Y646756D01*
X429150Y641677D01*
Y636599D01*
X431689Y634060D01*
X436768D01*
X439307Y636599D01*
Y639138D01*
X436768Y641677D01*
X429150D01*
X398680Y710255D02*
X388523D01*
Y702637D01*
X393601D01*
X388523D01*
Y695020D01*
X403758D02*
Y710255D01*
X411376D01*
X413915Y707716D01*
Y702637D01*
X411376Y700098D01*
X403758D01*
X408837D02*
X413915Y695020D01*
X426611D02*
Y710255D01*
X418993Y702637D01*
X429150D01*
X398680Y755980D02*
X388523D01*
X398680Y766137D01*
Y768676D01*
X396141Y771215D01*
X391062D01*
X388523Y768676D01*
X403758Y755980D02*
X408837D01*
X406297D01*
Y771215D01*
X403758Y768676D01*
X416454Y755980D02*
X421532D01*
X418993D01*
Y771215D01*
X416454Y768676D01*
X439307Y771215D02*
X434228Y768676D01*
X429150Y763597D01*
Y758519D01*
X431689Y755980D01*
X436768D01*
X439307Y758519D01*
Y761058D01*
X436768Y763597D01*
X429150D01*
X398680Y829636D02*
X396141Y832175D01*
X391062D01*
X388523Y829636D01*
Y827097D01*
X391062Y824557D01*
X396141D01*
X398680Y822018D01*
Y819479D01*
X396141Y816940D01*
X391062D01*
X388523Y819479D01*
X406297Y816940D02*
X411376D01*
X413915Y819479D01*
Y824557D01*
X411376Y827097D01*
X406297D01*
X403758Y824557D01*
Y819479D01*
X406297Y816940D01*
X418993D02*
X424072D01*
X421532D01*
Y832175D01*
X418993D01*
X441846D02*
Y816940D01*
X434228D01*
X431689Y819479D01*
Y824557D01*
X434228Y827097D01*
X441846D01*
X454542Y816940D02*
X449463D01*
X446924Y819479D01*
Y824557D01*
X449463Y827097D01*
X454542D01*
X457081Y824557D01*
Y822018D01*
X446924D01*
X462159Y827097D02*
Y816940D01*
Y822018D01*
X464698Y824557D01*
X467238Y827097D01*
X469777D01*
X492629Y816940D02*
Y832175D01*
X500247D01*
X502786Y829636D01*
Y824557D01*
X500247Y822018D01*
X492629D01*
X497708D02*
X502786Y816940D01*
X515482D02*
X510404D01*
X507864Y819479D01*
Y824557D01*
X510404Y827097D01*
X515482D01*
X518021Y824557D01*
Y822018D01*
X507864D01*
X523100Y816940D02*
X530717D01*
X533256Y819479D01*
X530717Y822018D01*
X525639D01*
X523100Y824557D01*
X525639Y827097D01*
X533256D01*
X538335Y816940D02*
X543413D01*
X540874D01*
Y827097D01*
X538335D01*
X551031Y816940D02*
X558648D01*
X561187Y819479D01*
X558648Y822018D01*
X553570D01*
X551031Y824557D01*
X553570Y827097D01*
X561187D01*
X568805Y829636D02*
Y827097D01*
X566266D01*
X571344D01*
X568805D01*
Y819479D01*
X571344Y816940D01*
X606904Y893135D02*
X617061D01*
X611982D01*
Y877900D01*
X622139Y893135D02*
Y877900D01*
Y885518D01*
X624678Y888057D01*
X629757D01*
X632296Y885518D01*
Y877900D01*
X637374D02*
X642452D01*
X639913D01*
Y888057D01*
X637374D01*
X660227D02*
X652609D01*
X650070Y885518D01*
Y880439D01*
X652609Y877900D01*
X660227D01*
X665305D02*
Y893135D01*
Y882978D02*
X672923Y888057D01*
X665305Y882978D02*
X672923Y877900D01*
X680540D02*
Y888057D01*
X688158D01*
X690697Y885518D01*
Y877900D01*
X703393D02*
X698314D01*
X695775Y880439D01*
Y885518D01*
X698314Y888057D01*
X703393D01*
X705932Y885518D01*
Y882978D01*
X695775D01*
X711010Y877900D02*
X718628D01*
X721167Y880439D01*
X718628Y882978D01*
X713549D01*
X711010Y885518D01*
X713549Y888057D01*
X721167D01*
X726245Y877900D02*
X733863D01*
X736402Y880439D01*
X733863Y882978D01*
X728784D01*
X726245Y885518D01*
X728784Y888057D01*
X736402D01*
X606904Y585796D02*
X609443Y588335D01*
X614521D01*
X617061Y585796D01*
Y575639D01*
X614521Y573100D01*
X609443D01*
X606904Y575639D01*
Y585796D01*
X622139Y573100D02*
Y575639D01*
X624678D01*
Y573100D01*
X622139D01*
X634835Y585796D02*
X637374Y588335D01*
X642452D01*
X644992Y585796D01*
Y575639D01*
X642452Y573100D01*
X637374D01*
X634835Y575639D01*
Y585796D01*
X650070Y573100D02*
X655148D01*
X652609D01*
Y588335D01*
X650070Y585796D01*
X672923Y588335D02*
X662766D01*
Y580718D01*
X667844Y583257D01*
X670383D01*
X672923Y580718D01*
Y575639D01*
X670383Y573100D01*
X665305D01*
X662766Y575639D01*
X678001Y573100D02*
Y583257D01*
X680540D01*
X683079Y580718D01*
Y573100D01*
Y580718D01*
X685618Y583257D01*
X688158Y580718D01*
Y573100D01*
X693236D02*
Y583257D01*
X695775D01*
X698314Y580718D01*
Y573100D01*
Y580718D01*
X700854Y583257D01*
X703393Y580718D01*
Y573100D01*
X606904Y616276D02*
X609443Y618815D01*
X614521D01*
X617061Y616276D01*
Y606119D01*
X614521Y603580D01*
X609443D01*
X606904Y606119D01*
Y616276D01*
X622139Y603580D02*
Y606119D01*
X624678D01*
Y603580D01*
X622139D01*
X634835Y616276D02*
X637374Y618815D01*
X642452D01*
X644992Y616276D01*
Y606119D01*
X642452Y603580D01*
X637374D01*
X634835Y606119D01*
Y616276D01*
X650070D02*
X652609Y618815D01*
X657688D01*
X660227Y616276D01*
Y613737D01*
X657688Y611198D01*
X655148D01*
X657688D01*
X660227Y608658D01*
Y606119D01*
X657688Y603580D01*
X652609D01*
X650070Y606119D01*
X675462Y618815D02*
X665305D01*
Y611198D01*
X670383Y613737D01*
X672923D01*
X675462Y611198D01*
Y606119D01*
X672923Y603580D01*
X667844D01*
X665305Y606119D01*
X680540Y603580D02*
Y613737D01*
X683079D01*
X685618Y611198D01*
Y603580D01*
Y611198D01*
X688158Y613737D01*
X690697Y611198D01*
Y603580D01*
X695775D02*
Y613737D01*
X698314D01*
X700854Y611198D01*
Y603580D01*
Y611198D01*
X703393Y613737D01*
X705932Y611198D01*
Y603580D01*
X606904Y646756D02*
X609443Y649295D01*
X614521D01*
X617061Y646756D01*
Y636599D01*
X614521Y634060D01*
X609443D01*
X606904Y636599D01*
Y646756D01*
X622139Y634060D02*
Y636599D01*
X624678D01*
Y634060D01*
X622139D01*
X634835D02*
X639913D01*
X637374D01*
Y649295D01*
X634835Y646756D01*
X647531Y634060D02*
X652609D01*
X650070D01*
Y649295D01*
X647531Y646756D01*
X660227D02*
X662766Y649295D01*
X667844D01*
X670383Y646756D01*
Y636599D01*
X667844Y634060D01*
X662766D01*
X660227Y636599D01*
Y646756D01*
X675462Y634060D02*
Y644217D01*
X678001D01*
X680540Y641677D01*
Y634060D01*
Y641677D01*
X683079Y644217D01*
X685618Y641677D01*
Y634060D01*
X690697D02*
Y644217D01*
X693236D01*
X695775Y641677D01*
Y634060D01*
Y641677D01*
X698314Y644217D01*
X700854Y641677D01*
Y634060D01*
X606904Y677236D02*
X609443Y679775D01*
X614521D01*
X617061Y677236D01*
Y667079D01*
X614521Y664540D01*
X609443D01*
X606904Y667079D01*
Y677236D01*
X622139Y664540D02*
Y667079D01*
X624678D01*
Y664540D01*
X622139D01*
X634835Y677236D02*
X637374Y679775D01*
X642452D01*
X644992Y677236D01*
Y667079D01*
X642452Y664540D01*
X637374D01*
X634835Y667079D01*
Y677236D01*
X650070D02*
X652609Y679775D01*
X657688D01*
X660227Y677236D01*
Y674697D01*
X657688Y672158D01*
X655148D01*
X657688D01*
X660227Y669618D01*
Y667079D01*
X657688Y664540D01*
X652609D01*
X650070Y667079D01*
X675462Y679775D02*
X665305D01*
Y672158D01*
X670383Y674697D01*
X672923D01*
X675462Y672158D01*
Y667079D01*
X672923Y664540D01*
X667844D01*
X665305Y667079D01*
X680540Y664540D02*
Y674697D01*
X683079D01*
X685618Y672158D01*
Y664540D01*
Y672158D01*
X688158Y674697D01*
X690697Y672158D01*
Y664540D01*
X695775D02*
Y674697D01*
X698314D01*
X700854Y672158D01*
Y664540D01*
Y672158D01*
X703393Y674697D01*
X705932Y672158D01*
Y664540D01*
X606904Y707716D02*
X609443Y710255D01*
X614521D01*
X617061Y707716D01*
Y697559D01*
X614521Y695020D01*
X609443D01*
X606904Y697559D01*
Y707716D01*
X622139Y695020D02*
Y697559D01*
X624678D01*
Y695020D01*
X622139D01*
X642452D02*
Y710255D01*
X634835Y702637D01*
X644992D01*
X650070Y707716D02*
X652609Y710255D01*
X657688D01*
X660227Y707716D01*
Y697559D01*
X657688Y695020D01*
X652609D01*
X650070Y697559D01*
Y707716D01*
X665305D02*
X667844Y710255D01*
X672923D01*
X675462Y707716D01*
Y697559D01*
X672923Y695020D01*
X667844D01*
X665305Y697559D01*
Y707716D01*
X680540Y695020D02*
Y705177D01*
X683079D01*
X685618Y702637D01*
Y695020D01*
Y702637D01*
X688158Y705177D01*
X690697Y702637D01*
Y695020D01*
X695775D02*
Y705177D01*
X698314D01*
X700854Y702637D01*
Y695020D01*
Y702637D01*
X703393Y705177D01*
X705932Y702637D01*
Y695020D01*
X606904Y738196D02*
X609443Y740735D01*
X614521D01*
X617061Y738196D01*
Y728039D01*
X614521Y725500D01*
X609443D01*
X606904Y728039D01*
Y738196D01*
X622139Y725500D02*
Y728039D01*
X624678D01*
Y725500D01*
X622139D01*
X634835Y738196D02*
X637374Y740735D01*
X642452D01*
X644992Y738196D01*
Y728039D01*
X642452Y725500D01*
X637374D01*
X634835Y728039D01*
Y738196D01*
X650070D02*
X652609Y740735D01*
X657688D01*
X660227Y738196D01*
Y735657D01*
X657688Y733118D01*
X655148D01*
X657688D01*
X660227Y730578D01*
Y728039D01*
X657688Y725500D01*
X652609D01*
X650070Y728039D01*
X675462Y740735D02*
X665305D01*
Y733118D01*
X670383Y735657D01*
X672923D01*
X675462Y733118D01*
Y728039D01*
X672923Y725500D01*
X667844D01*
X665305Y728039D01*
X680540Y725500D02*
Y735657D01*
X683079D01*
X685618Y733118D01*
Y725500D01*
Y733118D01*
X688158Y735657D01*
X690697Y733118D01*
Y725500D01*
X695775D02*
Y735657D01*
X698314D01*
X700854Y733118D01*
Y725500D01*
Y733118D01*
X703393Y735657D01*
X705932Y733118D01*
Y725500D01*
X606904Y768676D02*
X609443Y771215D01*
X614521D01*
X617061Y768676D01*
Y758519D01*
X614521Y755980D01*
X609443D01*
X606904Y758519D01*
Y768676D01*
X622139Y755980D02*
Y758519D01*
X624678D01*
Y755980D01*
X622139D01*
X634835D02*
X639913D01*
X637374D01*
Y771215D01*
X634835Y768676D01*
X647531Y755980D02*
X652609D01*
X650070D01*
Y771215D01*
X647531Y768676D01*
X660227D02*
X662766Y771215D01*
X667844D01*
X670383Y768676D01*
Y758519D01*
X667844Y755980D01*
X662766D01*
X660227Y758519D01*
Y768676D01*
X675462Y755980D02*
Y766137D01*
X678001D01*
X680540Y763597D01*
Y755980D01*
Y763597D01*
X683079Y766137D01*
X685618Y763597D01*
Y755980D01*
X690697D02*
Y766137D01*
X693236D01*
X695775Y763597D01*
Y755980D01*
Y763597D01*
X698314Y766137D01*
X700854Y763597D01*
Y755980D01*
X606904Y799156D02*
X609443Y801695D01*
X614521D01*
X617061Y799156D01*
Y788999D01*
X614521Y786460D01*
X609443D01*
X606904Y788999D01*
Y799156D01*
X622139Y786460D02*
Y788999D01*
X624678D01*
Y786460D01*
X622139D01*
X634835Y799156D02*
X637374Y801695D01*
X642452D01*
X644992Y799156D01*
Y788999D01*
X642452Y786460D01*
X637374D01*
X634835Y788999D01*
Y799156D01*
X650070D02*
X652609Y801695D01*
X657688D01*
X660227Y799156D01*
Y796617D01*
X657688Y794078D01*
X655148D01*
X657688D01*
X660227Y791538D01*
Y788999D01*
X657688Y786460D01*
X652609D01*
X650070Y788999D01*
X675462Y801695D02*
X665305D01*
Y794078D01*
X670383Y796617D01*
X672923D01*
X675462Y794078D01*
Y788999D01*
X672923Y786460D01*
X667844D01*
X665305Y788999D01*
X680540Y786460D02*
Y796617D01*
X683079D01*
X685618Y794078D01*
Y786460D01*
Y794078D01*
X688158Y796617D01*
X690697Y794078D01*
Y786460D01*
X695775D02*
Y796617D01*
X698314D01*
X700854Y794078D01*
Y786460D01*
Y794078D01*
X703393Y796617D01*
X705932Y794078D01*
Y786460D01*
X606904Y829636D02*
X609443Y832175D01*
X614521D01*
X617061Y829636D01*
Y819479D01*
X614521Y816940D01*
X609443D01*
X606904Y819479D01*
Y829636D01*
X622139Y816940D02*
Y819479D01*
X624678D01*
Y816940D01*
X622139D01*
X634835Y829636D02*
X637374Y832175D01*
X642452D01*
X644992Y829636D01*
Y819479D01*
X642452Y816940D01*
X637374D01*
X634835Y819479D01*
Y829636D01*
X650070Y816940D02*
X655148D01*
X652609D01*
Y832175D01*
X650070Y829636D01*
X672923Y832175D02*
X662766D01*
Y824557D01*
X667844Y827097D01*
X670383D01*
X672923Y824557D01*
Y819479D01*
X670383Y816940D01*
X665305D01*
X662766Y819479D01*
X678001Y816940D02*
Y827097D01*
X680540D01*
X683079Y824557D01*
Y816940D01*
Y824557D01*
X685618Y827097D01*
X688158Y824557D01*
Y816940D01*
X693236D02*
Y827097D01*
X695775D01*
X698314Y824557D01*
Y816940D01*
Y824557D01*
X700854Y827097D01*
X703393Y824557D01*
Y816940D01*
X782119Y890596D02*
X779580Y893135D01*
X774501D01*
X771962Y890596D01*
Y880439D01*
X774501Y877900D01*
X779580D01*
X782119Y880439D01*
X789736Y877900D02*
X794815D01*
X797354Y880439D01*
Y885518D01*
X794815Y888057D01*
X789736D01*
X787197Y885518D01*
Y880439D01*
X789736Y877900D01*
X802432D02*
Y888057D01*
X810050D01*
X812589Y885518D01*
Y877900D01*
X817667D02*
X825285D01*
X827824Y880439D01*
X825285Y882978D01*
X820206D01*
X817667Y885518D01*
X820206Y888057D01*
X827824D01*
X835442Y890596D02*
Y888057D01*
X832902D01*
X837981D01*
X835442D01*
Y880439D01*
X837981Y877900D01*
X848137Y888057D02*
X853216D01*
X855755Y885518D01*
Y877900D01*
X848137D01*
X845598Y880439D01*
X848137Y882978D01*
X855755D01*
X860833Y877900D02*
Y888057D01*
X868451D01*
X870990Y885518D01*
Y877900D01*
X878607Y890596D02*
Y888057D01*
X876068D01*
X881147D01*
X878607D01*
Y880439D01*
X881147Y877900D01*
X771962Y585796D02*
X774501Y588335D01*
X779580D01*
X782119Y585796D01*
Y583257D01*
X779580Y580718D01*
X777040D01*
X779580D01*
X782119Y578178D01*
Y575639D01*
X779580Y573100D01*
X774501D01*
X771962Y575639D01*
X787197Y573100D02*
Y575639D01*
X789736D01*
Y573100D01*
X787197D01*
X799893Y575639D02*
X802432Y573100D01*
X807511D01*
X810050Y575639D01*
Y585796D01*
X807511Y588335D01*
X802432D01*
X799893Y585796D01*
Y583257D01*
X802432Y580718D01*
X810050D01*
X771962Y646756D02*
X774501Y649295D01*
X779580D01*
X782119Y646756D01*
Y644217D01*
X779580Y641677D01*
X777040D01*
X779580D01*
X782119Y639138D01*
Y636599D01*
X779580Y634060D01*
X774501D01*
X771962Y636599D01*
X787197Y634060D02*
Y636599D01*
X789736D01*
Y634060D01*
X787197D01*
X799893Y649295D02*
X810050D01*
Y646756D01*
X799893Y636599D01*
Y634060D01*
X779580Y695020D02*
Y710255D01*
X771962Y702637D01*
X782119D01*
X787197Y695020D02*
Y697559D01*
X789736D01*
Y695020D01*
X787197D01*
X799893Y707716D02*
X802432Y710255D01*
X807511D01*
X810050Y707716D01*
Y697559D01*
X807511Y695020D01*
X802432D01*
X799893Y697559D01*
Y707716D01*
X822746Y695020D02*
Y710255D01*
X815128Y702637D01*
X825285D01*
X771962Y768676D02*
X774501Y771215D01*
X779580D01*
X782119Y768676D01*
Y766137D01*
X779580Y763597D01*
X777040D01*
X779580D01*
X782119Y761058D01*
Y758519D01*
X779580Y755980D01*
X774501D01*
X771962Y758519D01*
X787197Y755980D02*
Y758519D01*
X789736D01*
Y755980D01*
X787197D01*
X799893Y771215D02*
X810050D01*
Y768676D01*
X799893Y758519D01*
Y755980D01*
X771962Y829636D02*
X774501Y832175D01*
X779580D01*
X782119Y829636D01*
Y827097D01*
X779580Y824557D01*
X777040D01*
X779580D01*
X782119Y822018D01*
Y819479D01*
X779580Y816940D01*
X774501D01*
X771962Y819479D01*
X787197Y816940D02*
Y819479D01*
X789736D01*
Y816940D01*
X787197D01*
X799893Y819479D02*
X802432Y816940D01*
X807511D01*
X810050Y819479D01*
Y829636D01*
X807511Y832175D01*
X802432D01*
X799893Y829636D01*
Y827097D01*
X802432Y824557D01*
X810050D01*
X916707Y893135D02*
Y877900D01*
X924324D01*
X926863Y880439D01*
Y882978D01*
X924324Y885518D01*
X916707D01*
X924324D01*
X926863Y888057D01*
Y890596D01*
X924324Y893135D01*
X916707D01*
X934481Y877900D02*
X939559D01*
X942098Y880439D01*
Y885518D01*
X939559Y888057D01*
X934481D01*
X931942Y885518D01*
Y880439D01*
X934481Y877900D01*
X949716Y888057D02*
X954794D01*
X957334Y885518D01*
Y877900D01*
X949716D01*
X947177Y880439D01*
X949716Y882978D01*
X957334D01*
X962412Y888057D02*
Y877900D01*
Y882978D01*
X964951Y885518D01*
X967490Y888057D01*
X970030D01*
X987804Y893135D02*
Y877900D01*
X980186D01*
X977647Y880439D01*
Y885518D01*
X980186Y888057D01*
X987804D01*
X1008117Y893135D02*
Y877900D01*
X1018274D01*
X1025891Y888057D02*
X1030970D01*
X1033509Y885518D01*
Y877900D01*
X1025891D01*
X1023352Y880439D01*
X1025891Y882978D01*
X1033509D01*
X1038587Y888057D02*
Y880439D01*
X1041126Y877900D01*
X1048744D01*
Y875361D01*
X1046205Y872822D01*
X1043666D01*
X1048744Y877900D02*
Y888057D01*
X1061440Y877900D02*
X1056361D01*
X1053822Y880439D01*
Y885518D01*
X1056361Y888057D01*
X1061440D01*
X1063979Y885518D01*
Y882978D01*
X1053822D01*
X1069057Y888057D02*
Y877900D01*
Y882978D01*
X1071597Y885518D01*
X1074136Y888057D01*
X1076675D01*
X1109684Y890596D02*
X1107145Y893135D01*
X1102067D01*
X1099528Y890596D01*
Y888057D01*
X1102067Y885518D01*
X1107145D01*
X1109684Y882978D01*
Y880439D01*
X1107145Y877900D01*
X1102067D01*
X1099528Y880439D01*
X1117302Y890596D02*
Y888057D01*
X1114763D01*
X1119841D01*
X1117302D01*
Y880439D01*
X1119841Y877900D01*
X1129998Y888057D02*
X1135076D01*
X1137615Y885518D01*
Y877900D01*
X1129998D01*
X1127458Y880439D01*
X1129998Y882978D01*
X1137615D01*
X1152850Y888057D02*
X1145233D01*
X1142694Y885518D01*
Y880439D01*
X1145233Y877900D01*
X1152850D01*
X1157929D02*
Y893135D01*
Y882978D02*
X1165546Y888057D01*
X1157929Y882978D02*
X1165546Y877900D01*
D71*
X0Y870280D02*
X1183326D01*
X0Y900760D02*
X1183326D01*
X0Y535000D02*
Y900760D01*
Y535000D02*
X104118D01*
X0Y565480D02*
X104118D01*
X0Y595960D02*
X104118D01*
X0Y626440D02*
X104118D01*
X0Y656920D02*
X104118D01*
X0Y687400D02*
X104118D01*
X0Y717880D02*
X104118D01*
X0Y748360D02*
X104118D01*
X0Y778840D02*
X104118D01*
X0Y809320D02*
X104118D01*
X0Y839800D02*
X104118D01*
Y535000D02*
Y900760D01*
Y535000D02*
X370743D01*
X104118Y565480D02*
X370743D01*
X104118Y595960D02*
X370743D01*
X104118Y626440D02*
X370743D01*
X104118Y656920D02*
X370743D01*
X104118Y687400D02*
X370743D01*
X104118Y717880D02*
X370743D01*
X104118Y748360D02*
X370743D01*
X104118Y778840D02*
X370743D01*
X104118Y809320D02*
X370743D01*
X104118Y839800D02*
X370743D01*
Y535000D02*
Y900760D01*
Y535000D02*
X589124D01*
X370743Y565480D02*
X589124D01*
X370743Y595960D02*
X589124D01*
X370743Y626440D02*
X589124D01*
X370743Y656920D02*
X589124D01*
X370743Y687400D02*
X589124D01*
X370743Y717880D02*
X589124D01*
X370743Y748360D02*
X589124D01*
X370743Y778840D02*
X589124D01*
X370743Y809320D02*
X589124D01*
X370743Y839800D02*
X589124D01*
Y535000D02*
Y900760D01*
Y535000D02*
X754182D01*
X589124Y565480D02*
X754182D01*
X589124Y595960D02*
X754182D01*
X589124Y626440D02*
X754182D01*
X589124Y656920D02*
X754182D01*
X589124Y687400D02*
X754182D01*
X589124Y717880D02*
X754182D01*
X589124Y748360D02*
X754182D01*
X589124Y778840D02*
X754182D01*
X589124Y809320D02*
X754182D01*
X589124Y839800D02*
X754182D01*
Y535000D02*
Y900760D01*
Y535000D02*
X898927D01*
X754182Y565480D02*
X898927D01*
X754182Y595960D02*
X898927D01*
X754182Y626440D02*
X898927D01*
X754182Y656920D02*
X898927D01*
X754182Y687400D02*
X898927D01*
X754182Y717880D02*
X898927D01*
X754182Y748360D02*
X898927D01*
X754182Y778840D02*
X898927D01*
X754182Y809320D02*
X898927D01*
X754182Y839800D02*
X898927D01*
Y535000D02*
Y900760D01*
Y535000D02*
X1183326D01*
X898927Y565480D02*
X1183326D01*
X898927Y595960D02*
X1183326D01*
X898927Y626440D02*
X1183326D01*
X898927Y656920D02*
X1183326D01*
X898927Y687400D02*
X1183326D01*
X898927Y717880D02*
X1183326D01*
X898927Y748360D02*
X1183326D01*
X898927Y778840D02*
X1183326D01*
X898927Y809320D02*
X1183326D01*
X898927Y839800D02*
X1183326D01*
Y535000D02*
Y900760D01*
D72*
X1168086Y535000D02*
X1183326Y550240D01*
X1152846Y535000D02*
X1183326Y565480D01*
X1137606Y535000D02*
X1168086Y565480D01*
X1122366Y535000D02*
X1152846Y565480D01*
X1107126Y535000D02*
X1137606Y565480D01*
X1091886Y535000D02*
X1122366Y565480D01*
X1076646Y535000D02*
X1107126Y565480D01*
X1061406Y535000D02*
X1091886Y565480D01*
X1046166Y535000D02*
X1076646Y565480D01*
X1030926Y535000D02*
X1061406Y565480D01*
X1015686Y535000D02*
X1046166Y565480D01*
X1000446Y535000D02*
X1030926Y565480D01*
X985206Y535000D02*
X1015686Y565480D01*
X969966Y535000D02*
X1000446Y565480D01*
X954726Y535000D02*
X985206Y565480D01*
X939486Y535000D02*
X969966Y565480D01*
X924246Y535000D02*
X954726Y565480D01*
X909006Y535000D02*
X939486Y565480D01*
X898927Y540160D02*
X924246Y565480D01*
X898927Y555401D02*
X909006Y565480D01*
X1168086D02*
X1183326Y580720D01*
X1152846Y565480D02*
X1183326Y595960D01*
X1137606Y565480D02*
X1168086Y595960D01*
X1122366Y565480D02*
X1152846Y595960D01*
X1107126Y565480D02*
X1137606Y595960D01*
X1091886Y565480D02*
X1122366Y595960D01*
X1076646Y565480D02*
X1107126Y595960D01*
X1061406Y565480D02*
X1091886Y595960D01*
X1046166Y565480D02*
X1076646Y595960D01*
X1030926Y565480D02*
X1061406Y595960D01*
X1015686Y565480D02*
X1046166Y595960D01*
X1000446Y565480D02*
X1030926Y595960D01*
X985206Y565480D02*
X1015686Y595960D01*
X969966Y565480D02*
X1000446Y595960D01*
X954726Y565480D02*
X985206Y595960D01*
X939486Y565480D02*
X969966Y595960D01*
X924246Y565480D02*
X954726Y595960D01*
X909006Y565480D02*
X939486Y595960D01*
X898927Y570640D02*
X924246Y595960D01*
X898927Y585881D02*
X909006Y595960D01*
X1168086D02*
X1183326Y611200D01*
X1152846Y595960D02*
X1183326Y626440D01*
X1137606Y595960D02*
X1168086Y626440D01*
X1122366Y595960D02*
X1152846Y626440D01*
X1107126Y595960D02*
X1137606Y626440D01*
X1091886Y595960D02*
X1122366Y626440D01*
X1076646Y595960D02*
X1107126Y626440D01*
X1061406Y595960D02*
X1091886Y626440D01*
X1046166Y595960D02*
X1076646Y626440D01*
X1030926Y595960D02*
X1061406Y626440D01*
X1015686Y595960D02*
X1046166Y626440D01*
X1000446Y595960D02*
X1030926Y626440D01*
X985206Y595960D02*
X1015686Y626440D01*
X969966Y595960D02*
X1000446Y626440D01*
X954726Y595960D02*
X985206Y626440D01*
X939486Y595960D02*
X969966Y626440D01*
X924246Y595960D02*
X954726Y626440D01*
X909006Y595960D02*
X939486Y626440D01*
X898927Y601120D02*
X924246Y626440D01*
X898927Y616361D02*
X909006Y626440D01*
X1168086D02*
X1183326Y641680D01*
X1152846Y626440D02*
X1183326Y656920D01*
X1137606Y626440D02*
X1168086Y656920D01*
X1122366Y626440D02*
X1152846Y656920D01*
X1107126Y626440D02*
X1137606Y656920D01*
X1091886Y626440D02*
X1122366Y656920D01*
X1076646Y626440D02*
X1107126Y656920D01*
X1061406Y626440D02*
X1091886Y656920D01*
X1046166Y626440D02*
X1076646Y656920D01*
X1030926Y626440D02*
X1061406Y656920D01*
X1015686Y626440D02*
X1046166Y656920D01*
X1000446Y626440D02*
X1030926Y656920D01*
X985206Y626440D02*
X1015686Y656920D01*
X969966Y626440D02*
X1000446Y656920D01*
X954726Y626440D02*
X985206Y656920D01*
X939486Y626440D02*
X969966Y656920D01*
X924246Y626440D02*
X954726Y656920D01*
X909006Y626440D02*
X939486Y656920D01*
X898927Y631600D02*
X924246Y656920D01*
X898927Y646841D02*
X909006Y656920D01*
X1168086D02*
X1183326Y672160D01*
X1152846Y656920D02*
X1183326Y687400D01*
X1137606Y656920D02*
X1168086Y687400D01*
X1122366Y656920D02*
X1152846Y687400D01*
X1107126Y656920D02*
X1137606Y687400D01*
X1091886Y656920D02*
X1122366Y687400D01*
X1076646Y656920D02*
X1107126Y687400D01*
X1061406Y656920D02*
X1091886Y687400D01*
X1046166Y656920D02*
X1076646Y687400D01*
X1030926Y656920D02*
X1061406Y687400D01*
X1015686Y656920D02*
X1046166Y687400D01*
X1000446Y656920D02*
X1030926Y687400D01*
X985206Y656920D02*
X1015686Y687400D01*
X969966Y656920D02*
X1000446Y687400D01*
X954726Y656920D02*
X985206Y687400D01*
X939486Y656920D02*
X969966Y687400D01*
X924246Y656920D02*
X954726Y687400D01*
X909006Y656920D02*
X939486Y687400D01*
X898927Y662081D02*
X924246Y687400D01*
X898927Y677320D02*
X909006Y687400D01*
X1168086D02*
X1183326Y702640D01*
X1152846Y687400D02*
X1183326Y717880D01*
X1137606Y687400D02*
X1168086Y717880D01*
X1122366Y687400D02*
X1152846Y717880D01*
X1107126Y687400D02*
X1137606Y717880D01*
X1091886Y687400D02*
X1122366Y717880D01*
X1076646Y687400D02*
X1107126Y717880D01*
X1061406Y687400D02*
X1091886Y717880D01*
X1046166Y687400D02*
X1076646Y717880D01*
X1030926Y687400D02*
X1061406Y717880D01*
X1015686Y687400D02*
X1046166Y717880D01*
X1000446Y687400D02*
X1030926Y717880D01*
X985206Y687400D02*
X1015686Y717880D01*
X969966Y687400D02*
X1000446Y717880D01*
X954726Y687400D02*
X985206Y717880D01*
X939486Y687400D02*
X969966Y717880D01*
X924246Y687400D02*
X954726Y717880D01*
X909006Y687400D02*
X939486Y717880D01*
X898927Y692561D02*
X924246Y717880D01*
X898927Y707801D02*
X909006Y717880D01*
X1168086D02*
X1183326Y733120D01*
X1152846Y717880D02*
X1183326Y748360D01*
X1137606Y717880D02*
X1168086Y748360D01*
X1122366Y717880D02*
X1152846Y748360D01*
X1107126Y717880D02*
X1137606Y748360D01*
X1091886Y717880D02*
X1122366Y748360D01*
X1076646Y717880D02*
X1107126Y748360D01*
X1061406Y717880D02*
X1091886Y748360D01*
X1046166Y717880D02*
X1076646Y748360D01*
X1030926Y717880D02*
X1061406Y748360D01*
X1015686Y717880D02*
X1046166Y748360D01*
X1000446Y717880D02*
X1030926Y748360D01*
X985206Y717880D02*
X1015686Y748360D01*
X969966Y717880D02*
X1000446Y748360D01*
X954726Y717880D02*
X985206Y748360D01*
X939486Y717880D02*
X969966Y748360D01*
X924246Y717880D02*
X954726Y748360D01*
X909006Y717880D02*
X939486Y748360D01*
X898927Y723040D02*
X924246Y748360D01*
X898927Y738280D02*
X909006Y748360D01*
X1168086D02*
X1183326Y763600D01*
X1152846Y748360D02*
X1183326Y778840D01*
X1137606Y748360D02*
X1168086Y778840D01*
X1122366Y748360D02*
X1152846Y778840D01*
X1107126Y748360D02*
X1137606Y778840D01*
X1091886Y748360D02*
X1122366Y778840D01*
X1076646Y748360D02*
X1107126Y778840D01*
X1061406Y748360D02*
X1091886Y778840D01*
X1046166Y748360D02*
X1076646Y778840D01*
X1030926Y748360D02*
X1061406Y778840D01*
X1015686Y748360D02*
X1046166Y778840D01*
X1000446Y748360D02*
X1030926Y778840D01*
X985206Y748360D02*
X1015686Y778840D01*
X969966Y748360D02*
X1000446Y778840D01*
X954726Y748360D02*
X985206Y778840D01*
X939486Y748360D02*
X969966Y778840D01*
X924246Y748360D02*
X954726Y778840D01*
X909006Y748360D02*
X939486Y778840D01*
X898927Y753521D02*
X924246Y778840D01*
X898927Y768761D02*
X909006Y778840D01*
X1168086D02*
X1183326Y794080D01*
X1152846Y778840D02*
X1183326Y809320D01*
X1137606Y778840D02*
X1168086Y809320D01*
X1122366Y778840D02*
X1152846Y809320D01*
X1107126Y778840D02*
X1137606Y809320D01*
X1091886Y778840D02*
X1122366Y809320D01*
X1076646Y778840D02*
X1107126Y809320D01*
X1061406Y778840D02*
X1091886Y809320D01*
X1046166Y778840D02*
X1076646Y809320D01*
X1030926Y778840D02*
X1061406Y809320D01*
X1015686Y778840D02*
X1046166Y809320D01*
X1000446Y778840D02*
X1030926Y809320D01*
X985206Y778840D02*
X1015686Y809320D01*
X969966Y778840D02*
X1000446Y809320D01*
X954726Y778840D02*
X985206Y809320D01*
X939486Y778840D02*
X969966Y809320D01*
X924246Y778840D02*
X954726Y809320D01*
X909006Y778840D02*
X939486Y809320D01*
X898927Y784000D02*
X924246Y809320D01*
X898927Y799240D02*
X909006Y809320D01*
X1168086D02*
X1183326Y824560D01*
X1152846Y809320D02*
X1183326Y839800D01*
X1137606Y809320D02*
X1168086Y839800D01*
X1122366Y809320D02*
X1152846Y839800D01*
X1107126Y809320D02*
X1137606Y839800D01*
X1091886Y809320D02*
X1122366Y839800D01*
X1076646Y809320D02*
X1107126Y839800D01*
X1061406Y809320D02*
X1091886Y839800D01*
X1046166Y809320D02*
X1076646Y839800D01*
X1030926Y809320D02*
X1061406Y839800D01*
X1015686Y809320D02*
X1046166Y839800D01*
X1000446Y809320D02*
X1030926Y839800D01*
X985206Y809320D02*
X1015686Y839800D01*
X969966Y809320D02*
X1000446Y839800D01*
X954726Y809320D02*
X985206Y839800D01*
X939486Y809320D02*
X969966Y839800D01*
X924246Y809320D02*
X954726Y839800D01*
X909006Y809320D02*
X939486Y839800D01*
X898927Y814481D02*
X924246Y839800D01*
X898927Y829721D02*
X909006Y839800D01*
X1168086D02*
X1183326Y855040D01*
X1152846Y839800D02*
X1183326Y870280D01*
X1137606Y839800D02*
X1168086Y870280D01*
X1122366Y839800D02*
X1152846Y870280D01*
X1107126Y839800D02*
X1137606Y870280D01*
X1091886Y839800D02*
X1122366Y870280D01*
X1076646Y839800D02*
X1107126Y870280D01*
X1061406Y839800D02*
X1091886Y870280D01*
X1046166Y839800D02*
X1076646Y870280D01*
X1030926Y839800D02*
X1061406Y870280D01*
X1015686Y839800D02*
X1046166Y870280D01*
X1000446Y839800D02*
X1030926Y870280D01*
X985206Y839800D02*
X1015686Y870280D01*
X969966Y839800D02*
X1000446Y870280D01*
X954726Y839800D02*
X985206Y870280D01*
X939486Y839800D02*
X969966Y870280D01*
X924246Y839800D02*
X954726Y870280D01*
X909006Y839800D02*
X939486Y870280D01*
X898927Y844960D02*
X924246Y870280D01*
X898927Y860201D02*
X909006Y870280D01*
M02*
