G04*
G04 #@! TF.GenerationSoftware,Altium Limited,Altium Designer,24.9.1 (31)*
G04*
G04 Layer_Color=16711935*
%FSLAX44Y44*%
%MOMM*%
G71*
G04*
G04 #@! TF.SameCoordinates,418AA1D6-F79E-4CCF-963D-19B387831215*
G04*
G04*
G04 #@! TF.FilePolarity,Positive*
G04*
G01*
G75*
%ADD14C,0.1000*%
G36*
X112151Y-98748D02*
X112174Y-98781D01*
X112197Y-98809D01*
X112219Y-98834D01*
X112242Y-98857D01*
X112260Y-98875D01*
X112270Y-98885D01*
X112275Y-98890D01*
X112313Y-98920D01*
X112351Y-98951D01*
X112389Y-98976D01*
X112425Y-98997D01*
X112458Y-99015D01*
X112481Y-99030D01*
X112491Y-99032D01*
X112499Y-99037D01*
X112501Y-99040D01*
X112504D01*
Y-99190D01*
X112476Y-99180D01*
X112448Y-99167D01*
X112420Y-99154D01*
X112395Y-99142D01*
X112374Y-99129D01*
X112357Y-99119D01*
X112346Y-99114D01*
X112341Y-99111D01*
X112308Y-99091D01*
X112278Y-99070D01*
X112252Y-99053D01*
X112229Y-99035D01*
X112212Y-99022D01*
X112199Y-99012D01*
X112191Y-99004D01*
X112189Y-99002D01*
Y-100000D01*
X112031D01*
Y-98717D01*
X112133D01*
X112151Y-98748D01*
D02*
G37*
G36*
X113850Y-99459D02*
X113848Y-99530D01*
X113842Y-99596D01*
X113835Y-99649D01*
X113825Y-99695D01*
X113817Y-99733D01*
X113812Y-99748D01*
X113809Y-99759D01*
X113807Y-99769D01*
X113804Y-99776D01*
X113802Y-99779D01*
Y-99782D01*
X113781Y-99822D01*
X113756Y-99858D01*
X113728Y-99888D01*
X113703Y-99914D01*
X113677Y-99934D01*
X113657Y-99947D01*
X113644Y-99957D01*
X113639Y-99959D01*
X113594Y-99980D01*
X113545Y-99995D01*
X113494Y-100005D01*
X113449Y-100013D01*
X113408Y-100018D01*
X113390D01*
X113375Y-100020D01*
X113345D01*
X113279Y-100018D01*
X113220Y-100010D01*
X113169Y-99998D01*
X113126Y-99985D01*
X113093Y-99975D01*
X113068Y-99962D01*
X113053Y-99954D01*
X113047Y-99952D01*
X113007Y-99924D01*
X112974Y-99893D01*
X112948Y-99863D01*
X112926Y-99832D01*
X112910Y-99807D01*
X112898Y-99784D01*
X112892Y-99771D01*
X112890Y-99766D01*
X112875Y-99721D01*
X112865Y-99670D01*
X112854Y-99619D01*
X112849Y-99571D01*
X112847Y-99525D01*
Y-99507D01*
X112844Y-99492D01*
Y-99477D01*
Y-99467D01*
Y-99461D01*
Y-99459D01*
Y-98720D01*
X113014D01*
Y-99459D01*
Y-99502D01*
X113017Y-99543D01*
X113022Y-99578D01*
X113027Y-99611D01*
X113032Y-99642D01*
X113040Y-99667D01*
X113047Y-99690D01*
X113055Y-99713D01*
X113063Y-99731D01*
X113070Y-99746D01*
X113078Y-99756D01*
X113083Y-99766D01*
X113093Y-99779D01*
X113096Y-99784D01*
X113129Y-99812D01*
X113169Y-99832D01*
X113212Y-99848D01*
X113258Y-99858D01*
X113296Y-99863D01*
X113314Y-99865D01*
X113329D01*
X113342Y-99868D01*
X113360D01*
X113398Y-99865D01*
X113436Y-99860D01*
X113467Y-99855D01*
X113494Y-99848D01*
X113515Y-99840D01*
X113532Y-99832D01*
X113543Y-99830D01*
X113545Y-99827D01*
X113571Y-99810D01*
X113594Y-99789D01*
X113611Y-99769D01*
X113624Y-99751D01*
X113637Y-99733D01*
X113644Y-99718D01*
X113647Y-99708D01*
X113649Y-99705D01*
X113659Y-99672D01*
X113667Y-99634D01*
X113672Y-99594D01*
X113675Y-99553D01*
X113677Y-99515D01*
X113680Y-99487D01*
Y-99474D01*
Y-99467D01*
Y-99461D01*
Y-99459D01*
Y-98720D01*
X113850D01*
Y-99459D01*
D02*
G37*
G36*
X111620Y-98888D02*
X110990D01*
X111036Y-98941D01*
X111076Y-98999D01*
X111117Y-99055D01*
X111150Y-99108D01*
X111178Y-99154D01*
X111191Y-99174D01*
X111201Y-99192D01*
X111208Y-99205D01*
X111214Y-99215D01*
X111216Y-99223D01*
X111219Y-99225D01*
X111257Y-99299D01*
X111290Y-99373D01*
X111318Y-99444D01*
X111341Y-99505D01*
X111351Y-99533D01*
X111358Y-99558D01*
X111366Y-99581D01*
X111374Y-99601D01*
X111379Y-99616D01*
X111381Y-99627D01*
X111384Y-99634D01*
Y-99637D01*
X111402Y-99713D01*
X111417Y-99784D01*
X111427Y-99845D01*
X111434Y-99898D01*
X111437Y-99921D01*
Y-99942D01*
X111440Y-99959D01*
Y-99972D01*
X111442Y-99985D01*
Y-99992D01*
Y-99998D01*
Y-100000D01*
X111279D01*
X111274Y-99931D01*
X111264Y-99865D01*
X111254Y-99804D01*
X111247Y-99754D01*
X111241Y-99731D01*
X111236Y-99710D01*
X111231Y-99693D01*
X111229Y-99677D01*
X111226Y-99665D01*
X111224Y-99657D01*
X111221Y-99652D01*
Y-99649D01*
X111193Y-99566D01*
X111165Y-99484D01*
X111132Y-99408D01*
X111117Y-99373D01*
X111104Y-99342D01*
X111089Y-99312D01*
X111076Y-99286D01*
X111066Y-99261D01*
X111056Y-99243D01*
X111046Y-99225D01*
X111041Y-99215D01*
X111038Y-99207D01*
X111036Y-99205D01*
X110990Y-99129D01*
X110947Y-99060D01*
X110904Y-99002D01*
X110865Y-98951D01*
X110850Y-98931D01*
X110835Y-98913D01*
X110822Y-98895D01*
X110810Y-98882D01*
X110802Y-98872D01*
X110794Y-98865D01*
X110792Y-98862D01*
X110789Y-98860D01*
Y-98738D01*
X111620D01*
Y-98888D01*
D02*
G37*
G36*
X384778Y-82417D02*
X384854Y-82430D01*
X384921Y-82449D01*
X384978Y-82468D01*
X385022Y-82491D01*
X385041Y-82500D01*
X385057Y-82510D01*
X385070Y-82519D01*
X385079Y-82522D01*
X385083Y-82529D01*
X385086D01*
X385143Y-82576D01*
X385191Y-82630D01*
X385232Y-82687D01*
X385264Y-82745D01*
X385289Y-82795D01*
X385299Y-82814D01*
X385308Y-82833D01*
X385314Y-82849D01*
X385318Y-82862D01*
X385321Y-82868D01*
Y-82872D01*
X385349Y-82808D01*
X385381Y-82754D01*
X385413Y-82706D01*
X385445Y-82668D01*
X385473Y-82640D01*
X385495Y-82618D01*
X385508Y-82605D01*
X385514Y-82602D01*
X385565Y-82570D01*
X385616Y-82548D01*
X385664Y-82532D01*
X385711Y-82522D01*
X385753Y-82513D01*
X385784Y-82510D01*
X385797D01*
X385807D01*
X385810D01*
X385813D01*
X385860Y-82513D01*
X385908Y-82519D01*
X385953Y-82529D01*
X385997Y-82541D01*
X386073Y-82573D01*
X386140Y-82608D01*
X386165Y-82627D01*
X386191Y-82643D01*
X386213Y-82662D01*
X386232Y-82675D01*
X386245Y-82687D01*
X386254Y-82697D01*
X386261Y-82703D01*
X386264Y-82706D01*
X386296Y-82745D01*
X386327Y-82783D01*
X386349Y-82827D01*
X386372Y-82868D01*
X386391Y-82913D01*
X386407Y-82954D01*
X386429Y-83037D01*
X386435Y-83075D01*
X386442Y-83110D01*
X386445Y-83141D01*
X386448Y-83167D01*
X386451Y-83189D01*
Y-83221D01*
X386448Y-83278D01*
X386445Y-83335D01*
X386435Y-83386D01*
X386423Y-83434D01*
X386410Y-83478D01*
X386394Y-83522D01*
X386375Y-83560D01*
X386359Y-83592D01*
X386343Y-83624D01*
X386324Y-83653D01*
X386308Y-83675D01*
X386296Y-83694D01*
X386283Y-83710D01*
X386277Y-83719D01*
X386270Y-83726D01*
X386267Y-83729D01*
X386232Y-83764D01*
X386197Y-83792D01*
X386159Y-83818D01*
X386121Y-83840D01*
X386083Y-83856D01*
X386045Y-83872D01*
X385975Y-83894D01*
X385914Y-83910D01*
X385886Y-83913D01*
X385864Y-83916D01*
X385845Y-83919D01*
X385832D01*
X385822D01*
X385819D01*
X385756Y-83916D01*
X385699Y-83907D01*
X385648Y-83891D01*
X385603Y-83875D01*
X385568Y-83859D01*
X385540Y-83843D01*
X385524Y-83834D01*
X385518Y-83830D01*
X385473Y-83792D01*
X385432Y-83751D01*
X385400Y-83703D01*
X385372Y-83659D01*
X385349Y-83618D01*
X385334Y-83586D01*
X385327Y-83573D01*
X385324Y-83564D01*
X385321Y-83557D01*
Y-83554D01*
X385295Y-83633D01*
X385264Y-83700D01*
X385225Y-83760D01*
X385191Y-83808D01*
X385156Y-83846D01*
X385127Y-83875D01*
X385108Y-83891D01*
X385105Y-83897D01*
X385102D01*
X385038Y-83938D01*
X384972Y-83967D01*
X384908Y-83989D01*
X384845Y-84002D01*
X384787Y-84011D01*
X384765Y-84015D01*
X384746D01*
X384727Y-84018D01*
X384714D01*
X384708D01*
X384705D01*
X384648Y-84015D01*
X384590Y-84008D01*
X384537Y-83999D01*
X384486Y-83983D01*
X384438Y-83967D01*
X384394Y-83948D01*
X384356Y-83929D01*
X384318Y-83907D01*
X384286Y-83888D01*
X384257Y-83869D01*
X384232Y-83849D01*
X384210Y-83834D01*
X384194Y-83818D01*
X384181Y-83808D01*
X384175Y-83802D01*
X384171Y-83799D01*
X384133Y-83754D01*
X384102Y-83710D01*
X384073Y-83662D01*
X384048Y-83615D01*
X384029Y-83564D01*
X384010Y-83516D01*
X383984Y-83424D01*
X383978Y-83379D01*
X383971Y-83341D01*
X383965Y-83307D01*
X383962Y-83275D01*
X383959Y-83249D01*
Y-83214D01*
X383962Y-83148D01*
X383968Y-83087D01*
X383978Y-83027D01*
X383994Y-82973D01*
X384010Y-82919D01*
X384025Y-82872D01*
X384044Y-82830D01*
X384067Y-82789D01*
X384086Y-82754D01*
X384105Y-82722D01*
X384121Y-82697D01*
X384140Y-82675D01*
X384152Y-82656D01*
X384162Y-82643D01*
X384168Y-82637D01*
X384171Y-82633D01*
X384213Y-82595D01*
X384254Y-82560D01*
X384298Y-82532D01*
X384343Y-82503D01*
X384387Y-82484D01*
X384432Y-82465D01*
X384473Y-82449D01*
X384514Y-82440D01*
X384552Y-82430D01*
X384584Y-82424D01*
X384616Y-82417D01*
X384645Y-82414D01*
X384667Y-82411D01*
X384683D01*
X384692D01*
X384695D01*
X384778Y-82417D01*
D02*
G37*
G36*
X384289Y-85539D02*
X384346Y-85497D01*
X384375Y-85475D01*
X384397Y-85456D01*
X384419Y-85437D01*
X384435Y-85424D01*
X384445Y-85415D01*
X384448Y-85412D01*
X384464Y-85396D01*
X384486Y-85373D01*
X384508Y-85351D01*
X384530Y-85326D01*
X384581Y-85269D01*
X384632Y-85208D01*
X384679Y-85154D01*
X384702Y-85129D01*
X384721Y-85110D01*
X384733Y-85091D01*
X384746Y-85078D01*
X384753Y-85069D01*
X384756Y-85065D01*
X384806Y-85008D01*
X384854Y-84951D01*
X384895Y-84903D01*
X384937Y-84856D01*
X384975Y-84815D01*
X385013Y-84776D01*
X385045Y-84742D01*
X385073Y-84713D01*
X385098Y-84684D01*
X385121Y-84662D01*
X385140Y-84643D01*
X385156Y-84627D01*
X385168Y-84618D01*
X385178Y-84608D01*
X385181Y-84602D01*
X385184D01*
X385241Y-84554D01*
X385299Y-84513D01*
X385349Y-84478D01*
X385394Y-84450D01*
X385429Y-84427D01*
X385457Y-84415D01*
X385476Y-84405D01*
X385483Y-84402D01*
X385537Y-84383D01*
X385588Y-84367D01*
X385638Y-84357D01*
X385680Y-84348D01*
X385718Y-84345D01*
X385746Y-84342D01*
X385765D01*
X385772D01*
X385826Y-84345D01*
X385876Y-84351D01*
X385924Y-84361D01*
X385969Y-84373D01*
X386051Y-84408D01*
X386089Y-84424D01*
X386121Y-84443D01*
X386153Y-84465D01*
X386178Y-84481D01*
X386200Y-84500D01*
X386219Y-84516D01*
X386235Y-84529D01*
X386245Y-84538D01*
X386251Y-84545D01*
X386254Y-84548D01*
X386289Y-84589D01*
X386318Y-84630D01*
X386346Y-84675D01*
X386368Y-84723D01*
X386388Y-84770D01*
X386404Y-84815D01*
X386426Y-84903D01*
X386435Y-84945D01*
X386442Y-84983D01*
X386445Y-85018D01*
X386448Y-85050D01*
X386451Y-85072D01*
Y-85107D01*
X386448Y-85170D01*
X386445Y-85231D01*
X386435Y-85288D01*
X386423Y-85338D01*
X386410Y-85389D01*
X386394Y-85434D01*
X386378Y-85475D01*
X386362Y-85513D01*
X386343Y-85548D01*
X386327Y-85577D01*
X386311Y-85602D01*
X386299Y-85624D01*
X386286Y-85640D01*
X386277Y-85653D01*
X386273Y-85659D01*
X386270Y-85662D01*
X386235Y-85701D01*
X386197Y-85732D01*
X386156Y-85761D01*
X386111Y-85786D01*
X386070Y-85808D01*
X386026Y-85828D01*
X385940Y-85856D01*
X385902Y-85869D01*
X385864Y-85878D01*
X385832Y-85885D01*
X385803Y-85891D01*
X385778Y-85894D01*
X385762D01*
X385749Y-85897D01*
X385746D01*
X385714Y-85589D01*
X385797Y-85583D01*
X385867Y-85570D01*
X385927Y-85548D01*
X385981Y-85523D01*
X386019Y-85500D01*
X386051Y-85478D01*
X386067Y-85465D01*
X386073Y-85459D01*
X386118Y-85408D01*
X386149Y-85351D01*
X386172Y-85291D01*
X386188Y-85237D01*
X386197Y-85189D01*
X386200Y-85167D01*
Y-85148D01*
X386203Y-85135D01*
Y-85113D01*
X386197Y-85040D01*
X386184Y-84973D01*
X386165Y-84916D01*
X386143Y-84869D01*
X386118Y-84831D01*
X386099Y-84802D01*
X386086Y-84786D01*
X386080Y-84780D01*
X386032Y-84735D01*
X385981Y-84704D01*
X385934Y-84681D01*
X385886Y-84665D01*
X385845Y-84656D01*
X385810Y-84653D01*
X385797Y-84649D01*
X385791D01*
X385784D01*
X385781D01*
X385749D01*
X385718Y-84656D01*
X385651Y-84672D01*
X385591Y-84694D01*
X385537Y-84719D01*
X385489Y-84748D01*
X385470Y-84761D01*
X385451Y-84770D01*
X385438Y-84780D01*
X385429Y-84786D01*
X385422Y-84789D01*
X385419Y-84792D01*
X385381Y-84821D01*
X385343Y-84856D01*
X385302Y-84894D01*
X385257Y-84935D01*
X385172Y-85024D01*
X385089Y-85113D01*
X385051Y-85154D01*
X385016Y-85196D01*
X384984Y-85234D01*
X384956Y-85266D01*
X384933Y-85291D01*
X384918Y-85313D01*
X384905Y-85326D01*
X384902Y-85329D01*
X384826Y-85421D01*
X384756Y-85500D01*
X384692Y-85567D01*
X384638Y-85621D01*
X384594Y-85666D01*
X384559Y-85697D01*
X384546Y-85707D01*
X384537Y-85716D01*
X384533Y-85719D01*
X384530Y-85723D01*
X384470Y-85770D01*
X384413Y-85812D01*
X384359Y-85843D01*
X384308Y-85872D01*
X384267Y-85894D01*
X384235Y-85907D01*
X384222Y-85913D01*
X384213Y-85916D01*
X384210Y-85920D01*
X384206D01*
X384168Y-85932D01*
X384133Y-85942D01*
X384098Y-85948D01*
X384067Y-85951D01*
X384038Y-85955D01*
X384019D01*
X384006D01*
X384000D01*
Y-84338D01*
X384289D01*
Y-85539D01*
D02*
G37*
G36*
X386442Y-86653D02*
X385032D01*
X384949Y-86656D01*
X384873Y-86659D01*
X384803Y-86666D01*
X384740Y-86675D01*
X384683Y-86688D01*
X384632Y-86701D01*
X384587Y-86713D01*
X384549Y-86729D01*
X384514Y-86742D01*
X384486Y-86758D01*
X384460Y-86770D01*
X384441Y-86780D01*
X384429Y-86793D01*
X384419Y-86799D01*
X384413Y-86802D01*
X384410Y-86805D01*
X384381Y-86837D01*
X384359Y-86872D01*
X384337Y-86910D01*
X384318Y-86948D01*
X384289Y-87034D01*
X384270Y-87116D01*
X384263Y-87155D01*
X384260Y-87193D01*
X384257Y-87228D01*
X384254Y-87256D01*
X384251Y-87278D01*
Y-87313D01*
X384254Y-87390D01*
X384263Y-87456D01*
X384276Y-87517D01*
X384292Y-87567D01*
X384305Y-87609D01*
X384318Y-87640D01*
X384327Y-87659D01*
X384330Y-87663D01*
Y-87666D01*
X384365Y-87717D01*
X384400Y-87758D01*
X384441Y-87793D01*
X384476Y-87821D01*
X384511Y-87844D01*
X384537Y-87856D01*
X384556Y-87866D01*
X384559Y-87869D01*
X384562D01*
X384594Y-87879D01*
X384626Y-87888D01*
X384698Y-87901D01*
X384778Y-87913D01*
X384854Y-87920D01*
X384889D01*
X384924Y-87923D01*
X384953D01*
X384981Y-87926D01*
X385000D01*
X385019D01*
X385029D01*
X385032D01*
X386442D01*
Y-88250D01*
X385029D01*
X384959D01*
X384892Y-88247D01*
X384829Y-88240D01*
X384768Y-88234D01*
X384714Y-88228D01*
X384664Y-88221D01*
X384619Y-88212D01*
X384578Y-88202D01*
X384540Y-88196D01*
X384508Y-88187D01*
X384479Y-88180D01*
X384457Y-88171D01*
X384438Y-88167D01*
X384425Y-88161D01*
X384419Y-88158D01*
X384416D01*
X384337Y-88117D01*
X384270Y-88069D01*
X384210Y-88018D01*
X384162Y-87967D01*
X384124Y-87920D01*
X384098Y-87882D01*
X384089Y-87869D01*
X384082Y-87856D01*
X384076Y-87850D01*
Y-87847D01*
X384038Y-87761D01*
X384010Y-87666D01*
X383987Y-87574D01*
X383975Y-87485D01*
X383968Y-87444D01*
X383965Y-87405D01*
X383962Y-87371D01*
Y-87342D01*
X383959Y-87317D01*
Y-87285D01*
X383962Y-87221D01*
X383965Y-87158D01*
X383971Y-87101D01*
X383981Y-87047D01*
X383991Y-86996D01*
X384000Y-86951D01*
X384013Y-86907D01*
X384025Y-86869D01*
X384038Y-86834D01*
X384051Y-86802D01*
X384060Y-86777D01*
X384070Y-86755D01*
X384079Y-86739D01*
X384086Y-86726D01*
X384092Y-86720D01*
Y-86716D01*
X384118Y-86678D01*
X384146Y-86640D01*
X384206Y-86577D01*
X384263Y-86526D01*
X384321Y-86485D01*
X384368Y-86453D01*
X384390Y-86440D01*
X384410Y-86431D01*
X384422Y-86424D01*
X384435Y-86418D01*
X384441Y-86415D01*
X384445D01*
X384486Y-86399D01*
X384530Y-86386D01*
X384626Y-86364D01*
X384724Y-86351D01*
X384819Y-86339D01*
X384860Y-86335D01*
X384902Y-86332D01*
X384937D01*
X384968Y-86329D01*
X384994D01*
X385013D01*
X385025D01*
X385029D01*
X386442D01*
Y-86653D01*
D02*
G37*
G36*
X387807Y-134424D02*
X387879Y-134437D01*
X387946Y-134456D01*
X388003Y-134478D01*
X388051Y-134500D01*
X388067Y-134510D01*
X388083Y-134519D01*
X388095Y-134525D01*
X388105Y-134532D01*
X388108Y-134538D01*
X388111D01*
X388165Y-134586D01*
X388210Y-134643D01*
X388248Y-134697D01*
X388276Y-134751D01*
X388295Y-134798D01*
X388305Y-134821D01*
X388311Y-134840D01*
X388315Y-134853D01*
X388318Y-134865D01*
X388321Y-134872D01*
Y-134875D01*
X388353Y-134818D01*
X388384Y-134767D01*
X388419Y-134722D01*
X388454Y-134687D01*
X388483Y-134659D01*
X388505Y-134640D01*
X388521Y-134627D01*
X388527Y-134624D01*
X388578Y-134595D01*
X388629Y-134573D01*
X388676Y-134560D01*
X388721Y-134548D01*
X388759Y-134541D01*
X388791Y-134538D01*
X388810D01*
X388813D01*
X388816D01*
X388876Y-134541D01*
X388934Y-134551D01*
X388988Y-134567D01*
X389035Y-134583D01*
X389073Y-134602D01*
X389105Y-134614D01*
X389124Y-134627D01*
X389127Y-134630D01*
X389130D01*
X389184Y-134665D01*
X389229Y-134706D01*
X389270Y-134751D01*
X389305Y-134792D01*
X389330Y-134830D01*
X389350Y-134859D01*
X389356Y-134872D01*
X389362Y-134881D01*
X389365Y-134884D01*
Y-134887D01*
X389394Y-134951D01*
X389416Y-135014D01*
X389429Y-135075D01*
X389442Y-135132D01*
X389448Y-135180D01*
Y-135202D01*
X389451Y-135218D01*
Y-135253D01*
X389448Y-135307D01*
X389445Y-135357D01*
X389426Y-135453D01*
X389397Y-135535D01*
X389381Y-135570D01*
X389369Y-135605D01*
X389353Y-135633D01*
X389337Y-135662D01*
X389321Y-135684D01*
X389308Y-135703D01*
X389299Y-135719D01*
X389289Y-135729D01*
X389286Y-135735D01*
X389283Y-135738D01*
X389251Y-135773D01*
X389216Y-135805D01*
X389140Y-135859D01*
X389064Y-135900D01*
X388991Y-135935D01*
X388956Y-135948D01*
X388924Y-135957D01*
X388892Y-135967D01*
X388870Y-135973D01*
X388848Y-135980D01*
X388832Y-135983D01*
X388823Y-135986D01*
X388819D01*
X388765Y-135688D01*
X388842Y-135672D01*
X388908Y-135653D01*
X388965Y-135627D01*
X389010Y-135602D01*
X389048Y-135580D01*
X389073Y-135561D01*
X389086Y-135548D01*
X389092Y-135541D01*
X389130Y-135494D01*
X389156Y-135446D01*
X389175Y-135395D01*
X389191Y-135351D01*
X389197Y-135310D01*
X389200Y-135275D01*
X389203Y-135262D01*
Y-135246D01*
X389200Y-135183D01*
X389188Y-135129D01*
X389169Y-135078D01*
X389150Y-135037D01*
X389127Y-135005D01*
X389111Y-134979D01*
X389099Y-134967D01*
X389092Y-134960D01*
X389051Y-134922D01*
X389003Y-134894D01*
X388959Y-134875D01*
X388918Y-134859D01*
X388880Y-134853D01*
X388851Y-134849D01*
X388829Y-134846D01*
X388826D01*
X388823D01*
X388784Y-134849D01*
X388749Y-134853D01*
X388686Y-134872D01*
X388632Y-134894D01*
X388587Y-134922D01*
X388556Y-134951D01*
X388530Y-134976D01*
X388518Y-134995D01*
X388511Y-134999D01*
Y-135002D01*
X388480Y-135059D01*
X388454Y-135119D01*
X388438Y-135176D01*
X388426Y-135230D01*
X388419Y-135275D01*
X388416Y-135313D01*
X388413Y-135326D01*
Y-135360D01*
X388416Y-135376D01*
X388419Y-135386D01*
Y-135392D01*
X388156Y-135427D01*
X388165Y-135383D01*
X388175Y-135341D01*
X388181Y-135303D01*
X388184Y-135272D01*
X388187Y-135249D01*
Y-135214D01*
X388181Y-135138D01*
X388165Y-135072D01*
X388146Y-135014D01*
X388121Y-134964D01*
X388095Y-134925D01*
X388076Y-134897D01*
X388060Y-134878D01*
X388054Y-134872D01*
X388029Y-134846D01*
X388000Y-134827D01*
X387946Y-134792D01*
X387889Y-134767D01*
X387835Y-134751D01*
X387787Y-134741D01*
X387765Y-134738D01*
X387749D01*
X387733Y-134735D01*
X387724D01*
X387718D01*
X387714D01*
X387676D01*
X387638Y-134741D01*
X387568Y-134757D01*
X387505Y-134783D01*
X387454Y-134808D01*
X387410Y-134833D01*
X387378Y-134859D01*
X387368Y-134868D01*
X387359Y-134875D01*
X387356Y-134878D01*
X387352Y-134881D01*
X387327Y-134910D01*
X387305Y-134938D01*
X387267Y-134999D01*
X387241Y-135059D01*
X387225Y-135116D01*
X387213Y-135164D01*
X387210Y-135186D01*
Y-135205D01*
X387206Y-135218D01*
Y-135240D01*
X387213Y-135303D01*
X387225Y-135364D01*
X387241Y-135414D01*
X387263Y-135459D01*
X387283Y-135497D01*
X387302Y-135522D01*
X387314Y-135538D01*
X387318Y-135545D01*
X387340Y-135567D01*
X387365Y-135586D01*
X387425Y-135621D01*
X387486Y-135653D01*
X387546Y-135675D01*
X387603Y-135694D01*
X387626Y-135700D01*
X387648Y-135707D01*
X387664Y-135710D01*
X387676Y-135713D01*
X387686Y-135716D01*
X387689D01*
X387648Y-136014D01*
X387591Y-136008D01*
X387537Y-135996D01*
X387489Y-135983D01*
X387441Y-135964D01*
X387397Y-135945D01*
X387356Y-135926D01*
X387318Y-135903D01*
X387283Y-135884D01*
X387254Y-135862D01*
X387225Y-135843D01*
X387203Y-135824D01*
X387184Y-135808D01*
X387168Y-135792D01*
X387159Y-135783D01*
X387152Y-135776D01*
X387149Y-135773D01*
X387114Y-135732D01*
X387086Y-135691D01*
X387060Y-135646D01*
X387038Y-135599D01*
X387022Y-135554D01*
X387006Y-135510D01*
X386984Y-135427D01*
X386975Y-135389D01*
X386968Y-135351D01*
X386965Y-135319D01*
X386962Y-135294D01*
X386959Y-135272D01*
Y-135240D01*
X386962Y-135173D01*
X386968Y-135113D01*
X386978Y-135052D01*
X386994Y-134999D01*
X387010Y-134945D01*
X387029Y-134897D01*
X387048Y-134853D01*
X387070Y-134811D01*
X387089Y-134776D01*
X387108Y-134745D01*
X387127Y-134716D01*
X387143Y-134694D01*
X387159Y-134675D01*
X387168Y-134662D01*
X387175Y-134656D01*
X387178Y-134653D01*
X387219Y-134611D01*
X387263Y-134576D01*
X387311Y-134544D01*
X387356Y-134516D01*
X387403Y-134494D01*
X387448Y-134475D01*
X387492Y-134459D01*
X387533Y-134446D01*
X387571Y-134437D01*
X387606Y-134430D01*
X387638Y-134424D01*
X387667Y-134421D01*
X387689Y-134417D01*
X387708D01*
X387718D01*
X387721D01*
X387807Y-134424D01*
D02*
G37*
G36*
X387289Y-137538D02*
X387346Y-137497D01*
X387375Y-137475D01*
X387397Y-137456D01*
X387419Y-137437D01*
X387435Y-137424D01*
X387444Y-137415D01*
X387448Y-137411D01*
X387464Y-137396D01*
X387486Y-137373D01*
X387508Y-137351D01*
X387530Y-137326D01*
X387581Y-137269D01*
X387632Y-137208D01*
X387679Y-137154D01*
X387702Y-137129D01*
X387721Y-137110D01*
X387733Y-137091D01*
X387746Y-137078D01*
X387752Y-137069D01*
X387756Y-137065D01*
X387807Y-137008D01*
X387854Y-136951D01*
X387895Y-136903D01*
X387937Y-136856D01*
X387975Y-136815D01*
X388013Y-136777D01*
X388045Y-136742D01*
X388073Y-136713D01*
X388099Y-136685D01*
X388121Y-136662D01*
X388140Y-136643D01*
X388156Y-136627D01*
X388168Y-136618D01*
X388178Y-136608D01*
X388181Y-136602D01*
X388184D01*
X388241Y-136554D01*
X388299Y-136513D01*
X388349Y-136478D01*
X388394Y-136449D01*
X388429Y-136427D01*
X388457Y-136415D01*
X388476Y-136405D01*
X388483Y-136402D01*
X388537Y-136383D01*
X388587Y-136367D01*
X388638Y-136357D01*
X388680Y-136348D01*
X388718Y-136345D01*
X388746Y-136342D01*
X388765D01*
X388772D01*
X388826Y-136345D01*
X388876Y-136351D01*
X388924Y-136361D01*
X388969Y-136373D01*
X389051Y-136408D01*
X389089Y-136424D01*
X389121Y-136443D01*
X389153Y-136465D01*
X389178Y-136481D01*
X389200Y-136500D01*
X389219Y-136516D01*
X389235Y-136529D01*
X389245Y-136538D01*
X389251Y-136545D01*
X389254Y-136548D01*
X389289Y-136589D01*
X389318Y-136630D01*
X389346Y-136675D01*
X389369Y-136723D01*
X389388Y-136770D01*
X389403Y-136815D01*
X389426Y-136903D01*
X389435Y-136945D01*
X389442Y-136983D01*
X389445Y-137018D01*
X389448Y-137050D01*
X389451Y-137072D01*
Y-137107D01*
X389448Y-137170D01*
X389445Y-137231D01*
X389435Y-137288D01*
X389422Y-137338D01*
X389410Y-137389D01*
X389394Y-137434D01*
X389378Y-137475D01*
X389362Y-137513D01*
X389343Y-137548D01*
X389327Y-137577D01*
X389311Y-137602D01*
X389299Y-137624D01*
X389286Y-137640D01*
X389277Y-137653D01*
X389273Y-137659D01*
X389270Y-137662D01*
X389235Y-137701D01*
X389197Y-137732D01*
X389156Y-137761D01*
X389111Y-137786D01*
X389070Y-137808D01*
X389026Y-137828D01*
X388940Y-137856D01*
X388902Y-137869D01*
X388864Y-137878D01*
X388832Y-137885D01*
X388803Y-137891D01*
X388778Y-137894D01*
X388762D01*
X388749Y-137897D01*
X388746D01*
X388714Y-137589D01*
X388797Y-137583D01*
X388867Y-137570D01*
X388927Y-137548D01*
X388981Y-137523D01*
X389019Y-137500D01*
X389051Y-137478D01*
X389067Y-137465D01*
X389073Y-137459D01*
X389118Y-137408D01*
X389150Y-137351D01*
X389172Y-137291D01*
X389188Y-137237D01*
X389197Y-137189D01*
X389200Y-137167D01*
Y-137148D01*
X389203Y-137135D01*
Y-137113D01*
X389197Y-137040D01*
X389184Y-136973D01*
X389165Y-136916D01*
X389143Y-136869D01*
X389118Y-136831D01*
X389099Y-136802D01*
X389086Y-136786D01*
X389080Y-136780D01*
X389032Y-136735D01*
X388981Y-136704D01*
X388934Y-136681D01*
X388886Y-136665D01*
X388845Y-136656D01*
X388810Y-136653D01*
X388797Y-136650D01*
X388791D01*
X388784D01*
X388781D01*
X388749D01*
X388718Y-136656D01*
X388651Y-136672D01*
X388591Y-136694D01*
X388537Y-136719D01*
X388489Y-136748D01*
X388470Y-136761D01*
X388451Y-136770D01*
X388438Y-136780D01*
X388429Y-136786D01*
X388422Y-136789D01*
X388419Y-136792D01*
X388381Y-136821D01*
X388343Y-136856D01*
X388302Y-136894D01*
X388257Y-136935D01*
X388172Y-137024D01*
X388089Y-137113D01*
X388051Y-137154D01*
X388016Y-137196D01*
X387984Y-137234D01*
X387956Y-137266D01*
X387934Y-137291D01*
X387918Y-137313D01*
X387905Y-137326D01*
X387902Y-137329D01*
X387826Y-137421D01*
X387756Y-137500D01*
X387692Y-137567D01*
X387638Y-137621D01*
X387594Y-137666D01*
X387559Y-137697D01*
X387546Y-137707D01*
X387537Y-137716D01*
X387533Y-137719D01*
X387530Y-137723D01*
X387470Y-137770D01*
X387413Y-137812D01*
X387359Y-137843D01*
X387308Y-137872D01*
X387267Y-137894D01*
X387235Y-137907D01*
X387222Y-137913D01*
X387213Y-137916D01*
X387210Y-137920D01*
X387206D01*
X387168Y-137932D01*
X387133Y-137942D01*
X387098Y-137948D01*
X387067Y-137951D01*
X387038Y-137955D01*
X387019D01*
X387006D01*
X387000D01*
Y-136338D01*
X387289D01*
Y-137538D01*
D02*
G37*
G36*
X389442Y-138653D02*
X388032D01*
X387949Y-138656D01*
X387873Y-138659D01*
X387803Y-138666D01*
X387740Y-138675D01*
X387683Y-138688D01*
X387632Y-138701D01*
X387587Y-138713D01*
X387549Y-138729D01*
X387514Y-138742D01*
X387486Y-138758D01*
X387460Y-138770D01*
X387441Y-138780D01*
X387429Y-138793D01*
X387419Y-138799D01*
X387413Y-138802D01*
X387410Y-138805D01*
X387381Y-138837D01*
X387359Y-138872D01*
X387337Y-138910D01*
X387318Y-138948D01*
X387289Y-139034D01*
X387270Y-139116D01*
X387263Y-139155D01*
X387260Y-139193D01*
X387257Y-139228D01*
X387254Y-139256D01*
X387251Y-139278D01*
Y-139313D01*
X387254Y-139390D01*
X387263Y-139456D01*
X387276Y-139517D01*
X387292Y-139567D01*
X387305Y-139609D01*
X387318Y-139640D01*
X387327Y-139659D01*
X387330Y-139663D01*
Y-139666D01*
X387365Y-139717D01*
X387400Y-139758D01*
X387441Y-139793D01*
X387476Y-139821D01*
X387511Y-139844D01*
X387537Y-139856D01*
X387556Y-139866D01*
X387559Y-139869D01*
X387562D01*
X387594Y-139879D01*
X387626Y-139888D01*
X387699Y-139901D01*
X387778Y-139913D01*
X387854Y-139920D01*
X387889D01*
X387924Y-139923D01*
X387952D01*
X387981Y-139926D01*
X388000D01*
X388019D01*
X388029D01*
X388032D01*
X389442D01*
Y-140250D01*
X388029D01*
X387959D01*
X387892Y-140247D01*
X387829Y-140240D01*
X387768Y-140234D01*
X387714Y-140228D01*
X387664Y-140221D01*
X387619Y-140212D01*
X387578Y-140202D01*
X387540Y-140196D01*
X387508Y-140187D01*
X387479Y-140180D01*
X387457Y-140171D01*
X387438Y-140167D01*
X387425Y-140161D01*
X387419Y-140158D01*
X387416D01*
X387337Y-140117D01*
X387270Y-140069D01*
X387210Y-140018D01*
X387162Y-139967D01*
X387124Y-139920D01*
X387098Y-139882D01*
X387089Y-139869D01*
X387083Y-139856D01*
X387076Y-139850D01*
Y-139847D01*
X387038Y-139761D01*
X387010Y-139666D01*
X386987Y-139574D01*
X386975Y-139485D01*
X386968Y-139444D01*
X386965Y-139405D01*
X386962Y-139370D01*
Y-139342D01*
X386959Y-139317D01*
Y-139285D01*
X386962Y-139221D01*
X386965Y-139158D01*
X386971Y-139101D01*
X386981Y-139047D01*
X386991Y-138996D01*
X387000Y-138951D01*
X387013Y-138907D01*
X387025Y-138869D01*
X387038Y-138834D01*
X387051Y-138802D01*
X387060Y-138777D01*
X387070Y-138755D01*
X387079Y-138739D01*
X387086Y-138726D01*
X387092Y-138720D01*
Y-138716D01*
X387118Y-138678D01*
X387146Y-138640D01*
X387206Y-138577D01*
X387263Y-138526D01*
X387321Y-138485D01*
X387368Y-138453D01*
X387391Y-138440D01*
X387410Y-138431D01*
X387422Y-138424D01*
X387435Y-138418D01*
X387441Y-138415D01*
X387444D01*
X387486Y-138399D01*
X387530Y-138386D01*
X387626Y-138364D01*
X387724Y-138351D01*
X387819Y-138339D01*
X387860Y-138336D01*
X387902Y-138332D01*
X387937D01*
X387968Y-138329D01*
X387994D01*
X388013D01*
X388026D01*
X388029D01*
X389442D01*
Y-138653D01*
D02*
G37*
G36*
X500722Y791018D02*
X500780Y791010D01*
X500831Y790997D01*
X500874Y790985D01*
X500907Y790975D01*
X500932Y790962D01*
X500948Y790954D01*
X500953Y790952D01*
X500993Y790924D01*
X501026Y790893D01*
X501052Y790863D01*
X501075Y790832D01*
X501090Y790807D01*
X501102Y790784D01*
X501108Y790771D01*
X501110Y790766D01*
X501125Y790721D01*
X501135Y790670D01*
X501146Y790619D01*
X501151Y790571D01*
X501153Y790525D01*
Y790507D01*
X501156Y790492D01*
Y790477D01*
Y790467D01*
Y790462D01*
Y790459D01*
Y789720D01*
X500986D01*
Y790459D01*
Y790502D01*
X500983Y790543D01*
X500978Y790578D01*
X500973Y790611D01*
X500968Y790642D01*
X500960Y790667D01*
X500953Y790690D01*
X500945Y790713D01*
X500937Y790731D01*
X500930Y790746D01*
X500922Y790756D01*
X500917Y790766D01*
X500907Y790779D01*
X500904Y790784D01*
X500871Y790812D01*
X500831Y790832D01*
X500788Y790848D01*
X500742Y790858D01*
X500704Y790863D01*
X500686Y790865D01*
X500671D01*
X500658Y790868D01*
X500640D01*
X500602Y790865D01*
X500564Y790860D01*
X500533Y790855D01*
X500506Y790848D01*
X500485Y790840D01*
X500467Y790832D01*
X500457Y790830D01*
X500455Y790827D01*
X500429Y790809D01*
X500406Y790789D01*
X500389Y790769D01*
X500376Y790751D01*
X500363Y790733D01*
X500356Y790718D01*
X500353Y790708D01*
X500351Y790705D01*
X500340Y790672D01*
X500333Y790634D01*
X500328Y790594D01*
X500325Y790553D01*
X500323Y790515D01*
X500320Y790487D01*
Y790474D01*
Y790467D01*
Y790462D01*
Y790459D01*
Y789720D01*
X500150D01*
Y790459D01*
X500153Y790530D01*
X500158Y790596D01*
X500165Y790649D01*
X500175Y790695D01*
X500183Y790733D01*
X500188Y790749D01*
X500191Y790759D01*
X500193Y790769D01*
X500196Y790777D01*
X500198Y790779D01*
Y790782D01*
X500219Y790822D01*
X500244Y790858D01*
X500272Y790888D01*
X500297Y790914D01*
X500323Y790934D01*
X500343Y790947D01*
X500356Y790957D01*
X500361Y790959D01*
X500406Y790980D01*
X500455Y790995D01*
X500506Y791005D01*
X500551Y791013D01*
X500592Y791018D01*
X500610D01*
X500625Y791020D01*
X500656D01*
X500722Y791018D01*
D02*
G37*
G36*
X501832D02*
X501862Y791015D01*
X501923Y791003D01*
X501976Y790985D01*
X502019Y790964D01*
X502055Y790947D01*
X502080Y790929D01*
X502088Y790921D01*
X502096Y790916D01*
X502098Y790911D01*
X502101D01*
X502121Y790888D01*
X502139Y790868D01*
X502169Y790820D01*
X502190Y790774D01*
X502202Y790731D01*
X502212Y790693D01*
X502215Y790675D01*
Y790662D01*
X502218Y790649D01*
Y790642D01*
Y790637D01*
Y790634D01*
X502215Y790591D01*
X502207Y790553D01*
X502197Y790520D01*
X502187Y790490D01*
X502174Y790467D01*
X502164Y790449D01*
X502157Y790436D01*
X502154Y790434D01*
X502129Y790403D01*
X502101Y790378D01*
X502070Y790355D01*
X502042Y790337D01*
X502014Y790324D01*
X501994Y790314D01*
X501979Y790309D01*
X501976Y790307D01*
X501974D01*
X502007Y790291D01*
X502037Y790276D01*
X502060Y790258D01*
X502080Y790243D01*
X502096Y790230D01*
X502108Y790218D01*
X502113Y790210D01*
X502116Y790208D01*
X502131Y790182D01*
X502144Y790154D01*
X502151Y790129D01*
X502159Y790106D01*
X502162Y790083D01*
X502164Y790068D01*
Y790058D01*
Y790053D01*
X502159Y790002D01*
X502149Y789956D01*
X502131Y789915D01*
X502113Y789882D01*
X502093Y789855D01*
X502075Y789834D01*
X502065Y789821D01*
X502060Y789816D01*
X502019Y789783D01*
X501976Y789758D01*
X501931Y789740D01*
X501887Y789730D01*
X501849Y789722D01*
X501834Y789720D01*
X501819D01*
X501806Y789717D01*
X501791D01*
X501732Y789722D01*
X501679Y789733D01*
X501633Y789748D01*
X501595Y789766D01*
X501565Y789783D01*
X501542Y789799D01*
X501529Y789809D01*
X501524Y789814D01*
X501491Y789852D01*
X501466Y789890D01*
X501451Y789928D01*
X501438Y789966D01*
X501430Y789999D01*
X501428Y790025D01*
X501425Y790035D01*
Y790042D01*
Y790045D01*
Y790048D01*
X501428Y790080D01*
X501433Y790111D01*
X501440Y790136D01*
X501448Y790159D01*
X501456Y790180D01*
X501463Y790192D01*
X501468Y790202D01*
X501471Y790205D01*
X501491Y790228D01*
X501514Y790248D01*
X501539Y790266D01*
X501562Y790281D01*
X501585Y790291D01*
X501603Y790299D01*
X501613Y790304D01*
X501618Y790307D01*
X501577Y790319D01*
X501542Y790337D01*
X501509Y790357D01*
X501483Y790375D01*
X501463Y790396D01*
X501451Y790408D01*
X501440Y790418D01*
X501438Y790423D01*
X501418Y790456D01*
X501402Y790492D01*
X501390Y790525D01*
X501382Y790558D01*
X501377Y790589D01*
X501374Y790611D01*
Y790627D01*
Y790629D01*
Y790632D01*
X501377Y790662D01*
X501379Y790690D01*
X501392Y790743D01*
X501410Y790792D01*
X501433Y790832D01*
X501453Y790865D01*
X501471Y790888D01*
X501483Y790903D01*
X501489Y790906D01*
Y790909D01*
X501511Y790929D01*
X501534Y790944D01*
X501585Y790972D01*
X501638Y790992D01*
X501687Y791005D01*
X501730Y791015D01*
X501748Y791018D01*
X501765D01*
X501778Y791020D01*
X501796D01*
X501832Y791018D01*
D02*
G37*
G36*
X549000Y732052D02*
X547084D01*
Y733439D01*
X547311D01*
Y732307D01*
X547895D01*
Y733367D01*
X548122D01*
Y732307D01*
X548773D01*
Y733483D01*
X549000D01*
Y732052D01*
D02*
G37*
G36*
X548737Y731673D02*
X548740Y731667D01*
X548748Y731656D01*
X548759Y731642D01*
X548770Y731625D01*
X548784Y731606D01*
X548801Y731581D01*
X548817Y731556D01*
X548853Y731498D01*
X548892Y731432D01*
X548928Y731362D01*
X548959Y731288D01*
Y731285D01*
X548961Y731279D01*
X548964Y731268D01*
X548969Y731254D01*
X548975Y731235D01*
X548983Y731213D01*
X548989Y731188D01*
X548994Y731163D01*
X549008Y731102D01*
X549022Y731033D01*
X549030Y730958D01*
X549033Y730881D01*
Y730853D01*
X549030Y730834D01*
Y730809D01*
X549028Y730778D01*
X549022Y730745D01*
X549019Y730709D01*
X549003Y730629D01*
X548983Y730543D01*
X548953Y730454D01*
X548936Y730410D01*
X548914Y730366D01*
X548911Y730363D01*
X548909Y730355D01*
X548900Y730343D01*
X548892Y730327D01*
X548878Y730308D01*
X548864Y730288D01*
X548826Y730236D01*
X548776Y730180D01*
X548715Y730122D01*
X548646Y730067D01*
X548565Y730017D01*
X548563D01*
X548554Y730011D01*
X548543Y730006D01*
X548524Y729997D01*
X548504Y729989D01*
X548477Y729981D01*
X548449Y729970D01*
X548416Y729959D01*
X548380Y729948D01*
X548338Y729937D01*
X548297Y729928D01*
X548252Y729920D01*
X548156Y729906D01*
X548053Y729901D01*
X548050D01*
X548039D01*
X548025D01*
X548006Y729903D01*
X547981D01*
X547951Y729906D01*
X547920Y729912D01*
X547884Y729914D01*
X547845Y729923D01*
X547804Y729928D01*
X547715Y729950D01*
X547624Y729978D01*
X547533Y730017D01*
X547530Y730020D01*
X547522Y730022D01*
X547510Y730028D01*
X547494Y730039D01*
X547472Y730050D01*
X547450Y730064D01*
X547397Y730103D01*
X547336Y730150D01*
X547278Y730208D01*
X547220Y730274D01*
X547195Y730313D01*
X547170Y730352D01*
X547167Y730355D01*
X547164Y730363D01*
X547159Y730374D01*
X547151Y730391D01*
X547142Y730413D01*
X547131Y730438D01*
X547120Y730465D01*
X547109Y730499D01*
X547098Y730535D01*
X547090Y730573D01*
X547079Y730615D01*
X547070Y730659D01*
X547056Y730756D01*
X547051Y730806D01*
Y730894D01*
X547054Y730911D01*
Y730933D01*
X547059Y730986D01*
X547067Y731044D01*
X547081Y731105D01*
X547098Y731171D01*
X547120Y731235D01*
Y731238D01*
X547123Y731243D01*
X547126Y731252D01*
X547131Y731263D01*
X547148Y731293D01*
X547167Y731332D01*
X547195Y731374D01*
X547228Y731418D01*
X547264Y731459D01*
X547308Y731498D01*
X547314Y731504D01*
X547331Y731515D01*
X547355Y731531D01*
X547391Y731553D01*
X547436Y731576D01*
X547491Y731600D01*
X547552Y731625D01*
X547621Y731645D01*
X547682Y731415D01*
X547679D01*
X547677Y731412D01*
X547668Y731410D01*
X547657Y731407D01*
X547632Y731398D01*
X547599Y731387D01*
X547560Y731371D01*
X547524Y731351D01*
X547486Y731332D01*
X547452Y731307D01*
X547450Y731304D01*
X547439Y731296D01*
X547425Y731279D01*
X547405Y731260D01*
X547383Y731235D01*
X547361Y731202D01*
X547339Y731166D01*
X547319Y731124D01*
X547317Y731119D01*
X547311Y731105D01*
X547303Y731080D01*
X547292Y731047D01*
X547284Y731008D01*
X547275Y730964D01*
X547270Y730914D01*
X547267Y730861D01*
Y730831D01*
X547270Y730817D01*
Y730800D01*
X547272Y730759D01*
X547281Y730712D01*
X547289Y730659D01*
X547303Y730609D01*
X547322Y730559D01*
X547325Y730554D01*
X547331Y730537D01*
X547344Y730515D01*
X547358Y730488D01*
X547380Y730454D01*
X547402Y730418D01*
X547430Y730385D01*
X547461Y730355D01*
X547463Y730352D01*
X547475Y730341D01*
X547494Y730327D01*
X547516Y730310D01*
X547544Y730291D01*
X547577Y730272D01*
X547613Y730252D01*
X547652Y730233D01*
X547654D01*
X547660Y730230D01*
X547668Y730227D01*
X547682Y730222D01*
X547699Y730216D01*
X547718Y730211D01*
X547740Y730202D01*
X547765Y730197D01*
X547823Y730183D01*
X547890Y730172D01*
X547959Y730164D01*
X548036Y730161D01*
X548039D01*
X548048D01*
X548061D01*
X548078Y730164D01*
X548100D01*
X548128Y730166D01*
X548156Y730169D01*
X548186Y730172D01*
X548255Y730183D01*
X548327Y730197D01*
X548399Y730219D01*
X548468Y730247D01*
X548471D01*
X548477Y730252D01*
X548485Y730255D01*
X548496Y730263D01*
X548527Y730283D01*
X548565Y730313D01*
X548607Y730349D01*
X548648Y730393D01*
X548687Y730446D01*
X548723Y730504D01*
Y730507D01*
X548726Y730512D01*
X548731Y730521D01*
X548737Y730535D01*
X548742Y730548D01*
X548748Y730568D01*
X548765Y730612D01*
X548778Y730667D01*
X548792Y730728D01*
X548803Y730795D01*
X548806Y730864D01*
Y730892D01*
X548803Y730908D01*
Y730925D01*
X548798Y730966D01*
X548792Y731016D01*
X548781Y731069D01*
X548765Y731127D01*
X548745Y731185D01*
Y731188D01*
X548742Y731193D01*
X548740Y731199D01*
X548734Y731210D01*
X548720Y731241D01*
X548704Y731274D01*
X548684Y731313D01*
X548662Y731354D01*
X548637Y731393D01*
X548610Y731426D01*
X548250D01*
Y730861D01*
X548023D01*
Y731675D01*
X548734D01*
X548737Y731673D01*
D02*
G37*
G36*
X548089Y729615D02*
X548111D01*
X548164Y729613D01*
X548225Y729604D01*
X548288Y729596D01*
X548355Y729582D01*
X548421Y729566D01*
X548424D01*
X548430Y729563D01*
X548438Y729560D01*
X548449Y729557D01*
X548479Y729546D01*
X548518Y729530D01*
X548563Y729513D01*
X548607Y729491D01*
X548654Y729463D01*
X548698Y729435D01*
X548704Y729433D01*
X548718Y729422D01*
X548737Y729405D01*
X548762Y729383D01*
X548790Y729358D01*
X548817Y729327D01*
X548848Y729297D01*
X548873Y729261D01*
X548875Y729256D01*
X548884Y729244D01*
X548895Y729225D01*
X548909Y729197D01*
X548925Y729164D01*
X548939Y729125D01*
X548956Y729081D01*
X548969Y729031D01*
Y729026D01*
X548972Y729017D01*
X548975Y729009D01*
X548978Y728981D01*
X548983Y728943D01*
X548989Y728898D01*
X548994Y728846D01*
X548997Y728788D01*
X549000Y728724D01*
Y728035D01*
X547084D01*
Y728771D01*
X547087Y728821D01*
X547090Y728876D01*
X547095Y728932D01*
X547104Y728987D01*
X547112Y729034D01*
Y729037D01*
X547115Y729042D01*
Y729051D01*
X547120Y729062D01*
X547128Y729092D01*
X547142Y729131D01*
X547162Y729175D01*
X547187Y729222D01*
X547214Y729269D01*
X547250Y729314D01*
X547253Y729316D01*
X547256Y729319D01*
X547264Y729327D01*
X547272Y729339D01*
X547300Y729366D01*
X547339Y729399D01*
X547386Y729435D01*
X547441Y729474D01*
X547505Y729510D01*
X547577Y729541D01*
X547580D01*
X547585Y729543D01*
X547596Y729549D01*
X547613Y729552D01*
X547632Y729560D01*
X547654Y729566D01*
X547679Y729571D01*
X547710Y729579D01*
X547740Y729588D01*
X547776Y729593D01*
X547854Y729607D01*
X547940Y729615D01*
X548034Y729618D01*
X548036D01*
X548042D01*
X548056D01*
X548070D01*
X548089Y729615D01*
D02*
G37*
G36*
X549000Y726252D02*
X547084D01*
Y727639D01*
X547311D01*
Y726506D01*
X547895D01*
Y727567D01*
X548122D01*
Y726506D01*
X548773D01*
Y727683D01*
X549000D01*
Y726252D01*
D02*
G37*
G36*
X548493Y725152D02*
X548527Y725147D01*
X548565Y725141D01*
X548607Y725130D01*
X548651Y725116D01*
X548695Y725097D01*
X548701Y725094D01*
X548715Y725086D01*
X548734Y725075D01*
X548762Y725058D01*
X548790Y725036D01*
X548820Y725014D01*
X548851Y724986D01*
X548875Y724956D01*
X548878Y724953D01*
X548886Y724942D01*
X548898Y724923D01*
X548909Y724898D01*
X548925Y724867D01*
X548942Y724831D01*
X548956Y724792D01*
X548969Y724745D01*
Y724740D01*
X548975Y724723D01*
X548978Y724696D01*
X548983Y724660D01*
X548989Y724615D01*
X548994Y724563D01*
X548997Y724505D01*
X549000Y724438D01*
Y723707D01*
X547084D01*
Y724460D01*
X547087Y724480D01*
Y724502D01*
X547092Y724552D01*
X547098Y724607D01*
X547109Y724665D01*
X547123Y724723D01*
X547142Y724776D01*
Y724779D01*
X547145Y724781D01*
X547153Y724798D01*
X547167Y724823D01*
X547187Y724851D01*
X547211Y724884D01*
X547242Y724920D01*
X547281Y724953D01*
X547322Y724984D01*
X547328Y724986D01*
X547344Y724995D01*
X547366Y725008D01*
X547400Y725022D01*
X547439Y725036D01*
X547480Y725050D01*
X547527Y725058D01*
X547574Y725061D01*
X547580D01*
X547593D01*
X547618Y725058D01*
X547649Y725053D01*
X547685Y725044D01*
X547724Y725031D01*
X547762Y725014D01*
X547804Y724992D01*
X547809Y724989D01*
X547821Y724981D01*
X547843Y724964D01*
X547865Y724942D01*
X547893Y724914D01*
X547923Y724881D01*
X547951Y724840D01*
X547978Y724792D01*
Y724795D01*
X547981Y724801D01*
X547984Y724809D01*
X547990Y724820D01*
X548000Y724853D01*
X548020Y724892D01*
X548045Y724934D01*
X548075Y724981D01*
X548111Y725022D01*
X548156Y725061D01*
X548161Y725064D01*
X548178Y725075D01*
X548203Y725091D01*
X548236Y725108D01*
X548280Y725125D01*
X548327Y725141D01*
X548383Y725152D01*
X548443Y725155D01*
X548446D01*
X548449D01*
X548466D01*
X548493Y725152D01*
D02*
G37*
G36*
X548408Y723403D02*
X548424Y723397D01*
X548446Y723389D01*
X548471Y723381D01*
X548502Y723369D01*
X548535Y723356D01*
X548571Y723339D01*
X548648Y723300D01*
X548726Y723250D01*
X548765Y723220D01*
X548803Y723189D01*
X548837Y723156D01*
X548870Y723118D01*
X548873Y723115D01*
X548878Y723109D01*
X548884Y723095D01*
X548895Y723082D01*
X548909Y723059D01*
X548923Y723037D01*
X548936Y723007D01*
X548950Y722976D01*
X548967Y722940D01*
X548981Y722902D01*
X548994Y722860D01*
X549008Y722816D01*
X549019Y722769D01*
X549025Y722719D01*
X549030Y722666D01*
X549033Y722611D01*
Y722580D01*
X549030Y722558D01*
Y722533D01*
X549028Y722503D01*
X549022Y722470D01*
X549017Y722431D01*
X549003Y722351D01*
X548981Y722268D01*
X548950Y722185D01*
X548931Y722146D01*
X548909Y722107D01*
X548906Y722104D01*
X548903Y722099D01*
X548895Y722088D01*
X548884Y722076D01*
X548873Y722060D01*
X548856Y722040D01*
X548837Y722018D01*
X548815Y721996D01*
X548790Y721974D01*
X548765Y721949D01*
X548701Y721899D01*
X548626Y721852D01*
X548543Y721811D01*
X548540D01*
X548532Y721805D01*
X548518Y721802D01*
X548502Y721794D01*
X548479Y721789D01*
X548452Y721780D01*
X548421Y721769D01*
X548388Y721761D01*
X548352Y721753D01*
X548311Y721741D01*
X548225Y721728D01*
X548128Y721717D01*
X548028Y721711D01*
X548025D01*
X548014D01*
X547998D01*
X547978Y721714D01*
X547951D01*
X547923Y721717D01*
X547887Y721719D01*
X547851Y721725D01*
X547771Y721739D01*
X547682Y721758D01*
X547593Y721786D01*
X547508Y721825D01*
X547505Y721827D01*
X547497Y721830D01*
X547486Y721836D01*
X547472Y721847D01*
X547452Y721858D01*
X547430Y721872D01*
X547380Y721908D01*
X547325Y721955D01*
X547270Y722010D01*
X547214Y722074D01*
X547167Y722149D01*
X547164Y722151D01*
X547162Y722160D01*
X547156Y722171D01*
X547148Y722185D01*
X547140Y722207D01*
X547131Y722229D01*
X547120Y722256D01*
X547109Y722287D01*
X547098Y722320D01*
X547087Y722356D01*
X547070Y722434D01*
X547056Y722522D01*
X547051Y722614D01*
Y722641D01*
X547054Y722661D01*
X547056Y722686D01*
X547059Y722716D01*
X547062Y722747D01*
X547070Y722783D01*
X547087Y722857D01*
X547112Y722940D01*
X547128Y722982D01*
X547148Y723021D01*
X547173Y723059D01*
X547198Y723098D01*
X547200Y723101D01*
X547203Y723106D01*
X547211Y723118D01*
X547225Y723131D01*
X547239Y723145D01*
X547258Y723165D01*
X547281Y723184D01*
X547303Y723206D01*
X547331Y723228D01*
X547364Y723250D01*
X547397Y723275D01*
X547433Y723298D01*
X547475Y723317D01*
X547516Y723339D01*
X547560Y723356D01*
X547610Y723372D01*
X547668Y723123D01*
X547665D01*
X547660Y723120D01*
X547649Y723115D01*
X547635Y723109D01*
X547618Y723104D01*
X547596Y723095D01*
X547552Y723073D01*
X547502Y723046D01*
X547452Y723012D01*
X547405Y722971D01*
X547364Y722926D01*
X547358Y722921D01*
X547347Y722904D01*
X547333Y722877D01*
X547314Y722841D01*
X547297Y722794D01*
X547281Y722741D01*
X547270Y722677D01*
X547267Y722608D01*
Y722586D01*
X547270Y722572D01*
Y722553D01*
X547272Y722531D01*
X547281Y722478D01*
X547292Y722420D01*
X547311Y722359D01*
X547339Y722295D01*
X547375Y722237D01*
Y722234D01*
X547380Y722232D01*
X547394Y722212D01*
X547416Y722187D01*
X547450Y722157D01*
X547491Y722121D01*
X547538Y722088D01*
X547596Y722057D01*
X547660Y722029D01*
X547663D01*
X547668Y722027D01*
X547677Y722024D01*
X547690Y722021D01*
X547707Y722016D01*
X547726Y722010D01*
X547774Y722002D01*
X547829Y721991D01*
X547890Y721980D01*
X547956Y721974D01*
X548028Y721971D01*
X548031D01*
X548039D01*
X548053D01*
X548070D01*
X548089Y721974D01*
X548114D01*
X548142Y721977D01*
X548172Y721980D01*
X548239Y721988D01*
X548311Y722002D01*
X548383Y722018D01*
X548455Y722040D01*
X548457D01*
X548463Y722043D01*
X548471Y722049D01*
X548485Y722054D01*
X548518Y722071D01*
X548557Y722096D01*
X548601Y722126D01*
X548648Y722165D01*
X548690Y722209D01*
X548729Y722262D01*
Y722265D01*
X548731Y722270D01*
X548737Y722279D01*
X548742Y722290D01*
X548748Y722303D01*
X548756Y722320D01*
X548773Y722359D01*
X548790Y722409D01*
X548803Y722464D01*
X548815Y722525D01*
X548817Y722589D01*
Y722608D01*
X548815Y722625D01*
Y722644D01*
X548812Y722663D01*
X548801Y722713D01*
X548787Y722771D01*
X548765Y722830D01*
X548734Y722890D01*
X548718Y722921D01*
X548695Y722949D01*
X548693Y722951D01*
X548690Y722954D01*
X548682Y722962D01*
X548673Y722973D01*
X548660Y722985D01*
X548643Y722999D01*
X548626Y723015D01*
X548604Y723029D01*
X548579Y723046D01*
X548551Y723065D01*
X548524Y723082D01*
X548491Y723098D01*
X548455Y723112D01*
X548416Y723126D01*
X548374Y723140D01*
X548330Y723151D01*
X548394Y723405D01*
X548396D01*
X548408Y723403D01*
D02*
G37*
G36*
X547682Y721459D02*
X547701Y721456D01*
X547726Y721454D01*
X547754Y721448D01*
X547785Y721442D01*
X547848Y721423D01*
X547882Y721412D01*
X547918Y721395D01*
X547953Y721376D01*
X547987Y721357D01*
X548020Y721332D01*
X548053Y721304D01*
X548056Y721301D01*
X548061Y721296D01*
X548070Y721288D01*
X548078Y721274D01*
X548092Y721257D01*
X548106Y721235D01*
X548122Y721207D01*
X548136Y721177D01*
X548153Y721141D01*
X548169Y721099D01*
X548183Y721055D01*
X548194Y721002D01*
X548205Y720947D01*
X548214Y720886D01*
X548219Y720817D01*
X548222Y720745D01*
Y720255D01*
X549000D01*
Y720000D01*
X547084D01*
Y720786D01*
X547087Y720828D01*
X547090Y720875D01*
X547092Y720925D01*
X547098Y720972D01*
X547104Y721013D01*
Y721019D01*
X547109Y721038D01*
X547115Y721063D01*
X547123Y721096D01*
X547137Y721132D01*
X547153Y721171D01*
X547173Y721213D01*
X547195Y721249D01*
X547198Y721254D01*
X547206Y721265D01*
X547223Y721282D01*
X547242Y721304D01*
X547267Y721329D01*
X547300Y721354D01*
X547336Y721382D01*
X547378Y721404D01*
X547383Y721406D01*
X547397Y721412D01*
X547422Y721423D01*
X547455Y721434D01*
X547494Y721442D01*
X547538Y721454D01*
X547588Y721459D01*
X547641Y721462D01*
X547643D01*
X547652D01*
X547663D01*
X547682Y721459D01*
D02*
G37*
G36*
X59105Y119153D02*
X59156Y119143D01*
X59199Y119128D01*
X59235Y119113D01*
X59265Y119095D01*
X59288Y119082D01*
X59301Y119072D01*
X59306Y119067D01*
X59342Y119031D01*
X59370Y118993D01*
X59392Y118953D01*
X59408Y118912D01*
X59420Y118876D01*
X59430Y118848D01*
X59433Y118838D01*
Y118831D01*
X59436Y118826D01*
Y118823D01*
X59278Y118795D01*
X59270Y118836D01*
X59260Y118871D01*
X59248Y118899D01*
X59235Y118925D01*
X59222Y118942D01*
X59212Y118958D01*
X59204Y118965D01*
X59202Y118968D01*
X59177Y118988D01*
X59151Y119001D01*
X59126Y119011D01*
X59103Y119019D01*
X59082Y119024D01*
X59065Y119026D01*
X59050D01*
X59016Y119024D01*
X58986Y119016D01*
X58961Y119009D01*
X58938Y118998D01*
X58920Y118986D01*
X58907Y118978D01*
X58900Y118970D01*
X58897Y118968D01*
X58877Y118945D01*
X58864Y118922D01*
X58854Y118899D01*
X58846Y118876D01*
X58841Y118856D01*
X58839Y118841D01*
Y118831D01*
Y118826D01*
X58841Y118787D01*
X58851Y118755D01*
X58864Y118727D01*
X58879Y118704D01*
X58895Y118686D01*
X58907Y118673D01*
X58917Y118666D01*
X58920Y118663D01*
X58950Y118645D01*
X58981Y118633D01*
X59011Y118625D01*
X59039Y118620D01*
X59065Y118615D01*
X59082Y118612D01*
X59108D01*
X59116Y118615D01*
X59126D01*
X59141Y118478D01*
X59118Y118483D01*
X59095Y118488D01*
X59077Y118490D01*
X59062D01*
X59050Y118493D01*
X59032D01*
X58994Y118490D01*
X58958Y118483D01*
X58927Y118470D01*
X58900Y118457D01*
X58879Y118445D01*
X58864Y118432D01*
X58854Y118424D01*
X58851Y118422D01*
X58829Y118394D01*
X58811Y118366D01*
X58798Y118335D01*
X58788Y118307D01*
X58783Y118285D01*
X58780Y118264D01*
Y118252D01*
Y118246D01*
X58783Y118206D01*
X58793Y118170D01*
X58803Y118137D01*
X58818Y118112D01*
X58831Y118089D01*
X58844Y118071D01*
X58854Y118061D01*
X58856Y118059D01*
X58887Y118033D01*
X58917Y118015D01*
X58950Y118000D01*
X58978Y117992D01*
X59004Y117987D01*
X59027Y117985D01*
X59039Y117982D01*
X59044D01*
X59077Y117985D01*
X59108Y117992D01*
X59136Y118000D01*
X59159Y118013D01*
X59179Y118023D01*
X59192Y118031D01*
X59202Y118038D01*
X59204Y118041D01*
X59227Y118066D01*
X59245Y118097D01*
X59260Y118127D01*
X59273Y118160D01*
X59281Y118188D01*
X59288Y118211D01*
X59291Y118229D01*
X59293Y118231D01*
Y118234D01*
X59451Y118214D01*
X59441Y118158D01*
X59425Y118104D01*
X59405Y118061D01*
X59382Y118023D01*
X59362Y117992D01*
X59344Y117970D01*
X59331Y117957D01*
X59326Y117952D01*
X59283Y117919D01*
X59235Y117893D01*
X59189Y117878D01*
X59143Y117865D01*
X59103Y117858D01*
X59088Y117855D01*
X59072D01*
X59060Y117853D01*
X59044D01*
X59011Y117855D01*
X58978Y117858D01*
X58917Y117871D01*
X58867Y117888D01*
X58821Y117911D01*
X58785Y117931D01*
X58760Y117949D01*
X58750Y117957D01*
X58742Y117962D01*
X58740Y117967D01*
X58737D01*
X58714Y117990D01*
X58696Y118013D01*
X58679Y118036D01*
X58666Y118061D01*
X58643Y118107D01*
X58628Y118153D01*
X58620Y118191D01*
X58615Y118208D01*
Y118221D01*
X58613Y118234D01*
Y118241D01*
Y118246D01*
Y118249D01*
X58615Y118295D01*
X58623Y118333D01*
X58633Y118368D01*
X58643Y118399D01*
X58656Y118422D01*
X58666Y118440D01*
X58674Y118452D01*
X58676Y118455D01*
X58702Y118483D01*
X58729Y118506D01*
X58760Y118526D01*
X58788Y118541D01*
X58813Y118551D01*
X58836Y118559D01*
X58849Y118561D01*
X58851Y118564D01*
X58854D01*
X58823Y118579D01*
X58795Y118597D01*
X58775Y118615D01*
X58755Y118633D01*
X58740Y118648D01*
X58729Y118660D01*
X58724Y118668D01*
X58722Y118671D01*
X58707Y118696D01*
X58696Y118724D01*
X58686Y118749D01*
X58681Y118772D01*
X58679Y118793D01*
X58676Y118808D01*
Y118820D01*
Y118823D01*
X58679Y118856D01*
X58684Y118884D01*
X58691Y118912D01*
X58699Y118937D01*
X58709Y118958D01*
X58717Y118973D01*
X58722Y118983D01*
X58724Y118986D01*
X58742Y119014D01*
X58765Y119039D01*
X58788Y119059D01*
X58808Y119077D01*
X58829Y119092D01*
X58844Y119102D01*
X58854Y119108D01*
X58859Y119110D01*
X58892Y119125D01*
X58927Y119136D01*
X58958Y119146D01*
X58988Y119151D01*
X59014Y119153D01*
X59034Y119156D01*
X59052D01*
X59105Y119153D01*
D02*
G37*
G36*
X59974Y119125D02*
X59997Y119092D01*
X60020Y119064D01*
X60043Y119039D01*
X60065Y119016D01*
X60083Y118998D01*
X60093Y118988D01*
X60099Y118983D01*
X60137Y118953D01*
X60175Y118922D01*
X60213Y118897D01*
X60248Y118876D01*
X60281Y118859D01*
X60304Y118843D01*
X60314Y118841D01*
X60322Y118836D01*
X60325Y118833D01*
X60327D01*
Y118683D01*
X60299Y118694D01*
X60271Y118706D01*
X60243Y118719D01*
X60218Y118732D01*
X60198Y118744D01*
X60180Y118755D01*
X60170Y118760D01*
X60164Y118762D01*
X60132Y118782D01*
X60101Y118803D01*
X60076Y118820D01*
X60053Y118838D01*
X60035Y118851D01*
X60022Y118861D01*
X60015Y118869D01*
X60012Y118871D01*
Y117873D01*
X59855D01*
Y119156D01*
X59956D01*
X59974Y119125D01*
D02*
G37*
G36*
X61673Y118414D02*
X61671Y118343D01*
X61666Y118277D01*
X61658Y118224D01*
X61648Y118178D01*
X61640Y118140D01*
X61635Y118125D01*
X61633Y118114D01*
X61630Y118104D01*
X61628Y118097D01*
X61625Y118094D01*
Y118091D01*
X61605Y118051D01*
X61579Y118015D01*
X61551Y117985D01*
X61526Y117959D01*
X61501Y117939D01*
X61480Y117926D01*
X61467Y117916D01*
X61462Y117914D01*
X61417Y117893D01*
X61368Y117878D01*
X61318Y117868D01*
X61272Y117860D01*
X61231Y117855D01*
X61213D01*
X61198Y117853D01*
X61168D01*
X61102Y117855D01*
X61043Y117863D01*
X60993Y117876D01*
X60949Y117888D01*
X60916Y117899D01*
X60891Y117911D01*
X60876Y117919D01*
X60871Y117921D01*
X60830Y117949D01*
X60797Y117980D01*
X60772Y118010D01*
X60749Y118041D01*
X60733Y118066D01*
X60721Y118089D01*
X60716Y118102D01*
X60713Y118107D01*
X60698Y118153D01*
X60688Y118203D01*
X60678Y118254D01*
X60672Y118302D01*
X60670Y118348D01*
Y118366D01*
X60667Y118381D01*
Y118396D01*
Y118406D01*
Y118412D01*
Y118414D01*
Y119153D01*
X60838D01*
Y118414D01*
Y118371D01*
X60840Y118330D01*
X60845Y118295D01*
X60850Y118262D01*
X60855Y118231D01*
X60863Y118206D01*
X60871Y118183D01*
X60878Y118160D01*
X60886Y118142D01*
X60894Y118127D01*
X60901Y118117D01*
X60906Y118107D01*
X60916Y118094D01*
X60919Y118089D01*
X60952Y118061D01*
X60993Y118041D01*
X61036Y118026D01*
X61082Y118015D01*
X61120Y118010D01*
X61137Y118008D01*
X61153D01*
X61165Y118005D01*
X61183D01*
X61221Y118008D01*
X61259Y118013D01*
X61290Y118018D01*
X61318Y118026D01*
X61338Y118033D01*
X61356Y118041D01*
X61366Y118043D01*
X61368Y118046D01*
X61394Y118064D01*
X61417Y118084D01*
X61434Y118104D01*
X61447Y118122D01*
X61460Y118140D01*
X61467Y118155D01*
X61470Y118165D01*
X61473Y118168D01*
X61483Y118201D01*
X61490Y118239D01*
X61495Y118279D01*
X61498Y118320D01*
X61501Y118358D01*
X61503Y118386D01*
Y118399D01*
Y118406D01*
Y118412D01*
Y118414D01*
Y119153D01*
X61673D01*
Y118414D01*
D02*
G37*
%LPC*%
G36*
X385829Y-82818D02*
X385819D01*
X385816D01*
X385813D01*
X385756Y-82821D01*
X385705Y-82833D01*
X385657Y-82852D01*
X385619Y-82872D01*
X385588Y-82894D01*
X385565Y-82910D01*
X385553Y-82922D01*
X385546Y-82929D01*
X385511Y-82973D01*
X385483Y-83021D01*
X385464Y-83068D01*
X385451Y-83113D01*
X385445Y-83151D01*
X385441Y-83183D01*
X385438Y-83195D01*
Y-83211D01*
X385441Y-83275D01*
X385454Y-83332D01*
X385473Y-83383D01*
X385492Y-83424D01*
X385511Y-83459D01*
X385530Y-83484D01*
X385543Y-83497D01*
X385546Y-83503D01*
X385591Y-83538D01*
X385638Y-83567D01*
X385686Y-83586D01*
X385730Y-83599D01*
X385769Y-83605D01*
X385800Y-83608D01*
X385813Y-83611D01*
X385822D01*
X385826D01*
X385829D01*
X385883Y-83605D01*
X385934Y-83592D01*
X385978Y-83576D01*
X386019Y-83554D01*
X386048Y-83535D01*
X386073Y-83516D01*
X386086Y-83503D01*
X386092Y-83500D01*
X386130Y-83456D01*
X386156Y-83408D01*
X386175Y-83361D01*
X386191Y-83316D01*
X386197Y-83275D01*
X386200Y-83243D01*
X386203Y-83230D01*
Y-83214D01*
X386197Y-83154D01*
X386184Y-83100D01*
X386169Y-83053D01*
X386146Y-83011D01*
X386124Y-82976D01*
X386108Y-82951D01*
X386096Y-82938D01*
X386089Y-82932D01*
X386045Y-82894D01*
X386000Y-82865D01*
X385953Y-82846D01*
X385908Y-82830D01*
X385870Y-82824D01*
X385841Y-82821D01*
X385829Y-82818D01*
D02*
G37*
G36*
X384714Y-82719D02*
X384702D01*
X384695D01*
X384692D01*
X384654D01*
X384616Y-82725D01*
X384549Y-82741D01*
X384489Y-82764D01*
X384438Y-82789D01*
X384397Y-82814D01*
X384368Y-82837D01*
X384349Y-82852D01*
X384346Y-82856D01*
X384343Y-82859D01*
X384318Y-82884D01*
X384298Y-82913D01*
X384263Y-82973D01*
X384241Y-83034D01*
X384222Y-83087D01*
X384213Y-83138D01*
X384210Y-83160D01*
Y-83180D01*
X384206Y-83192D01*
Y-83214D01*
X384210Y-83265D01*
X384216Y-83313D01*
X384225Y-83354D01*
X384238Y-83395D01*
X384251Y-83427D01*
X384260Y-83449D01*
X384267Y-83465D01*
X384270Y-83472D01*
X384298Y-83513D01*
X384327Y-83551D01*
X384359Y-83583D01*
X384387Y-83608D01*
X384413Y-83627D01*
X384435Y-83640D01*
X384448Y-83649D01*
X384454Y-83653D01*
X384498Y-83672D01*
X384543Y-83684D01*
X384587Y-83697D01*
X384626Y-83703D01*
X384657Y-83707D01*
X384683Y-83710D01*
X384698D01*
X384705D01*
X384743Y-83707D01*
X384781Y-83703D01*
X384848Y-83687D01*
X384908Y-83665D01*
X384959Y-83640D01*
X385000Y-83618D01*
X385029Y-83595D01*
X385048Y-83580D01*
X385054Y-83573D01*
X385079Y-83548D01*
X385102Y-83519D01*
X385134Y-83462D01*
X385159Y-83402D01*
X385178Y-83348D01*
X385187Y-83297D01*
X385191Y-83278D01*
Y-83259D01*
X385194Y-83243D01*
Y-83183D01*
X385187Y-83145D01*
X385172Y-83075D01*
X385149Y-83014D01*
X385124Y-82960D01*
X385095Y-82919D01*
X385073Y-82887D01*
X385057Y-82868D01*
X385054Y-82862D01*
X385051D01*
X385025Y-82837D01*
X384997Y-82814D01*
X384937Y-82780D01*
X384876Y-82754D01*
X384819Y-82738D01*
X384768Y-82725D01*
X384746Y-82722D01*
X384730D01*
X384714Y-82719D01*
D02*
G37*
G36*
X501816Y790891D02*
X501796D01*
X501771Y790888D01*
X501745Y790886D01*
X501722Y790881D01*
X501702Y790873D01*
X501684Y790868D01*
X501671Y790863D01*
X501664Y790860D01*
X501661Y790858D01*
X501638Y790843D01*
X501621Y790827D01*
X501603Y790812D01*
X501590Y790797D01*
X501580Y790782D01*
X501572Y790771D01*
X501570Y790764D01*
X501567Y790761D01*
X501557Y790738D01*
X501549Y790713D01*
X501544Y790693D01*
X501542Y790672D01*
X501539Y790657D01*
X501537Y790642D01*
Y790634D01*
Y790632D01*
X501539Y790594D01*
X501547Y790558D01*
X501560Y790525D01*
X501572Y790500D01*
X501585Y790477D01*
X501598Y790462D01*
X501605Y790451D01*
X501608Y790449D01*
X501636Y790423D01*
X501666Y790406D01*
X501697Y790393D01*
X501727Y790385D01*
X501753Y790378D01*
X501773Y790375D01*
X501791D01*
X501832Y790378D01*
X501870Y790388D01*
X501900Y790398D01*
X501928Y790413D01*
X501948Y790426D01*
X501966Y790439D01*
X501976Y790449D01*
X501979Y790451D01*
X502004Y790479D01*
X502022Y790512D01*
X502037Y790543D01*
X502045Y790571D01*
X502050Y790599D01*
X502055Y790619D01*
Y790632D01*
Y790634D01*
Y790637D01*
X502052Y790677D01*
X502045Y790713D01*
X502032Y790743D01*
X502019Y790769D01*
X502004Y790792D01*
X501994Y790807D01*
X501984Y790817D01*
X501981Y790820D01*
X501953Y790843D01*
X501923Y790860D01*
X501892Y790873D01*
X501862Y790881D01*
X501837Y790886D01*
X501816Y790891D01*
D02*
G37*
G36*
X501811Y790246D02*
X501796D01*
X501763Y790243D01*
X501732Y790238D01*
X501707Y790228D01*
X501684Y790218D01*
X501666Y790208D01*
X501654Y790197D01*
X501646Y790192D01*
X501643Y790190D01*
X501626Y790167D01*
X501610Y790142D01*
X501600Y790119D01*
X501595Y790093D01*
X501590Y790073D01*
X501588Y790058D01*
Y790048D01*
Y790042D01*
X501590Y790014D01*
X501595Y789986D01*
X501605Y789964D01*
X501616Y789943D01*
X501626Y789928D01*
X501636Y789915D01*
X501641Y789908D01*
X501643Y789905D01*
X501666Y789885D01*
X501692Y789872D01*
X501717Y789862D01*
X501740Y789855D01*
X501760Y789849D01*
X501778Y789847D01*
X501793D01*
X501826Y789849D01*
X501854Y789857D01*
X501880Y789867D01*
X501900Y789877D01*
X501918Y789887D01*
X501931Y789898D01*
X501938Y789905D01*
X501941Y789908D01*
X501961Y789931D01*
X501976Y789954D01*
X501986Y789979D01*
X501994Y790002D01*
X501999Y790020D01*
X502002Y790035D01*
Y790048D01*
Y790050D01*
X501999Y790080D01*
X501992Y790106D01*
X501984Y790131D01*
X501974Y790152D01*
X501961Y790167D01*
X501953Y790180D01*
X501946Y790187D01*
X501943Y790190D01*
X501920Y790208D01*
X501898Y790223D01*
X501872Y790233D01*
X501849Y790238D01*
X501829Y790243D01*
X501811Y790246D01*
D02*
G37*
G36*
X548028Y729358D02*
X548025D01*
X548014D01*
X548000D01*
X547978Y729355D01*
X547953D01*
X547926Y729352D01*
X547893Y729350D01*
X547859Y729347D01*
X547785Y729333D01*
X547707Y729316D01*
X547635Y729292D01*
X547599Y729275D01*
X547569Y729258D01*
X547566D01*
X547560Y729253D01*
X547552Y729247D01*
X547541Y729242D01*
X547513Y729220D01*
X547480Y729192D01*
X547444Y729156D01*
X547408Y729114D01*
X547378Y729067D01*
X547353Y729017D01*
X547350Y729012D01*
X547347Y728998D01*
X547339Y728973D01*
X547331Y728937D01*
X547325Y728893D01*
X547317Y728837D01*
X547314Y728804D01*
Y728768D01*
X547311Y728732D01*
Y728289D01*
X548773D01*
Y728743D01*
X548770Y728763D01*
X548767Y728804D01*
X548765Y728851D01*
X548759Y728901D01*
X548751Y728951D01*
X548740Y728992D01*
X548737Y728998D01*
X548734Y729012D01*
X548726Y729031D01*
X548715Y729056D01*
X548698Y729084D01*
X548682Y729111D01*
X548662Y729139D01*
X548640Y729167D01*
X548634Y729170D01*
X548624Y729181D01*
X548604Y729197D01*
X548576Y729217D01*
X548540Y729239D01*
X548499Y729264D01*
X548452Y729286D01*
X548399Y729305D01*
X548396D01*
X548391Y729308D01*
X548383Y729311D01*
X548372Y729314D01*
X548358Y729316D01*
X548338Y729322D01*
X548319Y729327D01*
X548297Y729333D01*
X548241Y729341D01*
X548178Y729350D01*
X548106Y729355D01*
X548028Y729358D01*
D02*
G37*
G36*
X548443Y724895D02*
X548438D01*
X548427D01*
X548405Y724892D01*
X548380Y724887D01*
X548352Y724881D01*
X548322Y724870D01*
X548291Y724856D01*
X548261Y724837D01*
X548258Y724834D01*
X548247Y724826D01*
X548233Y724815D01*
X548217Y724798D01*
X548197Y724776D01*
X548178Y724748D01*
X548161Y724718D01*
X548147Y724682D01*
X548144Y724676D01*
X548142Y724665D01*
X548136Y724640D01*
X548131Y724610D01*
X548125Y724571D01*
X548120Y724524D01*
X548114Y724466D01*
Y723962D01*
X548773D01*
Y724507D01*
X548770Y724566D01*
X548767Y724590D01*
X548765Y724613D01*
Y724615D01*
X548762Y724626D01*
X548759Y724643D01*
X548754Y724662D01*
X548737Y724709D01*
X548715Y724756D01*
X548712Y724759D01*
X548707Y724768D01*
X548698Y724779D01*
X548687Y724792D01*
X548671Y724806D01*
X548654Y724826D01*
X548632Y724840D01*
X548607Y724856D01*
X548604Y724859D01*
X548596Y724862D01*
X548579Y724867D01*
X548560Y724876D01*
X548538Y724884D01*
X548510Y724889D01*
X548477Y724892D01*
X548443Y724895D01*
D02*
G37*
G36*
X547605Y724812D02*
X547599D01*
X547588D01*
X547571Y724809D01*
X547549Y724806D01*
X547522Y724801D01*
X547494Y724792D01*
X547466Y724781D01*
X547439Y724765D01*
X547436Y724762D01*
X547427Y724756D01*
X547414Y724745D01*
X547400Y724732D01*
X547383Y724712D01*
X547366Y724690D01*
X547350Y724662D01*
X547339Y724632D01*
Y724629D01*
X547333Y724615D01*
X547331Y724596D01*
X547325Y724566D01*
X547319Y724524D01*
X547317Y724477D01*
X547311Y724416D01*
Y723962D01*
X547887D01*
Y724433D01*
X547884Y724469D01*
X547882Y724507D01*
X547879Y724546D01*
X547873Y724585D01*
X547868Y724615D01*
X547865Y724621D01*
X547862Y724632D01*
X547854Y724649D01*
X547843Y724671D01*
X547832Y724693D01*
X547815Y724718D01*
X547793Y724743D01*
X547771Y724762D01*
X547768Y724765D01*
X547760Y724770D01*
X547743Y724779D01*
X547724Y724787D01*
X547701Y724795D01*
X547674Y724804D01*
X547641Y724809D01*
X547605Y724812D01*
D02*
G37*
G36*
X547649Y721202D02*
X547646D01*
X547643D01*
X547630D01*
X547605Y721199D01*
X547577Y721193D01*
X547547Y721188D01*
X547510Y721177D01*
X547477Y721160D01*
X547444Y721141D01*
X547441Y721138D01*
X547430Y721130D01*
X547416Y721116D01*
X547397Y721099D01*
X547378Y721074D01*
X547361Y721047D01*
X547344Y721016D01*
X547331Y720980D01*
Y720977D01*
X547328Y720966D01*
X547325Y720950D01*
X547319Y720928D01*
X547317Y720894D01*
X547314Y720853D01*
X547311Y720803D01*
Y720255D01*
X547995D01*
Y720770D01*
X547992Y720789D01*
Y720808D01*
X547990Y720831D01*
X547984Y720883D01*
X547973Y720941D01*
X547956Y721000D01*
X547934Y721052D01*
X547920Y721077D01*
X547904Y721096D01*
X547898Y721102D01*
X547887Y721113D01*
X547865Y721130D01*
X547837Y721149D01*
X547801Y721168D01*
X547757Y721185D01*
X547707Y721196D01*
X547649Y721202D01*
D02*
G37*
%LPD*%
D14*
X548000Y745000D02*
Y836650D01*
M02*
